<?xml version="1.0" encoding="UTF-8" standalone="no"?>
<!-- Created using Karbon, part of Calligra: http://www.calligra.org/karbon -->

<svg
   xmlns:dc="http://purl.org/dc/elements/1.1/"
   xmlns:cc="http://creativecommons.org/ns#"
   xmlns:rdf="http://www.w3.org/1999/02/22-rdf-syntax-ns#"
   xmlns:svg="http://www.w3.org/2000/svg"
   xmlns="http://www.w3.org/2000/svg"
   xmlns:xlink="http://www.w3.org/1999/xlink"
   xmlns:sodipodi="http://sodipodi.sourceforge.net/DTD/sodipodi-0.dtd"
   xmlns:inkscape="http://www.inkscape.org/namespaces/inkscape"
   width="38.4pt"
   height="38.4pt"
   id="svg2"
   version="1.1"
   inkscape:version="0.48.5 r10040"
   sodipodi:docname="computer.svg">
  <metadata
     id="metadata17">
    <rdf:RDF>
      <cc:Work
         rdf:about="">
        <dc:format>image/svg+xml</dc:format>
        <dc:type
           rdf:resource="http://purl.org/dc/dcmitype/StillImage" />
      </cc:Work>
    </rdf:RDF>
  </metadata>
  <sodipodi:namedview
     pagecolor="#ffffff"
     bordercolor="#666666"
     borderopacity="1"
     objecttolerance="10"
     gridtolerance="10"
     guidetolerance="10"
     inkscape:pageopacity="0"
     inkscape:pageshadow="2"
     inkscape:window-width="1920"
     inkscape:window-height="1031"
     id="namedview15"
     showgrid="false"
     inkscape:zoom="13.906433"
     inkscape:cx="37.653288"
     inkscape:cy="17.294119"
     inkscape:window-x="-4"
     inkscape:window-y="32"
     inkscape:window-maximized="1"
     inkscape:current-layer="svg2" />
  <defs
     id="defs4">
    <linearGradient
       gradientUnits="userSpaceOnUse"
       id="a"
       x1="315.71201"
       x2="45.834"
       y1="216.897"
       y2="216.897">
      <stop
         offset="0"
         stop-color="#008BFF"
         id="stop7" />
      <stop
         offset="1"
         stop-color="#0af"
         id="stop9" />
    </linearGradient>
    <linearGradient
       gradientUnits="userSpaceOnUse"
       id="b"
       x1="82.124001"
       x2="188.908"
       y1="160.53799"
       y2="273.25601">
      <stop
         offset="0"
         stop-color="#008BFF"
         id="stop12" />
      <stop
         offset="1"
         stop-color="#4EAFFF"
         id="stop14" />
    </linearGradient>
    <linearGradient
       gradientUnits="userSpaceOnUse"
       id="a-4"
       x1="315.71201"
       x2="45.834"
       y1="216.897"
       y2="216.897">
      <stop
         offset="0"
         stop-color="#008BFF"
         id="stop7-0" />
      <stop
         offset="1"
         stop-color="#0af"
         id="stop9-2" />
    </linearGradient>
    <linearGradient
       gradientUnits="userSpaceOnUse"
       id="b-3"
       x1="82.124001"
       x2="188.908"
       y1="160.53799"
       y2="273.25601">
      <stop
         offset="0"
         stop-color="#008BFF"
         id="stop12-8" />
      <stop
         offset="1"
         stop-color="#4EAFFF"
         id="stop14-0" />
    </linearGradient>
    <linearGradient
       gradientUnits="userSpaceOnUse"
       id="b-5"
       x1="82.124001"
       x2="188.908"
       y1="160.53799"
       y2="273.25601">
      <stop
         offset="0"
         stop-color="#008BFF"
         id="stop12-2" />
      <stop
         offset="1"
         stop-color="#4EAFFF"
         id="stop14-9" />
    </linearGradient>
    <linearGradient
       inkscape:collect="always"
       xlink:href="#a-7"
       id="linearGradient3110"
       gradientUnits="userSpaceOnUse"
       x1="315.71201"
       y1="216.897"
       x2="45.834"
       y2="216.897" />
    <linearGradient
       gradientUnits="userSpaceOnUse"
       id="a-7"
       x1="315.71201"
       x2="45.834"
       y1="216.897"
       y2="216.897">
      <stop
         offset="0"
         stop-color="#008BFF"
         id="stop7-07" />
      <stop
         offset="1"
         stop-color="#0af"
         id="stop9-5" />
    </linearGradient>
  </defs>
  <path
     style="fill:#34495e;fill-opacity:1"
     inkscape:connector-curvature="0"
     id="path22"
     d="M 6.0909079,15.27288 H 29.363636 C 29.727273,15.27288 30,15.5456 30,15.90924 V 29.5455 c 0,0.36363 -0.272727,0.63636 -0.636364,0.63636 H 6.0909079 c -0.3636361,0 -0.6363641,-0.27273 -0.6363641,-0.63636 V 15.90924 c 0,-0.36364 0.272728,-0.63636 0.6363641,-0.63636 z m 3.4545462,19.4544 H 14.363635 V 32.8182 H 5.2727258 c -0.727272,0 -1.2727271,-0.63635 -1.2727271,-1.36362 v -16.1817 c 0,-0.72727 0.5454551,-1.36363 1.2727271,-1.36363 H 30 c 0.727273,0 1.272727,0.63636 1.272727,1.36363 v 16.1817 c 0,0.72727 -0.545454,1.36362 -1.272727,1.36362 h -9.090909 v 1.90908 h 4.818182 c 0.545454,0 1,0.45454 1,0.99999 V 36 H 8.545454 v -0.27273 c 0,-0.54545 0.4545451,-0.99999 1.0000001,-0.99999 z" />
  <path
     inkscape:connector-curvature="0"
     style="fill:#3498db;fill-opacity:1"
     id="path18"
     d="M 6.0909079,15.27288 H 29.363636 C 29.727273,15.27288 30,15.5456 30,15.90924 V 29.5455 c 0,0.36363 -0.272727,0.63636 -0.636364,0.63636 H 6.0909079 c -0.3636361,0 -0.6363641,-0.27273 -0.6363641,-0.63636 V 15.90924 c 0,-0.36364 0.272728,-0.63636 0.6363641,-0.63636 z" />
  <path
     inkscape:connector-curvature="0"
     style="fill:#3daee9;fill-opacity:1"
     id="path20"
     d="M 6.0909079,15.27288 H 21.727273 v 0.18182 c 0,6.45449 -3.636364,11.99991 -9.000001,14.72716 H 6.0909079 c -0.3636361,0 -0.6363641,-0.27273 -0.6363641,-0.63636 V 15.90924 c 0,-0.36364 0.272728,-0.63636 0.6363641,-0.63636 z" />
  <circle
     transform="matrix(0.0909091,0,0,0.09090842,1.2727256,3.00024)"
     style="fill:#2980b9;fill-opacity:1"
     sodipodi:ry="12"
     sodipodi:rx="12"
     sodipodi:cy="328"
     sodipodi:cx="180"
     id="circle24"
     r="12"
     cy="328"
     cx="180" />
  <path
     style="fill:#95a5a6;fill-opacity:1"
     inkscape:connector-curvature="0"
     id="path26"
     d="m 34.000001,35.72727 h 9.090909 c 0.545455,0 0.909091,-0.36363 0.909091,-0.90908 V 12.09108 c 0,-0.54545 -0.363636,-0.90908 -0.909091,-0.90908 h -9.090909 c -0.545455,0 -0.909091,0.36363 -0.909091,0.90908 v 22.72711 c 0,0.54545 0.363636,0.90908 0.909091,0.90908 z" />
  <path
     style="fill:#ffffff"
     inkscape:connector-curvature="0"
     id="path28"
     d="m 34.454546,14.81833 h 8.181819 v -1.81816 h -8.181819 v 1.81816 z m 0,3.1818 h 8.181819 v -1.81817 h -8.181819 v 1.81817 z" />
  <path
     style="fill:#ffffff"
     inkscape:connector-curvature="0"
     id="path30"
     d="m 37.636365,24.81826 v 8.18176 c 0,0.54545 0.363636,0.90908 0.909091,0.90908 0.545454,0 0.90909,-0.36363 0.90909,-0.90908 v -8.18176 c 0,-0.45454 -0.363636,-0.90908 -0.90909,-0.90908 -0.545455,0 -0.909091,0.45454 -0.909091,0.90908 z" />
  <path
     style="fill:#2980b9;fill-opacity:1"
     inkscape:connector-curvature="0"
     id="path32"
     d="m 39.909092,20.72738 c 0,0.72728 -0.636364,1.36363 -1.363636,1.36363 -0.727273,0 -1.363637,-0.63635 -1.363637,-1.36363 0,-0.72726 0.636364,-1.36362 1.363637,-1.36362 0.727272,0 1.363636,0.63636 1.363636,1.36362 z" />
  <line
     style="fill:none;stroke:#2980b9;stroke-width:0.68181568;stroke-linecap:round;stroke-opacity:1"
     id="line34"
     y2="28.454613"
     y1="33.000023"
     x2="38.545456"
     x1="38.545456" />
  <line
     style="fill:none;stroke:#2980b9;stroke-width:0.68181568;stroke-linecap:round;stroke-opacity:1"
     id="line36"
     y2="27.090965"
     y1="24.81826"
     x2="38.545456"
     x1="38.545456" />
</svg>
