<?xml version="1.0" encoding="UTF-8" standalone="no"?>
<!-- Created using Karbon, part of Calligra: http://www.calligra.org/karbon -->

<svg
   xmlns:dc="http://purl.org/dc/elements/1.1/"
   xmlns:cc="http://creativecommons.org/ns#"
   xmlns:rdf="http://www.w3.org/1999/02/22-rdf-syntax-ns#"
   xmlns:svg="http://www.w3.org/2000/svg"
   xmlns="http://www.w3.org/2000/svg"
   xmlns:xlink="http://www.w3.org/1999/xlink"
   xmlns:sodipodi="http://sodipodi.sourceforge.net/DTD/sodipodi-0.dtd"
   xmlns:inkscape="http://www.inkscape.org/namespaces/inkscape"
   width="38.4pt"
   height="38.4pt"
   id="svg2"
   version="1.1"
   inkscape:version="0.48.5 r10040"
   sodipodi:docname="modem.svg">
  <metadata
     id="metadata13">
    <rdf:RDF>
      <cc:Work
         rdf:about="">
        <dc:format>image/svg+xml</dc:format>
        <dc:type
           rdf:resource="http://purl.org/dc/dcmitype/StillImage" />
      </cc:Work>
    </rdf:RDF>
  </metadata>
  <sodipodi:namedview
     pagecolor="#ffffff"
     bordercolor="#666666"
     borderopacity="1"
     objecttolerance="10"
     gridtolerance="10"
     guidetolerance="10"
     inkscape:pageopacity="0"
     inkscape:pageshadow="2"
     inkscape:window-width="1920"
     inkscape:window-height="1035"
     id="namedview11"
     showgrid="false"
     inkscape:zoom="4.9166667"
     inkscape:cx="24"
     inkscape:cy="23.907458"
     inkscape:window-x="-4"
     inkscape:window-y="29"
     inkscape:window-maximized="1"
     inkscape:current-layer="svg2" />
  <defs
     id="defs4">
    <linearGradient
       inkscape:collect="always"
       xlink:href="#linearGradient4319"
       id="linearGradient8129"
       gradientUnits="userSpaceOnUse"
       x1="142.64099"
       y1="237.78233"
       x2="148.71315"
       y2="13.440231" />
    <linearGradient
       inkscape:collect="always"
       id="linearGradient4319">
      <stop
         style="stop-color:#ffffff;stop-opacity:1"
         offset="0"
         id="stop4321" />
      <stop
         style="stop-color:#1b2acd;stop-opacity:1"
         offset="1"
         id="stop4323" />
    </linearGradient>
    <radialGradient
       inkscape:collect="always"
       xlink:href="#linearGradient2760"
       id="radialGradient3212"
       gradientUnits="userSpaceOnUse"
       gradientTransform="matrix(-0.885286,0.970071,-1.000001,-0.9126,308.3361,164.5948)"
       cx="93.85569"
       cy="131.12328"
       fx="93.85569"
       fy="131.12328"
       r="20.379173" />
    <linearGradient
       id="linearGradient2760"
       inkscape:collect="always">
      <stop
         id="stop2762"
         offset="0"
         style="stop-color:#fff3f3;stop-opacity:1" />
      <stop
         id="stop2764"
         offset="1"
         style="stop-color:white;stop-opacity:0" />
    </linearGradient>
    <radialGradient
       inkscape:collect="always"
       xlink:href="#linearGradient2772"
       id="radialGradient3214"
       gradientUnits="userSpaceOnUse"
       gradientTransform="matrix(0.877451,-0.979924,0.999998,0.895425,-121.7393,175.071)"
       cx="105.11835"
       cy="123.62705"
       fx="105.11835"
       fy="123.62705"
       r="20.379173" />
    <linearGradient
       inkscape:collect="always"
       id="linearGradient2772">
      <stop
         style="stop-color:#442727;stop-opacity:1"
         offset="0"
         id="stop2774" />
      <stop
         style="stop-color:white;stop-opacity:0"
         offset="1"
         id="stop10230" />
    </linearGradient>
    <radialGradient
       inkscape:collect="always"
       xlink:href="#linearGradient2824"
       id="radialGradient3192"
       gradientUnits="userSpaceOnUse"
       gradientTransform="matrix(1,0,0,0.980769,0,3.378098)"
       cx="-18.100702"
       cy="175.66074"
       fx="-18.100702"
       fy="175.66074"
       r="7.2402806" />
    <linearGradient
       id="linearGradient2824"
       inkscape:collect="always">
      <stop
         id="stop10219"
         offset="0"
         style="stop-color:#a1aba1;stop-opacity:1;" />
      <stop
         id="stop2828"
         offset="1"
         style="stop-color:#a1aba1;stop-opacity:0;" />
    </linearGradient>
    <linearGradient
       inkscape:collect="always"
       xlink:href="#linearGradient2842"
       id="linearGradient3194"
       gradientUnits="userSpaceOnUse"
       gradientTransform="scale(1.0097563,0.9903379)"
       x1="-25.096136"
       y1="177.37454"
       x2="-10.755487"
       y2="177.37454" />
    <linearGradient
       id="linearGradient2842">
      <stop
         style="stop-color:#100fa4;stop-opacity:0;"
         offset="0"
         id="stop2844" />
      <stop
         id="stop2848"
         offset="0.5"
         style="stop-color:#1818d9;stop-opacity:0;" />
      <stop
         style="stop-color:#0000e6;stop-opacity:0;"
         offset="0.75"
         id="stop2850" />
      <stop
         id="stop2852"
         offset="0.875"
         style="stop-color:#0207b7;stop-opacity:0.17525773;" />
      <stop
         style="stop-color:#030a9f;stop-opacity:0.6082474;"
         offset="1"
         id="stop2854" />
    </linearGradient>
  </defs>
  <g
     transform="matrix(0.17225175,0,0,0.17225262,2.3179569,5.4240696)"
     id="g3230">
    <g
       style="fill:#2c2c2c;fill-opacity:1"
       id="g6566"
       transform="matrix(0.44866203,0,0,0.44691809,123.73968,7.4810813)">
      <rect
         ry="9.4827566"
         y="24.712645"
         x="34.482758"
         height="217.24138"
         width="18.965513"
         id="rect6568"
         style="fill:#2c2c2c;fill-opacity:1;stroke:none" />
      <path
         inkscape:connector-curvature="0"
         sodipodi:nodetypes="cscc"
         id="path6570"
         d="m 34.547498,33.400051 c 0,-5.214063 4.231703,-9.445766 9.445766,-9.445765 5.209996,0 9.439376,4.224202 9.445758,9.434195 -1.499988,6.157515 -17.913371,5.99797 -18.891524,0.01157 z"
         style="fill:#2c2c2c;fill-opacity:1;stroke:none"
         transform="matrix(1,0,0,0.9281768,0,2.3988987)" />
    </g>
    <g
       style="fill:#2c2c2c;fill-opacity:1"
       transform="matrix(0.44866203,0,0,0.44691809,1.7758133,28.285889)"
       id="g6558">
      <rect
         style="fill:#2c2c2c;fill-opacity:1;stroke:none"
         id="rect6529"
         width="18.965513"
         height="217.24138"
         x="34.482758"
         y="24.712645"
         ry="9.4827566" />
      <path
         inkscape:connector-curvature="0"
         transform="matrix(1,0,0,0.9281768,0,2.3988987)"
         style="fill:#2c2c2c;fill-opacity:1;stroke:none"
         d="m 34.547498,33.400051 c 0,-5.214063 4.231703,-9.445766 9.445766,-9.445765 5.209996,0 9.439376,4.224202 9.445758,9.434195 -1.499988,6.157515 -17.913371,5.99797 -18.891524,0.01157 z"
         id="path6539"
         sodipodi:nodetypes="cscc" />
    </g>
    <g
       transform="matrix(0.44866203,0,0,0.44691809,-39.35018,9.4466562)"
       id="g3250"
       style="fill:#808080;fill-opacity:1;stroke:none">
      <path
         inkscape:connector-curvature="0"
         style="fill:#808080;stroke:none"
         id="path3266"
         d="m 158.16448,328.67891 243.15625,-54.7363 181.26156,84.52365 -243.15625,54.7363 -181.26156,-84.52365 z" />
      <path
         inkscape:connector-curvature="0"
         style="fill:#808080;stroke:none"
         id="path3256"
         d="m 123.63254,317.97373 c 5.31407,2.47799 11.77279,3.17218 18.75069,1.6014 l 181.26156,84.52365 c -6.9779,1.57078 -13.43663,0.87659 -18.7507,-1.6014 L 123.63254,317.97373 z" />
      <path
         inkscape:connector-curvature="0"
         style="fill:#808080;stroke:none"
         id="path3258"
         d="m 142.38323,319.57513 8.9375,-2.01189 181.26156,84.52365 -8.9375,2.01189 -181.26156,-84.52365 z" />
      <path
         inkscape:connector-curvature="0"
         style="fill:#808080;stroke:none"
         id="path3268"
         d="m 401.32073,273.94261 c 4.51947,-1.01736 8.15627,-5.47282 8.15625,-9.99228 l 181.26156,84.52365 c 2e-5,4.51946 -3.63678,8.97492 -8.15625,9.99228 L 401.32073,273.94261 z" />
      <path
         inkscape:connector-curvature="0"
         style="fill:#808080;stroke:none"
         id="path3270"
         d="m 409.47698,263.95033 c 0,-1.65501 -0.50334,-3.10339 -1.34375,-4.19751 l 181.26156,84.52365 c 0.84041,1.09412 1.34375,2.5425 1.34375,4.19751 L 409.47698,263.95033 z" />
      <path
         inkscape:connector-curvature="0"
         style="fill:#808080;stroke:none"
         id="path3272"
         d="m 408.13323,259.75282 4.25,-0.95671 181.26156,84.52365 -4.25,0.95671 -181.26156,-84.52365 z" />
      <path
         inkscape:connector-curvature="0"
         style="fill:#808080;stroke:none"
         id="path3274"
         d="m 412.38323,258.79611 c 18.22368,-4.10229 32.87501,-22.05172 32.875,-40.27541 l 181.26156,84.52365 c 1e-5,18.22369 -14.65132,36.17312 -32.875,40.27541 L 412.38323,258.79611 z" />
      <path
         inkscape:connector-curvature="0"
         style="fill:#808080;stroke:none"
         id="path3276"
         d="m 445.25823,218.5207 c 0,-11.26017 -5.59363,-19.90923 -14.1674,-23.90724 l 181.26156,84.52365 c 8.57376,3.99801 14.1674,12.64707 14.1674,23.90724 L 445.25823,218.5207 z" />
      <path
         inkscape:connector-curvature="0"
         style="fill:#808080;fill-opacity:1;stroke:none"
         id="path3280"
         d="m 412.38323,193.01486 -270,60.77902 181.26156,84.52365 270,-60.77902 -181.26156,-84.52365 z" />
      <path
         inkscape:connector-curvature="0"
         style="fill:#808080;stroke:none"
         id="path3264"
         d="m 153.51974,328.28221 c 1.31632,0.61381 2.91595,0.78586 4.64474,0.3967 l 181.26156,84.52365 c -1.72879,0.38916 -3.32842,0.21711 -4.64474,-0.3967 L 153.51974,328.28221 z" />
      <path
         inkscape:connector-curvature="0"
         style="fill:#808080;fill-opacity:1;stroke:none"
         id="path3262"
         transform="translate(103.15789,41.578947)"
         d="m 48.15625,275.96875 c -0.840412,1.4725 -1.3125,3.15749 -1.3125,4.8125 -2e-6,2.79068 1.40638,4.94665 3.53125,5.9375 l 181.25,84.5 c -2.12488,-0.99083 -3.5,-3.11556 -3.5,-5.90625 1e-5,-1.65502 0.47209,-3.34001 1.3125,-4.8125 L 48.15625,275.96875 z" />
      <path
         inkscape:connector-curvature="0"
         style="fill:#808080;fill-opacity:1;stroke:none"
         id="path3254"
         transform="translate(103.15789,41.578947)"
         d="m 39.21875,212.21875 c -18.223692,4.10229 -32.90625,22.08882 -32.90625,40.3125 1e-7,11.24579 5.59193,19.88139 14.15625,23.875 l 181.28125,84.5 c -8.56432,-3.99359 -14.15625,-12.59797 -14.15625,-23.84375 0,-18.22367 14.68256,-36.21021 32.90625,-40.3125 L 39.21875,212.21875 z" />
      <path
         inkscape:connector-curvature="0"
         style="fill:#808080;fill-opacity:1;stroke:none"
         id="path3278"
         d="m 431.09083,194.61346 c -5.30218,-2.47245 -11.74408,-3.16614 -18.7076,-1.5986 l 181.26156,84.52365 c 6.96351,-1.56754 13.40542,-0.87385 18.7076,1.5986 L 431.09083,194.61346 z" />
    </g>
    <path
       inkscape:connector-curvature="0"
       id="rect2396"
       d="m 105.63666,160.90422 c -8.176284,1.83339 -14.763795,9.87243 -14.763795,18.01692 0,8.14449 6.587511,13.2153 14.763795,11.38191 l 4.00991,-0.89915 c -0.37706,0.65808 -0.58886,1.40352 -0.58886,2.14318 0,2.01983 1.63167,3.27929 3.65939,2.82461 l 109.09498,-24.46264 c 2.02772,-0.45468 3.6594,-2.4459 3.65939,-4.46572 0,-0.73966 -0.22582,-1.38697 -0.60288,-1.87595 l 1.90681,-0.42758 c 8.17627,-1.83338 14.74977,-9.8553 14.74977,-17.9998 0,-8.1445 -6.57349,-13.23241 -14.74977,-11.39902 l -121.13874,27.16324 z"
       style="fill:#2c2c2c;fill-opacity:1;stroke:#b2b2b2;stroke-width:0.91621971;stroke-linecap:round;stroke-linejoin:round;stroke-miterlimit:4;stroke-opacity:0.63636361;stroke-dasharray:none" />
    <path
       inkscape:connector-curvature="0"
       sodipodi:nodetypes="ccccccccc"
       id="path3356"
       d="m 87.997117,164.37257 c 2.351818,-4.97508 6.039286,-6.62704 10.424881,-7.81229 L 218.39284,128.9452 c 1.1553,-0.28324 2.4001,-0.2693 3.74476,0.0762 l -2.20484,-1.03371 c -1.19747,-0.27007 -2.44155,-0.33116 -3.76506,-0.0362 L 96.36513,155.9464 c -4.573414,1.28444 -7.285464,2.91757 -9.610686,7.7817 l 1.242673,0.64449 z"
       style="fill:#000000;fill-opacity:1;fill-rule:evenodd;stroke:#000000;stroke-width:0.13743299;stroke-linecap:round;stroke-linejoin:round;stroke-miterlimit:4;stroke-opacity:1;stroke-dasharray:none" />
    <path
       inkscape:connector-curvature="0"
       style="fill:#000000;fill-opacity:1;fill-rule:evenodd;stroke:#000000;stroke-width:0.13743299;stroke-linecap:round;stroke-linejoin:round;stroke-miterlimit:4;stroke-opacity:1;stroke-dasharray:none"
       d="m 76.393788,158.72188 c 2.351818,-4.97509 6.039287,-6.62704 10.424882,-7.81229 L 206.7895,123.29451 c 1.1553,-0.28324 2.40011,-0.26929 3.74477,0.0763 l -2.20485,-1.03371 c -1.19746,-0.27008 -2.44154,-0.33116 -3.76505,-0.0362 L 84.761801,150.29571 c -4.573414,1.28443 -7.285464,2.91755 -9.610686,7.78169 l 1.242673,0.64448 z"
       id="path3358"
       sodipodi:nodetypes="ccccccccc" />
    <path
       inkscape:connector-curvature="0"
       sodipodi:nodetypes="ccccccccc"
       id="path3360"
       d="m 84.12934,162.57463 c 2.351819,-4.97509 6.039287,-6.62705 10.424882,-7.8123 L 214.52506,127.14725 c 1.15529,-0.28323 2.40011,-0.26929 3.74476,0.0763 l -2.20484,-1.03371 c -1.19746,-0.27007 -2.44154,-0.33116 -3.76506,-0.0362 l -119.802567,27.9949 c -4.573413,1.28444 -7.285463,2.91756 -9.610685,7.7817 l 1.242672,0.64448 z"
       style="fill:#000000;fill-opacity:1;fill-rule:evenodd;stroke:#000000;stroke-width:0.13743299;stroke-linecap:round;stroke-linejoin:round;stroke-miterlimit:4;stroke-opacity:1;stroke-dasharray:none" />
    <path
       inkscape:connector-curvature="0"
       style="fill:#000000;fill-opacity:1;fill-rule:evenodd;stroke:#000000;stroke-width:0.13743299;stroke-linecap:round;stroke-linejoin:round;stroke-miterlimit:4;stroke-opacity:1;stroke-dasharray:none"
       d="m 80.003713,160.77668 c 2.35182,-4.97509 6.039288,-6.62704 10.424882,-7.81229 L 210.39943,125.34931 c 1.1553,-0.28324 2.4001,-0.2693 3.74477,0.0763 l -2.20485,-1.03372 c -1.19746,-0.27007 -2.44154,-0.33115 -3.76505,-0.0362 l -119.802574,27.9949 c -4.573413,1.28444 -7.285463,2.91757 -9.610685,7.7817 l 1.242672,0.64448 z"
       id="path3362"
       sodipodi:nodetypes="ccccccccc" />
    <path
       inkscape:connector-curvature="0"
       style="fill:#000000;fill-opacity:1;fill-rule:evenodd;stroke:#000000;stroke-width:0.13743299;stroke-linecap:round;stroke-linejoin:round;stroke-miterlimit:4;stroke-opacity:1;stroke-dasharray:none"
       d="m 72.783862,156.92393 c 2.351819,-4.97508 6.039287,-6.62703 10.424882,-7.81229 L 203.17958,121.49657 c 1.1553,-0.28325 2.4001,-0.2693 3.74477,0.0762 l -2.20485,-1.03371 c -1.19746,-0.27008 -2.44155,-0.33116 -3.76505,-0.0362 L 81.151875,148.49777 c -4.573413,1.28443 -7.285463,2.91756 -9.610685,7.7817 l 1.242672,0.64448 z"
       id="path3364"
       sodipodi:nodetypes="ccccccccc" />
    <path
       inkscape:connector-curvature="0"
       sodipodi:nodetypes="ccccccccc"
       id="path3366"
       d="m 68.916086,155.12599 c 2.351818,-4.97509 6.039286,-6.62704 10.424882,-7.8123 L 199.3118,119.69862 c 1.1553,-0.28325 2.40011,-0.26929 3.74477,0.0763 l -2.20485,-1.03371 c -1.19746,-0.27008 -2.44154,-0.33116 -3.76505,-0.0362 l -119.802571,27.9949 c -4.573414,1.28443 -7.285464,2.91755 -9.610686,7.78169 l 1.242673,0.64448 z"
       style="fill:#000000;fill-opacity:1;fill-rule:evenodd;stroke:#000000;stroke-width:0.13743299;stroke-linecap:round;stroke-linejoin:round;stroke-miterlimit:4;stroke-opacity:1;stroke-dasharray:none" />
    <path
       inkscape:connector-curvature="0"
       style="fill:#000000;fill-opacity:1;fill-rule:evenodd;stroke:#000000;stroke-width:0.13743299;stroke-linecap:round;stroke-linejoin:round;stroke-miterlimit:4;stroke-opacity:1;stroke-dasharray:none"
       d="m 65.04831,153.32804 c 2.351818,-4.97509 6.039287,-6.62704 10.424881,-7.81229 L 195.44403,117.90067 c 1.1553,-0.28324 2.4001,-0.26929 3.74477,0.0763 l -2.20485,-1.03372 c -1.19747,-0.27008 -2.44155,-0.33116 -3.76506,-0.0362 L 73.416323,144.90188 c -4.573414,1.28443 -7.285464,2.91755 -9.610686,7.7817 l 1.242673,0.64447 z"
       id="path3368"
       sodipodi:nodetypes="ccccccccc" />
    <path
       inkscape:connector-curvature="0"
       sodipodi:nodetypes="ccccccccc"
       id="path3370"
       d="m 61.180533,151.53009 c 2.351819,-4.97508 6.039288,-6.62703 10.424882,-7.81229 L 191.57625,116.10272 c 1.15531,-0.28324 2.40011,-0.26929 3.74476,0.0763 l -2.20484,-1.03371 c -1.19746,-0.27008 -2.44154,-0.33116 -3.76506,-0.0362 L 69.548546,143.10393 c -4.573413,1.28443 -7.285463,2.91756 -9.610685,7.7817 l 1.242672,0.64448 z"
       style="fill:#000000;fill-opacity:1;fill-rule:evenodd;stroke:#000000;stroke-width:0.13743299;stroke-linecap:round;stroke-linejoin:round;stroke-miterlimit:4;stroke-opacity:1;stroke-dasharray:none" />
    <path
       inkscape:connector-curvature="0"
       style="fill:#000000;fill-opacity:1;fill-rule:evenodd;stroke:#000000;stroke-width:0.13743299;stroke-linecap:round;stroke-linejoin:round;stroke-miterlimit:4;stroke-opacity:1;stroke-dasharray:none"
       d="m 57.312757,149.4753 c 2.351819,-4.97509 6.039287,-6.62704 10.424882,-7.81229 L 187.70848,114.04793 c 1.15529,-0.28324 2.4001,-0.2693 3.74476,0.0763 l -2.20484,-1.03372 c -1.19746,-0.27007 -2.44154,-0.33114 -3.76506,-0.0362 L 65.68077,141.04914 c -4.573414,1.28443 -7.285464,2.91755 -9.610685,7.7817 l 1.242672,0.64447 z"
       id="path3372"
       sodipodi:nodetypes="ccccccccc" />
    <path
       inkscape:connector-curvature="0"
       sodipodi:nodetypes="ccccccccc"
       id="path3374"
       d="m 53.444981,147.67735 c 2.351819,-4.97508 6.039287,-6.62704 10.424882,-7.81229 L 183.84069,112.24998 c 1.15531,-0.28324 2.40011,-0.2693 3.74477,0.0763 l -2.20485,-1.03371 c -1.19745,-0.27007 -2.44154,-0.33116 -3.76505,-0.0362 L 61.812994,139.25118 c -4.573414,1.28443 -7.285464,2.91755 -9.610686,7.7817 l 1.242673,0.64447 z"
       style="fill:#000000;fill-opacity:1;fill-rule:evenodd;stroke:#000000;stroke-width:0.13743299;stroke-linecap:round;stroke-linejoin:round;stroke-miterlimit:4;stroke-opacity:1;stroke-dasharray:none" />
    <path
       inkscape:connector-curvature="0"
       style="fill:#000000;fill-opacity:1;fill-rule:evenodd;stroke:#000000;stroke-width:0.13743299;stroke-linecap:round;stroke-linejoin:round;stroke-miterlimit:4;stroke-opacity:1;stroke-dasharray:none"
       d="m 49.835057,145.62255 c 2.351817,-4.97508 6.039286,-6.62703 10.42488,-7.81229 L 180.23077,110.19519 c 1.1553,-0.28324 2.4001,-0.2693 3.74477,0.0763 l -2.20485,-1.03372 c -1.19746,-0.27008 -2.44154,-0.33115 -3.76505,-0.0362 L 58.203068,137.19638 c -4.573413,1.28444 -7.285462,2.91756 -9.610684,7.7817 l 1.242673,0.64447 z"
       id="path3376"
       sodipodi:nodetypes="ccccccccc" />
    <path
       inkscape:connector-curvature="0"
       sodipodi:nodetypes="ccccccccc"
       id="path3378"
       d="m 45.709429,143.82461 c 2.351818,-4.97509 6.039286,-6.62704 10.424881,-7.8123 l 119.97084,-27.61507 c 1.1553,-0.28324 2.4001,-0.2693 3.74477,0.0763 l -2.20485,-1.03371 c -1.19747,-0.27008 -2.44155,-0.33116 -3.76506,-0.0362 l -119.802568,27.9949 c -4.573415,1.28444 -7.285464,2.91756 -9.610686,7.78169 l 1.242673,0.64448 z"
       style="fill:#000000;fill-opacity:1;fill-rule:evenodd;stroke:#000000;stroke-width:0.13743299;stroke-linecap:round;stroke-linejoin:round;stroke-miterlimit:4;stroke-opacity:1;stroke-dasharray:none" />
    <path
       inkscape:connector-curvature="0"
       style="fill:#000000;fill-opacity:1;fill-rule:evenodd;stroke:#000000;stroke-width:0.13743299;stroke-linecap:round;stroke-linejoin:round;stroke-miterlimit:4;stroke-opacity:1;stroke-dasharray:none"
       d="m 41.841652,142.02666 c 2.351819,-4.97509 6.039286,-6.62704 10.424882,-7.81229 L 172.23737,106.59929 c 1.1553,-0.28323 2.40011,-0.26929 3.74476,0.0763 l -2.20484,-1.03371 c -1.19746,-0.27008 -2.44154,-0.33116 -3.76506,-0.0362 L 50.209666,133.60049 c -4.573416,1.28444 -7.285463,2.91755 -9.610686,7.78169 l 1.242672,0.64448 z"
       id="path3380"
       sodipodi:nodetypes="ccccccccc" />
    <path
       inkscape:connector-curvature="0"
       sodipodi:nodetypes="ccccccccc"
       id="path3382"
       d="m 37.200321,140.22871 c 2.351817,-4.97508 6.039286,-6.62703 10.424882,-7.81229 L 167.59604,104.80135 c 1.15529,-0.28325 2.4001,-0.2693 3.74476,0.0763 l -2.20484,-1.03372 c -1.19746,-0.27007 -2.44154,-0.33115 -3.76506,-0.0362 L 45.568334,131.80254 c -4.573415,1.28443 -7.285463,2.91755 -9.610685,7.7817 l 1.242672,0.64447 z"
       style="fill:#000000;fill-opacity:1;fill-rule:evenodd;stroke:#000000;stroke-width:0.13743299;stroke-linecap:round;stroke-linejoin:round;stroke-miterlimit:4;stroke-opacity:1;stroke-dasharray:none" />
    <g
       style="fill:#6495ed"
       transform="matrix(0.03942266,-0.00400781,0,0.03926942,113.56783,167.69047)"
       id="g4337">
      <path
         sodipodi:type="arc"
         style="fill:#6495ed;fill-opacity:1;stroke:url(#linearGradient8129);stroke-width:2.55762053;stroke-linecap:round;stroke-linejoin:round;stroke-miterlimit:4;stroke-opacity:1;stroke-dasharray:none"
         id="path4339"
         sodipodi:cx="125.94023"
         sodipodi:cy="125.94023"
         sodipodi:rx="104.45977"
         sodipodi:ry="104.45977"
         d="M 230.4,125.94023 C 230.4,183.63177 183.63177,230.4 125.94023,230.4 68.248693,230.4 21.480461,183.63177 21.480461,125.94023 c 0,-57.691537 46.768232,-104.459769 104.459769,-104.459769 57.69154,0 104.45977,46.768232 104.45977,104.459769 z"
         transform="translate(-300.78542,99.217623)" />
      <path
         inkscape:connector-curvature="0"
         style="fill:#6495ed;fill-opacity:1;stroke:none"
         d="m -69.727526,225.81575 c -80.695144,-98.19767 -111.318184,73.51746 -208.919534,0 0,-57.66179 46.79798,-104.45978 104.45977,-104.45978 57.66179,0 104.459764,46.79799 104.459764,104.45978 l 0,0 z"
         id="path4341"
         sodipodi:nodetypes="ccsc" />
    </g>
    <path
       sodipodi:type="arc"
       style="fill:#808080;stroke:url(#radialGradient3212);stroke-width:4.09219265;stroke-linecap:round;stroke-linejoin:round;stroke-miterlimit:4;stroke-opacity:1;stroke-dasharray:none;stroke-dashoffset:0"
       id="path2802"
       sodipodi:cx="94.12365"
       sodipodi:cy="160.48399"
       sodipodi:rx="18.379173"
       sodipodi:ry="17.822229"
       d="m 112.50282,160.48399 c 0,9.84295 -8.22863,17.82223 -18.37917,17.82223 -10.150538,0 -18.379174,-7.97928 -18.379174,-17.82223 0,-9.84294 8.228636,-17.82223 18.379174,-17.82223 10.15054,0 18.37917,7.97929 18.37917,17.82223 z"
       transform="matrix(0.32433985,-0.06043851,0,-0.32334676,175.16039,213.78249)" />
    <path
       transform="matrix(0.32433985,-0.06043851,0,-0.32334676,174.97976,213.81615)"
       d="m 112.50282,160.48399 c 0,9.84295 -8.22863,17.82223 -18.37917,17.82223 -10.150538,0 -18.379174,-7.97928 -18.379174,-17.82223 0,-9.84294 8.228636,-17.82223 18.379174,-17.82223 10.15054,0 18.37917,7.97929 18.37917,17.82223 z"
       sodipodi:ry="17.822229"
       sodipodi:rx="18.379173"
       sodipodi:cy="160.48399"
       sodipodi:cx="94.12365"
       id="path2804"
       style="fill:#696969;stroke:url(#radialGradient3214);stroke-width:4.09219265;stroke-linecap:round;stroke-linejoin:round;stroke-miterlimit:4;stroke-opacity:1;stroke-dasharray:none;stroke-dashoffset:0"
       sodipodi:type="arc" />
    <path
       transform="matrix(0.41327152,-0.07701032,0,0.49824458,213.94553,68.483881)"
       d="m -8.0756979,172.73677 c 0,5.69045 -5.5480951,10.30348 -12.3920181,10.30348 -6.843923,0 -12.392019,-4.61303 -12.392019,-10.30348 0,-5.69045 5.548096,-10.30348 12.392019,-10.30348 6.843923,0 12.3920181,4.61303 12.3920181,10.30348 z"
       sodipodi:ry="10.303476"
       sodipodi:rx="12.392018"
       sodipodi:cy="172.73677"
       sodipodi:cx="-20.467716"
       id="path2812"
       style="fill:#adff2f;fill-opacity:1;stroke:none"
       sodipodi:type="arc" />
    <path
       transform="matrix(0.39979529,-0.07449912,0,0.40966782,212.8347,82.736469)"
       d="m -10.860422,175.66074 c 0,3.92179 -3.241584,7.10104 -7.24028,7.10104 -3.998697,0 -7.240281,-3.17925 -7.240281,-7.10104 0,-3.9218 3.241584,-7.10105 7.240281,-7.10105 3.998696,0 7.24028,3.17925 7.24028,7.10105 z"
       sodipodi:ry="7.1010442"
       sodipodi:rx="7.2402806"
       sodipodi:cy="175.66074"
       sodipodi:cx="-18.100702"
       id="path2822"
       style="fill:url(#radialGradient3192);fill-opacity:1;stroke:none"
       sodipodi:type="arc" />
    <path
       sodipodi:type="arc"
       style="fill:url(#linearGradient3194);fill-opacity:1;stroke:none"
       id="path2832"
       sodipodi:cx="-18.100702"
       sodipodi:cy="175.66074"
       sodipodi:rx="7.2402806"
       sodipodi:ry="7.1010442"
       d="m -10.860422,175.66074 c 0,3.92179 -3.241584,7.10104 -7.24028,7.10104 -3.998697,0 -7.240281,-3.17925 -7.240281,-7.10104 0,-3.9218 3.241584,-7.10105 7.240281,-7.10105 3.998696,0 7.24028,3.17925 7.24028,7.10105 z"
       transform="matrix(0.39979529,-0.07449912,0,0.40966782,212.8347,82.736469)" />
    <path
       transform="matrix(0.39979529,-0.07449912,0,-0.40966782,212.8347,226.66161)"
       d="m -10.860422,175.66074 c 0,3.92179 -3.241584,7.10104 -7.24028,7.10104 -3.998697,0 -7.240281,-3.17925 -7.240281,-7.10104 0,-3.9218 3.241584,-7.10105 7.240281,-7.10105 3.998696,0 7.24028,3.17925 7.24028,7.10105 z"
       sodipodi:ry="7.1010442"
       sodipodi:rx="7.2402806"
       sodipodi:cy="175.66074"
       sodipodi:cx="-18.100702"
       id="path2844"
       style="fill:#90ee90;fill-opacity:1;stroke:none"
       sodipodi:type="arc" />
  </g>
</svg>
