<?xml version="1.0" encoding="UTF-8" standalone="no"?>
<!-- Created with Inkscape (http://www.inkscape.org/) -->

<svg
   xmlns:dc="http://purl.org/dc/elements/1.1/"
   xmlns:cc="http://creativecommons.org/ns#"
   xmlns:rdf="http://www.w3.org/1999/02/22-rdf-syntax-ns#"
   xmlns:svg="http://www.w3.org/2000/svg"
   xmlns="http://www.w3.org/2000/svg"
   xmlns:xlink="http://www.w3.org/1999/xlink"
   xmlns:sodipodi="http://sodipodi.sourceforge.net/DTD/sodipodi-0.dtd"
   xmlns:inkscape="http://www.inkscape.org/namespaces/inkscape"
   width="48px"
   height="48px"
   id="svg3312"
   version="1.1"
   inkscape:version="0.91 r13725"
   sodipodi:docname="5C12_WorldofWarcraftLauncher.0.svg">
  <defs
     id="defs3314">
    <linearGradient
       inkscape:collect="always"
       xlink:href="#linearGradient3816-2"
       id="linearGradient4033"
       x1="-27"
       y1="13"
       x2="-24"
       y2="13"
       gradientUnits="userSpaceOnUse" />
    <linearGradient
       id="linearGradient3816-2">
      <stop
         style="stop-color:#591a01;stop-opacity:1;"
         offset="0"
         id="stop3818-4" />
      <stop
         style="stop-color:#2e0800;stop-opacity:1;"
         offset="1"
         id="stop3820-4" />
    </linearGradient>
    <linearGradient
       y2="10.597858"
       x2="-25.554958"
       y1="15.030381"
       x1="-25.573729"
       gradientUnits="userSpaceOnUse"
       id="linearGradient3310"
       xlink:href="#linearGradient3816-2"
       inkscape:collect="always" />
  </defs>
  <sodipodi:namedview
     id="base"
     pagecolor="#ffffff"
     bordercolor="#666666"
     borderopacity="1.0"
     inkscape:pageopacity="0.0"
     inkscape:pageshadow="2"
     inkscape:zoom="19.79899"
     inkscape:cx="40.957566"
     inkscape:cy="9.3797155"
     inkscape:current-layer="layer1"
     showgrid="true"
     inkscape:grid-bbox="true"
     inkscape:document-units="px"
     inkscape:snap-bbox="true"
     inkscape:snap-nodes="true"
     inkscape:snap-global="true"
     inkscape:window-width="3840"
     inkscape:window-height="2088"
     inkscape:window-x="0"
     inkscape:window-y="48"
     inkscape:window-maximized="1">
    <inkscape:grid
       type="xygrid"
       id="grid3347" />
  </sodipodi:namedview>
  <metadata
     id="metadata3317">
    <rdf:RDF>
      <cc:Work
         rdf:about="">
        <dc:format>image/svg+xml</dc:format>
        <dc:type
           rdf:resource="http://purl.org/dc/dcmitype/StillImage" />
      </cc:Work>
    </rdf:RDF>
  </metadata>
  <g
     id="layer1"
     inkscape:label="Layer 1"
     inkscape:groupmode="layer"
     style="display:inline">
    <path
       style="fill:#d59326;fill-opacity:1;stroke:#571901;stroke-opacity:1"
       d="m 23.960076,4.0719244 c -3.414858,0 -6.579913,0.920126 -9.350028,2.4959813 l -7.1313768,0 0,7.0521393 c -1.6054784,2.789167 -2.5355989,6.019599 -2.5355989,9.468883 0,3.449283 0.9301205,6.679716 2.5355989,9.468881 l 0,6.972905 6.9729018,0 c 2.804675,1.630024 6.030896,2.57522 9.508503,2.57522 3.477603,0 6.743447,-0.945196 9.548119,-2.57522 l 6.933281,0 0,-6.933283 c 1.620711,-2.79882 2.535603,-6.041625 2.535603,-9.508503 0,-3.466878 -0.914892,-6.709684 -2.535603,-9.508502 l 0,-7.0125203 -7.091755,0 C 30.579607,4.9920504 27.374932,4.0719244 23.960076,4.0719244 Z m 0.07924,3.2091198 c 8.715092,0 15.768264,7.0531758 15.768264,15.7682638 0,8.715092 -7.053172,15.807887 -15.768264,15.807887 -8.715087,0 -15.7682643,-7.092795 -15.7682643,-15.807887 0,-8.715088 7.0531773,-15.7682638 15.7682643,-15.7682638 z"
       id="rect3033-1"
       inkscape:connector-curvature="0" />
    <path
       style="fill:#d59326;fill-opacity:1;stroke:#571901;stroke-opacity:1"
       d="m 28.409557,13.507315 0.831995,1.148944 -1.862083,12.321434 c -1.370178,-5.547598 -3.162886,-12.899425 -3.1695,-12.915716 l -3.011026,12.876095 -2.337507,-11.212106 0.475426,-2.179033 -6.774808,-0.07924 c 0.541994,0.414034 0.955083,1.111034 1.386657,1.663988 l 4.278825,17.392636 c -0.352058,0.653129 -0.88094,1.269193 -1.307418,1.822461 2.284825,0.01211 4.618965,0.02739 6.576713,0.03953 l -0.475426,-2.060089 1.307421,-5.982431 1.109324,6.497477 -0.198095,1.545134 6.457859,-0.03962 -0.03962,-0.03962 -0.871612,-1.663991 2.614837,-16.322926 1.980939,-2.89217 c -2.324305,0.02561 -4.648603,0.05268 -6.972901,0.07924 z"
       id="rect3904"
       inkscape:connector-curvature="0"
       sodipodi:nodetypes="cccccccccccccccccccccc" />
  </g>
</svg>
