<?xml version="1.0" encoding="UTF-8" standalone="no"?>
<!-- Created with Inkscape (http://www.inkscape.org/) -->

<svg
   xmlns:dc="http://purl.org/dc/elements/1.1/"
   xmlns:cc="http://creativecommons.org/ns#"
   xmlns:rdf="http://www.w3.org/1999/02/22-rdf-syntax-ns#"
   xmlns:svg="http://www.w3.org/2000/svg"
   xmlns="http://www.w3.org/2000/svg"
   xmlns:xlink="http://www.w3.org/1999/xlink"
   xmlns:sodipodi="http://sodipodi.sourceforge.net/DTD/sodipodi-0.dtd"
   xmlns:inkscape="http://www.inkscape.org/namespaces/inkscape"
   width="48"
   height="48"
   id="svg2"
   version="1.1"
   inkscape:version="0.48.5 r10040"
   sodipodi:docname="acroread.svg"
   inkscape:export-filename="/home/uri/workspace/NitruxforAndroid/res/drawable-xhdpi/downloads.png"
   inkscape:export-xdpi="180"
   inkscape:export-ydpi="180">
  <defs
     id="defs4">
    <linearGradient
       inkscape:collect="always"
       xlink:href="#linearGradient3700"
       id="linearGradient3006"
       gradientUnits="userSpaceOnUse"
       gradientTransform="matrix(2.2865956,-0.61276898,-0.61266273,-2.2869922,342.03571,361.2)"
       x1="-74.577652"
       y1="71.012611"
       x2="-49.109947"
       y2="166.06383" />
    <linearGradient
       id="linearGradient3700">
      <stop
         id="stop3702"
         style="stop-color:#970303;stop-opacity:1"
         offset="0" />
      <stop
         id="stop3704"
         style="stop-color:#f31d0c;stop-opacity:1"
         offset="1" />
    </linearGradient>
  </defs>
  <sodipodi:namedview
     id="base"
     pagecolor="#ffffff"
     bordercolor="#666666"
     borderopacity="1.0"
     inkscape:pageopacity="0.0"
     inkscape:pageshadow="2"
     inkscape:zoom="2.236845"
     inkscape:cx="280.08301"
     inkscape:cy="-71.624912"
     inkscape:document-units="px"
     inkscape:current-layer="layer1"
     showgrid="false"
     inkscape:window-width="1920"
     inkscape:window-height="1035"
     inkscape:window-x="-4"
     inkscape:window-y="29"
     inkscape:window-maximized="1"
     showguides="true">
    <inkscape:grid
       type="xygrid"
       id="grid3850" />
    <sodipodi:guide
       position="4,44.000017"
       orientation="40,0"
       id="guide4110" />
    <sodipodi:guide
       position="4,4.0000174"
       orientation="0,40"
       id="guide4112" />
    <sodipodi:guide
       position="44,4.0000174"
       orientation="-40,0"
       id="guide4114" />
    <sodipodi:guide
       position="44,44.000017"
       orientation="0,-40"
       id="guide4116" />
    <sodipodi:guide
       position="8.999999,39.000017"
       orientation="30,0"
       id="guide4124" />
    <sodipodi:guide
       position="8.999999,9.0000174"
       orientation="0,30.000001"
       id="guide4126" />
    <sodipodi:guide
       position="39,9.0000174"
       orientation="-30,0"
       id="guide4128" />
    <sodipodi:guide
       position="39,39.000017"
       orientation="0,-30.000001"
       id="guide4130" />
    <sodipodi:guide
       position="14.999999,33.000017"
       orientation="18,0"
       id="guide4134" />
    <sodipodi:guide
       position="14.999999,15.000017"
       orientation="0,18.000001"
       id="guide4136" />
    <sodipodi:guide
       position="33,15.000017"
       orientation="-18,0"
       id="guide4138" />
    <sodipodi:guide
       position="33,33.000017"
       orientation="0,-18.000001"
       id="guide4140" />
  </sodipodi:namedview>
  <metadata
     id="metadata7">
    <rdf:RDF>
      <cc:Work
         rdf:about="">
        <dc:format>image/svg+xml</dc:format>
        <dc:type
           rdf:resource="http://purl.org/dc/dcmitype/StillImage" />
        <dc:title />
      </cc:Work>
    </rdf:RDF>
  </metadata>
  <g
     inkscape:label="Capa 1"
     inkscape:groupmode="layer"
     id="layer1"
     transform="translate(0,-1004.3622)">
    <rect
       style="fill:#e74c3c;fill-opacity:1;fill-rule:evenodd;stroke:none"
       id="rect3262"
       width="40"
       height="40"
       x="4"
       y="1008.3622"
       ry="20" />
    <path
       style="fill:#ffffff;fill-opacity:1;stroke:none;enable-background:new"
       id="path3860"
       inkscape:connector-curvature="0"
       d="m 36.002539,1034.2382 c -0.0875,-0.1185 -0.22623,-0.285 -0.38235,-0.4452 -1.62427,-1.6671 -2.83742,-3.6355 -3.49098,-5.8157 -0.03,-0.1013 -0.06,-0.2027 -0.0869,-0.3043 -0.0282,-0.1023 -0.0526,-0.2067 -0.0778,-0.3105 -0.52316,-2.2136 -0.45918,-4.5261 0.11663,-6.7811 0,0 0.0879,-0.3723 0.11051,-0.5257 0.48397,-2.8492 -1.26979,-5.6501 -4.11516,-6.4131 -2.90109,-0.7774 -5.87443,0.8496 -6.82309,3.656 -0.0392,0.1047 -0.11908,0.3693 -0.12,0.3732 -0.62357,2.2106 -1.70692,4.2176 -3.23752,5.8605 -1.73875,1.8254 -3.94924,3.1232 -6.42758,3.7873 -3.01895,0.8089 -4.8125,3.9181 -4.00343,6.9388 0.8103,3.0201 3.91404,4.814 6.93513,4.0038 2.25426,-0.5756 4.56638,-0.6408 6.78054,-0.1178 0.10316,0.026 0.20694,0.051 0.30979,0.079 0.10317,0.028 0.20541,0.058 0.30765,0.087 2.17896,0.6543 4.14914,1.8667 5.81351,3.4922 0.20449,0.2048 0.38112,0.349 0.54612,0.4657 2.23742,1.7054 5.42106,1.5746 7.46104,-0.4657 2.07059,-2.0697 2.19059,-5.34 0.38388,-7.564 z m -13.71874,1.0235 c -2.95558,-0.792 -4.71025,-3.8317 -3.91832,-6.7878 0.79254,-2.9564 3.83108,-4.7114 6.78666,-3.9193 2.95681,0.7927 4.71087,3.8314 3.91863,6.7878 -0.79223,2.9564 -3.83016,4.7117 -6.78697,3.9193 z" />
  </g>
</svg>
