<?xml version="1.0" encoding="UTF-8" standalone="no"?>
<!-- Created with Inkscape (http://www.inkscape.org/) -->

<svg
   xmlns:dc="http://purl.org/dc/elements/1.1/"
   xmlns:cc="http://creativecommons.org/ns#"
   xmlns:rdf="http://www.w3.org/1999/02/22-rdf-syntax-ns#"
   xmlns:svg="http://www.w3.org/2000/svg"
   xmlns="http://www.w3.org/2000/svg"
   xmlns:sodipodi="http://sodipodi.sourceforge.net/DTD/sodipodi-0.dtd"
   xmlns:inkscape="http://www.inkscape.org/namespaces/inkscape"
   width="48"
   height="48"
   id="svg2"
   version="1.1"
   inkscape:version="0.48.5 r10040"
   sodipodi:docname="androidstudio.svg"
   inkscape:export-filename="/home/uri/workspace/NitruxforAndroid/res/drawable-xhdpi/downloads.png"
   inkscape:export-xdpi="180"
   inkscape:export-ydpi="180">
  <defs
     id="defs4">
    <filter
       id="filter3102"
       inkscape:label="Black Light"
       inkscape:menu="Color"
       inkscape:menu-tooltip="Light areas turn to black"
       x="0"
       width="1"
       y="0"
       height="1"
       color-interpolation-filters="sRGB">
      <feColorMatrix
         id="feColorMatrix3104"
         type="luminanceToAlpha"
         result="result2" />
      <feComposite
         k4="0"
         k2="0"
         k1="0"
         id="feComposite3106"
         in2="SourceGraphic"
         operator="arithmetic"
         in="result2"
         k3="2"
         result="result4" />
      <feBlend
         id="feBlend3108"
         in2="result2"
         in="result4"
         mode="multiply"
         result="result3" />
      <feComposite
         id="feComposite3110"
         in2="SourceGraphic"
         operator="in"
         in="result3" />
    </filter>
    <clipPath
       id="clipPath-790372096">
      <g
         transform="translate(0,-1004.3622)"
         id="g17">
        <path
           style="fill:#1890d0"
           inkscape:connector-curvature="0"
           d="m -24,13 c 0,1.105 -0.672,2 -1.5,2 -0.828,0 -1.5,-0.895 -1.5,-2 0,-1.105 0.672,-2 1.5,-2 0.828,0 1.5,0.895 1.5,2 z"
           transform="matrix(15.333333,0,0,11.5,414.99999,878.8622)"
           id="path19" />
      </g>
    </clipPath>
    <clipPath
       id="clipPath-780059703">
      <g
         transform="translate(0,-1004.3622)"
         id="g12">
        <path
           style="fill:#1890d0"
           inkscape:connector-curvature="0"
           d="m -24,13 c 0,1.105 -0.672,2 -1.5,2 -0.828,0 -1.5,-0.895 -1.5,-2 0,-1.105 0.672,-2 1.5,-2 0.828,0 1.5,0.895 1.5,2 z"
           transform="matrix(15.333333,0,0,11.5,414.99999,878.8622)"
           id="path14" />
      </g>
    </clipPath>
    <linearGradient
       id="linearGradient3764"
       x1="1"
       x2="47"
       gradientUnits="userSpaceOnUse"
       gradientTransform="matrix(0,-1,1,0,-1.5e-6,47.999998)">
      <stop
         stop-color="#7ca339"
         stop-opacity="1"
         id="stop7" />
      <stop
         offset="1"
         stop-color="#87b23e"
         stop-opacity="1"
         id="stop9" />
    </linearGradient>
  </defs>
  <sodipodi:namedview
     id="base"
     pagecolor="#ffffff"
     bordercolor="#666666"
     borderopacity="1.0"
     inkscape:pageopacity="0.0"
     inkscape:pageshadow="2"
     inkscape:zoom="8.9473799"
     inkscape:cx="-6.7312692"
     inkscape:cy="28.302154"
     inkscape:document-units="px"
     inkscape:current-layer="layer1"
     showgrid="false"
     inkscape:window-width="1920"
     inkscape:window-height="1025"
     inkscape:window-x="-4"
     inkscape:window-y="39"
     inkscape:window-maximized="1"
     showguides="true">
    <inkscape:grid
       type="xygrid"
       id="grid3850" />
    <sodipodi:guide
       position="4,44.000017"
       orientation="40,0"
       id="guide4110" />
    <sodipodi:guide
       position="4,4.0000174"
       orientation="0,40"
       id="guide4112" />
    <sodipodi:guide
       position="44,4.0000174"
       orientation="-40,0"
       id="guide4114" />
    <sodipodi:guide
       position="44,44.000017"
       orientation="0,-40"
       id="guide4116" />
    <sodipodi:guide
       position="8.999999,39.000017"
       orientation="30,0"
       id="guide4124" />
    <sodipodi:guide
       position="8.999999,9.0000174"
       orientation="0,30.000001"
       id="guide4126" />
    <sodipodi:guide
       position="39,9.0000174"
       orientation="-30,0"
       id="guide4128" />
    <sodipodi:guide
       position="39,39.000017"
       orientation="0,-30.000001"
       id="guide4130" />
    <sodipodi:guide
       position="14.999999,33.000017"
       orientation="18,0"
       id="guide4134" />
    <sodipodi:guide
       position="14.999999,15.000017"
       orientation="0,18.000001"
       id="guide4136" />
    <sodipodi:guide
       position="33,15.000017"
       orientation="-18,0"
       id="guide4138" />
    <sodipodi:guide
       position="33,33.000017"
       orientation="0,-18.000001"
       id="guide4140" />
  </sodipodi:namedview>
  <metadata
     id="metadata7">
    <rdf:RDF>
      <cc:Work
         rdf:about="">
        <dc:format>image/svg+xml</dc:format>
        <dc:type
           rdf:resource="http://purl.org/dc/dcmitype/StillImage" />
        <dc:title />
      </cc:Work>
    </rdf:RDF>
  </metadata>
  <g
     inkscape:label="Capa 1"
     inkscape:groupmode="layer"
     id="layer1"
     transform="translate(0,-1004.3622)">
    <g
       transform="matrix(0.85110005,0,0,0.85110638,3.1489,1007.5091)"
       id="g21">
      <path
         style="opacity:0.05"
         inkscape:connector-curvature="0"
         d="m 36.31,5 c 5.859,4.062 9.688,10.831 9.688,18.5 0,12.426 -10.07,22.5 -22.5,22.5 -7.669,0 -14.438,-3.828 -18.5,-9.688 1.037,1.822 2.306,3.499 3.781,4.969 4.085,3.712 9.514,5.969 15.469,5.969 12.703,0 23,-10.298 23,-23 0,-5.954 -2.256,-11.384 -5.969,-15.469 C 39.81,7.306 38.132,6.037 36.31,5 z m 4.969,3.781 c 3.854,4.113 6.219,9.637 6.219,15.719 0,12.703 -10.297,23 -23,23 -6.081,0 -11.606,-2.364 -15.719,-6.219 4.16,4.144 9.883,6.719 16.219,6.719 12.703,0 23,-10.298 23,-23 0,-6.335 -2.575,-12.06 -6.719,-16.219 z"
         id="path23" />
      <path
         style="opacity:0.1"
         inkscape:connector-curvature="0"
         d="m 41.28,8.781 c 3.712,4.085 5.969,9.514 5.969,15.469 0,12.703 -10.297,23 -23,23 -5.954,0 -11.384,-2.256 -15.469,-5.969 4.113,3.854 9.637,6.219 15.719,6.219 12.703,0 23,-10.298 23,-23 0,-6.081 -2.364,-11.606 -6.219,-15.719 z"
         id="path25" />
      <path
         style="opacity:0.2"
         inkscape:connector-curvature="0"
         d="M 31.25,2.375 C 39.865,5.529 46,13.792 46,23.505 c 0,12.426 -10.07,22.5 -22.5,22.5 -9.708,0 -17.971,-6.135 -21.12,-14.75 a 23,23 0 0 0 44.875,-7 23,23 0 0 0 -16,-21.875 z"
         id="path27" />
    </g>
    <g
       transform="matrix(0.85110005,0,0,0.85110638,3.1489,1007.5091)"
       id="g29">
      <path
         style="fill:url(#linearGradient3764);fill-opacity:1"
         inkscape:connector-curvature="0"
         d="M 24,1 C 36.703,1 47,11.297 47,24 47,36.703 36.703,47 24,47 11.297,47 1,36.703 1,24 1,11.297 11.297,1 24,1 z"
         id="path31" />
    </g>
    <g
       transform="matrix(0.85110005,0,0,0.85110638,3.1489,1007.5091)"
       id="g35">
      <g
         clip-path="url(#clipPath-780059703)"
         id="g37">
        <g
           transform="translate(1,1)"
           id="g39">
          <g
             style="opacity:0.1"
             id="g41">
            <!-- color: #87b23e -->
            <g
               id="g43">
              <path
                 style="fill:#000000;fill-opacity:1;fill-rule:nonzero;stroke:none"
                 inkscape:connector-curvature="0"
                 d="M 33.434,19 C 32.571,19 32,19.758 32,20.691 l 0,6.617 c 0,0.934 0.57,1.695 1.434,1.695 0.867,0 1.563,-0.762 1.563,-1.695 l 0,-6.617 C 34.997,19.757 34.298,19 33.434,19 m -18.871,0 c -0.863,0 -1.566,0.758 -1.566,1.691 l 0,6.617 c 0,0.934 0.703,1.695 1.566,1.695 0.863,0 1.434,-0.762 1.434,-1.695 l 0,-6.617 C 15.997,19.757 15.427,19 14.563,19 m 0,0"
                 id="path45" />
              <path
                 style="fill:#000000;fill-opacity:1;fill-rule:nonzero;stroke:none"
                 inkscape:connector-curvature="0"
                 d="m 17,19 0,11.594 C 17,31.282 17.32,32 18,32 l 2,0 0,3.375 c 0,0.898 0.316,1.625 1.188,1.625 0.867,0 1.813,-0.727 1.813,-1.625 l 0,-3.375 2,0 0,3.375 c 0,0.898 0.941,1.625 1.813,1.625 0.867,0 1.191,-0.727 1.191,-1.625 l 0,-3.375 2,0 c 0.676,0 1,-0.719 1,-1.406 l 0,-11.594 m -6.816,1 c 1.613,0.047 0.32,1.5 1.691,2.281 1.363,0.781 2.211,-0.926 2.969,0.375 0.758,1.301 -1.285,0.961 -1.344,2.438 -0.059,1.477 1.977,1.309 1.125,2.563 -0.855,1.254 -1.543,-0.508 -2.973,0.188 -1.426,0.695 -0.227,2.207 -1.844,2.156 -1.613,-0.047 -0.32,-1.5 -1.688,-2.281 -1.367,-0.777 -2.211,0.93 -2.969,-0.375 -0.758,-1.301 1.285,-0.961 1.344,-2.438 0.059,-1.473 -1.98,-1.309 -1.125,-2.563 0.855,-1.254 1.543,0.508 2.969,-0.188 1.246,-0.609 0.504,-1.859 1.375,-2.125 0.125,-0.039 0.266,-0.039 0.469,-0.031 M 24,23.781 c -0.09,0 -0.191,0.012 -0.281,0.031 -0.719,0.141 -1.184,0.773 -1.031,1.438 0.152,0.66 0.875,1.078 1.594,0.938 0.723,-0.141 1.188,-0.773 1.031,-1.438 C 25.18,24.172 24.622,23.777 24,23.781 m 0,0"
                 id="path47" />
              <path
                 style="fill:#000000;fill-opacity:1;fill-rule:nonzero;stroke:none"
                 inkscape:connector-curvature="0"
                 d="m 27.32,13.199 1.293,-1.844 c 0.078,-0.109 0.055,-0.25 -0.043,-0.32 -0.102,-0.07 -0.246,-0.035 -0.324,0.074 l -1.34,1.914 C 26.019,12.679 25.035,12.488 24,12.488 c -1.035,0 -2.02,0.191 -2.906,0.535 L 19.75,11.109 C 19.672,11 19.531,10.964 19.43,11.035 c -0.102,0.066 -0.121,0.211 -0.043,0.32 l 1.293,1.844 c -2.055,0.938 -3.5,2.723 -3.684,4.801 l 14,0 c -0.184,-2.078 -1.625,-3.867 -3.68,-4.801 m -6.27,2.902 c -0.43,0 -0.777,-0.34 -0.777,-0.762 0,-0.418 0.348,-0.758 0.777,-0.758 0.43,0 0.773,0.34 0.773,0.758 0,0.418 -0.348,0.762 -0.773,0.762 m 6,0 c -0.43,0 -0.777,-0.34 -0.777,-0.762 0,-0.418 0.348,-0.758 0.777,-0.758 0.426,0 0.773,0.34 0.773,0.758 0,0.418 -0.348,0.762 -0.773,0.762 m 0,0"
                 id="path49" />
            </g>
          </g>
        </g>
      </g>
    </g>
    <g
       transform="matrix(0.85110005,0,0,0.85110638,3.1489,1007.5091)"
       id="g51">
      <g
         clip-path="url(#clipPath-790372096)"
         id="g53">
        <!-- color: #87b23e -->
        <g
           id="g55">
          <path
             style="fill:#f9f9f9;fill-opacity:1;fill-rule:nonzero;stroke:none"
             inkscape:connector-curvature="0"
             d="M 33.434,19 C 32.571,19 32,19.758 32,20.691 l 0,6.617 c 0,0.934 0.57,1.695 1.434,1.695 0.867,0 1.563,-0.762 1.563,-1.695 l 0,-6.617 C 34.997,19.757 34.298,19 33.434,19 m -18.871,0 c -0.863,0 -1.566,0.758 -1.566,1.691 l 0,6.617 c 0,0.934 0.703,1.695 1.566,1.695 0.863,0 1.434,-0.762 1.434,-1.695 l 0,-6.617 C 15.997,19.757 15.427,19 14.563,19 m 0,0"
             id="path57" />
          <path
             style="fill:#f9f9f9;fill-opacity:1;fill-rule:nonzero;stroke:none"
             inkscape:connector-curvature="0"
             d="m 17,19 0,11.594 C 17,31.282 17.32,32 18,32 l 2,0 0,3.375 c 0,0.898 0.316,1.625 1.188,1.625 0.867,0 1.813,-0.727 1.813,-1.625 l 0,-3.375 2,0 0,3.375 c 0,0.898 0.941,1.625 1.813,1.625 0.867,0 1.191,-0.727 1.191,-1.625 l 0,-3.375 2,0 c 0.676,0 1,-0.719 1,-1.406 l 0,-11.594 m -6.816,1 c 1.613,0.047 0.32,1.5 1.691,2.281 1.363,0.781 2.211,-0.926 2.969,0.375 0.758,1.301 -1.285,0.961 -1.344,2.438 -0.059,1.477 1.977,1.309 1.125,2.563 -0.855,1.254 -1.543,-0.508 -2.973,0.188 -1.426,0.695 -0.227,2.207 -1.844,2.156 -1.613,-0.047 -0.32,-1.5 -1.688,-2.281 -1.367,-0.777 -2.211,0.93 -2.969,-0.375 -0.758,-1.301 1.285,-0.961 1.344,-2.438 0.059,-1.473 -1.98,-1.309 -1.125,-2.563 0.855,-1.254 1.543,0.508 2.969,-0.188 1.246,-0.609 0.504,-1.859 1.375,-2.125 0.125,-0.039 0.266,-0.039 0.469,-0.031 M 24,23.781 c -0.09,0 -0.191,0.012 -0.281,0.031 -0.719,0.141 -1.184,0.773 -1.031,1.438 0.152,0.66 0.875,1.078 1.594,0.938 0.723,-0.141 1.188,-0.773 1.031,-1.438 C 25.18,24.172 24.622,23.777 24,23.781 m 0,0"
             id="path59" />
          <path
             style="fill:#f9f9f9;fill-opacity:1;fill-rule:nonzero;stroke:none"
             inkscape:connector-curvature="0"
             d="m 27.32,13.199 1.293,-1.844 c 0.078,-0.109 0.055,-0.25 -0.043,-0.32 -0.102,-0.07 -0.246,-0.035 -0.324,0.074 l -1.34,1.914 C 26.019,12.679 25.035,12.488 24,12.488 c -1.035,0 -2.02,0.191 -2.906,0.535 L 19.75,11.109 C 19.672,11 19.531,10.964 19.43,11.035 c -0.102,0.066 -0.121,0.211 -0.043,0.32 l 1.293,1.844 c -2.055,0.938 -3.5,2.723 -3.684,4.801 l 14,0 c -0.184,-2.078 -1.625,-3.867 -3.68,-4.801 m -6.27,2.902 c -0.43,0 -0.777,-0.34 -0.777,-0.762 0,-0.418 0.348,-0.758 0.777,-0.758 0.43,0 0.773,0.34 0.773,0.758 0,0.418 -0.348,0.762 -0.773,0.762 m 6,0 c -0.43,0 -0.777,-0.34 -0.777,-0.762 0,-0.418 0.348,-0.758 0.777,-0.758 0.426,0 0.773,0.34 0.773,0.758 0,0.418 -0.348,0.762 -0.773,0.762 m 0,0"
             id="path61" />
        </g>
      </g>
    </g>
    <g
       transform="matrix(0.85110005,0,0,0.85110638,3.1489,1007.5091)"
       id="g63">
      <path
         style="opacity:0.1"
         inkscape:connector-curvature="0"
         d="m 40.03,7.531 c 3.712,4.084 5.969,9.514 5.969,15.469 0,12.703 -10.297,23 -23,23 C 17.045,46 11.615,43.744 7.53,40.031 11.708,44.322 17.54,47 23.999,47 c 12.703,0 23,-10.298 23,-23 0,-6.462 -2.677,-12.291 -6.969,-16.469 z"
         id="path65" />
    </g>
  </g>
</svg>
