<?xml version="1.0" encoding="UTF-8" standalone="no"?>
<!-- Created with Inkscape (http://www.inkscape.org/) -->

<svg
   xmlns:dc="http://purl.org/dc/elements/1.1/"
   xmlns:cc="http://creativecommons.org/ns#"
   xmlns:rdf="http://www.w3.org/1999/02/22-rdf-syntax-ns#"
   xmlns:svg="http://www.w3.org/2000/svg"
   xmlns="http://www.w3.org/2000/svg"
   xmlns:xlink="http://www.w3.org/1999/xlink"
   xmlns:sodipodi="http://sodipodi.sourceforge.net/DTD/sodipodi-0.dtd"
   xmlns:inkscape="http://www.inkscape.org/namespaces/inkscape"
   width="48"
   height="48"
   id="svg2"
   version="1.1"
   inkscape:version="0.48.5 r10040"
   viewBox="0 0 47.999998 48.000001"
   sodipodi:docname="audacious.svg"
   inkscape:export-filename="/home/pacomaro/.icons/flattr/apps/22/banshee.png"
   inkscape:export-xdpi="41.25"
   inkscape:export-ydpi="41.25">
  <defs
     id="defs4">
    <linearGradient
       inkscape:collect="always"
       xlink:href="#linearGradient3795"
       id="linearGradient4068"
       gradientUnits="userSpaceOnUse"
       gradientTransform="matrix(0,-5.2564888,5.2564888,0,-0.63917775,504.94278)"
       x1="16"
       y1="48"
       x2="80"
       y2="48" />
    <linearGradient
       id="linearGradient3795">
      <stop
         id="stop3797"
         style="stop-color:#050505;stop-opacity:1"
         offset="0" />
      <stop
         id="stop3799"
         style="stop-color:#191919;stop-opacity:1"
         offset="1" />
    </linearGradient>
    <clipPath
       id="clipPath-920913795">
      <g
         transform="translate(0,-1004.3622)"
         id="g17">
        <path
           style="fill:#1890d0"
           inkscape:connector-curvature="0"
           d="m -24,13 c 0,1.105 -0.672,2 -1.5,2 -0.828,0 -1.5,-0.895 -1.5,-2 0,-1.105 0.672,-2 1.5,-2 0.828,0 1.5,0.895 1.5,2 z"
           transform="matrix(15.333333,0,0,11.5,414.99999,878.8622)"
           id="path19" />
      </g>
    </clipPath>
    <clipPath
       id="clipPath-912649675">
      <g
         transform="translate(0,-1004.3622)"
         id="g12">
        <path
           style="fill:#1890d0"
           inkscape:connector-curvature="0"
           d="m -24,13 c 0,1.105 -0.672,2 -1.5,2 -0.828,0 -1.5,-0.895 -1.5,-2 0,-1.105 0.672,-2 1.5,-2 0.828,0 1.5,0.895 1.5,2 z"
           transform="matrix(15.333333,0,0,11.5,414.99999,878.8622)"
           id="path14" />
      </g>
    </clipPath>
    <linearGradient
       id="linearGradient3764"
       x1="1"
       x2="47"
       gradientUnits="userSpaceOnUse"
       gradientTransform="matrix(0,-1,1,0,-1.5e-6,47.999998)">
      <stop
         stop-color="#c74d95"
         stop-opacity="1"
         id="stop7" />
      <stop
         offset="1"
         stop-color="#cc5d9d"
         stop-opacity="1"
         id="stop9" />
    </linearGradient>
  </defs>
  <sodipodi:namedview
     id="base"
     pagecolor="#ffffff"
     bordercolor="#666666"
     borderopacity="1.0"
     inkscape:pageopacity="0.0"
     inkscape:pageshadow="2"
     inkscape:zoom="7.919596"
     inkscape:cx="53.546205"
     inkscape:cy="24.692511"
     inkscape:document-units="px"
     inkscape:current-layer="layer1"
     showgrid="false"
     borderlayer="true"
     inkscape:showpageshadow="false"
     units="px"
     inkscape:window-width="1920"
     inkscape:window-height="1025"
     inkscape:window-x="-4"
     inkscape:window-y="39"
     inkscape:window-maximized="1">
    <sodipodi:guide
       position="9.0000004,39.000018"
       orientation="29.999999,0"
       id="guide3266" />
    <sodipodi:guide
       position="9.0000004,9.0000182"
       orientation="0,30"
       id="guide3268" />
    <sodipodi:guide
       position="39.000001,9.0000182"
       orientation="-29.999999,0"
       id="guide3270" />
    <sodipodi:guide
       position="39.000001,39.000018"
       orientation="0,-30"
       id="guide3272" />
    <sodipodi:guide
       position="4.0000005,44.000017"
       orientation="39.999999,0"
       id="guide3276" />
    <sodipodi:guide
       position="4.0000005,4.0000183"
       orientation="0,40"
       id="guide3278" />
    <sodipodi:guide
       position="44.000001,4.0000183"
       orientation="-39.999999,0"
       id="guide3280" />
    <sodipodi:guide
       position="44.000001,44.000017"
       orientation="0,-40"
       id="guide3282" />
    <sodipodi:guide
       position="15,33.000018"
       orientation="18,0"
       id="guide4157" />
    <sodipodi:guide
       position="15,15.000018"
       orientation="0,18.000001"
       id="guide4159" />
    <sodipodi:guide
       position="33.000001,15.000018"
       orientation="-18,0"
       id="guide4161" />
    <sodipodi:guide
       position="33.000001,33.000018"
       orientation="0,-18.000001"
       id="guide4163" />
  </sodipodi:namedview>
  <metadata
     id="metadata7">
    <rdf:RDF>
      <cc:Work
         rdf:about="">
        <dc:format>image/svg+xml</dc:format>
        <dc:type
           rdf:resource="http://purl.org/dc/dcmitype/StillImage" />
        <dc:title />
      </cc:Work>
    </rdf:RDF>
  </metadata>
  <g
     inkscape:label="Capa 1"
     inkscape:groupmode="layer"
     id="layer1"
     transform="translate(0,-1004.3622)">
    <g
       transform="matrix(0.85106385,0,0,0.85106385,3.1489347,1007.5111)"
       id="g21">
      <path
         style="opacity:0.05"
         inkscape:connector-curvature="0"
         d="m 36.31,5 c 5.859,4.062 9.688,10.831 9.688,18.5 0,12.426 -10.07,22.5 -22.5,22.5 -7.669,0 -14.438,-3.828 -18.5,-9.688 1.037,1.822 2.306,3.499 3.781,4.969 4.085,3.712 9.514,5.969 15.469,5.969 12.703,0 23,-10.298 23,-23 0,-5.954 -2.256,-11.384 -5.969,-15.469 C 39.81,7.306 38.132,6.037 36.31,5 z m 4.969,3.781 c 3.854,4.113 6.219,9.637 6.219,15.719 0,12.703 -10.297,23 -23,23 -6.081,0 -11.606,-2.364 -15.719,-6.219 4.16,4.144 9.883,6.719 16.219,6.719 12.703,0 23,-10.298 23,-23 0,-6.335 -2.575,-12.06 -6.719,-16.219 z"
         id="path23" />
      <path
         style="opacity:0.1"
         inkscape:connector-curvature="0"
         d="m 41.28,8.781 c 3.712,4.085 5.969,9.514 5.969,15.469 0,12.703 -10.297,23 -23,23 -5.954,0 -11.384,-2.256 -15.469,-5.969 4.113,3.854 9.637,6.219 15.719,6.219 12.703,0 23,-10.298 23,-23 0,-6.081 -2.364,-11.606 -6.219,-15.719 z"
         id="path25" />
      <path
         style="opacity:0.2"
         inkscape:connector-curvature="0"
         d="M 31.25,2.375 C 39.865,5.529 46,13.792 46,23.505 c 0,12.426 -10.07,22.5 -22.5,22.5 -9.708,0 -17.971,-6.135 -21.12,-14.75 a 23,23 0 0 0 44.875,-7 23,23 0 0 0 -16,-21.875 z"
         id="path27" />
    </g>
    <g
       transform="matrix(0.85106385,0,0,0.85106385,3.1489347,1007.5111)"
       id="g29">
      <path
         style="fill:url(#linearGradient3764);fill-opacity:1"
         inkscape:connector-curvature="0"
         d="M 24,1 C 36.703,1 47,11.297 47,24 47,36.703 36.703,47 24,47 11.297,47 1,36.703 1,24 1,11.297 11.297,1 24,1 z"
         id="path31" />
    </g>
    <g
       transform="matrix(0.85106385,0,0,0.85106385,3.1489347,1007.5111)"
       id="g35">
      <g
         clip-path="url(#clipPath-912649675)"
         id="g37">
        <g
           transform="translate(1,1)"
           id="g39">
          <g
             style="opacity:0.1"
             id="g41">
            <!-- color: #cc5d9d -->
            <g
               id="g43">
              <path
                 style="fill:#000000;fill-opacity:1;fill-rule:nonzero;stroke:none"
                 inkscape:connector-curvature="0"
                 d="m 23.504,12 c -1.742,0 -3.391,0.309 -4.906,0.941 -1.512,0.625 -2.805,1.477 -3.934,2.563 -0.605,0.578 -1.156,1.215 -1.629,1.906 9.945,-5.652 16.652,0.398 16.559,2.313 -0.066,1.406 -1.297,1.145 -4.03,0.375 -5.816,-1.633 -11.82,0.457 -13.344,5.469 -0.512,1.758 -0.094,3.543 0.813,5 0.023,0.023 0.023,0.066 0.031,0.09 0.461,0.664 1.012,1.281 1.598,1.844 1.129,1.082 2.43,1.934 3.941,2.563 1.516,0.625 3.164,0.941 4.906,0.941 1.719,0 3.316,-0.313 4.844,-0.941 1.535,-0.629 2.867,-1.477 4,-2.563 1.129,-1.086 2,-2.359 2.656,-3.813 0.648,-1.453 1,-3.02 1,-4.688 0,-1.648 -0.352,-3.203 -1,-4.656 -0.656,-1.477 -1.527,-2.762 -2.656,-3.844 -1.133,-1.086 -2.465,-1.938 -4,-2.563 -1.523,-0.629 -3.125,-0.941 -4.844,-0.941 m -0.91,12.04 c 1.816,-0.086 3.602,0.383 4.844,1.27 1.238,0.887 1.801,2.098 1.531,3.293 -0.563,2.141 -3.59,3.59 -6.836,3.27 -3.242,-0.316 -5.516,-2.301 -5.105,-4.457 0.422,-1.852 2.738,-3.254 5.566,-3.371 m -0.004,-0.004"
                 id="path45" />
            </g>
          </g>
        </g>
      </g>
    </g>
    <g
       transform="matrix(0.85106385,0,0,0.85106385,3.1489347,1007.5111)"
       id="g47">
      <g
         clip-path="url(#clipPath-920913795)"
         id="g49">
        <!-- color: #cc5d9d -->
        <g
           id="g51">
          <path
             style="fill:#fbf4fa;fill-opacity:1;fill-rule:nonzero;stroke:none"
             inkscape:connector-curvature="0"
             d="m 23.504,12 c -1.742,0 -3.391,0.309 -4.906,0.941 -1.512,0.625 -2.805,1.477 -3.934,2.563 -0.605,0.578 -1.156,1.215 -1.629,1.906 9.945,-5.652 16.652,0.398 16.559,2.313 -0.066,1.406 -1.297,1.145 -4.03,0.375 -5.816,-1.633 -11.82,0.457 -13.344,5.469 -0.512,1.758 -0.094,3.543 0.813,5 0.023,0.023 0.023,0.066 0.031,0.09 0.461,0.664 1.012,1.281 1.598,1.844 1.129,1.082 2.43,1.934 3.941,2.563 1.516,0.625 3.164,0.941 4.906,0.941 1.719,0 3.316,-0.313 4.844,-0.941 1.535,-0.629 2.867,-1.477 4,-2.563 1.129,-1.086 2,-2.359 2.656,-3.813 0.648,-1.453 1,-3.02 1,-4.688 0,-1.648 -0.352,-3.203 -1,-4.656 -0.656,-1.477 -1.527,-2.762 -2.656,-3.844 -1.133,-1.086 -2.465,-1.938 -4,-2.563 -1.523,-0.629 -3.125,-0.941 -4.844,-0.941 m -0.91,12.04 c 1.816,-0.086 3.602,0.383 4.844,1.27 1.238,0.887 1.801,2.098 1.531,3.293 -0.563,2.141 -3.59,3.59 -6.836,3.27 -3.242,-0.316 -5.516,-2.301 -5.105,-4.457 0.422,-1.852 2.738,-3.254 5.566,-3.371 m -0.004,-0.004"
             id="path53" />
        </g>
      </g>
    </g>
    <g
       transform="matrix(0.85106385,0,0,0.85106385,3.1489347,1007.5111)"
       id="g55">
      <path
         style="opacity:0.1"
         inkscape:connector-curvature="0"
         d="m 40.03,7.531 c 3.712,4.084 5.969,9.514 5.969,15.469 0,12.703 -10.297,23 -23,23 C 17.045,46 11.615,43.744 7.53,40.031 11.708,44.322 17.54,47 23.999,47 c 12.703,0 23,-10.298 23,-23 0,-6.462 -2.677,-12.291 -6.969,-16.469 z"
         id="path57" />
    </g>
  </g>
</svg>
