<?xml version="1.0" encoding="UTF-8" standalone="no"?>
<!-- Created using Karbon, part of Calligra: http://www.calligra.org/karbon -->

<svg
   xmlns:dc="http://purl.org/dc/elements/1.1/"
   xmlns:cc="http://creativecommons.org/ns#"
   xmlns:rdf="http://www.w3.org/1999/02/22-rdf-syntax-ns#"
   xmlns:svg="http://www.w3.org/2000/svg"
   xmlns="http://www.w3.org/2000/svg"
   xmlns:sodipodi="http://sodipodi.sourceforge.net/DTD/sodipodi-0.dtd"
   xmlns:inkscape="http://www.inkscape.org/namespaces/inkscape"
   width="38.4pt"
   height="38.4pt"
   id="svg2"
   version="1.1"
   inkscape:version="0.48.5 r10040"
   sodipodi:docname="audio-tag-tool.svg">
  <metadata
     id="metadata11">
    <rdf:RDF>
      <cc:Work
         rdf:about="">
        <dc:format>image/svg+xml</dc:format>
        <dc:type
           rdf:resource="http://purl.org/dc/dcmitype/StillImage" />
        <dc:title />
      </cc:Work>
    </rdf:RDF>
  </metadata>
  <sodipodi:namedview
     pagecolor="#ffffff"
     bordercolor="#666666"
     borderopacity="1"
     objecttolerance="10"
     gridtolerance="10"
     guidetolerance="10"
     inkscape:pageopacity="0"
     inkscape:pageshadow="2"
     inkscape:window-width="1920"
     inkscape:window-height="1025"
     id="namedview9"
     showgrid="false"
     inkscape:zoom="8"
     inkscape:cx="11.870687"
     inkscape:cy="23.520285"
     inkscape:window-x="-4"
     inkscape:window-y="39"
     inkscape:window-maximized="1"
     inkscape:current-layer="svg2"
     inkscape:showpageshadow="false"
     borderlayer="true"
     showguides="true"
     inkscape:guide-bbox="true">
    <sodipodi:guide
       position="9.5367432e-07,48.000001"
       orientation="47.999999,0"
       id="guide4062" />
    <sodipodi:guide
       position="9.5367432e-07,1.9073486e-06"
       orientation="0,47.999999"
       id="guide4064" />
    <sodipodi:guide
       position="48,1.9073486e-06"
       orientation="-47.999999,0"
       id="guide4066" />
    <sodipodi:guide
       position="48,48.000001"
       orientation="0,-47.999999"
       id="guide4068" />
    <sodipodi:guide
       position="16,33.000001"
       orientation="1,0"
       id="guide4080" />
    <sodipodi:guide
       position="32,15.000002"
       orientation="1,0"
       id="guide4084" />
    <sodipodi:guide
       position="4.000001,44.000001"
       orientation="39.999999,0"
       id="guide4088" />
    <sodipodi:guide
       position="4.000001,4.0000019"
       orientation="0,39.999999"
       id="guide4090" />
    <sodipodi:guide
       position="44,4.0000019"
       orientation="-39.999999,0"
       id="guide4092" />
    <sodipodi:guide
       position="44,44.000001"
       orientation="0,-39.999999"
       id="guide4094" />
    <sodipodi:guide
       orientation="0,1"
       position="16,14"
       id="guide3005" />
    <sodipodi:guide
       orientation="0,1"
       position="16,24"
       id="guide3009" />
  </sodipodi:namedview>
  <defs
     id="defs4">
    <clipPath
       id="clipPath16"
       clipPathUnits="userSpaceOnUse">
      <path
         id="path18"
         d="m 0,706.465 1490.926,0 L 1490.926,0 0,0 0,706.465 Z" />
    </clipPath>
    <clipPath
       id="clipPath24"
       clipPathUnits="userSpaceOnUse">
      <path
         id="path26"
         d="m 22.1953,686.117 1447.7347,0 0,-667.1902 -1447.7347,0 L 22.1953,686.117 Z" />
    </clipPath>
    <clipPath
       id="clipPath-608500842">
      <g
         transform="translate(0,-1004.3622)"
         id="g7">
        <path
           style="fill:#1890d0"
           inkscape:connector-curvature="0"
           d="m -24,13 c 0,1.105 -0.672,2 -1.5,2 -0.828,0 -1.5,-0.895 -1.5,-2 0,-1.105 0.672,-2 1.5,-2 0.828,0 1.5,0.895 1.5,2 z"
           transform="matrix(15.333333,0,0,11.5,414.99999,878.8622)"
           id="path9" />
      </g>
    </clipPath>
    <linearGradient
       id="linearGradient3157"
       gradientUnits="userSpaceOnUse"
       gradientTransform="matrix(0,-0.85106383,0.85106383,0,3.1489352,43.999998)"
       x1="1"
       x2="47">
      <stop
         stop-color="#434343"
         stop-opacity="1"
         id="stop18" />
      <stop
         offset="1"
         stop-color="#4d4d4d"
         stop-opacity="1"
         id="stop20" />
    </linearGradient>
    <clipPath
       id="clipPath-223639780">
      <g
         transform="translate(0,-1004.3622)"
         id="g17">
        <path
           style="fill:#1890d0"
           inkscape:connector-curvature="0"
           d="m -24,13 c 0,1.105 -0.672,2 -1.5,2 -0.828,0 -1.5,-0.895 -1.5,-2 0,-1.105 0.672,-2 1.5,-2 0.828,0 1.5,0.895 1.5,2 z"
           transform="matrix(15.333333,0,0,11.5,414.99999,878.8622)"
           id="path19" />
      </g>
    </clipPath>
    <clipPath
       id="clipPath-216155616">
      <g
         transform="translate(0,-1004.3622)"
         id="g12">
        <path
           style="fill:#1890d0"
           inkscape:connector-curvature="0"
           d="m -24,13 c 0,1.105 -0.672,2 -1.5,2 -0.828,0 -1.5,-0.895 -1.5,-2 0,-1.105 0.672,-2 1.5,-2 0.828,0 1.5,0.895 1.5,2 z"
           transform="matrix(15.333333,0,0,11.5,414.99999,878.8622)"
           id="path14" />
      </g>
    </clipPath>
    <linearGradient
       id="linearGradient3764"
       x1="1"
       x2="47"
       gradientUnits="userSpaceOnUse"
       gradientTransform="matrix(0,-1,1,0,-1.5e-6,47.999998)">
      <stop
         stop-color="#e4e4e4"
         stop-opacity="1"
         id="stop7" />
      <stop
         offset="1"
         stop-color="#eee"
         stop-opacity="1"
         id="stop9" />
    </linearGradient>
  </defs>
  <g
     transform="matrix(0.85106383,0,0,0.85106383,3.1489362,3.1489362)"
     id="g21">
    <path
       style="opacity:0.05"
       inkscape:connector-curvature="0"
       d="m 36.31,5 c 5.859,4.062 9.688,10.831 9.688,18.5 0,12.426 -10.07,22.5 -22.5,22.5 -7.669,0 -14.438,-3.828 -18.5,-9.688 1.037,1.822 2.306,3.499 3.781,4.969 4.085,3.712 9.514,5.969 15.469,5.969 12.703,0 23,-10.298 23,-23 0,-5.954 -2.256,-11.384 -5.969,-15.469 C 39.81,7.306 38.132,6.037 36.31,5 z m 4.969,3.781 c 3.854,4.113 6.219,9.637 6.219,15.719 0,12.703 -10.297,23 -23,23 -6.081,0 -11.606,-2.364 -15.719,-6.219 4.16,4.144 9.883,6.719 16.219,6.719 12.703,0 23,-10.298 23,-23 0,-6.335 -2.575,-12.06 -6.719,-16.219 z"
       id="path23" />
    <path
       style="opacity:0.1"
       inkscape:connector-curvature="0"
       d="m 41.28,8.781 c 3.712,4.085 5.969,9.514 5.969,15.469 0,12.703 -10.297,23 -23,23 -5.954,0 -11.384,-2.256 -15.469,-5.969 4.113,3.854 9.637,6.219 15.719,6.219 12.703,0 23,-10.298 23,-23 0,-6.081 -2.364,-11.606 -6.219,-15.719 z"
       id="path25" />
    <path
       style="opacity:0.2"
       inkscape:connector-curvature="0"
       d="M 31.25,2.375 C 39.865,5.529 46,13.792 46,23.505 c 0,12.426 -10.07,22.5 -22.5,22.5 -9.708,0 -17.971,-6.135 -21.12,-14.75 a 23,23 0 0 0 44.875,-7 23,23 0 0 0 -16,-21.875 z"
       id="path27" />
  </g>
  <g
     transform="matrix(0.85106383,0,0,0.85106383,3.1489362,3.1489362)"
     id="g29">
    <path
       style="fill:url(#linearGradient3764);fill-opacity:1"
       inkscape:connector-curvature="0"
       d="M 24,1 C 36.703,1 47,11.297 47,24 47,36.703 36.703,47 24,47 11.297,47 1,36.703 1,24 1,11.297 11.297,1 24,1 z"
       id="path31" />
  </g>
  <g
     transform="matrix(0.85106383,0,0,0.85106383,3.1489362,3.1489362)"
     id="g35">
    <g
       clip-path="url(#clipPath-216155616)"
       id="g37">
      <g
         transform="translate(1,1)"
         id="g39">
        <g
           style="opacity:0.1"
           id="g41">
          <!-- color: #eeeeee -->
          <g
             id="g43">
            <path
               style="fill:#000000;fill-opacity:1;fill-rule:nonzero;stroke:none"
               inkscape:connector-curvature="0"
               d="m 36,13.977 c 0,0 -2,3 -5,3 -2.797,-0.539 -3.906,-0.082 -4,0 l 0,12.1 c -0.133,2.551 -2.223,5.105 -5.336,6.281 -3.949,1.492 -8.125,0.195 -9.332,-2.906 -1.211,-3.098 1,-6.848 4.953,-8.34 3.059,-1.156 5.867,-0.871 7.715,0.863 l 0,-12 c 4,-2.66 7.719,0.961 11,1 m 0,0"
               id="path45" />
            <path
               style="fill:#000000;fill-opacity:1;fill-rule:nonzero;stroke:none"
               inkscape:connector-curvature="0"
               d="m 17.969,22 13.773,0 0,4 -13.773,0 m 0,-4"
               id="path47" />
            <path
               style="fill:#000000;fill-opacity:1;fill-rule:nonzero;stroke:none"
               inkscape:connector-curvature="0"
               d="m 31,22 0,4 2.438,0 c 0,0 0.563,-0.324 0.563,-1.996 0,-1.613 -0.621,-2 -0.621,-2 l -2.375,0 M 31.001,22"
               id="path49" />
            <path
               style="fill:#000000;fill-opacity:1;fill-rule:nonzero;stroke:none"
               inkscape:connector-curvature="0"
               d="m 18,22 -4,2 4,1.996 0,-4 M 18,22"
               id="path51" />
            <path
               style="fill:#000000;fill-opacity:1;fill-rule:nonzero;stroke:none"
               inkscape:connector-curvature="0"
               d="M 16,22.98 14.004,24 16,25.016 m 0,-2.035"
               id="path53" />
          </g>
        </g>
      </g>
    </g>
  </g>
  <g
     transform="matrix(0.85106383,0,0,0.85106383,3.1489362,3.1489362)"
     id="g55">
    <g
       clip-path="url(#clipPath-223639780)"
       id="g57">
      <!-- color: #eeeeee -->
      <g
         id="g59">
        <path
           style="fill:#2d4c78;fill-opacity:1;fill-rule:nonzero;stroke:none"
           inkscape:connector-curvature="0"
           d="m 36,13.977 c 0,0 -2,3 -5,3 -2.797,-0.539 -3.906,-0.082 -4,0 l 0,12.1 c -0.133,2.551 -2.223,5.105 -5.336,6.281 -3.949,1.492 -8.125,0.195 -9.332,-2.906 -1.211,-3.098 1,-6.848 4.953,-8.34 3.059,-1.156 5.867,-0.871 7.715,0.863 l 0,-12 c 4,-2.66 7.719,0.961 11,1 m 0,0"
           id="path61" />
        <path
           style="fill:#ff6f03;fill-opacity:1;fill-rule:nonzero;stroke:none"
           inkscape:connector-curvature="0"
           d="m 17.969,22 13.773,0 0,4 -13.773,0 m 0,-4"
           id="path63" />
        <path
           style="fill:#ff2d5b;fill-opacity:1;fill-rule:nonzero;stroke:none"
           inkscape:connector-curvature="0"
           d="m 31,22 0,4 2.438,0 c 0,0 0.563,-0.324 0.563,-1.996 0,-1.613 -0.621,-2 -0.621,-2 l -2.375,0 M 31.001,22"
           id="path65" />
        <path
           style="fill:#ffc13d;fill-opacity:1;fill-rule:nonzero;stroke:none"
           inkscape:connector-curvature="0"
           d="m 18,22 -4,2 4,1.996 0,-4 M 18,22"
           id="path67" />
        <path
           style="fill:#2d2d2d;fill-opacity:1;fill-rule:nonzero;stroke:none"
           inkscape:connector-curvature="0"
           d="M 16,22.98 14.004,24 16,25.016 m 0,-2.035"
           id="path69" />
      </g>
    </g>
  </g>
  <g
     transform="matrix(0.85106383,0,0,0.85106383,3.1489362,3.1489362)"
     id="g71">
    <path
       style="opacity:0.1"
       inkscape:connector-curvature="0"
       d="m 40.03,7.531 c 3.712,4.084 5.969,9.514 5.969,15.469 0,12.703 -10.297,23 -23,23 C 17.045,46 11.615,43.744 7.53,40.031 11.708,44.322 17.54,47 23.999,47 c 12.703,0 23,-10.298 23,-23 0,-6.462 -2.677,-12.291 -6.969,-16.469 z"
       id="path73" />
  </g>
</svg>
