<?xml version="1.0" encoding="UTF-8" standalone="no"?>
<!-- Created with Inkscape (http://www.inkscape.org/) -->

<svg
   xmlns:dc="http://purl.org/dc/elements/1.1/"
   xmlns:cc="http://creativecommons.org/ns#"
   xmlns:rdf="http://www.w3.org/1999/02/22-rdf-syntax-ns#"
   xmlns:svg="http://www.w3.org/2000/svg"
   xmlns="http://www.w3.org/2000/svg"
   xmlns:sodipodi="http://sodipodi.sourceforge.net/DTD/sodipodi-0.dtd"
   xmlns:inkscape="http://www.inkscape.org/namespaces/inkscape"
   width="48"
   height="48"
   id="svg2"
   version="1.1"
   inkscape:version="0.48.5 r10040"
   sodipodi:docname="book.svg"
   inkscape:export-filename="/home/uri/workspace/NitruxforAndroid/res/drawable-xhdpi/downloads.png"
   inkscape:export-xdpi="180"
   inkscape:export-ydpi="180">
  <defs
     id="defs4">
    <linearGradient
       gradientUnits="userSpaceOnUse"
       id="SVGID_1_"
       x1="242"
       x2="271"
       y1="251.0303"
       y2="251.0303">
      <stop
         offset="0"
         style="stop-color:#EFEFEF"
         id="stop14" />
      <stop
         offset="1"
         style="stop-color:#E6E6E6"
         id="stop16" />
    </linearGradient>
    <linearGradient
       gradientUnits="userSpaceOnUse"
       id="SVGID_2_"
       x1="242"
       x2="271"
       y1="251.0303"
       y2="251.0303">
      <stop
         offset="0"
         style="stop-color:#EFEFEF"
         id="stop29" />
      <stop
         offset="1"
         style="stop-color:#E6E6E6"
         id="stop31" />
    </linearGradient>
  </defs>
  <sodipodi:namedview
     id="base"
     pagecolor="#ffffff"
     bordercolor="#666666"
     borderopacity="1.0"
     inkscape:pageopacity="0.0"
     inkscape:pageshadow="2"
     inkscape:zoom="6.326753"
     inkscape:cx="90.249207"
     inkscape:cy="-11.015363"
     inkscape:document-units="px"
     inkscape:current-layer="layer1"
     showgrid="false"
     inkscape:window-width="1920"
     inkscape:window-height="1035"
     inkscape:window-x="-4"
     inkscape:window-y="29"
     inkscape:window-maximized="1"
     showguides="true">
    <inkscape:grid
       type="xygrid"
       id="grid3850" />
    <sodipodi:guide
       position="4,44.000017"
       orientation="40,0"
       id="guide4110" />
    <sodipodi:guide
       position="4,4.0000174"
       orientation="0,40"
       id="guide4112" />
    <sodipodi:guide
       position="44,4.0000174"
       orientation="-40,0"
       id="guide4114" />
    <sodipodi:guide
       position="44,44.000017"
       orientation="0,-40"
       id="guide4116" />
    <sodipodi:guide
       position="8.999999,39.000017"
       orientation="30,0"
       id="guide4124" />
    <sodipodi:guide
       position="8.999999,9.0000174"
       orientation="0,30.000001"
       id="guide4126" />
    <sodipodi:guide
       position="39,9.0000174"
       orientation="-30,0"
       id="guide4128" />
    <sodipodi:guide
       position="39,39.000017"
       orientation="0,-30.000001"
       id="guide4130" />
    <sodipodi:guide
       position="14.999999,33.000017"
       orientation="18,0"
       id="guide4134" />
    <sodipodi:guide
       position="14.999999,15.000017"
       orientation="0,18.000001"
       id="guide4136" />
    <sodipodi:guide
       position="33,15.000017"
       orientation="-18,0"
       id="guide4138" />
    <sodipodi:guide
       position="33,33.000017"
       orientation="0,-18.000001"
       id="guide4140" />
  </sodipodi:namedview>
  <metadata
     id="metadata7">
    <rdf:RDF>
      <cc:Work
         rdf:about="">
        <dc:format>image/svg+xml</dc:format>
        <dc:type
           rdf:resource="http://purl.org/dc/dcmitype/StillImage" />
        <dc:title />
      </cc:Work>
    </rdf:RDF>
  </metadata>
  <g
     inkscape:label="Capa 1"
     inkscape:groupmode="layer"
     id="layer1"
     transform="translate(0,-1004.3622)">
    <g
       transform="matrix(0.08888889,0,0,0.08923724,1.2444444,1006.6516)"
       id="g3">
      <polygon
         style="fill:#b95a59"
         points="124.879,94.174 109.664,92.292 119.679,85.16 "
         id="polygon5" />
      <path
         style="fill:#656565"
         inkscape:connector-curvature="0"
         d="M 481,419.381 C 481,433.69 469.191,445 454.625,445 H 58.102 C 43.535,445 31,433.69 31,419.381 V 138.411 C 31,124.1 43.535,112 58.102,112 H 454.625 C 469.191,112 481,124.1 481,138.411 v 280.97 z"
         id="path7" />
      <rect
         style="fill:#f7f7f7"
         height="304"
         width="192"
         x="50"
         y="92"
         id="rect9" />
      <path
         style="fill:#c6c5c4"
         inkscape:connector-curvature="0"
         d="m 256.5,409.59 c 1.801,-6.761 7.5,-11.914 14.5,-12.856 V 396 h -29 v 0.733 c 7,0.943 12.699,6.096 14.5,12.857 z"
         id="path11" />
      <linearGradient
         gradientUnits="userSpaceOnUse"
         id="linearGradient3045"
         x1="242"
         x2="271"
         y1="251.0303"
         y2="251.0303">
        <stop
           offset="0"
           style="stop-color:#EFEFEF"
           id="stop3047" />
        <stop
           offset="1"
           style="stop-color:#E6E6E6"
           id="stop3049" />
      </linearGradient>
      <path
         style="fill:url(#SVGID_1_)"
         inkscape:connector-curvature="0"
         d="m 271,92.47 v 304.258 c -7,0.952 -12.693,6.097 -14.5,12.861 C 254.693,402.824 249,397.68 242,396.728 V 92.47 c 8,0.915 12.8,5.894 14.5,12.468 1.699,-6.574 7.5,-11.553 14.5,-12.468 z"
         id="path18" />
      <polygon
         style="fill:#efefef"
         points="416,42.372 416,344.266 269,395.373 269,93.48 "
         id="polygon20" />
      <rect
         style="fill:#d1d0cf"
         height="26"
         width="413"
         x="50"
         y="396"
         id="rect22" />
      <rect
         style="fill:#f7f7f7"
         height="304"
         width="192"
         x="50"
         y="92"
         id="rect24" />
      <rect
         style="fill:#f4f4f4"
         height="304"
         width="192"
         x="271"
         y="92"
         id="rect26" />
      <linearGradient
         gradientUnits="userSpaceOnUse"
         id="linearGradient3056"
         x1="242"
         x2="271"
         y1="251.0303"
         y2="251.0303">
        <stop
           offset="0"
           style="stop-color:#EFEFEF"
           id="stop3058" />
        <stop
           offset="1"
           style="stop-color:#E6E6E6"
           id="stop3060" />
      </linearGradient>
      <path
         style="fill:url(#SVGID_2_)"
         inkscape:connector-curvature="0"
         d="m 271,92.47 v 304.258 c -7,0.952 -12.693,6.097 -14.5,12.861 C 254.693,402.824 249,397.68 242,396.728 V 92.47 c 8,0.915 12.8,5.894 14.5,12.468 1.699,-6.574 7.5,-11.553 14.5,-12.468 z"
         id="path33" />
      <polygon
         style="fill:#f4f4f4"
         points="271.814,92.292 272.86,92.292 271.814,92.66 "
         id="polygon35" />
      <path
         style="fill:#f4f4f4"
         inkscape:connector-curvature="0"
         d="m 463,92 v 21.888 C 460,112.985 457.622,112 454.626,112 H 416 V 92 h 47 z"
         id="path37" />
      <polygon
         style="fill:#e0e2e0"
         points="416,41.581 416,344.829 269,396.165 269,92.917 "
         id="polygon39" />
      <polygon
         style="fill:#f67876"
         points="119,326.332 119,85 86,85 86,326.32 102.501,312.604 "
         id="polygon41" />
    </g>
  </g>
</svg>
