<?xml version="1.0" encoding="UTF-8" standalone="no"?>
<!-- Created with Inkscape (http://www.inkscape.org/) -->

<svg
   xmlns:dc="http://purl.org/dc/elements/1.1/"
   xmlns:cc="http://creativecommons.org/ns#"
   xmlns:rdf="http://www.w3.org/1999/02/22-rdf-syntax-ns#"
   xmlns:svg="http://www.w3.org/2000/svg"
   xmlns="http://www.w3.org/2000/svg"
   xmlns:xlink="http://www.w3.org/1999/xlink"
   xmlns:sodipodi="http://sodipodi.sourceforge.net/DTD/sodipodi-0.dtd"
   xmlns:inkscape="http://www.inkscape.org/namespaces/inkscape"
   width="48"
   height="48"
   id="svg5453"
   version="1.1"
   inkscape:version="0.48.4 r9939"
   sodipodi:docname="calligrabraindump.svg">
  <defs
     id="defs5455">
    <linearGradient
       inkscape:collect="always"
       xlink:href="#linearGradient4300-4"
       id="linearGradient4263"
       gradientUnits="userSpaceOnUse"
       gradientTransform="matrix(0.7272726,0,0,0.68965569,-383.84417,-497.86697)"
       x1="560.78583"
       y1="785.70648"
       x2="560.78583"
       y2="727.70654" />
    <linearGradient
       id="linearGradient4410-5"
       inkscape:collect="always">
      <stop
         id="stop4412-9"
         offset="0"
         style="stop-color:#383e51;stop-opacity:1" />
      <stop
         id="stop4414-3"
         offset="1"
         style="stop-color:#655c6f;stop-opacity:0" />
    </linearGradient>
    <linearGradient
       gradientTransform="translate(384.57144,499.798)"
       y2="31.999973"
       x2="32"
       y1="16"
       x1="16.000011"
       gradientUnits="userSpaceOnUse"
       id="linearGradient3042"
       xlink:href="#linearGradient4410-5"
       inkscape:collect="always" />
    <linearGradient
       inkscape:collect="always"
       id="linearGradient4300-4">
      <stop
         style="stop-color:#bdc3c7;stop-opacity:1"
         offset="0"
         id="stop4302" />
      <stop
         style="stop-color:#dadfe1;stop-opacity:1"
         offset="1"
         id="stop4304" />
    </linearGradient>
    <linearGradient
       inkscape:collect="always"
       xlink:href="#linearGradient4351"
       id="linearGradient4221"
       x1="408.57144"
       y1="531.79797"
       x2="408.57144"
       y2="515.79797"
       gradientUnits="userSpaceOnUse" />
    <linearGradient
       inkscape:collect="always"
       id="linearGradient4351">
      <stop
         style="stop-color:#566472;stop-opacity:1"
         offset="0"
         id="stop4353" />
      <stop
         style="stop-color:#6c7a89;stop-opacity:1"
         offset="1"
         id="stop4355" />
    </linearGradient>
  </defs>
  <sodipodi:namedview
     id="base"
     pagecolor="#ffffff"
     bordercolor="#666666"
     borderopacity="1.0"
     inkscape:pageopacity="0"
     inkscape:pageshadow="2"
     inkscape:zoom="11.313709"
     inkscape:cx="10.191634"
     inkscape:cy="24.687631"
     inkscape:document-units="px"
     inkscape:current-layer="layer1"
     showgrid="true"
     fit-margin-top="0"
     fit-margin-left="0"
     fit-margin-right="0"
     fit-margin-bottom="0"
     inkscape:window-width="1864"
     inkscape:window-height="1060"
     inkscape:window-x="54"
     inkscape:window-y="-3"
     inkscape:window-maximized="1"
     inkscape:showpageshadow="false"
     borderlayer="true"
     showguides="true"
     inkscape:snap-bbox="true"
     inkscape:snap-global="true"
     inkscape:bbox-nodes="false"
     inkscape:snap-others="false"
     inkscape:snap-to-guides="false">
    <inkscape:grid
       type="xygrid"
       id="grid4063" />
    <sodipodi:guide
       position="1.1650391e-05,47.999996"
       orientation="4,0"
       id="guide4146" />
    <sodipodi:guide
       position="39,44"
       orientation="0,48"
       id="guide4148" />
    <sodipodi:guide
       position="48.000012,43.999996"
       orientation="-4,0"
       id="guide4150" />
    <sodipodi:guide
       position="48.000012,47.999996"
       orientation="0,-48"
       id="guide4152" />
    <sodipodi:guide
       position="1.1650391e-05,4.0000264"
       orientation="4,0"
       id="guide4154" />
    <sodipodi:guide
       position="1.1650391e-05,2.6367188e-05"
       orientation="0,48"
       id="guide4156" />
    <sodipodi:guide
       position="48.000012,2.6367188e-05"
       orientation="-4,0"
       id="guide4158" />
    <sodipodi:guide
       position="48.000012,4.0000264"
       orientation="0,-48"
       id="guide4160" />
    <sodipodi:guide
       position="48.000012,48.000026"
       orientation="0,-4"
       id="guide4162" />
    <sodipodi:guide
       position="40,23"
       orientation="48,0"
       id="guide4164" />
    <sodipodi:guide
       position="44.000012,2.6367188e-05"
       orientation="0,4"
       id="guide4166" />
    <sodipodi:guide
       position="48.000012,2.6367188e-05"
       orientation="-48,0"
       id="guide4168" />
    <sodipodi:guide
       position="4.0000422,48.000026"
       orientation="0,-4"
       id="guide4170" />
    <sodipodi:guide
       position="4.2167969e-05,48.000026"
       orientation="48,0"
       id="guide4172" />
    <sodipodi:guide
       position="4.2167969e-05,2.6367188e-05"
       orientation="0,4"
       id="guide4174" />
    <sodipodi:guide
       position="8.0000117,43.999996"
       orientation="13.999969,0"
       id="guide4888" />
    <sodipodi:guide
       position="22.000012,43.999996"
       orientation="0,-14"
       id="guide4894" />
    <sodipodi:guide
       position="16.000012,32.000026"
       orientation="16,0"
       id="guide4216" />
    <sodipodi:guide
       position="16.000012,16.000026"
       orientation="0,16"
       id="guide4218" />
    <sodipodi:guide
       position="32.000012,16.000026"
       orientation="-16,0"
       id="guide4220" />
    <sodipodi:guide
       position="32.000012,32.000026"
       orientation="0,-16"
       id="guide4222" />
  </sodipodi:namedview>
  <metadata
     id="metadata5458">
    <rdf:RDF>
      <cc:Work
         rdf:about="">
        <dc:format>image/svg+xml</dc:format>
        <dc:type
           rdf:resource="http://purl.org/dc/dcmitype/StillImage" />
        <dc:title />
      </cc:Work>
    </rdf:RDF>
  </metadata>
  <g
     inkscape:label="Capa 1"
     inkscape:groupmode="layer"
     id="layer1"
     transform="translate(-384.57143,-499.798)">
    <path
       style="fill:url(#linearGradient4263);fill-opacity:1.0;stroke:none"
       d="M 8 4 C 7.994 4 8 7.56799 8 12 L 8 36 C 8 40.432 7.994 44 8 44 L 29.8125 44 L 40 44 C 40.006 44 40 40.432 40 36 L 40 34.34375 L 40 14 C 40 8.4771524 35.522847 4 30 4 L 8 4 z "
       transform="translate(384.57143,499.798)"
       id="path4259" />
    <rect
       style="fill:#2e3132;fill-opacity:0.29411765;stroke:none"
       id="rect4169-4"
       width="31.999989"
       height="0.99999309"
       x="392.57144"
       y="542.79797" />
    <path
       inkscape:connector-curvature="0"
       style="opacity:0.2;fill:url(#linearGradient3042);fill-opacity:1;fill-rule:evenodd;stroke:none"
       d="m 416.57144,515.798 -15,0 -0.0156,1.98437 0.0156,1.01563 -0.99999,0 0.99999,1 -1,1 1,1 0,6 -0.99999,0 0.99999,1 0,1 -1,0 1,1 0,1 12.00001,12 10.99023,0 c 0.006,0 0.01,-3.568 0.01,-8 l 0,-1.65625 0,-10.34375 -8,-8 z"
       id="path4276"
       sodipodi:nodetypes="ccccccccccccccccsscccc" />
    <path
       style="opacity:1;fill:url(#linearGradient4221);fill-opacity:1.0;stroke:none;stroke-width:0.1;stroke-miterlimit:4;stroke-dasharray:none;stroke-opacity:1"
       d="m 401.57143,515.798 0,2 -1,0 0,1 1,0 0,1 -1,0 0,1 1,0 0,6 -1,0 0,1 1,0 0,1 -1,0 0,1 1,0 0,2 3,0 12,0 0,-1 0,-15 -12,0 z m 3,1 2,0 1,0 8,0 0,2 0,1 0,2 0,1 0,2 0,1 0,2 0,1 0,2 -8,0 -1,0 -2,0 0,-2 0,-1 0,-2 0,-1 0,-2 0,-1 0,-2 0,-1 z m 1,2 0,2 2,0 0,-2 z m 3,0 0,1 6,0 0,-1 z m -3,4 0,2 2,0 0,-2 z m 3,0 0,1 6,0 0,-1 z m -3,4 0,2 2,0 0,-2 z m 3,0 0,1 6,0 0,-1 z"
       id="rect4151"
       inkscape:connector-curvature="0"
       sodipodi:nodetypes="ccccccccccccccccccccccccccccccccccccccccccccccccccccccccccccccccccccccccccccccc" />
  </g>
</svg>
