<?xml version="1.0" encoding="UTF-8" standalone="no"?>
<!-- Created with Inkscape (http://www.inkscape.org/) -->

<svg
   xmlns:dc="http://purl.org/dc/elements/1.1/"
   xmlns:cc="http://creativecommons.org/ns#"
   xmlns:rdf="http://www.w3.org/1999/02/22-rdf-syntax-ns#"
   xmlns:svg="http://www.w3.org/2000/svg"
   xmlns="http://www.w3.org/2000/svg"
   xmlns:xlink="http://www.w3.org/1999/xlink"
   xmlns:sodipodi="http://sodipodi.sourceforge.net/DTD/sodipodi-0.dtd"
   xmlns:inkscape="http://www.inkscape.org/namespaces/inkscape"
   width="48"
   height="48"
   id="svg2"
   version="1.1"
   inkscape:version="0.91 r13725"
   sodipodi:docname="celestia.svg">
  <defs
     id="defs4">
    <radialGradient
       inkscape:collect="always"
       xlink:href="#linearGradient9686"
       id="radialGradient3044"
       gradientUnits="userSpaceOnUse"
       gradientTransform="matrix(2.6715617,-0.97236813,1.1236326,3.0871578,18.434284,854.35482)"
       cx="44.814384"
       cy="20.096273"
       fx="44.814384"
       fy="20.096273"
       r="11.375441" />
    <linearGradient
       id="linearGradient9686">
      <stop
         style="stop-color:#ffffff;stop-opacity:0.74901962;"
         offset="0"
         id="stop9688" />
      <stop
         style="stop-color:#ffffff;stop-opacity:0;"
         offset="1"
         id="stop9690" />
    </linearGradient>
    <linearGradient
       id="linearGradient3124"
       gradientUnits="userSpaceOnUse"
       gradientTransform="matrix(0,-0.85106383,0.85106383,0,3.148934,1048.3622)"
       x1="1"
       x2="47"
       xlink:href="#linearGradient9686">
      <stop
         stop-color="#463b6b"
         stop-opacity="1"
         id="stop19" />
      <stop
         offset="1"
         stop-color="#4f4277"
         stop-opacity="1"
         id="stop21" />
    </linearGradient>
  </defs>
  <sodipodi:namedview
     id="base"
     pagecolor="#ffffff"
     bordercolor="#666666"
     borderopacity="1.0"
     inkscape:pageopacity="0.0"
     inkscape:pageshadow="2"
     inkscape:zoom="8.0624999"
     inkscape:cx="-3.9475779"
     inkscape:cy="32.04139"
     inkscape:document-units="px"
     inkscape:current-layer="layer1"
     showgrid="false"
     inkscape:window-width="3840"
     inkscape:window-height="2088"
     inkscape:window-x="0"
     inkscape:window-y="48"
     inkscape:window-maximized="1"
     inkscape:object-paths="true">
    <sodipodi:guide
       position="4,44.000017"
       orientation="40,0"
       id="guide4081" />
    <sodipodi:guide
       position="4,4.0000174"
       orientation="0,40"
       id="guide4083" />
    <sodipodi:guide
       position="44,4.0000174"
       orientation="-40,0"
       id="guide4085" />
    <sodipodi:guide
       position="44,44.000017"
       orientation="0,-40"
       id="guide4087" />
    <sodipodi:guide
       position="9,39.000017"
       orientation="30,0"
       id="guide4093" />
    <sodipodi:guide
       position="9,9.0000174"
       orientation="0,30"
       id="guide4095" />
    <sodipodi:guide
       position="39,9.0000174"
       orientation="-30,0"
       id="guide4097" />
    <sodipodi:guide
       position="39,39.000017"
       orientation="0,-30"
       id="guide4099" />
    <sodipodi:guide
       position="15,33.000017"
       orientation="18,0"
       id="guide4103" />
    <sodipodi:guide
       position="15,15.000017"
       orientation="0,18"
       id="guide4105" />
    <sodipodi:guide
       position="33,15.000017"
       orientation="-18,0"
       id="guide4107" />
    <sodipodi:guide
       position="33,33.000017"
       orientation="0,-18"
       id="guide4109" />
  </sodipodi:namedview>
  <metadata
     id="metadata7">
    <rdf:RDF>
      <cc:Work
         rdf:about="">
        <dc:format>image/svg+xml</dc:format>
        <dc:type
           rdf:resource="http://purl.org/dc/dcmitype/StillImage" />
        <dc:title />
      </cc:Work>
    </rdf:RDF>
  </metadata>
  <g
     inkscape:label="Capa 1"
     inkscape:groupmode="layer"
     id="layer1"
     transform="translate(0,-1004.3622)">
    <g
       transform="matrix(0.85106383,0,0,0.85106383,3.148936,1007.5111)"
       id="g23">
      <path
         style="opacity:0.05"
         inkscape:connector-curvature="0"
         d="m 36.31,5 c 5.859,4.062 9.688,10.831 9.688,18.5 0,12.426 -10.07,22.5 -22.5,22.5 -7.669,0 -14.438,-3.828 -18.5,-9.688 1.037,1.822 2.306,3.499 3.781,4.969 4.085,3.712 9.514,5.969 15.469,5.969 12.703,0 23,-10.298 23,-23 0,-5.954 -2.256,-11.384 -5.969,-15.469 C 39.81,7.306 38.132,6.037 36.31,5 z m 4.969,3.781 c 3.854,4.113 6.219,9.637 6.219,15.719 0,12.703 -10.297,23 -23,23 -6.081,0 -11.606,-2.364 -15.719,-6.219 4.16,4.144 9.883,6.719 16.219,6.719 12.703,0 23,-10.298 23,-23 0,-6.335 -2.575,-12.06 -6.719,-16.219 z"
         id="path25" />
      <path
         style="opacity:0.1"
         inkscape:connector-curvature="0"
         d="m 41.28,8.781 c 3.712,4.085 5.969,9.514 5.969,15.469 0,12.703 -10.297,23 -23,23 -5.954,0 -11.384,-2.256 -15.469,-5.969 4.113,3.854 9.637,6.219 15.719,6.219 12.703,0 23,-10.298 23,-23 0,-6.081 -2.364,-11.606 -6.219,-15.719 z"
         id="path27" />
      <path
         style="opacity:0.2"
         inkscape:connector-curvature="0"
         d="M 31.25,2.375 C 39.865,5.529 46,13.792 46,23.505 c 0,12.426 -10.07,22.5 -22.5,22.5 -9.708,0 -17.971,-6.135 -21.12,-14.75 a 23,23 0 0 0 44.875,-7 23,23 0 0 0 -16,-21.875 z"
         id="path29" />
    </g>
    <path
       style="fill:url(#linearGradient3124);fill-opacity:1.0"
       inkscape:connector-curvature="0"
       d="m 23.574468,1008.3622 c -10.802553,0 -19.56,8.7489 -19.574468,19.5481 12.332766,2.5055 24.621277,9.0936 37.95234,6.7557 0.768511,-2.0987 1.196596,-4.3634 1.196596,-6.7285 0,-10.811 -8.763404,-19.5745 -19.574468,-19.5745 z m 16.382979,30.2664 c -0.268936,0.411 -0.553192,0.8076 -0.851064,1.1966 0.302979,-0.3949 0.578723,-0.7787 0.851064,-1.1966 z m -0.851064,1.1966 c -0.297872,0.3889 -0.605106,0.7787 -0.931064,1.1438 0.325958,-0.3642 0.633192,-0.7549 0.931064,-1.1438 z m -2.154043,2.394 c -0.286808,0.2698 -0.574468,0.5192 -0.877446,0.7711 0.298723,-0.2485 0.594042,-0.5055 0.877446,-0.7711 z"
       id="path31" />
    <path
       style="fill:#808000;fill-opacity:1;fill-rule:nonzero;stroke:none"
       inkscape:connector-curvature="0"
       d="m 4,1027.9103 c 0,0.01 0,0.018 0,0.026 0,10.811 8.763404,19.5744 19.574468,19.5744 8.445958,0 15.633192,-5.3506 18.377872,-12.8425 C 28.621277,1037.0069 16.335319,1030.4188 4,1027.9124 z"
       id="path33" />
    <path
       style="opacity:0.1;fill:#000000;fill-opacity:1;fill-rule:nonzero;stroke:none"
       inkscape:connector-curvature="0"
       d="m 31.446809,1017.375 c -0.53532,-0.2392 -1.086809,-0.406 -1.642554,-0.5022 2.377022,1.8979 3.268085,5.2392 1.974468,8.1583 -1.29617,2.9192 -4.365106,4.4783 -7.357446,3.966 0.439149,0.3489 0.931063,0.6553 1.466383,0.8979 3.438297,1.5429 7.466383,-0.01 9.002553,-3.4639 1.53617,-3.4544 -0.0068,-7.5063 -3.444256,-9.0459 m 0,-0.01"
       id="path35" />
    <path
       style="opacity:0.1;fill:#000000;fill-opacity:1;fill-rule:nonzero;stroke:none"
       inkscape:connector-curvature="0"
       d="m 24.425532,1017.7239 c -0.0068,0 -0.01021,0 -0.01702,0 -0.01362,0 -0.02979,0 -0.0434,0.014 0,0 0,0 -0.0034,0 -0.04,0.017 -0.06638,0.043 -0.08681,0.066 -0.02638,0.037 -0.05362,0.077 -0.0766,0.12 -0.05617,0.089 -0.106383,0.2094 -0.162553,0.326 -0.05617,0.12 -0.113192,0.2357 -0.156596,0.3259 -0.01958,0.047 -0.04,0.083 -0.05958,0.1098 -0.0034,0.01 -0.0068,0.01 -0.01021,0.014 -0.0068,0 -0.01362,0 -0.02298,0.01 -0.02638,0.014 -0.06979,0.02 -0.116596,0.023 -0.09617,0.02 -0.219574,0.03 -0.342127,0.056 -0.125958,0.017 -0.245958,0.04 -0.345532,0.06 -0.04681,0.014 -0.09277,0.02 -0.132766,0.04 -0.01958,0.01 -0.04,0.02 -0.05958,0.033 -0.01957,0.017 -0.04681,0.037 -0.06298,0.089 -0.01702,0.05 -0.0068,0.087 0.0034,0.1098 0.01021,0.03 0.01702,0.047 0.02979,0.066 0.01957,0.037 0.05021,0.077 0.0834,0.1166 0.06638,0.08 0.16,0.1727 0.245958,0.263 0.08936,0.089 0.17617,0.1761 0.245957,0.2493 0.03319,0.037 0.06298,0.07 0.0834,0.093 0.0068,0.01 0.0068,0.01 0.01021,0.02 0,0 0,0.01 0,0.017 -0.0034,0.03 -0.0034,0.073 -0.01021,0.1234 -0.01702,0.103 -0.04,0.2298 -0.05957,0.3591 -0.02298,0.126 -0.04,0.2562 -0.05362,0.3626 -0.0068,0.056 -0.01021,0.096 -0.0068,0.143 0,0.019 0.0068,0.043 0.01702,0.073 0.0068,0.026 0.01702,0.059 0.05617,0.089 0.04,0.03 0.0766,0.03 0.102979,0.03 0.02298,0 0.04681,0 0.06638,-0.01 0.0434,-0.014 0.0834,-0.03 0.129361,-0.05 0.09277,-0.043 0.205958,-0.1 0.315745,-0.1626 0.113191,-0.063 0.21617,-0.1234 0.305532,-0.1727 0.04,-0.02 0.08,-0.043 0.106383,-0.054 0.0068,0 0.01362,0 0.01957,-0.01 0.0068,0 0.01362,0 0.01702,0.01 0.02638,0.01 0.06638,0.03 0.109787,0.054 0.08681,0.047 0.195745,0.1097 0.305532,0.1727 0.109787,0.06 0.222978,0.12 0.315744,0.1626 0.0434,0.017 0.08681,0.037 0.129362,0.05 0.01957,0.01 0.0434,0.01 0.06638,0.01 0.02638,0 0.05958,0 0.102979,-0.03 0.0366,-0.03 0.05021,-0.063 0.05362,-0.089 0.01362,-0.03 0.01702,-0.054 0.01702,-0.073 0,-0.047 0,-0.087 -0.0034,-0.143 -0.01362,-0.1064 -0.02979,-0.2358 -0.05617,-0.3626 -0.01702,-0.1293 -0.0434,-0.2595 -0.05958,-0.3591 -0.0068,-0.05 -0.01362,-0.093 -0.01362,-0.1234 0,-0.01 0,-0.014 0,-0.017 0.0034,-0.01 0.0068,-0.014 0.01362,-0.02 0.01958,-0.023 0.05362,-0.056 0.08681,-0.093 0.06638,-0.073 0.156595,-0.16 0.245957,-0.2493 0.08681,-0.089 0.17617,-0.183 0.242553,-0.263 0.03319,-0.04 0.05958,-0.08 0.08681,-0.1166 0.01021,-0.02 0.01957,-0.037 0.02979,-0.066 0.01021,-0.026 0.01702,-0.06 0.0034,-0.1098 -0.01702,-0.054 -0.0434,-0.073 -0.06298,-0.089 -0.02298,-0.017 -0.04,-0.023 -0.05958,-0.033 -0.04,-0.017 -0.08681,-0.026 -0.132766,-0.04 -0.09957,-0.02 -0.222979,-0.047 -0.345532,-0.06 -0.123404,-0.02 -0.245957,-0.033 -0.342127,-0.056 -0.05021,-0.01 -0.08681,-0.017 -0.12,-0.023 -0.0034,0 -0.01362,0 -0.01702,-0.01 -0.0068,-0.01 -0.01362,-0.01 -0.01702,-0.014 -0.01362,-0.026 -0.03319,-0.063 -0.05957,-0.1098 -0.0434,-0.089 -0.09617,-0.2059 -0.153192,-0.3259 -0.05362,-0.1166 -0.109787,-0.2324 -0.16,-0.326 -0.02638,-0.043 -0.05362,-0.083 -0.08,-0.12 -0.02638,-0.037 -0.05021,-0.087 -0.146383,-0.087 m 0.01362,0"
       id="path37" />
    <path
       style="opacity:0.1;fill:#000000;fill-opacity:1;fill-rule:nonzero;stroke:none"
       inkscape:connector-curvature="0"
       d="m 20.170213,1022.8303 c -0.0068,0 -0.01021,0 -0.01702,0 -0.01362,0 -0.02979,0.01 -0.0434,0.017 0,0 0,0 -0.0034,0 -0.04,0.014 -0.06638,0.04 -0.08681,0.066 -0.02638,0.033 -0.05362,0.073 -0.0766,0.12 -0.05617,0.089 -0.106383,0.2059 -0.162553,0.3259 -0.05617,0.1166 -0.113192,0.2358 -0.153192,0.326 -0.02298,0.043 -0.0434,0.08 -0.06298,0.1064 -0.0034,0.01 -0.0068,0.014 -0.01021,0.017 -0.0068,0 -0.01362,0 -0.02298,0.01 -0.02638,0.014 -0.06638,0.02 -0.116596,0.023 -0.09617,0.02 -0.219574,0.03 -0.342128,0.056 -0.125957,0.017 -0.245957,0.043 -0.345531,0.056 -0.04681,0.02 -0.09277,0.023 -0.132766,0.04 -0.01958,0.017 -0.0366,0.02 -0.05958,0.033 -0.01957,0.02 -0.04681,0.037 -0.06298,0.089 -0.01362,0.05 -0.0068,0.087 0.0034,0.1098 0.01021,0.026 0.01702,0.047 0.02979,0.066 0.01957,0.037 0.05362,0.077 0.0834,0.1166 0.06638,0.08 0.16,0.1693 0.245958,0.2595 0.08936,0.093 0.17617,0.1864 0.245957,0.2596 0.03319,0.037 0.06298,0.07 0.0834,0.087 0.0068,0.01 0.0068,0.017 0.01021,0.02 0,0.01 0,0.014 0,0.017 0,0.03 -0.0034,0.07 -0.01021,0.126 -0.01702,0.1029 -0.04,0.2298 -0.05957,0.3591 -0.02298,0.1234 -0.04,0.2562 -0.05362,0.3626 -0.0068,0.056 -0.0068,0.096 -0.0068,0.1395 0,0.023 0.0068,0.047 0.01702,0.073 0.0068,0.026 0.01702,0.06 0.05617,0.089 0.04,0.026 0.0766,0.026 0.102978,0.026 0.02298,0 0.04681,0 0.06638,-0.01 0.0434,-0.014 0.0834,-0.03 0.129362,-0.054 0.09277,-0.04 0.205958,-0.1 0.315745,-0.16 0.113191,-0.06 0.219574,-0.1235 0.305532,-0.1728 0.0434,-0.023 0.08,-0.04 0.109787,-0.054 0.0034,0 0.01021,0 0.01702,-0.01 0.0068,0 0.01362,0 0.01702,0.01 0.02979,0.014 0.06638,0.03 0.109787,0.054 0.08681,0.047 0.195744,0.1098 0.305532,0.1728 0.109787,0.059 0.222978,0.12 0.315744,0.16 0.04681,0.023 0.08681,0.04 0.129362,0.054 0.01958,0 0.0434,0.01 0.06638,0.01 0.02638,0 0.05957,0 0.102979,-0.026 0.04,-0.03 0.05021,-0.063 0.05617,-0.089 0.01021,-0.026 0.01362,-0.05 0.01362,-0.073 0.0034,-0.043 0,-0.087 -0.0034,-0.1395 -0.01021,-0.1064 -0.02979,-0.2324 -0.05362,-0.3626 -0.01957,-0.1293 -0.0434,-0.2596 -0.05957,-0.3591 -0.0068,-0.056 -0.01021,-0.093 -0.01021,-0.126 0,-0.01 0,-0.014 0,-0.017 0,-0.01 0.0034,-0.01 0.01021,-0.02 0.01957,-0.017 0.05021,-0.054 0.0834,-0.087 0.06638,-0.073 0.156595,-0.1625 0.245957,-0.2596 0.08681,-0.087 0.179574,-0.1795 0.242553,-0.2595 0.03319,-0.04 0.06638,-0.08 0.08681,-0.1166 0.01362,-0.017 0.01957,-0.04 0.02979,-0.066 0.01021,-0.026 0.01702,-0.06 0.0034,-0.1098 -0.01702,-0.05 -0.0434,-0.073 -0.06298,-0.089 -0.02298,-0.014 -0.04,-0.017 -0.05957,-0.033 -0.04,-0.017 -0.08681,-0.019 -0.132766,-0.04 -0.09957,-0.017 -0.219574,-0.043 -0.345532,-0.056 -0.123404,-0.02 -0.245957,-0.033 -0.342128,-0.056 -0.05021,-0.01 -0.08681,-0.017 -0.116595,-0.023 -0.0068,0 -0.01702,0 -0.02298,-0.01 -0.0034,-0.01 -0.01021,-0.01 -0.01021,-0.017 -0.01702,-0.026 -0.0366,-0.063 -0.06298,-0.1064 -0.0434,-0.089 -0.09617,-0.2094 -0.153191,-0.326 -0.05362,-0.12 -0.106383,-0.2323 -0.162553,-0.3259 -0.02638,-0.047 -0.05021,-0.087 -0.0766,-0.12 -0.02979,-0.037 -0.05021,-0.089 -0.146383,-0.089 m 0.01021,0"
       id="path39" />
    <path
       style="opacity:0.1;fill:#000000;fill-opacity:1;fill-rule:nonzero;stroke:none"
       inkscape:connector-curvature="0"
       d="m 15.06383,1018.575 c -0.0068,0 -0.01021,0 -0.01362,0 -0.01702,0 -0.03319,0.01 -0.04681,0.017 0,0 0,0 -0.0034,0 -0.04,0.017 -0.06638,0.04 -0.0834,0.066 -0.02979,0.033 -0.05617,0.073 -0.08,0.12 -0.05362,0.089 -0.106383,0.2059 -0.162553,0.3259 -0.05362,0.1166 -0.109788,0.2358 -0.153192,0.326 -0.02298,0.043 -0.0434,0.08 -0.05957,0.1064 -0.0034,0.01 -0.01021,0.014 -0.01362,0.017 -0.0068,0 -0.01362,0 -0.01958,0.01 -0.02638,0.014 -0.06979,0.02 -0.12,0.023 -0.09617,0.02 -0.219574,0.03 -0.342128,0.056 -0.123404,0.017 -0.245957,0.04 -0.342127,0.06 -0.05021,0.014 -0.09617,0.02 -0.132766,0.037 -0.02298,0.014 -0.04,0.02 -0.06298,0.033 -0.01957,0.02 -0.04681,0.037 -0.06298,0.089 -0.01362,0.05 -0.0034,0.087 0.0034,0.1098 0.01021,0.026 0.01957,0.047 0.02979,0.066 0.02298,0.037 0.05362,0.077 0.08681,0.1166 0.06638,0.08 0.156596,0.1694 0.242554,0.2664 0.08936,0.087 0.179574,0.1762 0.249361,0.2494 0.03319,0.037 0.06298,0.07 0.08,0.089 0.0068,0.01 0.0068,0.014 0.01362,0.02 0,0.01 0,0.014 0,0.017 -0.0034,0.03 -0.0068,0.073 -0.01362,0.126 -0.01362,0.103 -0.04,0.2298 -0.05957,0.3591 -0.01957,0.1235 -0.04,0.2562 -0.05021,0.3626 -0.0068,0.054 -0.01021,0.096 -0.0068,0.1396 0,0.023 0.0068,0.047 0.01362,0.073 0.0068,0.026 0.01957,0.059 0.05957,0.089 0.0366,0.026 0.07319,0.026 0.09957,0.026 0.02638,0 0.04681,0 0.06638,-0.01 0.0434,-0.014 0.08681,-0.03 0.129362,-0.054 0.09277,-0.04 0.205958,-0.1 0.319149,-0.16 0.109787,-0.06 0.21617,-0.1234 0.302128,-0.1694 0.0434,-0.026 0.0834,-0.043 0.109787,-0.056 0.0068,0 0.01021,0 0.01702,-0.01 0.0068,0 0.01362,0 0.01957,0.01 0.02638,0.014 0.06638,0.03 0.106383,0.056 0.08936,0.043 0.195744,0.1064 0.305532,0.1694 0.113191,0.06 0.222978,0.12 0.315744,0.16 0.04681,0.023 0.08936,0.04 0.129362,0.054 0.02298,0.01 0.0434,0.01 0.06638,0.01 0.02638,0 0.05957,0 0.102979,-0.026 0.04,-0.03 0.05021,-0.063 0.05362,-0.089 0.01362,-0.026 0.01702,-0.05 0.01702,-0.073 0.0034,-0.043 0,-0.089 -0.0034,-0.1396 -0.01362,-0.1064 -0.02979,-0.2357 -0.05362,-0.3626 -0.01957,-0.1293 -0.04681,-0.2595 -0.06298,-0.3591 -0.0034,-0.054 -0.01021,-0.093 -0.01021,-0.126 0,-0.01 0,-0.014 0,-0.017 0.0034,0 0.0068,-0.01 0.01021,-0.02 0.01957,-0.019 0.05362,-0.054 0.08681,-0.089 0.06979,-0.073 0.156595,-0.1626 0.245957,-0.2494 0.08681,-0.093 0.179574,-0.1864 0.245957,-0.2664 0.03319,-0.04 0.05957,-0.08 0.0834,-0.1166 0.01362,-0.017 0.02298,-0.04 0.02979,-0.066 0.01021,-0.026 0.01702,-0.06 0.0034,-0.1098 -0.01362,-0.05 -0.0434,-0.073 -0.06298,-0.089 -0.01957,-0.014 -0.04,-0.02 -0.05957,-0.033 -0.04,-0.017 -0.0834,-0.023 -0.132766,-0.037 -0.09957,-0.023 -0.219574,-0.047 -0.342128,-0.06 -0.125957,-0.019 -0.249361,-0.033 -0.345532,-0.056 -0.04681,-0.01 -0.08681,-0.017 -0.116595,-0.023 -0.0068,0 -0.01702,0 -0.01957,-0.01 -0.0034,-0.01 -0.01021,-0.01 -0.01362,-0.017 -0.01702,-0.026 -0.0366,-0.063 -0.05957,-0.1064 -0.04681,-0.089 -0.09958,-0.2094 -0.156596,-0.326 -0.05362,-0.12 -0.106383,-0.2323 -0.16,-0.3259 -0.02979,-0.047 -0.05362,-0.087 -0.08,-0.12 -0.02638,-0.037 -0.05021,-0.089 -0.146383,-0.089 m 0.01021,0"
       id="path41" />
    <path
       style="fill:#f9f9f9;fill-opacity:1;fill-rule:nonzero;stroke:none"
       inkscape:connector-curvature="0"
       d="m 30.595745,1016.5239 c -0.535319,-0.2392 -1.086809,-0.406 -1.642554,-0.5021 2.377022,1.8978 3.268086,5.2391 1.974469,8.1583 -1.296171,2.9191 -4.365107,4.4783 -7.357447,3.9659 0.439149,0.349 0.931064,0.6553 1.466383,0.8979 3.438298,1.543 7.466383,-0.01 9.002553,-3.4638 1.53617,-3.4545 -0.0068,-7.5064 -3.444255,-9.046 m 0,-0.01"
       id="path43" />
    <path
       style="fill:#f9f9f9;fill-opacity:1;fill-rule:nonzero;stroke:none"
       inkscape:connector-curvature="0"
       d="m 23.574468,1016.8728 c -0.0068,0 -0.01021,0 -0.01702,0 -0.01362,0 -0.02979,0 -0.0434,0.014 0,0 0,0 -0.0034,0 -0.04,0.017 -0.06638,0.043 -0.08681,0.066 -0.02638,0.037 -0.05362,0.077 -0.0766,0.12 -0.05617,0.089 -0.106383,0.2094 -0.162553,0.326 -0.05617,0.12 -0.113192,0.2357 -0.156596,0.3259 -0.01957,0.047 -0.04,0.083 -0.05957,0.1098 -0.0034,0.01 -0.0068,0.01 -0.01021,0.014 -0.0068,0 -0.01362,0 -0.02298,0.01 -0.02638,0.014 -0.06979,0.02 -0.116596,0.023 -0.09617,0.02 -0.219574,0.03 -0.342127,0.056 -0.125958,0.017 -0.245958,0.04 -0.345532,0.06 -0.04681,0.014 -0.09277,0.02 -0.132766,0.04 -0.01958,0.01 -0.04,0.02 -0.05958,0.033 -0.01957,0.017 -0.04681,0.037 -0.06298,0.089 -0.01702,0.05 -0.0068,0.087 0.0034,0.1098 0.01021,0.03 0.01702,0.047 0.02979,0.066 0.01957,0.037 0.05021,0.077 0.0834,0.1166 0.06638,0.08 0.16,0.1728 0.245958,0.263 0.08936,0.089 0.17617,0.1762 0.245957,0.2494 0.03319,0.036 0.06298,0.07 0.0834,0.093 0.0068,0.01 0.0068,0.01 0.01021,0.02 0,0 0,0.01 0,0.017 -0.0034,0.03 -0.0034,0.073 -0.01021,0.1234 -0.01702,0.103 -0.04,0.2298 -0.05958,0.3592 -0.02298,0.1259 -0.04,0.2561 -0.05362,0.3625 -0.0068,0.056 -0.01021,0.096 -0.0068,0.143 0,0.02 0.0068,0.043 0.01702,0.073 0.0068,0.026 0.01702,0.06 0.05617,0.089 0.04,0.03 0.0766,0.03 0.102979,0.03 0.02298,0 0.04681,0 0.06638,-0.01 0.0434,-0.014 0.0834,-0.03 0.129361,-0.05 0.09277,-0.043 0.205958,-0.1 0.315745,-0.1625 0.113192,-0.063 0.21617,-0.1234 0.305532,-0.1728 0.04,-0.02 0.08,-0.043 0.106383,-0.054 0.0068,0 0.01362,0 0.01958,-0.01 0.0068,0 0.01362,0 0.01702,0.01 0.02638,0.01 0.06638,0.03 0.109787,0.054 0.08681,0.047 0.195745,0.1098 0.305532,0.1728 0.109787,0.06 0.222979,0.12 0.315745,0.1625 0.0434,0.017 0.08681,0.037 0.129361,0.05 0.01957,0.01 0.0434,0.01 0.06638,0.01 0.02638,0 0.05958,0 0.102979,-0.03 0.0366,-0.03 0.05021,-0.063 0.05362,-0.089 0.01362,-0.03 0.01702,-0.054 0.01702,-0.073 0,-0.047 0,-0.087 -0.0034,-0.143 -0.01362,-0.1064 -0.02979,-0.2357 -0.05617,-0.3625 -0.01702,-0.1294 -0.0434,-0.2596 -0.05958,-0.3592 -0.0068,-0.05 -0.01362,-0.093 -0.01362,-0.1234 0,-0.01 0,-0.014 0,-0.017 0.0034,-0.01 0.0068,-0.014 0.01362,-0.02 0.01958,-0.023 0.05362,-0.056 0.08681,-0.093 0.06638,-0.073 0.156596,-0.16 0.245957,-0.2494 0.08681,-0.089 0.176171,-0.183 0.242554,-0.263 0.03319,-0.04 0.05957,-0.08 0.08681,-0.1166 0.01021,-0.02 0.01958,-0.037 0.02979,-0.066 0.01021,-0.026 0.01702,-0.06 0.0034,-0.1098 -0.01702,-0.054 -0.0434,-0.073 -0.06298,-0.089 -0.02298,-0.017 -0.04,-0.023 -0.05958,-0.033 -0.04,-0.017 -0.08681,-0.026 -0.132766,-0.04 -0.09957,-0.02 -0.222978,-0.047 -0.345532,-0.06 -0.123404,-0.02 -0.245957,-0.033 -0.342127,-0.056 -0.05021,-0.01 -0.08681,-0.017 -0.12,-0.023 -0.0034,0 -0.01362,0 -0.01702,-0.01 -0.0068,-0.01 -0.01362,-0.01 -0.01702,-0.014 -0.01362,-0.026 -0.03319,-0.063 -0.05957,-0.1098 -0.0434,-0.089 -0.09617,-0.2059 -0.153192,-0.3259 -0.05362,-0.1166 -0.109787,-0.2323 -0.16,-0.326 -0.02638,-0.043 -0.05362,-0.083 -0.08,-0.12 -0.02638,-0.037 -0.05021,-0.087 -0.146383,-0.087 m 0.01362,0"
       id="path45" />
    <path
       style="fill:#f9f9f9;fill-opacity:1;fill-rule:nonzero;stroke:none"
       inkscape:connector-curvature="0"
       d="m 19.319149,1021.9792 c -0.0068,0 -0.01021,0 -0.01702,0 -0.01362,0 -0.02979,0.01 -0.0434,0.017 0,0 0,0 -0.0034,0 -0.04,0.014 -0.06638,0.04 -0.08681,0.066 -0.02638,0.033 -0.05362,0.073 -0.0766,0.12 -0.05617,0.089 -0.106383,0.206 -0.162553,0.326 -0.05617,0.1166 -0.113192,0.2357 -0.153192,0.3259 -0.02298,0.043 -0.0434,0.08 -0.06298,0.1064 -0.0034,0.01 -0.0068,0.014 -0.01021,0.017 -0.0068,0 -0.01362,0 -0.02298,0.01 -0.02638,0.014 -0.06638,0.019 -0.116596,0.023 -0.09617,0.02 -0.219574,0.03 -0.342127,0.056 -0.125958,0.017 -0.245958,0.043 -0.345532,0.056 -0.04681,0.019 -0.09277,0.023 -0.132766,0.04 -0.01958,0.017 -0.0366,0.019 -0.05958,0.033 -0.01957,0.019 -0.04681,0.037 -0.06298,0.089 -0.01362,0.05 -0.0068,0.087 0.0034,0.1098 0.01021,0.026 0.01702,0.047 0.02979,0.066 0.01957,0.037 0.05362,0.077 0.0834,0.1166 0.06638,0.08 0.16,0.1694 0.245958,0.2596 0.08936,0.093 0.17617,0.1864 0.245957,0.2595 0.03319,0.037 0.06298,0.07 0.0834,0.087 0.0068,0.01 0.0068,0.017 0.01021,0.019 0,0.01 0,0.014 0,0.017 0,0.03 -0.0034,0.07 -0.01021,0.126 -0.01702,0.103 -0.04,0.2298 -0.05957,0.3592 -0.02298,0.1234 -0.04,0.2561 -0.05362,0.3625 -0.0068,0.056 -0.0068,0.096 -0.0068,0.1396 0,0.023 0.0068,0.047 0.01702,0.073 0.0068,0.026 0.01702,0.06 0.05617,0.089 0.04,0.026 0.0766,0.026 0.102979,0.026 0.02298,0 0.04681,0 0.06638,-0.01 0.0434,-0.014 0.0834,-0.03 0.129361,-0.054 0.09277,-0.04 0.205958,-0.1 0.315745,-0.16 0.113191,-0.06 0.219574,-0.1234 0.305532,-0.1728 0.0434,-0.023 0.08,-0.04 0.109787,-0.054 0.0034,0 0.01021,0 0.01702,-0.01 0.0068,0 0.01362,0 0.01702,0.01 0.02979,0.014 0.06638,0.03 0.109787,0.054 0.08681,0.047 0.195745,0.1098 0.305532,0.1728 0.109787,0.06 0.222979,0.12 0.315745,0.16 0.04681,0.023 0.08681,0.04 0.129361,0.054 0.01958,0 0.0434,0.01 0.06638,0.01 0.02638,0 0.05958,0 0.102979,-0.026 0.04,-0.03 0.05021,-0.063 0.05617,-0.089 0.01021,-0.026 0.01362,-0.05 0.01362,-0.073 0.0034,-0.043 0,-0.087 -0.0034,-0.1396 -0.01021,-0.1064 -0.02979,-0.2323 -0.05362,-0.3625 -0.01957,-0.1294 -0.0434,-0.2596 -0.05957,-0.3592 -0.0068,-0.056 -0.01021,-0.093 -0.01021,-0.126 0,-0.01 0,-0.014 0,-0.017 0,-0.01 0.0034,-0.01 0.01021,-0.019 0.01957,-0.017 0.05021,-0.054 0.0834,-0.087 0.06638,-0.073 0.156595,-0.1625 0.245957,-0.2595 0.08681,-0.087 0.179575,-0.1796 0.242553,-0.2596 0.03319,-0.04 0.06638,-0.08 0.08681,-0.1166 0.01362,-0.017 0.01957,-0.04 0.02979,-0.066 0.01021,-0.026 0.01702,-0.06 0.0034,-0.1098 -0.01702,-0.05 -0.0434,-0.073 -0.06298,-0.089 -0.02298,-0.014 -0.04,-0.017 -0.05958,-0.033 -0.04,-0.017 -0.08681,-0.02 -0.132766,-0.04 -0.09957,-0.017 -0.219574,-0.043 -0.345532,-0.056 -0.123404,-0.02 -0.245957,-0.033 -0.342127,-0.056 -0.05021,-0.01 -0.08681,-0.017 -0.116596,-0.023 -0.0068,0 -0.01702,0 -0.02298,-0.01 -0.0034,-0.01 -0.01021,-0.01 -0.01021,-0.017 -0.01702,-0.026 -0.03659,-0.063 -0.06298,-0.1064 -0.0434,-0.089 -0.09617,-0.2093 -0.153192,-0.3259 -0.05362,-0.12 -0.106383,-0.2324 -0.162553,-0.326 -0.02638,-0.047 -0.05021,-0.087 -0.0766,-0.12 -0.02979,-0.037 -0.05021,-0.089 -0.146383,-0.089 m 0.01021,0"
       id="path47" />
    <path
       style="fill:#f9f9f9;fill-opacity:1;fill-rule:nonzero;stroke:none"
       inkscape:connector-curvature="0"
       d="m 14.212766,1017.7239 c -0.0068,0 -0.01021,0 -0.01362,0 -0.01702,0 -0.03319,0.01 -0.04681,0.017 0,0 0,0 -0.0034,0 -0.04,0.017 -0.06638,0.04 -0.0834,0.066 -0.02979,0.033 -0.05617,0.073 -0.08,0.12 -0.05362,0.089 -0.106383,0.2059 -0.162553,0.3259 -0.05362,0.1166 -0.109788,0.2358 -0.153192,0.326 -0.02298,0.043 -0.0434,0.08 -0.05957,0.1064 -0.0034,0.01 -0.01021,0.014 -0.01362,0.017 -0.0068,0 -0.01362,0 -0.01958,0.01 -0.02638,0.014 -0.06979,0.02 -0.12,0.023 -0.09617,0.02 -0.219574,0.03 -0.342127,0.056 -0.123405,0.017 -0.245958,0.04 -0.342128,0.06 -0.05021,0.014 -0.09617,0.02 -0.132766,0.037 -0.02298,0.014 -0.04,0.02 -0.06298,0.033 -0.01957,0.02 -0.04681,0.037 -0.06298,0.089 -0.01362,0.05 -0.0034,0.087 0.0034,0.1098 0.01021,0.026 0.01957,0.047 0.02979,0.066 0.02298,0.037 0.05362,0.077 0.08681,0.1166 0.06638,0.08 0.156595,0.1693 0.242553,0.2664 0.08936,0.087 0.179574,0.1761 0.249361,0.2493 0.03319,0.037 0.06298,0.07 0.08,0.089 0.0068,0.01 0.0068,0.014 0.01362,0.02 0,0.01 0,0.014 0,0.017 -0.0034,0.03 -0.0068,0.073 -0.01362,0.1259 -0.01362,0.103 -0.04,0.2298 -0.05957,0.3592 -0.01957,0.1234 -0.04,0.2562 -0.05021,0.3625 -0.0068,0.054 -0.01021,0.096 -0.0068,0.1396 0,0.023 0.0068,0.047 0.01362,0.073 0.0068,0.026 0.01957,0.06 0.05957,0.089 0.0366,0.026 0.07319,0.026 0.09958,0.026 0.02638,0 0.04681,0 0.06638,-0.01 0.0434,-0.014 0.08681,-0.03 0.129361,-0.054 0.09277,-0.04 0.205958,-0.1 0.319149,-0.16 0.109788,-0.06 0.21617,-0.1234 0.302128,-0.1693 0.0434,-0.026 0.0834,-0.043 0.109787,-0.056 0.0068,0 0.01021,0 0.01702,-0.01 0.0068,0 0.01362,0 0.01957,0.01 0.02638,0.014 0.06638,0.03 0.106383,0.056 0.08936,0.043 0.195745,0.1063 0.305532,0.1693 0.113191,0.06 0.222979,0.12 0.315744,0.16 0.04681,0.023 0.08936,0.04 0.129362,0.054 0.02298,0.01 0.0434,0.01 0.06638,0.01 0.02638,0 0.05957,0 0.102979,-0.026 0.04,-0.03 0.05021,-0.063 0.05362,-0.089 0.01362,-0.026 0.01702,-0.05 0.01702,-0.073 0.0034,-0.043 0,-0.089 -0.0034,-0.1396 -0.01362,-0.1063 -0.02979,-0.2357 -0.05362,-0.3625 -0.01957,-0.1294 -0.04681,-0.2596 -0.06298,-0.3592 -0.0034,-0.054 -0.01021,-0.093 -0.01021,-0.1259 0,-0.01 0,-0.014 0,-0.017 0.0034,0 0.0068,-0.01 0.01021,-0.02 0.01958,-0.02 0.05362,-0.054 0.08681,-0.089 0.06979,-0.073 0.156595,-0.1625 0.245957,-0.2493 0.08681,-0.093 0.179575,-0.1864 0.245958,-0.2664 0.03319,-0.04 0.05957,-0.08 0.0834,-0.1166 0.01362,-0.017 0.02298,-0.04 0.02979,-0.066 0.01021,-0.026 0.01702,-0.06 0.0034,-0.1098 -0.01362,-0.05 -0.0434,-0.073 -0.06298,-0.089 -0.01958,-0.014 -0.04,-0.019 -0.05958,-0.033 -0.04,-0.017 -0.0834,-0.023 -0.132766,-0.037 -0.09957,-0.023 -0.219574,-0.047 -0.342127,-0.06 -0.125958,-0.02 -0.249362,-0.033 -0.345532,-0.056 -0.04681,-0.01 -0.08681,-0.017 -0.116596,-0.023 -0.0068,0 -0.01702,0 -0.01957,-0.01 -0.0034,-0.01 -0.01021,-0.01 -0.01362,-0.017 -0.01702,-0.026 -0.03659,-0.063 -0.05957,-0.1064 -0.04681,-0.089 -0.09958,-0.2094 -0.156596,-0.326 -0.05362,-0.12 -0.106383,-0.2323 -0.16,-0.3259 -0.02979,-0.047 -0.05362,-0.087 -0.08,-0.12 -0.02638,-0.037 -0.05021,-0.089 -0.146383,-0.089 m 0.01021,0"
       id="path49" />
    <g
       transform="matrix(0.85106383,0,0,0.85106383,3.148936,1007.5111)"
       id="g51">
      <path
         style="opacity:0.1"
         inkscape:connector-curvature="0"
         d="m 40.03,7.531 c 3.712,4.084 5.969,9.514 5.969,15.469 0,12.703 -10.297,23 -23,23 C 17.045,46 11.615,43.744 7.53,40.031 11.708,44.322 17.54,47 23.999,47 c 12.703,0 23,-10.298 23,-23 0,-6.462 -2.677,-12.291 -6.969,-16.469 z"
         id="path53" />
    </g>
  </g>
</svg>
