<?xml version="1.0" encoding="UTF-8" standalone="no"?>
<!-- Created using Karbon, part of Calligra: http://www.calligra.org/karbon -->

<svg
   xmlns:dc="http://purl.org/dc/elements/1.1/"
   xmlns:cc="http://creativecommons.org/ns#"
   xmlns:rdf="http://www.w3.org/1999/02/22-rdf-syntax-ns#"
   xmlns:svg="http://www.w3.org/2000/svg"
   xmlns="http://www.w3.org/2000/svg"
   xmlns:sodipodi="http://sodipodi.sourceforge.net/DTD/sodipodi-0.dtd"
   xmlns:inkscape="http://www.inkscape.org/namespaces/inkscape"
   width="38.4pt"
   height="38.4pt"
   id="svg2"
   version="1.1"
   inkscape:version="0.48.5 r10040"
   sodipodi:docname="Charm.svg">
  <metadata
     id="metadata13">
    <rdf:RDF>
      <cc:Work
         rdf:about="">
        <dc:format>image/svg+xml</dc:format>
        <dc:type
           rdf:resource="http://purl.org/dc/dcmitype/StillImage" />
        <dc:title />
      </cc:Work>
    </rdf:RDF>
  </metadata>
  <sodipodi:namedview
     pagecolor="#ffffff"
     bordercolor="#666666"
     borderopacity="1"
     objecttolerance="10"
     gridtolerance="10"
     guidetolerance="10"
     inkscape:pageopacity="0"
     inkscape:pageshadow="2"
     inkscape:window-width="1920"
     inkscape:window-height="1031"
     id="namedview11"
     showgrid="false"
     inkscape:showpageshadow="false"
     borderlayer="true"
     inkscape:zoom="9.8333333"
     inkscape:cx="13.137185"
     inkscape:cy="21.339045"
     inkscape:window-x="-4"
     inkscape:window-y="32"
     inkscape:window-maximized="1"
     inkscape:current-layer="svg2">
    <sodipodi:guide
       position="9.5367432e-07,48.000001"
       orientation="47.999999,0"
       id="guide4075" />
    <sodipodi:guide
       position="9.5367432e-07,1.9073486e-06"
       orientation="0,47.999999"
       id="guide4077" />
    <sodipodi:guide
       position="48,1.9073486e-06"
       orientation="-47.999999,0"
       id="guide4079" />
    <sodipodi:guide
       position="48,48.000001"
       orientation="0,-47.999999"
       id="guide4081" />
    <sodipodi:guide
       position="4.000001,44.000001"
       orientation="39.999999,0"
       id="guide4083" />
    <sodipodi:guide
       position="4.000001,4.0000019"
       orientation="0,39.999999"
       id="guide4085" />
    <sodipodi:guide
       position="44,4.0000019"
       orientation="-39.999999,0"
       id="guide4087" />
    <sodipodi:guide
       position="44,44.000001"
       orientation="0,-39.999999"
       id="guide4089" />
  </sodipodi:namedview>
  <defs
     id="defs4" />
  <rect
     style="fill:#4d4d4d;fill-opacity:1;fill-rule:evenodd;stroke:none"
     id="rect3992"
     width="40"
     height="39.865002"
     x="4"
     y="4.1349983"
     rx="4.6618428"
     ry="0" />
  <g
     transform="matrix(0.47604377,0,0,0.47604539,1.1621621,1.2726221)"
     id="layer1"
     style="fill:#cccccc">
    <g
       id="g3318"
       style="fill:#cccccc">
      <g
         id="g3084"
         style="fill:#cccccc">
        <path
           inkscape:connector-curvature="0"
           d="m 21.672956,75.120682 a 3.289771,3.289771 0 0 1 -6.579542,0 3.289771,3.289771 0 1 1 6.579542,0 z"
           id="path4053"
           style="fill:#cccccc;fill-opacity:1;fill-rule:nonzero;stroke:none" />
        <path
           style="fill:#cccccc;fill-opacity:1;fill-rule:nonzero;stroke:none"
           id="path3364"
           d="m 20.874257,75.120681 a 2.491072,2.4910719 0 0 1 -4.982144,0 2.491072,2.4910719 0 1 1 4.982144,0 z"
           inkscape:connector-curvature="0" />
      </g>
      <g
         id="g3088"
         transform="translate(10,0)"
         style="fill:#cccccc">
        <path
           style="fill:#cccccc;fill-opacity:1;fill-rule:nonzero;stroke:none"
           id="path3090"
           d="m 21.672956,75.120682 a 3.289771,3.289771 0 0 1 -6.579542,0 3.289771,3.289771 0 1 1 6.579542,0 z"
           inkscape:connector-curvature="0" />
        <path
           d="m 20.874257,75.120681 a 2.491072,2.4910719 0 1 1 -4.982144,0 2.491072,2.4910719 0 1 1 4.982144,0 z"
           id="path3092"
           style="fill:#cccccc;fill-opacity:1;fill-rule:nonzero;stroke:none"
           inkscape:connector-curvature="0" />
      </g>
    </g>
    <path
       d="m 47.454552,59.883643 c -0.810916,0 -1.463749,1.471824 -1.463749,3.300055 l 0,19.800333 c 0,1.828231 0.652833,3.300055 1.463749,3.300055 0.810916,0 1.463748,-1.471824 1.463748,-3.300055 l 0,-19.800333 c 0,-1.828231 -0.652832,-3.300055 -1.463748,-3.300055 z m 5.854992,0 c -0.810916,0 -1.463749,1.471824 -1.463749,3.300055 l 0,19.800333 c 0,1.828231 0.652833,3.300055 1.463749,3.300055 0.810917,0 1.463748,-1.471824 1.463748,-3.300055 l 0,-19.800333 c 0,-1.828231 -0.652831,-3.300055 -1.463748,-3.300055 z m 5.854993,0 c -0.810917,0 -1.463748,1.471824 -1.463748,3.300055 l 0,19.800333 c 0,1.828231 0.652831,3.300055 1.463748,3.300055 0.810915,0 1.463748,-1.471824 1.463748,-3.300055 l 0,-19.800333 c 0,-1.828231 -0.652833,-3.300055 -1.463748,-3.300055 z m 5.854992,0 c -0.810917,0 -1.463748,1.471824 -1.463748,3.300055 l 0,19.800333 c 0,1.828231 0.652831,3.300055 1.463748,3.300055 0.810917,0 1.463748,-1.471824 1.463748,-3.300055 l 0,-19.800333 c 0,-1.828231 -0.652831,-3.300055 -1.463748,-3.300055 z m 5.854992,0 c -0.810915,0 -1.463747,1.471824 -1.463747,3.300055 l 0,19.800333 c 0,1.828231 0.652832,3.300055 1.463747,3.300055 0.810917,0 1.463748,-1.471824 1.463748,-3.300055 l 0,-19.800333 c 0,-1.828231 -0.652831,-3.300055 -1.463748,-3.300055 z m 5.854993,0 c -0.810917,0 -1.463748,1.471824 -1.463748,3.300055 l 0,19.800333 c 0,1.828231 0.652831,3.300055 1.463748,3.300055 0.810917,0 1.463749,-1.471824 1.463749,-3.300055 l 0,-19.800333 c 0,-1.828231 -0.652832,-3.300055 -1.463749,-3.300055 z m 5.854992,0 c -0.810916,0 -1.463748,1.471824 -1.463748,3.300055 l 0,19.800333 c 0,1.828231 0.652832,3.300055 1.463748,3.300055 0.810916,0 1.463749,-1.471824 1.463749,-3.300055 l 0,-19.800333 c 0,-1.828231 -0.652833,-3.300055 -1.463749,-3.300055 z"
       inkscape:connector-curvature="0"
       id="rect4210"
       style="fill:#cccccc;fill-opacity:1;fill-rule:nonzero;stroke:none" />
  </g>
  <g
     transform="matrix(0.30224828,0,0,0.31033285,1.5076961,1.6626881)"
     id="g3067">
    <path
       d="m 48,83 a 35,35 0 1 1 0,-70 35,35 0 0 1 0,70 z"
       id="path3649"
       style="color:#000000;fill:#67ba2f;fill-opacity:1;fill-rule:nonzero;stroke:none;stroke-width:1;marker:none;visibility:visible;display:inline;overflow:visible;enable-background:accumulate"
       inkscape:connector-curvature="0" />
    <path
       d="m 48,82 a 34,34 0 1 1 0,-68 34,34 0 0 1 0,68 z"
       id="path3647"
       style="color:#000000;fill:#ffffff;fill-opacity:1;fill-rule:nonzero;stroke:none;stroke-width:1;marker:none;visibility:visible;display:inline;overflow:visible;enable-background:accumulate"
       inkscape:connector-curvature="0" />
  </g>
  <g
     transform="matrix(0.30224828,0,0,0.31033285,1.5076961,1.6626881)"
     id="g3834">
    <path
       d="m 46.93934,46.93934 17.500893,-16.440233 1.06066,1.06066 -16.440233,17.500893 -5.038136,3.447146 -0.53033,-0.53033 3.447146,-5.038136 z"
       inkscape:connector-curvature="0"
       id="path3887"
       style="fill:#000000;stroke:none" />
    <path
       d="m 47.25,49.299038 -15.213457,-9.649519 0.75,-1.299038 15.963457,8.350481 4.633652,3.974278 -0.375,0.64952 L 47.25,49.299038 z"
       inkscape:connector-curvature="0"
       id="path3877"
       style="fill:#000000;stroke:none" />
    <rect
       width="1"
       height="22"
       x="-18.06922"
       y="-64.569221"
       transform="matrix(-0.86602541,0.49999999,-0.49999999,-0.86602541,0,0)"
       id="rect3905"
       style="color:#000000;fill:#ff0000;fill-opacity:1;fill-rule:nonzero;stroke:none;stroke-width:1;marker:none;visibility:visible;display:inline;overflow:visible;enable-background:accumulate" />
  </g>
  <rect
     style="fill:#e6e6e6;fill-opacity:1;fill-rule:evenodd;stroke:none"
     id="rect3906"
     width="12.506915"
     height="6.0274491"
     x="6.3608189"
     y="34.466019"
     rx="1.2054857"
     ry="2.1028752" />
  <g
     transform="matrix(0.47604377,0,0,0.47604539,1.1621621,1.2726221)"
     id="g3963">
    <path
       transform="matrix(1.15625,0,0,1.15625,-4.6577972,-12.032462)"
       d="m 22.560375,75.7995 c 0,1.668251 -1.352384,3.020635 -3.020635,3.020635 -1.668252,0 -3.020636,-1.352384 -3.020636,-3.020635 0,-1.668252 1.352384,-3.020636 3.020636,-3.020636 1.668251,0 3.020635,1.352384 3.020635,3.020636 z"
       sodipodi:ry="3.0206358"
       sodipodi:rx="3.0206358"
       sodipodi:cy="75.7995"
       sodipodi:cx="19.53974"
       id="path3957"
       style="fill:#333333;fill-opacity:1;fill-rule:evenodd;stroke:none"
       sodipodi:type="arc" />
    <path
       sodipodi:type="arc"
       style="fill:#ff0000;fill-opacity:1;fill-rule:evenodd;stroke:none"
       id="path3961"
       sodipodi:cx="19.53974"
       sodipodi:cy="75.7995"
       sodipodi:rx="3.0206358"
       sodipodi:ry="3.0206358"
       d="m 22.560375,75.7995 c 0,1.668251 -1.352384,3.020635 -3.020635,3.020635 -1.668252,0 -3.020636,-1.352384 -3.020636,-3.020635 0,-1.668252 1.352384,-3.020636 3.020636,-3.020636 1.668251,0 3.020635,1.352384 3.020635,3.020636 z"
       transform="matrix(0.9375,0,0,0.9375,-0.38347906,4.548679)" />
  </g>
  <g
     id="g3967"
     transform="matrix(0.47604377,0,0,0.47604539,6.8746871,1.2726221)">
    <path
       sodipodi:type="arc"
       style="fill:#333333;fill-opacity:1;fill-rule:evenodd;stroke:none"
       id="path3969"
       sodipodi:cx="19.53974"
       sodipodi:cy="75.7995"
       sodipodi:rx="3.0206358"
       sodipodi:ry="3.0206358"
       d="m 22.560375,75.7995 c 0,1.668251 -1.352384,3.020635 -3.020635,3.020635 -1.668252,0 -3.020636,-1.352384 -3.020636,-3.020635 0,-1.668252 1.352384,-3.020636 3.020636,-3.020636 1.668251,0 3.020635,1.352384 3.020635,3.020636 z"
       transform="matrix(1.15625,0,0,1.15625,-4.6577972,-12.032462)" />
    <path
       transform="matrix(0.9375,0,0,0.9375,-0.38347906,4.548679)"
       d="m 22.560375,75.7995 c 0,1.668251 -1.352384,3.020635 -3.020635,3.020635 -1.668252,0 -3.020636,-1.352384 -3.020636,-3.020635 0,-1.668252 1.352384,-3.020636 3.020636,-3.020636 1.668251,0 3.020635,1.352384 3.020635,3.020636 z"
       sodipodi:ry="3.0206358"
       sodipodi:rx="3.0206358"
       sodipodi:cy="75.7995"
       sodipodi:cx="19.53974"
       id="path3971"
       style="fill:#6fc22c;fill-opacity:1;fill-rule:evenodd;stroke:none"
       sodipodi:type="arc" />
  </g>
</svg>
