<?xml version="1.0" encoding="UTF-8" standalone="no"?>
<!-- Created with Inkscape (http://www.inkscape.org/) -->

<svg
   xmlns:dc="http://purl.org/dc/elements/1.1/"
   xmlns:cc="http://creativecommons.org/ns#"
   xmlns:rdf="http://www.w3.org/1999/02/22-rdf-syntax-ns#"
   xmlns:svg="http://www.w3.org/2000/svg"
   xmlns="http://www.w3.org/2000/svg"
   xmlns:sodipodi="http://sodipodi.sourceforge.net/DTD/sodipodi-0.dtd"
   xmlns:inkscape="http://www.inkscape.org/namespaces/inkscape"
   width="48"
   height="48"
   id="svg2"
   version="1.1"
   inkscape:version="0.48.5 r10040"
   sodipodi:docname="chmsee-icon.svg">
  <defs
     id="defs4">
    <clipPath
       id="clipPath-003160988">
      <g
         transform="translate(0,-1004.3622)"
         id="g17">
        <path
           style="fill:#1890d0"
           inkscape:connector-curvature="0"
           d="m -24,13 c 0,1.105 -0.672,2 -1.5,2 -0.828,0 -1.5,-0.895 -1.5,-2 0,-1.105 0.672,-2 1.5,-2 0.828,0 1.5,0.895 1.5,2 z"
           transform="matrix(15.333333,0,0,11.5,414.99999,878.8622)"
           id="path19" />
      </g>
    </clipPath>
    <clipPath
       id="clipPath-993611256">
      <g
         transform="translate(0,-1004.3622)"
         id="g12">
        <path
           style="fill:#1890d0"
           inkscape:connector-curvature="0"
           d="m -24,13 c 0,1.105 -0.672,2 -1.5,2 -0.828,0 -1.5,-0.895 -1.5,-2 0,-1.105 0.672,-2 1.5,-2 0.828,0 1.5,0.895 1.5,2 z"
           transform="matrix(15.333333,0,0,11.5,414.99999,878.8622)"
           id="path14" />
      </g>
    </clipPath>
    <linearGradient
       id="linearGradient3764"
       x1="1"
       x2="47"
       gradientUnits="userSpaceOnUse"
       gradientTransform="matrix(0,-1,1,0,-1.5e-6,47.999998)">
      <stop
         stop-color="#658ab7"
         stop-opacity="1"
         id="stop7" />
      <stop
         offset="1"
         stop-color="#7394bd"
         stop-opacity="1"
         id="stop9" />
    </linearGradient>
  </defs>
  <sodipodi:namedview
     id="base"
     pagecolor="#ffffff"
     bordercolor="#666666"
     borderopacity="1.0"
     inkscape:pageopacity="0.0"
     inkscape:pageshadow="2"
     inkscape:zoom="8.0624999"
     inkscape:cx="21.230717"
     inkscape:cy="27.625307"
     inkscape:document-units="px"
     inkscape:current-layer="layer1"
     showgrid="false"
     inkscape:window-width="1920"
     inkscape:window-height="1025"
     inkscape:window-x="-4"
     inkscape:window-y="39"
     inkscape:window-maximized="1"
     inkscape:object-paths="true">
    <sodipodi:guide
       position="4,44.000017"
       orientation="40,0"
       id="guide4081" />
    <sodipodi:guide
       position="4,4.0000174"
       orientation="0,40"
       id="guide4083" />
    <sodipodi:guide
       position="44,4.0000174"
       orientation="-40,0"
       id="guide4085" />
    <sodipodi:guide
       position="44,44.000017"
       orientation="0,-40"
       id="guide4087" />
    <sodipodi:guide
       position="9,39.000017"
       orientation="30,0"
       id="guide4093" />
    <sodipodi:guide
       position="9,9.0000174"
       orientation="0,30"
       id="guide4095" />
    <sodipodi:guide
       position="39,9.0000174"
       orientation="-30,0"
       id="guide4097" />
    <sodipodi:guide
       position="39,39.000017"
       orientation="0,-30"
       id="guide4099" />
    <sodipodi:guide
       position="15,33.000017"
       orientation="18,0"
       id="guide4103" />
    <sodipodi:guide
       position="15,15.000017"
       orientation="0,18"
       id="guide4105" />
    <sodipodi:guide
       position="33,15.000017"
       orientation="-18,0"
       id="guide4107" />
    <sodipodi:guide
       position="33,33.000017"
       orientation="0,-18"
       id="guide4109" />
  </sodipodi:namedview>
  <metadata
     id="metadata7">
    <rdf:RDF>
      <cc:Work
         rdf:about="">
        <dc:format>image/svg+xml</dc:format>
        <dc:type
           rdf:resource="http://purl.org/dc/dcmitype/StillImage" />
        <dc:title />
      </cc:Work>
    </rdf:RDF>
  </metadata>
  <g
     inkscape:label="Capa 1"
     inkscape:groupmode="layer"
     id="layer1"
     transform="translate(0,-1004.3622)">
    <g
       transform="matrix(0.85110005,0,0,0.85110638,3.1489,1007.5091)"
       id="g21">
      <path
         style="opacity:0.05"
         inkscape:connector-curvature="0"
         d="m 36.31,5 c 5.859,4.062 9.688,10.831 9.688,18.5 0,12.426 -10.07,22.5 -22.5,22.5 -7.669,0 -14.438,-3.828 -18.5,-9.688 1.037,1.822 2.306,3.499 3.781,4.969 4.085,3.712 9.514,5.969 15.469,5.969 12.703,0 23,-10.298 23,-23 0,-5.954 -2.256,-11.384 -5.969,-15.469 C 39.81,7.306 38.132,6.037 36.31,5 z m 4.969,3.781 c 3.854,4.113 6.219,9.637 6.219,15.719 0,12.703 -10.297,23 -23,23 -6.081,0 -11.606,-2.364 -15.719,-6.219 4.16,4.144 9.883,6.719 16.219,6.719 12.703,0 23,-10.298 23,-23 0,-6.335 -2.575,-12.06 -6.719,-16.219 z"
         id="path23" />
      <path
         style="opacity:0.1"
         inkscape:connector-curvature="0"
         d="m 41.28,8.781 c 3.712,4.085 5.969,9.514 5.969,15.469 0,12.703 -10.297,23 -23,23 -5.954,0 -11.384,-2.256 -15.469,-5.969 4.113,3.854 9.637,6.219 15.719,6.219 12.703,0 23,-10.298 23,-23 0,-6.081 -2.364,-11.606 -6.219,-15.719 z"
         id="path25" />
      <path
         style="opacity:0.2"
         inkscape:connector-curvature="0"
         d="M 31.25,2.375 C 39.865,5.529 46,13.792 46,23.505 c 0,12.426 -10.07,22.5 -22.5,22.5 -9.708,0 -17.971,-6.135 -21.12,-14.75 a 23,23 0 0 0 44.875,-7 23,23 0 0 0 -16,-21.875 z"
         id="path27" />
    </g>
    <g
       transform="matrix(0.85110005,0,0,0.85110638,3.1489,1007.5091)"
       id="g29">
      <path
         style="fill:url(#linearGradient3764);fill-opacity:1"
         inkscape:connector-curvature="0"
         d="M 24,1 C 36.703,1 47,11.297 47,24 47,36.703 36.703,47 24,47 11.297,47 1,36.703 1,24 1,11.297 11.297,1 24,1 z"
         id="path31" />
    </g>
    <g
       transform="matrix(0.85110005,0,0,0.85110638,3.1489,1007.5091)"
       id="g35">
      <g
         clip-path="url(#clipPath-993611256)"
         id="g37">
        <g
           transform="translate(1,1)"
           id="g39">
          <g
             style="opacity:0.1"
             id="g41">
            <!-- color: #7394bd -->
            <g
               id="g43">
              <path
                 style="fill:#000000;fill-opacity:1;fill-rule:nonzero;stroke:none"
                 inkscape:connector-curvature="0"
                 d="m 25.14,29.957 c -0.082,-2.723 0.578,-5.363 3.363,-7.234 2.941,-2.117 5.777,-4.766 5.477,-7.887 -0.066,-3.01 -3.863,-5.367 -7.957,-5.707 -4.605,-0.59 -10.18,0.867 -11.723,4.188 -0.781,1.613 -0.059,4.512 2.57,4.512 1.535,0 2.242,-0.918 2.355,-1.754 0.09,-0.637 -0.191,-1.203 -0.359,-1.727 -0.188,-0.598 0.621,-1.754 1.504,-2.223 0.738,-0.395 1.508,-0.527 1.621,-0.551 2.648,-0.59 5.289,0.707 6.387,2.289 1.102,1.578 -0.109,3.973 -1.852,6.301 -1.742,2.332 -3.613,4.977 -3.605,7.785 0,1.07 -0.102,1.434 -0.031,1.867 0.059,0.344 1.301,0.305 2.25,0.141 m -1.207,3.664 c -2.531,-0.125 -4.285,2.523 -2.766,4.211 1.359,1.863 5.168,1.402 5.82,-0.707 0.68,-1.641 -0.953,-3.531 -3.055,-3.504 m 0,0"
                 id="path45" />
            </g>
          </g>
        </g>
      </g>
    </g>
    <g
       transform="matrix(0.85110005,0,0,0.85110638,3.1489,1007.5091)"
       id="g47">
      <g
         clip-path="url(#clipPath-003160988)"
         id="g49">
        <!-- color: #7394bd -->
        <g
           id="g51">
          <path
             style="fill:#ffffff;fill-opacity:1;fill-rule:nonzero;stroke:none"
             inkscape:connector-curvature="0"
             d="m 25.14,29.957 c -0.082,-2.723 0.578,-5.363 3.363,-7.234 2.941,-2.117 5.777,-4.766 5.477,-7.887 -0.066,-3.01 -3.863,-5.367 -7.957,-5.707 -4.605,-0.59 -10.18,0.867 -11.723,4.188 -0.781,1.613 -0.059,4.512 2.57,4.512 1.535,0 2.242,-0.918 2.355,-1.754 0.09,-0.637 -0.191,-1.203 -0.359,-1.727 -0.188,-0.598 0.621,-1.754 1.504,-2.223 0.738,-0.395 1.508,-0.527 1.621,-0.551 2.648,-0.59 5.289,0.707 6.387,2.289 1.102,1.578 -0.109,3.973 -1.852,6.301 -1.742,2.332 -3.613,4.977 -3.605,7.785 0,1.07 -0.102,1.434 -0.031,1.867 0.059,0.344 1.301,0.305 2.25,0.141 m -1.207,3.664 c -2.531,-0.125 -4.285,2.523 -2.766,4.211 1.359,1.863 5.168,1.402 5.82,-0.707 0.68,-1.641 -0.953,-3.531 -3.055,-3.504 m 0,0"
             id="path53" />
        </g>
      </g>
    </g>
    <g
       transform="matrix(0.85110005,0,0,0.85110638,3.1489,1007.5091)"
       id="g55">
      <path
         style="opacity:0.1"
         inkscape:connector-curvature="0"
         d="m 40.03,7.531 c 3.712,4.084 5.969,9.514 5.969,15.469 0,12.703 -10.297,23 -23,23 C 17.045,46 11.615,43.744 7.53,40.031 11.708,44.322 17.54,47 23.999,47 c 12.703,0 23,-10.298 23,-23 0,-6.462 -2.677,-12.291 -6.969,-16.469 z"
         id="path57" />
    </g>
  </g>
</svg>
