<?xml version="1.0" encoding="UTF-8" standalone="no"?>
<!-- Created with Inkscape (http://www.inkscape.org/) -->

<svg
   xmlns:dc="http://purl.org/dc/elements/1.1/"
   xmlns:cc="http://creativecommons.org/ns#"
   xmlns:rdf="http://www.w3.org/1999/02/22-rdf-syntax-ns#"
   xmlns:svg="http://www.w3.org/2000/svg"
   xmlns="http://www.w3.org/2000/svg"
   xmlns:xlink="http://www.w3.org/1999/xlink"
   xmlns:sodipodi="http://sodipodi.sourceforge.net/DTD/sodipodi-0.dtd"
   xmlns:inkscape="http://www.inkscape.org/namespaces/inkscape"
   width="48"
   height="48"
   id="svg2"
   version="1.1"
   inkscape:version="0.91 r13725"
   sodipodi:docname="choqok-offline.svg">
  <defs
     id="defs4">
    <linearGradient
       inkscape:collect="always"
       id="linearGradient1163">
      <stop
         style="stop-color:#9c9c9c;stop-opacity:1"
         offset="0"
         id="stop1165" />
      <stop
         style="stop-color:#cecece;stop-opacity:1"
         offset="1"
         id="stop1167" />
    </linearGradient>
    <linearGradient
       inkscape:collect="always"
       xlink:href="#linearGradient1163"
       id="linearGradient1169"
       x1="29.999998"
       y1="-1052.6122"
       x2="29.999998"
       y2="-1004.2372"
       gradientUnits="userSpaceOnUse" />
  </defs>
  <sodipodi:namedview
     id="base"
     pagecolor="#ffffff"
     bordercolor="#666666"
     borderopacity="1.0"
     inkscape:pageopacity="0.0"
     inkscape:pageshadow="2"
     inkscape:zoom="17.625"
     inkscape:cx="-5.7279058"
     inkscape:cy="24.794365"
     inkscape:document-units="px"
     inkscape:current-layer="layer1"
     showgrid="true"
     inkscape:window-width="3840"
     inkscape:window-height="2088"
     inkscape:window-x="0"
     inkscape:window-y="48"
     inkscape:window-maximized="1">
    <inkscape:grid
       type="xygrid"
       id="grid3850"
       empspacing="5"
       visible="true"
       enabled="true"
       snapvisiblegridlinesonly="true" />
  </sodipodi:namedview>
  <metadata
     id="metadata7">
    <rdf:RDF>
      <cc:Work
         rdf:about="">
        <dc:format>image/svg+xml</dc:format>
        <dc:type
           rdf:resource="http://purl.org/dc/dcmitype/StillImage" />
        <dc:title />
      </cc:Work>
    </rdf:RDF>
  </metadata>
  <g
     inkscape:label="Capa 1"
     inkscape:groupmode="layer"
     id="layer1"
     transform="translate(0,-1004.3622)">
    <path
       d="m 43.857701,1015.8169 c -1.39434,0.6184 -2.89308,1.0363 -4.46574,1.2243 1.60506,-0.9623 2.83813,-2.486 3.41876,-4.3018 -1.50255,0.8912 -3.16654,1.5382 -4.937789,1.8868 -1.418212,-1.5112 -3.439028,-2.4553 -5.675488,-2.4553 -4.294046,0 -7.77568,3.4813 -7.77568,7.7754 0,0.6094 0.06871,1.2029 0.20135,1.7719 -6.462219,-0.3242 -12.191761,-3.4199 -16.0266676,-8.1241 -0.669387,1.1483 -1.052825,2.4841 -1.052825,3.9091 0,2.6977 1.372676,5.0777 3.4591786,6.472 -1.2746126,-0.04 -2.4736266,-0.3902 -3.5218756,-0.9725 -7.57e-4,0.033 -7.57e-4,0.064 -7.57e-4,0.097 0,3.7673 2.6802906,6.9098 6.2372566,7.6244 -0.652369,0.1776 -1.339296,0.2727 -2.048443,0.2727 -0.501049,0 -0.988142,-0.049 -1.462988,-0.1395 0.989473,3.089 3.861038,5.3372 7.263572,5.3997 -2.661113,2.0857 -6.01377,3.3287 -9.6568186,3.3287 -0.627641,0 -1.246618,-0.037 -1.854865,-0.1087 3.441035,2.2062 7.5282216,3.4937 11.9192566,3.4937 14.30209,0 22.123283,-11.8482 22.123283,-22.1236 0,-0.3369 -0.008,-0.6723 -0.0227,-1.0057 1.51942,-1.0964 2.83757,-2.4659 3.88,-4.0252"
       style="fill:#4d4d4d;fill-opacity:0.23529412;fill-rule:nonzero;stroke:#000000;stroke-opacity:1"
       id="path4110"
       inkscape:connector-curvature="0" />
  </g>
</svg>
