<?xml version="1.0" encoding="UTF-8" standalone="no"?>
<!-- Created with Inkscape (http://www.inkscape.org/) -->

<svg
   xmlns:dc="http://purl.org/dc/elements/1.1/"
   xmlns:cc="http://creativecommons.org/ns#"
   xmlns:rdf="http://www.w3.org/1999/02/22-rdf-syntax-ns#"
   xmlns:svg="http://www.w3.org/2000/svg"
   xmlns="http://www.w3.org/2000/svg"
   xmlns:sodipodi="http://sodipodi.sourceforge.net/DTD/sodipodi-0.dtd"
   xmlns:inkscape="http://www.inkscape.org/namespaces/inkscape"
   width="48"
   height="48"
   id="svg2"
   version="1.1"
   inkscape:version="0.48.5 r10040"
   sodipodi:docname="chromium.svg">
  <defs
     id="defs4" />
  <sodipodi:namedview
     id="base"
     pagecolor="#ffffff"
     bordercolor="#666666"
     borderopacity="1.0"
     inkscape:pageopacity="0.0"
     inkscape:pageshadow="2"
     inkscape:zoom="11.477676"
     inkscape:cx="18.008604"
     inkscape:cy="24.287109"
     inkscape:document-units="px"
     inkscape:current-layer="layer1"
     showgrid="false"
     fit-margin-top="0"
     fit-margin-left="0"
     fit-margin-right="0"
     fit-margin-bottom="0"
     inkscape:window-width="1920"
     inkscape:window-height="1035"
     inkscape:window-x="-4"
     inkscape:window-y="29"
     inkscape:window-maximized="1">
    <sodipodi:guide
       position="8.9999928,39"
       orientation="30,0"
       id="guide3290" />
    <sodipodi:guide
       position="8.9999928,9"
       orientation="0,30"
       id="guide3292" />
    <sodipodi:guide
       position="38.999993,9"
       orientation="-30,0"
       id="guide3294" />
    <sodipodi:guide
       position="38.999993,39"
       orientation="0,-30"
       id="guide3296" />
    <sodipodi:guide
       position="21.999993,48"
       orientation="4,0"
       id="guide3314" />
    <sodipodi:guide
       position="21.999993,44"
       orientation="0,4"
       id="guide3316" />
    <sodipodi:guide
       position="25.999993,44"
       orientation="-4,0"
       id="guide3318" />
    <sodipodi:guide
       position="25.999993,48"
       orientation="0,-4"
       id="guide3320" />
    <sodipodi:guide
       position="21.999993,44"
       orientation="4,0"
       id="guide3322" />
    <sodipodi:guide
       position="21.999993,40"
       orientation="0,4"
       id="guide3324" />
    <sodipodi:guide
       position="25.999993,40"
       orientation="-4,0"
       id="guide3326" />
    <sodipodi:guide
       position="-19.25,44"
       orientation="0,-4"
       id="guide3328" />
    <sodipodi:guide
       position="21.999993,4"
       orientation="4,0"
       id="guide3330" />
    <sodipodi:guide
       position="21.999993,0"
       orientation="0,4"
       id="guide3332" />
    <sodipodi:guide
       position="25.999993,0"
       orientation="-4,0"
       id="guide3334" />
    <sodipodi:guide
       position="25.999993,4"
       orientation="0,-4"
       id="guide3336" />
    <sodipodi:guide
       position="21.999993,8"
       orientation="4,0"
       id="guide3338" />
    <sodipodi:guide
       position="21.999993,4"
       orientation="0,4"
       id="guide3340" />
    <sodipodi:guide
       position="25.999993,4"
       orientation="-4,0"
       id="guide3342" />
    <sodipodi:guide
       position="25.999993,8"
       orientation="0,-4"
       id="guide3344" />
    <sodipodi:guide
       position="47.999993,26"
       orientation="0,-4"
       id="guide3346" />
    <sodipodi:guide
       position="43.999993,26"
       orientation="4,0"
       id="guide3348" />
    <sodipodi:guide
       position="43.999993,22"
       orientation="0,4"
       id="guide3350" />
    <sodipodi:guide
       position="47.999993,22"
       orientation="-4,0"
       id="guide3352" />
    <sodipodi:guide
       position="3.9999928,26"
       orientation="0,-4"
       id="guide3354" />
    <sodipodi:guide
       position="-7.2167969e-06,26"
       orientation="4,0"
       id="guide3356" />
    <sodipodi:guide
       position="-7.2167969e-06,22"
       orientation="0,4"
       id="guide3358" />
    <sodipodi:guide
       position="3.9999928,22"
       orientation="-4,0"
       id="guide3360" />
    <sodipodi:guide
       position="43.999993,26"
       orientation="0,-4"
       id="guide3362" />
    <sodipodi:guide
       position="39.999993,26"
       orientation="4,0"
       id="guide3364" />
    <sodipodi:guide
       position="39.999993,22"
       orientation="0,4"
       id="guide3366" />
    <sodipodi:guide
       position="43.999993,22"
       orientation="-4,0"
       id="guide3368" />
    <sodipodi:guide
       position="7.9999928,26"
       orientation="0,-4"
       id="guide3370" />
    <sodipodi:guide
       position="3.9999928,26"
       orientation="4,0"
       id="guide3372" />
    <sodipodi:guide
       position="3.9999928,22"
       orientation="0,4"
       id="guide3374" />
    <sodipodi:guide
       position="7.9999928,22"
       orientation="-4,0"
       id="guide3376" />
    <sodipodi:guide
       position="14.999993,33"
       orientation="18,0"
       id="guide3413" />
    <sodipodi:guide
       position="14.999993,15"
       orientation="0,18"
       id="guide3415" />
    <sodipodi:guide
       position="32.999993,15"
       orientation="-18,0"
       id="guide3417" />
    <sodipodi:guide
       position="32.999993,33"
       orientation="0,-18"
       id="guide3419" />
  </sodipodi:namedview>
  <metadata
     id="metadata7">
    <rdf:RDF>
      <cc:Work
         rdf:about="">
        <dc:format>image/svg+xml</dc:format>
        <dc:type
           rdf:resource="http://purl.org/dc/dcmitype/StillImage" />
        <dc:title />
      </cc:Work>
    </rdf:RDF>
  </metadata>
  <g
     inkscape:label="Capa 1"
     inkscape:groupmode="layer"
     id="layer1"
     transform="translate(-180.23661,-689.8125)">
    <path
       style="fill:#209cc8;fill-opacity:1;fill-rule:nonzero;stroke:none"
       inkscape:connector-curvature="0"
       d="m 211.18965,713.8125 c 0,3.84174 -3.1113,6.95652 -6.95651,6.95652 -3.84174,0 -6.95652,-3.11131 -6.95652,-6.95652 0,-3.84174 3.11129,-6.95652 6.95652,-6.95652 3.84173,0 6.95651,3.11478 6.95651,6.95652 m 0,0"
       id="path26" />
    <path
       style="fill:#f9f9f9;fill-opacity:1;fill-rule:nonzero;stroke:none"
       inkscape:connector-curvature="0"
       d="m 212.90183,713.8125 c 0,4.78608 -3.87913,8.66522 -8.66522,8.66522 -4.78956,0 -8.6687,-3.87914 -8.6687,-8.66522 0,-4.78956 3.87914,-8.6687 8.6687,-8.6687 4.78609,0 8.66522,3.87914 8.66522,8.6687 m 0,0"
       id="path28" />
    <path
       style="fill:#3d7fe6;fill-opacity:1;fill-rule:nonzero;stroke:none"
       inkscape:connector-curvature="0"
       d="m 190.59574,699.19336 c -3.91043,3.65044 -6.35913,8.84784 -6.35913,14.62 0,9.53131 6.67303,17.50435 15.59826,19.51131 l 7.22869,-12.2 c -1.06695,0.41479 -2.1913,0.61826 -3.3426,0.54348 -1.15478,-0.0748 -2.3,-0.44174 -3.36956,-1.05999 -0.9374,-0.54001 -1.72174,-1.22262 -2.3374,-2.03827 -0.61131,-0.81218 -1.07305,-1.75652 -1.33131,-2.7174 -0.25826,-0.96782 -0.34347,-1.97651 -0.21739,-2.98955 0.10085,-0.81045 0.47044,-1.59043 0.84263,-2.36435 l -6.71219,-11.30435 z"
       id="path30" />
    <path
       style="fill:#209dc8;fill-opacity:1;fill-rule:nonzero;stroke:none"
       inkscape:connector-curvature="0"
       d="m 211.15921,713.8125 c -0.0783,3.77043 -3.1626,6.79044 -6.93303,6.79044 -3.77393,0 -6.85479,-3.02001 -6.93652,-6.79044 -0.0513,-2.51392 1.25651,-4.8574 3.42433,-6.13044 2.16696,-1.2739 4.85393,-1.2739 7.0174,0 2.16695,1.27044 3.47826,3.61392 3.42434,6.13044 m 0,0"
       id="path32" />
    <path
       style="fill:#95b9dd;fill-opacity:1;fill-rule:nonzero;stroke:none"
       inkscape:connector-curvature="0"
       d="m 209.074,707.72554 c 0.88957,0.72 1.69129,1.65739 2.20086,2.69044 0.51304,1.03565 0.78783,2.18695 0.78783,3.42434 0,1.08 -0.19999,2.10609 -0.59826,3.04348 -0.39739,0.93739 -0.97825,1.78957 -1.68522,2.5 -0.70955,0.70696 -1.5626,1.29131 -2.49999,1.68523 -0.75304,0.31911 -1.5913,0.42434 -2.44609,0.48956 l -6.54871,11.35651 c 1.87915,0.58435 3.88001,0.89653 5.95133,0.89653 11.04607,0 19.99998,-8.95392 19.99998,-20 0,-2.12261 -0.33825,-4.16782 -0.9513,-6.08695 l -14.21216,0 z"
       id="path34" />
    <path
       style="fill:#0000ff;fill-opacity:1;fill-rule:nonzero;stroke:none"
       inkscape:connector-curvature="0"
       d="m 204.23661,693.8125 c -5.86783,0 -11.15131,2.52349 -14.80869,6.5487 l 7.11999,12.28696 c 0.17653,-1.13133 0.58087,-2.21827 1.22262,-3.17914 0.64173,-0.95826 1.51129,-1.77652 2.58174,-2.3913 0.93738,-0.54 1.92608,-0.88348 2.93478,-1.00522 1.0052,-0.12608 2.04782,-0.0444 3.01652,0.21739 0.96782,0.26173 1.87825,0.69304 2.69043,1.30435 0.65913,0.49913 1.1687,1.18783 1.6574,1.90261 l 13.09563,-0.027 c -1.98868,-8.95044 -9.96086,-15.65218 -19.51128,-15.65218 z"
       id="path36" />
    <path
       style="fill:#f9f9f9;fill-opacity:1;fill-rule:nonzero;stroke:none"
       inkscape:connector-curvature="0"
       d="m 212.06269,713.8125 c 0,4.32087 -3.50434,7.82608 -7.82608,7.82608 -4.32435,0 -7.82609,-3.50434 -7.82609,-7.82608 0,-4.32435 3.50435,-7.82608 7.82609,-7.82608 4.32087,0 7.82608,3.50434 7.82608,7.82608 m 0,0"
       id="path38" />
    <path
       style="opacity:0.1;fill:#000000;fill-opacity:1;fill-rule:nonzero;stroke:none"
       inkscape:connector-curvature="0"
       d="m 211.19313,714.68207 c -0.0748,3.30868 -2.77827,5.95131 -6.08696,5.95131 -3.30868,0 -6.01216,-2.64263 -6.08696,-5.95131 -0.0478,-2.20783 1.10087,-4.26957 3.00261,-5.38697 1.90522,-1.11739 4.26609,-1.11739 6.1687,0 1.90261,1.1174 3.05392,3.17914 3.00261,5.38697 m 0,0"
       id="path40" />
    <path
       style="fill:#3d7fe6;fill-opacity:1;fill-rule:nonzero;stroke:none"
       inkscape:connector-curvature="0"
       d="m 210.32356,713.8125 c -0.0748,3.30868 -2.77826,5.95131 -6.08695,5.95131 -3.30869,0 -6.01216,-2.64263 -6.08696,-5.95131 -0.0478,-2.20783 1.10086,-4.26956 3.00261,-5.38697 1.90522,-1.11738 4.26609,-1.11738 6.1687,0 1.90261,1.11741 3.05391,3.17914 3.0026,5.38697 m 0,0"
       id="path42" />
    <g
       transform="matrix(0.86956513,0,0,0.86956513,183.36705,692.94294)"
       id="g44">
      <path
         style="opacity:0.1"
         inkscape:connector-curvature="0"
         d="m 40.03,7.531 c 3.712,4.084 5.969,9.514 5.969,15.469 0,12.703 -10.297,23 -23,23 C 17.045,46 11.615,43.744 7.53,40.031 11.708,44.322 17.54,47 23.999,47 c 12.703,0 23,-10.298 23,-23 0,-6.462 -2.677,-12.291 -6.969,-16.469 z"
         id="path46" />
    </g>
    <path
       style="opacity:0.1;fill:#000000;fill-opacity:1;fill-rule:nonzero;stroke:none"
       inkscape:connector-curvature="0"
       d="m 204.23661,705.98642 c -4.32174,0 -7.82609,3.50434 -7.82609,7.82608 0,2.35478 1.04435,4.46173 2.69043,5.89652 -0.0739,-0.0887 -0.14781,-0.18 -0.21739,-0.27218 -0.6113,-0.81216 -1.07305,-1.75652 -1.33129,-2.71738 -0.25826,-0.96783 -0.34349,-1.97653 -0.2174,-2.98957 0.0113,-0.0922 0.0366,-0.18 0.0548,-0.27218 l 0.027,0.008 c 0.0339,-0.21999 0.0844,-0.38955 0.13567,-0.60521 0.16609,-0.5026 0.34173,-1.12869 0.57826,-1.62 l -0.008,0.0165 c 0.15391,-0.32 0.31739,-0.6261 0.51652,-0.92435 0.64173,-0.95827 1.5113,-1.77652 2.58174,-2.39132 0.93738,-0.53999 1.92608,-0.88347 2.93478,-1.0052 1.00521,-0.12609 2.04782,-0.0444 3.01651,0.21739 0.96783,0.26174 1.87828,0.69304 2.69044,1.30434 0.11827,0.0896 0.21652,0.19827 0.3261,0.29913 -1.43566,-1.68869 -3.56174,-2.77216 -5.9513,-2.77216 z"
       id="path48" />
  </g>
</svg>
