<?xml version="1.0" encoding="UTF-8" standalone="no"?>
<!-- Created with Inkscape (http://www.inkscape.org/) -->

<svg
   xmlns:dc="http://purl.org/dc/elements/1.1/"
   xmlns:cc="http://creativecommons.org/ns#"
   xmlns:rdf="http://www.w3.org/1999/02/22-rdf-syntax-ns#"
   xmlns:svg="http://www.w3.org/2000/svg"
   xmlns="http://www.w3.org/2000/svg"
   xmlns:sodipodi="http://sodipodi.sourceforge.net/DTD/sodipodi-0.dtd"
   xmlns:inkscape="http://www.inkscape.org/namespaces/inkscape"
   width="48"
   height="48"
   id="svg2"
   version="1.1"
   inkscape:version="0.91 r13725"
   sodipodi:docname="clamav.svg">
  <defs
     id="defs4">
    <mask
       id="Calque.__214">
      <g
         id="g">
        <g
           id="shape28">
          <path
             style="fill:#ffffff;fill-opacity:1"
             inkscape:connector-curvature="0"
             id="path19"
             d="m 746.9,499.95 q 0,-29.15 -13.15,-52.85 L 527.9,513.45 c 2.75,24.6 13.25,46 31.4,64.15 21.45,21.45 47.35,32.2 77.7,32.2 30.35,0 56.25,-10.75 77.7,-32.2 21.45,-21.45 32.2,-47.3 32.2,-77.65 z m -461.1,0 c 0,30.35 10.7,56.2 32.15,77.65 21.45,21.45 47.35,32.2 77.7,32.2 30.35,0 56.25,-10.75 77.7,-32.2 18.65,-18.65 29.25,-40.65 31.7,-66.1 l -206.1,-64.4 c -8.75,15.8 -13.15,33.4 -13.15,52.85 z" />
        </g>
      </g>
    </mask>
  </defs>
  <sodipodi:namedview
     id="base"
     pagecolor="#ffffff"
     bordercolor="#666666"
     borderopacity="1.0"
     inkscape:pageopacity="0.0"
     inkscape:pageshadow="2"
     inkscape:zoom="40.96"
     inkscape:cx="11.381037"
     inkscape:cy="32.380966"
     inkscape:document-units="px"
     inkscape:current-layer="layer1"
     showgrid="false"
     fit-margin-top="0"
     fit-margin-left="0"
     fit-margin-right="0"
     fit-margin-bottom="0"
     inkscape:window-width="3840"
     inkscape:window-height="2088"
     inkscape:window-x="0"
     inkscape:window-y="48"
     inkscape:window-maximized="1">
    <sodipodi:guide
       position="8.9999928,39"
       orientation="30,0"
       id="guide3290" />
    <sodipodi:guide
       position="8.9999928,9"
       orientation="0,30"
       id="guide3292" />
    <sodipodi:guide
       position="38.999993,9"
       orientation="-30,0"
       id="guide3294" />
    <sodipodi:guide
       position="38.999993,39"
       orientation="0,-30"
       id="guide3296" />
    <sodipodi:guide
       position="21.999993,48"
       orientation="4,0"
       id="guide3314" />
    <sodipodi:guide
       position="21.999993,44"
       orientation="0,4"
       id="guide3316" />
    <sodipodi:guide
       position="25.999993,44"
       orientation="-4,0"
       id="guide3318" />
    <sodipodi:guide
       position="25.999993,48"
       orientation="0,-4"
       id="guide3320" />
    <sodipodi:guide
       position="21.999993,44"
       orientation="4,0"
       id="guide3322" />
    <sodipodi:guide
       position="21.999993,40"
       orientation="0,4"
       id="guide3324" />
    <sodipodi:guide
       position="25.999993,40"
       orientation="-4,0"
       id="guide3326" />
    <sodipodi:guide
       position="-19.25,44"
       orientation="0,-4"
       id="guide3328" />
    <sodipodi:guide
       position="21.999993,4"
       orientation="4,0"
       id="guide3330" />
    <sodipodi:guide
       position="21.999993,0"
       orientation="0,4"
       id="guide3332" />
    <sodipodi:guide
       position="25.999993,0"
       orientation="-4,0"
       id="guide3334" />
    <sodipodi:guide
       position="25.999993,4"
       orientation="0,-4"
       id="guide3336" />
    <sodipodi:guide
       position="21.999993,8"
       orientation="4,0"
       id="guide3338" />
    <sodipodi:guide
       position="21.999993,4"
       orientation="0,4"
       id="guide3340" />
    <sodipodi:guide
       position="25.999993,4"
       orientation="-4,0"
       id="guide3342" />
    <sodipodi:guide
       position="25.999993,8"
       orientation="0,-4"
       id="guide3344" />
    <sodipodi:guide
       position="47.999993,26"
       orientation="0,-4"
       id="guide3346" />
    <sodipodi:guide
       position="43.999993,26"
       orientation="4,0"
       id="guide3348" />
    <sodipodi:guide
       position="43.999993,22"
       orientation="0,4"
       id="guide3350" />
    <sodipodi:guide
       position="47.999993,22"
       orientation="-4,0"
       id="guide3352" />
    <sodipodi:guide
       position="3.9999928,26"
       orientation="0,-4"
       id="guide3354" />
    <sodipodi:guide
       position="-7.2167969e-06,26"
       orientation="4,0"
       id="guide3356" />
    <sodipodi:guide
       position="-7.2167969e-06,22"
       orientation="0,4"
       id="guide3358" />
    <sodipodi:guide
       position="3.9999928,22"
       orientation="-4,0"
       id="guide3360" />
    <sodipodi:guide
       position="43.999993,26"
       orientation="0,-4"
       id="guide3362" />
    <sodipodi:guide
       position="39.999993,26"
       orientation="4,0"
       id="guide3364" />
    <sodipodi:guide
       position="39.999993,22"
       orientation="0,4"
       id="guide3366" />
    <sodipodi:guide
       position="43.999993,22"
       orientation="-4,0"
       id="guide3368" />
    <sodipodi:guide
       position="7.9999928,26"
       orientation="0,-4"
       id="guide3370" />
    <sodipodi:guide
       position="3.9999928,26"
       orientation="4,0"
       id="guide3372" />
    <sodipodi:guide
       position="3.9999928,22"
       orientation="0,4"
       id="guide3374" />
    <sodipodi:guide
       position="7.9999928,22"
       orientation="-4,0"
       id="guide3376" />
    <sodipodi:guide
       position="14.999993,33"
       orientation="18,0"
       id="guide3413" />
    <sodipodi:guide
       position="14.999993,15"
       orientation="0,18"
       id="guide3415" />
    <sodipodi:guide
       position="32.999993,15"
       orientation="-18,0"
       id="guide3417" />
    <sodipodi:guide
       position="32.999993,33"
       orientation="0,-18"
       id="guide3419" />
  </sodipodi:namedview>
  <metadata
     id="metadata7">
    <rdf:RDF>
      <cc:Work
         rdf:about="">
        <dc:format>image/svg+xml</dc:format>
        <dc:type
           rdf:resource="http://purl.org/dc/dcmitype/StillImage" />
        <dc:title />
      </cc:Work>
    </rdf:RDF>
  </metadata>
  <g
     inkscape:label="Capa 1"
     inkscape:groupmode="layer"
     id="layer1"
     transform="translate(-180.23661,-689.8125)">
    <g
       id="ico-shadow"
       transform="matrix(0.04224006,0,0,0.04224006,182.60742,692.18475)"
       style="fill:none;stroke:#4d4d4d;stroke-opacity:1;stroke-width:8.09657941;stroke-miterlimit:4;stroke-dasharray:none">
      <g
         id="shape2"
         style="fill:none;stroke:#4d4d4d;stroke-opacity:1;stroke-width:8.09657941;stroke-miterlimit:4;stroke-dasharray:none">
        <path
           id="path1"
           d="M 727.2,91.75 C 718.5,87.4 709.35,83.1 699.95,79.05 691.35,75.3 682.8,71.85 674.05,68.65 631.95,52.9 589.8,43.3 547.6,40 478.2,34.4 408.65,45.4 338.7,73 c -23.45,9.3 -45.65,19.9 -66.6,31.9 -41.3,23.7 -77.6,52.65 -108.5,86.7 Q 112,248.2 79.05,324.15 C 58.8,370.8 46.2,417.6 41.2,463.8 c -0.45,4.45 -0.85,8.6 -1.2,12.75 -3.7,45.6 -0.2,90.75 10.25,136 5.7,24.55 13.25,48.75 22.75,72.85 27.7,69.95 67.25,128.4 118.55,175.1 31.45,28.65 67.2,52.85 107.3,72.8 0.15,0.05 0.25,0.1 0.35,0.15 3.1,1.55 6.1,3 8.65,4.15 4.9,2.35 9.25,4.35 13.6,6.25 1.1,0.45 1.9,0.85 2.75,1.2 9.45,4.1 18.9,7.85 27.9,11.2 2.35,0.85 4.5,1.65 6.6,2.4 19.05,6.7 38.2,12.15 56.9,16.3 7.9,1.7 15.8,3.25 23.5,4.55 0.95,0.2 1.95,0.3 2.7,0.45 11.65,1.85 23.2,3.25 34.75,4.2 69.8,5.45 139.2,-5.55 208.85,-33.05 24.35,-9.6 47.3,-20.65 68.8,-33.15 35.1,-20.35 66.45,-44.5 94.1,-72.5 4.15,-4.2 8.2,-8.5 12.25,-12.9 8.4,-9.25 16.5,-18.95 24.25,-29.1 20.05,-26.15 37.55,-55.1 52.6,-86.7 2.6,-5.5 5.15,-11.1 7.65,-16.85 0.25,-0.6 0.55,-1.25 0.8,-1.85 0.15,-0.3 0.25,-0.6 0.4,-0.9 2.8,-6.6 5.45,-13.25 8.1,-20 C 966,646.5 974.5,615.5 979.7,584.1 c 0.7,-4.4 1.4,-9.15 2.1,-13.9 0.9,-7.35 1.75,-14.85 2.35,-22.6 0.1,-1.45 0.25,-3.15 0.4,-4.95 1.3,-19.3 1.3,-38.7 0.1,-58.4 -0.45,-6.4 -1,-12.9 -1.7,-19.6 -0.2,-1.85 -0.45,-3.85 -0.7,-5.85 -2,-16.4 -4.95,-32.85 -8.95,-49.7 -5.45,-23.15 -12.85,-46.75 -22.2,-70.4 -27.55,-69.75 -67,-128.05 -118.6,-175.1 -18.75,-17.1 -39.35,-32.8 -61.55,-46.95 -13.85,-8.9 -28.3,-17.1 -43.75,-24.9 z"
           inkscape:connector-curvature="0"
           style="fill:none;fill-opacity:1;stroke:#4d4d4d;stroke-opacity:1;stroke-width:8.09657941;stroke-miterlimit:4;stroke-dasharray:none" />
      </g>
    </g>
    <g
       id="Calque.__209"
       transform="matrix(0.04056703,0,0,0.04056703,183.48329,693.02219)"
       style="fill:#4d4d4d">
      <g
         id="shape6"
         style="fill:#4d4d4d">
        <path
           id="path3"
           d="m 801.65,201.4 q 0,-3.35 -3.3,-3.35 l -143.9,32.25 c -2.25,0 -3.35,1.1 -3.35,3.35 l 0,111.6 c 0,2.25 1.1,3.35 3.35,3.35 l 111.65,0 c 2.15,0 3.25,-1.1 3.25,-3.35 l 32.3,-143.85 z"
           inkscape:connector-curvature="0"
           style="fill:#4d4d4d;fill-opacity:1" />
        <path
           id="path4"
           d="m 769.35,654.65 c 0,-2.3 -1.1,-3.4 -3.25,-3.4 l -111.65,0 c -2.25,0 -3.35,1.1 -3.35,3.4 l 0,111.55 c 0,2.25 1.1,3.35 3.35,3.35 l 143.9,32.3 c 2.2,0 3.3,-1.1 3.3,-3.35 l -32.3,-143.85 z"
           inkscape:connector-curvature="0"
           style="fill:#4d4d4d;fill-opacity:1" />
        <path
           id="path5"
           d="m 380.25,233.65 c 0,-2.25 -1.1,-3.35 -3.35,-3.35 L 232.95,198.05 c -2.15,0 -3.25,1.1 -3.25,3.35 l 32.25,143.85 c 0,2.25 1.1,3.35 3.3,3.35 l 111.65,0 c 2.25,0 3.35,-1.1 3.35,-3.35 l 0,-111.6 z"
           inkscape:connector-curvature="0"
           style="fill:#4d4d4d;fill-opacity:1" />
        <path
           id="path6"
           d="m 265.25,651.25 c -2.2,0 -3.3,1.1 -3.3,3.4 L 229.7,798.5 c 0,2.25 1.1,3.35 3.25,3.35 l 143.95,-32.3 c 2.25,0 3.35,-1.1 3.35,-3.35 l 0,-111.55 c 0,-2.3 -1.1,-3.4 -3.35,-3.4 l -111.65,0 z"
           inkscape:connector-curvature="0"
           style="fill:#4d4d4d;fill-opacity:1" />
      </g>
    </g>
    <g
       id="shape11"
       transform="matrix(0.04056703,0,0,0.04056703,183.48329,693.02219)">
      <path
         style="fill:#a95139;fill-opacity:1"
         inkscape:connector-curvature="0"
         d="M 727.45,711.75 Q 815.2,624 815.2,499.95 C 815.2,417.2 785.95,346.6 727.45,288.1 690.3,250.9 648.15,225.55 601.1,212 c -48.55,14.25 -91.6,45.55 -129.25,93.8 -53.45,68.6 -80.2,151.4 -80.2,248.35 0,93.9 25.1,174.5 75.25,241.75 15.75,2.4 32,3.6 48.75,3.6 0.05,0 0.05,0 0.1,0 82.7,-0.05 153.25,-29.3 211.7,-87.75 z"
         id="path7" />
      <path
         style="fill:#cc6447;fill-opacity:1"
         inkscape:connector-curvature="0"
         d="m 515.75,200.35 c -0.05,0 -0.05,0 -0.1,0 -82.75,0 -153.35,29.25 -211.85,87.75 -58.5,58.5 -87.75,129.1 -87.75,211.85 0,82.7 29.25,153.3 87.75,211.8 46.65,46.65 101.05,74.7 163.1,84.15 -50.15,-67.25 -75.25,-147.85 -75.25,-241.75 0,-96.95 26.75,-179.75 80.2,-248.35 37.65,-48.25 80.7,-79.55 129.25,-93.8 -26.85,-7.75 -55.3,-11.65 -85.35,-11.65 z"
         id="path8" />
    </g>
    <g
       id="Calque.__211"
       transform="matrix(0.04056703,0,0,0.04056703,183.48329,693.02219)">
      <g
         id="shape15">
        <path
           id="path9"
           d="m 746.9,523.2 q 0,-29.15 -13.15,-52.85 l -205.85,66.3 c 2.75,24.65 13.25,46.05 31.4,64.2 21.45,21.45 47.35,32.2 77.7,32.2 30.35,0 56.25,-10.75 77.7,-32.2 21.45,-21.45 32.2,-47.3 32.2,-77.65 z M 298.95,470.35 c -8.75,15.8 -13.15,33.4 -13.15,52.85 0,30.35 10.7,56.2 32.15,77.65 21.45,21.45 47.35,32.2 77.7,32.2 30.35,0 56.25,-10.75 77.7,-32.2 18.65,-18.65 29.25,-40.65 31.7,-66.1 l -206.1,-64.4 z"
           inkscape:connector-curvature="0"
           style="fill:#000000;fill-opacity:0.2" />
      </g>
    </g>
    <g
       id="Calque.__212"
       transform="matrix(0.04056703,0,0,0.04056703,183.48329,693.02219)">
      <g
         id="shape19">
        <path
           id="path12"
           d="m 746.9,499.95 q 0,-29.15 -13.15,-52.85 L 527.9,513.45 c 2.75,24.6 13.25,46 31.4,64.15 21.45,21.45 47.35,32.2 77.7,32.2 30.35,0 56.25,-10.75 77.7,-32.2 21.45,-21.45 32.2,-47.3 32.2,-77.65 z m -461.1,0 c 0,30.35 10.7,56.2 32.15,77.65 21.45,21.45 47.35,32.2 77.7,32.2 30.35,0 56.25,-10.75 77.7,-32.2 18.65,-18.65 29.25,-40.65 31.7,-66.1 l -206.1,-64.4 c -8.75,15.8 -13.15,33.4 -13.15,52.85 z"
           inkscape:connector-curvature="0"
           style="fill:#ffffff;fill-opacity:1" />
      </g>
    </g>
    <g
       id="masked"
       mask="url(#Calque.__214)"
       transform="matrix(0.04056703,0,0,0.04056703,183.48329,693.02219)">
      <g
         id="Calque.__213">
        <g
           id="shape23">
          <path
             id="path15"
             d="m 602.15,453.45 q -9.3,0 -16.1,11.1 c -0.3,0.45 -0.55,0.9 -0.8,1.35 -4.65,8.35 -7,18.4 -7,30.15 0,11.75 2.35,21.8 7,30.1 2.65,4.75 5.65,8.2 9,10.25 2.45,1.5 5.1,2.25 7.9,2.25 6.6,0 12.2,-4.15 16.85,-12.5 4.7,-8.3 7.05,-18.35 7.05,-30.1 0,-11.75 -2.35,-21.8 -7.05,-30.15 -4.65,-8.3 -10.25,-12.45 -16.85,-12.45 z M 438.85,465.9 C 434.2,457.6 428.6,453.45 422,453.45 c -6.2,0 -11.55,3.7 -16.05,11.1 -0.3,0.45 -0.6,0.9 -0.85,1.35 -4.65,8.35 -6.95,18.4 -6.95,30.15 0,3.25 0.2,6.4 0.55,9.45 0.15,1.1 0.3,2.2 0.45,3.35 1.05,6.4 3.05,12.15 5.95,17.3 2.65,4.75 5.7,8.2 9.05,10.25 2.45,1.5 5.05,2.25 7.85,2.25 6.6,0 12.2,-4.15 16.85,-12.5 4.7,-8.3 7.05,-18.35 7.05,-30.1 0,-11.75 -2.35,-21.8 -7.05,-30.15 z"
             inkscape:connector-curvature="0"
             style="fill:#333333;fill-opacity:1" />
          <path
             id="path18"
             d="m 373.35,529.5 c -0.15,-1.15 -0.3,-2.25 -0.45,-3.35 -2.05,1.75 -3.95,4.35 -5.65,7.8 -3.55,7.2 -5.3,15.9 -5.3,26.05 0,10.15 1.75,18.8 5.3,26 3.55,7.2 7.8,10.8 12.8,10.8 1.5,0 2.95,-0.35 4.4,-1 -3.35,-2.05 -6.4,-5.5 -9.05,-10.25 -4.65,-8.3 -6.95,-18.35 -6.95,-30.1 0,-9.85 1.65,-18.5 4.9,-25.95 z"
             inkscape:connector-curvature="0"
             style="fill:#ffffff;fill-opacity:1" />
        </g>
      </g>
    </g>
  </g>
</svg>
