<?xml version="1.0" encoding="UTF-8" standalone="no"?>
<!-- Created with Inkscape (http://www.inkscape.org/) -->

<svg
   xmlns:dc="http://purl.org/dc/elements/1.1/"
   xmlns:cc="http://creativecommons.org/ns#"
   xmlns:rdf="http://www.w3.org/1999/02/22-rdf-syntax-ns#"
   xmlns:svg="http://www.w3.org/2000/svg"
   xmlns="http://www.w3.org/2000/svg"
   xmlns:sodipodi="http://sodipodi.sourceforge.net/DTD/sodipodi-0.dtd"
   xmlns:inkscape="http://www.inkscape.org/namespaces/inkscape"
   width="48"
   height="48"
   id="svg2"
   version="1.1"
   inkscape:version="0.91 r13725"
   sodipodi:docname="codelite.svg">
  <defs
     id="defs4">
    <linearGradient
       id="linearGradient5161">
      <stop
         id="stop5163"
         offset="0"
         style="stop-color:#dcdcdc;stop-opacity:1" />
      <stop
         id="stop5165"
         offset="1"
         style="stop-color:#fafafa;stop-opacity:1" />
    </linearGradient>
    <linearGradient
       id="linearGradient960">
      <stop
         style="stop-color:#272822;stop-opacity:1"
         offset="0"
         id="stop962" />
      <stop
         style="stop-color:#32342c;stop-opacity:0.99607843"
         offset="1"
         id="stop964" />
    </linearGradient>
  </defs>
  <sodipodi:namedview
     id="base"
     pagecolor="#ffffff"
     bordercolor="#666666"
     borderopacity="1.0"
     inkscape:pageopacity="0.0"
     inkscape:pageshadow="2"
     inkscape:zoom="17.0625"
     inkscape:cx="15.588572"
     inkscape:cy="24.119788"
     inkscape:document-units="px"
     inkscape:current-layer="layer1"
     showgrid="true"
     inkscape:window-width="3840"
     inkscape:window-height="2088"
     inkscape:window-x="0"
     inkscape:window-y="48"
     inkscape:window-maximized="1">
    <inkscape:grid
       type="xygrid"
       id="grid3009" />
  </sodipodi:namedview>
  <metadata
     id="metadata7">
    <rdf:RDF>
      <cc:Work
         rdf:about="">
        <dc:format>image/svg+xml</dc:format>
        <dc:type
           rdf:resource="http://purl.org/dc/dcmitype/StillImage" />
        <dc:title />
      </cc:Work>
    </rdf:RDF>
  </metadata>
  <g
     inkscape:label="Capa 1"
     inkscape:groupmode="layer"
     id="layer1"
     transform="translate(0,-1004.3622)">
    <text
       xml:space="preserve"
       style="font-size:33.33333206px;font-style:normal;font-variant:normal;font-weight:bold;font-stretch:normal;line-height:125%;letter-spacing:0px;word-spacing:0px;fill:#000000;fill-opacity:1;stroke:none;font-family:Impact;-inkscape-font-specification:Impact Bold"
       x="8.8613596"
       y="1038.1975"
       id="text830"
       sodipodi:linespacing="125%"><tspan
         sodipodi:role="line"
         id="tspan832"
         x="8.8613596"
         y="1038.1975" /></text>
    <path
       style="fill:#4d4d4d;fill-opacity:1"
       d="m 13.811549,1015.1669 c -1.239373,0 -2.219722,0.123 -2.897365,0.3461 -0.677641,0.2138 -1.2152927,0.5475 -1.6432793,1.0378 -0.4279852,0.4905 -0.7057301,1.0851 -0.8216406,1.8164 -0.1069899,0.7223 -0.1729773,1.8663 -0.1729773,3.3731 0,1.9794 -0.2447527,3.2348 -0.7351519,3.8055 -0.4904007,0.5614 -1.1903306,0.8557 -2.162213,0.8647 l 0,3.2001 c 0.989716,0.036 1.6325807,0.264 1.9892343,0.6921 0.356655,0.4189 0.6103223,0.8754 0.7351518,1.3837 0.1248191,0.5082 0.1729788,1.6838 0.1729788,3.5026 0,1.6499 0.1711929,2.8492 0.5189304,3.5895 0.3477359,0.7401 0.9107998,1.2791 1.6865288,1.5998 0.775721,0.3302 1.903188,0.4758 3.329803,0.4758 l 0.691908,0 0,-3.2 c -1.087796,0 -1.772564,-0.1079 -2.075723,-0.3027 -0.30316,-0.187 -0.525177,-0.4472 -0.605423,-0.8219 l -0.172973,-3.892 c -0.06241,-1.257 -0.283095,-2.2284 -0.648665,-2.897 -0.356655,-0.6688 -0.936214,-1.2483 -1.7297683,-1.7298 0.8381363,-0.5352 1.4266113,-1.1071 1.7297683,-1.6867 0.312067,-0.5882 0.481924,-1.1743 0.562176,-1.816 0.08918,-0.6423 0.162722,-2.0551 0.21622,-4.1949 0.01781,-0.7759 0.139544,-1.2893 0.389201,-1.5568 0.258575,-0.2675 1.042314,-0.3891 2.335187,-0.3891 l 0,-3.2003 -0.691908,0 z m 20.930216,0 0,3.2003 c 1.114546,0 1.808233,0.057 2.075723,0.2162 0.276404,0.1605 0.447602,0.3825 0.518932,0.6055 0.07133,0.223 0.119481,1.0951 0.172977,2.6379 0.05349,1.5334 0.152469,2.5859 0.259464,3.1565 0.10699,0.5617 0.302264,1.0755 0.605422,1.5571 0.303155,0.4812 0.833231,0.9711 1.600036,1.4703 -0.722225,0.4191 -1.261214,0.9084 -1.600036,1.4702 -0.329908,0.5617 -0.532754,1.1653 -0.648666,1.8162 -0.10699,0.6421 -0.205966,2.1284 -0.259464,4.411 -0.01783,0.7935 -0.147117,1.2983 -0.432443,1.5568 -0.276409,0.2586 -1.05257,0.3892 -2.291945,0.3892 l 0,3.2 0.735154,0 c 1.239373,0 2.176476,-0.123 2.854119,-0.3458 0.677642,-0.214 1.215296,-0.5475 1.643281,-1.0378 0.427983,-0.4906 0.714644,-1.0853 0.82164,-1.8164 0.10699,-0.7223 0.172976,-1.8572 0.172976,-3.3731 0,-1.9615 0.244754,-3.2347 0.735152,-3.8054 0.490402,-0.5703 1.190329,-0.8558 2.162213,-0.865 l 0,-3.2001 c -0.971884,-0.036 -1.632579,-0.2472 -1.989236,-0.6487 -0.347736,-0.4101 -0.59249,-0.85 -0.73515,-1.3405 -0.133756,-0.4904 -0.172979,-1.699 -0.172979,-3.5892 0,-1.6496 -0.171193,-2.8492 -0.51893,-3.5894 -0.347736,-0.7397 -0.910802,-1.2788 -1.686529,-1.5998 -0.775721,-0.3299 -1.903186,-0.476 -3.329803,-0.476 l -0.691908,0 z m -7.135302,2.0326 -0.475686,0.5622 c -0.243279,0.3137 -0.782222,0.9154 -1.210838,1.3405 -0.650092,0.6448 -0.85524,0.7783 -1.297328,0.7783 -0.44206,0 -0.663982,-0.1365 -1.383815,-0.8215 -0.474628,-0.4521 -1.022681,-1.0616 -1.210837,-1.3404 -0.397524,-0.5891 -0.502776,-0.5734 -2.075727,0.129 -0.705391,0.3149 -1.004987,0.5091 -0.951372,0.6485 0.04295,0.111 0.12092,0.8105 0.172976,1.5568 0.07403,1.0611 0.04993,1.4751 -0.129738,1.9029 -0.292599,0.6965 -0.554255,0.7854 -2.681138,0.6917 l -1.686529,-0.087 -0.432443,1.081 c -0.24626,0.591 -0.432442,1.14 -0.432442,1.2542 0,0.1155 0.409309,0.5541 0.908128,0.9513 1.099259,0.8754 1.729773,1.7237 1.729773,2.2919 0,0.4851 -0.792194,1.4136 -1.945993,2.2921 -0.39764,0.3029 -0.691908,0.6247 -0.691908,0.7351 0,0.1124 0.183053,0.699 0.432442,1.2974 l 0.475687,1.0809 1.643285,-0.087 c 2.719424,-0.1455 2.98675,0.1379 2.810873,2.8544 l -0.08648,1.5135 0.648663,0.3026 c 1.143362,0.583 2.032479,0.8459 2.032479,0.6055 0,-0.2084 1.389578,-1.788 1.902747,-2.1624 0.279216,-0.2032 0.653405,-0.3458 0.864886,-0.3458 0.526526,0 1.43595,0.664 2.291945,1.7298 0.814044,1.0137 0.790377,1.0317 2.421677,0.3026 0.81842,-0.3654 0.934653,-0.4897 0.864885,-0.7784 -0.208685,-0.863 -0.286403,-2.4027 -0.129722,-2.9836 0.271081,-1.0058 0.599453,-1.1424 2.681146,-1.0382 2.009932,0.1004 1.795752,0.234 2.421674,-1.427 l 0.345955,-0.9512 -1.081105,-0.9078 c -1.299509,-1.0738 -1.733892,-1.7272 -1.600039,-2.3357 0.08969,-0.4078 1.606416,-2.0125 2.378435,-2.5079 0.324834,-0.2087 0.330568,-0.2573 0.129722,-0.8217 -0.115282,-0.3241 -0.346806,-0.8892 -0.51893,-1.2542 l -0.30271,-0.6486 -1.902747,0 c -2.527165,0 -2.460888,0.093 -2.46492,-2.4652 l 0,-1.9456 -1.254084,-0.5189 -1.210861,-0.4751 z m -3.070339,6.5733 c 0.925114,-0.015 1.245169,0.046 1.945988,0.3892 1.549723,0.7601 2.413891,2.1389 2.421679,3.8918 0.01455,3.2592 -3.320462,5.3428 -6.227173,3.8919 -1.612069,-0.8047 -2.381207,-2.1127 -2.378431,-3.9782 0.0018,-1.2365 0.438489,-2.2034 1.383813,-3.0704 0.94544,-0.8673 1.527948,-1.1113 2.854124,-1.1243 z"
       id="path866"
       inkscape:connector-curvature="0" />
  </g>
</svg>
