<?xml version="1.0" encoding="UTF-8" standalone="no"?>
<!-- Created using Karbon, part of Calligra: http://www.calligra.org/karbon -->

<svg
   xmlns:dc="http://purl.org/dc/elements/1.1/"
   xmlns:cc="http://creativecommons.org/ns#"
   xmlns:rdf="http://www.w3.org/1999/02/22-rdf-syntax-ns#"
   xmlns:svg="http://www.w3.org/2000/svg"
   xmlns="http://www.w3.org/2000/svg"
   xmlns:xlink="http://www.w3.org/1999/xlink"
   xmlns:sodipodi="http://sodipodi.sourceforge.net/DTD/sodipodi-0.dtd"
   xmlns:inkscape="http://www.inkscape.org/namespaces/inkscape"
   width="38.4pt"
   height="38.4pt"
   id="svg2"
   version="1.1"
   inkscape:version="0.91 r13725"
   sodipodi:docname="cog.svg">
  <metadata
     id="metadata12">
    <rdf:RDF>
      <cc:Work
         rdf:about="">
        <dc:format>image/svg+xml</dc:format>
        <dc:type
           rdf:resource="http://purl.org/dc/dcmitype/StillImage" />
        <dc:title />
      </cc:Work>
    </rdf:RDF>
  </metadata>
  <sodipodi:namedview
     pagecolor="#ffffff"
     bordercolor="#666666"
     borderopacity="1"
     objecttolerance="10"
     gridtolerance="10"
     guidetolerance="10"
     inkscape:pageopacity="0"
     inkscape:pageshadow="2"
     inkscape:window-width="3840"
     inkscape:window-height="2088"
     id="namedview10"
     showgrid="false"
     inkscape:showpageshadow="false"
     borderlayer="true"
     inkscape:zoom="19.666666"
     inkscape:cx="-5.8067151"
     inkscape:cy="39.68274"
     inkscape:window-x="0"
     inkscape:window-y="48"
     inkscape:window-maximized="1"
     inkscape:current-layer="svg2">
    <sodipodi:guide
       position="9.5367432e-07,48.000001"
       orientation="47.999999,0"
       id="guide4070" />
    <sodipodi:guide
       position="9.5367432e-07,1.9073486e-06"
       orientation="0,47.999999"
       id="guide4072" />
    <sodipodi:guide
       position="48,1.9073486e-06"
       orientation="-47.999999,0"
       id="guide4074" />
    <sodipodi:guide
       position="48,48.000001"
       orientation="0,-47.999999"
       id="guide4076" />
    <sodipodi:guide
       position="4.000001,44.000001"
       orientation="39.999999,0"
       id="guide4078" />
    <sodipodi:guide
       position="4.000001,4.0000019"
       orientation="0,39.999999"
       id="guide4080" />
    <sodipodi:guide
       position="44,4.0000019"
       orientation="-39.999999,0"
       id="guide4082" />
    <sodipodi:guide
       position="44,44.000001"
       orientation="0,-39.999999"
       id="guide4084" />
    <sodipodi:guide
       position="4.000001,18.000002"
       orientation="14,0"
       id="guide4088" />
    <sodipodi:guide
       position="4.000001,4.0000019"
       orientation="0,39.999999"
       id="guide4090" />
    <sodipodi:guide
       position="44,4.0000019"
       orientation="-14,0"
       id="guide4092" />
    <sodipodi:guide
       position="44,18.000002"
       orientation="0,-39.999999"
       id="guide4094" />
    <sodipodi:guide
       position="23.999996,44.000001"
       orientation="39.999999,0"
       id="guide4100" />
    <sodipodi:guide
       position="23.999996,4.0000019"
       orientation="0,20"
       id="guide4102" />
    <sodipodi:guide
       position="43.999996,4.0000019"
       orientation="-39.999999,0"
       id="guide4104" />
    <sodipodi:guide
       position="43.999996,44.000001"
       orientation="0,-20"
       id="guide4106" />
    <sodipodi:guide
       position="3.9999962,44.000001"
       orientation="39.999999,0"
       id="guide4108" />
    <sodipodi:guide
       position="3.9999962,4.0000019"
       orientation="0,20"
       id="guide4110" />
    <sodipodi:guide
       position="23.999996,4.0000019"
       orientation="-39.999999,0"
       id="guide4112" />
    <sodipodi:guide
       position="23.999996,44.000001"
       orientation="0,-20"
       id="guide4114" />
  </sodipodi:namedview>
  <defs
     id="defs4">
    <clipPath
       id="clipPath-946816742">
      <g
         transform="translate(0,-1004.3622)"
         id="g17">
        <path
           style="fill:#1890d0"
           inkscape:connector-curvature="0"
           d="m -24,13 c 0,1.105 -0.672,2 -1.5,2 -0.828,0 -1.5,-0.895 -1.5,-2 0,-1.105 0.672,-2 1.5,-2 0.828,0 1.5,0.895 1.5,2 z"
           transform="matrix(15.333333,0,0,11.5,414.99999,878.8622)"
           id="path19" />
      </g>
    </clipPath>
    <clipPath
       id="clipPath-931746650">
      <g
         transform="translate(0,-1004.3622)"
         id="g12">
        <path
           style="fill:#1890d0"
           inkscape:connector-curvature="0"
           d="m -24,13 c 0,1.105 -0.672,2 -1.5,2 -0.828,0 -1.5,-0.895 -1.5,-2 0,-1.105 0.672,-2 1.5,-2 0.828,0 1.5,0.895 1.5,2 z"
           transform="matrix(15.333333,0,0,11.5,414.99999,878.8622)"
           id="path14" />
      </g>
    </clipPath>
    <linearGradient
       id="linearGradient3764"
       x1="1"
       x2="47"
       gradientUnits="userSpaceOnUse"
       gradientTransform="matrix(0,-1,1,0,-1.5e-6,47.999998)">
      <stop
         stop-color="#7e4c67"
         stop-opacity="1"
         id="stop7" />
      <stop
         offset="1"
         stop-color="#8b5371"
         stop-opacity="1"
         id="stop9" />
    </linearGradient>
  </defs>
  <g
     transform="matrix(1.4167006,0,0,1.4167112,-11.067377,-8.362004)"
     id="g73"
     style="fill:none;stroke:#4d4d4d;stroke-opacity:1">
    <g
       clip-path="url(#clipPath-946816742)"
       id="g75"
       style="fill:none;stroke:#4d4d4d;stroke-opacity:1">
      <!-- color: #8b5371 -->
      <g
         id="g77"
         style="fill:none;stroke:#4d4d4d;stroke-opacity:1">
        <path
           style="fill:none;stroke:#4d4d4d;stroke-width:4;stroke-linecap:butt;stroke-linejoin:round;stroke-miterlimit:5.80000019;stroke-opacity:1"
           inkscape:connector-curvature="0"
           d="M 35,24.5 C 35,31.405 29.403,37.002 22.498,37.002 15.593,37.002 9.996,31.405 9.996,24.5 9.996,17.595 15.593,11.998 22.498,11.998 29.403,11.998 35,17.595 35,24.5 m 0,0"
           transform="matrix(0.758621,0,0,0.758621,6.931034,5.413795)"
           stroke-miterlimit="5.8"
           id="path79" />
        <use
           height="1052.3622"
           width="744.09448"
           y="0"
           x="0"
           style="fill:none;stroke:#4d4d4d;stroke-opacity:1"
           transform="scale(3.543307,3.543307)"
           xlink:href="#SVGCleanerId_0"
           id="use81" />
        <path
           style="fill:none;stroke:#4d4d4d;stroke-width:0.59399998;stroke-linecap:butt;stroke-linejoin:miter;stroke-miterlimit:5.80000019;stroke-opacity:1"
           inkscape:connector-curvature="0"
           d="m 6.507,3.401 0.537,0 0,0.535 -0.537,0 m 0,-0.535"
           transform="scale(3.543307,3.543307)"
           stroke-miterlimit="5.8"
           id="path83" />
        <use
           height="1052.3622"
           width="744.09448"
           y="0"
           x="0"
           style="fill:none;stroke:#4d4d4d;stroke-opacity:1"
           transform="matrix(8.8201e-5,3.543307,-3.543307,8.8201e-5,47.999405,-5.98112e-4)"
           xlink:href="#SVGCleanerId_1"
           id="use85" />
        <path
           style="fill:none;stroke:#4d4d4d;stroke-width:0.59399998;stroke-linecap:butt;stroke-linejoin:miter;stroke-miterlimit:5.80000019;stroke-opacity:1"
           inkscape:connector-curvature="0"
           d="m 6.506,3.401 0.538,0 0,0.535 -0.538,0 m 0,-0.535"
           transform="matrix(8.8201e-5,3.543307,-3.543307,8.8201e-5,47.999405,-5.98112e-4)"
           stroke-miterlimit="5.8"
           id="path87" />
        <use
           height="1052.3622"
           width="744.09448"
           y="0"
           x="0"
           style="fill:none;stroke:#4d4d4d;stroke-opacity:1"
           transform="scale(3.543307,3.543307)"
           xlink:href="#SVGCleanerId_0"
           id="use89" />
        <use
           height="1052.3622"
           width="744.09448"
           y="0"
           x="0"
           style="fill:none;stroke:#4d4d4d;stroke-opacity:1"
           transform="scale(3.543307,3.543307)"
           xlink:href="#SVGCleanerId_2"
           id="use91" />
        <use
           height="1052.3622"
           width="744.09448"
           y="0"
           x="0"
           style="fill:none;stroke:#4d4d4d;stroke-opacity:1"
           transform="matrix(2.505496,-2.505496,2.505496,2.505496,-9.941126,24.000001)"
           xlink:href="#SVGCleanerId_1"
           id="use93" />
        <path
           style="fill:none;stroke:#4d4d4d;stroke-width:0.59399998;stroke-linecap:butt;stroke-linejoin:miter;stroke-miterlimit:5.80000019;stroke-opacity:1"
           inkscape:connector-curvature="0"
           d="m 6.506,3.4 0.536,10e-4 0,0.535 -0.536,10e-4 m 0,-0.536"
           transform="matrix(2.505496,-2.505496,2.505496,2.505496,-9.941126,24.000001)"
           stroke-miterlimit="5.8"
           id="path95" />
        <use
           height="1052.3622"
           width="744.09448"
           y="0"
           x="0"
           style="fill:none;stroke:#4d4d4d;stroke-opacity:1"
           transform="matrix(2.505496,2.505496,-2.505496,2.505496,24.000001,-9.941126)"
           xlink:href="#SVGCleanerId_1"
           id="use97" />
        <use
           height="1052.3622"
           width="744.09448"
           y="0"
           x="0"
           style="fill:none;stroke:#4d4d4d;stroke-opacity:1"
           transform="matrix(2.505496,2.505496,-2.505496,2.505496,23.999999,-9.941126)"
           xlink:href="#SVGCleanerId_3"
           id="use99" />
        <path
           style="fill:none;fill-opacity:1;fill-rule:nonzero;stroke:#4d4d4d;stroke-opacity:1"
           inkscape:connector-curvature="0"
           d="m 27.04,24.02 c 0.148,1.16 -0.387,2.305 -1.375,2.934 -0.988,0.629 -2.254,0.629 -3.242,0 -0.992,-0.629 -1.527,-1.773 -1.375,-2.934 -0.152,-1.164 0.383,-2.305 1.375,-2.934 0.988,-0.629 2.254,-0.629 3.242,0 0.988,0.629 1.523,1.77 1.375,2.934 m 0,0"
           id="path101" />
      </g>
    </g>
  </g>
</svg>
