<?xml version="1.0" encoding="UTF-8" standalone="no"?>
<svg
   xmlns:dc="http://purl.org/dc/elements/1.1/"
   xmlns:cc="http://creativecommons.org/ns#"
   xmlns:rdf="http://www.w3.org/1999/02/22-rdf-syntax-ns#"
   xmlns:svg="http://www.w3.org/2000/svg"
   xmlns="http://www.w3.org/2000/svg"
   xmlns:xlink="http://www.w3.org/1999/xlink"
   xmlns:sodipodi="http://sodipodi.sourceforge.net/DTD/sodipodi-0.dtd"
   xmlns:inkscape="http://www.inkscape.org/namespaces/inkscape"
   height="48"
   width="48"
   viewBox="0 0 13.546667 13.546667"
   id="svg2"
   version="1.1"
   inkscape:version="0.91 r13725"
   sodipodi:docname="colorhug-ccmx.svg">
  <metadata
     id="metadata32">
    <rdf:RDF>
      <cc:Work
         rdf:about="">
        <dc:format>image/svg+xml</dc:format>
        <dc:type
           rdf:resource="http://purl.org/dc/dcmitype/StillImage" />
      </cc:Work>
    </rdf:RDF>
  </metadata>
  <sodipodi:namedview
     pagecolor="#ffffff"
     bordercolor="#666666"
     borderopacity="1"
     objecttolerance="10"
     gridtolerance="10"
     guidetolerance="10"
     inkscape:pageopacity="0"
     inkscape:pageshadow="2"
     inkscape:window-width="3840"
     inkscape:window-height="2088"
     id="namedview30"
     showgrid="true"
     inkscape:zoom="19.156309"
     inkscape:cx="1.7127516"
     inkscape:cy="19.893145"
     inkscape:window-x="0"
     inkscape:window-y="48"
     inkscape:window-maximized="1"
     inkscape:current-layer="svg2">
    <inkscape:grid
       type="xygrid"
       id="grid3004" />
  </sodipodi:namedview>
  <defs
     id="defs4">
    <linearGradient
       id="linearGradient4917">
      <stop
         style="stop-color:#f2f2f2;stop-opacity:1"
         offset="0"
         id="stop4919" />
      <stop
         style="stop-color:#ffffff;stop-opacity:1;"
         offset="1"
         id="stop4921" />
    </linearGradient>
    <linearGradient
       gradientUnits="userSpaceOnUse"
       y2="-1004.6741"
       x2="24.925514"
       y1="-1051.8735"
       x1="24.925514"
       id="linearGradient4915"
       xlink:href="#linearGradient4917"
       inkscape:collect="always"
       gradientTransform="matrix(0.28222223,0,0,0.28222223,-1.7617798e-7,283.45334)" />
  </defs>
  <g
     id="g4307"
     transform="matrix(1.5809787,0,0,1.5794871,-3.9351628,-3.4923183)"
     style="fill:#4d4d4d">
    <path
       id="path18"
       transform="scale(0.28222223,0.28222223)"
       d="m 31.986328,19.732422 c -0.159987,1.758915 -0.890473,3.353406 -2.005859,4.597656 0.977449,0.492837 1.648437,1.502789 1.648437,2.669922 0,1.651858 -1.342037,2.990234 -2.998047,2.990234 -0.605892,0 -1.171025,-0.180033 -1.642578,-0.488281 -0.54181,1.642666 -1.600024,3.051724 -2.986328,4.03125 C 25.3097,34.456809 26.906584,35 28.630859,35 c 4.429383,0 8.019532,-3.581722 8.019532,-8 0,-3.222694 -1.911318,-6.000309 -4.664063,-7.267578 z m -3.355469,4.632812 c -1.45924,0 -2.634765,1.175525 -2.634765,2.634766 0,1.459241 1.175525,2.632812 2.634765,2.632812 1.459241,0 2.632813,-1.173571 2.632813,-2.632812 0,-1.459241 -1.173572,-2.634766 -2.632813,-2.634766 z"
       style="fill:#4d4d4d;fill-opacity:1"
       inkscape:connector-curvature="0" />
    <path
       id="path20"
       transform="scale(0.28222223,0.28222223)"
       d="m 24,11 c -4.429382,0 -8.019531,3.581722 -8.019531,8 0,0.247043 0.01123,0.49109 0.0332,0.732422 C 17.034612,19.262614 18.171005,19 19.369141,19 c 0.561052,0 1.110222,0.05865 1.638671,0.167969 -0.0031,-0.05544 -0.0059,-0.111762 -0.0059,-0.167969 0,-1.651858 1.342037,-2.992188 2.998047,-2.992188 1.65601,0 2.998047,1.34033 2.998047,2.992188 0,0.05621 -0.0028,0.112527 -0.0059,0.167969 C 27.520637,19.058654 28.067854,19 28.628906,19 c 1.198136,0 2.336482,0.262615 3.357422,0.732422 0.02197,-0.241331 0.0332,-0.485379 0.0332,-0.732422 0,-4.418278 -3.590149,-8 -8.019531,-8 z m 0,5.365234 c -1.459241,0 -2.634766,1.175525 -2.634766,2.634766 0,1.459241 1.175525,2.632812 2.634766,2.632812 1.459241,0 2.634766,-1.173571 2.634766,-2.632812 0,-1.459241 -1.175525,-2.634766 -2.634766,-2.634766 z"
       style="fill:#4d4d4d;fill-opacity:1;stroke:none"
       inkscape:connector-curvature="0" />
    <path
       id="path22"
       transform="scale(0.28222223,0.28222223)"
       d="M 16.013672,19.732422 C 13.260927,20.999691 11.349609,23.777306 11.349609,27 c 0,4.418278 3.590149,8 8.019532,8 1.724275,0 3.321159,-0.543191 4.628906,-1.466797 -1.386304,-0.979526 -2.444518,-2.388584 -2.986328,-4.03125 -0.471553,0.308248 -1.036686,0.488281 -1.642578,0.488281 -1.65601,0 -2.998047,-1.338376 -2.998047,-2.990234 0,-1.167133 0.670988,-2.177085 1.648437,-2.669922 -1.115386,-1.24425 -1.845872,-2.838741 -2.005859,-4.597656 z m 3.355469,4.632812 c -1.459241,0 -2.632813,1.175525 -2.632813,2.634766 0,1.459241 1.173572,2.632812 2.632813,2.632812 1.45924,0 2.634765,-1.173571 2.634765,-2.632812 0,-1.459241 -1.175525,-2.634766 -2.634765,-2.634766 z"
       style="fill:#4d4d4d;fill-opacity:1;stroke:none"
       inkscape:connector-curvature="0" />
  </g>
</svg>
