<?xml version="1.0" encoding="UTF-8" standalone="no"?>
<!-- Created with Inkscape (http://www.inkscape.org/) -->

<svg
   xmlns:dc="http://purl.org/dc/elements/1.1/"
   xmlns:cc="http://creativecommons.org/ns#"
   xmlns:rdf="http://www.w3.org/1999/02/22-rdf-syntax-ns#"
   xmlns:svg="http://www.w3.org/2000/svg"
   xmlns="http://www.w3.org/2000/svg"
   xmlns:sodipodi="http://sodipodi.sourceforge.net/DTD/sodipodi-0.dtd"
   xmlns:inkscape="http://www.inkscape.org/namespaces/inkscape"
   width="48"
   height="48"
   id="svg944"
   version="1.1"
   inkscape:version="0.91 r13725"
   sodipodi:docname="comix.svg">
  <defs
     id="defs946">
    <linearGradient
       id="linearGradient851">
      <stop
         style="stop-color:#4c9726;stop-opacity:1"
         offset="0"
         id="stop853" />
      <stop
         style="stop-color:#7fd454;stop-opacity:1"
         offset="1"
         id="stop855" />
    </linearGradient>
    <linearGradient
       id="linearGradient1528">
      <stop
         id="stop1530"
         offset="0"
         style="stop-color:#9ee48f;stop-opacity:1" />
      <stop
         id="stop1532"
         offset="1"
         style="stop-color:#4c9726;stop-opacity:1" />
    </linearGradient>
  </defs>
  <sodipodi:namedview
     id="base"
     pagecolor="#ffffff"
     bordercolor="#666666"
     borderopacity="1.0"
     inkscape:pageopacity="0.0"
     inkscape:pageshadow="2"
     inkscape:zoom="24.439378"
     inkscape:cx="1.7124343"
     inkscape:cy="27.52902"
     inkscape:document-units="px"
     inkscape:current-layer="layer1"
     showgrid="true"
     width="0px"
     height="0px"
     fit-margin-top="0"
     fit-margin-left="0"
     fit-margin-right="0"
     fit-margin-bottom="0"
     inkscape:window-width="3840"
     inkscape:window-height="2088"
     inkscape:window-x="0"
     inkscape:window-y="48"
     inkscape:window-maximized="1">
    <inkscape:grid
       type="xygrid"
       id="grid3006" />
  </sodipodi:namedview>
  <metadata
     id="metadata949">
    <rdf:RDF>
      <cc:Work
         rdf:about="">
        <dc:format>image/svg+xml</dc:format>
        <dc:type
           rdf:resource="http://purl.org/dc/dcmitype/StillImage" />
        <dc:title />
      </cc:Work>
    </rdf:RDF>
  </metadata>
  <g
     inkscape:label="Capa 1"
     inkscape:groupmode="layer"
     id="layer1"
     transform="translate(-1640.5564,-364.34714)">
    <rect
       style="fill:none;stroke:none"
       id="rect1526"
       width="40.000008"
       height="40.000008"
       x="1644.5564"
       y="368.34714"
       ry="0" />
    <path
       inkscape:connector-curvature="0"
       id="path2079"
       d="m 1649.7399,370.50236 c -1.1618,1.24053 -1.442,6.49364 1.2936,8.67536 l 3.4246,0 c -1.4511,-1.88611 -1.8974,-3.65757 -4.7182,-8.67536 z m 28.8417,0 c -2.8209,5.01779 -3.1913,6.78925 -4.642,8.67536 l 3.3487,0 c 2.735,-2.18172 2.455,-7.43483 1.2933,-8.67536 z m -14.3831,1.82641 c -0.476,0 -0.9854,0.0272 -1.4457,0.0762 -0.3655,0.0389 -0.7029,0.0944 -1.0652,0.15197 l 0,0.0762 c -1.1766,0.20364 -2.3509,0.46472 -3.4246,0.9132 -1.8757,0.78343 -3.2822,1.57122 -4.7181,2.96793 0.4318,0.84257 1.2834,2.33823 1.8262,3.04396 l -4.1853,0 c -0.9016,1.29151 -1.4891,2.34807 -1.9785,3.88107 -0.4899,1.533 -0.7611,3.17634 -0.7611,4.87037 0,7.87913 5.7282,14.39033 13.2414,15.67651 l 0,0.0762 c 0.351,0.0553 0.7084,0.0435 1.0652,0.0762 0.4707,0.0432 0.9629,0.0762 1.4457,0.0762 0.066,8.5e-4 0.087,0 0.1527,0 0.4843,0 0.9741,-0.033 1.4458,-0.0762 0.3558,-0.0326 0.7153,-0.0213 1.0654,-0.0762 l 0,-0.0762 c 7.5175,-1.28249 13.2412,-7.79421 13.2412,-15.67651 0,-1.69403 -0.2715,-3.33737 -0.7609,-4.87037 -0.4892,-1.533 -1.077,-2.58956 -1.9786,-3.88107 l -4.1854,0 c 0.5428,-0.70573 1.3945,-2.20139 1.8265,-3.04396 -1.4362,-1.39671 -2.8426,-2.1845 -4.7182,-2.96793 -1.0744,-0.44848 -2.2482,-0.70956 -3.4246,-0.9132 l 0,-0.0762 c -0.3704,-0.0592 -0.6914,-0.11294 -1.0654,-0.15197 -0.4519,-0.0474 -0.9781,-0.0762 -1.4458,-0.0762 -0.066,-8.6e-4 -0.085,0 -0.1527,0 z m -8.599,14.23064 c 1.2827,0 2.283,1.00027 2.283,2.28295 0,1.28273 -1.0003,2.35912 -2.283,2.35912 -1.2826,0 -2.3591,-1.07639 -2.3591,-2.35912 0,-1.28268 1.0765,-2.28295 2.3591,-2.28295 z m 17.3509,0 c 1.2826,0 2.3591,1.00027 2.3591,2.28295 0,1.28273 -1.0765,2.35912 -2.3591,2.35912 -1.2831,0 -2.2831,-1.07639 -2.2831,-2.35912 0,-1.28268 1,-2.28295 2.2831,-2.28295 z m -20.2426,7.99042 8.9798,0 5.1748,0 8.9797,0 0,0.45662 -1.9788,0 c -0.033,1.67298 -1.228,2.58604 -2.2828,3.57667 -1.0676,-1.13986 -1.6668,-2.37923 -1.2937,-3.57667 l -3.4244,0 -5.1748,0 -3.4246,0 c 0.3728,1.19744 -0.2264,2.43681 -1.2937,3.57667 -1.0548,-0.99063 -2.251,-1.90369 -2.2831,-3.57667 l -1.9784,0 0,-0.45662 z"
       style="opacity:0.88200001;fill:#4d4d4d;fill-opacity:1;stroke:none" />
  </g>
</svg>
