<?xml version="1.0" encoding="UTF-8" standalone="no"?>
<!-- Created using Karbon, part of Calligra: http://www.calligra.org/karbon -->

<svg
   xmlns:dc="http://purl.org/dc/elements/1.1/"
   xmlns:cc="http://creativecommons.org/ns#"
   xmlns:rdf="http://www.w3.org/1999/02/22-rdf-syntax-ns#"
   xmlns:svg="http://www.w3.org/2000/svg"
   xmlns="http://www.w3.org/2000/svg"
   xmlns:xlink="http://www.w3.org/1999/xlink"
   xmlns:sodipodi="http://sodipodi.sourceforge.net/DTD/sodipodi-0.dtd"
   xmlns:inkscape="http://www.inkscape.org/namespaces/inkscape"
   width="38.4pt"
   height="38.4pt"
   id="svg2"
   version="1.1"
   inkscape:version="0.48.5 r10040"
   sodipodi:docname="deja-dup.svg">
  <metadata
     id="metadata67">
    <rdf:RDF>
      <cc:Work
         rdf:about="">
        <dc:format>image/svg+xml</dc:format>
        <dc:type
           rdf:resource="http://purl.org/dc/dcmitype/StillImage" />
      </cc:Work>
    </rdf:RDF>
  </metadata>
  <sodipodi:namedview
     pagecolor="#ffffff"
     bordercolor="#666666"
     borderopacity="1"
     objecttolerance="10"
     gridtolerance="10"
     guidetolerance="10"
     inkscape:pageopacity="0"
     inkscape:pageshadow="2"
     inkscape:window-width="1920"
     inkscape:window-height="1035"
     id="namedview65"
     showgrid="false"
     inkscape:zoom="4.9166667"
     inkscape:cx="24"
     inkscape:cy="24"
     inkscape:window-x="-4"
     inkscape:window-y="29"
     inkscape:window-maximized="1"
     inkscape:current-layer="svg2" />
  <defs
     id="defs4">
    <linearGradient
       id="gradient0"
       gradientUnits="userSpaceOnUse"
       x1="3"
       y1="46.593752"
       x2="3"
       y2="43.062502"
       spreadMethod="pad">
      <stop
         stop-color="#ffffff"
         offset="0.00000000000"
         stop-opacity="1.00000000000"
         id="stop7" />
      <stop
         stop-color="#ffffff"
         offset="1.00000000000"
         stop-opacity="0.00000000000"
         id="stop9" />
    </linearGradient>
    <linearGradient
       id="gradient1"
       gradientUnits="userSpaceOnUse"
       x1="3"
       y1="46.593752"
       x2="3"
       y2="43.062502"
       spreadMethod="pad">
      <stop
         stop-color="#ffffff"
         offset="0.00000000000"
         stop-opacity="1.00000000000"
         id="stop12" />
      <stop
         stop-color="#ffffff"
         offset="1.00000000000"
         stop-opacity="0.00000000000"
         id="stop14" />
    </linearGradient>
    <linearGradient
       id="gradient2"
       gradientUnits="userSpaceOnUse"
       x1="3"
       y1="46.593752"
       x2="3"
       y2="43.062502"
       spreadMethod="pad">
      <stop
         stop-color="#ffffff"
         offset="0.00000000000"
         stop-opacity="1.00000000000"
         id="stop17" />
      <stop
         stop-color="#ffffff"
         offset="1.00000000000"
         stop-opacity="0.00000000000"
         id="stop19" />
    </linearGradient>
    <linearGradient
       id="gradient3"
       gradientUnits="userSpaceOnUse"
       x1="3"
       y1="46.593752"
       x2="3"
       y2="43.062502"
       spreadMethod="pad">
      <stop
         stop-color="#ffffff"
         offset="0.00000000000"
         stop-opacity="1.00000000000"
         id="stop22" />
      <stop
         stop-color="#ffffff"
         offset="1.00000000000"
         stop-opacity="0.00000000000"
         id="stop24" />
    </linearGradient>
    <linearGradient
       id="gradient4"
       gradientTransform="scale(1.3651457,0.73252254)"
       gradientUnits="userSpaceOnUse"
       x1="-25.421078"
       y1="1378.3175"
       x2="-25.421078"
       y2="1375.6628"
       spreadMethod="pad">
      <stop
         stop-color="#ffd70c"
         offset="0.00000000000"
         stop-opacity="1.00000000000"
         id="stop27" />
      <stop
         stop-color="#fff054"
         offset="1.00000000000"
         stop-opacity="1.00000000000"
         id="stop29" />
    </linearGradient>
    <linearGradient
       id="gradient5"
       gradientTransform="scale(1.3651737,0.73250753)"
       gradientUnits="userSpaceOnUse"
       x1="-25.420557"
       y1="1378.3457"
       x2="-25.420557"
       y2="1375.691"
       spreadMethod="pad">
      <stop
         stop-color="#ffd70c"
         offset="0.00000000000"
         stop-opacity="1.00000000000"
         id="stop32" />
      <stop
         stop-color="#fff054"
         offset="1.00000000000"
         stop-opacity="1.00000000000"
         id="stop34" />
    </linearGradient>
    <linearGradient
       id="gradient6"
       gradientTransform="scale(1.3651723,0.73250824)"
       gradientUnits="userSpaceOnUse"
       x1="-25.420583"
       y1="1378.3444"
       x2="-25.420583"
       y2="1375.6897"
       spreadMethod="pad">
      <stop
         stop-color="#ffd70c"
         offset="0.00000000000"
         stop-opacity="1.00000000000"
         id="stop37" />
      <stop
         stop-color="#fff054"
         offset="1.00000000000"
         stop-opacity="1.00000000000"
         id="stop39" />
    </linearGradient>
    <linearGradient
       x1="56"
       y1="76"
       x2="56"
       y2="32"
       id="linearGradient3218"
       xlink:href="#linearGradient3767"
       gradientUnits="userSpaceOnUse"
       gradientTransform="matrix(1,0,0,0.90909091,0,-9.0909091)" />
    <linearGradient
       id="linearGradient3767">
      <stop
         id="stop3769"
         style="stop-color:#4d4d4d;stop-opacity:0.70731705"
         offset="0" />
      <stop
         id="stop3771"
         style="stop-color:#4d4d4d;stop-opacity:0.25203252"
         offset="1" />
    </linearGradient>
    <clipPath
       id="clipPath3997">
      <path
         d="m 16,11 c -2.216,0 -4,1.784 -4,4 l 0,52 c 0,2.216 1.784,4 4,4 l 64,0 c 2.216,0 4,-1.784 4,-4 l 0,-52 c 0,-2.216 -1.784,-4 -4,-4 l -64,0 z m 32,9 c 12.15026,0 22,8.954309 22,20 0,11.045691 -9.84974,20 -22,20 -4.00428,0 -7.76567,-0.956813 -11,-2.65625 l 3,-4.75 c 2.35563,1.240828 5.08161,1.9375 8,1.9375 8.83656,0 16,-6.498014 16,-14.53125 0,-8.033236 -7.16344,-14.53125 -16,-14.53125 -8.83656,0 -16,6.498014 -16,14.53125 l 4,0 -3.5,5.46875 -3.5,5.4375 -3.5,-5.4375 L 22,40 26,40 C 26,28.954309 35.84974,20 48,20 z m 0,7.28125 c 1.108,0 2,0.805227 2,1.8125 l 0,10.15625 6.5,5.90625 c 0.783474,0.712246 0.886572,1.7338 0.25,2.3125 l -0.53125,0.5 c -0.636572,0.5787 -1.779026,0.462245 -2.5625,-0.25 l -7.0625,-6.4375 C 46.493589,41.190196 46.3896,41.108755 46.3125,41 45.91094,40.490237 45.801394,39.892005 46,39.40625 l 0,-10.3125 c 0,-1.007273 0.892,-1.8125 2,-1.8125 z"
         inkscape:connector-curvature="0"
         id="path3999"
         style="fill:#ff2a2a;fill-opacity:1;fill-rule:nonzero;stroke:none;display:inline" />
    </clipPath>
    <filter
       x="-0.22084761"
       y="-0.26278973"
       width="1.4416952"
       height="1.5255795"
       color-interpolation-filters="sRGB"
       id="filter4001">
      <feGaussianBlur
         id="feGaussianBlur4003"
         stdDeviation="4.6125071" />
    </filter>
    <linearGradient
       inkscape:collect="always"
       xlink:href="#linearGradient3767"
       id="linearGradient3076"
       gradientUnits="userSpaceOnUse"
       gradientTransform="matrix(0.42776164,0,0,0.38887422,-103.25025,-37.005581)"
       x1="56"
       y1="76"
       x2="56"
       y2="32" />
    <linearGradient
       inkscape:collect="always"
       xlink:href="#gradient6"
       id="linearGradient3090"
       gradientUnits="userSpaceOnUse"
       gradientTransform="matrix(1.3651723,0,0,0.73250824,28.4893,1.56246)"
       spreadMethod="pad"
       x1="-25.420583"
       y1="1378.3444"
       x2="-25.420583"
       y2="1375.6897" />
    <linearGradient
       inkscape:collect="always"
       xlink:href="#gradient5"
       id="linearGradient3093"
       gradientUnits="userSpaceOnUse"
       gradientTransform="matrix(1.3651737,0,0,0.73250753,21.4893,1.56246)"
       spreadMethod="pad"
       x1="-25.420557"
       y1="1378.3457"
       x2="-25.420557"
       y2="1375.691" />
    <linearGradient
       inkscape:collect="always"
       xlink:href="#gradient4"
       id="linearGradient3096"
       gradientUnits="userSpaceOnUse"
       gradientTransform="matrix(1.3651457,0,0,0.73252254,14.4893,1.56246)"
       spreadMethod="pad"
       x1="-25.421078"
       y1="1378.3175"
       x2="-25.421078"
       y2="1375.6628" />
    <linearGradient
       inkscape:collect="always"
       xlink:href="#gradient3"
       id="linearGradient3105"
       gradientUnits="userSpaceOnUse"
       spreadMethod="pad"
       x1="3"
       y1="46.593752"
       x2="3"
       y2="43.062502"
       gradientTransform="matrix(1.04425,0,0,1.04425,42.3125,2.31243)" />
    <linearGradient
       inkscape:collect="always"
       xlink:href="#gradient2"
       id="linearGradient3109"
       gradientUnits="userSpaceOnUse"
       spreadMethod="pad"
       x1="3"
       y1="46.593752"
       x2="3"
       y2="43.062502"
       gradientTransform="matrix(1.04425,0,0,1.04425,2,2.31243)" />
    <linearGradient
       inkscape:collect="always"
       xlink:href="#gradient1"
       id="linearGradient3113"
       gradientUnits="userSpaceOnUse"
       spreadMethod="pad"
       x1="3"
       y1="46.593752"
       x2="3"
       y2="43.062502"
       gradientTransform="matrix(1.04425,0,0,1.04425,42.3125,42.3126)" />
    <linearGradient
       inkscape:collect="always"
       xlink:href="#gradient0"
       id="linearGradient3117"
       gradientUnits="userSpaceOnUse"
       spreadMethod="pad"
       x1="3"
       y1="46.593752"
       x2="3"
       y2="43.062502"
       gradientTransform="matrix(1.04425,0,0,1.04425,2,42.3126)" />
  </defs>
  <rect
     style="fill:#bebebe"
     y="-48"
     x="0"
     ry="1.9445424"
     rx="1.9445424"
     height="47.999969"
     width="47.999969"
     transform="scale(1,-1)"
     id="rect2991-1-7" />
  <path
     style="fill:#ffffff"
     inkscape:connector-curvature="0"
     d="m 10.75002,9.00001 c -1.07728,0 -1.93752,0.86008 -1.93752,1.9374 l 0,37.0626 30.375,0 0,-37.0626 c 0,-1.07732 -0.8602,-1.9374 -1.9375,-1.9374 z"
     id="rect2991" />
  <path
     style="fill:#000000"
     inkscape:connector-curvature="0"
     d="m 11.5313,2e-5 0,3.62488 c 0,1.24652 1.00348,2.25 2.25,2.25 l 20.4375,0 c 1.2465,0 2.25,-1.00348 2.25,-2.25 l 0,-3.62488 z"
     id="path2334" />
  <path
     style="fill:#ffffff"
     inkscape:connector-curvature="0"
     d="m 10.75002,8.99609 c -0.99836,0 -1.79176,0.75212 -1.90628,1.71872 0.1808,-0.88772 0.96364,-1.5624 1.90628,-1.5624 l 26.50002,0 c 0.9426,0 1.7255,0.67468 1.9062,1.5624 -0.1144,-0.9666 -0.9079,-1.71872 -1.9062,-1.71872 z"
     id="rect1524" />
  <path
     style="fill:#000000"
     inkscape:connector-curvature="0"
     d="m 3e-5,45 0,1.0626 C 3e-5,47.13988 0.86023,48 1.93751,48 l 44.12492,0 c 1.0773,0 1.9376,-0.86012 1.9376,-1.9374 l 0,-1.0626 c 0,1.07728 -0.8603,1.9374 -1.9376,1.9374 l -44.12492,0 C 0.86023,46.9374 3e-5,46.07728 3e-5,45 z"
     id="rect846-1" />
  <path
     inkscape:connector-curvature="0"
     style="fill:url(#linearGradient3117)"
     d="m 5.6875078,44.156349 c 0,1.018279 -0.8254796,1.843759 -1.8437487,1.843759 C 2.8254765,46.000108 2,45.174628 2,44.156349 2,43.138076 2.8254765,42.3126 3.8437591,42.3126 c 1.0182691,0 1.8437487,0.825476 1.8437487,1.843749 z"
     id="path1538" />
  <path
     style="fill:#000000;fill-opacity:0.68104063"
     inkscape:connector-curvature="0"
     d="m 5.3906593,44.15643 c 0,-0.854318 -0.6925618,-1.546879 -1.5468703,-1.546879 -0.8543198,0 -1.546879,0.692561 -1.546879,1.546879 0,0.854311 0.6925592,1.54687 1.546879,1.54687 0.8543085,0 1.5468703,-0.692559 1.5468703,-1.54687 z"
     id="path1548" />
  <path
     inkscape:connector-curvature="0"
     style="fill:url(#linearGradient3113)"
     d="m 46.000008,44.156349 c 0,1.018279 -0.82548,1.843759 -1.843749,1.843759 -1.018283,0 -1.843759,-0.82548 -1.843759,-1.843759 0,-1.018273 0.825476,-1.843749 1.843759,-1.843749 1.018269,0 1.843749,0.825476 1.843749,1.843749 z"
     id="path1584" />
  <path
     style="fill:#000000;fill-opacity:0.68104063"
     inkscape:connector-curvature="0"
     d="m 45.703149,44.15643 c 0,-0.854318 -0.692561,-1.546879 -1.54687,-1.546879 -0.85432,0 -1.546879,0.692561 -1.546879,1.546879 0,0.854311 0.692559,1.54687 1.546879,1.54687 0.854309,0 1.54687,-0.692559 1.54687,-1.54687 z"
     id="path1586" />
  <path
     inkscape:connector-curvature="0"
     style="fill:url(#linearGradient3109)"
     d="m 5.6875078,4.1561787 c 0,1.0182795 -0.8254796,1.8437591 -1.8437487,1.8437591 C 2.8254765,5.9999378 2,5.1744582 2,4.1561787 2,3.1379065 2.8254765,2.31243 3.8437591,2.31243 c 1.0182691,0 1.8437487,0.8254765 1.8437487,1.8437487 z"
     id="path1601" />
  <path
     style="fill:#000000;fill-opacity:0.68104063"
     inkscape:connector-curvature="0"
     d="m 5.3906593,4.1562097 c 0,-0.8543172 -0.6925618,-1.546879 -1.5468703,-1.546879 -0.8543198,0 -1.546879,0.6925618 -1.546879,1.546879 0,0.8543111 0.6925592,1.5468703 1.546879,1.5468703 0.8543085,0 1.5468703,-0.6925592 1.5468703,-1.5468703 z"
     id="path1603" />
  <path
     inkscape:connector-curvature="0"
     style="fill:url(#linearGradient3105)"
     d="m 46.000008,4.1561787 c 0,1.0182795 -0.82548,1.8437591 -1.843749,1.8437591 -1.018283,0 -1.843759,-0.8254796 -1.843759,-1.8437591 0,-1.0182722 0.825476,-1.8437487 1.843759,-1.8437487 1.018269,0 1.843749,0.8254765 1.843749,1.8437487 z"
     id="path1613" />
  <path
     style="fill:#000000;fill-opacity:0.68104063"
     inkscape:connector-curvature="0"
     d="m 45.703149,4.1562097 c 0,-0.8543172 -0.692561,-1.546879 -1.54687,-1.546879 -0.85432,0 -1.546879,0.6925618 -1.546879,1.546879 0,0.8543111 0.692559,1.5468703 1.546879,1.5468703 0.854309,0 1.54687,-0.6925592 1.54687,-1.5468703 z"
     id="path1615" />
  <path
     style="fill:#ffffff"
     inkscape:connector-curvature="0"
     d="m 11.5625,4.0899 c 0.1084,1.1442 1.04532,2.03132 2.21876,2.03132 l 20.43754,0 c 1.1734,0 2.1104,-0.88712 2.2187,-2.03132 -0.2092,1.0272 -1.1281,1.78112 -2.2187,1.78112 l -20.43754,0 c -1.09068,0 -2.00964,-0.75392 -2.21876,-1.78112 z"
     id="path2329" />
  <path
     inkscape:connector-curvature="0"
     style="fill:url(#linearGradient3096)"
     d="m 14.6141,1.56246 c -0.0916,0 -0.1248,0.1584 -0.1248,0.25 l 0,2.375 c 0,0.0916 0.032,0.1248 0.1248,0.1248 l 3.5,0 0.3748,0 0.875,0 c 0.0916,0 0.24999,-0.032 0.24999,-0.1248 l 0,-2.375 c 0,-0.0916 -0.15839,-0.25 -0.24999,-0.25 l -0.875,0 -0.3748,0 z"
     id="rect2460" />
  <path
     inkscape:connector-curvature="0"
     style="fill:url(#linearGradient3093)"
     d="m 21.6141,1.56246 c -0.0916,0 -0.1248,0.1584 -0.1248,0.25 l 0,2.375 c 0,0.0916 0.032,0.1248 0.1248,0.1248 l 3.5,0 0.75,0 0.5,0 c 0.0916,0 0.25,-0.032 0.25,-0.1248 l 0,-2.375 c 0,-0.0916 -0.1584,-0.25 -0.25,-0.25 l -0.5,0 -0.75,0 z"
     id="rect2478" />
  <path
     inkscape:connector-curvature="0"
     style="fill:url(#linearGradient3090)"
     d="m 28.6141,1.56246 c -0.0916,0 -0.1248,0.1584 -0.1248,0.25 l 0,2.375 c 0,0.0916 0.032,0.1248 0.1248,0.1248 l 3.49999,0 0.5,0 0.75,0 c 0.0916,0 0.25,-0.032 0.25,-0.1248 l 0,-2.375 c 0,-0.0916 -0.1584,-0.25 -0.25,-0.25 l -0.75,0 -0.5,0 z"
     id="rect2490" />
  <path
     style="color:#000000;fill:#3c3c3c;fill-opacity:1;stroke:none;stroke-width:1.50000000000000000;marker:none;visibility:visible;display:inline;overflow:visible;enable-background:accumulate"
     id="path4090"
     inkscape:connector-curvature="0"
     d="m 24.06197,17.743478 c -5.197415,0 -9.410756,3.83031 -9.410756,8.555233 l -1.711047,0 1.497166,2.333245 1.497166,2.333245 1.497165,-2.333245 1.497166,-2.333245 -1.711047,0 c 0,-3.436311 3.064245,-6.221988 6.844187,-6.221988 3.779941,0 6.844186,2.785677 6.844186,6.221988 0,3.43631 -3.064245,6.221988 -6.844186,6.221988 -1.248376,0 -2.414445,-0.307732 -3.422093,-0.838511 l -1.283285,2.029438 c 1.383522,0.726953 2.9925,1.142318 4.705378,1.142318 5.197415,0 9.410756,-3.830311 9.410756,-8.555233 0,-4.724923 -4.213341,-8.555233 -9.410756,-8.555233 z m 0,3.110993 c -0.47396,0 -0.855524,0.346876 -0.855524,0.777749 l 0,4.411292 c -0.08496,0.207787 -0.0381,0.462473 0.133676,0.68053 0.03298,0.04652 0.07746,0.08257 0.120308,0.121523 l 3.021066,2.758577 c 0.335141,0.304671 0.823839,0.344763 1.09614,0.09722 l 0.227248,-0.206589 c 0.272301,-0.247546 0.2282,-0.691819 -0.10694,-0.996491 l -2.780451,-2.51553 0,-4.35053 c 0,-0.430873 -0.381563,-0.777749 -0.855523,-0.777749 z" />
</svg>
