<?xml version="1.0" encoding="UTF-8" standalone="no"?>
<!-- Created with Inkscape (http://www.inkscape.org/) -->

<svg
   xmlns:dc="http://purl.org/dc/elements/1.1/"
   xmlns:cc="http://creativecommons.org/ns#"
   xmlns:rdf="http://www.w3.org/1999/02/22-rdf-syntax-ns#"
   xmlns:svg="http://www.w3.org/2000/svg"
   xmlns="http://www.w3.org/2000/svg"
   xmlns:sodipodi="http://sodipodi.sourceforge.net/DTD/sodipodi-0.dtd"
   xmlns:inkscape="http://www.inkscape.org/namespaces/inkscape"
   width="48"
   height="48"
   id="svg2"
   version="1.1"
   inkscape:version="0.48.5 r10040"
   viewBox="0 0 13.546667 13.546667"
   sodipodi:docname="desura.svg">
  <defs
     id="defs4" />
  <sodipodi:namedview
     id="base"
     pagecolor="#ffffff"
     bordercolor="#666666"
     borderopacity="1.0"
     inkscape:pageopacity="0.0"
     inkscape:pageshadow="2"
     inkscape:zoom="8"
     inkscape:cx="29.685989"
     inkscape:cy="31.557412"
     inkscape:document-units="px"
     inkscape:current-layer="layer1"
     showgrid="false"
     inkscape:showpageshadow="false"
     borderlayer="true"
     units="px"
     inkscape:window-width="1920"
     inkscape:window-height="1035"
     inkscape:window-x="-4"
     inkscape:window-y="29"
     inkscape:window-maximized="1">
    <sodipodi:guide
       position="8.9999996,39.000048"
       orientation="30.000028,0"
       id="guide3285" />
    <sodipodi:guide
       position="8.9999996,9.0000194"
       orientation="0,30.000001"
       id="guide3287" />
    <sodipodi:guide
       position="39.000001,9.0000194"
       orientation="-30.000028,0"
       id="guide3289" />
    <sodipodi:guide
       position="39.000001,39.000048"
       orientation="0,-30.000001"
       id="guide3291" />
  </sodipodi:namedview>
  <metadata
     id="metadata7">
    <rdf:RDF>
      <cc:Work
         rdf:about="">
        <dc:format>image/svg+xml</dc:format>
        <dc:type
           rdf:resource="http://purl.org/dc/dcmitype/StillImage" />
        <dc:title />
      </cc:Work>
    </rdf:RDF>
  </metadata>
  <g
     inkscape:label="Capa 1"
     inkscape:groupmode="layer"
     id="layer1"
     transform="translate(0,-283.45333)">
    <rect
       y="284.58218"
       x="1.1288891"
       height="11.28889"
       width="11.288889"
       id="rect3316"
       style="fill:#4682b4;stroke:none;fill-opacity:1"
       ry="5.6444449" />
    <path
       style="fill:#f5f5f5;fill-opacity:1;display:inline"
       id="path3033-5"
       inkscape:connector-curvature="0"
       d="m 6.7780723,286.99891 c -0.0076,-0.003 -0.3600679,0.29279 -0.7842948,0.66146 -0.6144459,0.53398 -0.7829029,0.67101 -0.8220918,0.67091 -0.02706,-5e-5 -0.462771,-0.041 -0.9732818,-0.0945 -0.5105099,-0.0535 -0.9313929,-0.0939 -0.9354839,-0.0898 -0.008,0.008 -0.7131498,2.33977 -0.7228738,2.39071 -0.0042,0.0218 0.2780869,0.27219 0.9685568,0.85988 l 0.9732808,0.82683 0.3496259,0 c 0.19159,-4.5e-4 0.3834049,-0.008 0.4299449,-0.0142 l 0.08504,-0.009 -1.0252518,-0.85045 c -0.5642619,-0.4667 -1.0246938,-0.85969 -1.0252528,-0.87406 -6.02e-4,-0.0144 0.09534,-0.31666 0.21261,-0.67564 0.117271,-0.35898 0.234014,-0.73102 0.2645809,-0.82682 0.05516,-0.17286 0.05661,-0.17547 0.113392,-0.17482 0.03147,3.6e-4 0.4052179,0.0422 0.8268168,0.0945 l 0.7653959,0.0945 0.6000329,-0.515 c 0.3300249,-0.28511 0.6214878,-0.53854 0.6472788,-0.56224 l 0.04725,-0.0425 0.4724669,0.40632 c 0.259137,0.22423 0.5490269,0.47769 0.6472789,0.56225 l 0.179537,0.15119 0.8173678,-0.0992 c 0.4501379,-0.0556 0.8191988,-0.0999 0.8220918,-0.0945 0.0092,0.0172 0.5480603,1.67547 0.5480603,1.68673 0,0.006 -0.4637193,0.39492 -1.0299752,0.86461 l -1.0299778,0.85518 0.08977,0.009 c 0.04798,0.007 0.240976,0.0133 0.4299449,0.0142 l 0.3449009,0.005 0.9685562,-0.82683 c 0.533178,-0.45318 0.970568,-0.82989 0.97328,-0.84099 0.0041,-0.0166 -0.705356,-2.40626 -0.718149,-2.41905 -0.0022,-0.002 -0.4249093,0.0405 -0.9402082,0.0945 -0.5152959,0.054 -0.9563298,0.0972 -0.9827288,0.0945 -0.03381,-0.004 -0.276481,-0.20062 -0.8126438,-0.66618 -0.418656,-0.36354 -0.7672719,-0.66351 -0.7748449,-0.66619 z m -0.0095,1.44103 -0.4346699,0.43941 -0.4299449,0.44412 0,0.38269 c -0.0014,0.60117 0.06787,1.11145 0.207886,1.54498 0.1287279,0.39858 0.2788549,0.66607 0.5055389,0.89297 0.07607,0.0762 0.1424609,0.13702 0.1511899,0.13702 0.03511,0 0.217096,-0.17934 0.311828,-0.30711 0.1409039,-0.19003 0.2591849,-0.42346 0.3496249,-0.69926 0.146772,-0.44757 0.2042099,-0.83787 0.2173349,-1.48355 l 0.0095,-0.46774 -0.4441189,-0.44412 -0.4441189,-0.43941 z m 2.6647125,0.8977 c -0.0044,-0.004 -0.256984,0.0218 -0.5622369,0.0567 -0.30525,0.0349 -0.5661129,0.0661 -0.5764089,0.0661 -0.01208,0 -0.0189,0.0822 -0.0189,0.23151 0,0.7868 -0.2831239,1.73531 -0.7039748,2.36235 -0.0975,0.14526 -0.106966,0.1727 -0.06614,0.14647 0.2725709,-0.17515 2.2144525,-1.81784 2.2064195,-1.86626 -0.0088,-0.0531 -0.2704419,-0.9886 -0.2787549,-0.99691 z m -5.3199749,0.009 c -0.0073,0.008 -0.07165,0.23988 -0.146465,0.51499 l -0.137016,0.4961 0.04725,0.0472 c 0.4560399,0.39934 1.7075397,1.44743 2.0032586,1.67727 0.102602,0.0797 0.190801,0.13992 0.193712,0.13702 0.0029,-0.003 -0.04447,-0.082 -0.108668,-0.17954 -0.4122129,-0.62636 -0.6594329,-1.4483 -0.6992499,-2.32456 -0.0065,-0.1421 -0.01783,-0.25513 -0.02362,-0.25513 -0.0058,0 -0.2585489,-0.0313 -0.5622348,-0.0661 -0.303687,-0.0348 -0.5596389,-0.0551 -0.5669599,-0.0472 z m 1.6394586,3.22224 -1.0299768,0.005 1.0252518,0.52445 c 0.5619269,0.2868 1.0246968,0.51686 1.0299778,0.51499 0.0053,-0.002 0.4688169,-0.23479 1.0299768,-0.51972 l 1.0205278,-0.51972 -1.0252518,-0.005 c -0.5639849,-0.003 -1.4861217,-0.003 -2.0505056,0 z" />
  </g>
</svg>
