<?xml version="1.0" encoding="UTF-8" standalone="no"?>
<!-- Created using Karbon, part of Calligra: http://www.calligra.org/karbon -->

<svg
   xmlns:dc="http://purl.org/dc/elements/1.1/"
   xmlns:cc="http://creativecommons.org/ns#"
   xmlns:rdf="http://www.w3.org/1999/02/22-rdf-syntax-ns#"
   xmlns:svg="http://www.w3.org/2000/svg"
   xmlns="http://www.w3.org/2000/svg"
   xmlns:sodipodi="http://sodipodi.sourceforge.net/DTD/sodipodi-0.dtd"
   xmlns:inkscape="http://www.inkscape.org/namespaces/inkscape"
   width="38.4pt"
   height="38.4pt"
   id="svg2"
   version="1.1"
   inkscape:version="0.48.5 r10040"
   sodipodi:docname="devede.svg">
  <metadata
     id="metadata25">
    <rdf:RDF>
      <cc:Work
         rdf:about="">
        <dc:format>image/svg+xml</dc:format>
        <dc:type
           rdf:resource="http://purl.org/dc/dcmitype/StillImage" />
        <dc:title></dc:title>
      </cc:Work>
    </rdf:RDF>
  </metadata>
  <sodipodi:namedview
     pagecolor="#ffffff"
     bordercolor="#666666"
     borderopacity="1"
     objecttolerance="10"
     gridtolerance="10"
     guidetolerance="10"
     inkscape:pageopacity="0"
     inkscape:pageshadow="2"
     inkscape:window-width="640"
     inkscape:window-height="480"
     id="namedview23"
     showgrid="false"
     inkscape:zoom="4.9166667"
     inkscape:cx="24"
     inkscape:cy="24"
     inkscape:window-x="0"
     inkscape:window-y="32"
     inkscape:window-maximized="0"
     inkscape:current-layer="svg2" />
  <defs
     id="defs4" />
  <g
     id="layer0">
    <path
       id="shape011"
       transform="translate(4, 4)"
       fill="#001826"
       fill-rule="evenodd"
       stroke="#003bc3"
       stroke-width="0.00000000000"
       stroke-linecap="square"
       stroke-linejoin="miter"
       stroke-miterlimit="2.00000000000"
       d="M20 0C8.95035 0 0 8.95035 0 20C0 31.0497 8.95035 40 20 40C31.0497 40 40 31.0497 40 20C40 8.95035 31.0497 0 20 0ZM20 16.7188C21.8183 16.7188 23.2812 18.1817 23.2812 20C23.2812 21.8183 21.8183 23.2812 20 23.2812C18.1817 23.2812 16.7188 21.8183 16.7188 20C16.7188 18.1817 18.1817 16.7188 20 16.7188Z" />
    <path
       id="shape11"
       transform="translate(16.375, 16.375)"
       fill="#e74c3c"
       fill-rule="evenodd"
       stroke="#003bc3"
       stroke-width="0.00000000000"
       stroke-linecap="square"
       stroke-linejoin="miter"
       stroke-miterlimit="2.00000000000"
       d="M7.625 0C3.4196 0 0 3.4196 0 7.625C0 11.8303 3.4196 15.25 7.625 15.25C11.8303 15.25 15.25 11.8303 15.25 7.625C15.25 3.4196 11.8303 0 7.625 0ZM7.625 4.34375C9.44333 4.34375 10.9062 5.80667 10.9062 7.625C10.9062 9.44333 9.44333 10.9062 7.625 10.9062C5.80667 10.9062 4.34375 9.44333 4.34375 7.625C4.34375 5.80667 5.80667 4.34375 7.625 4.34375Z" />
    <path
       id="shape0"
       transform="translate(29.0068, 29.2245)"
       fill="#34495e"
       fill-rule="evenodd"
       stroke="#003bc3"
       stroke-width="0.00000000000"
       stroke-linecap="square"
       stroke-linejoin="bevel"
       stroke-dasharray="0,0"
       d="M0 2.18482C1.34004 1.2549 1.72047 0.660859 2.25005 0L10.1497 5.63583C8.95572 7.48594 7.54508 9.09863 5.60066 10.2041Z" />
    <path
       id="shape1"
       transform="matrix(-1 0 0 -1 18.9749 18.8407)"
       fill="#34495e"
       fill-rule="evenodd"
       stroke="#003bc3"
       stroke-width="0.00000000000"
       stroke-linecap="square"
       stroke-linejoin="bevel"
       stroke-dasharray="0,0"
       d="M0 2.2294C1.36009 1.28051 1.74622 0.674346 2.28372 0L10.3016 5.75084C9.08976 7.63871 7.65799 9.28431 5.68447 10.4123Z" />
    <rect
       id="rect11"
       transform="matrix(0.98986 -0.14205 0.14205 0.98986 24.4548 27.9808)"
       fill="#4c4c4c"
       fill-rule="evenodd"
       stroke="#003bc3"
       stroke-width="0.00000000000"
       stroke-linecap="square"
       stroke-linejoin="miter"
       stroke-miterlimit="2.00000000000"
       width="17.18230123645pt"
       height="2.67871070492pt" />
    <rect
       id="shape01"
       transform="translate(24.9258, 31.316)"
       fill="#4c4c4c"
       fill-rule="evenodd"
       stroke="#003bc3"
       stroke-width="0.00000000000"
       stroke-linecap="square"
       stroke-linejoin="miter"
       stroke-miterlimit="2.00000000000"
       width="17.18230123645pt"
       height="11.91525871427pt" />
    <rect
       id="shape0111"
       transform="matrix(1 0 -0.401961 1 43.6945 31.316)"
       fill="#ebebeb"
       fill-rule="evenodd"
       stroke="#003bc3"
       stroke-width="0.00000000000"
       stroke-linecap="square"
       stroke-linejoin="miter"
       stroke-miterlimit="2.00000000000"
       width="2.15700397920pt"
       height="2.68963074066pt" />
    <rect
       id="rect15"
       transform="matrix(1 0 -0.401961 1 38.3112 31.3141)"
       fill="#ebebeb"
       fill-rule="evenodd"
       stroke="#003bc3"
       stroke-width="0.00000000000"
       stroke-linecap="square"
       stroke-linejoin="miter"
       stroke-miterlimit="2.00000000000"
       width="2.15700397920pt"
       height="2.68963074066pt" />
    <rect
       id="shape2"
       transform="matrix(1 0 -0.401961 1 32.9686 31.316)"
       fill="#ebebeb"
       fill-rule="evenodd"
       stroke="#003bc3"
       stroke-width="0.00000000000"
       stroke-linecap="square"
       stroke-linejoin="miter"
       stroke-miterlimit="2.00000000000"
       width="2.15700397920pt"
       height="2.68963074066pt" />
    <rect
       id="shape3"
       transform="matrix(1 0 -0.401961 1 27.5828 31.316)"
       fill="#ebebeb"
       fill-rule="evenodd"
       stroke="#003bc3"
       stroke-width="0.00000000000"
       stroke-linecap="square"
       stroke-linejoin="miter"
       stroke-miterlimit="2.00000000000"
       width="2.15700397920pt"
       height="2.68963074066pt" />
    <rect
       id="shape4"
       transform="matrix(-0.98986 0.14205 0.539935 0.932761 28.405 27.401)"
       fill="#ebebeb"
       fill-rule="evenodd"
       stroke="#003bc3"
       stroke-width="0.00000000000"
       stroke-linecap="square"
       stroke-linejoin="miter"
       stroke-miterlimit="2.00000000000"
       width="2.15700397920pt"
       height="2.68963074066pt" />
    <rect
       id="shape5"
       transform="matrix(-0.98986 0.14205 0.539935 0.932761 33.7421 26.6392)"
       fill="#ebebeb"
       fill-rule="evenodd"
       stroke="#003bc3"
       stroke-width="0.00000000000"
       stroke-linecap="square"
       stroke-linejoin="miter"
       stroke-miterlimit="2.00000000000"
       width="2.15700397920pt"
       height="2.68963074066pt" />
    <rect
       id="shape6"
       transform="matrix(-0.98986 0.14205 0.539935 0.932761 39.0382 25.8765)"
       fill="#ebebeb"
       fill-rule="evenodd"
       stroke="#003bc3"
       stroke-width="0.00000000000"
       stroke-linecap="square"
       stroke-linejoin="miter"
       stroke-miterlimit="2.00000000000"
       width="2.15700397920pt"
       height="2.68963074066pt" />
    <rect
       id="shape7"
       transform="matrix(-0.98986 0.14205 0.539935 0.932761 44.3756 25.1098)"
       fill="#ebebeb"
       fill-rule="evenodd"
       stroke="#003bc3"
       stroke-width="0.00000000000"
       stroke-linecap="square"
       stroke-linejoin="miter"
       stroke-miterlimit="2.00000000000"
       width="2.15700397920pt"
       height="2.68963074066pt" />
  </g>
</svg>
