<?xml version="1.0" encoding="UTF-8" standalone="no"?>
<!-- Created using Karbon, part of Calligra: http://www.calligra.org/karbon -->

<svg
   xmlns:dc="http://purl.org/dc/elements/1.1/"
   xmlns:cc="http://creativecommons.org/ns#"
   xmlns:rdf="http://www.w3.org/1999/02/22-rdf-syntax-ns#"
   xmlns:svg="http://www.w3.org/2000/svg"
   xmlns="http://www.w3.org/2000/svg"
   xmlns:sodipodi="http://sodipodi.sourceforge.net/DTD/sodipodi-0.dtd"
   xmlns:inkscape="http://www.inkscape.org/namespaces/inkscape"
   width="38.4pt"
   height="38.4pt"
   id="svg2"
   version="1.1"
   inkscape:version="0.48.5 r10040"
   sodipodi:docname="docky.svg">
  <metadata
     id="metadata11">
    <rdf:RDF>
      <cc:Work
         rdf:about="">
        <dc:format>image/svg+xml</dc:format>
        <dc:type
           rdf:resource="http://purl.org/dc/dcmitype/StillImage" />
        <dc:title />
      </cc:Work>
    </rdf:RDF>
  </metadata>
  <sodipodi:namedview
     pagecolor="#ffffff"
     bordercolor="#666666"
     borderopacity="1"
     objecttolerance="10"
     gridtolerance="10"
     guidetolerance="10"
     inkscape:pageopacity="0"
     inkscape:pageshadow="2"
     inkscape:window-width="1920"
     inkscape:window-height="1035"
     id="namedview9"
     showgrid="false"
     inkscape:showpageshadow="false"
     borderlayer="true"
     inkscape:zoom="6.9532164"
     inkscape:cx="24.297858"
     inkscape:cy="24.178715"
     inkscape:window-x="-4"
     inkscape:window-y="29"
     inkscape:window-maximized="1"
     inkscape:current-layer="svg2">
    <sodipodi:guide
       position="9.5367432e-07,48.000001"
       orientation="47.999999,0"
       id="guide4067" />
    <sodipodi:guide
       position="9.5367432e-07,1.9073486e-06"
       orientation="0,47.999999"
       id="guide4069" />
    <sodipodi:guide
       position="48,1.9073486e-06"
       orientation="-47.999999,0"
       id="guide4071" />
    <sodipodi:guide
       position="48,48.000001"
       orientation="0,-47.999999"
       id="guide4073" />
    <sodipodi:guide
       position="4.000001,44.000001"
       orientation="39.999999,0"
       id="guide4133" />
    <sodipodi:guide
       position="4.000001,4.0000019"
       orientation="0,39.999999"
       id="guide4135" />
    <sodipodi:guide
       position="44,4.0000019"
       orientation="-39.999999,0"
       id="guide4137" />
    <sodipodi:guide
       position="44,44.000001"
       orientation="0,-39.999999"
       id="guide4139" />
  </sodipodi:namedview>
  <defs
     id="defs4" />
  <rect
     style="fill:#2980b9;fill-rule:evenodd;stroke:none;fill-opacity:1"
     y="4.000001"
     x="4.000001"
     ry="20"
     height="40"
     width="40"
     stroke-miterlimit="2.01260185242"
     id="shape01" />
  <path
     style="fill:#f5f5f5;fill-opacity:1;fill-rule:nonzero;stroke:none"
     id="path1919"
     inkscape:connector-curvature="0"
     d="m 23.799071,9.254025 c -1.84346,0 -3.33389,1.49336 -3.33333,3.33333 -4.1e-4,1.3883 0.87273,2.53461 2.08334,3.03386 l 0,1.13281 -5,0 c -0.22134,0 -0.41668,0.18134 -0.41668,0.41667 l 0,1.25 c 0,0.23531 0.181,0.41666 0.41668,0.41666 l 5,0 0,15.41665 c 0,0.42809 -0.71436,0.43698 -1.1198,0.48177 -0.59399,-0.004 -0.95512,-0.15525 -1.52344,-0.31249 -1.28344,-0.3753 -2.50869,-0.89543 -3.68489,-1.52344 -0.49522,-0.27456 -0.97864,-0.54221 -1.41927,-0.89844 -0.18991,-0.16202 -0.41081,-0.39629 -0.39063,-0.66406 0.0257,-0.2027 0.12831,-0.41864 0.35157,-0.45573 0.20122,-0.0319 0.38196,0.0761 0.55989,0.14323 0.15339,0.0661 0.25891,-0.1199 0.23438,-0.24739 -0.0247,-0.33588 -0.13849,-0.64677 -0.3125,-0.9375 -0.36202,-0.59549 -0.91916,-1.03843 -1.4974,-1.41927 -0.61737,-0.39427 -1.27553,-0.82776 -1.66666,-1.45833 -0.0778,-0.11655 -0.16423,-0.30936 -0.33855,-0.2474 -0.24232,0.0786 -0.37609,0.31609 -0.49478,0.52083 -0.33396,0.63551 -0.50048,1.32107 -0.65105,2.01823 -0.12377,0.5547 -0.1474,1.14053 -0.10417,1.70573 0.0448,0.56552 0.0835,1.13854 0.31251,1.66666 0.14424,0.34706 0.39817,0.62686 0.65104,0.89844 0.16135,-0.1706 0.32972,-0.35372 0.49479,-0.52084 0.21391,-0.21474 0.48119,-0.35417 0.79427,-0.31249 0.42612,0.0548 0.81096,0.31305 1.14583,0.55989 0.47169,0.36679 0.91264,0.75064 1.39323,1.10678 0.76047,0.58115 1.59925,1.0066 2.46094,1.41926 0.7179,0.33338 1.45553,0.66637 2.20052,0.9375 0.13341,0.0583 0.28084,0.0556 0.41666,0.10417 1.34081,0.55763 2.47035,1.20664 3.39844,2.36978 8.9e-4,0.016 -8.9e-4,0.0499 0,0.0651 0.0107,-0.0138 0.0283,-0.0254 0.0391,-0.039 0.0107,0.0136 0.0284,0.0253 0.0391,0.039 0.007,-0.0321 -0.007,-0.0719 0,-0.10417 0.92519,-1.14965 2.06577,-1.77647 3.39844,-2.33073 0.13583,-0.0485 0.28325,-0.0459 0.41666,-0.10416 0.745,-0.27113 1.48263,-0.60412 2.20053,-0.9375 0.86168,-0.41266 1.70047,-0.83811 2.46094,-1.41927 0.48059,-0.35613 0.92154,-0.73998 1.39323,-1.10677 0.33486,-0.24684 0.71971,-0.50505 1.14583,-0.5599 0.31307,-0.0417 0.58035,0.0977 0.79427,0.3125 0.16507,0.16712 0.33344,0.35023 0.49478,0.52084 0.25288,-0.27158 0.50681,-0.55138 0.65105,-0.89844 0.22903,-0.52812 0.26774,-1.10114 0.3125,-1.66666 0.0433,-0.5652 0.0196,-1.15103 -0.10417,-1.70573 -0.15056,-0.69717 -0.31709,-1.38272 -0.65104,-2.01823 -0.11869,-0.20474 -0.25246,-0.44223 -0.49479,-0.52083 -0.17432,-0.0619 -0.26074,0.13085 -0.33854,0.24739 -0.39114,0.63058 -1.04929,1.06407 -1.66667,1.45833 -0.57824,0.38085 -1.13537,0.82379 -1.4974,1.41928 -0.174,0.29073 -0.2878,0.60161 -0.31249,0.9375 -0.0245,0.12749 0.081,0.31354 0.23437,0.24739 0.17793,-0.0672 0.35868,-0.1751 0.5599,-0.14323 0.22325,0.037 0.32591,0.25302 0.35156,0.45573 0.0202,0.26777 -0.20071,0.50203 -0.39062,0.66406 -0.44063,0.35623 -0.92405,0.62389 -1.41927,0.89844 -1.17621,0.628 -2.40146,1.14814 -3.6849,1.52343 -0.56832,0.15725 -0.92944,0.30883 -1.52344,0.3125 -0.51034,0.091 -1.11979,-0.1861 -1.11979,-0.48177 l 0,-15.41665 5,0 c 0.19264,0 0.41667,-0.167 0.41667,-0.41667 l 0,-1.24999 c 0,-0.2425 -0.19534,-0.41668 -0.41667,-0.41668 l -5,0 0,-1.1328 c 1.2106,-0.49925 2.08375,-1.64556 2.08334,-3.03386 5.3e-4,-1.83997 -1.48988,-3.33333 -3.33333,-3.33333 z m -0.0651,1.6276 c 0.89488,0 1.62788,0.70837 1.6276,1.60156 2.7e-4,0.8932 -0.73272,1.62761 -1.6276,1.62761 -0.89488,0 -1.6409,-0.73441 -1.64062,-1.62761 -2.8e-4,-0.89319 0.74574,-1.60156 1.64062,-1.60156 z" />
</svg>
