<?xml version="1.0" encoding="UTF-8" standalone="no"?>
<!-- Created with Inkscape (http://www.inkscape.org/) -->

<svg
   xmlns:dc="http://purl.org/dc/elements/1.1/"
   xmlns:cc="http://creativecommons.org/ns#"
   xmlns:rdf="http://www.w3.org/1999/02/22-rdf-syntax-ns#"
   xmlns:svg="http://www.w3.org/2000/svg"
   xmlns="http://www.w3.org/2000/svg"
   xmlns:sodipodi="http://sodipodi.sourceforge.net/DTD/sodipodi-0.dtd"
   xmlns:inkscape="http://www.inkscape.org/namespaces/inkscape"
   width="48"
   height="48"
   id="svg2"
   version="1.1"
   inkscape:version="0.48.5 r10040"
   viewBox="0 0 13.546667 13.546667"
   sodipodi:docname="doublecmd.svg">
  <defs
     id="defs4">
    <clipPath
       id="clipPath-040303870">
      <g
         transform="translate(0,-1004.3622)"
         id="g17">
        <path
           style="fill:#1890d0"
           inkscape:connector-curvature="0"
           d="m -24,13 c 0,1.105 -0.672,2 -1.5,2 -0.828,0 -1.5,-0.895 -1.5,-2 0,-1.105 0.672,-2 1.5,-2 0.828,0 1.5,0.895 1.5,2 z"
           transform="matrix(15.333333,0,0,11.5,414.99999,878.8622)"
           id="path19" />
      </g>
    </clipPath>
    <clipPath
       id="clipPath-030878306">
      <g
         transform="translate(0,-1004.3622)"
         id="g12">
        <path
           style="fill:#1890d0"
           inkscape:connector-curvature="0"
           d="m -24,13 c 0,1.105 -0.672,2 -1.5,2 -0.828,0 -1.5,-0.895 -1.5,-2 0,-1.105 0.672,-2 1.5,-2 0.828,0 1.5,0.895 1.5,2 z"
           transform="matrix(15.333333,0,0,11.5,414.99999,878.8622)"
           id="path14" />
      </g>
    </clipPath>
    <linearGradient
       id="linearGradient3764"
       x1="1"
       x2="47"
       gradientUnits="userSpaceOnUse"
       gradientTransform="matrix(0,-1,1,0,-1.5e-6,47.999998)">
      <stop
         stop-color="#b64b32"
         stop-opacity="1"
         id="stop7" />
      <stop
         offset="1"
         stop-color="#c55036"
         stop-opacity="1"
         id="stop9" />
    </linearGradient>
  </defs>
  <sodipodi:namedview
     id="base"
     pagecolor="#ffffff"
     bordercolor="#666666"
     borderopacity="1.0"
     inkscape:pageopacity="0.0"
     inkscape:pageshadow="2"
     inkscape:zoom="4"
     inkscape:cx="1.5036493"
     inkscape:cy="22.608655"
     inkscape:document-units="px"
     inkscape:current-layer="g4096"
     showgrid="false"
     units="px"
     borderlayer="true"
     inkscape:showpageshadow="false"
     inkscape:window-width="1920"
     inkscape:window-height="1025"
     inkscape:window-x="-4"
     inkscape:window-y="39"
     inkscape:window-maximized="1"
     showguides="false"
     inkscape:guide-bbox="true">
    <sodipodi:guide
       position="8.9999996,38.999975"
       orientation="30.000028,0"
       id="guide3266" />
    <sodipodi:guide
       position="8.9999996,8.9999467"
       orientation="0,30.000001"
       id="guide3268" />
    <sodipodi:guide
       position="39.000001,8.9999467"
       orientation="-30.000028,0"
       id="guide3270" />
    <sodipodi:guide
       position="39.000001,38.999975"
       orientation="0,-30.000001"
       id="guide3272" />
    <sodipodi:guide
       position="3.9999989,44.000052"
       orientation="39.999965,0"
       id="guide3303" />
    <sodipodi:guide
       position="3.9999989,4.0000862"
       orientation="0,40.000001"
       id="guide3305" />
    <sodipodi:guide
       position="44,4.0000862"
       orientation="-39.999965,0"
       id="guide3307" />
    <sodipodi:guide
       position="44,44.000052"
       orientation="0,-40.000001"
       id="guide3309" />
    <sodipodi:guide
       orientation="0,1"
       position="35.122282,28.208933"
       id="guide3815" />
  </sodipodi:namedview>
  <metadata
     id="metadata7">
    <rdf:RDF>
      <cc:Work
         rdf:about="">
        <dc:format>image/svg+xml</dc:format>
        <dc:type
           rdf:resource="http://purl.org/dc/dcmitype/StillImage" />
        <dc:title />
      </cc:Work>
    </rdf:RDF>
  </metadata>
  <g
     inkscape:label="Capa 1"
     inkscape:groupmode="layer"
     id="layer1"
     transform="translate(0,-283.45334)">
    <g
       id="g4096">
      <g
         transform="matrix(0.24018913,0,0,0.24018913,0.88870003,284.34204)"
         id="g21">
        <path
           style="opacity:0.05"
           inkscape:connector-curvature="0"
           d="m 36.31,5 c 5.859,4.062 9.688,10.831 9.688,18.5 0,12.426 -10.07,22.5 -22.5,22.5 -7.669,0 -14.438,-3.828 -18.5,-9.688 1.037,1.822 2.306,3.499 3.781,4.969 4.085,3.712 9.514,5.969 15.469,5.969 12.703,0 23,-10.298 23,-23 0,-5.954 -2.256,-11.384 -5.969,-15.469 C 39.81,7.306 38.132,6.037 36.31,5 z m 4.969,3.781 c 3.854,4.113 6.219,9.637 6.219,15.719 0,12.703 -10.297,23 -23,23 -6.081,0 -11.606,-2.364 -15.719,-6.219 4.16,4.144 9.883,6.719 16.219,6.719 12.703,0 23,-10.298 23,-23 0,-6.335 -2.575,-12.06 -6.719,-16.219 z"
           id="path23" />
        <path
           style="opacity:0.1"
           inkscape:connector-curvature="0"
           d="m 41.28,8.781 c 3.712,4.085 5.969,9.514 5.969,15.469 0,12.703 -10.297,23 -23,23 -5.954,0 -11.384,-2.256 -15.469,-5.969 4.113,3.854 9.637,6.219 15.719,6.219 12.703,0 23,-10.298 23,-23 0,-6.081 -2.364,-11.606 -6.219,-15.719 z"
           id="path25" />
        <path
           style="opacity:0.2"
           inkscape:connector-curvature="0"
           d="M 31.25,2.375 C 39.865,5.529 46,13.792 46,23.505 c 0,12.426 -10.07,22.5 -22.5,22.5 -9.708,0 -17.971,-6.135 -21.12,-14.75 a 23,23 0 0 0 44.875,-7 23,23 0 0 0 -16,-21.875 z"
           id="path27" />
      </g>
      <g
         transform="matrix(0.24018913,0,0,0.24018913,0.88870003,284.34204)"
         id="g29">
        <path
           style="fill:url(#linearGradient3764);fill-opacity:1"
           inkscape:connector-curvature="0"
           d="M 24,1 C 36.703,1 47,11.297 47,24 47,36.703 36.703,47 24,47 11.297,47 1,36.703 1,24 1,11.297 11.297,1 24,1 z"
           id="path31" />
      </g>
      <g
         transform="matrix(0.24018913,0,0,0.24018913,0.88870003,284.34204)"
         id="g35">
        <g
           clip-path="url(#clipPath-030878306)"
           id="g37">
          <g
             transform="translate(1,1)"
             id="g39">
            <g
               style="opacity:0.1"
               id="g41">
              <!-- color: #c55036 -->
              <g
                 id="g43">
                <path
                   style="fill:#000000;fill-opacity:1;fill-rule:nonzero;stroke:none"
                   inkscape:connector-curvature="0"
                   d="M 10,12 C 5.816,12 2.148,14.133 0,17.375 l 0,13.25 C 2.148,33.867 5.816,36 10,36 16.629,36 22,30.629 22,24 22,17.371 16.629,12 10,12 m 0.063,2.906 c 5,0 9.03,4.03 9.03,9.03 0,4.996 -4.03,9.06 -9.03,9.06 -5,0 -9.06,-4.063 -9.06,-9.06 0,-5 4.063,-9.03 9.06,-9.03 m 0,0"
                   id="path45" />
                <path
                   style="fill:#000000;fill-opacity:1;fill-rule:nonzero;stroke:none"
                   inkscape:connector-curvature="0"
                   d="m 38,12 c -6.629,0 -12,5.371 -12,12 0,6.629 5.371,12 12,12 4.184,0 7.852,-2.133 10,-5.375 l 0,-13.25 C 45.852,14.133 42.184,12 38,12 m 0,3 c 4.973,0 9,4.03 9,9 0,4.973 -4.03,9 -9,9 -4.973,0 -9,-4.03 -9,-9 0,-4.973 4.03,-9 9,-9 m 0,0"
                   id="path47" />
              </g>
            </g>
          </g>
        </g>
      </g>
      <g
         transform="matrix(0.24018913,0,0,0.24018913,0.88870003,284.34204)"
         id="g49">
        <g
           clip-path="url(#clipPath-040303870)"
           id="g51">
          <!-- color: #c55036 -->
          <g
             id="g53">
            <path
               style="fill:#ecedf1;fill-opacity:1;fill-rule:nonzero;stroke:none"
               inkscape:connector-curvature="0"
               d="M 10,12 C 5.816,12 2.148,14.133 0,17.375 l 0,13.25 C 2.148,33.867 5.816,36 10,36 16.629,36 22,30.629 22,24 22,17.371 16.629,12 10,12 m 0.063,2.906 c 5,0 9.03,4.03 9.03,9.03 0,4.996 -4.03,9.06 -9.03,9.06 -5,0 -9.06,-4.063 -9.06,-9.06 0,-5 4.063,-9.03 9.06,-9.03 m 0,0"
               id="path55" />
            <path
               style="fill:#ecedf1;fill-opacity:1;fill-rule:nonzero;stroke:none"
               inkscape:connector-curvature="0"
               d="m 38,12 c -6.629,0 -12,5.371 -12,12 0,6.629 5.371,12 12,12 4.184,0 7.852,-2.133 10,-5.375 l 0,-13.25 C 45.852,14.133 42.184,12 38,12 m 0,3 c 4.973,0 9,4.03 9,9 0,4.973 -4.03,9 -9,9 -4.973,0 -9,-4.03 -9,-9 0,-4.973 4.03,-9 9,-9 m 0,0"
               id="path57" />
          </g>
        </g>
      </g>
      <g
         transform="matrix(0.24018913,0,0,0.24018913,0.88870003,284.34204)"
         id="g59">
        <path
           style="opacity:0.1"
           inkscape:connector-curvature="0"
           d="m 40.03,7.531 c 3.712,4.084 5.969,9.514 5.969,15.469 0,12.703 -10.297,23 -23,23 C 17.045,46 11.615,43.744 7.53,40.031 11.708,44.322 17.54,47 23.999,47 c 12.703,0 23,-10.298 23,-23 0,-6.462 -2.677,-12.291 -6.969,-16.469 z"
           id="path61" />
      </g>
    </g>
  </g>
</svg>
