<?xml version="1.0" encoding="UTF-8" standalone="no"?>
<!-- Created with Inkscape (http://www.inkscape.org/) -->

<svg
   xmlns:dc="http://purl.org/dc/elements/1.1/"
   xmlns:cc="http://creativecommons.org/ns#"
   xmlns:rdf="http://www.w3.org/1999/02/22-rdf-syntax-ns#"
   xmlns:svg="http://www.w3.org/2000/svg"
   xmlns="http://www.w3.org/2000/svg"
   xmlns:sodipodi="http://sodipodi.sourceforge.net/DTD/sodipodi-0.dtd"
   xmlns:inkscape="http://www.inkscape.org/namespaces/inkscape"
   width="48"
   height="48"
   id="svg5453"
   version="1.1"
   inkscape:version="0.91 r13725"
   sodipodi:docname="eagle.svg">
  <defs
     id="defs5455">
    <linearGradient
       id="linearGradient4085">
      <stop
         style="stop-color:#f1c7c7;stop-opacity:1"
         offset="0"
         id="stop4087" />
      <stop
         style="stop-color:#fef6f6;stop-opacity:1"
         offset="1"
         id="stop4089" />
    </linearGradient>
  </defs>
  <sodipodi:namedview
     id="base"
     pagecolor="#ffffff"
     bordercolor="#666666"
     borderopacity="1.0"
     inkscape:pageopacity="0"
     inkscape:pageshadow="2"
     inkscape:zoom="8.131728"
     inkscape:cx="-28.501212"
     inkscape:cy="22.53361"
     inkscape:document-units="px"
     inkscape:current-layer="layer1"
     showgrid="true"
     fit-margin-top="0"
     fit-margin-left="0"
     fit-margin-right="0"
     fit-margin-bottom="0"
     inkscape:window-width="3840"
     inkscape:window-height="2088"
     inkscape:window-x="0"
     inkscape:window-y="48"
     inkscape:window-maximized="1"
     inkscape:showpageshadow="false"
     borderlayer="true"
     showguides="true"
     inkscape:object-nodes="true">
    <inkscape:grid
       type="xygrid"
       id="grid3358" />
  </sodipodi:namedview>
  <metadata
     id="metadata5458">
    <rdf:RDF>
      <cc:Work
         rdf:about="">
        <dc:format>image/svg+xml</dc:format>
        <dc:type
           rdf:resource="http://purl.org/dc/dcmitype/StillImage" />
        <dc:title />
      </cc:Work>
    </rdf:RDF>
  </metadata>
  <g
     inkscape:label="Capa 1"
     inkscape:groupmode="layer"
     id="layer1"
     transform="translate(-384.57143,-499.798)">
    <path
       style="fill:#4d4d4d;fill-opacity:1;stroke:#4d4d4d;stroke-opacity:1"
       d="m 429.74034,503.50813 c 0,-0.0571 -0.64025,0.38753 -1.42322,0.98773 -7.36533,5.64613 -16.57156,10.5839 -21.72635,11.65338 l -0.97185,0.20193 -0.36849,0.98361 c -1.28371,3.43059 -4.93302,5.86342 -10.65426,7.10223 -0.90392,0.19574 -1.87363,0.47489 -2.15469,0.62015 -0.86835,0.44876 -1.87732,1.47554 -2.33345,2.37517 -0.36852,0.72651 -0.42553,1.03987 -0.36985,2.0247 0.0469,0.82889 0.15935,1.26791 0.38971,1.5223 0.30983,0.34217 1.0821,0.52164 0.88694,0.20604 -0.15342,-0.24821 0.57361,-1.03944 1.29242,-1.40593 1.16392,-0.59344 2.97218,-0.8739 4.86414,-0.84808 l 0.0349,-0.0493 c 0.33732,0.0222 0.66582,0.0547 0.98967,0.0924 1.41682,0.10191 2.82527,0.37333 3.99434,0.81728 0.62863,0.23873 1.16098,0.52506 1.59306,0.8474 1.61309,0.83988 2.97012,1.93268 4.11008,3.19449 10e-4,-0.0422 0.003,-0.0819 0.005,-0.12458 0.008,-0.82953 0.0355,-1.50826 0.0615,-1.50861 0.026,-3.4e-4 0.12886,0.21214 0.22808,0.47298 0.24062,0.63162 0.36602,1.29649 0.3897,1.96516 2.16366,2.73134 3.44314,6.0963 4.19432,9.34461 1.00121,-1.73383 1.94976,-4.02686 1.95401,-4.9632 0.006,-1.38617 0.96719,1.33471 1.27048,3.59766 l 0.20958,1.56679 0.38011,-0.94869 c 0.63541,-1.58634 0.93383,-3.24507 0.93559,-5.19869 10e-4,-1.00986 -0.0496,-1.99913 -0.11301,-2.19857 -0.0632,-0.19944 -0.0461,-0.36277 0.0384,-0.36277 0.20807,0 1.86294,1.68532 2.28686,2.32861 0.40003,0.60699 0.4304,0.34192 0.10207,-0.8905 -0.86833,-3.25935 -3.35891,-6.33007 -6.91267,-8.52325 l -1.37323,-0.84738 0.68354,-0.0204 c 0.37564,-0.0111 0.91591,-0.0731 1.20062,-0.13758 l 0.51779,-0.11697 -0.69038,-0.23479 -0.69037,-0.23546 1.1061,-0.22588 c 0.60852,-0.1241 1.65734,-0.4864 2.33004,-0.80495 l 1.22253,-0.57909 -1.55267,0.0615 -1.55335,0.0615 1.20816,-0.40728 c 1.68088,-0.56697 4.90564,-2.2591 4.6991,-2.46553 -0.0292,-0.0293 -0.63287,0.0975 -1.34104,0.28134 -2.08197,0.5403 -2.30176,0.42197 -0.67463,-0.36347 1.584,-0.7646 3.8133,-2.20323 4.90866,-3.16782 l 0.69039,-0.60781 -1.29376,0.58318 c -1.09906,0.49536 -3.60773,1.30942 -4.03545,1.30942 -0.072,0 0.37002,-0.26089 0.98215,-0.57975 1.75274,-0.91303 3.33667,-2.12219 5.29564,-4.04121 l 1.81225,-1.77556 -1.46637,0.77415 c -1.38689,0.73174 -4.31419,2.04603 -4.31419,1.93711 0,-0.0277 0.36903,-0.31128 0.81984,-0.62973 1.74925,-1.23571 4.84607,-4.50065 6.67911,-7.04133 l 0.66574,-0.922 -1.63212,1.2745 c -1.74252,1.36131 -5.30149,3.66849 -5.44219,3.52786 -0.0464,-0.0464 0.1268,-0.22315 0.38491,-0.39222 0.762,-0.49899 4.11611,-4.28545 5.95997,-6.72782 0.94057,-1.24585 1.7102,-2.31188 1.7102,-2.36902 z"
       id="path4264"
       inkscape:connector-curvature="0" />
    <path
       sodipodi:nodetypes="cccc"
       inkscape:connector-curvature="0"
       id="path4027"
       d="m 388.57143,503.798 0,0 c 20,1 20,1 40,0 z"
       style="opacity:0.5;fill:#ffffff;fill-opacity:1;stroke:none" />
  </g>
</svg>
