<?xml version="1.0" encoding="UTF-8" standalone="no"?>
<!-- Created with Inkscape (http://www.inkscape.org/) -->

<svg
   xmlns:dc="http://purl.org/dc/elements/1.1/"
   xmlns:cc="http://creativecommons.org/ns#"
   xmlns:rdf="http://www.w3.org/1999/02/22-rdf-syntax-ns#"
   xmlns:svg="http://www.w3.org/2000/svg"
   xmlns="http://www.w3.org/2000/svg"
   xmlns:xlink="http://www.w3.org/1999/xlink"
   xmlns:sodipodi="http://sodipodi.sourceforge.net/DTD/sodipodi-0.dtd"
   xmlns:inkscape="http://www.inkscape.org/namespaces/inkscape"
   width="48"
   height="48"
   id="svg2"
   version="1.1"
   inkscape:version="0.48.5 r10040"
   viewBox="0 0 47.999998 48.000001"
   sodipodi:docname="emerald-theme-manager.svg"
   inkscape:export-filename="/home/pacomaro/.icons/flattr/apps/22/banshee.png"
   inkscape:export-xdpi="41.25"
   inkscape:export-ydpi="41.25">
  <defs
     id="defs4">
    <linearGradient
       y2="3.6210001"
       x2="23.667999"
       y1="36.865002"
       x1="23.295"
       gradientTransform="scale(0.28222223,0.28222223)"
       gradientUnits="userSpaceOnUse"
       id="linearGradient3901"
       xlink:href="#linear0"
       inkscape:collect="always" />
    <linearGradient
       id="linear0"
       gradientUnits="userSpaceOnUse"
       x1="23.295"
       y1="36.865002"
       x2="23.667999"
       y2="3.6210001">
      <stop
         stop-color="#5bcc01"
         stop-opacity="1"
         id="stop22" />
      <stop
         offset="1"
         stop-color="#b7fb3b"
         stop-opacity="0"
         id="stop24" />
    </linearGradient>
    <linearGradient
       inkscape:collect="always"
       xlink:href="#linear0"
       id="linearGradient3029"
       gradientUnits="userSpaceOnUse"
       gradientTransform="scale(0.28222223,0.28222223)"
       x1="23.295"
       y1="36.865002"
       x2="23.667999"
       y2="3.6210001" />
  </defs>
  <sodipodi:namedview
     id="base"
     pagecolor="#ffffff"
     bordercolor="#666666"
     borderopacity="1.0"
     inkscape:pageopacity="0.0"
     inkscape:pageshadow="2"
     inkscape:zoom="7.919596"
     inkscape:cx="7.5420114"
     inkscape:cy="2.2959077"
     inkscape:document-units="px"
     inkscape:current-layer="layer1"
     showgrid="false"
     borderlayer="true"
     inkscape:showpageshadow="false"
     units="px"
     inkscape:window-width="1920"
     inkscape:window-height="1025"
     inkscape:window-x="-4"
     inkscape:window-y="39"
     inkscape:window-maximized="1">
    <sodipodi:guide
       position="9.0000004,39.000018"
       orientation="29.999999,0"
       id="guide3266" />
    <sodipodi:guide
       position="9.0000004,9.0000182"
       orientation="0,30"
       id="guide3268" />
    <sodipodi:guide
       position="39.000001,9.0000182"
       orientation="-29.999999,0"
       id="guide3270" />
    <sodipodi:guide
       position="39.000001,39.000018"
       orientation="0,-30"
       id="guide3272" />
    <sodipodi:guide
       position="4.0000005,44.000017"
       orientation="39.999999,0"
       id="guide3276" />
    <sodipodi:guide
       position="4.0000005,4.0000183"
       orientation="0,40"
       id="guide3278" />
    <sodipodi:guide
       position="44.000001,4.0000183"
       orientation="-39.999999,0"
       id="guide3280" />
    <sodipodi:guide
       position="44.000001,44.000017"
       orientation="0,-40"
       id="guide3282" />
    <sodipodi:guide
       position="15,33.000018"
       orientation="18,0"
       id="guide4157" />
    <sodipodi:guide
       position="15,15.000018"
       orientation="0,18.000001"
       id="guide4159" />
    <sodipodi:guide
       position="33.000001,15.000018"
       orientation="-18,0"
       id="guide4161" />
    <sodipodi:guide
       position="33.000001,33.000018"
       orientation="0,-18.000001"
       id="guide4163" />
  </sodipodi:namedview>
  <metadata
     id="metadata7">
    <rdf:RDF>
      <cc:Work
         rdf:about="">
        <dc:format>image/svg+xml</dc:format>
        <dc:type
           rdf:resource="http://purl.org/dc/dcmitype/StillImage" />
        <dc:title />
      </cc:Work>
    </rdf:RDF>
  </metadata>
  <g
     inkscape:label="Capa 1"
     inkscape:groupmode="layer"
     id="layer1"
     transform="translate(0,-1004.3622)">
    <path
       style="fill:#4ea92b;fill-rule:evenodd"
       inkscape:connector-curvature="0"
       d="m 43.999999,1028.3622 c 0,11.0456 -8.95436,20 -20,20 -11.04564,0 -20.0000004,-8.9544 -20.0000004,-20 0,-11.0456 8.9543604,-20 20.0000004,-20 11.04564,0 20,8.9544 20,20"
       id="path37" />
    <path
       style="opacity:0.25"
       inkscape:connector-curvature="0"
       id="path95"
       d="m 13.632269,1015.6209 -4.2483204,6.8868 1.0534904,1.0535 H 9.3840386 l 14.0642304,18.0814 5.97597,5.976 c 8.40985,-2.3642 14.57494,-10.0891 14.57494,-19.2545 0,-1.393 -0.14289,-2.7527 -0.41396,-4.0656 l -8.67663,-8.6766 -0.40829,0.6624 -0.66237,-0.6624 h -8.49665 l 1.72445,2.7951 -2.79512,-2.7951 -0.40829,0.6624 -0.66237,-0.6624 h -8.49665 l 1.72446,2.7951 -2.79513,-2.7951" />
    <path
       style="fill:#ffffff"
       inkscape:connector-curvature="0"
       id="path97"
       d="m 13.633179,1015.6218 -4.2492304,6.885 h 8.5130904 l -4.26477,-6.885 m 1.06994,0 4.24923,6.885 4.24924,-6.885 h -8.49756 m 9.5674,0 -4.24923,6.885 h 8.49755 l -4.24923,-6.885 m 1.06994,0 4.24923,6.885 4.24924,-6.885 h -8.49756 m 9.5674,0 -4.26431,6.885 h 8.51309 l -4.24923,-6.885 m -25.5237404,7.9393 14.0642304,18.0805 -5.02398,-18.0805 H 9.3836686 m 10.0945604,0 4.79193,18.0805 4.79192,-18.0805 h -9.58293 m 10.63724,0 -5.02416,18.0805 14.06423,-18.0805 h -9.04025" />
  </g>
</svg>
