<?xml version="1.0" encoding="UTF-8" standalone="no"?>
<!-- Created with Inkscape (http://www.inkscape.org/) -->

<svg
   xmlns:dc="http://purl.org/dc/elements/1.1/"
   xmlns:cc="http://creativecommons.org/ns#"
   xmlns:rdf="http://www.w3.org/1999/02/22-rdf-syntax-ns#"
   xmlns:svg="http://www.w3.org/2000/svg"
   xmlns="http://www.w3.org/2000/svg"
   xmlns:sodipodi="http://sodipodi.sourceforge.net/DTD/sodipodi-0.dtd"
   xmlns:inkscape="http://www.inkscape.org/namespaces/inkscape"
   width="48"
   height="48"
   id="svg2"
   version="1.1"
   inkscape:version="0.48.5 r10040"
   viewBox="0 0 13.546666 13.546668"
   sodipodi:docname="equaliser.svg">
  <defs
     id="defs4">
    <clipPath
       id="clipPath-863563858">
      <g
         transform="translate(0,-1004.3622)"
         id="g17">
        <path
           style="fill:#1890d0"
           inkscape:connector-curvature="0"
           d="m -24,13 c 0,1.105 -0.672,2 -1.5,2 -0.828,0 -1.5,-0.895 -1.5,-2 0,-1.105 0.672,-2 1.5,-2 0.828,0 1.5,0.895 1.5,2 z"
           transform="matrix(15.333333,0,0,11.5,414.99999,878.8622)"
           id="path19" />
      </g>
    </clipPath>
    <clipPath
       id="clipPath-851318584">
      <g
         transform="translate(0,-1004.3622)"
         id="g12">
        <path
           style="fill:#1890d0"
           inkscape:connector-curvature="0"
           d="m -24,13 c 0,1.105 -0.672,2 -1.5,2 -0.828,0 -1.5,-0.895 -1.5,-2 0,-1.105 0.672,-2 1.5,-2 0.828,0 1.5,0.895 1.5,2 z"
           transform="matrix(15.333333,0,0,11.5,414.99999,878.8622)"
           id="path14" />
      </g>
    </clipPath>
    <linearGradient
       id="linearGradient3764"
       x1="1"
       x2="47"
       gradientUnits="userSpaceOnUse"
       gradientTransform="matrix(0,-1,1,0,-1.5e-6,47.999998)">
      <stop
         stop-color="#333"
         stop-opacity="1"
         id="stop7" />
      <stop
         offset="1"
         stop-color="#3d3d3d"
         stop-opacity="1"
         id="stop9" />
    </linearGradient>
  </defs>
  <sodipodi:namedview
     id="base"
     pagecolor="#ffffff"
     bordercolor="#666666"
     borderopacity="1.0"
     inkscape:pageopacity="0"
     inkscape:pageshadow="2"
     inkscape:zoom="4.4501164"
     inkscape:cx="-14.070281"
     inkscape:cy="-4.4969332"
     inkscape:document-units="px"
     inkscape:current-layer="layer1-2"
     showgrid="false"
     inkscape:showpageshadow="false"
     borderlayer="true"
     units="px"
     fit-margin-top="0"
     fit-margin-left="0"
     fit-margin-right="0"
     fit-margin-bottom="0"
     showguides="true"
     inkscape:window-width="1920"
     inkscape:window-height="1025"
     inkscape:window-x="-4"
     inkscape:window-y="39"
     inkscape:window-maximized="1">
    <sodipodi:guide
       position="-6.6748425e-06,47.999999"
       orientation="47.999977,0"
       id="guide4120" />
    <sodipodi:guide
       position="-6.6748425e-06,2.2810037e-05"
       orientation="0,48.000004"
       id="guide4122" />
    <sodipodi:guide
       position="47.999997,2.2810037e-05"
       orientation="-47.999977,0"
       id="guide4124" />
    <sodipodi:guide
       position="47.999997,47.999999"
       orientation="0,-48.000004"
       id="guide4126" />
    <sodipodi:guide
       position="3.9999733,44.000154"
       orientation="39.999962,0"
       id="guide4138" />
    <sodipodi:guide
       position="3.9999733,4.0001921"
       orientation="0,40.000003"
       id="guide4140" />
    <sodipodi:guide
       position="43.999976,4.0001921"
       orientation="-39.999962,0"
       id="guide4142" />
    <sodipodi:guide
       position="43.999976,44.000154"
       orientation="0,-40.000003"
       id="guide4144" />
    <sodipodi:guide
       position="6.9999922,47.999999"
       orientation="39.999962,0"
       id="guide4148" />
    <sodipodi:guide
       position="6.9999922,8.0000369"
       orientation="0,34.000006"
       id="guide4150" />
    <sodipodi:guide
       position="40.999998,8.0000369"
       orientation="-39.999962,0"
       id="guide4152" />
    <sodipodi:guide
       position="40.999998,47.999999"
       orientation="0,-34.000006"
       id="guide4154" />
    <sodipodi:guide
       position="14.999993,32.999986"
       orientation="17.999951,0"
       id="guide4158" />
    <sodipodi:guide
       position="14.999993,15.000036"
       orientation="0,17.999998"
       id="guide4160" />
    <sodipodi:guide
       position="32.999991,15.000036"
       orientation="-17.999951,0"
       id="guide4162" />
    <sodipodi:guide
       position="32.999991,32.999986"
       orientation="0,-17.999998"
       id="guide4164" />
    <sodipodi:guide
       position="1.9999969,44.000046"
       orientation="39.999962,0"
       id="guide3279" />
    <sodipodi:guide
       position="1.9999969,4.0000839"
       orientation="0,44.000003"
       id="guide3281" />
    <sodipodi:guide
       position="46,4.0000839"
       orientation="-39.999962,0"
       id="guide3283" />
    <sodipodi:guide
       position="46,44.000046"
       orientation="0,-44.000003"
       id="guide3285" />
  </sodipodi:namedview>
  <metadata
     id="metadata7">
    <rdf:RDF>
      <cc:Work
         rdf:about="">
        <dc:format>image/svg+xml</dc:format>
        <dc:type
           rdf:resource="http://purl.org/dc/dcmitype/StillImage" />
        <dc:title />
      </cc:Work>
    </rdf:RDF>
  </metadata>
  <g
     inkscape:label="Capa 1"
     inkscape:groupmode="layer"
     id="layer1"
     transform="translate(38.119153,-397.84494)">
    <g
       id="layer1-2"
       transform="matrix(0.28222225,0,0,0.28222225,-61.793671,386.44873)">
      <g
         transform="matrix(0.85106383,0,0,0.85106383,87.035012,43.529204)"
         id="g21">
        <path
           style="opacity:0.05"
           inkscape:connector-curvature="0"
           d="m 36.31,5 c 5.859,4.062 9.688,10.831 9.688,18.5 0,12.426 -10.07,22.5 -22.5,22.5 -7.669,0 -14.438,-3.828 -18.5,-9.688 1.037,1.822 2.306,3.499 3.781,4.969 4.085,3.712 9.514,5.969 15.469,5.969 12.703,0 23,-10.298 23,-23 0,-5.954 -2.256,-11.384 -5.969,-15.469 C 39.81,7.306 38.132,6.037 36.31,5 z m 4.969,3.781 c 3.854,4.113 6.219,9.637 6.219,15.719 0,12.703 -10.297,23 -23,23 -6.081,0 -11.606,-2.364 -15.719,-6.219 4.16,4.144 9.883,6.719 16.219,6.719 12.703,0 23,-10.298 23,-23 0,-6.335 -2.575,-12.06 -6.719,-16.219 z"
           id="path23" />
        <path
           style="opacity:0.1"
           inkscape:connector-curvature="0"
           d="m 41.28,8.781 c 3.712,4.085 5.969,9.514 5.969,15.469 0,12.703 -10.297,23 -23,23 -5.954,0 -11.384,-2.256 -15.469,-5.969 4.113,3.854 9.637,6.219 15.719,6.219 12.703,0 23,-10.298 23,-23 0,-6.081 -2.364,-11.606 -6.219,-15.719 z"
           id="path25" />
        <path
           style="opacity:0.2"
           inkscape:connector-curvature="0"
           d="M 31.25,2.375 C 39.865,5.529 46,13.792 46,23.505 c 0,12.426 -10.07,22.5 -22.5,22.5 -9.708,0 -17.971,-6.135 -21.12,-14.75 a 23,23 0 0 0 44.875,-7 23,23 0 0 0 -16,-21.875 z"
           id="path27" />
      </g>
      <g
         transform="matrix(0.85106383,0,0,0.85106383,87.035012,43.529204)"
         id="g29">
        <path
           style="fill:url(#linearGradient3764);fill-opacity:1"
           inkscape:connector-curvature="0"
           d="M 24,1 C 36.703,1 47,11.297 47,24 47,36.703 36.703,47 24,47 11.297,47 1,36.703 1,24 1,11.297 11.297,1 24,1 z"
           id="path31" />
      </g>
      <g
         transform="matrix(0.85106383,0,0,0.85106383,87.035012,43.529204)"
         id="g35">
        <g
           clip-path="url(#clipPath-851318584)"
           id="g37">
          <g
             transform="translate(1,1)"
             id="g39">
            <g
               style="opacity:0.1"
               id="g41">
              <!-- color: #3d3d3d -->
              <g
                 id="g43">
                <path
                   style="fill:#000000;fill-opacity:1;fill-rule:nonzero;stroke:none"
                   inkscape:connector-curvature="0"
                   d="m 17.02,32 3.957,0 c 0.012,0 0.02,0.004 0.02,0.004 l 0,1.992 c 0,0 -0.008,0.004 -0.02,0.004 l -3.957,0 c -0.012,0 -0.023,-0.004 -0.023,-0.004 l 0,-1.992 c 0,0 0.012,-0.004 0.023,-0.004 m 0,0"
                   id="path45" />
                <path
                   style="fill:#000000;fill-opacity:0.9020004;fill-rule:nonzero;stroke:none"
                   inkscape:connector-curvature="0"
                   d="m 17.02,28.984 3.957,0 c 0.012,0 0.02,0.004 0.02,0.004 l 0,1.992 c 0,0 -0.008,0.004 -0.02,0.004 l -3.957,0 c -0.012,0 -0.023,-0.004 -0.023,-0.004 l 0,-1.992 c 0,0 0.012,-0.004 0.023,-0.004 m 0,0"
                   id="path47" />
                <path
                   style="fill:#000000;fill-opacity:0.8;fill-rule:nonzero;stroke:none"
                   inkscape:connector-curvature="0"
                   d="m 17.02,26.02 3.957,0 c 0.012,0 0.02,0 0.02,0.004 l 0,1.965 c 0,0.004 -0.008,0.004 -0.02,0.004 l -3.957,0 c -0.012,0 -0.023,0 -0.023,-0.004 l 0,-1.965 c 0,-0.004 0.012,-0.004 0.023,-0.004 m 0,0"
                   id="path49" />
                <path
                   style="fill:#000000;fill-opacity:0.70200004;fill-rule:nonzero;stroke:none"
                   inkscape:connector-curvature="0"
                   d="m 17.02,23 3.957,0 c 0.012,0 0.02,0.004 0.02,0.004 l 0,1.953 c 0,0 -0.008,0.004 -0.02,0.004 l -3.957,0 c -0.012,0 -0.023,-0.004 -0.023,-0.004 l 0,-1.953 c 0,0 0.012,-0.004 0.023,-0.004 m 0,0"
                   id="path51" />
                <path
                   style="fill:#000000;fill-opacity:0.6;fill-rule:nonzero;stroke:none"
                   inkscape:connector-curvature="0"
                   d="m 17.02,20 3.957,0 c 0.012,0 0.02,0 0.02,0.004 l 0,1.941 c 0,0 -0.008,0.004 -0.02,0.004 l -3.957,0 c -0.012,0 -0.023,-0.004 -0.023,-0.004 l 0,-1.941 C 16.997,20 17.009,20 17.02,20 m 0,0"
                   id="path53" />
                <path
                   style="fill:#000000;fill-opacity:1;fill-rule:nonzero;stroke:none"
                   inkscape:connector-curvature="0"
                   d="m 27.02,32.01 3.961,0 c 0.012,0 0.02,0 0.02,0.004 l 0,1.977 c 0,0 -0.008,0.004 -0.02,0.004 l -3.961,0 C 27.008,33.995 27,33.991 27,33.991 l 0,-1.977 c 0,-0.004 0.008,-0.004 0.02,-0.004 m 0,0"
                   id="path55" />
                <path
                   style="fill:#000000;fill-opacity:0.9020004;fill-rule:nonzero;stroke:none"
                   inkscape:connector-curvature="0"
                   d="m 27.02,29.02 3.961,0 c 0.012,0 0.02,0.004 0.02,0.004 l 0,1.965 c 0,0.004 -0.008,0.004 -0.02,0.004 l -3.961,0 c -0.012,0 -0.02,0 -0.02,-0.004 l 0,-1.965 c 0,0 0.008,-0.004 0.02,-0.004 m 0,0"
                   id="path57" />
                <path
                   style="fill:#000000;fill-opacity:0.8;fill-rule:nonzero;stroke:none"
                   inkscape:connector-curvature="0"
                   d="m 27.02,26.05 3.961,0 c 0.012,0 0.02,0.004 0.02,0.004 l 0,1.957 c 0,0 -0.008,0.004 -0.02,0.004 l -3.961,0 C 27.008,28.015 27,28.011 27,28.011 l 0,-1.957 c 0,0 0.008,-0.004 0.02,-0.004 m 0,0"
                   id="path59" />
                <path
                   style="fill:#000000;fill-opacity:0.70200004;fill-rule:nonzero;stroke:none"
                   inkscape:connector-curvature="0"
                   d="m 27.02,23.05 3.961,0 c 0.012,0 0.02,0 0.02,0.004 l 0,1.941 c 0,0 -0.008,0.004 -0.02,0.004 l -3.961,0 C 27.008,24.999 27,24.995 27,24.995 l 0,-1.941 c 0,-0.004 0.008,-0.004 0.02,-0.004 m 0,0"
                   id="path61" />
                <path
                   style="fill:#000000;fill-opacity:0.6;fill-rule:nonzero;stroke:none"
                   inkscape:connector-curvature="0"
                   d="m 27.02,20.06 3.961,0 c 0.012,0 0.02,0.004 0.02,0.004 l 0,1.926 c 0,0.004 -0.008,0.004 -0.02,0.004 l -3.961,0 c -0.012,0 -0.02,0 -0.02,-0.004 l 0,-1.926 c 0,0 0.008,-0.004 0.02,-0.004 m 0,0"
                   id="path63" />
                <path
                   style="fill:#000000;fill-opacity:0.50199998;fill-rule:nonzero;stroke:none"
                   inkscape:connector-curvature="0"
                   d="m 27.02,17 3.961,0 c 0.012,0 0.02,0.004 0.02,0.004 l 0,1.992 C 31.001,19 30.993,19 30.981,19 L 27.02,19 C 27.008,19 27,19 27,18.996 l 0,-1.992 c 0,0 0.008,-0.004 0.02,-0.004 m 0,0"
                   id="path65" />
                <path
                   style="fill:#000000;fill-opacity:1;fill-rule:nonzero;stroke:none"
                   inkscape:connector-curvature="0"
                   d="m 32.02,32 3.961,0 c 0.012,0 0.02,0.004 0.02,0.004 l 0,1.992 c 0,0 -0.008,0.004 -0.02,0.004 L 32.02,34 C 32.008,34 32,33.996 32,33.996 l 0,-1.992 c 0,0 0.008,-0.004 0.02,-0.004 m 0,0"
                   id="path67" />
                <path
                   style="fill:#000000;fill-opacity:0.9020004;fill-rule:nonzero;stroke:none"
                   inkscape:connector-curvature="0"
                   d="m 32.02,29 3.961,0 c 0.012,0 0.02,0 0.02,0.004 l 0,1.98 c 0,0 -0.008,0.004 -0.02,0.004 l -3.961,0 C 32.008,30.988 32,30.984 32,30.984 l 0,-1.98 C 32,29 32.008,29 32.02,29 m 0,0"
                   id="path69" />
                <path
                   style="fill:#000000;fill-opacity:0.8;fill-rule:nonzero;stroke:none"
                   inkscape:connector-curvature="0"
                   d="m 32.02,26.02 3.961,0 c 0.012,0 0.02,0 0.02,0.004 l 0,1.965 c 0,0.004 -0.008,0.004 -0.02,0.004 l -3.961,0 c -0.012,0 -0.02,0 -0.02,-0.004 l 0,-1.965 c 0,-0.004 0.008,-0.004 0.02,-0.004 m 0,0"
                   id="path71" />
                <path
                   style="fill:#000000;fill-opacity:0.70200004;fill-rule:nonzero;stroke:none"
                   inkscape:connector-curvature="0"
                   d="m 32.02,23 3.961,0 c 0.012,0 0.02,0.004 0.02,0.004 l 0,1.953 c 0,0 -0.008,0.004 -0.02,0.004 l -3.961,0 C 32.008,24.961 32,24.957 32,24.957 l 0,-1.953 c 0,0 0.008,-0.004 0.02,-0.004 m 0,0"
                   id="path73" />
                <path
                   style="fill:#000000;fill-opacity:0.6;fill-rule:nonzero;stroke:none"
                   inkscape:connector-curvature="0"
                   d="m 32.02,20 3.961,0 c 0.012,0 0.02,0 0.02,0.004 l 0,1.941 c 0,0 -0.008,0.004 -0.02,0.004 l -3.961,0 C 32.008,21.949 32,21.945 32,21.945 l 0,-1.941 C 32,20 32.008,20 32.02,20 m 0,0"
                   id="path75" />
                <path
                   style="fill:#000000;fill-opacity:1;fill-rule:nonzero;stroke:none"
                   inkscape:connector-curvature="0"
                   d="m 22.02,32 3.957,0 c 0.012,0 0.02,0.004 0.02,0.004 l 0,1.992 c 0,0 -0.008,0.004 -0.02,0.004 l -3.957,0 c -0.012,0 -0.023,-0.004 -0.023,-0.004 l 0,-1.992 c 0,0 0.012,-0.004 0.023,-0.004 m 0,0"
                   id="path77" />
                <path
                   style="fill:#000000;fill-opacity:0.9020004;fill-rule:nonzero;stroke:none"
                   inkscape:connector-curvature="0"
                   d="m 22.02,29 3.957,0 c 0.012,0 0.02,0 0.02,0.004 l 0,1.98 c 0,0 -0.008,0.004 -0.02,0.004 l -3.957,0 c -0.012,0 -0.023,-0.004 -0.023,-0.004 l 0,-1.98 C 21.997,29 22.009,29 22.02,29 m 0,0"
                   id="path79" />
                <path
                   style="fill:#000000;fill-opacity:0.8;fill-rule:nonzero;stroke:none"
                   inkscape:connector-curvature="0"
                   d="m 22.02,26.02 3.957,0 c 0.012,0 0.02,0 0.02,0.004 l 0,1.965 c 0,0.004 -0.008,0.004 -0.02,0.004 l -3.957,0 c -0.012,0 -0.023,0 -0.023,-0.004 l 0,-1.965 c 0,-0.004 0.012,-0.004 0.023,-0.004 m 0,0"
                   id="path81" />
                <path
                   style="fill:#000000;fill-opacity:1;fill-rule:nonzero;stroke:none"
                   inkscape:connector-curvature="0"
                   d="m 12.02,32 3.957,0 c 0.012,0 0.02,0.004 0.02,0.004 l 0,1.992 c 0,0 -0.008,0.004 -0.02,0.004 l -3.957,0 c -0.012,0 -0.023,-0.004 -0.023,-0.004 l 0,-1.992 c 0,0 0.012,-0.004 0.023,-0.004 m 0,0"
                   id="path83" />
                <path
                   style="fill:#000000;fill-opacity:0.9020004;fill-rule:nonzero;stroke:none"
                   inkscape:connector-curvature="0"
                   d="m 12.02,29.02 3.957,0 c 0.012,0 0.02,0.004 0.02,0.004 l 0,1.969 c 0,0 -0.008,0 -0.02,0 l -3.957,0 c -0.012,0 -0.023,0 -0.023,0 l 0,-1.969 c 0,0 0.012,-0.004 0.023,-0.004 m 0,0"
                   id="path85" />
                <path
                   style="fill:#000000;fill-opacity:0.8;fill-rule:nonzero;stroke:none"
                   inkscape:connector-curvature="0"
                   d="m 12.02,26.04 3.957,0 c 0.012,0 0.02,0 0.02,0 l 0,1.957 c 0,0.004 -0.008,0.004 -0.02,0.004 l -3.957,0 c -0.012,0 -0.023,0 -0.023,-0.004 l 0,-1.957 c 0,0 0.012,0 0.023,0 m 0,0"
                   id="path87" />
                <path
                   style="fill:#000000;fill-opacity:0.70200004;fill-rule:nonzero;stroke:none"
                   inkscape:connector-curvature="0"
                   d="m 12.02,23.05 3.957,0 c 0.012,0 0.02,0 0.02,0.004 l 0,1.941 c 0,0 -0.008,0.004 -0.02,0.004 l -3.957,0 c -0.012,0 -0.023,-0.004 -0.023,-0.004 l 0,-1.941 c 0,-0.004 0.012,-0.004 0.023,-0.004 m 0,0"
                   id="path89" />
                <path
                   style="fill:#000000;fill-opacity:0.6;fill-rule:nonzero;stroke:none"
                   inkscape:connector-curvature="0"
                   d="m 12.02,20.06 3.957,0 c 0.012,0 0.02,0.004 0.02,0.004 l 0,1.93 c 0,0 -0.008,0 -0.02,0 l -3.957,0 c -0.012,0 -0.023,0 -0.023,0 l 0,-1.93 c 0,0 0.012,-0.004 0.023,-0.004 m 0,0"
                   id="path91" />
                <path
                   style="fill:#000000;fill-opacity:0.50199998;fill-rule:nonzero;stroke:none"
                   inkscape:connector-curvature="0"
                   d="m 12.02,17 3.957,0 c 0.012,0 0.02,0 0.02,0.004 l 0,1.988 c 0,0.004 -0.008,0.004 -0.02,0.004 l -3.957,0 c -0.012,0 -0.023,0 -0.023,-0.004 l 0,-1.988 C 11.997,17 12.009,17 12.02,17 m 0,0"
                   id="path93" />
                <path
                   style="fill:#000000;fill-opacity:0.4;fill-rule:nonzero;stroke:none"
                   inkscape:connector-curvature="0"
                   d="m 12.02,14 3.957,0 c 0.012,0 0.02,0.004 0.02,0.004 l 0,1.992 c 0,0 -0.008,0.004 -0.02,0.004 l -3.957,0 c -0.012,0 -0.023,-0.004 -0.023,-0.004 l 0,-1.992 c 0,0 0.012,-0.004 0.023,-0.004 m 0,0"
                   id="path95" />
              </g>
            </g>
          </g>
        </g>
      </g>
      <g
         transform="matrix(0.85106383,0,0,0.85106383,87.035012,43.529204)"
         id="g97">
        <g
           clip-path="url(#clipPath-863563858)"
           id="g99">
          <!-- color: #3d3d3d -->
          <g
             id="g101">
            <path
               style="fill:#e4c82f;fill-opacity:1;fill-rule:nonzero;stroke:none"
               inkscape:connector-curvature="0"
               d="m 17.02,32 3.957,0 c 0.012,0 0.02,0.004 0.02,0.004 l 0,1.992 c 0,0 -0.008,0.004 -0.02,0.004 l -3.957,0 c -0.012,0 -0.023,-0.004 -0.023,-0.004 l 0,-1.992 c 0,0 0.012,-0.004 0.023,-0.004 m 0,0"
               id="path103" />
            <path
               style="fill:#e4c82f;fill-opacity:0.9020004;fill-rule:nonzero;stroke:none"
               inkscape:connector-curvature="0"
               d="m 17.02,28.984 3.957,0 c 0.012,0 0.02,0.004 0.02,0.004 l 0,1.992 c 0,0 -0.008,0.004 -0.02,0.004 l -3.957,0 c -0.012,0 -0.023,-0.004 -0.023,-0.004 l 0,-1.992 c 0,0 0.012,-0.004 0.023,-0.004 m 0,0"
               id="path105" />
            <path
               style="fill:#e4c82f;fill-opacity:0.8;fill-rule:nonzero;stroke:none"
               inkscape:connector-curvature="0"
               d="m 17.02,26.02 3.957,0 c 0.012,0 0.02,0 0.02,0.004 l 0,1.965 c 0,0.004 -0.008,0.004 -0.02,0.004 l -3.957,0 c -0.012,0 -0.023,0 -0.023,-0.004 l 0,-1.965 c 0,-0.004 0.012,-0.004 0.023,-0.004 m 0,0"
               id="path107" />
            <path
               style="fill:#e4c82f;fill-opacity:0.70200004;fill-rule:nonzero;stroke:none"
               inkscape:connector-curvature="0"
               d="m 17.02,23 3.957,0 c 0.012,0 0.02,0.004 0.02,0.004 l 0,1.953 c 0,0 -0.008,0.004 -0.02,0.004 l -3.957,0 c -0.012,0 -0.023,-0.004 -0.023,-0.004 l 0,-1.953 c 0,0 0.012,-0.004 0.023,-0.004 m 0,0"
               id="path109" />
            <path
               style="fill:#e4c82f;fill-opacity:0.6;fill-rule:nonzero;stroke:none"
               inkscape:connector-curvature="0"
               d="m 17.02,20 3.957,0 c 0.012,0 0.02,0 0.02,0.004 l 0,1.941 c 0,0 -0.008,0.004 -0.02,0.004 l -3.957,0 c -0.012,0 -0.023,-0.004 -0.023,-0.004 l 0,-1.941 C 16.997,20 17.009,20 17.02,20 m 0,0"
               id="path111" />
            <path
               style="fill:#3e8ded;fill-opacity:1;fill-rule:nonzero;stroke:none"
               inkscape:connector-curvature="0"
               d="m 27.02,32.01 3.961,0 c 0.012,0 0.02,0 0.02,0.004 l 0,1.977 c 0,0 -0.008,0.004 -0.02,0.004 l -3.961,0 C 27.008,33.995 27,33.991 27,33.991 l 0,-1.977 c 0,-0.004 0.008,-0.004 0.02,-0.004 m 0,0"
               id="path113" />
            <path
               style="fill:#3e8ded;fill-opacity:0.9020004;fill-rule:nonzero;stroke:none"
               inkscape:connector-curvature="0"
               d="m 27.02,29.02 3.961,0 c 0.012,0 0.02,0.004 0.02,0.004 l 0,1.965 c 0,0.004 -0.008,0.004 -0.02,0.004 l -3.961,0 c -0.012,0 -0.02,0 -0.02,-0.004 l 0,-1.965 c 0,0 0.008,-0.004 0.02,-0.004 m 0,0"
               id="path115" />
            <path
               style="fill:#3e8ded;fill-opacity:0.8;fill-rule:nonzero;stroke:none"
               inkscape:connector-curvature="0"
               d="m 27.02,26.05 3.961,0 c 0.012,0 0.02,0.004 0.02,0.004 l 0,1.957 c 0,0 -0.008,0.004 -0.02,0.004 l -3.961,0 C 27.008,28.015 27,28.011 27,28.011 l 0,-1.957 c 0,0 0.008,-0.004 0.02,-0.004 m 0,0"
               id="path117" />
            <path
               style="fill:#3e8ded;fill-opacity:0.70200004;fill-rule:nonzero;stroke:none"
               inkscape:connector-curvature="0"
               d="m 27.02,23.05 3.961,0 c 0.012,0 0.02,0 0.02,0.004 l 0,1.941 c 0,0 -0.008,0.004 -0.02,0.004 l -3.961,0 C 27.008,24.999 27,24.995 27,24.995 l 0,-1.941 c 0,-0.004 0.008,-0.004 0.02,-0.004 m 0,0"
               id="path119" />
            <path
               style="fill:#3e8ded;fill-opacity:0.6;fill-rule:nonzero;stroke:none"
               inkscape:connector-curvature="0"
               d="m 27.02,20.06 3.961,0 c 0.012,0 0.02,0.004 0.02,0.004 l 0,1.926 c 0,0.004 -0.008,0.004 -0.02,0.004 l -3.961,0 c -0.012,0 -0.02,0 -0.02,-0.004 l 0,-1.926 c 0,0 0.008,-0.004 0.02,-0.004 m 0,0"
               id="path121" />
            <path
               style="fill:#3e8ded;fill-opacity:0.50199998;fill-rule:nonzero;stroke:none"
               inkscape:connector-curvature="0"
               d="m 27.02,17 3.961,0 c 0.012,0 0.02,0.004 0.02,0.004 l 0,1.992 C 31.001,19 30.993,19 30.981,19 L 27.02,19 C 27.008,19 27,19 27,18.996 l 0,-1.992 c 0,0 0.008,-0.004 0.02,-0.004 m 0,0"
               id="path123" />
            <path
               style="fill:#db4ddb;fill-opacity:1;fill-rule:nonzero;stroke:none"
               inkscape:connector-curvature="0"
               d="m 32.02,32 3.961,0 c 0.012,0 0.02,0.004 0.02,0.004 l 0,1.992 c 0,0 -0.008,0.004 -0.02,0.004 L 32.02,34 C 32.008,34 32,33.996 32,33.996 l 0,-1.992 c 0,0 0.008,-0.004 0.02,-0.004 m 0,0"
               id="path125" />
            <path
               style="fill:#db4ddb;fill-opacity:0.9020004;fill-rule:nonzero;stroke:none"
               inkscape:connector-curvature="0"
               d="m 32.02,29 3.961,0 c 0.012,0 0.02,0 0.02,0.004 l 0,1.98 c 0,0 -0.008,0.004 -0.02,0.004 l -3.961,0 C 32.008,30.988 32,30.984 32,30.984 l 0,-1.98 C 32,29 32.008,29 32.02,29 m 0,0"
               id="path127" />
            <path
               style="fill:#db4ddb;fill-opacity:0.8;fill-rule:nonzero;stroke:none"
               inkscape:connector-curvature="0"
               d="m 32.02,26.02 3.961,0 c 0.012,0 0.02,0 0.02,0.004 l 0,1.965 c 0,0.004 -0.008,0.004 -0.02,0.004 l -3.961,0 c -0.012,0 -0.02,0 -0.02,-0.004 l 0,-1.965 c 0,-0.004 0.008,-0.004 0.02,-0.004 m 0,0"
               id="path129" />
            <path
               style="fill:#db4ddb;fill-opacity:0.70200004;fill-rule:nonzero;stroke:none"
               inkscape:connector-curvature="0"
               d="m 32.02,23 3.961,0 c 0.012,0 0.02,0.004 0.02,0.004 l 0,1.953 c 0,0 -0.008,0.004 -0.02,0.004 l -3.961,0 C 32.008,24.961 32,24.957 32,24.957 l 0,-1.953 c 0,0 0.008,-0.004 0.02,-0.004 m 0,0"
               id="path131" />
            <path
               style="fill:#db4ddb;fill-opacity:0.6;fill-rule:nonzero;stroke:none"
               inkscape:connector-curvature="0"
               d="m 32.02,20 3.961,0 c 0.012,0 0.02,0 0.02,0.004 l 0,1.941 c 0,0 -0.008,0.004 -0.02,0.004 l -3.961,0 C 32.008,21.949 32,21.945 32,21.945 l 0,-1.941 C 32,20 32.008,20 32.02,20 m 0,0"
               id="path133" />
            <path
               style="fill:#7fcf5b;fill-opacity:1;fill-rule:nonzero;stroke:none"
               inkscape:connector-curvature="0"
               d="m 22.02,32 3.957,0 c 0.012,0 0.02,0.004 0.02,0.004 l 0,1.992 c 0,0 -0.008,0.004 -0.02,0.004 l -3.957,0 c -0.012,0 -0.023,-0.004 -0.023,-0.004 l 0,-1.992 c 0,0 0.012,-0.004 0.023,-0.004 m 0,0"
               id="path135" />
            <path
               style="fill:#7fcf5b;fill-opacity:0.9020004;fill-rule:nonzero;stroke:none"
               inkscape:connector-curvature="0"
               d="m 22.02,29 3.957,0 c 0.012,0 0.02,0 0.02,0.004 l 0,1.98 c 0,0 -0.008,0.004 -0.02,0.004 l -3.957,0 c -0.012,0 -0.023,-0.004 -0.023,-0.004 l 0,-1.98 C 21.997,29 22.009,29 22.02,29 m 0,0"
               id="path137" />
            <path
               style="fill:#7fcf5b;fill-opacity:0.8;fill-rule:nonzero;stroke:none"
               inkscape:connector-curvature="0"
               d="m 22.02,26.02 3.957,0 c 0.012,0 0.02,0 0.02,0.004 l 0,1.965 c 0,0.004 -0.008,0.004 -0.02,0.004 l -3.957,0 c -0.012,0 -0.023,0 -0.023,-0.004 l 0,-1.965 c 0,-0.004 0.012,-0.004 0.023,-0.004 m 0,0"
               id="path139" />
            <path
               style="fill:#c52f2f;fill-opacity:1;fill-rule:nonzero;stroke:none"
               inkscape:connector-curvature="0"
               d="m 12.02,32 3.957,0 c 0.012,0 0.02,0.004 0.02,0.004 l 0,1.992 c 0,0 -0.008,0.004 -0.02,0.004 l -3.957,0 c -0.012,0 -0.023,-0.004 -0.023,-0.004 l 0,-1.992 c 0,0 0.012,-0.004 0.023,-0.004 m 0,0"
               id="path141" />
            <path
               style="fill:#c52f2f;fill-opacity:0.9020004;fill-rule:nonzero;stroke:none"
               inkscape:connector-curvature="0"
               d="m 12.02,29.02 3.957,0 c 0.012,0 0.02,0.004 0.02,0.004 l 0,1.969 c 0,0 -0.008,0 -0.02,0 l -3.957,0 c -0.012,0 -0.023,0 -0.023,0 l 0,-1.969 c 0,0 0.012,-0.004 0.023,-0.004 m 0,0"
               id="path143" />
            <path
               style="fill:#c52f2f;fill-opacity:0.8;fill-rule:nonzero;stroke:none"
               inkscape:connector-curvature="0"
               d="m 12.02,26.04 3.957,0 c 0.012,0 0.02,0 0.02,0 l 0,1.957 c 0,0.004 -0.008,0.004 -0.02,0.004 l -3.957,0 c -0.012,0 -0.023,0 -0.023,-0.004 l 0,-1.957 c 0,0 0.012,0 0.023,0 m 0,0"
               id="path145" />
            <path
               style="fill:#c52f2f;fill-opacity:0.70200004;fill-rule:nonzero;stroke:none"
               inkscape:connector-curvature="0"
               d="m 12.02,23.05 3.957,0 c 0.012,0 0.02,0 0.02,0.004 l 0,1.941 c 0,0 -0.008,0.004 -0.02,0.004 l -3.957,0 c -0.012,0 -0.023,-0.004 -0.023,-0.004 l 0,-1.941 c 0,-0.004 0.012,-0.004 0.023,-0.004 m 0,0"
               id="path147" />
            <path
               style="fill:#c52f2f;fill-opacity:0.6;fill-rule:nonzero;stroke:none"
               inkscape:connector-curvature="0"
               d="m 12.02,20.06 3.957,0 c 0.012,0 0.02,0.004 0.02,0.004 l 0,1.93 c 0,0 -0.008,0 -0.02,0 l -3.957,0 c -0.012,0 -0.023,0 -0.023,0 l 0,-1.93 c 0,0 0.012,-0.004 0.023,-0.004 m 0,0"
               id="path149" />
            <path
               style="fill:#c52f2f;fill-opacity:0.50199998;fill-rule:nonzero;stroke:none"
               inkscape:connector-curvature="0"
               d="m 12.02,17 3.957,0 c 0.012,0 0.02,0 0.02,0.004 l 0,1.988 c 0,0.004 -0.008,0.004 -0.02,0.004 l -3.957,0 c -0.012,0 -0.023,0 -0.023,-0.004 l 0,-1.988 C 11.997,17 12.009,17 12.02,17 m 0,0"
               id="path151" />
            <path
               style="fill:#c52f2f;fill-opacity:0.4;fill-rule:nonzero;stroke:none"
               inkscape:connector-curvature="0"
               d="m 12.02,14 3.957,0 c 0.012,0 0.02,0.004 0.02,0.004 l 0,1.992 c 0,0 -0.008,0.004 -0.02,0.004 l -3.957,0 c -0.012,0 -0.023,-0.004 -0.023,-0.004 l 0,-1.992 c 0,0 0.012,-0.004 0.023,-0.004 m 0,0"
               id="path153" />
          </g>
        </g>
      </g>
      <g
         transform="matrix(0.85106383,0,0,0.85106383,87.035012,43.529204)"
         id="g155">
        <path
           style="opacity:0.1"
           inkscape:connector-curvature="0"
           d="m 40.03,7.531 c 3.712,4.084 5.969,9.514 5.969,15.469 0,12.703 -10.297,23 -23,23 C 17.045,46 11.615,43.744 7.53,40.031 11.708,44.322 17.54,47 23.999,47 c 12.703,0 23,-10.298 23,-23 0,-6.462 -2.677,-12.291 -6.969,-16.469 z"
           id="path157" />
      </g>
    </g>
  </g>
</svg>
