<?xml version="1.0" encoding="UTF-8" standalone="no"?>
<!-- Created with Inkscape (http://www.inkscape.org/) -->

<svg
   xmlns:dc="http://purl.org/dc/elements/1.1/"
   xmlns:cc="http://creativecommons.org/ns#"
   xmlns:rdf="http://www.w3.org/1999/02/22-rdf-syntax-ns#"
   xmlns:svg="http://www.w3.org/2000/svg"
   xmlns="http://www.w3.org/2000/svg"
   xmlns:sodipodi="http://sodipodi.sourceforge.net/DTD/sodipodi-0.dtd"
   xmlns:inkscape="http://www.inkscape.org/namespaces/inkscape"
   width="48"
   height="48"
   id="svg5453"
   version="1.1"
   inkscape:version="0.91 r13725"
   sodipodi:docname="freeciv-client.svg">
  <defs
     id="defs5455">
    <clipPath
       id="clipPath-122015517">
      <g
         transform="translate(0,-1004.3622)"
         id="g17">
        <path
           style="fill:#1890d0"
           inkscape:connector-curvature="0"
           d="m -24,13 c 0,1.105 -0.672,2 -1.5,2 -0.828,0 -1.5,-0.895 -1.5,-2 0,-1.105 0.672,-2 1.5,-2 0.828,0 1.5,0.895 1.5,2 z"
           transform="matrix(15.333333,0,0,11.5,414.99999,878.8622)"
           id="path19" />
      </g>
    </clipPath>
    <clipPath
       id="clipPath-107610244">
      <g
         transform="translate(0,-1004.3622)"
         id="g12">
        <path
           style="fill:#1890d0"
           inkscape:connector-curvature="0"
           d="m -24,13 c 0,1.105 -0.672,2 -1.5,2 -0.828,0 -1.5,-0.895 -1.5,-2 0,-1.105 0.672,-2 1.5,-2 0.828,0 1.5,0.895 1.5,2 z"
           transform="matrix(15.333333,0,0,11.5,414.99999,878.8622)"
           id="path14" />
      </g>
    </clipPath>
    <linearGradient
       id="linearGradient3764"
       x1="1"
       x2="47"
       gradientUnits="userSpaceOnUse"
       gradientTransform="matrix(0,-1,1,0,-1.5e-6,47.999998)">
      <stop
         stop-color="#e4e4e4"
         stop-opacity="1"
         id="stop7" />
      <stop
         offset="1"
         stop-color="#eee"
         stop-opacity="1"
         id="stop9" />
    </linearGradient>
  </defs>
  <sodipodi:namedview
     id="base"
     pagecolor="#ffffff"
     bordercolor="#666666"
     borderopacity="1.0"
     inkscape:pageopacity="0"
     inkscape:pageshadow="2"
     inkscape:zoom="8.3991681"
     inkscape:cx="46.984853"
     inkscape:cy="17.166217"
     inkscape:document-units="px"
     inkscape:current-layer="layer1"
     showgrid="false"
     fit-margin-top="0"
     fit-margin-left="0"
     fit-margin-right="0"
     fit-margin-bottom="0"
     inkscape:window-width="1920"
     inkscape:window-height="992"
     inkscape:window-x="-4"
     inkscape:window-y="26"
     inkscape:window-maximized="1"
     inkscape:showpageshadow="false"
     borderlayer="true">
    <sodipodi:guide
       position="1.1650391e-05,47.999996"
       orientation="47.999969,0"
       id="guide4063" />
    <sodipodi:guide
       position="1.1650391e-05,2.6367188e-05"
       orientation="0,48"
       id="guide4065" />
    <sodipodi:guide
       position="48.000012,2.6367188e-05"
       orientation="-47.999969,0"
       id="guide4067" />
    <sodipodi:guide
       position="48.000012,47.999996"
       orientation="0,-48"
       id="guide4069" />
    <sodipodi:guide
       position="4.0000117,43.999996"
       orientation="39.999969,0"
       id="guide4071" />
    <sodipodi:guide
       position="4.0000117,4.0000264"
       orientation="0,40"
       id="guide4073" />
    <sodipodi:guide
       position="44.000012,4.0000264"
       orientation="-39.999969,0"
       id="guide4075" />
    <sodipodi:guide
       position="44.000012,43.999996"
       orientation="0,-40"
       id="guide4077" />
  </sodipodi:namedview>
  <metadata
     id="metadata5458">
    <rdf:RDF>
      <cc:Work
         rdf:about="">
        <dc:format>image/svg+xml</dc:format>
        <dc:type
           rdf:resource="http://purl.org/dc/dcmitype/StillImage" />
        <dc:title />
      </cc:Work>
    </rdf:RDF>
  </metadata>
  <g
     inkscape:label="Capa 1"
     inkscape:groupmode="layer"
     id="layer1"
     transform="translate(-384.57143,-499.798)">
    <g
       transform="matrix(0.86956522,0,0,0.86956522,387.70187,502.92843)"
       id="g29"
       style="fill:#d0c9a6;fill-opacity:1">
      <path
         style="fill:#d0c9a6;fill-opacity:1"
         inkscape:connector-curvature="0"
         d="M 24,1 C 36.703,1 47,11.297 47,24 47,36.703 36.703,47 24,47 11.297,47 1,36.703 1,24 1,11.297 11.297,1 24,1 Z"
         id="path31" />
    </g>
    <g
       transform="matrix(1.1334845,0,0,1.1334845,381.37007,496.59664)"
       id="g55">
      <g
         clip-path="url(#clipPath-122015517)"
         id="g57">
        <!-- color: #eeeeee -->
        <g
           id="g59">
          <path
             style="fill:#b28c0b;fill-opacity:1;fill-rule:evenodd;stroke:none"
             inkscape:connector-curvature="0"
             d="M 24,9 C 15.691,9 9,15.691 9,24 9,32.309 15.691,38.996 24,38.996 32.309,38.996 38.996,32.308 38.996,24 38.996,15.691 32.308,9 24,9 m 0,1.43 c 7.48,0 13.504,6.02 13.504,13.5 l 0,0.137 c 0,7.484 -6.02,13.504 -13.504,13.504 -7.484,0 -13.531,-6.02 -13.531,-13.504 l 0,-0.137 c 0,-7.48 6.04,-13.5 13.531,-13.5 m 0,0"
             id="path61" />
          <path
             style="fill:#b28c0b;fill-opacity:1;fill-rule:evenodd;stroke:none"
             inkscape:connector-curvature="0"
             d="m 24.01,20.602 c -7.867,0 -14.281,1.801 -14.988,4.105 l 1.48,0 c 0.648,-2.07 6.438,-3.68 13.508,-3.68 7.06,0 12.824,1.609 13.477,3.68 l 1.504,0 C 38.3,22.398 31.866,20.602 24.011,20.602 m 0,0"
             id="path63" />
          <path
             style="fill:#ab9220;fill-opacity:1;fill-rule:evenodd;stroke:none"
             inkscape:connector-curvature="0"
             d="m 23.988,11.859 0.008,0 c 6.676,0 12.09,5.41 12.09,12.09 l 0,0.113 c 0,6.676 -5.41,12.09 -12.09,12.09 l -0.008,0 c -6.676,0 -12.09,-5.41 -12.09,-12.09 l 0,-0.113 c 0,-6.676 5.41,-12.09 12.09,-12.09 m 0,0"
             id="path65" />
          <path
             style="fill:#c1b059;fill-opacity:1;fill-rule:nonzero;stroke:none"
             inkscape:connector-curvature="0"
             d="m 12.484,24.672 0.125,-0.645 1.406,0.59 0.969,0.898 0.832,0.121 c -0.297,0.672 -0.898,1.762 -0.789,2.512 0.063,0.434 0.512,1.059 0.766,1.418 0.359,0.496 1.031,0.789 1.207,1.418 l 0.027,1.031 0.195,0.77 c -0.039,0.328 -0.344,0.898 -0.141,1.203 0.223,0.332 1.047,0.754 1.426,0.859 0.363,0.102 0.402,-0.277 0.254,-0.512 l 0.477,-0.656 0.602,-0.445 0.426,-1.473 0.91,-0.59 c 0.371,-0.563 0.102,-1.027 0.238,-1.602 l 0.613,-1.742 c -0.691,-0.262 -1.688,-0.582 -2.18,-1.156 l -0.125,0.063 -0.129,-0.582 -0.77,-0.387 -0.125,0.129 -0.191,-0.902 -1.027,-0.082 -0.77,-0.422 c -0.332,-0.047 -0.773,0.5 -0.898,0.762 l -0.449,-0.063 0.129,-0.129 -0.387,-0.258 0.063,0.258 c -0.277,-0.289 -0.32,-0.648 -0.254,-1.031 l -0.449,-0.195 -0.066,0.195 c -0.078,-0.32 -0.043,-0.73 0.191,-0.969 -0.348,-0.238 -0.586,-0.012 -0.832,0.262 l -0.512,-1.031 c -0.145,0.313 -0.09,0.629 -0.066,0.965 l -0.125,0 c -0.031,-0.359 -0.117,-0.754 0.063,-1.094 0.34,-0.633 1.359,-0.902 1.988,-0.773 l -0.063,0.129 0.574,0.512 c 0.004,-0.984 0.387,-1.086 0.93,-1.805 l 0.379,-0.691 C 17.348,19.067 18,18.747 18.563,18.544 l 0.711,-0.445 c -0.23,-0.395 -0.836,-0.281 -1.219,-0.258 0.691,-0.395 1.641,-0.184 2.113,-0.902 -0.52,-0.379 -0.52,-1.371 -1.348,-0.969 l 0.129,-0.387 -0.703,-0.32 -0.516,1.078 -0.703,0.852 -0.066,-0.449 c -0.273,-0.129 -1.016,-0.348 -1.035,-0.707 -0.012,-0.395 1.191,-0.98 1.484,-1.223 l -0.129,0.32 0.496,-0.047 c 0.105,-0.066 1.105,-1.484 1.234,-0.598 0.691,0.266 0.77,0.566 1.473,0.129 l -0.449,-0.195 c -0.07,-0.637 -0.633,-0.645 -1.156,-0.645 l 1.668,-0.773 c 0.184,0.457 0.77,0.555 0.957,0.973 0.137,0.297 -0.266,0.477 -0.254,0.762 0.012,0.355 0.355,0.789 0.516,1.105 l 0.965,-1.066 c 0.531,-0.285 1.391,-0.313 1.809,-0.77 0.496,-0.535 0.223,-1.391 1.137,-1.395 -0.184,-0.078 -0.488,-0.137 -0.641,0 l -0.191,-0.188 0.254,0 c -0.137,-0.191 -0.223,-0.281 -0.449,-0.32 -0.262,-0.32 -0.852,-0.172 -1.219,-0.207 -1.285,-0.121 -2.664,0.293 -3.848,0.699 -4.04,1.387 -7.656,5.848 -7.813,10.266 -0.016,0.504 0.41,0.723 0.617,1.109 l 0.074,0.688 m 17,-10.816 c -0.23,0.184 -0.613,0.273 -0.898,0.32 l -0.52,0.727 -0.613,0.508 c -0.102,0.234 0.059,0.59 0.105,0.828 l 0.641,-0.324 c 0.094,0.32 0.34,0.406 0.578,0.582 0.379,-0.727 0.055,-1.418 0.965,-1.805 l -0.578,0.711 0.191,-0.129 0.063,0.387 0.066,-0.516 c 0.168,0.582 -0.008,1.383 -0.645,1.602 l -0.641,-0.051 0,-0.391 c -0.363,0.078 -0.355,0.262 -0.254,0.582 -0.25,-0.07 -0.395,-0.059 -0.578,0.125 -0.195,-0.195 -0.355,-0.352 -0.387,-0.645 -0.125,-0.125 -0.18,-0.207 -0.191,-0.387 l -0.449,-0.066 0.191,1.031 C 26.335,16.61 26.159,16.532 25.8,16.61 l 0.191,0.773 0.258,-0.063 -0.191,-0.063 0.254,-0.453 0.129,0.711 0.578,-0.129 c -0.164,0.156 -0.293,0.191 -0.516,0.195 l 0.063,0.195 -0.32,0 0.449,0.773 c -1.051,0.004 -1.063,0.547 -1.027,1.414 0.207,0.016 0.305,0.047 0.449,0.191 0.852,-0.445 1.047,-1.277 2.051,-1.543 0.164,0.508 0.672,0.48 0.516,1.098 0.496,-0.105 0.633,-0.523 0.32,-0.902 0.422,0.25 0.543,0.77 0.836,1.156 0.203,-0.273 0.121,-0.574 0.449,-0.773 l 0,0.195 c 0.543,0.484 0.918,0.59 1.605,0.836 -0.234,0.336 -0.523,0.664 -0.965,0.637 -0.543,-0.035 -1.234,-0.563 -1.605,0.07 l -1.031,-0.82 c -0.574,-0.242 -1.137,-0.016 -1.727,-0.082 l -0.254,0.125 0.129,0.066 c -1.176,0.531 -1.824,1.93 -1.949,3.094 l -0.223,0.773 c 0.121,0.758 0.762,1.535 1.297,2.055 0.375,0.355 0.648,-0.352 1,0.008 0.477,-0.18 1.191,-0.492 1.625,0.012 0.285,0.328 -0.012,0.602 0.086,0.957 0.172,0.613 0.582,1.328 0.578,2 l -0.16,1.609 c 0.145,0.984 0.684,1.809 0.691,2.836 0.789,-0.082 1.672,-0.48 2.109,-1.16 l 0.188,-0.574 0.324,-0.395 -0.121,-0.637 c 0.184,-0.441 0.926,-0.488 1.039,-0.977 0.152,-0.66 -0.246,-1.438 -0.008,-2.125 0.363,-1.059 1.383,-1.832 1.414,-3.03 l -0.77,0.063 c 0.691,-0.852 2.156,-1.281 1.41,-2.574 l -0.324,0.387 -0.125,0 c -0.25,-0.52 -0.645,-0.578 -0.645,-1.223 0.602,0.516 1.223,0.535 1.797,1.16 0.621,-0.34 -0.004,-1.813 -0.168,-2.324 -0.566,-1.691 -1.473,-3.297 -2.723,-4.574 -0.438,-0.457 -0.805,-1 -1.473,-1.094 l 0.066,-0.195 c -0.523,-0.07 -1.398,-0.074 -1.797,-0.449 l -0.133,0 m 0,-0.008"
             id="path67" />
          <path
             style="fill:#b28c0b;fill-opacity:1;fill-rule:evenodd;stroke:none"
             inkscape:connector-curvature="0"
             d="m 9.109,24.48 c -0.043,0.137 -0.066,0.285 -0.066,0.426 0,2.504 6.668,4.512 14.949,4.512 8.281,0 14.949,-2.01 14.949,-4.512 0,-0.141 -0.023,-0.289 -0.066,-0.426 l -1.492,0 c 0.043,0.133 0.066,0.27 0.066,0.402 l 0,0.043 c 0,2.258 -6,4.066 -13.457,4.066 -7.461,0 -13.48,-1.809 -13.48,-4.066 l 0,-0.043 c 0,-0.137 0.027,-0.273 0.07,-0.402 m -1.473,0"
             id="path69" />
        </g>
      </g>
    </g>
  </g>
</svg>
