<?xml version="1.0" encoding="UTF-8" standalone="no"?>
<!-- Created using Karbon, part of Calligra: http://www.calligra.org/karbon -->

<svg
   xmlns:dc="http://purl.org/dc/elements/1.1/"
   xmlns:cc="http://creativecommons.org/ns#"
   xmlns:rdf="http://www.w3.org/1999/02/22-rdf-syntax-ns#"
   xmlns:svg="http://www.w3.org/2000/svg"
   xmlns="http://www.w3.org/2000/svg"
   xmlns:sodipodi="http://sodipodi.sourceforge.net/DTD/sodipodi-0.dtd"
   xmlns:inkscape="http://www.inkscape.org/namespaces/inkscape"
   width="38.4pt"
   height="38.4pt"
   id="svg2"
   version="1.1"
   inkscape:version="0.48.5 r10040"
   sodipodi:docname="fretsonfire.svg">
  <metadata
     id="metadata11">
    <rdf:RDF>
      <cc:Work
         rdf:about="">
        <dc:format>image/svg+xml</dc:format>
        <dc:type
           rdf:resource="http://purl.org/dc/dcmitype/StillImage" />
        <dc:title />
      </cc:Work>
    </rdf:RDF>
  </metadata>
  <sodipodi:namedview
     pagecolor="#ffffff"
     bordercolor="#666666"
     borderopacity="1"
     objecttolerance="10"
     gridtolerance="10"
     guidetolerance="10"
     inkscape:pageopacity="0"
     inkscape:pageshadow="2"
     inkscape:window-width="1920"
     inkscape:window-height="1035"
     id="namedview9"
     showgrid="false"
     inkscape:showpageshadow="false"
     borderlayer="true"
     inkscape:zoom="6.9532164"
     inkscape:cx="24.297858"
     inkscape:cy="24.178715"
     inkscape:window-x="-4"
     inkscape:window-y="29"
     inkscape:window-maximized="1"
     inkscape:current-layer="svg2">
    <sodipodi:guide
       position="9.5367432e-07,48.000001"
       orientation="47.999999,0"
       id="guide4067" />
    <sodipodi:guide
       position="9.5367432e-07,1.9073486e-06"
       orientation="0,47.999999"
       id="guide4069" />
    <sodipodi:guide
       position="48,1.9073486e-06"
       orientation="-47.999999,0"
       id="guide4071" />
    <sodipodi:guide
       position="48,48.000001"
       orientation="0,-47.999999"
       id="guide4073" />
    <sodipodi:guide
       position="4.000001,44.000001"
       orientation="39.999999,0"
       id="guide4133" />
    <sodipodi:guide
       position="4.000001,4.0000019"
       orientation="0,39.999999"
       id="guide4135" />
    <sodipodi:guide
       position="44,4.0000019"
       orientation="-39.999999,0"
       id="guide4137" />
    <sodipodi:guide
       position="44,44.000001"
       orientation="0,-39.999999"
       id="guide4139" />
  </sodipodi:namedview>
  <defs
     id="defs4">
    <inkscape:path-effect
       deactivate_knotholder="false"
       is_visible="true"
       effect="spiro"
       id="path-effect3709" />
    <inkscape:path-effect
       deactivate_knotholder="false"
       is_visible="true"
       effect="spiro"
       id="path-effect3695" />
  </defs>
  <rect
     style="fill:#696969;fill-rule:evenodd;stroke:none;fill-opacity:1"
     y="4.000001"
     x="4.000001"
     ry="20"
     height="40"
     width="40"
     stroke-miterlimit="2.01260185242"
     id="shape01" />
  <path
     inkscape:connector-curvature="0"
     sodipodi:nodetypes="cccccccccscccccccccccccsccccccccsssccsccsscscsssccsccccssscccscsssccccscsccssccccccscssccccsccscccccccccccccccccccccccccccscccscccc"
     id="path3852"
     style="font-size:144px;font-style:normal;font-weight:normal;fill:#ff4500;fill-opacity:1;stroke:#ffad00;stroke-width:0.65179956;stroke-linecap:butt;stroke-linejoin:miter;stroke-miterlimit:4;stroke-opacity:1;stroke-dasharray:none;display:inline;font-family:Seaweed Fire AOE"
     d="m 31.37472,18.391094 c -0.13929,0.19344 -0.43045,0.4404 -0.87345,0.74088 -0.24375,0.0424 -0.63201,-0.0273 -1.16479,-0.20924 -0.30855,-0.17297 -0.53102,-0.67218 -0.6674,-1.49762 -0.0922,-0.62241 -0.60701,-0.94468 -1.54447,-0.96682 -0.36463,0.1209 -0.92305,0.22599 -1.67526,0.31528 -0.79733,-0.16459 -1.67502,-0.26414 -2.63308,-0.29866 -1.03953,-0.0331 -1.69014,0.0417 -1.95183,0.22452 -0.6237,0.45644 -0.88244,0.81109 -0.77624,1.06394 0.1478,0.30312 0.33371,0.45275 0.55774,0.44888 0.10182,-0.001 0.21296,-0.0546 0.33341,-0.15854 -0.0558,0.30663 -0.32162,0.84605 -0.79729,1.61828 -0.41655,0.65664 -0.58003,1.21978 -0.49049,1.68941 0.0431,0.13937 0.19905,0.32134 0.46774,0.54595 0.81178,-0.17947 1.45715,-0.55986 1.9361,-1.14117 0.15855,-0.25739 0.30747,-0.4828 0.44676,-0.67623 -0.0977,0.24365 -0.2466,0.46907 -0.44676,0.67623 -1.12917,1.86596 -1.66477,3.30145 -1.60678,4.30648 0.026,0.33068 0.37696,0.59846 1.05276,0.80334 1.36449,-0.0234 2.2065,-0.2225 2.52602,-0.59731 0.12,-0.1294 0.52527,-0.84949 1.2158,-2.16032 0.47412,-0.86135 1.13538,-1.50307 1.98376,-1.92516 -0.20039,0.19448 -0.40877,0.51643 -0.62513,0.96584 -0.0591,0.11565 -0.0877,0.23075 -0.0858,0.34531 0.003,0.17825 0.10881,0.40566 0.31728,0.68224 0.24984,0.3141 0.39633,0.54081 0.43948,0.68014 0.0251,0.27975 -0.0124,1.05722 -0.11277,2.33241 -0.0857,0.94386 0.009,1.71269 0.28404,2.3065 0.27589,0.64476 -0.0124,1.05722 -0.86494,1.23739 -0.54988,0.009 -0.97887,-0.0596 -1.28697,-0.20715 -0.6854,-0.76505 -1.09018,-1.20382 -1.21433,-1.31632 -0.59892,-0.47363 -1.28543,-0.71018 -2.05954,-0.70964 -0.81267,0.12857 -1.21365,0.50476 -1.20293,1.12857 0.002,0.10186 0.0146,0.26401 0.0389,0.48644 0.0242,0.22245 0.0372,0.3846 0.0389,0.48644 0.004,0.2419 -0.0332,0.43993 -0.11203,0.59409 -0.23675,0.4498 -0.31824,1.04336 -0.24447,1.7807 0.0675,0.36817 0.26407,0.54945 0.58993,0.54385 0.12219,-0.002 0.2642,-0.0363 0.42604,-0.10282 0.0278,0.43252 -0.0639,1.02626 -0.27501,1.78123 -0.21027,0.80591 -0.31223,1.39347 -0.30588,1.76266 0.006,0.35648 0.073,0.6928 0.20065,1.00897 0.10641,0.26561 0.40271,0.31784 0.88887,0.15667 0.34314,-0.18417 0.55585,-0.55076 0.63811,-1.09978 0.0822,-0.549 0.31531,-0.91594 0.69921,-1.10082 -0.0591,0.11563 -0.0875,0.24347 -0.0851,0.3835 0.004,0.2419 0.13892,0.67575 0.40431,1.30157 0.26537,0.62582 0.4009,1.10424 0.40659,1.43525 0.007,0.43285 -0.13888,0.81104 -0.43889,1.13456 -0.34208,0.24783 -0.83864,0.39644 -1.48968,0.44581 -0.61053,0.036 -1.14119,-0.0218 -1.59196,-0.17326 -0.45078,-0.15144 -1.06334,-0.23325 -1.83767,-0.24545 -0.63178,-0.0147 -1.26345,-0.0228 -1.89499,-0.0248 -0.51046,-0.0676 -1.02081,-0.12893 -1.53104,-0.18385 -0.59258,-0.10444 -0.96276,-0.30822 -1.11056,-0.61132 -0.10511,-0.18922 -0.15974,-0.40477 -0.16389,-0.64666 -0.004,-0.25462 0.0703,-0.65068 0.22407,-1.18819 0.15375,-0.5375 0.22834,-0.93993 0.22375,-1.20728 -0.006,-0.31827 -0.0918,-0.60333 -0.25914,-0.85516 0.37554,0.5157 0.78676,1.33003 1.23367,2.44302 0.33066,0.2745 0.62672,0.31399 0.8882,0.11848 0.3585,-0.47734 0.61524,-1.24583 0.77022,-2.30549 0.15497,-1.05964 0.38138,-1.81488 0.67923,-2.26572 0.037,-0.21712 0.0536,-0.44026 0.0496,-0.66943 -0.0112,-0.64928 -0.23141,-1.61334 -0.66078,-2.89221 -0.42938,-1.27883 -0.64965,-2.2429 -0.66078,-2.89221 -0.0114,-0.662 0.13078,-1.28208 0.42644,-1.86024 -0.1045,1.03334 0.18103,1.64608 0.8566,1.83823 l 0.33177,-0.25402 c 0.0111,-1.73211 -0.28653,-3.04506 -0.89264,-3.93886 -0.52269,-0.78057 -0.78458,-1.20269 -0.78567,-1.26637 -0.006,-0.31825 0.31678,-0.5339 0.96674,-0.64696 0.0589,-0.12834 0.0874,-0.24981 0.0854,-0.36442 -0.005,-0.28006 -0.22421,-0.60102 -0.65823,-0.96291 -0.57899,-0.49944 -0.91019,-0.80575 -0.99361,-0.91897 -0.90811,-0.6848 -1.37003,-1.48553 -1.38575,-2.4022 -0.006,-0.33098 0.0495,-0.67577 0.16559,-1.03437 0.0773,-0.24326 0.33661,-0.56608 0.77788,-0.96846 0.64511,-0.44883 0.96711,-0.94524 1.22464,-1.64471 -0.29264,1.09892 -0.69602,2.16476 0.0551,3.20824 0.72197,0.5225 1.78306,0.62527 3.18328,0.30832 0.71017,-0.16498 1.55974,-0.51702 2.54871,-1.05615 1.31176,-0.7229 2.09913,-1.13756 2.36215,-1.24398 -0.72596,0.43274 -1.08589,0.82733 -1.07976,1.18377 0.002,0.10187 0.0339,0.19683 0.0965,0.28487 0.55708,0.41072 1.30404,0.60803 2.24088,0.59193 0.52949,-0.009 1.02714,-0.094 1.49294,-0.25485 1.01259,-0.34846 2.16186,-1.04312 3.44781,-2.08401 1.40614,-1.15749 2.48315,-1.90823 3.23102,-2.2522 l -2.91691,8.09212 z m -0.31648,-4.19707 c -0.003,-0.15274 -0.14651,-0.22668 -0.4316,-0.22182 -0.30552,0.006 -0.52789,0.1046 -0.66716,0.29799 -0.20171,0.1181 -0.20927,0.27105 -0.0227,0.45885 0.26541,0.0337 0.51937,-0.006 0.76192,-0.11815 0.24252,-0.11238 0.36236,-0.25133 0.35954,-0.41687 l 0,0 z m -0.96943,2.27071 c -2.5e-4,-0.0127 -0.12341,-0.0679 -0.36953,-0.16558 -0.18287,0.0286 -0.272,0.17661 -0.26741,0.44395 0.0219,0.0888 0.1754,0.13072 0.46053,0.12581 0.16094,-0.11735 0.21975,-0.25208 0.17641,-0.40418 l 0,0 z m -7.08557,-1.55941 c -0.1233,-0.0615 -0.22534,-0.0725 -0.30613,-0.0329 -0.0806,0.0524 -0.0998,0.12272 -0.0575,0.21111 0.16271,-0.0155 0.28391,-0.0749 0.36364,-0.17816 l 0,0 z m -5.40881,1.7738 c -0.14584,-0.18849 -0.36099,-0.26121 -0.64546,-0.21814 -0.20278,0.0545 -0.30155,0.23443 -0.2963,0.53994 0.0629,0.10082 0.13575,0.19509 0.21875,0.28279 0.104,0.12558 0.25752,0.16752 0.46052,0.12581 0.12132,-0.053 0.20881,-0.29646 0.26249,-0.7304 l 0,0 z m 7.39887,10.91416 c -0.003,-0.15276 -0.17683,-0.21345 -0.5226,-0.18206 -0.0202,0.0131 0.012,0.10806 0.0966,0.28488 0.22641,0.13621 0.36843,0.10193 0.42604,-0.10282 l 0,0 z m -4.31435,10.35106 c -0.0429,-0.12661 -0.16675,-0.22 -0.37149,-0.28017 -0.0598,0.0774 -0.0481,0.1632 0.0349,0.25728 0.0831,0.0941 0.19528,0.10172 0.33653,0.0229 l 0,0 z m -2.87943,-0.40905 c -0.18526,-0.11143 -0.33877,-0.15337 -0.46052,-0.12582 -10e-6,10e-6 -0.10994,0.12288 -0.32981,0.3686 0.0841,0.15138 0.27854,0.20535 0.58337,0.16191 0.18154,-0.10498 0.25053,-0.23988 0.20696,-0.40469 l 0,0 z" />
</svg>
