<?xml version="1.0" encoding="UTF-8" standalone="no"?>
<!-- Created with Inkscape (http://www.inkscape.org/) -->

<svg
   xmlns:dc="http://purl.org/dc/elements/1.1/"
   xmlns:cc="http://creativecommons.org/ns#"
   xmlns:rdf="http://www.w3.org/1999/02/22-rdf-syntax-ns#"
   xmlns:svg="http://www.w3.org/2000/svg"
   xmlns="http://www.w3.org/2000/svg"
   xmlns:sodipodi="http://sodipodi.sourceforge.net/DTD/sodipodi-0.dtd"
   xmlns:inkscape="http://www.inkscape.org/namespaces/inkscape"
   width="48"
   height="48"
   id="svg2"
   version="1.1"
   inkscape:version="0.48.5 r10040"
   sodipodi:docname="gaimphone.svg">
  <defs
     id="defs4">
    <linearGradient
       id="linearGradient4115">
      <stop
         id="stop4117"
         offset="0"
         style="stop-color:#dcbff9;stop-opacity:1" />
      <stop
         id="stop4119"
         offset="1"
         style="stop-color:#fdf7fd;stop-opacity:1" />
    </linearGradient>
    <linearGradient
       id="linearGradient857">
      <stop
         style="stop-color:#933aeb;stop-opacity:1"
         offset="0"
         id="stop859" />
      <stop
         style="stop-color:#df55e1;stop-opacity:1"
         offset="1"
         id="stop861" />
    </linearGradient>
  </defs>
  <sodipodi:namedview
     id="base"
     pagecolor="#ffffff"
     bordercolor="#666666"
     borderopacity="1.0"
     inkscape:pageopacity="0.0"
     inkscape:pageshadow="2"
     inkscape:zoom="4"
     inkscape:cx="8.272368"
     inkscape:cy="35.191879"
     inkscape:document-units="px"
     inkscape:current-layer="layer1"
     showgrid="false"
     inkscape:window-width="1920"
     inkscape:window-height="1035"
     inkscape:window-x="-4"
     inkscape:window-y="29"
     inkscape:window-maximized="1">
    <inkscape:grid
       type="xygrid"
       id="grid3850" />
    <sodipodi:guide
       position="4,44.000017"
       orientation="40,0"
       id="guide4082" />
    <sodipodi:guide
       position="4,4.0000174"
       orientation="0,40"
       id="guide4084" />
    <sodipodi:guide
       position="44,4.0000174"
       orientation="-40,0"
       id="guide4086" />
    <sodipodi:guide
       position="44,44.000017"
       orientation="0,-40"
       id="guide4088" />
    <sodipodi:guide
       position="9,39.000017"
       orientation="30,0"
       id="guide4094" />
    <sodipodi:guide
       position="9,9.0000174"
       orientation="0,30"
       id="guide4096" />
    <sodipodi:guide
       position="39,9.0000174"
       orientation="-30,0"
       id="guide4098" />
    <sodipodi:guide
       position="39,39.000017"
       orientation="0,-30"
       id="guide4100" />
    <sodipodi:guide
       position="15,33.000017"
       orientation="18,0"
       id="guide4102" />
    <sodipodi:guide
       position="15,15.000017"
       orientation="0,18"
       id="guide4104" />
    <sodipodi:guide
       position="33,15.000017"
       orientation="-18,0"
       id="guide4106" />
    <sodipodi:guide
       position="33,33.000017"
       orientation="0,-18"
       id="guide4108" />
    <sodipodi:guide
       position="9,36.750017"
       orientation="14.5,0"
       id="guide4118" />
    <sodipodi:guide
       position="9,22.250017"
       orientation="0,30"
       id="guide4120" />
    <sodipodi:guide
       position="39,22.250017"
       orientation="-14.5,0"
       id="guide4122" />
    <sodipodi:guide
       position="39,36.750017"
       orientation="0,-30"
       id="guide4124" />
  </sodipodi:namedview>
  <metadata
     id="metadata7">
    <rdf:RDF>
      <cc:Work
         rdf:about="">
        <dc:format>image/svg+xml</dc:format>
        <dc:type
           rdf:resource="http://purl.org/dc/dcmitype/StillImage" />
        <dc:title />
      </cc:Work>
    </rdf:RDF>
  </metadata>
  <g
     inkscape:label="Capa 1"
     inkscape:groupmode="layer"
     id="layer1"
     transform="translate(0,-1004.3622)">
    <rect
       style="fill:#ffd700;fill-opacity:1;stroke:none"
       id="rect4112"
       width="40"
       height="29"
       x="4"
       y="1008.3622" />
    <path
       style="fill:#e7c400;stroke:none;stroke-width:1px;stroke-linecap:butt;stroke-linejoin:miter;stroke-opacity:1;fill-opacity:1"
       d="m 33,1048.3622 11,-11 -11,0 z"
       id="path4114"
       inkscape:connector-curvature="0" />
    <circle
       style="fill:#ecf0f1;fill-opacity:1;stroke:none"
       id="path4126"
       cx="12.500002"
       cy="1022.8622"
       r="3.5"
       d="m 16.000002,1022.8622 c 0,1.933 -1.567003,3.5 -3.5,3.5 -1.932997,0 -3.5000001,-1.567 -3.5000001,-3.5 0,-1.933 1.5670031,-3.5 3.5000001,-3.5 1.932997,0 3.5,1.567 3.5,3.5 z" />
    <circle
       r="3.5"
       cy="1022.8622"
       cx="24"
       id="circle4128"
       style="fill:#ecf0f1;fill-opacity:1;stroke:none"
       d="m 27.5,1022.8622 c 0,1.933 -1.567003,3.5 -3.5,3.5 -1.932997,0 -3.5,-1.567 -3.5,-3.5 0,-1.933 1.567003,-3.5 3.5,-3.5 1.932997,0 3.5,1.567 3.5,3.5 z" />
    <circle
       style="fill:#ecf0f1;fill-opacity:1;stroke:none"
       id="circle4130"
       cx="35.500008"
       cy="1022.8622"
       r="3.5"
       d="m 39.000008,1022.8622 c 0,1.933 -1.567004,3.5 -3.5,3.5 -1.932997,0 -3.5,-1.567 -3.5,-3.5 0,-1.933 1.567003,-3.5 3.5,-3.5 1.932996,0 3.5,1.567 3.5,3.5 z" />
    <path
       inkscape:connector-curvature="0"
       id="path4128-0-9"
       d="m 14.499575,1016.8029 c -0.51596,0 -7.532738,2.8526 -7.961097,3.2398 -0.50991,0.461 0.06547,3.6842 1.272939,7.1264 2.735273,7.7991 9.780325,14.895 17.714592,17.8427 2.298496,0.8539 6.75794,1.9273 7.380761,1.7769 0.183063,-0.044 1.077561,-1.9082 1.988376,-4.1435 l 0.0019,0 c 0.910819,-2.2353 1.655393,-4.1098 1.655393,-4.1662 0,-0.056 -2.045378,-1.1171 -4.545671,-2.3571 l -4.545663,-2.2544 -2.182457,2.1402 -2.18055,2.1383 -1.371879,-0.9417 c -1.545872,-1.0602 -5.133634,-4.6677 -6.094504,-6.1295 L 15,1030.1122 l 2.155813,-2.1555 2.155814,-2.1535 -2.27759,-4.4992 c -1.252889,-2.4746 -2.393115,-4.5003 -2.534462,-4.5011 z"
       style="fill:#76bd74;fill-opacity:1"
       sodipodi:nodetypes="cccscccscccccccccccc" />
  </g>
</svg>
