<?xml version="1.0" encoding="UTF-8" standalone="no"?>
<!-- Created with Inkscape (http://www.inkscape.org/) -->

<svg
   xmlns:dc="http://purl.org/dc/elements/1.1/"
   xmlns:cc="http://creativecommons.org/ns#"
   xmlns:rdf="http://www.w3.org/1999/02/22-rdf-syntax-ns#"
   xmlns:svg="http://www.w3.org/2000/svg"
   xmlns="http://www.w3.org/2000/svg"
   xmlns:sodipodi="http://sodipodi.sourceforge.net/DTD/sodipodi-0.dtd"
   xmlns:inkscape="http://www.inkscape.org/namespaces/inkscape"
   width="48"
   height="48"
   id="svg2"
   version="1.1"
   inkscape:version="0.48.5 r10040"
   viewBox="0 0 13.546666 13.546668"
   sodipodi:docname="galleon.svg">
  <defs
     id="defs4" />
  <sodipodi:namedview
     id="base"
     pagecolor="#ffffff"
     bordercolor="#666666"
     borderopacity="1.0"
     inkscape:pageopacity="0"
     inkscape:pageshadow="2"
     inkscape:zoom="10.875"
     inkscape:cx="-31.878748"
     inkscape:cy="12.581005"
     inkscape:document-units="px"
     inkscape:current-layer="layer1"
     showgrid="false"
     inkscape:showpageshadow="false"
     borderlayer="true"
     units="px"
     fit-margin-top="0"
     fit-margin-left="0"
     fit-margin-right="0"
     fit-margin-bottom="0"
     showguides="true"
     inkscape:window-width="1920"
     inkscape:window-height="1035"
     inkscape:window-x="-4"
     inkscape:window-y="29"
     inkscape:window-maximized="1">
    <sodipodi:guide
       position="-6.6748425e-06,47.999999"
       orientation="47.999977,0"
       id="guide4120" />
    <sodipodi:guide
       position="-6.6748425e-06,2.2810037e-05"
       orientation="0,48.000004"
       id="guide4122" />
    <sodipodi:guide
       position="47.999997,2.2810037e-05"
       orientation="-47.999977,0"
       id="guide4124" />
    <sodipodi:guide
       position="47.999997,47.999999"
       orientation="0,-48.000004"
       id="guide4126" />
    <sodipodi:guide
       position="3.9999733,44.000154"
       orientation="39.999962,0"
       id="guide4138" />
    <sodipodi:guide
       position="3.9999733,4.0001921"
       orientation="0,40.000003"
       id="guide4140" />
    <sodipodi:guide
       position="43.999976,4.0001921"
       orientation="-39.999962,0"
       id="guide4142" />
    <sodipodi:guide
       position="43.999976,44.000154"
       orientation="0,-40.000003"
       id="guide4144" />
    <sodipodi:guide
       position="6.9999922,47.999999"
       orientation="39.999962,0"
       id="guide4148" />
    <sodipodi:guide
       position="6.9999922,8.0000369"
       orientation="0,34.000006"
       id="guide4150" />
    <sodipodi:guide
       position="40.999998,8.0000369"
       orientation="-39.999962,0"
       id="guide4152" />
    <sodipodi:guide
       position="40.999998,47.999999"
       orientation="0,-34.000006"
       id="guide4154" />
    <sodipodi:guide
       position="14.999993,32.999986"
       orientation="17.999951,0"
       id="guide4158" />
    <sodipodi:guide
       position="14.999993,15.000036"
       orientation="0,17.999998"
       id="guide4160" />
    <sodipodi:guide
       position="32.999991,15.000036"
       orientation="-17.999951,0"
       id="guide4162" />
    <sodipodi:guide
       position="32.999991,32.999986"
       orientation="0,-17.999998"
       id="guide4164" />
    <sodipodi:guide
       position="1.9999969,44.000046"
       orientation="39.999962,0"
       id="guide3279" />
    <sodipodi:guide
       position="1.9999969,4.0000839"
       orientation="0,44.000003"
       id="guide3281" />
    <sodipodi:guide
       position="46,4.0000839"
       orientation="-39.999962,0"
       id="guide3283" />
    <sodipodi:guide
       position="46,44.000046"
       orientation="0,-44.000003"
       id="guide3285" />
  </sodipodi:namedview>
  <metadata
     id="metadata7">
    <rdf:RDF>
      <cc:Work
         rdf:about="">
        <dc:format>image/svg+xml</dc:format>
        <dc:type
           rdf:resource="http://purl.org/dc/dcmitype/StillImage" />
        <dc:title />
      </cc:Work>
    </rdf:RDF>
  </metadata>
  <g
     inkscape:label="Capa 1"
     inkscape:groupmode="layer"
     id="layer1"
     transform="translate(38.119153,-397.84494)">
    <rect
       style="fill:#e74c3c;fill-opacity:1;stroke:none"
       id="rect4118"
       width="11.288891"
       height="11.288879"
       x="-36.990273"
       y="398.97379"
       ry="5.6444397" />
    <path
       d="m -33.462405,409.92997 c -0.03975,-0.0344 -0.296921,-0.15526 -0.571485,-0.26876 -0.397553,-0.16432 -0.656673,-0.35689 -1.272477,-0.94567 -0.780177,-0.74594 -0.926978,-0.96805 -0.931895,-1.41 -0.0015,-0.13333 -0.05163,-0.3279 -0.111426,-0.43252 -0.161194,-0.28198 -0.138626,-0.3209 0.111159,-0.19173 0.123906,0.0641 0.318241,0.27893 0.431854,0.47747 0.338968,0.59232 0.854686,1.15065 1.42788,1.54585 1.170824,0.80724 2.108669,1.10314 3.27871,1.03444 1.7947,-0.10533 3.281531,-1.0342 4.124179,-2.57637 0.590845,-1.08135 0.668941,-1.37718 0.668941,-2.53407 0,-0.83359 -0.02792,-1.07278 -0.177652,-1.52164 -0.305891,-0.91702 -0.607042,-1.40102 -1.302209,-2.09286 -1.071388,-1.06627 -2.076483,-1.48256 -3.579543,-1.48256 -1.497423,0 -2.549543,0.44059 -3.616639,1.51452 -0.961982,0.96815 -1.387646,1.9363 -1.458042,3.31626 -0.08665,1.69865 0.267057,2.01635 1.730299,1.55411 0.661665,-0.20902 0.787259,-0.32786 0.186673,-0.17662 -0.405662,0.10214 -0.346168,0.14787 -0.746004,-0.57341 l -0.213772,-0.38564 0.197379,-0.16979 c 0.10856,-0.0933 0.598475,-0.29257 1.088706,-0.44263 2.524884,-0.77284 2.549299,-0.7837 4.200863,-1.87188 0.606747,-0.39977 1.210851,-0.78225 1.34245,-0.84996 0.298295,-0.15347 0.848524,-0.28076 0.985857,-0.22805 0.194942,0.0748 0.399135,0.5202 0.597221,1.30266 0.478766,1.89122 0.28294,3.65256 -0.573187,5.15541 -0.58232,1.02223 -1.284955,1.38292 -2.54002,1.30391 -1.059789,-0.0667 -1.590796,-0.28388 -2.989975,-1.22276 -0.919566,-0.61704 -1.481015,-0.8407 -1.908968,-0.7604 -0.261976,0.0492 -0.262277,0.0489 -0.213155,-0.19676 l 0.0492,-0.24596 -0.360898,0.0483 c -0.464293,0.0621 -0.971577,-0.17828 -1.196052,-0.56668 -0.136431,-0.23605 -0.189368,-0.29287 -0.185649,-1.30455 0.0037,-1.01554 0.0616,-1.30842 0.235068,-1.82748 0.280947,-0.84065 0.690168,-1.52401 1.292109,-2.15771 1.192128,-1.25501 2.716808,-1.86556 4.398037,-1.76115 0.91222,0.0567 1.466103,0.20391 2.285267,0.60756 0.516338,0.25443 0.786294,0.4567 1.339265,1.00345 0.765087,0.75646 1.142763,1.35212 1.463333,2.30785 0.17668,0.52676 0.249538,0.76454 0.249382,1.8295 -1.32e-4,1.07991 -0.07139,1.16361 -0.2595,1.72099 -0.112972,0.33476 -0.289347,0.7456 -0.391929,0.91298 -0.102586,0.16738 -0.271132,0.45839 -0.374556,0.6467 -0.278136,0.5064 -1.068778,1.24083 -1.757868,1.63288 l -1.232768,0.49712 -1.500976,0.1184 c -1.174757,0 -2.177431,-0.29837 -2.217185,-0.33269 z m 4.846412,-1.79096 c 0.412427,-0.19641 0.818452,-0.59535 1.056153,-1.03775 0.05871,-0.1092 0.106479,-0.45646 0.112266,-0.81577 0.0073,-0.45964 0.04283,-0.66179 0.133563,-0.76206 0.320393,-0.35402 0.346596,-1.87294 0.04788,-2.77545 -0.0792,-0.23928 -0.144002,-0.54224 -0.144002,-0.67324 0,-0.13094 -0.05525,-0.3546 -0.122786,-0.49692 -0.09829,-0.20714 -0.167092,-0.25878 -0.344809,-0.25878 -0.347613,0 -0.653679,0.16028 -1.668908,0.87395 -1.1992,0.84298 -2.249762,1.34707 -4.047395,1.94204 -0.785854,0.26011 -1.502674,0.53271 -1.592935,0.6058 l -0.164113,0.13294 0.287014,0.39098 c 0.317256,0.4322 0.303683,0.4258 0.648373,0.30564 0.409566,-0.14277 1.463298,0.0343 2.3158,0.38906 0.398873,0.16601 0.859931,0.32337 1.024573,0.34969 0.619898,0.0991 1.632434,-0.27106 2.265475,-0.82831 0.184369,-0.16228 0.315935,-0.32626 0.292367,-0.3644 -0.02357,-0.0381 0.0208,-0.0693 0.09859,-0.0693 0.07779,0 0.184823,-0.0428 0.237855,-0.0951 0.07728,-0.0763 0.117573,-0.0664 0.202983,0.0492 0.138087,0.18706 0.07257,0.28634 -0.151804,0.23003 -0.146408,-0.0368 -0.276665,0.0544 -0.737129,0.51541 -0.64605,0.64693 -1.228494,0.97422 -1.733692,0.97422 -0.258529,0 -0.542623,-0.10453 -1.240566,-0.45649 -0.979493,-0.49394 -1.231053,-0.54103 -1.769508,-0.33126 -0.167379,0.0652 -0.407035,0.12614 -0.532569,0.13543 -0.285894,0.0211 -0.720549,0.30179 -0.935111,0.6038 -0.186936,0.26313 -0.172353,0.32512 0.04865,0.20684 0.548737,-0.29367 2.346202,0.18493 3.599264,0.95837 0.704223,0.43468 1.149806,0.56578 1.814023,0.53372 0.420943,-0.0203 0.683369,-0.0812 1.000504,-0.23226 z m -2.321757,-2.4053 c -0.592915,-0.18916 -1.156266,-0.85366 -1.052459,-1.24145 0.04088,-0.15273 0.04932,-0.14727 0.09295,0.0603 0.02639,0.12546 0.08773,0.30221 0.136314,0.39262 0.115893,0.21568 0.553283,0.48231 0.791195,0.48231 0.221066,0 0.440278,-0.21419 0.440278,-0.4302 0,-0.18928 0.302477,-0.48239 0.499432,-0.48395 0.275345,-0.003 0.361177,-0.1148 0.307095,-0.40313 -0.07417,-0.39536 -0.475632,-0.71791 -0.977312,-0.78521 -0.37152,-0.0499 -0.383916,-0.058 -0.175113,-0.1144 0.378055,-0.10214 0.937269,0.1016 1.143759,0.41674 0.06301,0.0961 0.144441,0.33478 0.180957,0.53023 0.05649,0.30237 0.04032,0.40691 -0.108413,0.70068 -0.09615,0.18991 -0.160212,0.42579 -0.142373,0.52416 0.01784,0.0984 -0.01521,0.21841 -0.07345,0.26675 -0.14307,0.1188 -0.793479,0.17048 -1.062849,0.0845 z m -0.08081,-1.11054 c -0.140196,-0.14019 -0.147799,-0.21808 -0.0408,-0.41802 0.08804,-0.16449 0.374906,-0.19562 0.514676,-0.0559 0.139769,0.13977 0.108639,0.42665 -0.05587,0.51468 -0.199932,0.10693 -0.277817,0.0993 -0.418015,-0.0408 z m 0.214671,-0.22903 c 0.08055,-0.20991 0.05304,-0.28439 -0.06795,-0.18399 -0.124546,0.10334 -0.155038,0.30434 -0.04617,0.30434 0.03737,0 0.08872,-0.0541 0.114119,-0.1204 z m -4.090115,1.83286 c 0.419169,-0.17515 0.26264,-0.21447 -0.267244,-0.0672 -0.376683,0.10466 -0.521572,0.11333 -0.751465,0.0445 l -0.284807,-0.0852 0.189313,0.15657 c 0.214279,0.17722 0.615514,0.1597 1.114203,-0.0487 z"
       id="path2386"
       sodipodi:nodetypes="cssssssssssssssssscccssssssssscccsssssssssssscccccssssssssscccssssssssssssssssssccssssssssssssssccsssccssccscccc"
       style="fill:#daf06d;fill-opacity:1"
       inkscape:connector-curvature="0" />
  </g>
</svg>
