<?xml version="1.0" encoding="UTF-8" standalone="no"?>
<!-- Created with Inkscape (http://www.inkscape.org/) -->

<svg
   xmlns:a="http://ns.adobe.com/AdobeSVGViewerExtensions/3.0/"
   xmlns:dc="http://purl.org/dc/elements/1.1/"
   xmlns:cc="http://creativecommons.org/ns#"
   xmlns:rdf="http://www.w3.org/1999/02/22-rdf-syntax-ns#"
   xmlns:svg="http://www.w3.org/2000/svg"
   xmlns="http://www.w3.org/2000/svg"
   xmlns:xlink="http://www.w3.org/1999/xlink"
   xmlns:sodipodi="http://sodipodi.sourceforge.net/DTD/sodipodi-0.dtd"
   xmlns:inkscape="http://www.inkscape.org/namespaces/inkscape"
   width="48"
   height="48"
   id="svg2"
   version="1.1"
   inkscape:version="0.48.5 r10040"
   sodipodi:docname="gda-browser-5.0.svg"
   inkscape:export-filename="/home/uri/workspace/NitruxforAndroid/res/drawable-xhdpi/flash_settings.png"
   inkscape:export-xdpi="180"
   inkscape:export-ydpi="180">
  <defs
     id="defs4">
    <linearGradient
       inkscape:collect="always"
       xlink:href="#XMLID_87_"
       id="linearGradient8986"
       gradientUnits="userSpaceOnUse"
       gradientTransform="matrix(2.9488204,0.01356457,-0.01356457,2.9488204,-127.17524,-295.67976)"
       x1="82.511002"
       y1="213.66991"
       x2="91.114304"
       y2="222.5916" />
    <linearGradient
       x1="82.511002"
       y1="213.66991"
       x2="91.114304"
       y2="222.5916"
       id="XMLID_87_"
       gradientUnits="userSpaceOnUse"
       gradientTransform="matrix(1,0.0046,-0.0046,1,1.194,-1.0432)">
      <stop
         id="stop3157"
         style="stop-color:#ffffff;stop-opacity:1"
         offset="0" />
      <stop
         id="stop3159-1"
         style="stop-color:#ecf5fe;stop-opacity:1"
         offset="0.1178" />
      <stop
         id="stop3161-3"
         style="stop-color:#badafa;stop-opacity:1"
         offset="0.35749999" />
      <stop
         id="stop3163-5"
         style="stop-color:#6ab0f4;stop-opacity:1"
         offset="0.69389999" />
      <stop
         id="stop3165-0"
         style="stop-color:#1c86ee;stop-opacity:1"
         offset="1" />
      <a:midPointStop
         offset="0"
         style="stop-color:#FFFFFF" />
      <a:midPointStop
         offset="0.548"
         style="stop-color:#FFFFFF" />
      <a:midPointStop
         offset="1"
         style="stop-color:#1C86EE" />
    </linearGradient>
    <linearGradient
       inkscape:collect="always"
       xlink:href="#XMLID_87_"
       id="linearGradient3036"
       gradientUnits="userSpaceOnUse"
       gradientTransform="matrix(0.24882034,0.00114457,-0.00114457,0.24881999,-52.257871,976.42135)"
       x1="82.511002"
       y1="213.66991"
       x2="91.114304"
       y2="222.5916" />
    <linearGradient
       inkscape:collect="always"
       xlink:href="#XMLID_87_"
       id="linearGradient3058"
       gradientUnits="userSpaceOnUse"
       gradientTransform="matrix(0.24882034,0.00114457,-0.00114457,0.24881999,-52.257871,976.42135)"
       x1="82.511002"
       y1="213.66991"
       x2="91.114304"
       y2="222.5916" />
  </defs>
  <sodipodi:namedview
     id="base"
     pagecolor="#ffffff"
     bordercolor="#666666"
     borderopacity="1.0"
     inkscape:pageopacity="0.0"
     inkscape:pageshadow="2"
     inkscape:zoom="12.752362"
     inkscape:cx="17.113918"
     inkscape:cy="28.051241"
     inkscape:document-units="px"
     inkscape:current-layer="layer1"
     showgrid="false"
     inkscape:window-width="1920"
     inkscape:window-height="1025"
     inkscape:window-x="-4"
     inkscape:window-y="39"
     inkscape:window-maximized="1" />
  <metadata
     id="metadata7">
    <rdf:RDF>
      <cc:Work
         rdf:about="">
        <dc:format>image/svg+xml</dc:format>
        <dc:type
           rdf:resource="http://purl.org/dc/dcmitype/StillImage" />
        <dc:title />
      </cc:Work>
    </rdf:RDF>
  </metadata>
  <g
     inkscape:label="Capa 1"
     inkscape:groupmode="layer"
     id="layer1"
     transform="translate(0,-1004.3622)">
    <path
       style="fill:#55405f;fill-rule:evenodd"
       inkscape:connector-curvature="0"
       d="m 43.99835,1028.3632 c 0,11.0451 -8.95399,19.999 -19.99918,19.999 C 12.95399,1048.3622 4,1039.4083 4,1028.3632 c 0,-11.0451 8.95399,-19.999 19.99917,-19.999 11.04519,0 19.99918,8.9539 19.99918,19.999"
       id="path4754" />
    <path
       style="opacity:0.25"
       inkscape:connector-curvature="0"
       id="path5426"
       d="m 24.26868,1015.4417 c -5.68247,0 -10.28874,1.5222 -10.28874,3.4003 0,0.373 0.18181,0.7318 0.51764,1.0679 l 2.27381,2.2737 c -0.35311,-0.1248 -0.6777,-0.2585 -0.97123,-0.3998 l -1.79628,-1.7963 c -0.18363,0.3298 -0.29188,0.6749 -0.29188,1.0281 v 3.213 c 0,0.6239 0.29919,1.2185 0.83967,1.759 l 2.69953,2.6996 c -0.7305,-0.2784 -1.36881,-0.5997 -1.89458,-0.9544 l -1.32277,-1.3229 c 2.7e-4,0 6.4e-4,0 9.1e-4,0 l -0.001,0 c -0.20182,0.3434 -0.3214,0.7086 -0.3214,1.0791 v 3.2103 c 0,0.624 0.29874,1.218 0.83849,1.7578 l 2.95899,2.9588 c -0.84159,-0.2999 -1.57044,-0.6551 -2.15833,-1.0521 l -1.31665,-1.3165 c 2.7e-4,0 6.3e-4,10e-4 9.1e-4,0 l -10e-4,0 c -0.20182,0.3432 -0.3214,0.7005 -0.3214,1.0733 v 3.2159 c 0,0.6229 0.29819,1.216 0.83702,1.7549 l 9.26918,9.2691 c 0.0605,9e-4 0.12068,0 0.18125,0 11.04519,0 19.99918,-8.9539 19.99918,-19.9989 0,-0.2151 -0.004,-0.4291 -0.0112,-0.6423 l -9.94705,-9.947 c -1.35484,-1.3549 -5.21746,-2.3324 -9.77166,-2.3324" />
    <path
       style="fill:#ffffff"
       inkscape:connector-curvature="0"
       id="path5428"
       d="m 24.26959,1015.4435 c -5.68247,0 -10.28873,1.522 -10.28873,3.4003 0,1.8778 4.60535,3.4003 10.28964,3.4003 5.68247,0 10.28601,-1.5221 10.28601,-3.4003 0,-1.8779 -4.60354,-3.4003 -10.28601,-3.4003 m -10.26589,4.545 c -0.18363,0.3298 -0.29124,0.6745 -0.29124,1.0277 v 3.2122 c 0,2.4812 4.72905,4.4994 10.55458,4.4994 5.83047,0 10.56007,-2.02 10.56007,-4.4994 v -3.2122 c 0,-0.3532 -0.10744,-0.6979 -0.28833,-1.0277 -0.20181,1.8176 -4.71717,3.2718 -10.26955,3.2718 -5.55237,0 -10.06125,-1.4542 -10.26589,-3.2718 z m 0.0286,6.4205 c -0.20182,0.3434 -0.31975,0.7087 -0.31975,1.0793 v 3.2121 c 0,2.2823 3.99763,4.1612 9.16686,4.4508 0.41549,-0.5699 1.2431,-0.8395 1.93587,-0.7024 -0.0984,-0.3986 -0.6924,-0.7843 -0.78796,-1.2844 -0.27681,-0.9888 0.59675,-1.7596 1.26759,-2.3182 0.51069,-0.7959 1.65814,-0.8046 2.34105,-0.2427 0.26365,0.071 0.32094,0.5182 0.57381,0.4911 -0.10478,-0.5509 0.0384,-1.1995 0.38827,-1.6591 -1.32003,0.2536 -2.78394,0.394 -4.32762,0.394 -4.95525,0 -9.10291,-1.4573 -10.23483,-3.4202 h -0.003 m 20.47241,0 c -0.57199,0.9913 -1.91048,1.8536 -3.73426,2.4638 0.12114,0 0.24147,0 0.36261,0 1.15695,-0.1539 1.86753,1.1904 1.68446,2.1926 0.18198,0.1221 0.32824,-0.3145 0.5053,-0.3826 0.39558,-0.3691 0.97917,-0.5459 1.50457,-0.4511 v -2.7407 c 0,-0.3704 -0.12316,-0.7355 -0.32258,-1.0793 m -20.46967,6.6381 c -0.20182,0.3432 -0.32259,0.7005 -0.32259,1.0733 v 3.2177 c 0,2.4813 4.73198,4.4848 10.55732,4.4848 0.0642,0 0.12727,0 0.19131,0 -0.0272,-0.031 -0.056,-0.064 -0.0828,-0.094 -0.79582,-0.7327 -0.30212,-2.0555 0.48822,-2.5691 -0.47808,-0.2786 -1.18208,-0.01 -1.62444,-0.4454 -0.71515,-0.539 -0.66299,-1.4689 -0.63384,-2.3067 -4.20055,-0.283 -7.57083,-1.6213 -8.57303,-3.3573" />
    <g
       transform="matrix(0.09135798,0,0,0.09135707,0.88195,1005.2453)"
       style="fill:#ffffff"
       id="g5508">
      <g
         id="g5510"
         style="line-height:125%;letter-spacing:0;word-spacing:0;font-family:Gentium Book Basic"
         line-height="125%">
        <text
           style="font-size:155.1499939px"
           id="text5512"
           y="224.87"
           x="-1917.89"
           font-size="155.15">
          <tspan
             id="tspan5514"
             y="224.87"
             x="-1917.89" />
        </text>
        <text
           style="font-size:155.16000366px"
           id="text5516"
           y="224.89"
           x="-1917.9"
           font-size="155.16">
          <tspan
             id="tspan5518"
             y="224.89"
             x="-1917.9" />
        </text>
      </g>
      <path
         inkscape:connector-curvature="0"
         id="path5520"
         d="m 315.67,268.58 c -3.237,0 -5.517,2.354 -5.85,5.23 l -1.866,16.16 c -3.765,1.121 -7.362,2.625 -10.758,4.455 l -12.743,-10.1 c -2.268,-1.797 -5.544,-1.851 -7.834,0.437 l -12.172,12.172 c -2.289,2.289 -2.169,5.517 -0.437,7.834 l 9.784,13.08 c -3.618,8.306 -4.448,10.643 -4.438,10.608 l -16.16,1.866 c -2.874,0.333 -5.23,2.614 -5.23,5.85 v 17.216 c 0,3.237 2.365,5.419 5.23,5.834 l 16.223,2.354 c 1.123,3.718 2.623,7.267 4.438,10.625 l -10.02,12.643 c -1.797,2.268 -1.851,5.544 0.437,7.834 l 12.172,12.172 c 2.289,2.289 5.498,2.169 7.817,0.437 l 13.03,-9.734 c 3.369,1.806 6.929,3.295 10.659,4.404 l 1.866,16.14 c 0.333,2.874 2.613,5.23 5.85,5.23 h 17.216 c 3.237,0 5.419,-2.365 5.834,-5.23 l 2.354,-16.238 c 3.625,-1.103 7.09,-2.558 10.373,-4.319 l 13.162,9.836 c 2.318,1.732 5.544,1.851 7.834,-0.437 l 12.172,-12.172 c 2.289,-2.289 2.234,-5.566 0.437,-7.834 l -10.172,-12.827 c 1.791,-3.329 3.276,-6.842 4.388,-10.524 l 16.205,-2.354 c 2.864,-0.415 5.23,-2.613 5.23,-5.85 v -17.216 c 0,-3.237 -2.354,-5.501 -5.23,-5.834 l -16.189,-1.883 c -1.099,-3.66 -2.55,-7.161 -4.319,-10.474 l 9.902,-13.281 c 1.732,-2.318 1.851,-5.544 -0.437,-7.834 l -12.172,-12.172 c -2.289,-2.289 -5.55,-2.234 -7.817,-0.437 l -12.894,10.221 c -3.313,-1.788 -6.809,-3.273 -10.474,-4.388 l -2.354,-16.257 c -0.415,-2.864 -2.596,-5.23 -5.834,-5.23 z m 8.675,52.3 c 13.295,0 24.07,10.78 24.07,24.07 0,13.295 -10.78,24.07 -24.07,24.07 -13.295,0 -24.07,-10.78 -24.07,-24.07 0,-13.295 10.78,-24.07 24.07,-24.07" />
    </g>
  </g>
</svg>
