<?xml version="1.0" encoding="UTF-8" standalone="no"?>
<!-- Created using Karbon, part of Calligra: http://www.calligra.org/karbon -->

<svg
   xmlns:dc="http://purl.org/dc/elements/1.1/"
   xmlns:cc="http://creativecommons.org/ns#"
   xmlns:rdf="http://www.w3.org/1999/02/22-rdf-syntax-ns#"
   xmlns:svg="http://www.w3.org/2000/svg"
   xmlns="http://www.w3.org/2000/svg"
   xmlns:xlink="http://www.w3.org/1999/xlink"
   xmlns:sodipodi="http://sodipodi.sourceforge.net/DTD/sodipodi-0.dtd"
   xmlns:inkscape="http://www.inkscape.org/namespaces/inkscape"
   width="38.4pt"
   height="38.4pt"
   id="svg2"
   version="1.1"
   inkscape:version="0.48.5 r10040"
   sodipodi:docname="geany.svg">
  <metadata
     id="metadata15">
    <rdf:RDF>
      <cc:Work
         rdf:about="">
        <dc:format>image/svg+xml</dc:format>
        <dc:type
           rdf:resource="http://purl.org/dc/dcmitype/StillImage" />
        <dc:title />
      </cc:Work>
    </rdf:RDF>
  </metadata>
  <sodipodi:namedview
     pagecolor="#ffffff"
     bordercolor="#666666"
     borderopacity="1"
     objecttolerance="10"
     gridtolerance="10"
     guidetolerance="10"
     inkscape:pageopacity="0"
     inkscape:pageshadow="2"
     inkscape:window-width="1920"
     inkscape:window-height="1025"
     id="namedview13"
     showgrid="false"
     borderlayer="true"
     inkscape:showpageshadow="false"
     inkscape:zoom="4.9166667"
     inkscape:cx="21.934585"
     inkscape:cy="8.2532297"
     inkscape:window-x="-4"
     inkscape:window-y="39"
     inkscape:window-maximized="1"
     inkscape:current-layer="svg2">
    <sodipodi:guide
       position="9.5367432e-07,48.000001"
       orientation="47.999999,0"
       id="guide4073" />
    <sodipodi:guide
       position="9.5367432e-07,1.9073486e-06"
       orientation="0,47.999999"
       id="guide4075" />
    <sodipodi:guide
       position="48,1.9073486e-06"
       orientation="-47.999999,0"
       id="guide4077" />
    <sodipodi:guide
       position="48,48.000001"
       orientation="0,-47.999999"
       id="guide4079" />
    <sodipodi:guide
       position="4.000001,44.000001"
       orientation="39.999999,0"
       id="guide4081" />
    <sodipodi:guide
       position="4.000001,4.0000019"
       orientation="0,39.999999"
       id="guide4083" />
    <sodipodi:guide
       position="44,4.0000019"
       orientation="-39.999999,0"
       id="guide4085" />
    <sodipodi:guide
       position="44,44.000001"
       orientation="0,-39.999999"
       id="guide4087" />
  </sodipodi:namedview>
  <defs
     id="defs4">
    <linearGradient
       gradientUnits="userSpaceOnUse"
       y2="39"
       x2="38"
       y1="39"
       x1="8"
       id="linearGradient3233"
       xlink:href="#linearGradient3235"
       inkscape:collect="always" />
    <linearGradient
       gradientUnits="userSpaceOnUse"
       y2="28"
       x2="39"
       y1="27"
       x1="3"
       id="linearGradient2846"
       xlink:href="#linearGradient2188"
       inkscape:collect="always" />
    <radialGradient
       r="14.5"
       fy="8.8798504"
       fx="13.819342"
       cy="8.8798504"
       cx="13.819342"
       gradientTransform="matrix(0.3567181,0.4597701,-0.5655855,0.7289769,16.26512,4.5064085)"
       gradientUnits="userSpaceOnUse"
       id="radialGradient19774"
       xlink:href="#linearGradient3570"
       inkscape:collect="always" />
    <linearGradient
       gradientUnits="userSpaceOnUse"
       y2="35.394569"
       x2="41.660713"
       y1="12.358853"
       x1="40.035717"
       id="linearGradient19742"
       xlink:href="#linearGradient19744"
       inkscape:collect="always" />
    <radialGradient
       r="3.0477226"
       fy="16.969122"
       fx="3.5"
       cy="16.969122"
       cx="3.5"
       gradientTransform="matrix(0.5290677,1.2697623,-1.3124555,0.7874732,23.91948,-1.0068978)"
       gradientUnits="userSpaceOnUse"
       id="radialGradient18128"
       xlink:href="#linearGradient14664"
       inkscape:collect="always" />
    <radialGradient
       r="3.0477226"
       fy="16.969122"
       fx="3.5"
       cy="16.969122"
       cx="3.5"
       gradientTransform="matrix(0.5290677,1.2697623,-1.3124555,0.7874732,23.91948,-1.0068978)"
       gradientUnits="userSpaceOnUse"
       id="radialGradient18126"
       xlink:href="#linearGradient14664"
       inkscape:collect="always" />
    <radialGradient
       r="3.0477226"
       fy="16.969122"
       fx="3.5"
       cy="16.969122"
       cx="3.5"
       gradientTransform="matrix(0.5290677,1.2697623,-1.3124555,0.7874732,23.91948,-1.0068978)"
       gradientUnits="userSpaceOnUse"
       id="radialGradient18124"
       xlink:href="#linearGradient14664"
       inkscape:collect="always" />
    <radialGradient
       gradientUnits="userSpaceOnUse"
       gradientTransform="matrix(0.5290677,1.2697623,-1.3124555,0.7874732,23.91948,-1.0068978)"
       r="3.0477226"
       fy="16.969122"
       fx="3.5"
       cy="16.969122"
       cx="3.5"
       id="radialGradient18099"
       xlink:href="#linearGradient14664"
       inkscape:collect="always" />
    <radialGradient
       r="15.5"
       fy="21.094482"
       fx="13.071457"
       cy="21.094482"
       cx="13.071457"
       gradientTransform="matrix(1.4285703,2.2586675,-1.8530096,1.6167349,33.346827,-44.63139)"
       gradientUnits="userSpaceOnUse"
       id="radialGradient17706"
       xlink:href="#linearGradient2790"
       inkscape:collect="always" />
    <linearGradient
       y2="31"
       x2="25"
       y1="26"
       x1="21"
       gradientTransform="matrix(0.5555553,0,0,1.1111107,10.222227,-0.6111033)"
       gradientUnits="userSpaceOnUse"
       id="linearGradient17174"
       xlink:href="#linearGradient11853"
       inkscape:collect="always" />
    <radialGradient
       r="3"
       fy="28.5"
       fx="22.999998"
       cy="28.5"
       cx="22.999998"
       gradientTransform="matrix(0.9999995,0,0,1.5555553,9.5596046e-6,-13.83333)"
       gradientUnits="userSpaceOnUse"
       id="radialGradient17172"
       xlink:href="#linearGradient8285"
       inkscape:collect="always" />
    <linearGradient
       gradientTransform="matrix(0.92,0,0,0.8888889,8.9090905e-7,1.6111111)"
       gradientUnits="userSpaceOnUse"
       y2="47.6875"
       x2="44.565216"
       y1="14"
       x1="12"
       id="linearGradient17109"
       xlink:href="#linearGradient3570"
       inkscape:collect="always" />
    <linearGradient
       y2="31"
       x2="25"
       y1="26"
       x1="21"
       gradientTransform="matrix(0.3333332,0,0,0.8333333,24.333334,4.1666658)"
       gradientUnits="userSpaceOnUse"
       id="linearGradient14261"
       xlink:href="#linearGradient11853"
       inkscape:collect="always" />
    <radialGradient
       r="3"
       fy="28.5"
       fx="22.999998"
       cy="28.5"
       cx="22.999998"
       gradientTransform="matrix(0.6,0,0,1.1666668,18.199999,-5.7500067)"
       gradientUnits="userSpaceOnUse"
       id="radialGradient14259"
       xlink:href="#linearGradient8285"
       inkscape:collect="always" />
    <linearGradient
       y2="31"
       x2="25"
       y1="26"
       x1="21"
       gradientTransform="matrix(0.3333332,0,0,0.8333333,6.3333338,4.0749898)"
       gradientUnits="userSpaceOnUse"
       id="linearGradient11867"
       xlink:href="#linearGradient11853"
       inkscape:collect="always" />
    <radialGradient
       r="3"
       fy="28.5"
       fx="22.999998"
       cy="28.5"
       cx="22.999998"
       gradientTransform="matrix(0.5999998,0,0,1.1666668,0.2000035,-5.8416827)"
       gradientUnits="userSpaceOnUse"
       id="radialGradient11865"
       xlink:href="#linearGradient8285"
       inkscape:collect="always" />
    <radialGradient
       r="14.5"
       fy="19.5"
       fx="23.5"
       cy="19.5"
       cx="23.5"
       gradientTransform="matrix(0.5517241,0,0,0.2413793,11.034483,35.793103)"
       gradientUnits="userSpaceOnUse"
       id="radialGradient7116"
       xlink:href="#linearGradient5539"
       inkscape:collect="always" />
    <radialGradient
       gradientUnits="userSpaceOnUse"
       gradientTransform="matrix(2.9166668,0,0,1.0833331,-46.500002,-0.2083278)"
       r="6"
       fy="38.5"
       fx="24"
       cy="38.5"
       cx="24"
       id="radialGradient7112"
       xlink:href="#linearGradient7106"
       inkscape:collect="always" />
    <radialGradient
       gradientUnits="userSpaceOnUse"
       gradientTransform="matrix(2.6249997,2.7443598,-0.4329059,2.1970053,-4.9758584,-64.937913)"
       r="7"
       fy="27.331398"
       fx="10.450585"
       cy="27.331398"
       cx="10.450585"
       id="radialGradient6717"
       xlink:href="#linearGradient6328"
       inkscape:collect="always" />
    <radialGradient
       gradientUnits="userSpaceOnUse"
       gradientTransform="matrix(0.7000001,0,0,-0.7272727,6.5500005,25.181818)"
       r="5.5"
       fy="16.749998"
       fx="21.624998"
       cy="16.749998"
       cx="21.624998"
       id="radialGradient5934"
       xlink:href="#linearGradient7499"
       inkscape:collect="always" />
    <radialGradient
       gradientUnits="userSpaceOnUse"
       gradientTransform="matrix(0.3103448,0,0,0.137931,16.206898,15.310346)"
       r="14.5"
       fy="19.5"
       fx="23.5"
       cy="19.5"
       cx="23.5"
       id="radialGradient5545"
       xlink:href="#linearGradient5539"
       inkscape:collect="always" />
    <linearGradient
       gradientTransform="matrix(2.2500001,0,0,1.2726172,-31.000001,-8.9499257)"
       gradientUnits="userSpaceOnUse"
       y2="54.179626"
       x2="42.230766"
       y1="37.6782"
       x1="21"
       id="linearGradient4751"
       xlink:href="#linearGradient12294"
       inkscape:collect="always" />
    <radialGradient
       gradientUnits="userSpaceOnUse"
       gradientTransform="matrix(1.0996737,-2.6392164,-1.8750005,-1.9999998,19.432184,98.396098)"
       r="3.5"
       fy="12.74359"
       fx="23.078409"
       cy="12.74359"
       cx="23.078409"
       id="radialGradient3185"
       xlink:href="#linearGradient2790"
       inkscape:collect="always" />
    <linearGradient
       id="linearGradient2188">
      <stop
         id="stop2190"
         offset="0"
         style="stop-color:#c4a000;stop-opacity:1" />
      <stop
         style="stop-color:#edd400;stop-opacity:1"
         offset="0.20552924"
         id="stop3626" />
      <stop
         style="stop-color:#fce94f;stop-opacity:1"
         offset="0.5"
         id="stop2848" />
      <stop
         id="stop2850"
         offset="0.75"
         style="stop-color:#edd400;stop-opacity:1" />
      <stop
         id="stop2192"
         offset="1"
         style="stop-color:#c4a000;stop-opacity:1" />
    </linearGradient>
    <linearGradient
       id="linearGradient2790">
      <stop
         id="stop2792"
         offset="0"
         style="stop-color:#ffffff;stop-opacity:1;" />
      <stop
         id="stop2794"
         offset="1"
         style="stop-color:#fce94f;stop-opacity:1;" />
    </linearGradient>
    <linearGradient
       id="linearGradient3570">
      <stop
         id="stop3572"
         offset="0"
         style="stop-color:#ffffff;stop-opacity:1;" />
      <stop
         id="stop3574"
         offset="1"
         style="stop-color:#fce94f;stop-opacity:1;" />
    </linearGradient>
    <linearGradient
       id="linearGradient5539"
       inkscape:collect="always">
      <stop
         id="stop5541"
         offset="0"
         style="stop-color:#000000;stop-opacity:1;" />
      <stop
         id="stop5543"
         offset="1"
         style="stop-color:#000000;stop-opacity:0;" />
    </linearGradient>
    <linearGradient
       id="linearGradient6328"
       inkscape:collect="always">
      <stop
         id="stop6330"
         offset="0"
         style="stop-color:#ffffff;stop-opacity:1;" />
      <stop
         id="stop6332"
         offset="1"
         style="stop-color:#ffffff;stop-opacity:0;" />
    </linearGradient>
    <linearGradient
       id="linearGradient7106"
       inkscape:collect="always">
      <stop
         id="stop7108"
         offset="0"
         style="stop-color:#000000;stop-opacity:1;" />
      <stop
         id="stop7110"
         offset="1"
         style="stop-color:#000000;stop-opacity:0;" />
    </linearGradient>
    <linearGradient
       inkscape:collect="always"
       id="linearGradient7499">
      <stop
         style="stop-color:#fff5ac;stop-opacity:1"
         offset="0"
         id="stop7501" />
      <stop
         style="stop-color:#edd400;stop-opacity:1"
         offset="1"
         id="stop7503" />
    </linearGradient>
    <linearGradient
       id="linearGradient8285">
      <stop
         id="stop8287"
         offset="0"
         style="stop-color:#ff6c6c;stop-opacity:1;" />
      <stop
         id="stop8289"
         offset="1"
         style="stop-color:#cc0000;stop-opacity:1;" />
    </linearGradient>
    <linearGradient
       id="linearGradient11853"
       inkscape:collect="always">
      <stop
         id="stop11855"
         offset="0"
         style="stop-color:#ffffff;stop-opacity:1;" />
      <stop
         id="stop11857"
         offset="1"
         style="stop-color:#ffffff;stop-opacity:0;" />
    </linearGradient>
    <linearGradient
       id="linearGradient12294">
      <stop
         style="stop-color:#fef8c4;stop-opacity:1"
         offset="0"
         id="stop12296" />
      <stop
         style="stop-color:#edd400;stop-opacity:1"
         offset="1"
         id="stop12298" />
    </linearGradient>
    <linearGradient
       id="linearGradient14664">
      <stop
         id="stop14666"
         offset="0"
         style="stop-color:#ffffff;stop-opacity:1;" />
      <stop
         id="stop14668"
         offset="1"
         style="stop-color:#eeeeec;stop-opacity:1" />
    </linearGradient>
    <linearGradient
       id="linearGradient19744">
      <stop
         style="stop-color:#ffffff;stop-opacity:1;"
         offset="0"
         id="stop19746" />
      <stop
         id="stop19748"
         offset="0.78597295"
         style="stop-color:#edd400;stop-opacity:1" />
      <stop
         style="stop-color:#ffffff;stop-opacity:1;"
         offset="1"
         id="stop19750" />
    </linearGradient>
    <linearGradient
       id="linearGradient3235">
      <stop
         style="stop-color:#fce94f;stop-opacity:1"
         offset="0"
         id="stop3237" />
      <stop
         id="stop3239"
         offset="0.5"
         style="stop-color:#fce94f;stop-opacity:1" />
      <stop
         style="stop-color:#edd400;stop-opacity:1"
         offset="0.75"
         id="stop3241" />
      <stop
         style="stop-color:#c4a000;stop-opacity:1"
         offset="1"
         id="stop3243" />
    </linearGradient>
    <linearGradient
       inkscape:collect="always"
       xlink:href="#linearGradient19744"
       id="linearGradient4099"
       gradientUnits="userSpaceOnUse"
       x1="40.035717"
       y1="12.358853"
       x2="41.660713"
       y2="35.394569"
       gradientTransform="translate(-96.5565,66.313679)" />
    <linearGradient
       inkscape:collect="always"
       xlink:href="#linearGradient11853"
       id="linearGradient4110"
       gradientUnits="userSpaceOnUse"
       gradientTransform="matrix(0.5555553,0,0,1.1111107,-86.334273,65.702576)"
       x1="21"
       y1="26"
       x2="25"
       y2="31" />
    <radialGradient
       inkscape:collect="always"
       xlink:href="#linearGradient8285"
       id="radialGradient4113"
       gradientUnits="userSpaceOnUse"
       gradientTransform="matrix(0.9999995,0,0,1.5555553,-96.55649,52.480349)"
       cx="22.999998"
       cy="28.5"
       fx="22.999998"
       fy="28.5"
       r="3" />
    <linearGradient
       inkscape:collect="always"
       xlink:href="#linearGradient11853"
       id="linearGradient4116"
       gradientUnits="userSpaceOnUse"
       gradientTransform="matrix(0.3333332,0,0,0.8333333,-72.223166,70.480345)"
       x1="21"
       y1="26"
       x2="25"
       y2="31" />
    <radialGradient
       inkscape:collect="always"
       xlink:href="#linearGradient8285"
       id="radialGradient4119"
       gradientUnits="userSpaceOnUse"
       gradientTransform="matrix(0.6,0,0,1.1666668,-78.356501,60.563672)"
       cx="22.999998"
       cy="28.5"
       fx="22.999998"
       fy="28.5"
       r="3" />
    <linearGradient
       inkscape:collect="always"
       xlink:href="#linearGradient11853"
       id="linearGradient4122"
       gradientUnits="userSpaceOnUse"
       gradientTransform="matrix(0.3333332,0,0,0.8333333,-90.223166,70.388669)"
       x1="21"
       y1="26"
       x2="25"
       y2="31" />
    <radialGradient
       inkscape:collect="always"
       xlink:href="#linearGradient8285"
       id="radialGradient4125"
       gradientUnits="userSpaceOnUse"
       gradientTransform="matrix(0.5999998,0,0,1.1666668,-96.356497,60.471996)"
       cx="22.999998"
       cy="28.5"
       fx="22.999998"
       fy="28.5"
       r="3" />
    <radialGradient
       inkscape:collect="always"
       xlink:href="#linearGradient2790"
       id="radialGradient4128"
       gradientUnits="userSpaceOnUse"
       gradientTransform="matrix(1.0996737,-2.6392164,-1.8750005,-1.9999998,-77.124316,164.70978)"
       cx="23.078409"
       cy="12.74359"
       fx="23.078409"
       fy="12.74359"
       r="3.5" />
    <radialGradient
       inkscape:collect="always"
       xlink:href="#linearGradient7499"
       id="radialGradient4131"
       gradientUnits="userSpaceOnUse"
       gradientTransform="matrix(0.7000001,0,0,-0.7272727,-90.0065,91.495497)"
       cx="21.624998"
       cy="16.749998"
       fx="21.624998"
       fy="16.749998"
       r="5.5" />
    <radialGradient
       inkscape:collect="always"
       xlink:href="#linearGradient2790"
       id="radialGradient4134"
       gradientUnits="userSpaceOnUse"
       gradientTransform="matrix(1.4285703,2.2586675,-1.8530096,1.6167349,-63.209673,21.682289)"
       cx="13.071457"
       cy="21.094482"
       fx="13.071457"
       fy="21.094482"
       r="15.5" />
    <radialGradient
       inkscape:collect="always"
       xlink:href="#linearGradient5539"
       id="radialGradient4137"
       gradientUnits="userSpaceOnUse"
       gradientTransform="matrix(0.3103448,0,0,0.137931,-80.349602,81.624025)"
       cx="23.5"
       cy="19.5"
       fx="23.5"
       fy="19.5"
       r="14.5" />
    <radialGradient
       inkscape:collect="always"
       xlink:href="#linearGradient6328"
       id="radialGradient4141"
       gradientUnits="userSpaceOnUse"
       gradientTransform="matrix(2.6249997,2.7443598,-0.4329059,2.1970053,-101.53236,1.3757663)"
       cx="10.450585"
       cy="27.331398"
       fx="10.450585"
       fy="27.331398"
       r="7" />
    <linearGradient
       inkscape:collect="always"
       xlink:href="#linearGradient3570"
       id="linearGradient4144"
       gradientUnits="userSpaceOnUse"
       gradientTransform="matrix(0.92,0,0,0.8888889,-96.556499,67.92479)"
       x1="12"
       y1="14"
       x2="44.565216"
       y2="47.6875" />
    <radialGradient
       inkscape:collect="always"
       xlink:href="#linearGradient3570"
       id="radialGradient4147"
       gradientUnits="userSpaceOnUse"
       gradientTransform="matrix(0.3567181,0.4597701,-0.5655855,0.7289769,-80.29138,70.820088)"
       cx="13.819342"
       cy="8.8798504"
       fx="13.819342"
       fy="8.8798504"
       r="14.5" />
    <linearGradient
       inkscape:collect="always"
       xlink:href="#linearGradient2188"
       id="linearGradient4151"
       gradientUnits="userSpaceOnUse"
       x1="3"
       y1="27"
       x2="39"
       y2="28"
       gradientTransform="translate(-96.5565,66.313679)" />
    <linearGradient
       inkscape:collect="always"
       xlink:href="#linearGradient12294"
       id="linearGradient4155"
       gradientUnits="userSpaceOnUse"
       gradientTransform="matrix(2.2500001,0,0,1.2726172,-127.5565,57.363753)"
       x1="21"
       y1="37.6782"
       x2="42.230766"
       y2="54.179626" />
    <radialGradient
       inkscape:collect="always"
       xlink:href="#linearGradient5539"
       id="radialGradient4158"
       gradientUnits="userSpaceOnUse"
       gradientTransform="matrix(0.5517241,0,0,0.2413793,-85.522017,102.10678)"
       cx="23.5"
       cy="19.5"
       fx="23.5"
       fy="19.5"
       r="14.5" />
    <linearGradient
       inkscape:collect="always"
       xlink:href="#linearGradient3235"
       id="linearGradient4161"
       gradientUnits="userSpaceOnUse"
       x1="8"
       y1="39"
       x2="38"
       y2="39"
       gradientTransform="translate(-96.5565,66.313679)" />
    <radialGradient
       inkscape:collect="always"
       xlink:href="#linearGradient7106"
       id="radialGradient4164"
       gradientUnits="userSpaceOnUse"
       gradientTransform="matrix(2.9166668,0,0,1.0833331,-143.0565,66.105351)"
       cx="24"
       cy="38.5"
       fx="24"
       fy="38.5"
       r="6" />
    <radialGradient
       inkscape:collect="always"
       xlink:href="#linearGradient14664"
       id="radialGradient4166"
       gradientUnits="userSpaceOnUse"
       gradientTransform="matrix(0.5290677,1.2697623,-1.3124555,0.7874732,23.91948,-1.0068978)"
       cx="3.5"
       cy="16.969122"
       fx="3.5"
       fy="16.969122"
       r="3.0477226" />
    <radialGradient
       inkscape:collect="always"
       xlink:href="#linearGradient14664"
       id="radialGradient4168"
       gradientUnits="userSpaceOnUse"
       gradientTransform="matrix(0.5290677,1.2697623,-1.3124555,0.7874732,23.91948,-1.0068978)"
       cx="3.5"
       cy="16.969122"
       fx="3.5"
       fy="16.969122"
       r="3.0477226" />
    <radialGradient
       inkscape:collect="always"
       xlink:href="#linearGradient14664"
       id="radialGradient4170"
       gradientUnits="userSpaceOnUse"
       gradientTransform="matrix(0.5290677,1.2697623,-1.3124555,0.7874732,23.91948,-1.0068978)"
       cx="3.5"
       cy="16.969122"
       fx="3.5"
       fy="16.969122"
       r="3.0477226" />
    <radialGradient
       inkscape:collect="always"
       xlink:href="#linearGradient14664"
       id="radialGradient4172"
       gradientUnits="userSpaceOnUse"
       gradientTransform="matrix(0.5290677,1.2697623,-1.3124555,0.7874732,23.91948,-1.0068978)"
       cx="3.5"
       cy="16.969122"
       fx="3.5"
       fy="16.969122"
       r="3.0477226" />
  </defs>
  <path
     id="path14"
     d="m 43.99769,23.99887 c 0,11.0455 -8.95426,19.99885 -19.99885,19.99885 C 12.95334,43.99772 4,35.04346 4,23.99887 4,12.95337 12.95426,4.00003 23.99884,4.00003 c 11.0455,0 19.99885,8.95426 19.99885,19.99884"
     inkscape:connector-curvature="0"
     style="fill:#f38725;fill-rule:evenodd" />
  <path
     id="path16"
     d="m 24.26835,13.21649 -4.67675,9.11322 c 0.003,0.005 0.77475,1.51303 1.29331,2.52384 l -0.003,0.006 c -0.003,-0.006 -0.0657,-0.13136 -0.0657,-0.13136 l -0.0228,0.0428 c -0.003,-0.007 -0.0685,-0.13421 -0.0685,-0.13421 l -0.0228,0.0428 c -0.003,-0.006 -0.0685,-0.13421 -0.0685,-0.13421 l -0.0228,0.0429 c -0.003,-0.006 -0.0685,-0.13421 -0.0685,-0.13421 l -0.0228,0.0428 c -0.003,-0.006 -0.0685,-0.13421 -0.0685,-0.13421 l -0.0228,0.0428 c -0.003,-0.006 -0.0685,-0.13422 -0.0685,-0.13422 l -0.0228,0.0429 c -0.003,-0.006 -0.0657,-0.13137 -0.0657,-0.13137 l -0.0228,0.0428 c -0.003,-0.006 -0.0685,-0.13421 -0.0685,-0.13421 l -0.0228,0.0429 c -0.003,-0.006 -0.0685,-0.13421 -0.0685,-0.13421 l -0.0228,0.0428 c -0.003,-0.006 -0.0685,-0.13421 -0.0685,-0.13421 l -0.0228,0.0428 c -0.003,-0.006 -0.0685,-0.13422 -0.0685,-0.13422 l -0.0228,0.0429 c -0.003,-0.006 -0.0685,-0.1342 -0.0685,-0.1342 l -0.0228,0.0428 c -0.003,-0.006 -0.0657,-0.13137 -0.0657,-0.13137 l -0.0228,0.0429 c -0.003,-0.006 -0.0685,-0.13421 -0.0685,-0.13421 l -0.0228,0.0428 c -0.003,-0.006 -0.0685,-0.13421 -0.0685,-0.13421 l -0.0228,0.0428 c -0.003,-0.006 -0.0685,-0.13422 -0.0685,-0.13422 l -0.0228,0.0429 c -0.003,-0.006 -0.0685,-0.13421 -0.0685,-0.13421 l -0.0228,0.0428 c -0.003,-0.006 -0.0685,-0.1342 -0.0685,-0.1342 l -0.0228,0.0428 c -0.003,-0.006 -0.0685,-0.1342 -0.0685,-0.1342 l -0.0228,0.0429 c -0.003,-0.005 -0.0657,-0.13138 -0.0657,-0.13138 l -0.0228,0.0428 -0.0685,-0.13422 -0.0228,0.0429 -0.0685,-0.13421 -0.0228,0.0428 -0.0685,-0.13421 -0.0228,0.0429 -0.0685,-0.1342 -0.0228,0.0429 -0.0685,-0.13421 -0.0228,0.0428 -0.0657,-0.13137 -0.0228,0.0428 c -0.003,-0.005 -0.0685,-0.13421 -0.0685,-0.13421 l -0.0228,0.0428 c -0.003,-0.005 -0.0685,-0.13421 -0.0685,-0.13421 l -0.0228,0.0429 c -0.003,-0.005 -0.0685,-0.13421 -0.0685,-0.13421 l -0.0228,0.0429 c -0.003,-0.005 -0.0685,-0.1342 -0.0685,-0.1342 l -0.0228,0.0428 c -0.003,-0.005 -0.0685,-0.13421 -0.0685,-0.13421 l -0.0228,0.0429 c -0.003,-0.005 -0.0657,-0.13138 -0.0657,-0.13138 l -0.0228,0.0428 c -0.003,-0.005 -0.0685,-0.13421 -0.0685,-0.13421 l -0.0228,0.0429 c -0.003,-0.005 -0.0685,-0.13421 -0.0685,-0.13421 l -0.0228,0.0429 c -0.003,-0.005 -0.0685,-0.13421 -0.0685,-0.13421 l -0.0228,0.0428 c -0.003,-0.005 -0.0685,-0.13421 -0.0685,-0.13421 l -0.0228,0.0429 c -0.003,-0.005 -0.0685,-0.13421 -0.0685,-0.13421 l -0.0228,0.0428 c -0.002,-0.005 -0.0657,-0.13138 -0.0657,-0.13138 l -0.0228,0.0429 c -0.003,-0.005 -0.0685,-0.13421 -0.0685,-0.13421 l -0.0228,0.0428 c -0.003,-0.005 -0.0685,-0.13421 -0.0685,-0.13421 l -0.0228,0.0428 c -0.003,-0.005 -0.0685,-0.13421 -0.0685,-0.13421 l -0.0228,0.0429 c -0.003,-0.005 -0.0685,-0.1342 -0.0685,-0.1342 l -0.0228,0.0428 c -0.002,-0.005 -0.0685,-0.13421 -0.0685,-0.13421 l -0.0228,0.0428 c -0.002,-0.005 -0.0685,-0.13421 -0.0685,-0.13421 l -0.0228,0.0429 c -0.002,-0.005 -0.0657,-0.13138 -0.0657,-0.13138 l -0.0228,0.0428 c -0.002,-0.005 -0.0685,-0.13422 -0.0685,-0.13422 l -0.0228,0.0429 c -0.002,-0.005 -0.0685,-0.1342 -0.0685,-0.1342 l -0.0228,0.0428 c -0.002,-0.005 -0.0685,-0.1342 -0.0685,-0.1342 l -0.0228,0.0428 -0.0685,-0.13421 c 0,0 -0.0217,0.0406 -0.0228,0.0429 l -0.0685,-0.13422 -0.0228,0.0428 -0.0657,-0.13138 -0.0228,0.0429 -0.0685,-0.13421 -0.0228,0.0428 -0.0685,-0.1342 -0.0228,0.0428 c -0.002,-0.005 -0.0685,-0.13421 -0.0685,-0.13421 l -0.0228,0.0429 c -0.002,-0.005 -0.0685,-0.13421 -0.0685,-0.13421 l -0.0228,0.0428 c -0.002,-0.004 -0.0685,-0.13421 -0.0685,-0.13421 l -0.0228,0.0428 c -0.002,-0.004 -0.0657,-0.13138 -0.0657,-0.13138 l -0.0228,0.0428 c -0.002,-0.004 -0.0685,-0.13421 -0.0685,-0.13421 l -0.0228,0.0428 c -0.002,-0.004 -0.0685,-0.1342 -0.0685,-0.1342 l -0.0228,0.0429 c -0.002,-0.004 -0.0685,-0.13421 -0.0685,-0.13421 l -0.0228,0.0428 c -0.002,-0.004 -0.0685,-0.13421 -0.0685,-0.13421 l -0.0228,0.0429 c -0.002,-0.004 -0.0685,-0.13421 -0.0685,-0.13421 l -0.0228,0.0429 c -0.002,-0.004 -0.0685,-0.13421 -0.0685,-0.13421 l -0.0228,0.0428 c -0.002,-0.004 -0.0657,-0.13138 -0.0657,-0.13138 l -0.0228,0.0429 c -0.002,-0.004 -0.0685,-0.1342 -0.0685,-0.1342 l -0.0228,0.0428 c -0.002,-0.004 -0.0685,-0.13422 -0.0685,-0.13422 l -0.0228,0.0429 c -0.002,-0.004 -0.0685,-0.13421 -0.0685,-0.13421 l -0.0228,0.0429 c -0.002,-0.004 -0.0685,-0.13421 -0.0685,-0.13421 l -0.0228,0.0428 c -0.002,-0.004 -0.0685,-0.13421 -0.0685,-0.13421 l -0.0228,0.0428 -0.0657,-0.13137 -0.0228,0.0428 c -0.002,-0.004 -0.0685,-0.13421 -0.0685,-0.13421 l -0.0228,0.0429 c -0.002,-0.004 -0.0685,-0.13421 -0.0685,-0.13421 l -0.0228,0.0429 c -0.002,-0.004 -0.0685,-0.13421 -0.0685,-0.13421 l -0.0228,0.0428 c -0.002,-0.004 -0.0685,-0.13421 -0.0685,-0.13421 l -0.0228,0.0429 c -0.002,-0.004 -0.0685,-0.13422 -0.0685,-0.13422 l -0.0229,0.0429 -0.0657,-0.13137 -0.0229,0.0429 -0.0685,-0.1342 -0.0228,0.0428 -0.0685,-0.13421 -0.0228,0.0428 -0.0685,-0.13421 -0.0228,0.0429 -0.0685,-0.13422 -0.0228,0.0428 -0.0685,-0.13421 -0.02,0.0428 -0.0685,-0.13137 -0.0228,0.0428 c -0.002,-0.004 -0.0685,-0.13421 -0.0685,-0.13421 l -0.0228,0.0428 c -0.002,-0.004 -0.0685,-0.13421 -0.0685,-0.13421 l -0.0228,0.0429 c -0.002,-0.004 -0.0685,-0.13421 -0.0685,-0.13421 -0.009,0.0178 -4.67676,9.11596 -4.67676,9.11596 l 4.67676,9.11322 c 0,-9e-5 0.0226,-0.0423 0.0228,-0.0428 l 0.0685,0.1342 0.0228,-0.0429 0.0685,0.13421 0.0228,-0.0428 0.0685,0.13422 0.02,-0.0428 0.0685,0.13138 0.0228,-0.0428 0.0685,0.13421 0.0228,-0.0428 0.0685,0.1342 0.0228,-0.0429 0.0685,0.1342 0.0228,-0.0428 0.0685,0.13422 0.0228,-0.0428 0.0685,0.13421 0.0228,-0.0429 0.0657,0.13138 0.0228,-0.0428 0.0685,0.13421 0.0228,-0.0429 0.0685,0.1342 c 0,0 0.0196,-0.0365 0.0228,-0.0428 l 0.0685,0.13421 0.0228,-0.0428 c 0.002,0.004 0.0685,0.13421 0.0685,0.13421 l 0.0229,-0.0429 c 0.002,0.004 0.0685,0.13421 0.0685,0.13421 l 0.0228,-0.0428 0.0657,0.13138 0.0228,-0.0429 c 0.002,0.004 0.0685,0.13421 0.0685,0.13421 l 0.0228,-0.0428 c 0.002,0.004 0.0685,0.13421 0.0685,0.13421 l 0.0228,-0.0429 c 0.002,0.004 0.0685,0.13421 0.0685,0.13421 l 0.0229,-0.0429 c 0.002,0.004 0.0685,0.13421 0.0685,0.13421 l 0.0228,-0.0428 c 0.002,0.004 0.0685,0.13421 0.0685,0.13421 l 0.0228,-0.0428 c 0.002,0.004 0.0657,0.13138 0.0657,0.13138 l 0.0228,-0.0428 c 0.002,0.004 0.0685,0.13421 0.0685,0.13421 l 0.0228,-0.0428 c 0.002,0.004 0.0685,0.1342 0.0685,0.1342 l 0.0228,-0.0429 c 0.002,0.004 0.0685,0.13421 0.0685,0.13421 l 0.0228,-0.0428 c 0.002,0.004 0.0685,0.13421 0.0685,0.13421 l 0.0228,-0.0429 c 0.002,0.004 0.0685,0.13421 0.0685,0.13421 l 0.0228,-0.0428 c 0.002,0.004 0.0685,0.13421 0.0685,0.13421 l 0.0228,-0.0428 c 0.002,0.004 0.0657,0.13137 0.0657,0.13137 l 0.0228,-0.0429 c 0.002,0.005 0.0685,0.1342 0.0685,0.1342 l 0.0228,-0.0428 0.0685,0.13421 0.0228,-0.0429 0.0685,0.13421 0.0228,-0.0429 0.0685,0.13422 0.0228,-0.0428 0.0685,0.13421 0.0228,-0.0429 0.0657,0.13137 0.0228,-0.0428 0.0685,0.1342 0.0228,-0.0429 c 0.002,0.005 0.0685,0.13421 0.0685,0.13421 l 0.0228,-0.0429 c 0.002,0.005 0.0685,0.13422 0.0685,0.13422 l 0.0228,-0.0428 c 0.002,0.005 0.0685,0.13421 0.0685,0.13421 l 0.0228,-0.0429 c 0.002,0.005 0.0685,0.13421 0.0685,0.13421 l 0.0228,-0.0428 c 0.002,0.005 0.0657,0.13137 0.0657,0.13137 l 0.0228,-0.0429 c 0.002,0.005 0.0685,0.13421 0.0685,0.13421 l 0.0228,-0.0428 c 0.003,0.005 0.0685,0.13422 0.0685,0.13422 l 0.0228,-0.0428 c 0.003,0.005 0.0685,0.13421 0.0685,0.13421 l 0.0228,-0.0429 c 0.003,0.005 0.0685,0.13421 0.0685,0.13421 l 0.0228,-0.0428 c 0.003,0.005 0.0685,0.13421 0.0685,0.13421 l 0.0228,-0.0428 c 0.003,0.005 0.0685,0.13421 0.0685,0.13421 l 0.0228,-0.0429 c 0.002,0.005 0.0657,0.13138 0.0657,0.13138 l 0.0228,-0.0428 c 0.003,0.005 0.0685,0.13421 0.0685,0.13421 l 0.0229,-0.0429 c 0.003,0.005 0.0685,0.13421 0.0685,0.13421 l 0.0228,-0.0428 c 0.003,0.005 0.0685,0.13421 0.0685,0.13421 l 0.0228,-0.0428 c 0.003,0.005 0.0685,0.13421 0.0685,0.13421 l 0.0228,-0.0428 c 0.003,0.005 0.0685,0.1342 0.0685,0.1342 l 0.0228,-0.0428 c 0.003,0.005 0.0657,0.13138 0.0657,0.13138 l 0.0228,-0.0429 c 0.003,0.005 0.0685,0.13421 0.0685,0.13421 l 0.0228,-0.0428 c 0.003,0.005 0.0685,0.13421 0.0685,0.13421 l 0.0228,-0.0428 c 0.003,0.005 0.0685,0.13421 0.0685,0.13421 l 0.0228,-0.0428 0.0685,0.1342 0.0228,-0.0428 0.0685,0.1342 0.0228,-0.0428 0.0657,0.13138 0.0228,-0.0428 0.0685,0.13421 c 0,0 0.0222,-0.0415 0.0228,-0.0428 l 0.0685,0.13421 0.0228,-0.0429 0.0685,0.13422 0.0228,-0.0428 c 0.003,0.006 0.0685,0.1342 0.0685,0.1342 l 0.0228,-0.0428 0.0685,0.1342 0.0228,-0.0429 c 0.003,0.005 0.0657,0.13138 0.0657,0.13138 l 0.0228,-0.0429 c 0.003,0.006 0.0685,0.13421 0.0685,0.13421 l 0.0228,-0.0429 c 0.003,0.006 0.0685,0.13422 0.0685,0.13422 l 0.0228,-0.0428 c 0.003,0.006 0.0685,0.13421 0.0685,0.13421 l 0.0228,-0.0429 c 0.003,0.006 0.0685,0.1342 0.0685,0.1342 l 0.0228,-0.0429 c 0.003,0.006 0.0685,0.13421 0.0685,0.13421 l 0.0228,-0.0428 c 0.003,0.006 0.0685,0.13422 0.0685,0.13422 l 0.0228,-0.0429 c 0.003,0.006 0.0657,0.13138 0.0657,0.13138 l 0.0228,-0.0428 c 0.003,0.006 0.0685,0.13421 0.0685,0.13421 l 0.0228,-0.0429 c 0.003,0.006 0.0685,0.13421 0.0685,0.13421 l 0.0228,-0.0429 c 0.003,0.006 0.0685,0.1342 0.0685,0.1342 l 0.0228,-0.0428 c 0.003,0.006 0.0685,0.13422 0.0685,0.13422 l 0.0228,-0.0429 c 0.003,0.006 0.0685,0.13421 0.0685,0.13421 l 0.0229,-0.0429 c 0.003,0.006 0.0657,0.13138 0.0657,0.13138 l 0.0229,-0.0429 c 0.003,0.006 0.0685,0.13421 0.0685,0.13421 l 0.0228,-0.0428 c 0.003,0.006 0.0685,0.13421 0.0685,0.13421 l 0.0228,-0.0428 c 0.003,0.006 0.0685,0.1342 0.0685,0.1342 l 0.0228,-0.0428 c 0.003,0.007 0.0685,0.13421 0.0685,0.13421 l 0.0228,-0.0428 c 0.003,0.007 0.0685,0.13421 0.0685,0.13421 l 0.0228,-0.0428 c 0.003,0.006 0.0657,0.13138 0.0657,0.13138 l 0.0228,-0.0428 0.0685,0.13421 0.0228,-0.0428 0.0685,0.1342 0.0228,-0.0428 0.0685,0.1342 0.0228,-0.0428 0.0685,0.13421 0.0228,-0.0428 0.0685,0.13421 0.0228,-0.0429 0.0685,0.13421 0.0228,-0.0428 c 0.003,0.007 0.0657,0.13138 0.0657,0.13138 l 0.0228,-0.0429 c 0.004,0.007 0.0685,0.13421 0.0685,0.13421 l 0.0228,-0.0428 c 0.004,0.007 0.0685,0.1342 0.0685,0.1342 l 0.0228,-0.0428 c 0.001,0.003 0.0135,0.0275 0.0257,0.0514 C 22.50293,43.95518 23.24423,44 23.99649,44 c 10.47816,0 19.07245,-8.05801 19.9285,-18.31506 -0.0108,-0.021 -0.0228,-0.0485 -0.0228,-0.0485 l -0.0228,0.0428 c -0.004,-0.007 -0.0685,-0.13421 -0.0685,-0.13421 l -0.0228,0.0428 -0.0685,-0.13421 -0.0228,0.0429 -0.0657,-0.13138 -0.0228,0.0428 -0.0685,-0.13421 -0.0228,0.0429 -0.0685,-0.1342 -0.0228,0.0428 -0.0685,-0.13421 -0.0228,0.0428 c -0.003,-0.007 -0.0685,-0.13421 -0.0685,-0.13421 l -0.0228,0.0429 c -0.003,-0.007 -0.0685,-0.13421 -0.0685,-0.13421 l -0.0228,0.0428 c -0.003,-0.007 -0.0685,-0.13421 -0.0685,-0.13421 l -0.0228,0.0428 c -0.003,-0.006 -0.0657,-0.13137 -0.0657,-0.13137 l -0.0228,0.0428 c -0.003,-0.007 -0.0685,-0.13421 -0.0685,-0.13421 l -0.0228,0.0428 c -0.003,-0.006 -0.0685,-0.13421 -0.0685,-0.13421 l -0.0228,0.0429 c -0.003,-0.006 -0.0685,-0.13421 -0.0685,-0.13421 l -0.0228,0.0428 c -0.003,-0.006 -0.0685,-0.13421 -0.0685,-0.13421 l -0.0228,0.0428 c -0.003,-0.006 -0.0685,-0.13421 -0.0685,-0.13421 l -0.0228,0.0429 c -0.003,-0.006 -0.0657,-0.13137 -0.0657,-0.13137 l -0.0228,0.0428 c -0.003,-0.006 -0.0685,-0.13421 -0.0685,-0.13421 l -0.0228,0.0429 c -0.003,-0.006 -0.0685,-0.13421 -0.0685,-0.13421 l -0.0228,0.0428 c -0.003,-0.006 -0.0685,-0.13422 -0.0685,-0.13422 l -0.0228,0.0429 c -0.003,-0.006 -0.0685,-0.13421 -0.0685,-0.13421 l -0.0228,0.0429 c -0.003,-0.006 -0.0685,-0.1342 -0.0685,-0.1342 l -0.0228,0.0428 c -0.003,-0.006 -0.0657,-0.13137 -0.0657,-0.13137 l -0.0229,0.0429 c -0.003,-0.006 -0.0685,-0.13421 -0.0685,-0.13421 l -0.0228,0.0428 c -0.003,-0.006 -0.0685,-0.13422 -0.0685,-0.13422 l -0.0228,0.0429 c -0.003,-0.006 -0.0685,-0.13421 -0.0685,-0.13421 l -0.0228,0.0429 c -0.003,-0.006 -0.0685,-0.13421 -0.0685,-0.13421 l -0.0228,0.0428 c -0.003,-0.006 -0.0685,-0.1342 -0.0685,-0.1342 l -0.0228,0.0428 c -0.003,-0.006 -0.0685,-0.13421 -0.0685,-0.13421 l -0.0228,0.0429 c -0.003,-0.005 -0.0657,-0.13138 -0.0657,-0.13138 l -0.0228,0.0429 -0.0685,-0.13421 -0.0228,0.0429 -0.0685,-0.13421 -0.0228,0.0428 -0.0685,-0.13421 -0.0228,0.0429 -0.0685,-0.1342 -0.0228,0.0428 -0.0685,-0.13421 -0.0228,0.0428 -0.0657,-0.13138 -0.0228,0.0428 c -0.003,-0.005 -0.0685,-0.13421 -0.0685,-0.13421 l -0.0228,0.0428 c -0.003,-0.005 -0.0685,-0.13421 -0.0685,-0.13421 l -0.0228,0.0429 c -0.003,-0.005 -0.0685,-0.13421 -0.0685,-0.13421 l -0.0228,0.0428 c -0.003,-0.005 -0.0685,-0.1342 -0.0685,-0.1342 l -0.0228,0.0428 c -0.003,-0.005 -0.0685,-0.13421 -0.0685,-0.13421 l -0.0228,0.0429 c -0.003,-0.005 -0.0657,-0.13138 -0.0657,-0.13138 l -0.0228,0.0428 c -0.003,-0.005 -0.0685,-0.13421 -0.0685,-0.13421 l -0.0228,0.0429 c -0.003,-0.005 -0.0685,-0.13421 -0.0685,-0.13421 l -0.0228,0.0428 c -0.003,-0.005 -0.0685,-0.13421 -0.0685,-0.13421 l -0.0228,0.0428 c -0.003,-0.005 -0.0685,-0.1342 -0.0685,-0.1342 l -0.0228,0.0429 c -0.003,-0.005 -0.0685,-0.13421 -0.0685,-0.13421 l -0.0229,0.0428 c -0.002,-0.005 -0.0657,-0.13138 -0.0657,-0.13138 l -0.0228,0.0429 c -0.003,-0.005 -0.0685,-0.13421 -0.0685,-0.13421 l -0.0228,0.0428 c -0.003,-0.005 -0.0685,-0.13422 -0.0685,-0.13422 l -0.0228,0.0428 c -0.003,-0.005 -0.0685,-0.1342 -0.0685,-0.1342 l -0.0228,0.0429 c -0.003,-0.005 -0.0685,-0.1342 -0.0685,-0.1342 l -0.0229,0.0428 c -0.002,-0.005 -0.0685,-0.13421 -0.0685,-0.13421 l -0.0228,0.0428 c -0.002,-0.005 -0.0685,-0.13422 -0.0685,-0.13422 l -0.0228,0.0429 c -0.002,-0.005 -0.0657,-0.13138 -0.0657,-0.13138 l -0.0228,0.0428 c -0.002,-0.005 -0.0685,-0.13421 -0.0685,-0.13421 l -0.0228,0.0429 c -0.002,-0.005 -0.0685,-0.1342 -0.0685,-0.1342 l -0.0228,0.0428 c -0.002,-0.005 -0.0685,-0.1342 -0.0685,-0.1342 l -0.0228,0.0428 -0.0685,-0.13422 c 0,0 -0.0217,0.0406 -0.0228,0.0429 l -0.0685,-0.13421 -0.0228,0.0428 -0.0657,-0.13138 -0.0228,0.0429 -0.0685,-0.13421 -0.0228,0.0428 -0.0685,-0.1342 -0.0228,0.0428 c -0.002,-0.005 -0.0685,-0.13422 -0.0685,-0.13422 l -0.0228,0.0429 c -0.002,-0.005 -0.0685,-0.13421 -0.0685,-0.13421 l -0.0228,0.0428 c -0.002,-0.004 -0.0685,-0.13421 -0.0685,-0.13421 l -0.0228,0.0428 c -0.002,-0.004 -0.0657,-0.13138 -0.0657,-0.13138 l -0.0228,0.0428 c -0.002,-0.004 -0.0685,-0.13421 -0.0685,-0.13421 l -0.0228,0.0428 c -0.002,-0.004 -0.0685,-0.1342 -0.0685,-0.1342 l -0.0228,0.0428 c -0.002,-0.004 -0.0685,-0.13421 -0.0685,-0.13421 l -0.0228,0.0428 c -0.002,-0.004 -0.0685,-0.13421 -0.0685,-0.13421 l -0.0228,0.0429 c -0.002,-0.004 -0.0685,-0.13421 -0.0685,-0.13421 l -0.0228,0.0429 c -0.002,-0.004 -0.0685,-0.13421 -0.0685,-0.13421 l -0.0228,0.0428 c -0.002,-0.004 -0.0657,-0.13137 -0.0657,-0.13137 l -0.0228,0.0428 c -0.002,-0.004 -0.0685,-0.1342 -0.0685,-0.1342 l -0.0228,0.0428 c -0.002,-0.004 -0.0685,-0.13421 -0.0685,-0.13421 l -0.0228,0.0429 c -0.002,-0.004 -0.0685,-0.13421 -0.0685,-0.13421 l -0.0229,0.0429 c -0.002,-0.004 -0.0685,-0.13421 -0.0685,-0.13421 l -0.0228,0.0428 c -0.002,-0.004 -0.0685,-0.13422 -0.0685,-0.13422 l -0.0228,0.0429 -0.0657,-0.13137 -0.0228,0.0428 c -0.002,-0.004 -0.0685,-0.1342 -0.0685,-0.1342 l -0.0228,0.0429 c -0.002,-0.004 -0.0685,-0.13421 -0.0685,-0.13421 l -0.0229,0.0429 c -0.002,-0.004 -0.0685,-0.13421 -0.0685,-0.13421 l -0.0228,0.0428 c -0.002,-0.004 -0.0685,-0.13422 -0.0685,-0.13422 l -0.0228,0.0429 c -0.002,-0.004 -0.0685,-0.13421 -0.0685,-0.13421 l -0.0228,0.0428 -0.0657,-0.13137 -0.0228,0.0429 -0.0685,-0.1342 -0.0228,0.0428 -0.0685,-0.13421 -0.0228,0.0428 -0.0685,-0.13422 -0.0228,0.0429 -0.0685,-0.13421 -0.0228,0.0428 -0.0685,-0.13421 -0.02,0.0428 -0.0685,-0.13137 -0.0228,0.0428 c -0.002,-0.004 -0.0685,-0.13421 -0.0685,-0.13421 l -0.0228,0.0428 c -0.002,-0.004 -0.0685,-0.13422 -0.0685,-0.13422 l -0.0228,0.0429 c -0.002,-0.004 -0.0685,-0.13421 -0.0685,-0.13421 l -2.43823,4.78821 c -9e-5,-1.8e-4 -0.0143,-0.0257 -0.0143,-0.0257 l -0.0228,0.0428 c -0.002,-0.004 -0.0685,-0.13421 -0.0685,-0.13421 l -0.0228,0.0428 c -0.002,-0.004 -0.0685,-0.13421 -0.0685,-0.13421 l -0.0228,0.0429 -0.0685,-0.13421 -0.02,0.0428 -0.0685,-0.13138 -0.0228,0.0429 -0.0685,-0.13421 -0.0228,0.0428 -0.0685,-0.13421 -0.0228,0.0428 -0.0685,-0.13421 -0.0228,0.0429 -0.0685,-0.13422 -0.0228,0.0428 -0.0685,-0.1342 -0.0228,0.0428 c -0.002,-0.004 -0.0685,-0.13421 -0.0685,-0.13421 l -0.0228,0.0429 c -0.002,-0.004 -0.0657,-0.13138 -0.0657,-0.13138 l -0.0228,0.0428 c -0.002,-0.004 -0.0685,-0.13421 -0.0685,-0.13421 l -0.0228,0.0429 c -0.002,-0.004 -0.0685,-0.13421 -0.0685,-0.13421 l -0.0228,0.0428 c -0.002,-0.004 -0.0685,-0.13421 -0.0685,-0.13421 l -0.0228,0.0428 c -0.002,-0.004 -0.0685,-0.1342 -0.0685,-0.1342 l -0.0228,0.0429 c -0.002,-0.004 -0.0685,-0.13421 -0.0685,-0.13421 l -0.0228,0.0428 c -0.002,-0.004 -0.0657,-0.13138 -0.0657,-0.13138 l -0.0228,0.0429 c -0.002,-0.004 -0.0685,-0.13421 -0.0685,-0.13421 l -0.0228,0.0428 c -0.002,-0.004 -0.0685,-0.13421 -0.0685,-0.13421 l -0.0228,0.0428 c -0.002,-0.004 -0.0685,-0.1342 -0.0685,-0.1342 l -0.0228,0.0429 c -0.002,-0.004 -0.0685,-0.1342 -0.0685,-0.1342 l -0.0228,0.0428 c -0.002,-0.004 -0.0685,-0.13421 -0.0685,-0.13421 l -0.0228,0.0428 c -0.002,-0.004 -0.0657,-0.13138 -0.0657,-0.13138 l -0.0228,0.0428 c -0.002,-0.004 -0.0685,-0.13422 -0.0685,-0.13422 l -0.0228,0.0429 c -0.002,-0.004 -0.0685,-0.13421 -0.0685,-0.13421 l -0.0228,0.0429 c -0.002,-0.004 -0.0685,-0.1342 -0.0685,-0.1342 l -0.0228,0.0428 c -0.002,-0.004 -0.0685,-0.1342 -0.0685,-0.1342 l -0.0228,0.0428 c -0.002,-0.004 -0.0685,-0.13422 -0.0685,-0.13422 l -0.0228,0.0429 c -0.002,-0.004 -0.0685,-0.13421 -0.0685,-0.13421 l -0.0228,0.0428 -0.0657,-0.13138 -0.0228,0.0429 -0.0685,-0.13421 -0.0228,0.0428 -0.0685,-0.1342 -0.0228,0.0429 -0.0685,-0.13422 -0.0228,0.0429 -0.0685,-0.13421 -0.0228,0.0428 -0.0685,-0.13421 -0.0228,0.0429 -0.0657,-0.13138 -0.0228,0.0428 -0.0685,-0.13421 -0.0228,0.0429 c -0.002,-0.004 -0.0685,-0.13421 -0.0685,-0.13421 l -0.0228,0.0428 c -0.002,-0.004 -0.0685,-0.13421 -0.0685,-0.13421 l -0.0228,0.0428 c -0.002,-0.004 -0.0685,-0.13421 -0.0685,-0.13421 l -0.0228,0.0429 c -0.002,-0.004 -0.0685,-0.13421 -0.0685,-0.13421 l -0.0228,0.0429 c -0.002,-0.004 -0.0657,-0.13138 -0.0657,-0.13138 l -0.0228,0.0429 c -0.002,-0.004 -0.0685,-0.1342 -0.0685,-0.1342 l -0.0228,0.0428 c -0.002,-0.004 -0.0685,-0.1342 -0.0685,-0.1342 l -0.0228,0.0428 c -0.002,-0.004 -0.0685,-0.13421 -0.0685,-0.13421 l -0.0228,0.0429 c -0.002,-0.004 -0.0685,-0.13421 -0.0685,-0.13421 l -0.0228,0.0428 c -0.002,-0.004 -0.0685,-0.13421 -0.0685,-0.13421 l -0.0228,0.0428 c -0.002,-0.004 -0.0657,-0.13137 -0.0657,-0.13137 l -0.0228,0.0428 c -0.002,-0.004 -0.0685,-0.1342 -0.0685,-0.1342 l -0.0228,0.0428 c -0.002,-0.004 -0.0685,-0.1342 -0.0685,-0.1342 l -0.0228,0.0429 c -0.002,-0.004 -0.0685,-0.13421 -0.0685,-0.13421 l -0.0228,0.0428 c -0.002,-0.004 -0.0685,-0.13421 -0.0685,-0.13421 l -0.0228,0.0428 c -0.002,-0.004 -0.0685,-0.13422 -0.0685,-0.13422 l -0.0228,0.0429 c -0.002,-0.004 -0.0685,-0.13421 -0.0685,-0.13421 l -0.0228,0.0428 c -0.002,-0.004 -0.0657,-0.13137 -0.0657,-0.13137 l -0.0228,0.0429 c -0.002,-0.004 -0.0685,-0.1342 -0.0685,-0.1342 l -0.0228,0.0428 c -0.002,-0.004 -0.0685,-0.13421 -0.0685,-0.13421 l -0.0228,0.0428 c -0.002,-0.004 -0.0685,-0.13422 -0.0685,-0.13422 l -0.0228,0.0429 -0.0685,-0.13421 -0.0228,0.0428 -0.0685,-0.13421 -0.0229,0.0428 -0.0657,-0.13137 -0.0229,0.0428 -0.0685,-0.13421 -0.0228,0.0428 -0.0685,-0.13422 -0.0228,0.0429 -0.0685,-0.13421 -0.0228,0.0428 c -0.002,-0.004 -0.0685,-0.13421 -0.0685,-0.13421 l -0.0228,0.0428 c -0.002,-0.004 -0.0685,-0.13421 -0.0685,-0.13421 l -0.0228,0.0429 c -0.002,-0.004 -0.0657,-0.13137 -0.0657,-0.13137 l -0.0228,0.0428 c -0.002,-0.004 -0.0685,-0.13422 -0.0685,-0.13422 l -0.0228,0.0429 c -0.002,-0.004 -0.0685,-0.13421 -0.0685,-0.13421 l -0.0228,0.0428 c -0.002,-0.004 -0.0685,-0.13421 -0.0685,-0.13421 l -0.0228,0.0429 c -0.002,-0.004 -0.0685,-0.13421 -0.0685,-0.13421 l -0.0228,0.0429 c -0.002,-0.004 -0.0685,-0.1342 -0.0685,-0.1342 l -0.0228,0.0428 c -0.002,-0.004 -0.0685,-0.1342 -0.0685,-0.1342 l -0.0228,0.0429 c -0.002,-0.004 -0.0657,-0.13138 -0.0657,-0.13138 l -0.0228,0.0428 c -0.002,-0.004 -0.0685,-0.13421 -0.0685,-0.13421 l -0.0228,0.0429 c -0.002,-0.004 -0.0685,-0.13421 -0.0685,-0.13421 l -0.0228,0.0429 c -0.002,-0.004 -0.0685,-0.13421 -0.0685,-0.13421 l -0.0228,0.0428 c -0.002,-0.004 -0.0685,-0.1342 -0.0685,-0.1342 l -0.0228,0.0429 c -0.002,-0.004 -0.0685,-0.1342 -0.0685,-0.1342 l -0.0228,0.0429 c -0.002,-0.004 -0.0657,-0.13138 -0.0657,-0.13138 l -0.0228,0.0429 c -0.002,-0.004 -0.0685,-0.13421 -0.0685,-0.13421 l -0.0228,0.0429 c -0.002,-0.004 -0.0685,-0.13421 -0.0685,-0.13421 l -0.0228,0.0428 c -0.002,-0.004 -0.0685,-0.13422 -0.0685,-0.13422 l -0.0228,0.0429 c -0.002,-0.004 -0.0685,-0.1342 -0.0685,-0.1342 l -0.0228,0.0429 c -0.002,-0.004 -0.0685,-0.13421 -0.0685,-0.13421 l -0.0228,0.0428 c -0.002,-0.004 -0.0657,-0.13138 -0.0657,-0.13138 l -0.0228,0.0428 c -0.002,-0.004 -0.0685,-0.13421 -0.0685,-0.13421 l -0.0228,0.0428 -0.0685,-0.13422 -0.0228,0.0429 -0.0685,-0.13421 -0.0228,0.0428 -0.0685,-0.1342 -0.0228,0.0428 -0.0685,-0.13421 -0.0228,0.0429 -0.0657,-0.13138 -0.0228,0.0428 c -0.002,-0.004 -0.0685,-0.13422 -0.0685,-0.13422 l -0.0228,0.0429 c -0.002,-0.004 -0.0685,-0.13421 -0.0685,-0.13421 l -0.0228,0.0428 -0.0685,-0.13421"
     inkscape:connector-curvature="0"
     style="fill-opacity:0.23500001;fill-rule:evenodd" />
  <path
     style="fill:#ffffff;fill-rule:evenodd"
     id="path76"
     d="M 17.85568,26.2063 13.17876,35.32164 8.50182,26.2063 13.17876,17.09096 z"
     inkscape:connector-curvature="0" />
  <path
     style="fill:#ffffff;fill-rule:evenodd"
     id="path78"
     d="m 40.03446,26.20573 -4.67693,9.11534 -4.67693,-9.11534 4.67693,-9.11534 z"
     inkscape:connector-curvature="0" />
  <path
     style="fill:#ffffff;fill-rule:evenodd"
     id="path80"
     d="m 28.94493,22.3298 -4.67694,9.11534 -4.67692,-9.11534 4.67692,-9.11535 z"
     inkscape:connector-curvature="0" />
</svg>
