<?xml version="1.0" encoding="UTF-8" standalone="no"?>
<!-- Created using Karbon, part of Calligra: http://www.calligra.org/karbon -->

<svg
   xmlns:dc="http://purl.org/dc/elements/1.1/"
   xmlns:cc="http://creativecommons.org/ns#"
   xmlns:rdf="http://www.w3.org/1999/02/22-rdf-syntax-ns#"
   xmlns:svg="http://www.w3.org/2000/svg"
   xmlns="http://www.w3.org/2000/svg"
   xmlns:sodipodi="http://sodipodi.sourceforge.net/DTD/sodipodi-0.dtd"
   xmlns:inkscape="http://www.inkscape.org/namespaces/inkscape"
   width="38.4pt"
   height="38.4pt"
   id="svg2"
   version="1.1"
   inkscape:version="0.48.5 r10040"
   sodipodi:docname="geogebra.svg">
  <metadata
     id="metadata16">
    <rdf:RDF>
      <cc:Work
         rdf:about="">
        <dc:format>image/svg+xml</dc:format>
        <dc:type
           rdf:resource="http://purl.org/dc/dcmitype/StillImage" />
        <dc:title />
      </cc:Work>
    </rdf:RDF>
  </metadata>
  <sodipodi:namedview
     pagecolor="#ffffff"
     bordercolor="#666666"
     borderopacity="1"
     objecttolerance="10"
     gridtolerance="10"
     guidetolerance="10"
     inkscape:pageopacity="0"
     inkscape:pageshadow="2"
     inkscape:window-width="1920"
     inkscape:window-height="1025"
     id="namedview14"
     showgrid="false"
     inkscape:showpageshadow="false"
     borderlayer="true"
     inkscape:zoom="5.6568543"
     inkscape:cx="0.84095678"
     inkscape:cy="27.273724"
     inkscape:window-x="-4"
     inkscape:window-y="39"
     inkscape:window-maximized="1"
     inkscape:current-layer="svg2"
     showguides="true"
     inkscape:guide-bbox="true">
    <sodipodi:guide
       position="9.5367432e-07,48.000001"
       orientation="47.999999,0"
       id="guide4074" />
    <sodipodi:guide
       position="9.5367432e-07,1.9073486e-06"
       orientation="0,47.999999"
       id="guide4076" />
    <sodipodi:guide
       position="48,1.9073486e-06"
       orientation="-47.999999,0"
       id="guide4078" />
    <sodipodi:guide
       position="48,48.000001"
       orientation="0,-47.999999"
       id="guide4080" />
    <sodipodi:guide
       position="4.000001,44.000001"
       orientation="39.999999,0"
       id="guide4082" />
    <sodipodi:guide
       position="4.000001,4.0000019"
       orientation="0,39.999999"
       id="guide4084" />
    <sodipodi:guide
       position="44,4.0000019"
       orientation="-39.999999,0"
       id="guide4086" />
    <sodipodi:guide
       position="44,44.000001"
       orientation="0,-39.999999"
       id="guide4088" />
    <sodipodi:guide
       position="11.000001,37.000001"
       orientation="25.999999,0"
       id="guide4121" />
    <sodipodi:guide
       position="11.000001,11.000002"
       orientation="0,25.999999"
       id="guide4123" />
    <sodipodi:guide
       position="37,11.000002"
       orientation="-25.999999,0"
       id="guide4125" />
    <sodipodi:guide
       position="37,37.000001"
       orientation="0,-25.999999"
       id="guide4127" />
  </sodipodi:namedview>
  <defs
     id="defs4" />
  <path
     style="fill:#62c0dc;fill-rule:evenodd"
     inkscape:connector-curvature="0"
     id="path4"
     d="m 43.993471,23.99657 c 0,11.04433 -8.953312,19.99673 -19.996731,19.99673 C 12.9524,43.9933 4,35.03999 4,23.99657 4,12.95223 12.95331,3.99983 23.99674,3.99983 c 11.044333,0 19.996731,8.95331 19.996731,19.99674" />
  <path
     inkscape:connector-curvature="0"
     id="path6"
     style="color:#000000;fill-opacity:0.23500001"
     d="m 23.3381,11.27685 c -1.70479,0 -3.11051,1.32953 -3.2373,3.00317 -0.31306,0.1267 -0.62438,0.26327 -0.93352,0.41108 -2.1314,1.01938 -3.93814,2.44318 -5.31845,4.09079 -0.22957,-0.0518 -0.46882,-0.0828 -0.71373,-0.0828 -1.78755,0 -3.24872,1.45823 -3.24872,3.24579 0,0.93608 0.40058,1.78391 1.03913,2.37787 0.0134,0.0135 0.0263,0.0267 0.04,0.04 0.005,0.005 0.01,0.009 0.0143,0.0143 0.0103,0.01 0.0209,0.0187 0.0314,0.0286 0.0124,0.0126 0.0245,0.0247 0.0371,0.0371 -0.40569,2.04928 -0.20755,4.14825 0.71939,6.08672 0.49119,1.02706 1.14745,1.92294 1.93025,2.68343 -0.0641,0.25387 -0.0999,0.51742 -0.0999,0.79074 0,0.92502 0.39181,1.76216 1.01628,2.35512 0.01,0.01 0.0186,0.0215 0.0286,0.0314 0.006,0.006 0.0135,0.0112 0.02,0.0172 0.003,0.003 0.006,0.006 0.009,0.009 0.0354,0.0374 0.0714,0.0728 0.10853,0.10853 0.0244,0.0254 0.0491,0.0496 0.0743,0.0743 0.0346,0.0365 0.0693,0.0735 0.10561,0.10852 0.0349,0.0364 0.072,0.071 0.10852,0.1056 0.01,0.01 0.0186,0.0215 0.0286,0.0314 0.006,0.006 0.0135,0.0112 0.02,0.0172 0.006,0.006 0.0113,0.0115 0.0172,0.0172 0.0179,0.0188 0.0359,0.0387 0.0543,0.0571 0.006,0.006 0.0135,0.0112 0.02,0.0172 0.042,0.0448 0.084,0.089 0.12843,0.13136 0.0203,0.0208 0.042,0.0396 0.0629,0.0599 0.0346,0.0365 0.0693,0.0735 0.1056,0.10853 0.0349,0.0364 0.072,0.071 0.10853,0.10559 0.01,0.01 0.0186,0.0215 0.0286,0.0314 0.006,0.006 0.0135,0.0112 0.02,0.0172 0.006,0.006 0.0113,0.0115 0.0172,0.0172 0.0179,0.0188 0.0359,0.0387 0.0543,0.0571 0.006,0.006 0.0135,0.0112 0.02,0.0172 0.042,0.0448 0.084,0.089 0.12843,0.13137 0.0203,0.0208 0.042,0.0396 0.0629,0.0599 0.0296,0.0312 0.0606,0.0613 0.0913,0.0914 0.0346,0.0365 0.0693,0.0735 0.1056,0.10853 0.0349,0.0364 0.072,0.071 0.10853,0.10559 0.01,0.01 0.0186,0.0215 0.0286,0.0314 0.006,0.006 0.0135,0.0112 0.02,0.0172 0.042,0.0448 0.084,0.089 0.12845,0.13136 0.0203,0.0208 0.042,0.0396 0.0628,0.0599 0.0296,0.0312 0.0606,0.0613 0.0913,0.0914 0.0346,0.0365 0.0693,0.0735 0.10561,0.10852 0.0349,0.0364 0.072,0.071 0.10852,0.1056 0.01,0.01 0.0186,0.0215 0.0286,0.0314 0.006,0.006 0.0135,0.0112 0.02,0.0172 0.006,0.006 0.0113,0.0115 0.0172,0.0172 0.0179,0.0188 0.0359,0.0387 0.0543,0.0571 0.006,0.006 0.0135,0.0112 0.02,0.0172 0.042,0.0448 0.084,0.089 0.12843,0.13136 0.0203,0.0208 0.042,0.0396 0.0629,0.0599 0.0346,0.0365 0.0693,0.0735 0.10559,0.10852 0.0349,0.0364 0.072,0.071 0.10853,0.10561 0.01,0.01 0.0186,0.0215 0.0286,0.0314 0.006,0.006 0.0135,0.0112 0.02,0.0172 0.006,0.006 0.0113,0.0115 0.0172,0.0172 0.0179,0.0188 0.0359,0.0387 0.0543,0.0571 0.006,0.006 0.0135,0.0112 0.02,0.0172 0.042,0.0448 0.084,0.089 0.12844,0.13137 0.0203,0.0208 0.042,0.0396 0.0628,0.0599 0.0296,0.0312 0.0606,0.0613 0.0914,0.0914 0.0399,0.0422 0.0807,0.0828 0.12277,0.12277 0.01,0.0101 0.0186,0.0215 0.0286,0.0314 0.006,0.006 0.0135,0.0112 0.02,0.0172 0.006,0.006 0.0113,0.0115 0.0172,0.0172 0.0179,0.0188 0.0359,0.0387 0.0543,0.0571 0.006,0.006 0.0135,0.0112 0.02,0.0172 0.042,0.0448 0.084,0.089 0.12845,0.13135 0.0203,0.0208 0.042,0.0396 0.0629,0.0599 0.0296,0.0312 0.0606,0.0613 0.0914,0.0914 0.0346,0.0365 0.0693,0.0735 0.1056,0.10853 0.0349,0.0364 0.072,0.071 0.10852,0.1056 0.01,0.01 0.0186,0.0215 0.0286,0.0314 0.006,0.006 0.0135,0.0112 0.02,0.0172 0.006,0.006 0.0113,0.0115 0.0172,0.0172 0.0179,0.0188 0.0359,0.0387 0.0543,0.0571 0.006,0.006 0.0135,0.0112 0.02,0.0172 0.003,0.003 0.006,0.006 0.009,0.009 0.0354,0.0374 0.0714,0.0728 0.10853,0.10852 0.0244,0.0254 0.0491,0.0496 0.0743,0.0743 0.0346,0.0365 0.0693,0.0735 0.1056,0.10852 0.0349,0.0364 0.072,0.071 0.10853,0.10561 0.01,0.01 0.0186,0.0215 0.0286,0.0314 0.006,0.006 0.0135,0.0112 0.02,0.0172 0.006,0.006 0.0113,0.0115 0.0172,0.0172 0.0179,0.0188 0.0359,0.0387 0.0543,0.0571 0.006,0.006 0.0135,0.0112 0.02,0.0172 0.042,0.0448 0.084,0.089 0.12844,0.13137 0.0203,0.0208 0.042,0.0396 0.0628,0.0599 0.0346,0.0365 0.0693,0.0736 0.10561,0.10853 0.0349,0.0364 0.072,0.071 0.10852,0.1056 0.01,0.01 0.0186,0.0215 0.0286,0.0314 0.006,0.006 0.0135,0.0112 0.02,0.0172 0.006,0.006 0.0113,0.0115 0.0172,0.0172 0.0179,0.0188 0.0359,0.0387 0.0543,0.0571 0.006,0.006 0.0135,0.0112 0.02,0.0172 0.042,0.0448 0.084,0.089 0.12844,0.13136 0.0203,0.0208 0.042,0.0397 0.0628,0.0599 0.0296,0.0312 0.0606,0.0613 0.0914,0.0914 0.0346,0.0365 0.0693,0.0735 0.10561,0.10853 0.0349,0.0364 0.072,0.071 0.10852,0.1056 0.01,0.01 0.0186,0.0215 0.0286,0.0314 0.006,0.006 0.0135,0.0112 0.02,0.0172 0.042,0.0448 0.084,0.089 0.12843,0.13137 0.0203,0.0208 0.042,0.0396 0.0629,0.0599 0.0296,0.0312 0.0606,0.0613 0.0914,0.0914 0.0346,0.0365 0.0693,0.0735 0.10561,0.10852 0.0349,0.0364 0.072,0.071 0.10852,0.10561 0.01,0.01 0.0186,0.0215 0.0286,0.0314 0.006,0.006 0.0135,0.0112 0.02,0.0172 0.006,0.006 0.0113,0.0115 0.0172,0.0172 0.0179,0.0188 0.0359,0.0387 0.0543,0.0571 0.006,0.006 0.0135,0.0112 0.02,0.0172 0.042,0.0448 0.084,0.089 0.12844,0.13137 0.0203,0.0208 0.042,0.0396 0.0628,0.0599 0.0346,0.0365 0.0693,0.0735 0.1056,0.10853 0.0349,0.0364 0.072,0.071 0.10853,0.10559 0.01,0.01 0.0186,0.0215 0.0286,0.0314 0.006,0.006 0.0135,0.0112 0.02,0.0172 0.006,0.006 0.0113,0.0115 0.0172,0.0172 0.0179,0.0188 0.0359,0.0387 0.0543,0.0571 0.006,0.006 0.0135,0.0112 0.02,0.0172 0.042,0.0448 0.084,0.089 0.12844,0.13136 0.0203,0.0208 0.042,0.0397 0.0629,0.0599 0.0296,0.0312 0.0606,0.0613 0.0914,0.0914 0.0399,0.0422 0.0807,0.0828 0.12277,0.12278 0.01,0.01 0.0186,0.0215 0.0286,0.0314 0.006,0.006 0.0135,0.0112 0.02,0.0172 0.006,0.006 0.0113,0.0115 0.0172,0.0172 0.0179,0.0188 0.0359,0.0387 0.0543,0.0571 0.006,0.006 0.0135,0.0112 0.02,0.0172 0.042,0.0448 0.084,0.089 0.12844,0.13136 0.003,0.003 0.006,0.006 0.009,0.009 0.60374,0.0549 1.21469,0.0857 1.83251,0.0857 11.010532,0 19.942834,-8.89941 19.997644,-19.89716 -0.0035,-0.003 -0.008,-0.005 -0.01142,-0.009 -0.0059,-0.006 -0.01115,-0.0135 -0.01717,-0.02 -0.0099,-0.01 -0.02138,-0.0188 -0.03143,-0.0286 -0.03472,-0.0365 -0.06934,-0.0736 -0.105602,-0.10852 -0.04476,-0.0465 -0.08962,-0.0933 -0.137027,-0.13703 -0.0306,-0.0305 -0.05956,-0.062 -0.09135,-0.0914 -0.01069,-0.0106 -0.02065,-0.0209 -0.03143,-0.0314 -0.04239,-0.0445 -0.08651,-0.0864 -0.131363,-0.12843 -0.0059,-0.006 -0.01114,-0.0135 -0.01717,-0.02 -0.02403,-0.024 -0.04942,-0.0481 -0.07427,-0.0713 -0.0059,-0.006 -0.01114,-0.0135 -0.01717,-0.02 -0.0099,-0.01 -0.02138,-0.0188 -0.03143,-0.0286 -0.04979,-0.0524 -0.09821,-0.10514 -0.151277,-0.1542 -0.03061,-0.0305 -0.05956,-0.062 -0.09136,-0.0913 -0.01069,-0.0106 -0.02065,-0.0209 -0.03143,-0.0314 -0.04239,-0.0445 -0.08651,-0.0864 -0.131363,-0.12844 -0.0059,-0.006 -0.01114,-0.0135 -0.01717,-0.02 -0.02403,-0.024 -0.04942,-0.0481 -0.07427,-0.0713 -0.0059,-0.006 -0.01114,-0.0135 -0.01717,-0.02 -0.0099,-0.01 -0.02138,-0.0188 -0.03143,-0.0286 -0.03472,-0.0365 -0.06934,-0.0736 -0.105601,-0.10853 -0.04476,-0.0465 -0.08962,-0.0933 -0.137026,-0.13702 -0.01069,-0.0106 -0.02065,-0.0209 -0.03143,-0.0314 -0.04239,-0.0445 -0.08651,-0.0864 -0.131363,-0.12843 -0.0059,-0.006 -0.01115,-0.0135 -0.01718,-0.02 -0.02403,-0.024 -0.04942,-0.0481 -0.07427,-0.0713 -0.0059,-0.006 -0.01114,-0.0135 -0.01717,-0.02 -0.0099,-0.01 -0.02138,-0.0188 -0.03143,-0.0286 -0.03471,-0.0365 -0.06934,-0.0736 -0.105602,-0.10852 -0.04476,-0.0465 -0.08962,-0.0933 -0.137026,-0.13702 -0.01498,-0.015 -0.03042,-0.0281 -0.04568,-0.0429 -0.03846,-0.04 -0.07656,-0.079 -0.11702,-0.11702 -0.0059,-0.006 -0.01115,-0.0135 -0.01717,-0.02 -0.02403,-0.024 -0.04942,-0.0482 -0.07427,-0.0713 -0.0059,-0.006 -0.01114,-0.0135 -0.01718,-0.02 -0.0099,-0.01 -0.02138,-0.0188 -0.03143,-0.0286 -0.03472,-0.0365 -0.06934,-0.0736 -0.105602,-0.10853 -0.04476,-0.0465 -0.08962,-0.0933 -0.137026,-0.13702 -0.0306,-0.0305 -0.05956,-0.062 -0.09136,-0.0914 -0.01069,-0.0106 -0.02065,-0.0209 -0.03143,-0.0314 -0.04239,-0.0445 -0.08651,-0.0864 -0.131363,-0.12844 -0.0059,-0.006 -0.01114,-0.0135 -0.01717,-0.02 -0.02403,-0.024 -0.04942,-0.0481 -0.07427,-0.0713 -0.0059,-0.006 -0.01114,-0.0135 -0.01717,-0.02 -0.0099,-0.01 -0.02138,-0.0188 -0.03143,-0.0286 -0.04979,-0.0524 -0.0982,-0.10515 -0.151277,-0.15419 -0.0306,-0.0305 -0.05956,-0.062 -0.09135,-0.0914 -0.01069,-0.0106 -0.02065,-0.0209 -0.03143,-0.0314 -0.04239,-0.0445 -0.08651,-0.0864 -0.131363,-0.12843 -0.0059,-0.006 -0.01115,-0.0135 -0.01718,-0.02 -0.02403,-0.024 -0.04942,-0.0481 -0.07427,-0.0713 -0.0059,-0.006 -0.01114,-0.0135 -0.01717,-0.02 -0.0099,-0.01 -0.02138,-0.0188 -0.03143,-0.0286 -0.03471,-0.0365 -0.06934,-0.0736 -0.105602,-0.10852 -0.04476,-0.0465 -0.08962,-0.0933 -0.137026,-0.13702 -0.01069,-0.0106 -0.02065,-0.0209 -0.03143,-0.0314 -0.04239,-0.0445 -0.08651,-0.0864 -0.131363,-0.12844 -0.0059,-0.006 -0.01114,-0.0135 -0.01717,-0.02 -0.02403,-0.024 -0.04942,-0.0481 -0.07427,-0.0713 -0.0059,-0.006 -0.01115,-0.0135 -0.01717,-0.02 -0.0099,-0.01 -0.02138,-0.0188 -0.03143,-0.0286 -0.03472,-0.0365 -0.06934,-0.0736 -0.105602,-0.10853 -0.04476,-0.0465 -0.08962,-0.0933 -0.137027,-0.13702 -0.0306,-0.0305 -0.05956,-0.062 -0.09134,-0.0914 -0.01069,-0.0106 -0.02065,-0.0209 -0.03143,-0.0314 -0.04239,-0.0445 -0.08651,-0.0864 -0.131363,-0.12845 -0.0059,-0.006 -0.01115,-0.0135 -0.01717,-0.02 -0.0099,-0.01 -0.02138,-0.0188 -0.03143,-0.0286 -0.03471,-0.0365 -0.06934,-0.0736 -0.105602,-0.10853 -0.04476,-0.0465 -0.08962,-0.0933 -0.137026,-0.13702 -0.0306,-0.0305 -0.05956,-0.062 -0.09135,-0.0914 -0.01069,-0.0106 -0.02065,-0.0209 -0.03143,-0.0314 -0.04239,-0.0445 -0.08651,-0.0864 -0.131363,-0.12844 -0.0059,-0.006 -0.01115,-0.0135 -0.01718,-0.02 -0.02403,-0.024 -0.04942,-0.0481 -0.07427,-0.0713 -0.0059,-0.006 -0.01114,-0.0135 -0.01717,-0.02 -0.0099,-0.01 -0.02138,-0.0188 -0.03143,-0.0286 -0.03471,-0.0365 -0.06934,-0.0736 -0.105602,-0.10853 -0.04476,-0.0465 -0.08962,-0.0933 -0.137026,-0.13702 -0.01069,-0.0106 -0.02065,-0.0209 -0.03143,-0.0314 -0.04239,-0.0445 -0.08651,-0.0864 -0.131363,-0.12844 -0.0059,-0.006 -0.01114,-0.0135 -0.01717,-0.02 -0.02403,-0.024 -0.04942,-0.0481 -0.07427,-0.0713 -0.0059,-0.006 -0.01115,-0.0135 -0.01717,-0.02 -0.0099,-0.01 -0.02138,-0.0188 -0.03143,-0.0286 -0.03472,-0.0365 -0.06934,-0.0736 -0.105602,-0.10852 -0.04476,-0.0465 -0.08962,-0.0933 -0.137027,-0.13703 -0.01498,-0.015 -0.03042,-0.0281 -0.04568,-0.0429 -0.03846,-0.04 -0.07655,-0.079 -0.11702,-0.11701 -0.0059,-0.006 -0.01114,-0.0135 -0.01717,-0.02 -0.0099,-0.01 -0.02138,-0.0188 -0.03143,-0.0286 -0.592959,-0.62448 -1.430191,-1.01628 -2.35512,-1.01628 -0.165071,0 -0.326672,0.0185 -0.485348,0.0428 -4.56e-4,-4.5e-4 -0.0024,4.6e-4 -0.0028,0 -5.48e-4,-5.4e-4 5.48e-4,-0.002 0,-0.003 -10e-4,-9.1e-4 -0.0019,-0.002 -0.0028,-0.003 -0.02247,-0.0222 -0.04577,-0.0437 -0.06852,-0.0657 -0.0079,-0.008 -0.01489,-0.0174 -0.02284,-0.0257 -0.02247,-0.0222 -0.04577,-0.0437 -0.06852,-0.0657 -0.0079,-0.008 -0.01489,-0.0174 -0.02284,-0.0257 -0.02156,-0.0213 -0.04394,-0.0417 -0.06569,-0.0629 -0.009,-0.009 -0.01663,-0.0194 -0.02567,-0.0286 -0.0058,-0.006 -0.01133,-0.0115 -0.01717,-0.0172 -0.04093,-0.0413 -0.08112,-0.0822 -0.122777,-0.12277 -0.04367,-0.0437 -0.08679,-0.0885 -0.131362,-0.13137 -0.0077,-0.008 -0.01516,-0.0154 -0.02284,-0.0228 -1.960301,-1.97418 -4.763955,-3.06564 -7.810511,-3.18587 -0.01571,-0.0155 -0.03252,-0.0305 -0.04851,-0.0457 -0.02777,-0.0285 -0.05682,-0.0553 -0.08569,-0.0828 -0.03325,-0.0344 -0.06514,-0.0699 -0.09994,-0.10278 -0.02403,-0.0246 -0.04659,-0.0504 -0.07135,-0.0743 -0.02649,-0.0276 -0.05536,-0.0534 -0.08277,-0.0799 -0.04184,-0.0439 -0.08423,-0.087 -0.128439,-0.12844 -0.02448,-0.0248 -0.04897,-0.0501 -0.07427,-0.0743 -0.02869,-0.0295 -0.05874,-0.0573 -0.08852,-0.0857 -0.03006,-0.0311 -0.06011,-0.0616 -0.09136,-0.0914 -0.03006,-0.0311 -0.06011,-0.0616 -0.09135,-0.0914 C 25.076731,11.66285 24.253483,11.28 23.341153,11.28" />
  <g
     style="stroke:#ffffff;stroke-linecap:square;stroke-miterlimit:10"
     id="g66"
     stroke-miterlimit="10"
     transform="matrix(0.92757814,0,0,0.92757814,8.49721,9.88831)">
    <path
       style="fill:none;stroke-width:2.5;stroke-linejoin:round"
       inkscape:connector-curvature="0"
       id="path68"
       d="m 4.653,21.715 c 2.553,5.338 10,7.093 16.633,3.92 6.634,-3.173 9.942,-10.07 7.389,-15.409 C 26.122,4.888 18.675,3.133 12.042,6.306 5.408,9.479 2.1,16.376 4.653,21.715 z" />
    <g
       style="fill:#ffffff"
       id="g70">
      <path
         inkscape:connector-curvature="0"
         id="path72"
         d="m 19,5 c 0,1.657 -1.343,3 -3,3 -1.657,0 -3,-1.343 -3,-3 0,-1.657 1.343,-3 3,-3 1.657,0 3,1.343 3,3 z" />
      <path
         inkscape:connector-curvature="0"
         id="path74"
         d="m 8,13 c 0,1.657 -1.343,3 -3,3 -1.657,0 -3,-1.343 -3,-3 0,-1.657 1.343,-3 3,-3 1.657,0 3,1.343 3,3 z" />
      <path
         inkscape:connector-curvature="0"
         id="path76"
         d="m 12,26 c 0,1.657 -1.343,3 -3,3 -1.657,0 -3,-1.343 -3,-3 0,-1.657 1.343,-3 3,-3 1.657,0 3,1.343 3,3 z" />
      <path
         inkscape:connector-curvature="0"
         id="path78"
         d="m 27,24 c 0,1.657 -1.343,3 -3,3 -1.657,0 -3,-1.343 -3,-3 0,-1.657 1.343,-3 3,-3 1.657,0 3,1.343 3,3 z" />
      <path
         inkscape:connector-curvature="0"
         id="path80"
         d="m 32,11 c 0,1.657 -1.343,3 -3,3 -1.657,0 -3,-1.343 -3,-3 0,-1.657 1.343,-3 3,-3 1.657,0 3,1.343 3,3 z" />
    </g>
  </g>
</svg>
