<?xml version="1.0" encoding="UTF-8" standalone="no"?>
<!-- Created using Karbon, part of Calligra: http://www.calligra.org/karbon -->

<svg
   xmlns:dc="http://purl.org/dc/elements/1.1/"
   xmlns:cc="http://creativecommons.org/ns#"
   xmlns:rdf="http://www.w3.org/1999/02/22-rdf-syntax-ns#"
   xmlns:svg="http://www.w3.org/2000/svg"
   xmlns="http://www.w3.org/2000/svg"
   xmlns:xlink="http://www.w3.org/1999/xlink"
   xmlns:sodipodi="http://sodipodi.sourceforge.net/DTD/sodipodi-0.dtd"
   xmlns:inkscape="http://www.inkscape.org/namespaces/inkscape"
   width="38.4pt"
   height="38.4pt"
   id="svg2"
   version="1.1"
   inkscape:version="0.48.5 r10040"
   sodipodi:docname="giggle.svg">
  <metadata
     id="metadata20">
    <rdf:RDF>
      <cc:Work
         rdf:about="">
        <dc:format>image/svg+xml</dc:format>
        <dc:type
           rdf:resource="http://purl.org/dc/dcmitype/StillImage" />
        <dc:title />
      </cc:Work>
    </rdf:RDF>
  </metadata>
  <sodipodi:namedview
     pagecolor="#ffffff"
     bordercolor="#666666"
     borderopacity="1"
     objecttolerance="10"
     gridtolerance="10"
     guidetolerance="10"
     inkscape:pageopacity="0"
     inkscape:pageshadow="2"
     inkscape:window-width="1920"
     inkscape:window-height="1035"
     id="namedview18"
     showgrid="false"
     inkscape:showpageshadow="false"
     borderlayer="true"
     inkscape:zoom="5.6568543"
     inkscape:cx="-57.068162"
     inkscape:cy="1.809272"
     inkscape:window-x="-4"
     inkscape:window-y="29"
     inkscape:window-maximized="1"
     inkscape:current-layer="svg2"
     showguides="true"
     inkscape:guide-bbox="true">
    <sodipodi:guide
       position="9.5367432e-07,48.000001"
       orientation="47.999999,0"
       id="guide4078" />
    <sodipodi:guide
       position="9.5367432e-07,1.9073486e-06"
       orientation="0,47.999999"
       id="guide4080" />
    <sodipodi:guide
       position="48,1.9073486e-06"
       orientation="-47.999999,0"
       id="guide4082" />
    <sodipodi:guide
       position="48,48.000001"
       orientation="0,-47.999999"
       id="guide4084" />
    <sodipodi:guide
       position="4.000001,44.000001"
       orientation="39.999999,0"
       id="guide4086" />
    <sodipodi:guide
       position="4.000001,4.0000019"
       orientation="0,39.999999"
       id="guide4088" />
    <sodipodi:guide
       position="44,4.0000019"
       orientation="-39.999999,0"
       id="guide4090" />
    <sodipodi:guide
       position="44,44.000001"
       orientation="0,-39.999999"
       id="guide4092" />
    <sodipodi:guide
       orientation="0,1"
       position="64.258329,24.041631"
       id="guide3805" />
    <sodipodi:guide
       orientation="1,0"
       position="24.041631,30.670757"
       id="guide3807" />
  </sodipodi:namedview>
  <defs
     id="defs4">
    <radialGradient
       inkscape:collect="always"
       xlink:href="#linearGradient3737-53"
       id="radialGradient6833"
       gradientUnits="userSpaceOnUse"
       gradientTransform="matrix(0.4133253,0,0,0.3556795,-0.83964,11.9276)"
       cx="48"
       cy="90.171875"
       fx="48"
       fy="90.171875"
       r="42" />
    <linearGradient
       id="linearGradient3737-53">
      <stop
         id="stop3739-85"
         style="stop-color:#ffffff;stop-opacity:1"
         offset="0" />
      <stop
         id="stop3741-56"
         style="stop-color:#ffffff;stop-opacity:0"
         offset="1" />
    </linearGradient>
    <linearGradient
       inkscape:collect="always"
       xlink:href="#linearGradient3737-53"
       id="linearGradient6836"
       gradientUnits="userSpaceOnUse"
       gradientTransform="matrix(3.9919293,0,0,3.9919293,-48.508196,74.428919)"
       x1="36.357143"
       y1="6"
       x2="36.357143"
       y2="63.893143" />
    <linearGradient
       id="linearGradient7702">
      <stop
         id="stop7704"
         style="stop-color:#ffffff;stop-opacity:1"
         offset="0" />
      <stop
         id="stop7706"
         style="stop-color:#ffffff;stop-opacity:0"
         offset="1" />
    </linearGradient>
    <linearGradient
       y2="63.893143"
       x2="36.357143"
       y1="6"
       x1="36.357143"
       gradientTransform="matrix(0.35714221,0,0,0.35714102,-53.473955,7.0842193)"
       gradientUnits="userSpaceOnUse"
       id="linearGradient7713"
       xlink:href="#linearGradient3737-53"
       inkscape:collect="always" />
  </defs>
  <rect
     style="fill:#e6b7b1;fill-opacity:1;stroke:#e74c3c;stroke-opacity:1"
     id="rect4106"
     width="40"
     height="40"
     x="4.000001"
     y="4.000001"
     ry="20" />
  <path
     style="opacity:0.2;fill:url(#radialGradient6833);fill-opacity:1;fill-rule:nonzero;stroke:none"
     id="path3615"
     inkscape:connector-curvature="0"
     d="M 6.14285,43.99988 C 4.95571,43.99988 4,43.04417 4,41.85704 L 4,41.14275 4,16.85716 4,16.14288 c 0,-0.11954 0.0147,-0.23239 0.0335,-0.34598 0.0174,-0.10557 0.0346,-0.21318 0.067,-0.31249 0.004,-0.0109 0.007,-0.0227 0.0111,-0.0335 0.0353,-0.10277 0.0839,-0.19551 0.13393,-0.29017 0.0516,-0.0977 0.11272,-0.19129 0.17857,-0.27902 0.0659,-0.0877 0.13349,-0.1691 0.21205,-0.24554 0.15712,-0.15287 0.33676,-0.2909 0.53572,-0.39062 0.0995,-0.0499 0.20481,-0.0882 0.3125,-0.12277 -0.0915,0.0358 -0.17383,0.0844 -0.2567,0.13393 -0.003,0.001 -0.009,-0.002 -0.0111,0 -0.0114,0.007 -0.0222,0.0152 -0.0335,0.0223 -0.043,0.0274 -0.0825,0.0584 -0.12276,0.0893 -0.0379,0.0288 -0.0762,0.0575 -0.11161,0.0893 -0.0636,0.0577 -0.12409,0.12336 -0.17857,0.18973 -0.0384,0.0465 -0.078,0.0947 -0.11161,0.14509 -0.009,0.0137 -0.0137,0.0307 -0.0223,0.0447 -0.0231,0.0368 -0.0465,0.073 -0.067,0.1116 -0.0361,0.0695 -0.0735,0.14847 -0.10045,0.22322 -0.003,0.008 -0.008,0.0145 -0.0111,0.0223 -0.0114,0.0328 -0.0128,0.0667 -0.0223,0.10044 -0.0108,0.0381 -0.0251,0.0725 -0.0335,0.11161 -0.026,0.12196 -0.0446,0.24935 -0.0446,0.37945 l 0,0.71429 0,24.28559 0,0.71428 c 0,0.99352 0.79219,1.78571 1.78571,1.78571 l 0.71428,0 24.28567,0 0.71429,0 c 0.99351,0 1.78571,-0.79219 1.78571,-1.78571 l 0,-0.71428 0,-24.28559 0,-0.71429 c 0,-0.1301 -0.0186,-0.25749 -0.0446,-0.37945 -0.0158,-0.0739 -0.0316,-0.14202 -0.0558,-0.21205 -0.003,-0.008 -0.008,-0.0145 -0.0111,-0.0223 -0.0224,-0.062 -0.0494,-0.13124 -0.0781,-0.18974 -0.0149,-0.0296 -0.0282,-0.0607 -0.0446,-0.0893 -0.0195,-0.0347 -0.0453,-0.0673 -0.067,-0.10045 -0.0336,-0.0503 -0.0732,-0.0986 -0.11161,-0.14509 -0.0511,-0.0623 -0.10826,-0.12392 -0.16741,-0.17857 -0.004,-0.004 -0.007,-0.008 -0.0111,-0.0111 -0.0494,-0.0448 -0.10182,-0.0837 -0.15625,-0.12277 -0.0366,-0.0261 -0.073,-0.0548 -0.11161,-0.0781 -0.002,-0.002 -0.009,10e-4 -0.0111,0 -0.0829,-0.0496 -0.1652,-0.0981 -0.2567,-0.13393 0.10769,0.0346 0.21302,0.0729 0.3125,0.12277 0.19896,0.0997 0.37859,0.23775 0.53572,0.39062 0.0786,0.0764 0.1462,0.15781 0.21205,0.24554 0.0659,0.0877 0.12693,0.18134 0.17857,0.27901 0.05,0.0947 0.0986,0.18741 0.13393,0.29018 0.004,0.011 0.008,0.0224 0.0111,0.0335 0.0323,0.0993 0.0496,0.20692 0.067,0.31249 0.0187,0.11358 0.0335,0.22643 0.0335,0.34598 l 0,0.71428 0,24.28559 0,0.71429 C 34.00032,43.04429 33.04461,44 31.85747,44 L 6.14323,44 z" />
  <rect
     ry="2.4233077"
     rx="2.4233158"
     y="24.027216"
     x="9.3827267"
     height="12.660028"
     width="12.660069"
     id="rect3486"
     style="fill:#e74c3c;fill-opacity:1;stroke:none" />
  <rect
     style="fill:#e74c3c;fill-opacity:1;stroke:none"
     id="rect4390"
     width="12.660069"
     height="12.660028"
     x="24.041632"
     y="23.958368"
     rx="2.4233158"
     ry="2.4233077" />
  <path
     inkscape:connector-curvature="0"
     d="m 27.416323,9.7196181 -0.81073,1.0906699 c -9.5974,7.34715 -11.08947,13.27302 -12.20785,13.99078 0.61171,0.60191 1.37739,0.49979 2.35615,0.23729 -1.61226,-0.87913 3.21253,-7.87642 9.37925,-12.89719 -1.33502,4.7019 4.83941,11.96644 3.24815,13.06745 0.94022,0.25755 1.46529,0.30784 2.12687,-0.37691 0.12075,-0.8992 -5.70372,-8.3162 -4.56258,-12.98701 l 1.37839,-1.63774 z"
     id="path4294"
     style="fill:#9acd32;stroke:none"
     sodipodi:nodetypes="cccccccccc" />
</svg>
