<?xml version="1.0" encoding="UTF-8" standalone="no"?>
<!-- Created with Inkscape (http://www.inkscape.org/) -->

<svg
   xmlns:dc="http://purl.org/dc/elements/1.1/"
   xmlns:cc="http://creativecommons.org/ns#"
   xmlns:rdf="http://www.w3.org/1999/02/22-rdf-syntax-ns#"
   xmlns:svg="http://www.w3.org/2000/svg"
   xmlns="http://www.w3.org/2000/svg"
   xmlns:sodipodi="http://sodipodi.sourceforge.net/DTD/sodipodi-0.dtd"
   xmlns:inkscape="http://www.inkscape.org/namespaces/inkscape"
   width="48"
   height="48"
   id="svg2"
   version="1.1"
   inkscape:version="0.48.5 r10040"
   sodipodi:docname="google-forms.svg"
   inkscape:export-filename="/home/uri/workspace/NitruxforAndroid/res/drawable-xhdpi/google_search.png"
   inkscape:export-xdpi="180"
   inkscape:export-ydpi="180">
  <defs
     id="defs4" />
  <sodipodi:namedview
     id="base"
     pagecolor="#ffffff"
     bordercolor="#666666"
     borderopacity="1.0"
     inkscape:pageopacity="0.0"
     inkscape:pageshadow="2"
     inkscape:zoom="8.0625001"
     inkscape:cx="15.680007"
     inkscape:cy="24.182887"
     inkscape:document-units="px"
     inkscape:current-layer="layer1"
     showgrid="false"
     inkscape:window-width="1920"
     inkscape:window-height="1025"
     inkscape:window-x="-4"
     inkscape:window-y="39"
     inkscape:window-maximized="1"
     showguides="true">
    <sodipodi:guide
       position="4,44.000017"
       orientation="40,0"
       id="guide4081" />
    <sodipodi:guide
       position="4,4.0000174"
       orientation="0,40"
       id="guide4083" />
    <sodipodi:guide
       position="44,4.0000174"
       orientation="-40,0"
       id="guide4085" />
    <sodipodi:guide
       position="44,44.000017"
       orientation="0,-40"
       id="guide4087" />
    <sodipodi:guide
       position="9,39.000017"
       orientation="30,0"
       id="guide4091" />
    <sodipodi:guide
       position="9,9.0000174"
       orientation="0,30"
       id="guide4093" />
    <sodipodi:guide
       position="39,9.0000174"
       orientation="-30,0"
       id="guide4095" />
    <sodipodi:guide
       position="39,39.000017"
       orientation="0,-30"
       id="guide4097" />
    <sodipodi:guide
       position="15,33.000017"
       orientation="18,0"
       id="guide4101" />
    <sodipodi:guide
       position="15,15.000017"
       orientation="0,18"
       id="guide4103" />
    <sodipodi:guide
       position="33,15.000017"
       orientation="-18,0"
       id="guide4105" />
    <sodipodi:guide
       position="33,33.000017"
       orientation="0,-18"
       id="guide4107" />
  </sodipodi:namedview>
  <metadata
     id="metadata7">
    <rdf:RDF>
      <cc:Work
         rdf:about="">
        <dc:format>image/svg+xml</dc:format>
        <dc:type
           rdf:resource="http://purl.org/dc/dcmitype/StillImage" />
        <dc:title />
      </cc:Work>
    </rdf:RDF>
  </metadata>
  <g
     inkscape:label="Capa 1"
     inkscape:groupmode="layer"
     id="layer1"
     transform="translate(0,-1004.3622)">
    <path
       style="fill:#74ae5d;fill-rule:evenodd"
       inkscape:connector-curvature="0"
       id="path52"
       d="m 44,1028.3622 c 0,11.0456 -8.954365,20 -20,20 -11.04564,0 -20,-8.9544 -20,-20 0,-11.0456 8.95436,-20 20,-20 11.045635,0 20,8.9544 20,20" />
    <path
       style="opacity:0.25"
       inkscape:connector-curvature="0"
       d="m 14.42072,1018.7062 c -1.2385,0 -2.24119,1.0059 -2.24119,2.2441 0,0.6192 0.2506,1.1796 0.65616,1.5851 l 5.70462,5.7046 v 1.9351 l 4.59915,4.5991 h -0.33402 l -6.14133,-6.1413 c 0,-1.2385 -1.00589,-2.2441 -2.24412,-2.2441 -1.2385,0 -2.2412,1.0059 -2.2412,2.2441 0,0.6193 0.25061,1.1796 0.65616,1.5851 l 5.70463,5.7047 v 1.935 l 9.9895,9.9895 c 8.863913,-2.0524 15.47028,-9.9968 15.47028,-19.4847 0,-0.4587 -0.0169,-0.9127 -0.04733,-1.3633 l -7.590334,-7.5904 H 18.540675 v 3.0835 l 4.59915,4.5991 h -0.33402 l -6.14134,-6.1413 c 0,-1.2385 -1.00589,-2.2441 -2.24411,-2.2441 m 0,15.3661 c -1.2385,0 -2.2412,1.0059 -2.2412,2.2441 0,0.6193 0.25061,1.1796 0.65616,1.5852 l 10.4463,10.4463 c 0.23837,0.01 0.47746,0.014 0.71783,0.014 1.46051,0 2.88393,-0.1579 4.25545,-0.4551 l -11.59107,-11.5911 c 0,-1.2385 -1.00589,-2.2441 -2.24411,-2.2441"
       id="path110" />
    <path
       style="fill:#ffffff"
       inkscape:connector-curvature="0"
       d="m 14.42072,1018.7062 c -1.2385,0 -2.24119,1.0059 -2.24119,2.2441 0,1.2385 1.00269,2.2412 2.24119,2.2412 1.2385,0 2.24412,-1.0027 2.24412,-2.2412 0,-1.2385 -1.00589,-2.2441 -2.24412,-2.2441 m 4.1195,0.7024 v 3.0834 h 17.821024 v -3.0834 H 18.54022 m -4.1195,6.9809 c -1.2385,0 -2.24119,1.0059 -2.24119,2.2441 0,1.2385 1.00269,2.2412 2.24119,2.2412 1.2385,0 2.24412,-1.0027 2.24412,-2.2412 0,-1.2385 -1.00589,-2.2441 -2.24412,-2.2441 m 4.1195,0.7024 v 3.0835 h 17.821024 v -3.0835 H 18.54022 m -4.1195,6.981 c -1.2385,0 -2.24119,1.0059 -2.24119,2.2441 0,1.2385 1.00269,2.2412 2.24119,2.2412 1.2385,0 2.24412,-1.0027 2.24412,-2.2412 0,-1.2385 -1.00589,-2.2441 -2.24412,-2.2441 m 4.1195,0.7023 v 3.0835 h 17.821024 v -3.0835 H 18.54022"
       id="path112" />
  </g>
</svg>
