<?xml version="1.0" encoding="UTF-8" standalone="no"?>
<!-- Created with Inkscape (http://www.inkscape.org/) -->

<svg
   xmlns:dc="http://purl.org/dc/elements/1.1/"
   xmlns:cc="http://creativecommons.org/ns#"
   xmlns:rdf="http://www.w3.org/1999/02/22-rdf-syntax-ns#"
   xmlns:svg="http://www.w3.org/2000/svg"
   xmlns="http://www.w3.org/2000/svg"
   xmlns:sodipodi="http://sodipodi.sourceforge.net/DTD/sodipodi-0.dtd"
   xmlns:inkscape="http://www.inkscape.org/namespaces/inkscape"
   width="48"
   height="48"
   id="svg2"
   version="1.1"
   inkscape:version="0.48.5 r10040"
   sodipodi:docname="google.svg"
   inkscape:export-filename="/home/uri/workspace/NitruxforAndroid/res/drawable-xhdpi/google_search.png"
   inkscape:export-xdpi="180"
   inkscape:export-ydpi="180">
  <defs
     id="defs4" />
  <sodipodi:namedview
     id="base"
     pagecolor="#ffffff"
     bordercolor="#666666"
     borderopacity="1.0"
     inkscape:pageopacity="0.0"
     inkscape:pageshadow="2"
     inkscape:zoom="8.0625001"
     inkscape:cx="15.680007"
     inkscape:cy="23.595893"
     inkscape:document-units="px"
     inkscape:current-layer="layer1"
     showgrid="false"
     inkscape:window-width="1920"
     inkscape:window-height="1025"
     inkscape:window-x="-4"
     inkscape:window-y="39"
     inkscape:window-maximized="1"
     showguides="true">
    <sodipodi:guide
       position="4,44.000017"
       orientation="40,0"
       id="guide4081" />
    <sodipodi:guide
       position="4,4.0000174"
       orientation="0,40"
       id="guide4083" />
    <sodipodi:guide
       position="44,4.0000174"
       orientation="-40,0"
       id="guide4085" />
    <sodipodi:guide
       position="44,44.000017"
       orientation="0,-40"
       id="guide4087" />
    <sodipodi:guide
       position="9,39.000017"
       orientation="30,0"
       id="guide4091" />
    <sodipodi:guide
       position="9,9.0000174"
       orientation="0,30"
       id="guide4093" />
    <sodipodi:guide
       position="39,9.0000174"
       orientation="-30,0"
       id="guide4095" />
    <sodipodi:guide
       position="39,39.000017"
       orientation="0,-30"
       id="guide4097" />
    <sodipodi:guide
       position="15,33.000017"
       orientation="18,0"
       id="guide4101" />
    <sodipodi:guide
       position="15,15.000017"
       orientation="0,18"
       id="guide4103" />
    <sodipodi:guide
       position="33,15.000017"
       orientation="-18,0"
       id="guide4105" />
    <sodipodi:guide
       position="33,33.000017"
       orientation="0,-18"
       id="guide4107" />
  </sodipodi:namedview>
  <metadata
     id="metadata7">
    <rdf:RDF>
      <cc:Work
         rdf:about="">
        <dc:format>image/svg+xml</dc:format>
        <dc:type
           rdf:resource="http://purl.org/dc/dcmitype/StillImage" />
        <dc:title />
      </cc:Work>
    </rdf:RDF>
  </metadata>
  <g
     inkscape:label="Capa 1"
     inkscape:groupmode="layer"
     id="layer1"
     transform="translate(0,-1004.3622)">
    <path
       style="fill:#4d90fe;fill-rule:evenodd"
       inkscape:connector-curvature="0"
       d="m 43.99982,1028.3622 c 0,11.0462 -8.95474,20 -19.99991,20 -11.04609,0 -19.99991,-8.9547 -19.99991,-20 0,-11.0462 8.95473,-20 19.99991,-20 11.04609,0 19.99991,8.9547 19.99991,20"
       id="path98" />
    <path
       style="fill-opacity:0.23500001"
       inkscape:connector-curvature="0"
       d="m 25.01498,1014.9213 c -3.55969,0.019 -7.12651,2.514 -7.47187,6.3473 -0.49456,2.7088 1.19871,4.6167 3.02968,6.2585 0.91822,1.1352 3.24822,2.8131 3.28632,3.6089 -3.30651,0.1331 -7.28914,1.3697 -8.39374,4.8653 -0.52517,1.5882 0.14207,2.953 1.12498,4.1261 2.72223,2.6898 5.48558,5.4617 8.23112,8.2174 C 35.48656,1047.914 44,1039.1352 44,1028.364 c 0,-0.9095 -0.0595,-1.8066 -0.17707,-2.6838 -4.07837,-4.1015 -6.58745,-6.6616 -10.66144,-10.7356 -2.3416,-0.01 -5.45872,-0.012 -7.79987,-0.017 -0.11466,0 -0.23061,-0.01 -0.34545,-0.01"
       id="path100" />
    <path
       style="fill:#ffffff"
       inkscape:connector-curvature="0"
       d="m 25.36034,1014.9268 c -0.32435,-10e-5 -1.0856,0.018 -1.99314,0.1824 -2.14508,0.388 -5.11062,1.8042 -5.94972,4.7538 -1.29785,4.5619 2.04403,6.3738 2.04403,6.3738 0,0 1.17057,0.6878 1.65372,0.8223 1.45271,0.4055 2.99825,0.2165 2.99825,0.2165 0,0 -0.61626,2.0404 0.61918,3.4819 0.29493,0.3441 0.0807,0.3563 0.0807,0.3563 0,0 -5.39971,-0.1393 -7.9552,2.5737 -2.55622,2.7136 -1.17048,5.2116 -1.17048,5.2116 0,0 1.33942,3.2657 7.1202,3.4308 5.80628,0.1656 9.39786,-3.2734 9.71124,-5.8694 0.15779,-1.3048 -0.0205,-2.5272 -0.67428,-3.5962 -0.63572,-1.0397 -1.72817,-1.9351 -2.79468,-2.8074 -0.66268,-0.5421 -1.12362,-0.8205 -1.42065,-1.1323 -0.28058,-0.2944 -0.328,-0.6738 -0.31804,-0.9584 0.0146,-0.3974 0.22312,-0.8848 0.92005,-1.6921 1.27154,-1.4728 1.59387,-1.2891 2.36207,-2.3919 0.23015,-0.3305 0.39973,-0.8126 0.63609,-1.5309 0.14253,-0.4328 0.11878,-0.8806 0.11878,-1.2977 0,-0.9017 -0.21645,-1.7608 -0.5767,-2.4852 -0.66944,-1.346 -1.81845,-2.2198 -1.8401,-2.286 h 2.01461 l 2.28157,-1.3359 -7.69663,-0.02 h -0.16975 z m -1.65371,1.2511 c 1.17404,0.01 2.93831,0.6162 3.99477,3.7872 1.8137,5.4408 -1.98464,6.2722 -1.98464,6.2722 0,0 -4.35247,0.6703 -5.1521,-4.1686 -0.81498,-4.9294 1.16993,-5.196 1.94654,-5.6831 0,0 0.49145,-0.2126 1.19597,-0.2079 z m 2.40446,16.0301 c 0,0 3.46531,2.1243 3.79121,3.6812 0.3651,1.7441 0.38968,3.0148 -2.25609,4.4066 -0.78108,0.4108 -2.15193,0.4587 -3.01506,0.4622 -2.1215,0.01 -3.72442,-0.8076 -4.51619,-1.217 -0.41161,-0.2129 -2.69757,-2.7799 -1.00502,-5.0764 0.42576,-0.5776 0.89748,-0.8337 1.33585,-1.1281 0.93284,-0.6263 1.8486,-0.9182 3.57513,-1.0687 0.57423,-0.05 1.33933,-0.01 2.09072,-0.06 z"
       id="path160" />
  </g>
</svg>
