<?xml version="1.0" encoding="UTF-8" standalone="no"?>
<!-- Created with Inkscape (http://www.inkscape.org/) -->

<svg
   xmlns:dc="http://purl.org/dc/elements/1.1/"
   xmlns:cc="http://creativecommons.org/ns#"
   xmlns:rdf="http://www.w3.org/1999/02/22-rdf-syntax-ns#"
   xmlns:svg="http://www.w3.org/2000/svg"
   xmlns="http://www.w3.org/2000/svg"
   xmlns:sodipodi="http://sodipodi.sourceforge.net/DTD/sodipodi-0.dtd"
   xmlns:inkscape="http://www.inkscape.org/namespaces/inkscape"
   width="48"
   height="48"
   id="svg2"
   version="1.1"
   inkscape:version="0.48.5 r10040"
   sodipodi:docname="google-hangouts.svg"
   inkscape:export-filename="/home/uri/workspace/NitruxforAndroid/res/drawable-xhdpi/google_search.png"
   inkscape:export-xdpi="180"
   inkscape:export-ydpi="180">
  <defs
     id="defs4" />
  <sodipodi:namedview
     id="base"
     pagecolor="#ffffff"
     bordercolor="#666666"
     borderopacity="1.0"
     inkscape:pageopacity="0.0"
     inkscape:pageshadow="2"
     inkscape:zoom="8.0625001"
     inkscape:cx="15.680007"
     inkscape:cy="23.595893"
     inkscape:document-units="px"
     inkscape:current-layer="layer1"
     showgrid="false"
     inkscape:window-width="1920"
     inkscape:window-height="1025"
     inkscape:window-x="-4"
     inkscape:window-y="39"
     inkscape:window-maximized="1"
     showguides="true">
    <sodipodi:guide
       position="4,44.000017"
       orientation="40,0"
       id="guide4081" />
    <sodipodi:guide
       position="4,4.0000174"
       orientation="0,40"
       id="guide4083" />
    <sodipodi:guide
       position="44,4.0000174"
       orientation="-40,0"
       id="guide4085" />
    <sodipodi:guide
       position="44,44.000017"
       orientation="0,-40"
       id="guide4087" />
    <sodipodi:guide
       position="9,39.000017"
       orientation="30,0"
       id="guide4091" />
    <sodipodi:guide
       position="9,9.0000174"
       orientation="0,30"
       id="guide4093" />
    <sodipodi:guide
       position="39,9.0000174"
       orientation="-30,0"
       id="guide4095" />
    <sodipodi:guide
       position="39,39.000017"
       orientation="0,-30"
       id="guide4097" />
    <sodipodi:guide
       position="15,33.000017"
       orientation="18,0"
       id="guide4101" />
    <sodipodi:guide
       position="15,15.000017"
       orientation="0,18"
       id="guide4103" />
    <sodipodi:guide
       position="33,15.000017"
       orientation="-18,0"
       id="guide4105" />
    <sodipodi:guide
       position="33,33.000017"
       orientation="0,-18"
       id="guide4107" />
  </sodipodi:namedview>
  <metadata
     id="metadata7">
    <rdf:RDF>
      <cc:Work
         rdf:about="">
        <dc:format>image/svg+xml</dc:format>
        <dc:type
           rdf:resource="http://purl.org/dc/dcmitype/StillImage" />
        <dc:title />
      </cc:Work>
    </rdf:RDF>
  </metadata>
  <g
     inkscape:label="Capa 1"
     inkscape:groupmode="layer"
     id="layer1"
     transform="translate(0,-1004.3622)">
    <path
       style="fill:#73c360;fill-rule:evenodd"
       inkscape:connector-curvature="0"
       id="path4"
       d="m 43.99717,1028.3636 c 0,11.0453 -8.95414,19.9986 -19.99859,19.9986 C 12.95323,1048.3622 4,1039.408 4,1028.3636 c 0,-11.0454 8.95414,-19.9986 19.99858,-19.9986 11.04536,0 19.99859,8.9541 19.99859,19.9986" />
    <path
       style="fill-opacity:0.23500001"
       inkscape:connector-curvature="0"
       id="path6"
       d="m 33.3209,1016.454 -1.50743,0.7565 c 0,0 0.75372,1.5159 0.75372,3.0322 0,0.7287 -0.17039,1.6274 -0.35119,2.3697 -0.37073,-0.072 -0.76477,-0.094 -1.15624,-0.094 -3.22317,0 -5.85432,2.5457 -6.01831,5.7471 -0.0222,-0.027 -0.0458,-0.053 -0.0685,-0.08 -0.0222,-0.027 -0.0458,-0.053 -0.0685,-0.08 -0.004,0 -0.008,-0.01 -0.0114,-0.014 -0.003,0 -0.006,-0.01 -0.009,-0.01 -0.0158,-0.019 -0.0324,-0.038 -0.0485,-0.057 -0.012,-0.015 -0.0249,-0.029 -0.0371,-0.043 -0.002,0 -0.004,-0.01 -0.006,-0.01 -0.008,-0.01 -0.0148,-0.019 -0.0228,-0.029 -0.0222,-0.027 -0.0458,-0.053 -0.0685,-0.08 -0.0221,-0.027 -0.0459,-0.053 -0.0685,-0.08 -0.0129,-0.016 -0.0269,-0.03 -0.04,-0.046 -0.0308,-0.038 -0.0623,-0.077 -0.0942,-0.1142 -0.0222,-0.027 -0.0458,-0.053 -0.0685,-0.08 -0.0365,-0.044 -0.0735,-0.088 -0.11137,-0.1313 -0.008,-0.01 -0.0149,-0.019 -0.0228,-0.029 -0.0222,-0.027 -0.0458,-0.053 -0.0685,-0.08 -0.0223,-0.027 -0.0457,-0.053 -0.0685,-0.08 -0.0223,-0.027 -0.0457,-0.053 -0.0685,-0.08 -0.007,-0.01 -0.0154,-0.017 -0.0228,-0.026 -4.5e-4,-9e-4 4.6e-4,0 0,0 -0.006,-0.01 -0.0113,-0.013 -0.0172,-0.02 -0.009,-0.01 -0.0169,-0.021 -0.0257,-0.031 -0.0222,-0.027 -0.0459,-0.053 -0.0685,-0.08 -0.0221,-0.027 -0.0459,-0.053 -0.0685,-0.08 -0.009,-0.01 -0.0171,-0.021 -0.0257,-0.031 -0.005,-0.01 -0.0117,-0.011 -0.0172,-0.017 -0.002,0 -0.004,0 -0.006,-0.01 -0.005,-0.01 -0.009,-0.012 -0.0143,-0.017 -5.5e-4,-9e-4 5.5e-4,0 0,0 -0.002,0 -0.004,0 -0.006,-0.01 -0.009,-0.011 -0.0195,-0.021 -0.0286,-0.031 -0.003,0 -0.005,-0.01 -0.009,-0.011 -0.01,-0.012 -0.0185,-0.025 -0.0286,-0.037 -0.0221,-0.027 -0.0459,-0.053 -0.0685,-0.08 -0.0223,-0.027 -0.0458,-0.053 -0.0685,-0.08 -0.0102,-0.012 -0.0211,-0.023 -0.0314,-0.034 -0.0125,-0.015 -0.0244,-0.031 -0.0371,-0.046 -0.01,-0.012 -0.0215,-0.022 -0.0314,-0.034 -0.003,0 -0.005,-0.01 -0.009,-0.011 -0.003,0 -0.006,-0.01 -0.009,-0.011 -0.006,-0.01 -0.0109,-0.016 -0.0172,-0.023 -0.0221,-0.027 -0.0459,-0.053 -0.0685,-0.08 -0.0222,-0.027 -0.0458,-0.053 -0.0685,-0.08 -0.0111,-0.014 -0.0229,-0.026 -0.0343,-0.04 -0.002,0 -0.003,-0.01 -0.006,-0.01 -0.0305,-0.038 -0.0628,-0.074 -0.0942,-0.1113 -0.0223,-0.027 -0.0458,-0.053 -0.0685,-0.08 -0.0224,-0.027 -0.0456,-0.053 -0.0685,-0.08 -0.012,-0.015 -0.0249,-0.028 -0.0371,-0.043 -0.002,0 -0.003,-0.01 -0.006,-0.01 -0.008,-0.01 -0.0149,-0.019 -0.0228,-0.029 -0.0223,-0.027 -0.0458,-0.053 -0.0685,-0.08 -0.0127,-0.015 -0.027,-0.03 -0.04,-0.046 -0.009,-0.01 -0.017,-0.019 -0.0257,-0.029 -8.2e-4,-9e-4 -0.002,0 -0.003,0 -4.6e-4,-9e-4 4.6e-4,0 0,0 -0.0222,-0.027 -0.0459,-0.053 -0.0685,-0.08 -0.0111,-0.014 -0.023,-0.027 -0.0343,-0.04 -0.0324,-0.04 -0.0664,-0.08 -0.1,-0.1199 -0.0209,-0.025 -0.0443,-0.049 -0.0657,-0.074 -10e-4,0 -10e-4,0 -0.003,-0.01 -0.0222,-0.027 -0.0459,-0.053 -0.0685,-0.08 -0.0145,-0.018 -0.031,-0.034 -0.0457,-0.051 -4.5e-4,-10e-4 4.6e-4,0 0,0 -0.007,-0.01 -0.0129,-0.018 -0.02,-0.026 -0.0153,-0.019 -0.0329,-0.036 -0.0485,-0.054 -0.005,-0.01 -0.009,-0.012 -0.0143,-0.017 -0.002,0 -0.003,-0.01 -0.006,-0.01 -0.0222,-0.027 -0.0459,-0.053 -0.0685,-0.08 -0.0223,-0.027 -0.0458,-0.053 -0.0685,-0.08 -0.0129,-0.016 -0.0269,-0.03 -0.04,-0.046 -0.003,0 -0.006,-0.01 -0.009,-0.01 -5.4e-4,-9e-4 5.5e-4,0 0,0 -0.002,0 -0.004,0 -0.006,-0.01 -0.004,-0.01 -0.007,-0.012 -0.0114,-0.017 -0.0222,-0.027 -0.0459,-0.053 -0.0685,-0.08 -1.10545,-1.3477 -2.77806,-2.2073 -4.65075,-2.2073 -3.32923,0 -6.02972,2.7148 -6.02972,6.0645 0,0.2093 0.002,0.4128 0.0228,0.6166 0.0496,1.2982 -0.0225,3.1747 1.48459,7.7227 0.72932,2.2008 1.35861,3.1217 1.76726,3.5091 0.0323,0.034 0.0642,0.066 0.0942,0.094 0.036,0.038 0.0697,0.069 0.10278,0.1 0.0286,0.03 0.0561,0.055 0.0828,0.08 0.0427,0.046 0.0814,0.082 0.11996,0.1171 0.0294,0.03 0.0584,0.06 0.0857,0.086 0.0332,0.035 0.0665,0.066 0.0971,0.094 0.036,0.037 0.0699,0.073 0.10278,0.1027 0.0298,0.031 0.0581,0.06 0.0857,0.086 0.0261,0.027 0.0526,0.054 0.0771,0.077 0.0383,0.041 0.0766,0.077 0.11136,0.1086 0.0308,0.032 0.06,0.062 0.0885,0.089 0.0323,0.034 0.0644,0.067 0.0942,0.094 0.0356,0.037 0.0703,0.071 0.10278,0.1 0.0293,0.03 0.0585,0.058 0.0857,0.083 0.0362,0.038 0.0699,0.073 0.10278,0.1028 0.0254,0.026 0.0505,0.052 0.0743,0.074 0.035,0.037 0.068,0.071 0.0999,0.1 0.0344,0.036 0.0685,0.069 0.1,0.097 0.0331,0.034 0.064,0.067 0.0942,0.094 0.0302,0.031 0.0607,0.06 0.0885,0.086 0.0364,0.038 0.0699,0.073 0.10278,0.1028 0.0329,0.034 0.0642,0.064 0.0942,0.091 0.0243,0.025 0.0486,0.05 0.0713,0.071 0.0405,0.043 0.0779,0.082 0.1142,0.1142 0.035,0.036 0.0682,0.069 0.1,0.097 0.0257,0.026 0.0503,0.052 0.0743,0.074 0.0357,0.038 0.0704,0.071 0.10278,0.1 0.0343,0.036 0.066,0.069 0.0971,0.097 0.0313,0.032 0.0599,0.063 0.0885,0.089 0.0308,0.032 0.0603,0.063 0.0885,0.089 0.035,0.037 0.0683,0.069 0.1,0.097 0.0322,0.034 0.062,0.065 0.0914,0.091 0.0372,0.039 0.0723,0.073 0.10561,0.1028 0.023,0.024 0.0441,0.049 0.0657,0.069 0.0415,0.044 0.0802,0.082 0.11703,0.1142 0.0308,0.032 0.0604,0.061 0.0885,0.086 0.0291,0.03 0.0562,0.059 0.0828,0.083 0.0342,0.036 0.0662,0.069 0.0971,0.097 0.0341,0.036 0.0663,0.069 0.0971,0.097 0.0292,0.031 0.0588,0.058 0.0857,0.083 0.0326,0.035 0.0646,0.067 0.0942,0.094 0.0358,0.038 0.0706,0.071 0.10278,0.1 0.0288,0.03 0.0565,0.059 0.0828,0.083 0.0304,0.032 0.0608,0.063 0.0885,0.089 0.0403,0.043 0.0786,0.08 0.1142,0.1114 0.0267,0.028 0.0525,0.055 0.0771,0.077 0.0393,0.042 0.0767,0.078 0.11137,0.1085 0.0267,0.028 0.0526,0.055 0.0771,0.077 0.032,0.034 0.0624,0.065 0.0914,0.091 0.0371,0.04 0.0727,0.073 0.10561,0.1028 0.0318,0.034 0.0627,0.063 0.0914,0.089 0.0247,0.026 0.0485,0.053 0.0713,0.074 0.0438,0.048 0.0847,0.087 0.12279,0.1199 0.0297,0.031 0.0588,0.059 0.0857,0.083 0.0295,0.031 0.056,0.061 0.0828,0.086 0.037,0.04 0.0729,0.074 0.10561,0.1028 0.0321,0.034 0.0626,0.063 0.0914,0.089 0.0323,0.034 0.0624,0.065 0.0914,0.091 0.0333,0.035 0.0645,0.068 0.0942,0.094 0.0334,0.036 0.0644,0.068 0.0942,0.094 0.0364,0.039 0.0708,0.072 0.10278,0.1 0.027,0.028 0.0525,0.055 0.0771,0.077 0.0359,0.039 0.0682,0.072 0.1,0.1 0.033,0.035 0.0649,0.065 0.0942,0.091 0.0399,0.043 0.0767,0.079 0.11137,0.1085 0.0239,0.025 0.0466,0.049 0.0685,0.069 0.038,0.041 0.0725,0.077 0.10562,0.1057 0.0333,0.035 0.0647,0.066 0.0942,0.091 0.0305,0.032 0.0584,0.061 0.0857,0.086 0.0312,0.034 0.0606,0.063 0.0885,0.089 0.038,0.041 0.0725,0.074 0.10561,0.1028 0.0304,0.032 0.0586,0.062 0.0857,0.086 0.0373,0.04 0.0703,0.075 0.10278,0.1028 0.0289,0.031 0.0569,0.057 0.0828,0.08 0.0283,0.031 0.0545,0.059 0.0799,0.083 0.0377,0.042 0.0756,0.074 0.10853,0.1028 0.0277,0.03 0.055,0.057 0.0799,0.08 0.0377,0.042 0.0728,0.077 0.10561,0.1056 0.0356,0.039 0.0689,0.073 0.1,0.1 0.0257,0.028 0.0511,0.053 0.0743,0.074 0.0376,0.042 0.073,0.074 0.10561,0.1027 0.0329,0.036 0.0653,0.066 0.0942,0.091 0.0356,0.039 0.0691,0.07 0.1,0.097 0.0257,0.028 0.0511,0.053 0.0743,0.074 0.005,0.01 0.009,0.011 0.0143,0.017 0.4642,0.032 0.93224,0.051 1.40466,0.051 11.04535,0 19.99949,-8.9541 19.99949,-19.9995 0,-0.5061 -0.0173,-1.0077 -0.0543,-1.5046 -0.0152,-0.015 -0.0309,-0.032 -0.0457,-0.046 -0.0321,-0.034 -0.0616,-0.064 -0.0914,-0.091 -0.0326,-0.034 -0.0612,-0.063 -0.0914,-0.091 -0.0326,-0.034 -0.0612,-0.063 -0.0914,-0.091 -0.024,-0.025 -0.0458,-0.047 -0.0685,-0.069 -0.039,-0.042 -0.0756,-0.078 -0.11137,-0.1113 -0.032,-0.034 -0.0617,-0.064 -0.0914,-0.091 -0.0321,-0.034 -0.0616,-0.064 -0.0914,-0.091 -0.0326,-0.034 -0.0612,-0.063 -0.0914,-0.091 -0.0326,-0.034 -0.0612,-0.063 -0.0914,-0.091 -0.024,-0.025 -0.0458,-0.047 -0.0685,-0.069 -0.039,-0.042 -0.0756,-0.078 -0.11136,-0.1114 -0.0319,-0.034 -0.0618,-0.064 -0.0914,-0.091 -0.032,-0.034 -0.0617,-0.064 -0.0914,-0.091 -0.0326,-0.034 -0.0612,-0.063 -0.0914,-0.091 -0.0326,-0.034 -0.0612,-0.063 -0.0914,-0.091 -0.032,-0.034 -0.0588,-0.064 -0.0885,-0.091 -0.0319,-0.034 -0.0618,-0.061 -0.0914,-0.089 -0.0319,-0.034 -0.0618,-0.064 -0.0914,-0.091 -0.032,-0.034 -0.0617,-0.064 -0.0914,-0.091 -0.0321,-0.034 -0.0616,-0.064 -0.0914,-0.091 -0.0326,-0.034 -0.0612,-0.063 -0.0914,-0.091 -0.032,-0.034 -0.0588,-0.064 -0.0885,-0.091 -0.0319,-0.034 -0.0618,-0.061 -0.0914,-0.089 -0.0319,-0.034 -0.0618,-0.064 -0.0914,-0.091 -0.032,-0.034 -0.0617,-0.064 -0.0914,-0.091 -0.0321,-0.034 -0.0616,-0.064 -0.0914,-0.091 -0.0326,-0.034 -0.0612,-0.063 -0.0914,-0.091 -0.0326,-0.034 -0.0612,-0.063 -0.0914,-0.091 -0.024,-0.025 -0.0458,-0.047 -0.0685,-0.068 -0.039,-0.042 -0.0756,-0.078 -0.11137,-0.1114 -0.0319,-0.034 -0.0618,-0.064 -0.0914,-0.091 -0.0321,-0.034 -0.0616,-0.063 -0.0914,-0.091 -0.0326,-0.034 -0.0612,-0.063 -0.0913,-0.091 -0.0326,-0.034 -0.0612,-0.063 -0.0914,-0.091 -0.024,-0.025 -0.0458,-0.047 -0.0685,-0.069 -0.039,-0.042 -0.0756,-0.078 -0.11137,-0.1113 -0.0319,-0.034 -0.0618,-0.064 -0.0914,-0.091 -0.032,-0.034 -0.0617,-0.064 -0.0914,-0.091 -0.0321,-0.034 -0.0616,-0.064 -0.0914,-0.091 -0.0326,-0.034 -0.0612,-0.063 -0.0914,-0.091 -0.032,-0.034 -0.0588,-0.064 -0.0885,-0.091 -0.0319,-0.034 -0.0618,-0.061 -0.0914,-0.088 -0.0319,-0.034 -0.0617,-0.064 -0.0914,-0.091 -0.032,-0.034 -0.0617,-0.064 -0.0914,-0.091 -0.0321,-0.034 -0.0616,-0.064 -0.0914,-0.091 -0.0326,-0.034 -0.0612,-0.063 -0.0914,-0.091 -0.0326,-0.034 -0.0612,-0.063 -0.0914,-0.091 -0.0319,-0.034 -0.0589,-0.061 -0.0885,-0.089 -0.0319,-0.034 -0.0618,-0.064 -0.0914,-0.091 -0.032,-0.034 -0.0617,-0.064 -0.0914,-0.091 -0.0321,-0.034 -0.0616,-0.064 -0.0914,-0.091 -0.0326,-0.034 -0.0612,-0.063 -0.0914,-0.091 -0.0326,-0.034 -0.0612,-0.063 -0.0914,-0.091 -0.024,-0.025 -0.0458,-0.047 -0.0685,-0.069 -0.039,-0.042 -0.0756,-0.078 -0.11136,-0.1114 -0.0319,-0.034 -0.0618,-0.064 -0.0914,-0.091 -0.032,-0.034 -0.0617,-0.064 -0.0914,-0.091 -0.0326,-0.034 -0.0612,-0.063 -0.0914,-0.091 -0.0326,-0.034 -0.0612,-0.063 -0.0914,-0.091 -0.032,-0.034 -0.0588,-0.064 -0.0885,-0.091 -0.0319,-0.034 -0.0618,-0.061 -0.0914,-0.089 -0.0319,-0.034 -0.0618,-0.064 -0.0914,-0.091 -0.032,-0.034 -0.0617,-0.064 -0.0914,-0.091 -0.0321,-0.034 -0.0616,-0.064 -0.0914,-0.091 -0.0326,-0.034 -0.0612,-0.063 -0.0914,-0.091 -0.032,-0.034 -0.0588,-0.064 -0.0885,-0.091 -0.0319,-0.034 -0.0618,-0.061 -0.0914,-0.089 -0.0319,-0.034 -0.0618,-0.064 -0.0914,-0.091 -0.032,-0.034 -0.0617,-0.064 -0.0914,-0.091 -0.0321,-0.034 -0.0616,-0.064 -0.0914,-0.091 -0.0326,-0.034 -0.0612,-0.063 -0.0914,-0.091 -0.0326,-0.034 -0.0612,-0.063 -0.0914,-0.091 -0.024,-0.025 -0.0458,-0.047 -0.0685,-0.068 -0.039,-0.042 -0.0756,-0.078 -0.11137,-0.1114 -0.0319,-0.034 -0.0618,-0.064 -0.0914,-0.091 -0.0321,-0.034 -0.0616,-0.064 -0.0914,-0.091 -0.0326,-0.034 -0.0612,-0.063 -0.0914,-0.091 -0.0326,-0.034 -0.0612,-0.063 -0.0914,-0.091 -0.024,-0.025 -0.0458,-0.047 -0.0685,-0.068 -0.039,-0.042 -0.0756,-0.078 -0.11137,-0.1114 -0.0319,-0.034 -0.0618,-0.064 -0.0914,-0.091 -0.032,-0.034 -0.0617,-0.064 -0.0914,-0.091 -0.0326,-0.034 -0.0612,-0.063 -0.0914,-0.091 -0.0326,-0.034 -0.0612,-0.063 -0.0914,-0.091 -0.032,-0.034 -0.0588,-0.064 -0.0885,-0.091 -0.0319,-0.034 -0.0618,-0.061 -0.0914,-0.088 -0.0319,-0.034 -0.0618,-0.064 -0.0914,-0.091 -0.032,-0.034 -0.0617,-0.064 -0.0914,-0.091 -0.0321,-0.034 -0.0616,-0.063 -0.0914,-0.091 -0.0326,-0.034 -0.0612,-0.063 -0.0914,-0.091 -0.032,-0.034 -0.0588,-0.064 -0.0885,-0.091 -0.0319,-0.034 -0.0618,-0.061 -0.0914,-0.089 -0.0319,-0.034 -0.0618,-0.064 -0.0914,-0.091 -0.032,-0.034 -0.0617,-0.064 -0.0914,-0.091 -0.0321,-0.034 -0.0616,-0.064 -0.0914,-0.091 -0.0326,-0.034 -0.0612,-0.063 -0.0914,-0.091 -0.0326,-0.034 -0.0612,-0.063 -0.0914,-0.091 -0.024,-0.025 -0.0458,-0.047 -0.0685,-0.069 -0.039,-0.042 -0.0756,-0.078 -0.11137,-0.1113 -0.0319,-0.034 -0.0618,-0.064 -0.0914,-0.091 -0.032,-0.034 -0.0617,-0.064 -0.0914,-0.091 -0.0326,-0.034 -0.0612,-0.063 -0.0914,-0.091 -0.0326,-0.034 -0.0612,-0.063 -0.0914,-0.091 -0.024,-0.025 -0.0458,-0.047 -0.0685,-0.069 -0.0392,-0.042 -0.0756,-0.078 -0.11137,-0.1114 -0.0319,-0.034 -0.0618,-0.064 -0.0914,-0.091 -0.032,-0.034 -0.0617,-0.064 -0.0914,-0.091 -0.0321,-0.034 -0.0616,-0.064 -0.0914,-0.091 -0.0326,-0.034 -0.0612,-0.063 -0.0914,-0.091 -0.032,-0.034 -0.0588,-0.064 -0.0885,-0.091 -0.36051,-0.3792 -0.57676,-0.3597 -0.57676,-0.3597" />
    <g
       style="fill:#ffffff"
       id="g66"
       transform="matrix(0.12821386,0,0,0.12821386,48.482,1000.8992)">
      <path
         inkscape:connector-curvature="0"
         id="path68"
         d="m -241.83,169.42 c -25.966,0 -47.02,21.18 -47.02,47.3 0,1.632 0.025,3.213 0.184,4.803 0.387,10.124 -0.184,24.757 11.57,60.23 10.01,30.2 17.631,29.56 17.631,29.56 l 11.754,-5.912 c 0,0 -5.877,-11.824 -5.877,-23.648 0,-5.683 1.345,-12.686 2.755,-18.475 2.891,0.56 5.946,0.739 8.999,0.739 25.966,0 47.02,-21.18 47.02,-47.3 0,-26.12 -21.05,-47.3 -47.02,-47.3" />
      <path
         inkscape:connector-curvature="0"
         id="path70"
         d="m -135.87,263.2 c 25.966,0 47.02,-21.18 47.02,-47.3 0,-1.632 -0.025,-3.213 -0.184,-4.803 -0.386,-10.124 0.184,-24.757 -11.57,-60.23 -10.01,-30.2 -17.631,-29.56 -17.631,-29.56 l -11.754,5.912 c 0,0 5.877,11.824 5.877,23.648 0,5.683 -1.345,12.686 -2.755,18.475 -2.891,-0.56 -5.946,-0.739 -8.999,-0.739 -25.966,0 -47.02,21.18 -47.02,47.3 0,26.12 21.05,47.3 47.02,47.3" />
    </g>
  </g>
</svg>
