<?xml version="1.0" encoding="UTF-8" standalone="no"?>
<!-- Created with Inkscape (http://www.inkscape.org/) -->

<svg
   xmlns:dc="http://purl.org/dc/elements/1.1/"
   xmlns:cc="http://creativecommons.org/ns#"
   xmlns:rdf="http://www.w3.org/1999/02/22-rdf-syntax-ns#"
   xmlns:svg="http://www.w3.org/2000/svg"
   xmlns="http://www.w3.org/2000/svg"
   xmlns:sodipodi="http://sodipodi.sourceforge.net/DTD/sodipodi-0.dtd"
   xmlns:inkscape="http://www.inkscape.org/namespaces/inkscape"
   width="48"
   height="48"
   id="svg2"
   version="1.1"
   inkscape:version="0.48.5 r10040"
   sodipodi:docname="google-navigator.svg"
   inkscape:export-filename="/home/uri/workspace/NitruxforAndroid/res/drawable-xhdpi/google_search.png"
   inkscape:export-xdpi="180"
   inkscape:export-ydpi="180">
  <defs
     id="defs4" />
  <sodipodi:namedview
     id="base"
     pagecolor="#ffffff"
     bordercolor="#666666"
     borderopacity="1.0"
     inkscape:pageopacity="0.0"
     inkscape:pageshadow="2"
     inkscape:zoom="8.0625001"
     inkscape:cx="15.680007"
     inkscape:cy="23.595893"
     inkscape:document-units="px"
     inkscape:current-layer="layer1"
     showgrid="false"
     inkscape:window-width="1920"
     inkscape:window-height="1025"
     inkscape:window-x="-4"
     inkscape:window-y="39"
     inkscape:window-maximized="1"
     showguides="true">
    <sodipodi:guide
       position="4,44.000017"
       orientation="40,0"
       id="guide4081" />
    <sodipodi:guide
       position="4,4.0000174"
       orientation="0,40"
       id="guide4083" />
    <sodipodi:guide
       position="44,4.0000174"
       orientation="-40,0"
       id="guide4085" />
    <sodipodi:guide
       position="44,44.000017"
       orientation="0,-40"
       id="guide4087" />
    <sodipodi:guide
       position="9,39.000017"
       orientation="30,0"
       id="guide4091" />
    <sodipodi:guide
       position="9,9.0000174"
       orientation="0,30"
       id="guide4093" />
    <sodipodi:guide
       position="39,9.0000174"
       orientation="-30,0"
       id="guide4095" />
    <sodipodi:guide
       position="39,39.000017"
       orientation="0,-30"
       id="guide4097" />
    <sodipodi:guide
       position="15,33.000017"
       orientation="18,0"
       id="guide4101" />
    <sodipodi:guide
       position="15,15.000017"
       orientation="0,18"
       id="guide4103" />
    <sodipodi:guide
       position="33,15.000017"
       orientation="-18,0"
       id="guide4105" />
    <sodipodi:guide
       position="33,33.000017"
       orientation="0,-18"
       id="guide4107" />
  </sodipodi:namedview>
  <metadata
     id="metadata7">
    <rdf:RDF>
      <cc:Work
         rdf:about="">
        <dc:format>image/svg+xml</dc:format>
        <dc:type
           rdf:resource="http://purl.org/dc/dcmitype/StillImage" />
        <dc:title />
      </cc:Work>
    </rdf:RDF>
  </metadata>
  <g
     inkscape:label="Capa 1"
     inkscape:groupmode="layer"
     id="layer1"
     transform="translate(0,-1004.3622)">
    <path
       style="fill:#4498d5;fill-rule:evenodd"
       inkscape:connector-curvature="0"
       id="path4"
       d="m 43.99726,1028.3635 c 0,11.0454 -8.95416,19.9987 -19.99863,19.9987 C 12.95325,1048.3622 4,1039.408 4,1028.3635 c 0,-11.0454 8.95416,-19.9986 19.99863,-19.9986 11.04538,0 19.99863,8.9542 19.99863,19.9986" />
    <path
       style="fill-opacity:0.23500001"
       inkscape:connector-curvature="0"
       id="path6"
       d="m 24.26814,1012.8397 -11.3286,26.5857 0.14846,-0.043 -0.0571,0.1314 c 2.8e-4,0 0.14435,-0.042 0.14846,-0.043 l -0.0566,0.1343 c 2.7e-4,-10e-5 0.14435,-0.042 0.14846,-0.043 l -0.0566,0.1343 c 2.7e-4,-10e-5 0.14434,-0.042 0.14845,-0.043 l -0.0566,0.1343 c 2.8e-4,-10e-5 0.14161,-0.042 0.14563,-0.043 l -0.0571,0.1342 c 2.7e-4,-10e-5 0.14435,-0.042 0.14846,-0.043 l -0.0571,0.1343 c 2.7e-4,-10e-5 0.14435,-0.042 0.14846,-0.043 l -0.0571,0.1314 c 2.7e-4,-10e-5 0.14435,-0.042 0.14846,-0.043 l -0.0571,0.1342 0.14846,-0.043 -0.0571,0.1342 c 2.7e-4,-10e-5 0.14435,-0.042 0.14846,-0.043 l -0.0571,0.1342 0.14563,-0.043 -0.0571,0.1342 c 2.7e-4,-10e-5 0.14434,-0.042 0.14845,-0.043 l -0.0571,0.1342 0.14845,-0.043 -0.0571,0.1342 c 2.8e-4,0 0.14435,-0.042 0.14846,-0.043 l -0.0571,0.1314 0.14846,-0.043 -0.0571,0.1342 c 2.8e-4,0 0.14435,-0.042 0.14846,-0.043 l -0.0571,0.1342 c 2.8e-4,0 0.14161,-0.042 0.14563,-0.043 l -0.0571,0.1342 c 2.8e-4,0 0.14435,-0.042 0.14846,-0.043 l -0.0571,0.1342 c 2.8e-4,0 0.14435,-0.042 0.14846,-0.043 l -0.0571,0.1342 c 2.7e-4,0 0.14435,-0.042 0.14846,-0.043 l -0.0571,0.1314 c 2.7e-4,-10e-5 0.14435,-0.042 0.14846,-0.043 l -0.0571,0.1343 c 2.7e-4,-10e-5 0.14435,-0.042 0.14846,-0.043 l -0.0571,0.1342 c 2.7e-4,-10e-5 0.1417,-0.042 0.14563,-0.043 l -0.0571,0.1342 c 2.7e-4,-1e-4 0.14435,-0.042 0.14846,-0.043 l -0.0571,0.1342 c 2.7e-4,-10e-5 0.14435,-0.042 0.14846,-0.043 l -0.0571,0.1342 c 2.7e-4,-10e-5 0.14434,-0.042 0.14846,-0.043 l -0.0571,0.1314 c 2.7e-4,-1e-4 0.14434,-0.042 0.14846,-0.043 l -0.0571,0.1342 c 2.7e-4,-10e-5 0.14434,-0.042 0.14846,-0.043 l -0.0571,0.1342 c 2.7e-4,-10e-5 0.14434,-0.042 0.14845,-0.043 l -0.0571,0.1342 0.14562,-0.043 -0.0571,0.1342 c 2.8e-4,-10e-5 0.14435,-0.042 0.14846,-0.043 l -0.0571,0.1342 0.14846,-0.043 -0.0571,0.1342 c 2.8e-4,-10e-5 0.14435,-0.042 0.14846,-0.043 l -0.0571,0.1314 0.14846,-0.043 -0.0571,0.1342 c 2.8e-4,-10e-5 0.14435,-0.042 0.14846,-0.043 l -0.0571,0.1342 0.14563,-0.043 -0.0571,0.1342 c 2.7e-4,-10e-5 0.14444,-0.042 0.14846,-0.043 l -0.0571,0.1342 c 2.7e-4,0 0.14444,-0.042 0.14846,-0.043 l -0.0571,0.1342 c 2.7e-4,-10e-5 0.14444,-0.042 0.14846,-0.043 l -0.0571,0.1313 c 2.7e-4,0 0.14444,-0.042 0.14846,-0.043 l -0.0571,0.1342 c 2.7e-4,0 0.14444,-0.042 0.14846,-0.043 l -0.0571,0.1343 c 1.8e-4,0 0.1417,-0.042 0.14562,-0.043 l -0.0571,0.1342 c 2.8e-4,0 0.14444,-0.042 0.14846,-0.043 l -0.0571,0.1342 c 1.9e-4,0 0.14444,-0.042 0.14846,-0.043 l -0.0571,0.1342 c 1.9e-4,0 0.14444,-0.042 0.14846,-0.043 l -0.0571,0.1314 c 1.9e-4,-10e-5 0.14444,-0.042 0.14846,-0.043 l -0.0571,0.1342 c 1.9e-4,-10e-5 0.14444,-0.042 0.14846,-0.043 l -0.0571,0.1342 c 1.9e-4,-10e-5 0.1417,-0.042 0.14563,-0.043 l -0.0571,0.1342 h 0.003 l 0.14563,-0.043 -0.0571,0.1342 c 1.8e-4,-10e-5 0.14444,-0.042 0.14846,-0.043 l -0.0571,0.1343 0.14846,-0.043 -0.0571,0.1314 c 1.8e-4,-10e-5 0.14444,-0.042 0.14846,-0.043 l -0.0571,0.1342 0.14846,-0.043 -0.0571,0.1342 c 1.8e-4,-10e-5 0.14444,-0.042 0.14846,-0.043 l -0.0571,0.1342 0.14563,-0.043 -0.0571,0.1342 c 1.8e-4,-10e-5 0.14444,-0.042 0.14846,-0.043 l -0.0571,0.1342 0.14845,-0.043 -0.0571,0.1342 c 1.9e-4,0 0.14444,-0.042 0.14846,-0.043 l -0.0571,0.1314 c 1.9e-4,-10e-5 0.14444,-0.042 0.14846,-0.043 l -0.0571,0.1342 c 1.9e-4,-10e-5 0.14444,-0.042 0.14846,-0.043 l -0.0571,0.1342 c 1.9e-4,-10e-5 0.1417,-0.042 0.14563,-0.043 l -0.0571,0.1342 c 1.8e-4,0 0.14444,-0.042 0.14846,-0.043 l -0.0571,0.1342 c 1.8e-4,-10e-5 0.14444,-0.042 0.14846,-0.043 l -0.0571,0.1342 c 1.8e-4,-1e-4 0.14444,-0.042 0.14846,-0.043 l -0.0571,0.1314 c 1.8e-4,-10e-5 0.14444,-0.042 0.14846,-0.043 l -0.0571,0.1343 c 1.8e-4,-10e-5 0.14444,-0.042 0.14846,-0.043 l -0.0571,0.1342 c 1.8e-4,-1e-4 0.1417,-0.042 0.14563,-0.043 l -0.0571,0.1342 c 1.8e-4,-10e-5 0.14444,-0.042 0.14846,-0.043 l -0.0571,0.1342 c 1.8e-4,-10e-5 0.14444,-0.042 0.14846,-0.043 l -0.0571,0.1342 c 1.8e-4,-10e-5 0.14444,-0.042 0.14846,-0.043 l -0.0571,0.1314 c 1.8e-4,0 0.14444,-0.042 0.14846,-0.043 l -0.0571,0.1342 0.14846,-0.043 -0.0571,0.1342 c 1.8e-4,0 0.14444,-0.042 0.14846,-0.043 l -0.0571,0.1342 0.14562,-0.043 -0.0571,0.1342 c 1.9e-4,0 0.14444,-0.042 0.14846,-0.043 l -0.0571,0.1342 0.14846,-0.043 -0.0571,0.1342 c 1.8e-4,0 0.14444,-0.042 0.14846,-0.043 l -0.0571,0.1314 0.14846,-0.043 -0.0571,0.1342 c 1.8e-4,-10e-5 0.14444,-0.042 0.14846,-0.043 l -0.0571,0.1342 c 1.8e-4,-10e-5 0.1417,-0.042 0.14563,-0.043 l -0.0571,0.1342 c 1.8e-4,-10e-5 0.14444,-0.042 0.14846,-0.043 l -0.0571,0.1342 c 1.8e-4,0 0.14444,-0.042 0.14846,-0.043 l -0.0571,0.1342 c 1.8e-4,-10e-5 0.14444,-0.042 0.14846,-0.043 l -0.0571,0.1313 c 1.8e-4,-10e-5 0.14444,-0.042 0.14846,-0.043 l -0.0571,0.1342 c 1.8e-4,-1e-4 0.14444,-0.042 0.14846,-0.043 l -0.0571,0.1343 c 1.8e-4,-10e-5 0.1417,-0.042 0.14562,-0.043 l -0.0571,0.1342 c 1.9e-4,-10e-5 0.14444,-0.042 0.14846,-0.043 l -0.0571,0.1342 c 1.9e-4,-10e-5 0.14444,-0.042 0.14846,-0.043 l -0.0571,0.1342 c 1.9e-4,-10e-5 0.14444,-0.042 0.14846,-0.043 l -0.0571,0.1314 c 1.9e-4,-10e-5 0.14444,-0.042 0.14846,-0.043 l -0.0571,0.1342 c 1.9e-4,-10e-5 0.14444,-0.042 0.14846,-0.043 l -0.0571,0.1342 c 1.9e-4,0 0.14179,-0.042 0.14563,-0.043 l -0.0571,0.1342 0.14846,-0.043 -0.0571,0.1342 c 1.8e-4,0 0.14444,-0.042 0.14846,-0.043 l -0.0571,0.1343 0.14846,-0.043 -0.0571,0.1314 c 1.8e-4,0 0.14444,-0.042 0.14846,-0.043 l -0.0571,0.1342 0.14846,-0.043 -0.0543,0.1284 c 0.003,0 0.006,0 0.009,0 0.0189,-0.01 0.13338,-0.039 0.13704,-0.04 l -0.0228,0.051 c 0.69451,0.073 1.39881,0.1142 2.11315,0.1142 9.38903,0 17.2688,-6.472 19.41941,-15.1968 l -0.87651,-2.0556 -0.0257,0.063 -0.0657,-0.1513 -0.0257,0.063 -0.0657,-0.1543 -0.0257,0.063 -0.0657,-0.1542 -0.0257,0.057 -0.0628,-0.1485 -0.0257,0.063 -0.0657,-0.1542 -0.0257,0.063 -0.0657,-0.1542 -0.0257,0.063 -0.0657,-0.1543 -0.0257,0.063 -0.0657,-0.1513 -0.0257,0.063 -0.0657,-0.1542 -0.0257,0.057 -0.0629,-0.1485 -0.0257,0.063 -0.0657,-0.1542 -0.0257,0.063 -0.0657,-0.1542 -0.0257,0.063 -0.0657,-0.1542 -0.0257,0.063 -0.0657,-0.1513 -0.0257,0.063 -0.0657,-0.1542 -0.0257,0.057 -0.0629,-0.1484 -0.0257,0.063 -0.0657,-0.1542 -0.0257,0.063 -0.0657,-0.1543 -0.0257,0.063 -0.0657,-0.1542 -0.0257,0.063 -0.0657,-0.1513 -0.0257,0.063 -0.0657,-0.1542 -0.0257,0.057 -0.0628,-0.1485 -0.0257,0.063 -0.0657,-0.1542 -0.0257,0.063 -0.0657,-0.1542 -0.0257,0.063 -0.0657,-0.1543 -0.0257,0.063 -0.0657,-0.1513 -0.0257,0.063 -0.0657,-0.1543 -0.0257,0.063 -0.0657,-0.1542 -0.0257,0.057 -0.0629,-0.1485 -0.0257,0.063 -0.0657,-0.1542 -0.0257,0.063 -0.0657,-0.1542 -0.0257,0.063 -0.0657,-0.1543 -0.0257,0.063 -0.0657,-0.1513 -0.0257,0.063 -0.0657,-0.1542 -0.0257,0.057 -0.0628,-0.1485 -0.0257,0.063 -0.0657,-0.1542 -0.0257,0.063 -0.0657,-0.1542 -0.0257,0.063 -0.0657,-0.1542 -0.0257,0.063 -0.0657,-0.1513 -0.0257,0.063 -0.0657,-0.1542 -0.0257,0.057 -0.0629,-0.1484 -0.0257,0.063 -0.0657,-0.1542 -0.0257,0.063 -0.0657,-0.1543 -0.0257,0.063 -0.0657,-0.1542 -0.0257,0.063 -0.0657,-0.1513 -0.0257,0.063 -0.0657,-0.1542 -0.0257,0.063 -0.0657,-0.1542 -0.0257,0.057 -0.0628,-0.1484 -0.0257,0.063 -0.0657,-0.1542 -0.0257,0.063 -0.0657,-0.1543 -0.0257,0.063 -0.0657,-0.1542 -0.0257,0.063 -0.0657,-0.1512 -0.0257,0.063 -0.0657,-0.1542 -0.0257,0.057 -0.0629,-0.1485 -0.0257,0.063 -0.0657,-0.1542 -0.0257,0.063 -0.0657,-0.1542 -0.0257,0.063 -0.0657,-0.1542 -0.0257,0.063 -0.0657,-0.1513 -0.0257,0.063 -0.0657,-0.1542 -0.0257,0.057 -0.0629,-0.1485 -0.0257,0.063 -0.0657,-0.1543 -0.0257,0.063 -0.0657,-0.1542 -0.0257,0.063 -0.0657,-0.1542 -0.0257,0.063 -0.0657,-0.1513 -0.0257,0.063 -0.0657,-0.1542 -0.0257,0.057 -0.0628,-0.1484 -0.0257,0.063 -0.0657,-0.1542 -0.0257,0.063 -0.0657,-0.1543 -0.0257,0.063 -0.0657,-0.1542 -0.0257,0.063 -0.0657,-0.1513 -0.0257,0.063 -0.0657,-0.1542 -0.0257,0.063 -0.0657,-0.1542 -0.0257,0.057 -0.0629,-0.1484 -0.0257,0.063 -0.0657,-0.1542 -0.0257,0.063 -0.0657,-0.1543 -0.0257,0.063 -0.0657,-0.1542 -0.0257,0.063 -0.0657,-0.1512 -0.0257,0.063 -0.0657,-0.1542 -0.0257,0.057 -0.0628,-0.1485 -0.0257,0.063 -0.0657,-0.1542 -0.0257,0.063 -0.0657,-0.1542 -0.0257,0.063 -0.0657,-0.1542 -0.0257,0.063 -0.0657,-0.1513 -0.0257,0.063 -0.0657,-0.1542 -0.0257,0.057 -0.0629,-0.1485 -0.0257,0.063 -0.0657,-0.1543 -0.0257,0.063 -0.0657,-0.1542 -0.0257,0.063 -0.0657,-0.1542 -0.0257,0.063 -0.0657,-0.1513 -0.0257,0.063 -0.0657,-0.1542 -0.0257,0.063 -0.0657,-0.1542 -0.0257,0.057 -0.0628,-0.1485 -0.0257,0.063 -0.0657,-0.1543 -0.0257,0.063 -0.0657,-0.1542 -0.0257,0.063 -0.0657,-0.1542 -0.0257,0.063 -0.0657,-0.1513 -0.0257,0.063 -0.0657,-0.1542 -0.0257,0.057 -0.0629,-0.1484 -0.0257,0.063 -0.0657,-0.1542 -0.0257,0.063 -0.0657,-0.1542 -0.0257,0.063 -0.0657,-0.1542 -0.0257,0.063 -0.0657,-0.1512 -0.0257,0.063 -0.0657,-0.1542 -0.0257,0.057 -0.0629,-0.1485 -0.0257,0.063 -0.0657,-0.1542 -0.0257,0.063 -0.0657,-0.1542 -0.0257,0.063 -0.0657,-0.1542 -0.0257,0.063 -0.0657,-0.1513 -0.0257,0.063 -0.0657,-0.1542 -0.0257,0.057 -0.0628,-0.1485 -0.0257,0.063 -0.0657,-0.1543 -0.0257,0.063 -0.0657,-0.1542 -0.0257,0.063 -0.0657,-0.1542 -0.0257,0.063 -0.0657,-0.1513 -0.0257,0.063 -0.0657,-0.1542 -0.0257,0.063 -0.0657,-0.1542 -0.0257,0.057 -0.0629,-0.1485 -0.0257,0.063 -0.0657,-0.1543 -0.0257,0.063 -0.0657,-0.1542 -0.0257,0.063 -0.0657,-0.1542 -0.0257,0.063 -0.0657,-0.1513 -0.0257,0.063 -0.0657,-0.1542 -0.0257,0.057 -0.0628,-0.1484 -0.0257,0.063 -0.0657,-0.1542 -0.0257,0.063 -0.0657,-0.1542 -0.0257,0.063 -0.0657,-0.1542 -0.0257,0.063 c -7.4e-4,0 -0.0657,-0.1513 -0.0657,-0.1513 l -0.0257,0.063 -0.0657,-0.1542 -0.0257,0.057 c -7.3e-4,0 -0.0629,-0.1485 -0.0629,-0.1485 l -0.0257,0.063 -0.0657,-0.1542 -0.0257,0.063 -0.0657,-0.1542 -0.0257,0.063 -0.0657,-0.1542 -0.0257,0.063 c -7.3e-4,0 -0.0657,-0.1513 -0.0657,-0.1513 l -0.0257,0.063 -0.0657,-0.1542 -0.0257,0.063 -0.0657,-0.1542 -0.0257,0.057 c -7.3e-4,0 -0.0628,-0.1485 -0.0628,-0.1485 l -0.0257,0.063 -0.0657,-0.1542 -0.0257,0.063 -0.0657,-0.1542 -0.0257,0.063 -0.0657,-0.1542 -0.0257,0.063 c -7.3e-4,0 -0.0657,-0.1513 -0.0657,-0.1513 l -0.0257,0.063 -0.0657,-0.1542 -0.0257,0.057 c -7.4e-4,0 -0.0629,-0.1485 -0.0629,-0.1485 l -0.0257,0.063 -0.0657,-0.1542 -0.0257,0.063 -0.0657,-0.1542 -0.0257,0.063 -0.0657,-0.1542 -0.0257,0.063 c -7.3e-4,0 -0.0657,-0.1513 -0.0657,-0.1513 l -0.0257,0.063 -0.0657,-0.1543 -0.0257,0.057 c -7.3e-4,0 -0.0629,-0.1484 -0.0629,-0.1484 l -0.0257,0.063 -0.0657,-0.1542 -0.0257,0.063 -0.0657,-0.1542 -0.0257,0.063 -0.0657,-0.1542 -0.0257,0.063 c -7.3e-4,0 -0.0657,-0.1513 -0.0657,-0.1513 l -0.0257,0.063 -0.0657,-0.1542 -0.0257,0.057 c -7.3e-4,0 -0.0628,-0.1485 -0.0628,-0.1485 l -0.0257,0.063 -0.0657,-0.1542 -0.0257,0.063 -0.0657,-0.1542 -0.0257,0.063 -0.0657,-0.1542 -0.0257,0.063 -0.0657,-0.1513 -0.0257,0.063 -0.0657,-0.1542 -0.0257,0.063 -0.0657,-0.1542 -0.0257,0.057 -0.0629,-0.1485 -0.0257,0.063 -0.0657,-0.1542 -0.0257,0.063 -0.0657,-0.1542 -0.0257,0.063 -0.0657,-0.1542 -0.0257,0.063 -0.0657,-0.1513 -0.0257,0.063 -0.0657,-0.1542 -0.0257,0.057 -0.0628,-0.1485 -0.0257,0.063 -0.0657,-0.1542 -0.0257,0.063 -0.0657,-0.1542 -0.0257,0.063 -0.0657,-0.1542 -0.0257,0.063 -0.0657,-0.1513 -0.0257,0.063 -0.0657,-0.1543 -0.0257,0.057 c -7.3e-4,0 -0.0629,-0.1484 -0.0629,-0.1484 l -0.0257,0.063 -0.0657,-0.1542 -0.0257,0.063 -0.0657,-0.1542 -0.0257,0.063 -0.0657,-0.1542 -0.0257,0.063 c -7.3e-4,0 -0.0657,-0.1513 -0.0657,-0.1513 l -0.0257,0.063 -0.0657,-0.1542 -0.0257,0.063 -0.0657,-0.1543 -0.0257,0.057 c -7.3e-4,0 -0.0628,-0.1484 -0.0628,-0.1484 l -0.0257,0.063 -0.0657,-0.1542 -0.0257,0.063 -0.0657,-0.1542 -0.0257,0.063 c -7.3e-4,0 -0.0657,-0.1513 -0.0657,-0.1513 l -0.0257,0.063 -0.0657,-0.1542 -0.0257,0.063 -0.0657,-0.1542 -0.0257,0.057 c -7.4e-4,0 -0.0629,-0.1484 -0.0629,-0.1484 l -0.0257,0.063 -0.0657,-0.1542 -0.0257,0.063 -0.0657,-0.1542 -0.0257,0.063 -0.0657,-0.1542 -0.0257,0.063 -0.0657,-0.1513 -0.0257,0.063 -0.0657,-0.1542 -0.0257,0.057 c -7.3e-4,0 -0.0629,-0.1485 -0.0629,-0.1485 l -0.0257,0.063 -0.0657,-0.1542 -0.0257,0.063 -0.0657,-0.1542 -0.0257,0.063 -0.0657,-0.1543 -0.0257,0.063 -0.0657,-0.1513 -0.0257,0.063 -0.0657,-0.1543 -0.0257,0.057 c -7.3e-4,0 -0.0628,-0.1484 -0.0628,-0.1484 l -0.0257,0.063 -0.0657,-0.1542 -0.0257,0.063 -0.0657,-0.1542 -0.0257,0.063 -0.0657,-0.1542" />
    <path
       style="fill:#ffffff"
       inkscape:connector-curvature="0"
       id="path66"
       d="m 24.26814,1012.8406 -11.3286,26.5838 11.3286,-3.2752 11.3286,3.2752 -11.3286,-26.5838" />
  </g>
</svg>
