<?xml version="1.0" encoding="UTF-8" standalone="no"?>
<!-- Created with Inkscape (http://www.inkscape.org/) -->

<svg
   xmlns:dc="http://purl.org/dc/elements/1.1/"
   xmlns:cc="http://creativecommons.org/ns#"
   xmlns:rdf="http://www.w3.org/1999/02/22-rdf-syntax-ns#"
   xmlns:svg="http://www.w3.org/2000/svg"
   xmlns="http://www.w3.org/2000/svg"
   xmlns:sodipodi="http://sodipodi.sourceforge.net/DTD/sodipodi-0.dtd"
   xmlns:inkscape="http://www.inkscape.org/namespaces/inkscape"
   width="48"
   height="48"
   id="svg2"
   version="1.1"
   inkscape:version="0.48.5 r10040"
   sodipodi:docname="google-play-games.svg"
   inkscape:export-filename="/home/uri/workspace/NitruxforAndroid/res/drawable-xhdpi/google_search.png"
   inkscape:export-xdpi="180"
   inkscape:export-ydpi="180">
  <defs
     id="defs4" />
  <sodipodi:namedview
     id="base"
     pagecolor="#ffffff"
     bordercolor="#666666"
     borderopacity="1.0"
     inkscape:pageopacity="0.0"
     inkscape:pageshadow="2"
     inkscape:zoom="8.0625001"
     inkscape:cx="15.680007"
     inkscape:cy="-6.6409482"
     inkscape:document-units="px"
     inkscape:current-layer="layer1"
     showgrid="false"
     inkscape:window-width="1920"
     inkscape:window-height="1025"
     inkscape:window-x="-4"
     inkscape:window-y="39"
     inkscape:window-maximized="1"
     showguides="true">
    <sodipodi:guide
       position="4,44.000017"
       orientation="40,0"
       id="guide4081" />
    <sodipodi:guide
       position="4,4.0000174"
       orientation="0,40"
       id="guide4083" />
    <sodipodi:guide
       position="44,4.0000174"
       orientation="-40,0"
       id="guide4085" />
    <sodipodi:guide
       position="44,44.000017"
       orientation="0,-40"
       id="guide4087" />
    <sodipodi:guide
       position="9,39.000017"
       orientation="30,0"
       id="guide4091" />
    <sodipodi:guide
       position="9,9.0000174"
       orientation="0,30"
       id="guide4093" />
    <sodipodi:guide
       position="39,9.0000174"
       orientation="-30,0"
       id="guide4095" />
    <sodipodi:guide
       position="39,39.000017"
       orientation="0,-30"
       id="guide4097" />
    <sodipodi:guide
       position="15,33.000017"
       orientation="18,0"
       id="guide4101" />
    <sodipodi:guide
       position="15,15.000017"
       orientation="0,18"
       id="guide4103" />
    <sodipodi:guide
       position="33,15.000017"
       orientation="-18,0"
       id="guide4105" />
    <sodipodi:guide
       position="33,33.000017"
       orientation="0,-18"
       id="guide4107" />
  </sodipodi:namedview>
  <metadata
     id="metadata7">
    <rdf:RDF>
      <cc:Work
         rdf:about="">
        <dc:format>image/svg+xml</dc:format>
        <dc:type
           rdf:resource="http://purl.org/dc/dcmitype/StillImage" />
        <dc:title />
      </cc:Work>
    </rdf:RDF>
  </metadata>
  <g
     inkscape:label="Capa 1"
     inkscape:groupmode="layer"
     id="layer1"
     transform="translate(0,-1004.3622)">
    <path
       style="fill:#b1cc3a;fill-rule:evenodd"
       inkscape:connector-curvature="0"
       id="path1060"
       d="m 44,1028.3622 c 0,11.0456 -8.95436,20 -20,20 -11.04563,0 -20,-8.9544 -20,-20 0,-11.0456 8.95437,-20 20,-20 11.04564,0 20,8.9544 20,20" />
    <path
       style="opacity:0.25"
       inkscape:connector-curvature="0"
       d="m 24.27043,1018.7875 c -6.54698,0 -6.7964,0 -7.45603,0.1114 -1.4691,0.239 -2.58371,0.7822 -3.5896,1.7486 -0.95473,0.9173 -1.57362,2.0045 -1.87502,3.2954 -0.0762,0.3262 -0.82865,8.1559 -0.95738,9.9585 -0.0608,0.8536 -0.002,1.8363 0.14472,2.4053 0.14398,0.5608 0.40244,1.028 0.75976,1.3851 l 10.55502,10.555 c 0.70568,0.075 1.42205,0.1151 2.14773,0.1151 10.72861,0 19.482897,-8.4473 19.977164,-19.0535 l -8.570644,-8.5706 c -0.0384,-0.038 -0.0774,-0.076 -0.11667,-0.1138 -1.00589,-0.9583 -2.09529,-1.486 -3.56293,-1.7254 -0.65981,-0.1076 -0.90978,-0.1114 -7.45603,-0.1114"
       id="path1118" />
    <path
       style="fill:#ffffff"
       inkscape:connector-curvature="0"
       d="m 12.53319,1038.3901 c -1.01595,-0.2696 -1.71852,-1.0026 -1.99598,-2.0832 -0.14636,-0.5687 -0.20538,-1.5518 -0.14463,-2.4053 0.12836,-1.8024 0.88119,-9.6323 0.95738,-9.9585 0.3014,-1.2909 0.92001,-2.3781 1.87511,-3.2954 1.00589,-0.9664 2.12051,-1.5097 3.5896,-1.7487 0.65963,-0.1076 0.90942,-0.1113 7.45604,-0.1113 6.54606,0 6.7964,0 7.45603,0.1113 1.46727,0.2395 2.55721,0.7671 3.56301,1.7254 1.06821,1.0177 1.7875,2.3754 1.97607,3.7301 0.0726,0.5216 0.80151,8.3989 0.88191,9.5318 0.0618,0.8699 0.004,1.8482 -0.14362,2.4209 -0.28103,1.0921 -0.98671,1.8204 -2.02183,2.0865 -0.65836,0.169 -1.26162,0.08 -2.03774,-0.2995 -0.98323,-0.4812 -1.57188,-1.0216 -4.01608,-3.6864 l -2.00182,-2.1827 h -7.3126 l -2.00182,2.1827 c -2.44393,2.665 -3.0323,3.205 -4.01608,3.6864 -0.77247,0.3781 -1.40981,0.4696 -2.06295,0.2961 m 6.14225,-9.4267 c 1.28089,-0.3444 2.33712,-1.4192 2.66867,-2.7172 0.12133,-0.474 0.11914,-1.342 -0.005,-1.8099 -0.35193,-1.3304 -1.39629,-2.3629 -2.74451,-2.7125 -0.42593,-0.1103 -1.3337,-0.1103 -1.75945,0 -1.34859,0.3496 -2.39367,1.3823 -2.7445,2.7125 -0.12517,0.4741 -0.12809,1.3403 -0.006,1.8099 0.275,1.0598 1.01411,1.9751 1.96135,2.4301 0.2845,0.1367 0.65305,0.275 0.81897,0.3072 0.16591,0.032 0.35101,0.07 0.41131,0.084 0.19661,0.045 1.08967,-0.021 1.39856,-0.1042 m -1.72829,-0.9743 c -0.0142,-0.039 -0.0322,-0.4651 -0.04,-0.9476 l -0.0142,-0.8776 -0.93235,-0.027 -0.93235,-0.027 -0.0153,-0.7364 c -0.0115,-0.5518 0.002,-0.7469 0.0548,-0.7806 0.0386,-0.024 0.47124,-0.045 0.96149,-0.045 l 0.89124,-10e-4 v -0.8939 c 0,-0.6222 0.02,-0.9137 0.0658,-0.9599 0.091,-0.091 1.36786,-0.091 1.45886,0 0.0458,0.046 0.0658,0.3376 0.0658,0.9599 v 0.8939 l 0.89123,10e-4 c 0.49016,9e-4 0.92276,0.021 0.9615,0.045 0.0527,0.033 0.0664,0.2285 0.0548,0.7806 l -0.0153,0.7364 -0.93234,0.027 -0.93235,0.027 -0.0274,0.9324 -0.0274,0.9323 -0.75528,0.015 c -0.5743,0.012 -0.7615,0 -0.78106,-0.055 m 14.38583,0.6075 c 0.7318,-0.3544 0.75921,-1.4645 0.0459,-1.8828 -0.32945,-0.1931 -0.78233,-0.1931 -1.11178,0 -0.71107,0.4167 -0.68677,1.521 0.0415,1.8815 0.31373,0.1554 0.70531,0.1558 1.02435,0 m -2.52543,-2.1954 c 0.54023,-0.136 0.92696,-0.7689 0.78654,-1.2864 -0.13851,-0.5109 -0.55886,-0.843 -1.0672,-0.843 -0.79878,0 -1.31533,0.844 -0.9625,1.5728 0.12389,0.256 0.3353,0.4337 0.64712,0.5454 0.24896,0.089 0.28541,0.09 0.59595,0.012 m 4.8906,-0.1436 c 0.35192,-0.2161 0.51244,-0.541 0.48595,-0.9833 -0.0168,-0.2805 -0.0501,-0.3774 -0.18775,-0.5482 -0.23772,-0.2951 -0.5383,-0.4525 -0.8662,-0.4536 -0.98643,0 -1.46818,1.1425 -0.77283,1.8382 0.38226,0.3823 0.87086,0.4361 1.34119,0.1474 m -2.27262,-2.3032 c 0.30195,-0.2123 0.46503,-0.5175 0.46613,-0.8727 0.002,-0.4884 -0.19963,-0.811 -0.62985,-1.0105 -0.44813,-0.2075 -0.97986,-0.065 -1.31068,0.3506 -0.22429,0.2819 -0.2665,0.7859 -0.0942,1.1236 0.12434,0.2438 0.40071,0.4842 0.64721,0.563 0.26485,0.085 0.68037,0.015 0.92092,-0.1542"
       id="path1120" />
  </g>
</svg>
