<?xml version="1.0" encoding="UTF-8" standalone="no"?>
<!-- Created with Inkscape (http://www.inkscape.org/) -->

<svg
   xmlns:dc="http://purl.org/dc/elements/1.1/"
   xmlns:cc="http://creativecommons.org/ns#"
   xmlns:rdf="http://www.w3.org/1999/02/22-rdf-syntax-ns#"
   xmlns:svg="http://www.w3.org/2000/svg"
   xmlns="http://www.w3.org/2000/svg"
   xmlns:sodipodi="http://sodipodi.sourceforge.net/DTD/sodipodi-0.dtd"
   xmlns:inkscape="http://www.inkscape.org/namespaces/inkscape"
   width="48"
   height="48"
   id="svg2"
   version="1.1"
   inkscape:version="0.48.5 r10040"
   sodipodi:docname="google-fusion-tables.svg"
   inkscape:export-filename="/home/uri/workspace/NitruxforAndroid/res/drawable-xhdpi/google_search.png"
   inkscape:export-xdpi="180"
   inkscape:export-ydpi="180">
  <defs
     id="defs4" />
  <sodipodi:namedview
     id="base"
     pagecolor="#ffffff"
     bordercolor="#666666"
     borderopacity="1.0"
     inkscape:pageopacity="0.0"
     inkscape:pageshadow="2"
     inkscape:zoom="8.0625001"
     inkscape:cx="15.680007"
     inkscape:cy="24.182887"
     inkscape:document-units="px"
     inkscape:current-layer="layer1"
     showgrid="false"
     inkscape:window-width="1920"
     inkscape:window-height="1025"
     inkscape:window-x="-4"
     inkscape:window-y="39"
     inkscape:window-maximized="1"
     showguides="true">
    <sodipodi:guide
       position="4,44.000017"
       orientation="40,0"
       id="guide4081" />
    <sodipodi:guide
       position="4,4.0000174"
       orientation="0,40"
       id="guide4083" />
    <sodipodi:guide
       position="44,4.0000174"
       orientation="-40,0"
       id="guide4085" />
    <sodipodi:guide
       position="44,44.000017"
       orientation="0,-40"
       id="guide4087" />
    <sodipodi:guide
       position="9,39.000017"
       orientation="30,0"
       id="guide4091" />
    <sodipodi:guide
       position="9,9.0000174"
       orientation="0,30"
       id="guide4093" />
    <sodipodi:guide
       position="39,9.0000174"
       orientation="-30,0"
       id="guide4095" />
    <sodipodi:guide
       position="39,39.000017"
       orientation="0,-30"
       id="guide4097" />
    <sodipodi:guide
       position="15,33.000017"
       orientation="18,0"
       id="guide4101" />
    <sodipodi:guide
       position="15,15.000017"
       orientation="0,18"
       id="guide4103" />
    <sodipodi:guide
       position="33,15.000017"
       orientation="-18,0"
       id="guide4105" />
    <sodipodi:guide
       position="33,33.000017"
       orientation="0,-18"
       id="guide4107" />
  </sodipodi:namedview>
  <metadata
     id="metadata7">
    <rdf:RDF>
      <cc:Work
         rdf:about="">
        <dc:format>image/svg+xml</dc:format>
        <dc:type
           rdf:resource="http://purl.org/dc/dcmitype/StillImage" />
        <dc:title />
      </cc:Work>
    </rdf:RDF>
  </metadata>
  <g
     inkscape:label="Capa 1"
     inkscape:groupmode="layer"
     id="layer1"
     transform="translate(0,-1004.3622)">
    <path
       style="fill:#0aa25a;fill-rule:evenodd"
       inkscape:connector-curvature="0"
       id="path100"
       d="m 43.999543,1028.3621 c 0,11.0457 -8.954263,20.0001 -19.999773,20.0001 C 12.95426,1048.3622 4,1039.4078 4,1028.3621 c 0,-11.0456 8.95426,-19.9999 19.99977,-19.9999 11.04551,0 19.999773,8.9543 19.999773,19.9999" />
    <path
       style="opacity:0.25"
       inkscape:connector-curvature="0"
       d="m 39.85908,1016.1782 c -5.46685,5.4784 -10.94136,10.9496 -16.41387,16.4223 l -5.69542,-5.6956 c -3.73008,3.7455 -7.46509,7.486 -11.20905,11.2175 7.3e-4,0 10e-4,0 0.002,0 0.074,0.1321 0.14956,0.2632 0.22649,0.3933 9.1e-4,0 0.002,0 0.003,0 0.0765,0.1295 0.1543,0.2579 0.2336,0.3855 0.003,0 0.006,0.01 0.008,0.013 0.0777,0.1247 0.15659,0.2486 0.23699,0.3715 0.005,0.01 0.01,0.015 0.0146,0.022 0.0785,0.1197 0.15814,0.2384 0.23909,0.3563 0.008,0.011 0.0157,0.023 0.0236,0.034 0.0794,0.1152 0.16006,0.2295 0.24174,0.3429 0.008,0.011 0.0156,0.021 0.0234,0.032 0.0831,0.1148 0.16728,0.2288 0.25288,0.3419 0.005,0.01 0.009,0.012 0.0141,0.018 0.0878,0.1158 0.17688,0.2306 0.26714,0.3444 0.005,0.01 0.01,0.012 0.0144,0.018 0.0913,0.1148 0.18363,0.2286 0.27728,0.3412 l 2.59875,2.5987 c 3.46586,2.8834 7.92098,4.6175 12.78228,4.6175 11.04551,0 19.99977,-8.9544 19.99977,-20.0001 0,-4.5863 -1.544544,-8.8109 -4.14047,-12.1839 l -1.8e-4,0"
       id="path158" />
    <path
       style="fill:#ffffff"
       inkscape:connector-curvature="0"
       d="m 39.85908,1016.1782 c -5.46876,5.4803 -10.94502,10.9533 -16.41935,16.4277 -1.89555,-1.9015 -3.80051,-3.7938 -5.68994,-5.7019 -3.73008,3.7454 -7.46509,7.486 -11.20905,11.2175 0.6007,1.0723 1.29751,2.0848 2.07846,3.0231 3.03865,-3.0502 6.08645,-6.0911 9.13059,-9.1362 1.89555,1.9016 3.80051,3.7939 5.68994,5.702 6.12574,-6.1405 12.25878,-12.2736 18.398219,-18.4013 -0.563149,-1.1073 -1.227249,-2.1555 -1.978509,-3.1319"
       id="path160" />
  </g>
</svg>
