<?xml version="1.0" encoding="UTF-8" standalone="no"?>
<!-- Created with Inkscape (http://www.inkscape.org/) -->

<svg
   xmlns:dc="http://purl.org/dc/elements/1.1/"
   xmlns:cc="http://creativecommons.org/ns#"
   xmlns:rdf="http://www.w3.org/1999/02/22-rdf-syntax-ns#"
   xmlns:svg="http://www.w3.org/2000/svg"
   xmlns="http://www.w3.org/2000/svg"
   xmlns:xlink="http://www.w3.org/1999/xlink"
   xmlns:sodipodi="http://sodipodi.sourceforge.net/DTD/sodipodi-0.dtd"
   xmlns:inkscape="http://www.inkscape.org/namespaces/inkscape"
   width="48"
   height="48"
   id="svg2"
   version="1.1"
   inkscape:version="0.48.5 r10040"
   sodipodi:docname="googleearth.svg"
   inkscape:export-filename="/home/uri/workspace/NitruxforAndroid/res/drawable-xhdpi/downloads.png"
   inkscape:export-xdpi="180"
   inkscape:export-ydpi="180">
  <defs
     id="defs4">
    <radialGradient
       inkscape:collect="always"
       xlink:href="#linearGradient3800"
       id="radialGradient3068"
       gradientUnits="userSpaceOnUse"
       gradientTransform="matrix(0.40279306,2.2523531,-3.0110118,0.53846562,561.50914,643.52935)"
       cx="73.690285"
       cy="133.93176"
       fx="73.690285"
       fy="133.93176"
       r="70.198921" />
    <linearGradient
       id="linearGradient3800">
      <stop
         style="stop-color:#ffffff;stop-opacity:1;"
         offset="0"
         id="stop3802" />
      <stop
         style="stop-color:#959595;stop-opacity:1;"
         offset="1"
         id="stop3804" />
    </linearGradient>
    <radialGradient
       inkscape:collect="always"
       xlink:href="#linearGradient3784"
       id="radialGradient3065"
       gradientUnits="userSpaceOnUse"
       gradientTransform="matrix(-8.8855194,0.3312726,-0.33927551,-9.2319816,458.7091,965.91054)"
       cx="19.700378"
       cy="9.798296"
       fx="19.700378"
       fy="9.798296"
       r="18.09778" />
    <linearGradient
       id="linearGradient3784">
      <stop
         id="stop3786"
         offset="0"
         style="stop-color:#0066ff;stop-opacity:1;" />
      <stop
         id="stop3788"
         offset="1"
         style="stop-color:#3875d0;stop-opacity:1;" />
    </linearGradient>
    <radialGradient
       inkscape:collect="always"
       xlink:href="#linearGradient3784"
       id="radialGradient3009"
       gradientUnits="userSpaceOnUse"
       gradientTransform="matrix(-1.5319865,0.05711597,-0.05849579,-1.5917212,61.818579,1035.5678)"
       cx="19.700378"
       cy="9.798296"
       fx="19.700378"
       fy="9.798296"
       r="18.09778" />
  </defs>
  <sodipodi:namedview
     id="base"
     pagecolor="#ffffff"
     bordercolor="#666666"
     borderopacity="1.0"
     inkscape:pageopacity="0.0"
     inkscape:pageshadow="2"
     inkscape:zoom="4.47369"
     inkscape:cx="14.188341"
     inkscape:cy="3.1756012"
     inkscape:document-units="px"
     inkscape:current-layer="layer1"
     showgrid="false"
     inkscape:window-width="1920"
     inkscape:window-height="1025"
     inkscape:window-x="-4"
     inkscape:window-y="39"
     inkscape:window-maximized="1"
     showguides="true"
     inkscape:object-paths="true"
     inkscape:snap-intersection-paths="true"
     inkscape:snap-smooth-nodes="true">
    <inkscape:grid
       type="xygrid"
       id="grid3850" />
    <sodipodi:guide
       position="4,44.000017"
       orientation="40,0"
       id="guide4110" />
    <sodipodi:guide
       position="4,4.0000174"
       orientation="0,40"
       id="guide4112" />
    <sodipodi:guide
       position="44,4.0000174"
       orientation="-40,0"
       id="guide4114" />
    <sodipodi:guide
       position="44,44.000017"
       orientation="0,-40"
       id="guide4116" />
    <sodipodi:guide
       position="8.999999,39.000017"
       orientation="30,0"
       id="guide4124" />
    <sodipodi:guide
       position="8.999999,9.0000174"
       orientation="0,30.000001"
       id="guide4126" />
    <sodipodi:guide
       position="39,9.0000174"
       orientation="-30,0"
       id="guide4128" />
    <sodipodi:guide
       position="39,39.000017"
       orientation="0,-30.000001"
       id="guide4130" />
    <sodipodi:guide
       position="14.999999,33.000017"
       orientation="18,0"
       id="guide4134" />
    <sodipodi:guide
       position="14.999999,15.000017"
       orientation="0,18.000001"
       id="guide4136" />
    <sodipodi:guide
       position="33,15.000017"
       orientation="-18,0"
       id="guide4138" />
    <sodipodi:guide
       position="33,33.000017"
       orientation="0,-18.000001"
       id="guide4140" />
  </sodipodi:namedview>
  <metadata
     id="metadata7">
    <rdf:RDF>
      <cc:Work
         rdf:about="">
        <dc:format>image/svg+xml</dc:format>
        <dc:type
           rdf:resource="http://purl.org/dc/dcmitype/StillImage" />
        <dc:title />
      </cc:Work>
    </rdf:RDF>
  </metadata>
  <g
     inkscape:label="Capa 1"
     inkscape:groupmode="layer"
     id="layer1"
     transform="translate(0,-1004.3622)">
    <path
       style="fill:#3a6b87;fill-rule:evenodd"
       inkscape:connector-curvature="0"
       d="m 43.67041,1028.219 c 0,10.9551 -8.880989,19.8352 -19.835205,19.8352 C 12.880083,1048.0542 4,1039.1733 4,1028.219 c 0,-10.9552 8.880988,-19.8352 19.835205,-19.8352 10.955122,0 19.835205,8.8809 19.835205,19.8352"
       id="path6" />
    <path
       inkscape:connector-curvature="0"
       d="m 24.020056,1014.7077 c -1.813168,0 -3.543878,0.3368 -5.145102,0.9345 0.108645,0 0.210857,0.01 0.317146,0.01 -0.07593,0.027 -0.151143,0.054 -0.226533,0.082 0.109551,0 0.212759,0 0.319954,0.01 -0.07711,0.028 -0.152864,0.057 -0.229341,0.085 0.109551,0 0.21276,0 0.319955,0.01 -0.07711,0.028 -0.152864,0.056 -0.229342,0.085 0.108645,0 0.210857,0 0.317146,0.01 -0.07639,0.027 -0.15359,0.054 -0.229342,0.082 0.110548,0 0.214663,0.01 0.322855,0.01 -0.0772,0.028 -0.155583,0.053 -0.232242,0.082 0.110548,0 0.214662,0.01 0.322854,0.01 -0.0772,0.028 -0.155582,0.054 -0.23224,0.082 0.108644,0 0.210856,0.01 0.317146,0.01 -0.07593,0.027 -0.151144,0.054 -0.226534,0.082 0.108646,0 0.210857,0.01 0.317146,0.01 -0.07593,0.027 -0.151143,0.054 -0.226533,0.082 0.109552,0 0.21276,0 0.319955,0.01 -0.07711,0.028 -0.152864,0.057 -0.229341,0.085 0.108645,0 0.210856,0 0.317146,0.01 -0.07639,0.027 -0.153589,0.053 -0.229343,0.082 0.110548,0 0.214663,0.01 0.322855,0.01 -0.0772,0.028 -0.155582,0.054 -0.232241,0.082 0.110548,0 0.214662,0.01 0.322854,0.01 -0.0772,0.028 -0.155582,0.053 -0.232241,0.082 0.108645,0 0.210856,0.01 0.317146,0.01 -0.07593,0.027 -0.151143,0.054 -0.226533,0.082 0.108645,0 0.210857,0.01 0.317145,0.01 -0.07593,0.027 -0.151142,0.054 -0.226532,0.082 0.109551,0 0.21276,0 0.319955,0.01 -0.07711,0.028 -0.152864,0.057 -0.229342,0.085 0.108645,0 0.210857,0 0.317146,0.01 -0.07639,0.027 -0.153589,0.054 -0.229341,0.082 0.110547,0 0.214662,0.01 0.322854,0.01 -0.0772,0.028 -0.155583,0.053 -0.232242,0.082 0.110548,0 0.214662,0.01 0.322855,0.01 -0.0772,0.028 -0.155582,0.054 -0.232241,0.082 0.108644,0 0.210856,0.01 0.317146,0.01 -0.07531,0.027 -0.151777,0.054 -0.226533,0.082 0.108645,0 0.210856,0.01 0.317146,0.01 -0.07593,0.027 -0.151144,0.054 -0.226534,0.082 0.109552,0 0.21276,0 0.319955,0.01 -0.07711,0.028 -0.152864,0.057 -0.229341,0.085 0.108645,0 0.210856,0 0.317146,0.01 -0.07639,0.027 -0.153589,0.053 -0.229342,0.082 0.110185,0 0.215025,0.01 0.322854,0.01 -0.0772,0.028 -0.155582,0.054 -0.232241,0.082 0.110548,0 0.214663,0.01 0.322855,0.01 -0.0772,0.028 -0.155583,0.053 -0.232242,0.082 0.110548,0 0.214662,0.01 0.322854,0.01 -0.0772,0.028 -0.155583,0.054 -0.232241,0.082 0.108645,0 0.210857,0.01 0.317146,0.01 -0.07593,0.027 -0.151143,0.053 -0.226533,0.082 0.109551,0 0.21276,0 0.319955,0.01 -0.07711,0.027 -0.152864,0.056 -0.229342,0.085 0.109552,0 0.21276,0 0.319955,0.01 -0.07711,0.028 -0.152864,0.057 -0.229341,0.085 0.108644,0 0.210856,0 0.317146,0.01 -0.07639,0.027 -0.153589,0.054 -0.229343,0.082 0.110548,0 0.214663,0.01 0.322855,0.01 -0.0772,0.028 -0.155583,0.054 -0.232241,0.082 0.110548,0 0.214662,0.01 0.322854,0.01 -0.0772,0.028 -0.155583,0.054 -0.232241,0.082 0.108645,0 0.210856,0.01 0.317146,0.01 -0.07593,0.027 -0.151143,0.053 -0.226534,0.082 0.108646,0 0.210858,0.01 0.317146,0.01 -0.07593,0.027 -0.151142,0.054 -0.226532,0.082 0.109551,0 0.212759,0 0.319955,0.01 -0.07711,0.028 -0.152865,0.057 -0.229342,0.085 0.108645,0 0.210856,0 0.317146,0.01 -0.07639,0.027 -0.153589,0.054 -0.229341,0.082 0.110547,0 0.214662,0.01 0.322854,0.01 -0.0772,0.028 -0.155583,0.054 -0.232242,0.082 0.110548,0 0.214662,0.01 0.322854,0.01 -0.0772,0.028 -0.155582,0.054 -0.232241,0.082 0.108645,0 0.210857,0.01 0.317146,0.01 -0.07593,0.027 -0.151142,0.054 -0.226532,0.082 0.108644,0 0.210856,0.01 0.317145,0.01 -0.07593,0.027 -0.151143,0.053 -0.226533,0.082 0.109551,0 0.21276,0 0.319955,0.01 -0.07711,0.027 -0.152864,0.057 -0.229341,0.085 0.108644,0 0.210856,0 0.317145,0.01 -0.07639,0.027 -0.153589,0.053 -0.229341,0.082 0.110185,0 0.215025,0.01 0.322854,0.01 -0.0772,0.027 -0.155583,0.054 -0.232242,0.082 0.110548,0 0.214664,0.01 0.322856,0.01 -0.0772,0.028 -0.155583,0.054 -0.232242,0.082 0.110548,0 0.214662,0.01 0.322854,0.01 -0.0772,0.028 -0.155583,0.054 -0.232241,0.082 0.108645,0 0.210857,0.01 0.317146,0.01 -0.07593,0.027 -0.151143,0.054 -0.226533,0.082 0.109551,0 0.212759,0 0.319954,0.01 -0.07711,0.028 -0.152864,0.056 -0.229341,0.085 0.109551,0 0.21276,0 0.319955,0.01 -0.07711,0.028 -0.152864,0.056 -0.229342,0.085 0.108645,0 0.210857,0 0.317146,0.01 -0.07639,0.027 -0.15359,0.054 -0.229342,0.082 0.110548,0 0.214663,0.01 0.322855,0.01 -0.0772,0.028 -0.155583,0.053 -0.232242,0.082 0.110548,0 0.214662,0.01 0.322854,0.01 -0.0772,0.028 -0.155582,0.054 -0.23224,0.082 0.108644,0 0.210856,0.01 0.317145,0.01 -0.07593,0.027 -0.151142,0.053 -0.226533,0.082 0.109551,0 0.21276,0 0.319955,0.01 -0.07711,0.028 -0.152864,0.057 -0.229342,0.085 0.109552,0 0.21276,0 0.319955,0.01 -0.07711,0.028 -0.152864,0.057 -0.229341,0.085 0.108644,0 0.210856,0 0.317146,0.01 -0.07639,0.027 -0.153589,0.053 -0.229343,0.082 0.110548,0 0.214663,0.01 0.322855,0.01 -0.0772,0.027 -0.155582,0.054 -0.232241,0.082 0.110548,0 0.214662,0.01 0.322854,0.01 -0.0772,0.028 -0.155582,0.053 -0.232241,0.082 0.108645,0 0.210856,0.01 0.317146,0.01 -0.07593,0.027 -0.151143,0.054 -0.226533,0.082 0.108645,0 0.210857,0.01 0.317145,0.01 -0.07593,0.027 -0.151142,0.054 -0.226532,0.082 0.109551,0 0.21276,0 0.319955,0.01 -0.07711,0.028 -0.152865,0.056 -0.229342,0.085 0.108645,0 0.210857,0 0.317146,0.01 -0.07639,0.027 -0.153589,0.054 -0.229341,0.082 0.110547,0 0.214662,0.01 0.322854,0.01 -0.0772,0.028 -0.155583,0.053 -0.232242,0.082 0.110548,0 0.214662,0.01 0.322855,0.01 -0.0772,0.028 -0.155583,0.054 -0.232242,0.082 0.108645,0 0.210857,0.01 0.317146,0.01 -0.07529,0.027 -0.151777,0.054 -0.226532,0.082 0.108645,0 0.210856,0.01 0.317146,0.01 -0.07593,0.027 -0.151144,0.054 -0.226534,0.082 0.109551,0 0.21276,0 0.319955,0.01 -0.07711,0.028 -0.152864,0.057 -0.229341,0.085 0.108644,0 0.210856,0 0.317145,0.01 -0.07639,0.027 -0.153589,0.054 -0.229341,0.082 0.110185,0 0.215025,0.01 0.322854,0.01 -0.0772,0.028 -0.155583,0.054 -0.232242,0.082 0.110549,0 0.214664,0.01 0.322856,0.01 -0.0772,0.028 -0.155583,0.053 -0.232242,0.082 0.110548,0 0.214662,0.01 0.322854,0.01 -0.0772,0.028 -0.155583,0.054 -0.232241,0.082 0.108645,0 0.210857,0.01 0.317146,0.01 -0.07593,0.027 -0.151142,0.053 -0.226533,0.082 0.109551,0 0.212759,0 0.319954,0.01 -0.07711,0.028 -0.152864,0.056 -0.229341,0.085 0.109551,0 0.21276,0 0.319955,0.01 -0.07711,0.028 -0.152864,0.057 -0.229342,0.085 0.108645,0 0.210857,0 0.317146,0.01 -0.07639,0.027 -0.153589,0.054 -0.229342,0.082 0.110548,0 0.214663,0.01 0.322855,0.01 -0.0772,0.028 -0.155583,0.054 -0.232242,0.082 0.110548,0 0.214662,0.01 0.322854,0.01 -0.0772,0.028 -0.155581,0.054 -0.23224,0.082 0.108644,0 0.210856,0.01 0.317146,0.01 -0.07593,0.027 -0.151143,0.053 -0.226533,0.082 0.108645,0 0.210856,0.01 0.317145,0.01 -0.07593,0.027 -0.151143,0.054 -0.226533,0.082 0.109552,0 0.21276,0 0.319955,0.01 -0.07711,0.028 -0.152864,0.056 -0.229341,0.085 0.108645,0 0.210856,0 0.317146,0.01 -0.07639,0.027 -0.153589,0.054 -0.229342,0.082 0.110547,0 0.214662,0.01 0.322854,0.01 -0.0772,0.028 -0.155582,0.054 -0.232241,0.082 0.110548,0 0.214662,0.01 0.322855,0.01 -0.0772,0.028 -0.155583,0.054 -0.232242,0.082 0.108645,0 0.210856,0.01 0.317146,0.01 -0.07593,0.027 -0.151142,0.054 -0.226533,0.082 0.108645,0 0.210857,0.01 0.317146,0.01 -0.07593,0.027 -0.151143,0.053 -0.226533,0.082 0.109551,0 0.21276,0 0.319955,0.01 -0.07711,0.028 -0.152864,0.057 -0.229342,0.085 0.108645,0 0.210857,0 0.317146,0.01 -0.07639,0.027 -0.153589,0.054 -0.229341,0.082 0.110184,0 0.215024,0.01 0.322854,0.01 -0.0772,0.028 -0.155583,0.054 -0.232242,0.082 0.110548,0 0.214663,0.01 0.322855,0.01 -0.0772,0.028 -0.155583,0.054 -0.232241,0.082 0.110548,0 0.214662,0.01 0.322854,0.01 -0.0772,0.028 -0.155583,0.054 -0.232241,0.082 0.108645,0 0.210856,0.01 0.317146,0.01 -0.07593,0.027 -0.151144,0.054 -0.226534,0.082 0.109552,0 0.21276,0 0.319955,0.01 -0.07711,0.028 -0.152864,0.056 -0.229341,0.085 0.109551,0 0.212759,0 0.319955,0.01 -0.07711,0.028 -0.152865,0.056 -0.229342,0.085 0.108645,0 0.210856,0 0.317146,0.01 -0.07639,0.027 -0.153589,0.054 -0.229342,0.082 0.110548,0 0.214663,0.01 0.322855,0.01 -0.0772,0.028 -0.155583,0.053 -0.232242,0.082 0.110548,0 0.214662,0.01 0.322854,0.01 -0.0772,0.028 -0.155582,0.054 -0.232241,0.082 0.108645,0 0.210857,0.01 0.317146,0.01 -0.07593,0.027 -0.151142,0.053 -0.226532,0.082 0.10955,0 0.212759,0 0.319954,0.01 -0.07711,0.028 -0.152865,0.057 -0.229342,0.085 0.109551,0 0.21276,0 0.319955,0.01 -0.07711,0.028 -0.152864,0.057 -0.229341,0.085 0.108644,0 0.210856,0 0.317145,0.01 -0.07639,0.027 -0.153589,0.053 -0.229341,0.082 0.110547,0 0.214662,0.01 0.322854,0.01 -0.0772,0.028 -0.155583,0.054 -0.232242,0.082 0.110549,0 0.214663,0.01 0.322856,0.01 -0.0772,0.028 -0.155583,0.054 -0.232242,0.082 0.108644,0 0.210856,0.01 0.317146,0.01 -0.07594,0.027 -0.151143,0.054 -0.226533,0.082 0.108645,0 0.210857,0.01 0.317146,0.01 -0.07593,0.027 -0.151143,0.054 -0.226533,0.082 0.109551,0 0.212759,0 0.319954,0.01 -0.07711,0.028 -0.152864,0.056 -0.229341,0.085 0.108645,0 0.210856,0 0.317146,0.01 -0.07639,0.027 -0.153589,0.054 -0.229342,0.082 0.110548,0 0.214663,0.01 0.322855,0.01 -0.0772,0.028 -0.155583,0.053 -0.232242,0.082 0.110548,0 0.214663,0.01 0.322855,0.01 -0.0772,0.028 -0.155583,0.054 -0.232242,0.082 0.108645,0 0.210857,0.01 0.317146,0.01 -0.07531,0.027 -0.151777,0.055 -0.226532,0.082 0.108644,0 0.210856,0.01 0.317145,0.01 -0.07593,0.027 -0.151143,0.054 -0.226533,0.082 0.109551,0 0.21276,0 0.319955,0.01 -0.07711,0.028 -0.152864,0.057 -0.229342,0.085 0.108645,0 0.210857,0 0.317146,0.01 -0.07639,0.027 -0.153589,0.053 -0.229341,0.082 0.110186,0 0.215024,0.01 0.322854,0.01 -0.0772,0.027 -0.155583,0.054 -0.232242,0.082 0.110548,0 0.214663,0.01 0.322855,0.01 -0.0772,0.028 -0.155582,0.053 -0.232241,0.082 0.110548,0 0.214662,0.01 0.322854,0.01 -0.0772,0.027 -0.155582,0.054 -0.232241,0.082 0.108645,0 0.210856,0.01 0.317146,0.01 -0.07593,0.027 -0.151143,0.055 -0.226533,0.082 0.109551,0 0.212759,0 0.319954,0.01 -0.07711,0.028 -0.152864,0.057 -0.229341,0.085 0.109551,0 0.21276,0 0.319955,0.01 -0.07711,0.028 -0.152865,0.057 -0.229342,0.085 0.108645,0 0.210857,0 0.317146,0.01 -0.07639,0.027 -0.153589,0.054 -0.229341,0.082 0.110547,0 0.214662,0.01 0.322854,0.01 -0.0772,0.028 -0.155583,0.053 -0.232242,0.082 0.110548,0 0.214662,0.01 0.322854,0.01 -0.0772,0.028 -0.155582,0.054 -0.232241,0.082 0.108645,0 0.210857,0.01 0.317146,0.01 -0.07593,0.027 -0.151142,0.053 -0.226532,0.082 0.108645,0 0.210856,0.01 0.317146,0.01 -0.07593,0.027 -0.151144,0.054 -0.226534,0.082 0.109551,0 0.21276,0 0.319955,0.01 -0.07711,0.028 -0.152864,0.056 -0.229341,0.085 0.108644,0 0.210856,0 0.317145,0.01 -0.07639,0.027 -0.153589,0.054 -0.229341,0.082 0.110547,0 0.214662,0.01 0.322854,0.01 -0.0772,0.027 -0.155583,0.054 -0.232242,0.082 0.110549,0 0.214664,0.01 0.322856,0.01 -0.0772,0.028 -0.155583,0.053 -0.232242,0.082 0.108645,0 0.210856,0.01 0.317146,0.01 -0.07395,0.026 -0.147428,0.052 -0.220915,0.079 -0.887827,-0.762 -1.846966,-1.6036 -2.919553,-2.5287 -0.371605,-0.3204 -0.857653,-0.7955 -1.413021,-1.3478 -0.02963,-0.03 -0.06071,-0.061 -0.09061,-0.09 -0.08798,-0.088 -0.178507,-0.1791 -0.26903,-0.2691 -0.02963,-0.03 -0.06071,-0.061 -0.09061,-0.09 -0.01187,-0.012 -0.02492,-0.022 -0.03679,-0.034 -0.02981,-0.03 -0.06053,-0.061 -0.09061,-0.09 -0.08962,-0.089 -0.177239,-0.1783 -0.26903,-0.2691 -0.02972,-0.03 -0.06071,-0.061 -0.09061,-0.09 -0.02972,-0.03 -0.06071,-0.061 -0.09061,-0.09 -2.17562,-2.155 -4.95273,-4.7599 -6.694042,-4.7599 -0.308175,0 -0.615988,0.033 -0.917458,0.093 -0.100489,0.02 -0.200617,0.045 -0.300201,0.071 -2.786352,0.7348 -5.169477,3.7588 -5.949655,5.1479 -0.04957,0.088 -0.10638,0.1932 -0.158573,0.2889 -0.414102,0.8658 -0.747468,1.7743 -0.979799,2.7238 0.05618,-0.07 0.111454,-0.1379 0.16709,-0.2066 -0.02664,0.099 -0.0521,0.1975 -0.07648,0.2973 0.05618,-0.071 0.111455,-0.1379 0.167091,-0.2068 -0.02664,0.099 -0.0521,0.1976 -0.07648,0.2974 0.05618,-0.07 0.111453,-0.138 0.16709,-0.2067 -0.02636,0.098 -0.05228,0.1983 -0.07648,0.2973 0.05537,-0.07 0.10946,-0.136 0.164281,-0.2039 -0.02601,0.097 -0.05256,0.194 -0.07648,0.2917 0.05726,-0.072 0.113266,-0.1395 0.169899,-0.2096 -0.02691,0.1 -0.05464,0.1994 -0.07928,0.3002 0.05618,-0.07 0.111454,-0.138 0.167091,-0.2067 -0.02664,0.099 -0.05211,0.1976 -0.07648,0.2973 0.05618,-0.071 0.111454,-0.1379 0.16709,-0.2066 -0.02664,0.099 -0.0521,0.1974 -0.07648,0.2972 0.05618,-0.07 0.111454,-0.1379 0.16709,-0.2067 -0.02664,0.099 -0.0521,0.1976 -0.07648,0.2973 0.05618,-0.07 0.111454,-0.1379 0.167091,-0.2066 -0.02636,0.098 -0.05228,0.1982 -0.07648,0.2973 0.05537,-0.07 0.10946,-0.136 0.164281,-0.204 -0.02601,0.097 -0.05256,0.1939 -0.07648,0.2917 0.05726,-0.072 0.113267,-0.1394 0.1699,-0.2096 -0.02691,0.1 -0.05464,0.1995 -0.07928,0.3003 0.05754,-0.072 0.112995,-0.142 0.1699,-0.2125 -0.0271,0.1007 -0.05446,0.2015 -0.07928,0.3031 0.05618,-0.071 0.111453,-0.1379 0.167089,-0.2068 -0.02664,0.099 -0.0521,0.1976 -0.07648,0.2974 0.05618,-0.07 0.111455,-0.138 0.167091,-0.2067 -0.02664,0.099 -0.0521,0.1975 -0.07648,0.2973 0.05618,-0.071 0.111453,-0.1379 0.16709,-0.2066 -0.02664,0.099 -0.0521,0.1974 -0.07648,0.2972 0.05537,-0.069 0.10946,-0.136 0.164281,-0.2039 -0.02601,0.097 -0.05255,0.1939 -0.07648,0.2917 0.05727,-0.072 0.113267,-0.1394 0.1699,-0.2096 -0.02691,0.1 -0.05464,0.1995 -0.07928,0.3003 0.05727,-0.072 0.113265,-0.1395 0.169899,-0.2096 -0.02691,0.1 -0.05464,0.1994 -0.07928,0.3001 0.05618,-0.07 0.111454,-0.1378 0.16709,-0.2067 -0.02664,0.099 -0.0521,0.1976 -0.07648,0.2974 0.05618,-0.07 0.111454,-0.138 0.16709,-0.2067 -0.02664,0.099 -0.0521,0.1975 -0.07648,0.2973 0.05618,-0.07 0.111454,-0.1379 0.167091,-0.2068 -0.02664,0.099 -0.0521,0.1976 -0.07648,0.2974 0.05537,-0.069 0.10946,-0.1361 0.164281,-0.2039 -0.02601,0.097 -0.05255,0.1939 -0.07648,0.2917 0.05726,-0.072 0.113267,-0.1395 0.169899,-0.2096 -0.02691,0.1 -0.05464,0.1995 -0.07928,0.3002 0.05727,-0.072 0.113266,-0.1394 0.1699,-0.2096 -0.02691,0.1 -0.05464,0.1994 -0.07928,0.3002 0.05618,-0.07 0.111454,-0.1379 0.16709,-0.2067 -0.02664,0.099 -0.0521,0.1976 -0.07648,0.2974 0.05618,-0.07 0.111455,-0.138 0.167091,-0.2067 -0.02664,0.099 -0.0521,0.1975 -0.07648,0.2972 0.05618,-0.07 0.111454,-0.1378 0.167091,-0.2067 -0.02664,0.099 -0.0521,0.1976 -0.07648,0.2974 0.05618,-0.07 0.111454,-0.138 0.16709,-0.2067 -0.02636,0.098 -0.05228,0.1983 -0.07648,0.2973 0.05537,-0.07 0.109461,-0.136 0.164282,-0.2039 -0.02601,0.097 -0.05256,0.1939 -0.07648,0.2916 0.05727,-0.072 0.113265,-0.1394 0.169899,-0.2095 -0.02691,0.1 -0.05464,0.1994 -0.07928,0.3002 0.05618,-0.07 0.111455,-0.138 0.167091,-0.2067 -0.02664,0.099 -0.0521,0.1976 -0.07648,0.2973 0.05618,-0.071 0.111455,-0.1379 0.167091,-0.2067 -0.02664,0.099 -0.0521,0.1975 -0.07648,0.2973 0.05618,-0.07 0.111453,-0.1379 0.16709,-0.2067 -0.02664,0.099 -0.0521,0.1976 -0.07648,0.2973 0.05618,-0.07 0.111455,-0.1379 0.167091,-0.2066 -0.02636,0.098 -0.05228,0.1982 -0.07648,0.2972 0.05537,-0.069 0.109461,-0.136 0.164281,-0.2038 -0.02601,0.097 -0.05256,0.1939 -0.07648,0.2916 0.05727,-0.072 0.113266,-0.1394 0.1699,-0.2096 -0.02691,0.1 -0.05464,0.1995 -0.07928,0.3003 0.05754,-0.072 0.112995,-0.1421 0.1699,-0.2125 -0.0271,0.1007 -0.05446,0.2015 -0.07928,0.303 0.05618,-0.07 0.111454,-0.1378 0.167091,-0.2066 -0.02664,0.099 -0.0521,0.1975 -0.07648,0.2973 0.05618,-0.07 0.111454,-0.138 0.167091,-0.2067 -0.02664,0.099 -0.0521,0.1976 -0.07648,0.2973 0.05618,-0.071 0.111454,-0.1379 0.16709,-0.2067 -0.02664,0.099 -0.0521,0.1975 -0.07648,0.2973 0.05537,-0.069 0.109461,-0.136 0.164282,-0.2039 -0.02601,0.097 -0.05256,0.1939 -0.07648,0.2917 0.05727,-0.072 0.113266,-0.1395 0.1699,-0.2096 -0.02691,0.1 -0.05464,0.1995 -0.07928,0.3003 0.05726,-0.072 0.113267,-0.1395 0.169899,-0.2096 -0.02691,0.1 -0.05464,0.1993 -0.07928,0.3001 0.05618,-0.07 0.111454,-0.1379 0.167091,-0.2067 -0.02664,0.099 -0.0521,0.1976 -0.07648,0.2974 0.05618,-0.07 0.111453,-0.138 0.16709,-0.2067 -0.02664,0.099 -0.0521,0.1975 -0.07648,0.2972 0.05618,-0.07 0.111455,-0.1378 0.167091,-0.2067 -0.02664,0.099 -0.0521,0.1976 -0.07648,0.2974 0.05618,-0.07 0.111454,-0.138 0.167091,-0.2067 -0.02636,0.098 -0.05228,0.1983 -0.07647,0.2973 0.056,-0.071 0.108826,-0.1381 0.164282,-0.2067 -0.02628,0.097 -0.05228,0.1958 -0.07648,0.2945 0.05727,-0.072 0.113267,-0.1394 0.1699,-0.2095 -0.02691,0.1 -0.05464,0.1993 -0.07928,0.3001 0.05618,-0.07 0.111453,-0.1379 0.16709,-0.2067 -0.02664,0.099 -0.0521,0.1976 -0.07648,0.2974 0.05618,-0.071 0.111454,-0.138 0.167091,-0.2068 -0.02664,0.099 -0.0521,0.1975 -0.07648,0.2973 0.05618,-0.07 0.111455,-0.1379 0.167091,-0.2067 -0.02664,0.099 -0.0521,0.1976 -0.07648,0.2974 0.05618,-0.07 0.111454,-0.138 0.167091,-0.2067 -0.02636,0.098 -0.05228,0.1982 -0.07647,0.2972 0.05537,-0.069 0.10946,-0.1359 0.164281,-0.2038 -0.02601,0.097 -0.05255,0.1939 -0.07647,0.2916 0.05726,-0.072 0.113266,-0.1394 0.169899,-0.2096 -0.02691,0.1 -0.05464,0.1995 -0.07928,0.3003 0.05754,-0.072 0.112995,-0.1421 0.1699,-0.2124 -0.0271,0.1007 -0.05446,0.2014 -0.07928,0.3029 0.05618,-0.07 0.111453,-0.1378 0.167089,-0.2066 -0.02664,0.099 -0.0521,0.1975 -0.07648,0.2973 0.05618,-0.07 0.111455,-0.1379 0.167091,-0.2067 -0.02664,0.099 -0.0521,0.1976 -0.07647,0.2974 0.05618,-0.071 0.111454,-0.138 0.167091,-0.2068 -0.02664,0.099 -0.0521,0.1975 -0.07648,0.2973 0.05537,-0.069 0.10946,-0.136 0.16428,-0.2038 -0.02601,0.097 -0.05255,0.1939 -0.07647,0.2916 0.05727,-0.072 0.113267,-0.1395 0.1699,-0.2096 -0.02691,0.1 -0.05464,0.1995 -0.07928,0.3003 0.05727,-0.072 0.113266,-0.1395 0.169899,-0.2096 -0.02691,0.1 -0.05464,0.1993 -0.07928,0.3001 0.05618,-0.07 0.111454,-0.1379 0.16709,-0.2066 -0.02664,0.099 -0.0521,0.1975 -0.07648,0.2973 0.05618,-0.07 0.111455,-0.138 0.167091,-0.2067 -0.02664,0.099 -0.0521,0.1976 -0.07648,0.2972 0.05618,-0.07 0.111453,-0.1378 0.16709,-0.2066 -0.02664,0.099 -0.05211,0.1975 -0.07648,0.2973 0.05537,-0.069 0.10946,-0.136 0.164281,-0.2039 -0.02601,0.097 -0.05256,0.1939 -0.07648,0.2917 0.05727,-0.072 0.113266,-0.1395 0.169899,-0.2096 -0.02691,0.1 -0.05464,0.1995 -0.07928,0.3002 0.05727,-0.072 0.113266,-0.1394 0.1699,-0.2095 -0.02691,0.1 -0.05464,0.1993 -0.07928,0.3001 0.05618,-0.07 0.111454,-0.1379 0.16709,-0.2067 -0.02664,0.099 -0.0521,0.1976 -0.07647,0.2974 0.05618,-0.07 0.111454,-0.138 0.16709,-0.2067 -0.02664,0.099 -0.0521,0.1974 -0.07648,0.2972 0.05618,-0.07 0.111454,-0.1379 0.167091,-0.2066 -0.02664,0.099 -0.0521,0.1975 -0.07648,0.2973 0.05618,-0.07 0.111453,-0.138 0.167089,-0.2067 -0.02636,0.098 -0.05228,0.1983 -0.07648,0.2972 0.05537,-0.069 0.109461,-0.1359 0.164282,-0.2038 -0.02601,0.097 -0.05256,0.1939 -0.07648,0.2917 0.05727,-0.072 0.113266,-0.1394 0.1699,-0.2096 -0.02691,0.1 -0.05464,0.1994 -0.07928,0.3002 0.05618,-0.07 0.111454,-0.1379 0.16709,-0.2067 -0.02664,0.099 -0.0521,0.1976 -0.07648,0.2973 0.05618,-0.07 0.111455,-0.1379 0.167091,-0.2067 -0.02664,0.099 -0.0521,0.1975 -0.07648,0.2973 0.05618,-0.07 0.111453,-0.1379 0.16709,-0.2067 -0.02664,0.099 -0.0521,0.1976 -0.07648,0.2974 0.05618,-0.071 0.111454,-0.138 0.16709,-0.2067 -0.02636,0.098 -0.05228,0.1982 -0.07648,0.2972 0.05537,-0.069 0.109461,-0.136 0.164282,-0.2038 -0.02601,0.097 -0.05256,0.1939 -0.07647,0.2916 0.05726,-0.072 0.113266,-0.1394 0.169899,-0.2096 -0.02691,0.1 -0.05464,0.1995 -0.07928,0.3003 0.05754,-0.072 0.112995,-0.1421 0.1699,-0.2124 -0.0271,0.1007 -0.05446,0.2014 -0.07928,0.303 0.05618,-0.07 0.111454,-0.1379 0.16709,-0.2067 -0.02664,0.099 -0.0521,0.1975 -0.07648,0.2973 0.05618,-0.07 0.111454,-0.1379 0.167091,-0.2067 -0.02664,0.099 -0.0521,0.1976 -0.07648,0.2973 0.05618,-0.07 0.111455,-0.1379 0.167091,-0.2067 -0.02664,0.099 -0.0521,0.1975 -0.07647,0.2973 0.05537,-0.069 0.109461,-0.136 0.164281,-0.2038 -0.02601,0.097 -0.05255,0.1939 -0.07647,0.2916 0.05727,-0.072 0.113266,-0.1395 0.1699,-0.2096 -0.02691,0.1 -0.05464,0.1995 -0.07928,0.3002 0.05727,-0.072 0.113266,-0.1394 0.169899,-0.2095 -0.02691,0.1 -0.05464,0.1994 -0.07928,0.3001 0.05618,-0.07 0.111454,-0.1379 0.167091,-0.2066 -0.02664,0.099 -0.0521,0.1975 -0.07647,0.2973 0.05618,-0.071 0.111454,-0.1379 0.167091,-0.2067 -0.02664,0.099 -0.05211,0.1975 -0.07648,0.2972 0.05618,-0.07 0.111454,-0.1378 0.16709,-0.2066 -0.02664,0.099 -0.0521,0.1975 -0.07647,0.2973 0.05618,-0.07 0.111455,-0.1379 0.167091,-0.2067 -0.02636,0.098 -0.05228,0.1983 -0.07648,0.2973 0.056,-0.07 0.108826,-0.1381 0.164281,-0.2067 -0.02628,0.098 -0.05228,0.1958 -0.07648,0.2945 0.05727,-0.072 0.113267,-0.1394 0.1699,-0.2096 -0.02691,0.1 -0.05464,0.1994 -0.07929,0.3002 0.05618,-0.07 0.111455,-0.1379 0.167091,-0.2066 -0.02664,0.099 -0.0521,0.1975 -0.07647,0.2972 0.05618,-0.07 0.111454,-0.1379 0.167091,-0.2067 -0.02664,0.099 -0.05211,0.1976 -0.07648,0.2973 0.05618,-0.07 0.111455,-0.1379 0.167091,-0.2066 -0.02664,0.099 -0.0521,0.1975 -0.07648,0.2973 0.05618,-0.071 0.111454,-0.1379 0.16709,-0.2067 -0.02636,0.098 -0.05228,0.1982 -0.07648,0.2972 0.05537,-0.069 0.109461,-0.136 0.164282,-0.2038 -0.02601,0.097 -0.05256,0.1939 -0.07648,0.2917 0.05727,-0.072 0.113267,-0.1395 0.1699,-0.2096 -0.02691,0.1 -0.05464,0.1994 -0.07928,0.3002 0.05754,-0.072 0.112995,-0.142 0.169899,-0.2124 -0.02709,0.1007 -0.05445,0.2015 -0.07928,0.303 0.05618,-0.07 0.111454,-0.1379 0.167091,-0.2067 -0.02664,0.099 -0.0521,0.1975 -0.07648,0.2973 0.05618,-0.07 0.111454,-0.1379 0.16709,-0.2067 -0.02664,0.099 -0.0521,0.1976 -0.07648,0.2973 0.05618,-0.07 0.111455,-0.1379 0.167091,-0.2067 -0.02636,0.098 -0.05228,0.1983 -0.07648,0.2973 0.05537,-0.069 0.10946,-0.136 0.164282,-0.2038 -0.02601,0.097 -0.05256,0.1939 -0.07648,0.2917 0.05727,-0.072 0.113267,-0.1395 0.1699,-0.2096 -0.02691,0.1 -0.05464,0.1994 -0.07928,0.3001 0.05727,-0.072 0.113267,-0.1394 0.1699,-0.2095 -0.02691,0.1 -0.05464,0.1994 -0.07928,0.3002 0.05618,-0.07 0.111453,-0.138 0.16709,-0.2067 -0.02664,0.099 -0.0521,0.1975 -0.07648,0.2973 0.05618,-0.071 0.111455,-0.1379 0.167091,-0.2067 -0.02664,0.099 -0.0521,0.1975 -0.07648,0.2973 0.05618,-0.07 0.111454,-0.1379 0.167091,-0.2067 -0.02664,0.099 -0.0521,0.1975 -0.07648,0.2973 0.05537,-0.069 0.10946,-0.136 0.164282,-0.2038 -0.02601,0.097 -0.05256,0.1939 -0.07648,0.2916 0.05727,-0.072 0.113267,-0.1395 0.1699,-0.2096 -0.02691,0.1 -0.05464,0.1995 -0.07928,0.3002 0.05726,-0.072 0.113266,-0.1394 0.169899,-0.2096 -0.02691,0.1 -0.05464,0.1995 -0.07928,0.3002 0.05618,-0.07 0.111454,-0.1379 0.167091,-0.2066 -0.02664,0.099 -0.0521,0.1975 -0.07648,0.2973 0.05618,-0.071 0.111454,-0.1379 0.16709,-0.2068 -0.02664,0.099 -0.0521,0.1976 -0.07648,0.2974 0.05618,-0.07 0.111454,-0.138 0.167091,-0.2067 -0.02664,0.099 -0.0521,0.1975 -0.07648,0.2973 0.05618,-0.07 0.111454,-0.1379 0.167091,-0.2067 -0.02637,0.098 -0.05228,0.1982 -0.07648,0.2973 0.05537,-0.069 0.109461,-0.1361 0.164282,-0.2039 -0.02601,0.097 -0.05255,0.1939 -0.07647,0.2917 0.05727,-0.072 0.113267,-0.1394 0.1699,-0.2096 -0.02691,0.1 -0.05464,0.1995 -0.07928,0.3002 0.05618,-0.071 0.111453,-0.1379 0.167089,-0.2066 -0.02664,0.099 -0.0521,0.1974 -0.07648,0.2972 0.05618,-0.07 0.111455,-0.1378 0.167091,-0.2067 -0.02583,0.096 -0.04984,0.1921 -0.07367,0.2889 -2.24811,-0.7304 -3.956167,-1.5372 -4.737252,-1.9368 -0.43005,-0.22 -1.53118,-0.8552 -2.851503,-0.8552 -1.122606,0 -1.961501,0.5605 -2.05583,1.8204 0.705604,1.3637 1.626686,2.6016 2.718393,3.6698 l 0.01133,0.011 c 0.0071,0.01 0.01541,0.013 0.02266,0.02 0.0078,0.01 0.01477,0.017 0.02266,0.026 0.01514,0.015 0.03008,0.03 0.04531,0.046 0.02991,0.03 0.06044,0.061 0.09061,0.09 0.04096,0.042 0.08028,0.083 0.121784,0.1246 0.03108,0.031 0.06207,0.062 0.09342,0.093 0.04385,0.044 0.08871,0.087 0.13311,0.1303 l 0.01133,0.011 c 0.0071,0.01 0.0154,0.013 0.02265,0.02 0.0078,0.01 0.01477,0.017 0.02266,0.026 0.01514,0.015 0.03008,0.03 0.04531,0.046 0.02991,0.031 0.06044,0.06 0.09061,0.09 0.04087,0.042 0.08037,0.083 0.121784,0.1246 0.03008,0.031 0.06026,0.06 0.09061,0.09 0.04476,0.045 0.09061,0.088 0.13592,0.1331 l 0.01133,0.011 c 0.0071,0.01 0.0154,0.013 0.02266,0.02 0.09623,0.1004 0.192552,0.1997 0.291684,0.2973 0.01504,0.015 0.03017,0.03 0.04531,0.046 0.01142,0.011 0.02257,0.023 0.03398,0.034 0.04476,0.045 0.09061,0.089 0.135919,0.1331 l 0.01133,0.012 c 0.0071,0.01 0.0154,0.013 0.02266,0.02 0.0078,0.01 0.01477,0.017 0.02266,0.026 0.0015,0 0.0043,0 0.0058,0 0.02075,0.021 0.04141,0.042 0.06234,0.062 0.0074,0.01 0.01523,0.015 0.02266,0.023 0.01558,0.016 0.02963,0.033 0.04531,0.049 0.02991,0.03 0.06044,0.061 0.09061,0.09 0.04078,0.042 0.08046,0.084 0.121784,0.1245 0.03108,0.032 0.06207,0.062 0.09342,0.093 0.04385,0.044 0.08871,0.087 0.133111,0.1303 l 0.01133,0.011 c 0.0071,0.01 0.0154,0.013 0.02266,0.02 0.0078,0.01 0.01477,0.017 0.02266,0.026 0.01514,0.015 0.03008,0.03 0.04531,0.046 0.02991,0.03 0.06044,0.061 0.09061,0.09 0.04095,0.042 0.08028,0.083 0.121784,0.1245 0.03108,0.031 0.06207,0.062 0.09342,0.093 0.04385,0.044 0.08871,0.087 0.133111,0.1303 l 0.01133,0.011 c 0.0071,0.01 0.0154,0.013 0.02266,0.02 0.09623,0.1003 0.192553,0.1996 0.291684,0.2972 0.01504,0.015 0.03017,0.03 0.04531,0.046 0.01142,0.011 0.02257,0.023 0.03398,0.034 0.04476,0.045 0.09061,0.088 0.135919,0.1331 l 0.01133,0.011 c 0.0071,0.01 0.0154,0.013 0.02265,0.02 0.0078,0.01 0.01477,0.017 0.02266,0.026 0.0015,0 0.0043,0 0.0058,0 0.02075,0.021 0.04141,0.042 0.06234,0.062 0.0074,0.01 0.01523,0.015 0.02266,0.023 0.01558,0.016 0.02963,0.033 0.04531,0.048 0.0299,0.031 0.06044,0.061 0.09061,0.09 0.04078,0.042 0.08046,0.084 0.121784,0.1247 0.04477,0.045 0.09061,0.088 0.13592,0.1331 l 0.01133,0.011 c 0.0071,0.01 0.01541,0.013 0.02266,0.02 0.0078,0.01 0.01477,0.017 0.02266,0.026 0.0015,0 0.0043,0 0.0058,0 0.02075,0.021 0.04141,0.042 0.06234,0.062 0.0078,0.01 0.01477,0.017 0.02266,0.026 0.01514,0.015 0.03008,0.03 0.04531,0.046 0.0299,0.031 0.06044,0.061 0.09061,0.09 0.04096,0.042 0.08028,0.083 0.121783,0.1246 0.03108,0.032 0.06207,0.062 0.09343,0.093 0.04385,0.044 0.0887,0.086 0.133111,0.1304 l 0.01133,0.011 c 0.0071,0.01 0.0154,0.013 0.02266,0.02 0.0078,0.01 0.01477,0.017 0.02266,0.026 0.01514,0.015 0.03008,0.03 0.04531,0.046 0.0299,0.031 0.06044,0.061 0.09061,0.09 0.04087,0.042 0.08037,0.083 0.121784,0.1246 0.03008,0.031 0.06026,0.06 0.09061,0.09 0.04476,0.045 0.09061,0.088 0.13592,0.1331 l 0.01133,0.011 c 0.0071,0.01 0.0154,0.013 0.02266,0.02 0.09623,0.1004 0.192553,0.1997 0.291683,0.2973 0.01504,0.015 0.03017,0.031 0.04531,0.046 0.01142,0.011 0.02257,0.023 0.03398,0.034 0.04476,0.045 0.09061,0.088 0.13592,0.1331 l 0.01133,0.011 c 0.0071,0.01 0.0154,0.013 0.02266,0.02 0.0078,0.01 0.01477,0.017 0.02266,0.026 0.0015,0 0.0043,0 0.0058,0 0.02075,0.021 0.04141,0.042 0.06234,0.062 0.0074,0.01 0.01523,0.015 0.02266,0.023 0.01558,0.016 0.02963,0.033 0.04531,0.048 0.02991,0.031 0.06044,0.061 0.09061,0.09 0.04078,0.042 0.08046,0.084 0.121783,0.1247 0.03108,0.031 0.06207,0.062 0.09343,0.093 0.04385,0.044 0.08871,0.087 0.13311,0.1303 l 0.01133,0.011 c 0.0071,0.01 0.0154,0.013 0.02266,0.02 0.0078,0.01 0.01477,0.018 0.02266,0.026 0.01514,0.015 0.03008,0.03 0.04531,0.046 0.02991,0.031 0.06044,0.061 0.09061,0.09 0.04096,0.042 0.08028,0.083 0.121784,0.1246 0.03108,0.031 0.06207,0.062 0.09342,0.093 0.04385,0.044 0.08871,0.087 0.133111,0.1304 l 0.01133,0.011 c 0.0071,0.01 0.0154,0.013 0.02266,0.02 0.0078,0.01 0.01477,0.018 0.02266,0.026 0.01514,0.015 0.03008,0.03 0.04531,0.046 0.0299,0.031 0.06044,0.061 0.09061,0.09 0.04467,0.045 0.08789,0.091 0.133111,0.136 0.01504,0.015 0.03017,0.031 0.04531,0.046 0.01142,0.011 0.02257,0.023 0.03398,0.034 0.04476,0.045 0.09061,0.088 0.135919,0.1331 l 0.01133,0.011 c 0.0071,0.01 0.0154,0.013 0.02266,0.02 0.0078,0.01 0.01477,0.018 0.02266,0.026 0.0015,0 0.0043,0 0.0058,0 0.02075,0.021 0.04141,0.042 0.06234,0.062 0.0074,0.01 0.01523,0.015 0.02266,0.023 0.01558,0.016 0.02963,0.033 0.04531,0.049 0.02991,0.031 0.06044,0.061 0.09061,0.09 0.04078,0.042 0.08046,0.084 0.121784,0.1246 0.04476,0.045 0.09061,0.088 0.135919,0.1331 l 0.01133,0.011 c 0.0071,0.01 0.0154,0.013 0.02266,0.02 0.0078,0.01 0.01477,0.018 0.02266,0.026 0.0015,0 0.0043,0 0.0058,0 0.02075,0.021 0.04141,0.042 0.06234,0.062 0.0078,0.01 0.01477,0.017 0.02266,0.026 0.01514,0.015 0.03008,0.03 0.04531,0.046 0.02991,0.031 0.06044,0.06 0.09061,0.09 0.04095,0.042 0.08028,0.083 0.121783,0.1246 0.03108,0.031 0.06207,0.062 0.09343,0.093 0.04386,0.044 0.08872,0.086 0.13311,0.1302 l 0.01133,0.011 c 0.0071,0.01 0.0154,0.013 0.02265,0.02 0.0078,0.01 0.01477,0.018 0.02266,0.026 0.01514,0.015 0.03008,0.03 0.04531,0.046 0.02991,0.031 0.06044,0.061 0.09061,0.09 0.04087,0.042 0.08037,0.083 0.121784,0.1246 0.01694,0.017 0.03398,0.034 0.05101,0.051 0.402232,0.024 0.806456,0.04 1.214759,0.04 8.368119,0 15.525646,-5.1831 18.439764,-12.5128 -0.03035,0 -0.06026,-0.01 -0.09061,-0.01 0.0052,-0.028 0.01196,-0.054 0.01704,-0.082 -0.03616,0 -0.07159,-0.01 -0.107649,-0.01 0.0052,-0.028 0.01196,-0.055 0.01703,-0.082 -0.03525,0 -0.06968,-0.01 -0.104748,-0.01 0.0052,-0.028 0.0091,-0.055 0.01413,-0.082 -0.03525,0 -0.06968,-0.01 -0.104749,-0.01 0.0051,-0.027 0.01205,-0.053 0.01704,-0.079 -0.03579,0 -0.07195,-0.01 -0.107649,-0.01 0.0052,-0.028 0.01196,-0.055 0.01703,-0.082 -0.03579,0 -0.07194,-0.01 -0.107647,-0.01 0.0052,-0.028 0.01196,-0.055 0.01703,-0.082 -0.03616,0 -0.07158,-0.01 -0.107649,-0.01 0.0052,-0.028 0.01196,-0.055 0.01704,-0.082 -0.03616,0 -0.07159,-0.01 -0.107649,-0.01 0.0052,-0.028 0.01196,-0.055 0.01703,-0.082 -0.03525,0 -0.06968,-0.01 -0.104748,-0.01 0.0052,-0.028 0.0091,-0.054 0.01413,-0.082 -0.03525,0 -0.06968,-0.01 -0.10475,-0.01 0.0051,-0.027 0.01205,-0.053 0.01703,-0.079 -0.03579,0 -0.07194,-0.01 -0.107648,-0.01 0.0052,-0.028 0.01196,-0.055 0.01703,-0.082 -0.03579,0 -0.07194,-0.01 -0.107648,-0.01 0.0052,-0.028 0.01196,-0.055 0.01703,-0.082 -0.03579,0 -0.07195,-0.01 -0.107649,-0.01 0.0052,-0.028 0.01196,-0.054 0.01704,-0.082 -0.03615,0 -0.07158,-0.01 -0.107648,-0.01 0.0052,-0.028 0.01196,-0.055 0.01703,-0.082 -0.03525,0 -0.06968,-0.01 -0.104749,-0.01 0.0052,-0.028 0.0091,-0.054 0.01414,-0.082 -0.03525,0 -0.06968,-0.01 -0.104749,-0.01 0.0051,-0.027 0.01205,-0.053 0.01704,-0.079 -0.03579,0 -0.07195,-0.01 -0.107648,-0.01 0.0052,-0.028 0.01196,-0.055 0.01703,-0.082 -0.03579,0 -0.07194,-0.01 -0.107649,-0.01 0.0026,-0.013 0.006,-0.027 0.0085,-0.04 0.75227,0.078 1.434586,0.1821 2.067156,0.3143 0.606291,-1.8924 0.937029,-3.9082 0.942919,-6.0004 -0.0048,0 -0.0094,-0.01 -0.01413,-0.014 -0.02474,-0.025 -0.05147,-0.049 -0.07648,-0.073 -0.0028,0 -0.0058,-0.01 -0.0085,-0.01 -5.44e-4,-9e-4 5.44e-4,0 0,0 -0.0019,0 -0.0037,0 -0.0058,-0.01 -0.02419,-0.024 -0.0493,-0.047 -0.07367,-0.07 l -0.0028,0 c -0.0024,0 -0.0033,-0.01 -0.0058,-0.01 -0.0029,0 -0.0057,-0.01 -0.0085,-0.01 -0.0061,-0.01 -0.01369,-0.011 -0.01985,-0.017 -0.01168,-0.011 -0.02229,-0.023 -0.03398,-0.034 -0.0067,-0.01 -0.01314,-0.013 -0.01985,-0.02 -5.43e-4,-9e-4 5.44e-4,0 0,0 -0.0029,0 -0.0057,-0.01 -0.0085,-0.01 -0.0029,0 -0.0057,-0.01 -0.0085,-0.01 -0.0053,-0.01 -0.01178,-0.01 -0.01704,-0.014 -0.01251,-0.012 -0.02428,-0.025 -0.03679,-0.037 -0.0067,-0.01 -0.01314,-0.013 -0.01985,-0.02 -5.44e-4,-9e-4 5.44e-4,0 0,0 -0.0029,0 -0.0057,-0.01 -0.0085,-0.01 -0.0029,0 -0.0057,-0.01 -0.0085,-0.01 l -0.02836,-0.029 c -0.05002,-0.051 -0.09931,-0.103 -0.150055,-0.153 -0.02963,-0.03 -0.06071,-0.059 -0.09061,-0.088 -0.02401,-0.024 -0.04948,-0.047 -0.07367,-0.07 -5.44e-4,-9e-4 5.44e-4,0 0,0 -9.92e-4,-9e-4 -0.0019,0 -0.0028,0 -0.0048,0 -0.0094,-0.01 -0.01414,-0.014 -0.02419,-0.024 -0.0493,-0.047 -0.07367,-0.07 -0.0033,0 -0.0053,-0.01 -0.0085,-0.011 -0.0029,0 -0.0057,-0.01 -0.0085,-0.01 -0.02419,-0.024 -0.0493,-0.047 -0.07367,-0.071 -5.43e-4,-10e-4 5.44e-4,0 0,0 -0.0029,0 -0.0057,-0.01 -0.0085,-0.01 -0.0029,0 -0.0057,-0.01 -0.0085,-0.01 l -0.02836,-0.029 c -0.05002,-0.051 -0.09931,-0.103 -0.150055,-0.153 -0.02963,-0.03 -0.06071,-0.058 -0.09061,-0.088 -0.02492,-0.025 -0.05129,-0.049 -0.07648,-0.073 -9.05e-4,0 -0.0019,0 -0.0028,0 l -0.0028,0 c -0.0034,0 -0.0052,-0.01 -0.0085,-0.011 -0.02419,-0.024 -0.0493,-0.047 -0.07367,-0.07 -0.0033,0 -0.0053,-0.01 -0.0085,-0.011 -0.0029,0 -0.0057,-0.01 -0.0085,-0.01 -0.02419,-0.024 -0.0493,-0.047 -0.07367,-0.07 -5.44e-4,-9e-4 5.43e-4,0 0,0 -0.0029,0 -0.0057,-0.01 -0.0085,-0.01 -0.0029,0 -0.0057,-0.01 -0.0085,-0.01 l -0.02836,-0.029 c -0.05002,-0.051 -0.09931,-0.1031 -0.150055,-0.1529 -0.02963,-0.03 -0.06071,-0.059 -0.09061,-0.088 -0.02474,-0.025 -0.05147,-0.049 -0.07648,-0.073 -0.0028,0 -0.0058,-0.01 -0.0085,-0.01 -5.43e-4,-9e-4 5.44e-4,0 0,0 -0.0019,0 -0.0037,0 -0.0058,-0.01 -0.02419,-0.024 -0.0493,-0.047 -0.07367,-0.07 l -0.0028,0 c -0.0024,0 -0.0033,-0.01 -0.0058,-0.01 -0.0029,0 -0.0057,-0.01 -0.0085,-0.01 -0.0061,-0.01 -0.01368,-0.011 -0.01985,-0.017 -0.0117,-0.011 -0.02229,-0.023 -0.03398,-0.034 -0.0067,-0.01 -0.01314,-0.013 -0.01985,-0.02 -5.44e-4,-9e-4 5.43e-4,0 0,0 -0.0029,0 -0.0057,-0.01 -0.0085,-0.01 -0.0029,0 -0.0057,-0.01 -0.0085,-0.01 -0.0053,-0.01 -0.01178,-0.01 -0.01703,-0.014 -0.01251,-0.012 -0.02428,-0.025 -0.03679,-0.037 -0.0067,-0.01 -0.01314,-0.013 -0.01985,-0.02 -5.44e-4,-10e-4 5.43e-4,0 0,0 -0.0029,0 -0.0057,-0.01 -0.0085,-0.01 -0.0029,0 -0.0057,-0.01 -0.0085,-0.01 l -0.02836,-0.028 c -0.05002,-0.051 -0.09931,-0.1031 -0.150055,-0.153 -0.02963,-0.03 -0.06071,-0.059 -0.09061,-0.088 -0.02401,-0.024 -0.04948,-0.047 -0.07367,-0.07 -5.44e-4,-9e-4 5.44e-4,0 0,0 -9.92e-4,0 -0.0019,0 -0.0028,0 -0.0047,0 -0.0094,-0.01 -0.01413,-0.014 -0.02419,-0.024 -0.0493,-0.047 -0.07367,-0.07 -0.0033,0 -0.0053,-0.01 -0.0085,-0.011 -0.0029,0 -0.0057,-0.01 -0.0085,-0.01 -0.02419,-0.024 -0.0493,-0.047 -0.07367,-0.07 -5.43e-4,-9e-4 5.44e-4,0 0,0 -0.0029,0 -0.0057,-0.01 -0.0085,-0.01 -0.0029,0 -0.0057,-0.01 -0.0085,-0.01 l -0.02836,-0.029 c -0.05002,-0.051 -0.09931,-0.1031 -0.150055,-0.153 -0.02963,-0.03 -0.06071,-0.058 -0.09061,-0.088 -0.0062,-0.01 -0.01368,-0.011 -0.01985,-0.017 -0.0096,-0.01 -0.01867,-0.019 -0.02836,-0.029 -0.0018,0 -0.0038,0 -0.0058,-0.01 -0.0015,0 -0.0015,0 -0.0028,-0.01 -0.0048,0 -0.0094,-0.01 -0.01413,-0.014 l -0.0028,0 c -0.0056,-0.01 -0.01142,-0.011 -0.01704,-0.017 l -0.01703,-0.017 c -0.01803,-0.019 -0.03851,-0.035 -0.05664,-0.054 -0.0033,0 -0.0053,-0.01 -0.0085,-0.012 -0.0029,0 -0.0057,-0.01 -0.0085,-0.01 -0.02419,-0.024 -0.0493,-0.047 -0.07367,-0.071 -5.44e-4,-8e-4 5.43e-4,0 0,0 -0.0029,0 -0.0057,-0.01 -0.0085,-0.01 -0.0029,0 -0.0057,-0.01 -0.0085,-0.01 l -0.02836,-0.029 c -0.05002,-0.051 -0.09931,-0.103 -0.150055,-0.1529 -0.02963,-0.03 -0.06071,-0.058 -0.09061,-0.087 -0.02474,-0.025 -0.05147,-0.049 -0.07648,-0.073 -0.0028,0 -0.0058,-0.01 -0.0085,-0.01 -5.43e-4,-9e-4 5.44e-4,0 0,0 -0.0019,0 -0.0037,0 -0.0058,-0.01 -0.02419,-0.024 -0.0493,-0.047 -0.07367,-0.071 l -0.0028,0 c -0.0024,0 -0.0033,-0.01 -0.0058,-0.01 -0.0029,0 -0.0057,-0.01 -0.0085,-0.01 -0.0061,-0.01 -0.01368,-0.011 -0.01985,-0.017 -0.0117,-0.011 -0.02229,-0.023 -0.03398,-0.034 -0.0067,-0.01 -0.01314,-0.013 -0.01985,-0.02 -5.44e-4,-10e-4 5.43e-4,0 0,0 -0.0029,0 -0.0057,-0.01 -0.0085,-0.01 -0.0029,0 -0.0057,-0.01 -0.0085,-0.01 l -0.02836,-0.029 c -0.05002,-0.051 -0.09931,-0.1031 -0.150055,-0.1531 -0.02963,-0.03 -0.06071,-0.059 -0.09061,-0.088 -0.02474,-0.025 -0.05147,-0.049 -0.07648,-0.073 -0.0028,0 -0.0058,-0.01 -0.0085,-0.01 -5.43e-4,-9e-4 5.44e-4,0 0,0 -0.0019,0 -0.0037,0 -0.0058,-0.01 -0.02419,-0.024 -0.0493,-0.047 -0.07367,-0.07 l -0.0028,0 c -0.0024,0 -0.0033,-0.01 -0.0058,-0.01 -0.0029,0 -0.0057,-0.01 -0.0085,-0.01 -0.0061,-0.01 -0.01369,-0.011 -0.01985,-0.017 -0.01168,-0.011 -0.02229,-0.023 -0.03398,-0.034 -0.0067,-0.01 -0.01314,-0.013 -0.01985,-0.02 -5.44e-4,-9e-4 5.44e-4,0 0,0 -0.0029,0 -0.0057,-0.01 -0.0085,-0.01 -0.0029,0 -0.0057,-0.01 -0.0085,-0.01 -0.0053,-0.01 -0.01178,-0.01 -0.01703,-0.014 -0.01251,-0.012 -0.02428,-0.025 -0.03679,-0.037 -0.0067,-0.01 -0.01314,-0.013 -0.01985,-0.02 -5.44e-4,-9e-4 5.43e-4,0 0,0 -0.0029,0 -0.0057,-0.01 -0.0085,-0.01 -0.0029,0 -0.0057,-0.01 -0.0085,-0.01 l -0.02836,-0.029 c -0.05002,-0.051 -0.09931,-0.103 -0.150056,-0.153 -0.02963,-0.03 -0.06071,-0.058 -0.09061,-0.088 -0.02401,-0.024 -0.04948,-0.047 -0.07367,-0.07 -5.44e-4,-0 5.44e-4,0 0,0 -9.92e-4,-9e-4 -0.0019,0 -0.0028,0 -0.0048,0 -0.0094,-0.01 -0.01414,-0.014 -0.02419,-0.024 -0.0493,-0.047 -0.07367,-0.07 -0.0033,0 -0.0053,-0.01 -0.0085,-0.011 -0.0029,0 -0.0057,-0.01 -0.0085,-0.01 -0.02419,-0.024 -0.0493,-0.047 -0.07367,-0.071 -5.44e-4,-9e-4 5.44e-4,0 0,0 -0.0029,0 -0.0057,-0.01 -0.0085,-0.01 -0.0029,0 -0.0057,-0.01 -0.0085,-0.01 l -0.02836,-0.029 c -0.05002,-0.051 -0.09931,-0.1029 -0.150055,-0.1529 -0.02963,-0.03 -0.06071,-0.059 -0.09061,-0.088 -0.02492,-0.025 -0.05129,-0.049 -0.07648,-0.073 -9.06e-4,0 -0.0019,0 -0.0028,0 l -0.0028,0 c -0.0034,0 -0.0052,-0.01 -0.0085,-0.011 -0.02419,-0.024 -0.0493,-0.047 -0.07367,-0.07 -0.0033,0 -0.0053,-0.01 -0.0085,-0.011 -0.0029,0 -0.0057,-0.01 -0.0085,-0.01 -0.02419,-0.024 -0.0493,-0.047 -0.07367,-0.07 -5.44e-4,-9e-4 5.43e-4,0 0,0 -0.0029,0 -0.0057,-0.01 -0.0085,-0.01 -0.0029,0 -0.0057,-0.01 -0.0085,-0.01 l -0.02836,-0.029 c -0.05002,-0.051 -0.09931,-0.103 -0.150055,-0.1529 -0.02963,-0.03 -0.06071,-0.059 -0.09061,-0.088 -0.02474,-0.025 -0.05147,-0.049 -0.07647,-0.073 -0.0028,0 -0.0058,-0.01 -0.0085,-0.01 -5.43e-4,-9e-4 5.44e-4,0 0,0 -0.0019,0 -0.0037,0 -0.0058,-0.01 -0.02419,-0.024 -0.0493,-0.047 -0.07367,-0.07 l -0.0028,0 c -0.0024,0 -0.0033,-0.01 -0.0058,-0.01 -0.0029,0 -0.0057,-0.01 -0.0085,-0.01 -0.0061,-0.01 -0.01368,-0.011 -0.01985,-0.017 -0.01168,-0.011 -0.02229,-0.023 -0.03398,-0.034 -0.0067,-0.01 -0.01314,-0.013 -0.01985,-0.02 -5.44e-4,-9e-4 5.43e-4,0 0,0 -0.0029,0 -0.0057,-0.01 -0.0085,-0.01 -0.0029,0 -0.0057,-0.01 -0.0085,-0.01 -0.0053,-0.01 -0.01178,-0.01 -0.01703,-0.014 -0.01251,-0.012 -0.02428,-0.025 -0.03679,-0.037 -0.0067,-0.01 -0.01314,-0.013 -0.01985,-0.02 -5.44e-4,0 5.43e-4,0 0,0 -0.0029,0 -0.0057,-0.01 -0.0085,-0.01 -0.0029,0 -0.0057,-0.01 -0.0085,-0.01 l -0.02836,-0.028 c -0.04957,-0.051 -0.09977,-0.1007 -0.150055,-0.1501 -0.02474,-0.025 -0.05147,-0.05 -0.07648,-0.073 -0.0028,0 -0.0058,-0.01 -0.0085,-0.01 -5.43e-4,-9e-4 5.45e-4,0 0,0 -0.0019,0 -0.0037,0 -0.0058,-0.01 -0.02401,-0.024 -0.04948,-0.047 -0.07367,-0.07 -0.0015,0 -0.0015,0 -0.0028,-0.01 -0.0048,0 -0.0094,-0.01 -0.01414,-0.014 -0.02419,-0.024 -0.0493,-0.047 -0.07367,-0.07 -0.0033,0 -0.0053,-0.01 -0.0085,-0.011 -0.0029,0 -0.0057,-0.01 -0.0085,-0.01 -0.02419,-0.024 -0.0493,-0.047 -0.07367,-0.07 -5.44e-4,-9e-4 5.43e-4,0 0,0 -0.0029,0 -0.0057,-0.01 -0.0085,-0.01 -0.0029,0 -0.0057,-0.01 -0.0085,-0.01 l -0.02836,-0.029 c -0.05002,-0.051 -0.09931,-0.1031 -0.150056,-0.153 -0.02963,-0.03 -0.06071,-0.058 -0.09061,-0.088 -0.02401,-0.024 -0.04948,-0.047 -0.07367,-0.07 -5.44e-4,-9e-4 5.43e-4,0 0,0 -9.92e-4,-9e-4 -0.0019,0 -0.0028,0 -0.0048,0 -0.0094,-0.01 -0.01413,-0.014 -0.02419,-0.024 -0.0493,-0.047 -0.07367,-0.07 -0.0033,0 -0.0053,-0.01 -0.0085,-0.011 -0.0029,0 -0.0057,-0.01 -0.0085,-0.01 -0.02419,-0.024 -0.0493,-0.047 -0.07367,-0.071 -5.44e-4,-9e-4 5.44e-4,0 0,0 -0.0029,0 -0.0057,-0.01 -0.0085,-0.01 -0.0029,0 -0.0057,-0.01 -0.0085,-0.01 l -0.02836,-0.029 c -0.05002,-0.051 -0.09931,-0.103 -0.150055,-0.1529 -0.02963,-0.03 -0.06071,-0.059 -0.09061,-0.087 -0.02474,-0.025 -0.05147,-0.05 -0.07648,-0.073 -0.0028,0 -0.0058,-0.01 -0.0085,-0.01 -5.44e-4,-9e-4 5.43e-4,0 0,0 -0.0019,0 -0.0037,0 -0.0058,-0.01 -0.02419,-0.024 -0.0493,-0.047 -0.07367,-0.071 l -0.0028,0 c -0.0024,0 -0.0033,-0.01 -0.0058,-0.01 -0.0029,0 -0.0057,-0.01 -0.0085,-0.01 -0.0061,-0.01 -0.01368,-0.011 -0.01985,-0.017 -0.01169,-0.011 -0.02229,-0.023 -0.03398,-0.034 -0.0067,-0.01 -0.01314,-0.013 -0.01985,-0.02 -5.43e-4,-9e-4 5.44e-4,0 0,0 -0.0029,0 -0.0057,-0.01 -0.0085,-0.01 -0.0029,0 -0.0057,-0.01 -0.0085,-0.01 l -0.02836,-0.029 c -0.05002,-0.051 -0.09931,-0.103 -0.150055,-0.153 -0.02963,-0.03 -0.06071,-0.059 -0.09061,-0.088 -0.02474,-0.025 -0.05147,-0.049 -0.07648,-0.073 -0.0028,0 -0.0058,-0.01 -0.0085,-0.01 -5.44e-4,-9e-4 5.43e-4,0 0,0 -0.0019,0 -0.0037,0 -0.0058,-0.01 -0.02419,-0.024 -0.0493,-0.047 -0.07367,-0.07 l -0.0028,0 c -0.0024,0 -0.0033,-0.01 -0.0058,-0.01 -0.0029,0 -0.0057,-0.01 -0.0085,-0.01 -0.0061,-0.01 -0.01368,-0.011 -0.01985,-0.017 -0.01168,-0.011 -0.02229,-0.023 -0.03398,-0.034 -0.0067,-0.01 -0.01314,-0.013 -0.01985,-0.02 -5.44e-4,-10e-4 5.44e-4,0 0,0 -0.0029,0 -0.0057,-0.01 -0.0085,-0.01 -0.0029,0 -0.0057,-0.01 -0.0085,-0.01 -0.0053,-0.01 -0.01178,-0.01 -0.01703,-0.014 -0.01251,-0.012 -0.02428,-0.025 -0.03679,-0.037 -0.0067,-0.01 -0.01314,-0.013 -0.01985,-0.02 -5.43e-4,-9e-4 5.44e-4,0 0,0 -0.0029,0 -0.0057,-0.01 -0.0085,-0.01 -0.0029,0 -0.0057,-0.01 -0.0085,-0.01 l -0.02836,-0.029 c -0.05002,-0.05 -0.09931,-0.103 -0.150055,-0.1529 -0.02963,-0.03 -0.06071,-0.059 -0.09061,-0.088 -0.02401,-0.024 -0.04948,-0.047 -0.07367,-0.07 -5.43e-4,-9e-4 5.44e-4,0 0,0 -9.91e-4,-9e-4 -0.0019,0 -0.0028,0 -0.0048,0 -0.0094,-0.01 -0.01413,-0.014 -0.02419,-0.024 -0.0493,-0.047 -0.07367,-0.07 -0.0033,0 -0.0053,-0.01 -0.0085,-0.011 -0.0029,0 -0.0057,-0.01 -0.0085,-0.01 -0.02419,-0.024 -0.0493,-0.047 -0.07367,-0.07 -5.44e-4,-9e-4 5.43e-4,0 0,0 -0.0029,0 -0.0057,-0.01 -0.0085,-0.01 -0.0029,0 -0.0057,-0.01 -0.0085,-0.01 l -0.02836,-0.029 c -0.05002,-0.051 -0.09931,-0.103 -0.150056,-0.1529 -0.02963,-0.03 -0.06071,-0.058 -0.09061,-0.088 -0.0061,-0.01 -0.01368,-0.011 -0.01985,-0.017 -0.0086,-0.01 -0.01685,-0.017 -0.02546,-0.026 -0.007,-0.01 -0.01269,-0.016 -0.01985,-0.023 -0.0086,-0.01 -0.01685,-0.017 -0.02546,-0.026 -0.03035,-0.031 -0.05999,-0.061 -0.09061,-0.09 -2.635029,-2.6332 -6.296703,-4.2671 -10.347108,-4.2671 m 6.224213,12.2954 c 0.105655,0 0.205148,0.01 0.308627,0.01 -0.07032,0.025 -0.139725,0.051 -0.209587,0.076 -0.0328,-0.028 -0.06606,-0.057 -0.09913,-0.085 m 0.107648,0.09 c 0.100672,0 0.195815,0 0.294493,0.01 -0.06751,0.024 -0.134017,0.049 -0.20107,0.073 -0.03063,-0.026 -0.06262,-0.053 -0.09343,-0.079 m 0.104749,0.09 c 0.09478,0 0.184488,0 0.277548,0.01 -0.06407,0.023 -0.128943,0.045 -0.192553,0.068 -0.02791,-0.024 -0.05691,-0.05 -0.085,-0.073 m 0.104748,0.088 c 0.09152,0 0.179143,0.01 0.269031,0.01 -0.06207,0.022 -0.125227,0.043 -0.186935,0.065 -0.02728,-0.023 -0.05473,-0.051 -0.0821,-0.073 m 0.104749,0.093 c 0.0859,0 0.167543,0 0.251995,0.01 -0.05763,0.021 -0.115442,0.042 -0.172709,0.062 -0.027,-0.023 -0.0521,-0.045 -0.07928,-0.068 m 0.107648,0.09 c 0.07811,0 0.152501,0 0.229341,0.01 -0.05183,0.019 -0.104204,0.038 -0.155763,0.057 -0.02483,-0.021 -0.04866,-0.042 -0.07367,-0.062 m 0.107648,0.09 c 0.07131,0 0.139273,0 0.209588,0.01 -0.04739,0.017 -0.09433,0.034 -0.141628,0.051 -0.02266,-0.019 -0.04521,-0.038 -0.06795,-0.056 m 0.107649,0.09 c 0.06633,0 0.129848,0 0.195362,0 -0.04494,0.016 -0.08835,0.035 -0.133111,0.051 -0.02093,-0.018 -0.04132,-0.036 -0.06234,-0.054 m 0.107647,0.09 c 0.06153,0 0.120516,0 0.181227,0 -0.04096,0.015 -0.08101,0.031 -0.121784,0.046 -0.0193,-0.016 -0.04005,-0.032 -0.05945,-0.049 m 0.110458,0.09 c 0.05373,0 0.105383,0 0.158573,0 -0.03598,0.013 -0.07176,0.027 -0.107648,0.04 -0.01667,-0.014 -0.03425,-0.029 -0.05101,-0.043 m 0.104749,0.09 c 0.04884,10e-4 0.09605,0 0.144438,0 -0.03199,0.012 -0.06433,0.023 -0.09632,0.034 -0.01514,-0.013 -0.03298,-0.024 -0.04812,-0.037 m 0.110457,0.09 c 0.04304,9e-4 0.08473,0 0.127402,0 -0.02918,0.01 -0.05863,0.021 -0.0878,0.031 -0.01369,-0.011 -0.02592,-0.023 -0.03969,-0.034 m 0.110458,0.09 c 0.03344,9e-4 0.06587,0 0.09913,0 -0.02202,0.01 -0.04313,0.018 -0.06515,0.026 -0.01151,-0.01 -0.02238,-0.019 -0.03398,-0.029 m 0.110456,0.09 c 0.02772,9e-4 0.05454,0 0.0821,0 -0.01803,0.01 -0.03579,0.013 -0.05382,0.02 -0.0094,-0.01 -0.01893,-0.015 -0.02836,-0.023 m 0.110457,0.09 c 0.02093,9e-4 0.04141,0 0.06234,0 -0.0144,0.01 -0.02809,0.012 -0.04249,0.017 -0.0067,-0.01 -0.01304,-0.012 -0.01985,-0.017 m 0.113267,0.09 c 0.01332,0 0.02637,0 0.03969,0 -0.0095,0 -0.01876,0.01 -0.02836,0.011 -0.0041,0 -0.0072,-0.01 -0.01133,-0.011 m 0.110456,0.09 c 0.0066,0 0.01314,0 0.01985,0 -0.0048,0 -0.0094,0 -0.01413,0.01 -0.002,0 -0.0037,0 -0.0058,-0.01 m -11.108259,7.8235 c -0.02075,0.077 -0.04005,0.1545 -0.05944,0.2322 -0.03425,-0.011 -0.06796,-0.023 -0.10194,-0.034 0.05401,-0.068 0.10792,-0.132 0.161381,-0.1983 m 0.09061,0.09 c -0.01558,0.058 -0.03045,0.1173 -0.04531,0.1757 -0.02583,-0.01 -0.05074,-0.017 -0.07647,-0.026 0.04078,-0.052 0.08136,-0.1 0.121784,-0.1501 m 0.0878,0.093 c -0.01006,0.038 -0.01858,0.075 -0.02836,0.1133 -0.01658,-0.01 -0.03443,-0.01 -0.05101,-0.014 0.02673,-0.034 0.05274,-0.066 0.07928,-0.099 m 0.09342,0.082 c -0.0058,0.022 -0.01124,0.044 -0.01703,0.065 -0.0093,0 -0.01902,-0.01 -0.02836,-0.01 0.01531,-0.019 0.03008,-0.038 0.04531,-0.057 m 0.09061,0.088 c -8.16e-4,0 -0.0021,0.01 -0.0028,0.01 -8.15e-4,0 -0.002,0 -0.0028,0 0.0021,0 0.0036,-0.01 0.0058,-0.01"
       style="color:#000000;fill-opacity:0.23500001;fill-rule:evenodd"
       id="path8" />
    <path
       inkscape:connector-curvature="0"
       id="path66"
       d="m 24.01915,1014.7086 c -1.813168,0 -3.542972,0.3359 -5.144468,0.9336 4.40724,0.076 6.89475,0.5267 9.151016,1.7427 0.188022,0.1012 0.37532,0.2068 0.561076,0.319 0.55727,0.3364 1.11146,0.7246 1.683229,1.1668 2.464676,1.9065 2.679881,4.2258 4.773044,5.9977 1.274021,1.079 1.101855,0.988 1.691112,0.988 0.644893,0 0.973275,-0.5738 1.130037,-1.1981 -1.876598,-5.7683 -7.365032,-9.9502 -13.844775,-9.9502 m -5.831858,2.6296 c -0.308176,0 -0.615263,0.033 -0.916642,0.093 -0.10049,0.02 -0.200799,0.044 -0.300292,0.07 -2.786353,0.7349 -5.170383,3.7609 -5.950561,5.1501 -0.04957,0.088 -0.105836,0.1922 -0.15803,0.2879 -0.414102,0.8657 -0.747557,1.773 -0.979889,2.7229 0.223089,-0.281 0.440198,-0.5446 0.655857,-0.7935 1.509795,-1.7414 2.891373,-2.684 4.875709,-2.684 3.540253,0 3.990601,1.5532 10.478498,5.7177 3.193205,2.0499 8.038287,4.8767 12.03523,5.2981 0.16392,-0.5291 0.293858,-1.0727 0.395163,-1.6259 -1.495296,-0.1063 -2.84226,-0.6674 -4.298684,-1.6181 -0.208048,-0.1359 -0.418904,-0.2763 -0.632207,-0.428 -1.706064,-1.2133 -3.602233,-2.9285 -6.068994,-5.0567 -1.878228,-1.6201 -6.60225,-7.134 -9.134705,-7.134 m -5.073336,16.3448 c -1.122605,0 -1.960324,0.5602 -2.054651,1.8204 1.573858,3.0419 4.217041,5.455 7.443864,6.7607 -0.04277,-0.059 -0.08337,-0.121 -0.126405,-0.1868 -0.301379,-0.46 -0.592701,-1.0822 -0.592701,-1.7971 0,-0.8316 0.546397,-1.1591 1.161661,-1.1591 0.819142,0 3.524758,1.268 8.052785,1.268 2.264693,0 5.089737,-0.3265 7.159339,-1.1124 0.817331,-0.7835 1.536527,-1.6607 2.149434,-2.6139 -1.32277,0.5279 -3.768779,1.2914 -6.953648,1.2914 -6.153535,0 -11.765203,-2.5858 -13.386272,-3.4153 -0.43005,-0.2201 -1.532448,-0.8558 -2.852772,-0.8558"
       style="color:#000000;fill:#ffffff;fill-rule:evenodd" />
  </g>
</svg>
