<?xml version="1.0" encoding="UTF-8" standalone="no"?>
<!-- Created with Inkscape (http://www.inkscape.org/) -->

<svg
   xmlns:dc="http://purl.org/dc/elements/1.1/"
   xmlns:cc="http://creativecommons.org/ns#"
   xmlns:rdf="http://www.w3.org/1999/02/22-rdf-syntax-ns#"
   xmlns:svg="http://www.w3.org/2000/svg"
   xmlns="http://www.w3.org/2000/svg"
   xmlns:sodipodi="http://sodipodi.sourceforge.net/DTD/sodipodi-0.dtd"
   xmlns:inkscape="http://www.inkscape.org/namespaces/inkscape"
   width="48"
   height="48"
   id="svg2"
   version="1.1"
   inkscape:version="0.48.5 r10040"
   viewBox="0 0 13.546667 13.546667"
   sodipodi:docname="gtk3-widget-factory.svg">
  <defs
     id="defs4">
    <clipPath
       id="clipPath-001394911">
      <g
         transform="translate(0,-1004.3622)"
         id="g17">
        <path
           style="fill:#1890d0"
           inkscape:connector-curvature="0"
           d="m -24,13 c 0,1.105 -0.672,2 -1.5,2 -0.828,0 -1.5,-0.895 -1.5,-2 0,-1.105 0.672,-2 1.5,-2 0.828,0 1.5,0.895 1.5,2 z"
           transform="matrix(15.333333,0,0,11.5,414.99999,878.8622)"
           id="path19" />
      </g>
    </clipPath>
  </defs>
  <sodipodi:namedview
     id="base"
     pagecolor="#ffffff"
     bordercolor="#666666"
     borderopacity="1.0"
     inkscape:pageopacity="0.0"
     inkscape:pageshadow="2"
     inkscape:zoom="16.200542"
     inkscape:cx="27.623893"
     inkscape:cy="24.433191"
     inkscape:document-units="px"
     inkscape:current-layer="layer1"
     showgrid="false"
     units="px"
     borderlayer="true"
     inkscape:showpageshadow="false"
     inkscape:window-width="1920"
     inkscape:window-height="1025"
     inkscape:window-x="-4"
     inkscape:window-y="39"
     inkscape:window-maximized="1">
    <sodipodi:guide
       position="8.9999996,38.999975"
       orientation="30.000028,0"
       id="guide3274" />
    <sodipodi:guide
       position="8.9999996,8.9999467"
       orientation="0,30.000001"
       id="guide3276" />
    <sodipodi:guide
       position="39.000001,8.9999467"
       orientation="-30.000028,0"
       id="guide3278" />
    <sodipodi:guide
       position="39.000001,38.999975"
       orientation="0,-30.000001"
       id="guide3280" />
  </sodipodi:namedview>
  <metadata
     id="metadata7">
    <rdf:RDF>
      <cc:Work
         rdf:about="">
        <dc:format>image/svg+xml</dc:format>
        <dc:type
           rdf:resource="http://purl.org/dc/dcmitype/StillImage" />
        <dc:title />
      </cc:Work>
    </rdf:RDF>
  </metadata>
  <g
     inkscape:label="Capa 1"
     inkscape:groupmode="layer"
     id="layer1"
     transform="translate(0,-283.45334)">
    <rect
       ry="5.6444449"
       y="284.58221"
       x="1.1288886"
       height="11.28889"
       width="11.28889"
       id="rect3282"
       style="fill:#34495e;fill-opacity:1;fill-rule:evenodd;stroke:none" />
    <g
       transform="matrix(0.28222223,0,0,0.28222223,0.1411111,283.45334)"
       id="g47"
       style="fill:#add8e6">
      <g
         clip-path="url(#clipPath-001394911)"
         id="g49"
         style="fill:#add8e6">
        <!-- color: #7fc82a -->
        <g
           id="g51"
           style="fill:#add8e6">
          <path
             style="fill:#add8e6;fill-opacity:1;fill-rule:nonzero;stroke:none"
             inkscape:connector-curvature="0"
             d="m 12,17 0,7 c 0,0 5,-3.469 5,2.5 0,5.992 -5,2.5 -5,2.5 l 0,7 7,0 c 0,0 -2.395,-5 3,-5 5.523,0 3,5 3,5 l 7,0 0,-7 c 0,0 4,2.504 4,-2.5 0,-4 -2,-3.5 -4,-2.5 l 0,-7 -7,0 c 0,0 3,-5 -3,-5 -6,0 -3,5 -3,5 m -7,0"
             id="path53" />
        </g>
      </g>
    </g>
  </g>
</svg>
