<?xml version="1.0" encoding="UTF-8" standalone="no"?>
<!-- Created with Inkscape (http://www.inkscape.org/) -->

<svg
   xmlns:dc="http://purl.org/dc/elements/1.1/"
   xmlns:cc="http://creativecommons.org/ns#"
   xmlns:rdf="http://www.w3.org/1999/02/22-rdf-syntax-ns#"
   xmlns:svg="http://www.w3.org/2000/svg"
   xmlns="http://www.w3.org/2000/svg"
   xmlns:xlink="http://www.w3.org/1999/xlink"
   xmlns:sodipodi="http://sodipodi.sourceforge.net/DTD/sodipodi-0.dtd"
   xmlns:inkscape="http://www.inkscape.org/namespaces/inkscape"
   width="48"
   height="48"
   id="svg2"
   version="1.1"
   inkscape:version="0.48.5 r10040"
   sodipodi:docname="gtk3-icon-browser.svg">
  <defs
     id="defs4">
    <linearGradient
       id="linearGradient4249"
       inkscape:collect="always">
      <stop
         id="stop4251"
         offset="0"
         style="stop-color:#79a8ca;stop-opacity:1" />
      <stop
         id="stop4253"
         offset="1"
         style="stop-color:#9ecbda;stop-opacity:1" />
    </linearGradient>
    <linearGradient
       gradientTransform="matrix(0.95,0,0,0.95,-183.90625,216.2044)"
       gradientUnits="userSpaceOnUse"
       y2="502.798"
       x2="409.57144"
       y1="543.79797"
       x1="409.57144"
       id="linearGradient4161"
       xlink:href="#linearGradient4249"
       inkscape:collect="always" />
  </defs>
  <sodipodi:namedview
     id="base"
     pagecolor="#ffffff"
     bordercolor="#666666"
     borderopacity="1.0"
     inkscape:pageopacity="0.0"
     inkscape:pageshadow="2"
     inkscape:zoom="6.9597238"
     inkscape:cx="9.7115513"
     inkscape:cy="19.61293"
     inkscape:document-units="px"
     inkscape:current-layer="layer1"
     showgrid="true"
     fit-margin-top="0"
     fit-margin-left="0"
     fit-margin-right="0"
     fit-margin-bottom="0"
     inkscape:window-width="1920"
     inkscape:window-height="1025"
     inkscape:window-x="-4"
     inkscape:window-y="39"
     inkscape:window-maximized="1"
     inkscape:showpageshadow="false"
     borderlayer="true">
    <inkscape:grid
       type="xygrid"
       id="grid4178" />
    <sodipodi:guide
       position="-7.2167969e-06,48"
       orientation="48,0"
       id="guide4183" />
    <sodipodi:guide
       position="-7.2167969e-06,0"
       orientation="0,48"
       id="guide4185" />
    <sodipodi:guide
       position="47.999993,0"
       orientation="-48,0"
       id="guide4187" />
    <sodipodi:guide
       position="47.999993,48"
       orientation="0,-48"
       id="guide4189" />
    <sodipodi:guide
       position="3.9999928,44"
       orientation="40,0"
       id="guide4193" />
    <sodipodi:guide
       position="3.9999928,4"
       orientation="0,40"
       id="guide4195" />
    <sodipodi:guide
       position="43.999993,4"
       orientation="-40,0"
       id="guide4197" />
    <sodipodi:guide
       position="43.999993,44"
       orientation="0,-40"
       id="guide4199" />
  </sodipodi:namedview>
  <metadata
     id="metadata7">
    <rdf:RDF>
      <cc:Work
         rdf:about="">
        <dc:format>image/svg+xml</dc:format>
        <dc:type
           rdf:resource="http://purl.org/dc/dcmitype/StillImage" />
        <dc:title />
      </cc:Work>
    </rdf:RDF>
  </metadata>
  <g
     inkscape:label="Capa 1"
     inkscape:groupmode="layer"
     id="layer1"
     transform="translate(-180.23661,-689.8125)">
    <path
       inkscape:connector-curvature="0"
       id="path4839"
       style="color:#000000;fill:#924565;fill-rule:evenodd"
       d="m 204.23777,693.8125 c -11.0448,0 -20.00116,8.95546 -20.00116,20.00119 0,11.04482 8.95544,19.99845 20.00116,19.99845 11.0448,0 19.99843,-8.95181 19.99843,-19.99754 0,-11.04482 -8.9518,-20.00118 -19.99752,-20.00118" />
    <path
       style="fill:#924565"
       inkscape:connector-curvature="0"
       id="path4841"
       d="m 215.9608,697.60963 0,32.40702 c 5.01373,-3.63351 8.2754,-9.53706 8.2754,-16.2035 0,-6.66555 -3.26221,-12.569 -8.2754,-16.20352" />
    <path
       inkscape:connector-curvature="0"
       d="m 208.02998,694.17431 0,39.27492 c 2.9189,-0.56008 5.61265,-1.75253 7.93082,-3.43267 l 0,-32.40702 c -2.3189,-1.68115 -5.0111,-2.87515 -7.93082,-3.43559"
       style="fill:#d23638"
       id="path4843" />
    <path
       inkscape:connector-curvature="0"
       d="m 192.16834,697.86671 c -4.81802,3.65182 -7.93082,9.43586 -7.93082,15.94735 0,6.51147 3.11216,12.29551 7.93082,15.94733 l 0,-31.89377"
       style="fill:#79c943"
       id="path4845" />
    <path
       inkscape:connector-curvature="0"
       d="m 200.09916,694.24314 c -2.93167,0.61696 -5.62605,1.8765 -7.93082,3.62357 l 0,31.89468 c 2.3045,1.74661 4.99979,3.00406 7.93082,3.62075 l 0,-39.13818"
       style="fill:#6ea6c1"
       id="path4847" />
    <path
       inkscape:connector-curvature="0"
       d="m 204.23777,693.8125 c -1.41916,0 -2.80359,0.14905 -4.13952,0.43018 l 0,39.13818 c 1.33547,0.28095 2.72018,0.43018 4.13952,0.43018 1.29637,0 2.5643,-0.12625 3.79166,-0.36181 l 0,-39.27492 c -1.22763,-0.23564 -2.4952,-0.36181 -3.79166,-0.36181"
       style="fill:#f3f284"
       id="path4849" />
    <path
       inkscape:connector-curvature="0"
       id="path4853"
       style="opacity:0.25;color:#000000"
       d="m 194.64786,701.77378 c -2.69383,0 -4.90599,2.64816 -4.90599,5.87246 l -1.8e-4,0 0,12.8689 5.87337,5.87337 -0.001,0 -5.87245,-5.87246 c 0,1.80259 0.69143,3.42503 1.77185,4.50508 l 8.29908,8.29911 c 1.42372,0.32161 2.90469,0.49226 4.42567,0.49226 11.04481,0 19.99843,-8.95181 19.99843,-19.99753 0,-1.52173 -0.17074,-3.00351 -0.49262,-4.42796 l -6.2453,-6.2453 c 0.002,0.002 0.004,0.005 0.007,0.007 l -0.007,-0.007 c -0.85215,-0.85215 -1.94605,-1.36702 -3.13376,-1.3672 l -1.8e-4,-1.8e-4 -19.71584,0" />
    <path
       inkscape:connector-curvature="0"
       id="path4855"
       style="color:#000000;fill:#ffffff"
       d="m 211.95801,701.22227 c -5.99123,0.0439 -11.98647,-0.0569 -17.97561,0.0513 -2.69347,0.41979 -4.59532,3.05163 -4.73743,5.67738 -0.14914,2.80122 0.0223,5.60809 -0.0491,8.41215 0.009,2.21671 -0.0974,4.44919 0.14029,6.6546 0.45853,2.31124 2.21425,4.50507 4.64053,4.8688 4.89678,0.12279 9.79593,-0.007 14.6939,0.0539 2.22509,-0.019 4.46386,0.0581 6.68011,-0.11085 2.73659,-0.63 4.4996,-3.46403 4.44163,-6.19297 0.0725,-3.76669 -0.0211,-7.53429 0.036,-11.30097 -0.0292,-1.63558 0.0782,-3.36367 -0.71724,-4.84602 -0.88196,-1.86219 -2.78244,-3.36978 -4.93352,-3.25027 -0.73948,-0.0263 -1.47941,-0.0216 -2.21917,-0.0172" />
    <path
       inkscape:connector-curvature="0"
       d="m 194.56217,703.73643 19.91547,0 c 1.6219,0 2.918,1.60613 2.918,3.62913 l 0,13.45141 c 0,2.02282 -1.29847,3.64545 -2.918,3.64545 l -19.91547,0 c -1.61907,0 -2.91799,-1.62244 -2.91799,-3.64545 l 0,-13.45141 c 0,-2.02282 1.29591,-3.62913 2.91799,-3.62913"
       style="color:#000000;fill:#4ba077"
       id="path5010" />
    <path
       inkscape:connector-curvature="0"
       d="m 208.02998,703.73734 0,20.72408 6.44675,0 c 0.5423,0 1.05051,-0.1805 1.48416,-0.49855 l 0,-19.73045 c -0.43365,-0.31559 -0.94104,-0.49572 -1.48416,-0.49572 l -6.44675,0"
       style="fill:#d23638"
       id="path5012" />
    <path
       inkscape:connector-curvature="0"
       d="m 194.56126,703.73734 c -0.99636,0 -1.86748,0.60739 -2.39292,1.54405 l 0,17.62832 c 0.52599,0.94131 1.39828,1.55244 2.39292,1.55244 l 5.5379,0 0,-20.72408 -5.5379,0"
       style="fill:#6ea6c1"
       id="path5014" />
    <path
       inkscape:connector-curvature="0"
       d="m 192.16834,705.28157 c -0.3299,0.58798 -0.52416,1.30504 -0.52416,2.08527 l 0,13.4514 c 0,0.78023 0.19398,1.50003 0.52416,2.09102 l 0,-17.62741"
       style="fill:#79c943"
       id="path5016" />
    <path
       inkscape:connector-curvature="0"
       d="m 200.09916,703.73734 0,20.72408 7.93082,0 0,-20.72408 -7.93082,0"
       style="fill:#f3f284"
       id="path5018" />
    <path
       inkscape:connector-curvature="0"
       d="m 215.9608,704.23324 0,19.73045 c 0.86108,-0.63164 1.43292,-1.79948 1.43292,-3.14499 l 0,-13.4514 c 0,-1.34551 -0.57174,-2.50679 -1.43292,-3.1336"
       style="fill:#924565"
       id="path5020" />
    <path
       inkscape:connector-curvature="0"
       d="m 194.56217,703.73734 c -1.6218,0 -2.9189,1.60631 -2.9189,3.62932 l 0,13.4514 c 0,2.02283 1.29992,3.64582 2.9189,3.64582 l 4.70517,0 c 6.15139,-4.59715 4.44125,-11.90354 9.14049,-20.72681 l -13.8452,0"
       style="fill:#ffffff;fill-opacity:0.33000004"
       id="path5022" />
  </g>
</svg>
