<?xml version="1.0" encoding="UTF-8" standalone="no"?>
<!-- Created using Karbon, part of Calligra: http://www.calligra.org/karbon -->

<svg
   xmlns:dc="http://purl.org/dc/elements/1.1/"
   xmlns:cc="http://creativecommons.org/ns#"
   xmlns:rdf="http://www.w3.org/1999/02/22-rdf-syntax-ns#"
   xmlns:svg="http://www.w3.org/2000/svg"
   xmlns="http://www.w3.org/2000/svg"
   xmlns:sodipodi="http://sodipodi.sourceforge.net/DTD/sodipodi-0.dtd"
   xmlns:inkscape="http://www.inkscape.org/namespaces/inkscape"
   width="38.4pt"
   height="38.4pt"
   id="svg2"
   version="1.1"
   inkscape:version="0.48.5 r10040"
   sodipodi:docname="chess.svg">
  <metadata
     id="metadata13">
    <rdf:RDF>
      <cc:Work
         rdf:about="">
        <dc:format>image/svg+xml</dc:format>
        <dc:type
           rdf:resource="http://purl.org/dc/dcmitype/StillImage" />
        <dc:title />
      </cc:Work>
    </rdf:RDF>
  </metadata>
  <sodipodi:namedview
     pagecolor="#ffffff"
     bordercolor="#666666"
     borderopacity="1"
     objecttolerance="10"
     gridtolerance="10"
     guidetolerance="10"
     inkscape:pageopacity="0"
     inkscape:pageshadow="2"
     inkscape:window-width="1920"
     inkscape:window-height="1025"
     id="namedview11"
     showgrid="false"
     inkscape:showpageshadow="false"
     borderlayer="true"
     inkscape:zoom="9.8333333"
     inkscape:cx="13.137185"
     inkscape:cy="21.339045"
     inkscape:window-x="-4"
     inkscape:window-y="39"
     inkscape:window-maximized="1"
     inkscape:current-layer="svg2">
    <sodipodi:guide
       position="9.5367432e-07,48.000001"
       orientation="47.999999,0"
       id="guide4075" />
    <sodipodi:guide
       position="9.5367432e-07,1.9073486e-06"
       orientation="0,47.999999"
       id="guide4077" />
    <sodipodi:guide
       position="48,1.9073486e-06"
       orientation="-47.999999,0"
       id="guide4079" />
    <sodipodi:guide
       position="48,48.000001"
       orientation="0,-47.999999"
       id="guide4081" />
    <sodipodi:guide
       position="4.000001,44.000001"
       orientation="39.999999,0"
       id="guide4083" />
    <sodipodi:guide
       position="4.000001,4.0000019"
       orientation="0,39.999999"
       id="guide4085" />
    <sodipodi:guide
       position="44,4.0000019"
       orientation="-39.999999,0"
       id="guide4087" />
    <sodipodi:guide
       position="44,44.000001"
       orientation="0,-39.999999"
       id="guide4089" />
  </sodipodi:namedview>
  <defs
     id="defs4">
    <clipPath
       id="clipPath-667606058">
      <g
         transform="translate(0,-1004.3622)"
         id="g17">
        <path
           style="fill:#1890d0"
           inkscape:connector-curvature="0"
           d="m -24,13 c 0,1.105 -0.672,2 -1.5,2 -0.828,0 -1.5,-0.895 -1.5,-2 0,-1.105 0.672,-2 1.5,-2 0.828,0 1.5,0.895 1.5,2 z"
           transform="matrix(15.333333,0,0,11.5,414.99999,878.8622)"
           id="path19" />
      </g>
    </clipPath>
    <clipPath
       id="clipPath-659501462">
      <g
         transform="translate(0,-1004.3622)"
         id="g12">
        <path
           style="fill:#1890d0"
           inkscape:connector-curvature="0"
           d="m -24,13 c 0,1.105 -0.672,2 -1.5,2 -0.828,0 -1.5,-0.895 -1.5,-2 0,-1.105 0.672,-2 1.5,-2 0.828,0 1.5,0.895 1.5,2 z"
           transform="matrix(15.333333,0,0,11.5,414.99999,878.8622)"
           id="path14" />
      </g>
    </clipPath>
    <linearGradient
       id="linearGradient3764"
       x1="1"
       x2="47"
       gradientUnits="userSpaceOnUse"
       gradientTransform="matrix(0,-1,1,0,-1.5e-6,47.999998)">
      <stop
         stop-color="#333"
         stop-opacity="1"
         id="stop7" />
      <stop
         offset="1"
         stop-color="#3d3d3d"
         stop-opacity="1"
         id="stop9" />
    </linearGradient>
  </defs>
  <g
     transform="matrix(0.85110005,0,0,0.85110638,3.1489,3.1468938)"
     id="g21">
    <path
       style="opacity:0.05"
       inkscape:connector-curvature="0"
       d="m 36.31,5 c 5.859,4.062 9.688,10.831 9.688,18.5 0,12.426 -10.07,22.5 -22.5,22.5 -7.669,0 -14.438,-3.828 -18.5,-9.688 1.037,1.822 2.306,3.499 3.781,4.969 4.085,3.712 9.514,5.969 15.469,5.969 12.703,0 23,-10.298 23,-23 0,-5.954 -2.256,-11.384 -5.969,-15.469 C 39.81,7.306 38.132,6.037 36.31,5 z m 4.969,3.781 c 3.854,4.113 6.219,9.637 6.219,15.719 0,12.703 -10.297,23 -23,23 -6.081,0 -11.606,-2.364 -15.719,-6.219 4.16,4.144 9.883,6.719 16.219,6.719 12.703,0 23,-10.298 23,-23 0,-6.335 -2.575,-12.06 -6.719,-16.219 z"
       id="path23" />
    <path
       style="opacity:0.1"
       inkscape:connector-curvature="0"
       d="m 41.28,8.781 c 3.712,4.085 5.969,9.514 5.969,15.469 0,12.703 -10.297,23 -23,23 -5.954,0 -11.384,-2.256 -15.469,-5.969 4.113,3.854 9.637,6.219 15.719,6.219 12.703,0 23,-10.298 23,-23 0,-6.081 -2.364,-11.606 -6.219,-15.719 z"
       id="path25" />
    <path
       style="opacity:0.2"
       inkscape:connector-curvature="0"
       d="M 31.25,2.375 C 39.865,5.529 46,13.792 46,23.505 c 0,12.426 -10.07,22.5 -22.5,22.5 -9.708,0 -17.971,-6.135 -21.12,-14.75 a 23,23 0 0 0 44.875,-7 23,23 0 0 0 -16,-21.875 z"
       id="path27" />
  </g>
  <g
     transform="matrix(0.85110005,0,0,0.85110638,3.1489,3.1468938)"
     id="g29">
    <path
       style="fill:url(#linearGradient3764);fill-opacity:1"
       inkscape:connector-curvature="0"
       d="M 24,1 C 36.703,1 47,11.297 47,24 47,36.703 36.703,47 24,47 11.297,47 1,36.703 1,24 1,11.297 11.297,1 24,1 z"
       id="path31" />
  </g>
  <g
     transform="matrix(0.85110005,0,0,0.85110638,3.1489,3.1468938)"
     id="g35">
    <g
       clip-path="url(#clipPath-659501462)"
       id="g37">
      <g
         transform="translate(1,1)"
         id="g39">
        <g
           style="opacity:0.1"
           id="g41">
          <!-- color: #3d3d3d -->
          <g
             id="g43">
            <path
               style="fill:#000000;fill-opacity:1;fill-rule:nonzero;stroke:none"
               inkscape:connector-curvature="0"
               d="m 17.563,11.996 c -0.313,0 -0.566,0.25 -0.566,0.566 l 0,4.875 c 0,0.313 0.25,0.563 0.566,0.563 l 0.434,0 -1,1 1,1 -0.906,10.996 -0.094,0 c -1.109,0 -1.996,0.895 -1.996,2 0,0.363 0.109,0.703 0.277,1 l -0.277,0 -1,1.996 19.996,0 -0.996,-1.996 -0.281,0 c 0.172,-0.297 0.281,-0.637 0.281,-1 0,-1.109 -0.895,-2 -2,-2 l -0.09,0 -0.91,-10.996 1,-1 -1,-1 0.438,0 c 0.316,0 0.566,-0.246 0.566,-0.563 l 0,-4.875 c 0,-0.313 -0.246,-0.566 -0.566,-0.566 l -1.438,0 0,2 -2,0 0,-2 -2,0 0,2 -1.996,0 0,-2 -2,0 0,2 -1.996,0 0,-2 m -1.445,0"
               id="path45" />
          </g>
        </g>
      </g>
    </g>
  </g>
  <g
     transform="matrix(0.85110005,0,0,0.85110638,3.1489,3.1468938)"
     id="g47">
    <g
       clip-path="url(#clipPath-667606058)"
       id="g49">
      <!-- color: #3d3d3d -->
      <g
         id="g51">
        <path
           style="fill:#f9f9f9;fill-opacity:1;fill-rule:nonzero;stroke:none"
           inkscape:connector-curvature="0"
           d="m 17.563,11.996 c -0.313,0 -0.566,0.25 -0.566,0.566 l 0,4.875 c 0,0.313 0.25,0.563 0.566,0.563 l 0.434,0 -1,1 1,1 -0.906,10.996 -0.094,0 c -1.109,0 -1.996,0.895 -1.996,2 0,0.363 0.109,0.703 0.277,1 l -0.277,0 -1,1.996 19.996,0 -0.996,-1.996 -0.281,0 c 0.172,-0.297 0.281,-0.637 0.281,-1 0,-1.109 -0.895,-2 -2,-2 l -0.09,0 -0.91,-10.996 1,-1 -1,-1 0.438,0 c 0.316,0 0.566,-0.246 0.566,-0.563 l 0,-4.875 c 0,-0.313 -0.246,-0.566 -0.566,-0.566 l -1.438,0 0,2 -2,0 0,-2 -2,0 0,2 -1.996,0 0,-2 -2,0 0,2 -1.996,0 0,-2 m -1.445,0"
           id="path53" />
      </g>
    </g>
  </g>
  <g
     transform="matrix(0.85110005,0,0,0.85110638,3.1489,3.1468938)"
     id="g55">
    <path
       style="opacity:0.1"
       inkscape:connector-curvature="0"
       d="m 40.03,7.531 c 3.712,4.084 5.969,9.514 5.969,15.469 0,12.703 -10.297,23 -23,23 C 17.045,46 11.615,43.744 7.53,40.031 11.708,44.322 17.54,47 23.999,47 c 12.703,0 23,-10.298 23,-23 0,-6.462 -2.677,-12.291 -6.969,-16.469 z"
       id="path57" />
  </g>
</svg>
