<?xml version="1.0" encoding="UTF-8" standalone="no"?>
<!-- Created using Karbon, part of Calligra: http://www.calligra.org/karbon -->

<svg
   xmlns:dc="http://purl.org/dc/elements/1.1/"
   xmlns:cc="http://creativecommons.org/ns#"
   xmlns:rdf="http://www.w3.org/1999/02/22-rdf-syntax-ns#"
   xmlns:svg="http://www.w3.org/2000/svg"
   xmlns="http://www.w3.org/2000/svg"
   xmlns:sodipodi="http://sodipodi.sourceforge.net/DTD/sodipodi-0.dtd"
   xmlns:inkscape="http://www.inkscape.org/namespaces/inkscape"
   width="38.4pt"
   height="38.4pt"
   id="svg2"
   version="1.1"
   inkscape:version="0.48.5 r10040"
   sodipodi:docname="kadu.svg">
  <metadata
     id="metadata12">
    <rdf:RDF>
      <cc:Work
         rdf:about="">
        <dc:format>image/svg+xml</dc:format>
        <dc:type
           rdf:resource="http://purl.org/dc/dcmitype/StillImage" />
        <dc:title />
      </cc:Work>
    </rdf:RDF>
  </metadata>
  <sodipodi:namedview
     pagecolor="#ffffff"
     bordercolor="#666666"
     borderopacity="1"
     objecttolerance="10"
     gridtolerance="10"
     guidetolerance="10"
     inkscape:pageopacity="0"
     inkscape:pageshadow="2"
     inkscape:window-width="1920"
     inkscape:window-height="1035"
     id="namedview10"
     showgrid="false"
     inkscape:zoom="6.9532164"
     inkscape:cx="12.942197"
     inkscape:cy="24.000001"
     inkscape:window-x="-4"
     inkscape:window-y="29"
     inkscape:window-maximized="1"
     inkscape:current-layer="svg2"
     inkscape:showpageshadow="false"
     borderlayer="true">
    <sodipodi:guide
       position="9.5367432e-07,48.000001"
       orientation="47.999999,0"
       id="guide4062" />
    <sodipodi:guide
       position="9.5367432e-07,1.9073486e-06"
       orientation="0,47.999999"
       id="guide4064" />
    <sodipodi:guide
       position="48,1.9073486e-06"
       orientation="-47.999999,0"
       id="guide4066" />
    <sodipodi:guide
       position="48,48.000001"
       orientation="0,-47.999999"
       id="guide4068" />
    <sodipodi:guide
       position="4.000001,44.000001"
       orientation="39.999999,0"
       id="guide4070" />
    <sodipodi:guide
       position="4.000001,4.0000019"
       orientation="0,39.999999"
       id="guide4072" />
    <sodipodi:guide
       position="44,4.0000019"
       orientation="-39.999999,0"
       id="guide4074" />
    <sodipodi:guide
       position="44,44.000001"
       orientation="0,-39.999999"
       id="guide4076" />
    <sodipodi:guide
       position="15.000001,33.000001"
       orientation="17.999999,0"
       id="guide4080" />
    <sodipodi:guide
       position="15.000001,15.000002"
       orientation="0,17.999999"
       id="guide4082" />
    <sodipodi:guide
       position="33,15.000002"
       orientation="-17.999999,0"
       id="guide4084" />
    <sodipodi:guide
       position="33,33.000001"
       orientation="0,-17.999999"
       id="guide4086" />
  </sodipodi:namedview>
  <defs
     id="defs4" />
  <rect
     style="fill:#3498db;fill-opacity:1;stroke:none"
     id="rect4088"
     width="40"
     height="40"
     x="4.000001"
     y="4.000001"
     ry="20" />
  <g
     transform="matrix(0.0815914,0,0,0.08159197,1.5655968,4.9359849)"
     id="g10882">
    <path
       sodipodi:type="star"
       style="fill:#ff8c00;fill-opacity:1;stroke:none"
       id="path4713"
       sodipodi:sides="10"
       sodipodi:cx="223.7993"
       sodipodi:cy="63.826641"
       sodipodi:r1="57.604252"
       sodipodi:r2="37.442764"
       sodipodi:arg1="-2.6179939"
       sodipodi:arg2="-2.3038346"
       inkscape:flatsided="false"
       inkscape:rounded="0.05"
       inkscape:randomized="0"
       d="m 173.91256,35.024516 c 0.62129,-1.076116 23.90922,1.808185 24.83264,0.976728 0.92343,-0.831456 0.48918,-24.293297 1.62434,-24.798705 1.13516,-0.505408 18.28014,15.516339 19.51593,15.386453 1.23578,-0.129886 14.67499,-19.3661614 15.89043,-19.1078119 1.21544,0.2583495 5.66867,23.2977799 6.74478,23.9190759 1.07612,0.621296 23.25547,-7.04181 24.08692,-6.118384 0.83146,0.923426 -9.10804,22.180261 -8.60263,23.315425 0.50541,1.135165 22.95313,7.972274 23.08302,9.208059 0.12989,1.235785 -20.40579,12.590635 -20.66414,13.806074 -0.25835,1.215439 13.88349,19.941219 13.2622,21.017336 -0.6213,1.076116 -23.90922,-1.808185 -24.83265,-0.976728 -0.92343,0.831456 -0.48917,24.293302 -1.62434,24.798702 -1.13516,0.50541 -18.28014,-15.51634 -19.51592,-15.38645 -1.23579,0.12989 -14.675,19.36616 -15.89044,19.10781 -1.21543,-0.25835 -5.66866,-23.297778 -6.74478,-23.919074 -1.07612,-0.621296 -23.25546,7.041814 -24.08692,6.118384 -0.83146,-0.92343 9.10804,-22.18026 8.60263,-23.315425 -0.5054,-1.135165 -22.95313,-7.972273 -23.08302,-9.208059 -0.12988,-1.235785 20.40579,-12.590635 20.66414,-13.806074 0.25835,-1.215439 -13.88349,-19.941219 -13.26219,-21.017336 z"
       inkscape:transform-center-x="13.052872"
       inkscape:transform-center-y="-14.716261"
       transform="matrix(3.2090268,0,0,3.2077972,-443.21756,31.996244)" />
    <path
       transform="matrix(3.6045275,0,0,3.6032442,119.48444,69.179204)"
       d="m 73.185553,46.502525 c 0,16.597283 -13.454756,30.052039 -30.052039,30.052039 -16.597282,0 -30.052038,-13.454756 -30.052038,-30.052039 0,-16.597282 13.454756,-30.052038 30.052038,-30.052038 16.597283,0 30.052039,13.454756 30.052039,30.052038 z"
       sodipodi:ry="30.052038"
       sodipodi:rx="30.052038"
       sodipodi:cy="46.502525"
       sodipodi:cx="43.133514"
       id="path4719"
       style="fill:#ffa500;fill-opacity:1;stroke:none"
       sodipodi:type="arc" />
  </g>
</svg>
