<?xml version="1.0" encoding="UTF-8" standalone="no"?>
<!-- Created using Karbon, part of Calligra: http://www.calligra.org/karbon -->

<svg
   xmlns:dc="http://purl.org/dc/elements/1.1/"
   xmlns:cc="http://creativecommons.org/ns#"
   xmlns:rdf="http://www.w3.org/1999/02/22-rdf-syntax-ns#"
   xmlns:svg="http://www.w3.org/2000/svg"
   xmlns="http://www.w3.org/2000/svg"
   xmlns:sodipodi="http://sodipodi.sourceforge.net/DTD/sodipodi-0.dtd"
   xmlns:inkscape="http://www.inkscape.org/namespaces/inkscape"
   width="38.4pt"
   height="38.4pt"
   id="svg2"
   version="1.1"
   inkscape:version="0.48.5 r10040"
   sodipodi:docname="kde-windows.svg">
  <metadata
     id="metadata16">
    <rdf:RDF>
      <cc:Work
         rdf:about="">
        <dc:format>image/svg+xml</dc:format>
        <dc:type
           rdf:resource="http://purl.org/dc/dcmitype/StillImage" />
        <dc:title />
      </cc:Work>
    </rdf:RDF>
  </metadata>
  <sodipodi:namedview
     pagecolor="#ffffff"
     bordercolor="#666666"
     borderopacity="1"
     objecttolerance="10"
     gridtolerance="10"
     guidetolerance="10"
     inkscape:pageopacity="0"
     inkscape:pageshadow="2"
     inkscape:window-width="1920"
     inkscape:window-height="1031"
     id="namedview14"
     showgrid="false"
     inkscape:showpageshadow="false"
     borderlayer="true"
     inkscape:zoom="6.9532167"
     inkscape:cx="15.256172"
     inkscape:cy="0.90871328"
     inkscape:window-x="-4"
     inkscape:window-y="32"
     inkscape:window-maximized="1"
     inkscape:current-layer="svg2">
    <sodipodi:guide
       position="9.5367432e-07,48.000001"
       orientation="47.999999,0"
       id="guide4074" />
    <sodipodi:guide
       position="9.5367432e-07,1.9073486e-06"
       orientation="0,47.999999"
       id="guide4076" />
    <sodipodi:guide
       position="48,1.9073486e-06"
       orientation="-47.999999,0"
       id="guide4078" />
    <sodipodi:guide
       position="48,48.000001"
       orientation="0,-47.999999"
       id="guide4080" />
    <sodipodi:guide
       position="4.000001,44.000001"
       orientation="39.999999,0"
       id="guide4082" />
    <sodipodi:guide
       position="4.000001,4.0000019"
       orientation="0,39.999999"
       id="guide4084" />
    <sodipodi:guide
       position="44,4.0000019"
       orientation="-39.999999,0"
       id="guide4086" />
    <sodipodi:guide
       position="44,44.000001"
       orientation="0,-39.999999"
       id="guide4088" />
    <sodipodi:guide
       position="11.000001,37.000001"
       orientation="25.999999,0"
       id="guide4121" />
    <sodipodi:guide
       position="11.000001,11.000002"
       orientation="0,25.999999"
       id="guide4123" />
    <sodipodi:guide
       position="37,11.000002"
       orientation="-25.999999,0"
       id="guide4125" />
    <sodipodi:guide
       position="37,37.000001"
       orientation="0,-25.999999"
       id="guide4127" />
  </sodipodi:namedview>
  <defs
     id="defs4" />
  <path
     style="fill:#88aa00;fill-rule:evenodd"
     inkscape:connector-curvature="0"
     d="M 44,24 C 44,35.04614 35.045226,44 24,44 12.95386,44 4,35.04523 4,24 4,12.95386 12.954774,4 24,4 35.04614,4 44,12.95477 44,24"
     id="path162" />
  <path
     style="fill:#ffffff;fill-opacity:1"
     d="m 36.691463,28.922531 c 0.0049,-0.852332 0.0085,-2.152897 0.0085,-2.890404 l 0,-1.340856 -0.04159,0 c -0.02286,0 -1.823296,-0.01553 -4.000952,-0.03474 -2.177651,-0.01921 -4.038525,-0.03474 -4.135272,-0.03474 l -0.175898,0 0,2.279125 c 0,1.253655 0.0014,2.279455 0.0034,2.279576 0.002,0 1.868388,0.290418 4.148064,0.645114 2.279675,0.354737 4.153989,0.64544 4.165137,0.645972 0.01814,0 0.02082,-0.143719 0.02855,-1.548814 z m -9.057739,-2.079302 c 0.0044,-1.224314 0.0068,-2.226861 0.0053,-2.22776 -0.003,0 -4.959472,-0.04515 -5.116669,-0.04466 l -0.09914,0 0,1.843235 0,1.843191 0.02879,0.0058 c 0.02251,0.0041 5.136056,0.80158 5.166191,0.80538 0.0041,0 0.0111,-1.000749 0.01554,-2.225145 z M 25.135289,24.10018 c 1.178534,-0.01062 2.224823,-0.01962 2.325087,-0.02002 l 0.182298,0 0,-2.230252 0,-2.230416 -0.03517,0.0049 c -0.01933,0.0041 -1.193689,0.184827 -2.609641,0.404427 l -2.57446,0.39932 -1.03e-4,1.845889 -2.07e-4,1.845972 0.284643,0 c 0.156658,-2.04e-4 1.249004,-0.009 2.427545,-0.02002 z m 7.54685,-0.06518 c 2.205304,-0.01921 4.011498,-0.03637 4.013763,-0.03841 0.0025,0 0.0025,-1.303956 9.6e-4,-2.893631 l -0.0034,-2.890446 -3.793066,0.589457 c -2.086186,0.324212 -3.962892,0.615652 -4.170454,0.647648 l -0.377387,0.05819 -0.0034,2.28121 -0.0034,2.281169 0.163131,0 c 0.09025,-4.1e-5 1.968005,-0.01594 4.173308,-0.03514 z"
     id="path858"
     inkscape:connector-curvature="0"
     sodipodi:nodetypes="ssccsccssscsscccccscssccccssccccsssscssccccs" />
  <text
     xml:space="preserve"
     style="font-size:2.91550708px;font-style:normal;font-variant:normal;font-weight:500;font-stretch:normal;line-height:125%;letter-spacing:0px;word-spacing:0px;fill:#ffffff;fill-opacity:1;stroke:none;font-family:Century Schoolbook L;-inkscape-font-specification:Century Schoolbook L Medium"
     x="10.775352"
     y="32.999893"
     id="text3017"
     sodipodi:linespacing="125%"
     transform="scale(0.9999968,1.0000032)"><tspan
       sodipodi:role="line"
       id="tspan3019"
       x="10.775352"
       y="32.999893"
       style="font-size:23.32405663px;font-style:normal;font-variant:normal;font-weight:normal;font-stretch:normal;fill:#ffffff;font-family:Droid Sans Japanese;-inkscape-font-specification:Droid Sans Japanese">K</tspan></text>
</svg>
