<?xml version="1.0" encoding="UTF-8" standalone="no"?>
<!-- Created with Inkscape (http://www.inkscape.org/) -->

<svg
   xmlns:dc="http://purl.org/dc/elements/1.1/"
   xmlns:cc="http://creativecommons.org/ns#"
   xmlns:rdf="http://www.w3.org/1999/02/22-rdf-syntax-ns#"
   xmlns:svg="http://www.w3.org/2000/svg"
   xmlns="http://www.w3.org/2000/svg"
   xmlns:sodipodi="http://sodipodi.sourceforge.net/DTD/sodipodi-0.dtd"
   xmlns:inkscape="http://www.inkscape.org/namespaces/inkscape"
   width="48"
   height="48"
   id="svg2"
   version="1.1"
   inkscape:version="0.48.5 r10040"
   viewBox="0 0 13.546666 13.546668"
   sodipodi:docname="klinkstatus.svg">
  <defs
     id="defs4" />
  <sodipodi:namedview
     id="base"
     pagecolor="#ffffff"
     bordercolor="#666666"
     borderopacity="1.0"
     inkscape:pageopacity="0"
     inkscape:pageshadow="2"
     inkscape:zoom="5.6568542"
     inkscape:cx="20.878182"
     inkscape:cy="16.868116"
     inkscape:document-units="px"
     inkscape:current-layer="layer1"
     showgrid="false"
     inkscape:showpageshadow="false"
     borderlayer="true"
     units="px"
     fit-margin-top="0"
     fit-margin-left="0"
     fit-margin-right="0"
     fit-margin-bottom="0"
     showguides="false"
     inkscape:window-width="1920"
     inkscape:window-height="1025"
     inkscape:window-x="-4"
     inkscape:window-y="39"
     inkscape:window-maximized="1">
    <sodipodi:guide
       position="-6.6748425e-06,47.999999"
       orientation="47.999977,0"
       id="guide4120" />
    <sodipodi:guide
       position="-6.6748425e-06,2.2810037e-05"
       orientation="0,48.000004"
       id="guide4122" />
    <sodipodi:guide
       position="47.999997,2.2810037e-05"
       orientation="-47.999977,0"
       id="guide4124" />
    <sodipodi:guide
       position="47.999997,47.999999"
       orientation="0,-48.000004"
       id="guide4126" />
    <sodipodi:guide
       position="3.9999733,44.000154"
       orientation="39.999962,0"
       id="guide4138" />
    <sodipodi:guide
       position="3.9999733,4.0001921"
       orientation="0,40.000003"
       id="guide4140" />
    <sodipodi:guide
       position="43.999976,4.0001921"
       orientation="-39.999962,0"
       id="guide4142" />
    <sodipodi:guide
       position="43.999976,44.000154"
       orientation="0,-40.000003"
       id="guide4144" />
    <sodipodi:guide
       position="6.9999922,47.999999"
       orientation="39.999962,0"
       id="guide4148" />
    <sodipodi:guide
       position="6.9999922,8.0000369"
       orientation="0,34.000006"
       id="guide4150" />
    <sodipodi:guide
       position="40.999998,8.0000369"
       orientation="-39.999962,0"
       id="guide4152" />
    <sodipodi:guide
       position="40.999998,47.999999"
       orientation="0,-34.000006"
       id="guide4154" />
    <sodipodi:guide
       position="14.999993,32.999986"
       orientation="17.999951,0"
       id="guide4158" />
    <sodipodi:guide
       position="14.999993,15.000036"
       orientation="0,17.999998"
       id="guide4160" />
    <sodipodi:guide
       position="32.999991,15.000036"
       orientation="-17.999951,0"
       id="guide4162" />
    <sodipodi:guide
       position="32.999991,32.999986"
       orientation="0,-17.999998"
       id="guide4164" />
    <sodipodi:guide
       position="1.9999969,44.000046"
       orientation="39.999962,0"
       id="guide3279" />
    <sodipodi:guide
       position="1.9999969,4.0000839"
       orientation="0,44.000003"
       id="guide3281" />
    <sodipodi:guide
       position="46,4.0000839"
       orientation="-39.999962,0"
       id="guide3283" />
    <sodipodi:guide
       position="46,44.000046"
       orientation="0,-44.000003"
       id="guide3285" />
    <inkscape:grid
       type="xygrid"
       id="grid3808" />
  </sodipodi:namedview>
  <metadata
     id="metadata7">
    <rdf:RDF>
      <cc:Work
         rdf:about="">
        <dc:format>image/svg+xml</dc:format>
        <dc:type
           rdf:resource="http://purl.org/dc/dcmitype/StillImage" />
        <dc:title />
      </cc:Work>
    </rdf:RDF>
  </metadata>
  <g
     inkscape:label="Capa 1"
     inkscape:groupmode="layer"
     id="layer1"
     transform="translate(38.119153,-397.84494)">
    <path
       style="fill:#ae4a32;fill-rule:evenodd"
       inkscape:connector-curvature="0"
       id="path2782"
       d="m -25.701375,404.61827 c 0,3.11733 -2.527121,5.64445 -5.644445,5.64445 -3.117324,0 -5.644445,-2.52712 -5.644445,-5.64445 0,-3.11732 2.527121,-5.64444 5.644445,-5.64444 3.117324,0 5.644445,2.52712 5.644445,5.64444" />
    <path
       style="opacity:0.25"
       inkscape:connector-curvature="0"
       d="m -28.378303,400.83391 c -0.01011,0 -0.02029,0.004 -0.02743,0.0113 l 0.337259,0.33726 -1.01e-4,9e-5 -0.337259,-0.33726 -0.393211,0.39396 -0.08248,-0.082 -0.0575,-0.0575 c -0.02545,-0.0254 -0.06505,-0.0293 -0.09512,-0.01 l 0.690891,0.69089 -5.2e-5,9e-5 -0.690891,-0.69084 -1.118266,0.73326 1.129586,1.12958 c 1.28e-4,2.7e-4 2.55e-4,4.6e-4 4.11e-4,7.3e-4 l -1.13023,-1.13023 c -0.0019,10e-4 -0.0038,0.003 -0.0056,0.004 l -1.01e-4,-1e-4 c -0.134439,-0.0745 -0.275144,-0.1391 -0.422733,-0.19248 l -1.56e-4,-1.8e-4 c -0.01026,-0.004 -0.02179,-0.003 -0.03143,0.002 l 1.815732,1.81573 c 2.6e-5,8e-5 7.7e-5,1.9e-4 10e-5,2.8e-4 l -1.81599,-1.816 c -0.0095,0.005 -0.01622,0.0143 -0.01854,0.025 l 1.855826,1.85583 c 2.6e-5,5e-5 2.6e-5,9e-5 5.2e-5,1.8e-4 l -1.855929,-1.85593 -0.07978,0.36098 1.437218,1.43722 c 0.03597,0.0916 0.06676,0.18567 0.09189,0.28198 l -0.905029,-0.90503 c 0.0011,10e-4 0.0021,0.002 0.0031,0.003 l -0.0033,-0.003 c -0.39352,-0.39352 -0.935197,-0.63796 -1.52901,-0.63796 v 5e-5 c -1.197682,0 -2.168977,0.98007 -2.168977,2.17465 0,0.60403 0.245183,1.15202 0.641024,1.54784 l 0.0064,0.006 c -0.0021,-0.002 -0.0044,-0.004 -0.0064,-0.006 l 0.90209,0.90209 c -0.08702,-0.0225 -0.172187,-0.0497 -0.255316,-0.0811 l -1.469062,-1.46901 -0.354482,0.0983 -5.2e-5,-5e-5 c -0.01031,0.003 -0.01846,0.009 -0.02336,0.0185 l 1.789947,1.78995 c -5.2e-5,-3e-5 -1.01e-4,-3e-5 -1.56e-4,-6e-5 l -1.789946,-1.78996 c -0.0048,0.009 -0.0052,0.0207 -0.0016,0.0307 l 5.2e-5,6e-5 c 0.05451,0.14813 0.12049,0.29051 0.196605,0.42544 l 1.115945,1.11594 c -7.7e-5,-5e-5 -1.55e-4,-9e-5 -2.55e-4,-1.8e-4 l -1.115688,-1.11569 -0.684084,1.12727 c -0.01823,0.0297 -0.01423,0.0687 0.01047,0.0935 l 0.09669,0.0967 -0.38184,0.38263 10e-5,1.9e-4 0.336744,0.33674 -5.2e-5,5e-5 -0.336743,-0.33674 c -0.01478,0.0148 -0.01478,0.0392 0,0.054 l 2.524542,2.52454 c 0.398291,0.0891 0.812335,0.13648 1.237493,0.13648 3.117324,0 5.644445,-2.52712 5.644445,-5.64444 0,-0.43501 -0.04932,-0.85862 -0.142458,-1.26524 l -2.224155,-2.22416 c 6.21e-4,6.4e-4 0.0011,0.001 0.0016,0.002 l -0.285433,-0.28543 c -0.007,-0.007 -0.01629,-0.0111 -0.02614,-0.0113 l -1.55e-4,-1.8e-4"
       id="path2888" />
    <path
       style="fill:#ffffff"
       inkscape:connector-curvature="0"
       d="m -28.378303,400.83391 c -0.01011,0 -0.02027,0.004 -0.02741,0.0113 l -0.39321,0.39401 -0.140216,-0.13939 c -0.02545,-0.0254 -0.06503,-0.0293 -0.09509,-0.01 l -1.118266,0.73326 c -0.002,0.001 -0.0038,0.003 -0.0056,0.004 -0.134543,-0.0745 -0.275325,-0.13918 -0.423017,-0.19258 -0.01026,-0.004 -0.02179,-0.003 -0.03143,0.002 -0.0095,0.005 -0.01622,0.0143 -0.01854,0.025 l -0.07978,0.36098 c 0.93726,0.36738 1.609973,1.28551 1.609973,2.3505 0,1.39416 -1.1358,2.53022 -2.514745,2.53022 -1.072602,0 -1.98926,-0.67795 -2.350498,-1.62932 l -0.354535,0.0983 c -0.01031,0.003 -0.01846,0.009 -0.02336,0.0185 -0.0048,0.009 -0.0053,0.0207 -0.0016,0.0306 0.05451,0.14813 0.12049,0.29051 0.196606,0.42544 l -0.684084,1.12727 c -0.01823,0.0297 -0.01423,0.0687 0.01047,0.0935 l 0.09669,0.0967 -0.381943,0.38274 c -0.01478,0.0148 -0.01478,0.0392 0,0.054 l 0.283627,0.28283 c 0.01483,0.0149 0.03824,0.0149 0.05319,0 l 0.382742,-0.38194 0.151483,0.15148 c 0.0255,0.0254 0.06508,0.0294 0.09509,0.01 l 1.087067,-0.71229 c 0.226541,0.13126 0.47077,0.23205 0.72686,0.29974 l 0.303765,1.24564 c 0.0083,0.0338 0.03922,0.058 0.07413,0.058 h 0.82845 c 0.03587,0 0.06686,-0.026 0.07413,-0.0612 l 0.260163,-1.25457 c 0.241496,-0.0678 0.470977,-0.16561 0.683285,-0.28927 l 1.124841,0.68249 c 0.02983,0.0181 0.06714,0.0135 0.09187,-0.0113 l 0.585794,-0.58579 c 0.02532,-0.0254 0.03009,-0.065 0.01047,-0.0951 l -0.721162,-1.09986 c 0.127607,-0.22729 0.225432,-0.47224 0.289274,-0.73163 l 1.245641,-0.30539 c 0.03391,-0.008 0.05801,-0.0384 0.05801,-0.0733 v -0.82819 c 0,-0.0359 -0.02532,-0.0668 -0.06044,-0.0741 l -1.281971,-0.26672 c -0.06712,-0.22295 -0.160275,-0.43565 -0.276382,-0.63493 l 0.696177,-1.14663 c 0.0181,-0.0299 0.01423,-0.0688 -0.01047,-0.0935 l -0.109584,-0.10879 0.39401,-0.39483 c 0.01483,-0.0149 0.01483,-0.0383 0,-0.0532 l -0.283627,-0.28363 c -0.0071,-0.007 -0.01655,-0.0113 -0.02658,-0.0113 m -3.237478,1.36577 c -1.197682,0 -2.168977,0.98006 -2.168977,2.17465 0,1.20235 0.971424,2.1829 2.169234,2.1829 1.189173,0 2.169235,-0.98032 2.169235,-2.1829 0,-1.19459 -0.979804,-2.17465 -2.168977,-2.17465 m -0.899228,1.1144 h 1.920932 v 1.90644 c -0.127942,-0.13426 -3.84e-4,10e-4 -0.768708,-0.75662 -0.53224,0.23335 -0.687384,0.61571 -0.476211,1.45372 -0.775334,-0.81566 -1.063603,-1.4145 -0.157129,-2.09085 l -0.504419,-0.50037 -0.01452,-0.0121"
       id="path2890" />
  </g>
</svg>
