<?xml version="1.0" encoding="UTF-8" standalone="no"?>
<!-- Created with Inkscape (http://www.inkscape.org/) -->

<svg
   xmlns:dc="http://purl.org/dc/elements/1.1/"
   xmlns:cc="http://creativecommons.org/ns#"
   xmlns:rdf="http://www.w3.org/1999/02/22-rdf-syntax-ns#"
   xmlns:svg="http://www.w3.org/2000/svg"
   xmlns="http://www.w3.org/2000/svg"
   xmlns:sodipodi="http://sodipodi.sourceforge.net/DTD/sodipodi-0.dtd"
   xmlns:inkscape="http://www.inkscape.org/namespaces/inkscape"
   width="48"
   height="48"
   id="svg2"
   version="1.1"
   inkscape:version="0.48.5 r10040"
   viewBox="0 0 13.546666 13.546668"
   sodipodi:docname="kteatime.svg">
  <defs
     id="defs4" />
  <sodipodi:namedview
     id="base"
     pagecolor="#ffffff"
     bordercolor="#666666"
     borderopacity="1.0"
     inkscape:pageopacity="0"
     inkscape:pageshadow="2"
     inkscape:zoom="5.6568542"
     inkscape:cx="20.878182"
     inkscape:cy="16.868116"
     inkscape:document-units="px"
     inkscape:current-layer="layer1"
     showgrid="false"
     inkscape:showpageshadow="false"
     borderlayer="true"
     units="px"
     fit-margin-top="0"
     fit-margin-left="0"
     fit-margin-right="0"
     fit-margin-bottom="0"
     showguides="false"
     inkscape:window-width="1920"
     inkscape:window-height="1025"
     inkscape:window-x="-4"
     inkscape:window-y="39"
     inkscape:window-maximized="1">
    <sodipodi:guide
       position="-6.6748425e-06,47.999999"
       orientation="47.999977,0"
       id="guide4120" />
    <sodipodi:guide
       position="-6.6748425e-06,2.2810037e-05"
       orientation="0,48.000004"
       id="guide4122" />
    <sodipodi:guide
       position="47.999997,2.2810037e-05"
       orientation="-47.999977,0"
       id="guide4124" />
    <sodipodi:guide
       position="47.999997,47.999999"
       orientation="0,-48.000004"
       id="guide4126" />
    <sodipodi:guide
       position="3.9999733,44.000154"
       orientation="39.999962,0"
       id="guide4138" />
    <sodipodi:guide
       position="3.9999733,4.0001921"
       orientation="0,40.000003"
       id="guide4140" />
    <sodipodi:guide
       position="43.999976,4.0001921"
       orientation="-39.999962,0"
       id="guide4142" />
    <sodipodi:guide
       position="43.999976,44.000154"
       orientation="0,-40.000003"
       id="guide4144" />
    <sodipodi:guide
       position="6.9999922,47.999999"
       orientation="39.999962,0"
       id="guide4148" />
    <sodipodi:guide
       position="6.9999922,8.0000369"
       orientation="0,34.000006"
       id="guide4150" />
    <sodipodi:guide
       position="40.999998,8.0000369"
       orientation="-39.999962,0"
       id="guide4152" />
    <sodipodi:guide
       position="40.999998,47.999999"
       orientation="0,-34.000006"
       id="guide4154" />
    <sodipodi:guide
       position="14.999993,32.999986"
       orientation="17.999951,0"
       id="guide4158" />
    <sodipodi:guide
       position="14.999993,15.000036"
       orientation="0,17.999998"
       id="guide4160" />
    <sodipodi:guide
       position="32.999991,15.000036"
       orientation="-17.999951,0"
       id="guide4162" />
    <sodipodi:guide
       position="32.999991,32.999986"
       orientation="0,-17.999998"
       id="guide4164" />
    <sodipodi:guide
       position="1.9999969,44.000046"
       orientation="39.999962,0"
       id="guide3279" />
    <sodipodi:guide
       position="1.9999969,4.0000839"
       orientation="0,44.000003"
       id="guide3281" />
    <sodipodi:guide
       position="46,4.0000839"
       orientation="-39.999962,0"
       id="guide3283" />
    <sodipodi:guide
       position="46,44.000046"
       orientation="0,-44.000003"
       id="guide3285" />
    <inkscape:grid
       type="xygrid"
       id="grid3808" />
  </sodipodi:namedview>
  <metadata
     id="metadata7">
    <rdf:RDF>
      <cc:Work
         rdf:about="">
        <dc:format>image/svg+xml</dc:format>
        <dc:type
           rdf:resource="http://purl.org/dc/dcmitype/StillImage" />
        <dc:title />
      </cc:Work>
    </rdf:RDF>
  </metadata>
  <g
     inkscape:label="Capa 1"
     inkscape:groupmode="layer"
     id="layer1"
     transform="translate(38.119153,-397.84494)">
    <path
       style="fill:#924565;fill-rule:evenodd"
       inkscape:connector-curvature="0"
       d="m -25.701485,404.61822 c 0,3.11729 -2.527096,5.64439 -5.64439,5.64439 -3.117294,0 -5.64439,-2.5271 -5.64439,-5.64439 0,-3.11729 2.527096,-5.64439 5.64439,-5.64439 3.117294,0 5.64439,2.5271 5.64439,5.64439"
       id="path4726" />
    <path
       style="opacity:0.25"
       inkscape:connector-curvature="0"
       id="path4784"
       d="m -33.022097,400.95069 c -0.09316,0.004 -0.185671,0.045 -0.253818,0.13779 -0.207304,0.28249 -0.264287,0.58837 -0.175667,0.92663 0.08736,0.33324 0.33117,0.59154 0.207046,0.94919 -0.0429,0.12369 -0.0106,0.22497 0.05796,0.29355 l 0.49771,0.49771 h -2.205053 c 0,1.24073 2.6e-5,2.99843 0.970821,3.96946 l 2.537153,2.53715 c 0.01333,9e-5 0.02658,5.5e-4 0.03994,5.5e-4 2.752449,0 5.044137,-1.97016 5.543059,-4.57719 l -4.627209,-4.62724 c -0.06962,-0.0696 -0.174661,-0.11213 -0.279551,-0.10747 -0.09316,0.004 -0.18647,0.0449 -0.254617,0.13779 -0.09452,0.1288 -0.157438,0.26251 -0.1899,0.40187 l -0.432193,-0.43219 c -0.06962,-0.0696 -0.174661,-0.11213 -0.27955,-0.10747 -0.09316,0.004 -0.185672,0.0449 -0.253819,0.13779 -0.09463,0.12892 -0.157695,0.26277 -0.190312,0.40229 l -0.432579,-0.43258 c -0.06962,-0.0696 -0.174661,-0.11214 -0.279551,-0.10747" />
    <path
       style="fill:#ffffff"
       inkscape:connector-curvature="0"
       id="path4786"
       d="m -33.022097,400.95069 c -0.09316,0.004 -0.185671,0.045 -0.253818,0.13779 -0.207304,0.28249 -0.264287,0.58837 -0.175667,0.92663 0.08736,0.33324 0.33117,0.59154 0.207046,0.94919 -0.136166,0.39246 0.48474,0.55954 0.619591,0.17082 0.102775,-0.29623 0.07521,-0.58385 -0.03708,-0.87264 -0.124872,-0.32078 -0.289323,-0.53633 -0.05964,-0.84927 0.17644,-0.24044 -0.06245,-0.47311 -0.300539,-0.46252 m 1.15626,0 c -0.09316,0.004 -0.185671,0.045 -0.253818,0.13779 -0.207304,0.28249 -0.265086,0.58837 -0.176466,0.92663 0.08736,0.33324 0.33197,0.59154 0.207819,0.94919 -0.136165,0.39246 0.484741,0.55954 0.619592,0.17082 0.102775,-0.29623 0.07441,-0.58385 -0.03788,-0.87264 -0.124872,-0.32078 -0.288498,-0.53633 -0.05881,-0.84927 0.176441,-0.24044 -0.06245,-0.47311 -0.300539,-0.46252 m 1.156261,0 c -0.09316,0.004 -0.18647,0.045 -0.254618,0.13779 -0.207304,0.28249 -0.264286,0.58837 -0.175667,0.92663 0.08736,0.33324 0.33197,0.59154 0.20782,0.94919 -0.136166,0.39246 0.48474,0.55954 0.619591,0.17082 0.102775,-0.29623 0.07441,-0.58385 -0.03788,-0.87264 -0.124872,-0.32078 -0.288498,-0.53633 -0.05881,-0.84927 0.17644,-0.24044 -0.06245,-0.47311 -0.300539,-0.46252 m -4.184239,2.8048 c 0,1.79843 2.6e-5,4.68315 2.956401,4.68315 1.379964,0 2.116099,-0.62853 2.508275,-1.48181 1.267544,-0.0533 1.783999,-0.61959 1.783999,-1.31176 0,-0.60479 -0.395141,-1.11361 -1.339972,-1.26832 0.0038,-0.21633 0.004,-0.42546 0.004,-0.62114 h -5.912545 m 1.012798,0.46009 c 0.160584,-2e-5 0.320342,0.10391 0.319877,0.31096 -0.0018,0.87975 0.181005,1.71928 0.679256,2.45516 0.23283,0.34414 -0.324312,0.66554 -0.555157,0.32472 -0.557271,-0.82331 -0.768313,-1.7956 -0.766276,-2.77978 4.38e-4,-0.20704 0.161717,-0.31095 0.3223,-0.31095 m 4.873962,0.74209 c 0.494023,0.12268 0.607009,0.37575 0.601104,0.70107 -0.0067,0.37023 -0.143075,0.62191 -0.812997,0.71228 0.125259,-0.45436 0.183918,-0.94081 0.211919,-1.4133" />
  </g>
</svg>
