<?xml version="1.0" encoding="UTF-8" standalone="no"?>
<!-- Created with Inkscape (http://www.inkscape.org/) -->

<svg
   xmlns:dc="http://purl.org/dc/elements/1.1/"
   xmlns:cc="http://creativecommons.org/ns#"
   xmlns:rdf="http://www.w3.org/1999/02/22-rdf-syntax-ns#"
   xmlns:svg="http://www.w3.org/2000/svg"
   xmlns="http://www.w3.org/2000/svg"
   xmlns:sodipodi="http://sodipodi.sourceforge.net/DTD/sodipodi-0.dtd"
   xmlns:inkscape="http://www.inkscape.org/namespaces/inkscape"
   width="48"
   height="48"
   id="svg4230"
   version="1.1"
   inkscape:version="0.48.5 r10040"
   sodipodi:docname="library-internet-radio.svg">
  <defs
     id="defs4232" />
  <sodipodi:namedview
     id="base"
     pagecolor="#ffffff"
     bordercolor="#666666"
     borderopacity="1.0"
     inkscape:pageopacity="0.0"
     inkscape:pageshadow="2"
     inkscape:zoom="7.1252405"
     inkscape:cx="34.562861"
     inkscape:cy="28.250623"
     inkscape:document-units="px"
     inkscape:current-layer="layer1"
     showgrid="false"
     inkscape:showpageshadow="false"
     borderlayer="true"
     inkscape:window-width="1920"
     inkscape:window-height="1025"
     inkscape:window-x="-4"
     inkscape:window-y="39"
     inkscape:window-maximized="1">
    <sodipodi:guide
       position="0,48.000017"
       orientation="48,0"
       id="guide4065" />
    <sodipodi:guide
       position="0,1.7382813e-05"
       orientation="0,48"
       id="guide4067" />
    <sodipodi:guide
       position="48,1.7382813e-05"
       orientation="-48,0"
       id="guide4069" />
    <sodipodi:guide
       position="48,48.000017"
       orientation="0,-48"
       id="guide4071" />
    <sodipodi:guide
       position="3,45.000017"
       orientation="42,0"
       id="guide4073" />
    <sodipodi:guide
       position="3,3.0000174"
       orientation="0,42"
       id="guide4075" />
    <sodipodi:guide
       position="45,3.0000174"
       orientation="-42,0"
       id="guide4077" />
    <sodipodi:guide
       position="45,45.000017"
       orientation="0,-42"
       id="guide4079" />
  </sodipodi:namedview>
  <metadata
     id="metadata4235">
    <rdf:RDF>
      <cc:Work
         rdf:about="">
        <dc:format>image/svg+xml</dc:format>
        <dc:type
           rdf:resource="http://purl.org/dc/dcmitype/StillImage" />
        <dc:title />
      </cc:Work>
    </rdf:RDF>
  </metadata>
  <g
     inkscape:label="Capa 1"
     inkscape:groupmode="layer"
     id="layer1"
     transform="translate(0,-1004.3622)">
    <path
       style="fill:#000000"
       d=""
       id="path906"
       inkscape:connector-curvature="0" />
    <path
       style="fill:#703f92;fill-rule:evenodd"
       inkscape:connector-curvature="0"
       id="path52"
       d="m 44,1028.3622 c 0,11.0456 -8.95436,20 -20,20 -11.04564,0 -20,-8.9544 -20,-20 0,-11.0456 8.95436,-20 20,-20 11.04564,0 20,8.9544 20,20" />
    <path
       style="opacity:0.25"
       inkscape:connector-curvature="0"
       d="m 16.04331,1018.5545 c -0.61523,0 -0.87123,0.1389 -1.56046,0.8584 -1.90051,1.9834 -3.1465,4.5827 -3.54584,7.3947 -0.13421,0.9449 -0.13421,2.683 0,3.6279 0.21031,1.4814 0.63131,2.8349 1.29889,4.1758 0.0388,0.078 0.0787,0.1558 0.11922,0.2335 0.0263,0.05 0.0536,0.1006 0.0807,0.1507 0.016,0.03 0.0316,0.059 0.0478,0.089 0.0198,0.036 0.0403,0.072 0.0605,0.108 0.0248,0.044 0.0493,0.088 0.0746,0.1322 0.015,0.026 0.0303,0.052 0.0455,0.078 0.0318,0.055 0.0636,0.109 0.0962,0.1631 0.0144,0.024 0.0289,0.047 0.0434,0.071 0.0306,0.05 0.0613,0.1002 0.0925,0.1499 0.0217,0.035 0.0439,0.069 0.066,0.1036 0.0271,0.042 0.0541,0.085 0.0816,0.1267 0.0212,0.032 0.0428,0.064 0.0642,0.097 0.0278,0.042 0.0555,0.083 0.0837,0.1245 0.0232,0.034 0.0467,0.068 0.0702,0.1014 0.0275,0.039 0.055,0.079 0.0828,0.1179 0.0242,0.034 0.0484,0.068 0.0728,0.1013 0.0279,0.038 0.0557,0.077 0.0839,0.1146 0.0236,0.032 0.0474,0.063 0.0712,0.095 0.0288,0.038 0.0576,0.076 0.0865,0.1135 0.025,0.032 0.0502,0.064 0.0753,0.096 0.0294,0.037 0.059,0.074 0.0887,0.1112 0.0233,0.029 0.0467,0.058 0.0702,0.086 0.0311,0.038 0.0623,0.075 0.0936,0.1126 0.0242,0.029 0.0483,0.057 0.0726,0.085 0.0288,0.034 0.0576,0.066 0.0865,0.099 0.0281,0.032 0.0563,0.064 0.0846,0.095 0.0257,0.029 0.0515,0.056 0.0773,0.084 0.0296,0.032 0.0592,0.064 0.0889,0.096 0.0293,0.031 0.0588,0.061 0.0882,0.091 0.0243,0.025 0.0486,0.05 0.073,0.075 0.01,0.01 0.0191,0.02 0.0287,0.029 l 10.39423,10.3942 c 10.27637,-0.4963 18.516285,-8.7479 18.995934,-19.0279 L 33.85319,1019.1845 c -0.0163,-0.016 -0.0306,-0.029 -0.0464,-0.044 -0.0294,-0.029 -0.0588,-0.057 -0.0869,-0.083 -0.0338,-0.032 -0.0669,-0.061 -0.099,-0.089 -0.0341,-0.03 -0.0687,-0.06 -0.10132,-0.086 -0.008,-0.01 -0.0169,-0.014 -0.0251,-0.02 -0.009,-0.01 -0.018,-0.013 -0.0269,-0.02 -0.0183,-0.014 -0.0366,-0.027 -0.0546,-0.04 -0.0116,-0.01 -0.0231,-0.015 -0.0346,-0.023 -0.0139,-0.01 -0.0278,-0.018 -0.0416,-0.027 -0.0132,-0.01 -0.0266,-0.016 -0.0398,-0.023 -0.0141,-0.01 -0.0282,-0.016 -0.0423,-0.023 -0.0121,-0.01 -0.0243,-0.012 -0.0364,-0.018 -0.0136,-0.01 -0.0273,-0.013 -0.041,-0.019 -0.0131,-0.01 -0.0262,-0.011 -0.0395,-0.017 -0.0143,-0.01 -0.0288,-0.011 -0.0432,-0.016 -0.012,0 -0.0239,-0.01 -0.0361,-0.012 -0.0164,-0.01 -0.0332,-0.01 -0.05,-0.015 -0.0105,0 -0.021,-0.01 -0.0316,-0.01 -0.0176,0 -0.0355,-0.01 -0.0535,-0.012 -0.0115,0 -0.0229,0 -0.0346,-0.01 -0.0164,0 -0.0333,-0.01 -0.0502,-0.01 -0.0132,0 -0.0263,0 -0.0398,-0.01 -0.0194,0 -0.0396,0 -0.0596,-0.01 -0.0106,-9e-4 -0.0209,0 -0.0318,0 -0.0652,0 -0.13385,-0.01 -0.20748,-0.01 -0.49994,0 -0.825,0.1358 -1.15948,0.4699 -0.34799,0.3477 -0.47051,0.6565 -0.46969,1.1828 9.2e-4,0.555 0.12014,0.8111 0.64228,1.375 1.35215,1.4605 2.23452,3.11 2.624,4.8897 0.0123,0.056 0.0237,0.1131 0.035,0.1697 l -3.97817,-3.9782 -0.003,0 c -0.60819,-0.6079 -0.88319,-0.7467 -1.4764,-0.7454 -0.38217,9e-4 -0.45178,0.018 -0.76232,0.1883 -0.60802,0.3331 -0.93482,0.9252 -0.881,1.5958 0.0355,0.4431 0.2252,0.7879 0.70202,1.2765 0.71107,0.7286 1.18761,1.5725 1.42588,2.5255 0.0628,0.2508 0.0887,0.5771 0.0887,1.1167 0,0.1 -0.002,0.1851 -0.004,0.271 l -2.64447,-2.6444 c -0.007,-0.01 -0.014,-0.013 -0.0207,-0.019 -0.0356,-0.035 -0.072,-0.069 -0.10917,-0.1028 -0.009,-0.01 -0.0184,-0.017 -0.0277,-0.025 -0.0453,-0.04 -0.0914,-0.079 -0.13932,-0.1163 -0.009,-0.01 -0.0187,-0.014 -0.028,-0.022 -0.0398,-0.031 -0.0805,-0.061 -0.12188,-0.09 -0.0123,-0.01 -0.0245,-0.017 -0.0369,-0.026 -0.0494,-0.034 -0.0999,-0.067 -0.15129,-0.098 -0.0101,-0.01 -0.0205,-0.012 -0.0307,-0.018 -0.0443,-0.026 -0.0893,-0.052 -0.13494,-0.076 -0.0139,-0.01 -0.0278,-0.015 -0.0417,-0.022 -0.0547,-0.028 -0.11019,-0.056 -0.16683,-0.082 -0.005,0 -0.0112,0 -0.0166,-0.01 -0.0518,-0.023 -0.10443,-0.045 -0.15778,-0.066 -0.0153,-0.01 -0.0306,-0.012 -0.0461,-0.018 -0.0595,-0.022 -0.1195,-0.043 -0.1808,-0.062 -0.31063,-0.097 -0.78653,-0.1334 -1.22123,-0.1091 -0.0379,0 -0.0737,0.01 -0.11083,0.01 l -2.89178,-2.8918 c -0.28176,-0.2818 -0.52962,-0.4156 -0.88063,-0.4624 l -2.9223,-2.9223 c -0.0128,-0.013 -0.0269,-0.024 -0.0401,-0.037 -0.0156,-0.015 -0.0311,-0.029 -0.0473,-0.043 -0.0226,-0.02 -0.0462,-0.038 -0.07,-0.057 -0.0164,-0.013 -0.0324,-0.026 -0.0494,-0.039 -0.0294,-0.021 -0.0601,-0.042 -0.0912,-0.061 -0.0124,-0.01 -0.0243,-0.016 -0.0369,-0.024 -0.0452,-0.027 -0.0914,-0.053 -0.14024,-0.077 -0.21041,-0.1023 -0.3469,-0.1282 -0.68357,-0.1292"
       id="path110" />
    <path
       style="fill:#ffffff"
       inkscape:connector-curvature="0"
       d="m 15.57005,1038.6468 c -0.33804,-0.1117 -0.45105,-0.1883 -0.86063,-0.5825 -0.9191,-0.8843 -1.82348,-2.1471 -2.47316,-3.4526 -0.66758,-1.3409 -1.08866,-2.6945 -1.29898,-4.176 -0.13421,-0.9448 -0.13421,-2.6829 0,-3.6277 0.39934,-2.8122 1.64543,-5.4114 3.54593,-7.3949 0.68924,-0.7194 0.94523,-0.8602 1.56046,-0.8583 0.33667,10e-4 0.47307,0.027 0.68348,0.1292 0.80462,0.3915 1.17281,1.3022 0.86209,2.1326 -0.0805,0.215 -0.22037,0.4124 -0.51391,0.7249 -0.85661,0.912 -1.39976,1.692 -1.8996,2.7277 -1.32995,2.7555 -1.32995,5.9495 0,8.7049 0.49984,1.0358 1.04308,1.8158 1.8996,2.7277 0.29354,0.3126 0.43342,0.5099 0.51391,0.7249 0.30222,0.8076 -0.0529,1.7377 -0.80371,2.105 -0.33996,0.1663 -0.89928,0.2192 -1.21502,0.1147 m 16.56114,0.021 c -0.47197,-0.1142 -0.90822,-0.4706 -1.13033,-0.9237 -0.10607,-0.2164 -0.12891,-0.342 -0.12891,-0.7098 0,-0.5675 0.11192,-0.811 0.62574,-1.3618 1.88625,-2.0219 2.86794,-4.4352 2.86794,-7.0504 0,-2.6073 -0.972,-5.0047 -2.85323,-7.0367 -0.52204,-0.5641 -0.64136,-0.8201 -0.64227,-1.375 -8.3e-4,-0.5263 0.12169,-0.8351 0.46969,-1.1829 0.33429,-0.3341 0.65954,-0.4659 1.15947,-0.4699 0.60061,0 0.8821,0.1377 1.4627,0.7405 0.98972,1.0273 1.73313,2.0932 2.37815,3.4096 0.65853,1.3438 1.01228,2.4667 1.24179,3.9432 0.15193,0.9765 0.16472,2.8331 0.0261,3.7851 -0.33584,2.3078 -1.23804,4.4886 -2.60353,6.2938 -0.47673,0.6302 -1.27514,1.4996 -1.54758,1.6853 -0.37851,0.2578 -0.89671,0.3566 -1.32593,0.2527 m -12.78516,-3.3886 c -0.30332,-0.099 -0.55274,-0.2614 -0.76845,-0.5006 -0.10077,-0.1116 -0.2073,-0.2116 -0.23672,-0.2223 -0.0294,-0.011 -0.18537,-0.1677 -0.34653,-0.3488 -1.70362,-1.9151 -2.43908,-4.5106 -2,-7.0577 0.18017,-1.0454 0.67608,-2.2806 1.27331,-3.1717 0.31574,-0.4713 0.99712,-1.2973 1.07003,-1.2973 0.0236,0 0.14051,-0.106 0.25992,-0.2355 0.11941,-0.1296 0.35056,-0.301 0.51373,-0.3812 0.25307,-0.1242 0.35841,-0.145 0.71719,-0.1409 0.52314,0.01 0.82152,0.1283 1.17655,0.4834 0.46047,0.4604 0.60318,1.1494 0.36819,1.7782 -0.0866,0.2314 -0.21168,0.4005 -0.55575,0.7512 -0.75803,0.7725 -1.22982,1.5954 -1.47367,2.5691 -0.12251,0.4898 -0.12251,1.7432 0,2.2331 0.24367,0.9743 0.71528,1.7974 1.47367,2.5719 0.3437,0.3509 0.47088,0.5227 0.55639,0.7512 0.4019,1.0741 -0.32652,2.2109 -1.45539,2.2707 -0.20794,0.011 -0.44301,-0.011 -0.57238,-0.053 m 9.00004,0.027 c -0.4833,-0.1265 -0.90905,-0.4756 -1.13032,-0.9269 -0.10589,-0.2159 -0.12901,-0.3427 -0.12946,-0.7098 -5.5e-4,-0.3882 0.0188,-0.4839 0.14672,-0.7279 0.081,-0.1545 0.32525,-0.4621 0.54288,-0.6835 0.7054,-0.7176 1.18459,-1.5659 1.42295,-2.5193 0.0627,-0.2507 0.0886,-0.577 0.0886,-1.1167 0,-0.5396 -0.0259,-0.8658 -0.0886,-1.1166 -0.23827,-0.953 -0.7149,-1.797 -1.42597,-2.5256 -0.47682,-0.4885 -0.66648,-0.8334 -0.70202,-1.2764 -0.0538,-0.6706 0.27299,-1.2626 0.881,-1.5957 0.31054,-0.1702 0.38015,-0.1874 0.76232,-0.1882 0.59321,0 0.86821,0.1375 1.47641,0.7453 3.32008,3.3173 3.31825,8.6227 -0.004,11.9181 -0.55091,0.5462 -0.86839,0.7207 -1.35964,0.7474 -0.17752,0.01 -0.39377,0 -0.48048,-0.024 m -4.67954,-3.369 c -0.35759,-0.077 -0.81998,-0.2563 -1.12403,-0.4358 -0.37431,-0.221 -0.93033,-0.778 -1.15307,-1.1551 -1.11042,-1.8802 -0.17149,-4.2935 1.92499,-4.9482 0.497,-0.1551 1.41747,-0.1551 1.91448,0 1.49724,0.4673 2.47773,1.8669 2.39094,3.4124 -0.0474,0.8464 -0.37669,1.5736 -0.9857,2.177 -0.64136,0.636 -1.34265,0.9423 -2.23142,0.9751 -0.28916,0.011 -0.62062,0 -0.73638,-0.026"
       id="path112" />
  </g>
</svg>
