<?xml version="1.0" encoding="UTF-8" standalone="no"?>
<!-- Created using Karbon, part of Calligra: http://www.calligra.org/karbon -->

<svg
   xmlns:dc="http://purl.org/dc/elements/1.1/"
   xmlns:cc="http://creativecommons.org/ns#"
   xmlns:rdf="http://www.w3.org/1999/02/22-rdf-syntax-ns#"
   xmlns:svg="http://www.w3.org/2000/svg"
   xmlns="http://www.w3.org/2000/svg"
   xmlns:sodipodi="http://sodipodi.sourceforge.net/DTD/sodipodi-0.dtd"
   xmlns:inkscape="http://www.inkscape.org/namespaces/inkscape"
   width="38.4pt"
   height="38.4pt"
   id="svg2"
   version="1.1"
   inkscape:version="0.48.5 r10040"
   sodipodi:docname="love.svg">
  <metadata
     id="metadata11">
    <rdf:RDF>
      <cc:Work
         rdf:about="">
        <dc:format>image/svg+xml</dc:format>
        <dc:type
           rdf:resource="http://purl.org/dc/dcmitype/StillImage" />
        <dc:title />
      </cc:Work>
    </rdf:RDF>
  </metadata>
  <sodipodi:namedview
     pagecolor="#ffffff"
     bordercolor="#666666"
     borderopacity="1"
     objecttolerance="10"
     gridtolerance="10"
     guidetolerance="10"
     inkscape:pageopacity="0"
     inkscape:pageshadow="2"
     inkscape:window-width="1920"
     inkscape:window-height="1035"
     id="namedview9"
     showgrid="false"
     inkscape:showpageshadow="false"
     borderlayer="true"
     inkscape:zoom="6.9532164"
     inkscape:cx="24.297858"
     inkscape:cy="24.178715"
     inkscape:window-x="-4"
     inkscape:window-y="29"
     inkscape:window-maximized="1"
     inkscape:current-layer="svg2">
    <sodipodi:guide
       position="9.5367432e-07,48.000001"
       orientation="47.999999,0"
       id="guide4067" />
    <sodipodi:guide
       position="9.5367432e-07,1.9073486e-06"
       orientation="0,47.999999"
       id="guide4069" />
    <sodipodi:guide
       position="48,1.9073486e-06"
       orientation="-47.999999,0"
       id="guide4071" />
    <sodipodi:guide
       position="48,48.000001"
       orientation="0,-47.999999"
       id="guide4073" />
    <sodipodi:guide
       position="4.000001,44.000001"
       orientation="39.999999,0"
       id="guide4133" />
    <sodipodi:guide
       position="4.000001,4.0000019"
       orientation="0,39.999999"
       id="guide4135" />
    <sodipodi:guide
       position="44,4.0000019"
       orientation="-39.999999,0"
       id="guide4137" />
    <sodipodi:guide
       position="44,44.000001"
       orientation="0,-39.999999"
       id="guide4139" />
  </sodipodi:namedview>
  <defs
     id="defs4" />
  <rect
     style="fill:#2980b9;fill-rule:evenodd;stroke:none;fill-opacity:1"
     y="4.000001"
     x="4.000001"
     ry="20"
     height="40"
     width="40"
     stroke-miterlimit="2.01260185242"
     id="shape01" />
  <g
     id="g3245"
     transform="matrix(0.24983938,0,0,0.24983532,40.850972,-25.410636)">
    <g
       transform="translate(-193.33512,137.73327)"
       id="g3126">
      <path
         style="fill:#ffffff;fill-opacity:1"
         d="m 124.279,10.335 c 0,5.522848 -4.47715,10 -10,10 -5.52285,0 -10,-4.477152 -10,-10 0,-5.5228475 4.47715,-9.99999996 10,-9.99999996 5.52285,0 10,4.47715246 10,9.99999996 z"
         id="circle3128"
         inkscape:connector-curvature="0" />
      <path
         style="fill:#ffffff;fill-opacity:1"
         d="m 149.612,10 c 0,5.522847 -4.47715,10 -10,10 -5.52285,0 -10,-4.477153 -10,-10 0,-5.5228475 4.47715,-10 10,-10 5.52285,0 10,4.4771525 10,10 z"
         id="circle3130"
         inkscape:connector-curvature="0" />
    </g>
    <g
       transform="translate(-193.33512,137.73327)"
       id="g3138">
      <g
         id="g3140">
        <path
           id="path3142"
           d="m 126.419,29.906 c -55.287,0 -55.475,85.041 -0.353,85.041 55.04,0 55.854,-85.041 0.353,-85.041"
           inkscape:connector-curvature="0"
           style="fill:none" />
        <path
           id="path3144"
           d="m 126.419,24.906 c -16.061,0.162 -30.552,7.196 -39.236,20.915 -7.67,12.116 -9.111,27.837 -5.282,41.478 4.06,14.461 14.838,25.804 29.094,30.463 15.53,5.076 33.615,1.679 46.006,-8.884 14.374,-12.252 18.58,-33.677 13.679,-51.324 -5.627,-20.263 -23.637,-32.441 -44.261,-32.648 -6.451,-0.065 -6.445,9.935 0,10 14.639,0.147 27.712,7.472 33.298,21.396 5.004,12.474 3.672,27.057 -3.529,38.379 -8.21,12.908 -24.446,17.367 -38.892,14.402 C 103.223,106.194 93.794,95.09 90.733,81.426 88.358,70.821 90.469,59.316 96.258,50.172 c 6.572,-10.381 18.226,-15.146 30.161,-15.266 6.445,-0.065 6.452,-10.065 0,-10 l 0,0 z"
           inkscape:connector-curvature="0"
           style="fill:#ffffff;fill-opacity:1" />
      </g>
    </g>
  </g>
</svg>
