<?xml version="1.0" encoding="UTF-8" standalone="no"?>
<!-- Created with Inkscape (http://www.inkscape.org/) -->

<svg
   xmlns:dc="http://purl.org/dc/elements/1.1/"
   xmlns:cc="http://creativecommons.org/ns#"
   xmlns:rdf="http://www.w3.org/1999/02/22-rdf-syntax-ns#"
   xmlns:svg="http://www.w3.org/2000/svg"
   xmlns="http://www.w3.org/2000/svg"
   xmlns:sodipodi="http://sodipodi.sourceforge.net/DTD/sodipodi-0.dtd"
   xmlns:inkscape="http://www.inkscape.org/namespaces/inkscape"
   width="48"
   height="48"
   id="svg2"
   version="1.1"
   inkscape:version="0.48.5 r10040"
   viewBox="0 0 47.999998 48.000001"
   sodipodi:docname="mendeley.svg"
   inkscape:export-filename="/home/pacomaro/.icons/flattr/apps/22/banshee.png"
   inkscape:export-xdpi="41.25"
   inkscape:export-ydpi="41.25">
  <defs
     id="defs4">
    <clipPath
       id="clipPath3888">
      <path
         d="m 34.405054,29.694011 c -1.445208,0.02254 -2.919206,0.387911 -4.351152,1.095614 -4.269072,2.10989 -6.01981,6.646131 -4.695487,12.051752 0.633127,2.584343 0.852059,6.07656 0.469548,7.481477 -0.542122,1.991087 -2.205522,3.033727 -4.883307,3.036415 -2.64526,0.0027 -5.246275,2.034052 -5.759799,4.507669 -0.525313,2.530457 0.07523,4.823108 1.721679,6.479773 1.935984,1.947973 4.622113,2.497148 6.949322,1.408646 3.369412,-1.575968 4.47335,-4.868513 3.036416,-8.984033 -0.692688,-1.983911 -0.724332,-2.250242 -0.375639,-3.505964 1.476071,-5.315659 13.601639,-5.704733 15.58902,-0.500852 0.469799,1.23015 0.392247,2.071774 -0.469549,4.225939 -0.527538,1.318622 -0.591657,1.777958 -0.500852,3.192931 0.165882,2.584715 1.40482,4.395911 3.8503,5.509373 1.488081,0.677544 4.581704,0.674543 6.041528,0 3.587923,-1.657947 4.934784,-5.252995 3.349448,-8.890124 -1.361707,-3.124041 -0.673576,-5.199696 2.191227,-6.636289 3.603721,-1.807133 8.809857,-1.394756 11.425687,0.907794 1.871634,1.64748 2.1514,3.073633 1.158221,5.916315 -1.318183,3.772926 -0.261956,7.036495 2.785989,8.671001 1.315819,0.70563 4.226039,0.70597 5.540676,0 1.190565,-0.639324 2.534692,-2.044816 2.973809,-3.099022 1.280899,-3.075078 0.233517,-6.944545 -2.285138,-8.420575 -0.87,-0.509852 -1.526557,-0.665364 -3.286841,-0.813885 -1.431395,-0.120772 -2.433179,-0.346881 -2.911203,-0.626065 -0.955475,-0.558027 -1.717812,-1.940421 -1.909498,-3.474661 -0.174487,-1.396503 0.214725,-4.87797 0.751278,-6.730199 0.554674,-1.914755 0.333157,-5.505878 -0.438245,-7.199747 -2.363621,-5.190107 -9.04051,-7.222371 -13.773432,-4.163333 -0.742332,0.479792 -1.694552,1.331941 -2.128621,1.878195 -1.521738,1.915054 -3.972708,4.36896 -4.726791,4.726791 -1.897458,0.900406 -3.845211,0.162547 -5.978921,-2.253834 -3.225307,-3.652591 -3.69738,-4.113581 -5.133733,-4.820702 -1.349446,-0.664331 -2.780731,-0.992937 -4.22594,-0.9704 z m 13.648219,10.643105 c 4.368792,-0.0072 7.338474,3.986758 6.104134,8.232756 -0.538316,1.851711 -2.30439,3.645287 -4.069423,4.163332 -1.510099,0.443218 -2.756009,0.465145 -4.163333,0.0313 -2.446752,-0.75425 -4.274141,-3.361467 -4.257242,-6.104135 0.01132,-1.835692 0.421587,-2.880766 1.690376,-4.257242 1.325034,-1.437485 2.759254,-2.062831 4.695488,-2.066015 z"
         inkscape:connector-curvature="0"
         id="path3890"
         style="color:#000000;fill:#ff00ff;fill-opacity:1;fill-rule:nonzero;stroke:none;stroke-width:1;marker:none;visibility:visible;display:inline;overflow:visible;enable-background:accumulate" />
    </clipPath>
    <filter
       color-interpolation-filters="sRGB"
       id="filter3892">
      <feGaussianBlur
         id="feGaussianBlur3894"
         stdDeviation="0.76960612" />
    </filter>
  </defs>
  <sodipodi:namedview
     id="base"
     pagecolor="#ffffff"
     bordercolor="#666666"
     borderopacity="1.0"
     inkscape:pageopacity="0.0"
     inkscape:pageshadow="2"
     inkscape:zoom="7.919596"
     inkscape:cx="53.506967"
     inkscape:cy="19.620532"
     inkscape:document-units="px"
     inkscape:current-layer="layer1"
     showgrid="false"
     borderlayer="true"
     inkscape:showpageshadow="false"
     units="px"
     inkscape:window-width="1920"
     inkscape:window-height="1035"
     inkscape:window-x="-4"
     inkscape:window-y="29"
     inkscape:window-maximized="1">
    <sodipodi:guide
       position="9.0000004,39.000018"
       orientation="29.999999,0"
       id="guide3266" />
    <sodipodi:guide
       position="9.0000004,9.0000182"
       orientation="0,30"
       id="guide3268" />
    <sodipodi:guide
       position="39.000001,9.0000182"
       orientation="-29.999999,0"
       id="guide3270" />
    <sodipodi:guide
       position="39.000001,39.000018"
       orientation="0,-30"
       id="guide3272" />
    <sodipodi:guide
       position="4.0000005,44.000017"
       orientation="39.999999,0"
       id="guide3276" />
    <sodipodi:guide
       position="4.0000005,4.0000183"
       orientation="0,40"
       id="guide3278" />
    <sodipodi:guide
       position="44.000001,4.0000183"
       orientation="-39.999999,0"
       id="guide3280" />
    <sodipodi:guide
       position="44.000001,44.000017"
       orientation="0,-40"
       id="guide3282" />
    <sodipodi:guide
       position="15,33.000018"
       orientation="18,0"
       id="guide4157" />
    <sodipodi:guide
       position="15,15.000018"
       orientation="0,18.000001"
       id="guide4159" />
    <sodipodi:guide
       position="33.000001,15.000018"
       orientation="-18,0"
       id="guide4161" />
    <sodipodi:guide
       position="33.000001,33.000018"
       orientation="0,-18.000001"
       id="guide4163" />
  </sodipodi:namedview>
  <metadata
     id="metadata7">
    <rdf:RDF>
      <cc:Work
         rdf:about="">
        <dc:format>image/svg+xml</dc:format>
        <dc:type
           rdf:resource="http://purl.org/dc/dcmitype/StillImage" />
        <dc:title />
      </cc:Work>
    </rdf:RDF>
  </metadata>
  <g
     inkscape:label="Capa 1"
     inkscape:groupmode="layer"
     id="layer1"
     transform="translate(0,-1004.3622)">
    <rect
       style="opacity:1;fill:#cd5c5c;fill-opacity:1;fill-rule:evenodd;stroke:none"
       id="rect3262"
       width="40"
       height="40"
       x="3.999999"
       y="1008.3622"
       ry="20" />
    <path
       style="color:#000000;fill:#ffffff;fill-opacity:1;fill-rule:nonzero;stroke:none;stroke-width:12;marker:none;visibility:visible;display:inline;overflow:visible;enable-background:accumulate"
       id="rect3837"
       inkscape:connector-curvature="0"
       d="m 17.820478,1020.0077 c -0.656913,0.01 -1.326912,0.1763 -1.977796,0.498 -1.940487,0.959 -2.736278,3.021 -2.134313,5.4782 0.287786,1.1747 0.3873,2.7621 0.213431,3.4007 -0.246419,0.905 -1.00251,1.379 -2.219685,1.3802 -1.202391,0 -2.3846703,0.9246 -2.6180903,2.049 -0.2387787,1.1502 0.034196,2.1923 0.7825813,2.9454 0.879993,0.8855 2.100961,1.1351 3.158783,0.6403 1.531551,-0.7163 2.033341,-2.213 1.380189,-4.0838 -0.314858,-0.9018 -0.329242,-1.0228 -0.170745,-1.5936 0.670941,-2.4162 6.182563,-2.5931 7.085919,-0.2277 0.213544,0.5592 0.178293,0.9418 -0.213432,1.9209 -0.23979,0.5994 -0.268935,0.8082 -0.22766,1.4514 0.0754,1.1749 0.638555,1.9982 1.750136,2.5044 0.676401,0.3079 2.082593,0.3066 2.746149,0 1.630875,-0.7537 2.243084,-2.3878 1.522477,-4.0411 -0.618958,-1.4201 -0.306171,-2.3636 0.996012,-3.0165 1.638055,-0.8215 4.00448,-0.6341 5.193494,0.4126 0.850743,0.7488 0.97791,1.3971 0.526464,2.6892 -0.599174,1.7151 -0.11907,3.1986 1.266359,3.9415 0.598099,0.3207 1.920927,0.3209 2.518489,0 0.541166,-0.2906 1.152133,-0.9295 1.351731,-1.4086 0.582228,-1.3979 0.106145,-3.1567 -1.038699,-3.8277 -0.395454,-0.2317 -0.693889,-0.3024 -1.494018,-0.3699 -0.650634,-0.055 -1.105991,-0.1577 -1.323274,-0.2846 -0.434307,-0.2536 -0.780824,-0.8821 -0.867954,-1.5794 -0.07931,-0.6348 0.0976,-2.2173 0.34149,-3.0593 0.252124,-0.8703 0.151435,-2.5026 -0.199202,-3.2726 -1.074373,-2.3592 -4.109323,-3.283 -6.260651,-1.8925 -0.337424,0.2181 -0.770251,0.6054 -0.967555,0.8538 -0.691699,0.8705 -1.805777,1.9859 -2.148542,2.1486 -0.86248,0.4092 -1.747823,0.073 -2.717691,-1.0245 -1.466049,-1.6603 -1.680628,-1.8699 -2.333515,-2.1913 -0.613385,-0.302 -1.263969,-0.4514 -1.920882,-0.4411 z m 6.203736,4.8378 c 1.985814,0 3.33567,1.8122 2.774607,3.7423 -0.244689,0.8416 -1.04745,1.657 -1.849738,1.8925 -0.686409,0.2014 -1.252732,0.2114 -1.892424,0.014 -1.11216,-0.3428 -1.942792,-1.528 -1.93511,-2.7746 0.0052,-0.8345 0.19163,-1.3095 0.768352,-1.9352 0.602288,-0.6534 1.254206,-0.9376 2.134313,-0.9391 z" />
  </g>
</svg>
