<?xml version="1.0" encoding="UTF-8" standalone="no"?>
<!-- Created using Karbon, part of Calligra: http://www.calligra.org/karbon -->

<svg
   xmlns:dc="http://purl.org/dc/elements/1.1/"
   xmlns:cc="http://creativecommons.org/ns#"
   xmlns:rdf="http://www.w3.org/1999/02/22-rdf-syntax-ns#"
   xmlns:svg="http://www.w3.org/2000/svg"
   xmlns="http://www.w3.org/2000/svg"
   xmlns:sodipodi="http://sodipodi.sourceforge.net/DTD/sodipodi-0.dtd"
   xmlns:inkscape="http://www.inkscape.org/namespaces/inkscape"
   width="38.4pt"
   height="38.4pt"
   id="svg2"
   version="1.1"
   inkscape:version="0.48.5 r10040"
   sodipodi:docname="monodevelop.svg">
  <metadata
     id="metadata11">
    <rdf:RDF>
      <cc:Work
         rdf:about="">
        <dc:format>image/svg+xml</dc:format>
        <dc:type
           rdf:resource="http://purl.org/dc/dcmitype/StillImage" />
        <dc:title />
      </cc:Work>
    </rdf:RDF>
  </metadata>
  <sodipodi:namedview
     pagecolor="#ffffff"
     bordercolor="#666666"
     borderopacity="1"
     objecttolerance="10"
     gridtolerance="10"
     guidetolerance="10"
     inkscape:pageopacity="0"
     inkscape:pageshadow="2"
     inkscape:window-width="1920"
     inkscape:window-height="1035"
     id="namedview9"
     showgrid="false"
     inkscape:showpageshadow="false"
     borderlayer="true"
     inkscape:zoom="9.8333329"
     inkscape:cx="23.420743"
     inkscape:cy="20.550452"
     inkscape:window-x="-4"
     inkscape:window-y="29"
     inkscape:window-maximized="1"
     inkscape:current-layer="svg2">
    <sodipodi:guide
       position="9.5367432e-07,48.000001"
       orientation="47.999999,0"
       id="guide4067" />
    <sodipodi:guide
       position="9.5367432e-07,1.9073486e-06"
       orientation="0,47.999999"
       id="guide4069" />
    <sodipodi:guide
       position="48,1.9073486e-06"
       orientation="-47.999999,0"
       id="guide4071" />
    <sodipodi:guide
       position="48,48.000001"
       orientation="0,-47.999999"
       id="guide4073" />
    <sodipodi:guide
       position="4.000001,44.000001"
       orientation="39.999999,0"
       id="guide4133" />
    <sodipodi:guide
       position="4.000001,4.0000019"
       orientation="0,39.999999"
       id="guide4135" />
    <sodipodi:guide
       position="44,4.0000019"
       orientation="-39.999999,0"
       id="guide4137" />
    <sodipodi:guide
       position="44,44.000001"
       orientation="0,-39.999999"
       id="guide4139" />
  </sodipodi:namedview>
  <defs
     id="defs4" />
  <rect
     style="fill:#2980b9;fill-rule:evenodd;stroke:none;fill-opacity:1"
     y="4.000001"
     x="4.000001"
     ry="20"
     height="40"
     width="40"
     stroke-miterlimit="2.01260185242"
     id="shape01" />
  <g
     transform="matrix(0.07657297,0,0,0.07657323,4.8091852,1.1670994)"
     id="g11934">
    <path
       d="m 393.30984,125.24176 c -25.60538,10.47999 -107.71467,44.60645 -109.76187,45.45812 -22.97213,-18.69893 -52.85054,-33.22739 -83.79676,-34.87081 -75.06646,-4.70516 -144.110865,61.7396 -144.325945,135.44996 -3.295464,66.36129 27.091914,127.73705 54.543755,186.36967 22.96627,-9.55022 106.47608,-44.24379 108.58164,-45.12194 22.54617,18.77948 51.42144,32.61795 81.5206,34.78678 73.86404,6.17754 142.51236,-57.4235 146.26483,-129.40003 5.36157,-67.32855 -25.77853,-129.61205 -51.93032,-189.81483 -0.38084,-0.93923 -0.71602,-1.9176 -1.09593,-2.85692 z"
       inkscape:connector-curvature="0"
       id="path3603"
       style="fill:#6495ed;fill-opacity:1;fill-rule:evenodd;stroke:none;display:inline" />
    <path
       d="M 127.09242,414.64316 C 110.89335,375.55857 89.417449,341.11431 88.940077,277.28271 c -0.49315,-65.94876 56.264553,-108.6458 101.123183,-108.6509 54.31114,-0.007 102.09618,45.70771 104.61582,83.57263 2.27397,34.17134 -9.92586,83.86837 -72.89633,83.49898 -30.06719,-0.17392 -61.30958,-26.24471 -61.47425,-65.03237 -0.17807,-41.8555 52.42796,-45.93875 65.69386,-35.28317 5.15299,4.13906 4.99545,12.32968 0.43658,10.85102 -28.32456,-9.19212 -45.82313,8.92422 -44.52364,26.94781 1.76409,24.45509 16.32054,39.00476 42.41397,40.24228 37.6399,1.78207 48.17729,-34.70441 47.21498,-49.51296 -1.16936,-18.00466 -16.9192,-55.03565 -65.91178,-61.80086 -23.13312,-3.19091 -42.30519,3.71522 -56.30948,17.2482 -14.00401,13.53417 -21.87719,27.5292 -23.02747,50.48651 -1.18963,23.74554 4.01167,37.6783 18.26044,68.83252 5.0896,11.12647 19.30614,33.57475 30.3157,56.05353 l -47.77902,19.90723 z"
       inkscape:connector-curvature="0"
       id="path3607"
       style="fill:#eeeeec;fill-opacity:1;fill-rule:evenodd;stroke:none;display:inline" />
    <path
       d="m 375.03087,168.63181 c 16.19925,39.08724 37.67497,73.53012 38.15243,137.36311 0.49315,65.94873 -56.26473,108.64579 -101.12318,108.64824 -54.31123,0.009 -102.09627,-45.70644 -104.61583,-83.56752 -2.27387,-34.17509 9.92577,-83.87339 72.89643,-83.50154 30.06719,0.17386 61.30959,26.2448 61.47425,65.03118 0.17807,41.85422 -52.42806,45.93993 -65.69395,35.28317 -5.1529,-4.13906 -4.99563,-12.32841 -0.43659,-10.85102 28.32448,9.19331 45.82288,-8.92549 44.52337,-26.9479 -1.764,-24.45499 -16.32036,-39.00212 -42.41379,-40.23965 -37.63981,-1.78205 -48.17729,34.70569 -47.21506,49.5117 1.16937,18.00456 16.9191,55.0381 65.91195,61.79823 23.13304,3.19226 42.30511,-3.71386 56.30921,-17.24685 14.00429,-13.53543 21.87756,-27.53047 23.02775,-50.48397 1.18963,-23.74679 -4.01185,-37.67829 -18.26063,-68.83261 -5.0895,-11.1302 -19.30621,-33.57346 -30.3155,-56.05479 l 47.77884,-19.90978 z"
       inkscape:connector-curvature="0"
       id="path3611"
       style="fill:#add8e6;fill-opacity:1;fill-rule:evenodd;stroke:none;display:inline" />
    <path
       d="m 189.98617,168.49263 c -44.85862,0.005 -101.524557,42.71616 -101.031295,108.66491 0.477657,63.83162 22.044405,98.31109 38.243495,137.39568 l 47.66165,-19.91242 c -4.2556,-8.68891 -8.91212,-17.00506 -13.41376,-25.03275 l -10.55977,0 0,-19.05902 c -2.59416,-4.65774 -4.85014,-8.82419 -6.27877,-11.94746 -14.24878,-31.15421 -19.45519,-45.09454 -18.26555,-68.84007 1.15027,-22.95731 9.11331,-36.81581 23.11733,-50.34997 14.00428,-13.53299 33.0905,-20.54316 56.22364,-17.35226 23.16846,3.19928 38.81483,13.22513 49.08865,24.7483 l 9.70357,0 0,14.22315 c 4.41725,8.49985 6.74099,16.69139 7.13498,22.75706 0.42744,6.57914 -1.65449,17.42852 -7.13498,27.30845 l 0,33.85112 c 26.03042,-16.42477 31.86836,-48.53852 30.25231,-72.82257 -2.51964,-37.86491 -50.43035,-83.63844 -104.7415,-83.63215 z"
       inkscape:connector-curvature="0"
       id="path3613"
       style="fill:#f5f5f5;fill-opacity:1;fill-rule:evenodd;stroke:none;display:inline" />
    <path
       d="m 55.178982,285.1384 c -0.625739,63.31858 28.370451,122.16568 54.721008,178.44614 22.96628,-9.55022 106.59449,-44.19712 108.70004,-45.07527 22.54618,18.77948 51.33313,32.51872 81.43228,34.68756 73.86404,6.17754 142.60304,-57.31345 146.35551,-129.28998 0.45511,-5.71506 0.60201,-11.42137 0.55649,-17.06554 -0.0806,3.68373 -0.26076,7.41576 -0.55649,11.1297 -3.75247,71.97653 -72.49147,135.46752 -146.35551,129.28998 -30.09915,-2.16883 -58.8861,-15.90808 -81.43228,-34.68756 -2.10555,0.87816 -85.73376,35.52505 -108.70004,45.07527 C 84.371428,403.12389 56.336244,346.21102 55.178982,285.1384 z"
       inkscape:connector-curvature="0"
       id="path3838"
       style="opacity:0.4;fill:#ffffff;fill-opacity:1;fill-rule:evenodd;stroke:none;display:inline" />
  </g>
</svg>
