<?xml version="1.0" encoding="UTF-8" standalone="no"?>
<!-- Created using Karbon, part of Calligra: http://www.calligra.org/karbon -->

<svg
   xmlns:dc="http://purl.org/dc/elements/1.1/"
   xmlns:cc="http://creativecommons.org/ns#"
   xmlns:rdf="http://www.w3.org/1999/02/22-rdf-syntax-ns#"
   xmlns:svg="http://www.w3.org/2000/svg"
   xmlns="http://www.w3.org/2000/svg"
   xmlns:sodipodi="http://sodipodi.sourceforge.net/DTD/sodipodi-0.dtd"
   xmlns:inkscape="http://www.inkscape.org/namespaces/inkscape"
   width="38.4pt"
   height="38.4pt"
   id="svg2"
   version="1.1"
   inkscape:version="0.48.5 r10040"
   sodipodi:docname="mrim-old.svg">
  <metadata
     id="metadata11">
    <rdf:RDF>
      <cc:Work
         rdf:about="">
        <dc:format>image/svg+xml</dc:format>
        <dc:type
           rdf:resource="http://purl.org/dc/dcmitype/StillImage" />
        <dc:title />
      </cc:Work>
    </rdf:RDF>
  </metadata>
  <sodipodi:namedview
     pagecolor="#ffffff"
     bordercolor="#666666"
     borderopacity="1"
     objecttolerance="10"
     gridtolerance="10"
     guidetolerance="10"
     inkscape:pageopacity="0"
     inkscape:pageshadow="2"
     inkscape:window-width="1920"
     inkscape:window-height="1035"
     id="namedview9"
     showgrid="false"
     inkscape:showpageshadow="false"
     borderlayer="true"
     inkscape:zoom="9.8333329"
     inkscape:cx="23.420743"
     inkscape:cy="20.550452"
     inkscape:window-x="-4"
     inkscape:window-y="29"
     inkscape:window-maximized="1"
     inkscape:current-layer="svg2">
    <sodipodi:guide
       position="9.5367432e-07,48.000001"
       orientation="47.999999,0"
       id="guide4067" />
    <sodipodi:guide
       position="9.5367432e-07,1.9073486e-06"
       orientation="0,47.999999"
       id="guide4069" />
    <sodipodi:guide
       position="48,1.9073486e-06"
       orientation="-47.999999,0"
       id="guide4071" />
    <sodipodi:guide
       position="48,48.000001"
       orientation="0,-47.999999"
       id="guide4073" />
    <sodipodi:guide
       position="4.000001,44.000001"
       orientation="39.999999,0"
       id="guide4133" />
    <sodipodi:guide
       position="4.000001,4.0000019"
       orientation="0,39.999999"
       id="guide4135" />
    <sodipodi:guide
       position="44,4.0000019"
       orientation="-39.999999,0"
       id="guide4137" />
    <sodipodi:guide
       position="44,44.000001"
       orientation="0,-39.999999"
       id="guide4139" />
  </sodipodi:namedview>
  <defs
     id="defs4" />
  <path
     id="path20"
     d="m 23.696846,12.25774 3.45e-4,0 0,0.009 c 3.099773,2.9e-4 5.914503,1.19485 8.007601,3.14676 0.38709,-0.36203 0.90708,-0.58352 1.479006,-0.58352 1.195794,0 2.165507,0.96939 2.165507,2.16516 0,4.74245 0,9.39844 0,14.14181 0,2.32494 1.883205,3.08535 3.024924,0.39197 0.532211,-1.25412 0.861558,-2.82415 1.056782,-4.25669 0.177811,-1.30728 0.237997,-2.51497 0.237997,-3.27172 l 0,-10e-4 0.0086,0 C 39.677572,19.67957 37.920237,15.7623 35.079847,12.92166 32.238843,10.08071 28.321199,8.3231 24.000577,8.3231 l 0,0.009 -3.44e-4,0 -0.0014,0 0,-0.009 c -4.319815,3.1e-4 -8.237459,1.75761 -11.07785,4.59825 -2.841096,2.84064 -4.598644,6.75822 -4.598736,11.07875 l 0.0085,0 0,8.7e-4 0,0.001 -0.0085,0 c 2.59e-4,4.31993 1.75764,8.2372 4.598125,11.07785 2.841002,2.84064 6.758646,4.59824 11.07896,4.59855 l 0,-0.009 3.44e-4,0 c 1.477482,0 2.892025,-0.19797 4.219805,-0.56764 0.260298,-0.0724 0.517544,-0.15153 0.770819,-0.23646 0.219972,-0.0739 0.47355,-0.16742 0.759208,-0.28016 l 0.0025,-6.9e-4 c 1.111778,-0.43443 2.365316,0.11488 2.799759,1.22663 0.434447,1.11176 -0.114569,2.36527 -1.226346,2.7994 l -0.0025,10e-4 c -0.281075,0.1106 -0.601868,0.22669 -0.96238,0.34767 -0.327206,0.10968 -0.657776,0.21142 -0.990787,0.30399 C 27.646331,43.74307 25.844388,44 23.999676,44 l -3.44e-4,0 0,-0.009 C 18.472227,43.991 13.472441,41.75496 9.858417,38.14076 6.244639,34.52626 4.008866,29.52718 4.0085,24.00048 l -0.0085,0 0,-0.001 0,-3.5e-4 0.0085,0 c 1.89e-4,-5.52741 2.236139,-10.5268 5.850345,-14.141 3.613901,-3.613587 8.613076,-5.849319 14.139876,-5.849625 l 0,-0.0086 0.0012,0 3.45e-4,0 0,0.0086 c 5.527415,0 10.526897,2.236038 14.141164,5.850235 3.61396,3.61359 5.849735,8.61298 5.850037,14.13967 l 0.0083,0 0,0.001 c 0,0.85727 -0.07302,2.26109 -0.289021,3.847 -0.266105,1.9568 -0.758596,4.1684 -1.617408,5.93761 -1.094053,2.25376 -2.752095,3.85953 -5.233809,3.85953 -0.207142,0 -0.446973,-0.018 -0.720718,-0.0553 l -0.0165,-0.003 -3.45e-4,0.003 -0.0666,-0.01 c -0.06782,-0.01 -0.134427,-0.0223 -0.199806,-0.0379 -0.277411,-0.051 -0.552376,-0.12129 -0.819705,-0.2111 -0.327512,-0.10999 -0.655636,-0.25205 -0.975819,-0.4268 -1.338165,-0.73017 -2.493019,-1.99316 -2.888054,-3.84883 -2.026797,1.67328 -4.630416,2.67903 -7.473864,2.67933 l 0,0.009 -0.0014,0 -3.44e-4,0 0,-0.009 c -3.24739,-1.7e-4 -6.182492,-1.31184 -8.302168,-3.43147 -2.119355,-2.11935 -3.43094,-5.05409 -3.431245,-8.30106 l -0.0083,0 0,-10e-4 0,-5.2e-4 0.0083,0 c 2.41e-4,-3.24722 1.311827,-6.18258 3.431504,-8.30222 2.119372,-2.11902 5.054167,-3.43058 8.301202,-3.43089 l 0,-0.009 0.0014,0 z m 5.240838,6.50189 c -1.346413,-1.34639 -3.19968,-2.17952 -5.240228,-2.17982 l 0,0.009 -6.89e-4,0 -0.0014,0 0,-0.009 c -2.039937,3.1e-4 -3.893202,0.83343 -5.239309,2.17952 -1.346414,1.34639 -2.179559,3.19962 -2.179559,5.24012 l 0.0086,0 0,8.7e-4 0,0.001 -0.0086,0 c 2.07e-4,2.03991 0.833145,3.89313 2.179253,5.23922 1.346413,1.34638 3.199983,2.17952 5.240229,2.17952 l 0,-0.008 6.9e-4,0 0.0014,0 0,0.008 c 2.040241,-1.8e-4 3.893202,-0.83314 5.239312,-2.17922 2.843749,-2.8437 2.844058,-7.63747 1.73e-4,-10.48117 z"
     style="fill:#bb6d05;fill-opacity:1;stroke:none"
     inkscape:connector-curvature="0" />
</svg>
