<?xml version="1.0" encoding="UTF-8" standalone="no"?>
<!-- Created with Inkscape (http://www.inkscape.org/) -->

<svg
   xmlns:dc="http://purl.org/dc/elements/1.1/"
   xmlns:cc="http://creativecommons.org/ns#"
   xmlns:rdf="http://www.w3.org/1999/02/22-rdf-syntax-ns#"
   xmlns:svg="http://www.w3.org/2000/svg"
   xmlns="http://www.w3.org/2000/svg"
   xmlns:xlink="http://www.w3.org/1999/xlink"
   xmlns:sodipodi="http://sodipodi.sourceforge.net/DTD/sodipodi-0.dtd"
   xmlns:inkscape="http://www.inkscape.org/namespaces/inkscape"
   width="48"
   height="48"
   id="svg5453"
   version="1.1"
   inkscape:version="0.48.5 r10040"
   sodipodi:docname="network.svg">
  <defs
     id="defs5455">
    <linearGradient
       inkscape:collect="always"
       xlink:href="#linearGradient4143"
       id="linearGradient4174"
       x1="409.57144"
       y1="543.79797"
       x2="409.57144"
       y2="503.798"
       gradientUnits="userSpaceOnUse" />
    <linearGradient
       id="linearGradient4143"
       inkscape:collect="always">
      <stop
         id="stop4145"
         offset="0"
         style="stop-color:#197cf1;stop-opacity:1" />
      <stop
         id="stop4147"
         offset="1"
         style="stop-color:#20bcfa;stop-opacity:1" />
    </linearGradient>
    <linearGradient
       inkscape:collect="always"
       id="linearGradient4290">
      <stop
         style="stop-color:#7cbaf8;stop-opacity:1"
         offset="0"
         id="stop4292" />
      <stop
         style="stop-color:#f4fcff;stop-opacity:1"
         offset="1"
         id="stop4294" />
    </linearGradient>
    <linearGradient
       gradientTransform="matrix(1.5001744,0,0,1.5001744,-0.04086,-0.01016)"
       gradientUnits="userSpaceOnUse"
       y2="1.999974"
       x2="16.000011"
       y1="29.999973"
       x1="16.000011"
       id="linearGradient4161-1"
       xlink:href="#linearGradient4290"
       inkscape:collect="always" />
    <linearGradient
       gradientTransform="matrix(0.09136175,0,0,0.09136175,385.45325,500.67891)"
       id="0"
       gradientUnits="userSpaceOnUse"
       x2="0"
       y2="471.66"
       y1="33.752998">
      <stop
         id="stop21"
         stop-color="#6a6a6a"
         offset="0" />
      <stop
         id="stop23"
         offset=".47" />
      <stop
         id="stop25"
         stop-color="#fff"
         offset=".494" />
      <stop
         id="stop27"
         stop-color="#fff"
         offset=".901" />
      <stop
         id="stop29"
         offset=".955" />
      <stop
         id="stop31"
         offset="1" />
    </linearGradient>
  </defs>
  <sodipodi:namedview
     id="base"
     pagecolor="#ffffff"
     bordercolor="#666666"
     borderopacity="1.0"
     inkscape:pageopacity="0"
     inkscape:pageshadow="2"
     inkscape:zoom="8.251953"
     inkscape:cx="9.272428"
     inkscape:cy="21.606925"
     inkscape:document-units="px"
     inkscape:current-layer="layer1"
     showgrid="true"
     fit-margin-top="0"
     fit-margin-left="0"
     fit-margin-right="0"
     fit-margin-bottom="0"
     inkscape:window-width="1920"
     inkscape:window-height="1025"
     inkscape:window-x="-4"
     inkscape:window-y="39"
     inkscape:window-maximized="1"
     inkscape:showpageshadow="false"
     borderlayer="true"
     showguides="true">
    <inkscape:grid
       type="xygrid"
       id="grid4063" />
    <sodipodi:guide
       position="1.1650391e-05,47.999996"
       orientation="4,0"
       id="guide4146" />
    <sodipodi:guide
       position="1.1650391e-05,43.999996"
       orientation="0,48"
       id="guide4148" />
    <sodipodi:guide
       position="48.000012,43.999996"
       orientation="-4,0"
       id="guide4150" />
    <sodipodi:guide
       position="48.000012,47.999996"
       orientation="0,-48"
       id="guide4152" />
    <sodipodi:guide
       position="1.1650391e-05,4.0000264"
       orientation="4,0"
       id="guide4154" />
    <sodipodi:guide
       position="1.1650391e-05,2.6367188e-05"
       orientation="0,48"
       id="guide4156" />
    <sodipodi:guide
       position="48.000012,2.6367188e-05"
       orientation="-4,0"
       id="guide4158" />
    <sodipodi:guide
       position="48.000012,4.0000264"
       orientation="0,-48"
       id="guide4160" />
    <sodipodi:guide
       position="48.000012,48.000026"
       orientation="0,-4"
       id="guide4162" />
    <sodipodi:guide
       position="44.000012,48.000026"
       orientation="48,0"
       id="guide4164" />
    <sodipodi:guide
       position="44.000012,2.6367188e-05"
       orientation="0,4"
       id="guide4166" />
    <sodipodi:guide
       position="48.000012,2.6367188e-05"
       orientation="-48,0"
       id="guide4168" />
    <sodipodi:guide
       position="4.0000422,48.000026"
       orientation="0,-4"
       id="guide4170" />
    <sodipodi:guide
       position="4.2167969e-05,48.000026"
       orientation="48,0"
       id="guide4172" />
    <sodipodi:guide
       position="4.2167969e-05,2.6367188e-05"
       orientation="0,4"
       id="guide4174" />
    <sodipodi:guide
       position="4.0000422,2.6367188e-05"
       orientation="-48,0"
       id="guide4176" />
    <sodipodi:guide
       position="4.0000117,47.999996"
       orientation="43.999969,0"
       id="guide4638" />
    <sodipodi:guide
       position="4.0000117,4.0000264"
       orientation="0,20"
       id="guide4640" />
    <sodipodi:guide
       position="24.000012,4.0000264"
       orientation="-43.999969,0"
       id="guide4642" />
    <sodipodi:guide
       position="24.000012,47.999996"
       orientation="0,-20"
       id="guide4644" />
    <sodipodi:guide
       position="4.0000422,24.000026"
       orientation="20,0"
       id="guide4666" />
    <sodipodi:guide
       position="4.0000422,4.0000264"
       orientation="0,39.999969"
       id="guide4668" />
    <sodipodi:guide
       position="44.000012,4.0000264"
       orientation="-20,0"
       id="guide4670" />
    <sodipodi:guide
       position="44.000012,24.000026"
       orientation="0,-39.999969"
       id="guide4672" />
  </sodipodi:namedview>
  <metadata
     id="metadata5458">
    <rdf:RDF>
      <cc:Work
         rdf:about="">
        <dc:format>image/svg+xml</dc:format>
        <dc:type
           rdf:resource="http://purl.org/dc/dcmitype/StillImage" />
        <dc:title />
      </cc:Work>
    </rdf:RDF>
  </metadata>
  <g
     inkscape:label="Capa 1"
     inkscape:groupmode="layer"
     id="layer1"
     transform="translate(-384.57143,-499.798)">
    <path
       style="fill:#6997c7;fill-rule:evenodd"
       inkscape:connector-curvature="0"
       id="path959"
       d="m 428.57143,523.798 c 0,11.04564 -8.95436,20 -20,20 -11.04564,0 -20,-8.95436 -20,-20 0,-11.04564 8.95436,-20 20,-20 11.04564,0 20,8.95436 20,20" />
    <path
       style="opacity:0.05;fill:url(#0);fill-rule:evenodd"
       inkscape:connector-curvature="0"
       id="path961"
       d="m 428.57143,523.798 c 0,11.04564 -8.95436,20 -20,20 -11.04564,0 -20,-8.95436 -20,-20 0,-11.04564 8.95436,-20 20,-20 11.04564,0 20,8.95436 20,20" />
    <path
       style="opacity:0.25;fill-rule:evenodd"
       inkscape:connector-curvature="0"
       id="path1527"
       d="m 404.14769,514.54306 c -0.4844,0 -0.87634,0.38938 -0.87634,0.87378 v 4.97921 c 0,0.2422 0.0981,0.46138 0.25664,0.61971 l 2.94459,2.94459 h -10.14664 v 3.79782 l 1.37865,1.37865 h -2.92358 c -0.4844,0 -0.87378,0.38938 -0.87378,0.87378 v 2.70732 c 0,0.2422 0.0973,0.46046 0.25517,0.61852 l 9.96483,9.96483 c 1.42945,0.32442 2.91681,0.49664 4.44438,0.49664 9.38011,0 17.25184,-6.45836 19.41163,-15.17153 l -13.82851,-13.82852 c -0.15787,-0.15787 -0.37641,-0.25535 -0.61861,-0.25535 h -9.38833" />
    <path
       style="fill:#ffffff;fill-rule:evenodd"
       inkscape:connector-curvature="0"
       id="path1529"
       d="m 404.14769,514.54306 c -0.4844,0 -0.87625,0.38938 -0.87625,0.87387 v 4.97922 c 0,0.4844 0.39176,0.87625 0.87625,0.87625 h 9.38834 c 0.4844,0 0.87387,-0.39176 0.87387,-0.87625 v -4.97922 c 0,-0.4844 -0.38938,-0.87387 -0.87387,-0.87387 h -9.38834 m 3.60733,7.93385 v 1.48344 h -11.42935 v 3.79772 h 2.11228 v -1.78575 h 9.31981 v 1.91439 h 2.10955 v -1.91439 h 9.28418 v 1.95249 h 2.11228 v -3.96446 h -11.39555 v -1.48344 h -2.11192 m -12.97428,6.65981 c -0.4844,0 -0.87388,0.38939 -0.87388,0.87388 v 2.70723 c 0,0.4844 0.38939,0.87388 0.87388,0.87388 h 5.57169 c 0.4844,0 0.87388,-0.38939 0.87388,-0.87388 v -2.70723 c 0,-0.4844 -0.38938,-0.87388 -0.87388,-0.87388 h -5.57169 m 11.16989,0 c -0.4844,0 -0.87388,0.38939 -0.87388,0.87388 v 2.70723 c 0,0.4844 0.38938,0.87388 0.87388,0.87388 h 5.57169 c 0.4844,0 0.87388,-0.38939 0.87388,-0.87388 v -2.70723 c 0,-0.4844 -0.38939,-0.87388 -0.87388,-0.87388 h -5.57169 m 11.38184,0 c -0.4844,0 -0.87387,0.38939 -0.87387,0.87388 v 2.70723 c 0,0.4844 0.38938,0.87388 0.87387,0.87388 h 5.56932 c 0.4844,0 0.87625,-0.38939 0.87625,-0.87388 v -2.70723 c 0,-0.4844 -0.39176,-0.87388 -0.87625,-0.87388 h -5.56932" />
  </g>
</svg>
