<?xml version="1.0" encoding="UTF-8" standalone="no"?>
<!-- Created with Inkscape (http://www.inkscape.org/) -->

<svg
   xmlns:dc="http://purl.org/dc/elements/1.1/"
   xmlns:cc="http://creativecommons.org/ns#"
   xmlns:rdf="http://www.w3.org/1999/02/22-rdf-syntax-ns#"
   xmlns:svg="http://www.w3.org/2000/svg"
   xmlns="http://www.w3.org/2000/svg"
   xmlns:sodipodi="http://sodipodi.sourceforge.net/DTD/sodipodi-0.dtd"
   xmlns:inkscape="http://www.inkscape.org/namespaces/inkscape"
   width="48"
   height="48"
   id="svg1593"
   version="1.1"
   inkscape:version="0.48.5 r10040"
   sodipodi:docname="opera-widget.svg">
  <defs
     id="defs1595" />
  <sodipodi:namedview
     id="base"
     pagecolor="#ffffff"
     bordercolor="#666666"
     borderopacity="1.0"
     inkscape:pageopacity="0.0"
     inkscape:pageshadow="2"
     inkscape:zoom="13.201494"
     inkscape:cx="13.821174"
     inkscape:cy="27.546009"
     inkscape:document-units="px"
     inkscape:current-layer="layer1"
     showgrid="false"
     inkscape:window-width="1920"
     inkscape:window-height="1035"
     inkscape:window-x="-4"
     inkscape:window-y="29"
     inkscape:window-maximized="1">
    <sodipodi:guide
       position="4,44.000017"
       orientation="40,0"
       id="guide4083" />
    <sodipodi:guide
       position="4,4.0000174"
       orientation="0,40"
       id="guide4085" />
    <sodipodi:guide
       position="44,4.0000174"
       orientation="-40,0"
       id="guide4087" />
    <sodipodi:guide
       position="44,44.000017"
       orientation="0,-40"
       id="guide4089" />
    <sodipodi:guide
       position="15,33.000017"
       orientation="18,0"
       id="guide4132" />
    <sodipodi:guide
       position="15,15.000017"
       orientation="0,18"
       id="guide4134" />
    <sodipodi:guide
       position="33,15.000017"
       orientation="-18,0"
       id="guide4136" />
    <sodipodi:guide
       position="33,33.000017"
       orientation="0,-18"
       id="guide4138" />
  </sodipodi:namedview>
  <metadata
     id="metadata1598">
    <rdf:RDF>
      <cc:Work
         rdf:about="">
        <dc:format>image/svg+xml</dc:format>
        <dc:type
           rdf:resource="http://purl.org/dc/dcmitype/StillImage" />
        <dc:title />
      </cc:Work>
    </rdf:RDF>
  </metadata>
  <g
     inkscape:label="Capa 1"
     inkscape:groupmode="layer"
     id="layer1"
     transform="translate(0,-1004.3622)">
    <path
       style="fill:#4a91d6;fill-opacity:1;fill-rule:nonzero;stroke:none;stroke-width:1;marker:none;visibility:visible;display:block;overflow:visible;enable-background:accumulate"
       id="rect3267"
       inkscape:connector-curvature="0"
       d="m 4,1025.6006 c 0,-0.7871 0.65294,-1.4244 1.45349,-1.4244 l 2.81977,0 c 0.37498,-1.4074 0.94138,-2.7522 1.65697,-3.9826 l -2.00581,-2.0058 c -0.28304,-0.283 -0.43294,-0.6221 -0.43605,-0.9884 -0.003,-0.3662 0.1287,-0.7391 0.40698,-1.0174 l 3.92442,-3.9244 c 0.55656,-0.5566 1.43974,-0.537 2.00581,0.029 l 2.00582,2.0058 c 1.230402,-0.7156 2.575166,-1.282 3.982553,-1.657 l 0,-2.8197 c 0,-0.8006 0.637321,-1.4535 1.424419,-1.4535 l 5.523255,0 c 0.787098,0 1.424419,0.6529 1.424419,1.4535 l 0,2.8197 c 1.407386,0.375 2.752151,0.9414 3.982558,1.657 l 2.005813,-2.0058 c 0.566074,-0.5661 1.44925,-0.5856 2.005812,-0.029 l 3.92442,3.9244 c 0.556561,0.5566 0.537003,1.4397 -0.02907,2.0058 l -2.005814,2.0058 c 0.715594,1.2304 1.281995,2.5752 1.656977,3.9826 l 2.819766,0 c 0.800553,0 1.453489,0.6373 1.453489,1.4244 l 0,5.5232 c 0,0.7871 -0.652936,1.4244 -1.453487,1.4244 l -2.819768,0 c -0.374982,1.4074 -0.941382,2.7522 -1.656977,3.9826 l 2.005814,2.0058 c 0.566075,0.566 0.585631,1.4492 0.02907,2.0058 l -3.924419,3.9244 c -0.556563,0.5565 -1.439739,0.537 -2.005813,-0.029 l -2.005813,-2.0058 c -1.230407,0.7156 -2.57517,1.282 -3.982558,1.6569 l 0,2.8198 c 0,0.8005 -0.63732,1.4535 -1.424419,1.4535 l -5.523255,0 c -0.787098,0 -1.424419,-0.653 -1.424419,-1.4535 l 0,-2.8198 c -1.407387,-0.3749 -2.75215,-0.9413 -3.982553,-1.6569 l -2.00582,2.0058 c -0.56607,0.5661 -1.44925,0.5856 -2.00581,0.029 l -3.92442,-3.9244 c -0.55656,-0.5566 -0.537,-1.4398 0.0291,-2.0058 l 2.00581,-2.0058 c -0.71559,-1.2304 -1.28199,-2.5752 -1.65698,-3.9826 l -2.81976,0 c -0.80055,0 -1.45349,-0.6373 -1.45349,-1.4244 l 0,-5.5232 z m 13.953488,2.7616 c 0,3.3376 2.708838,6.0465 6.046512,6.0465 3.337672,0 6.046509,-2.7089 6.046509,-6.0465 0,-3.3377 -2.708837,-6.0465 -6.046509,-6.0465 -3.337674,0 -6.046512,2.7088 -6.046512,6.0465 z" />
  </g>
</svg>
