<?xml version="1.0" encoding="UTF-8" standalone="no"?>
<!-- Created using Karbon, part of Calligra: http://www.calligra.org/karbon -->

<svg
   xmlns:dc="http://purl.org/dc/elements/1.1/"
   xmlns:cc="http://creativecommons.org/ns#"
   xmlns:rdf="http://www.w3.org/1999/02/22-rdf-syntax-ns#"
   xmlns:svg="http://www.w3.org/2000/svg"
   xmlns="http://www.w3.org/2000/svg"
   xmlns:sodipodi="http://sodipodi.sourceforge.net/DTD/sodipodi-0.dtd"
   xmlns:inkscape="http://www.inkscape.org/namespaces/inkscape"
   width="38.4pt"
   height="38.4pt"
   id="svg2"
   version="1.1"
   inkscape:version="0.48.5 r10040"
   sodipodi:docname="opera.svg">
  <metadata
     id="metadata11">
    <rdf:RDF>
      <cc:Work
         rdf:about="">
        <dc:format>image/svg+xml</dc:format>
        <dc:type
           rdf:resource="http://purl.org/dc/dcmitype/StillImage" />
        <dc:title />
      </cc:Work>
    </rdf:RDF>
  </metadata>
  <sodipodi:namedview
     pagecolor="#ffffff"
     bordercolor="#666666"
     borderopacity="1"
     objecttolerance="10"
     gridtolerance="10"
     guidetolerance="10"
     inkscape:pageopacity="0"
     inkscape:pageshadow="2"
     inkscape:window-width="1920"
     inkscape:window-height="1035"
     id="namedview9"
     showgrid="false"
     inkscape:zoom="6.9532164"
     inkscape:cx="34.547327"
     inkscape:cy="22.971679"
     inkscape:window-x="-4"
     inkscape:window-y="29"
     inkscape:window-maximized="1"
     inkscape:current-layer="svg2"
     inkscape:showpageshadow="false"
     borderlayer="true">
    <sodipodi:guide
       position="9.5367432e-07,48.000001"
       orientation="47.999999,0"
       id="guide4062" />
    <sodipodi:guide
       position="9.5367432e-07,1.9073486e-06"
       orientation="0,47.999999"
       id="guide4064" />
    <sodipodi:guide
       position="48,1.9073486e-06"
       orientation="-47.999999,0"
       id="guide4066" />
    <sodipodi:guide
       position="48,48.000001"
       orientation="0,-47.999999"
       id="guide4068" />
    <sodipodi:guide
       position="15.000001,33.000001"
       orientation="17.999999,0"
       id="guide4080" />
    <sodipodi:guide
       position="15.000001,15.000002"
       orientation="0,17.999999"
       id="guide4082" />
    <sodipodi:guide
       position="33,15.000002"
       orientation="-17.999999,0"
       id="guide4084" />
    <sodipodi:guide
       position="33,33.000001"
       orientation="0,-17.999999"
       id="guide4086" />
    <sodipodi:guide
       position="4.000001,44.000001"
       orientation="39.999999,0"
       id="guide4088" />
    <sodipodi:guide
       position="4.000001,4.0000019"
       orientation="0,39.999999"
       id="guide4090" />
    <sodipodi:guide
       position="44,4.0000019"
       orientation="-39.999999,0"
       id="guide4092" />
    <sodipodi:guide
       position="44,44.000001"
       orientation="0,-39.999999"
       id="guide4094" />
  </sodipodi:namedview>
  <defs
     id="defs4">
    <clipPath
       id="clipPath16"
       clipPathUnits="userSpaceOnUse">
      <path
         id="path18"
         d="m 0,706.465 1490.926,0 L 1490.926,0 0,0 0,706.465 Z" />
    </clipPath>
    <clipPath
       id="clipPath24"
       clipPathUnits="userSpaceOnUse">
      <path
         id="path26"
         d="m 22.1953,686.117 1447.7347,0 0,-667.1902 -1447.7347,0 L 22.1953,686.117 Z" />
    </clipPath>
  </defs>
  <g
     id="g2999"
     transform="matrix(0.75,0,0,0.75,5.9999993,5.9999993)">
    <rect
       ry="20"
       y="4.000001"
       x="4.000001"
       height="40"
       width="40"
       id="rect4096"
       style="fill:#3498db;fill-opacity:1;stroke:none" />
    <path
       id="path34"
       d="m 19.841797,4.4414062 c -0.01111,-5.731e-4 -0.02383,0.00205 -0.03516,0.00195 -0.808187,0.1712244 -1.591025,0.404825 -2.359375,0.6699218 -0.01931,0.05451 -0.04552,0.1118093 -0.03516,0.1484376 0.0538,0.1912596 0.407484,0.052619 0.501953,0.234375 -0.02169,0.2220227 -0.26111,0.3323613 -0.449218,0.4277343 -0.175401,0.08863 -0.40038,0.3127671 -0.589844,0.1992188 -0.0741,-0.192975 0.214601,-0.1943189 0.144531,-0.359375 -0.05201,-0.123439 -0.277472,-0.042562 -0.376953,-0.1601563 -0.04437,-0.052579 -0.05371,-0.114947 -0.05273,-0.1796875 C 9.7866439,8.1266803 4.8363813,14.433211 4.0976562,22.021484 c 0.081325,0.02368 0.1820771,0.03707 0.2617188,0.07227 0.127935,0.05697 0.228505,0.192565 0.375,0.267578 0.181305,0.09275 0.42482,0.147821 0.6445312,0.25 0.2116186,0.09813 0.4954096,0.23347 0.6640626,0.234375 0.169551,0.0011 0.3499603,-0.174667 0.5371093,-0.179687 0.439037,-0.01223 0.629856,0.558464 0.984375,0.734375 0.08901,0.04479 0.2074316,0.04654 0.3222657,0.07227 0.09313,0.02034 0.1628741,0.05757 0.2519531,0.08789 0.189459,0.06423 0.4208276,0.05761 0.5722656,0.125 0.228318,0.101287 0.3955259,0.529698 0.5917969,0.644531 0.0095,0.115734 -0.020882,0.273056 0.017578,0.359375 0.09269,0.125751 0.222212,0.09585 0.375,0.177735 0.182653,0.09859 0.2388987,0.35386 0.4121096,0.43164 0.05917,0.02669 0.208262,0.02373 0.302734,0.05273 0.237374,0.07185 0.316068,0.345267 0.519532,0.285157 0.133395,-0.03889 0.123273,-0.175252 0.144531,-0.302735 0.08816,-0.09589 0.184827,-0.249234 0.322265,-0.251953 0.222472,-0.0045 0.241347,0.233102 0.322266,0.449219 0.04568,0.122024 0.166117,0.228591 0.197266,0.357422 0.05469,0.222474 0.0281,0.886521 -0.01758,1.019531 -0.05604,0.163189 -0.275952,0.233145 -0.41211,0.414063 -0.06371,0.0845 -0.09369,0.207913 -0.142578,0.267578 -0.08719,0.106678 -0.221541,0.133775 -0.287109,0.232422 -0.03704,0.0551 -0.0717,0.17492 -0.107422,0.25 -0.108089,0.227864 -0.252471,0.388582 -0.16211,0.662109 0.03711,0.112587 0.214397,0.191657 0.214844,0.324219 3.87e-4,0.155996 -0.331669,0.291989 -0.357422,0.46289 -0.01945,0.126584 0.102375,0.355979 0.142578,0.521485 0.03033,0.125237 0.266114,0.203939 0.339844,0.287109 0.125686,0.141041 0.226965,0.340321 0.341797,0.517578 0.226968,0.348606 0.403941,0.77162 0.625,1.109375 0.11625,0.176807 0.2816,0.337934 0.359375,0.521485 0.03975,0.09268 0.03522,0.201923 0.07227,0.285156 0.127996,0.288881 0.692736,0.591031 0.984375,0.734375 0.13654,0.06692 0.286872,0.0925 0.412109,0.162109 0.18985,0.105846 0.566287,0.388285 0.662109,0.554688 0.08592,0.149642 0.136183,0.514133 0.177735,0.751953 0.05514,0.314316 0.0034,0.554142 0.01758,0.894531 0.0078,0.184066 0.07003,0.370171 0.07226,0.554688 0.0011,0.06461 -0.03293,0.113722 -0.03516,0.179687 -0.0079,0.223371 0.05416,0.474494 0.03516,0.699219 -0.01043,0.122538 -0.0442,0.218133 -0.03516,0.320312 0.0095,0.111172 0.06166,0.209401 0.07031,0.306641 0.009,0.104878 -0.02614,0.238942 -0.01758,0.320313 0.02443,0.226066 0.19006,0.402704 0.234375,0.609374 0.03524,0.164609 0.05631,0.502116 0.03516,0.699219 -0.01089,0.103529 -0.07403,0.20872 -0.08984,0.322266 -0.01185,0.08948 0.01267,0.183511 0,0.267578 -0.01811,0.125301 -0.09701,0.225163 -0.08984,0.341797 0.01587,0.241481 0.284309,0.438202 0.322266,0.679687 0.01312,0.08093 -0.02123,0.171779 -0.01758,0.25 0.007,0.149193 0.07576,0.273775 0.107422,0.41211 0.01607,0.06954 0.02152,0.147877 0.0293,0.224609 0.08549,0.04064 0.169701,0.08359 0.255859,0.123047 -0.01914,-0.0711 -0.03516,-0.141428 0.01953,-0.1875 0.121386,0.03677 0.165052,0.15155 0.1875,0.287109 0.700236,0.310926 1.413914,0.593959 2.154297,0.824219 0.105786,-0.07397 0.245015,-0.129062 0.273438,-0.269531 0.02168,-0.106678 -0.03215,-0.151814 -0.03711,-0.322266 0.04024,-0.175007 0.230971,-0.198796 0.267578,-0.376953 -0.07463,-0.127555 -0.244837,-0.03954 -0.357422,-0.105469 -0.109374,-0.06342 -0.158375,-0.206604 -0.142578,-0.341796 0.186765,-0.07868 0.545909,0.191484 0.679688,-0.07031 0.06655,-0.12344 -0.07467,-0.429964 0.01758,-0.554687 0.0629,-0.08414 0.404615,-0.08722 0.537109,-0.109376 0.18991,-0.03167 0.412342,-0.07259 0.519532,-0.142578 0.117081,-0.07691 0.289826,-0.298923 0.269531,-0.519531 -0.01,-0.105393 -0.0816,-0.139296 -0.16211,-0.232422 -0.06736,-0.07825 -0.09369,-0.175827 -0.142578,-0.25 -0.08361,-0.125751 -0.21288,-0.107669 -0.25,-0.287109 0.256831,-0.05023 0.647867,0.21185 1.019532,0.107422 0.176296,-0.0497 0.420132,-0.426358 0.501953,-0.591797 0.02624,-0.05193 0.02374,-0.131606 0.05273,-0.195313 0.03123,-0.06915 0.09709,-0.123993 0.107422,-0.160156 0.02764,-0.09768 0.01305,-0.172915 0.03516,-0.234375 0.06513,-0.181756 0.234155,-0.24071 0.341797,-0.375 0.08137,-0.101282 0.11994,-0.222935 0.197266,-0.324219 0.08413,-0.110336 0.159224,-0.205563 0.214844,-0.302734 0.0529,-0.326901 -0.131111,-0.55555 -0.05469,-0.841797 0.08592,-0.321444 0.53031,-0.518978 0.841797,-0.664062 0.107193,-0.04978 0.217408,-0.129838 0.304687,-0.160157 0.215602,-0.07553 0.482519,-0.03512 0.679688,-0.107422 0.335509,-0.122543 0.371668,-0.481466 0.537109,-0.787109 0.0787,-0.144701 0.18185,-0.291453 0.197266,-0.394531 0.01401,-0.09275 -0.03533,-0.175786 -0.01953,-0.285156 0.0158,-0.107643 0.117073,-0.205339 0.146484,-0.324219 0.03882,-0.155098 0.05273,-0.381926 0.05273,-0.554688 0,-0.141871 -0.06592,-0.264643 -0.07227,-0.392578 -0.02303,-0.464403 0.168046,-0.518694 0.339843,-0.771484 0.08547,-0.125683 0.117625,-0.267441 0.177735,-0.357422 0.288496,-0.430428 0.790125,-0.63847 0.753906,-1.289063 -0.0117,-0.215277 -0.145986,-0.700811 -0.304687,-0.769531 -0.09042,-0.03934 -0.298607,-0.0038 -0.429688,-0.05273 -0.423238,-0.157799 -0.670851,-0.683268 -1.109375,-0.716797 -0.09364,-0.007 -0.181717,0.03736 -0.287109,0.03516 -0.173598,-0.0029 -0.434796,-0.122442 -0.626953,-0.144531 -0.122091,-0.01364 -0.284145,0.03561 -0.357422,0 -0.112136,-0.05432 -0.123965,-0.258853 -0.214844,-0.320313 -0.07276,-0.04933 -0.212893,-0.06545 -0.322266,-0.107421 -0.176361,-0.06826 -0.316067,-0.148044 -0.519531,-0.16211 -0.06282,-0.0038 -0.142076,0.02928 -0.214844,0.01758 -0.112583,-0.01819 -0.20071,-0.151583 -0.304687,-0.214843 -0.129798,-0.07922 -0.248976,-0.119384 -0.302735,-0.232422 0.117531,-0.385662 -0.209938,-0.49199 -0.289062,-0.714844 -0.03703,-0.104431 -0.02017,-0.231094 -0.05273,-0.324219 -0.04658,-0.13339 -0.177569,-0.209011 -0.322266,-0.320312 -0.259081,-0.199352 -0.489056,-0.385914 -0.859375,-0.431641 -0.162742,-0.01989 -0.322877,0.04972 -0.519531,0.03711 -0.208409,-0.01312 -0.469065,-0.198795 -0.625,-0.376954 -0.151506,-0.174045 -0.227331,-0.326986 -0.359375,-0.410156 -0.125238,-0.0796 -0.291531,-0.08071 -0.376953,-0.162109 -0.03792,-0.03614 -0.03158,-0.09607 -0.07227,-0.179688 -0.06282,-0.130184 -0.16617,-0.201422 -0.08789,-0.357422 -0.1429,-0.07324 -0.148622,0.134524 -0.304687,0.107422 -0.139238,-0.197553 -0.256218,-0.292305 -0.572266,-0.234375 -0.144245,0.02671 -0.225881,0.212267 -0.394531,0.216797 -0.138341,0.0039 -0.247034,-0.153417 -0.429687,-0.179687 -0.137889,-0.01936 -0.294445,0.03701 -0.392579,0.01758 -0.152792,-0.02989 -0.202108,-0.15816 -0.341797,-0.25 -0.10218,-0.06729 -0.300004,-0.181499 -0.357421,-0.179688 -0.179893,0.0061 -0.306462,0.381528 -0.554688,0.25 -0.121129,-0.152793 0.195625,-0.232036 0.05274,-0.375 -0.10854,-0.108476 -0.198388,0.04778 -0.285157,0.107422 -0.09904,0.06825 -0.194866,0.138967 -0.304687,0.179688 -0.245978,0.09179 -0.399576,0.04307 -0.591797,0.142578 -0.178093,0.09224 -0.184322,0.24652 -0.285156,0.429687 -0.08271,0.150088 -0.270645,0.3679 -0.394532,0.376953 -0.150092,0.01088 -0.295548,-0.210702 -0.43164,-0.269531 -0.410072,-0.177704 -0.606752,0.155626 -0.947266,0.160156 -0.316048,0.0039 -0.7678171,-0.50759 -0.7519531,-0.804687 0.01,-0.181308 0.1032921,-0.455417 0.1250001,-0.679688 0.01759,-0.178157 0.140842,-0.28641 0.142578,-0.449218 0.0025,-0.217466 -0.2885865,-0.384407 -0.4296875,-0.410157 -0.334544,-0.06149 -0.7962685,0.134833 -1.1796875,-0.01758 -0.07327,-0.121123 0.083905,-0.206242 0.125,-0.324219 0.02305,-0.06692 0.007,-0.156736 0.035156,-0.230468 0.04251,-0.11342 0.1614087,-0.203544 0.2148437,-0.324219 0.04021,-0.09224 0.047221,-0.225465 0.087891,-0.339844 0.04657,-0.130251 0.1345762,-0.213356 0.1445312,-0.304687 0.01311,-0.121189 -0.03248,-0.260272 -0.1269531,-0.339844 -0.297487,0.01535 -0.4930084,0.0311 -0.6621094,0.107422 -0.387465,0.176359 -0.3101866,0.700331 -0.6972656,0.824219 -0.133844,0.04298 -0.3174488,0.04407 -0.4648438,0.07031 -0.127035,0.02304 -0.2810274,0.09259 -0.4121093,0.08984 -0.1551081,-0.0025 -0.4273053,-0.150965 -0.5195313,-0.25 -0.08227,-0.08906 -0.2820805,-0.531151 -0.3046875,-0.609375 -0.152405,-0.527603 0.014083,-1.012185 0.2148438,-1.378906 0.04252,-0.0778 0.1128692,-0.148648 0.1445312,-0.230469 0.04791,-0.124337 0.015164,-0.314925 0.052734,-0.449219 0.06865,-0.249574 0.3958741,-0.399241 0.6269531,-0.519531 0.261777,-0.136093 0.4823014,-0.35464 0.7871094,-0.375 0.15189,-0.01044 0.3735502,0.042 0.5195312,0.07227 0.134806,0.02763 0.242741,0.116391 0.359375,0.125 0.330946,0.02532 0.4096875,-0.232705 0.6796875,-0.376953 0.278925,0.03934 0.4649102,-0.04702 0.7167969,-0.01758 0.171799,0.01981 0.295845,0.204442 0.429687,0.214844 0.112585,0.009 0.211389,-0.106988 0.320313,-0.08984 0.105776,0.01677 0.28943,0.247606 0.30664,0.376953 0.02124,0.160946 -0.1184,0.305613 -0.07227,0.482422 0.168654,0.171801 0.47583,0.205653 0.716797,0.304688 0.156901,-0.129348 0.02123,-0.367474 0,-0.554688 -0.009,-0.08271 0.0085,-0.15651 0,-0.232422 -0.01401,-0.128897 -0.07181,-0.249038 -0.07226,-0.359375 -0.0024,-0.509554 0.410151,-0.748002 0.751953,-0.949218 0.147844,-0.08726 0.264194,-0.240528 0.392578,-0.304688 0.181305,-0.09093 0.316705,-0.110792 0.466797,-0.195312 0.271283,-0.15234 0.502775,-0.276521 0.714844,-0.449219 0.09807,-0.231015 0.0061,-0.541214 0.01758,-0.769531 0.09813,-0.06014 0.185083,0.02663 0.289062,0.01758 0.163708,-0.03488 0.17484,-0.265197 0.267578,-0.357422 0.05327,-0.05283 0.20261,-0.09205 0.269532,-0.144531 0.163258,-0.127933 0.214973,-0.317876 0.357422,-0.373047 0.05104,-0.02034 0.169528,-0.01497 0.25,-0.03711 0.106678,-0.02892 0.25699,-0.15563 0.429687,-0.214843 0.112135,-0.03845 0.369143,-0.04639 0.412109,-0.08984 0.05283,-0.0538 4.32e-4,-0.204231 0.01758,-0.285156 0.08681,-0.404226 0.696728,-0.490863 1.056641,-0.626954 0.252271,-0.09582 0.511873,-0.268599 0.789063,-0.214843 -0.05424,0.192158 -0.313332,0.124094 -0.269532,0.357422 0.06111,0.323754 0.493038,-0.09461 0.607422,-0.142579 0.218428,-0.09179 0.592273,-0.147974 0.878906,-0.251953 0.251374,-0.09132 0.701768,-0.230046 0.464844,-0.517578 -0.197616,-0.01133 -0.292595,0.22907 -0.464844,0.302735 -0.118943,0.01766 -0.09605,-0.09792 -0.197265,-0.107422 -0.09589,-0.009 -0.150966,0.08948 -0.25,0.07226 -0.09852,-0.01721 -0.23654,-0.169938 -0.251953,-0.285156 -0.03928,-0.298899 0.25313,-0.421609 0.376953,-0.644531 -0.08182,-0.270384 -0.455572,-0.05821 -0.681641,-0.164063 0.02168,-0.160947 0.188841,-0.27197 0.376953,-0.302734 0.154138,-0.02533 0.500021,-0.0058 0.591797,0.07031 0.0538,0.04524 0.0069,0.157407 0.08984,0.232421 0.09135,0.08279 0.201882,0.07419 0.320312,0.05469 0.04301,-0.203911 -0.265882,-0.151918 -0.232421,-0.287109 0.241867,-0.158249 0.63355,-0.02641 0.929687,-0.07031 0.170452,-0.02534 0.350897,-0.147454 0.501953,-0.232422 0.143732,-0.08145 0.33197,-0.225653 0.484375,-0.0918 0.04162,0.146045 -0.133472,0.196766 -0.214844,0.269532 -0.27398,0.243731 -0.558518,0.523604 -0.771484,0.80664 0.130698,0.127484 0.370738,0.06158 0.591797,0.08789 0.08637,0.01044 0.195717,0.03843 0.287109,0.05469 0.106675,0.019 0.219119,0.01443 0.302735,0.03516 0.150606,0.03711 0.192991,0.199219 0.341797,0.199219 0.245017,-4.5e-4 0.246211,-0.266134 0.107422,-0.43164 0.0439,-0.169103 0.112394,-0.256569 0.05273,-0.375 -0.110338,-0.220673 -0.516295,-0.0047 -0.53711,-0.28711 -0.01312,-0.178606 0.150175,-0.170908 0.214844,-0.304687 -0.02944,-0.345013 0.28535,-0.370447 0.251953,-0.679688 -0.01401,-0.129346 -0.123967,-0.128809 -0.214843,-0.25 -0.04702,-0.06237 -0.07052,-0.184509 -0.126954,-0.2324216 -0.187212,-0.158247 -0.566787,-0.1277065 -0.589843,-0.4296875 -0.0085,-0.178158 0.04244,-0.3279774 0.01758,-0.5214844 C 21.256267,8.8586785 21.132408,8.3586428 20.974609,8.3242188 20.774743,8.2808588 20.569698,8.6229071 20.330078,8.7363281 20.199831,8.7983181 20.013507,8.86822 19.882812,8.84375 19.797832,8.8275 19.628336,8.7012664 19.615234,8.5371094 19.600754,8.3490304 19.740577,8.3452943 19.775391,8.1445312 19.745511,8.0261003 19.623994,8.0538537 19.507812,7.9648438 19.376219,7.8649138 19.270714,7.6514221 19.095703,7.6269531 c -0.08721,-0.01221 -0.200281,0.064402 -0.287109,0.070312 -0.266336,0.01805 -0.496659,-0.170664 -0.699219,-0.125 -0.241873,0.05466 -0.231063,0.4300862 -0.464844,0.5019532 0.03167,0.175012 -0.206222,0.2893943 -0.232422,0.4277343 -0.01766,0.09313 0.02973,0.2045435 0.03516,0.2890625 0.0538,0.856367 -0.650171,1.2574319 -1.484375,1.2343749 -0.163643,0.15645 -0.125764,0.447408 -0.214844,0.662109 -0.07505,0.180408 -0.339123,0.372773 -0.519531,0.357422 -0.133391,-0.01133 -0.28666,-0.195976 -0.28711,-0.320313 -4.53e-4,-0.153304 0.222333,-0.239051 0.08984,-0.414062 0.019,-0.118878 0.282563,-0.185603 0.25,-0.3749996 C 15.24781,9.7383789 14.972542,9.8393588 14.726562,9.8085938 14.54751,9.7860138 14.311046,9.6834341 14.152344,9.5957031 13.942589,9.4795211 13.763761,9.252725 13.490234,9.21875 c -0.15555,-0.01893 -0.30172,0.052114 -0.375,-0.035156 -0.0804,-0.09582 0.03257,-0.2386645 0.03711,-0.3046876 -0.0051,-0.1089199 -0.207676,-0.1432599 -0.216797,-0.25 -0.007,-0.07458 0.193105,-0.3109301 0.269531,-0.3769531 C 13.346566,8.1289651 13.604164,7.998439 13.832031,7.875 14.054953,7.754258 14.31318,7.6270685 14.529297,7.5546875 c 0.09229,-0.0307 0.198478,-0.020244 0.287109,-0.052734 0.226521,-0.08368 0.375529,-0.2437656 0.589844,-0.3066406 0.11169,-0.0325 0.234586,-0.025184 0.359375,-0.052734 0.297039,-0.066471 0.516809,-0.2792996 0.769531,-0.3222656 -0.05604,0.2061598 -0.286027,0.2383446 -0.339844,0.4472656 0.216564,0.394273 0.587726,-0.091644 0.841797,-0.089844 0.230628,0.0013 0.461824,0.3268821 0.607422,0.017578 C 17.591671,7.0285282 17.435856,6.9337135 17.287109,6.837891 17.149675,6.749262 16.932818,6.6702254 16.947266,6.478516 c 0.165059,-0.073282 0.227088,0.1260541 0.375,0.1269532 0.08048,4.495e-4 0.186361,-0.098502 0.269531,-0.1269532 0.186312,-0.063772 0.497525,-0.082642 0.644531,-0.2128906 0.08857,-0.078222 0.07385,-0.2038554 0.142578,-0.3046875 0.05879,-0.085868 0.205153,-0.1104986 0.267578,-0.1972656 0.07599,-0.1058416 0.01217,-0.1943818 0.109375,-0.25 0.20892,-0.09319 0.467757,0.021707 0.699219,0 0.109438,-0.010402 0.182074,-0.097999 0.285156,-0.089844 0.200313,0.015797 0.307068,0.3382964 0.447266,0.4296875 0.102635,0.067373 0.287027,0.063718 0.304688,0.1953125 0.0348,0.2613283 -0.342689,0.2820175 -0.574219,0.4140625 -0.11528,0.065509 -0.161634,0.2137583 -0.302735,0.2675782 -0.37886,0.1446971 -0.954983,-0.1601358 -1.076172,0.25 0.175009,0.257667 0.495671,-0.017122 0.716797,-0.017578 0.157799,-8.946e-4 0.350546,0.1460207 0.447266,0.25 0.08368,0.08953 0.113111,0.2653898 0.214844,0.3242188 0.06781,0.03886 0.187263,0.027884 0.269531,0.052734 0.262678,0.07957 0.482001,0.2212332 0.769531,0.1601562 0.09859,-0.173149 -0.202269,-0.2213309 -0.08789,-0.3574219 0.192668,0.01625 0.316545,0.1019954 0.464843,0.1621094 0.207121,-0.151441 0.347101,-0.1688924 0.339844,-0.4121094 -0.0056,-0.2034617 -0.271178,-0.2140939 -0.267578,-0.4492187 0.0023,-0.1324304 0.09499,-0.1912665 0.195312,-0.1953125 0.230562,-0.00906 0.29763,0.334456 0.466797,0.359375 0.102121,0.0149 0.403759,-0.1341982 0.464844,-0.1640625 0.08629,-0.042454 0.348882,-0.1965268 0.357422,-0.2851563 0.01318,-0.1320441 -0.276463,-0.3037563 -0.412109,-0.359375 -0.193054,-0.079124 -0.385629,-0.066531 -0.462891,-0.2324219 -0.04115,-0.090876 0.02261,-0.1842724 -0.05469,-0.2480468 -0.009,-0.096721 0.118308,-0.1602674 0.08984,-0.2539063 -0.02897,-0.095355 -0.133889,-0.079099 -0.269531,-0.140625 -0.09538,-0.043802 -0.184468,-0.1421999 -0.267578,-0.1621093 -0.112195,-0.026652 -0.221157,-0.00349 -0.306641,-0.035156 -0.314695,-0.116631 -0.254479,-0.3790279 -0.46289,-0.5019531 -0.270386,0.0334 -0.504806,-0.095908 -0.699219,0.017578 -0.06048,-0.033236 -0.130251,-0.047023 -0.203125,-0.050781 z m -0.02734,1.46875 c -0.173379,-0.022542 -0.407755,0.1246401 -0.378906,0.2480469 0.04836,0.2057743 0.557036,-0.003 0.519531,-0.1621093 -0.03243,-0.052215 -0.08282,-0.078425 -0.140625,-0.085938 z m 0.972656,0.4433594 c 0.021,-4.206e-4 0.04453,0.00555 0.06445,0.019531 0.01267,0.08998 -0.03886,0.1163225 -0.126953,0.1054687 -0.05292,-0.067149 -9.2e-4,-0.1237385 0.0625,-0.125 z m -3.947265,1.125 c -0.0682,-0.01311 -0.149554,-0.00596 -0.197266,0.023437 -0.07004,0.04246 -0.07858,0.1091182 -0.07227,0.1425781 0.03839,0.1903601 0.398123,0.026304 0.394532,-0.072266 -0.0022,-0.04839 -0.05677,-0.08064 -0.125,-0.09375 z m 18.998047,0.40625 c -0.02466,0.187763 0.0497,0.335446 0.07031,0.4746094 0.01491,0.100382 -0.01587,0.1912254 0.01758,0.2871094 0.05879,0.167689 0.296156,0.3398437 0.519531,0.3398437 0.187484,0 0.35057,-0.1262533 0.50586,-0.234375 -0.358429,-0.3044176 -0.733618,-0.588346 -1.113281,-0.8671875 z m -2.220703,0.8164063 c -0.09179,0.119389 -0.255721,0.069835 -0.41211,0.125 -0.126201,0.04426 -0.361971,0.2606246 -0.394531,0.3378906 -0.0538,0.127548 0.01312,0.2705899 0,0.4667969 0.102179,0.04434 0.165285,0.2459739 0.339844,0.3417968 0.06602,0.03614 0.156013,0.019724 0.214843,0.052735 0.102182,0.05743 0.18291,0.182977 0.16211,0.285156 -0.03026,0.146944 -0.222401,0.107873 -0.322266,0.216797 0.01714,0.208473 -0.145305,0.235761 -0.197266,0.375 0.03123,0.08816 0.16374,0.07199 0.177735,0.177734 -0.01989,0.113932 -0.222054,0.131725 -0.177735,0.251953 0.191713,0.149707 0.390958,-0.02963 0.572266,-0.05273 0.400567,-0.05015 0.810663,0.04854 1.056641,-0.144531 -0.03346,-0.19126 0.200496,-0.258788 0.179687,-0.429688 -0.01588,-0.128833 -0.230123,-0.143409 -0.324218,-0.232422 -0.05015,-0.04755 -0.06151,-0.157329 -0.123047,-0.25 -0.07049,-0.10623 -0.208434,-0.183575 -0.28711,-0.2871083 -0.105327,-0.139751 -0.322643,-0.3409726 -0.322265,-0.4472657 0.0017,-0.1220239 0.15063,-0.1569167 0.177734,-0.3242187 -0.03115,-0.153692 -0.315801,-0.050137 -0.337891,-0.2128906 0.0117,-0.101281 0.104559,-0.1193859 0.105469,-0.2324219 -0.02079,-0.0149 -0.04674,-0.023408 -0.08789,-0.017578 z m 3.580078,0.4277343 c -0.270838,0.1289 -0.462092,0.091731 -0.53711,0.3046876 -0.09499,0.2694829 0.163408,0.4667721 0.125,0.7167972 -0.04068,0.262678 -0.584146,0.170977 -0.824218,0.214843 -0.179505,0.03249 -0.244734,0.25243 -0.392579,0.429688 -0.102626,0.123439 -0.296815,0.256692 -0.449218,0.322266 -0.07459,0.03212 -0.164161,0.02746 -0.232422,0.07226 -0.100833,0.06647 -0.135622,0.225407 -0.25,0.302735 -0.08235,0.05558 -0.395591,0.213039 -0.482422,0.214843 -0.101731,0.0023 -0.196317,-0.09334 -0.269531,-0.07031 -0.107578,0.0339 -0.09364,0.244208 -0.214844,0.287109 -0.237375,0.08413 -0.634079,-0.210977 -0.716797,0.142578 0.101729,0.20481 0.361418,0.154543 0.539063,0.267578 0.11169,0.07049 0.345585,0.38211 0.375,0.501954 0.02485,0.101278 -0.01308,0.501801 -0.05469,0.609374 -0.110787,0.285734 -0.368569,0.18547 -0.697266,0.177735 -0.08997,-0.0023 -0.184408,0.02348 -0.267578,0.01758 -0.55432,-0.03747 -1.110854,-0.230658 -1.361328,0.164063 0.02023,0.303846 0.08449,0.505441 0.01758,0.769531 -0.04926,0.193957 -0.223387,0.368906 -0.214844,0.537109 0.004,0.08637 0.10413,0.16801 0.125,0.285156 0.01089,0.06238 -0.02899,0.195441 0,0.251954 0.09089,0.176292 0.340044,0.02694 0.501954,0.05273 0.158247,0.0258 0.341654,0.252428 0.339843,0.429687 -0.0016,0.123439 -0.120993,0.328323 -0.199218,0.447266 -0.156386,0.237375 -0.36602,0.250304 -0.589844,0.376953 -0.186699,0.105779 -0.265562,0.280778 -0.375,0.464844 -0.118495,0.198903 -0.191389,0.319377 -0.142578,0.607422 -0.160048,0.317396 -0.402912,0.51307 -0.734375,0.664062 -0.09807,0.04435 -0.232287,0.05989 -0.322266,0.125 -0.07138,0.05157 -0.113112,0.190306 -0.214844,0.304688 -0.125235,0.140202 -0.256245,0.19801 -0.322265,0.304687 -0.05104,0.08316 -0.06893,0.246636 -0.125,0.357422 -0.07644,0.150092 -0.241416,0.224548 -0.341797,0.376953 -0.04614,0.07049 -0.07392,0.210508 -0.125,0.302735 -0.113488,0.206164 -0.305975,0.35581 -0.28516,0.537114 0.02072,0.175461 0.216911,0.206586 0.230468,0.359375 0.0079,0.08637 -0.05633,0.138334 -0.05273,0.232422 0.0061,0.137441 0.09657,0.234131 0.107422,0.339844 0.02713,0.265887 -0.09241,0.372934 -0.142578,0.554687 -0.02399,0.08681 -0.01254,0.18413 -0.03516,0.251953 -0.0439,0.132943 -0.228799,0.252807 -0.232422,0.410157 -0.0023,0.1122 0.115493,0.202475 0.125,0.359374 0.007,0.108026 -0.0561,0.220829 -0.03711,0.320313 0.038,0.19492 0.385671,0.422778 0.53711,0.574219 0.202563,0.202563 0.467408,0.35885 0.554687,0.572265 0.0737,0.181306 0.07576,0.420038 0.216797,0.556641 0.104431,0.100318 0.276313,0.162638 0.410156,0.267578 0.124724,0.09724 0.261201,0.183132 0.394532,0.28711 0.217977,0.170515 0.54727,0.508626 0.894531,0.482421 0.181305,-0.01312 0.366556,-0.160658 0.572265,-0.197265 0.211618,-0.03749 0.485804,-0.05722 0.699219,-0.03516 0.163709,0.01677 0.329997,0.115569 0.5,0.107421 0.179443,-0.0078 0.387886,-0.143344 0.591797,-0.232421 0.353104,-0.153688 0.880637,-0.360617 1.396484,-0.285157 0.392925,0.0574 0.372349,0.507374 0.644532,0.679688 0.316047,0.02623 0.574192,-0.116603 0.824218,-0.05469 0.189008,0.04666 0.411639,0.332716 0.429688,0.482422 0.01855,0.155423 -0.08481,0.388553 -0.107422,0.484375 -0.04934,0.208857 -0.05236,0.457413 -0.08984,0.589844 -0.02899,0.102629 -0.109233,0.168854 -0.107422,0.271484 0.0022,0.0941 0.118571,0.322259 0.214844,0.445313 0.117595,0.150991 0.306321,0.267932 0.449219,0.43164 0.262228,0.299733 0.373381,0.66147 0.554687,1.056641 0.06602,0.143349 0.192183,0.366587 0.195313,0.517578 0.0023,0.111621 -0.06314,0.209681 -0.05273,0.322266 0.02257,0.240069 0.171959,0.345536 0.197266,0.55664 0.0588,0.497802 -0.391096,0.645388 -0.482422,1.054688 -0.02159,0.09762 4.49e-4,0.199379 -0.01953,0.287109 -0.03078,0.132944 -0.125068,0.231737 -0.144531,0.357422 -0.01945,0.12845 -0.04739,0.37177 -0.03516,0.501953 0.01811,0.191774 0.223449,0.368009 0.324218,0.53711 0.107188,0.179958 0.194176,0.482931 0.320313,0.714843 0.07004,0.128448 0.187894,0.236856 0.216797,0.341797 0.03747,0.136092 -0.0023,0.317428 0.01758,0.482422 0.0158,0.133842 0.0893,0.249911 0.107422,0.357422 0.05558,0.329663 0.06746,0.658713 0.232422,0.933594 0.0061,0.01026 0.0186,0.01959 0.02539,0.0293 C 42.073098,33.774551 44,29.126285 44,24 c 0,-2.187965 -0.360301,-4.28645 -1.003906,-6.253906 -0.235474,-0.04949 -0.482935,-0.206091 -0.75,-0.236328 -0.07959,-0.0091 -0.17,0.0158 -0.232422,0 -0.08272,-0.02123 -0.146555,-0.116536 -0.232422,-0.144532 -0.148808,-0.0484 -0.2639,-0.01793 -0.394531,-0.05273 -0.176359,-0.310652 -1.070122,-0.332081 -1.146485,0.125 -0.03398,0.201664 0.104483,0.484719 -0.195312,0.519531 -0.190365,0.02213 -0.385607,-0.193485 -0.646484,-0.25 -0.106677,-0.02347 -0.256674,-0.008 -0.339844,-0.03711 -0.195307,-0.06736 -0.171703,-0.256502 -0.339844,-0.375 -0.09768,-0.06862 -0.347752,-0.16299 -0.501953,-0.179688 -0.09582,-0.01044 -0.183876,0.02892 -0.285156,0.01758 -0.120294,-0.01312 -0.292806,-0.09818 -0.394532,-0.160156 -0.09717,-0.05925 -0.29741,-0.149343 -0.322265,-0.234375 -0.038,-0.131981 0.242445,-0.28038 0.251953,-0.392578 0.007,-0.0845 -0.106137,-0.139349 -0.126953,-0.269531 -0.01223,-0.0787 0.03446,-0.160417 0.01953,-0.212891 -0.02624,-0.09224 -0.180039,-0.195045 -0.324219,-0.197265 -0.127552,-0.0022 -0.248436,0.103801 -0.357422,0.107422 -0.157352,0.005 -0.412565,-0.08763 -0.607422,-0.07227 -0.119393,0.0095 -0.230562,0.08133 -0.341796,0.08984 -0.312,0.02488 -0.563269,-0.01401 -0.804688,0 -0.175844,0.01042 -0.480889,0.06797 -0.644531,0.142578 -0.08316,0.03793 -0.144828,0.123911 -0.251953,0.177734 -0.04836,0.0244 -0.11553,0.02578 -0.179688,0.05469 -0.101732,0.04613 -0.20601,0.15534 -0.302734,0.179687 -0.1402,0.03577 -0.356204,-0.02755 -0.609375,-0.01758 -0.181756,0.0073 -0.479703,0.0051 -0.482422,-0.216797 -0.0045,-0.331398 0.562102,-0.209198 0.875,-0.267578 0.117981,-0.02212 0.18318,-0.131221 0.324219,-0.214844 0.06744,-0.04021 0.151514,-0.04648 0.214844,-0.08984 0.108471,-0.07463 0.271244,-0.253461 0.287109,-0.339843 0.01402,-0.07959 -0.04655,-0.190786 -0.03711,-0.25 0.0123,-0.07555 0.100093,-0.156131 0.197265,-0.251953 0.15099,-0.149194 0.316602,-0.34958 0.501953,-0.447266 0.126649,-0.06692 0.299105,-0.05931 0.357422,-0.160156 0.01312,-0.114833 -0.02028,-0.180728 -0.01758,-0.285156 0.0778,-0.07101 0.132145,-0.132486 0.197266,-0.146485 0.193056,-0.04162 0.382703,0.136458 0.607422,0.126953 0.09717,-0.0039 0.182678,-0.07527 0.287109,-0.144531 0.08771,-0.05835 0.181645,-0.09878 0.267578,-0.142578 0.09448,-0.04881 0.191808,-0.152996 0.306641,-0.160156 0.281686,-0.01766 0.389577,0.297182 0.517578,0.466797 0.107126,0.141037 0.415951,0.381434 0.591797,0.480468 0.09903,0.05558 0.230853,0.06008 0.339843,0.109375 0.232426,0.104426 0.689532,0.451819 0.697266,0.679688 0.0039,0.113932 -0.105547,0.199807 -0.08789,0.304687 0.175848,0.02892 0.372425,-0.163485 0.376953,-0.339844 0.0024,-0.110334 -0.111181,-0.170865 -0.08984,-0.287109 0.08227,-0.177193 0.321443,9.2e-5 0.427734,-0.07226 -0.02034,-0.200254 -0.293943,-0.216336 -0.464844,-0.320313 -0.09224,-0.05605 -0.154176,-0.177425 -0.25,-0.216797 -0.138789,-0.05693 -0.286441,-0.04137 -0.394531,-0.125 -0.101284,-0.07825 -0.152021,-0.258011 -0.251953,-0.376953 -0.145147,-0.173151 -0.462283,-0.199171 -0.375,-0.589844 0.04344,-0.0588 0.147476,-0.149855 0.214844,-0.125 0.132942,0.03212 0.11671,0.146127 0.214843,0.214844 0.07138,0.04971 0.171932,0.03962 0.251954,0.08984 0.09403,0.05925 0.143769,0.213206 0.25,0.302734 0.150155,0.126137 0.415394,0.223453 0.626953,0.324219 0.198062,0.0941 0.515836,0.221677 0.554687,0.392578 0.02168,0.09634 -0.03025,0.203488 -0.01758,0.287109 0.0158,0.106289 0.09144,0.214637 0.142578,0.285157 0.138335,0.190813 0.331969,0.360334 0.484375,0.591796 -0.0045,0.314699 0.111669,0.509246 0.464844,0.466797 0.127485,-0.06789 0.0622,-0.163239 0.162109,-0.269531 0.09402,-0.09987 0.300925,-0.08636 0.302735,-0.232422 0.0023,-0.224723 -0.535424,-0.260852 -0.464844,-0.591797 0.02078,-0.105779 0.138396,-0.05363 0.232422,-0.05273 0.08038,-0.0927 0.206016,-0.194876 0.337891,-0.234375 -0.847099,-1.573407 -1.909781,-3.008333 -3.13086,-4.291016 -0.02408,0.0027 -0.04812,0.01435 -0.07227,0.01367 -0.133392,-0.004 -0.270349,-0.163969 -0.482421,-0.162109 -0.109438,0.0016 -0.192106,0.07903 -0.304688,0.08984 -0.141936,0.01401 -0.367761,-0.04664 -0.357422,-0.1601566 0.01588,-0.176745 0.255141,-0.030738 0.392578,-0.054687 0.172767,-0.03025 0.134423,-0.1751096 0.251953,-0.1972657 0.04973,-0.0097 0.100598,0.013883 0.158204,0.033203 -0.09015,-0.08916 -0.189416,-0.1684242 -0.28125,-0.2558594 -0.101742,0.095999 -0.348304,0.1339323 -0.486328,0.1328125 -0.01446,-0.161844 0.02326,-0.4268542 -0.107422,-0.5195313 z m -4.810547,0.6875 c -0.0732,0.0069 -0.143331,0.027893 -0.203125,0.064453 -0.136089,0.08316 -0.181719,0.2117478 -0.28711,0.2519528 -0.145147,0.05469 -0.245938,0.0071 -0.267578,0.142579 -0.01766,0.110337 0.09299,0.164048 0.08984,0.267578 -0.0529,0.131595 -0.208172,0.165457 -0.234375,0.324219 0.181305,0.296072 0.618579,0.03027 0.84375,-0.03711 0.101285,-0.03026 0.248015,-0.02367 0.302734,-0.105469 0.06245,-0.09455 0.0066,-0.259494 0.05273,-0.396484 0.05193,-0.150543 0.19924,-0.16844 0.18164,-0.302734 C 32.847924,9.8921029 32.6062,9.7945352 32.386719,9.8164062 z M 10.447266,10.328125 c 0.334997,-0.07825 0.199806,0.51429 0,0.521484 -0.278536,0.01 -0.224332,-0.469074 0,-0.521484 z m 2.255859,1.578125 c 0.162298,0.04254 0.589187,0.510154 0.232422,0.662109 -0.03383,0.01446 -0.524795,0.0672 -0.609375,0.05274 -0.123829,-0.02123 -0.195078,-0.192623 -0.320313,-0.214844 -0.247327,-0.04338 -0.582402,0.297907 -0.751953,0.01758 0.04292,-0.159148 0.221212,-0.163273 0.410156,-0.214844 0.33551,-0.09134 0.748775,-0.37871 1.039063,-0.302734 z m 0.681641,0.857422 c 0.08361,0.0069 0.183869,0.09969 0.285156,0.107422 0.09582,0.007 0.175609,-0.05051 0.234375,-0.03516 0.14965,0.03934 0.210954,0.266166 0.07031,0.376953 -0.117084,0.01446 -0.161819,-0.05059 -0.25,-0.03516 -0.243219,0.04159 -0.337774,0.515802 -0.519531,0.5 -0.171415,-0.01491 -0.26389,-0.430351 -0.08984,-0.554687 0.0069,-0.108538 -0.07775,-0.127183 -0.07226,-0.234375 0.05246,-0.06692 0.198961,-0.137205 0.341797,-0.125 z m -0.806641,0.05664 c 0.04989,0.0023 0.08887,0.01138 0.107422,0.0332 -0.02398,0.190816 -0.174867,0.180451 -0.322266,0.269531 -0.254585,0.153687 -0.401436,0.388551 -0.482422,0.716797 -0.02351,0.09634 -0.273341,0.345619 -0.394531,0.320312 -0.28393,-0.05973 0.07788,-0.582536 0.142578,-0.662109 0.07139,-0.08816 0.167433,-0.165849 0.251953,-0.267578 0.08182,-0.09865 0.133767,-0.23239 0.212891,-0.28711 0.08646,-0.05931 0.334774,-0.128686 0.484375,-0.123047 z m 2.119141,0.644532 c 0.09085,0.0023 0.169712,0.01443 0.207031,0.05078 -0.05835,0.23647 -0.565633,0.175281 -0.751953,0.08984 0.01223,-0.08861 0.152386,-0.113184 0.269531,-0.125 0.08299,-0.0079 0.184507,-0.01748 0.275391,-0.01563 z m -1.160157,0.435547 c 0.06113,-0.0023 0.123863,0.0047 0.1875,0.02734 -0.164992,0.13789 -0.343917,0.215161 -0.626953,0.304688 -0.136094,0.043 -0.371472,0.09726 -0.394531,-0.05469 -0.02847,-0.186251 0.197927,-0.143457 0.322266,-0.160156 0.156355,-0.02102 0.328448,-0.111288 0.511718,-0.117187 z m 23.332032,0 c -0.116102,0.03812 -0.171235,0.283242 0.0059,0.314453 0.08226,-0.04933 0.145361,-0.116134 0.125,-0.267578 -0.04541,-0.04916 -0.0902,-0.05954 -0.128906,-0.04687 l -0.002,0 z m -0.04492,0.5 c -0.05739,0.01561 -0.120145,0.0549 -0.181641,0.11914 0.0045,0.199865 0.02176,0.328289 -0.01758,0.501953 0.115348,0.220607 0.368911,0.02138 0.427734,-0.126953 0.06915,-0.372673 -0.05649,-0.54105 -0.228515,-0.49414 z m 1.527343,0.986328 c -0.15937,-0.0064 -0.308964,0.0069 -0.402343,0.08203 0.131146,0.214766 0.405776,0.286984 0.699219,0.339844 0.105772,-0.07914 0.111799,-0.257606 0.160156,-0.394532 -0.128641,0.0023 -0.297658,-0.02129 -0.457032,-0.02734 z M 13.86719,24.689453 c 0.171792,-0.07914 0.213853,0.244526 0.07226,0.267578 -0.133842,0.02123 -0.202102,-0.207468 -0.07226,-0.267578 z"
       style="fill:#ecf0f1;fill-opacity:1;fill-rule:nonzero;stroke:none"
       inkscape:connector-curvature="0" />
  </g>
  <g
     style="font-size:52px;font-style:normal;font-variant:normal;font-weight:normal;font-stretch:normal;fill:#a52a2a;fill-opacity:1;stroke:none;font-family:Brassfield;-inkscape-font-specification:Brassfield"
     id="text2816"
     transform="matrix(0.96153846,0,0,0.96153846,0.92307693,-964.80981)">
    <path
       inkscape:connector-curvature="0"
       d="m 3.2,1028.3622 c -1.5e-6,-5.7546 2.0279965,-10.6599 6.084,-14.716 4.055988,-4.0559 8.961317,-6.0839 14.716,-6.084 5.754639,1e-4 10.659967,2.0281 14.716,6.084 4.055959,4.0561 6.083957,8.9614 6.084,14.716 -4.3e-5,5.7547 -2.028041,10.66 -6.084,14.716 -4.056033,4.056 -8.961361,6.084 -14.716,6.084 -5.754683,0 -10.660012,-2.028 -14.716,-6.084 -4.0560035,-4.056 -6.0840015,-8.9613 -6.084,-14.716 m 36.4,0 c -3.8e-5,-4.2986 -1.52537,-7.9733 -4.576,-11.024 -3.050697,-3.0506 -6.72536,-4.5759 -11.024,-4.576 -4.298685,10e-5 -7.973348,1.5254 -11.024,4.576 -3.0506749,3.0507 -4.5760067,6.7254 -4.576,11.024 -6.7e-6,4.2987 1.5253251,7.9734 4.576,11.024 3.050652,3.0507 6.725315,4.576 11.024,4.576 4.29864,0 7.973303,-1.5253 11.024,-4.576 3.05063,-3.0506 4.575962,-6.7253 4.576,-11.024"
       style="fill:#a52a2a"
       id="path4228" />
  </g>
</svg>
