<?xml version="1.0" encoding="UTF-8" standalone="no"?>
<!-- Created using Karbon, part of Calligra: http://www.calligra.org/karbon -->

<svg
   xmlns:dc="http://purl.org/dc/elements/1.1/"
   xmlns:cc="http://creativecommons.org/ns#"
   xmlns:rdf="http://www.w3.org/1999/02/22-rdf-syntax-ns#"
   xmlns:svg="http://www.w3.org/2000/svg"
   xmlns="http://www.w3.org/2000/svg"
   xmlns:xlink="http://www.w3.org/1999/xlink"
   xmlns:sodipodi="http://sodipodi.sourceforge.net/DTD/sodipodi-0.dtd"
   xmlns:inkscape="http://www.inkscape.org/namespaces/inkscape"
   width="38.4pt"
   height="38.4pt"
   id="svg2"
   version="1.1"
   inkscape:version="0.48.5 r10040"
   sodipodi:docname="pithos.svg">
  <metadata
     id="metadata20">
    <rdf:RDF>
      <cc:Work
         rdf:about="">
        <dc:format>image/svg+xml</dc:format>
        <dc:type
           rdf:resource="http://purl.org/dc/dcmitype/StillImage" />
      </cc:Work>
    </rdf:RDF>
  </metadata>
  <sodipodi:namedview
     pagecolor="#ffffff"
     bordercolor="#666666"
     borderopacity="1"
     objecttolerance="10"
     gridtolerance="10"
     guidetolerance="10"
     inkscape:pageopacity="0"
     inkscape:pageshadow="2"
     inkscape:window-width="1920"
     inkscape:window-height="1035"
     id="namedview18"
     showgrid="false"
     inkscape:zoom="4.9166667"
     inkscape:cx="-35.38983"
     inkscape:cy="24"
     inkscape:window-x="-4"
     inkscape:window-y="29"
     inkscape:window-maximized="1"
     inkscape:current-layer="svg2" />
  <defs
     id="defs4">
    <linearGradient
       inkscape:collect="always"
       xlink:href="#linearGradient4560-9"
       id="linearGradient12796"
       gradientUnits="userSpaceOnUse"
       gradientTransform="matrix(4.7389038,0,0,4.7389038,-396.28494,11.876611)"
       x1="144.87"
       y1="77.388885"
       x2="144.87"
       y2="28.849699" />
    <linearGradient
       id="linearGradient4560-9">
      <stop
         id="stop4562-0"
         style="stop-color:#444444;stop-opacity:1"
         offset="0" />
      <stop
         id="stop4564-8"
         style="stop-color:#888888;stop-opacity:1"
         offset="1" />
    </linearGradient>
    <linearGradient
       id="linearGradient4560">
      <stop
         id="stop4562"
         style="stop-color:#444444;stop-opacity:1"
         offset="0" />
      <stop
         id="stop4564"
         style="stop-color:#888888;stop-opacity:1"
         offset="1" />
    </linearGradient>
    <linearGradient
       inkscape:collect="always"
       xlink:href="#linearGradient3833"
       id="linearGradient12776"
       gradientUnits="userSpaceOnUse"
       gradientTransform="matrix(3.0464197,0,0,3.0443586,-132.28351,-1848.9531)"
       x1="120.5"
       y1="706.87787"
       x2="120.5"
       y2="678.83179" />
    <linearGradient
       id="linearGradient3833">
      <stop
         id="stop3835-6"
         style="stop-color:#8fd400;stop-opacity:1"
         offset="0" />
      <stop
         id="stop3837-7"
         style="stop-color:#daff31;stop-opacity:1"
         offset="1" />
    </linearGradient>
    <linearGradient
       inkscape:collect="always"
       xlink:href="#linearGradient4142"
       id="linearGradient414895"
       gradientUnits="userSpaceOnUse"
       gradientTransform="matrix(3.9357109,0,0,3.9357109,694.26316,378.18949)"
       x1="48"
       y1="41"
       x2="48"
       y2="64.021729" />
    <linearGradient
       id="linearGradient4142">
      <stop
         id="stop4144"
         style="stop-color:#f4a615;stop-opacity:1"
         offset="0" />
      <stop
         id="stop4146-1"
         style="stop-color:#f4a615;stop-opacity:0"
         offset="1" />
    </linearGradient>
    <linearGradient
       inkscape:collect="always"
       xlink:href="#linearGradient4052-1"
       id="linearGradient414897"
       gradientUnits="userSpaceOnUse"
       gradientTransform="matrix(3.9357109,0,0,3.9357109,694.26316,378.18949)"
       spreadMethod="reflect"
       x1="48"
       y1="43"
       x2="58"
       y2="43" />
    <linearGradient
       id="linearGradient4052-1">
      <stop
         id="stop4054-1"
         style="stop-color:#f4a615;stop-opacity:1"
         offset="0" />
      <stop
         id="stop4056-2"
         style="stop-color:#f47d15;stop-opacity:1"
         offset="1" />
    </linearGradient>
    <linearGradient
       inkscape:collect="always"
       xlink:href="#linearGradient4052-1"
       id="linearGradient414899"
       gradientUnits="userSpaceOnUse"
       gradientTransform="matrix(3.9357109,0,0,3.9357109,694.26316,378.18949)"
       x1="48"
       y1="31.772171"
       x2="48"
       y2="67" />
    <linearGradient
       id="linearGradient13032">
      <stop
         id="stop13034"
         style="stop-color:#f4a615;stop-opacity:1"
         offset="0" />
      <stop
         id="stop13036"
         style="stop-color:#f47d15;stop-opacity:1"
         offset="1" />
    </linearGradient>
    <linearGradient
       inkscape:collect="always"
       xlink:href="#linearGradient3677"
       id="linearGradient414880"
       gradientUnits="userSpaceOnUse"
       gradientTransform="matrix(0,-4.4276748,4.4276748,0,1024.8629,779.632)"
       x1="16"
       y1="48"
       x2="80"
       y2="48" />
    <linearGradient
       id="linearGradient3677">
      <stop
         id="stop3679-2"
         style="stop-color:#190e07;stop-opacity:1"
         offset="0" />
      <stop
         id="stop3681-6"
         style="stop-color:#311e12;stop-opacity:1"
         offset="1" />
    </linearGradient>
  </defs>
  <g
     id="svg_11"
     transform="matrix(0.10614041,0,0,0.10614041,-10.99827,-1.9777606)">
    <rect
       id="svg_6"
       height="195.04233"
       width="225.40039"
       y="193.95769"
       x="223.67999"
       style="fill:#ffffff;stroke:#aaaaaa;stroke-width:0" />
    <path
       id="svg_8"
       d="m 178.59599,215.074 c 0,0 156.27401,-108.026 156.35002,-109.797 0.075,-1.772 151.03299,106.49599 151.03299,106.49599 0,0 -307.38302,3.30101 -307.38302,3.30101 l 0,0 0,0 0,0 1e-5,0 z"
       inkscape:connector-curvature="0"
       style="fill:#ffffff;stroke:#aaaaaa;stroke-width:0" />
  </g>
  <g
     id="g414855"
     transform="matrix(0.14115762,0,0,0.14115762,-150.66721,-56.050997)">
    <path
       inkscape:connector-curvature="0"
       d="m 1237.3913,425.41802 a 141.68559,141.68559 0 0 1 0,283.37118 141.68559,141.68559 0 1 1 0,-283.37118 z"
       id="path3675"
       style="color:#000000;fill:url(#linearGradient414880);fill-opacity:1;fill-rule:nonzero;stroke:none;stroke-width:1;marker:none;visibility:visible;display:inline;overflow:visible;enable-background:accumulate" />
    <path
       d="m 1237.3913,433.28944 c -73.9036,0 -133.8142,59.91065 -133.8142,133.81417 0,73.90353 59.9106,133.81417 133.8142,133.81417 73.9035,0 133.8141,-59.91064 133.8141,-133.81417 0,-73.90352 -59.9106,-133.81417 -133.8141,-133.81417 z m 0,3.93571 c 71.7299,0 129.8784,58.14857 129.8784,129.87846 0,71.7299 -58.1485,129.87846 -129.8784,129.87846 -71.7299,0 -129.8785,-58.14856 -129.8785,-129.87846 0,-71.72989 58.1486,-129.87846 129.8785,-129.87846 z"
       inkscape:connector-curvature="0"
       id="path3685"
       style="color:#000000;fill:#f49215;fill-opacity:1;fill-rule:nonzero;stroke:none;stroke-width:1;marker:none;visibility:visible;display:inline;overflow:visible;enable-background:accumulate" />
    <path
       d="m 1221.6484,441.16086 0,3.93572 0,23.61426 3.9357,0 0,-23.61426 19.6786,0 0,11.80713 -7.8714,0 0,3.93571 11.8071,0 0,-3.93571 0,-15.74285 -3.9357,0 -19.6786,0 -3.9357,0 z m 7.8714,7.87143 0,3.93571 0,11.80713 0,3.93571 27.55,0 0,-3.93571 -23.6142,0 0,-11.80713 7.8714,0 0,-3.93571 -11.8072,0 z"
       inkscape:connector-curvature="0"
       id="rect3697"
       style="color:#000000;fill:#f49215;fill-opacity:1;fill-rule:nonzero;stroke:none;stroke-width:1;marker:none;visibility:visible;display:inline;overflow:visible;enable-background:accumulate" />
    <path
       d="m 1261.96,442.58136 -1.2349,3.73696 -7.4094,22.42175 3.737,1.23489 7.4093,-22.42175 18.6848,6.17446 -3.7046,11.21088 -7.4739,-2.46979 -1.235,3.73696 11.2109,3.70468 1.2349,-3.73696 4.9396,-14.94784 -3.737,-1.23489 -18.6848,-6.17446 -3.7369,-1.23489 z m 5.0041,9.9437 -1.2349,3.73696 -3.7047,11.21088 -1.2348,3.73696 26.1587,8.64424 1.2349,-3.73696 -22.4218,-7.40935 3.7047,-11.21088 7.4739,2.46979 1.2349,-3.73696 -11.2109,-3.70468 z"
       inkscape:connector-curvature="0"
       id="path3714"
       style="color:#000000;fill:#f49215;fill-opacity:1;fill-rule:nonzero;stroke:none;stroke-width:1;marker:none;visibility:visible;display:inline;overflow:visible;enable-background:accumulate" />
    <path
       d="m 1299.1428,456.21557 -2.3265,3.17443 -13.9593,19.0466 3.1745,2.32654 13.9592,-19.0466 15.8722,11.63271 -6.9796,9.5233 -6.3489,-4.65308 -2.3266,3.17443 9.5234,6.97962 2.3265,-3.17443 9.3062,-12.69774 -3.1745,-2.32654 -15.8721,-11.6327 -3.1745,-2.32654 z m 1.6958,11.00195 -2.3265,3.17443 -6.9797,9.5233 -2.3265,3.17443 22.221,16.28579 2.3266,-3.17444 -19.0466,-13.95923 6.9796,-9.52331 6.3489,4.65308 2.3265,-3.17443 -9.5233,-6.97962 z"
       inkscape:connector-curvature="0"
       id="path3716"
       style="color:#000000;fill:#f49215;fill-opacity:1;fill-rule:nonzero;stroke:none;stroke-width:1;marker:none;visibility:visible;display:inline;overflow:visible;enable-background:accumulate" />
    <path
       d="m 1330.1228,480.44182 -3.1866,2.30985 -19.1195,13.85914 2.3098,3.1866 19.1196,-13.85914 11.5493,15.93297 -9.5598,6.92957 -4.6197,-6.37319 -3.1866,2.30986 6.9296,9.55978 3.1866,-2.30986 12.7463,-9.23943 -2.3098,-3.18659 -11.5493,-15.93297 -2.3099,-3.18659 z m -1.7534,10.9929 -3.1866,2.30986 -9.5598,6.92957 -3.1866,2.30985 16.169,22.30616 3.1866,-2.30986 -13.8592,-19.11956 9.5598,-6.92957 4.6197,6.37318 3.1867,-2.30985 -6.9296,-9.55978 z"
       inkscape:connector-curvature="0"
       id="path3718"
       style="color:#000000;fill:#f49215;fill-opacity:1;fill-rule:nonzero;stroke:none;stroke-width:1;marker:none;visibility:visible;display:inline;overflow:visible;enable-background:accumulate" />
    <path
       d="m 1352.3488,513.30605 -3.7441,1.21316 -22.4644,7.27899 1.2132,3.74408 22.4644,-7.279 6.0658,18.72035 -11.2322,3.63949 -2.4263,-7.48814 -3.7441,1.21317 3.6395,11.23221 3.7441,-1.21317 14.9763,-4.85266 -1.2132,-3.74407 -6.0658,-18.72034 -1.2132,-3.74407 z m -5.0618,9.91447 -3.7441,1.21316 -11.2322,3.6395 -3.744,1.21316 8.4921,26.20848 3.7441,-1.21317 -7.279,-22.4644 11.2322,-3.6395 2.4263,7.48814 3.7441,-1.21317 -3.6395,-11.2322 z"
       inkscape:connector-curvature="0"
       id="path3720"
       style="color:#000000;fill:#f49215;fill-opacity:1;fill-rule:nonzero;stroke:none;stroke-width:1;marker:none;visibility:visible;display:inline;overflow:visible;enable-background:accumulate" />
    <path
       d="m 1363.3739,551.68304 -3.9357,-0.0102 -23.6142,-0.0604 -0.012,3.9357 23.6142,0.0604 -0.05,19.67849 -11.8071,-0.0303 0.02,-7.87139 -3.9357,-0.0102 -0.032,11.80709 3.9357,0.0102 15.7428,0.0403 0.012,-3.9357 0.05,-19.67849 0.012,-3.93569 z m -7.8916,7.85126 -3.9357,-0.0102 -11.8071,-0.0303 -3.9356,-0.0102 -0.071,27.54989 3.9357,0.0102 0.06,-23.61418 11.8071,0.0303 -0.02,7.87141 3.9357,0.0102 0.032,-11.80709 z"
       inkscape:connector-curvature="0"
       id="path3722"
       style="color:#000000;fill:#f49215;fill-opacity:1;fill-rule:nonzero;stroke:none;stroke-width:1;marker:none;visibility:visible;display:inline;overflow:visible;enable-background:accumulate" />
    <path
       d="m 1361.8554,591.96515 -3.734,-1.24383 -22.4043,-7.46207 -1.2438,3.734 22.4043,7.46207 -6.2184,18.67022 -11.2021,-3.73113 2.4873,-7.46811 -3.734,-1.24384 -3.7312,11.2021 3.734,1.24384 14.9362,4.9747 1.2439,-3.73399 6.2183,-18.67023 1.2439,-3.73399 z m -9.9555,4.98074 -3.734,-1.24384 -11.2021,-3.73113 -3.734,-1.24383 -8.7057,26.13831 3.734,1.24384 7.4621,-22.40426 11.2021,3.73112 -2.4873,7.46812 3.734,1.24383 3.7311,-11.20209 z"
       inkscape:connector-curvature="0"
       id="path3724"
       style="color:#000000;fill:#f49215;fill-opacity:1;fill-rule:nonzero;stroke:none;stroke-width:1;marker:none;visibility:visible;display:inline;overflow:visible;enable-background:accumulate" />
    <path
       d="m 1348.0514,629.2627 -3.1658,-2.33833 -18.9951,-14.02922 -2.3383,3.16576 18.9951,14.02921 -11.691,15.82928 -9.4975,-7.01469 4.6763,-6.33175 -3.1657,-2.33834 -7.0147,9.4975 3.1657,2.33834 12.6635,9.3528 2.3383,-3.16575 11.691,-15.82928 2.3383,-3.16575 z m -11.0081,1.65531 -3.1658,-2.33834 -9.4975,-7.01469 -3.1657,-2.33833 -16.3675,22.16097 3.1658,2.33834 14.0292,-18.99512 9.4975,7.01469 -4.6763,6.33175 3.1657,2.33833 7.0147,-9.49749 z"
       inkscape:connector-curvature="0"
       id="path3726"
       style="color:#000000;fill:#f49215;fill-opacity:1;fill-rule:nonzero;stroke:none;stroke-width:1;marker:none;visibility:visible;display:inline;overflow:visible;enable-background:accumulate" />
    <path
       d="m 1323.2044,660.62104 -2.2805,-3.2076 -13.6844,-19.24506 -3.2076,2.28059 13.6844,19.24506 -16.0376,11.40363 -6.8421,-9.62259 6.415,-4.5615 -2.2806,-3.20761 -9.6226,6.84209 2.2806,3.20761 9.1229,12.83003 3.2076,-2.28059 16.0376,-11.40362 3.2076,-2.28059 z m -10.9764,-1.85356 -2.2806,-3.20761 -6.8421,-9.62259 -2.2806,-3.2076 -22.4526,15.96507 2.2806,3.2076 19.2451,-13.68435 6.8421,9.6226 -6.415,4.5615 2.2806,3.2076 9.6226,-6.84208 z"
       inkscape:connector-curvature="0"
       id="path3728"
       style="color:#000000;fill:#f49215;fill-opacity:1;fill-rule:nonzero;stroke:none;stroke-width:1;marker:none;visibility:visible;display:inline;overflow:visible;enable-background:accumulate" />
    <path
       d="m 1289.5726,682.80375 -1.1604,-3.76075 -6.9635,-22.56422 -3.7608,1.16044 6.9635,22.5642 -18.8035,5.80291 -3.4816,-11.28213 7.5214,-2.32123 -1.1605,-3.76075 -11.2821,3.48165 1.1604,3.76075 4.6424,15.0428 3.7607,-1.16042 18.8035,-5.80291 3.7608,-1.16042 z m -9.8425,-5.20024 -1.1605,-3.76076 -3.4816,-11.28213 -1.1604,-3.76074 -26.3249,8.12405 1.1604,3.76075 22.5642,-6.96348 3.4816,11.28214 -7.5214,2.32122 1.1605,3.76075 11.2821,-3.48164 z"
       inkscape:connector-curvature="0"
       id="path3730"
       style="color:#000000;fill:#f49215;fill-opacity:1;fill-rule:nonzero;stroke:none;stroke-width:1;marker:none;visibility:visible;display:inline;overflow:visible;enable-background:accumulate" />
    <path
       d="m 1251.1223,693.28156 0.063,-3.9352 0.3771,-23.61127 -3.9352,-0.063 -0.3771,23.61125 -19.6761,-0.31403 0.1886,-11.80563 7.8704,0.12555 0.063,-3.93521 -11.8057,-0.18852 -0.063,3.93521 -0.2511,15.74084 3.9352,0.063 19.676,0.31403 3.9352,0.063 z m -7.7449,-7.99603 0.063,-3.93521 0.1885,-11.80563 0.063,-3.9352 -27.5465,-0.43966 -0.063,3.93521 23.6112,0.37684 -0.1885,11.80564 -7.8704,-0.12555 -0.063,3.9352 11.8056,0.18852 z"
       inkscape:connector-curvature="0"
       id="path3732"
       style="color:#000000;fill:#f49215;fill-opacity:1;fill-rule:nonzero;stroke:none;stroke-width:1;marker:none;visibility:visible;display:inline;overflow:visible;enable-background:accumulate" />
    <path
       d="m 1211.6277,691.38416 1.2709,-3.72487 7.6244,-22.34956 -3.7249,-1.27089 -7.6244,22.34955 -18.6246,-6.35362 3.8122,-11.17475 7.4499,2.54139 1.2709,-3.72487 -11.1747,-3.81228 -1.2709,3.72488 -5.0829,14.89971 3.7249,1.27088 18.6246,6.35363 3.7249,1.27088 z m -4.9084,-9.9913 1.2709,-3.72488 3.8123,-11.17474 1.2708,-3.72487 -26.0744,-8.89509 -1.2709,3.72487 22.3495,7.62435 -3.8122,11.17476 -7.4499,-2.5414 -1.2709,3.72487 11.1747,3.81228 z"
       inkscape:connector-curvature="0"
       id="path3734"
       style="color:#000000;fill:#f49215;fill-opacity:1;fill-rule:nonzero;stroke:none;stroke-width:1;marker:none;visibility:visible;display:inline;overflow:visible;enable-background:accumulate" />
    <path
       d="m 1158.6622,677.29503 2.3619,-3.14815 14.1712,-18.88951 -3.1482,-2.36199 -14.1711,18.8895 -15.7413,-11.80925 7.0857,-9.44469 6.2965,4.72365 2.362,-3.14815 -9.4447,-7.08564 -2.362,3.14815 -9.4474,12.59302 3.1482,2.36198 15.7412,11.80926 3.1482,2.36197 z m -1.5728,-11.0202 2.362,-3.14816 7.0856,-9.44469 2.362,-3.14815 -22.0378,-16.53296 -2.362,3.14815 18.8895,14.1711 -7.0856,9.4447 -6.2965,-4.72365 -2.362,3.14814 9.4447,7.08563 z"
       inkscape:connector-curvature="0"
       id="path3736"
       style="color:#000000;fill:#f49215;fill-opacity:1;fill-rule:nonzero;stroke:none;stroke-width:1;marker:none;visibility:visible;display:inline;overflow:visible;enable-background:accumulate" />
    <path
       d="m 1127.6199,707.45646 3.2212,-2.26138 19.3265,-13.56911 -2.2614,-3.22118 -19.3265,13.5691 -11.3076,-16.10539 9.6633,-6.78448 4.5231,6.44212 3.2212,-2.26138 -6.7845,-9.6633 -3.2212,2.26139 -12.8843,9.04608 2.2614,3.22118 11.3076,16.1054 2.2614,3.22117 z m 1.9191,-10.96519 3.2212,-2.26139 9.6633,-6.78447 3.2212,-2.26138 -15.8306,-22.54757 -3.2212,2.26139 13.5691,19.32647 -9.6633,6.78448 -4.5231,-6.44213 -3.2212,2.26138 6.7845,9.66329 z"
       inkscape:connector-curvature="0"
       id="path3738"
       style="color:#000000;fill:#f49215;fill-opacity:1;fill-rule:nonzero;stroke:none;stroke-width:1;marker:none;visibility:visible;display:inline;overflow:visible;enable-background:accumulate" />
    <path
       d="m 1121.6062,619.09612 3.7626,-1.15428 22.5755,-6.92666 -1.1542,-3.76264 -22.5756,6.92664 -5.7722,-18.81294 11.2878,-3.46324 2.309,7.52517 3.7626,-1.15429 -3.4633,-11.2878 -3.7626,1.15429 -15.0504,4.61777 1.1543,3.76265 5.7723,18.81295 1.1542,3.76263 z m 5.2162,-9.83406 3.7627,-1.15429 11.2878,-3.46324 3.7626,-1.15428 -8.0811,-26.33814 -3.7626,1.15429 6.9266,22.57553 -11.2878,3.46325 -2.3089,-7.52517 -3.7627,1.15428 3.4633,11.28779 z"
       inkscape:connector-curvature="0"
       id="path3740"
       style="color:#000000;fill:#f49215;fill-opacity:1;fill-rule:nonzero;stroke:none;stroke-width:1;marker:none;visibility:visible;display:inline;overflow:visible;enable-background:accumulate" />
    <path
       d="m 1111.2113,580.81644 3.9352,0.0635 23.6112,0.38023 0.063,-3.9352 -23.6112,-0.38023 0.3168,-19.676 11.8056,0.19021 -0.1267,7.8704 3.9352,0.0635 0.1901,-11.8056 -3.9352,-0.0635 -15.7408,-0.2535 -0.063,3.93521 -0.3168,19.67601 -0.063,3.93518 z m 7.9972,-7.74365 3.9352,0.0635 11.8056,0.19022 3.9352,0.0635 0.4436,-27.54641 -3.9352,-0.0635 -0.3802,23.6112 -11.8056,-0.19021 0.1267,-7.87041 -3.9351,-0.0635 -0.1901,11.80559 z"
       inkscape:connector-curvature="0"
       id="path3742"
       style="color:#000000;fill:#f49215;fill-opacity:1;fill-rule:nonzero;stroke:none;stroke-width:1;marker:none;visibility:visible;display:inline;overflow:visible;enable-background:accumulate" />
    <path
       d="m 1113.1371,541.21335 3.7235,1.27466 22.3418,7.64714 1.2747,-3.72359 -22.3418,-7.64713 6.3726,-18.61814 11.1709,3.82366 -2.549,7.44727 3.7236,1.27467 3.8236,-11.17086 -3.7235,-1.27466 -14.8946,-5.09811 -1.2746,3.72359 -6.3727,18.61815 -1.2746,3.72357 z m 9.9963,-4.89821 3.7235,1.27467 11.1709,3.82365 3.7236,1.27467 8.9216,-26.0654 -3.7235,-1.27467 -7.6472,22.34177 -11.1708,-3.82366 2.5489,-7.44728 -3.7235,-1.27466 -3.8237,11.17084 z"
       inkscape:connector-curvature="0"
       id="path3744"
       style="color:#000000;fill:#f49215;fill-opacity:1;fill-rule:nonzero;stroke:none;stroke-width:1;marker:none;visibility:visible;display:inline;overflow:visible;enable-background:accumulate" />
    <path
       d="m 1126.7786,504.86009 3.164,2.34074 18.9844,14.0437 2.3408,-3.16399 -18.9845,-14.04369 11.7031,-15.82034 9.4922,7.02193 -4.6812,6.32817 3.164,2.34074 7.0219,-9.49216 -3.164,-2.34073 -12.6562,-9.36248 -2.3408,3.16399 -11.7031,15.82035 -2.3407,3.16397 z m 11.0094,-1.64689 3.164,2.34074 9.4921,7.02192 3.164,2.34073 16.3843,-22.14846 -3.1639,-2.34075 -14.0438,18.98441 -9.4921,-7.02193 4.6812,-6.32818 -3.164,-2.34073 -7.0219,9.49214 z"
       inkscape:connector-curvature="0"
       id="path3746"
       style="color:#000000;fill:#f49215;fill-opacity:1;fill-rule:nonzero;stroke:none;stroke-width:1;marker:none;visibility:visible;display:inline;overflow:visible;enable-background:accumulate" />
    <path
       d="m 1151.8188,473.36587 2.2723,3.21345 13.6349,19.28018 3.2134,-2.27236 -13.6348,-19.28016 16.0668,-11.36235 6.8173,9.64014 -6.4267,4.54499 2.2724,3.21345 9.6401,-6.81734 -2.2723,-3.21345 -9.0899,-12.85346 -3.2134,2.27236 -16.0669,11.36235 -3.2134,2.27235 z m 10.9717,1.88179 2.2723,3.21345 6.8173,9.64014 2.2724,3.21344 22.4935,-15.90727 -2.2723,-3.21346 -19.2802,13.63483 -6.8173,-9.64015 6.4267,-4.54499 -2.2724,-3.21345 -9.6401,6.81733 z"
       inkscape:connector-curvature="0"
       id="path3748"
       style="color:#000000;fill:#f49215;fill-opacity:1;fill-rule:nonzero;stroke:none;stroke-width:1;marker:none;visibility:visible;display:inline;overflow:visible;enable-background:accumulate" />
    <path
       d="m 1184.0247,451.94538 1.199,3.74863 7.1948,22.49152 3.7486,-1.199 -7.1948,-22.4915 18.7429,-5.99567 3.5973,11.24579 -7.4971,2.39832 1.199,3.74863 11.2458,-3.59731 -1.199,-3.74863 -4.7965,-14.99436 -3.7487,1.199 -18.7429,5.99567 -3.7487,1.19899 z m 9.8954,5.0989 1.199,3.74864 3.5973,11.24578 1.199,3.74862 26.2401,-8.39391 -1.199,-3.74864 -22.4915,7.19481 -3.5973,-11.2458 7.4971,-2.39832 -1.1989,-3.74863 -11.2458,3.5973 z"
       inkscape:connector-curvature="0"
       id="path3750"
       style="color:#000000;fill:#f49215;fill-opacity:1;fill-rule:nonzero;stroke:none;stroke-width:1;marker:none;visibility:visible;display:inline;overflow:visible;enable-background:accumulate" />
    <path
       d="m 1237.3913,472.64655 c -52.1672,0 -94.4571,42.28987 -94.4571,94.45706 0,52.1672 42.2899,94.45706 94.4571,94.45706 52.1671,0 94.457,-42.28986 94.457,-94.45706 0,-52.16719 -42.2899,-94.45706 -94.457,-94.45706 z m 0,3.93571 c 49.9935,0 90.5213,40.52779 90.5213,90.52135 0,49.99356 -40.5278,90.52135 -90.5213,90.52135 -49.9936,0 -90.5214,-40.52779 -90.5214,-90.52135 0,-49.99356 40.5278,-90.52135 90.5214,-90.52135 z"
       inkscape:connector-curvature="0"
       id="path3752"
       style="color:#000000;fill:#f49215;fill-opacity:1;fill-rule:nonzero;stroke:none;stroke-width:1;marker:none;visibility:visible;display:inline;overflow:visible;enable-background:accumulate" />
  </g>
  <g
     id="g414882"
     transform="matrix(0.09764918,0,0,0.09764918,-62.60654,-31.802341)">
    <path
       d="m 818.976,499.45858 c -5.28109,0.58644 -8.14211,6.1382 -7.37946,11.04206 0.0767,8.94385 -0.1568,17.90974 0.12299,26.83916 0.96503,5.22881 6.471,7.61493 11.32452,6.88749 3.86054,-0.26778 7.3639,-0.41468 2.85888,3.80059 -8.01564,11.72214 -12.217,26.24254 -9.72625,40.39914 2.47429,20.73261 16.93026,38.99539 36.00531,47.17386 22.17422,10.62438 49.41763,8.84318 70.19904,-4.20269 18.20225,-10.65752 29.27784,-31.51334 28.81026,-52.48744 0.10456,-12.70307 -5.74357,-24.5286 -12.91405,-34.68346 5.26579,-0.32827 12.02046,1.51907 15.37387,-3.81272 2.61606,-4.34448 1.04614,-9.69603 1.47589,-14.52743 -0.19958,-6.79143 0.42715,-13.6805 -0.36897,-20.402 -1.35594,-4.78566 -6.53665,-6.63401 -11.07854,-6.02656 -16.6798,0.0813 -33.38273,-0.16302 -50.04797,0.12299 -5.22881,0.96503 -7.61493,6.471 -6.8875,11.32452 0.404,5.54853 -1.65166,12.49025 3.72656,16.27889 16.42759,14.96658 25.51168,37.94097 23.59528,60.09779 -1.03724,12.89199 -8.64649,26.73694 -22.27425,29.35601 -12.1182,2.72324 -26.79294,-0.28565 -33.42238,-11.76619 -9.53348,-16.24339 -6.6369,-36.71029 0.49605,-53.28739 4.32777,-10.24309 11.2618,-19.18254 19.51536,-26.5445 2.7853,-4.62863 1.16408,-10.28467 1.59888,-15.42484 0.97197,-5.79756 -4.44753,-11.15053 -10.23117,-10.15728 -16.92412,0 -33.84823,0 -50.77235,0 z"
       inkscape:connector-curvature="0"
       id="path4158"
       style="opacity:0.11000001;fill:#000000;fill-opacity:1;stroke:none" />
    <path
       d="m 859.56302,539.55364 0,82.64993 3.93571,0 0,-82.64993 -3.93571,0 z m 15.74284,0 0,82.64993 3.93571,0 0,-82.64993 -3.93571,0 z m 15.74284,0 0,82.64993 3.93572,0 0,-82.64993 -3.93572,0 z m 15.74285,0 0,82.64993 3.93571,0 0,-82.64993 -3.93571,0 z"
       inkscape:connector-curvature="0"
       id="rect4135"
       style="color:#000000;fill:url(#linearGradient414895);fill-opacity:1;fill-rule:nonzero;stroke:none;stroke-width:1;marker:none;visibility:visible;display:inline;overflow:visible;enable-background:accumulate" />
    <rect
       width="78.714218"
       height="7.8714218"
       x="843.82019"
       y="543.48932"
       id="rect4131"
       style="color:#000000;fill:url(#linearGradient414897);fill-opacity:1;fill-rule:nonzero;stroke:none;stroke-width:1;marker:none;visibility:visible;display:inline;overflow:visible;enable-background:accumulate" />
    <path
       inkscape:connector-curvature="0"
       d="m 819.46796,504.13224 a 3.9791682,3.9791682 0 0 0 -3.19776,3.93571 l 0,27.54998 a 3.9791682,3.9791682 0 0 0 3.93571,3.93571 l 11.80713,0 a 3.9791682,3.9791682 0 0 0 3.93571,-3.93571 c 0,-5.09087 0.59462,-8.33369 1.3529,-9.96227 0.75829,-1.62858 1.26888,-2.00897 2.95179,-2.45982 1.82626,-0.48925 8.12783,0.11036 12.54507,0.36897 -3.54537,3.05049 -7.60438,6.55685 -11.93012,11.31517 -10.16222,11.17845 -20.66248,26.6301 -20.66248,44.03077 0,22.05585 10.33432,37.09234 22.99931,46.12161 12.58037,8.96893 27.16283,12.36926 37.26626,12.79106 0.068,0.003 0.17845,-0.003 0.24598,0 0.86755,0.0686 1.71828,0.10634 2.70581,0.12299 a 3.9791682,3.9791682 0 0 0 0.24598,0 c 0.83475,-0.0209 1.60087,-0.0641 2.33683,-0.12299 0.0675,-0.003 0.17801,0.003 0.24598,0 10.10343,-0.4218 24.68589,-3.82213 37.26626,-12.79106 12.66499,-9.02927 22.99931,-24.06576 22.99931,-46.12161 0,-17.40067 -10.50026,-32.85232 -20.66248,-44.03077 -4.32575,-4.75832 -8.38475,-8.26468 -11.93013,-11.31517 4.41725,-0.25861 10.71882,-0.85822 12.54508,-0.36897 1.68291,0.45085 2.1935,0.83124 2.95179,2.45982 0.75828,1.62858 1.3529,4.8714 1.3529,9.96227 a 3.9791682,3.9791682 0 0 0 3.93571,3.93571 l 11.80713,0 a 3.9791682,3.9791682 0 0 0 3.93571,-3.93571 l 0,-27.54998 a 3.9791682,3.9791682 0 0 0 -3.93571,-3.93571 l -51.16424,0 a 3.9791682,3.9791682 0 0 0 -3.93571,3.93571 l 0,11.80713 a 3.9791682,3.9791682 0 0 0 1.3529,3.07478 c 17.99771,15.24295 27.45947,40.72706 26.19707,61.86445 -0.63119,10.5687 -3.82915,19.95079 -9.59329,26.56605 -5.69643,6.53755 -13.85822,10.6528 -25.45913,10.82321 -0.13791,0.002 -0.23008,-9.1e-4 -0.36897,0 -0.10737,0.004 -0.47564,-8.2e-4 -0.36898,0 -11.82325,-0.0773 -20.06396,-4.20795 -25.8281,-10.82321 -5.76414,-6.61526 -8.9621,-15.99735 -9.59329,-26.56605 -1.2624,-21.13739 8.19936,-46.6215 26.19707,-61.86445 a 3.9791682,3.9791682 0 0 0 1.3529,-3.07478 l 0,-11.80713 a 3.9791682,3.9791682 0 0 0 -3.93571,-3.93571 l -51.16424,0 a 3.9791682,3.9791682 0 0 0 -0.73795,0 z"
       id="path4154"
       style="opacity:0.15;fill:#000000;fill-opacity:1;stroke:none" />
    <path
       d="m 820.20591,508.06795 0,27.54998 11.80713,0 c 0,-21.45828 8.85696,-16.52315 31.48569,-15.74285 0,0 -39.35711,27.54998 -39.35711,59.03567 0,41.69015 38.06,54.26968 56.69883,54.97696 0.80826,0.0706 1.68152,0.10571 2.70581,0.12299 0.85858,-0.0217 1.63856,-0.062 2.33682,-0.12299 18.63884,-0.70728 56.69884,-13.28681 56.69884,-54.97696 0,-31.48569 -39.35711,-59.03567 -39.35711,-59.03567 22.62873,-0.7803 31.48569,-5.71543 31.48569,15.74285 l 11.80713,0 0,-27.54998 -51.16424,0 0,11.80713 c 38.23475,32.3825 39.30298,105.92986 -11.80713,106.2642 -0.10446,-0.009 -0.27377,7.2e-4 -0.36898,0 -51.11011,-0.33434 -50.04188,-73.8817 -11.80713,-106.2642 l 0,-11.80713 -51.16424,0 z"
       inkscape:connector-curvature="0"
       id="path4150"
       style="opacity:0.3;fill:#000000;fill-opacity:1;stroke:none" />
    <path
       d="m 820.20591,504.13224 0,27.54998 11.80713,0 c 0,-21.45828 8.85696,-16.52315 31.48569,-15.74285 0,0 -39.35711,27.54998 -39.35711,59.03566 0,41.69016 38.06,54.26969 56.69883,54.97697 0.80826,0.0706 1.68152,0.10571 2.70581,0.12299 0.85858,-0.0216 1.63856,-0.062 2.33682,-0.12299 18.63884,-0.70728 56.69884,-13.28681 56.69884,-54.97697 0,-31.48568 -39.35711,-59.03566 -39.35711,-59.03566 22.62873,-0.7803 31.48569,-5.71543 31.48569,15.74285 l 11.80713,0 0,-27.54998 -51.16424,0 0,11.80713 c 38.23475,32.3825 39.30298,105.92986 -11.80713,106.2642 -0.10446,-0.009 -0.27377,7.2e-4 -0.36898,0 -51.11011,-0.33434 -50.04188,-73.8817 -11.80713,-106.2642 l 0,-11.80713 -51.16424,0 z"
       inkscape:connector-curvature="0"
       id="path4126"
       style="fill:url(#linearGradient414899);fill-opacity:1;stroke:none" />
    <path
       d="m 820.20591,504.13224 0,3.93571 51.16424,0 0,-3.93571 -51.16424,0 z m 75.14748,0 0,3.93571 51.16424,0 0,-3.93571 -51.16424,0 z m -36.65131,15.49686 c -10.35222,8.35773 -34.56046,30.52167 -34.56046,55.34593 0,0.75705 0.0982,1.47589 0.12299,2.21384 1.38471,-30.76225 39.23412,-57.31379 39.23412,-57.31379 -1.72403,-0.0594 -3.23033,-0.1518 -4.79665,-0.24598 z m 49.31938,0 c -1.56632,0.0942 -3.07262,0.18655 -4.79665,0.24598 0,0 37.84941,26.55154 39.23412,57.31379 0.0248,-0.73795 0.12299,-1.45679 0.12299,-2.21384 0,-24.82426 -24.20824,-46.9882 -34.56046,-55.34593 z m -64.32428,59.15865 c -0.73727,25.18948 11.59831,47.16914 39.4801,47.35153 0.0952,7.2e-4 0.26452,-0.009 0.36898,0 27.88179,-0.18239 40.21737,-22.16205 39.4801,-47.35153 -0.60608,23.50379 -13.05741,43.24297 -39.4801,43.41582 -0.10446,-0.009 -0.27379,7.2e-4 -0.36898,0 -26.42269,-0.17285 -38.87402,-19.91203 -39.4801,-43.41582 z"
       inkscape:connector-curvature="0"
       id="path4178"
       style="opacity:0.3;fill:#ffffff;fill-opacity:1;stroke:none" />
    <rect
       width="3.9357109"
       height="3.9357109"
       x="859.56299"
       y="539.55365"
       id="rect4187"
       style="color:#000000;fill:#ffda45;fill-opacity:1;fill-rule:nonzero;stroke:none;stroke-width:1;marker:none;visibility:visible;display:inline;overflow:visible;enable-background:accumulate" />
    <rect
       width="3.9357109"
       height="3.9357109"
       x="875.30585"
       y="539.55365"
       id="rect4189"
       style="color:#000000;fill:#ffda45;fill-opacity:1;fill-rule:nonzero;stroke:none;stroke-width:1;marker:none;visibility:visible;display:inline;overflow:visible;enable-background:accumulate" />
    <rect
       width="3.9357109"
       height="3.9357109"
       x="891.04871"
       y="539.55365"
       id="rect4191"
       style="color:#000000;fill:#ffda45;fill-opacity:1;fill-rule:nonzero;stroke:none;stroke-width:1;marker:none;visibility:visible;display:inline;overflow:visible;enable-background:accumulate" />
    <rect
       width="3.9357109"
       height="3.9357109"
       x="906.79156"
       y="539.55365"
       id="rect4193"
       style="color:#000000;fill:#ffda45;fill-opacity:1;fill-rule:nonzero;stroke:none;stroke-width:1;marker:none;visibility:visible;display:inline;overflow:visible;enable-background:accumulate" />
  </g>
</svg>
