<?xml version="1.0" encoding="UTF-8" standalone="no"?>
<!-- Created with Inkscape (http://www.inkscape.org/) -->

<svg
   xmlns:dc="http://purl.org/dc/elements/1.1/"
   xmlns:cc="http://creativecommons.org/ns#"
   xmlns:rdf="http://www.w3.org/1999/02/22-rdf-syntax-ns#"
   xmlns:svg="http://www.w3.org/2000/svg"
   xmlns="http://www.w3.org/2000/svg"
   xmlns:sodipodi="http://sodipodi.sourceforge.net/DTD/sodipodi-0.dtd"
   xmlns:inkscape="http://www.inkscape.org/namespaces/inkscape"
   width="48"
   height="48"
   id="svg2"
   version="1.1"
   inkscape:version="0.48.5 r10040"
   viewBox="0 0 13.546666 13.546668"
   sodipodi:docname="preferences-kcalc-constants.svg">
  <defs
     id="defs4">
    <style
       id="style2464"
       type="text/css" />
    <style
       type="text/css"
       id="style2464-7" />
  </defs>
  <sodipodi:namedview
     id="base"
     pagecolor="#ffffff"
     bordercolor="#666666"
     borderopacity="1.0"
     inkscape:pageopacity="0"
     inkscape:pageshadow="2"
     inkscape:zoom="8.9002328"
     inkscape:cx="16.291945"
     inkscape:cy="2.9555438"
     inkscape:document-units="px"
     inkscape:current-layer="layer1"
     showgrid="false"
     inkscape:showpageshadow="false"
     borderlayer="true"
     units="px"
     fit-margin-top="0"
     fit-margin-left="0"
     fit-margin-right="0"
     fit-margin-bottom="0"
     showguides="true"
     inkscape:window-width="1920"
     inkscape:window-height="1031"
     inkscape:window-x="-4"
     inkscape:window-y="32"
     inkscape:window-maximized="1">
    <sodipodi:guide
       position="-6.6748425e-06,47.999999"
       orientation="47.999977,0"
       id="guide4120" />
    <sodipodi:guide
       position="-6.6748425e-06,2.2810037e-05"
       orientation="0,48.000004"
       id="guide4122" />
    <sodipodi:guide
       position="47.999997,2.2810037e-05"
       orientation="-47.999977,0"
       id="guide4124" />
    <sodipodi:guide
       position="47.999997,47.999999"
       orientation="0,-48.000004"
       id="guide4126" />
    <sodipodi:guide
       position="3.9999733,44.000154"
       orientation="39.999962,0"
       id="guide4138" />
    <sodipodi:guide
       position="3.9999733,4.0001921"
       orientation="0,40.000003"
       id="guide4140" />
    <sodipodi:guide
       position="43.999976,4.0001921"
       orientation="-39.999962,0"
       id="guide4142" />
    <sodipodi:guide
       position="43.999976,44.000154"
       orientation="0,-40.000003"
       id="guide4144" />
    <sodipodi:guide
       position="6.9999922,47.999999"
       orientation="39.999962,0"
       id="guide4148" />
    <sodipodi:guide
       position="6.9999922,8.0000369"
       orientation="0,34.000006"
       id="guide4150" />
    <sodipodi:guide
       position="40.999998,8.0000369"
       orientation="-39.999962,0"
       id="guide4152" />
    <sodipodi:guide
       position="40.999998,47.999999"
       orientation="0,-34.000006"
       id="guide4154" />
    <sodipodi:guide
       position="14.999993,32.999986"
       orientation="17.999951,0"
       id="guide4158" />
    <sodipodi:guide
       position="14.999993,15.000036"
       orientation="0,17.999998"
       id="guide4160" />
    <sodipodi:guide
       position="32.999991,15.000036"
       orientation="-17.999951,0"
       id="guide4162" />
    <sodipodi:guide
       position="32.999991,32.999986"
       orientation="0,-17.999998"
       id="guide4164" />
    <sodipodi:guide
       position="1.9999969,44.000046"
       orientation="39.999962,0"
       id="guide3279" />
    <sodipodi:guide
       position="1.9999969,4.0000839"
       orientation="0,44.000003"
       id="guide3281" />
    <sodipodi:guide
       position="46,4.0000839"
       orientation="-39.999962,0"
       id="guide3283" />
    <sodipodi:guide
       position="46,44.000046"
       orientation="0,-44.000003"
       id="guide3285" />
  </sodipodi:namedview>
  <metadata
     id="metadata7">
    <rdf:RDF>
      <cc:Work
         rdf:about="">
        <dc:format>image/svg+xml</dc:format>
        <dc:type
           rdf:resource="http://purl.org/dc/dcmitype/StillImage" />
        <dc:title />
      </cc:Work>
    </rdf:RDF>
  </metadata>
  <g
     inkscape:label="Capa 1"
     inkscape:groupmode="layer"
     id="layer1"
     transform="translate(38.119153,-397.84494)">
    <path
       style="fill:#4cbed6;fill-opacity:1;fill-rule:evenodd;stroke:none"
       inkscape:connector-curvature="0"
       d="m -31.34582,398.97383 c -3.117451,0 -5.644445,2.52699 -5.644445,5.64445 l 5.644445,0 0,-5.64445 z"
       id="path24" />
    <path
       style="fill:#f4ba5f;fill-opacity:1;fill-rule:evenodd;stroke:none"
       inkscape:connector-curvature="0"
       d="m -31.34582,404.61828 0,5.64444 c 3.117451,0 5.644445,-2.52699 5.644445,-5.64444 l -5.644445,0 z"
       id="path26" />
    <path
       style="fill:#86d0e3;fill-opacity:1;fill-rule:evenodd;stroke:none"
       inkscape:connector-curvature="0"
       d="m -31.34582,398.97383 0,5.64445 5.644445,0 c 0,-3.11746 -2.526994,-5.64445 -5.644445,-5.64445 z"
       id="path28" />
    <path
       style="fill:#28a9c8;fill-opacity:1;fill-rule:evenodd;stroke:none"
       inkscape:connector-curvature="0"
       d="m -36.990265,404.61828 c 0,3.11745 2.526994,5.64444 5.644445,5.64444 l 0,-5.64444 -5.644445,0 z"
       id="path30" />
    <path
       style="fill:#f9f9f9;fill-opacity:1;fill-rule:nonzero;stroke:none"
       inkscape:connector-curvature="0"
       d="m -28.419053,401.67335 0,0.9117 -1.390006,0 -0.120742,1.89629 c -0.02405,0.32885 -0.03558,0.61451 -0.03558,0.85501 0,0.57794 0.06331,0.93084 0.191666,1.06115 0.132276,0.12467 0.289585,0.18701 0.472661,0.18701 0.383577,0 0.611563,-0.25204 0.683469,-0.75537 l 0.215716,0 c -0.132277,1.1571 -0.574261,1.73505 -1.330617,1.73505 -0.350937,0 -0.634632,-0.11216 -0.850348,-0.33646 -0.210807,-0.22431 -0.317316,-0.55782 -0.317316,-0.99784 0,-0.29154 0.04221,-0.90777 0.126632,-1.8472 l 0.16099,-1.79641 -1.270246,0 c -0.08344,1.51369 -0.186021,2.61706 -0.3048,3.31868 -0.116079,0.69893 -0.245411,1.15049 -0.390203,1.35467 -0.139884,0.2032 -0.330814,0.30579 -0.574261,0.30579 -0.184058,0 -0.339402,-0.0564 -0.466771,-0.16885 -0.123687,-0.11215 -0.187003,-0.25988 -0.187003,-0.44296 0,-0.17449 0.108226,-0.41426 0.323942,-0.71709 0.315353,-0.44101 0.551192,-0.89821 0.706537,-1.37381 0.156327,-0.47733 0.274124,-1.23688 0.354619,-2.27668 l -0.408364,0 c -0.327868,0 -0.578923,0.0768 -0.754392,0.23019 -0.172523,0.14947 -0.335476,0.36616 -0.490821,0.64912 l -0.215716,0 c 0.11608,-0.44566 0.265534,-0.81108 0.449593,-1.09871 0.184057,-0.28663 0.372042,-0.47364 0.563708,-0.56174 0.195592,-0.0864 0.540639,-0.13129 1.036369,-0.13129 l 3.823007,0"
       id="path34" />
  </g>
</svg>
