<?xml version="1.0" encoding="UTF-8" standalone="no"?>
<!-- Created with Inkscape (http://www.inkscape.org/) -->

<svg
   xmlns:dc="http://purl.org/dc/elements/1.1/"
   xmlns:cc="http://creativecommons.org/ns#"
   xmlns:rdf="http://www.w3.org/1999/02/22-rdf-syntax-ns#"
   xmlns:svg="http://www.w3.org/2000/svg"
   xmlns="http://www.w3.org/2000/svg"
   xmlns:sodipodi="http://sodipodi.sourceforge.net/DTD/sodipodi-0.dtd"
   xmlns:inkscape="http://www.inkscape.org/namespaces/inkscape"
   width="48"
   height="48"
   id="svg2"
   version="1.1"
   inkscape:version="0.48.5 r10040"
   viewBox="0 0 13.546666 13.546668"
   sodipodi:docname="qutim.svg">
  <defs
     id="defs4">
    <style
       id="style2464"
       type="text/css" />
    <style
       type="text/css"
       id="style2464-7" />
  </defs>
  <sodipodi:namedview
     id="base"
     pagecolor="#ffffff"
     bordercolor="#666666"
     borderopacity="1.0"
     inkscape:pageopacity="0"
     inkscape:pageshadow="2"
     inkscape:zoom="8.9002328"
     inkscape:cx="16.291945"
     inkscape:cy="29.828206"
     inkscape:document-units="px"
     inkscape:current-layer="layer1"
     showgrid="false"
     inkscape:showpageshadow="false"
     borderlayer="true"
     units="px"
     fit-margin-top="0"
     fit-margin-left="0"
     fit-margin-right="0"
     fit-margin-bottom="0"
     showguides="true"
     inkscape:window-width="1920"
     inkscape:window-height="1035"
     inkscape:window-x="-4"
     inkscape:window-y="29"
     inkscape:window-maximized="1">
    <sodipodi:guide
       position="-6.6748425e-06,47.999999"
       orientation="47.999977,0"
       id="guide4120" />
    <sodipodi:guide
       position="-6.6748425e-06,2.2810037e-05"
       orientation="0,48.000004"
       id="guide4122" />
    <sodipodi:guide
       position="47.999997,2.2810037e-05"
       orientation="-47.999977,0"
       id="guide4124" />
    <sodipodi:guide
       position="47.999997,47.999999"
       orientation="0,-48.000004"
       id="guide4126" />
    <sodipodi:guide
       position="3.9999733,44.000154"
       orientation="39.999962,0"
       id="guide4138" />
    <sodipodi:guide
       position="3.9999733,4.0001921"
       orientation="0,40.000003"
       id="guide4140" />
    <sodipodi:guide
       position="43.999976,4.0001921"
       orientation="-39.999962,0"
       id="guide4142" />
    <sodipodi:guide
       position="43.999976,44.000154"
       orientation="0,-40.000003"
       id="guide4144" />
    <sodipodi:guide
       position="6.9999922,47.999999"
       orientation="39.999962,0"
       id="guide4148" />
    <sodipodi:guide
       position="6.9999922,8.0000369"
       orientation="0,34.000006"
       id="guide4150" />
    <sodipodi:guide
       position="40.999998,8.0000369"
       orientation="-39.999962,0"
       id="guide4152" />
    <sodipodi:guide
       position="40.999998,47.999999"
       orientation="0,-34.000006"
       id="guide4154" />
    <sodipodi:guide
       position="14.999993,32.999986"
       orientation="17.999951,0"
       id="guide4158" />
    <sodipodi:guide
       position="14.999993,15.000036"
       orientation="0,17.999998"
       id="guide4160" />
    <sodipodi:guide
       position="32.999991,15.000036"
       orientation="-17.999951,0"
       id="guide4162" />
    <sodipodi:guide
       position="32.999991,32.999986"
       orientation="0,-17.999998"
       id="guide4164" />
    <sodipodi:guide
       position="1.9999969,44.000046"
       orientation="39.999962,0"
       id="guide3279" />
    <sodipodi:guide
       position="1.9999969,4.0000839"
       orientation="0,44.000003"
       id="guide3281" />
    <sodipodi:guide
       position="46,4.0000839"
       orientation="-39.999962,0"
       id="guide3283" />
    <sodipodi:guide
       position="46,44.000046"
       orientation="0,-44.000003"
       id="guide3285" />
  </sodipodi:namedview>
  <metadata
     id="metadata7">
    <rdf:RDF>
      <cc:Work
         rdf:about="">
        <dc:format>image/svg+xml</dc:format>
        <dc:type
           rdf:resource="http://purl.org/dc/dcmitype/StillImage" />
        <dc:title />
      </cc:Work>
    </rdf:RDF>
  </metadata>
  <g
     inkscape:label="Capa 1"
     inkscape:groupmode="layer"
     id="layer1"
     transform="translate(38.119153,-397.84494)">
    <rect
       style="fill:#fa8072;fill-opacity:1;stroke:none"
       id="rect4125"
       width="11.288891"
       height="11.288909"
       x="-36.990273"
       y="398.97379"
       ry="5.6444454" />
    <path
       style="fill:#000000;fill-opacity:0;stroke:none"
       d="m -31.949074,402.54832 c -0.926452,0 -1.913672,1.43578 -1.93675,2.29221 0,1.28005 1.037692,2.31774 2.31775,2.31774 0.554199,-9e-4 1.089683,-0.20062 1.509366,-0.56257 0.0068,-0.005 0.01347,-0.0115 0.02009,-0.0174 0.233529,-0.19399 0.368766,-0.48173 0.369093,-0.78532 5.5e-5,-0.5646 -0.457592,-1.02236 -1.022201,-1.02245 -0.107034,4.3e-4 -0.213335,0.0177 -0.31502,0.0511 l -0.0015,-0.003 c -0.100463,0.0347 -0.20598,0.0527 -0.312291,0.0531 -0.533025,-3e-5 -0.965122,-0.43212 -0.96515,-0.96515 0.274215,-1.02338 0.613009,-0.70445 0.62235,-1.07305 0,-0.15782 -0.127935,-0.28575 -0.28575,-0.28575 z m 0.2349,3.2447 c -4e-6,0.0583 0.005,0.11645 0.01489,0.17388 -0.0099,-0.0574 -0.01489,-0.1156 -0.01489,-0.17388 z m 0.288975,0.71239 c 0.04757,0.049 0.09992,0.093 0.15627,0.13147 0.08452,0.0579 0.177247,0.10266 0.275084,0.13295 0.06093,0.0186 0.123457,0.0315 0.186779,0.0384 -0.06332,-0.007 -0.125854,-0.0198 -0.186779,-0.0384 -0.09784,-0.0303 -0.190567,-0.0752 -0.275084,-0.13295 -0.05635,-0.0385 -0.108699,-0.0825 -0.15627,-0.13147 z m 0.946795,0.28625 c -0.0075,0.002 -0.01503,0.004 -0.02257,0.005 0.0076,-0.002 0.01507,-0.004 0.02257,-0.005 z m -0.08954,0.0149 c -0.01319,0.002 -0.02642,0.004 -0.03969,0.005 0.01326,-9e-4 0.02649,-0.003 0.03969,-0.005 z"
       id="circle4229"
       inkscape:connector-curvature="0"
       sodipodi:nodetypes="ccccccccccccccccccccccccccccc" />
    <path
       style="fill:#27baf2;fill-opacity:1;fill-rule:nonzero;stroke:none;stroke-width:2.29999995;marker-start:none"
       d="m -33.189261,403.12668 c 0.01639,0.45615 -0.449443,0.47665 -0.353921,-0.0514 0.109448,-0.60496 -0.281425,-0.87719 -0.654823,-1.09578 0.758418,1.02838 -0.14962,1.03025 -0.501387,2.35088 -0.119356,0.44809 -0.216783,0.91027 -0.04588,1.30613 0.04868,0.11276 0.179423,0.24921 0.167798,0.38497 -0.01216,0.14199 -0.08634,0.25123 -0.145573,0.37594 -0.09019,0.18984 -0.260355,0.36211 -0.337735,0.53236 -0.04274,0.094 0.06248,0.16488 0.138613,0.2103 0.114768,0.0685 0.273627,0.0905 0.341072,0.21635 0.04699,0.0877 0.03412,0.18111 -0.0055,0.26606 -0.0369,0.079 -0.06424,0.20001 0.0124,0.25265 0.05634,0.0387 0.131124,0.0602 0.169853,0.12754 0.03739,0.065 0.01976,0.14281 0.079,0.19349 0.09872,0.0845 0.260727,0.0765 0.335385,0.25223 0.03473,0.0818 0.05795,0.17272 0.104137,0.25385 0.06998,0.12289 0.265757,0.16063 0.400775,0.14658 0.145282,-0.0151 0.251979,-0.0608 0.391531,-0.10533 0.361724,-0.11538 0.701006,-0.26827 1.023585,-0.4792 0.27372,-0.17898 0.435708,-0.28044 0.681894,-0.42805 0.175965,-0.1055 0.432616,-0.0699 0.628484,-0.12228 0.241941,-0.0647 0.53755,-0.166 0.709357,-0.34218 0.181539,-0.18615 0.255808,-0.33325 0.31275,-0.67641 -0.07838,0.11194 -0.282366,0.36921 -0.483842,0.43708 -0.221523,0.0746 -0.300579,0.0363 -0.367108,-0.0578 -0.05689,-0.0804 -0.07147,-0.18756 -0.06885,-0.28622 0.131931,-0.4483 0.698927,-0.26165 1.080054,-0.41621 0.693743,-0.28133 0.853564,-0.92042 0.89617,-1.42216 0.02327,-0.27398 0.05576,-0.45701 0.502427,-1.00839 -0.559453,0.24769 -0.790285,0.47527 -0.918747,0.76651 -0.120449,0.27307 -0.502413,0.59458 -0.731193,0.32636 -0.291577,-0.34184 0.359048,-0.79923 0.834574,-0.92172 0.379983,-0.0979 0.731877,-0.48921 0.807855,-0.86716 0.190796,-1.31079 -0.405918,-1.89434 0.04854,-2.86073 -1.351037,1.0911 -0.202005,1.68522 -1.066479,2.58356 -0.491081,0.51031 -1.011467,0.23919 -0.816417,-0.19682 0.125977,-0.28161 0.428355,-0.1106 0.528006,-0.76012 -0.280331,0.42096 -1.184998,0.13631 -1.444273,0.8206 -0.451145,1.19068 -1.078024,0.0447 -0.05059,-0.52597 0.433463,-0.24076 1.476748,-0.16239 1.729886,-1.8796 -0.507456,1.01701 -1.752432,0.85524 -2.754924,1.2938 -0.516481,0.22595 -1.200292,0.75412 -1.176863,1.40624 z"
       id="path3039-0-9"
       inkscape:connector-curvature="0"
       sodipodi:nodetypes="sscssssssssssssssssssscsscsscsssccsscsscss" />
  </g>
</svg>
