<?xml version="1.0" encoding="UTF-8" standalone="no"?>
<!-- Created with Inkscape (http://www.inkscape.org/) -->

<svg
   xmlns:dc="http://purl.org/dc/elements/1.1/"
   xmlns:cc="http://creativecommons.org/ns#"
   xmlns:rdf="http://www.w3.org/1999/02/22-rdf-syntax-ns#"
   xmlns:svg="http://www.w3.org/2000/svg"
   xmlns="http://www.w3.org/2000/svg"
   xmlns:sodipodi="http://sodipodi.sourceforge.net/DTD/sodipodi-0.dtd"
   xmlns:inkscape="http://www.inkscape.org/namespaces/inkscape"
   width="48"
   height="48"
   id="svg2"
   version="1.1"
   inkscape:version="0.48.5 r10040"
   viewBox="0 0 13.546666 13.546668"
   sodipodi:docname="realplayer.svg">
  <defs
     id="defs4">
    <style
       id="style2464"
       type="text/css" />
    <style
       type="text/css"
       id="style2464-7" />
  </defs>
  <sodipodi:namedview
     id="base"
     pagecolor="#ffffff"
     bordercolor="#666666"
     borderopacity="1.0"
     inkscape:pageopacity="0"
     inkscape:pageshadow="2"
     inkscape:zoom="8.9002328"
     inkscape:cx="-0.1121203"
     inkscape:cy="29.828206"
     inkscape:document-units="px"
     inkscape:current-layer="layer1"
     showgrid="false"
     inkscape:showpageshadow="false"
     borderlayer="true"
     units="px"
     fit-margin-top="0"
     fit-margin-left="0"
     fit-margin-right="0"
     fit-margin-bottom="0"
     showguides="true"
     inkscape:window-width="1920"
     inkscape:window-height="1035"
     inkscape:window-x="-4"
     inkscape:window-y="29"
     inkscape:window-maximized="1">
    <sodipodi:guide
       position="-6.6748425e-06,47.999999"
       orientation="47.999977,0"
       id="guide4120" />
    <sodipodi:guide
       position="-6.6748425e-06,2.2810037e-05"
       orientation="0,48.000004"
       id="guide4122" />
    <sodipodi:guide
       position="47.999997,2.2810037e-05"
       orientation="-47.999977,0"
       id="guide4124" />
    <sodipodi:guide
       position="47.999997,47.999999"
       orientation="0,-48.000004"
       id="guide4126" />
    <sodipodi:guide
       position="3.9999733,44.000154"
       orientation="39.999962,0"
       id="guide4138" />
    <sodipodi:guide
       position="3.9999733,4.0001921"
       orientation="0,40.000003"
       id="guide4140" />
    <sodipodi:guide
       position="43.999976,4.0001921"
       orientation="-39.999962,0"
       id="guide4142" />
    <sodipodi:guide
       position="43.999976,44.000154"
       orientation="0,-40.000003"
       id="guide4144" />
    <sodipodi:guide
       position="6.9999922,47.999999"
       orientation="39.999962,0"
       id="guide4148" />
    <sodipodi:guide
       position="6.9999922,8.0000369"
       orientation="0,34.000006"
       id="guide4150" />
    <sodipodi:guide
       position="40.999998,8.0000369"
       orientation="-39.999962,0"
       id="guide4152" />
    <sodipodi:guide
       position="40.999998,47.999999"
       orientation="0,-34.000006"
       id="guide4154" />
    <sodipodi:guide
       position="14.999993,32.999986"
       orientation="17.999951,0"
       id="guide4158" />
    <sodipodi:guide
       position="14.999993,15.000036"
       orientation="0,17.999998"
       id="guide4160" />
    <sodipodi:guide
       position="32.999991,15.000036"
       orientation="-17.999951,0"
       id="guide4162" />
    <sodipodi:guide
       position="32.999991,32.999986"
       orientation="0,-17.999998"
       id="guide4164" />
    <sodipodi:guide
       position="1.9999969,44.000046"
       orientation="39.999962,0"
       id="guide3279" />
    <sodipodi:guide
       position="1.9999969,4.0000839"
       orientation="0,44.000003"
       id="guide3281" />
    <sodipodi:guide
       position="46,4.0000839"
       orientation="-39.999962,0"
       id="guide3283" />
    <sodipodi:guide
       position="46,44.000046"
       orientation="0,-44.000003"
       id="guide3285" />
  </sodipodi:namedview>
  <metadata
     id="metadata7">
    <rdf:RDF>
      <cc:Work
         rdf:about="">
        <dc:format>image/svg+xml</dc:format>
        <dc:type
           rdf:resource="http://purl.org/dc/dcmitype/StillImage" />
        <dc:title />
      </cc:Work>
    </rdf:RDF>
  </metadata>
  <g
     inkscape:label="Capa 1"
     inkscape:groupmode="layer"
     id="layer1"
     transform="translate(38.119153,-397.84494)">
    <path
       style="fill:#000000;fill-opacity:0;stroke:none"
       d="m -31.949074,402.54832 c -0.926452,0 -1.913672,1.43578 -1.93675,2.29221 0,1.28005 1.037692,2.31774 2.31775,2.31774 0.554199,-9e-4 1.089683,-0.20062 1.509366,-0.56257 0.0068,-0.005 0.01347,-0.0115 0.02009,-0.0174 0.233529,-0.19399 0.368766,-0.48173 0.369093,-0.78532 5.5e-5,-0.5646 -0.457592,-1.02236 -1.022201,-1.02245 -0.107034,4.3e-4 -0.213335,0.0177 -0.31502,0.0511 l -0.0015,-0.003 c -0.100463,0.0347 -0.20598,0.0527 -0.312291,0.0531 -0.533025,-3e-5 -0.965122,-0.43212 -0.96515,-0.96515 0.274215,-1.02338 0.613009,-0.70445 0.62235,-1.07305 0,-0.15782 -0.127935,-0.28575 -0.28575,-0.28575 z m 0.2349,3.2447 c -4e-6,0.0583 0.005,0.11645 0.01489,0.17388 -0.0099,-0.0574 -0.01489,-0.1156 -0.01489,-0.17388 z m 0.288975,0.71239 c 0.04757,0.049 0.09992,0.093 0.15627,0.13147 0.08452,0.0579 0.177247,0.10266 0.275084,0.13295 0.06093,0.0186 0.123457,0.0315 0.186779,0.0384 -0.06332,-0.007 -0.125854,-0.0198 -0.186779,-0.0384 -0.09784,-0.0303 -0.190567,-0.0752 -0.275084,-0.13295 -0.05635,-0.0385 -0.108699,-0.0825 -0.15627,-0.13147 z m 0.946795,0.28625 c -0.0075,0.002 -0.01503,0.004 -0.02257,0.005 0.0076,-0.002 0.01507,-0.004 0.02257,-0.005 z m -0.08954,0.0149 c -0.01319,0.002 -0.02642,0.004 -0.03969,0.005 0.01326,-9e-4 0.02649,-0.003 0.03969,-0.005 z"
       id="circle4229"
       inkscape:connector-curvature="0"
       sodipodi:nodetypes="ccccccccccccccccccccccccccccc" />
    <path
       style="fill:#0066ff;fill-opacity:1;stroke:none"
       inkscape:connector-curvature="0"
       id="path78"
       stroke-miterlimit="4"
       d="m -31.345795,399.4327 c -3.050201,0 -5.525734,1.54027 -5.525734,3.43811 0,1.86735 2.397339,3.38205 5.379916,3.43043 l -1.036076,2.43276 4.881066,-3.30764 c 1.213211,-0.71651 1.82006,-1.53599 1.826563,-2.55555 0.012,-1.8978 -2.475535,-3.43811 -5.525735,-3.43811 z" />
    <path
       style="fill:#f0ffff;fill-opacity:1;fill-rule:nonzero;stroke:none;stroke-width:0.24329670000000000;stroke-linejoin:round;stroke-miterlimit:4;stroke-opacity:1;stroke-dasharray:none"
       inkscape:connector-curvature="0"
       id="path84"
       stroke-miterlimit="4"
       d="m -32.013283,401.36823 -1.093555,3.3209 1.474538,0 0.507975,-1.49133 c 0.0029,-0.004 0.0041,-0.004 0.0071,-0.008 0.308737,-0.39029 1.021798,-0.68121 1.538036,-0.75335 l 0.275155,-0.91478 c -0.06386,-0.008 -0.265159,-0.0308 -0.331596,-0.0308 -0.0057,0 -0.0084,-6e-5 -0.01411,0 -0.02828,3.2e-4 -0.05683,-0.002 -0.08466,0 -0.390533,0.0261 -0.735672,0.20032 -0.959509,0.46123 l 0.183438,-0.5381 -1.502762,-0.0461 z" />
    <path
       style="font-size:medium;font-style:normal;font-variant:normal;font-weight:normal;font-stretch:normal;text-indent:0;text-align:start;text-decoration:none;line-height:normal;letter-spacing:normal;word-spacing:normal;text-transform:none;direction:ltr;block-progression:tb;writing-mode:lr-tb;text-anchor:start;baseline-shift:baseline;color:#000000;fill:#0066ff;fill-opacity:1;stroke:none;stroke-width:4.94099998;marker:none;visibility:visible;display:inline;overflow:visible;enable-background:accumulate;font-family:Sans;-inkscape-font-specification:Sans"
       d="m -31.345844,399.31447 c -1.545077,0 -2.945977,0.38868 -3.969109,1.02527 -1.023132,0.63659 -1.675312,1.53037 -1.675312,2.53088 0,0.98446 0.632404,1.86528 1.627274,2.49786 0.955867,0.60779 2.254129,0.99206 3.694394,1.04328 l -0.968258,2.2757 a 0.11868883,0.11868429 0 0 0 0.175638,0.1441 l 4.874318,-3.30246 c 0.0026,-0.002 0.0049,-0.003 0.0075,-0.005 1.227331,-0.72688 1.871185,-1.58848 1.877971,-2.65247 0.0063,-1.00095 -0.646155,-1.89581 -1.670809,-2.5324 -1.024654,-0.63658 -2.428535,-1.02526 -3.973613,-1.02526 z m 0,0.23718 c 1.505123,0 2.870352,0.38122 3.849016,0.98924 0.978662,0.60801 1.563891,1.43288 1.55822,2.32973 -0.0062,0.97288 -0.57437,1.74765 -1.768385,2.45283 a 0.11868883,0.11868429 0 0 0 -0.006,0.005 l -4.548563,3.0818 0.879689,-2.06254 a 0.11868883,0.11868429 0 0 0 -0.108085,-0.16512 c -1.471721,-0.0239 -2.797491,-0.41106 -3.746935,-1.01476 -0.949444,-0.6037 -1.516188,-1.41381 -1.516188,-2.29671 0,-0.89732 0.58554,-1.72173 1.562725,-2.32973 0.977184,-0.60801 2.339388,-0.98924 3.844511,-0.98924 z"
       id="path3880"
       inkscape:connector-curvature="0" />
  </g>
</svg>
