<?xml version="1.0" encoding="UTF-8" standalone="no"?>
<!-- Created using Karbon, part of Calligra: http://www.calligra.org/karbon -->

<svg
   xmlns:dc="http://purl.org/dc/elements/1.1/"
   xmlns:cc="http://creativecommons.org/ns#"
   xmlns:rdf="http://www.w3.org/1999/02/22-rdf-syntax-ns#"
   xmlns:svg="http://www.w3.org/2000/svg"
   xmlns="http://www.w3.org/2000/svg"
   xmlns:sodipodi="http://sodipodi.sourceforge.net/DTD/sodipodi-0.dtd"
   xmlns:inkscape="http://www.inkscape.org/namespaces/inkscape"
   width="38.4pt"
   height="38.4pt"
   id="svg2"
   version="1.1"
   inkscape:version="0.48.5 r10040"
   sodipodi:docname="settings.svg">
  <metadata
     id="metadata15">
    <rdf:RDF>
      <cc:Work
         rdf:about="">
        <dc:format>image/svg+xml</dc:format>
        <dc:type
           rdf:resource="http://purl.org/dc/dcmitype/StillImage" />
      </cc:Work>
    </rdf:RDF>
  </metadata>
  <sodipodi:namedview
     pagecolor="#ffffff"
     bordercolor="#666666"
     borderopacity="1"
     objecttolerance="10"
     gridtolerance="10"
     guidetolerance="10"
     inkscape:pageopacity="0"
     inkscape:pageshadow="2"
     inkscape:window-width="1920"
     inkscape:window-height="1025"
     id="namedview13"
     showgrid="false"
     inkscape:zoom="4.9166667"
     inkscape:cx="24"
     inkscape:cy="24"
     inkscape:window-x="-4"
     inkscape:window-y="39"
     inkscape:window-maximized="1"
     inkscape:current-layer="svg2" />
  <defs
     id="defs4" />
  <path
     style="fill:#d23638;fill-rule:evenodd"
     inkscape:connector-curvature="0"
     id="path1930"
     d="m 43.999178,23.99959 c 0,11.04591 -8.95459,19.99959 -19.999589,19.99959 C 12.953676,43.99918 4,35.04459 4,23.99959 4,12.95368 12.95459,4 23.999589,4 35.045502,4 43.999178,12.95459 43.999178,23.99959" />
  <path
     style="opacity:0.25"
     inkscape:connector-curvature="0"
     d="m 19.429559,10.12505 -0.608119,0.60528 c -0.744617,0.47217 -0.224116,1.3531 -0.453988,2.02463 -0.132569,0.36125 -0.449602,0.43279 -1.099109,0.4454 -0.87207,-0.0264 -1.111809,0.19817 -1.450404,0.53676 l -3.603219,3.60322 c -0.27409,0.293 -2.10685,2.37163 -2.22133,5.76781 -0.009,0.87216 0.1693,3.55013 1.04502,4.42567 l 3.136529,3.13653 -1.882739,1.89416 c -1.07261,1.07289 -1.07252,2.78469 0,3.85739 l 7.026261,7.02626 C 20.820303,43.80841 22.387653,44 23.999954,44 c 11.044999,0 19.999589,-8.95368 19.999589,-19.99959 0,-0.3904 -0.01215,-0.77787 -0.03426,-1.16279 l -7.061527,-7.06153 -0.0086,0.009 -3.931395,-3.93139 c -0.278478,-0.0961 -0.972662,-0.20685 -1.333367,-0.22275 -1.401524,-0.0151 -2.786055,0.52571 -3.860131,1.59887 -1.023825,1.02392 -1.55264,2.31992 -1.59348,3.64278 l -6.746321,-6.74632"
     id="path1942" />
  <path
     style="fill:#ffffff"
     inkscape:connector-curvature="0"
     d="m 19.429559,10.12505 -0.608119,0.60528 c -0.744617,0.47217 -0.224116,1.3531 -0.453988,2.02463 -0.132569,0.36125 -0.449602,0.43279 -1.099109,0.4454 -0.87207,-0.0264 -1.111809,0.19817 -1.450404,0.53676 l -3.603219,3.60322 c -0.27409,0.293 -2.10685,2.37163 -2.22133,5.76781 -0.0103,0.97659 0.2148,4.21736 1.39047,4.65673 0.41762,-0.17852 0.44823,-2.92227 1.05927,-4.57368 0.37597,-0.76106 1.070059,-1.67744 1.667397,-2.16706 1.078188,-0.87107 2.631559,-1.12533 3.626057,-0.27985 l 4.768289,4.76829 c -0.568284,0.5681 -0.565452,1.48174 0.0028,2.05002 l 9.23051,9.23325 c 0.568193,0.56829 1.481742,0.56829 2.050026,0 L 35.841068,34.743 c 0.568284,-0.56829 0.568284,-1.48175 0,-2.05003 l -9.23051,-9.23325 c -0.568193,-0.56838 -1.484574,-0.56838 -2.052858,0 l -4.608403,-4.6084 c -0.891987,-0.68039 -0.591308,-2.1635 -0.03426,-2.80945 0.414244,-0.46139 1.020719,-0.65974 1.635964,-0.7395 0.731826,-0.0526 0.950552,-0.0455 1.567807,-0.66239 l 0.411139,-0.41114 -4.099962,-4.10279 m 12.199841,1.50468 c -1.401525,-0.0151 -2.786055,0.5257 -3.860131,1.59887 -1.431949,1.43204 -1.896078,3.39691 -1.410478,5.22236 l -2.304201,2.30421 0.987919,1.05351 c 0.93502,-0.1788 1.928695,-0.0894 2.632472,0.61388 l 1.316191,1.26768 1.270508,-1.26768 c 1.825636,0.4856 3.789963,0.0219 5.222369,-1.41048 1.422903,-1.4229 1.8895,-3.41994 1.418975,-5.23607 l -1.884384,1.88438 c -1.088876,1.08888 -2.842335,1.08888 -3.931394,0 -1.088877,-1.08888 -1.088877,-2.84233 0,-3.93139 l 1.875795,-1.8758 C 32.684989,11.7581 31.990805,11.64735 31.6301,11.63146 m -11.808803,13.35925 -7.529308,7.57462 c -1.07262,1.07289 -1.07252,2.78469 0,3.85739 1.072611,1.07271 2.784591,1.07271 3.857387,0 L 22.690128,29.88471 21.41962,28.6142 c -0.703869,-0.70377 -0.789842,-1.70028 -0.611043,-2.6353 l -0.987919,-0.98792 m -5.598789,8.13962 c 0.350381,0 0.717756,0.10608 0.984996,0.37405 0.534662,0.53457 0.534662,1.39549 0,1.93052 -0.534662,0.53484 -1.392571,0.53466 -1.926868,0 -0.534568,-0.53457 -0.534658,-1.3954 0,-1.92961 0.267332,-0.26733 0.591857,-0.37414 0.942238,-0.37404 z"
     id="path1944" />
</svg>
