<?xml version="1.0" encoding="UTF-8" standalone="no"?>
<svg
   xmlns:dc="http://purl.org/dc/elements/1.1/"
   xmlns:cc="http://creativecommons.org/ns#"
   xmlns:rdf="http://www.w3.org/1999/02/22-rdf-syntax-ns#"
   xmlns:svg="http://www.w3.org/2000/svg"
   xmlns="http://www.w3.org/2000/svg"
   xmlns:sodipodi="http://sodipodi.sourceforge.net/DTD/sodipodi-0.dtd"
   xmlns:inkscape="http://www.inkscape.org/namespaces/inkscape"
   viewBox="0 0 48 48"
   id="svg2"
   version="1.1"
   inkscape:version="0.91 r13725"
   width="100%"
   height="100%"
   sodipodi:docname="skype.svg">
  <metadata
     id="metadata61">
    <rdf:RDF>
      <cc:Work
         rdf:about="">
        <dc:format>image/svg+xml</dc:format>
        <dc:type
           rdf:resource="http://purl.org/dc/dcmitype/StillImage" />
      </cc:Work>
    </rdf:RDF>
  </metadata>
  <sodipodi:namedview
     pagecolor="#ffffff"
     bordercolor="#666666"
     borderopacity="1"
     objecttolerance="10"
     gridtolerance="10"
     guidetolerance="10"
     inkscape:pageopacity="0"
     inkscape:pageshadow="2"
     inkscape:window-width="1920"
     inkscape:window-height="1004"
     id="namedview59"
     showgrid="false"
     inkscape:zoom="6.9532167"
     inkscape:cx="75.680758"
     inkscape:cy="16.868619"
     inkscape:window-x="-4"
     inkscape:window-y="34"
     inkscape:window-maximized="1"
     inkscape:current-layer="svg2" />
  <defs
     id="defs4">
    <linearGradient
       id="linearGradient3764"
       x1="1"
       x2="47"
       gradientUnits="userSpaceOnUse"
       gradientTransform="matrix(0,-1,1,0,-1.5e-6,47.999998)">
      <stop
         stop-color="#0bb8f9"
         stop-opacity="1"
         id="stop7" />
      <stop
         offset="1"
         stop-color="#20bef9"
         stop-opacity="1"
         id="stop9" />
    </linearGradient>
    <clipPath
       id="clipPath-275571731">
      <g
         transform="translate(0,-1004.3622)"
         id="g12">
        <path
           d="m -24 13 c 0 1.105 -0.672 2 -1.5 2 -0.828 0 -1.5 -0.895 -1.5 -2 0 -1.105 0.672 -2 1.5 -2 0.828 0 1.5 0.895 1.5 2 z"
           transform="matrix(15.333333,0,0,11.5,414.99999,878.8622)"
           fill="#1890d0"
           id="path14" />
      </g>
    </clipPath>
    <clipPath
       id="clipPath-284952804">
      <g
         transform="translate(0,-1004.3622)"
         id="g17">
        <path
           d="m -24 13 c 0 1.105 -0.672 2 -1.5 2 -0.828 0 -1.5 -0.895 -1.5 -2 0 -1.105 0.672 -2 1.5 -2 0.828 0 1.5 0.895 1.5 2 z"
           transform="matrix(15.333333,0,0,11.5,414.99999,878.8622)"
           fill="#1890d0"
           id="path19" />
      </g>
    </clipPath>
  </defs>
  <g
     id="g29"
     transform="matrix(0.85106383,0,0,0.85106383,3.1489362,3.1489362)">
    <path
       d="M 24,1 C 36.703,1 47,11.297 47,24 47,36.703 36.703,47 24,47 11.297,47 1,36.703 1,24 1,11.297 11.297,1 24,1 z"
       id="path31"
       style="fill:url(#linearGradient3764);fill-opacity:1"
       inkscape:connector-curvature="0" />
  </g>
  <g
     id="g33" />
  <g
     id="g47"
     transform="matrix(0.85106383,0,0,0.85106383,3.1489362,3.1489362)">
    <g
       clip-path="url(#clipPath-284952804)"
       id="g49">
      <!-- color: #20bef9 -->
      <g
         id="g51">
        <path
           d="m 18.06,11 c -3.898,0 -7.05,3.156 -7.05,7.05 0,1.203 0.305,2.367 0.836,3.359 -0.176,0.84 -0.273,1.695 -0.273,2.586 0,6.863 5.566,12.43 12.438,12.43 0.887,0 1.746,-0.094 2.582,-0.27 0.996,0.539 2.145,0.84 3.355,0.84 3.898,0 7.05,-3.156 7.05,-7.05 0,-1.211 -0.305,-2.367 -0.84,-3.363 0.176,-0.836 0.27,-1.695 0.27,-2.582 0,-6.859 -5.566,-12.43 -12.43,-12.43 -0.891,0 -1.75,0.09 -2.586,0.27 C 20.42,11.309 19.256,11 18.053,11 m 5.703,5.16 c 3.883,0 5.887,2.043 5.887,3.242 0,1.203 -0.578,1.383 -1.531,1.383 -1.852,0 -1.094,-2.223 -4.563,-2.223 -1.148,0 -2.582,0.523 -2.582,1.859 0,1.074 1.27,1.469 3.512,2.02 3.379,0.902 5.914,1.801 5.914,4.891 0,3 -2.453,4.504 -6.336,4.504 -3.883,0 -6.363,-2.313 -6.363,-3.512 0,-1.199 0.457,-1.5 1.41,-1.5 1.855,0 1.605,2.523 5.074,2.523 1.152,0 2.852,-0.523 2.852,-1.863 0,-1.07 -0.09,-1.441 -2.551,-2.102 -2.629,-0.355 -6.875,-1.207 -6.875,-4.473 0,-3 2.273,-4.746 6.156,-4.746 m 0,0"
           id="path53"
           inkscape:connector-curvature="0"
           style="fill:#ffffff;fill-opacity:1;fill-rule:nonzero;stroke:none" />
      </g>
    </g>
  </g>
</svg>
