<?xml version="1.0" encoding="UTF-8" standalone="no"?>
<!-- Created with Inkscape (http://www.inkscape.org/) -->

<svg
   xmlns:dc="http://purl.org/dc/elements/1.1/"
   xmlns:cc="http://creativecommons.org/ns#"
   xmlns:rdf="http://www.w3.org/1999/02/22-rdf-syntax-ns#"
   xmlns:svg="http://www.w3.org/2000/svg"
   xmlns="http://www.w3.org/2000/svg"
   xmlns:sodipodi="http://sodipodi.sourceforge.net/DTD/sodipodi-0.dtd"
   xmlns:inkscape="http://www.inkscape.org/namespaces/inkscape"
   width="48"
   height="48"
   id="svg2"
   version="1.1"
   inkscape:version="0.91 r13725"
   viewBox="0 0 47.999998 48.000001"
   sodipodi:docname="soundconverter.svg"
   inkscape:export-filename="/home/pacomaro/.icons/flattr/apps/22/banshee.png"
   inkscape:export-xdpi="41.25"
   inkscape:export-ydpi="41.25">
  <defs
     id="defs4" />
  <sodipodi:namedview
     id="base"
     pagecolor="#ffffff"
     bordercolor="#666666"
     borderopacity="1.0"
     inkscape:pageopacity="0.0"
     inkscape:pageshadow="2"
     inkscape:zoom="5.6568542"
     inkscape:cx="-56.479839"
     inkscape:cy="5.9487422"
     inkscape:document-units="px"
     inkscape:current-layer="layer1"
     showgrid="true"
     borderlayer="true"
     inkscape:showpageshadow="false"
     units="px"
     inkscape:window-width="1920"
     inkscape:window-height="1005"
     inkscape:window-x="-4"
     inkscape:window-y="33"
     inkscape:window-maximized="1"
     showguides="true">
    <sodipodi:guide
       position="9.0000004,39.000018"
       orientation="29.999999,0"
       id="guide3266" />
    <sodipodi:guide
       position="9.0000004,9.0000182"
       orientation="0,30"
       id="guide3268" />
    <sodipodi:guide
       position="39.000001,9.0000182"
       orientation="-29.999999,0"
       id="guide3270" />
    <sodipodi:guide
       position="4.0000005,44.000017"
       orientation="39.999999,0"
       id="guide3276" />
    <sodipodi:guide
       position="4.0000005,4.0000183"
       orientation="0,40"
       id="guide3278" />
    <sodipodi:guide
       position="44.000001,4.0000183"
       orientation="-39.999999,0"
       id="guide3280" />
    <sodipodi:guide
       position="44.000001,44.000017"
       orientation="0,-40"
       id="guide3282" />
    <sodipodi:guide
       position="15,33.000018"
       orientation="18,0"
       id="guide4157" />
    <sodipodi:guide
       position="15,12"
       orientation="0,1"
       id="guide4159" />
    <sodipodi:guide
       position="33.000001,15.000018"
       orientation="-18,0"
       id="guide4161" />
    <sodipodi:guide
       position="33.000001,38"
       orientation="0,1"
       id="guide4163" />
    <inkscape:grid
       type="xygrid"
       id="grid3133" />
  </sodipodi:namedview>
  <metadata
     id="metadata7">
    <rdf:RDF>
      <cc:Work
         rdf:about="">
        <dc:format>image/svg+xml</dc:format>
        <dc:type
           rdf:resource="http://purl.org/dc/dcmitype/StillImage" />
        <dc:title />
      </cc:Work>
    </rdf:RDF>
  </metadata>
  <g
     inkscape:label="Capa 1"
     inkscape:groupmode="layer"
     id="layer1"
     transform="translate(0,-1004.3622)">
    <rect
       style="opacity:1;fill:#4071bc;fill-opacity:1;fill-rule:evenodd;stroke:none"
       id="rect3262"
       width="40"
       height="40"
       x="3.999999"
       y="1008.3622"
       ry="20" />
    <path
       d="m 25.944167,1011.8662 0,15.335 c -1.064556,-0.5056 -2.529505,-0.5112 -3.877033,0.098 -2.022072,0.9149 -3.003072,2.8647 -2.203104,4.3446 0.800076,1.4798 3.085644,1.9365 5.107441,1.0214 1.617288,-0.7318 2.565144,-2.1252 2.473824,-3.4088 0.0024,0.012 0.0096,0.017 0.01236,0.026 l 0,-13.0092 c 1.42188,1.0143 4.775033,4.86 3.43384,9.452 0.792384,-2.3251 0.861008,-4.733 0.52924,-6.0677 -0.42693,-1.7179 -1.868912,-3.4884 -3.359948,-5.0831 -1.56636,-1.6753 -2.116872,-2.7075 -2.116872,-2.7075 m -2.153413,7.0152 c -0.890664,0 -1.77804,0.1116 -2.646096,0.3447 -5.463061,1.4637 -8.71284,7.0787 -7.249225,12.5418 l -1.895183,0.5168 4.443,2.88 2.399928,-4.7139 -1.895172,0.5045 c -1.013365,-3.7814 1.227348,-7.6639 5.009136,-8.6772 0.600984,-0.161 1.217076,-0.2456 1.833792,-0.246 l 0,-3.1507 m 8.664585,6.3012 -3.544556,3.9388 1.969348,0 c 0,3.9152 -3.17392,7.0894 -7.089281,7.0894 -1.244424,0 -2.466864,-0.3255 -3.54456,-0.9477 l -1.575384,2.7323 c 1.556628,0.8988 3.322152,1.3661 5.119944,1.3661 5.655157,0 10.239875,-4.5849 10.239875,-10.24 l 1.969344,0 -3.544552,-3.9389"
       id="path208"
       inkscape:connector-curvature="0"
       style="fill:#ffffff" />
  </g>
</svg>
