<?xml version="1.0" encoding="UTF-8" standalone="no"?>
<!-- Created with Inkscape (http://www.inkscape.org/) -->

<svg
   xmlns:dc="http://purl.org/dc/elements/1.1/"
   xmlns:cc="http://creativecommons.org/ns#"
   xmlns:rdf="http://www.w3.org/1999/02/22-rdf-syntax-ns#"
   xmlns:svg="http://www.w3.org/2000/svg"
   xmlns="http://www.w3.org/2000/svg"
   xmlns:xlink="http://www.w3.org/1999/xlink"
   xmlns:sodipodi="http://sodipodi.sourceforge.net/DTD/sodipodi-0.dtd"
   xmlns:inkscape="http://www.inkscape.org/namespaces/inkscape"
   width="48"
   height="48"
   id="svg2"
   version="1.1"
   inkscape:version="0.48.5 r10040"
   sodipodi:docname="stock_keyring.svg">
  <defs
     id="defs4">
    <linearGradient
       id="linearGradient4062-2">
      <stop
         id="stop4064-1"
         style="stop-color:#206520;stop-opacity:1"
         offset="0" />
      <stop
         id="stop4066-6"
         style="stop-color:#5a9d35;stop-opacity:1"
         offset="1" />
    </linearGradient>
    <linearGradient
       id="linearGradient3714-58">
      <stop
         id="stop3716-9"
         style="stop-color:#d7d7d7;stop-opacity:1"
         offset="0" />
      <stop
         id="stop3718-57"
         style="stop-color:#c8c8c8;stop-opacity:1"
         offset="1" />
    </linearGradient>
    <linearGradient
       id="linearGradient3790-2">
      <stop
         id="stop3792-7"
         style="stop-color:#969696;stop-opacity:1"
         offset="0" />
      <stop
         id="stop3794-4"
         style="stop-color:#ffffff;stop-opacity:0.79069769"
         offset="1" />
    </linearGradient>
    <linearGradient
       id="linearGradient3813">
      <stop
         id="stop3815-41"
         style="stop-color:#666666;stop-opacity:1"
         offset="0" />
      <stop
         id="stop3817-0"
         style="stop-color:#666666;stop-opacity:0"
         offset="1" />
    </linearGradient>
    <linearGradient
       x1="48"
       y1="72"
       x2="48"
       y2="24"
       id="linearGradient3149-3"
       xlink:href="#linearGradient3714-58"
       gradientUnits="userSpaceOnUse"
       gradientTransform="translate(4,-4)" />
    <linearGradient
       id="linearGradient10286">
      <stop
         id="stop10288"
         style="stop-color:#d7d7d7;stop-opacity:1"
         offset="0" />
      <stop
         id="stop10290"
         style="stop-color:#c8c8c8;stop-opacity:1"
         offset="1" />
    </linearGradient>
    <radialGradient
       cx="57"
       cy="37"
       r="15"
       fx="57"
       fy="37"
       id="radialGradient3827"
       xlink:href="#linearGradient3737-24"
       gradientUnits="userSpaceOnUse"
       gradientTransform="matrix(1.2,7.0502532e-8,-6.070424e-8,1.0332266,-7.399999,-5.2293852)" />
    <linearGradient
       id="linearGradient3737-24">
      <stop
         id="stop3739-60"
         style="stop-color:#ffffff;stop-opacity:1"
         offset="0" />
      <stop
         id="stop3741-48"
         style="stop-color:#ffffff;stop-opacity:0"
         offset="1" />
    </linearGradient>
    <linearGradient
       x1="62.823048"
       y1="53.023079"
       x2="62.823048"
       y2="22.999353"
       id="linearGradient3742-9"
       xlink:href="#linearGradient3749"
       gradientUnits="userSpaceOnUse"
       gradientTransform="matrix(1,0,0,-1,4,66)" />
    <linearGradient
       id="linearGradient3749">
      <stop
         id="stop3751-6"
         style="stop-color:#000000;stop-opacity:0.5271318"
         offset="0" />
      <stop
         id="stop3757-75"
         style="stop-color:#7f7f7f;stop-opacity:0"
         offset="0.5" />
      <stop
         id="stop3753-9"
         style="stop-color:#ffffff;stop-opacity:1"
         offset="1" />
    </linearGradient>
    <linearGradient
       x1="59"
       y1="32"
       x2="69.1875"
       y2="32"
       id="linearGradient3755-1"
       xlink:href="#linearGradient3749"
       gradientUnits="userSpaceOnUse"
       gradientTransform="matrix(0.25881905,0.96592583,-0.96592583,0.25881905,82.414693,-42.192018)" />
    <linearGradient
       id="linearGradient10302">
      <stop
         id="stop10304"
         style="stop-color:#000000;stop-opacity:0.5271318"
         offset="0" />
      <stop
         id="stop10306"
         style="stop-color:#7f7f7f;stop-opacity:0"
         offset="0.5" />
      <stop
         id="stop10308"
         style="stop-color:#ffffff;stop-opacity:1"
         offset="1" />
    </linearGradient>
    <linearGradient
       inkscape:collect="always"
       xlink:href="#linearGradient3714-58"
       id="linearGradient3128"
       gradientUnits="userSpaceOnUse"
       gradientTransform="matrix(0.48308601,0,0,0.48308601,-56.900554,999.29538)"
       x1="48"
       y1="72"
       x2="48"
       y2="24" />
    <linearGradient
       inkscape:collect="always"
       xlink:href="#linearGradient3714-58"
       id="linearGradient3147"
       gradientUnits="userSpaceOnUse"
       gradientTransform="matrix(0.48308601,0,0,0.48308601,-56.900554,999.29538)"
       x1="48"
       y1="72"
       x2="48"
       y2="24" />
    <linearGradient
       inkscape:collect="always"
       xlink:href="#linearGradient3714-58"
       id="linearGradient3934"
       gradientUnits="userSpaceOnUse"
       gradientTransform="matrix(0.48308601,0,0,0.48308601,-56.900554,999.29538)"
       x1="48"
       y1="72"
       x2="48"
       y2="24" />
    <linearGradient
       inkscape:collect="always"
       xlink:href="#linearGradient3714-58"
       id="linearGradient3936"
       gradientUnits="userSpaceOnUse"
       gradientTransform="matrix(0.48308601,0,0,0.48308601,-56.900554,999.29538)"
       x1="48"
       y1="72"
       x2="48"
       y2="24" />
  </defs>
  <sodipodi:namedview
     id="base"
     pagecolor="#ffffff"
     bordercolor="#666666"
     borderopacity="1.0"
     inkscape:pageopacity="0.0"
     inkscape:pageshadow="2"
     inkscape:zoom="8.0625004"
     inkscape:cx="-27.49888"
     inkscape:cy="34.006043"
     inkscape:document-units="px"
     inkscape:current-layer="layer1"
     showgrid="false"
     inkscape:window-width="1920"
     inkscape:window-height="1035"
     inkscape:window-x="-4"
     inkscape:window-y="29"
     inkscape:window-maximized="1"
     showguides="true">
    <sodipodi:guide
       position="4,44.000017"
       orientation="40,0"
       id="guide4083" />
    <sodipodi:guide
       position="4,4.0000174"
       orientation="0,40"
       id="guide4085" />
    <sodipodi:guide
       position="44,4.0000174"
       orientation="-40,0"
       id="guide4087" />
    <sodipodi:guide
       position="44,44.000017"
       orientation="0,-40"
       id="guide4089" />
    <sodipodi:guide
       position="9,39.000017"
       orientation="30,0"
       id="guide4115" />
    <sodipodi:guide
       position="9,9.0000174"
       orientation="0,30"
       id="guide4117" />
    <sodipodi:guide
       position="39,9.0000174"
       orientation="-30,0"
       id="guide4119" />
    <sodipodi:guide
       position="39,39.000017"
       orientation="0,-30"
       id="guide4121" />
    <sodipodi:guide
       position="14,34.000017"
       orientation="20,0"
       id="guide4125" />
    <sodipodi:guide
       position="14,14.000017"
       orientation="0,20"
       id="guide4127" />
    <sodipodi:guide
       position="34,14.000017"
       orientation="-20,0"
       id="guide4129" />
    <sodipodi:guide
       position="34,34.000017"
       orientation="0,-20"
       id="guide4131" />
  </sodipodi:namedview>
  <metadata
     id="metadata7">
    <rdf:RDF>
      <cc:Work
         rdf:about="">
        <dc:format>image/svg+xml</dc:format>
        <dc:type
           rdf:resource="http://purl.org/dc/dcmitype/StillImage" />
        <dc:title />
      </cc:Work>
    </rdf:RDF>
  </metadata>
  <g
     inkscape:label="Capa 1"
     inkscape:groupmode="layer"
     id="layer1"
     transform="translate(0,-1004.3622)">
    <path
       style="fill:#ccc98d;fill-rule:evenodd;fill-opacity:1"
       inkscape:connector-curvature="0"
       id="path436"
       d="m 43.9976,1028.3609 c 0,11.0449 -8.95382,19.9988 -19.9988,19.9988 -11.04498,0 -19.9988,-8.9539 -19.9988,-19.9988 0,-11.0449 8.95382,-19.9988 19.9988,-19.9988 11.04498,0 19.9988,8.9539 19.9988,19.9988" />
    <path
       style="fill:#545454;fill-opacity:1"
       inkscape:connector-curvature="0"
       d="m 31.34659,1015.5482 c -0.25581,0 -0.50694,0.014 -0.7547,0.044 -0.0423,0.01 -0.0838,0.016 -0.1258,0.022 -0.0221,0 -0.0446,0 -0.0666,0.01 -0.059,0.01 -0.11914,0.019 -0.1776,0.03 -0.0822,0.015 -0.16307,0.034 -0.2442,0.052 -0.16206,0.036 -0.32386,0.077 -0.4809,0.1258 -0.0976,0.03 -0.19313,0.061 -0.28859,0.096 -0.0346,0.013 -0.0693,0.024 -0.1036,0.037 -0.20555,0.079 -0.40498,0.1739 -0.5993,0.2738 -0.01,0.01 -0.0198,0.01 -0.0296,0.015 -0.0439,0.023 -0.0899,0.043 -0.13319,0.067 -0.0674,0.037 -0.13384,0.079 -0.1998,0.1184 -0.0752,0.045 -0.14882,0.092 -0.22191,0.1406 -0.0148,0.01 -0.0297,0.02 -0.0444,0.03 -0.0875,0.059 -0.17458,0.1144 -0.259,0.1776 -0.008,0.01 -0.0139,0.016 -0.0222,0.022 -0.0952,0.072 -0.19038,0.1448 -0.28119,0.222 -0.0175,0.015 -0.0344,0.029 -0.0518,0.044 -0.0462,0.04 -0.0882,0.084 -0.13319,0.1258 -0.0248,0.023 -0.0496,0.043 -0.074,0.067 -0.038,0.036 -0.0739,0.074 -0.11101,0.111 -0.0679,0.068 -0.13511,0.1361 -0.19979,0.2071 -0.002,0 -0.005,0 -0.007,0.01 -0.0576,0.063 -0.1153,0.1266 -0.17019,0.1924 -0.073,0.087 -0.14637,0.1752 -0.2146,0.2664 -0.003,0 -0.004,0.011 -0.007,0.015 -0.7715,1.0373 -1.22829,2.3229 -1.22829,3.7144 0,0.4519 0.0482,0.893 0.14059,1.317 3.7e-4,0 -3.6e-4,0 0,0.01 0.0258,0.1177 0.0564,0.2327 0.0888,0.3478 0.0394,0.1414 0.0914,0.2774 0.14059,0.4144 0.008,0.022 0.014,0.044 0.0222,0.067 0.0208,0.056 0.0368,0.1147 0.0592,0.1702 0.002,0 0.005,0 0.007,0 0.12798,0.3141 0.28356,0.6164 0.4586,0.9027 -0.17065,0.032 -0.34587,0.043 -0.5253,0.03 -0.0124,-10e-4 -0.0246,-0.01 -0.037,-0.01 -0.0786,-0.01 -0.1575,-0.013 -0.23679,-0.03 -1.1109,-0.2351 -1.81872,-1.3153 -1.58339,-2.427 0.12653,-0.5975 0.4999,-1.0738 0.99149,-1.3539 0.0798,-0.8763 0.35117,-1.7244 0.7621,-2.5009 -0.26293,-0.094 -0.53307,-0.1773 -0.8139,-0.2368 -0.41677,-0.088 -0.8329,-0.1304 -1.24308,-0.1332 -2.87088,-0.019 -5.45698,1.9795 -6.07429,4.8982 -0.14954,0.7066 -0.17101,1.3942 -0.0814,2.0718 l -8.02017,5.2164 c -0.31947,0.2078 -1.01789,2.8294 -0.49569,3.633 0.52246,0.8019 3.20203,1.2295 3.52196,1.0211 l 0.5253,-0.3405 1.71658,0.3627 c 0.34085,0.072 0.68271,-0.126 0.7547,-0.4662 l 0.3625,-1.7166 1.69438,0.3553 c 0.34094,0.072 0.68271,-0.1334 0.7547,-0.4736 l 0.3625,-1.7092 1.69439,0.3553 c 0.34085,0.072 0.6827,-0.1334 0.75469,-0.4736 l 0.1776,-0.8434 c 0.32888,0.1323 0.68444,0.2422 1.04329,0.3182 3.33569,0.7059 6.61145,-1.4227 7.31763,-4.7578 0.49735,-2.3501 -0.41869,-4.6693 -2.16788,-6.0817 -0.23178,0.4822 -0.38818,1.0026 -0.45861,1.5316 0.71796,0.4421 1.11692,1.3028 0.93229,2.1753 -0.0596,0.2816 -0.17815,0.5346 -0.3329,0.7548 -0.0397,0.041 -0.0664,0.08 -0.0888,0.1183 -0.002,0 -0.006,0 -0.007,0.01 -0.0673,0.081 -0.14362,0.1525 -0.222,0.222 -0.17896,-0.2813 -0.33655,-0.5804 -0.4586,-0.8953 -0.15887,-0.4108 -0.26211,-0.8483 -0.3108,-1.3021 -0.004,-0.037 -0.0117,-0.074 -0.0148,-0.111 -0.002,-0.03 -0.005,-0.059 -0.007,-0.089 -0.008,-0.1161 -0.0148,-0.2297 -0.0148,-0.3479 0,-1.2774 0.47067,-2.4446 1.24308,-3.3443 0.0832,-0.097 0.16883,-0.1905 0.259,-0.2812 0.01,-0.01 0.0197,-0.02 0.0296,-0.03 0.0904,-0.09 0.18454,-0.1764 0.2812,-0.259 0.02,-0.017 0.0389,-0.035 0.0592,-0.052 0.17393,-0.1441 0.35546,-0.2717 0.54749,-0.3922 0.0563,-0.035 0.11247,-0.07 0.1702,-0.1036 0.005,0 0.0101,0 0.0148,-0.01 0.0566,-0.032 0.11218,-0.066 0.17019,-0.096 0.0286,-0.015 0.0599,-0.03 0.0888,-0.044 0.0844,-0.042 0.17193,-0.081 0.25899,-0.1184 0.007,0 0.015,0 0.0222,-0.01 0.0123,-0.01 0.0247,-0.01 0.037,-0.015 0.21742,-0.09 0.44207,-0.1695 0.6733,-0.2294 0.0313,-0.01 0.0646,-0.015 0.0962,-0.022 0.21661,-0.052 0.4396,-0.088 0.6659,-0.111 0.0741,-0.01 0.1469,-0.018 0.2219,-0.022 0.10104,-0.01 0.2009,-0.01 0.3034,-0.01 2.83752,0 5.13513,2.304 5.13513,5.1425 0,0.094 -0.002,0.1888 -0.007,0.2812 -0.002,0.037 -0.005,0.074 -0.007,0.111 -10e-4,0.015 -0.006,0.029 -0.007,0.044 -0.009,0.1131 -0.0204,0.2221 -0.037,0.3329 -0.003,0.017 -0.005,0.034 -0.007,0.052 -0.005,0.032 -0.0164,0.064 -0.0222,0.096 -0.0264,0.1454 -0.0503,0.2956 -0.0888,0.4365 -0.005,0.017 -0.01,0.035 -0.0148,0.052 -0.0195,0.068 -0.0444,0.1328 -0.0666,0.1998 -0.0279,0.085 -0.0566,0.1685 -0.0888,0.2516 -0.064,0.1645 -0.13457,0.3253 -0.2146,0.481 -0.0316,0.062 -0.0621,0.1244 -0.0962,0.1849 -0.26684,0.4711 -0.61007,0.894 -1.00583,1.2579 v 0.01 c -0.40671,0.3733 -0.87209,0.683 -1.38405,0.9101 0.0811,0.3644 0.1364,0.7373 0.1554,1.1098 0.43568,-0.1674 0.84632,-0.3874 1.22828,-0.644 0.002,0 0.006,0 0.007,0 0.20683,-0.139 0.4037,-0.2891 0.59189,-0.4513 0.0453,-0.039 0.089,-0.078 0.1332,-0.1184 0.0482,-0.044 0.0937,-0.088 0.1406,-0.1332 0.0186,-0.018 0.0333,-0.041 0.0518,-0.059 0.071,-0.071 0.13968,-0.1406 0.20719,-0.2146 0.0782,-0.086 0.15594,-0.1691 0.2294,-0.2589 0.006,-0.01 0.009,-0.015 0.0148,-0.022 0.0366,-0.045 0.0682,-0.094 0.10359,-0.1406 0.0401,-0.053 0.0873,-0.1016 0.1258,-0.1554 0.0124,-0.017 0.0248,-0.034 0.037,-0.052 0.0595,-0.085 0.11502,-0.171 0.1702,-0.2591 0.003,0 0.004,-0.01 0.007,-0.015 0.0639,-0.1024 0.12698,-0.2044 0.185,-0.3108 0.008,-0.014 0.0144,-0.03 0.0222,-0.044 0.11063,-0.2068 0.20893,-0.4237 0.29599,-0.644 0.0254,-0.064 0.0507,-0.1272 0.074,-0.1924 0.0196,-0.055 0.041,-0.107 0.0592,-0.1628 0.003,-0.01 0.004,-0.02 0.007,-0.03 0.0356,-0.1113 0.0668,-0.2265 0.0962,-0.3404 0.0101,-0.039 0.0203,-0.079 0.0296,-0.1184 0.005,-0.02 0.0103,-0.039 0.0148,-0.059 0.0227,-0.1 0.0414,-0.2019 0.0592,-0.3034 0.0167,-0.096 0.0321,-0.1913 0.0444,-0.2886 0.0125,-0.098 0.0217,-0.1963 0.0296,-0.2959 0.002,-0.032 0.005,-0.065 0.007,-0.096 0.008,-0.1326 0.0148,-0.2649 0.0148,-0.3997 0,-3.4397 -2.79021,-6.2295 -6.22959,-6.2295 m -0.99149,7.7689 c 0.0413,0.2394 0.0672,0.4801 0.0814,0.7251 0.48419,4.5471 -4.22979,8.5399 -8.62768,7.4437 -0.0781,0.1218 -0.17577,0.234 -0.2811,0.3404 0.009,0.013 0.0199,0.024 0.0296,0.037 l -4.33577,8.5309 c -0.17275,0.3396 0.53717,2.9535 1.39099,3.3884 0.85345,0.4331 3.38566,-0.5325 3.55897,-0.8732 l 0.28859,-0.5622 1.66478,-0.5401 c 0.33126,-0.108 0.52941,-0.4614 0.4218,-0.7918 l -0.54759,-1.6648 1.64258,-0.5326 c 0.33117,-0.108 0.5295,-0.4614 0.42171,-0.7917 l -0.5401,-1.6648 1.64258,-0.5327 c 0.33135,-0.1079 0.5221,-0.4538 0.4144,-0.7843 l -0.2664,-0.8213 c 0.35108,-0.05 0.71678,-0.1305 1.06549,-0.2442 3.24186,-1.0566 5.01473,-4.5428 3.95846,-7.7836 -0.38324,-1.1759 -1.08824,-2.154 -1.98297,-2.8782 m -12.72594,3.6034 c 0.18126,0.4283 0.40974,0.8294 0.6807,1.206 l -6.79234,4.4468 c -0.31928,0.2079 -0.76146,0.1122 -0.96928,-0.2071 -0.20839,-0.3204 -0.11229,-0.7606 0.20718,-0.9693 l 6.87365,-4.4764 m 5.12052,6.1116 c 0.37109,0.2803 0.76849,0.5126 1.19129,0.7029 l -3.66248,7.2436 c -0.17266,0.3396 -0.60002,0.4835 -0.93968,0.3108 -0.34067,-0.1733 -0.483,-0.5991 -0.3108,-0.9396 l 3.72176,-7.3177"
       id="path496" />
  </g>
</svg>
