<?xml version="1.0" encoding="UTF-8" standalone="no"?>
<!-- Created with Inkscape (http://www.inkscape.org/) -->

<svg
   xmlns:dc="http://purl.org/dc/elements/1.1/"
   xmlns:cc="http://creativecommons.org/ns#"
   xmlns:rdf="http://www.w3.org/1999/02/22-rdf-syntax-ns#"
   xmlns:svg="http://www.w3.org/2000/svg"
   xmlns="http://www.w3.org/2000/svg"
   xmlns:sodipodi="http://sodipodi.sourceforge.net/DTD/sodipodi-0.dtd"
   xmlns:inkscape="http://www.inkscape.org/namespaces/inkscape"
   width="48"
   height="48"
   id="svg5453"
   version="1.1"
   inkscape:version="0.48.5 r10040"
   sodipodi:docname="system-config-keyboard.svg"
   viewBox="0 0 48 48">
  <defs
     id="defs5455" />
  <sodipodi:namedview
     id="base"
     pagecolor="#ffffff"
     bordercolor="#666666"
     borderopacity="1.0"
     inkscape:pageopacity="0"
     inkscape:pageshadow="2"
     inkscape:zoom="9.0113182"
     inkscape:cx="33.234809"
     inkscape:cy="33.45776"
     inkscape:document-units="px"
     inkscape:current-layer="layer1"
     showgrid="false"
     fit-margin-top="0"
     fit-margin-left="0"
     fit-margin-right="0"
     fit-margin-bottom="0"
     inkscape:window-width="1920"
     inkscape:window-height="1035"
     inkscape:window-x="-4"
     inkscape:window-y="29"
     inkscape:window-maximized="1"
     borderlayer="true"
     inkscape:showpageshadow="false">
    <sodipodi:guide
       position="4.0000117,43.999996"
       orientation="39.999969,0"
       id="guide4090" />
    <sodipodi:guide
       position="4.0000117,4.0000264"
       orientation="0,40"
       id="guide4092" />
    <sodipodi:guide
       position="44.000012,4.0000264"
       orientation="-39.999969,0"
       id="guide4094" />
    <sodipodi:guide
       position="44.000012,43.999996"
       orientation="0,-40"
       id="guide4096" />
    <sodipodi:guide
       position="9.0000117,38.999996"
       orientation="29.999969,0"
       id="guide4100" />
    <sodipodi:guide
       position="9.0000117,9.0000264"
       orientation="0,30"
       id="guide4102" />
    <sodipodi:guide
       position="39.000012,9.0000264"
       orientation="-29.999969,0"
       id="guide4104" />
    <sodipodi:guide
       position="39.000012,38.999996"
       orientation="0,-30"
       id="guide4106" />
    <sodipodi:guide
       position="15.000012,33.000026"
       orientation="18,0"
       id="guide4110" />
    <sodipodi:guide
       position="15.000012,15.000026"
       orientation="0,18"
       id="guide4112" />
    <sodipodi:guide
       position="33.000012,15.000026"
       orientation="-18,0"
       id="guide4114" />
    <sodipodi:guide
       position="33.000012,33.000026"
       orientation="0,-18"
       id="guide4116" />
  </sodipodi:namedview>
  <metadata
     id="metadata5458">
    <rdf:RDF>
      <cc:Work
         rdf:about="">
        <dc:format>image/svg+xml</dc:format>
        <dc:type
           rdf:resource="http://purl.org/dc/dcmitype/StillImage" />
        <dc:title />
      </cc:Work>
    </rdf:RDF>
  </metadata>
  <g
     inkscape:label="Capa 1"
     inkscape:groupmode="layer"
     id="layer1"
     transform="translate(-384.57143,-499.798)">
    <g
       transform="matrix(0.16806724,0,0,0.16806667,387.05882,502.362)"
       id="g3065">
      <rect
         transform="matrix(0.7526115,-0.65846483,0.66507733,0.7467745,0,0)"
         width="229.10057"
         height="104.56151"
         rx="4.8744841"
         ry="4.7528005"
         x="-103.76009"
         y="127.96772"
         id="rect6674"
         style="fill:#dcdcdc;fill-opacity:1;fill-rule:nonzero;stroke:none;stroke-width:3;marker:none;visibility:visible;display:inline;overflow:visible;enable-background:new" />
      <path
         id="rect7609"
         d="m 189.08228,46.127381 c -0.33659,-0.04574 -0.70149,0.07394 -1.06827,0.430146 l -4.54017,3.970579 c 1.70492,1.445727 3.29441,4.615419 5.07431,5.062487 1.16674,-1.736739 5.42649,-3.326251 4.60693,-5.161752 -1.41505,-0.777741 -2.61422,-4.103235 -4.0728,-4.30146 z m -7.34439,6.419102 c -0.33659,-0.04574 -0.70149,0.07394 -1.06827,0.430146 l -4.54017,4.003667 c 1.70491,1.445733 3.29439,4.582337 5.07431,5.029399 1.16672,-1.73672 5.45988,-3.326265 4.64031,-5.161752 -1.41504,-0.777742 -2.6476,-4.10324 -4.10618,-4.30146 z m 13.55374,0.297794 -5.47491,4.797782 11.04997,12.408057 c 1.50437,-1.719936 4.71262,-3.32547 5.20784,-5.095575 l -10.7829,-12.110264 z m -20.89813,6.121308 c -0.33659,-0.04574 -0.66811,0.07394 -1.03489,0.430146 l -4.54016,4.003666 c 1.70491,1.445735 3.261,4.582344 5.04092,5.0294 1.16672,-1.73672 5.45987,-3.326259 4.64032,-5.161752 -1.41507,-0.777737 -2.64761,-4.103237 -4.10619,-4.30146 z m 13.32006,0.694851 c -0.23033,0.04852 -0.45654,0.192672 -0.70106,0.430146 l -4.54017,3.970578 c 1.70492,1.445734 3.26103,4.582353 5.04092,5.0294 1.16674,-1.736721 5.45988,-3.293184 4.64032,-5.128664 -1.52389,-0.837568 -2.82769,-4.641098 -4.44001,-4.30146 z m -44.30002,1.158085 c -0.3366,-0.04574 -0.7015,0.07394 -1.06828,0.430146 l -4.54017,3.970579 c 1.70492,1.445728 3.29439,4.615454 5.07431,5.062487 1.16672,-1.736705 5.45988,-3.326272 4.64032,-5.161752 -1.41505,-0.777747 -2.64761,-4.10324 -4.10618,-4.30146 z m 23.63558,4.566166 c -0.3366,-0.04574 -0.66811,0.07394 -1.0349,0.430146 l -4.54016,4.003666 c 1.70492,1.445727 3.26099,4.58235 5.04092,5.029399 1.16672,-1.73672 5.45989,-3.326263 4.64032,-5.161752 -1.41505,-0.777746 -2.64761,-4.103235 -4.10618,-4.301459 z m 13.32005,0.694851 c -0.23033,0.04851 -0.45654,0.192671 -0.70106,0.430146 l -4.54017,3.970578 c 1.70492,1.445733 3.29441,4.58236 5.07431,5.029399 1.16674,-1.736719 5.42649,-3.293177 4.60693,-5.128663 -1.5239,-0.837563 -2.8277,-4.641096 -4.44001,-4.30146 z m 14.0211,0.661763 c -0.33659,-0.04574 -0.70149,0.07394 -1.06827,0.430146 l -4.54017,4.003666 c 1.7049,1.445726 3.29441,4.582353 5.07431,5.0294 1.16672,-1.736713 5.4265,-3.326257 4.60693,-5.161752 -1.41505,-0.77773 -2.61422,-4.10324 -4.0728,-4.30146 z m 13.55374,0.297793 -5.50829,4.797782 11.08335,12.441146 c 1.50435,-1.719943 4.71262,-3.35856 5.20784,-5.128664 l -10.7829,-12.110264 z m -71.87486,0.198529 c -0.3366,-0.04574 -0.66811,0.07394 -1.0349,0.430146 l -4.54016,3.970579 c 1.70492,1.445721 3.26099,4.615465 5.04092,5.062487 1.16673,-1.736707 5.45988,-3.326271 4.64032,-5.161752 -1.41505,-0.777746 -2.6476,-4.103243 -4.10618,-4.30146 z m 36.98901,5.261016 c -0.23033,0.04852 -0.48992,0.192673 -0.73444,0.430146 l -4.54017,3.970579 c 1.70493,1.445727 3.2944,4.582365 5.07431,5.029399 1.16673,-1.73672 5.45988,-3.293184 4.64032,-5.128664 -1.5239,-0.837574 -2.8277,-4.641092 -4.44002,-4.30146 z m 13.98772,0.661764 c -0.33659,-0.04574 -0.70149,0.07394 -1.06827,0.430146 l -4.54017,4.003666 c 1.70491,1.445726 3.2944,4.582359 5.07431,5.029399 1.16672,-1.736713 5.45989,-3.32625 4.64032,-5.161752 -1.41505,-0.777724 -2.64761,-4.103237 -4.10619,-4.301459 z m -58.32112,0.496322 c -0.3366,-0.04574 -0.66811,0.07394 -1.03489,0.430146 l -4.54017,3.970578 c 1.70492,1.445722 3.26101,4.615447 5.04092,5.062488 1.16675,-1.736727 5.45988,-3.326271 4.64032,-5.161752 -1.41505,-0.777748 -2.64761,-4.103237 -4.10618,-4.30146 z m 71.64118,0.198529 c -0.23034,0.04853 -0.45654,0.192669 -0.70106,0.430146 l -4.57355,3.970578 c 1.70491,1.445726 3.2944,4.615433 5.0743,5.062488 1.16673,-1.736721 5.4599,-3.326257 4.64032,-5.161752 -1.52389,-0.837568 -2.82771,-4.641108 -4.44001,-4.30146 z m -44.30003,1.158085 c -0.33659,-0.04574 -0.70149,0.07394 -1.06827,0.430146 l -4.54017,4.003667 c 1.70492,1.445733 3.29438,4.582351 5.07431,5.029399 1.16672,-1.736713 5.4265,-3.326265 4.60693,-5.161752 -1.41504,-0.777747 -2.61422,-4.103237 -4.0728,-4.30146 z m 23.63558,4.566165 c -0.33659,-0.04574 -0.6681,0.07394 -1.03489,0.430146 l -4.54016,4.003667 c 1.70492,1.445719 3.261,4.582365 5.04092,5.029399 1.16672,-1.736713 5.4599,-3.326257 4.64032,-5.161752 -1.41503,-0.777734 -2.64761,-4.103236 -4.10619,-4.30146 z m 13.32006,0.694851 c -0.23033,0.04852 -0.45654,0.19267 -0.70106,0.430146 l -4.54017,3.970579 c 1.70492,1.445726 3.26102,4.615439 5.04092,5.062487 1.16674,-1.73672 5.45989,-3.32625 4.64032,-5.161752 -1.5239,-0.837561 -2.82771,-4.641105 -4.44001,-4.30146 z m 13.65388,0.694852 c -0.23033,0.04852 -0.45653,0.19267 -0.70105,0.430146 l -4.54017,3.970578 c 1.70491,1.445733 3.26103,4.582352 5.04092,5.029399 1.16674,-1.736713 5.45988,-3.326278 4.64032,-5.161752 -1.52391,-0.83758 -2.8277,-4.608012 -4.44002,-4.268371 z m -57.9539,0.463234 c -0.3366,-0.04574 -0.7015,0.07394 -1.06828,0.430146 l -4.54017,4.003666 c 1.70493,1.445727 3.29437,4.582364 5.07431,5.0294 1.16671,-1.736714 5.45989,-3.326264 4.64032,-5.161752 -1.41505,-0.777747 -2.6476,-4.103239 -4.10618,-4.30146 z m 13.32005,0.694851 c -0.23033,0.04852 -0.45654,0.192673 -0.70106,0.430146 l -4.57355,3.970578 c 1.70491,1.445734 3.29439,4.582366 5.07431,5.0294 1.16671,-1.736714 5.45987,-3.293183 4.64031,-5.128664 -1.52389,-0.837574 -2.8277,-4.641094 -4.44001,-4.30146 z m -44.30002,1.158085 c -0.3366,-0.04574 -0.7015,0.07394 -1.06828,0.430146 l -4.54017,3.970579 c 1.70491,1.445735 3.29441,4.615434 5.07431,5.062487 1.16675,-1.736725 5.42649,-3.326271 4.60693,-5.161752 -1.41505,-0.777741 -2.61421,-4.103243 -4.07279,-4.30146 z m 67.9356,3.40808 c -0.23033,0.04852 -0.45654,0.192671 -0.70106,0.430146 l -4.54017,3.970579 c 1.70492,1.445719 3.29439,4.615442 5.07431,5.062487 1.16674,-1.736724 5.42651,-3.326257 4.60693,-5.161752 -1.52389,-0.837574 -2.82771,-4.641103 -4.44001,-4.30146 z m 13.58712,0.562499 -12.51885,10.952178 c 1.70494,1.445725 3.2944,4.582366 5.07431,5.029396 l 12.51884,-10.952175 c -1.70491,-1.445733 -3.2944,-4.582331 -5.0743,-5.029399 z m -57.88714,0.595587 c -0.3366,-0.04574 -0.66811,0.07394 -1.03489,0.430146 l -4.54017,4.003666 c 1.70492,1.445727 3.261,4.582344 5.04092,5.029399 1.16675,-1.736731 5.45989,-3.326263 4.64032,-5.161752 -1.41504,-0.777746 -2.64761,-4.103232 -4.10618,-4.301459 z m 13.32005,0.694851 c -0.23033,0.04851 -0.45654,0.192671 -0.70106,0.430146 l -4.54017,3.970578 c 1.70494,1.445727 3.261,4.615464 5.04093,5.062488 1.16672,-1.73671 5.45987,-3.326273 4.64031,-5.161752 -1.52389,-0.837574 -2.8277,-4.641098 -4.44001,-4.30146 z m -44.30002,1.158085 c -0.33659,-0.04574 -0.7015,0.07394 -1.06828,0.430146 l -4.54017,3.970578 c 1.70493,1.445725 3.2944,4.615443 5.07431,5.062488 1.16674,-1.73671 5.45988,-3.326265 4.64032,-5.161752 -1.41505,-0.777747 -2.6476,-4.103245 -4.10618,-4.30146 z m 36.95563,5.261016 c -0.23033,0.04852 -0.45654,0.192673 -0.70106,0.430146 l -4.54016,3.970579 c 1.70493,1.44572 3.29439,4.61544 5.0743,5.06249 1.16674,-1.73674 5.42649,-3.32628 4.60694,-5.161755 -1.5239,-0.837569 -2.82772,-4.641092 -4.44002,-4.30146 z m -44.30002,1.158086 c -0.33659,-0.04574 -0.66811,0.07391 -1.03489,0.430146 l -4.540171,4.003663 c 1.704913,1.44574 3.261031,4.58236 5.040921,5.0294 1.16675,-1.73672 5.45988,-3.32626 4.64032,-5.16175 -1.41505,-0.777735 -2.6476,-4.103237 -4.10618,-4.301459 z m 26.90717,1.25735 -12.51885,10.952179 c 1.70493,1.44572 3.29438,4.58234 5.07431,5.0294 l 12.51884,-10.95218 c -1.70492,-1.44574 -3.29439,-4.582344 -5.0743,-5.029399 z m 37.38962,5.360279 c -0.23033,0.0485 -0.45654,0.19268 -0.70106,0.43015 l -4.57355,3.97058 c 1.70491,1.44571 3.29438,4.61545 5.07431,5.06248 1.16672,-1.73671 5.45988,-3.32625 4.64031,-5.16175 -1.52389,-0.83757 -2.8277,-4.64111 -4.44001,-4.30146 z m 13.65388,0.69485 c -0.23033,0.0485 -0.45653,0.19268 -0.70105,0.43015 l -4.54017,3.97058 c 1.70491,1.44573 3.26101,4.58236 5.04092,5.0294 1.16673,-1.73671 5.45988,-3.32628 4.64032,-5.16176 -1.5239,-0.83758 -2.82771,-4.60801 -4.44002,-4.26837 z m -44.63385,1.15809 c -0.23033,0.0485 -0.48992,0.19267 -0.73444,0.43014 l -4.54017,3.97058 c 1.70491,1.44574 3.29441,4.61543 5.07431,5.06249 1.16673,-1.73673 5.45987,-3.32628 4.64032,-5.16175 -1.52391,-0.83757 -2.82771,-4.6411 -4.44002,-4.30146 z m -47.972217,4.36763 c -0.336594,-0.0457 -0.701493,0.0739 -1.068275,0.43015 l -4.540168,4.00367 c 1.704921,1.44572 3.294394,4.58236 5.074306,5.0294 1.166735,-1.73671 5.426492,-3.32627 4.606935,-5.16176 -1.415052,-0.77773 -2.614225,-4.10323 -4.072798,-4.30146 z m 85.261687,0.89338 c -0.23034,0.0485 -0.45654,0.19268 -0.70106,0.43015 l -4.54017,3.97058 c 1.70494,1.44572 3.261,4.58237 5.04092,5.0294 1.16673,-1.73671 5.45988,-3.32628 4.64032,-5.16175 -1.5239,-0.83758 -2.8277,-4.60801 -4.44001,-4.26838 z m -57.95391,0.46324 c -0.33659,-0.0457 -0.7015,0.0739 -1.06828,0.43014 l -4.54017,4.00367 c 1.70493,1.44574 3.29439,4.58234 5.07431,5.0294 1.16674,-1.73673 5.45989,-3.32625 4.64032,-5.16175 -1.41505,-0.77774 -2.6476,-4.10324 -4.10618,-4.30146 z m 13.32005,0.69485 c -0.23033,0.0485 -0.45654,0.19267 -0.70106,0.43015 l -4.57355,3.97057 c 1.70493,1.44573 3.2944,4.61546 5.07431,5.06249 1.16672,-1.73672 5.45988,-3.32626 4.64032,-5.16175 -1.5239,-0.83757 -2.8277,-4.6411 -4.44002,-4.30146 z m 13.58712,0.5625 -12.51885,10.95218 c 1.70493,1.44571 3.26103,4.58236 5.04093,5.0294 l 12.51884,-10.95218 c -1.70491,-1.44573 -3.26101,-4.58236 -5.04092,-5.0294 z m -61.559336,3.80514 c -0.336593,-0.0457 -0.701494,0.0739 -1.068275,0.43014 l -4.540168,4.00367 c 1.704912,1.44572 3.294398,4.58235 5.074305,5.0294 1.166739,-1.73672 5.459867,-3.32626 4.640319,-5.16175 -1.415058,-0.77774 -2.64761,-4.10324 -4.106181,-4.30146 z m 85.261686,0.89338 c -0.23033,0.0485 -0.45654,0.19267 -0.70106,0.43014 l -4.54017,3.97058 c 1.70493,1.44573 3.2944,4.58235 5.07431,5.0294 1.16675,-1.73672 5.42649,-3.32628 4.60693,-5.16175 -1.5239,-0.83758 -2.82771,-4.608 -4.44001,-4.26837 z m -57.95391,0.46323 c -0.33659,-0.0457 -0.66811,0.0739 -1.03489,0.43015 l -4.54017,4.00366 c 1.70491,1.44574 3.26101,4.58234 5.04092,5.0294 1.16675,-1.73674 5.45988,-3.32625 4.64032,-5.16175 -1.41505,-0.77775 -2.6476,-4.10324 -4.10618,-4.30146 z m 13.32005,0.69485 c -0.23033,0.0485 -0.45654,0.19268 -0.70106,0.43015 l -4.54016,3.97058 c 1.70492,1.44573 3.26102,4.61545 5.04092,5.06248 1.16674,-1.73672 5.45988,-3.32626 4.64032,-5.16175 -1.52391,-0.83756 -2.82771,-4.6411 -4.44002,-4.30146 z m 27.30777,1.35662 c -0.23033,0.0485 -0.45653,0.19267 -0.70105,0.43014 l -4.54017,3.97058 c 1.7049,1.44574 3.29441,4.61542 5.07431,5.06249 1.16673,-1.73674 5.4265,-3.32626 4.60693,-5.16175 -1.5239,-0.83756 -2.82771,-4.64111 -4.44002,-4.30146 z m -75.279986,3.01102 c -0.336593,-0.0457 -0.701494,0.0739 -1.068274,0.43014 l -4.540168,4.00367 c 1.704911,1.44572 3.294399,4.58237 5.074305,5.0294 1.16674,-1.73671 5.459884,-3.32628 4.640319,-5.16175 -1.41505,-0.77775 -2.64761,-4.10324 -4.106182,-4.30146 z m 27.307776,1.35661 c -0.33659,-0.0457 -0.66811,0.0739 -1.034892,0.43015 l -4.540168,4.00366 c 1.704924,1.44573 3.260994,4.58236 5.04092,5.0294 1.16673,-1.73672 5.45989,-3.32625 4.64032,-5.16175 -1.41505,-0.77773 -2.6476,-4.10324 -4.10618,-4.30146 z m 13.32005,0.69485 c -0.23033,0.0485 -0.45654,0.19268 -0.70105,0.43015 l -4.54017,3.97058 c 1.70491,1.44573 3.2944,4.61544 5.0743,5.06248 1.16674,-1.73673 5.4265,-3.32626 4.60694,-5.16175 -1.5239,-0.83757 -2.82772,-4.64108 -4.44002,-4.30146 z m 13.65389,0.69485 c -0.23033,0.0485 -0.45654,0.19268 -0.70106,0.43015 l -4.54017,3.97058 c 1.70492,1.44572 3.2944,4.58236 5.07431,5.0294 1.16674,-1.73672 5.4265,-3.32626 4.60693,-5.16175 -1.52388,-0.83756 -2.8277,-4.60801 -4.44001,-4.26838 z m 13.68727,0.66177 c -0.23033,0.0485 -0.48992,0.19267 -0.73444,0.43014 l -4.54017,3.97058 c 1.70491,1.44573 3.2944,4.61544 5.07431,5.06249 1.16672,-1.73672 5.45989,-3.32625 4.64032,-5.16175 -1.5239,-0.83757 -2.82772,-4.64111 -4.44002,-4.30146 z m 13.58712,0.5625 -12.51885,10.95217 c 1.70493,1.44574 3.26102,4.58236 5.04093,5.0294 l 12.51884,-10.95217 c -1.70492,-1.44574 -3.26102,-4.58234 -5.04092,-5.0294 z m -61.559337,3.80513 c -0.336594,-0.0457 -0.701493,0.0739 -1.068274,0.43015 l -4.540168,4.00367 c 1.704917,1.44573 3.294385,4.58234 5.074305,5.0294 1.166732,-1.73672 5.426494,-3.32625 4.606935,-5.16176 -1.415055,-0.77772 -2.614223,-4.10322 -4.072798,-4.30146 z m 13.286667,0.69485 c -0.23033,0.0485 -0.45654,0.19268 -0.70105,0.43015 l -4.54017,3.97058 c 1.70492,1.44572 3.2944,4.61546 5.0743,5.06249 1.16673,-1.73671 5.4265,-3.32627 4.60694,-5.16176 -1.5239,-0.83756 -2.8277,-4.64109 -4.44002,-4.30146 z m 13.68727,0.69486 c -0.23033,0.0485 -0.48992,0.19267 -0.73444,0.43014 l -4.54016,3.97058 c 1.7049,1.44573 3.29441,4.58235 5.0743,5.0294 1.16675,-1.73673 5.45989,-3.32625 4.64032,-5.16175 -1.52389,-0.83757 -2.82771,-4.608 -4.44002,-4.26837 z m 13.65389,0.66176 c -0.23033,0.0485 -0.48992,0.19267 -0.73444,0.43015 l -4.54017,3.97057 c 1.70491,1.44573 3.2944,4.61545 5.07431,5.06249 1.16674,-1.73673 5.45989,-3.32624 4.64032,-5.16175 -1.52391,-0.83757 -2.82771,-4.64111 -4.44002,-4.30146 z m -75.313374,3.01102 c -0.336593,-0.0457 -0.66811,0.0739 -1.034891,0.43015 l -4.540168,4.00366 c 1.704911,1.44573 3.261013,4.58237 5.040922,5.0294 1.166736,-1.73671 5.459883,-3.32627 4.640318,-5.16175 -1.415049,-0.77775 -2.64761,-4.10324 -4.106181,-4.30146 z m 27.341158,1.35662 c -0.336594,-0.0457 -0.701493,0.0739 -1.068275,0.43014 l -4.540168,4.00367 c 1.704916,1.44573 3.294386,4.58234 5.074306,5.0294 1.166733,-1.73673 5.459889,-3.32627 4.640318,-5.16175 -1.41505,-0.77775 -2.647607,-4.10324 -4.106181,-4.30146 z m 13.320052,0.69485 c -0.230331,0.0485 -0.489922,0.19267 -0.734439,0.43014 l -4.540168,3.97058 c 1.704916,1.44574 3.294399,4.61545 5.074305,5.06249 1.166736,-1.73672 5.459866,-3.32627 4.640316,-5.16175 -1.5239,-0.83757 -2.8277,-4.64109 -4.440014,-4.30146 z m 13.653884,0.69485 c -0.23033,0.0485 -0.45654,0.19267 -0.70105,0.43014 l -4.57355,3.97058 c 1.70491,1.44573 3.2944,4.58237 5.0743,5.0294 1.16674,-1.73672 5.45989,-3.32625 4.64032,-5.16175 -1.52389,-0.83756 -2.8277,-4.60801 -4.44002,-4.26837 z m 13.65389,0.66176 c -0.23033,0.0485 -0.45654,0.19267 -0.70106,0.43015 l -4.54016,3.97058 c 1.70491,1.44572 3.26101,4.61543 5.04092,5.06248 1.16674,-1.73674 5.45989,-3.32625 4.64032,-5.16175 -1.5239,-0.83757 -2.82772,-4.6411 -4.44002,-4.30146 z m 13.65389,0.69485 c -0.23033,0.0485 -0.45654,0.19268 -0.70106,0.43015 l -4.54017,3.97058 c 1.70493,1.44573 3.26102,4.58235 5.04093,5.0294 1.16674,-1.73672 5.45986,-3.32627 4.64031,-5.16176 -1.52391,-0.83757 -2.8277,-4.60802 -4.44001,-4.26837 z m -88.93388,2.31617 c -0.336593,-0.0457 -0.701494,0.0739 -1.068274,0.43015 l -4.540168,4.00367 c 1.704907,1.44572 3.294396,4.58235 5.074305,5.02939 1.166737,-1.73672 5.426498,-3.32627 4.606935,-5.16175 -1.415051,-0.77774 -2.614227,-4.10324 -4.072798,-4.30146 z m 27.307775,1.35662 c -0.336594,-0.0457 -0.701495,0.10702 -1.068275,0.46323 l -4.540168,3.97058 c 1.704915,1.44573 3.294387,4.58234 5.074305,5.0294 1.166733,-1.73672 5.45989,-3.32627 4.640319,-5.16175 -1.415049,-0.77774 -2.647607,-4.10324 -4.106181,-4.30146 z m 13.320051,0.69485 c -0.23033,0.0485 -0.456533,0.19267 -0.701055,0.43014 l -4.540168,3.97058 c 1.704916,1.44574 3.261016,4.61546 5.040922,5.06249 1.166733,-1.73672 5.459888,-3.32628 4.640318,-5.16175 -1.5239,-0.83757 -2.827704,-4.64109 -4.440017,-4.30146 z m 13.653884,0.69485 c -0.23033,0.0485 -0.45653,0.19267 -0.70105,0.43015 l -4.54017,3.97057 c 1.70491,1.44573 3.26102,4.58237 5.04092,5.0294 1.16674,-1.73671 5.45988,-3.32624 4.64032,-5.16175 -1.52389,-0.83755 -2.8277,-4.608 -4.44002,-4.26837 z m 13.65389,0.66176 c -0.23033,0.0485 -0.45654,0.19268 -0.70105,0.43015 l -4.54017,3.97058 c 1.70492,1.44571 3.261,4.61545 5.04092,5.06248 1.16673,-1.73672 5.45989,-3.32624 4.64032,-5.16175 -1.5239,-0.83757 -2.82771,-4.6411 -4.44002,-4.30146 z m 13.65389,0.69485 c -0.23033,0.0485 -0.45654,0.19268 -0.70106,0.43015 l -4.54017,3.97058 c 1.70492,1.44573 3.2944,4.58235 5.07431,5.0294 1.16675,-1.73672 5.42648,-3.32628 4.60694,-5.16175 -1.52391,-0.83758 -2.82772,-4.60801 -4.44002,-4.26838 z m -88.933879,2.31617 c -0.336593,-0.0457 -0.701493,0.0739 -1.068275,0.43015 l -4.540168,4.00367 c 1.704908,1.44573 3.294396,4.58236 5.074306,5.0294 1.166736,-1.73671 5.459882,-3.32627 4.640318,-5.16176 -1.41505,-0.77773 -2.647609,-4.10323 -4.106181,-4.30146 z m 27.307775,1.35662 c -0.336595,-0.0457 -0.66811,0.10702 -1.034892,0.46323 l -4.540167,3.97058 c 1.704915,1.44574 3.261,4.58235 5.040921,5.0294 1.16673,-1.73673 5.459889,-3.32626 4.640319,-5.16175 -1.415051,-0.77775 -2.647606,-4.10324 -4.106181,-4.30146 z m 13.320051,0.69485 c -0.230331,0.0485 -0.456534,0.19267 -0.701055,0.43015 l -4.540168,3.97057 c 1.704915,1.44574 3.261015,4.61546 5.040922,5.06249 1.166732,-1.73672 5.459883,-3.32626 4.640318,-5.16175 -1.523899,-0.83757 -2.827704,-4.6411 -4.440017,-4.30146 z m 13.653887,0.69485 c -0.23033,0.0485 -0.456538,0.19267 -0.701055,0.43015 l -4.540168,3.97058 c 1.704909,1.44573 3.294399,4.58236 5.074305,5.02939 1.166738,-1.73672 5.426514,-3.32625 4.606934,-5.16175 -1.52389,-0.83756 -2.8277,-4.60801 -4.440016,-4.26837 z m 13.653886,0.66176 c -0.23033,0.0485 -0.45654,0.19268 -0.70105,0.43015 l -4.54017,3.97058 c 1.70491,1.44573 3.2944,4.61544 5.0743,5.06249 1.16674,-1.73672 5.4265,-3.32625 4.60694,-5.16176 -1.52391,-0.83755 -2.82771,-4.64109 -4.44002,-4.30146 z m 13.58712,0.5625 -41.863017,36.62859 c 1.704911,1.44573 3.294395,4.58235 5.074305,5.0294 l 41.863022,-36.62859 c -1.70493,-1.44572 -3.29439,-4.58233 -5.07431,-5.0294 z m -61.559334,3.80514 c -0.336594,-0.0457 -0.66811,0.10703 -1.034891,0.46323 l -4.540168,3.97058 c 1.704912,1.44575 3.261,4.58235 5.040922,5.0294 1.16673,-1.73672 5.459887,-3.32626 4.640319,-5.16175 -1.415052,-0.77775 -2.647607,-4.10324 -4.106182,-4.30146 z m 13.320052,0.69485 c -0.230331,0.0485 -0.456534,0.19268 -0.701056,0.43015 l -4.540167,3.97058 c 1.704916,1.44573 3.294398,4.61545 5.074305,5.06248 1.16673,-1.73672 5.426498,-3.32627 4.606935,-5.16175 -1.5239,-0.83757 -2.827703,-4.64109 -4.440017,-4.30146 z m 13.687271,0.69485 c -0.230331,0.0485 -0.489918,0.19268 -0.734439,0.43015 l -4.540168,3.97058 c 1.704908,1.44572 3.2944,4.58236 5.074305,5.0294 1.166739,-1.73671 5.426514,-3.32626 4.606935,-5.16176 -1.523887,-0.83755 -2.79432,-4.60799 -4.406633,-4.26837 z m 13.653891,0.66177 c -0.23033,0.0485 -0.48993,0.19267 -0.73444,0.43014 l -4.540171,3.97058 c 1.704911,1.44572 3.294391,4.61544 5.074301,5.06249 1.16673,-1.73673 5.4599,-3.32626 4.64032,-5.16175 -1.52389,-0.83757 -2.82771,-4.6411 -4.44001,-4.30146 z m -75.313377,3.01102 c -0.336595,-0.0457 -0.66811,0.0739 -1.034892,0.43014 l -4.540168,4.00367 c 1.70491,1.44574 3.261012,4.58237 5.040922,5.0294 1.166737,-1.73671 5.459882,-3.32626 4.640319,-5.16175 -1.41505,-0.77774 -2.647609,-4.10324 -4.106181,-4.30146 z m 26.973938,1.3897 c -0.23033,0.0485 -0.456534,0.19267 -0.701055,0.43015 l -4.540168,3.97057 c 1.704913,1.44574 3.294383,4.58236 5.074305,5.0294 1.166731,-1.73672 5.426506,-3.32625 4.606935,-5.16175 -1.5239,-0.83757 -2.827704,-4.60801 -4.440017,-4.26837 z m 13.687271,0.66176 c -0.230331,0.0485 -0.489917,0.19268 -0.734439,0.43015 l -4.540168,3.97058 c 1.704912,1.44574 3.294395,4.61545 5.074306,5.06249 1.166729,-1.73673 5.459881,-3.32627 4.640318,-5.16176 -1.523901,-0.83757 -2.827704,-4.64108 -4.440017,-4.30146 z m 13.653887,0.69485 c -0.23033,0.0485 -0.489917,0.19268 -0.734439,0.43015 l -4.540167,3.97058 c 1.704908,1.44573 3.294398,4.58236 5.074305,5.0294 1.166738,-1.73672 5.459895,-3.32626 4.640319,-5.16175 -1.523889,-0.83756 -2.827705,-4.60801 -4.440018,-4.26838 z m 13.653888,0.66177 c -0.230331,0.0485 -0.456538,0.19267 -0.701056,0.43014 l -4.540168,3.97058 c 1.704909,1.44574 3.261015,4.61544 5.040922,5.06249 1.166738,-1.73672 5.459895,-3.32625 4.640315,-5.16175 -1.52389,-0.83757 -2.827709,-4.6411 -4.440013,-4.30146 z m -48.306051,4.40072 c -0.230331,0.0485 -0.489919,0.19268 -0.734439,0.43015 l -4.540168,3.97058 c 1.704911,1.44574 3.294383,4.58234 5.074305,5.0294 1.16673,-1.73672 5.45989,-3.32627 4.640319,-5.16176 -1.5239,-0.83757 -2.827704,-4.60801 -4.440017,-4.26837 z m 13.653887,0.66177 c -0.230331,0.0485 -0.489917,0.19267 -0.734439,0.43014 l -4.540168,3.97058 c 1.704912,1.44573 3.294396,4.61544 5.074305,5.06249 1.166731,-1.73673 5.459882,-3.32628 4.640319,-5.16176 -1.523899,-0.83756 -2.827703,-4.64109 -4.440017,-4.30145 z m 13.653887,0.69485 c -0.230331,0.0485 -0.456533,0.19267 -0.701055,0.43014 l -4.540168,3.97058 c 1.704905,1.44574 3.261011,4.58237 5.040922,5.0294 1.166736,-1.73671 5.459894,-3.32625 4.640318,-5.16175 -1.523889,-0.83756 -2.827705,-4.60801 -4.440017,-4.26837 z m 13.653887,0.66176 c -0.230329,0.0485 -0.456534,0.19267 -0.701055,0.43015 l -4.540168,3.97057 c 1.70491,1.44573 3.261007,4.61545 5.040922,5.06249 1.16673,-1.73673 5.459896,-3.32625 4.640319,-5.16175 -1.5239,-0.83757 -2.827712,-4.6411 -4.440018,-4.30146 z m -48.306051,4.40072 c -0.23033,0.0485 -0.456534,0.19268 -0.701055,0.43015 l -4.573551,3.97058 c 1.704914,1.44573 3.294382,4.58235 5.074305,5.0294 1.16673,-1.73672 5.459888,-3.32626 4.640318,-5.16175 -1.523899,-0.83757 -2.827704,-4.60801 -4.440017,-4.26838 z m 13.653888,0.66177 c -0.230331,0.0485 -0.456534,0.19267 -0.701056,0.43014 l -4.540168,3.97058 c 1.704912,1.44575 3.261013,4.61545 5.040922,5.06249 1.16673,-1.73672 5.459883,-3.32627 4.640319,-5.16175 -1.5239,-0.83757 -2.827703,-4.6411 -4.440017,-4.30146 z m 13.653887,0.69485 c -0.230331,0.0485 -0.456534,0.19267 -0.701055,0.43014 l -4.540168,3.97058 c 1.704906,1.44574 3.261013,4.58236 5.040921,5.0294 1.166738,-1.73672 5.459896,-3.32625 4.640319,-5.16175 -1.523889,-0.83756 -2.827703,-4.60801 -4.440017,-4.26837 z m 13.653887,0.66176 c -0.230329,0.0485 -0.456536,0.19267 -0.701055,0.43015 l -4.540168,3.97058 c 1.704905,1.44573 3.29439,4.61544 5.074305,5.06248 1.16673,-1.73672 5.426512,-3.32625 4.606935,-5.16175 -1.5239,-0.83757 -2.827712,-4.6411 -4.440017,-4.30146 z m -34.652164,5.06249 c -0.23033,0.0485 -0.456533,0.19267 -0.701055,0.43014 l -4.540168,3.97058 c 1.704914,1.44574 3.261012,4.61545 5.040922,5.06249 1.166729,-1.73673 5.459882,-3.32627 4.640319,-5.16175 -1.5239,-0.83757 -2.827703,-4.6411 -4.440018,-4.30146 z m 13.587121,0.5625 -12.518846,10.95218 c 1.704907,1.44573 3.294395,4.58236 5.074305,5.0294 L 66.96512,187.21527 c -1.704905,-1.44573 -3.29439,-4.58236 -5.074305,-5.0294 z m 13.754038,0.79411 c -0.23033,0.0485 -0.489919,0.19268 -0.734439,0.43015 l -4.540168,3.97058 c 1.704905,1.44572 3.294389,4.61544 5.074305,5.06248 1.16673,-1.73672 5.426512,-3.32625 4.606935,-5.16175 -1.5239,-0.83757 -2.794328,-4.6411 -4.406633,-4.30146 z m -7.34439,6.4191 c -0.230329,0.0485 -0.489918,0.19268 -0.734439,0.43015 l -4.540168,3.97058 c 1.704906,1.44573 3.294391,4.61544 5.074306,5.06249 1.166731,-1.73672 5.459896,-3.32626 4.640318,-5.16176 -1.523899,-0.83757 -2.827711,-4.6411 -4.440017,-4.30146 z m 13.653888,0.69486 c -0.230331,0.0485 -0.456535,0.19267 -0.701056,0.43014 l -4.540168,3.97058 c 1.704914,1.44574 3.261013,4.58237 5.040922,5.0294 1.166738,-1.73671 5.459876,-3.32629 4.640319,-5.16175 -1.523912,-0.83758 -2.827706,-4.608 -4.440017,-4.26837 z m -20.998277,5.72425 c -0.23033,0.0485 -0.456535,0.19267 -0.701055,0.43014 l -4.540168,3.97058 c 1.704907,1.44573 3.261005,4.61545 5.040922,5.06249 1.16673,-1.73672 5.459894,-3.32626 4.640318,-5.16175 -1.523899,-0.83757 -2.82771,-4.6411 -4.440017,-4.30146 z m 13.58712,0.56249 -12.518845,10.95218 c 1.704913,1.44574 3.294395,4.58237 5.074305,5.0294 l 12.518845,-10.95218 c -1.704912,-1.44574 -3.294383,-4.58235 -5.074305,-5.0294 z"
         style="fill:#696969;fill-opacity:1;stroke:none"
         inkscape:connector-curvature="0" />
      <g
         style="fill:#adff2f"
         transform="matrix(1.024276,-0.0568484,0.05702265,1.0211461,-5.904942,5.9364675)"
         id="g3919">
        <g
           style="fill:#adff2f"
           id="g3816"
           transform="matrix(0.53947268,0.0510724,-0.0510724,0.53947268,74.286196,17.917658)">
          <path
             d="m 164.62685,52.621447 c 1.44046,1.635212 1.25293,4.159588 -0.41886,5.638345 -1.6718,1.478766 -4.19478,1.351926 -5.63524,-0.283288 -1.4405,-1.635229 -1.25298,-4.159602 0.41882,-5.638367 1.67179,-1.478757 4.19479,-1.351922 5.63528,0.28331 z"
             id="path6807"
             style="fill:#adff2f;fill-opacity:1;fill-rule:nonzero;stroke:none;stroke-width:1.63532031;marker:none;visibility:visible;display:inline;overflow:visible;enable-background:new"
             inkscape:connector-curvature="0" />
          <path
             d="m 162.89723,52.800648 c 0.76726,0.870983 0.4725,2.387942 -0.65838,3.388238 -1.13088,1.000296 -2.66959,1.105124 -3.43685,0.234141 -0.76726,-0.870978 -0.47247,-2.387941 0.65839,-3.388239 1.13087,-1.000295 2.6696,-1.105118 3.43684,-0.23414 z"
             id="path6809"
             style="fill:#adff2f;fill-opacity:1;fill-rule:nonzero;stroke:none;stroke-width:0.82687408;marker:none;visibility:visible;display:inline;overflow:visible;enable-background:new"
             inkscape:connector-curvature="0" />
          <path
             inkscape:connector-curvature="0"
             id="path3806"
             d="m 161.90963,51.29592 c -1.01978,-0.05127 -2.0896,0.29426 -2.92549,1.033639 -1.04487,0.924228 -1.50552,2.259869 -1.35571,3.528628 0.0994,-0.983024 0.54906,-1.924056 1.35571,-2.637561 1.67178,-1.478757 4.19643,-1.35009 5.63692,0.285142 0.53206,0.603993 0.8682,1.318163 0.96327,2.067277 0.0958,-1.042733 -0.22649,-2.121954 -0.96327,-2.958345 -0.72025,-0.817615 -1.69165,-1.267511 -2.71143,-1.31878 z"
             style="opacity:0.7;fill:#adff2f;fill-opacity:1;fill-rule:nonzero;stroke:none;stroke-width:1.63532031;marker:none;visibility:visible;display:inline;overflow:visible;enable-background:new" />
          <path
             inkscape:connector-curvature="0"
             id="path3811"
             d="m 157.69978,54.575049 c -0.24325,1.178177 0.0133,2.429133 0.85624,3.386057 1.44046,1.635215 3.96513,1.763908 5.63692,0.285142 0.94038,-0.831801 1.41585,-1.987426 1.39139,-3.136558 -0.17081,0.839253 -0.58778,1.629341 -1.28436,2.24549 -1.67179,1.478766 -4.19646,1.350073 -5.63692,-0.285141 -0.63021,-0.715413 -0.94424,-1.601218 -0.96327,-2.49499 z"
             style="opacity:0.7;fill:#adff2f;fill-opacity:1;fill-rule:nonzero;stroke:none;stroke-width:1.63532031;marker:none;visibility:visible;display:inline;overflow:visible;enable-background:new" />
        </g>
        <g
           style="fill:#adff2f"
           transform="matrix(0.53947268,0.0510724,-0.0510724,0.53947268,81.059386,12.700343)"
           id="g3843">
          <path
             inkscape:connector-curvature="0"
             style="fill:#adff2f;fill-opacity:1;fill-rule:nonzero;stroke:none;stroke-width:1.63532031;marker:none;visibility:visible;display:inline;overflow:visible;enable-background:new"
             id="path3845"
             d="m 164.62685,52.621447 c 1.44046,1.635212 1.25293,4.159588 -0.41886,5.638345 -1.6718,1.478766 -4.19478,1.351926 -5.63524,-0.283288 -1.4405,-1.635229 -1.25298,-4.159602 0.41882,-5.638367 1.67179,-1.478757 4.19479,-1.351922 5.63528,0.28331 z" />
          <path
             inkscape:connector-curvature="0"
             style="fill:#adff2f;fill-opacity:1;fill-rule:nonzero;stroke:none;stroke-width:0.82687408;marker:none;visibility:visible;display:inline;overflow:visible;enable-background:new"
             id="path3847"
             d="m 162.89723,52.800648 c 0.76726,0.870983 0.4725,2.387942 -0.65838,3.388238 -1.13088,1.000296 -2.66959,1.105124 -3.43685,0.234141 -0.76726,-0.870978 -0.47247,-2.387941 0.65839,-3.388239 1.13087,-1.000295 2.6696,-1.105118 3.43684,-0.23414 z" />
          <path
             style="opacity:0.7;fill:#adff2f;fill-opacity:1;fill-rule:nonzero;stroke:none;stroke-width:1.63532031;marker:none;visibility:visible;display:inline;overflow:visible;enable-background:new"
             d="m 161.90963,51.29592 c -1.01978,-0.05127 -2.0896,0.29426 -2.92549,1.033639 -1.04487,0.924228 -1.50552,2.259869 -1.35571,3.528628 0.0994,-0.983024 0.54906,-1.924056 1.35571,-2.637561 1.67178,-1.478757 4.19643,-1.35009 5.63692,0.285142 0.53206,0.603993 0.8682,1.318163 0.96327,2.067277 0.0958,-1.042733 -0.22649,-2.121954 -0.96327,-2.958345 -0.72025,-0.817615 -1.69165,-1.267511 -2.71143,-1.31878 z"
             id="path3849"
             inkscape:connector-curvature="0" />
          <path
             style="opacity:0.7;fill:#adff2f;fill-opacity:1;fill-rule:nonzero;stroke:none;stroke-width:1.63532031;marker:none;visibility:visible;display:inline;overflow:visible;enable-background:new"
             d="m 157.69978,54.575049 c -0.24325,1.178177 0.0133,2.429133 0.85624,3.386057 1.44046,1.635215 3.96513,1.763908 5.63692,0.285142 0.94038,-0.831801 1.41585,-1.987426 1.39139,-3.136558 -0.17081,0.839253 -0.58778,1.629341 -1.28436,2.24549 -1.67179,1.478766 -4.19646,1.350073 -5.63692,-0.285141 -0.63021,-0.715413 -0.94424,-1.601218 -0.96327,-2.49499 z"
             id="path3851"
             inkscape:connector-curvature="0" />
        </g>
        <g
           style="fill:#adff2f"
           id="g3855"
           transform="matrix(0.53947268,0.0510724,-0.0510724,0.53947268,87.47006,8.0903078)">
          <path
             d="m 164.62685,52.621447 c 1.44046,1.635212 1.25293,4.159588 -0.41886,5.638345 -1.6718,1.478766 -4.19478,1.351926 -5.63524,-0.283288 -1.4405,-1.635229 -1.25298,-4.159602 0.41882,-5.638367 1.67179,-1.478757 4.19479,-1.351922 5.63528,0.28331 z"
             id="path3857"
             style="fill:#adff2f;fill-opacity:1;fill-rule:nonzero;stroke:none;stroke-width:1.63532031;marker:none;visibility:visible;display:inline;overflow:visible;enable-background:new"
             inkscape:connector-curvature="0" />
          <path
             d="m 162.89723,52.800648 c 0.76726,0.870983 0.4725,2.387942 -0.65838,3.388238 -1.13088,1.000296 -2.66959,1.105124 -3.43685,0.234141 -0.76726,-0.870978 -0.47247,-2.387941 0.65839,-3.388239 1.13087,-1.000295 2.6696,-1.105118 3.43684,-0.23414 z"
             id="path3859"
             style="fill:#adff2f;fill-opacity:1;fill-rule:nonzero;stroke:none;stroke-width:0.82687408;marker:none;visibility:visible;display:inline;overflow:visible;enable-background:new"
             inkscape:connector-curvature="0" />
          <path
             inkscape:connector-curvature="0"
             id="path3861"
             d="m 161.90963,51.29592 c -1.01978,-0.05127 -2.0896,0.29426 -2.92549,1.033639 -1.04487,0.924228 -1.50552,2.259869 -1.35571,3.528628 0.0994,-0.983024 0.54906,-1.924056 1.35571,-2.637561 1.67178,-1.478757 4.19643,-1.35009 5.63692,0.285142 0.53206,0.603993 0.8682,1.318163 0.96327,2.067277 0.0958,-1.042733 -0.22649,-2.121954 -0.96327,-2.958345 -0.72025,-0.817615 -1.69165,-1.267511 -2.71143,-1.31878 z"
             style="opacity:0.7;fill:#adff2f;fill-opacity:1;fill-rule:nonzero;stroke:none;stroke-width:1.63532031;marker:none;visibility:visible;display:inline;overflow:visible;enable-background:new" />
          <path
             inkscape:connector-curvature="0"
             id="path3863"
             d="m 157.69978,54.575049 c -0.24325,1.178177 0.0133,2.429133 0.85624,3.386057 1.44046,1.635215 3.96513,1.763908 5.63692,0.285142 0.94038,-0.831801 1.41585,-1.987426 1.39139,-3.136558 -0.17081,0.839253 -0.58778,1.629341 -1.28436,2.24549 -1.67179,1.478766 -4.19646,1.350073 -5.63692,-0.285141 -0.63021,-0.715413 -0.94424,-1.601218 -0.96327,-2.49499 z"
             style="opacity:0.7;fill:#adff2f;fill-opacity:1;fill-rule:nonzero;stroke:none;stroke-width:1.63532031;marker:none;visibility:visible;display:inline;overflow:visible;enable-background:new" />
        </g>
      </g>
    </g>
  </g>
</svg>
