<?xml version="1.0" encoding="UTF-8" standalone="no"?>
<!-- Created with Inkscape (http://www.inkscape.org/) -->

<svg
   xmlns:dc="http://purl.org/dc/elements/1.1/"
   xmlns:cc="http://creativecommons.org/ns#"
   xmlns:rdf="http://www.w3.org/1999/02/22-rdf-syntax-ns#"
   xmlns:svg="http://www.w3.org/2000/svg"
   xmlns="http://www.w3.org/2000/svg"
   xmlns:sodipodi="http://sodipodi.sourceforge.net/DTD/sodipodi-0.dtd"
   xmlns:inkscape="http://www.inkscape.org/namespaces/inkscape"
   width="48"
   height="48"
   id="svg2"
   version="1.1"
   inkscape:version="0.48.5 r10040"
   sodipodi:docname="thunderbird.svg">
  <defs
     id="defs4">
    <clipPath
       id="clipPath-542331766">
      <g
         transform="translate(0,-1004.3622)"
         id="g17">
        <path
           style="fill:#1890d0"
           inkscape:connector-curvature="0"
           d="m -24,13 c 0,1.105 -0.672,2 -1.5,2 -0.828,0 -1.5,-0.895 -1.5,-2 0,-1.105 0.672,-2 1.5,-2 0.828,0 1.5,0.895 1.5,2 z"
           transform="matrix(15.333333,0,0,11.5,414.99999,878.8622)"
           id="path19" />
      </g>
    </clipPath>
  </defs>
  <sodipodi:namedview
     id="base"
     pagecolor="#ffffff"
     bordercolor="#666666"
     borderopacity="1.0"
     inkscape:pageopacity="0.0"
     inkscape:pageshadow="2"
     inkscape:zoom="4.0912548"
     inkscape:cx="10.383868"
     inkscape:cy="44.476087"
     inkscape:document-units="px"
     inkscape:current-layer="layer1"
     showgrid="false"
     inkscape:window-width="1920"
     inkscape:window-height="1025"
     inkscape:window-x="-4"
     inkscape:window-y="39"
     inkscape:window-maximized="1"
     inkscape:showpageshadow="false"
     borderlayer="true">
    <sodipodi:guide
       position="9,39.000017"
       orientation="30,0"
       id="guide3297" />
    <sodipodi:guide
       position="9,9.0000174"
       orientation="0,30"
       id="guide3299" />
    <sodipodi:guide
       position="39,9.0000174"
       orientation="-30,0"
       id="guide3301" />
    <sodipodi:guide
       position="39,39.000017"
       orientation="0,-30"
       id="guide3303" />
    <sodipodi:guide
       position="31.999996,39.0002"
       orientation="7,0"
       id="guide3347" />
    <sodipodi:guide
       position="31.999996,32.0002"
       orientation="0,7.0000038"
       id="guide3349" />
    <sodipodi:guide
       position="39,32.0002"
       orientation="-7,0"
       id="guide3351" />
    <sodipodi:guide
       position="39,39.0002"
       orientation="0,-7.0000038"
       id="guide3353" />
  </sodipodi:namedview>
  <metadata
     id="metadata7">
    <rdf:RDF>
      <cc:Work
         rdf:about="">
        <dc:format>image/svg+xml</dc:format>
        <dc:type
           rdf:resource="http://purl.org/dc/dcmitype/StillImage" />
        <dc:title />
      </cc:Work>
    </rdf:RDF>
  </metadata>
  <g
     inkscape:label="Capa 1"
     inkscape:groupmode="layer"
     id="layer1"
     transform="translate(0,-1004.3622)">
    <g
       transform="matrix(1.6663195,0,0,1.6663194,-15.985836,991.70734)"
       id="g53">
      <g
         clip-path="url(#clipPath-542331766)"
         id="g55">
        <!-- color: #375678 -->
        <g
           id="g57">
          <path
             style="fill:#2f70aa;fill-opacity:1;fill-rule:nonzero;stroke:none"
             inkscape:connector-curvature="0"
             d="m 13.777,34 20.445,0 c 1.777,0 1.777,0 1.777,-1.715 l 0,-14.57 -12,-7.711 -12,7.711 0,14.57 c 0,1.715 0,1.715 1.781,1.715 m 0,0"
             id="path59" />
          <path
             style="fill:#f9f9f9;fill-opacity:1;fill-rule:nonzero;stroke:none"
             inkscape:connector-curvature="0"
             d="m 14,12 0,20 19.996,0 0,-20 M 14,12"
             id="path61" />
          <path
             style="fill:#448ecf;fill-opacity:1;fill-rule:nonzero;stroke:none"
             inkscape:connector-curvature="0"
             d="m 13.777,34 20.445,0 c 1.777,0 1.777,0 1.777,-1.68 l 0,-14.316 -24,14.316 c 0,1.68 0,1.68 1.781,1.68 m -0.004,0"
             id="path63" />
          <path
             style="fill:#62abeb;fill-opacity:1;fill-rule:nonzero;stroke:none"
             inkscape:connector-curvature="0"
             d="m 34.22,34 -20.445,0 c -1.781,0 -1.781,0 -1.781,-1.68 l 0,-14.316 24,14.316 c 0,1.68 0,1.68 -1.77,1.68 m 0.004,0"
             id="path65" />
        </g>
      </g>
    </g>
  </g>
</svg>
