<?xml version="1.0" encoding="UTF-8" standalone="no"?>
<!-- Created using Karbon, part of Calligra: http://www.calligra.org/karbon -->

<svg
   xmlns:dc="http://purl.org/dc/elements/1.1/"
   xmlns:cc="http://creativecommons.org/ns#"
   xmlns:rdf="http://www.w3.org/1999/02/22-rdf-syntax-ns#"
   xmlns:svg="http://www.w3.org/2000/svg"
   xmlns="http://www.w3.org/2000/svg"
   xmlns:xlink="http://www.w3.org/1999/xlink"
   xmlns:sodipodi="http://sodipodi.sourceforge.net/DTD/sodipodi-0.dtd"
   xmlns:inkscape="http://www.inkscape.org/namespaces/inkscape"
   width="38.4pt"
   height="38.4pt"
   id="svg2"
   version="1.1"
   inkscape:version="0.48.5 r10040"
   sodipodi:docname="tracker.svg">
  <metadata
     id="metadata11">
    <rdf:RDF>
      <cc:Work
         rdf:about="">
        <dc:format>image/svg+xml</dc:format>
        <dc:type
           rdf:resource="http://purl.org/dc/dcmitype/StillImage" />
        <dc:title />
      </cc:Work>
    </rdf:RDF>
  </metadata>
  <sodipodi:namedview
     pagecolor="#ffffff"
     bordercolor="#666666"
     borderopacity="1"
     objecttolerance="10"
     gridtolerance="10"
     guidetolerance="10"
     inkscape:pageopacity="0"
     inkscape:pageshadow="2"
     inkscape:window-width="1920"
     inkscape:window-height="1035"
     id="namedview9"
     showgrid="false"
     inkscape:showpageshadow="false"
     borderlayer="true"
     inkscape:zoom="6.9532164"
     inkscape:cx="24.297858"
     inkscape:cy="24.178715"
     inkscape:window-x="-4"
     inkscape:window-y="29"
     inkscape:window-maximized="1"
     inkscape:current-layer="svg2">
    <sodipodi:guide
       position="9.5367432e-07,48.000001"
       orientation="47.999999,0"
       id="guide4067" />
    <sodipodi:guide
       position="9.5367432e-07,1.9073486e-06"
       orientation="0,47.999999"
       id="guide4069" />
    <sodipodi:guide
       position="48,1.9073486e-06"
       orientation="-47.999999,0"
       id="guide4071" />
    <sodipodi:guide
       position="48,48.000001"
       orientation="0,-47.999999"
       id="guide4073" />
    <sodipodi:guide
       position="4.000001,44.000001"
       orientation="39.999999,0"
       id="guide4133" />
    <sodipodi:guide
       position="4.000001,4.0000019"
       orientation="0,39.999999"
       id="guide4135" />
    <sodipodi:guide
       position="44,4.0000019"
       orientation="-39.999999,0"
       id="guide4137" />
    <sodipodi:guide
       position="44,44.000001"
       orientation="0,-39.999999"
       id="guide4139" />
  </sodipodi:namedview>
  <defs
     id="defs4">
    <linearGradient
       inkscape:collect="always"
       xlink:href="#linearGradient3553-2"
       id="linearGradient15959"
       gradientUnits="userSpaceOnUse"
       gradientTransform="matrix(2.9766373,0,0,2.9764793,77.032528,58.106847)"
       x1="40.113346"
       y1="2.60251"
       x2="40.113346"
       y2="75.039833" />
    <linearGradient
       id="linearGradient3553-2">
      <stop
         id="stop3555-2"
         style="stop-color:#5496b4;stop-opacity:0.19847329"
         offset="0" />
      <stop
         id="stop3557-6"
         style="stop-color:#dfecf2;stop-opacity:0"
         offset="1" />
    </linearGradient>
    <linearGradient
       inkscape:collect="always"
       xlink:href="#linearGradient3192-0-1"
       id="linearGradient15961"
       gradientUnits="userSpaceOnUse"
       gradientTransform="matrix(2.9766373,0,0,2.9764793,77.032528,58.106847)"
       x1="12.75"
       y1="11.75"
       x2="63.25"
       y2="64" />
    <linearGradient
       id="linearGradient3192-0-1">
      <stop
         id="stop3194-6"
         style="stop-color:#404040;stop-opacity:1"
         offset="0" />
      <stop
         id="stop3200-1-3"
         style="stop-color:#b7b7b7;stop-opacity:1"
         offset="0.5" />
      <stop
         id="stop3196-5-6"
         style="stop-color:#404040;stop-opacity:1"
         offset="1" />
    </linearGradient>
    <filter
       color-interpolation-filters="sRGB"
       id="filter3274-9">
      <feGaussianBlur
         id="feGaussianBlur3276-4"
         stdDeviation="1.9857422" />
    </filter>
  </defs>
  <g
     id="g15946"
     transform="matrix(0.08,0,0,0.08,3.4400005,3.6000009)">
    <g
       transform="matrix(1.0869565,0,0,1.0869565,-100.6087,-8.0434795)"
       id="svg_11">
      <rect
         style="fill:#ffffff;stroke:#aaaaaa;stroke-width:0"
         x="223.67999"
         y="193.95769"
         width="225.40039"
         height="195.04233"
         id="svg_6" />
      <path
         style="fill:#ffffff;stroke:#aaaaaa;stroke-width:0"
         inkscape:connector-curvature="0"
         d="m 178.59599,215.074 c 0,0 156.27401,-108.026 156.35002,-109.797 0.075,-1.772 151.03299,106.49599 151.03299,106.49599 0,0 -307.38302,3.30101 -307.38302,3.30101 l 0,0 0,0 0,0 1e-5,0 z"
         id="svg_8" />
    </g>
    <ellipse
       transform="matrix(1.0869565,0,0,1.0869565,-100.6087,-8.0434795)"
       d="M 559,242 C 559,369.02549 456.02549,472 329,472 201.97451,472 99,369.02549 99,242 99,114.97451 201.97451,12 329,12 456.02549,12 559,114.97451 559,242 z"
       style="fill:#aa7755;fill-opacity:1;stroke:#aaaaaa;stroke-width:0;stroke-opacity:1"
       sodipodi:ry="230"
       sodipodi:rx="230"
       sodipodi:cy="242"
       sodipodi:cx="329"
       cx="329"
       cy="242"
       rx="230"
       ry="230"
       id="svg_3" />
    <path
       style="fill:#5a4545;fill-opacity:1;fill-rule:evenodd;stroke:none"
       id="path4063"
       d="m 199.83438,91.823638 c -4.61659,0.17298 -8.96235,2.87513 -13.05841,6.61864 -4.09607,3.743522 -7.84754,8.623112 -10.55406,14.131712 -2.70653,5.5086 -4.45302,11.6524 -4.29318,17.53047 0.15982,5.87807 2.28305,11.63879 7.15529,15.92053 2.78383,2.44643 5.76702,3.89403 8.76524,4.11429 2.99822,0.22027 5.91074,-0.71343 8.40747,-2.32547 4.99346,-3.22409 8.82257,-9.13029 11.62735,-15.74165 2.80478,-6.61135 4.47715,-13.99679 4.65094,-20.75035 0.17379,-6.75356 -0.93299,-13.075992 -5.18759,-16.814942 -2.0939,-1.84012 -4.87574,-2.78206 -7.51305,-2.68323 z m -60.99888,8.586352 c -4.59588,0.494 -8.2388,3.58433 -11.09071,7.51306 -2.8519,3.92873 -4.90481,8.94798 -6.43976,13.95282 -1.53495,5.00484 -2.50453,10.00234 -2.68324,14.31059 -0.0894,2.15412 0.0275,4.17192 0.35777,5.90311 0.33035,1.7312 0.82958,3.39231 2.14659,4.65095 2.45274,2.34404 5.24499,3.50998 8.0497,3.57764 2.80472,0.0677 5.4298,-1.0029 7.69194,-2.68323 4.52429,-3.36068 8.06027,-9.11079 10.55406,-15.38388 2.49379,-6.2731 3.86301,-13.1087 3.57765,-18.96153 -0.14271,-2.92642 -0.67721,-5.5826 -1.96771,-7.87082 -1.29049,-2.28823 -3.50736,-4.06213 -6.26088,-4.65095 -1.27865,-0.27344 -2.65835,-0.49503 -3.93541,-0.35776 z m 111.08593,35.59759 c -9.47779,1.06722 -20.21504,7.81268 -27.19011,16.27829 -3.48754,4.2328 -6.0646,8.97205 -6.61865,13.95282 -0.55405,4.98077 1.16703,10.20454 5.54535,14.31059 5.3877,5.05266 12.08216,5.90198 18.06712,3.93541 5.98495,-1.96657 11.52487,-6.4833 15.92053,-11.80624 4.39565,-5.32293 7.65675,-11.57728 9.12299,-17.53046 1.46625,-5.95319 1.08263,-12.05333 -3.041,-15.92053 -3.07869,-2.88725 -7.43293,-3.71233 -11.80623,-3.21988 z m -82.10699,26.65346 c -6.67409,-0.40172 -13.24328,2.26726 -22.53918,3.21989 -8.95722,0.91792 -14.59735,0.39794 -19.14041,0.71553 -4.54305,0.31758 -8.33998,2.17539 -11.26958,6.79752 -6.1755,9.74328 -5.5234,21.6183 -0.71553,32.73547 4.80787,11.11717 13.7288,21.70455 24.14911,30.41 10.42031,8.70545 22.34166,15.45512 33.98765,18.06712 11.64599,2.61199 23.17649,0.97523 31.30441,-7.1553 3.9038,-3.90506 4.7626,-8.18463 4.11429,-12.87953 -0.64832,-4.69489 -2.17645,-10.14939 -3.041,-18.96152 -0.92942,-9.47283 0.56212,-16.4704 -0.89441,-22.89694 -0.72827,-3.21328 -2.36023,-6.26476 -5.36647,-8.76524 -2.80493,-2.33304 -6.93533,-4.25623 -12.34288,-6.082 -2.85177,-5.10616 -5.51898,-8.85758 -8.40747,-11.26958 -3.07875,-2.57089 -6.49471,-3.73414 -9.83853,-3.93542 z m 88.18899,34.70318 c -4.14715,-0.3197 -8.57912,1.16464 -12.87953,3.57764 -4.30041,2.413 -8.48417,5.92664 -11.80623,9.83853 -3.32206,3.9119 -5.72761,8.22593 -6.43977,12.87953 -0.71215,4.6536 0.57894,9.71685 4.65094,13.41618 1.43423,1.30295 3.22231,1.6345 5.00871,1.60994 1.7864,-0.0246 3.70637,-0.41822 5.72423,-1.0733 4.03572,-1.31017 8.54571,-3.65868 12.70065,-6.79753 4.15494,-3.13884 7.95215,-7.14082 10.37518,-11.62735 2.42302,-4.48653 3.49134,-9.69812 1.60994,-14.84723 -1.47568,-4.03872 -5.03047,-6.67469 -8.94412,-6.97641 z"
       inkscape:connector-curvature="0" />
    <path
       style="fill:#5a4545;fill-opacity:1;fill-rule:evenodd;stroke:none"
       id="path4168"
       d="m 397.25311,86.97803 c -3.21038,-0.73257 -6.70088,0.32613 -10.21157,2.14785 -3.5107,1.82172 -6.99373,4.4892 -9.87337,7.78251 -2.87964,3.29331 -5.21548,7.20105 -6.18982,11.27752 -0.97435,4.07647 -0.57527,8.43435 1.98932,12.28111 1.46531,2.1979 3.25215,3.7449 5.27576,4.44966 2.0236,0.70476 4.20109,0.59922 6.21745,-0.05 4.03272,-1.29856 7.75859,-4.65852 10.90932,-8.69294 3.15072,-4.03441 5.66459,-8.81068 7.03014,-13.42837 1.36555,-4.61769 1.76991,-9.17479 -0.46958,-12.5339 -1.10216,-1.65319 -2.84366,-2.8149 -4.67765,-3.23339 z m -43.58104,-5.34146 c -3.25535,-0.50774 -6.33356,0.94787 -9.02183,3.12664 -2.68828,2.17877 -5.02764,5.25574 -7.00773,8.41835 -1.98008,3.16261 -3.56957,6.42446 -4.48739,9.35767 -0.45891,1.46661 -0.75072,2.87739 -0.84269,4.13023 -0.0919,1.25286 -0.0546,2.48861 0.6199,3.59813 1.25625,2.06633 2.96359,3.38418 4.88212,3.94818 1.91854,0.56399 3.92337,0.3112 5.79082,-0.42837 3.7349,-1.47915 7.23016,-4.78572 10.10437,-8.64462 2.8742,-3.8589 5.07793,-8.31254 5.96119,-12.39479 0.44161,-2.04113 0.56362,-3.96848 0.0973,-5.78197 -0.46635,-1.81349 -1.6654,-3.44377 -3.45254,-4.35713 -0.82989,-0.42415 -1.73892,-0.83124 -2.64348,-0.97232 z m 69.91436,45.00166 c -6.72223,-1.01369 -15.35911,1.64968 -21.72311,6.19139 -3.18199,2.27085 -5.83056,5.05836 -7.13088,8.38535 -1.3003,3.32699 -1.07904,7.241 1.1779,10.87568 2.77726,4.47263 7.22963,6.29236 11.713,6.04251 4.48337,-0.24985 9.13078,-2.33757 13.13912,-5.19144 4.00833,-2.85387 7.40736,-6.55831 9.5151,-10.38652 2.10774,-3.82821 2.96897,-8.09885 0.84332,-11.5221 -1.587,-2.5558 -4.43264,-3.92713 -7.53445,-4.39487 z m -61.44676,3.20351 c -4.52093,-1.50782 -9.53611,-0.88214 -16.11197,-1.94117 -6.33629,-1.02045 -10.12353,-2.41894 -13.30996,-3.03839 -3.18643,-0.61945 -6.1433,-0.0408 -9.01299,2.60101 -6.0492,5.56887 -7.79094,13.865 -6.53167,22.406 1.25927,8.541 5.44807,17.47602 11.01635,25.39196 5.56829,7.91594 12.53082,14.76226 20.06709,18.70905 7.53627,3.94678 15.77684,4.94703 22.87274,0.84869 3.40813,-1.96841 4.7889,-4.75642 5.20866,-8.1084 0.41975,-3.35198 0.3739,-7.38925 1.40433,-13.6158 1.10765,-6.69339 3.42547,-11.23598 3.60823,-15.92928 0.0914,-2.34666 -0.46927,-4.74863 -2.07774,-7.02477 -1.50076,-2.12373 -3.9897,-4.2098 -7.37593,-6.46441 -1.02143,-4.04162 -2.16571,-7.11648 -3.70943,-9.30999 -1.64541,-2.33799 -3.78266,-3.76905 -6.04771,-4.5245 z m 54.31507,40.16185 c -2.79628,-0.98518 -6.12147,-0.78083 -9.52741,0.0872 -3.40593,0.86798 -6.9346,2.51526 -9.94347,4.5957 -3.00887,2.08045 -5.46091,4.60683 -6.80972,7.6794 -1.3488,3.07258 -1.39397,6.79675 0.72711,10.09489 0.74707,1.16166 1.91699,1.71979 3.15143,2.03244 1.23446,0.3126 2.62895,0.39581 4.13907,0.31705 3.02025,-0.15753 6.55858,-0.94245 9.99826,-2.337 3.43969,-1.39456 6.79231,-3.44937 9.28821,-6.09129 2.49589,-2.64193 4.19286,-6.03296 3.84744,-9.92515 -0.27092,-3.05285 -2.23207,-5.52347 -4.87092,-6.45319 z"
       inkscape:connector-curvature="0" />
    <path
       style="fill:#a9a9a9;fill-opacity:1;fill-rule:evenodd;stroke:#404141;stroke-width:5.7242341px;stroke-linecap:butt;stroke-linejoin:miter;stroke-opacity:1;display:inline"
       id="path3310"
       inkscape:connector-curvature="0"
       d="m 213.36478,277.32824 c 0,0 44.65296,-21.41996 74.07656,8.00207 l 17.5509,-17.03381 c -29.72206,-29.72049 -8.26058,-74.3307 -8.26058,-74.33069 -6.53239,19.28452 -8.91599,31.62727 -30.19791,52.90805 -21.41081,21.40967 -53.16897,30.45438 -53.16897,30.45438 z" />
    <path
       style="fill:url(#linearGradient15959);fill-opacity:1;stroke:url(#linearGradient15961);stroke-width:11.44847012;stroke-linecap:butt;stroke-linejoin:miter;stroke-miterlimit:4;stroke-opacity:1;stroke-dasharray:none;display:inline"
       id="path2420"
       d="m 298.04785,170.46894 a 107.9031,107.89737 0 0 1 -215.806207,0 107.9031,107.89737 0 1 1 215.806207,0 z"
       inkscape:connector-curvature="0" />
    <path
       style="opacity:0.4;fill:#b0cedd;fill-opacity:1;stroke:none;display:inline;filter:url(#filter3274-9)"
       id="path3261"
       transform="matrix(2.9973084,0,0,2.9971496,76.617586,56.957778)"
       inkscape:connector-curvature="0"
       d="m 56.375449,13.756925 c 5.137338,5.453482 8.3125,12.861855 8.3125,21.03125 -2e-6,16.735097 -13.280226,30.34375 -29.625,30.34375 -6.317804,0 -12.159384,-2.043738 -16.96875,-5.5 5.380898,5.665106 12.897015,9.1875 21.21875,9.1875 16.344774,0 29.625001,-13.577403 29.625,-30.3125 0,-10.231102 -4.973959,-19.25883 -12.5625,-24.75 z" />
    <rect
       style="fill:#646464;fill-opacity:1;stroke:#646464;stroke-width:5.72423458;stroke-linecap:butt;stroke-linejoin:miter;stroke-miterlimit:4;stroke-opacity:1;stroke-dasharray:none;display:inline"
       id="rect3361"
       transform="matrix(0.70712558,-0.70708798,0.70712558,0.70708798,0,0)"
       y="405.37378"
       x="-8.0080557"
       ry="5.8400207"
       rx="5.8400207"
       height="207.32074"
       width="43.800156" />
    <path
       style="fill:#5a4545;fill-opacity:1;fill-rule:evenodd;stroke:none"
       id="path4168-9"
       d="m 162.37144,324.68224 c -3.21038,-0.73257 -6.70088,0.32613 -10.21157,2.14785 -3.5107,1.82172 -6.99373,4.4892 -9.87337,7.78251 -2.87964,3.29331 -5.21548,7.20105 -6.18982,11.27752 -0.97435,4.07647 -0.57527,8.43435 1.98932,12.28111 1.46531,2.1979 3.25215,3.7449 5.27576,4.44966 2.0236,0.70476 4.20109,0.59922 6.21745,-0.05 4.03272,-1.29856 7.75859,-4.65852 10.90932,-8.69294 3.15072,-4.03441 5.66459,-8.81068 7.03014,-13.42837 1.36555,-4.61769 1.76991,-9.17479 -0.46958,-12.5339 -1.10216,-1.65319 -2.84366,-2.8149 -4.67765,-3.23339 z m -43.58104,-5.34146 c -3.25535,-0.50774 -6.33356,0.94787 -9.02183,3.12664 -2.68828,2.17877 -5.02764,5.25574 -7.00773,8.41835 -1.98008,3.16261 -3.569571,6.42446 -4.487391,9.35767 -0.45891,1.46661 -0.75072,2.87739 -0.84269,4.13023 -0.0919,1.25286 -0.0546,2.48861 0.6199,3.59813 1.25625,2.06633 2.963591,3.38418 4.882121,3.94818 1.91854,0.56399 3.92337,0.3112 5.79082,-0.42837 3.7349,-1.47915 7.23016,-4.78572 10.10437,-8.64462 2.8742,-3.8589 5.07793,-8.31254 5.96119,-12.39479 0.44161,-2.04113 0.56362,-3.96848 0.0973,-5.78197 -0.46635,-1.81349 -1.6654,-3.44377 -3.45254,-4.35713 -0.82989,-0.42415 -1.73892,-0.83124 -2.64348,-0.97232 z m 69.91436,45.00166 c -6.72223,-1.01369 -15.35911,1.64968 -21.72311,6.19139 -3.18199,2.27085 -5.83056,5.05836 -7.13088,8.38535 -1.3003,3.32699 -1.07904,7.241 1.1779,10.87568 2.77726,4.47263 7.22963,6.29236 11.713,6.04251 4.48337,-0.24985 9.13078,-2.33757 13.13912,-5.19144 4.00833,-2.85387 7.40736,-6.55831 9.5151,-10.38652 2.10774,-3.82821 2.96897,-8.09885 0.84332,-11.5221 -1.587,-2.5558 -4.43264,-3.92713 -7.53445,-4.39487 z m -61.44676,3.20351 c -4.52093,-1.50782 -9.53611,-0.88214 -16.11197,-1.94117 -6.33629,-1.02045 -10.12353,-2.41894 -13.309961,-3.03839 -3.18643,-0.61945 -6.1433,-0.0408 -9.01299,2.60101 -6.0492,5.56887 -7.79094,13.865 -6.53167,22.406 1.25927,8.541 5.44807,17.47602 11.01635,25.39196 5.56829,7.91594 12.530821,14.76226 20.067091,18.70905 7.53627,3.94678 15.77684,4.94703 22.87274,0.84869 3.40813,-1.96841 4.7889,-4.75642 5.20866,-8.1084 0.41975,-3.35198 0.3739,-7.38925 1.40433,-13.6158 1.10765,-6.69339 3.42547,-11.23598 3.60823,-15.92928 0.0914,-2.34666 -0.46927,-4.74863 -2.07774,-7.02477 -1.50076,-2.12373 -3.9897,-4.2098 -7.37593,-6.46441 -1.02143,-4.04162 -2.16571,-7.11648 -3.70943,-9.30999 -1.64541,-2.33799 -3.78266,-3.76905 -6.04771,-4.5245 z m 54.31507,40.16185 c -2.79628,-0.98518 -6.12147,-0.78083 -9.52741,0.0872 -3.40593,0.86798 -6.9346,2.51526 -9.94347,4.5957 -3.00887,2.08045 -5.46091,4.60683 -6.80972,7.6794 -1.3488,3.07258 -1.39397,6.79675 0.72711,10.09489 0.74707,1.16166 1.91699,1.71979 3.15143,2.03244 1.23446,0.3126 2.62895,0.39581 4.13907,0.31705 3.02025,-0.15753 6.55858,-0.94245 9.99826,-2.337 3.43969,-1.39456 6.79231,-3.44937 9.28821,-6.09129 2.49589,-2.64193 4.19286,-6.03296 3.84744,-9.92515 -0.27092,-3.05285 -2.23207,-5.52347 -4.87092,-6.45319 z"
       inkscape:connector-curvature="0" />
  </g>
</svg>
