<?xml version="1.0" encoding="UTF-8" standalone="no"?>
<!-- Created using Karbon, part of Calligra: http://www.calligra.org/karbon -->

<svg
   xmlns:dc="http://purl.org/dc/elements/1.1/"
   xmlns:cc="http://creativecommons.org/ns#"
   xmlns:rdf="http://www.w3.org/1999/02/22-rdf-syntax-ns#"
   xmlns:svg="http://www.w3.org/2000/svg"
   xmlns="http://www.w3.org/2000/svg"
   xmlns:sodipodi="http://sodipodi.sourceforge.net/DTD/sodipodi-0.dtd"
   xmlns:inkscape="http://www.inkscape.org/namespaces/inkscape"
   width="38.4pt"
   height="38.4pt"
   id="svg2"
   version="1.1"
   inkscape:version="0.48.5 r10040"
   sodipodi:docname="twitter.svg">
  <metadata
     id="metadata17">
    <rdf:RDF>
      <cc:Work
         rdf:about="">
        <dc:format>image/svg+xml</dc:format>
        <dc:type
           rdf:resource="http://purl.org/dc/dcmitype/StillImage" />
      </cc:Work>
    </rdf:RDF>
  </metadata>
  <sodipodi:namedview
     pagecolor="#ffffff"
     bordercolor="#666666"
     borderopacity="1"
     objecttolerance="10"
     gridtolerance="10"
     guidetolerance="10"
     inkscape:pageopacity="0"
     inkscape:pageshadow="2"
     inkscape:window-width="1920"
     inkscape:window-height="1025"
     id="namedview15"
     showgrid="false"
     inkscape:zoom="4.9166667"
     inkscape:cx="-5.6949153"
     inkscape:cy="24"
     inkscape:window-x="-4"
     inkscape:window-y="39"
     inkscape:window-maximized="1"
     inkscape:current-layer="svg2" />
  <defs
     id="defs4">
    <clipPath
       id="clipPath-983183359">
      <g
         transform="translate(0,-1004.3622)"
         id="g17">
        <path
           style="fill:#1890d0"
           inkscape:connector-curvature="0"
           d="m -24,13 c 0,1.105 -0.672,2 -1.5,2 -0.828,0 -1.5,-0.895 -1.5,-2 0,-1.105 0.672,-2 1.5,-2 0.828,0 1.5,0.895 1.5,2 z"
           transform="matrix(15.333333,0,0,11.5,414.99999,878.8622)"
           id="path19" />
      </g>
    </clipPath>
  </defs>
  <path
     style="fill:#00abec;fill-rule:evenodd"
     inkscape:connector-curvature="0"
     id="path4"
     d="M 43.99937,24.0005 C 43.99937,35.04636 35.04474,44 23.99969,44 12.95372,44 4,35.04545 4,24.0005 4,12.95464 12.95463,4.001 23.99969,4.001 c 11.04596,0 19.99968,8.95455 19.99968,19.9995" />
  <path
     style="fill-opacity:0.23500001"
     inkscape:connector-curvature="0"
     id="path6"
     d="m 28.78627,14.56263 c -0.0656,-3.6e-4 -0.13147,10e-4 -0.19698,0.003 -0.52425,0.013 -1.03781,0.0914 -1.41898,0.22841 -2.07197,0.77183 -3.38021,2.75826 -3.23156,4.93363 l 0.0485,0.84229 -0.82776,-0.10562 c -2.82079,-0.36911 -5.30828,-1.56232 -7.44895,-3.55176 -0.0108,-0.0111 -0.0798,-0.0798 -0.0799,-0.0799 -0.0502,-0.0511 -0.18227,-0.18227 -0.18273,-0.18273 -0.049,-0.0499 -0.17944,-0.17944 -0.1799,-0.17989 -0.014,-0.0143 -0.0911,-0.0911 -0.0914,-0.0914 -0.0503,-0.0513 -0.18227,-0.18227 -0.18273,-0.18273 -0.0502,-0.0511 -0.18227,-0.18227 -0.18273,-0.18272 -0.0133,-0.0136 -0.0885,-0.0914 -0.0885,-0.0914 -0.0501,-0.051 -0.18273,-0.18273 -0.18273,-0.18273 -0.0138,-0.014 -0.0914,-0.0914 -0.0914,-0.0914 l -0.0914,-0.0914 -0.1799,-0.17989 -0.28268,0.82228 c -0.59743,1.83183 -0.2148,3.77148 1.02785,5.07342 0.66194,0.71756 0.51374,0.82026 -0.63096,0.39113 -0.39671,-0.13559 -0.74599,-0.2402 -0.77943,-0.18849 -0.11476,0.12088 0.28122,1.67899 0.5967,2.29597 0.21507,0.42913 0.5428,0.85425 0.93649,1.23341 0.0301,0.0302 0.0605,0.0617 0.0914,0.0914 0.0301,0.0302 0.0605,0.0617 0.0914,0.0914 0.0301,0.0302 0.0605,0.0617 0.0914,0.0914 0.012,0.0126 0.025,0.0246 0.0371,0.0371 0.0174,0.0173 0.0337,0.0343 0.0514,0.0514 9.1e-4,10e-4 0.002,0.002 0.003,0.003 0.0116,0.0122 0.0225,0.0249 0.0343,0.0371 0.0179,0.0177 0.036,0.0339 0.0543,0.0514 0.0121,0.0129 0.0248,0.0243 0.0371,0.0371 0.0182,0.018 0.0357,0.0365 0.0543,0.0543 0.0121,0.0129 0.0248,0.0243 0.0371,0.0371 0.018,0.0178 0.0359,0.0366 0.0543,0.0543 0.0301,0.0302 0.0605,0.0617 0.0914,0.0914 0.0301,0.0302 0.0605,0.0617 0.0914,0.0914 0.012,0.0126 0.025,0.0246 0.0371,0.0371 0.0296,0.0293 0.0581,0.0598 0.0885,0.0885 4.6e-4,5.4e-4 -4.6e-4,0.002 0,0.003 0.0179,0.0177 0.036,0.0339 0.0543,0.0514 l 0.003,0.003 c 0.0116,0.0122 0.0225,0.0249 0.0343,0.0371 0.0177,0.0175 0.0362,0.034 0.0543,0.0514 0.0122,0.0129 0.0248,0.0243 0.0371,0.0371 0.0182,0.018 0.0357,0.0365 0.0543,0.0543 0.0301,0.0302 0.0605,0.0617 0.0914,0.0914 0.0301,0.0302 0.0605,0.0617 0.0914,0.0914 l -0.1799,0.009 c -0.92963,0 -0.96024,0.0168 -0.8623,0.37688 0.15094,0.50643 0.50543,1.0251 0.98217,1.49042 0.0299,0.0306 0.0604,0.0612 0.0914,0.0914 0.0253,0.0259 0.051,0.0514 0.0771,0.0771 0.0391,0.0405 0.0789,0.0802 0.11996,0.11996 0.0155,0.0158 0.0327,0.03 0.0485,0.0457 0.0385,0.04 0.0768,0.0807 0.11704,0.11996 0.0299,0.0306 0.0604,0.0612 0.0914,0.0914 0.0299,0.0306 0.0604,0.0612 0.0914,0.0914 0.0253,0.026 0.051,0.0514 0.0771,0.0771 0.0391,0.0405 0.0789,0.0802 0.11996,0.11996 0.0155,0.0158 0.0327,0.03 0.0485,0.0457 0.0385,0.04 0.0768,0.0807 0.11704,0.11996 0.0299,0.0306 0.0604,0.0612 0.0914,0.0914 0.0299,0.0306 0.0604,0.0612 0.0914,0.0914 0.0253,0.0259 0.051,0.0514 0.0771,0.0771 0.0391,0.0405 0.0789,0.0802 0.11996,0.11996 0.0155,0.0158 0.0327,0.03 0.0485,0.0457 0.0385,0.04 0.0768,0.0807 0.11704,0.11996 0.0299,0.0306 0.0604,0.0612 0.0914,0.0914 0.0299,0.0306 0.0604,0.0612 0.0914,0.0914 0.0299,0.0306 0.0604,0.0612 0.0914,0.0914 0.0304,0.0312 0.0627,0.0606 0.0942,0.0914 0.0203,0.0207 0.0392,0.0423 0.0599,0.0629 0.0364,0.0378 0.0734,0.0742 0.11137,0.11137 0.0302,0.0312 0.0599,0.0635 0.0914,0.0942 0.0196,0.0202 0.0398,0.0399 0.0599,0.0599 -1.3225,0.78261 -2.87424,1.22188 -4.4257,1.25624 -0.74562,0.0171 -1.36188,0.0881 -1.36188,0.13988 0,0.0216 0.0349,0.0556 0.0942,0.1 0.008,0.022 0.0387,0.0552 0.0914,0.0942 0.009,0.0221 0.0426,0.0533 0.0942,0.0914 0.0108,0.0216 0.0401,0.0526 0.0885,0.0885 0.009,0.0217 0.0406,0.0508 0.0914,0.0885 0.007,0.0218 0.0384,0.052 0.0914,0.0914 0.007,0.0216 0.037,0.0529 0.0885,0.0914 0.008,0.0216 0.0403,0.0533 0.0914,0.0914 0.008,0.0222 0.0406,0.0546 0.0942,0.0942 0.0108,0.0216 0.0401,0.0526 0.0885,0.0885 0.009,0.0217 0.0406,0.0508 0.0914,0.0885 0.007,0.0218 0.0384,0.052 0.0914,0.0914 0.007,0.0217 0.0365,0.0525 0.0885,0.0914 0.008,0.0216 0.0403,0.0533 0.0914,0.0914 0.008,0.022 0.0387,0.0552 0.0914,0.0942 0.009,0.0218 0.0407,0.051 0.0914,0.0885 0.009,0.0217 0.0406,0.0508 0.0914,0.0885 0.007,0.0218 0.0384,0.052 0.0914,0.0914 0.007,0.0216 0.0366,0.0525 0.0885,0.0914 0.008,0.0216 0.0403,0.0533 0.0914,0.0914 0.008,0.022 0.0387,0.0552 0.0914,0.0942 0.009,0.0221 0.0426,0.0533 0.0942,0.0914 0.0108,0.0216 0.0401,0.0526 0.0885,0.0885 0.009,0.0217 0.0406,0.0508 0.0914,0.0885 0.007,0.0217 0.0365,0.0525 0.0885,0.0914 0.007,0.0216 0.0394,0.0525 0.0914,0.0914 0.008,0.0216 0.0403,0.0533 0.0914,0.0914 0.008,0.0222 0.0406,0.0546 0.0942,0.0942 0.0108,0.0216 0.0401,0.0526 0.0885,0.0885 0.009,0.0217 0.0406,0.0508 0.0914,0.0885 0.007,0.0218 0.0384,0.052 0.0914,0.0914 0.007,0.0217 0.037,0.0529 0.0885,0.0914 0.008,0.0216 0.0403,0.0533 0.0914,0.0914 0.008,0.0222 0.0406,0.0546 0.0942,0.0942 0.0108,0.0216 0.0401,0.0526 0.0885,0.0885 0.009,0.0217 0.0406,0.0508 0.0914,0.0885 0.007,0.0218 0.0384,0.052 0.0914,0.0914 0.007,0.0216 0.0366,0.0525 0.0885,0.0914 0.008,0.0216 0.0403,0.0533 0.0914,0.0914 0.008,0.022 0.0387,0.0552 0.0914,0.0942 0.009,0.0221 0.0426,0.0533 0.0942,0.0914 0.0107,0.0215 0.0407,0.0502 0.0885,0.0857 0.007,0.0218 0.0384,0.052 0.0914,0.0914 0.007,0.0217 0.0365,0.0525 0.0885,0.0914 0.007,0.0216 0.0393,0.0525 0.0914,0.0914 0.008,0.0216 0.0403,0.0533 0.0914,0.0914 0.008,0.0222 0.0406,0.0546 0.0942,0.0942 0.0108,0.0216 0.0401,0.0526 0.0885,0.0885 0.009,0.0217 0.0406,0.0508 0.0914,0.0885 0.007,0.0218 0.0384,0.052 0.0914,0.0914 0.007,0.0216 0.037,0.0529 0.0885,0.0914 0.008,0.0216 0.0403,0.0533 0.0914,0.0914 0.008,0.0222 0.0406,0.0546 0.0942,0.0942 0.0108,0.0216 0.0401,0.0526 0.0885,0.0885 0.009,0.0217 0.0406,0.0508 0.0914,0.0885 0.007,0.0218 0.0384,0.052 0.0914,0.0914 0.007,0.0217 0.0365,0.0525 0.0885,0.0914 0.008,0.0216 0.0403,0.0533 0.0914,0.0914 0.008,0.022 0.0387,0.0552 0.0914,0.0942 0.009,0.0218 0.0407,0.051 0.0914,0.0885 0.009,0.0217 0.0406,0.0508 0.0914,0.0885 0.007,0.0218 0.0384,0.052 0.0914,0.0914 0.007,0.0217 0.0365,0.0525 0.0885,0.0914 0.008,0.0216 0.0403,0.0533 0.0914,0.0914 0.008,0.022 0.0387,0.0552 0.0914,0.0942 0.009,0.0221 0.0426,0.0533 0.0942,0.0914 0.0108,0.0216 0.0401,0.0526 0.0885,0.0885 0.009,0.0217 0.0406,0.0508 0.0914,0.0885 0.007,0.0217 0.0365,0.0525 0.0885,0.0914 0.007,0.0216 0.0394,0.0525 0.0914,0.0914 0.008,0.0217 0.0403,0.0533 0.0914,0.0914 0.008,0.0222 0.0406,0.0546 0.0942,0.0942 0.0108,0.0216 0.0401,0.0526 0.0885,0.0885 0.009,0.0217 0.0406,0.0508 0.0914,0.0885 0.007,0.0219 0.0384,0.052 0.0914,0.0914 0.007,0.0217 0.037,0.0529 0.0885,0.0914 0.008,0.0216 0.0403,0.0533 0.0914,0.0914 0.008,0.0222 0.0406,0.0546 0.0942,0.0942 0.0108,0.0216 0.0401,0.0526 0.0885,0.0885 0.009,0.0217 0.0406,0.0508 0.0914,0.0885 0.007,0.0219 0.0384,0.052 0.0914,0.0914 0.007,0.0216 0.0365,0.0525 0.0885,0.0914 0.008,0.0217 0.0403,0.0533 0.0914,0.0914 0.008,0.022 0.0387,0.0552 0.0914,0.0942 0.009,0.0221 0.0426,0.0533 0.0942,0.0914 0.0107,0.0215 0.0407,0.0502 0.0885,0.0857 0.007,0.0219 0.0384,0.052 0.0914,0.0914 0.007,0.0217 0.0365,0.0525 0.0885,0.0914 0.007,0.0216 0.0394,0.0525 0.0914,0.0914 0.008,0.0217 0.0403,0.0533 0.0914,0.0914 0.008,0.0222 0.0406,0.0546 0.0942,0.0942 0.0108,0.0216 0.0401,0.0526 0.0885,0.0885 0.009,0.0217 0.0406,0.0508 0.0914,0.0885 0.007,0.0219 0.0384,0.052 0.0914,0.0914 0.007,0.0216 0.037,0.0529 0.0885,0.0914 0.008,0.0216 0.0403,0.0533 0.0914,0.0914 0.008,0.0222 0.0406,0.0546 0.0942,0.0942 0.0108,0.0216 0.0401,0.0526 0.0885,0.0885 0.009,0.0217 0.0406,0.0508 0.0914,0.0885 0.007,0.0219 0.0384,0.052 0.0914,0.0914 0.007,0.0216 0.0365,0.0525 0.0885,0.0914 0.008,0.0217 0.0403,0.0533 0.0914,0.0914 0.008,0.022 0.0386,0.0552 0.0914,0.0942 0.009,0.0218 0.0407,0.051 0.0914,0.0885 0.009,0.0217 0.0406,0.0508 0.0914,0.0885 0.007,0.0219 0.0384,0.052 0.0914,0.0914 0.007,0.0216 0.0365,0.0525 0.0885,0.0914 0.008,0.0216 0.0403,0.0533 0.0914,0.0914 0.008,0.022 0.0387,0.0552 0.0914,0.0942 0.009,0.0221 0.0426,0.0533 0.0942,0.0914 0.0108,0.0216 0.0401,0.0526 0.0885,0.0885 0.009,0.0217 0.0406,0.0508 0.0914,0.0885 0.007,0.0216 0.0365,0.0525 0.0885,0.0914 0.007,0.0216 0.0394,0.0525 0.0914,0.0914 0.008,0.0217 0.0403,0.0533 0.0914,0.0914 0.008,0.0222 0.0406,0.0546 0.0942,0.0942 0.0108,0.0216 0.0401,0.0526 0.0885,0.0885 0.009,0.0217 0.0406,0.0508 0.0914,0.0885 0.007,0.0219 0.0384,0.052 0.0914,0.0914 0.007,0.0217 0.037,0.0529 0.0885,0.0914 0.008,0.0217 0.0403,0.0533 0.0914,0.0914 0.008,0.0222 0.0406,0.0546 0.0942,0.0942 0.0108,0.0216 0.0401,0.0526 0.0885,0.0885 0.009,0.0217 0.0406,0.0508 0.0914,0.0885 0.007,0.0219 0.0384,0.052 0.0914,0.0914 0.007,0.0216 0.0365,0.0525 0.0885,0.0914 0.008,0.0217 0.0403,0.0533 0.0914,0.0914 0.008,0.022 0.0387,0.0552 0.0914,0.0942 0.009,0.0221 0.0426,0.0533 0.0942,0.0914 0.0108,0.0216 0.0401,0.0526 0.0885,0.0885 0.009,0.0218 0.0406,0.0508 0.0914,0.0885 0.007,0.0217 0.0365,0.0525 0.0885,0.0914 0.007,0.0217 0.0394,0.0525 0.0914,0.0914 10.63118,-0.46696 19.10706,-9.23046 19.10706,-19.97757 0,-0.0381 1.8e-4,-0.0761 0,-0.1142 -0.006,10e-4 -0.0108,10e-4 -0.0172,0.003 0.008,-0.0332 0.0143,-0.0643 0.0143,-0.0885 0,-0.0205 -0.0409,-0.0209 -0.10562,-0.003 0.008,-0.0333 0.0143,-0.0643 0.0143,-0.0885 0,-0.0205 -0.041,-0.0209 -0.10562,-0.003 0.008,-0.0334 0.0143,-0.0642 0.0143,-0.0885 0,-0.0205 -0.0409,-0.0181 -0.10562,0 0.009,-0.0346 0.0143,-0.0663 0.0143,-0.0914 0,-0.0205 -0.0409,-0.0181 -0.10562,0 0.009,-0.0346 0.0143,-0.0663 0.0143,-0.0914 0,-0.0207 -0.0397,-0.0186 -0.10562,0 0.009,-0.0346 0.0143,-0.0635 0.0143,-0.0885 0,-0.0205 -0.0381,-0.0209 -0.10278,-0.003 0.008,-0.0333 0.0142,-0.0643 0.0142,-0.0885 0,-0.0205 -0.0409,-0.0209 -0.10562,-0.003 0.008,-0.0332 0.0143,-0.0643 0.0143,-0.0885 0,-0.0205 -0.0409,-0.0209 -0.10562,-0.003 0.008,-0.0333 0.0143,-0.0643 0.0143,-0.0885 0,-0.0202 -0.0396,-0.0203 -0.10278,-0.003 0.008,-0.0333 0.0114,-0.0643 0.0114,-0.0885 0,-0.0205 -0.0409,-0.0181 -0.10562,0 0.009,-0.0346 0.0143,-0.0663 0.0143,-0.0914 0,-0.0205 -0.0409,-0.0181 -0.10561,0 0.009,-0.0346 0.0143,-0.0663 0.0143,-0.0914 0,-0.0205 -0.0381,-0.0181 -0.10279,0 0.008,-0.0332 0.0143,-0.0643 0.0143,-0.0885 0,-0.0205 -0.0409,-0.0209 -0.10562,-0.003 0.008,-0.0333 0.0143,-0.0643 0.0143,-0.0885 0,-0.0205 -0.0409,-0.0209 -0.10562,-0.003 0.008,-0.0332 0.0143,-0.0643 0.0143,-0.0885 0,-0.0205 -0.041,-0.0209 -0.10562,-0.003 0.008,-0.0334 0.0143,-0.0642 0.0143,-0.0885 0,-0.0205 -0.0409,-0.0181 -0.10561,0 0.009,-0.0346 0.0142,-0.0663 0.0142,-0.0914 0,-0.0205 -0.0409,-0.0181 -0.10562,0 0.009,-0.0346 0.0143,-0.0663 0.0143,-0.0914 0,-0.0207 -0.0397,-0.0186 -0.10561,0 0.008,-0.0343 0.0172,-0.0638 0.0172,-0.0885 0,-0.0205 -0.0409,-0.0209 -0.10561,-0.003 0.008,-0.0332 0.0143,-0.0643 0.0143,-0.0885 0,-0.0205 -0.0409,-0.0209 -0.10562,-0.003 0.008,-0.0333 0.0143,-0.0643 0.0143,-0.0885 0,-0.0205 -0.041,-0.0209 -0.10561,-0.003 0.008,-0.0334 0.0143,-0.0642 0.0143,-0.0885 0,-0.0205 -0.0409,-0.0181 -0.10562,0 0.009,-0.0346 0.0143,-0.0663 0.0143,-0.0914 0,-0.0205 -0.0409,-0.0181 -0.10561,0 0.009,-0.0346 0.0143,-0.0663 0.0143,-0.0914 0,-0.0207 -0.0397,-0.0186 -0.10562,0 0.008,-0.0343 0.0143,-0.0638 0.0143,-0.0885 0,-0.0205 -0.0381,-0.0209 -0.10279,-0.003 0.008,-0.0333 0.0142,-0.0643 0.0142,-0.0885 0,-0.0205 -0.0409,-0.0209 -0.10561,-0.003 0.008,-0.0332 0.0143,-0.0643 0.0143,-0.0885 0,-0.0205 -0.0409,-0.0209 -0.10562,-0.003 0.008,-0.0334 0.0143,-0.0642 0.0143,-0.0885 0,-0.0203 -0.0396,-0.0203 -0.10278,-0.003 0.008,-0.0333 0.0114,-0.0643 0.0114,-0.0885 0,-0.0205 -0.0409,-0.0181 -0.10562,0 0.009,-0.0346 0.0143,-0.0663 0.0143,-0.0914 0,-0.0207 -0.0397,-0.0186 -0.10562,0 0.009,-0.0346 0.0143,-0.0635 0.0143,-0.0885 v -0.003 c 0,-0.0205 -0.0381,-0.0181 -0.10278,0 0.008,-0.0332 0.0143,-0.0643 0.0143,-0.0885 0,-0.0205 -0.0409,-0.0209 -0.10562,-0.003 0.008,-0.0333 0.0143,-0.0643 0.0143,-0.0885 0,-0.0206 -0.0409,-0.0209 -0.10561,-0.003 0.008,-0.0333 0.0143,-0.0643 0.0143,-0.0885 0,-0.0203 -0.0396,-0.0203 -0.10278,-0.003 0.008,-0.0333 0.0114,-0.0643 0.0114,-0.0885 0,-0.0206 -0.0409,-0.0181 -0.10562,0 0.009,-0.0346 0.0143,-0.0663 0.0143,-0.0914 0,-0.0206 -0.0409,-0.0181 -0.10562,0 0.009,-0.0346 0.0143,-0.0663 0.0143,-0.0914 0,-0.0206 -0.0381,-0.0181 -0.10279,0 0.008,-0.0333 0.0142,-0.0643 0.0142,-0.0885 0,-0.0206 -0.0409,-0.0209 -0.10561,-0.003 0.008,-0.0333 0.0143,-0.0643 0.0143,-0.0885 0,-0.0206 -0.0409,-0.0209 -0.10562,-0.003 0.008,-0.0333 0.0143,-0.0643 0.0143,-0.0885 0,-0.0205 -0.041,-0.0209 -0.10562,-0.003 0.008,-0.0334 0.0142,-0.0642 0.0142,-0.0885 0,-0.0206 -0.0409,-0.0181 -0.10562,0 0.009,-0.0346 0.0143,-0.0663 0.0143,-0.0914 0,-0.0206 -0.0409,-0.0181 -0.10562,0 0.009,-0.0346 0.0143,-0.0663 0.0143,-0.0914 0,-0.0207 -0.0397,-0.0186 -0.10562,0 0.008,-0.0343 0.0172,-0.0638 0.0172,-0.0885 0,-0.0205 -0.0409,-0.0209 -0.10562,-0.003 0.008,-0.0333 0.0143,-0.0643 0.0143,-0.0885 0,-0.0206 -0.0409,-0.0209 -0.10562,-0.003 0.008,-0.0333 0.0143,-0.0643 0.0143,-0.0885 0,-0.0205 -0.041,-0.0209 -0.10562,-0.003 0.008,-0.0334 0.0143,-0.0642 0.0143,-0.0885 0,-0.0206 -0.0409,-0.0181 -0.10562,0 0.009,-0.0346 0.0142,-0.0663 0.0142,-0.0914 0,-0.0206 -0.0409,-0.0181 -0.10561,0 0.009,-0.0346 0.0143,-0.0663 0.0143,-0.0914 0,-0.0207 -0.0397,-0.0186 -0.10562,0 0.008,-0.0343 0.0143,-0.0638 0.0143,-0.0885 0,-0.0206 -0.0381,-0.0209 -0.10278,-0.003 0.008,-0.0333 0.0143,-0.0643 0.0143,-0.0885 0,-0.0205 -0.0409,-0.0209 -0.10562,-0.003 0.008,-0.0333 0.0143,-0.0643 0.0143,-0.0885 0,-0.0206 -0.0409,-0.0209 -0.10562,-0.003 0.008,-0.0333 0.0143,-0.0643 0.0143,-0.0885 0,-0.0203 -0.0396,-0.0203 -0.10278,-0.003 0.008,-0.0332 0.0114,-0.0643 0.0114,-0.0885 0,-0.0206 -0.0409,-0.0181 -0.10562,0 0.009,-0.0346 0.0143,-0.0663 0.0143,-0.0914 0,-0.0207 -0.0397,-0.0186 -0.10561,0 0.009,-0.0346 0.0143,-0.0663 0.0143,-0.0914 0,-0.0206 -0.0381,-0.0181 -0.10279,0 0.008,-0.0333 0.0143,-0.0643 0.0143,-0.0885 0,-0.0206 -0.0409,-0.0209 -0.10562,-0.003 0.008,-0.0333 0.0143,-0.0643 0.0143,-0.0885 0,-0.0206 -0.0409,-0.0209 -0.10561,-0.003 0.008,-0.0333 0.0143,-0.0643 0.0143,-0.0885 0,-0.0205 -0.041,-0.0209 -0.10562,-0.003 0.008,-0.0334 0.0142,-0.0642 0.0142,-0.0885 0,-0.0206 -0.0409,-0.0181 -0.10561,0 0.009,-0.0346 0.0143,-0.0663 0.0143,-0.0914 0,-0.0206 -0.0409,-0.0181 -0.10562,0 0.009,-0.0346 0.0143,-0.0663 0.0143,-0.0914 0,-0.0207 -0.0397,-0.0186 -0.10562,0 0.008,-0.0343 0.0172,-0.0638 0.0172,-0.0885 0,-0.0205 -0.0409,-0.0209 -0.10561,-0.003 0.008,-0.0333 0.0143,-0.0643 0.0143,-0.0885 0,-0.0206 -0.0409,-0.0209 -0.10562,-0.003 0.008,-0.0333 0.0143,-0.0643 0.0143,-0.0885 0,-0.0205 -0.041,-0.0209 -0.10562,-0.003 0.008,-0.0334 0.0143,-0.0642 0.0143,-0.0885 0,-0.0206 -0.0409,-0.0181 -0.10562,0 0.009,-0.0346 0.0143,-0.0663 0.0143,-0.0914 0,-0.0206 -0.0409,-0.0181 -0.10562,0 0.009,-0.0346 0.0143,-0.0663 0.0143,-0.0914 0,-0.0207 -0.0397,-0.0186 -0.10562,0 0.008,-0.0343 0.0143,-0.0638 0.0143,-0.0885 0,-0.0206 -0.0381,-0.0209 -0.10279,-0.003 0.008,-0.0333 0.0143,-0.0643 0.0143,-0.0885 0,-0.0206 -0.0409,-0.0209 -0.10562,-0.003 0.008,-0.0333 0.0143,-0.0643 0.0143,-0.0885 0,-0.0206 -0.0409,-0.0209 -0.10562,-0.003 0.008,-0.0334 0.0143,-0.0642 0.0143,-0.0885 0,-0.0203 -0.0396,-0.0203 -0.10279,-0.003 0.008,-0.0332 0.0114,-0.0643 0.0114,-0.0885 0,-0.0205 -0.0409,-0.0181 -0.10562,0 0.009,-0.0346 0.0143,-0.0663 0.0143,-0.0914 0,-0.0207 -0.0397,-0.0186 -0.10562,0 0.009,-0.0346 0.0142,-0.0635 0.0142,-0.0885 0,-0.0206 -0.0381,-0.0209 -0.10278,-0.003 0.008,-0.0333 0.0143,-0.0643 0.0143,-0.0885 0,-0.0206 -0.0409,-0.0209 -0.10562,-0.003 0.008,-0.0333 0.0143,-0.0643 0.0143,-0.0885 0,-0.0206 -0.0409,-0.0209 -0.10562,-0.003 0.008,-0.0332 0.0143,-0.0643 0.0143,-0.0885 0,-0.0203 -0.0396,-0.0203 -0.10278,-0.003 0.008,-0.0333 0.0114,-0.0643 0.0114,-0.0885 0,-0.0206 -0.0409,-0.0181 -0.10562,0 0.009,-0.0346 0.0143,-0.0663 0.0143,-0.0914 0,-0.0206 -0.0409,-0.0181 -0.10561,0 0.009,-0.0346 0.0143,-0.0663 0.0143,-0.0914 0,-0.0206 -0.0381,-0.0181 -0.10279,0 0.008,-0.0333 0.0143,-0.0643 0.0143,-0.0885 0,-0.0206 -0.0409,-0.0209 -0.10562,-0.003 0.008,-0.0333 0.0143,-0.0643 0.0143,-0.0885 0,-0.0206 -0.0409,-0.0209 -0.10562,-0.003 0.008,-0.0333 0.0143,-0.0643 0.0143,-0.0885 0,-0.0205 -0.041,-0.0209 -0.10562,-0.003 0.008,-0.0334 0.0143,-0.0642 0.0143,-0.0885 0,-0.0205 -0.0409,-0.0181 -0.10561,0 0.009,-0.0346 0.0143,-0.0663 0.0143,-0.0914 0,-0.0206 -0.0409,-0.0181 -0.10562,0 0.009,-0.0346 0.0143,-0.0663 0.0143,-0.0914 0,-0.0207 -0.0397,-0.0186 -0.10561,0 0.008,-0.0343 0.0172,-0.0638 0.0172,-0.0885 0,-0.0206 -0.0409,-0.0209 -0.10561,-0.003 0.008,-0.0333 0.0143,-0.0643 0.0143,-0.0885 0,-0.0206 -0.0409,-0.0209 -0.10562,-0.003 0.008,-0.0333 0.0143,-0.0643 0.0143,-0.0885 0,-0.0205 -0.041,-0.0209 -0.10561,-0.003 0.008,-0.0334 0.0143,-0.0642 0.0143,-0.0885 0,-0.0206 -0.0409,-0.0181 -0.10562,0 0.009,-0.0346 0.0143,-0.0663 0.0143,-0.0914 0,-0.0206 -0.0409,-0.0181 -0.10561,0 0.009,-0.0346 0.0143,-0.0663 0.0143,-0.0914 0,-0.0207 -0.0397,-0.0186 -0.10562,0 0.008,-0.0343 0.0143,-0.0638 0.0143,-0.0885 0,-0.0206 -0.0381,-0.0209 -0.10279,-0.003 0.008,-0.0333 0.0143,-0.0643 0.0143,-0.0885 0,-0.0205 -0.0409,-0.0209 -0.10561,-0.003 0.008,-0.0333 0.0142,-0.0643 0.0142,-0.0885 0,-0.0206 -0.0409,-0.0209 -0.10562,-0.003 0.008,-0.0333 0.0143,-0.0643 0.0143,-0.0885 0,-0.0203 -0.0396,-0.0203 -0.10278,-0.003 0.008,-0.0333 0.0114,-0.0643 0.0114,-0.0885 0,-0.0518 -0.24906,0.0331 -0.5311,0.18848 -0.29876,0.17012 -0.95905,0.42959 -1.45617,0.58244 L 32.29919,16.04038 31.4855,15.47502 C 31.03864,15.16677 30.41005,14.82196 30.07794,14.71844 29.70782,14.61383 29.252,14.56111 28.79335,14.55855" />
  <path
     style="fill:#ffffff"
     inkscape:connector-curvature="0"
     id="path66"
     d="m 27.17003,14.79287 c -2.07196,0.77184 -3.3814,2.75918 -3.23339,4.93455 l 0.0503,0.84092 -0.82958,-0.10361 c -3.01595,-0.3946 -5.65181,-1.73116 -7.88841,-3.97524 l -1.09455,-1.11464 -0.28195,0.82411 c -0.59743,1.83184 -0.21507,3.77057 1.02757,5.07251 0.66194,0.71756 0.51384,0.82117 -0.63087,0.39213 -0.3967,-0.13558 -0.74562,-0.23919 -0.77906,-0.18738 -0.11476,0.12087 0.28195,1.67935 0.59743,2.29597 0.43014,0.85817 1.30962,1.69661 2.27022,2.19455 l 0.81251,0.39213 -0.9607,0.0172 c -0.92963,0 -0.9607,0.0172 -0.86266,0.37734 0.3322,1.11463 1.64173,2.29597 3.09954,2.81125 l 1.02757,0.36007 -0.89372,0.54746 c -1.32634,0.7891 -2.88447,1.23303 -4.4426,1.26748 -0.74563,0.0171 -1.35978,0.0863 -1.35978,0.13814 0,0.17012 2.0219,1.12944 3.19959,1.50677 3.52968,1.11464 7.72395,0.63379 10.87328,-1.26749 2.23679,-1.35383 4.47604,-4.04466 5.52025,-6.64853 0.56399,-1.38837 1.12798,-3.92343 1.12798,-5.14194 0,-0.78664 0.0478,-0.89025 0.97742,-1.83184 0.54727,-0.54746 1.06101,-1.14917 1.15905,-1.31929 0.16729,-0.32554 0.15057,-0.32554 -0.69538,-0.0345 -1.40993,0.51291 -1.60829,0.44631 -0.91054,-0.32553 0.51384,-0.54745 1.12561,-1.54121 1.12561,-1.83184 0,-0.0518 -0.24851,0.0321 -0.53055,0.18739 -0.29876,0.17012 -0.9607,0.42913 -1.45772,0.58198 l -0.89619,0.291 -0.81251,-0.56473 c -0.44686,-0.30825 -1.07536,-0.65105 -1.40756,-0.75466 -0.84594,-0.23919 -2.13884,-0.20465 -2.90119,0.0691" />
</svg>
