<?xml version="1.0" encoding="UTF-8" standalone="no"?>
<!-- Created with Inkscape (http://www.inkscape.org/) -->

<svg
   xmlns:dc="http://purl.org/dc/elements/1.1/"
   xmlns:cc="http://creativecommons.org/ns#"
   xmlns:rdf="http://www.w3.org/1999/02/22-rdf-syntax-ns#"
   xmlns:svg="http://www.w3.org/2000/svg"
   xmlns="http://www.w3.org/2000/svg"
   xmlns:sodipodi="http://sodipodi.sourceforge.net/DTD/sodipodi-0.dtd"
   xmlns:inkscape="http://www.inkscape.org/namespaces/inkscape"
   width="48"
   height="48"
   id="svg2"
   version="1.1"
   inkscape:version="0.48.5 r10040"
   viewBox="0 0 13.546666 13.546668"
   sodipodi:docname="typecatcher.svg">
  <defs
     id="defs4" />
  <sodipodi:namedview
     id="base"
     pagecolor="#ffffff"
     bordercolor="#666666"
     borderopacity="1.0"
     inkscape:pageopacity="0"
     inkscape:pageshadow="2"
     inkscape:zoom="4.4501164"
     inkscape:cx="-0.49261425"
     inkscape:cy="9.2922275"
     inkscape:document-units="px"
     inkscape:current-layer="layer1"
     showgrid="false"
     inkscape:showpageshadow="false"
     borderlayer="true"
     units="px"
     fit-margin-top="0"
     fit-margin-left="0"
     fit-margin-right="0"
     fit-margin-bottom="0"
     showguides="true"
     inkscape:window-width="1920"
     inkscape:window-height="1025"
     inkscape:window-x="-4"
     inkscape:window-y="39"
     inkscape:window-maximized="1"
     inkscape:guide-bbox="true">
    <sodipodi:guide
       position="-6.6748425e-06,47.999999"
       orientation="47.999977,0"
       id="guide4120" />
    <sodipodi:guide
       position="-6.6748425e-06,2.2810037e-05"
       orientation="0,48.000004"
       id="guide4122" />
    <sodipodi:guide
       position="47.999997,2.2810037e-05"
       orientation="-47.999977,0"
       id="guide4124" />
    <sodipodi:guide
       position="47.999997,47.999999"
       orientation="0,-48.000004"
       id="guide4126" />
    <sodipodi:guide
       position="3.9999733,44.000154"
       orientation="39.999962,0"
       id="guide4138" />
    <sodipodi:guide
       position="3.9999733,4.0001921"
       orientation="0,40.000003"
       id="guide4140" />
    <sodipodi:guide
       position="43.999976,4.0001921"
       orientation="-39.999962,0"
       id="guide4142" />
    <sodipodi:guide
       position="43.999976,44.000154"
       orientation="0,-40.000003"
       id="guide4144" />
    <sodipodi:guide
       position="40.999998,47.999999"
       orientation="0,-34.000006"
       id="guide4154" />
    <sodipodi:guide
       position="1.9999969,4.0000839"
       orientation="0,44.000003"
       id="guide3281" />
    <sodipodi:guide
       position="46,44.000046"
       orientation="0,-44.000003"
       id="guide3285" />
  </sodipodi:namedview>
  <metadata
     id="metadata7">
    <rdf:RDF>
      <cc:Work
         rdf:about="">
        <dc:format>image/svg+xml</dc:format>
        <dc:type
           rdf:resource="http://purl.org/dc/dcmitype/StillImage" />
        <dc:title />
      </cc:Work>
    </rdf:RDF>
  </metadata>
  <g
     inkscape:label="Capa 1"
     inkscape:groupmode="layer"
     id="layer1"
     transform="translate(38.119153,-397.84494)">
    <g
       style="fill-rule:evenodd"
       id="g6"
       transform="matrix(0.02484353,0,0,0.02484353,-37.657128,384.83244)">
      <path
         style="fill:#ffffff"
         inkscape:connector-curvature="0"
         d="m 471.95,793.41 c 0,120.9 -98.01,218.9 -218.9,218.9 -120.9,0 -218.9,-98.01 -218.9,-218.9 0,-120.9 98.01,-218.9 218.9,-218.9 120.9,0 218.9,98.01 218.9,218.9"
         id="path8" />
      <path
         style="fill:#6788cc"
         inkscape:connector-curvature="0"
         transform="matrix(0.63095,0,0,0.63095,125.99,996.1)"
         d="m 562.86,-316.57 c 0,198.82 -161.18,360 -360,360 -198.82,0 -360,-161.18 -360,-360 0,-198.82 161.18,-360 360,-360 198.82,0 360,161.18 360,360"
         id="path10" />
    </g>
    <path
       style="opacity:0.87599996;fill-opacity:0.23500001"
       inkscape:connector-curvature="0"
       d="m -30.430639,401.66195 -2.646582,4.56276 c -0.425073,0.70565 -0.754027,0.97039 -1.18705,0.97039 l -0.0396,0.37663 h 0.02719 l -0.0023,0.0248 h 0.02719 c -3.26e-4,0.003 -0.0023,0.0249 -0.0023,0.0249 h 0.02717 c -3.26e-4,0.003 -0.0023,0.0248 -0.0023,0.0248 h 0.0264 c -2.99e-4,0.003 -0.0023,0.0241 -0.0023,0.0241 h 0.02718 c -3.26e-4,0.003 -0.0023,0.0249 -0.0023,0.0249 h 0.02719 c -3.26e-4,0.003 -0.0023,0.0248 -0.0023,0.0248 h 0.02717 l -0.0023,0.0249 h 0.02719 c -3.26e-4,0.003 -0.0023,0.0249 -0.0023,0.0249 h 0.02719 c -3.26e-4,0.003 -0.0023,0.0249 -0.0023,0.0249 h 0.02641 c -3e-4,0.003 -0.0023,0.0241 -0.0023,0.0241 h 0.02719 c -3.26e-4,0.003 -0.0023,0.0248 -0.0023,0.0248 h 0.02718 l -0.0023,0.0249 h 0.02719 c -3.25e-4,0.003 -0.0023,0.0249 -0.0023,0.0249 h 0.02717 c -3.25e-4,0.003 -0.0023,0.0249 -0.0023,0.0249 h 0.02719 c -3.26e-4,0.003 -0.0023,0.0248 -0.0023,0.0248 h 0.02641 c -2.99e-4,0.003 -0.0023,0.0241 -0.0023,0.0241 h 0.02719 c -3.26e-4,0.003 -0.0023,0.0249 -0.0023,0.0249 h 0.02719 c -3.26e-4,0.003 -0.0023,0.0248 -0.0023,0.0248 h 0.02717 c -3.26e-4,0.003 -0.0023,0.0249 -0.0023,0.0249 h 0.02719 c -3.26e-4,0.003 -0.0023,0.0248 -0.0023,0.0248 h 0.02717 c -3.25e-4,0.003 -0.0023,0.0249 -0.0023,0.0249 h 0.02642 c -3e-4,0.003 -0.0023,0.0241 -0.0023,0.0241 h 0.02718 c -3.25e-4,0.003 -0.0023,0.0248 -0.0023,0.0248 h 0.02719 c -3.26e-4,0.003 -0.0023,0.0249 -0.0023,0.0249 h 0.02718 c -3.26e-4,0.003 -0.0023,0.0249 -0.0023,0.0249 h 0.02717 c -3.26e-4,0.003 -0.0023,0.0248 -0.0023,0.0248 h 0.02719 c -3.26e-4,0.003 -0.0023,0.0249 -0.0023,0.0249 h 0.02718 c -3.25e-4,0.003 -0.0023,0.0249 -0.0023,0.0249 h 0.02642 c -2.99e-4,0.003 -0.0023,0.0241 -0.0023,0.0241 h 0.02718 c -3.25e-4,0.003 -0.0023,0.0249 -0.0023,0.0249 h 0.02717 c -3.26e-4,0.003 -0.0023,0.0249 -0.0023,0.0249 h 0.02719 c -3.26e-4,0.003 -0.0023,0.0248 -0.0023,0.0248 h 0.02717 c -3.26e-4,0.003 -0.0023,0.0248 -0.0023,0.0248 h 0.02719 c -3.26e-4,0.003 -0.0023,0.0248 -0.0023,0.0248 h 0.02641 c -2.99e-4,0.003 -0.0023,0.0241 -0.0023,0.0241 h 0.02719 c -3.26e-4,0.003 -0.0023,0.0249 -0.0023,0.0249 h 0.02717 c -3.25e-4,0.003 -0.0023,0.0248 -0.0023,0.0248 h 0.02717 c -3.26e-4,0.003 -0.0023,0.0249 -0.0023,0.0249 h 0.02719 c -3.26e-4,0.003 -0.0023,0.0249 -0.0023,0.0249 h 0.02718 c -3.26e-4,0.003 -0.0023,0.0248 -0.0023,0.0248 h 0.02642 c -3e-4,0.003 -0.0023,0.0241 -0.0023,0.0241 h 0.02717 c -3.24e-4,0.003 -0.0023,0.0249 -0.0023,0.0249 h 0.02719 c -3.26e-4,0.003 -0.0023,0.0248 -0.0023,0.0248 h 0.02719 c -3.26e-4,0.003 -0.0023,0.0249 -0.0023,0.0249 h 0.02718 c -3.26e-4,0.003 -0.0023,0.0249 -0.0023,0.0249 h 0.02719 c -3.26e-4,0.003 -0.0023,0.0248 -0.0023,0.0248 h 0.02718 c -3.25e-4,0.003 -0.0023,0.0249 -0.0023,0.0249 h 0.0264 c -3e-4,0.003 -0.0023,0.0241 -0.0023,0.0241 h 0.02717 l -0.0023,0.0249 h 0.02717 c -3.26e-4,0.003 -0.0023,0.0249 -0.0023,0.0249 h 0.02719 c -3.26e-4,0.003 -0.0023,0.0249 -0.0023,0.0249 h 0.02718 c -3.26e-4,0.003 -0.0023,0.0248 -0.0023,0.0248 h 0.02718 c -3.25e-4,0.003 -0.0023,0.0249 -0.0023,0.0249 h 0.0264 c -2.99e-4,0.003 -0.0023,0.0241 -0.0023,0.0241 h 0.02719 c -3.26e-4,0.003 -0.0023,0.0248 -0.0023,0.0248 h 0.02717 c -3.25e-4,0.003 -0.0023,0.0249 -0.0023,0.0249 h 0.02719 c -3.26e-4,0.003 -0.0023,0.0248 -0.0023,0.0248 h 0.02719 c -3.26e-4,0.003 -0.0023,0.0249 -0.0023,0.0249 h 0.02717 c -3.26e-4,0.003 -0.0023,0.0249 -0.0023,0.0249 h 0.0264 c -2.99e-4,0.003 -0.0023,0.0241 -0.0023,0.0241 h 0.02717 c -3.26e-4,0.003 -0.0023,0.0249 -0.0023,0.0249 h 0.02719 c -3.26e-4,0.003 -0.0023,0.0249 -0.0023,0.0249 h 0.02718 c -3.26e-4,0.003 -0.0023,0.0248 -0.0023,0.0248 h 0.02718 c -3.26e-4,0.003 -0.0023,0.0249 -0.0023,0.0249 h 0.02719 l -0.0023,0.0249 h 0.0264 c -2.99e-4,0.003 -0.0023,0.0241 -0.0023,0.0241 h 0.02717 c -3.26e-4,0.003 -0.0023,0.0249 -0.0023,0.0249 h 0.02717 c -3.26e-4,0.003 -0.0023,0.0249 -0.0023,0.0249 h 0.02719 c -3.26e-4,0.003 -0.0023,0.0248 -0.0023,0.0248 h 0.02718 c -3.24e-4,0.003 -0.0023,0.0249 -0.0023,0.0249 h 0.02717 c -3.26e-4,0.003 -0.0023,0.0248 -0.0023,0.0248 h 0.02719 c -3.26e-4,0.003 -0.0023,0.0249 -0.0023,0.0249 h 0.02641 c -2.99e-4,0.003 -0.0023,0.0241 -0.0023,0.0241 h 0.02718 c -3.26e-4,0.003 -0.0023,0.0248 -0.0023,0.0248 h 0.02718 c -3.26e-4,0.003 -0.0023,0.0249 -0.0023,0.0249 h 0.02719 c -3.26e-4,0.003 -0.0023,0.0249 -0.0023,0.0249 h 0.02717 c -3.25e-4,0.003 -0.0023,0.0249 -0.0023,0.0249 h 0.02717 c -3.26e-4,0.003 -0.0023,0.0248 -0.0023,0.0248 h 0.02641 c -2.99e-4,0.003 -0.0023,0.0241 -0.0023,0.0241 h 0.02718 c -3.26e-4,0.003 -0.0023,0.0249 -0.0023,0.0249 h 0.02719 c -3.26e-4,0.003 -0.0023,0.0249 -0.0023,0.0249 h 0.02717 c -3.24e-4,0.003 -0.0023,0.0249 -0.0023,0.0249 h 0.02719 c -3.26e-4,0.003 -0.0023,0.0248 -0.0023,0.0248 h 0.02719 c -3.26e-4,0.003 -0.0023,0.0249 -0.0023,0.0249 h 0.02641 c -3e-4,0.003 -0.0023,0.0241 -0.0023,0.0241 h 0.02718 c -3.25e-4,0.003 -0.0023,0.0249 -0.0023,0.0249 h 0.02718 c -3.26e-4,0.003 -0.0023,0.0249 -0.0023,0.0249 h 0.02719 c -3.25e-4,0.003 -0.0023,0.0248 -0.0023,0.0248 h 0.02717 c -3.26e-4,0.003 -0.0023,0.0249 -0.0023,0.0249 h 0.02719 c -3.26e-4,0.003 -0.0023,0.0249 -0.0023,0.0249 h 0.02718 c -3.25e-4,0.003 -0.0023,0.0249 -0.0023,0.0249 h 0.02641 c -3e-4,0.003 -0.0023,0.0241 -0.0023,0.0241 h 0.02718 c -3.25e-4,0.003 -0.0023,0.0248 -0.0023,0.0248 h 0.02717 c -3.26e-4,0.003 -0.0023,0.0249 -0.0023,0.0249 h 0.02719 c -3.26e-4,0.003 -0.0023,0.0249 -0.0023,0.0249 h 0.02717 c -3.26e-4,0.003 -0.0023,0.0249 -0.0023,0.0249 h 0.02719 c -3.26e-4,0.003 -0.0023,0.0248 -0.0023,0.0248 h 0.02641 c -2.99e-4,0.003 -0.0023,0.0241 -0.0023,0.0241 h 0.02719 c -3.26e-4,0.003 -0.0023,0.0249 -0.0023,0.0249 h 0.02717 c -3.25e-4,0.003 -0.0023,0.0248 -0.0023,0.0248 h 0.02718 c -3.26e-4,0.003 -0.0023,0.0249 -0.0023,0.0249 h 0.02718 c -3.26e-4,0.003 -0.0023,0.0248 -0.0023,0.0248 h 0.02718 c -3.26e-4,0.003 -0.0023,0.0249 -0.0023,0.0249 h 0.02642 c -3e-4,0.003 -0.0023,0.0241 -0.0023,0.0241 h 0.02718 c -3.26e-4,0.003 -0.0023,0.0248 -0.0023,0.0248 h 0.02718 c -3.26e-4,0.003 -0.0023,0.0249 -0.0023,0.0249 h 0.02717 c -3.25e-4,0.003 -0.0023,0.0249 -0.0023,0.0249 h 0.02719 c -3.26e-4,0.003 -0.0023,0.0248 -0.0023,0.0248 h 0.02718 c -1.5e-4,0.001 -2.73e-4,0.006 -7.66e-4,0.0117 0.08628,0.004 0.172836,0.007 0.260087,0.007 2.670183,0 4.907592,-1.85458 5.493652,-4.34613 h -0.0163 c -5e-5,-2.7e-4 -0.0047,-0.0248 -0.0047,-0.0248 h -0.0202 c -5e-5,-2.7e-4 -0.0047,-0.0249 -0.0047,-0.0249 h -0.0202 c -4.9e-5,-2.6e-4 -0.0047,-0.0249 -0.0047,-0.0249 h -0.0202 c -5e-5,-2.6e-4 -0.0047,-0.0249 -0.0047,-0.0249 h -0.0202 c -5e-5,-2.6e-4 -0.0047,-0.0248 -0.0047,-0.0248 h -0.01941 c -4.9e-5,-2.6e-4 -0.0047,-0.0241 -0.0047,-0.0241 h -0.0202 l -0.0047,-0.0248 h -0.0202 l -0.0047,-0.0249 h -0.0202 l -0.0047,-0.0249 h -0.0202 l -0.0047,-0.0248 h -0.0202 c -5e-5,-2.6e-4 -0.0047,-0.0249 -0.0047,-0.0249 h -0.01941 c -5e-5,-2.6e-4 -0.0047,-0.0241 -0.0047,-0.0241 h -0.0202 c -4.9e-5,-2.6e-4 -0.0047,-0.0248 -0.0047,-0.0248 h -0.0202 c -4.9e-5,-2.6e-4 -0.0047,-0.0248 -0.0047,-0.0248 h -0.0202 c -5e-5,-2.7e-4 -0.0047,-0.0248 -0.0047,-0.0248 h -0.0202 c -4.9e-5,-2.7e-4 -0.0047,-0.0249 -0.0047,-0.0249 h -0.0202 c -5e-5,-2.7e-4 -0.0047,-0.0249 -0.0047,-0.0249 h -0.0202 c -5e-5,-2.7e-4 -0.0047,-0.0249 -0.0047,-0.0249 h -0.01941 c -4.9e-5,-2.6e-4 -0.0047,-0.0241 -0.0047,-0.0241 h -0.0202 c -5e-5,-2.6e-4 -0.0047,-0.0249 -0.0047,-0.0249 h -0.0202 c -5e-5,-2.6e-4 -0.0047,-0.0249 -0.0047,-0.0249 h -0.0202 c -5e-5,-2.6e-4 -0.0047,-0.0248 -0.0047,-0.0248 h -0.0202 c -5e-5,-2.7e-4 -0.0047,-0.0249 -0.0047,-0.0249 h -0.0202 c -5e-5,-2.7e-4 -0.0047,-0.0248 -0.0047,-0.0248 h -0.01941 c -4.9e-5,-2.7e-4 -0.0047,-0.0241 -0.0047,-0.0241 h -0.0202 c -5e-5,-2.6e-4 -0.0047,-0.0249 -0.0047,-0.0249 h -0.0202 c -5e-5,-2.6e-4 -0.0047,-0.0248 -0.0047,-0.0248 h -0.0202 l -0.0047,-0.0249 h -0.0202 l -0.0047,-0.0249 h -0.0202 c -5e-5,-2.6e-4 -0.0047,-0.0248 -0.0047,-0.0248 h -0.01941 c -4.9e-5,-2.7e-4 -0.0047,-0.0241 -0.0047,-0.0241 h -0.0202 c -4.9e-5,-2.7e-4 -0.0047,-0.0248 -0.0047,-0.0248 h -0.0202 c -5e-5,-2.6e-4 -0.0047,-0.0249 -0.0047,-0.0249 h -0.0202 c -5e-5,-2.6e-4 -0.0047,-0.0249 -0.0047,-0.0249 h -0.0202 c -5e-5,-2.6e-4 -0.0047,-0.0249 -0.0047,-0.0249 h -0.0202 c -4.9e-5,-2.6e-4 -0.0047,-0.0248 -0.0047,-0.0248 h -0.01941 c -5e-5,-2.6e-4 -0.0047,-0.0241 -0.0047,-0.0241 h -0.0202 l -0.0047,-0.0249 h -0.0202 l -0.0047,-0.0249 h -0.0202 l -0.0047,-0.0249 h -0.0202 l -0.0047,-0.0248 h -0.0202 c -5e-5,-2.6e-4 -0.0047,-0.0249 -0.0047,-0.0249 h -0.0202 c -4.9e-5,-2.6e-4 -0.0047,-0.0249 -0.0047,-0.0249 h -0.0194 c -4.9e-5,-2.6e-4 -0.0047,-0.0241 -0.0047,-0.0241 h -0.0202 c -5e-5,-2.7e-4 -0.0047,-0.0249 -0.0047,-0.0249 h -0.0202 c -5e-5,-2.7e-4 -0.0047,-0.0248 -0.0047,-0.0248 h -0.0202 c -4.9e-5,-2.7e-4 -0.0047,-0.0249 -0.0047,-0.0249 h -0.0202 c -5e-5,-2.6e-4 -0.0047,-0.0249 -0.0047,-0.0249 h -0.0202 l -0.0047,-0.0249 h -0.01941 l -0.0047,-0.0241 h -0.0202 l -0.0047,-0.0249 h -0.0202 l -0.0047,-0.0248 h -0.0202 c -5e-5,-2.7e-4 -0.0047,-0.0249 -0.0047,-0.0249 h -0.0202 c -4.9e-5,-2.7e-4 -0.0047,-0.0249 -0.0047,-0.0249 h -0.0202 c -5e-5,-2.7e-4 -0.0047,-0.0248 -0.0047,-0.0248 h -0.01941 c -5e-5,-2.6e-4 -0.0047,-0.0241 -0.0047,-0.0241 h -0.0202 c -5e-5,-2.6e-4 -0.0047,-0.0249 -0.0047,-0.0249 h -0.0202 c -5e-5,-2.6e-4 -0.0047,-0.0248 -0.0047,-0.0248 h -0.0202 c -4.8e-5,-2.6e-4 -0.0047,-0.0248 -0.0047,-0.0248 h -0.0202 c -4.9e-5,-2.7e-4 -0.0047,-0.0248 -0.0047,-0.0248 h -0.0202 c -5e-5,-2.7e-4 -0.0047,-0.0249 -0.0047,-0.0249 h -0.0202 l -0.0047,-0.0249 h -0.01941 l -0.0047,-0.0241 h -0.0202 c -5e-5,-2.6e-4 -0.0047,-0.0249 -0.0047,-0.0249 h -0.0202 c -5e-5,-2.6e-4 -0.0047,-0.0249 -0.0047,-0.0249 h -0.0202 c -4.9e-5,-2.6e-4 -0.0047,-0.0249 -0.0047,-0.0249 h -0.0202 c -5e-5,-2.6e-4 -0.0047,-0.0248 -0.0047,-0.0248 h -0.0202 c -5e-5,-2.7e-4 -0.0047,-0.0249 -0.0047,-0.0249 h -0.01941 c -4.9e-5,-2.7e-4 -0.0047,-0.0241 -0.0047,-0.0241 h -0.0202 c -5e-5,-2.6e-4 -0.0047,-0.0249 -0.0047,-0.0249 h -0.0202 c -5e-5,-2.6e-4 -0.0047,-0.0249 -0.0047,-0.0249 h -0.0202 c -4.9e-5,-2.6e-4 -0.0047,-0.0248 -0.0047,-0.0248 h -0.0202 l -0.0047,-0.0249 h -0.0202 l -0.0047,-0.0248 h -0.01941 l -0.0047,-0.0241 h -0.0202 c -5e-5,-2.7e-4 -0.0047,-0.0249 -0.0047,-0.0249 h -0.0202 c -5e-5,-2.7e-4 -0.0047,-0.0249 -0.0047,-0.0249 h -0.0202 c -5e-5,-2.6e-4 -0.0047,-0.0248 -0.0047,-0.0248 h -0.0202 c -5e-5,-2.6e-4 -0.0047,-0.0249 -0.0047,-0.0249 h -0.0202 c -5e-5,-2.6e-4 -0.0047,-0.0249 -0.0047,-0.0249 h -0.01941 c -4.9e-5,-2.6e-4 -0.0047,-0.0241 -0.0047,-0.0241 h -0.0202 c -5e-5,-2.7e-4 -0.0047,-0.0249 -0.0047,-0.0249 h -0.0202 c -5e-5,-2.7e-4 -0.0047,-0.0248 -0.0047,-0.0248 h -0.0202 c -5e-5,-2.7e-4 -0.0047,-0.0249 -0.0047,-0.0249 h -0.0202 l -0.0047,-0.0249 h -0.0202 l -0.0047,-0.0249 h -0.0202 c -5e-5,-2.6e-4 -0.0047,-0.0248 -0.0047,-0.0248 h -0.01941 c -4.9e-5,-2.6e-4 -0.0047,-0.0241 -0.0047,-0.0241 h -0.0202 c -4.9e-5,-2.6e-4 -0.0047,-0.0248 -0.0047,-0.0248 h -0.0202 c -5e-5,-2.7e-4 -0.0047,-0.0249 -0.0047,-0.0249 h -0.0202 c -5e-5,-2.7e-4 -0.0047,-0.0249 -0.0047,-0.0249 h -0.0202 c -4.9e-5,-2.7e-4 -0.0047,-0.0248 -0.0047,-0.0248 h -0.0202 c -4.9e-5,-2.6e-4 -0.0047,-0.0249 -0.0047,-0.0249 h -0.01941 c -5e-5,-2.6e-4 -0.0047,-0.0241 -0.0047,-0.0241 h -0.0202 c -5e-5,-2.6e-4 -0.0047,-0.0248 -0.0047,-0.0248 h -0.0202 l -0.0047,-0.0249 h -0.0202 l -0.0047,-0.0248 h -0.0202 c -5e-5,-2.7e-4 -0.0047,-0.0249 -0.0047,-0.0249 h -0.0202 c -5e-5,-2.7e-4 -0.0047,-0.0249 -0.0047,-0.0249 h -0.0194 c -5e-5,-2.7e-4 -0.0047,-0.0241 -0.0047,-0.0241 h -0.0202 c -5e-5,-2.6e-4 -0.0047,-0.0249 -0.0047,-0.0249 h -0.0202 c -5e-5,-2.6e-4 -0.0047,-0.0249 -0.0047,-0.0249 h -0.0202 c -4.9e-5,-2.6e-4 -0.0047,-0.0249 -0.0047,-0.0249 h -0.0202 c -5e-5,-2.6e-4 -0.0047,-0.0248 -0.0047,-0.0248 h -0.0202 c -5e-5,-2.7e-4 -0.0047,-0.0249 -0.0047,-0.0249 h -0.0202 c -5e-5,-2.7e-4 -0.0047,-0.0248 -0.0047,-0.0248 h -0.0194 l -0.0047,-0.0241 h -0.0202 l -0.0047,-0.0249 h -0.0202 l -0.0047,-0.0248 h -0.0202 c -4.9e-5,-2.6e-4 -0.0047,-0.0249 -0.0047,-0.0249 h -0.0202 c -5e-5,-2.6e-4 -0.0047,-0.0248 -0.0047,-0.0248 h -0.0202 c -5e-5,-2.7e-4 -0.0047,-0.0249 -0.0047,-0.0249 h -0.01941 c -4.9e-5,-2.7e-4 -0.0047,-0.0241 -0.0047,-0.0241 h -0.0202 c -4.9e-5,-2.7e-4 -0.0047,-0.0248 -0.0047,-0.0248 h -0.0202 c -4.9e-5,-2.6e-4 -0.0047,-0.0249 -0.0047,-0.0249 h -0.0202 c -5e-5,-2.6e-4 -0.0047,-0.0249 -0.0047,-0.0249 h -0.0202 c -5e-5,-2.6e-4 -0.0047,-0.0249 -0.0047,-0.0249 h -0.0202 c -5e-5,-2.6e-4 -0.0047,-0.0248 -0.0047,-0.0248 h -0.01941 l -0.0047,-0.0241 h -0.0202 l -0.0047,-0.0249 h -0.0202 c -5e-5,-2.7e-4 -0.0047,-0.0249 -0.0047,-0.0249 h -0.0202 c -5e-5,-2.7e-4 -0.0047,-0.0249 -0.0047,-0.0249 h -0.0202 c -4.9e-5,-2.6e-4 -0.0047,-0.0248 -0.0047,-0.0248 h -0.0202 c -5e-5,-2.6e-4 -0.0047,-0.0249 -0.0047,-0.0249 h -0.01941 c -5e-5,-2.6e-4 -0.0047,-0.0241 -0.0047,-0.0241 h -0.0202 c -4.9e-5,-2.6e-4 -0.0047,-0.0248 -0.0047,-0.0248 h -0.0202 c -5e-5,-2.7e-4 -0.0047,-0.0249 -0.0047,-0.0249 h -0.0202 c -5e-5,-2.7e-4 -0.0047,-0.0248 -0.0047,-0.0248 h -0.0202 c -5e-5,-2.7e-4 -0.0047,-0.0249 -0.0047,-0.0249 h -0.0202 l -0.0047,-0.0249 h -0.0202 l -0.0047,-0.0249 h -0.01941 l -0.0047,-0.0241 h -0.0202 c -5e-5,-2.6e-4 -0.0047,-0.0249 -0.0047,-0.0249 h -0.0202 c -4.9e-5,-2.6e-4 -0.0047,-0.0248 -0.0047,-0.0248 h -0.0202 c -5e-5,-2.7e-4 -0.0047,-0.0249 -0.0047,-0.0249 h -0.0202 c -5e-5,-2.7e-4 -0.0047,-0.0249 -0.0047,-0.0249 h -0.0202 c -5e-5,-2.7e-4 -0.0047,-0.0248 -0.0047,-0.0248 h -0.01941 c -5e-5,-2.6e-4 -0.0047,-0.0241 -0.0047,-0.0241 h -0.0202 c -4.9e-5,-2.6e-4 -0.0047,-0.0249 -0.0047,-0.0249 h -0.0202 c -4.9e-5,-2.6e-4 -0.0047,-0.0248 -0.0047,-0.0248 h -0.0202 c -5e-5,-2.6e-4 -0.0047,-0.0249 -0.0047,-0.0249 h -0.0202 l -0.0047,-0.0248 h -0.0202 l -0.0047,-0.0249 h -0.01941 c -4.9e-5,-2.7e-4 -0.0047,-0.0241 -0.0047,-0.0241 h -0.0202 c -5e-5,-2.7e-4 -0.0047,-0.0248 -0.0047,-0.0248 h -0.0202 c -5e-5,-2.6e-4 -0.0047,-0.0249 -0.0047,-0.0249 h -0.0202 c -4.9e-5,-2.6e-4 -0.0047,-0.0249 -0.0047,-0.0249 h -0.0202 c -4.9e-5,-2.6e-4 -0.0047,-0.0249 -0.0047,-0.0249 h -0.0202 c -5e-5,-2.6e-4 -0.0047,-0.0248 -0.0047,-0.0248 h -0.0202 c -5e-5,-2.7e-4 -0.0047,-0.0249 -0.0047,-0.0249 h -0.01941 c -4.9e-5,-2.7e-4 -0.0047,-0.0241 -0.0047,-0.0241 h -0.0202 c -5e-5,-2.7e-4 -0.0047,-0.0249 -0.0047,-0.0249 h -0.0202 l -0.0047,-0.0249 h -0.0202 l -0.0047,-0.0248 h -0.0202 l -0.0047,-0.0249 h -0.0202 c -5e-5,-2.6e-4 -0.0047,-0.0248 -0.0047,-0.0248 h -0.01941 c -5e-5,-2.7e-4 -0.0047,-0.0241 -0.0047,-0.0241 h -0.0202 c -4.9e-5,-2.7e-4 -0.0047,-0.0249 -0.0047,-0.0249 h -0.0202 l -0.0047,-0.0249 h -0.0202 c -5e-5,-2.6e-4 -0.0047,-0.0248 -0.0047,-0.0248 h -0.0202 c -5e-5,-2.6e-4 -0.0047,-0.0249 -0.0047,-0.0249 h -0.0202 c -4.9e-5,-2.6e-4 -0.0047,-0.0249 -0.0047,-0.0249 h -0.01941 c -5e-5,-2.6e-4 -0.0047,-0.0241 -0.0047,-0.0241 h -0.0202 c -5e-5,-2.6e-4 -0.0047,-0.0248 -0.0047,-0.0248 h -0.0202 l -0.0047,-0.0248 h -0.0202 l -0.0047,-0.0249 h -0.0202 c -5e-5,-2.7e-4 -0.0047,-0.0249 -0.0047,-0.0249 h -0.0202 c -4.9e-5,-2.6e-4 -0.0047,-0.0249 -0.0047,-0.0249 h -0.01941 c -5e-5,-2.6e-4 -0.0047,-0.0241 -0.0047,-0.0241 h -0.0202 c -5e-5,-2.6e-4 -0.0047,-0.0249 -0.0047,-0.0249 h -0.0202 c -4.9e-5,-2.6e-4 -0.0047,-0.0248 -0.0047,-0.0248 h -0.0202 c -5e-5,-2.7e-4 -0.0047,-0.0249 -0.0047,-0.0249 h -0.331662"
       id="path12" />
    <g
       style="fill:#ffffff"
       id="g14"
       transform="matrix(0.02484353,0,0,0.02484353,-37.657128,384.83244)">
      <path
         style="fill-opacity:0.44600004;fill-rule:evenodd"
         inkscape:connector-curvature="0"
         d="m 292.17,640.29 c -29.542,0 -51.54,6.309 -74.22,21.295 -22.757,15.04 -42.557,38.793 -52.19,62.52 -3.667,9.04 -5.315,11.62 -7.24,11.3 -1.37,-0.227 -8.556,-0.477 -15.928,-0.568 -24.26,-0.3 -41.83,6.708 -58.6,23.481 -11.03,11.03 -17.695,22.459 -21.238,36.2 -2.449,9.499 -3.234,28.16 -1.533,36.598 l 0.994,4.969 -8.177,1.675 c -7.765,1.604 -15.05,4.683 -21.579,8.944 8.793,38.863 27.521,73.937 53.41,102.41 0.041,0.045 0.073,0.097 0.114,0.142 1.149,1.262 2.344,2.512 3.521,3.748 0.364,0.382 0.74,0.756 1.107,1.136 0.955,0.989 1.895,1.981 2.868,2.953 0.782,0.781 1.564,1.559 2.357,2.328 0.264,0.256 0.53,0.512 0.795,0.767 0.851,0.817 1.72,1.609 2.584,2.413 1.128,1.05 2.258,2.096 3.407,3.123 0.524,0.469 1.061,0.927 1.59,1.391 0.8,0.702 1.603,1.41 2.413,2.101 0.041,0.035 0.073,0.079 0.114,0.114 0.967,0.824 1.943,1.634 2.924,2.442 h 0.028 c 39.24,32.31 89.5,51.732 144.29,51.732 55.12,0 105.64,-19.648 144.97,-52.3 h 0.028 c 0.413,-0.343 0.811,-0.705 1.221,-1.051 0.95,-0.8 1.902,-1.598 2.839,-2.413 0.197,-0.172 0.4,-0.339 0.596,-0.511 0.116,-0.102 0.225,-0.211 0.341,-0.312 1.414,-1.244 2.82,-2.497 4.202,-3.776 1.323,-1.224 2.624,-2.465 3.918,-3.719 0.168,-0.163 0.343,-0.319 0.511,-0.483 0.959,-0.936 1.897,-1.887 2.839,-2.839 0.758,-0.766 1.525,-1.523 2.271,-2.3 0.671,-0.698 1.325,-1.423 1.988,-2.129 0.472,-0.503 0.952,-0.997 1.42,-1.505 0.114,-0.124 0.227,-0.245 0.341,-0.369 0.208,-0.227 0.417,-0.453 0.625,-0.681 36.682,-40.34 59.03,-93.93 59.03,-152.75 0,-3.035 -0.081,-6.05 -0.199,-9.06 -12.681,-10.998 -28.11,-18.967 -45.34,-22.544 l -7.439,-1.533 -1.732,-10.818 c -4.02,-25.842 -15.868,-49.24 -35.406,-69.875 -27.325,-28.862 -58.61,-42.25 -98.84,-42.25"
         id="path16" />
      <text
         sodipodi:linespacing="125%"
         font-style="italic"
         x="161.42999"
         y="915.31"
         font-size="322.78px"
         line-height="125%"
         style="font-size:322.77999878px;font-style:italic;line-height:125%;letter-spacing:0;word-spacing:0;opacity:0.87599996;font-family:Century Schoolbook L"
         id="text18">
        <tspan
           x="161.42999"
           y="915.31"
           id="tspan20">A</tspan>
      </text>
    </g>
  </g>
</svg>
