<?xml version="1.0" encoding="UTF-8" standalone="no"?>
<!-- Created with Inkscape (http://www.inkscape.org/) -->

<svg
   xmlns:dc="http://purl.org/dc/elements/1.1/"
   xmlns:cc="http://creativecommons.org/ns#"
   xmlns:rdf="http://www.w3.org/1999/02/22-rdf-syntax-ns#"
   xmlns:svg="http://www.w3.org/2000/svg"
   xmlns="http://www.w3.org/2000/svg"
   xmlns:sodipodi="http://sodipodi.sourceforge.net/DTD/sodipodi-0.dtd"
   xmlns:inkscape="http://www.inkscape.org/namespaces/inkscape"
   width="48"
   height="48"
   id="svg2"
   version="1.1"
   inkscape:version="0.48.5 r10040"
   sodipodi:docname="ubuntu-tweak.svg">
  <defs
     id="defs4" />
  <sodipodi:namedview
     id="base"
     pagecolor="#ffffff"
     bordercolor="#666666"
     borderopacity="1.0"
     inkscape:pageopacity="0.0"
     inkscape:pageshadow="2"
     inkscape:zoom="8.6619536"
     inkscape:cx="15.543432"
     inkscape:cy="20.722603"
     inkscape:document-units="px"
     inkscape:current-layer="layer1"
     showgrid="false"
     inkscape:window-width="1920"
     inkscape:window-height="1035"
     inkscape:window-x="-4"
     inkscape:window-y="29"
     inkscape:window-maximized="1"
     showguides="true"
     inkscape:showpageshadow="false"
     borderlayer="true">
    <sodipodi:guide
       position="9,9.0000174"
       orientation="-30,0"
       id="guide3294" />
    <sodipodi:guide
       position="9,39.000017"
       orientation="0,30"
       id="guide3296" />
    <sodipodi:guide
       position="39,39.000017"
       orientation="30,0"
       id="guide3298" />
    <sodipodi:guide
       position="39,9.0000174"
       orientation="0,-30"
       id="guide3300" />
    <sodipodi:guide
       position="4,4.0000174"
       orientation="-40,0"
       id="guide3304" />
    <sodipodi:guide
       position="4,44.000017"
       orientation="0,40"
       id="guide3306" />
    <sodipodi:guide
       position="44,44.000017"
       orientation="40,0"
       id="guide3308" />
    <sodipodi:guide
       position="44,4.0000174"
       orientation="0,-40"
       id="guide3310" />
  </sodipodi:namedview>
  <metadata
     id="metadata7">
    <rdf:RDF>
      <cc:Work
         rdf:about="">
        <dc:format>image/svg+xml</dc:format>
        <dc:type
           rdf:resource="http://purl.org/dc/dcmitype/StillImage" />
        <dc:title />
      </cc:Work>
    </rdf:RDF>
  </metadata>
  <g
     inkscape:label="Capa 1"
     inkscape:groupmode="layer"
     id="layer1"
     transform="translate(0,-1004.3622)">
    <g
       transform="matrix(0.16810155,0,0,0.16810155,1.9955136,872.97548)"
       id="g3817">
      <path
         inkscape:connector-curvature="0"
         id="path3367"
         d="m 146.11766,828.09844 c -14.25634,0 -28.0408,3.13551 -40.57009,9.03649 l 19.57907,33.85547 c 6.49582,-2.61432 13.57293,-4.04759 20.99102,-4.04759 28.3952,0 51.94904,21.07879 55.85054,48.41426 l 39.09538,0 c -1.77455,-21.47948 -10.68336,-41.50543 -25.57202,-57.29387 -9.53506,4.85624 -21.25988,4.96411 -31.21983,-0.78442 -9.96743,-5.75601 -15.76102,-15.97295 -16.31589,-26.6702 -7.07568,-1.64958 -14.39259,-2.51014 -21.83818,-2.51014 z m -54.375842,17.03755 c -4.586321,3.20418 -8.948497,6.81739 -12.989958,10.85635 -11.31709,11.31709 -19.411323,24.9975 -23.877676,39.91117 8.997686,5.8285 14.935314,15.93508 14.935314,27.45462 0,11.51704 -5.937628,21.65999 -14.935314,27.486 4.466353,14.91366 12.560586,28.5627 23.877676,39.8798 4.038961,4.03897 8.37476,7.64955 12.958581,10.85627 L 111.28951,967.7248 C 98.157888,957.38495 89.702332,941.32851 89.702332,923.35813 c 0,-17.97788 8.453056,-33.99544 21.587178,-44.33529 L 91.741818,845.13599 z m 110.226382,86.2232 c -3.89151,27.34546 -27.44787,48.44564 -55.85054,48.44564 -7.4231,0 -14.4952,-1.45964 -20.99102,-4.07897 l -19.57907,33.88684 c 12.52678,5.9035 26.30874,9.0051 40.57009,9.0051 7.45056,0 14.79138,-0.8605 21.86956,-2.5101 0.54486,-10.7098 6.30957,-20.91165 16.28451,-26.67022 9.96245,-5.75351 21.68228,-5.68205 31.21983,-0.81579 14.87617,-15.79095 23.7711,-35.79052 25.54064,-57.2625 l -39.064,0 z"
         style="fill:#ff00b3;fill-opacity:1;stroke:none" />
      <path
         inkscape:connector-curvature="0"
         d="m 197.10296,856.5837 c -0.49175,0 -0.86149,-0.81832 -0.86149,-1.84605 l 0,-6.52271 c -1.97976,-0.45081 -3.80999,-1.22406 -5.47662,-2.27681 l -4.61513,4.61513 c -0.72672,0.72671 -1.55988,1.02462 -1.90759,0.67689 l -4.30746,-4.30745 c -0.34771,-0.34772 -0.0498,-1.18089 0.67689,-1.90759 l 4.61512,-4.61513 c -1.05274,-1.66663 -1.82598,-3.49685 -2.27679,-5.47664 l -6.52272,0 c -1.02771,0 -1.84605,-0.36973 -1.84605,-0.86149 l 0,-6.15351 c 0,-0.49174 0.81834,-0.86149 1.84605,-0.86149 l 6.52272,0 c 0.45081,-1.97977 1.22405,-3.80999 2.27679,-5.47661 l -4.61512,-4.61514 c -0.7267,-0.7267 -1.0246,-1.55986 -0.67689,-1.90759 l 4.30746,-4.30746 c 0.34771,-0.34772 1.18087,-0.0498 1.90759,0.6769 l 4.61513,4.61512 c 1.66663,-1.05275 3.49686,-1.82598 5.47662,-2.27679 l 0,-6.52272 c 0,-1.02772 0.36974,-1.84606 0.86149,-1.84606 l 6.15351,0 c 0.49176,0 0.86149,0.81834 0.86149,1.84606 l 0,6.52272 c 1.97978,0.45081 3.81,1.22404 5.47663,2.27679 l 4.61513,-4.61512 c 0.7267,-0.72671 1.55985,-1.02462 1.90758,-0.6769 l 4.30745,4.30746 c 0.34773,0.34773 0.0498,1.18089 -0.67688,1.90759 l -4.61513,4.61514 c 1.05276,1.66662 1.82599,3.49684 2.2768,5.47661 l 6.52272,0 c 1.02772,0 1.84606,0.36975 1.84606,0.86149 l 0,6.15351 c 0,0.49176 -0.81834,0.86149 -1.84606,0.86149 l -6.52272,0 c -0.45081,1.97978 -1.22404,3.81001 -2.2768,5.47664 l 4.61513,4.61513 c 0.7267,0.72669 1.02461,1.55987 0.67688,1.90759 l -4.30745,4.30745 c -0.34773,0.34773 -1.18088,0.0498 -1.90758,-0.67689 l -4.61513,-4.61513 c -1.66663,1.05275 -3.49685,1.826 -5.47663,2.27681 l 0,6.52271 c 0,1.02773 -0.36973,1.84605 -0.86149,1.84605 l -6.15351,0 0,0 z m 3.07676,-17.72209 c 4.34782,0 7.87648,-3.52867 7.87648,-7.8765 0,-4.34782 -3.52866,-7.8765 -7.87648,-7.8765 -4.34781,0 -7.87649,3.52867 -7.87649,7.8765 0,4.34783 3.52868,7.8765 7.87649,7.8765 z"
         id="path4992"
         style="fill:#ffce00;fill-opacity:1;fill-rule:nonzero;stroke:none;stroke-width:1;marker:none;visibility:visible;display:inline;overflow:visible;enable-background:accumulate" />
      <path
         style="fill:#0066ff;fill-opacity:1;fill-rule:nonzero;stroke:none;stroke-width:1;marker:none;visibility:visible;display:inline;overflow:visible;enable-background:accumulate"
         id="path3625-9"
         d="m 142.99874,964.70972 c -0.79437,0 -1.39164,-1.32192 -1.39164,-2.98209 l 0,-10.5367 c -3.19808,-0.72822 -6.15461,-1.97731 -8.84685,-3.6779 l -7.45521,7.4552 c -1.17391,1.17391 -2.51978,1.65515 -3.08149,1.09344 l -6.95821,-6.9582 c -0.56169,-0.56171 -0.0805,-1.90758 1.09344,-3.08149 l 7.45522,-7.45521 c -1.70061,-2.69224 -2.94968,-5.64876 -3.67792,-8.84686 l -10.5367,0 c -1.66016,0 -2.98208,-0.59727 -2.98208,-1.39164 l 0,-9.94028 c 0,-0.79437 1.32193,-1.39164 2.98208,-1.39164 l 10.5367,0 c 0.72824,-3.1981 1.97731,-6.1546 3.67792,-8.84686 l -7.45522,-7.4552 c -1.17392,-1.17391 -1.65514,-2.51978 -1.09344,-3.0815 l 6.95821,-6.9582 c 0.56171,-0.56171 1.90758,-0.0805 3.08149,1.09344 l 7.45521,7.45522 c 2.69224,-1.7006 5.64877,-2.94968 8.84685,-3.67792 l 0,-10.5367 c 0,-1.66016 0.59727,-2.98208 1.39164,-2.98208 l 9.94029,0 c 0.79438,0 1.39164,1.32192 1.39164,2.98208 l 0,10.5367 c 3.19809,0.72824 6.15462,1.97732 8.84685,3.67792 l 7.45522,-7.45522 c 1.17391,-1.1739 2.51977,-1.65515 3.08148,-1.09344 l 6.95819,6.9582 c 0.56171,0.56172 0.0805,1.90759 -1.09343,3.0815 l -7.45521,7.4552 c 1.7006,2.69226 2.94968,5.64876 3.6779,8.84686 l 10.53671,0 c 1.66016,0 2.98208,0.59727 2.98208,1.39164 l 0,9.94028 c 0,0.79437 -1.32192,1.39164 -2.98208,1.39164 l -10.53671,0 c -0.72822,3.1981 -1.9773,6.15462 -3.6779,8.84686 l 7.45521,7.45521 c 1.17392,1.17391 1.65514,2.51978 1.09343,3.08149 l -6.95819,6.9582 c -0.56171,0.56171 -1.90757,0.0804 -3.08148,-1.09344 l -7.45522,-7.4552 c -2.69223,1.70059 -5.64876,2.94968 -8.84685,3.6779 l 0,10.5367 c 0,1.66017 -0.59726,2.98209 -1.39164,2.98209 l -9.94029,0 0,0 z m 4.97014,-28.62803 c 7.02341,0 12.72356,-5.70015 12.72356,-12.72356 0,-7.0234 -5.70015,-12.72356 -12.72356,-12.72356 -7.0234,0 -12.72356,5.70016 -12.72356,12.72356 0,7.02341 5.70016,12.72356 12.72356,12.72356 z"
         inkscape:connector-curvature="0" />
      <path
         inkscape:connector-curvature="0"
         d="m 34.446099,948.95674 c -0.491746,0 -0.861489,-0.81833 -0.861489,-1.84606 l 0,-6.52271 c -1.979765,-0.45081 -3.809996,-1.22404 -5.476626,-2.2768 l -4.615128,4.61513 c -0.726714,0.72671 -1.559869,1.02461 -1.907583,0.67688 l -4.307465,-4.30745 c -0.347714,-0.34773 -0.0498,-1.18089 0.676893,-1.90759 l 4.615128,-4.61513 c -1.052741,-1.66663 -1.825994,-3.49685 -2.276795,-5.47664 l -6.52271,0 c -1.027721,0 -1.846065,-0.36973 -1.846065,-0.86148 l 0,-6.15351 c 0,-0.49175 0.818344,-0.8615 1.846065,-0.8615 l 6.52271,0 c 0.450811,-1.97977 1.224054,-3.80998 2.276795,-5.47662 l -4.615117,-4.61513 c -0.726705,-0.7267 -1.024608,-1.55987 -0.676894,-1.90759 l 4.307465,-4.30746 c 0.347704,-0.34772 1.180859,-0.0498 1.907573,0.6769 l 4.615128,4.61513 c 1.66663,-1.05276 3.496861,-1.826 5.476626,-2.2768 l 0,-6.52272 c 0,-1.02772 0.369743,-1.84605 0.861489,-1.84605 l 6.15351,0 c 0.491756,0 0.861489,0.81833 0.861489,1.84605 l 0,6.52272 c 1.979785,0.4508 3.810016,1.22404 5.476626,2.2768 l 4.615138,-4.61513 c 0.726694,-0.72671 1.559849,-1.02462 1.907573,-0.6769 l 4.307465,4.30746 c 0.347714,0.34772 0.0498,1.18089 -0.676893,1.90759 l -4.615128,4.61513 c 1.052762,1.66663 1.825994,3.49685 2.276795,5.47662 l 6.522721,0 c 1.02772,0 1.846065,0.36975 1.846065,0.8615 l 0,6.15351 c 0,0.49175 -0.818345,0.86148 -1.846065,0.86148 l -6.522721,0 c -0.450801,1.97978 -1.224033,3.81001 -2.276795,5.47664 l 4.615128,4.61513 c 0.726704,0.72669 1.024607,1.55985 0.676893,1.90759 l -4.307465,4.30745 c -0.347724,0.34772 -1.180879,0.0498 -1.907573,-0.67688 l -4.615138,-4.61513 c -1.66662,1.05276 -3.496841,1.82599 -5.476626,2.2768 l 0,6.52271 c 0,1.02773 -0.369733,1.84606 -0.861489,1.84606 l -6.15351,0 0,0 z m 3.076755,-17.7221 c 4.347828,0 7.876488,-3.52867 7.876488,-7.8765 0,-4.34782 -3.52866,-7.8765 -7.876488,-7.8765 -4.347808,0 -7.876488,3.52867 -7.876488,7.8765 0,4.34783 3.52868,7.8765 7.876488,7.8765 z"
         id="path5000"
         style="fill:#ff0000;fill-opacity:1;fill-rule:nonzero;stroke:none;stroke-width:1;marker:none;visibility:visible;display:inline;overflow:visible;enable-background:accumulate" />
      <path
         style="fill:#00ff00;fill-opacity:1;fill-rule:nonzero;stroke:none;stroke-width:1;marker:none;visibility:visible;display:inline;overflow:visible;enable-background:accumulate"
         id="path4996"
         d="m 197.10296,1043.3379 c -0.49174,0 -0.86149,-0.8184 -0.86149,-1.8461 l 0,-6.5227 c -1.97976,-0.4509 -3.80999,-1.2241 -5.47662,-2.2768 l -4.61513,4.6151 c -0.72672,0.7266 -1.55988,1.0245 -1.90758,0.6768 l -4.30747,-4.3074 c -0.34771,-0.3478 -0.0498,-1.1808 0.67689,-1.9076 l 4.61513,-4.6151 c -1.05274,-1.6666 -1.82599,-3.4969 -2.27679,-5.4766 l -6.52272,0 c -1.02772,0 -1.84606,-0.3698 -1.84606,-0.8614 l 0,-6.1536 c 0,-0.4918 0.81834,-0.8615 1.84606,-0.8615 l 6.52272,0 c 0.45081,-1.9797 1.22405,-3.8099 2.27679,-5.4765 l -4.61512,-4.6152 c -0.7267,-0.7267 -1.0246,-1.5599 -0.67689,-1.9076 l 4.30746,-4.30747 c 0.34771,-0.34771 1.18086,-0.0502 1.90758,0.67693 l 4.61513,4.61514 c 1.66663,-1.0528 3.49686,-1.826 5.47662,-2.2768 l 0,-6.52274 c 0,-1.02775 0.36974,-1.84609 0.86149,-1.84609 l 6.15351,0 c 0.49176,0 0.86149,0.81834 0.86149,1.84609 l 0,6.52274 c 1.97978,0.4508 3.81001,1.224 5.47663,2.2768 l 4.61513,-4.61514 c 0.7267,-0.72673 1.55985,-1.02464 1.90758,-0.67693 l 4.30745,4.30747 c 0.34773,0.3477 0.0498,1.1809 -0.67688,1.9076 l -4.61512,4.6152 c 1.05275,1.6666 1.82599,3.4968 2.27679,5.4765 l 6.52272,0 c 1.02772,0 1.84606,0.3697 1.84606,0.8615 l 0,6.1536 c 0,0.4916 -0.81834,0.8614 -1.84606,0.8614 l -6.52272,0 c -0.45081,1.9798 -1.22404,3.81 -2.27679,5.4766 l 4.61512,4.6151 c 0.7267,0.7268 1.02461,1.5598 0.67688,1.9076 l -4.30745,4.3074 c -0.34773,0.3477 -1.18088,0.05 -1.90758,-0.6768 l -4.61513,-4.6151 c -1.66662,1.0527 -3.49685,1.8259 -5.47663,2.2768 l 0,6.5227 c 0,1.0277 -0.36972,1.8461 -0.86149,1.8461 l -6.15351,0 0,0 z m 3.07677,-17.7221 c 4.34782,0 7.87648,-3.5287 7.87648,-7.8766 0,-4.3478 -3.52866,-7.8764 -7.87648,-7.8764 -4.34782,0 -7.8765,3.5286 -7.8765,7.8764 0,4.3479 3.52868,7.8766 7.8765,7.8766 z"
         inkscape:connector-curvature="0" />
    </g>
  </g>
</svg>
