<?xml version="1.0" encoding="UTF-8" standalone="no"?>
<!-- Created using Karbon, part of Calligra: http://www.calligra.org/karbon -->

<svg
   xmlns:dc="http://purl.org/dc/elements/1.1/"
   xmlns:cc="http://creativecommons.org/ns#"
   xmlns:rdf="http://www.w3.org/1999/02/22-rdf-syntax-ns#"
   xmlns:svg="http://www.w3.org/2000/svg"
   xmlns="http://www.w3.org/2000/svg"
   xmlns:sodipodi="http://sodipodi.sourceforge.net/DTD/sodipodi-0.dtd"
   xmlns:inkscape="http://www.inkscape.org/namespaces/inkscape"
   width="38.4pt"
   height="38.4pt"
   id="svg2"
   version="1.1"
   inkscape:version="0.48.5 r10040"
   sodipodi:docname="urban-terror.svg">
  <metadata
     id="metadata11">
    <rdf:RDF>
      <cc:Work
         rdf:about="">
        <dc:format>image/svg+xml</dc:format>
        <dc:type
           rdf:resource="http://purl.org/dc/dcmitype/StillImage" />
        <dc:title />
      </cc:Work>
    </rdf:RDF>
  </metadata>
  <sodipodi:namedview
     pagecolor="#ffffff"
     bordercolor="#666666"
     borderopacity="1"
     objecttolerance="10"
     gridtolerance="10"
     guidetolerance="10"
     inkscape:pageopacity="0"
     inkscape:pageshadow="2"
     inkscape:window-width="1920"
     inkscape:window-height="1035"
     id="namedview9"
     showgrid="false"
     inkscape:showpageshadow="false"
     borderlayer="true"
     inkscape:zoom="6.9532164"
     inkscape:cx="27.19116"
     inkscape:cy="24.714859"
     inkscape:window-x="-4"
     inkscape:window-y="29"
     inkscape:window-maximized="1"
     inkscape:current-layer="svg2">
    <sodipodi:guide
       position="9.5367432e-07,48.000001"
       orientation="47.999999,0"
       id="guide4069" />
    <sodipodi:guide
       position="9.5367432e-07,1.9073486e-06"
       orientation="0,47.999999"
       id="guide4071" />
    <sodipodi:guide
       position="48,1.9073486e-06"
       orientation="-47.999999,0"
       id="guide4073" />
    <sodipodi:guide
       position="48,48.000001"
       orientation="0,-47.999999"
       id="guide4075" />
    <sodipodi:guide
       position="4.000001,44.000001"
       orientation="39.999999,0"
       id="guide4077" />
    <sodipodi:guide
       position="4.000001,4.0000019"
       orientation="0,39.999999"
       id="guide4079" />
    <sodipodi:guide
       position="44,4.0000019"
       orientation="-39.999999,0"
       id="guide4081" />
    <sodipodi:guide
       position="44,44.000001"
       orientation="0,-39.999999"
       id="guide4083" />
  </sodipodi:namedview>
  <defs
     id="defs4" />
  <g
     transform="matrix(0.08,0,0,0.08,3.4400005,3.6000009)"
     id="g4482">
    <g
       transform="matrix(1.0869565,0,0,1.0869565,-100.6087,-8.0434795)"
       id="svg_11">
      <rect
         style="fill:#ffffff;stroke:#aaaaaa;stroke-width:0"
         x="223.67999"
         y="193.95769"
         width="225.40039"
         height="195.04233"
         id="svg_6" />
      <path
         style="fill:#ffffff;stroke:#aaaaaa;stroke-width:0"
         inkscape:connector-curvature="0"
         d="m 178.59599,215.074 c 0,0 156.27401,-108.026 156.35002,-109.797 0.075,-1.772 151.03299,106.49599 151.03299,106.49599 0,0 -307.38302,3.30101 -307.38302,3.30101 l 0,0 0,0 0,0 1e-5,0 z"
         id="svg_8" />
    </g>
    <ellipse
       transform="matrix(1.0869565,0,0,1.0869565,-100.6087,-8.0434795)"
       d="M 559,242 C 559,369.02549 456.02549,472 329,472 201.97451,472 99,369.02549 99,242 99,114.97451 201.97451,12 329,12 456.02549,12 559,114.97451 559,242 z"
       style="fill:#5a7997;fill-opacity:1;stroke:#aaaaaa;stroke-width:0;stroke-opacity:1"
       sodipodi:ry="230"
       sodipodi:rx="230"
       sodipodi:cy="242"
       sodipodi:cx="329"
       cx="329"
       cy="242"
       rx="230"
       ry="230"
       id="svg_3" />
    <rect
       transform="matrix(-0.97933415,-0.20224893,0.18211778,-0.98327672,0,0)"
       width="67.728867"
       height="123.67059"
       rx="7.0085187"
       ry="8.0058317"
       x="-318.07504"
       y="-205.27507"
       id="rect5907"
       style="fill:#efdaa2;fill-opacity:1;stroke:none" />
    <path
       inkscape:connector-curvature="0"
       d="m 206.18755,262.01176 a 33.290599,4.6177581 11.691563 1 1 65.20497,13.46592 33.290599,4.6177581 11.691563 0 1 -65.20497,-13.46592 z"
       id="path5917"
       style="fill:#efdaa2;fill-opacity:1;stroke:none" />
    <rect
       transform="matrix(-0.60925417,-0.792975,0.73484866,-0.67823112,0,0)"
       width="69.598907"
       height="120.81389"
       rx="7.2020292"
       ry="7.8209023"
       x="-453.44037"
       y="101.73675"
       id="rect5781"
       style="fill:#efdaa2;fill-opacity:1;stroke:none" />
    <path
       inkscape:connector-curvature="0"
       d="m 301.1471,241.87501 a 34.212098,4.4933812 52.555414 0 1 41.68473,54.25478 34.212098,4.4933812 52.555414 1 1 -41.68473,-54.25478 z"
       id="path5791"
       style="fill:#efdaa2;fill-opacity:1;stroke:none" />
    <rect
       transform="matrix(-0.96517365,0.26161005,-0.25747842,-0.96628405,0,0)"
       width="67.780228"
       height="123.55202"
       rx="7.013833"
       ry="7.9981551"
       x="-117.03729"
       y="-337.9332"
       id="rect5941"
       style="fill:#efdaa2;fill-opacity:1;stroke:none" />
    <path
       inkscape:connector-curvature="0"
       d="m 138.05175,322.73762 a 4.6142773,33.315711 74.829588 1 1 64.31088,-17.43144 4.6142773,33.315711 74.829588 0 1 -64.31088,17.43144 z"
       id="path5951"
       style="fill:#efdaa2;fill-opacity:1;stroke:none" />
  </g>
</svg>
