<?xml version="1.0" encoding="UTF-8" standalone="no"?>
<!-- Created using Karbon, part of Calligra: http://www.calligra.org/karbon -->

<svg
   xmlns:dc="http://purl.org/dc/elements/1.1/"
   xmlns:cc="http://creativecommons.org/ns#"
   xmlns:rdf="http://www.w3.org/1999/02/22-rdf-syntax-ns#"
   xmlns:svg="http://www.w3.org/2000/svg"
   xmlns="http://www.w3.org/2000/svg"
   xmlns:sodipodi="http://sodipodi.sourceforge.net/DTD/sodipodi-0.dtd"
   xmlns:inkscape="http://www.inkscape.org/namespaces/inkscape"
   width="38.4pt"
   height="38.4pt"
   id="svg2"
   version="1.1"
   inkscape:version="0.48.5 r10040"
   sodipodi:docname="utilities-desktop-extra.svg">
  <metadata
     id="metadata17">
    <rdf:RDF>
      <cc:Work
         rdf:about="">
        <dc:format>image/svg+xml</dc:format>
        <dc:type
           rdf:resource="http://purl.org/dc/dcmitype/StillImage" />
      </cc:Work>
    </rdf:RDF>
  </metadata>
  <sodipodi:namedview
     pagecolor="#ffffff"
     bordercolor="#666666"
     borderopacity="1"
     objecttolerance="10"
     gridtolerance="10"
     guidetolerance="10"
     inkscape:pageopacity="0"
     inkscape:pageshadow="2"
     inkscape:window-width="1920"
     inkscape:window-height="1031"
     id="namedview15"
     showgrid="false"
     inkscape:zoom="4.9166667"
     inkscape:cx="-35.389831"
     inkscape:cy="24"
     inkscape:window-x="-4"
     inkscape:window-y="32"
     inkscape:window-maximized="1"
     inkscape:current-layer="svg2" />
  <defs
     id="defs4">
    <clipPath
       id="clipPath-983183359">
      <g
         transform="translate(0,-1004.3622)"
         id="g17">
        <path
           style="fill:#1890d0"
           inkscape:connector-curvature="0"
           d="m -24,13 c 0,1.105 -0.672,2 -1.5,2 -0.828,0 -1.5,-0.895 -1.5,-2 0,-1.105 0.672,-2 1.5,-2 0.828,0 1.5,0.895 1.5,2 z"
           transform="matrix(15.333333,0,0,11.5,414.99999,878.8622)"
           id="path19" />
      </g>
    </clipPath>
  </defs>
  <path
     style="fill:#198db8;fill-rule:evenodd;fill-opacity:1"
     inkscape:connector-curvature="0"
     id="path4"
     d="M 43.99937,24.0005 C 43.99937,35.04636 35.04474,44 23.99969,44 12.95372,44 4,35.04545 4,24.0005 4,12.95464 12.95463,4.001 23.99969,4.001 c 11.04596,0 19.99968,8.95455 19.99968,19.9995" />
  <path
     sodipodi:type="arc"
     style="fill:#ffffff;fill-opacity:1;fill-rule:evenodd;stroke:none"
     id="path3093"
     sodipodi:cx="50.907818"
     sodipodi:cy="60.615643"
     sodipodi:rx="16.436605"
     sodipodi:ry="17.121464"
     d="m 67.344423,60.615643 a 16.436605,17.121464 0 1 1 -32.873211,0 16.436605,17.121464 0 1 1 32.873211,0 z"
     transform="matrix(0.32397665,0,0,0.32397665,7.3321321,10.814993)" />
  <path
     transform="matrix(0.19438599,0,0,0.19438599,13.92931,8.4894771)"
     d="m 67.344423,60.615643 a 16.436605,17.121464 0 1 1 -32.873211,0 16.436605,17.121464 0 1 1 32.873211,0 z"
     sodipodi:ry="17.121464"
     sodipodi:rx="16.436605"
     sodipodi:cy="60.615643"
     sodipodi:cx="50.907818"
     id="path3095"
     style="fill:#ffffff;fill-opacity:1;fill-rule:evenodd;stroke:none"
     sodipodi:type="arc" />
  <path
     sodipodi:type="arc"
     style="fill:#ffffff;fill-opacity:1;fill-rule:evenodd;stroke:none"
     id="path3097"
     sodipodi:cx="50.907818"
     sodipodi:cy="60.615643"
     sodipodi:rx="16.436605"
     sodipodi:ry="17.121464"
     d="m 67.344423,60.615643 a 16.436605,17.121464 0 1 1 -32.873211,0 16.436605,17.121464 0 1 1 32.873211,0 z"
     transform="matrix(0.12527097,0,0,0.12527097,17.447804,5.5514421)" />
</svg>
