<?xml version="1.0" encoding="UTF-8" standalone="no"?>
<!-- Created with Inkscape (http://www.inkscape.org/) -->

<svg
   xmlns:dc="http://purl.org/dc/elements/1.1/"
   xmlns:cc="http://creativecommons.org/ns#"
   xmlns:rdf="http://www.w3.org/1999/02/22-rdf-syntax-ns#"
   xmlns:svg="http://www.w3.org/2000/svg"
   xmlns="http://www.w3.org/2000/svg"
   xmlns:sodipodi="http://sodipodi.sourceforge.net/DTD/sodipodi-0.dtd"
   xmlns:inkscape="http://www.inkscape.org/namespaces/inkscape"
   width="48"
   height="48"
   id="svg2"
   version="1.1"
   inkscape:version="0.48.5 r10040"
   sodipodi:docname="virt-manager.svg"
   inkscape:export-filename="/home/uri/workspace/NitruxforAndroid/res/drawable-xhdpi/downloads.png"
   inkscape:export-xdpi="180"
   inkscape:export-ydpi="180">
  <defs
     id="defs4">
    <clipPath
       id="clipPath-162844874">
      <g
         transform="translate(0,-1004.3622)"
         id="g17">
        <path
           style="fill:#1890d0"
           inkscape:connector-curvature="0"
           d="m -24,13 c 0,1.105 -0.672,2 -1.5,2 -0.828,0 -1.5,-0.895 -1.5,-2 0,-1.105 0.672,-2 1.5,-2 0.828,0 1.5,0.895 1.5,2 z"
           transform="matrix(15.333333,0,0,11.5,414.99999,878.8622)"
           id="path19" />
      </g>
    </clipPath>
    <clipPath
       id="clipPath-156981671">
      <g
         transform="translate(0,-1004.3622)"
         id="g12">
        <path
           style="fill:#1890d0"
           inkscape:connector-curvature="0"
           d="m -24,13 c 0,1.105 -0.672,2 -1.5,2 -0.828,0 -1.5,-0.895 -1.5,-2 0,-1.105 0.672,-2 1.5,-2 0.828,0 1.5,0.895 1.5,2 z"
           transform="matrix(15.333333,0,0,11.5,414.99999,878.8622)"
           id="path14" />
      </g>
    </clipPath>
    <linearGradient
       id="linearGradient3764"
       x1="1"
       x2="47"
       gradientUnits="userSpaceOnUse"
       gradientTransform="matrix(0,-1,1,0,-1.5e-6,47.999998)">
      <stop
         stop-color="#239523"
         stop-opacity="1"
         id="stop7" />
      <stop
         offset="1"
         stop-color="#27a427"
         stop-opacity="1"
         id="stop9" />
    </linearGradient>
  </defs>
  <sodipodi:namedview
     id="base"
     pagecolor="#ffffff"
     bordercolor="#666666"
     borderopacity="1.0"
     inkscape:pageopacity="0.0"
     inkscape:pageshadow="2"
     inkscape:zoom="12.653506"
     inkscape:cx="60.6878"
     inkscape:cy="19.367245"
     inkscape:document-units="px"
     inkscape:current-layer="layer1"
     showgrid="false"
     inkscape:window-width="1920"
     inkscape:window-height="988"
     inkscape:window-x="-3"
     inkscape:window-y="26"
     inkscape:window-maximized="1"
     showguides="true"
     inkscape:object-paths="true"
     inkscape:snap-intersection-paths="true"
     inkscape:snap-smooth-nodes="true"
     inkscape:guide-bbox="true">
    <inkscape:grid
       type="xygrid"
       id="grid3850" />
    <sodipodi:guide
       position="4,44.000017"
       orientation="40,0"
       id="guide4110" />
    <sodipodi:guide
       position="4,4.0000174"
       orientation="0,40"
       id="guide4112" />
    <sodipodi:guide
       position="44,4.0000174"
       orientation="-40,0"
       id="guide4114" />
    <sodipodi:guide
       position="44,44.000017"
       orientation="0,-40"
       id="guide4116" />
    <sodipodi:guide
       position="8.999999,39.000017"
       orientation="30,0"
       id="guide4124" />
    <sodipodi:guide
       position="8.999999,9.0000174"
       orientation="0,30.000001"
       id="guide4126" />
    <sodipodi:guide
       position="39,9.0000174"
       orientation="-30,0"
       id="guide4128" />
    <sodipodi:guide
       position="39,39.000017"
       orientation="0,-30.000001"
       id="guide4130" />
    <sodipodi:guide
       position="14.999999,33.000017"
       orientation="18,0"
       id="guide4134" />
    <sodipodi:guide
       position="14.999999,15.000017"
       orientation="0,18.000001"
       id="guide4136" />
    <sodipodi:guide
       position="33,15.000017"
       orientation="-18,0"
       id="guide4138" />
    <sodipodi:guide
       position="33,33.000017"
       orientation="0,-18.000001"
       id="guide4140" />
  </sodipodi:namedview>
  <metadata
     id="metadata7">
    <rdf:RDF>
      <cc:Work
         rdf:about="">
        <dc:format>image/svg+xml</dc:format>
        <dc:type
           rdf:resource="http://purl.org/dc/dcmitype/StillImage" />
        <dc:title />
      </cc:Work>
    </rdf:RDF>
  </metadata>
  <g
     inkscape:label="Capa 1"
     inkscape:groupmode="layer"
     id="layer1"
     transform="translate(0,-1004.3622)">
    <path
       style="fill:#5c805a;fill-rule:evenodd"
       inkscape:connector-curvature="0"
       id="path8"
       d="m 43.999318,1028.3619 c 0,11.0454 -8.953847,19.9996 -19.999659,19.9996 C 12.953847,1048.3615 4,1039.4077 4,1028.3619 c 0,-11.0459 8.953847,-19.9997 19.999659,-19.9997 11.045812,0 19.999659,8.9538 19.999659,19.9997" />
    <path
       inkscape:connector-curvature="0"
       id="path3587"
       style="opacity:0.25;color:#000000;fill-rule:evenodd"
       d="m 12.490102,1017.077 c -1.004962,0 -1.812951,0.851 -1.812951,1.9072 v 1.95 c 0,0.5457 0.215372,1.0376 0.562431,1.3846 l 3.431672,3.4317 h -2.181225 c -1.004962,0 -1.812951,0.8481 -1.812951,1.9043 v 1.9528 c 0,0.545 0.216194,1.0356 0.562431,1.3819 l 3.434595,3.4346 h -2.184057 c -1.004962,0 -1.812951,0.848 -1.812951,1.9043 v 1.95 c 0,0.5456 0.215372,1.0375 0.562431,1.3846 l 8.168149,8.1682 c 1.474188,0.3463 3.010958,0.531 4.59085,0.531 11.045447,0 19.999659,-8.9541 19.999659,-19.9997 0,-1.5819 -0.183863,-3.1205 -0.531031,-4.5965 l -6.166813,-6.1668 c -0.324712,-0.3247 -0.764731,-0.5225 -1.250538,-0.5225 H 12.489837 z" />
    <path
       inkscape:connector-curvature="0"
       id="rect3476"
       style="color:#000000;fill:#ffffff;fill-rule:evenodd"
       d="m 12.490102,1017.077 c -1.004962,0 -1.812951,0.851 -1.812951,1.9072 v 1.95 c 0,1.0562 0.807971,1.9071 1.812951,1.9071 h 23.559966 c 1.004962,0 1.812951,-0.8509 1.812951,-1.9071 v -1.95 c 0,-1.0562 -0.807962,-1.9072 -1.812951,-1.9072 H 12.490102 z m 8.62495,0.828 c 0.364043,0 0.656652,0.3083 0.656652,0.6909 v 2.7266 c 0,0.3826 -0.292609,0.6909 -0.656652,0.6909 -0.364043,0 -0.656651,-0.3083 -0.656651,-0.6909 v -2.7266 c 0,-0.3826 0.292608,-0.6909 0.656651,-0.6909 z m 2.76931,0 c 0.364043,0 0.656652,0.3083 0.656652,0.6909 v 2.7266 c 0,0.3826 -0.292609,0.6909 -0.656652,0.6909 -0.364043,0 -0.656651,-0.3083 -0.656651,-0.6909 v -2.7266 c 0,-0.3826 0.292608,-0.6909 0.656651,-0.6909 z m 2.766478,0 c 0.364043,0 0.656651,0.3083 0.656651,0.6909 v 2.7266 c 0,0.3826 -0.292608,0.6909 -0.656651,0.6909 -0.364043,0 -0.656651,-0.3083 -0.656651,-0.6909 v -2.7266 c 0,-0.3826 0.292608,-0.6909 0.656651,-0.6909 z m 2.766478,0 c 0.364043,0 0.659511,0.3083 0.659511,0.6909 v 2.7266 c 0,0.3826 -0.295459,0.6909 -0.659511,0.6909 -0.364043,0 -0.653792,-0.3083 -0.653792,-0.6909 v -2.7266 c 0,-0.3826 0.289749,-0.6909 0.653792,-0.6909 z m -15.211471,0.7908 c 0.663622,0 1.201934,0.5673 1.201934,1.2648 0,0.6975 -0.53834,1.2619 -1.201934,1.2619 -0.663623,0 -1.201935,-0.5645 -1.201935,-1.2619 0,-0.6974 0.53834,-1.2648 1.201935,-1.2648 z m -1.715836,7.0548 c -1.004962,0 -1.812952,0.8481 -1.812952,1.9043 v 1.9528 c 0,1.0562 0.807972,1.9043 1.812952,1.9043 h 23.559965 c 1.004962,0 1.812952,-0.8481 1.812952,-1.9043 v -1.9528 c 0,-1.0562 -0.807962,-1.9043 -1.812952,-1.9043 H 12.490011 z m 8.62495,0.8279 c 0.364043,0 0.656651,0.3083 0.656651,0.6909 v 2.7237 c 0,0.3826 -0.292608,0.6909 -0.656651,0.6909 -0.364043,0 -0.656652,-0.3083 -0.656652,-0.6909 v -2.7237 c 0,-0.3826 0.292609,-0.6909 0.656652,-0.6909 z m 2.76931,0 c 0.364043,0 0.656651,0.3083 0.656651,0.6909 v 2.7237 c 0,0.3826 -0.292608,0.6909 -0.656651,0.6909 -0.364043,0 -0.656651,-0.3083 -0.656651,-0.6909 v -2.7237 c 0,-0.3826 0.292608,-0.6909 0.656651,-0.6909 z m 2.766478,0 c 0.364043,0 0.656651,0.3083 0.656651,0.6909 v 2.7237 c 0,0.3826 -0.292608,0.6909 -0.656651,0.6909 -0.364043,0 -0.656652,-0.3083 -0.656652,-0.6909 v -2.7237 c 0,-0.3826 0.292609,-0.6909 0.656652,-0.6909 z m 2.766478,0 c 0.364043,0 0.65951,0.3083 0.65951,0.6909 v 2.7237 c 0,0.3826 -0.295458,0.6909 -0.65951,0.6909 -0.364043,0 -0.653792,-0.3083 -0.653792,-0.6909 v -2.7237 c 0,-0.3826 0.289749,-0.6909 0.653792,-0.6909 z m -15.211472,0.7909 c 0.664189,0 1.2023,0.5646 1.2023,1.2616 0,0.6975 -0.53834,1.2619 -1.201934,1.2619 -0.663622,0 -1.201935,-0.5644 -1.201935,-1.2619 0,-0.6974 0.53834,-1.2618 1.201935,-1.2618 z m -1.715835,7.0547 c -1.004963,0 -1.812952,0.8481 -1.812952,1.9043 v 1.95 c 0,1.0562 0.807971,1.9071 1.812952,1.9071 h 23.559965 c 1.004962,0 1.812951,-0.8509 1.812951,-1.9071 v -1.95 c 0,-1.0562 -0.807962,-1.9043 -1.812951,-1.9043 H 12.48992 z m 8.624949,0.8279 c 0.364043,0 0.656652,0.3084 0.656652,0.691 v 2.7236 c 0,0.3826 -0.292609,0.6909 -0.656652,0.6909 -0.364042,0 -0.656651,-0.3083 -0.656651,-0.6909 v -2.7236 c 0,-0.3826 0.292609,-0.691 0.656651,-0.691 z m 2.76931,0 c 0.364043,0 0.656652,0.3084 0.656652,0.691 v 2.7236 c 0,0.3826 -0.292609,0.6909 -0.656652,0.6909 -0.364042,0 -0.656651,-0.3083 -0.656651,-0.6909 v -2.7236 c 0,-0.3826 0.292609,-0.691 0.656651,-0.691 z m 2.766478,0 c 0.364043,0 0.656652,0.3084 0.656652,0.691 v 2.7236 c 0,0.3826 -0.292609,0.6909 -0.656652,0.6909 -0.364043,0 -0.656651,-0.3083 -0.656651,-0.6909 v -2.7236 c 0,-0.3826 0.292608,-0.691 0.656651,-0.691 z m 2.766478,0 c 0.364043,0 0.659511,0.3084 0.659511,0.691 v 2.7236 c 0,0.3826 -0.295459,0.6909 -0.659511,0.6909 -0.364043,0 -0.653792,-0.3083 -0.653792,-0.6909 v -2.7236 c 0,-0.3826 0.289749,-0.691 0.653792,-0.691 z m -15.211471,0.7909 c 0.663622,0 1.201935,0.5644 1.201935,1.2618 0,0.6975 -0.53834,1.2619 -1.201935,1.2619 -0.663622,0 -1.201935,-0.5644 -1.201935,-1.2619 0,-0.6974 0.53834,-1.2618 1.201935,-1.2618 z" />
  </g>
</svg>
