<?xml version="1.0" encoding="UTF-8" standalone="no"?>
<!-- Created with Inkscape (http://www.inkscape.org/) -->

<svg
   xmlns:dc="http://purl.org/dc/elements/1.1/"
   xmlns:cc="http://creativecommons.org/ns#"
   xmlns:rdf="http://www.w3.org/1999/02/22-rdf-syntax-ns#"
   xmlns:svg="http://www.w3.org/2000/svg"
   xmlns="http://www.w3.org/2000/svg"
   xmlns:xlink="http://www.w3.org/1999/xlink"
   xmlns:sodipodi="http://sodipodi.sourceforge.net/DTD/sodipodi-0.dtd"
   xmlns:inkscape="http://www.inkscape.org/namespaces/inkscape"
   width="48"
   height="48.000019"
   id="svg2"
   version="1.1"
   inkscape:version="0.48.5 r10040"
   sodipodi:docname="xsane.svg">
  <defs
     id="defs4" />
  <sodipodi:namedview
     id="base"
     pagecolor="#ffffff"
     bordercolor="#666666"
     borderopacity="1.0"
     inkscape:pageopacity="0.0"
     inkscape:pageshadow="2"
     inkscape:zoom="4.03125"
     inkscape:cx="13.672208"
     inkscape:cy="37.241738"
     inkscape:document-units="px"
     inkscape:current-layer="layer1"
     showgrid="false"
     fit-margin-top="0"
     fit-margin-left="0"
     fit-margin-right="0"
     fit-margin-bottom="0"
     inkscape:window-width="1920"
     inkscape:window-height="1025"
     inkscape:window-x="-4"
     inkscape:window-y="39"
     inkscape:window-maximized="1">
    <inkscape:grid
       type="xygrid"
       id="grid894" />
    <sodipodi:guide
       position="6.9999928,44.000018"
       orientation="40,0"
       id="guide4133" />
    <sodipodi:guide
       position="6.9999928,4.0000181"
       orientation="0,34"
       id="guide4135" />
    <sodipodi:guide
       position="40.999993,4.0000181"
       orientation="-40,0"
       id="guide4137" />
    <sodipodi:guide
       position="40.999993,44.000018"
       orientation="0,-34"
       id="guide4139" />
    <sodipodi:guide
       position="6.9999928,44.000018"
       orientation="40,0"
       id="guide4141" />
    <sodipodi:guide
       position="6.9999928,4.0000181"
       orientation="0,8.8999939"
       id="guide4143" />
    <sodipodi:guide
       position="15.899987,4.0000181"
       orientation="-40,0"
       id="guide4145" />
    <sodipodi:guide
       position="15.899987,44.000018"
       orientation="0,-8.8999939"
       id="guide4147" />
    <sodipodi:guide
       position="6.9999928,44.000018"
       orientation="40,0"
       id="guide4149" />
    <sodipodi:guide
       position="6.9999928,4.0000181"
       orientation="0,34"
       id="guide4151" />
    <sodipodi:guide
       position="40.999993,4.0000181"
       orientation="-40,0"
       id="guide4153" />
    <sodipodi:guide
       position="40.999993,44.000018"
       orientation="0,-34"
       id="guide4155" />
    <sodipodi:guide
       position="6.9999928,44.000018"
       orientation="40,0"
       id="guide4157" />
    <sodipodi:guide
       position="6.9999928,4.0000181"
       orientation="0,9"
       id="guide4159" />
    <sodipodi:guide
       position="15.999993,4.0000181"
       orientation="-40,0"
       id="guide4161" />
    <sodipodi:guide
       position="15.999993,44.000018"
       orientation="0,-9"
       id="guide4163" />
    <sodipodi:guide
       position="32,44.000009"
       orientation="0,9"
       id="guide4165" />
    <sodipodi:guide
       position="41,44.000009"
       orientation="11,0"
       id="guide4167" />
    <sodipodi:guide
       position="41,33.000009"
       orientation="-2.99998,-4.5"
       id="guide4169" />
    <sodipodi:guide
       position="36.5,35.999989"
       orientation="2.99998,-4.5"
       id="guide4171" />
    <sodipodi:guide
       position="32,33.000009"
       orientation="-11,0"
       id="guide4173" />
  </sodipodi:namedview>
  <metadata
     id="metadata7">
    <rdf:RDF>
      <cc:Work
         rdf:about="">
        <dc:format>image/svg+xml</dc:format>
        <dc:type
           rdf:resource="http://purl.org/dc/dcmitype/StillImage" />
        <dc:title />
      </cc:Work>
    </rdf:RDF>
  </metadata>
  <g
     inkscape:label="Capa 1"
     inkscape:groupmode="layer"
     id="layer1"
     transform="translate(-353.14286,-439.79074)">
    <path
       id="path8"
       d="m 397.13633,463.78681 c 0,11.04433 -8.95331,19.99673 -19.99673,19.99673 -11.04434,0 -19.99674,-8.95331 -19.99674,-19.99673 0,-11.04434 8.95331,-19.99674 19.99674,-19.99674 11.04433,0 19.99673,8.95331 19.99673,19.99674"
       inkscape:connector-curvature="0"
       style="fill:#0f74aa;fill-rule:evenodd" />
    <path
       id="path10"
       d="m 373.63811,454.36213 c -1.55169,0.006 -2.6447,0.0238 -2.83188,0.0514 -0.48745,0.072 -1.02057,0.40533 -2.74328,1.71567 -1.17577,0.89432 -2.67959,2.02799 -3.34289,2.51791 -1.35382,1.00056 -1.64203,1.41941 -1.3646,1.99546 0.0492,0.10214 0.11994,0.1923 0.21413,0.27123 0.0281,0.0316 0.0572,0.0628 0.0914,0.0914 0.0289,0.0325 0.0588,0.0649 0.0942,0.0942 0.0226,0.025 0.0478,0.0482 0.0743,0.0714 0.0271,0.0322 0.0581,0.0623 0.0914,0.0913 0.0269,0.0318 0.0584,0.0625 0.0914,0.0914 0.0312,0.0367 0.0637,0.0728 0.10277,0.1056 0.028,0.0316 0.0572,0.0628 0.0913,0.0913 0.0281,0.0316 0.0572,0.0628 0.0914,0.0914 0.0281,0.0316 0.0572,0.0598 0.0914,0.0885 0.0228,0.0258 0.0473,0.0504 0.0743,0.0743 0.0278,0.0332 0.06,0.0643 0.0942,0.0942 0.0312,0.0367 0.0637,0.0728 0.10278,0.10561 0.028,0.0316 0.0572,0.0628 0.0913,0.0914 0.0281,0.0316 0.0572,0.0628 0.0914,0.0914 0.0289,0.0325 0.0588,0.0649 0.0942,0.0942 0.0226,0.025 0.0478,0.0482 0.0743,0.0714 0.0271,0.0322 0.0581,0.0623 0.0914,0.0913 0.0269,0.0318 0.0584,0.0625 0.0914,0.0914 0.0312,0.0367 0.0637,0.0728 0.10278,0.10561 0.0281,0.0316 0.0572,0.0628 0.0914,0.0914 0.0289,0.0325 0.0588,0.0649 0.0942,0.0942 0.0226,0.025 0.0478,0.0482 0.0743,0.0714 0.0271,0.0322 0.0581,0.0623 0.0914,0.0914 0.0269,0.0318 0.0584,0.0625 0.0913,0.0914 0.0312,0.0367 0.0637,0.0728 0.10277,0.1056 0.0281,0.0316 0.0572,0.0628 0.0914,0.0914 0.0289,0.0325 0.0588,0.0649 0.0942,0.0942 0.0269,0.03 0.056,0.0584 0.0885,0.0857 0.0228,0.0258 0.0473,0.0504 0.0743,0.0743 0.0278,0.0332 0.06,0.0643 0.0942,0.0942 0.0311,0.0367 0.0637,0.0728 0.10277,0.1056 0.028,0.0316 0.0572,0.0628 0.0913,0.0914 0.0281,0.0316 0.0572,0.0628 0.0914,0.0914 0.0136,0.0154 0.0278,0.031 0.0428,0.0457 -0.53441,1.1375 -1.14664,2.43651 -1.66999,3.53419 -0.40569,0.85093 -0.78105,1.68013 -0.83039,1.84164 -0.13611,0.44287 1.46253,3.49783 2.10382,4.05689 0.0239,0.0256 0.0465,0.0482 0.0685,0.0685 0.0316,0.0349 0.0629,0.065 0.0914,0.0914 0.0397,0.0439 0.0796,0.0812 0.11419,0.11136 0.0351,0.0375 0.0662,0.0709 0.0971,0.0971 0.0298,0.0315 0.0561,0.0624 0.0828,0.0857 0.0319,0.0341 0.0629,0.0666 0.0914,0.0914 0.0319,0.0341 0.0629,0.0666 0.0914,0.0914 0.0238,0.0254 0.0467,0.0482 0.0685,0.0685 0.0397,0.0439 0.0796,0.0812 0.11419,0.11135 0.0319,0.0341 0.0629,0.0666 0.0914,0.0914 0.0319,0.0341 0.0601,0.0666 0.0885,0.0914 0.0319,0.0341 0.0629,0.0666 0.0913,0.0914 0.0319,0.0341 0.063,0.0666 0.0914,0.0914 0.0239,0.0254 0.0467,0.0482 0.0685,0.0685 0.0397,0.0439 0.0796,0.0812 0.11419,0.11137 0.0319,0.0341 0.0629,0.0666 0.0913,0.0913 0.0319,0.0341 0.0601,0.0666 0.0885,0.0914 0.0319,0.0341 0.0629,0.0666 0.0913,0.0914 0.0319,0.0341 0.063,0.0666 0.0914,0.0914 0.0239,0.0256 0.0465,0.0481 0.0685,0.0685 0.0397,0.0439 0.0796,0.0812 0.11418,0.11136 0.0319,0.0341 0.063,0.0666 0.0914,0.0913 0.0351,0.0375 0.0662,0.0709 0.0971,0.0971 0.0298,0.0315 0.0561,0.0624 0.0828,0.0857 0.0319,0.0341 0.063,0.0666 0.0914,0.0914 0.0239,0.0256 0.0465,0.0481 0.0685,0.0685 0.0316,0.0349 0.0629,0.065 0.0913,0.0914 0.0397,0.0438 0.0796,0.0812 0.11419,0.11135 0.0332,0.0354 0.062,0.0689 0.0914,0.0942 0.0314,0.0334 0.0605,0.0641 0.0885,0.0885 0.0319,0.0341 0.0629,0.0666 0.0914,0.0913 0.0319,0.0341 0.0629,0.0666 0.0913,0.0914 0.0238,0.0254 0.0466,0.0482 0.0685,0.0685 0.0397,0.0439 0.0796,0.0812 0.1142,0.11135 0.0319,0.0341 0.0629,0.0666 0.0913,0.0914 0.0319,0.0341 0.0601,0.0666 0.0885,0.0914 0.0319,0.0341 0.0629,0.0666 0.0914,0.0914 0.0319,0.0341 0.0629,0.0666 0.0914,0.0914 0.0238,0.0254 0.0466,0.0482 0.0685,0.0685 0.0397,0.0439 0.0796,0.0812 0.11419,0.11135 0.0319,0.0341 0.0629,0.0666 0.0914,0.0914 0.0351,0.0375 0.0662,0.0709 0.0971,0.0971 0.0298,0.0315 0.0561,0.0624 0.0828,0.0857 0.0319,0.0341 0.063,0.0666 0.0914,0.0914 0.0239,0.0256 0.0465,0.0481 0.0685,0.0685 0.0316,0.0349 0.0629,0.0651 0.0914,0.0914 0.0397,0.0439 0.0796,0.0812 0.11419,0.11136 0.0351,0.0375 0.0662,0.0709 0.0971,0.0971 0.0298,0.0315 0.0561,0.0624 0.0828,0.0857 0.0319,0.0341 0.063,0.0666 0.0914,0.0914 0.0319,0.0341 0.0629,0.0666 0.0914,0.0914 0.0238,0.0254 0.0466,0.0482 0.0685,0.0685 0.0397,0.0439 0.0796,0.0812 0.11419,0.11136 0.0319,0.0341 0.0629,0.0666 0.0914,0.0913 0.0319,0.0341 0.0601,0.0666 0.0885,0.0914 0.0319,0.0341 0.0629,0.0666 0.0914,0.0914 0.0319,0.0341 0.0629,0.0666 0.0913,0.0914 0.0239,0.0254 0.0466,0.0482 0.0685,0.0685 0.0397,0.0438 0.0796,0.0812 0.11419,0.11136 0.0319,0.0341 0.0629,0.0666 0.0914,0.0914 0.0319,0.0341 0.0601,0.0666 0.0885,0.0914 0.0319,0.0341 0.0629,0.0666 0.0914,0.0914 0.0319,0.0341 0.0629,0.0666 0.0913,0.0914 0.0239,0.0256 0.0465,0.0481 0.0685,0.0685 0.0397,0.0439 0.0796,0.0811 0.11419,0.11135 0.0319,0.0341 0.0629,0.0666 0.0913,0.0914 0.0351,0.0375 0.0662,0.0709 0.0971,0.0971 0.0298,0.0315 0.0561,0.0624 0.0828,0.0857 0.0319,0.0341 0.063,0.0666 0.0914,0.0914 0.0239,0.0256 0.0465,0.0482 0.0685,0.0685 0.0316,0.0349 0.0629,0.065 0.0913,0.0914 0.0397,0.0439 0.0796,0.0811 0.11419,0.11136 0.0332,0.0354 0.062,0.0689 0.0914,0.0942 0.0314,0.0334 0.0605,0.0641 0.0885,0.0885 0.0319,0.0341 0.063,0.0666 0.0914,0.0914 0.0319,0.0341 0.0629,0.0666 0.0914,0.0914 0.0238,0.0254 0.0466,0.0482 0.0685,0.0685 0.0397,0.0439 0.0796,0.0811 0.1142,0.11137 0.0319,0.0341 0.0629,0.0666 0.0914,0.0914 0.0319,0.0341 0.0601,0.0666 0.0885,0.0914 0.0319,0.0341 0.063,0.0666 0.0914,0.0914 0.0319,0.0341 0.0629,0.0666 0.0914,0.0914 0.0238,0.0254 0.0466,0.0482 0.0685,0.0685 0.0397,0.0439 0.0796,0.0811 0.11419,0.11136 0.0319,0.0341 0.0629,0.0666 0.0913,0.0913 0.0351,0.0375 0.0662,0.0709 0.0971,0.0971 0.0298,0.0315 0.0561,0.0624 0.0828,0.0857 0.0319,0.0341 0.0629,0.0666 0.0913,0.0914 0.0239,0.0256 0.0465,0.0481 0.0685,0.0685 0.0316,0.0349 0.0629,0.0651 0.0914,0.0914 0.0397,0.0439 0.0796,0.0811 0.11418,0.11135 0.0351,0.0375 0.0662,0.0709 0.0971,0.0971 0.0298,0.0315 0.0561,0.0624 0.0828,0.0857 0.0319,0.0341 0.063,0.0666 0.0914,0.0914 0.0239,0.0256 0.0465,0.0481 0.0685,0.0685 0.0316,0.0349 0.0629,0.065 0.0914,0.0914 0.0397,0.0438 0.0796,0.0811 0.1142,0.11135 0.0319,0.0341 0.063,0.0666 0.0914,0.0914 0.0319,0.0341 0.0601,0.0666 0.0885,0.0913 0.0319,0.0341 0.063,0.0666 0.0914,0.0914 0.0319,0.0341 0.0629,0.0666 0.0914,0.0914 0.0238,0.0254 0.0466,0.0482 0.0685,0.0685 0.0397,0.0439 0.0796,0.0811 0.11419,0.11135 0.0319,0.0341 0.0629,0.0666 0.0914,0.0914 0.0319,0.0341 0.0601,0.0666 0.0885,0.0914 0.0319,0.0341 0.063,0.0666 0.0914,0.0914 0.0319,0.0341 0.0629,0.0666 0.0913,0.0914 0.0239,0.0254 0.0466,0.0482 0.0685,0.0685 0.0397,0.0439 0.0796,0.0811 0.11419,0.11136 0.0319,0.0341 0.0629,0.0666 0.0913,0.0914 0.0351,0.0375 0.0662,0.0709 0.0971,0.0971 0.0298,0.0315 0.0561,0.0624 0.0828,0.0857 0.0319,0.0341 0.0629,0.0666 0.0914,0.0914 0.0239,0.0256 0.0465,0.0481 0.0685,0.0685 0.0158,0.0175 0.0303,0.0305 0.0457,0.0457 0.17905,0.005 0.35645,0.009 0.53669,0.009 10.49532,0 19.10241,-8.08547 19.93187,-18.36704 -0.009,-0.008 -0.0131,-0.0136 -0.0228,-0.0228 -0.0254,-0.0283 -0.061,-0.0612 -0.10561,-0.10276 -0.0226,-0.0239 -0.0514,-0.0536 -0.0857,-0.0857 -0.0235,-0.0253 -0.054,-0.0564 -0.0914,-0.0914 -0.0216,-0.0233 -0.0494,-0.0513 -0.0828,-0.0828 -0.0207,-0.023 -0.0465,-0.051 -0.0799,-0.0828 -0.0234,-0.027 -0.0572,-0.0596 -0.0999,-0.0999 -0.0254,-0.0283 -0.061,-0.0612 -0.1056,-0.10278 -0.0226,-0.0239 -0.0514,-0.0536 -0.0857,-0.0857 -0.0235,-0.0253 -0.054,-0.0564 -0.0914,-0.0914 -0.0216,-0.0233 -0.0494,-0.0513 -0.0828,-0.0828 -0.0208,-0.0231 -0.0492,-0.0509 -0.0828,-0.0828 -0.0234,-0.0267 -0.055,-0.0603 -0.0971,-0.0999 -0.0246,-0.0273 -0.0575,-0.0603 -0.0999,-0.1 -0.0233,-0.0251 -0.0545,-0.054 -0.0914,-0.0885 -0.0235,-0.0253 -0.054,-0.0564 -0.0914,-0.0914 -0.0216,-0.0233 -0.0494,-0.0513 -0.0828,-0.0828 -0.0208,-0.0231 -0.0492,-0.0509 -0.0828,-0.0828 -0.0234,-0.0267 -0.055,-0.0603 -0.0971,-0.0999 -0.0228,-0.0253 -0.0532,-0.0554 -0.0913,-0.0914 -0.0255,-0.0283 -0.061,-0.0612 -0.1056,-0.10276 -0.0226,-0.0239 -0.0514,-0.0536 -0.0857,-0.0857 -0.0235,-0.0253 -0.054,-0.0564 -0.0913,-0.0913 -0.0216,-0.0233 -0.0494,-0.0514 -0.0828,-0.0828 -0.0207,-0.023 -0.0465,-0.051 -0.0799,-0.0828 -0.0234,-0.0269 -0.0572,-0.0596 -0.0999,-0.0999 -0.0255,-0.0283 -0.061,-0.0612 -0.1056,-0.10277 -0.0226,-0.0239 -0.0514,-0.0536 -0.0857,-0.0857 -0.0235,-0.0253 -0.054,-0.0564 -0.0914,-0.0914 -0.0216,-0.0233 -0.0494,-0.0513 -0.0828,-0.0828 -0.016,-0.0177 -0.0365,-0.0342 -0.0599,-0.0571 -0.005,-0.005 -0.0117,-0.0122 -0.0172,-0.0172 -0.0236,-0.0278 -0.0569,-0.0652 -0.10277,-0.10853 -0.0255,-0.0283 -0.061,-0.0612 -0.1056,-0.10276 -0.0226,-0.0239 -0.0514,-0.0536 -0.0857,-0.0857 -0.0235,-0.0253 -0.054,-0.0564 -0.0914,-0.0914 -0.0216,-0.0233 -0.0494,-0.0513 -0.0828,-0.0828 -0.0208,-0.0231 -0.0492,-0.0509 -0.0828,-0.0828 -0.0234,-0.0267 -0.055,-0.0603 -0.0971,-0.0999 -0.0246,-0.0273 -0.0575,-0.0603 -0.0999,-0.0999 -0.0233,-0.0251 -0.0545,-0.054 -0.0914,-0.0885 -0.0235,-0.0253 -0.054,-0.0564 -0.0914,-0.0914 -0.0235,-0.0253 -0.054,-0.0564 -0.0913,-0.0914 -0.0216,-0.0233 -0.0494,-0.0513 -0.0828,-0.0828 -0.0207,-0.023 -0.0465,-0.051 -0.0799,-0.0828 -0.0234,-0.027 -0.0572,-0.0596 -0.0999,-0.1 -0.0255,-0.0283 -0.061,-0.0612 -0.1056,-0.10276 -0.0226,-0.0239 -0.0514,-0.0536 -0.0857,-0.0857 -0.0235,-0.0253 -0.054,-0.0564 -0.0913,-0.0914 -0.0216,-0.0233 -0.0494,-0.0513 -0.0828,-0.0828 -0.0208,-0.023 -0.0465,-0.051 -0.0799,-0.0828 -0.0234,-0.027 -0.0572,-0.0596 -0.0999,-0.1 -0.0255,-0.0283 -0.061,-0.0612 -0.1056,-0.10276 -0.0226,-0.0239 -0.0514,-0.0536 -0.0857,-0.0857 -0.0235,-0.0253 -0.054,-0.0564 -0.0914,-0.0913 -0.0216,-0.0233 -0.0494,-0.0514 -0.0828,-0.0828 -0.0208,-0.0231 -0.0492,-0.0509 -0.0828,-0.0828 -0.0234,-0.0267 -0.055,-0.0603 -0.0971,-0.0999 -0.0246,-0.0273 -0.0575,-0.0603 -0.0999,-0.0999 -0.0233,-0.0251 -0.0545,-0.054 -0.0914,-0.0885 -0.0235,-0.0253 -0.054,-0.0564 -0.0914,-0.0914 -0.0216,-0.0233 -0.0494,-0.0513 -0.0828,-0.0828 -0.0208,-0.0231 -0.0492,-0.0509 -0.0828,-0.0828 -0.0234,-0.0267 -0.055,-0.0603 -0.0971,-0.0999 -0.0228,-0.0253 -0.0532,-0.0554 -0.0914,-0.0914 -0.35919,-0.39929 -2.65101,-2.13761 -6.052,-4.59587 l -0.91069,-0.65946 c -0.0252,-1.8e-4 -6.4745,-0.0428 -6.4745,-0.0428 -0.89003,-0.006 -1.75302,-0.008 -2.55782,-0.009 -0.60338,-5.4e-4 -1.16994,-0.002 -1.68717,0"
       inkscape:connector-curvature="0"
       style="fill-opacity:0.23500001;fill-rule:evenodd" />
    <g
       style="fill:#ffffff;fill-rule:evenodd"
       id="g68"
       transform="matrix(0.09135101,0,0,0.09135101,354.02323,391.308)">
      <path
         inkscape:connector-curvature="0"
         d="m 214.71,690.23 c -16.986,0.064 -28.937,0.275 -30.985,0.577 -5.336,0.788 -11.163,4.419 -30.02,18.764 -12.871,9.79 -29.354,22.2 -36.615,27.569 -14.821,10.953 -17.953,15.538 -14.915,21.844 2.873,5.963 12.383,8.227 32.381,7.698 9.105,-0.241 16.553,-0.234 16.551,0 -0.003,0.462 -18.629,40.18 -31.563,67.31 -4.441,9.315 -8.55,18.396 -9.09,20.16 -1.541,5 17.15,40.451 23.672,44.89 l 5.1,3.464 h 116.92 c 103.67,0 117.54,-0.285 122.11,-2.454 4.36,-2.069 6.614,-5.412 14.627,-21.796 7.361,-15.05 9.285,-20.474 8.661,-24.15 -0.442,-2.605 -9.507,-22.855 -20.16,-45.03 -10.653,-22.18 -19.342,-40.654 -19.342,-41.04 0,-0.387 8.843,-0.954 19.679,-1.251 15.574,-0.426 20.593,-1.078 23.865,-3.224 5.71,-3.744 6.924,-9.596 3.079,-14.771 -2.603,-3.504 -28.18,-22.96 -66.64,-50.76 l -9.96,-7.217 -70.872,-0.481 c -9.743,-0.067 -19.2,-0.088 -28,-0.096 -6.605,-0.006 -12.814,-0.021 -18.476,0 m 132.17,76.26 c 0.638,-0.059 1.524,-0.014 2.598,0.144 4.01,0.589 5.249,2.324 11.451,15.541 16.03,34.16 24.507,51.993 25.885,54.56 0.806,1.501 3.131,6.54 5.196,11.211 3.731,8.437 3.723,8.498 0.722,11.499 -2.956,2.956 -5.829,3.03 -135.78,2.935 -75.33,-0.055 -134.29,-0.702 -136.26,-1.492 -1.905,-0.766 -3.464,-2.357 -3.464,-3.56 0,-1.204 8.352,-19.758 18.572,-41.23 10.22,-21.476 19.621,-41.32 20.93,-44.07 1.703,-3.583 3.432,-5 6.06,-5 92.22,-0.315 61.681,0.16 92.43,0 91.83,-0.679 6.02,0.169 91.66,-0.529"
         id="path70" />
      <path
         inkscape:connector-curvature="0"
         d="m 122.08,836.29 h 268.65 v 7.143 H 122.08 z"
         id="path72" />
    </g>
    <path
       style="fill:#ffffff;fill-rule:evenodd;stroke:#ffffff;stroke-width:0.09135101"
       inkscape:connector-curvature="0"
       d="m 388.07431,469.24046 c 0,0.31854 -0.25824,0.5767 -0.57669,0.5767 -0.31854,0 -0.57671,-0.25825 -0.57671,-0.5767 0,-0.31854 0.25826,-0.5767 0.57671,-0.5767 0.31854,0 0.57669,0.25825 0.57669,0.5767 z"
       id="0" />
    <use
       x="0"
       y="0"
       width="1"
       height="1"
       transform="matrix(0.68495,0,0,0.68495,120.22432,147.834)"
       xlink:href="#0"
       id="use75" />
  </g>
</svg>
