<?xml version="1.0" encoding="UTF-8" standalone="no"?>
<!-- Created with Inkscape (http://www.inkscape.org/) -->

<svg
   xmlns:dc="http://purl.org/dc/elements/1.1/"
   xmlns:cc="http://creativecommons.org/ns#"
   xmlns:rdf="http://www.w3.org/1999/02/22-rdf-syntax-ns#"
   xmlns:svg="http://www.w3.org/2000/svg"
   xmlns="http://www.w3.org/2000/svg"
   xmlns:xlink="http://www.w3.org/1999/xlink"
   xmlns:sodipodi="http://sodipodi.sourceforge.net/DTD/sodipodi-0.dtd"
   xmlns:inkscape="http://www.inkscape.org/namespaces/inkscape"
   width="48"
   height="48"
   id="svg2"
   version="1.1"
   inkscape:version="0.48.5 r10040"
   sodipodi:docname="accessories-text-editor.svg">
  <defs
     id="defs4">
    <linearGradient
       inkscape:collect="always"
       xlink:href="#linearGradient4161"
       id="linearGradient3086"
       gradientUnits="userSpaceOnUse"
       x1="72"
       y1="88"
       x2="72"
       y2="48" />
    <linearGradient
       id="linearGradient4161">
      <stop
         id="stop4163"
         style="stop-color:#737373;stop-opacity:1"
         offset="0" />
      <stop
         id="stop4165"
         style="stop-color:#989898;stop-opacity:1"
         offset="1" />
    </linearGradient>
    <linearGradient
       id="linearGradient3700">
      <stop
         id="stop3702"
         style="stop-color:#b5b5b5;stop-opacity:1"
         offset="0" />
      <stop
         id="stop3704"
         style="stop-color:#dedede;stop-opacity:1"
         offset="1" />
    </linearGradient>
    <linearGradient
       x1="84.25"
       y1="128.9995"
       x2="84.25"
       y2="216.5005"
       id="color_3_"
       gradientUnits="userSpaceOnUse">
      <stop
         id="stop48"
         style="stop-color:#d8d8d8;stop-opacity:1"
         offset="0" />
      <stop
         id="stop50"
         style="stop-color:#f9f9f9;stop-opacity:1"
         offset="1" />
    </linearGradient>
    <linearGradient
       id="linearGradient3325">
      <stop
         id="stop3327"
         style="stop-color:#f06805;stop-opacity:1"
         offset="0" />
      <stop
         id="stop3329"
         style="stop-color:#ffb03c;stop-opacity:1"
         offset="1" />
    </linearGradient>
    <linearGradient
       inkscape:collect="always"
       xlink:href="#linearGradient3325"
       id="linearGradient3062"
       gradientUnits="userSpaceOnUse"
       gradientTransform="matrix(0.47619926,0,0,0.47619048,127.88504,679.69609)"
       x1="24"
       y1="64"
       x2="24"
       y2="8" />
    <linearGradient
       inkscape:collect="always"
       xlink:href="#linearGradient3700"
       id="linearGradient3065"
       gradientUnits="userSpaceOnUse"
       gradientTransform="matrix(0.47619048,0,0,0.47619048,85.023817,680.43481)"
       x1="24"
       y1="88"
       x2="24"
       y2="48" />
    <linearGradient
       inkscape:collect="always"
       xlink:href="#color_3_"
       id="linearGradient3068"
       gradientUnits="userSpaceOnUse"
       gradientTransform="matrix(0.47619048,0,0,0.47619048,85.023817,680.43481)"
       x1="64"
       y1="64"
       x2="64"
       y2="8" />
    <linearGradient
       inkscape:collect="always"
       xlink:href="#linearGradient4161"
       id="linearGradient3071"
       gradientUnits="userSpaceOnUse"
       gradientTransform="matrix(0.47619048,0,0,0.47619048,85.023817,680.43481)"
       x1="72"
       y1="88"
       x2="72"
       y2="48" />
  </defs>
  <sodipodi:namedview
     id="base"
     pagecolor="#ffffff"
     bordercolor="#666666"
     borderopacity="1.0"
     inkscape:pageopacity="0.0"
     inkscape:pageshadow="2"
     inkscape:zoom="5.9179058"
     inkscape:cx="-15.262383"
     inkscape:cy="7.5080549"
     inkscape:document-units="px"
     inkscape:current-layer="layer1"
     showgrid="false"
     fit-margin-top="0"
     fit-margin-left="0"
     fit-margin-right="0"
     fit-margin-bottom="0"
     inkscape:window-width="1920"
     inkscape:window-height="1033"
     inkscape:window-x="-4"
     inkscape:window-y="30"
     inkscape:window-maximized="1">
    <sodipodi:guide
       position="8.9999928,39"
       orientation="30,0"
       id="guide3295" />
    <sodipodi:guide
       position="8.9999928,9"
       orientation="0,30"
       id="guide3297" />
    <sodipodi:guide
       position="38.999993,9"
       orientation="-30,0"
       id="guide3299" />
    <sodipodi:guide
       position="38.999993,39"
       orientation="0,-30"
       id="guide3301" />
    <sodipodi:guide
       position="7.000008,44"
       orientation="40,0"
       id="guide3315" />
    <sodipodi:guide
       position="7.000008,4"
       orientation="0,33.999985"
       id="guide3317" />
    <sodipodi:guide
       position="40.999993,4"
       orientation="-40,0"
       id="guide3319" />
    <sodipodi:guide
       position="40.999993,44"
       orientation="0,-33.999985"
       id="guide3321" />
  </sodipodi:namedview>
  <metadata
     id="metadata7">
    <rdf:RDF>
      <cc:Work
         rdf:about="">
        <dc:format>image/svg+xml</dc:format>
        <dc:type
           rdf:resource="http://purl.org/dc/dcmitype/StillImage" />
        <dc:title></dc:title>
      </cc:Work>
    </rdf:RDF>
  </metadata>
  <g
     inkscape:label="Capa 1"
     inkscape:groupmode="layer"
     id="layer1"
     transform="translate(-180.23661,-689.8125)">
    <path
       sodipodi:type="arc"
       style="fill:#feac39;fill-opacity:1;stroke:none;stroke-width:1;stroke-miterlimit:4;stroke-opacity:1;stroke-dasharray:none"
       id="path3073"
       sodipodi:cx="21.144398"
       sodipodi:cy="21.233915"
       sodipodi:rx="12.144405"
       sodipodi:ry="12.233916"
       d="m 21.144398,8.999999 a 12.144405,12.233916 0 0 1 12.144405,12.233916 l -12.144405,0 z"
       transform="matrix(0,-1.4882927,1.4882927,0,172.08612,744.53741)"
       sodipodi:start="4.712389"
       sodipodi:end="6.2831853" />
    <path
       sodipodi:type="arc"
       style="fill:#eaeaea;fill-opacity:1;stroke:none;stroke-width:1;stroke-miterlimit:4;stroke-opacity:1;stroke-dasharray:none"
       id="path3073-4"
       sodipodi:cx="21.144398"
       sodipodi:cy="21.233915"
       sodipodi:rx="12.144405"
       sodipodi:ry="12.233916"
       d="m 21.144398,8.999999 a 12.144405,12.233916 0 0 1 12.144405,12.233916 l -12.144405,0 z"
       transform="matrix(1.4882927,0,0,1.4882927,174.0117,681.46607)"
       sodipodi:start="4.712389"
       sodipodi:end="6.2831853" />
    <path
       sodipodi:type="arc"
       style="fill:#818181;fill-opacity:1;stroke:none;stroke-width:1;stroke-miterlimit:4;stroke-opacity:1;stroke-dasharray:none"
       id="path3073-5"
       sodipodi:cx="21.144398"
       sodipodi:cy="21.233915"
       sodipodi:rx="12.144405"
       sodipodi:ry="12.233916"
       d="m 21.144398,8.999999 a 12.144405,12.233916 0 0 1 12.144405,12.233916 l -12.144405,0 z"
       transform="matrix(0,1.4882927,-1.4882927,0,237.08304,683.52487)"
       sodipodi:start="4.712389"
       sodipodi:end="6.2831853" />
    <path
       sodipodi:type="arc"
       style="fill:#c7c7c7;fill-opacity:1;stroke:none;stroke-width:1;stroke-miterlimit:4;stroke-opacity:1;stroke-dasharray:none"
       id="path3073-5-4"
       sodipodi:cx="21.144398"
       sodipodi:cy="21.233915"
       sodipodi:rx="12.144405"
       sodipodi:ry="12.233916"
       d="m 21.144398,8.999999 a 12.144405,12.233916 0 0 1 12.144405,12.233916 l -12.144405,0 z"
       transform="matrix(-1.4883138,0,0,-1.4883138,235.02495,746.46317)"
       sodipodi:start="4.712389"
       sodipodi:end="6.2831853" />
    <path
       style="font-size:18.26544952px;font-style:normal;font-variant:normal;font-weight:normal;font-stretch:normal;text-align:center;line-height:100%;writing-mode:lr-tb;text-anchor:middle;fill:#803300;fill-opacity:1;stroke:none;display:inline;font-family:Hoefler Text;-inkscape-font-specification:Hoefler Text"
       id="text2810"
       inkscape:connector-curvature="0"
       d="m 213.92476,707.82338 c -1e-5,0.0841 -0.0223,0.16129 -0.0668,0.23161 -0.0446,0.0703 -0.0934,0.10553 -0.14666,0.10553 -0.43935,0.0494 -0.79845,0.21628 -1.07729,0.50085 -0.2789,0.28459 -0.56664,0.82747 -0.86324,1.62865 l -4.53948,12.11114 c -0.0297,0.11235 -0.11274,0.16856 -0.24933,0.16856 -0.10683,0 -0.18981,-0.0562 -0.24883,-0.16856 l -2.54572,-6.30358 -2.92869,6.30358 c -0.0591,0.11235 -0.142,0.16856 -0.24882,0.16856 -0.13072,0 -0.21677,-0.0562 -0.25805,-0.16856 l -4.45961,-12.11114 c -0.27888,-0.75229 -0.57259,-1.27769 -0.88117,-1.57622 -0.30858,-0.2985 -0.73884,-0.48293 -1.29077,-0.55328 -0.0474,10e-6 -0.0919,-0.0299 -0.13338,-0.0898 -0.0415,-0.0598 -0.0621,-0.12836 -0.0621,-0.20554 0,-0.19686 0.0474,-0.2953 0.14233,-0.2953 0.39766,0 0.81308,0.0213 1.24624,0.0637 0.40346,0.042 0.78318,0.063 1.13921,0.063 0.36181,10e-6 0.78898,-0.021 1.28156,-0.063 0.51643,-0.0424 0.97332,-0.0637 1.37064,-0.0637 0.0953,10e-6 0.14287,0.0984 0.14287,0.2953 0,0.19687 -0.0298,0.2953 -0.0891,0.2953 -0.39769,0.0352 -0.71079,0.15463 -0.93931,0.35834 -0.22854,0.20375 -0.34281,0.47075 -0.34279,0.80098 -2e-5,0.16856 0.0476,0.37937 0.14287,0.63241 l 3.68492,9.85555 2.09155,-4.67976 -1.94922,-4.83802 c -0.35021,-0.86466 -0.63806,-1.4217 -0.8635,-1.67111 -0.22546,-0.2494 -0.56673,-0.4022 -1.02378,-0.45839 -0.0412,0 -0.0812,-0.0299 -0.11983,-0.0898 -0.0386,-0.0599 -0.0579,-0.12836 -0.0579,-0.20556 0,-0.19685 0.0415,-0.29528 0.12443,-0.2953 0.39764,2e-5 0.76255,0.0213 1.09466,0.0637 0.32052,0.042 0.66167,0.063 1.02351,0.063 0.35599,0 0.73284,-0.021 1.13051,-0.063 0.40961,-0.0424 0.81306,-0.0637 1.21039,-0.0637 0.0953,2e-5 0.14286,0.0984 0.14287,0.2953 -1e-5,0.19687 -0.0297,0.29531 -0.0891,0.2953 -0.79534,0.063 -1.19303,0.33005 -1.19301,0.80096 -2e-5,0.21104 0.092,0.53786 0.27597,0.98048 l 1.2908,3.09904 1.28153,-2.8359 c 0.17819,-0.40016 0.26727,-0.73727 0.26728,-1.01136 -1e-5,-0.64678 -0.39767,-0.99119 -1.19298,-1.03322 -0.071,10e-6 -0.10644,-0.0984 -0.10644,-0.2953 -1e-5,-0.0704 0.0177,-0.13713 0.0533,-0.2004 0.0354,-0.0633 0.0711,-0.0949 0.10696,-0.0949 0.28465,2e-5 0.63469,0.0213 1.05012,0.0637 0.39764,0.042 0.72397,0.063 0.97894,0.063 0.18397,0 0.45399,-0.0176 0.81,-0.0528 0.45091,-0.0494 0.82773,-0.0739 1.13054,-0.0739 0.0709,2e-5 0.10644,0.0845 0.10644,0.25347 -3e-5,0.22478 -0.0652,0.33714 -0.19557,0.33714 -0.46288,0.0562 -0.83519,0.20727 -1.11694,0.45323 -0.28178,0.24599 -0.63346,0.80474 -1.055,1.67627 l -1.70857,3.74173 2.31374,5.58626 3.41818,-9.41292 c 0.11878,-0.34396 0.17817,-0.66007 0.1782,-0.94831 -3e-5,-0.6888 -0.39767,-1.05422 -1.193,-1.09626 -0.0714,0 -0.1071,-0.0984 -0.10697,-0.29531 -10e-6,-0.19685 0.0534,-0.29528 0.16026,-0.2953 0.2908,2e-5 0.63506,0.0213 1.03274,0.0637 0.36795,0.042 0.6765,0.063 0.92572,0.063 0.2611,0 0.56368,-0.021 0.90778,-0.063 0.35598,-0.0424 0.67633,-0.0637 0.96101,-0.0637 0.0832,2e-5 0.12495,0.0845 0.12495,0.25347 l 0,0 z" />
  </g>
</svg>
