<?xml version="1.0" encoding="UTF-8" standalone="no"?>
<!-- Created with Inkscape (http://www.inkscape.org/) -->

<svg
   xmlns:dc="http://purl.org/dc/elements/1.1/"
   xmlns:cc="http://creativecommons.org/ns#"
   xmlns:rdf="http://www.w3.org/1999/02/22-rdf-syntax-ns#"
   xmlns:svg="http://www.w3.org/2000/svg"
   xmlns="http://www.w3.org/2000/svg"
   xmlns:xlink="http://www.w3.org/1999/xlink"
   xmlns:sodipodi="http://sodipodi.sourceforge.net/DTD/sodipodi-0.dtd"
   xmlns:inkscape="http://www.inkscape.org/namespaces/inkscape"
   width="22"
   height="22"
   id="svg3813"
   version="1.1"
   inkscape:version="0.48.5 r10040"
   sodipodi:docname="color-gradient.svg">
  <defs
     id="defs3815">
    <linearGradient
       id="linearGradient3782">
      <stop
         style="stop-color:#4d4d4d;stop-opacity:1;"
         offset="0"
         id="stop3784" />
      <stop
         style="stop-color:#4d4d4d;stop-opacity:0.41880342;"
         offset="1"
         id="stop3786" />
    </linearGradient>
    <linearGradient
       inkscape:collect="always"
       xlink:href="#linearGradient3782"
       id="linearGradient3788"
       x1="381.85714"
       y1="551.07647"
       x2="397.85714"
       y2="551.07647"
       gradientUnits="userSpaceOnUse" />
  </defs>
  <sodipodi:namedview
     id="base"
     pagecolor="#ffffff"
     bordercolor="#666666"
     borderopacity="1.0"
     inkscape:pageopacity="0.0"
     inkscape:pageshadow="2"
     inkscape:zoom="25.908292"
     inkscape:cx="5.1889241"
     inkscape:cy="10.786195"
     inkscape:document-units="px"
     inkscape:current-layer="layer1"
     showgrid="true"
     fit-margin-top="0"
     fit-margin-left="0"
     fit-margin-right="0"
     fit-margin-bottom="0"
     inkscape:window-width="1920"
     inkscape:window-height="1031"
     inkscape:window-x="-4"
     inkscape:window-y="32"
     inkscape:window-maximized="1"
     inkscape:showpageshadow="false"
     showguides="true">
    <inkscape:grid
       type="xygrid"
       id="grid4109" />
    <sodipodi:guide
       position="2.0000072,19.999993"
       orientation="18,0"
       id="guide4115" />
    <sodipodi:guide
       position="2.0000072,1.9999929"
       orientation="0,18"
       id="guide4117" />
    <sodipodi:guide
       position="20.000007,1.9999929"
       orientation="-18,0"
       id="guide4119" />
    <sodipodi:guide
       position="20.000007,19.999993"
       orientation="0,-18"
       id="guide4121" />
    <sodipodi:guide
       position="3.0000072,18.999993"
       orientation="16,0"
       id="guide4123" />
    <sodipodi:guide
       position="3.0000072,2.9999929"
       orientation="0,16"
       id="guide4125" />
    <sodipodi:guide
       position="19.000007,2.9999929"
       orientation="-16,0"
       id="guide4127" />
    <sodipodi:guide
       position="19.000007,18.999993"
       orientation="0,-16"
       id="guide4129" />
  </sodipodi:namedview>
  <metadata
     id="metadata3818">
    <rdf:RDF>
      <cc:Work
         rdf:about="">
        <dc:format>image/svg+xml</dc:format>
        <dc:type
           rdf:resource="http://purl.org/dc/dcmitype/StillImage" />
        <dc:title />
      </cc:Work>
    </rdf:RDF>
  </metadata>
  <g
     inkscape:label="Capa 1"
     inkscape:groupmode="layer"
     id="layer1"
     transform="translate(-378.85714,-540.07647)">
    <g
       id="g3010"
       style="fill-opacity:1;fill:url(#linearGradient3788)">
      <path
         inkscape:connector-curvature="0"
         id="rect4108"
         d="m 386.85714,543.07647 c -0.97291,3.40503 -3.35445,6.33228 -4.4043,8.67578 -0.3674,0.69677 -0.5957,1.4788 -0.5957,2.32422 0,2.77 2.23,5 5,5 2.77,0 5,-2.23 5,-5 0,-0.84542 -0.2283,-1.62745 -0.5957,-2.32422 -1.04985,-2.3435 -3.4314,-5.27075 -4.4043,-8.67578 z m 2.2832,7.7168 c 1.0377,0.7212 1.7168,1.91828 1.7168,3.2832 0,2.216 -1.784,4 -4,4 -1.36496,0 -2.562,-0.67905 -3.2832,-1.7168 0.64705,0.44971 1.43212,0.7168 2.2832,0.7168 2.216,0 4,-1.784 4,-4 0,-0.85108 -0.26709,-1.63616 -0.7168,-2.2832 z"
         style="fill:url(#linearGradient3788);fill-opacity:1;stroke:none" />
      <path
         inkscape:connector-curvature="0"
         id="rect4108-2"
         d="m 392.85714,543.07647 c -0.97291,3.40503 -3.35445,6.33228 -4.4043,8.67578 -0.3674,0.69677 -0.5957,1.4788 -0.5957,2.32422 0,2.77 2.23,5 5,5 2.77,0 5,-2.23 5,-5 0,-0.84542 -0.2283,-1.62745 -0.5957,-2.32422 -1.04985,-2.3435 -3.4314,-5.27075 -4.4043,-8.67578 z m 2.2832,7.7168 c 1.0377,0.7212 1.7168,1.91828 1.7168,3.2832 0,2.216 -1.784,4 -4,4 -1.36496,0 -2.562,-0.67905 -3.2832,-1.7168 0.64705,0.44971 1.43212,0.7168 2.2832,0.7168 2.216,0 4,-1.784 4,-4 0,-0.85108 -0.26709,-1.63616 -0.7168,-2.2832 z"
         style="fill:url(#linearGradient3788);fill-opacity:1;stroke:none" />
    </g>
  </g>
</svg>
