<?xml version="1.0" encoding="UTF-8" standalone="no"?>
<!-- Created with Inkscape (http://www.inkscape.org/) -->

<svg
   xmlns:dc="http://purl.org/dc/elements/1.1/"
   xmlns:cc="http://creativecommons.org/ns#"
   xmlns:rdf="http://www.w3.org/1999/02/22-rdf-syntax-ns#"
   xmlns:svg="http://www.w3.org/2000/svg"
   xmlns="http://www.w3.org/2000/svg"
   xmlns:sodipodi="http://sodipodi.sourceforge.net/DTD/sodipodi-0.dtd"
   xmlns:inkscape="http://www.inkscape.org/namespaces/inkscape"
   width="256"
   height="256"
   id="svg12492"
   version="1.1"
   inkscape:version="0.48.5 r10040"
   sodipodi:docname="gtk-undelete-rtl.svg"
   inkscape:export-filename="/home/oleg/.kde/share/icons/K-High-Delight/actions/128/gtk-undelete.png"
   inkscape:export-xdpi="45"
   inkscape:export-ydpi="45">
  <defs
     id="defs12494" />
  <sodipodi:namedview
     id="base"
     pagecolor="#ffffff"
     bordercolor="#666666"
     borderopacity="1.0"
     inkscape:pageopacity="0.0"
     inkscape:pageshadow="2"
     inkscape:zoom="2.1210938"
     inkscape:cx="-21.215466"
     inkscape:cy="128"
     inkscape:document-units="px"
     inkscape:current-layer="layer1"
     showgrid="false"
     inkscape:window-width="1920"
     inkscape:window-height="1031"
     inkscape:window-x="-4"
     inkscape:window-y="32"
     inkscape:window-maximized="1" />
  <metadata
     id="metadata12497">
    <rdf:RDF>
      <cc:Work
         rdf:about="">
        <dc:format>image/svg+xml</dc:format>
        <dc:type
           rdf:resource="http://purl.org/dc/dcmitype/StillImage" />
        <dc:title />
      </cc:Work>
    </rdf:RDF>
  </metadata>
  <g
     inkscape:label="Layer 1"
     inkscape:groupmode="layer"
     id="layer1"
     transform="translate(0,-796.36218)">
    <path
       style="fill:none;fill-opacity:1;fill-rule:evenodd;stroke:#585858;stroke-opacity:1;stroke-width:7.4999999;stroke-miterlimit:4;stroke-dasharray:none"
       d="m 105.35819,834.36216 c 17.09445,0.057 31.89501,11.56512 41.52574,29.04674 0.27871,0.50592 0.5572,1.02043 0.8272,1.53624 0.0734,0.14009 0.13995,0.28462 0.21271,0.42542 0.0941,0.18223 0.19065,0.36017 0.28362,0.5436 0.16666,0.32844 0.33328,0.66026 0.49632,0.99264 2.49008,5.07793 4.54572,10.59486 6.14496,16.42595 -2.17949,-0.0192 -4.32612,-0.0537 -6.42857,-0.11817 -3.96653,-6.54213 -8.79438,-12.07599 -14.48792,-15.48057 -0.0243,-0.0146 -0.0465,-0.0327 -0.0709,-0.0473 -0.25644,-0.15233 -0.52004,-0.28175 -0.77994,-0.42542 -0.1261,-0.0699 -0.25129,-0.14489 -0.37815,-0.21271 -0.11131,-0.0593 -0.21894,-0.13139 -0.33088,-0.18908 -0.13302,-0.0688 -0.26792,-0.12254 -0.40179,-0.18907 -0.28338,-0.14033 -0.5635,-0.29558 -0.85084,-0.42542 -0.2632,-0.1193 -0.53703,-0.22062 -0.80357,-0.33088 -0.40197,-0.16628 -0.8192,-0.3276 -1.22899,-0.47269 -0.28266,-0.10008 -0.56436,-0.19392 -0.85084,-0.28362 -0.16607,-0.0519 -0.32905,-0.0934 -0.49633,-0.1418 -0.0962,-0.0278 -0.18692,-0.0678 -0.28361,-0.0945 -0.0147,-0.004 -0.0326,0.004 -0.0473,0 -7.84427,-2.14928 -17.01163,-0.44443 -27.46324,7.23214 -0.0502,0.0368 -0.0916,0.081 -0.1418,0.11817 -0.0138,0.009 -0.0336,0.0143 -0.0473,0.0236 -0.39006,0.26609 -0.72912,0.53031 -1.03992,0.80357 -0.008,0.007 -0.0155,0.0164 -0.0236,0.0236 -4.17823,3.22882 -8.55962,7.39337 -13.14076,12.64444 L 108.33613,910.70139 38,910.81956 l 0.0945,-76.05567 23.13813,24.41439 c 15.21209,-17.52592 30.40381,-24.86182 44.12556,-24.81612 z m 52.13761,28.83403 c 33.42011,0 60.5042,5.79066 60.5042,12.97532 0,7.18466 -27.08409,13.02258 -60.5042,13.02258 -31.66456,0 -57.62607,-5.25032 -60.26786,-11.91176 0.97278,-0.84613 1.91712,-1.635 2.85977,-2.36345 a 2.2691345,2.2691345 0 0 0 0.0709,-0.0709 2.2691345,2.2691345 0 0 0 0.0473,-0.0473 c 0.18645,-0.16393 0.40858,-0.33071 0.63813,-0.49632 0.0703,-0.0444 0.0868,-0.0407 0.23635,-0.14181 a 2.2691345,2.2691345 0 0 0 0.0709,-0.0709 c 0.26389,-0.19505 0.3108,-0.24212 0.14181,-0.11818 10.07061,-7.39673 18.41037,-8.8034 25.52521,-6.85399 a 2.2691345,2.2691345 0 0 0 0.0236,0 c 0.032,0.008 0.0172,-0.007 0.0473,0 -0.0388,-0.008 -0.0268,0.002 0.21271,0.0709 0.21199,0.0613 0.35717,0.11306 0.44906,0.1418 0.26061,0.0816 0.52374,0.14564 0.77993,0.23635 0.3678,0.13023 0.74235,0.29663 1.11082,0.44905 0.14309,0.0592 0.21757,0.0765 0.33088,0.11817 -15.50591,1.6493 -25.90336,4.60871 -25.90336,8.03572 0,4.664 19.20725,8.54113 44.43278,9.31197 a 2.2691345,2.2691345 0 0 0 0.0473,0 c 0.22744,0.007 0.45698,0.0172 0.6854,0.0236 0.83881,0.0231 1.67959,0.0323 2.52888,0.0473 1.07435,0.0209 2.16905,0.0378 3.26156,0.0473 0.89069,0.008 1.76909,0.0236 2.67069,0.0236 29.61719,0 53.62657,-4.23613 53.62657,-9.45378 0,-5.21766 -24.00938,-9.43015 -53.62657,-9.43015 -2.14608,0 -4.23738,0.0402 -6.3104,0.0945 -0.14613,-0.30705 -0.29992,-0.61762 -0.44905,-0.92174 -0.16925,-0.34503 -0.32672,-0.68206 -0.49633,-1.01629 -0.11196,-0.22091 -0.22744,-0.41262 -0.30725,-0.56722 -0.0409,-0.0792 -0.10284,-0.23949 -0.21271,-0.44906 -0.0983,-0.18782 -0.20761,-0.36059 -0.30724,-0.54359 2.65027,-0.08 5.33027,-0.14181 8.08298,-0.14181 z m 0,5.81408 c 11.02577,0 21.28454,0.58406 29.73214,1.58351 2.81587,0.33315 5.42175,0.71664 7.79937,1.13445 4.75525,0.83562 8.57093,1.8438 11.01366,2.85977 1.22136,0.50799 2.08036,1.02891 2.50525,1.39443 0.12581,0.10831 0.14124,0.13598 0.18907,0.18908 -0.0472,0.053 -0.0582,0.0764 -0.18907,0.18907 -0.42525,0.36622 -1.28383,0.88543 -2.50525,1.39444 -2.44285,1.01802 -6.25855,2.02128 -11.01366,2.85977 -9.51022,1.67698 -22.83109,2.74159 -37.53151,2.74159 -0.12782,0 -0.2513,5.8e-4 -0.37815,0 a 2.2691345,2.2691345 0 0 0 -0.0709,-0.61449 c -1.30981,-4.77577 -2.93538,-9.34357 -4.84507,-13.66072 0.29998,-0.008 0.59667,-0.0172 0.89811,-0.0236 1.45172,-0.0309 2.91517,-0.0473 4.39601,-0.0473 z m -24.08351,1.06355 c 4.61848,2.94227 8.73523,7.53666 12.24265,13.02258 -0.43929,-0.0204 -0.88881,-0.0276 -1.32353,-0.0473 -0.90336,-0.0408 -1.78662,-0.0694 -2.6707,-0.11817 -0.44442,-0.0245 -0.86065,-0.0444 -1.29989,-0.0709 -1.21143,-0.0728 -2.39914,-0.14903 -3.5688,-0.23635 -0.0888,-0.007 -0.17147,-0.0169 -0.25998,-0.0236 -0.16973,-0.0128 -0.32753,-0.0341 -0.49633,-0.0473 -1.0715,-0.0838 -2.13521,-0.16452 -3.16701,-0.25998 -0.24926,-0.023 -0.48584,-0.0472 -0.73267,-0.0709 -0.13025,-0.0125 -0.24859,-0.0346 -0.37815,-0.0473 -1.31704,-0.12891 -2.60953,-0.25464 -3.85242,-0.40179 -0.0477,-0.006 -0.0943,-0.018 -0.14181,-0.0236 -0.0493,-0.006 -0.0926,-0.0177 -0.1418,-0.0236 -1.27394,-0.15295 -2.4992,-0.32544 -3.68698,-0.49633 -0.0778,-0.0112 -0.15893,-0.0124 -0.23634,-0.0236 -1.30311,-0.18961 -2.54547,-0.38124 -3.73424,-0.59086 -4.75511,-0.83849 -8.57081,-1.84175 -11.01366,-2.85977 -1.22142,-0.50901 -2.08,-1.02822 -2.50525,-1.39444 -0.11449,-0.0986 -0.1299,-0.12391 -0.16544,-0.16544 0.0667,-0.0703 0.15685,-0.17683 0.30724,-0.30724 0.0705,-0.0563 0.18896,-0.14685 0.28362,-0.21271 0.10418,-0.0753 0.21598,-0.15418 0.35452,-0.23635 0.56477,-0.33431 1.32634,-0.70218 2.2689,-1.06355 0.94253,-0.3609 2.06616,-0.71514 3.33246,-1.06355 1.89951,-0.52098 4.13011,-1.01805 6.64128,-1.46534 4.00054,-0.71256 8.72918,-1.30558 13.94433,-1.77258 z m -35.99527,11.06092 c 0.93222,0.78485 2.03736,1.48049 3.30882,2.1271 3.35907,1.70831 7.92851,3.12232 13.51891,4.32511 11.1808,2.40558 26.40903,3.87605 43.25105,3.87605 16.842,0 32.09388,-1.47047 43.27468,-3.87605 5.59041,-1.20279 10.1362,-2.6168 13.49528,-4.32511 1.25328,-0.63737 2.33748,-1.33254 3.26155,-2.10346 -0.86923,9.27265 -10.78634,117.9163 -10.82458,118.0777 -0.49677,8.53212 -13.62857,14.74652 -48.68697,15.12612 -28.69125,-0.964 -49.50962,-3.1635 -49.98687,-15.43332 -9.5e-4,-0.024 -4.59636,-50.60129 -7.77574,-85.93489 l 8.08298,-0.0236 a 2.2691345,2.2691345 0 0 0 1.67805,-3.80514 L 98.83508,896.9226 c -0.55015,-6.16625 -1.22419,-13.49609 -1.41806,-15.78782 z"
       id="path3837"
       inkscape:connector-curvature="0" />
  </g>
</svg>
