<?xml version="1.0" encoding="UTF-8" standalone="no"?>
<!-- Created with Inkscape (http://www.inkscape.org/) -->

<svg
   xmlns:dc="http://purl.org/dc/elements/1.1/"
   xmlns:cc="http://creativecommons.org/ns#"
   xmlns:rdf="http://www.w3.org/1999/02/22-rdf-syntax-ns#"
   xmlns:svg="http://www.w3.org/2000/svg"
   xmlns="http://www.w3.org/2000/svg"
   xmlns:sodipodi="http://sodipodi.sourceforge.net/DTD/sodipodi-0.dtd"
   xmlns:inkscape="http://www.inkscape.org/namespaces/inkscape"
   width="256"
   height="256"
   id="svg3408"
   sodipodi:version="0.32"
   inkscape:version="0.48.5 r10040"
   version="1.0"
   sodipodi:docname="insert-button.svg"
   inkscape:output_extension="org.inkscape.output.svgz.inkscape"
   inkscape:export-filename="/home/oleg/.kde/share/icons/K-High-Delight/actions/128/insert-button.png"
   inkscape:export-xdpi="45"
   inkscape:export-ydpi="45">
  <defs
     id="defs3410" />
  <sodipodi:namedview
     id="base"
     pagecolor="#ffffff"
     bordercolor="#666666"
     borderopacity="1.0"
     inkscape:pageopacity="0.0"
     inkscape:pageshadow="2"
     inkscape:zoom="2.1210938"
     inkscape:cx="50.917129"
     inkscape:cy="128"
     inkscape:document-units="px"
     inkscape:current-layer="layer1"
     height="128px"
     width="128px"
     showborder="true"
     inkscape:showpageshadow="true"
     showgrid="true"
     inkscape:window-width="1920"
     inkscape:window-height="1031"
     inkscape:window-x="-4"
     inkscape:window-y="32"
     showguides="true"
     inkscape:guide-bbox="true"
     objecttolerance="14"
     gridtolerance="14"
     guidetolerance="13"
     inkscape:window-maximized="1">
    <inkscape:grid
       type="xygrid"
       id="grid2373"
       spacingx="4px"
       spacingy="4px"
       empspacing="2"
       visible="true"
       enabled="false"
       snapvisiblegridlinesonly="true" />
    <inkscape:grid
       id="GridFromPre046Settings"
       type="xygrid"
       originx="0px"
       originy="0px"
       spacingx="4px"
       spacingy="4px"
       color="#0000ff"
       empcolor="#0000ff"
       opacity="0.2"
       empopacity="0.4"
       empspacing="2"
       visible="true"
       enabled="false"
       snapvisiblegridlinesonly="true" />
  </sodipodi:namedview>
  <metadata
     id="metadata3413">
    <rdf:RDF>
      <cc:Work
         rdf:about="">
        <dc:format>image/svg+xml</dc:format>
        <dc:type
           rdf:resource="http://purl.org/dc/dcmitype/StillImage" />
        <dc:title />
      </cc:Work>
    </rdf:RDF>
  </metadata>
  <g
     inkscape:label="Слой 1"
     inkscape:groupmode="layer"
     id="layer1"
     transform="translate(0,128)">
    <path
       style="fill:#4d4d4d;fill-opacity:1;fill-rule:evenodd;stroke:none"
       d="M 52.5625 90.5 C 44.501374 90.5 38 97.001374 38 105.0625 L 38 150.9375 C 38 158.99863 44.501374 165.5 52.5625 165.5 L 203.4375 165.5 C 211.49863 165.5 218 158.99863 218 150.9375 L 218 105.0625 C 218 97.001374 211.49863 90.5 203.4375 90.5 L 52.5625 90.5 z M 109 104 C 115.45929 104.00005 121.06684 106.35143 125.8125 111.0625 C 130.60201 115.7292 132.9687 121.3778 132.96875 128 C 132.9687 134.62223 130.60201 140.2889 125.8125 145 C 121.06684 149.66667 115.45929 152 109 152 C 102.54066 152 96.91455 149.66667 92.125 145 C 87.379372 140.2889 84.999998 134.62223 85 128 C 84.999998 121.3778 87.379372 115.7292 92.125 111.0625 C 96.91455 106.35143 102.54066 104.00005 109 104 z M 139.21875 104.65625 L 145.4375 104.65625 L 145.4375 124.28125 L 149.59375 124.28125 C 151.52714 124.28128 153.06357 123.88058 154.25 123.125 C 155.74397 122.1917 157.07627 120.4528 158.21875 117.875 L 164.09375 104.65625 L 171 104.65625 L 165.84375 116.0625 C 164.56943 118.86253 163.55947 120.84447 162.8125 122 C 161.93366 123.3778 160.84945 124.53545 159.53125 125.46875 C 162.03586 126.0021 164.03723 127.12363 165.53125 128.8125 C 167.68433 131.25697 168.74997 134.78405 168.75 139.40625 L 168.75 151.34375 L 162.5625 151.34375 L 162.5625 139.34375 C 162.56247 136.81043 162.20303 134.88265 161.5 133.59375 C 160.26963 131.28267 157.95862 130.12502 154.53125 130.125 L 145.4375 130.125 L 145.4375 151.34375 L 139.21875 151.34375 L 139.21875 104.65625 z M 109 109.875 C 104.03465 109.87503 99.852186 111.63198 96.46875 115.1875 C 93.129227 118.74308 91.468742 123.02225 91.46875 128 C 91.468742 132.9778 93.129227 137.25695 96.46875 140.8125 C 99.852186 144.36807 104.03465 146.125 109 146.125 C 113.9653 146.125 118.09795 144.36807 121.4375 140.8125 C 124.82091 137.25695 126.53121 132.9778 126.53125 128 C 126.53121 123.02225 124.82091 118.74308 121.4375 115.1875 C 118.09795 111.63198 113.9653 109.87503 109 109.875 z "
       transform="translate(0,-128)"
       id="rect2326" />
  </g>
</svg>
