<?xml version="1.0" encoding="UTF-8" standalone="no"?>
<!-- Created with Inkscape (http://www.inkscape.org/) -->

<svg
   xmlns:dc="http://purl.org/dc/elements/1.1/"
   xmlns:cc="http://creativecommons.org/ns#"
   xmlns:rdf="http://www.w3.org/1999/02/22-rdf-syntax-ns#"
   xmlns:svg="http://www.w3.org/2000/svg"
   xmlns="http://www.w3.org/2000/svg"
   xmlns:sodipodi="http://sodipodi.sourceforge.net/DTD/sodipodi-0.dtd"
   xmlns:inkscape="http://www.inkscape.org/namespaces/inkscape"
   height="256"
   id="svg2115"
   inkscape:version="0.48.5 r10040"
   sodipodi:docname="jockey-proprietary.svg"
   sodipodi:version="0.32"
   width="256"
   version="1.1"
   inkscape:export-filename="/home/oleg/.kde/share/icons/K-High-Delight/actions/128/jockey-proprietary.png"
   inkscape:export-xdpi="45"
   inkscape:export-ydpi="45">
  <metadata
     id="metadata3">
    <rdf:RDF>
      <cc:Work
         rdf:about="">
        <dc:title />
        <dc:description />
        <dc:subject>
          <rdf:Bag>
            <rdf:li>hash</rdf:li>
            <rdf:li />
            <rdf:li>mime-types</rdf:li>
            <rdf:li>computer</rdf:li>
            <rdf:li>icons</rdf:li>
          </rdf:Bag>
        </dc:subject>
        <dc:publisher>
          <cc:Agent
             rdf:about="http://www.openclipart.org">
            <dc:title>Andy Fitzsimon</dc:title>
          </cc:Agent>
        </dc:publisher>
        <dc:creator>
          <cc:Agent>
            <dc:title>Andy Fitzsimon</dc:title>
          </cc:Agent>
        </dc:creator>
        <dc:rights>
          <cc:Agent>
            <dc:title>Andy Fitzsimon</dc:title>
          </cc:Agent>
        </dc:rights>
        <dc:date />
        <dc:format>image/svg+xml</dc:format>
        <dc:type
           rdf:resource="http://purl.org/dc/dcmitype/StillImage" />
        <cc:license
           rdf:resource="http://web.resource.org/cc/PublicDomain" />
        <dc:language>en</dc:language>
      </cc:Work>
      <cc:License
         rdf:about="http://web.resource.org/cc/PublicDomain">
        <cc:permits
           rdf:resource="http://web.resource.org/cc/Reproduction" />
        <cc:permits
           rdf:resource="http://web.resource.org/cc/Distribution" />
        <cc:permits
           rdf:resource="http://web.resource.org/cc/DerivativeWorks" />
      </cc:License>
    </rdf:RDF>
  </metadata>
  <defs
     id="defs2117" />
  <sodipodi:namedview
     bordercolor="#666666"
     borderopacity="1.0"
     id="base"
     inkscape:cx="50.917129"
     inkscape:cy="128"
     inkscape:pageopacity="0.0"
     inkscape:pageshadow="2"
     inkscape:window-height="1031"
     inkscape:window-width="1920"
     inkscape:window-x="-4"
     inkscape:window-y="32"
     inkscape:zoom="2.1210938"
     pagecolor="#ffffff"
     showgrid="false"
     inkscape:window-maximized="1"
     inkscape:current-layer="svg2115" />
  <path
     style="color:#000000;fill:#da4453;fill-opacity:1;fill-rule:nonzero;stroke:none;stroke-width:2;marker:none;visibility:visible;display:inline;overflow:visible;enable-background:accumulate"
     d="M 135.875 38 L 121.5625 54.65625 L 104.65625 40.75 L 96.90625 61.28125 L 76.21875 54.03125 L 75.96875 75.9375 L 54 76.1875 L 61.28125 96.90625 L 40.75 104.65625 L 54.6875 121.5625 L 38 135.875 L 56.9375 147.09375 L 46.125 166.1875 L 67.71875 170.25 L 64.09375 191.90625 L 85.78125 188.34375 L 89.84375 209.875 L 108.9375 199.15625 L 120.125 218 L 134.4375 201.34375 L 151.34375 215.25 L 159.09375 194.71875 L 179.78125 202.03125 L 180.03125 180.0625 L 202 179.8125 L 194.71875 159.15625 L 215.25 151.40625 L 201.3125 134.4375 L 218 120.125 L 199.0625 108.96875 L 209.875 89.875 L 188.28125 85.8125 L 191.90625 64.15625 L 170.21875 67.71875 L 166.15625 46.125 L 147.0625 56.90625 L 135.875 38 z M 113.75 80 L 142.25 80 C 148.50929 80 151.75 83.82931 151.75 89.59375 L 151.75 113.59375 L 158.875 113.59375 C 162.82225 113.59375 166 116.82369 166 120.8125 L 166 168.8125 C 166 172.80131 162.82225 176 158.875 176 L 97.125 176 C 93.17775 176 90 172.80131 90 168.8125 L 90 120.8125 C 90 116.82369 93.17775 113.59375 97.125 113.59375 L 104.25 113.59375 L 104.25 89.59375 C 104.25 83.548945 107.86064 80 113.75 80 z M 117.3125 89.59375 C 115.33887 89.59375 113.75 91.1931 113.75 93.1875 L 113.75 113.59375 L 142.25 113.59375 L 142.25 93.1875 C 142.25 91.1931 140.66113 89.59375 138.6875 89.59375 L 117.3125 89.59375 z "
     id="path3139" />
</svg>
