<?xml version="1.0" encoding="UTF-8" standalone="no"?>
<!-- Created with Inkscape (http://www.inkscape.org/) -->

<svg
   xmlns:dc="http://purl.org/dc/elements/1.1/"
   xmlns:cc="http://creativecommons.org/ns#"
   xmlns:rdf="http://www.w3.org/1999/02/22-rdf-syntax-ns#"
   xmlns:svg="http://www.w3.org/2000/svg"
   xmlns="http://www.w3.org/2000/svg"
   xmlns:sodipodi="http://sodipodi.sourceforge.net/DTD/sodipodi-0.dtd"
   xmlns:inkscape="http://www.inkscape.org/namespaces/inkscape"
   height="256"
   id="svg2115"
   inkscape:version="0.48.5 r10040"
   sodipodi:docname="jockey-certified.svg"
   sodipodi:version="0.32"
   width="256"
   version="1.1"
   inkscape:export-filename="/home/oleg/.kde/share/icons/K-High-Delight/actions/128/jockey-certified.png"
   inkscape:export-xdpi="45"
   inkscape:export-ydpi="45">
  <metadata
     id="metadata3">
    <rdf:RDF>
      <cc:Work
         rdf:about="">
        <dc:title />
        <dc:description />
        <dc:subject>
          <rdf:Bag>
            <rdf:li>hash</rdf:li>
            <rdf:li />
            <rdf:li>mime-types</rdf:li>
            <rdf:li>computer</rdf:li>
            <rdf:li>icons</rdf:li>
          </rdf:Bag>
        </dc:subject>
        <dc:publisher>
          <cc:Agent
             rdf:about="http://www.openclipart.org">
            <dc:title>Andy Fitzsimon</dc:title>
          </cc:Agent>
        </dc:publisher>
        <dc:creator>
          <cc:Agent>
            <dc:title>Andy Fitzsimon</dc:title>
          </cc:Agent>
        </dc:creator>
        <dc:rights>
          <cc:Agent>
            <dc:title>Andy Fitzsimon</dc:title>
          </cc:Agent>
        </dc:rights>
        <dc:date />
        <dc:format>image/svg+xml</dc:format>
        <dc:type
           rdf:resource="http://purl.org/dc/dcmitype/StillImage" />
        <cc:license
           rdf:resource="http://web.resource.org/cc/PublicDomain" />
        <dc:language>en</dc:language>
      </cc:Work>
      <cc:License
         rdf:about="http://web.resource.org/cc/PublicDomain">
        <cc:permits
           rdf:resource="http://web.resource.org/cc/Reproduction" />
        <cc:permits
           rdf:resource="http://web.resource.org/cc/Distribution" />
        <cc:permits
           rdf:resource="http://web.resource.org/cc/DerivativeWorks" />
      </cc:License>
    </rdf:RDF>
  </metadata>
  <defs
     id="defs2117">
    <style
       id="style2464"
       type="text/css" />
    <style
       id="style2464-3"
       type="text/css" />
  </defs>
  <sodipodi:namedview
     bordercolor="#666666"
     borderopacity="1.0"
     id="base"
     inkscape:cx="355.8418"
     inkscape:cy="128"
     inkscape:pageopacity="0.0"
     inkscape:pageshadow="2"
     inkscape:window-height="1031"
     inkscape:window-width="1920"
     inkscape:window-x="-4"
     inkscape:window-y="32"
     inkscape:zoom="2.1210938"
     pagecolor="#ffffff"
     showgrid="false"
     inkscape:window-maximized="1"
     inkscape:current-layer="svg2115"
     inkscape:snap-bbox="true"
     inkscape:bbox-paths="true"
     inkscape:bbox-nodes="true"
     inkscape:snap-bbox-edge-midpoints="true"
     inkscape:snap-bbox-midpoints="true"
     inkscape:object-paths="true"
     inkscape:snap-intersection-paths="true"
     inkscape:object-nodes="true"
     inkscape:snap-smooth-nodes="true"
     inkscape:snap-midpoints="true"
     inkscape:snap-object-midpoints="true"
     inkscape:snap-center="true" />
  <path
     style="fill:#3daee9;stroke:none;fill-opacity:1;opacity:1"
     d="M 135.875 38 L 121.5625 54.65625 L 104.65625 40.75 L 96.90625 61.28125 L 76.21875 54.03125 L 75.96875 75.9375 L 54 76.1875 L 61.28125 96.90625 L 40.75 104.65625 L 54.6875 121.5625 L 38 135.875 L 56.9375 147.09375 L 46.125 166.1875 L 67.71875 170.25 L 64.09375 191.90625 L 85.78125 188.34375 L 89.84375 209.875 L 108.9375 199.15625 L 120.125 218 L 134.4375 201.34375 L 151.34375 215.25 L 159.09375 194.71875 L 179.78125 202.03125 L 179.90625 191.59375 C 180.11408 191.78149 180.33254 191.95785 180.53125 192.15625 C 193.24845 204.84913 150.84375 237.65625 150.84375 237.65625 L 193.21875 226.03125 L 210.1875 244 C 210.1875 222.31268 235.09219 204.84887 222.375 191.625 C 216.53023 185.79138 205.9728 182.85022 195.78125 179.875 L 202 179.8125 L 194.71875 159.15625 L 215.25 151.40625 L 201.3125 134.4375 L 218 120.125 L 199.0625 108.96875 L 209.875 89.875 L 188.28125 85.8125 L 191.90625 64.15625 L 170.21875 67.71875 L 166.15625 46.125 L 147.0625 56.90625 L 135.875 38 z M 128 64 C 163.34622 64 192 92.653775 192 128 C 192 163.34623 163.34622 192 128 192 C 92.653776 192 64 163.34623 64 128 C 64 92.653775 92.653776 64 128 64 z M 128 74 C 98.176623 74 74 98.176623 74 128 C 74 157.82338 98.176623 182 128 182 C 157.82338 182 182 157.82338 182 128 C 182 98.176623 157.82338 74 128 74 z "
     id="path5112" />
  <style
     type="text/css"
     id="style4186">

	.st0{fill-rule:evenodd;clip-rule:evenodd;}
	.st1{fill-rule:evenodd;clip-rule:evenodd;fill:#5A9A98;}

</style>
  <style
     type="text/css"
     id="style4186-8">

	.st0{fill-rule:evenodd;clip-rule:evenodd;}
	.st1{fill-rule:evenodd;clip-rule:evenodd;fill:#5A9A98;}

</style>
  <style
     type="text/css"
     id="style4186-9">

	.st0{fill-rule:evenodd;clip-rule:evenodd;}
	.st1{fill-rule:evenodd;clip-rule:evenodd;fill:#5A9A98;}

</style>
  <style
     type="text/css"
     id="style4186-8-2">

	.st0{fill-rule:evenodd;clip-rule:evenodd;}
	.st1{fill-rule:evenodd;clip-rule:evenodd;fill:#5A9A98;}

</style>
</svg>
