<?xml version="1.0" encoding="UTF-8" standalone="no"?>
<!-- Created with Inkscape (http://www.inkscape.org/) -->

<svg
   xmlns:dc="http://purl.org/dc/elements/1.1/"
   xmlns:cc="http://creativecommons.org/ns#"
   xmlns:rdf="http://www.w3.org/1999/02/22-rdf-syntax-ns#"
   xmlns:svg="http://www.w3.org/2000/svg"
   xmlns="http://www.w3.org/2000/svg"
   xmlns:sodipodi="http://sodipodi.sourceforge.net/DTD/sodipodi-0.dtd"
   xmlns:inkscape="http://www.inkscape.org/namespaces/inkscape"
   version="1.0"
   width="256"
   height="256"
   id="svg2408"
   inkscape:version="0.48.5 r10040"
   sodipodi:docname="mail-outbox.svg">
  <sodipodi:namedview
     pagecolor="#ffffff"
     bordercolor="#666666"
     borderopacity="1"
     objecttolerance="10"
     gridtolerance="10"
     guidetolerance="10"
     inkscape:pageopacity="0"
     inkscape:pageshadow="2"
     inkscape:window-width="1920"
     inkscape:window-height="1035"
     id="namedview107"
     showgrid="false"
     inkscape:zoom="2.0859375"
     inkscape:cx="-22.292132"
     inkscape:cy="128"
     inkscape:window-x="-4"
     inkscape:window-y="29"
     inkscape:window-maximized="1"
     inkscape:current-layer="svg2408"
     inkscape:snap-bbox="true"
     inkscape:bbox-paths="true"
     inkscape:bbox-nodes="true"
     inkscape:snap-bbox-edge-midpoints="true"
     inkscape:snap-bbox-midpoints="true"
     inkscape:object-paths="true"
     inkscape:snap-intersection-paths="true"
     inkscape:object-nodes="true"
     inkscape:snap-smooth-nodes="true"
     inkscape:snap-midpoints="true"
     inkscape:snap-object-midpoints="true"
     inkscape:snap-center="true" />
  <defs
     id="defs2410">
    <linearGradient
       x1="45.447727"
       y1="92.539597"
       x2="45.447727"
       y2="7.0165396"
       id="ButtonShadow"
       gradientUnits="userSpaceOnUse"
       gradientTransform="scale(1.0058652,0.994169)">
      <stop
         id="stop3750"
         style="stop-color:#000000;stop-opacity:1"
         offset="0" />
      <stop
         id="stop3752"
         style="stop-color:#000000;stop-opacity:0.58823532"
         offset="1" />
    </linearGradient>
    <filter
       color-interpolation-filters="sRGB"
       id="filter3174">
      <feGaussianBlur
         id="feGaussianBlur3176"
         stdDeviation="1.71" />
    </filter>
    <filter
       id="filter3174-9"
       color-interpolation-filters="sRGB">
      <feGaussianBlur
         stdDeviation="1.71"
         id="feGaussianBlur3176-0" />
    </filter>
    <linearGradient
       gradientTransform="scale(1.0058652,0.994169)"
       gradientUnits="userSpaceOnUse"
       id="ButtonShadow-2"
       y2="7.0165396"
       x2="45.447727"
       y1="92.539597"
       x1="45.447727">
      <stop
         offset="0"
         style="stop-color:#000000;stop-opacity:1"
         id="stop3750-4" />
      <stop
         offset="1"
         style="stop-color:#000000;stop-opacity:0.58823532"
         id="stop3752-0" />
    </linearGradient>
  </defs>
  <metadata
     id="metadata2413">
    <rdf:RDF>
      <cc:Work
         rdf:about="">
        <dc:format>image/svg+xml</dc:format>
        <dc:type
           rdf:resource="http://purl.org/dc/dcmitype/StillImage" />
        <dc:title />
      </cc:Work>
    </rdf:RDF>
  </metadata>
  <g
     id="layer2"
     style="display:none"
     transform="translate(0,160)">
    <rect
       width="86"
       height="85"
       rx="6"
       ry="6"
       x="5"
       y="7"
       id="rect3745"
       style="opacity:0.9;fill:url(#ButtonShadow);fill-opacity:1;fill-rule:nonzero;stroke:none;filter:url(#filter3174)" />
  </g>
  <path
     style="fill:none;stroke:#585858;stroke-width:7.79999971;stroke-miterlimit:4;stroke-opacity:1;stroke-dasharray:none;display:inline"
     d="M 205.15625,218 C 212.27923,218 218,212.40495 218,205.4375 l 0,-111.09375 c 0,-6.96745 -5.72077,-12.5625 -12.84375,-12.5625 l -40.71875,0 -10.53125,-10.34375 -2.6875,-3.1875 -46.4375,0 -2.6875,3.1875 -10.53125,10.34375 -40.71875,0 C 43.72077,81.78125 38,87.3763 38,94.34375 L 38,205.4375 C 38,212.40495 43.72077,218 50.84375,218 l 154.3125,0 z m 0,-4.1875 -154.3125,0 c -5.96121,0 -10.6875,-4.596 -10.6875,-10.34375 l 0,-107.15625 c 0,-0.22936 0.01655,-0.46201 0.03125,-0.6875 0.54625,-1.70616 1.34998,-3.28288 2.34375,-4.625 l 0,81.75 c 1.74118,2.08261 4.28679,3.49711 7.21875,3.78125 0.36227,0.0351 0.72117,0.0625 1.09375,0.0625 l 42.15625,0 0,-21.75 -29,0 a 3.0003,3.0003 0 0 1 -2.28125,-4.9375 L 125.875,74.0625 a 3.0003,3.0003 0 0 1 4.59375,0 l 63.8125,75.84375 A 3.0003,3.0003 0 0 1 192,154.84375 l -29,0 0,21.75 42.15625,0 c 0.37257,0 0.73148,-0.0274 1.09375,-0.0625 2.93197,-0.28414 5.47757,-1.69864 7.21875,-3.78125 l 0,-81.75 c 0.99377,1.34212 1.79751,2.91884 2.34375,4.625 0.0149,0.22549 0.0312,0.45814 0.0312,0.6875 l 0,107.15625 c 0,5.74775 -4.7263,10.34375 -10.6875,10.34375 z m 0,-2.84375 c 4.93967,0 8.3125,-3.61889 8.3125,-7.5 l 0,-27.0625 c -1.97854,1.63845 -4.41765,2.71547 -7.03125,2.96875 -0.39917,0.0387 -0.82369,0.0312 -1.28125,0.0312 L 163,179.40625 163,204 a 3.0003,3.0003 0 0 1 -2.6875,3 3.0003,3.0003 0 0 1 -0.3125,0 l -64,0 a 3.0003,3.0003 0 0 1 -3,-3 l 0,-24.59375 -42.15625,0 c -0.45756,0 -0.88208,0.007 -1.28125,-0.0312 -2.6136,-0.25328 -5.05272,-1.3303 -7.03125,-2.96875 l 0,27.0625 c 0,3.88111 3.37282,7.5 8.3125,7.5 l 154.3125,0 z M 218,86.0625 218,53.125 C 218,44.74042 212.27922,38 205.15625,38 L 50.84375,38 C 43.72078,38 38,44.74042 38,53.125 l 0,32.9375 c 2.73987,-4.3511 7.55017,-7.125 12.84375,-7.125 l 39.875,0 L 102.9375,67 a 2.3719089,2.8339993 0 0 1 1.5,-0.65625 l 47.125,0 a 2.3719089,2.8339993 0 0 1 1.5,0.65625 l 12.21875,11.9375 39.875,0 c 5.29357,0 10.10388,2.7739 12.84375,7.125 z"
     id="path3926"
     inkscape:connector-curvature="0" />
  <g
     id="layer2-1"
     style="display:none"
     transform="translate(-57.948697,14.667977)">
    <rect
       width="86"
       height="85"
       rx="6"
       ry="6"
       x="5"
       y="7"
       id="rect3745-1"
       style="opacity:0.9;fill:url(#ButtonShadow-2);fill-opacity:1;fill-rule:nonzero;stroke:none;filter:url(#filter3174-9)" />
  </g>
</svg>
