<?xml version="1.0" encoding="UTF-8" standalone="no"?>
<!-- Created with Inkscape (http://www.inkscape.org/) -->

<svg
   xmlns:dc="http://purl.org/dc/elements/1.1/"
   xmlns:cc="http://creativecommons.org/ns#"
   xmlns:rdf="http://www.w3.org/1999/02/22-rdf-syntax-ns#"
   xmlns:svg="http://www.w3.org/2000/svg"
   xmlns="http://www.w3.org/2000/svg"
   xmlns:sodipodi="http://sodipodi.sourceforge.net/DTD/sodipodi-0.dtd"
   xmlns:inkscape="http://www.inkscape.org/namespaces/inkscape"
   version="1.0"
   width="256"
   height="256"
   id="svg2408"
   inkscape:version="0.48.5 r10040"
   sodipodi:docname="mail-inbox.svg">
  <sodipodi:namedview
     pagecolor="#ffffff"
     bordercolor="#666666"
     borderopacity="1"
     objecttolerance="10"
     gridtolerance="10"
     guidetolerance="10"
     inkscape:pageopacity="0"
     inkscape:pageshadow="2"
     inkscape:window-width="1920"
     inkscape:window-height="1035"
     id="namedview107"
     showgrid="false"
     inkscape:zoom="2.0859375"
     inkscape:cx="-22.292132"
     inkscape:cy="128"
     inkscape:window-x="-4"
     inkscape:window-y="29"
     inkscape:window-maximized="1"
     inkscape:current-layer="svg2408"
     inkscape:snap-bbox="true"
     inkscape:bbox-paths="true"
     inkscape:bbox-nodes="true"
     inkscape:snap-bbox-edge-midpoints="true"
     inkscape:snap-bbox-midpoints="true"
     inkscape:object-paths="true"
     inkscape:snap-intersection-paths="true"
     inkscape:object-nodes="true"
     inkscape:snap-smooth-nodes="true"
     inkscape:snap-midpoints="true"
     inkscape:snap-object-midpoints="true"
     inkscape:snap-center="true" />
  <defs
     id="defs2410">
    <linearGradient
       x1="45.447727"
       y1="92.539597"
       x2="45.447727"
       y2="7.0165396"
       id="ButtonShadow"
       gradientUnits="userSpaceOnUse"
       gradientTransform="scale(1.0058652,0.994169)">
      <stop
         id="stop3750"
         style="stop-color:#000000;stop-opacity:1"
         offset="0" />
      <stop
         id="stop3752"
         style="stop-color:#000000;stop-opacity:0.58823532"
         offset="1" />
    </linearGradient>
    <filter
       color-interpolation-filters="sRGB"
       id="filter3174">
      <feGaussianBlur
         id="feGaussianBlur3176"
         stdDeviation="1.71" />
    </filter>
    <filter
       id="filter3174-9"
       color-interpolation-filters="sRGB">
      <feGaussianBlur
         stdDeviation="1.71"
         id="feGaussianBlur3176-0" />
    </filter>
    <linearGradient
       gradientTransform="scale(1.0058652,0.994169)"
       gradientUnits="userSpaceOnUse"
       id="ButtonShadow-2"
       y2="7.0165396"
       x2="45.447727"
       y1="92.539597"
       x1="45.447727">
      <stop
         offset="0"
         style="stop-color:#000000;stop-opacity:1"
         id="stop3750-4" />
      <stop
         offset="1"
         style="stop-color:#000000;stop-opacity:0.58823532"
         id="stop3752-0" />
    </linearGradient>
  </defs>
  <metadata
     id="metadata2413">
    <rdf:RDF>
      <cc:Work
         rdf:about="">
        <dc:format>image/svg+xml</dc:format>
        <dc:type
           rdf:resource="http://purl.org/dc/dcmitype/StillImage" />
        <dc:title />
      </cc:Work>
    </rdf:RDF>
  </metadata>
  <g
     id="layer2"
     style="display:none"
     transform="translate(0,160)">
    <rect
       width="86"
       height="85"
       rx="6"
       ry="6"
       x="5"
       y="7"
       id="rect3745"
       style="opacity:0.9;fill:url(#ButtonShadow);fill-opacity:1;fill-rule:nonzero;stroke:none;filter:url(#filter3174)" />
  </g>
  <path
     style="fill:none;fill-opacity:1;fill-rule:nonzero;stroke:#585858;display:inline;stroke-opacity:1;stroke-width:7.79999962;stroke-miterlimit:4;stroke-dasharray:none"
     d="M 50.84375 38 C 43.720772 38 38 43.595051 38 50.5625 L 38 161.65625 C 38 168.6237 43.720772 174.21875 50.84375 174.21875 L 91.5625 174.21875 L 102.09375 184.5625 L 104.78125 187.75 L 151.21875 187.75 L 153.90625 184.5625 L 164.4375 174.21875 L 205.15625 174.21875 C 212.27923 174.21875 218 168.6237 218 161.65625 L 218 50.5625 C 218 43.595051 212.27923 38 205.15625 38 L 50.84375 38 z M 50.84375 42.1875 L 205.15625 42.1875 C 211.11746 42.1875 215.84375 46.783501 215.84375 52.53125 L 215.84375 159.6875 C 215.84375 159.91686 215.8272 160.14951 215.8125 160.375 C 215.26625 162.08116 214.46252 163.65788 213.46875 165 L 213.46875 83.25 C 211.72757 81.167387 209.18196 79.752886 206.25 79.46875 C 205.88773 79.43364 205.52883 79.40625 205.15625 79.40625 L 163 79.40625 L 163 101.15625 L 192 101.15625 A 3.0003 3.0003 0 0 1 194.28125 106.09375 L 130.125 181.9375 A 3.0003 3.0003 0 0 1 125.53125 181.9375 L 61.71875 106.09375 A 3.0003 3.0003 0 0 1 64 101.15625 L 93 101.15625 L 93 79.40625 L 50.84375 79.40625 C 50.471175 79.40625 50.112273 79.43364 49.75 79.46875 C 46.818034 79.752886 44.272432 81.167387 42.53125 83.25 L 42.53125 165 C 41.537483 163.65788 40.733742 162.08116 40.1875 160.375 C 40.17259 160.14951 40.15625 159.91686 40.15625 159.6875 L 40.15625 52.53125 C 40.156255 46.783501 44.882545 42.1875 50.84375 42.1875 z M 50.84375 45.03125 C 45.90408 45.03125 42.53125 48.650141 42.53125 52.53125 L 42.53125 79.59375 C 44.509786 77.955299 46.948899 76.878283 49.5625 76.625 C 49.961668 76.58632 50.386187 76.59375 50.84375 76.59375 L 93 76.59375 L 93 52 A 3.0003 3.0003 0 0 1 95.6875 49 A 3.0003 3.0003 0 0 1 96 49 L 160 49 A 3.0003 3.0003 0 0 1 163 52 L 163 76.59375 L 205.15625 76.59375 C 205.61381 76.59375 206.03833 76.58632 206.4375 76.625 C 209.0511 76.878283 211.49022 77.955298 213.46875 79.59375 L 213.46875 52.53125 C 213.46875 48.650142 210.09593 45.03125 205.15625 45.03125 L 50.84375 45.03125 z M 38 169.9375 L 38 202.875 C 38 211.25958 43.720783 218 50.84375 218 L 205.15625 218 C 212.27922 218 218 211.25958 218 202.875 L 218 169.9375 C 215.26013 174.2886 210.44983 177.0625 205.15625 177.0625 L 165.28125 177.0625 L 153.0625 189 A 2.3719089 2.8339993 0 0 1 151.5625 189.65625 L 104.4375 189.65625 A 2.3719089 2.8339993 0 0 1 102.9375 189 L 90.71875 177.0625 L 50.84375 177.0625 C 45.550176 177.0625 40.739868 174.2886 38 169.9375 z "
     id="path3926" />
  <g
     id="layer2-1"
     style="display:none"
     transform="translate(-57.948697,14.667977)">
    <rect
       width="86"
       height="85"
       rx="6"
       ry="6"
       x="5"
       y="7"
       id="rect3745-1"
       style="opacity:0.9;fill:url(#ButtonShadow-2);fill-opacity:1;fill-rule:nonzero;stroke:none;filter:url(#filter3174-9)" />
  </g>
</svg>
