<?xml version="1.0" encoding="UTF-8" standalone="no"?>
<!-- Created with Inkscape (http://www.inkscape.org/) -->

<svg
   xmlns:dc="http://purl.org/dc/elements/1.1/"
   xmlns:cc="http://creativecommons.org/ns#"
   xmlns:rdf="http://www.w3.org/1999/02/22-rdf-syntax-ns#"
   xmlns:svg="http://www.w3.org/2000/svg"
   xmlns="http://www.w3.org/2000/svg"
   xmlns:sodipodi="http://sodipodi.sourceforge.net/DTD/sodipodi-0.dtd"
   xmlns:inkscape="http://www.inkscape.org/namespaces/inkscape"
   width="22"
   height="22"
   id="svg2"
   version="1.1"
   inkscape:version="0.91 r13725"
   viewBox="0 0 22 22"
   sodipodi:docname="male.svg">
  <defs
     id="defs4" />
  <sodipodi:namedview
     id="base"
     pagecolor="#ffffff"
     bordercolor="#666666"
     borderopacity="1.0"
     inkscape:pageopacity="0.0"
     inkscape:pageshadow="2"
     inkscape:zoom="23.979306"
     inkscape:cx="-3.9208238"
     inkscape:cy="6.7332058"
     inkscape:document-units="px"
     inkscape:current-layer="layer1"
     showgrid="true"
     units="px"
     borderlayer="true"
     inkscape:showpageshadow="false"
     inkscape:window-width="1920"
     inkscape:window-height="992"
     inkscape:window-x="-4"
     inkscape:window-y="26"
     inkscape:window-maximized="1"
     showguides="true">
    <sodipodi:guide
       position="2,20.000017"
       orientation="18,0"
       id="guide4066" />
    <sodipodi:guide
       position="2,2.0000174"
       orientation="0,18"
       id="guide4068" />
    <sodipodi:guide
       position="20,2.0000174"
       orientation="-18,0"
       id="guide4070" />
    <sodipodi:guide
       position="20,20.000017"
       orientation="0,-18"
       id="guide4072" />
    <sodipodi:guide
       position="3,19.000017"
       orientation="16,0"
       id="guide4074" />
    <sodipodi:guide
       position="3,3.0000174"
       orientation="0,16"
       id="guide4076" />
    <sodipodi:guide
       position="19,3.0000174"
       orientation="-16,0"
       id="guide4078" />
    <sodipodi:guide
       position="19,19.000017"
       orientation="0,-16"
       id="guide4080" />
    <inkscape:grid
       type="xygrid"
       id="grid4101" />
    <sodipodi:guide
       position="8,19.000017"
       orientation="0,-5"
       id="guide4124" />
    <sodipodi:guide
       position="11,3.0000174"
       orientation="0,4"
       id="guide4241" />
  </sodipodi:namedview>
  <metadata
     id="metadata7">
    <rdf:RDF>
      <cc:Work
         rdf:about="">
        <dc:format>image/svg+xml</dc:format>
        <dc:type
           rdf:resource="http://purl.org/dc/dcmitype/StillImage" />
        <dc:title />
      </cc:Work>
    </rdf:RDF>
  </metadata>
  <g
     inkscape:label="Capa 1"
     inkscape:groupmode="layer"
     id="layer1"
     transform="translate(0,-1030.3622)">
    <path
       style="fill:#4d4d4d;fill-opacity:1;stroke:none"
       d="m 5.2234327,1034.3709 c -0.010002,0 -0.026964,0 -0.048807,0.01 -0.004,0 -0.0064,0 -0.010882,0 -0.038726,0.01 -0.081604,0.013 -0.1315478,0.023 -0.3505334,0.074 -0.6539477,0.2313 -0.9113303,0.4717 -0.0032,0 -0.0064,0.01 -0.00952,0.01 l -0.017603,0.018 c -0.00808,0.01 -0.016723,0.014 -0.024404,0.022 l -0.1857887,0.1759 0,0.4185 c 0,0.014 0.0016,0.029 0.0016,0.044 9.6e-5,0.014 -2.001e-4,0.028 0,0.042 9.6e-5,0.014 -2.001e-4,0.029 0,0.042 7.2e-5,0.01 -9.6e-5,0.013 0,0.019 2e-4,0.01 8.001e-4,0.017 0.0016,0.025 4.961e-4,0.014 6.001e-4,0.03 0.0016,0.043 0.0032,0.072 0.0072,0.1313 0.016242,0.1826 0.0072,0.064 0.015122,0.1181 0.024404,0.1432 0.070091,0.1883 0.64205,0.7464 0.7987695,0.78 0.073131,0.016 0.1524308,0.044 0.1762992,0.062 0.023844,0.018 0.2386838,0.016 0.4773604,-0.01 0.5380255,-0.049 0.6127727,-0.032 0.6889202,0.1513 0.035365,0.085 0.1034803,0.1568 0.181724,0.1937 0.004,0 0.008,0.01 0.012242,0.01 0.0048,0 0.010082,0.01 0.014882,0.01 0.1282672,0.063 0.2767295,0.2623 0.5343209,0.7158 0.016002,0.028 0.029524,0.053 0.040646,0.074 0.078332,0.147 0.035125,0.119 -0.1898605,-0.09 -0.301318,-0.2798 -1.1156017,-0.7358 -1.4565016,-0.8153 -0.016563,0 -0.034645,-0.01 -0.051528,-0.015 -0.012322,-0.01 -0.023524,-0.01 -0.035285,-0.015 -0.0064,0 -0.014642,-0.01 -0.020323,-0.01 -0.032885,-0.017 -0.060569,-0.037 -0.074571,-0.054 -0.043127,-0.054 -0.062329,-0.042 -0.1206981,0.071 -0.0048,0.01 -0.010161,0.019 -0.016242,0.029 -0.0016,0 -0.0024,0.01 -0.004,0.01 -4.001e-4,0 -8.001e-4,0 -0.0016,0 -0.0048,0.01 -0.010161,0.011 -0.014882,0.016 l -0.059689,0.056 c -0.061529,0.058 -0.1198179,0.1105 -0.173586,0.1596 -0.0032,0 -0.0056,0.01 -0.00816,0.01 -0.079852,0.062 -0.1853086,0.1539 -0.2807149,0.2413 -0.1219943,0.1118 -0.3094472,0.2484 -0.4448195,0.3272 -0.0032,0 -0.0056,0.01 -0.00816,0.01 -0.016002,0.01 -0.031925,0.018 -0.046087,0.025 -0.020083,0.011 -0.040646,0.022 -0.059689,0.033 -0.2799068,0.1528 -0.4359542,0.3102 -0.481425,0.4991 -0.0048,0.021 -0.00848,0.042 -0.010882,0.064 -4.961e-4,0 -8.001e-4,0.01 -0.0016,0.011 -0.008,0.091 0.0056,0.1879 0.042086,0.2959 0.0064,0.02 0.011922,0.038 0.017603,0.058 l 0.032565,0.1241 c 0.004,0.022 0.00824,0.042 0.010882,0.062 3.041e-4,0 -2e-4,0.01 0,0.01 8.002e-4,0.088 -0.014882,0.1991 -0.051528,0.3723 -6.961e-4,0 -0.0016,0.01 -0.0024,0.01 -0.055688,0.1943 -0.1515676,0.6121 -0.2251226,0.9695 -0.0056,0.023 -0.015762,0.069 -0.020323,0.089 -0.042086,0.1786 -0.06881,0.3123 -0.077292,0.4186 L 3,1041.0937 l 0.017603,0.037 c 7.041e-4,0.01 0.0032,0.013 0.004,0.019 9.61e-5,0 -1.04e-4,0 0,0 4.001e-4,0 8.002e-4,0 0.0016,0.01 9.6e-5,0 -1.04e-4,0 0,0 4e-4,0 8.001e-4,0 0.0016,0.01 0.0024,0.012 0.004,0.024 0.0064,0.035 0.0024,0.011 0.0056,0.023 0.00952,0.034 8.001e-4,0 0.0016,0.01 0.0024,0.01 0.037366,0.1129 0.1110566,0.2118 0.2074879,0.2714 0.038566,0.033 0.072091,0.054 0.088149,0.054 0.0072,0 0.019443,0 0.036645,0.01 0.0024,0 0.0056,0 0.00816,0 0.079292,0.038 0.1685613,0.08 0.2535989,0.1214 0.024564,0.012 0.050168,0.022 0.075931,0.031 0.0048,0 0.00904,0 0.013522,0.01 0.0016,0 0.0024,0 0.004,0 0.027764,0.018 0.071451,0.03 0.1301955,0.038 0.079532,0.018 0.1640486,0.029 0.2535989,0.031 0.1015752,0 0.2596869,0.012 0.4136228,0.023 0.0072,0 0.014802,0 0.021683,0 0.206671,0.034 0.3169515,0.042 0.4637983,0.023 0.106712,0 0.1993019,-0.016 0.2915718,-0.041 0.1420461,-0.038 0.2160732,-0.048 0.2508864,-0.027 4.961e-4,0 8.001e-4,0 0.0016,0 0.0048,0.01 0.00968,0.011 0.014882,0.018 0.025444,0.037 0.194742,0.3534 0.3824341,0.7185 0.3306264,0.6432 0.3440444,0.6817 0.2834353,0.7854 -0.0024,0 -0.0032,0.01 -0.0056,0.011 -0.0016,0 -0.004,0.01 -0.0056,0.01 -0.045767,0.085 -0.036886,0.1266 0.052888,0.3299 0.019843,0.045 0.035525,0.08 0.051528,0.1105 0.0024,0.01 0.0048,0.01 0.0064,0.012 0.011922,0.022 0.024804,0.043 0.038006,0.06 0.0016,0 0.0024,0 0.004,0.01 0.004,0.01 0.00896,0.01 0.013602,0.015 0.0016,0 0.0024,0 0.004,0.01 0.0048,0.01 0.00968,0.01 0.014882,0.014 0.0072,0.01 0.015122,0.012 0.023043,0.018 0.0024,0 0.004,0 0.0064,0.01 0.0064,0.01 0.012242,0.01 0.018963,0.012 0.058409,0.037 0.1424702,0.073 0.2793627,0.1295 0.1951413,0.081 0.3981406,0.1463 0.4515966,0.1459 0.053448,0 0.4632863,-0.1456 0.9113303,-0.3245 l 0.6265356,-0.2509 c 0.0016,0 0.0024,0 0.004,0 0.1013271,-0.033 0.1677051,-0.051 0.2007021,-0.052 l 0.2644486,0.364 c 0.203318,0.2795 0.30623,0.3859 0.374297,0.3859 0.09181,0 0.09384,0.01 0.06649,0.4255 -0.004,0.066 -0.0086,0.1373 -0.01216,0.2099 -0.01032,0.025 -0.01616,0.051 -0.01352,0.071 0.0016,0.01 0.0024,0.032 0.0024,0.062 -4.96e-4,0.01 -8e-4,0.014 -0.0016,0.023 -4e-4,0.01 -8e-4,0.011 -0.0016,0.018 -5.04e-4,0.012 4e-4,0.027 0,0.04 -8e-4,0.034 -0.0024,0.069 -0.0024,0.1063 -3.2e-5,0.01 0,0.013 0,0.021 -8e-6,0 0,0.01 0,0.01 -3.2e-5,0.01 0,0.011 0,0.018 l 0,0.1104 c -1.6e-5,0 0,0.01 0,0.014 l -0.01224,0.2578 -0.7363845,0.015 c -0.039526,0 -0.090421,0 -0.1342601,0 l -0.2630963,0 c -0.06737,0 -0.1250587,0 -0.1885003,0 -0.016402,0 -0.032645,-10e-5 -0.048807,0 -0.9786604,0 -1.377713,0.011 -1.5378651,0.058 -8.001e-4,0 -0.0032,0 -0.004,0 -0.048567,0.01 -0.077212,0.02 -0.089509,0.031 -0.017042,0.016 -0.022403,0.04 -0.014882,0.07 -7.2e-5,0 6.4e-5,0 0,0 -0.008,0.054 0.0072,0.098 0.032565,0.098 0.0048,0 0.00912,0 0.013522,0 0.00936,0.026 0.012402,0.047 0.00952,0.066 -0.018963,0.01 -0.047207,0.018 -0.080013,0.018 -0.1449817,0 -0.2156323,0.1047 -0.2156323,0.3218 0,0.124 0.008,0.196 0.040646,0.2372 4e-4,0 8.001e-4,0 0.0016,0 6.001e-4,0 6.961e-4,0 0.0016,0 0.0032,0 0.0072,0.01 0.010882,0.01 0.017523,0.017 0.041766,0.026 0.074571,0.031 0.0056,0 0.011442,0 0.017603,0 0.004,0 0.0072,0 0.010882,0 0.0072,0 0.015202,0 0.023043,0 0.0032,0 0.0064,-10e-5 0.00952,0 0.00832,0 0.016642,0 0.025764,0 0.0048,0 0.00856,0 0.013522,0 8.001e-4,0 0.0016,0 0.0024,0 0.0096,0 0.017203,0 0.025764,0 0.0024,-10e-5 0.0056,10e-5 0.00816,0 0.010561,0 0.020803,0 0.029844,0 0.057049,0 0.086661,-0.013 0.1044237,-0.044 2e-4,0 8.001e-4,0 0.0016,0 0.040886,-0.051 0.047447,-0.1574 0.047447,-0.3736 l 0,-0.255 0.4122626,0 c 0.2205059,0 0.4643505,0.01 0.7038432,0.01 0.4026052,0.016 0.7805267,0.037 0.8991204,0.049 l 0.206135,0.022 c 0.0016,0.019 -0.031125,0.054 -0.1044237,0.1119 l -0.5031323,0.3422 c -0.2178094,0.1485 -0.3704963,0.2578 -0.4827852,0.3449 l -0.2291872,0.1555 0.00952,0.054 c -0.035445,0.055 -0.038966,0.1 -0.023043,0.15 0.015042,0.048 -0.0056,0.1053 -0.062409,0.1704 -0.0016,0 -0.0032,0 -0.004,0.01 -0.004,0 -0.00824,0.01 -0.012162,0.011 -5.041e-4,0 -8.001e-4,0 -0.0016,0 -0.0048,0.01 -0.00944,0.01 -0.013602,0.015 -0.0024,0 -0.0048,0.01 -0.0064,0.01 -0.087757,0.091 -0.099791,0.1354 -0.08002,0.2836 0.010722,0.08 0.031045,0.1443 0.06377,0.1909 0.0064,0.014 0.016002,0.023 0.027124,0.031 8.001e-4,0 0.0016,0 0.0024,0 0.047767,0.046 0.1126569,0.07 0.1979977,0.07 0.1069448,0 0.1793157,-0.046 0.2183375,-0.135 0.0024,-0.01 0.0048,-0.01 0.0064,-0.014 8.001e-4,0 0.0016,-0.01 0.0024,-0.01 7.041e-4,0 6.001e-4,0 0.0016,-0.01 1.04e-4,0 8.001e-4,0 0.0016,0 5.041e-4,0 8.001e-4,0 0.0016,-0.01 0.0016,0 0.0024,-0.01 0.004,-0.012 0.017122,-0.049 0.024884,-0.1002 0.023043,-0.1514 4e-5,0 3.2e-5,-0.01 0,-0.011 -5.6e-5,0 6.4e-5,0 0,0 -6.001e-4,-0.054 -0.00808,-0.107 -0.021683,-0.154 -2.001e-4,0 -8.002e-4,0 -0.0016,0 -0.0064,-0.03 -0.015682,-0.054 -0.027124,-0.072 -8.002e-4,0 -0.0016,-0.01 -0.0024,-0.01 -7.041e-4,0 -0.0016,0 -0.0024,0 -0.025204,-0.045 -0.058169,-0.071 -0.097639,-0.071 -0.0016,0 -0.0024,0 -0.004,0 -0.008,-0.01 -0.016482,-0.013 -0.023043,-0.019 -0.0016,0 -0.004,0 -0.0056,-0.01 -2e-4,0 2e-4,0 0,0 -4.961e-4,0 -8.001e-4,0 -0.0016,0 -0.0064,-0.01 -0.011602,-0.016 -0.016243,-0.023 0.024804,-0.036 0.098183,-0.095 0.2224094,-0.1786 0.040566,-0.026 0.087213,-0.055 0.1356123,-0.086 0.1761392,-0.1017 0.4046055,-0.2351 0.6536677,-0.3844 0.2456452,-0.1472 0.4759442,-0.2821 0.6604362,-0.3873 0.02336,-0.014 0.04481,-0.025 0.06649,-0.037 0.152142,-0.082 0.272024,-0.1438 0.337682,-0.1704 0.2088795,0.013 1.8516185,0.3278 2.3529105,0.4458 0.09601,0.042 0.124106,0.087 0.12341,0.1609 -8e-6,0 0,0 0,0 -0.0072,0.023 -0.016,0.047 -0.02576,0.074 -0.0024,0.01 -0.0048,0.013 -0.0064,0.021 -0.0016,0.01 -0.0032,0.01 -0.004,0.014 -0.0048,0.014 -0.0108,0.026 -0.01488,0.04 -2e-4,0 -8e-4,0 -0.0016,0 -9.6e-5,0 1.04e-4,0 0,0 -0.01808,0.043 -0.02792,0.083 -0.02984,0.1254 -0.01456,0.1045 0.0024,0.1872 0.04881,0.2413 0.01408,0.029 0.03233,0.043 0.06377,0.05 0.02872,0.02 0.06577,0.03 0.112562,0.03 0.0056,0 0.0108,0 0.01624,0 0.0048,0 0.01,0 0.01488,0 0.01144,0 0.02152,0 0.0312,0 0.04905,-0.01 0.08063,-0.022 0.105777,-0.058 0.0011,0 0.003,0 0.0041,-0.01 0.04417,-0.047 0.06645,-0.1229 0.06645,-0.2318 0,-0.192 -0.06852,-0.3162 -0.174946,-0.3162 -0.0091,0 -0.0168,0 -0.0244,0 -6e-4,0 -8e-4,0 -0.0016,0 -0.0048,0 -0.0093,0 -0.01352,-0.01 -0.01888,-0.015 -0.03097,-0.034 -0.03793,-0.051 6.96e-4,-0.01 0.0016,-0.019 0.0024,-0.03 0.0056,-0.017 0.01432,-0.038 0.02712,-0.06 0.0016,0 0.0032,0 0.0056,-0.01 0.03705,-0.023 0.04777,-0.048 0.03392,-0.087 0.0048,-0.047 -0.02264,-0.089 -0.08815,-0.1281 -0.009,-0.01 -0.01744,-0.015 -0.02712,-0.021 -0.0048,0 -0.01256,-0.01 -0.02304,-0.01 -0.04937,-0.026 -0.122586,-0.049 -0.231898,-0.076 -0.06153,-0.018 -0.128716,-0.035 -0.207496,-0.053 l -0.444812,-0.1022 c -4.96e-4,0 -8e-4,0 -0.0016,0 -0.0024,0 -0.0056,0 -0.0082,-0.01 l 0,-0.1596 0,-0.037 c -2.4e-5,-0.2036 -0.04697,-0.2875 -0.170874,-0.2999 -0.0016,0 -0.0032,0 -0.0056,0 -4e-4,0 -8e-4,0 -0.0016,0 -0.0072,0 -0.0152,0 -0.02304,0 -0.0016,0 -0.0024,0 -0.004,0 -0.0092,0 -0.01688,0 -0.0244,0 -0.0016,-10e-5 -0.0024,0 -0.004,0 -0.0072,0 -0.01448,0 -0.02032,0 -8e-4,0 -0.0016,0 -0.0024,0 -0.004,0 -0.0072,0 -0.01088,-0.01 -0.0024,0 -0.004,0 -0.0056,0 -0.0172,-0.01 -0.01976,-0.029 -0.01352,-0.064 4e-4,0 8e-4,-0.01 0.0016,-0.01 0.0064,-0.021 0.01064,-0.039 0.01216,-0.054 4e-4,0 8e-4,-0.01 0.0016,-0.01 5.6e-5,0 -3.2e-5,0 0,0 0.0064,-0.053 -0.0084,-0.083 -0.04745,-0.098 -0.01352,-0.01 -0.06233,0 -0.134261,0.015 -0.0024,0 -0.0032,0 -0.0056,0 -0.06009,0.01 -0.152871,0.031 -0.272585,0.064 -0.0056,0 -0.0094,0 -0.01496,0.01 -0.07481,0.02 -0.1552,0.042 -0.237324,0.067 -0.261768,0.078 -0.482169,0.138 -0.56551,0.1581 -0.02352,-0.016 -0.04001,-0.084 -0.05561,-0.2549 -7.04e-4,-0.026 -0.0016,-0.05 -0.0016,-0.078 0,-0.01 2.4e-5,-0.01 0,-0.016 0,-0.051 -0.0024,-0.098 -0.004,-0.1405 -9.6e-5,0 1.04e-4,-0.01 0,-0.01 -4.8e-5,0 5.6e-5,0 0,-0.01 -2e-4,-0.01 -8e-4,-0.01 -0.0016,-0.014 4e-5,0 -4e-5,0 0,-0.01 -2e-4,0 2e-4,-0.01 0,-0.011 6e-4,-0.023 0.0016,-0.041 0.0024,-0.049 0.0024,-0.021 -0.004,-0.047 -0.01488,-0.072 -0.0016,-0.033 -0.0024,-0.054 -0.004,-0.087 l -0.0244,-0.63 c 0.02616,-0.1248 0.116842,-0.1965 0.382434,-0.3927 0.06065,-0.045 0.107969,-0.079 0.173587,-0.1282 0.02304,-0.017 0.03824,-0.028 0.06105,-0.045 0.427065,-0.3118 0.697227,-0.4769 0.861155,-0.5277 0.03785,-0.011 0.08608,-0.029 0.138325,-0.048 0.12878,-0.046 0.285892,-0.1067 0.405486,-0.1582 0.03112,-0.014 0.05825,-0.025 0.08408,-0.035 0.0024,0 0.0048,0 0.0064,0 0.11505,-0.039 0.211442,-0.061 0.2875,-0.064 0.02368,0 0.04689,0.01 0.07457,0.019 l 0.115274,0.038 c 5.04e-4,0 8e-4,0 0.0016,0 0.01408,0.014 0.03921,0.097 0.06777,0.2168 8e-4,0.01 0.0016,0.01 0.0024,0.015 l 0.164096,0.9123 c 0.111951,0.624 0.238003,1.3259 0.279365,1.5599 0.02224,0.1258 0.04232,0.2185 0.06102,0.2863 9.61e-4,0.01 0.0054,0.036 0.0054,0.038 -5e-4,0.017 0.0116,0.038 0.02849,0.058 0.0044,0.01 0.0078,0.017 0.0122,0.023 8e-6,10e-5 0.0014,0.01 0.0014,0.01 0,0 0.0053,0.01 0.0122,0.01 2e-4,0 -2e-4,0 0,0 0.0014,0 0.0025,0 0.0041,0 0.0042,0 0.008,0 0.0122,0 0.0016,0 0.0026,0 0.0041,0 0.0015,0 0.0026,0 0.0041,0 9.6e-4,2e-4 0.0018,0 0.0027,0 0.0018,0 0.0038,0 0.0054,0 8.8e-4,0 0.0018,0 0.0027,0 0.0049,0.01 0.0097,0.01 0.01356,0.016 0.0056,0.012 0.01005,0.028 0.0122,0.053 0.005,0.059 4e-4,0.1612 -0.01085,0.3273 -0.0131,0.1942 -0.04577,0.4071 -0.0773,0.51 -7e-4,0 -6e-4,0 -0.0014,0.01 -5e-4,0 -8.8e-4,0 -0.0014,0.01 -0.0036,0.01 -0.0071,0.018 -0.01085,0.029 -5e-4,0 -0.0022,0 -0.0027,0.01 -0.0609,0.1411 -0.09575,0.4055 -0.09222,0.5984 -0.0029,0.054 9.6e-4,0.093 0.0095,0.1228 2.01e-4,0 -2e-4,0 0,0.01 0.0067,0.042 0.01708,0.074 0.03119,0.091 0.08061,0.098 0.380107,0.2319 0.520759,0.2331 0.007,1e-4 0.01544,0 0.02441,0 9.6e-4,0 0.0017,0 0.0027,0 0.0019,0 0.0034,0 0.0054,0 0.01597,0 0.03337,0.01 0.05017,0.012 0.02511,0.01 0.05038,0.016 0.07594,0.025 0.05478,0.021 0.11351,0.046 0.166806,0.075 0.03373,0.018 0.07262,0.038 0.112561,0.058 0.0055,0 0.01074,0.01 0.01627,0.01 0.08247,0.043 0.179255,0.084 0.249531,0.1064 0.199765,0.062 0.516526,0.072 0.782494,0.045 0.111754,-0.01 0.21426,-0.022 0.288858,-0.041 0.164497,-0.043 0.197454,-0.07 0.208847,-0.1691 0.0086,-0.075 0.0011,-0.1314 -0.03526,-0.1895 l 0.0041,-0.046 -0.099,-0.058 c -0.0015,0 -0.0038,0 -0.0054,-0.01 -0.0671,-0.056 -0.163096,-0.1204 -0.298351,-0.2045 -0.223783,-0.139 -0.433103,-0.295 -0.600772,-0.4444 -0.0066,-0.01 -0.01254,-0.012 -0.01899,-0.018 -0.109224,-0.1028 -0.205152,-0.2035 -0.276651,-0.2959 -0.002,0 -0.0035,-0.01 -0.0054,-0.01 -0.01965,-0.028 -0.03608,-0.055 -0.04882,-0.08 -0.07918,-0.1561 -0.121759,-0.355 -0.122053,-0.5536 -1.1e-5,-0.01 -10e-5,-0.017 0,-0.025 2e-4,-0.012 7e-4,-0.023 0.0014,-0.035 4e-4,-0.01 8.8e-4,-0.015 0.0014,-0.023 8.8e-4,-0.014 0.0014,-0.028 0.0027,-0.042 0.0014,-0.015 0.0035,-0.03 0.0054,-0.045 0.0013,-0.01 0.0025,-0.021 0.0041,-0.031 0.01065,-0.071 0.01928,-0.1179 0.03526,-0.1499 0.02333,-0.029 0.05911,-0.054 0.105779,-0.075 0.0042,0 0.0077,0 0.0122,-0.01 0.01675,-0.01 0.03555,-0.01 0.05696,-0.016 0.110407,-0.03 0.200974,-0.058 0.275297,-0.087 0.0124,-0.01 0.02353,-0.01 0.03526,-0.014 0.0081,0 0.01407,-0.01 0.0217,-0.01 0.09146,-0.038 0.157232,-0.073 0.165449,-0.094 0.0013,0 0.0017,-0.01 0.0014,-0.02 5e-4,0 8.8e-4,0 0.0014,0 5e-4,0 8.8e-4,0 0.0014,0 0.0042,-0.01 0.0068,-0.018 0.0068,-0.027 0,-0.011 -0.0047,-0.039 -0.0122,-0.079 -0.01671,-0.091 -0.04998,-0.2502 -0.09086,-0.4295 -0.02551,-0.125 -0.05457,-0.2587 -0.08679,-0.4023 -0.111201,-0.4954 -0.248104,-1.1413 -0.303777,-1.4358 l -0.08137,-0.4309 -0.0027,-0.022 c -0.0043,-0.033 -0.0058,-0.056 -0.0054,-0.068 l 0.05967,0.048 0.04204,0.037 c 0.149571,0.1321 0.395705,0.3823 0.754016,0.7662 0.328242,0.3519 0.357983,0.3584 0.703839,0.1582 l 0.13697,-0.08 c 0.0254,-0.01 0.04656,0 0.07052,0.014 l 0.04475,0.039 0.192573,0.18 c 0.149175,0.1393 0.271227,0.2861 0.271227,0.3259 0,0.092 0.150339,0.3261 0.315983,0.4991 0.01449,0.015 0.02876,0.031 0.0434,0.045 0.0018,0 0.0037,0 0.0054,0.01 0.005,0.01 0.0099,0.012 0.01491,0.016 0.01567,0.015 0.02949,0.028 0.04204,0.039 l 0.07866,0.09 0.05017,-0.027 0.0014,0 c 0.01643,0 0.03315,0 0.04882,-0.01 0.141983,-0.046 0.532608,-0.4371 0.505842,-0.5073 -0.01579,-0.042 0.05753,-0.11 0.216984,-0.2059 0.109996,-0.066 0.28372,-0.1999 0.424471,-0.3218 0.02939,-0.025 0.05635,-0.048 0.08137,-0.071 0.002,0 0.0048,0 0.0068,-0.01 0.0083,-0.01 0.01682,-0.016 0.02441,-0.023 0.01381,-0.013 0.02891,-0.03 0.0434,-0.044 0.01178,-0.011 0.02314,-0.023 0.03526,-0.035 0.003,0 0.0065,-0.01 0.0095,-0.01 0.07156,-0.074 0.148135,-0.1587 0.221051,-0.2455 0.02961,-0.035 0.05758,-0.07 0.08544,-0.1049 0.007,-0.01 0.01487,-0.018 0.0217,-0.026 0.0034,-0.01 0.0062,-0.01 0.0095,-0.012 0.131856,-0.1657 0.230545,-0.3087 0.230545,-0.3518 0,0 4.7e-5,0 0,0 -2.4e-5,0 3.5e-5,0 0,0 1.1e-5,0 0,0 0,0 l 0.01626,-0.023 -0.0434,-0.035 c -0.0023,0 -0.0042,-0.01 -0.0068,-0.01 -5e-4,0 -7e-4,0 -0.0014,0 -2e-4,0 2e-4,0 0,0 -0.0064,-0.01 -0.01538,-0.014 -0.02306,-0.022 -0.0041,-0.01 -0.0092,-0.01 -0.01356,-0.014 -2e-4,0 2e-4,0 0,0 -0.0053,-0.01 -0.01067,-0.01 -0.01628,-0.015 -0.0026,0 -0.0054,-0.01 -0.0081,-0.01 -0.05436,-0.051 -0.120303,-0.1016 -0.172231,-0.12 -0.04824,-0.017 -0.167105,0.05 -0.347173,0.195 -0.02533,0.021 -0.047,0.038 -0.07052,0.056 -0.0099,0.01 -0.0199,0.013 -0.02984,0.021 -0.161953,0.1229 -0.288347,0.2064 -0.414979,0.2603 -0.0022,0 -0.0046,0 -0.0068,0 -0.0062,0 -0.01271,0.01 -0.01899,0.01 -0.123676,0.046 -0.251789,0.063 -0.427186,0.072 -0.41702,0.022 -0.413248,0.026 -1.236803,-0.739 -0.02885,-0.026 -0.057,-0.054 -0.08544,-0.08 -0.329898,-0.3224 -0.700517,-0.702 -1.019818,-1.0431 -0.191397,-0.2112 -0.393856,-0.4424 -0.62247,-0.709 -0.325227,-0.3792 -0.450077,-0.4908 -0.667222,-0.6 -0.0018,0 -0.0036,0 -0.0054,0 -8.81e-4,0 -0.0018,0 -0.0027,0 -0.01738,-0.01 -0.03474,-0.016 -0.05289,-0.025 -0.01812,-0.01 -0.03575,-0.016 -0.05425,-0.023 -4.01e-4,0 -9.6e-4,0 -0.0014,0 -0.117533,-0.048 -0.235576,-0.082 -0.295638,-0.082 -0.08035,0 -0.392024,0.061 -0.691632,0.1363 -0.03616,0.01 -0.05985,0.014 -0.09222,0.022 -0.0016,0 -0.0032,0 -0.004,0 -0.254735,0.054 -0.403878,0.075 -0.564158,0.078 -0.0072,0 -0.01504,0 -0.02168,-0.01 -0.07569,-0.022 -0.238347,-0.034 -0.362088,-0.025 -0.03016,0 -0.05569,0.01 -0.07865,0.01 l -0.151886,-0.01 -0.01896,0.09 c -0.0112,0.016 -0.01808,0.035 -0.02168,0.058 -0.02408,0.058 -0.0856,0.1146 -0.138326,0.1404 -6.96e-4,0 -0.0016,0 -0.0024,0 -0.03184,0 -0.05385,0 -0.06649,-0.012 -0.0048,-0.01 -0.0072,-0.021 -0.0095,-0.033 0.01288,-0.097 0.08535,-0.2153 0.145111,-0.2318 0.004,0 0.0094,0 0.01352,0 0.193325,0 -0.08225,-0.085 -0.438036,-0.1296 -0.208344,-0.026 -0.47632,-0.085 -0.595346,-0.1322 -0.107112,-0.042 -0.226442,-0.078 -0.282084,-0.084 -0.0024,0 -0.0032,0 -0.0056,0 -0.004,0 -0.0072,0 -0.01088,0 -0.0016,0 -0.0032,10e-5 -0.004,0 -0.0048,0 -0.0093,0 -0.01488,0 -0.01408,0 -0.03073,-0.011 -0.04881,-0.021 -4e-4,0 -8e-4,0 -0.0016,0 -0.0085,-0.01 -0.01808,-0.01 -0.02712,-0.015 -2e-4,0 -8e-4,0 -0.0016,0 -0.01856,-0.012 -0.03777,-0.027 -0.05697,-0.042 -2e-4,0 -8.01e-4,0 -0.0016,0 -0.0032,0 -0.0048,-0.01 -0.0082,-0.01 -0.0024,0 -0.0048,0 -0.0064,-0.01 -0.008,-0.01 -0.01616,-0.015 -0.02304,-0.023 -0.03753,-0.044 -0.07201,-0.074 -0.112561,-0.093 -2e-4,0 -8e-4,0 -0.0016,0 -5.05e-4,0 -8.01e-4,0 -0.0016,0 -4e-4,0 -8e-4,0 -0.0016,0 -0.01048,-0.01 -0.0208,-0.013 -0.0312,-0.018 -0.01032,-0.01 -0.02088,-0.01 -0.0312,-0.014 -6e-4,0 -6.96e-4,0 -0.0016,0 -0.01,0 -0.01984,-0.01 -0.02984,-0.01 -8e-4,0 -0.0016,0 -0.0024,0 -0.01096,0 -0.02176,-0.01 -0.03256,-0.01 -0.009,0 -0.01816,0 -0.02712,0 -0.0016,0 -0.0032,0 -0.0056,0 -0.01232,0 -0.0232,0 -0.03392,0 -0.06689,-0.012 -0.122771,-0.07 -0.250886,-0.2618 -0.193014,-0.3279 -0.3214329,-0.5353 -0.428545,-0.675 -0.010642,-0.017 -0.050888,-0.081 -0.055608,-0.088 -0.022643,-0.038 -0.1116816,-0.1064 -0.2169854,-0.1718 -0.0032,0 -0.0072,-0.01 -0.010882,-0.01 -0.011682,-0.01 -0.024004,-0.014 -0.036646,-0.022 -0.008,-0.01 -0.016162,-0.01 -0.024404,-0.014 -0.0016,0 -0.004,0 -0.0056,0 -0.0032,0 -0.0064,0 -0.00952,-0.01 -0.0032,0 -0.0064,0 -0.00952,-0.01 -0.0016,0 -0.0024,0 -0.004,0 -0.008,-0.01 -0.015282,-0.01 -0.023043,-0.014 -0.088533,-0.055 -0.2007829,-0.1408 -0.2997098,-0.2277 -0.00984,-0.01 -0.021043,-0.021 -0.029844,-0.031 -2.001e-4,0 2e-4,0 0,0 -0.011522,-0.014 -0.021603,-0.028 -0.031205,-0.043 -0.06785,-0.098 -0.2106884,-0.2216 -0.3241214,-0.2808 -0.0072,0 -0.013442,-0.01 -0.020323,-0.011 -4.961e-4,0 -8.001e-4,0 -0.0016,0 -0.035205,-0.026 -0.06689,-0.05 -0.089501,-0.062 -0.00856,-0.01 -0.016562,-0.01 -0.024404,-0.014 -0.023123,-0.019 -0.041926,-0.04 -0.058329,-0.062 -0.0048,-0.01 -0.00808,-0.013 -0.012162,-0.019 -0.010802,-0.02 -0.018003,-0.041 -0.023043,-0.064 -0.031365,-0.1437 -0.2404049,-0.3754 -0.4258247,-0.4718 -0.044407,-0.023 -0.1629773,-0.06 -0.2929328,-0.095 -0.018643,-0.01 -0.037686,-0.01 -0.056968,-0.015 -0.0048,0 -0.00992,0 -0.014882,-0.01 -0.015922,-0.01 -0.031605,-0.01 -0.047447,-0.011 -0.1402778,-0.034 -0.2736978,-0.063 -0.3268338,-0.064 -0.0064,0 -0.00968,0 -0.012162,0.01 l -0.016242,0 0.014882,0.025 0.0016,0.01 c 0.0016,0.01 0.0048,0.01 0.00816,0.016 0.019363,0.031 0.011362,0.039 -0.020323,0.019 -4e-4,0 -8.001e-4,0 -0.0016,0 -0.020723,-0.03 -0.033045,-0.054 -0.028484,-0.058 8.001e-4,0 6.961e-4,0 0,-0.01 -9.6e-5,0 9.6e-5,0 0,0 0.0064,-0.019 -0.031125,-0.068 -0.086798,-0.1106 -0.004,0 -0.00816,-0.01 -0.012162,-0.01 -0.004,-0.01 -0.008,-0.01 -0.012162,-0.012 -0.015202,-0.015 -0.027604,-0.03 -0.039286,-0.044 -0.0032,-0.01 -0.008,-0.01 -0.010882,-0.012 -0.019203,-0.028 -0.031205,-0.056 -0.031205,-0.077 0,-0.058 0.061049,-0.1385 0.1518876,-0.2072 0.00808,-0.01 0.014322,-0.01 0.023043,-0.015 0.020803,-0.013 0.040566,-0.025 0.058329,-0.038 0.012402,-0.01 0.025044,-0.014 0.038006,-0.02 0.1145212,-0.057 0.1508626,-0.2478 0.06377,-0.3354 -0.024164,-0.024 -0.052168,-0.074 -0.071851,-0.1241 -1.04e-4,0 9.6e-5,0 0,0 -7.041e-4,-0.01 -0.0024,-0.011 -0.0024,-0.015 0,0 1.6e-5,0 0,0 0,0 -0.0016,-0.01 -0.0024,-0.012 -9.6e-5,0 1.04e-4,0 0,0 -0.0032,-0.011 -0.00976,-0.025 -0.017603,-0.039 -0.004,-0.011 -0.00816,-0.023 -0.013522,-0.034 -0.008,-0.017 -0.016723,-0.033 -0.027124,-0.048 -0.015362,-0.022 -0.033845,-0.041 -0.051528,-0.054 -0.0056,-0.01 -0.011762,-0.01 -0.017603,-0.012 -0.0064,0 -0.011042,-0.01 -0.016242,-0.011 -0.013762,-0.018 -0.025924,-0.037 -0.035285,-0.056 -0.012482,-0.032 -0.014642,-0.065 -0.00816,-0.1022 9.6e-5,0 -1.04e-4,0 0,0 4.001e-4,0 8.001e-4,0 0.0016,-0.01 0.0016,-0.01 0.0032,-0.016 0.004,-0.023 0.004,-0.01 0.0048,-0.018 0.0024,-0.027 -1.04e-4,0 9.6e-5,0 0,0 6.4e-5,-0.01 4.961e-4,-0.01 0,-0.015 -0.004,-0.057 -0.051128,-0.079 -0.2156323,-0.1405 -0.1314277,-0.05 -0.214665,-0.1013 -0.2400368,-0.1486 -0.0032,-0.01 -0.004,-0.013 -0.0056,-0.019 -0.0016,-0.011 -0.0056,-0.026 -0.010882,-0.039 -0.0056,-0.037 -0.020003,-0.062 -0.035285,-0.064 -0.0032,-0.01 -0.0072,-0.01 -0.010882,-0.014 -0.0032,-0.01 -0.0064,-0.01 -0.00952,-0.014 -6.961e-4,0 -0.0016,0 -0.0024,0 -0.0024,0 -0.0032,-0.01 -0.0056,-0.011 -8.001e-4,0 -0.0016,0 -0.0024,0 -0.0056,-0.01 -0.011442,-0.015 -0.017603,-0.022 -8.001e-4,0 -0.0016,0 -0.0024,0 -0.0016,0 -0.0048,0 -0.0064,-0.01 -0.0016,0 -0.0032,-0.01 -0.0056,-0.01 -0.0024,0 -0.0048,-0.01 -0.0064,-0.01 -0.044487,-0.056 -0.08999,-0.1513 -0.1044236,-0.2222 -0.013762,-0.068 -0.031765,-0.1177 -0.061049,-0.1513 -0.025844,-0.042 -0.054728,-0.058 -0.1234113,-0.058 -0.013842,0 -0.027764,-0.01 -0.042006,-0.01 z m 1.1988302,2.6711 c 0.031125,-0.01 0.126723,0.04 0.2386766,0.1063 0.159648,0.1044 0.3630793,0.2673 0.5139819,0.4255 0.3778335,0.3958 0.6049796,0.6415 0.7485859,0.8126 0.025044,0.03 0.046087,0.056 0.06649,0.082 0.0032,0 0.0064,0.01 0.00952,0.012 0.0048,0.01 0.00896,0.013 0.013602,0.019 0.035445,0.046 0.06489,0.087 0.088149,0.1241 0.0016,0 0.004,0.01 0.0056,0.01 1.04e-4,0 -9.6e-5,0 0,0 0.020963,0.041 0.06673,0.1 0.1206981,0.1609 0.061929,0.074 0.1329168,0.1505 0.1952861,0.2086 0.098199,0.091 0.2586148,0.2899 0.381074,0.4677 0.0024,0 0.0056,0.01 0.00816,0.011 0.014642,0.022 0.028804,0.043 0.042006,0.064 0.1250508,0.1935 0.2594955,0.385 0.2997095,0.4254 0.09764,0.098 0.05705,0.091 -0.3010617,-0.054 -0.042006,-0.017 -0.080604,-0.033 -0.1152733,-0.049 -0.1515195,-0.071 -0.2434933,-0.1505 -0.3661597,-0.3381 -0.053528,-0.088 -0.1133138,-0.1911 -0.1735868,-0.3 -0.017683,-0.032 -0.035205,-0.064 -0.054248,-0.097 -0.0032,-0.01 -0.0064,-0.011 -0.00952,-0.017 -0.012642,-0.023 -0.023204,-0.042 -0.036646,-0.066 -0.099783,-0.1853 -0.2692172,-0.435 -0.3770094,-0.5549 -0.1077921,-0.12 -0.286667,-0.336 -0.3973564,-0.48 -0.3427882,-0.4459 -0.4591896,-0.5723 -0.6984095,-0.7622 -0.093959,-0.074 -0.1696663,-0.1435 -0.1979985,-0.1799 -6.001e-4,0 -6.961e-4,0 -0.0016,0 -0.0072,-0.01 -0.010722,-0.016 -0.010882,-0.021 -4.8e-5,0 6.001e-4,0 0.0016,0 0.0016,0 0.0024,0 0.004,0 8.002e-4,0 0.0016,0 0.0024,0 z m 0.2454617,3.7918 c 0.026884,0 0.057929,0 0.092214,0 0.1774266,0 0.1981977,0.011 0.097647,0.033 -0.1162014,0.025 -0.1644006,0.091 -0.1830834,0.2863 -8e-5,0 8e-5,0 0,0 -0.00912,0.054 -0.013362,0.1172 -0.013522,0.1869 -2.4e-5,0.01 1.041e-4,0.017 0,0.026 -0.013442,0.093 -0.033365,0.1713 -0.051528,0.2018 -0.0032,0 -0.0072,0 -0.010882,0 -0.020643,0 -0.051288,0.01 -0.081365,0.012 -0.0056,0 -0.010802,0 -0.016243,0.01 -0.0016,0 -0.0024,0 -0.004,0 -0.00976,0 -0.020243,0.01 -0.028484,0.01 -0.013202,0.01 -0.023764,0.01 -0.032565,0.01 -0.017283,-0.012 -0.026724,-0.036 -0.031205,-0.079 -1.04e-4,0 9.6e-5,0 0,-0.01 8.001e-4,-0.046 0.008,-0.1143 0.017603,-0.2153 0.011042,-0.1124 0.020243,-0.199 0.032565,-0.2646 0.0016,-0.01 0.0032,-0.018 0.0056,-0.026 0.0064,-0.025 0.013522,-0.048 0.020323,-0.068 0.0032,-0.01 0.0056,-0.014 0.00816,-0.022 2.001e-4,0 8.002e-4,0 0.0016,0 0.033365,-0.066 0.084469,-0.085 0.1776514,-0.089 z m 4.4915464,4.6782 c 0.004,0 -0.0032,0.1001 -0.01624,0.2141 -0.0032,0.027 -0.0064,0.05 -0.0095,0.071 -1.04e-4,0 9.6e-5,0 0,0.01 -5.04e-4,0 -8e-4,0.01 -0.0016,0.01 -0.01632,0.064 -0.04369,0.1 -0.100351,0.1091 -4e-4,0 -8e-4,10e-5 -0.0016,0 -0.009,0 -0.01776,0 -0.02848,0 -0.0087,0 -0.01848,0 -0.02848,-0.01 -0.0024,0 -0.0056,0 -0.0082,0 -0.01296,0 -0.03097,-0.01 -0.04609,-0.011 -0.01592,0 -0.03177,-0.01 -0.04881,-0.012 -0.03657,-0.01 -0.07929,-0.02 -0.127476,-0.033 l -0.221049,-0.058 c -0.0048,-0.01 0.0056,-0.018 0.02712,-0.033 0.009,-0.01 0.0212,-0.012 0.03392,-0.019 0.0224,-0.013 0.05193,-0.028 0.08408,-0.043 l 0.141046,-0.056 c 0.188981,-0.074 0.347437,-0.1328 0.351238,-0.1295 z"
       id="path3218"
       inkscape:connector-curvature="0" />
  </g>
</svg>
