<?xml version="1.0" encoding="UTF-8" standalone="no"?>
<!-- Created with Inkscape (http://www.inkscape.org/) -->

<svg
   xmlns:dc="http://purl.org/dc/elements/1.1/"
   xmlns:cc="http://creativecommons.org/ns#"
   xmlns:rdf="http://www.w3.org/1999/02/22-rdf-syntax-ns#"
   xmlns:svg="http://www.w3.org/2000/svg"
   xmlns="http://www.w3.org/2000/svg"
   xmlns:sodipodi="http://sodipodi.sourceforge.net/DTD/sodipodi-0.dtd"
   xmlns:inkscape="http://www.inkscape.org/namespaces/inkscape"
   version="1.1"
   width="256"
   height="256"
   id="svg2"
   inkscape:version="0.48.5 r10040"
   sodipodi:docname="package-downgrade.svg"
   inkscape:export-filename="/home/oleg/.kde/share/icons/K-High-Delight/actions/128/package-downgrade.png"
   inkscape:export-xdpi="45"
   inkscape:export-ydpi="45">
  <metadata
     id="metadata22">
    <rdf:RDF>
      <cc:Work
         rdf:about="">
        <dc:format>image/svg+xml</dc:format>
        <dc:type
           rdf:resource="http://purl.org/dc/dcmitype/StillImage" />
        <dc:title />
      </cc:Work>
    </rdf:RDF>
  </metadata>
  <sodipodi:namedview
     pagecolor="#ffffff"
     bordercolor="#666666"
     borderopacity="1"
     objecttolerance="10"
     gridtolerance="10"
     guidetolerance="10"
     inkscape:pageopacity="0"
     inkscape:pageshadow="2"
     inkscape:window-width="1920"
     inkscape:window-height="1031"
     id="namedview20"
     showgrid="false"
     inkscape:zoom="2.1210938"
     inkscape:cx="50.917129"
     inkscape:cy="128"
     inkscape:window-x="-4"
     inkscape:window-y="32"
     inkscape:window-maximized="1"
     inkscape:current-layer="svg2"
     inkscape:snap-bbox="true"
     inkscape:bbox-paths="true"
     inkscape:bbox-nodes="true"
     inkscape:snap-bbox-edge-midpoints="true"
     inkscape:snap-bbox-midpoints="true" />
  <defs
     id="defs4">
    <filter
       id="filter3174-1"
       color-interpolation-filters="sRGB">
      <feGaussianBlur
         stdDeviation="1.71"
         id="feGaussianBlur3176-5" />
    </filter>
    <linearGradient
       gradientTransform="scale(1.0058652,0.994169)"
       gradientUnits="userSpaceOnUse"
       id="ButtonShadow-1"
       y2="7.0165396"
       x2="45.447727"
       y1="92.539597"
       x1="45.447727">
      <stop
         offset="0"
         style="stop-color:#000000;stop-opacity:1"
         id="stop3750-3" />
      <stop
         offset="1"
         style="stop-color:#000000;stop-opacity:0.58823532"
         id="stop3752-2" />
    </linearGradient>
  </defs>
  <path
     style="fill:#da4453;fill-opacity:1;stroke:none"
     d="m 128,38 a 90,90 0 1 0 0,180 90,90 0 0 0 0,-180 z m -22.72164,40 45.44328,0 0,36.375 27.28472,0 L 128,178 77.993638,114.375 l 27.284722,0 0,-36.375 z"
     id="path3836"
     inkscape:connector-curvature="0" />
  <g
     id="layer2"
     style="display:none"
     transform="matrix(0.71689665,0,0,0.71689665,39.100204,144.1996)">
    <rect
       width="86"
       height="85"
       rx="6"
       ry="6"
       x="5"
       y="7"
       id="rect3745"
       style="opacity:0.9;fill:url(#ButtonShadow-1);fill-opacity:1;fill-rule:nonzero;stroke:none;filter:url(#filter3174-1)" />
  </g>
  <path
     style="fill:#f9f9f9;fill-opacity:1;stroke:#64b2e1;stroke-width:0.04714549000000000;stroke-miterlimit:4;stroke-opacity:1;stroke-dasharray:none"
     d="m 124.73112,173.38981 c -1.79432,-2.27563 -12.84762,-16.3364 -24.56287,-31.24616 l -21.300474,-27.10866 13.227623,-0.1252 13.227621,-0.12521 0,-18.379398 0,-18.379398 22.62983,0 22.62984,0 0,18.38674 0,18.386736 13.20073,0 c 7.26041,0 13.20074,0.10112 13.20074,0.2247 0,0.12359 -11.02289,14.2374 -24.49531,31.36403 l -24.49532,31.13933 -3.26241,-4.13751 0,0 z"
     id="path3757"
     inkscape:connector-curvature="0" />
</svg>
