<?xml version="1.0" encoding="UTF-8" standalone="no"?>
<!-- Created with Inkscape (http://www.inkscape.org/) -->

<svg
   xmlns:dc="http://purl.org/dc/elements/1.1/"
   xmlns:cc="http://creativecommons.org/ns#"
   xmlns:rdf="http://www.w3.org/1999/02/22-rdf-syntax-ns#"
   xmlns:svg="http://www.w3.org/2000/svg"
   xmlns="http://www.w3.org/2000/svg"
   xmlns:sodipodi="http://sodipodi.sourceforge.net/DTD/sodipodi-0.dtd"
   xmlns:inkscape="http://www.inkscape.org/namespaces/inkscape"
   version="1.1"
   width="256"
   height="256"
   id="svg2"
   inkscape:version="0.48.5 r10040"
   sodipodi:docname="package-broken.svg"
   inkscape:export-filename="/home/oleg/.kde/share/icons/K-High-Delight/actions/128/package-broken.png"
   inkscape:export-xdpi="45"
   inkscape:export-ydpi="45">
  <metadata
     id="metadata22">
    <rdf:RDF>
      <cc:Work
         rdf:about="">
        <dc:format>image/svg+xml</dc:format>
        <dc:type
           rdf:resource="http://purl.org/dc/dcmitype/StillImage" />
        <dc:title />
      </cc:Work>
    </rdf:RDF>
  </metadata>
  <sodipodi:namedview
     pagecolor="#ffffff"
     bordercolor="#666666"
     borderopacity="1"
     objecttolerance="10"
     gridtolerance="10"
     guidetolerance="10"
     inkscape:pageopacity="0"
     inkscape:pageshadow="2"
     inkscape:window-width="1920"
     inkscape:window-height="1031"
     id="namedview20"
     showgrid="false"
     inkscape:zoom="2.1210938"
     inkscape:cx="50.917129"
     inkscape:cy="128.23573"
     inkscape:window-x="-4"
     inkscape:window-y="32"
     inkscape:window-maximized="1"
     inkscape:current-layer="svg2"
     inkscape:snap-bbox="true"
     inkscape:bbox-paths="true"
     inkscape:bbox-nodes="true"
     inkscape:snap-bbox-edge-midpoints="true"
     inkscape:snap-bbox-midpoints="true"
     inkscape:object-paths="true"
     inkscape:snap-intersection-paths="true"
     inkscape:object-nodes="true"
     inkscape:snap-smooth-nodes="true"
     inkscape:snap-midpoints="true"
     inkscape:snap-object-midpoints="true"
     inkscape:snap-center="true" />
  <defs
     id="defs4">
    <filter
       id="filter3174-1"
       color-interpolation-filters="sRGB">
      <feGaussianBlur
         stdDeviation="1.71"
         id="feGaussianBlur3176-5" />
    </filter>
    <linearGradient
       gradientTransform="scale(1.0058652,0.994169)"
       gradientUnits="userSpaceOnUse"
       id="ButtonShadow-1"
       y2="7.0165396"
       x2="45.447727"
       y1="92.539597"
       x1="45.447727">
      <stop
         offset="0"
         style="stop-color:#000000;stop-opacity:1"
         id="stop3750-3" />
      <stop
         offset="1"
         style="stop-color:#000000;stop-opacity:0.58823532"
         id="stop3752-2" />
    </linearGradient>
  </defs>
  <g
     id="layer2"
     style="display:none"
     transform="matrix(0.71689665,0,0,0.71689665,39.100204,144.1996)">
    <rect
       width="86"
       height="85"
       rx="6"
       ry="6"
       x="5"
       y="7"
       id="rect3745"
       style="opacity:0.9;fill:url(#ButtonShadow-1);fill-opacity:1;fill-rule:nonzero;stroke:none;filter:url(#filter3174-1)" />
  </g>
  <path
     style="fill:#da4453;fill-opacity:1;stroke:none"
     d="m 128,38 a 90,90 0 1 0 0,180 90,90 0 0 0 0,-180 z m 0.28129,18 c 0.94788,0.0148 1.90353,0.154756 2.84411,0.4375 6.76875,1.601209 10.05021,9.4407 8.84487,16.03125 -2.36456,27.83337 -5.62498,55.50709 -7.65722,83.375 l -7.8135,0 c -2.45004,-29.01949 -5.74794,-57.687479 -8.62609,-86.59375 0,-0.905252 0.04,-1.825953 0.18752,-2.71875 0.72262,-5.778525 5.81975,-10.14272 11.28269,-10.5 0.31517,-0.02061 0.62166,-0.03618 0.93762,-0.03125 z m -0.56258,117.40625 c 4.74715,-0.0176 9.59931,2.63698 11.78275,7.15625 3.90261,6.99497 -0.13614,16.81433 -7.75098,18.8125 -7.86191,2.7279 -17.05646,-4.02071 -16.75213,-12.625 -0.0959,-4.01878 1.89671,-7.76493 4.87562,-10.28125 2.20995,-2.07527 4.99646,-3.0519 7.84474,-3.0625 z"
     id="path3836"
     inkscape:connector-curvature="0" />
  <path
     style="fill:#f9f9f9;fill-opacity:1;stroke:#64b2e1;stroke-width:0.04714549000000000;stroke-miterlimit:4;stroke-opacity:1;stroke-dasharray:none"
     d="m 124.64914,155.22652 c -0.0101,-1.69546 -3.17577,-34.14225 -5.6921,-58.342541 -1.60711,-15.455968 -2.75862,-28.550375 -2.61947,-29.787277 0.48483,-4.309685 3.09081,-7.787687 7.26801,-9.700074 6.33479,-2.90016 13.6992,0.805965 15.66545,7.8836 0.77969,2.806546 0.56591,6.15595 -2.3588,36.956052 -2.75112,28.97191 -4.71628,50.93298 -4.71628,52.70528 0,0.77854 -0.41299,0.87428 -3.77164,0.87428 -2.70113,0 -3.77264,-0.16727 -3.77517,-0.58932 z"
     id="path3757"
     inkscape:connector-curvature="0" />
  <path
     style="fill:#f9f9f9;fill-opacity:1;stroke:#64b2e1;stroke-width:0.04714549;stroke-miterlimit:4;stroke-opacity:1;stroke-dasharray:none"
     d="m 124.40709,198.97672 c -3.12547,-1.11167 -5.11123,-2.57465 -6.77294,-4.98986 -3.54221,-5.14843 -3.07916,-11.09521 1.23781,-15.89672 2.82795,-3.14536 5.10314,-4.19687 9.08089,-4.19687 5.25273,0 9.10736,2.46117 11.38072,7.26656 2.31076,4.88446 1.58809,10.03071 -1.97741,14.08134 -3.35502,3.8115 -8.53459,5.3057 -12.94907,3.73555 z"
     id="path3759"
     inkscape:connector-curvature="0" />
</svg>
