<?xml version="1.0" encoding="UTF-8" standalone="no"?>
<!-- Created with Inkscape (http://www.inkscape.org/) -->

<svg
   xmlns:dc="http://purl.org/dc/elements/1.1/"
   xmlns:cc="http://creativecommons.org/ns#"
   xmlns:rdf="http://www.w3.org/1999/02/22-rdf-syntax-ns#"
   xmlns:svg="http://www.w3.org/2000/svg"
   xmlns="http://www.w3.org/2000/svg"
   xmlns:sodipodi="http://sodipodi.sourceforge.net/DTD/sodipodi-0.dtd"
   xmlns:inkscape="http://www.inkscape.org/namespaces/inkscape"
   width="256"
   height="256"
   id="svg3792"
   version="1.1"
   inkscape:version="0.48.5 r10040"
   sodipodi:docname="package-reinstall.svg">
  <defs
     id="defs3794" />
  <sodipodi:namedview
     id="base"
     pagecolor="#ffffff"
     bordercolor="#666666"
     borderopacity="1.0"
     inkscape:pageopacity="0.0"
     inkscape:pageshadow="2"
     inkscape:zoom="2.1210938"
     inkscape:cx="50.917129"
     inkscape:cy="128"
     inkscape:document-units="px"
     inkscape:current-layer="layer1"
     showgrid="false"
     inkscape:window-width="1920"
     inkscape:window-height="1031"
     inkscape:window-x="-4"
     inkscape:window-y="32"
     inkscape:window-maximized="1" />
  <metadata
     id="metadata3797">
    <rdf:RDF>
      <cc:Work
         rdf:about="">
        <dc:format>image/svg+xml</dc:format>
        <dc:type
           rdf:resource="http://purl.org/dc/dcmitype/StillImage" />
        <dc:title />
      </cc:Work>
    </rdf:RDF>
  </metadata>
  <g
     inkscape:label="Layer 1"
     inkscape:groupmode="layer"
     id="layer1"
     transform="translate(0,-796.36218)">
    <path
       transform="matrix(1.1708287,0,0,2.0020277,110.32143,725.81256)"
       style="fill:#eff0f1;fill-opacity:1;stroke:none"
       d="m 91.967824,99.174263 c 0,24.827637 -34.415258,44.954417 -76.868629,44.954417 -42.453372,0 -76.86863,-20.12678 -76.86863,-44.954417 0,-24.827642 34.415258,-44.954422 76.86863,-44.954422 42.453371,0 76.868629,20.12678 76.868629,44.954422 z"
       id="path4308" />
    <path
       inkscape:connector-curvature="0"
       d="m 88,919.36218 -20,20 50.00001,40 c 0,0 10,-30 69.99999,-99.99998 -10,-10 0,0 -10,-10 -44.41249,49.99998 -59.99999,79.99998 -59.99999,79.99998 L 88,919.36218 z"
       id="path3326"
       style="fill:#2ecc71;fill-opacity:1;fill-rule:evenodd;stroke:none" />
  </g>
</svg>
