<?xml version="1.0" encoding="UTF-8" standalone="no"?>
<!-- Created with Inkscape (http://www.inkscape.org/) -->

<svg
   xmlns:dc="http://purl.org/dc/elements/1.1/"
   xmlns:cc="http://creativecommons.org/ns#"
   xmlns:rdf="http://www.w3.org/1999/02/22-rdf-syntax-ns#"
   xmlns:svg="http://www.w3.org/2000/svg"
   xmlns="http://www.w3.org/2000/svg"
   xmlns:sodipodi="http://sodipodi.sourceforge.net/DTD/sodipodi-0.dtd"
   xmlns:inkscape="http://www.inkscape.org/namespaces/inkscape"
   version="1.1"
   width="256"
   height="256"
   id="svg2"
   inkscape:version="0.48.5 r10040"
   sodipodi:docname="package-supported.svg"
   inkscape:export-filename="/home/oleg/.kde/share/icons/K-High-Delight/actions/128/package-supported.png"
   inkscape:export-xdpi="45"
   inkscape:export-ydpi="45">
  <metadata
     id="metadata22">
    <rdf:RDF>
      <cc:Work
         rdf:about="">
        <dc:format>image/svg+xml</dc:format>
        <dc:type
           rdf:resource="http://purl.org/dc/dcmitype/StillImage" />
        <dc:title />
      </cc:Work>
    </rdf:RDF>
  </metadata>
  <sodipodi:namedview
     pagecolor="#ffffff"
     bordercolor="#666666"
     borderopacity="1"
     objecttolerance="10"
     gridtolerance="10"
     guidetolerance="10"
     inkscape:pageopacity="0"
     inkscape:pageshadow="2"
     inkscape:window-width="1920"
     inkscape:window-height="1031"
     id="namedview20"
     showgrid="false"
     inkscape:zoom="2.1210938"
     inkscape:cx="50.917129"
     inkscape:cy="128"
     inkscape:window-x="-4"
     inkscape:window-y="32"
     inkscape:window-maximized="1"
     inkscape:current-layer="svg2"
     inkscape:snap-bbox="true"
     inkscape:bbox-paths="true"
     inkscape:bbox-nodes="true"
     inkscape:snap-bbox-edge-midpoints="true"
     inkscape:snap-bbox-midpoints="true" />
  <defs
     id="defs4">
    <filter
       id="filter3174-1"
       color-interpolation-filters="sRGB">
      <feGaussianBlur
         stdDeviation="1.71"
         id="feGaussianBlur3176-5" />
    </filter>
    <linearGradient
       gradientTransform="scale(1.0058652,0.994169)"
       gradientUnits="userSpaceOnUse"
       id="ButtonShadow-1"
       y2="7.0165396"
       x2="45.447727"
       y1="92.539597"
       x1="45.447727">
      <stop
         offset="0"
         style="stop-color:#000000;stop-opacity:1"
         id="stop3750-3" />
      <stop
         offset="1"
         style="stop-color:#000000;stop-opacity:0.58823532"
         id="stop3752-2" />
    </linearGradient>
  </defs>
  <g
     id="layer2"
     style="display:none"
     transform="matrix(0.71689665,0,0,0.71689665,39.100204,144.1996)">
    <rect
       width="86"
       height="85"
       rx="6"
       ry="6"
       x="5"
       y="7"
       id="rect3745"
       style="opacity:0.9;fill:url(#ButtonShadow-1);fill-opacity:1;fill-rule:nonzero;stroke:none;filter:url(#filter3174-1)" />
  </g>
  <path
     style="fill:#9b59b6;fill-opacity:1;stroke:none"
     d="m 128,38 a 90,90 0 1 0 0,180 90,90 0 0 0 0,-180 z m 29.75379,28 c 1.8549,0.04751 3.71783,0.543131 5.43819,1.53125 5.50516,3.165771 7.36787,10.175471 4.18803,15.65625 -3.17604,5.480965 -10.18414,7.353261 -15.6895,4.1875 -5.50134,-3.16199 -7.39533,-10.179068 -4.21928,-15.65625 2.18615,-3.768036 6.20176,-5.823267 10.28256,-5.71875 z m -29.62877,12.21875 c 4.62855,0 9.09214,0.64382 13.34544,1.8125 0.75031,4.604274 3.50003,8.860219 7.87601,11.375 4.36855,2.507394 9.43847,2.739406 13.81425,1.09375 8.51061,8.33223 14.03959,19.65908 14.84564,32.28125 l -16.40834,0.25 c -1.51184,-17.09712 -15.90993,-30.5 -33.473,-30.5 -5.05954,0 -9.85645,1.1317 -14.15806,3.125 L 105.96595,83.375 c 6.67903,-3.291312 14.20213,-5.15625 22.15907,-5.15625 z m -27.75353,8.375 8.43857,14.03125 c -8.64411,6.05775 -14.314322,16.05083 -14.314322,27.375 0,11.32474 5.670212,21.32105 14.314322,27.375 l -8.43857,14.03125 C 90.297113,162.70511 82.821895,152.46608 79.712607,140.46875 83.345499,137.51752 85.650862,133.0341 85.650862,128 c 0,-5.03712 -2.305363,-9.51752 -5.938255,-12.46875 3.112902,-11.99353 10.588317,-22.236159 20.658883,-28.9375 z m -30.878933,29.9375 c 6.355898,0 11.532717,5.13722 11.532717,11.46875 0,6.32851 -5.176819,11.46875 -11.532717,11.46875 -6.3597,0 -11.501464,-5.14024 -11.501464,-11.46875 0,-6.33153 5.141764,-11.46875 11.501464,-11.46875 z m 92.105463,14.4375 16.40834,0.25 c -0.80605,12.62238 -6.33503,23.94903 -14.84564,32.28125 -4.37578,-1.64565 -9.44208,-1.41743 -13.81425,1.09375 -4.37598,2.51857 -7.1257,6.77073 -7.87601,11.375 -4.2533,1.17246 -8.71689,1.8125 -13.34544,1.8125 -7.95694,0 -15.48004,-1.86115 -22.15907,-5.15625 l 8.00101,-14.28125 c 4.30161,1.99348 9.09852,3.125 14.15806,3.125 17.56307,0 31.96477,-13.39928 33.473,-30.5 z m -4.46931,36.125 c 4.08044,-0.10482 8.0989,1.95319 10.28255,5.71875 3.17967,5.48078 1.28588,12.49408 -4.21928,15.65625 -5.50515,3.16559 -12.54451,1.29347 -15.72075,-4.1875 -3.17966,-5.47719 -1.28588,-12.49068 4.21928,-15.65625 1.71923,-0.98818 3.58345,-1.4836 5.4382,-1.53125 z"
     id="path3836"
     inkscape:connector-curvature="0" />
  <g
     id="g3769"
     style="fill:#f9f9f9">
    <path
       inkscape:connector-curvature="0"
       id="path3757"
       d="m 96.776647,166.29712 c -7.30824,-5.80759 -13.205489,-14.36649 -15.987315,-23.203 l -0.813922,-2.58543 2.032842,-2.26101 C 84.481071,135.49731 85.66058,132.18785 85.66058,128 c 0,-4.18661 -1.184669,-7.51664 -3.638132,-10.22658 l -2.013272,-2.22373 0.801515,-2.61462 c 2.683145,-8.7527 8.624793,-17.398439 15.965956,-23.232192 l 3.478033,-2.763862 3.76882,6.268982 c 2.07285,3.44794 3.86133,6.505364 3.9744,6.794272 0.11308,0.28891 -1.21637,1.88007 -2.95432,3.53591 -4.20552,4.00683 -7.271642,8.77111 -8.960033,13.92251 -1.23632,3.77211 -1.368261,4.78841 -1.368261,10.53931 0,5.7509 0.131941,6.7672 1.368261,10.53931 1.688391,5.1514 4.754513,9.91568 8.960033,13.92251 1.73795,1.65584 3.0674,3.247 2.95432,3.53591 -0.11307,0.28891 -1.90155,3.34633 -3.9744,6.79427 l -3.76882,6.26898 -3.478033,-2.76386 z"
       style="fill:#f9f9f9;fill-opacity:1;stroke:#64b2e1;stroke-width:0.04714549000000000;stroke-miterlimit:4;stroke-opacity:1;stroke-dasharray:none" />
    <path
       inkscape:connector-curvature="0"
       id="path3759"
       d="m 64.437394,137.78322 c -7.191421,-3.58364 -8.235312,-12.93148 -2.036599,-18.23735 5.668728,-4.85222 14.046315,-2.86993 17.28748,4.09053 4.344719,9.33036 -5.881155,18.81595 -15.250881,14.14682 z"
       style="fill:#f9f9f9;fill-opacity:1;stroke:#64b2e1;stroke-width:0.04714549000000000;stroke-miterlimit:4;stroke-opacity:1;stroke-dasharray:none" />
    <path
       inkscape:connector-curvature="0"
       id="path3761"
       d="m 161.72809,124.01621 c -0.12818,-0.45378 -0.37607,-1.77975 -0.55086,-2.9466 -0.86021,-5.74238 -4.68385,-12.42882 -10.01217,-17.50837 -6.61305,-6.304297 -13.80623,-9.102908 -23.21221,-9.03105 -4.40149,0.03363 -6.20976,0.275314 -9.60948,1.284376 -2.30326,0.683626 -4.30822,1.12249 -4.45545,0.975254 -0.14724,-0.147236 -1.89538,-3.177665 -3.88477,-6.734285 -3.59639,-6.429632 -3.61103,-6.469851 -2.56078,-7.038328 1.87905,-1.017098 8.31281,-3.021108 11.90662,-3.708717 4.66961,-0.893445 14.01887,-0.791941 18.45546,0.200368 3.45122,0.771916 3.49269,0.799237 4.04599,2.665729 1.30871,4.414704 4.32905,7.908597 8.5718,9.915736 3.02989,1.433371 7.97686,1.999206 10.75258,1.229884 1.72508,-0.478125 1.96897,-0.423738 3.14276,0.70082 2.13099,2.041618 6.33754,8.209893 8.31844,12.197763 2.717,5.46974 3.90181,9.48277 4.95939,16.79786 0.16922,1.1705 0.0451,1.25599 -2.21968,1.52813 -1.31942,0.15855 -4.87746,0.29012 -7.90676,0.29237 -4.84455,0.004 -5.53589,-0.0952 -5.74088,-0.82094 l 0,0 z"
       style="fill:#f9f9f9;fill-opacity:1;stroke:#64b2e1;stroke-width:0.04714549000000000;stroke-miterlimit:4;stroke-opacity:1;stroke-dasharray:none" />
    <path
       inkscape:connector-curvature="0"
       id="path3763"
       d="m 153.43229,87.795568 c -5.65578,-2.453463 -8.43655,-8.364776 -6.54769,-13.918953 2.09808,-6.169377 9.65317,-9.272068 15.43872,-6.340307 4.04026,2.047353 6.17465,5.452557 6.17465,9.851011 0,4.472697 -2.39324,8.292716 -6.36504,10.159682 -2.50193,1.176045 -6.3117,1.284886 -8.70064,0.248567 z"
       style="fill:#f9f9f9;fill-opacity:1;stroke:#64b2e1;stroke-width:0.04714549000000000;stroke-miterlimit:4;stroke-opacity:1;stroke-dasharray:none" />
    <path
       inkscape:connector-curvature="0"
       id="path3765"
       d="m 122.2954,177.14884 c -3.89005,-0.47976 -10.31477,-2.19941 -13.77165,-3.68615 l -2.22101,-0.95521 3.80936,-6.74287 c 2.09514,-3.70859 3.84623,-6.78734 3.89132,-6.84168 0.0451,-0.0543 1.7701,0.46455 3.83338,1.15308 3.33751,1.11375 4.47966,1.25292 10.35178,1.26141 6.00726,0.009 6.93929,-0.10797 10.37201,-1.29817 10.46344,-3.62792 18.26017,-11.40637 21.65969,-21.60893 0.66323,-1.99047 1.20587,-4.04163 1.20587,-4.55813 0,-2.42181 0.0304,-2.43057 8.4501,-2.43057 l 7.87776,0 -0.32121,2.71087 c -1.1216,9.46578 -5.77291,19.65347 -12.09893,26.50008 l -2.25763,2.44342 -3.2261,-0.52094 c -6.69763,-1.08152 -13.30988,2.11183 -16.68307,8.05698 -0.53354,0.94036 -1.11509,2.36997 -1.29232,3.17691 -0.39464,1.79675 -0.61944,1.94168 -4.214,2.7168 -3.9635,0.85468 -11.1309,1.14533 -15.36535,0.6231 z"
       style="fill:#f9f9f9;fill-opacity:1;stroke:#64b2e1;stroke-width:0.04714549000000000;stroke-miterlimit:4;stroke-opacity:1;stroke-dasharray:none" />
    <path
       inkscape:connector-curvature="0"
       id="path3767"
       d="m 155.06151,189.48495 c -5.22804,-1.36063 -8.73324,-5.78683 -8.71156,-11.00056 0.0403,-9.70409 11.98559,-14.70173 18.81536,-7.87196 4.31775,4.31774 4.45047,11.31237 0.29669,15.63611 -2.56145,2.66625 -7.12946,4.08772 -10.40049,3.23641 z"
       style="fill:#f9f9f9;fill-opacity:1;stroke:#64b2e1;stroke-width:0.04714549000000000;stroke-miterlimit:4;stroke-opacity:1;stroke-dasharray:none" />
  </g>
</svg>
