<?xml version="1.0" encoding="UTF-8" standalone="no"?>
<!-- Created with Inkscape (http://www.inkscape.org/) -->

<svg
   xmlns:dc="http://purl.org/dc/elements/1.1/"
   xmlns:cc="http://creativecommons.org/ns#"
   xmlns:rdf="http://www.w3.org/1999/02/22-rdf-syntax-ns#"
   xmlns:svg="http://www.w3.org/2000/svg"
   xmlns="http://www.w3.org/2000/svg"
   xmlns:sodipodi="http://sodipodi.sourceforge.net/DTD/sodipodi-0.dtd"
   xmlns:inkscape="http://www.inkscape.org/namespaces/inkscape"
   width="22"
   height="22"
   id="svg3049"
   version="1.1"
   inkscape:version="0.91 r13725"
   sodipodi:docname="vcs-switch-svn-kiosvn.svg"
   inkscape:export-filename="/home/uri/.kde/share/icons/NITRUX-KDE/16x16/actions/view-right-new.png"
   inkscape:export-xdpi="30"
   inkscape:export-ydpi="30">
  <defs
     id="defs3051" />
  <sodipodi:namedview
     id="base"
     pagecolor="#ffffff"
     bordercolor="#666666"
     borderopacity="1.0"
     inkscape:pageopacity="0.0"
     inkscape:pageshadow="2"
     inkscape:zoom="22.627417"
     inkscape:cx="9.966782"
     inkscape:cy="4.3741642"
     inkscape:document-units="px"
     inkscape:current-layer="layer1"
     showgrid="true"
     fit-margin-top="0"
     fit-margin-left="0"
     fit-margin-right="0"
     fit-margin-bottom="0"
     inkscape:window-width="1920"
     inkscape:window-height="992"
     inkscape:window-x="-4"
     inkscape:window-y="26"
     inkscape:window-maximized="1"
     inkscape:showpageshadow="false"
     borderlayer="true">
    <sodipodi:guide
       position="2.0000044,20.00003"
       orientation="18,0"
       id="guide4067" />
    <sodipodi:guide
       position="2.0000044,2.0000296"
       orientation="0,18"
       id="guide4069" />
    <sodipodi:guide
       position="20.000004,2.0000296"
       orientation="-18,0"
       id="guide4071" />
    <sodipodi:guide
       position="20.000004,20.00003"
       orientation="0,-18"
       id="guide4073" />
    <sodipodi:guide
       position="3.0000044,19.00003"
       orientation="16,0"
       id="guide4077" />
    <sodipodi:guide
       position="3.0000044,3.0000296"
       orientation="0,16"
       id="guide4079" />
    <sodipodi:guide
       position="19.000004,3.0000296"
       orientation="-16,0"
       id="guide4081" />
    <sodipodi:guide
       position="19.000004,19.00003"
       orientation="0,-16"
       id="guide4083" />
    <inkscape:grid
       type="xygrid"
       id="grid4085" />
  </sodipodi:namedview>
  <metadata
     id="metadata3054">
    <rdf:RDF>
      <cc:Work
         rdf:about="">
        <dc:format>image/svg+xml</dc:format>
        <dc:type
           rdf:resource="http://purl.org/dc/dcmitype/StillImage" />
        <dc:title />
      </cc:Work>
    </rdf:RDF>
  </metadata>
  <g
     inkscape:label="Capa 1"
     inkscape:groupmode="layer"
     id="layer1"
     transform="translate(-421.71429,-525.79074)">
    <path
       inkscape:connector-curvature="0"
       style="fill:#4d4d4d;fill-opacity:1;stroke:none"
       d="m 425.71429,528.79094 0,15.9998 0.99995,0 7.99966,0 0.99996,0 0,-0.0107 0.008,0.0107 3.99201,-3.99215 0,-0.008 0,-1.40624 0,-10.59361 -0.99995,0 -11.99948,0 -0.99997,0 z m 0.99995,1 11.9995,0 0,9.99988 -3.99984,0 0,0.99998 0,2.99996 -7.99966,0 0,-13.99982 z"
       id="rect4139" />
    <path
       inkscape:connector-curvature="0"
       style="opacity:1;fill:#4d4d4d;fill-opacity:1;stroke:none"
       d="m 433.49287,532.29074 -0.34773,0.35351 1.12775,1.14647 -1.12392,0 -0.49568,0 -0.24207,0 c -1.7711,0 -3.19693,1.44952 -3.19693,3.25002 0,1.8005 1.42583,3.25 3.19693,3.25 l 0.73775,0 0,-0.5 -0.73775,0 c -1.49863,0 -2.7051,-1.2265 -2.7051,-2.75 0,-1.52351 1.20647,-2.75001 2.7051,-2.75001 l 0.24207,0 0.49568,0 1.12392,0 -1.12775,1.1465 0.34773,0.35351 1.61959,-1.64649 0.10183,-0.10352 -0.10183,-0.10351 -1.61959,-1.64648 z"
       id="rect4216" />
  </g>
</svg>
