<?xml version="1.0" encoding="UTF-8" standalone="no"?>
<!-- Created with Inkscape (http://www.inkscape.org/) -->

<svg
   xmlns:dc="http://purl.org/dc/elements/1.1/"
   xmlns:cc="http://creativecommons.org/ns#"
   xmlns:rdf="http://www.w3.org/1999/02/22-rdf-syntax-ns#"
   xmlns:svg="http://www.w3.org/2000/svg"
   xmlns="http://www.w3.org/2000/svg"
   xmlns:sodipodi="http://sodipodi.sourceforge.net/DTD/sodipodi-0.dtd"
   xmlns:inkscape="http://www.inkscape.org/namespaces/inkscape"
   id="svg7384"
   height="22"
   width="22"
   version="1.1"
   inkscape:version="0.48.5 r10040"
   sodipodi:docname="view-process-own.svg"
   inkscape:export-filename="/home/uri/Descargas/NITRUX-KDE/NITRUX-KDE/16x16/actions/view-preview.png"
   inkscape:export-xdpi="30"
   inkscape:export-ydpi="30">
  <defs
     id="defs9" />
  <sodipodi:namedview
     pagecolor="#ffffff"
     bordercolor="#666666"
     borderopacity="1"
     objecttolerance="10"
     gridtolerance="10"
     guidetolerance="10"
     inkscape:pageopacity="0"
     inkscape:pageshadow="2"
     inkscape:window-width="1920"
     inkscape:window-height="1031"
     id="namedview7"
     showgrid="true"
     inkscape:zoom="23.334524"
     inkscape:cx="14.576737"
     inkscape:cy="9.6940232"
     inkscape:window-x="-4"
     inkscape:window-y="32"
     inkscape:window-maximized="1"
     inkscape:current-layer="svg7384"
     inkscape:showpageshadow="false"
     borderlayer="true">
    <sodipodi:guide
       position="2,20"
       orientation="18,0"
       id="guide4064" />
    <sodipodi:guide
       position="2,2"
       orientation="0,18"
       id="guide4066" />
    <sodipodi:guide
       position="20,2"
       orientation="-18,0"
       id="guide4068" />
    <sodipodi:guide
       position="20,20"
       orientation="0,-18"
       id="guide4070" />
    <sodipodi:guide
       position="3,19"
       orientation="16,0"
       id="guide4072" />
    <sodipodi:guide
       position="3,3"
       orientation="0,16"
       id="guide4074" />
    <sodipodi:guide
       position="19,3"
       orientation="-16,0"
       id="guide4076" />
    <sodipodi:guide
       position="19,19"
       orientation="0,-16"
       id="guide4078" />
    <inkscape:grid
       type="xygrid"
       id="grid4080" />
    <sodipodi:guide
       position="5,17"
       orientation="12,0"
       id="guide4089" />
    <sodipodi:guide
       position="5,5"
       orientation="0,12"
       id="guide4091" />
    <sodipodi:guide
       position="17,5"
       orientation="-12,0"
       id="guide4093" />
    <sodipodi:guide
       position="17,17"
       orientation="0,-12"
       id="guide4095" />
    <sodipodi:guide
       position="5,10"
       orientation="5,0"
       id="guide4127" />
    <sodipodi:guide
       position="5,5"
       orientation="0,5"
       id="guide4129" />
    <sodipodi:guide
       position="10,5"
       orientation="-5,0"
       id="guide4131" />
    <sodipodi:guide
       position="10,10"
       orientation="0,-5"
       id="guide4133" />
    <sodipodi:guide
       position="10,12"
       orientation="7,0"
       id="guide4135" />
    <sodipodi:guide
       position="10,5"
       orientation="0,7"
       id="guide4137" />
    <sodipodi:guide
       position="17,5"
       orientation="-7,0"
       id="guide4139" />
    <sodipodi:guide
       position="17,12"
       orientation="0,-7"
       id="guide4141" />
    <sodipodi:guide
       position="5,17"
       orientation="5,0"
       id="guide4147" />
    <sodipodi:guide
       position="5,12"
       orientation="0,5"
       id="guide4149" />
    <sodipodi:guide
       position="10,12"
       orientation="-5,0"
       id="guide4151" />
    <sodipodi:guide
       position="10,17"
       orientation="0,-5"
       id="guide4153" />
    <sodipodi:guide
       position="7.6999952,5.7071148"
       orientation="0.70710678,0.70710678"
       id="guide4175" />
    <sodipodi:guide
       position="8.407102,5.000008"
       orientation="-6.2932501,6.2932501"
       id="guide4177" />
    <sodipodi:guide
       position="13.993245,12.000365"
       orientation="6.2932501,-6.2932501"
       id="guide4181" />
    <sodipodi:guide
       position="9.3066406,10"
       orientation="0.707031,-0.7070312"
       id="guide4188" />
    <sodipodi:guide
       position="8.5996094,9.292969"
       orientation="2.050781,2.0488286"
       id="guide4190" />
    <sodipodi:guide
       position="11.355469,7.949219"
       orientation="-2.050781,-2.0488284"
       id="guide4194" />
    <sodipodi:guide
       position="20.300349,5.7071173"
       orientation="0.70710678,-0.70710678"
       id="guide4203" />
    <sodipodi:guide
       position="19.593242,5.0000105"
       orientation="-6.2932501,-6.2932501"
       id="guide4205" />
    <sodipodi:guide
       position="14.007099,12.000367"
       orientation="6.2932501,6.2932501"
       id="guide4209" />
  </sodipodi:namedview>
  <metadata
     id="metadata90">
    <rdf:RDF>
      <cc:Work
         rdf:about="">
        <dc:format>image/svg+xml</dc:format>
        <dc:type
           rdf:resource="http://purl.org/dc/dcmitype/StillImage" />
        <dc:title>Gnome Symbolic Icon Theme</dc:title>
      </cc:Work>
    </rdf:RDF>
  </metadata>
  <title
     id="title9167">Gnome Symbolic Icon Theme</title>
  <path
     inkscape:connector-curvature="0"
     sodipodi:nodetypes="ccccccc"
     style="fill:none;stroke:#4d4d4d;stroke-width:0.7336005;stroke-linecap:round;stroke-linejoin:round;stroke-miterlimit:4;stroke-opacity:1;stroke-dasharray:none;stroke-dashoffset:4"
     d="m 3.3668003,4.1812565 0,14.4440155 15.2663997,0.0079 0,-13.4408425 -9.3402768,0.016717 0.011641,-1.0277848 -5.9377636,0 z"
     id="path1446" />
  <g
     transform="matrix(0.14193304,0,0,0.14193656,1.8477285,2.1583139)"
     id="g3050"
     style="fill:none;stroke:#4d4d4d;stroke-opacity:1;fill-opacity:0">
    <path
       inkscape:connector-curvature="0"
       style="fill:none;stroke:#4d4d4d;stroke-width:3.14626216999999997;stroke-linecap:butt;stroke-linejoin:miter;stroke-miterlimit:4;stroke-opacity:1;stroke-dasharray:none;fill-opacity:0"
       d="m 25.584494,44.897999 81.400646,0"
       id="path3741"
       sodipodi:nodetypes="cc" />
    <path
       inkscape:connector-curvature="0"
       id="path3749"
       d="m 41.99789,44.022721 0,52.224795"
       style="fill:none;stroke:#4d4d4d;stroke-width:3.14626216999999997;stroke-linecap:butt;stroke-linejoin:miter;stroke-miterlimit:4;stroke-opacity:1;stroke-dasharray:none;fill-opacity:0"
       inkscape:export-xdpi="15.46875"
       inkscape:export-ydpi="15.46875"
       sodipodi:nodetypes="cc" />
    <path
       inkscape:connector-curvature="0"
       style="fill:none;stroke:#4d4d4d;stroke-width:3.14626216999999997;stroke-linecap:butt;stroke-linejoin:miter;stroke-miterlimit:4;stroke-opacity:1;stroke-dasharray:none;fill-opacity:0"
       d="m 64.483023,44.022721 0,52.516554"
       id="path3751"
       sodipodi:nodetypes="cc" />
    <path
       inkscape:connector-curvature="0"
       id="path3753"
       d="m 85.414741,44.022721 0,52.808312"
       style="fill:none;stroke:#4d4d4d;stroke-width:3.14626216999999997;stroke-linecap:butt;stroke-linejoin:miter;stroke-miterlimit:4;stroke-opacity:1;stroke-dasharray:none;fill-opacity:0"
       sodipodi:nodetypes="cc" />
    <path
       inkscape:connector-curvature="0"
       sodipodi:nodetypes="cc"
       id="path6634"
       d="m 25.584494,64.090987 81.400646,0"
       style="fill:none;stroke:#4d4d4d;stroke-width:3.14626216999999997;stroke-linecap:butt;stroke-linejoin:miter;stroke-miterlimit:4;stroke-opacity:1;stroke-dasharray:none;fill-opacity:0" />
    <path
       inkscape:connector-curvature="0"
       style="fill:none;stroke:#4d4d4d;stroke-width:3.14626216999999997;stroke-linecap:butt;stroke-linejoin:miter;stroke-miterlimit:4;stroke-opacity:1;stroke-dasharray:none;fill-opacity:0"
       d="m 25.584494,96.744342 81.400646,0"
       id="path6636"
       sodipodi:nodetypes="cc" />
    <path
       inkscape:connector-curvature="0"
       style="fill:none;stroke:#4d4d4d;stroke-width:3.14626216999999997;stroke-linecap:butt;stroke-linejoin:miter;stroke-miterlimit:4;stroke-opacity:1;stroke-dasharray:none;fill-opacity:0"
       d="m 25.584494,80.902593 81.400646,0"
       id="path6644"
       sodipodi:nodetypes="cc" />
    <path
       inkscape:connector-curvature="0"
       sodipodi:nodetypes="cc"
       style="fill:none;stroke:#4d4d4d;stroke-width:3.14626216999999997;stroke-linecap:butt;stroke-linejoin:miter;stroke-miterlimit:4;stroke-opacity:1;stroke-dasharray:none;fill-opacity:0"
       d="m 105.483,44.022721 0,52.808312"
       id="path6662" />
    <path
       inkscape:connector-curvature="0"
       sodipodi:nodetypes="cc"
       inkscape:export-ydpi="15.46875"
       inkscape:export-xdpi="15.46875"
       style="fill:none;stroke:#4d4d4d;stroke-width:3.14626216999999997;stroke-linecap:butt;stroke-linejoin:miter;stroke-miterlimit:4;stroke-opacity:1;stroke-dasharray:none;fill-opacity:0"
       d="m 27.031458,44.022721 0,52.224795"
       id="path6665" />
  </g>
  <path
     style="fill:#4d4d4d;fill-opacity:1;fill-rule:evenodd;stroke:none"
     d="m 11.021847,11.001996 c -0.728089,0 -1.319071,0.583057 -1.319072,1.301433 0,0.200044 -0.01903,0.398638 0.06281,0.568024 l 0.06827,0.04947 c 0.149147,-0.25994 0.05314,-0.491793 0.115612,-0.717222 0.05798,-0.143013 0.150596,-0.266693 0.290396,-0.314573 0.249206,-0.08535 0.626437,0.238591 0.781976,0.242671 0.16814,0.0044 0.525368,-0.121797 0.781065,-0.04764 0.141251,0.04097 0.257944,0.171967 0.290395,0.314572 0.06076,0.266999 0.09201,0.202492 0.115614,0.489839 l 0.06919,-0.03413 c 0.07968,-0.16754 0.06281,-0.35374 0.06281,-0.550948 0,-0.71838 -0.590981,-1.301433 -1.319071,-1.301433 z m -0.704597,0.931136 c -0.02091,7.33e-4 -0.04056,0.0038 -0.05826,0.0099 -0.117129,0.04012 -0.199596,0.145767 -0.253983,0.278625 -0.02678,0.09969 -0.02017,0.208263 -0.02276,0.32895 -0.0026,0.122093 -0.01745,0.257213 -0.09832,0.39816 a 0.05826709,0.05752759 0 0 1 -0.08466,0.01793 l -0.02913,-0.02153 c -0.0089,-0.105947 -0.172255,-0.08843 -0.160218,0.03147 0.12121,0.56112 0.2271,0.648814 0.335002,0.6615 0.157909,0.4029 0.393091,0.76194 0.529814,0.917654 0.175117,0.199446 0.39934,0.16338 0.541647,0.159086 0.0073,0 0.01765,-2.2e-4 0.02549,0 0.142309,0.004 0.36653,0.04033 0.541648,-0.159086 0.140695,-0.160234 0.385084,-0.535627 0.542558,-0.952707 0.105302,-0.016 0.209332,-0.112547 0.32772,-0.6606 0.01203,-0.11988 -0.151314,-0.137407 -0.160219,-0.03147 l -0.05827,0.02873 a 0.05826709,0.05752759 0 0 1 -0.08466,-0.04673 c -0.0116,-0.141246 -0.02364,-0.18842 -0.04097,-0.238173 -0.01732,-0.04973 -0.04266,-0.107007 -0.07374,-0.243565 -0.02761,-0.121309 -0.132127,-0.237409 -0.249431,-0.271432 -0.112256,-0.03255 -0.258345,-0.02213 -0.397815,-7.34e-4 -0.139471,0.02123 -0.267894,0.05295 -0.367774,0.05033 -0.05875,-0.0015 -0.114206,-0.02685 -0.177515,-0.05752 -0.06331,-0.03067 -0.132112,-0.0687 -0.203005,-0.103362 -0.1152,-0.05633 -0.232528,-0.09865 -0.323168,-0.09527 z m 1.550296,2.325148 c -0.0885,0.1433 -0.174369,0.26012 -0.240328,0.33524 -0.193523,0.2204 -0.452938,0.182907 -0.587165,0.178853 -0.0048,-1.46e-4 -0.01381,-2e-5 -0.02185,0 -6.67e-4,7e-6 -0.0011,0 -0.0018,0 -0.134659,0.004 -0.393458,0.04073 -0.586254,-0.178853 -0.05077,-0.0578 -0.113085,-0.140733 -0.179336,-0.240873 0.0548,0.36348 0.06281,0.726386 -0.112881,0.85384 0.03748,0.40042 0.837296,0.628953 0.913063,0.76576 0.05655,-0.13248 0.875582,-0.36534 0.913064,-0.76576 -0.190948,-0.138527 -0.163981,-0.55516 -0.09649,-0.948207 z m -1.785162,0.969773 c -0.40433,0.155334 -0.9284047,0.31384 -1.3500227,0.522194 -0.163604,0.08085 -0.3501173,0.327073 -0.3987253,0.45748 -0.1482493,0.39772 -0.311334,0.958093 -0.311334,0.958093 l 0.086482,0.09977 c 0.9070527,0.509813 2.137847,0.48624 2.913063,0.48624 0.775216,0 2.00692,0.0236 2.913973,-0.48624 l 0.08648,-0.09977 c 0,0 -0.163084,-0.560373 -0.311333,-0.958093 -0.04861,-0.130407 -0.235122,-0.376634 -0.398726,-0.45748 -0.421426,-0.20826 -0.893065,-0.366927 -1.292672,-0.522194 -0.01557,0.1117 -0.08106,0.20758 -0.16568,0.289407 -0.0887,0.08579 -0.199217,0.158413 -0.309513,0.222 -0.110297,0.0636 -0.220443,0.1178 -0.304052,0.16358 -0.04181,0.02287 -0.07665,0.0438 -0.101046,0.06113 -0.02439,0.01733 -0.03611,0.03413 -0.03459,0.03053 A 0.05826709,0.05752759 0 0 1 11,16 c -7.34e-4,-0.0013 -0.0158,-0.01887 -0.04188,-0.03687 -0.02607,-0.01793 -0.06234,-0.039 -0.104688,-0.062 -0.08469,-0.04613 -0.193982,-0.100226 -0.303139,-0.163586 -0.109158,-0.0634 -0.218667,-0.135574 -0.305872,-0.2211 -0.08311,-0.08151 -0.146596,-0.177354 -0.162039,-0.288514 z"
     id="path4066"
     inkscape:connector-curvature="0" />
</svg>
