<?xml version="1.0" encoding="UTF-8" standalone="no"?>
<!-- Created with Inkscape (http://www.inkscape.org/) -->

<svg
   xmlns:dc="http://purl.org/dc/elements/1.1/"
   xmlns:cc="http://creativecommons.org/ns#"
   xmlns:rdf="http://www.w3.org/1999/02/22-rdf-syntax-ns#"
   xmlns:svg="http://www.w3.org/2000/svg"
   xmlns="http://www.w3.org/2000/svg"
   xmlns:sodipodi="http://sodipodi.sourceforge.net/DTD/sodipodi-0.dtd"
   xmlns:inkscape="http://www.inkscape.org/namespaces/inkscape"
   id="svg7384"
   height="22"
   width="22"
   version="1.1"
   inkscape:version="0.48.5 r10040"
   sodipodi:docname="view-process-users.svg"
   inkscape:export-filename="/home/uri/Descargas/NITRUX-KDE/NITRUX-KDE/16x16/actions/view-preview.png"
   inkscape:export-xdpi="30"
   inkscape:export-ydpi="30">
  <defs
     id="defs9" />
  <sodipodi:namedview
     pagecolor="#ffffff"
     bordercolor="#666666"
     borderopacity="1"
     objecttolerance="10"
     gridtolerance="10"
     guidetolerance="10"
     inkscape:pageopacity="0"
     inkscape:pageshadow="2"
     inkscape:window-width="1920"
     inkscape:window-height="1031"
     id="namedview7"
     showgrid="true"
     inkscape:zoom="23.334524"
     inkscape:cx="14.576737"
     inkscape:cy="9.6940232"
     inkscape:window-x="-4"
     inkscape:window-y="32"
     inkscape:window-maximized="1"
     inkscape:current-layer="svg7384"
     inkscape:showpageshadow="false"
     borderlayer="true">
    <sodipodi:guide
       position="2,20"
       orientation="18,0"
       id="guide4064" />
    <sodipodi:guide
       position="2,2"
       orientation="0,18"
       id="guide4066" />
    <sodipodi:guide
       position="20,2"
       orientation="-18,0"
       id="guide4068" />
    <sodipodi:guide
       position="20,20"
       orientation="0,-18"
       id="guide4070" />
    <sodipodi:guide
       position="3,19"
       orientation="16,0"
       id="guide4072" />
    <sodipodi:guide
       position="3,3"
       orientation="0,16"
       id="guide4074" />
    <sodipodi:guide
       position="19,3"
       orientation="-16,0"
       id="guide4076" />
    <sodipodi:guide
       position="19,19"
       orientation="0,-16"
       id="guide4078" />
    <inkscape:grid
       type="xygrid"
       id="grid4080" />
    <sodipodi:guide
       position="5,17"
       orientation="12,0"
       id="guide4089" />
    <sodipodi:guide
       position="5,5"
       orientation="0,12"
       id="guide4091" />
    <sodipodi:guide
       position="17,5"
       orientation="-12,0"
       id="guide4093" />
    <sodipodi:guide
       position="17,17"
       orientation="0,-12"
       id="guide4095" />
    <sodipodi:guide
       position="5,10"
       orientation="5,0"
       id="guide4127" />
    <sodipodi:guide
       position="5,5"
       orientation="0,5"
       id="guide4129" />
    <sodipodi:guide
       position="10,5"
       orientation="-5,0"
       id="guide4131" />
    <sodipodi:guide
       position="10,10"
       orientation="0,-5"
       id="guide4133" />
    <sodipodi:guide
       position="10,12"
       orientation="7,0"
       id="guide4135" />
    <sodipodi:guide
       position="10,5"
       orientation="0,7"
       id="guide4137" />
    <sodipodi:guide
       position="17,5"
       orientation="-7,0"
       id="guide4139" />
    <sodipodi:guide
       position="17,12"
       orientation="0,-7"
       id="guide4141" />
    <sodipodi:guide
       position="5,17"
       orientation="5,0"
       id="guide4147" />
    <sodipodi:guide
       position="5,12"
       orientation="0,5"
       id="guide4149" />
    <sodipodi:guide
       position="10,12"
       orientation="-5,0"
       id="guide4151" />
    <sodipodi:guide
       position="10,17"
       orientation="0,-5"
       id="guide4153" />
    <sodipodi:guide
       position="7.6999952,5.7071148"
       orientation="0.70710678,0.70710678"
       id="guide4175" />
    <sodipodi:guide
       position="8.407102,5.000008"
       orientation="-6.2932501,6.2932501"
       id="guide4177" />
    <sodipodi:guide
       position="13.993245,12.000365"
       orientation="6.2932501,-6.2932501"
       id="guide4181" />
    <sodipodi:guide
       position="9.3066406,10"
       orientation="0.707031,-0.7070312"
       id="guide4188" />
    <sodipodi:guide
       position="8.5996094,9.292969"
       orientation="2.050781,2.0488286"
       id="guide4190" />
    <sodipodi:guide
       position="11.355469,7.949219"
       orientation="-2.050781,-2.0488284"
       id="guide4194" />
    <sodipodi:guide
       position="20.300349,5.7071173"
       orientation="0.70710678,-0.70710678"
       id="guide4203" />
    <sodipodi:guide
       position="19.593242,5.0000105"
       orientation="-6.2932501,-6.2932501"
       id="guide4205" />
    <sodipodi:guide
       position="14.007099,12.000367"
       orientation="6.2932501,6.2932501"
       id="guide4209" />
  </sodipodi:namedview>
  <metadata
     id="metadata90">
    <rdf:RDF>
      <cc:Work
         rdf:about="">
        <dc:format>image/svg+xml</dc:format>
        <dc:type
           rdf:resource="http://purl.org/dc/dcmitype/StillImage" />
        <dc:title>Gnome Symbolic Icon Theme</dc:title>
      </cc:Work>
    </rdf:RDF>
  </metadata>
  <title
     id="title9167">Gnome Symbolic Icon Theme</title>
  <path
     inkscape:connector-curvature="0"
     sodipodi:nodetypes="ccccccc"
     style="fill:none;stroke:#4d4d4d;stroke-width:0.7336005;stroke-linecap:round;stroke-linejoin:round;stroke-miterlimit:4;stroke-opacity:1;stroke-dasharray:none;stroke-dashoffset:4"
     d="m 3.3668003,4.1812565 0,14.4440155 15.2663997,0.0079 0,-13.4408425 -9.3402768,0.016717 0.011641,-1.0277848 -5.9377636,0 z"
     id="path1446" />
  <g
     transform="matrix(0.14193304,0,0,0.14193656,1.8477285,2.1583139)"
     id="g3050"
     style="fill:none;stroke:#4d4d4d;stroke-opacity:1;fill-opacity:0">
    <path
       inkscape:connector-curvature="0"
       style="fill:none;stroke:#4d4d4d;stroke-width:3.14626216999999997;stroke-linecap:butt;stroke-linejoin:miter;stroke-miterlimit:4;stroke-opacity:1;stroke-dasharray:none;fill-opacity:0"
       d="m 25.584494,44.897999 81.400646,0"
       id="path3741"
       sodipodi:nodetypes="cc" />
    <path
       inkscape:connector-curvature="0"
       id="path3749"
       d="m 41.99789,44.022721 0,52.224795"
       style="fill:none;stroke:#4d4d4d;stroke-width:3.14626216999999997;stroke-linecap:butt;stroke-linejoin:miter;stroke-miterlimit:4;stroke-opacity:1;stroke-dasharray:none;fill-opacity:0"
       inkscape:export-xdpi="15.46875"
       inkscape:export-ydpi="15.46875"
       sodipodi:nodetypes="cc" />
    <path
       inkscape:connector-curvature="0"
       style="fill:none;stroke:#4d4d4d;stroke-width:3.14626216999999997;stroke-linecap:butt;stroke-linejoin:miter;stroke-miterlimit:4;stroke-opacity:1;stroke-dasharray:none;fill-opacity:0"
       d="m 64.483023,44.022721 0,52.516554"
       id="path3751"
       sodipodi:nodetypes="cc" />
    <path
       inkscape:connector-curvature="0"
       id="path3753"
       d="m 85.414741,44.022721 0,52.808312"
       style="fill:none;stroke:#4d4d4d;stroke-width:3.14626216999999997;stroke-linecap:butt;stroke-linejoin:miter;stroke-miterlimit:4;stroke-opacity:1;stroke-dasharray:none;fill-opacity:0"
       sodipodi:nodetypes="cc" />
    <path
       inkscape:connector-curvature="0"
       sodipodi:nodetypes="cc"
       id="path6634"
       d="m 25.584494,64.090987 81.400646,0"
       style="fill:none;stroke:#4d4d4d;stroke-width:3.14626216999999997;stroke-linecap:butt;stroke-linejoin:miter;stroke-miterlimit:4;stroke-opacity:1;stroke-dasharray:none;fill-opacity:0" />
    <path
       inkscape:connector-curvature="0"
       style="fill:none;stroke:#4d4d4d;stroke-width:3.14626216999999997;stroke-linecap:butt;stroke-linejoin:miter;stroke-miterlimit:4;stroke-opacity:1;stroke-dasharray:none;fill-opacity:0"
       d="m 25.584494,96.744342 81.400646,0"
       id="path6636"
       sodipodi:nodetypes="cc" />
    <path
       inkscape:connector-curvature="0"
       style="fill:none;stroke:#4d4d4d;stroke-width:3.14626216999999997;stroke-linecap:butt;stroke-linejoin:miter;stroke-miterlimit:4;stroke-opacity:1;stroke-dasharray:none;fill-opacity:0"
       d="m 25.584494,80.902593 81.400646,0"
       id="path6644"
       sodipodi:nodetypes="cc" />
    <path
       inkscape:connector-curvature="0"
       sodipodi:nodetypes="cc"
       style="fill:none;stroke:#4d4d4d;stroke-width:3.14626216999999997;stroke-linecap:butt;stroke-linejoin:miter;stroke-miterlimit:4;stroke-opacity:1;stroke-dasharray:none;fill-opacity:0"
       d="m 105.483,44.022721 0,52.808312"
       id="path6662" />
    <path
       inkscape:connector-curvature="0"
       sodipodi:nodetypes="cc"
       inkscape:export-ydpi="15.46875"
       inkscape:export-xdpi="15.46875"
       style="fill:none;stroke:#4d4d4d;stroke-width:3.14626216999999997;stroke-linecap:butt;stroke-linejoin:miter;stroke-miterlimit:4;stroke-opacity:1;stroke-dasharray:none;fill-opacity:0"
       d="m 27.031458,44.022721 0,52.224795"
       id="path6665" />
  </g>
  <g
     id="g15584"
     transform="matrix(0.08954629,0,0,0.08953948,17.547451,7.6411014)"
     style="fill:#4d4d4d;fill-opacity:1">
    <path
       style="fill:#4d4d4d;fill-opacity:1;stroke:none"
       d="M 46.1875,65.1875 C 42.351879,65.416306 38.625266,66.962346 36.625,70 c -0.449668,0.682869 -0.525824,1.143171 -0.6875,1.84375 -0.161669,0.700577 -0.293876,1.550455 -0.375,2.46875 -0.15792,1.787658 -0.1864,3.868814 -0.0625,6.0625 0.248001,4.390988 0.95092,8.735139 2.28125,11.34375 1.328809,2.60565 1.288902,6.414387 0.5,7.75 -0.978355,1.65636 -3.221125,3.12816 -7.0625,4.21875 -4.285623,1.21671 -7.663749,2.39871 -10.125,4.5625 -2.178959,1.91563 -3.59375,4.13132 -3.59375,6.96875 l 0,4.1875 0,1.96875 1.96875,0 53.5,0 c 3.20539,0.24479 6.655421,0.375 10.09375,0.375 25.0629,0 26.40625,0.28909 26.40625,-5.25 0,-2.62977 -1.293,-3.63081 -3.3125,-5.40625 -2.2558,-1.98317 -5.40873,-3.14634 -9.40625,-4.28125 -3.586626,-1.01826 -5.667299,-2.29691 -6.5625,-3.8125 -0.299011,-0.50624 -0.4715,-1.39407 -0.5,-2.4375 4.390733,-2.050988 7.862915,-6.005602 8.375,-11.84375 C 98.87541,79.451019 90.572277,69.09076 83,69.1875 c -2.524091,0.03225 -4.965734,1.221867 -6.96875,4 -5.521919,1.479594 -6.921003,9.326447 -7.40625,14.78125 -0.616501,6.930276 2.924194,11.282635 7.75,13.15625 -0.07032,0.78656 -0.259025,1.46702 -0.5,1.875 -0.815893,1.38132 -2.564089,2.59619 -5.5,3.5625 -2.113437,-1.19498 -4.677151,-2.07398 -7.71875,-2.9375 -3.86983,-1.09866 -6.096606,-2.52099 -7.0625,-4.15625 -0.788898,-1.335612 -0.828815,-5.144347 0.5,-7.75 1.330333,-2.608616 2.033249,-6.952759 2.28125,-11.34375 0.123899,-2.19369 0.09541,-4.27485 -0.0625,-6.0625 -0.08111,-0.918293 -0.213326,-1.768172 -0.375,-2.46875 C 57.775832,71.14317 57.730912,70.682871 57.28125,70 55.290886,66.977397 51.521002,65.1875 47.5625,65.1875 l -1.25,0 -0.0625,0 -0.0625,0 z"
       transform="matrix(1.382086,0,0,1.382086,-164.30901,-41.413425)"
       id="path2375"
       inkscape:connector-curvature="0" />
    <path
       sodipodi:nodetypes="ccsscsccccc"
       id="path3278"
       d="m -100.74797,49.079294 c -4.90358,0.318901 -9.67645,2.277961 -12.30402,6.103183 2.23477,-3.77361 8.70818,-4.382844 9.87292,-4.533947 3.793595,-0.492146 6.407818,-0.338355 9.557588,0.445966 4.942783,1.230796 8.987131,7.019878 8.987131,7.019878 -0.205854,-0.897431 -0.552921,-1.652904 -1.134007,-2.535359 -2.606594,-3.958419 -7.885949,-6.499721 -13.070029,-6.499721 -0.538096,0 -1.076192,0 -1.614283,0 -0.0328,0 -0.0656,0 -0.0984,0 -0.0263,0 -0.0525,0 -0.0787,0 -0.0392,0.0023 -0.0789,-0.0026 -0.11812,0 z"
       style="fill:#4d4d4d;fill-opacity:1;stroke:none"
       inkscape:connector-curvature="0" />
    <path
       sodipodi:nodetypes="ccc"
       id="path3303"
       d="m -88.197717,96.592178 c 2.474008,6.615572 19.378783,6.643002 26.301981,14.122822 -7.113253,-5.64824 -25.462385,-5.85923 -26.301981,-14.122822 z"
       style="fill:#4d4d4d;fill-opacity:1;fill-rule:evenodd;stroke:none"
       inkscape:connector-curvature="0" />
    <path
       style="opacity:0.5;fill:#4d4d4d;fill-opacity:1;fill-rule:evenodd;stroke:none"
       d="m -88.197717,96.592178 c 2.474008,6.615572 19.378783,6.643002 26.301981,14.122822 -7.113253,-5.64824 -25.462385,-5.85923 -26.301981,-14.122822 z"
       id="path3321"
       sodipodi:nodetypes="ccc"
       inkscape:connector-curvature="0" />
    <g
       transform="matrix(-0.664831,0,0,0.648147,-56.655326,47.453493)"
       id="g3335"
       style="fill:#4d4d4d;fill-opacity:1">
      <path
         sodipodi:nodetypes="ccc"
         id="path3331"
         d="M 81.425675,75.451822 C 85.146934,85.658719 110.57411,85.701037 120.98758,97.241362 110.28824,88.526911 82.688547,88.201388 81.425675,75.451822 z"
         style="fill:#4d4d4d;fill-opacity:1;fill-rule:evenodd;stroke:none"
         inkscape:connector-curvature="0" />
      <path
         style="opacity:0.5;fill:#4d4d4d;fill-opacity:1;fill-rule:evenodd;stroke:none"
         d="M 81.425675,75.451822 C 85.146934,85.658719 110.57411,85.701037 120.98758,97.241362 110.28824,88.526911 82.688547,88.201388 81.425675,75.451822 z"
         id="path3333"
         sodipodi:nodetypes="ccc"
         inkscape:connector-curvature="0" />
    </g>
    <path
       sodipodi:nodetypes="ccsscsc"
       id="path2882"
       d="m -49.771678,54.792728 c -2.203726,0.02815 -4.359047,0.711388 -6.348902,2.166096 1.803667,-1.143068 4.713631,-1.291606 6.667929,-1.112965 9.210219,0.841892 20.952909,13.569061 19.829402,26.377863 -0.556219,6.341289 -3.639195,11.077592 -7.880113,14.191665 4.576985,-3.098777 7.949132,-7.994218 8.533681,-14.658497 1.123507,-12.808801 -10.336467,-27.097866 -20.801997,-26.964162 z"
       style="fill:#4d4d4d;fill-opacity:1;stroke:none"
       inkscape:connector-curvature="0" />
    <path
       sodipodi:nodetypes="ccssscssssc"
       id="path2900"
       d="m -40.382999,99.822982 c -0.02882,0.01362 -0.05999,0.02206 -0.08887,0.03555 0.0375,1.372718 0.282066,2.551228 0.675445,3.217218 1.177714,1.99389 3.884462,3.69065 8.602965,5.03025 5.259068,1.49308 9.403529,3.02556 12.371208,5.63459 2.448091,2.15222 4.093029,4.61621 4.337031,7.69646 0.01553,-0.0982 0.03555,-0.20173 0.03555,-0.30217 0,-3.45969 -1.715761,-6.16059 -4.372585,-8.49632 -2.967679,-2.60902 -7.11214,-4.14151 -12.371208,-5.63459 -4.718503,-1.3396 -7.425251,-3.03636 -8.602965,-5.03025 -0.287054,-0.48597 -0.480633,-1.24264 -0.586572,-2.150736 z"
       style="fill:#4d4d4d;fill-opacity:1;stroke:none"
       inkscape:connector-curvature="0" />
    <path
       style="fill:#4d4d4d;fill-opacity:1;stroke:none"
       d="m -57.96922,99.822982 c 0.02882,0.01362 0.05999,0.02206 0.08887,0.03555 -0.0375,1.372718 -0.282065,2.551228 -0.67544,3.217218 -1.177718,1.99389 -3.884465,3.69065 -8.60297,5.03025 -5.259069,1.49308 -9.403526,3.02556 -12.371208,5.63459 -2.448089,2.15222 -4.093026,4.61621 -4.337033,7.69646 -0.01552,-0.0982 -0.03555,-0.20173 -0.03555,-0.30217 0,-3.45969 1.715764,-6.16059 4.372587,-8.49632 2.967682,-2.60902 7.112139,-4.14151 12.371208,-5.63459 4.718505,-1.3396 7.425252,-3.03636 8.60297,-5.03025 0.287048,-0.48597 0.480628,-1.24264 0.586567,-2.150736 z"
       id="path2913"
       sodipodi:nodetypes="ccssscssssc"
       inkscape:connector-curvature="0" />
  </g>
</svg>
