<?xml version="1.0" encoding="UTF-8" standalone="no"?>
<!-- Created with Inkscape (http://www.inkscape.org/) -->

<svg
   xmlns:dc="http://purl.org/dc/elements/1.1/"
   xmlns:cc="http://creativecommons.org/ns#"
   xmlns:rdf="http://www.w3.org/1999/02/22-rdf-syntax-ns#"
   xmlns:svg="http://www.w3.org/2000/svg"
   xmlns="http://www.w3.org/2000/svg"
   xmlns:sodipodi="http://sodipodi.sourceforge.net/DTD/sodipodi-0.dtd"
   xmlns:inkscape="http://www.inkscape.org/namespaces/inkscape"
   width="256"
   height="256"
   id="svg3669"
   sodipodi:version="0.32"
   inkscape:version="0.48.5 r10040"
   sodipodi:docname="view-media-lyrics.svg"
   version="1.0"
   inkscape:output_extension="org.inkscape.output.svgz.inkscape"
   inkscape:export-filename="/home/oleg/.kde/share/icons/K-High-Delight/actions/128/view-media-lyrics.png"
   inkscape:export-xdpi="45"
   inkscape:export-ydpi="45">
  <sodipodi:namedview
     inkscape:document-units="px"
     pagecolor="#ffffff"
     bordercolor="#666666"
     borderopacity="1.0"
     inkscape:pageopacity="0.0"
     inkscape:pageshadow="2"
     inkscape:zoom="2.1210938"
     inkscape:cx="119.74954"
     inkscape:cy="128"
     inkscape:current-layer="layer1"
     id="namedview3673"
     inkscape:window-width="1920"
     inkscape:window-height="1035"
     inkscape:window-x="-4"
     inkscape:window-y="29"
     showgrid="false"
     showguides="true"
     inkscape:guide-bbox="true"
     width="128px"
     height="128px"
     grid_units="px"
     inkscape:grid-points="true"
     gridtolerance="10000"
     showborder="true"
     inkscape:snap-bbox="true"
     inkscape:bbox-paths="true"
     inkscape:bbox-nodes="true"
     inkscape:snap-bbox-edge-midpoints="true"
     inkscape:snap-bbox-midpoints="true"
     inkscape:object-paths="true"
     inkscape:snap-intersection-paths="true"
     inkscape:object-nodes="true"
     inkscape:snap-smooth-nodes="true"
     inkscape:snap-midpoints="true"
     inkscape:snap-object-midpoints="true"
     inkscape:snap-center="true"
     inkscape:window-maximized="1">
    <inkscape:grid
       type="xygrid"
       id="grid10209"
       spacingx="4px"
       spacingy="4px"
       empspacing="5"
       visible="true"
       enabled="true"
       snapvisiblegridlinesonly="true" />
    <inkscape:grid
       id="GridFromPre046Settings"
       type="xygrid"
       originx="0px"
       originy="0px"
       spacingx="4px"
       spacingy="4px"
       color="#3f3fff"
       empcolor="#3f3fff"
       opacity="0.15"
       empopacity="0.38"
       empspacing="5"
       visible="true"
       enabled="true"
       snapvisiblegridlinesonly="true" />
  </sodipodi:namedview>
  <defs
     id="defs3671" />
  <metadata
     id="metadata3675">
    <rdf:RDF>
      <cc:Work
         rdf:about="">
        <dc:format>image/svg+xml</dc:format>
        <dc:type
           rdf:resource="http://purl.org/dc/dcmitype/StillImage" />
        <dc:title />
      </cc:Work>
    </rdf:RDF>
  </metadata>
  <g
     inkscape:label="Layer 1"
     id="layer1"
     transform="translate(-79.62865,-108.8761)"
     inkscape:groupmode="layer">
    <path
       style="fill:#585858;stroke:none;fill-opacity:1"
       d="m 216.95486,146.8761 0,134.86903 c -9.19408,-5.36312 -23.82071,-6.25374 -38.13053,-1.39483 -19.81604,6.72854 -31.39393,21.82992 -25.77839,33.79773 5.6157,11.96907 26.26266,16.2765 46.07887,9.54919 16.55127,-5.61968 27.34971,-17.17867 27.17472,-27.78924 l 0,-110.94237 c 53.93708,22.67863 19.01156,82.93854 19.01156,82.93854 39.84503,-40.99719 3.36321,-85.45057 -3.97417,-94.20445 -7.97181,-9.51178 -12.07542,-21.12069 -15.03739,-26.8236 l -9.34467,0 z"
       id="polygon26"
       inkscape:connector-curvature="0" />
    <path
       style="fill:#000000;stroke:none;fill-opacity:0.39215687"
       d="M 137.3125 38 L 137.3125 172.875 C 128.11842 167.51188 113.49732 166.60984 99.1875 171.46875 C 79.37146 178.19729 67.79071 193.31344 73.40625 205.28125 C 74.622952 207.87448 76.564681 210.09788 79.03125 211.9375 C 78.414279 211.09535 77.846276 210.2191 77.40625 209.28125 C 71.79071 197.31344 83.37146 182.19729 103.1875 175.46875 C 117.49732 170.60984 132.11842 171.51188 141.3125 176.875 L 141.3125 42 L 148.59375 42 C 147.90789 40.49534 147.23471 39.113756 146.65625 38 L 137.3125 38 z M 166.4375 89.6875 C 190.18017 116.74566 165.6875 159.03125 165.6875 159.03125 C 171.19888 153.3605 175.2239 147.60563 178.09375 141.90625 C 182.3505 126.10047 183.52067 104.71882 166.4375 89.6875 z "
       transform="translate(79.62865,108.8761)"
       id="path4289" />
  </g>
  <g
     id="g3318"
     inkscape:groupmode="layer"
     inkscape:label="fill text"
     transform="translate(0,128)" />
</svg>
