<?xml version="1.0" encoding="UTF-8" standalone="no"?>
<!-- Created with Inkscape (http://www.inkscape.org/) -->

<svg
   xmlns:dc="http://purl.org/dc/elements/1.1/"
   xmlns:cc="http://creativecommons.org/ns#"
   xmlns:rdf="http://www.w3.org/1999/02/22-rdf-syntax-ns#"
   xmlns:svg="http://www.w3.org/2000/svg"
   xmlns="http://www.w3.org/2000/svg"
   xmlns:sodipodi="http://sodipodi.sourceforge.net/DTD/sodipodi-0.dtd"
   xmlns:inkscape="http://www.inkscape.org/namespaces/inkscape"
   id="svg7384"
   height="22"
   width="22"
   version="1.1"
   inkscape:version="0.48.5 r10040"
   sodipodi:docname="view-process-system.svg"
   inkscape:export-filename="/home/uri/Descargas/NITRUX-KDE/NITRUX-KDE/16x16/actions/view-preview.png"
   inkscape:export-xdpi="30"
   inkscape:export-ydpi="30">
  <defs
     id="defs9" />
  <sodipodi:namedview
     pagecolor="#ffffff"
     bordercolor="#666666"
     borderopacity="1"
     objecttolerance="10"
     gridtolerance="10"
     guidetolerance="10"
     inkscape:pageopacity="0"
     inkscape:pageshadow="2"
     inkscape:window-width="1920"
     inkscape:window-height="1031"
     id="namedview7"
     showgrid="true"
     inkscape:zoom="23.334524"
     inkscape:cx="14.576737"
     inkscape:cy="9.6940232"
     inkscape:window-x="-4"
     inkscape:window-y="32"
     inkscape:window-maximized="1"
     inkscape:current-layer="svg7384"
     inkscape:showpageshadow="false"
     borderlayer="true">
    <sodipodi:guide
       position="2,20"
       orientation="18,0"
       id="guide4064" />
    <sodipodi:guide
       position="2,2"
       orientation="0,18"
       id="guide4066" />
    <sodipodi:guide
       position="20,2"
       orientation="-18,0"
       id="guide4068" />
    <sodipodi:guide
       position="20,20"
       orientation="0,-18"
       id="guide4070" />
    <sodipodi:guide
       position="3,19"
       orientation="16,0"
       id="guide4072" />
    <sodipodi:guide
       position="3,3"
       orientation="0,16"
       id="guide4074" />
    <sodipodi:guide
       position="19,3"
       orientation="-16,0"
       id="guide4076" />
    <sodipodi:guide
       position="19,19"
       orientation="0,-16"
       id="guide4078" />
    <inkscape:grid
       type="xygrid"
       id="grid4080" />
    <sodipodi:guide
       position="5,17"
       orientation="12,0"
       id="guide4089" />
    <sodipodi:guide
       position="5,5"
       orientation="0,12"
       id="guide4091" />
    <sodipodi:guide
       position="17,5"
       orientation="-12,0"
       id="guide4093" />
    <sodipodi:guide
       position="17,17"
       orientation="0,-12"
       id="guide4095" />
    <sodipodi:guide
       position="5,10"
       orientation="5,0"
       id="guide4127" />
    <sodipodi:guide
       position="5,5"
       orientation="0,5"
       id="guide4129" />
    <sodipodi:guide
       position="10,5"
       orientation="-5,0"
       id="guide4131" />
    <sodipodi:guide
       position="10,10"
       orientation="0,-5"
       id="guide4133" />
    <sodipodi:guide
       position="10,12"
       orientation="7,0"
       id="guide4135" />
    <sodipodi:guide
       position="10,5"
       orientation="0,7"
       id="guide4137" />
    <sodipodi:guide
       position="17,5"
       orientation="-7,0"
       id="guide4139" />
    <sodipodi:guide
       position="17,12"
       orientation="0,-7"
       id="guide4141" />
    <sodipodi:guide
       position="5,17"
       orientation="5,0"
       id="guide4147" />
    <sodipodi:guide
       position="5,12"
       orientation="0,5"
       id="guide4149" />
    <sodipodi:guide
       position="10,12"
       orientation="-5,0"
       id="guide4151" />
    <sodipodi:guide
       position="10,17"
       orientation="0,-5"
       id="guide4153" />
    <sodipodi:guide
       position="7.6999952,5.7071148"
       orientation="0.70710678,0.70710678"
       id="guide4175" />
    <sodipodi:guide
       position="8.407102,5.000008"
       orientation="-6.2932501,6.2932501"
       id="guide4177" />
    <sodipodi:guide
       position="13.993245,12.000365"
       orientation="6.2932501,-6.2932501"
       id="guide4181" />
    <sodipodi:guide
       position="9.3066406,10"
       orientation="0.707031,-0.7070312"
       id="guide4188" />
    <sodipodi:guide
       position="8.5996094,9.292969"
       orientation="2.050781,2.0488286"
       id="guide4190" />
    <sodipodi:guide
       position="11.355469,7.949219"
       orientation="-2.050781,-2.0488284"
       id="guide4194" />
    <sodipodi:guide
       position="20.300349,5.7071173"
       orientation="0.70710678,-0.70710678"
       id="guide4203" />
    <sodipodi:guide
       position="19.593242,5.0000105"
       orientation="-6.2932501,-6.2932501"
       id="guide4205" />
    <sodipodi:guide
       position="14.007099,12.000367"
       orientation="6.2932501,6.2932501"
       id="guide4209" />
  </sodipodi:namedview>
  <metadata
     id="metadata90">
    <rdf:RDF>
      <cc:Work
         rdf:about="">
        <dc:format>image/svg+xml</dc:format>
        <dc:type
           rdf:resource="http://purl.org/dc/dcmitype/StillImage" />
        <dc:title>Gnome Symbolic Icon Theme</dc:title>
      </cc:Work>
    </rdf:RDF>
  </metadata>
  <title
     id="title9167">Gnome Symbolic Icon Theme</title>
  <path
     inkscape:connector-curvature="0"
     sodipodi:nodetypes="ccccccc"
     style="fill:none;stroke:#4d4d4d;stroke-width:0.7336005;stroke-linecap:round;stroke-linejoin:round;stroke-miterlimit:4;stroke-opacity:1;stroke-dasharray:none;stroke-dashoffset:4"
     d="m 3.3668003,4.1812565 0,14.4440155 15.2663997,0.0079 0,-13.4408425 -9.3402768,0.016717 0.011641,-1.0277848 -5.9377636,0 z"
     id="path1446" />
  <g
     transform="matrix(0.14193304,0,0,0.14193656,1.8477285,2.1583139)"
     id="g3050"
     style="fill:none;stroke:#4d4d4d;stroke-opacity:1;fill-opacity:0">
    <path
       inkscape:connector-curvature="0"
       style="fill:none;stroke:#4d4d4d;stroke-width:3.14626216999999997;stroke-linecap:butt;stroke-linejoin:miter;stroke-miterlimit:4;stroke-opacity:1;stroke-dasharray:none;fill-opacity:0"
       d="m 25.584494,44.897999 81.400646,0"
       id="path3741"
       sodipodi:nodetypes="cc" />
    <path
       inkscape:connector-curvature="0"
       id="path3749"
       d="m 41.99789,44.022721 0,52.224795"
       style="fill:none;stroke:#4d4d4d;stroke-width:3.14626216999999997;stroke-linecap:butt;stroke-linejoin:miter;stroke-miterlimit:4;stroke-opacity:1;stroke-dasharray:none;fill-opacity:0"
       inkscape:export-xdpi="15.46875"
       inkscape:export-ydpi="15.46875"
       sodipodi:nodetypes="cc" />
    <path
       inkscape:connector-curvature="0"
       style="fill:none;stroke:#4d4d4d;stroke-width:3.14626216999999997;stroke-linecap:butt;stroke-linejoin:miter;stroke-miterlimit:4;stroke-opacity:1;stroke-dasharray:none;fill-opacity:0"
       d="m 64.483023,44.022721 0,52.516554"
       id="path3751"
       sodipodi:nodetypes="cc" />
    <path
       inkscape:connector-curvature="0"
       id="path3753"
       d="m 85.414741,44.022721 0,52.808312"
       style="fill:none;stroke:#4d4d4d;stroke-width:3.14626216999999997;stroke-linecap:butt;stroke-linejoin:miter;stroke-miterlimit:4;stroke-opacity:1;stroke-dasharray:none;fill-opacity:0"
       sodipodi:nodetypes="cc" />
    <path
       inkscape:connector-curvature="0"
       sodipodi:nodetypes="cc"
       id="path6634"
       d="m 25.584494,64.090987 81.400646,0"
       style="fill:none;stroke:#4d4d4d;stroke-width:3.14626216999999997;stroke-linecap:butt;stroke-linejoin:miter;stroke-miterlimit:4;stroke-opacity:1;stroke-dasharray:none;fill-opacity:0" />
    <path
       inkscape:connector-curvature="0"
       style="fill:none;stroke:#4d4d4d;stroke-width:3.14626216999999997;stroke-linecap:butt;stroke-linejoin:miter;stroke-miterlimit:4;stroke-opacity:1;stroke-dasharray:none;fill-opacity:0"
       d="m 25.584494,96.744342 81.400646,0"
       id="path6636"
       sodipodi:nodetypes="cc" />
    <path
       inkscape:connector-curvature="0"
       style="fill:none;stroke:#4d4d4d;stroke-width:3.14626216999999997;stroke-linecap:butt;stroke-linejoin:miter;stroke-miterlimit:4;stroke-opacity:1;stroke-dasharray:none;fill-opacity:0"
       d="m 25.584494,80.902593 81.400646,0"
       id="path6644"
       sodipodi:nodetypes="cc" />
    <path
       inkscape:connector-curvature="0"
       sodipodi:nodetypes="cc"
       style="fill:none;stroke:#4d4d4d;stroke-width:3.14626216999999997;stroke-linecap:butt;stroke-linejoin:miter;stroke-miterlimit:4;stroke-opacity:1;stroke-dasharray:none;fill-opacity:0"
       d="m 105.483,44.022721 0,52.808312"
       id="path6662" />
    <path
       inkscape:connector-curvature="0"
       sodipodi:nodetypes="cc"
       inkscape:export-ydpi="15.46875"
       inkscape:export-xdpi="15.46875"
       style="fill:none;stroke:#4d4d4d;stroke-width:3.14626216999999997;stroke-linecap:butt;stroke-linejoin:miter;stroke-miterlimit:4;stroke-opacity:1;stroke-dasharray:none;fill-opacity:0"
       d="m 27.031458,44.022721 0,52.224795"
       id="path6665" />
  </g>
  <g
     id="g3039"
     transform="translate(21.108411,-1.201048)">
    <rect
       y="10.300813"
       x="-14.243511"
       height="7.9999909"
       width="7.9999909"
       id="rect3265"
       style="fill:none;stroke:none" />
    <path
       style="fill:#4d4d4d;fill-opacity:1;fill-rule:evenodd;stroke:none"
       d="m -12.470343,14.567931 c -0.119105,0 -0.238277,0.0096 -0.355459,0.03437 l -0.187867,0.454586 0,0.0053 c -0.06814,0.0284 -0.134912,0.05624 -0.19829,0.09243 -0.06301,0.03613 -0.122022,0.07872 -0.178792,0.124106 l -0.006,-0.0027 -0.489455,-0.06536 c -0.155965,0.18016 -0.278423,0.387759 -0.357002,0.611732 l 0.302748,0.391787 0.005,0.0027 c -0.02096,0.14336 -0.02027,0.29048 0.001,0.433866 l -0.0062,0.0027 -0.302851,0.392214 c 0.03853,0.112 0.08723,0.220426 0.14674,0.323813 0.05951,0.102213 0.129581,0.198666 0.207753,0.287973 l 0.492156,-0.06576 0.0062,-0.0027 c 0.114336,0.09019 0.241394,0.164027 0.376891,0.21824 l 0,0.0045 0.189023,0.456613 c 0.234091,0.04432 0.47601,0.04291 0.710145,-0.0027 l 0.188252,-0.454987 0,-0.0051 c 0.06771,-0.02797 0.134117,-0.05603 0.197133,-0.09213 0.06338,-0.03619 0.122868,-0.07928 0.179951,-0.124614 l 0.006,0.0027 0.488876,0.06469 c 0.156061,-0.179573 0.278364,-0.388053 0.357002,-0.612239 l -0.302361,-0.39048 -0.005,-0.0027 c 0.02098,-0.143947 0.02034,-0.290373 -7.73e-4,-0.43368 l 0.0062,-0.0027 0.302555,-0.391947 c -0.0385,-0.111999 -0.08684,-0.220586 -0.146351,-0.323439 -0.05951,-0.102747 -0.12993,-0.19904 -0.208139,-0.28832 l -0.491773,0.06555 -0.0062,0.0029 c -0.114288,-0.09008 -0.241452,-0.164106 -0.376891,-0.218186 l -1.98e-4,-0.0045 -0.188639,-0.456159 c -0.117169,-0.02533 -0.23616,-0.03315 -0.355264,-0.03291 z m -1.99e-4,0.784053 c 0.284705,0 0.567801,0.116693 0.769225,0.317493 0.201425,0.200666 0.318773,0.482266 0.318773,0.765706 0,0.283626 -0.117348,0.565626 -0.318773,0.765865 -0.201424,0.201014 -0.48452,0.31736 -0.769225,0.31736 -0.284706,0 -0.567479,-0.116506 -0.768648,-0.317466 -0.201167,-0.2004 -0.318193,-0.482186 -0.318193,-0.765759 0,-0.283413 0.117026,-0.56504 0.318193,-0.765706 0.201169,-0.2008 0.483942,-0.317466 0.768648,-0.317493 z"
       id="path4151"
       inkscape:connector-curvature="0" />
    <path
       inkscape:connector-curvature="0"
       id="path4112"
       d="m -8.777109,10.30071 c -0.170153,0 -0.340405,0.01547 -0.507815,0.04904 l -0.268389,0.648986 0,0.0091 c -0.09734,0.03779 -0.192739,0.08032 -0.283284,0.132133 -0.09002,0.05173 -0.17432,0.112454 -0.255423,0.177147 l -0.0086,-0.0045 -0.699245,-0.09317 c -0.222815,0.256427 -0.397764,0.553493 -0.51002,0.873599 l 0.432509,0.55936 0.0072,0.0035 c -0.02994,0.205067 -0.02897,0.414346 0.0015,0.620053 l -0.0088,0.0045 -0.432685,0.56072 c 0.05505,0.160026 0.124622,0.315013 0.209635,0.461386 0.08501,0.14696 0.185125,0.284719 0.296801,0.412239 l 0.703106,-0.09368 0.0088,-0.0045 c 0.163339,0.128987 0.344858,0.234346 0.538432,0.311386 l 0,0.0077 0.270043,0.652266 c 0.334428,0.06325 0.680035,0.06096 1.014526,-0.0029 l 0.26894,-0.649519 0,-0.0085 c 0.09672,-0.0376 0.191604,-0.08005 0.281629,-0.131413 0.09054,-0.05219 0.175533,-0.113414 0.257079,-0.178347 l 0.0086,0.0045 0.698416,0.09317 c 0.222953,-0.257253 0.397678,-0.554026 0.510023,-0.874346 l -0.431961,-0.558373 -0.0072,-0.004 c 0.02999,-0.20496 0.0291,-0.414799 -0.0013,-0.619759 l 0.0088,-0.0045 0.432281,-0.559707 c -0.05501,-0.16008 -0.124062,-0.315333 -0.209084,-0.461733 -0.08502,-0.146906 -0.185616,-0.284346 -0.297351,-0.411866 l -0.702555,0.09339 -0.0088,0.0048 C -7.624573,11.190046 -7.806243,11.084419 -7.999734,11.0077 L -8,11 -8.269492,10.348561 c -0.16739,-0.03165 -0.337385,-0.04709 -0.507538,-0.04656 z m -2.66e-4,1.119838 c 0.406736,0 0.811171,0.166694 1.098931,0.453307 0.28776,0.286506 0.455405,0.688585 0.455405,1.093652 0,0.405066 -0.167645,0.807492 -0.455405,1.093998 -0.28776,0.28656 -0.692195,0.45304 -1.098931,0.453013 -0.406736,0 -0.810711,-0.166693 -1.098104,-0.453253 -0.287393,-0.286506 -0.454578,-0.688746 -0.454578,-1.093758 0,-0.405013 0.167185,-0.807146 0.454578,-1.093652 0.287393,-0.286613 0.691368,-0.45328 1.098104,-0.453307 z"
       style="fill:#4d4d4d;fill-opacity:1;fill-rule:evenodd;stroke:none" />
  </g>
</svg>
