<?xml version="1.0" encoding="UTF-8" standalone="no"?>
<!-- Created with Inkscape (http://www.inkscape.org/) -->

<svg
   xmlns:dc="http://purl.org/dc/elements/1.1/"
   xmlns:cc="http://creativecommons.org/ns#"
   xmlns:rdf="http://www.w3.org/1999/02/22-rdf-syntax-ns#"
   xmlns:svg="http://www.w3.org/2000/svg"
   xmlns="http://www.w3.org/2000/svg"
   xmlns:sodipodi="http://sodipodi.sourceforge.net/DTD/sodipodi-0.dtd"
   xmlns:inkscape="http://www.inkscape.org/namespaces/inkscape"
   width="22"
   height="22"
   id="svg2"
   version="1.1"
   inkscape:version="0.48.5 r10040"
   viewBox="0 0 22 22"
   sodipodi:docname="view-credit-card-account.svg">
  <defs
     id="defs4" />
  <sodipodi:namedview
     id="base"
     pagecolor="#ffffff"
     bordercolor="#666666"
     borderopacity="1.0"
     inkscape:pageopacity="0.0"
     inkscape:pageshadow="2"
     inkscape:zoom="22.4"
     inkscape:cx="1.649536"
     inkscape:cy="14.868521"
     inkscape:document-units="px"
     inkscape:current-layer="layer1"
     showgrid="true"
     inkscape:showpageshadow="false"
     borderlayer="true"
     inkscape:window-width="1920"
     inkscape:window-height="1031"
     inkscape:window-x="-4"
     inkscape:window-y="32"
     inkscape:window-maximized="1"
     units="px">
    <sodipodi:guide
       position="2,20.000017"
       orientation="18,0"
       id="guide4085" />
    <sodipodi:guide
       position="2,2.0000174"
       orientation="0,18"
       id="guide4087" />
    <sodipodi:guide
       position="20,2.0000174"
       orientation="-18,0"
       id="guide4089" />
    <sodipodi:guide
       position="20,20.000017"
       orientation="0,-18"
       id="guide4091" />
    <sodipodi:guide
       position="3,19.000017"
       orientation="16,0"
       id="guide4093" />
    <sodipodi:guide
       position="3,3.0000174"
       orientation="0,16"
       id="guide4095" />
    <sodipodi:guide
       position="19,3.0000174"
       orientation="-16,0"
       id="guide4097" />
    <sodipodi:guide
       position="19,19.000017"
       orientation="0,-16"
       id="guide4099" />
    <inkscape:grid
       type="xygrid"
       id="grid4101" />
  </sodipodi:namedview>
  <metadata
     id="metadata7">
    <rdf:RDF>
      <cc:Work
         rdf:about="">
        <dc:format>image/svg+xml</dc:format>
        <dc:type
           rdf:resource="http://purl.org/dc/dcmitype/StillImage" />
        <dc:title />
      </cc:Work>
    </rdf:RDF>
  </metadata>
  <g
     inkscape:label="Capa 1"
     inkscape:groupmode="layer"
     id="layer1"
     transform="translate(0,-1030.3622)">
    <g
       transform="matrix(0.20512821,0,0,0.20512963,3,1033.3236)"
       id="g3"
       style="fill:#4d4d4d;fill-opacity:1">
      <path
         inkscape:connector-curvature="0"
         d="M 69,12 H 9 c -4.963,0 -9,4.038 -9,9 v 36 c 0,4.962 4.037,9 9,9 h 60 c 4.963,0 9,-4.038 9,-9 V 21 c 0,-4.962 -4.037,-9 -9,-9 z m 3,45 c 0,1.654 -1.346,3 -3,3 H 9 C 7.346,60 6,58.654 6,57 V 21 c 0,-1.654 1.346,-3 3,-3 h 60 c 1.654,0 3,1.346 3,3 v 36 z"
         style="fill:#4d4d4d;fill-opacity:1"
         id="path5" />
      <path
         inkscape:connector-curvature="0"
         d="M 63,27 H 15 c -1.657,0 -3,1.343 -3,3 0,1.657 1.343,3 3,3 h 48 c 1.657,0 3,-1.343 3,-3 0,-1.657 -1.343,-3 -3,-3 z"
         style="fill:#4d4d4d;fill-opacity:1"
         id="path7" />
      <path
         inkscape:connector-curvature="0"
         d="M 63,45 H 48 c -1.657,0 -3,1.343 -3,3 0,1.657 1.343,3 3,3 h 15 c 1.657,0 3,-1.343 3,-3 0,-1.657 -1.343,-3 -3,-3 z"
         style="fill:#4d4d4d;fill-opacity:1"
         id="path9" />
      <path
         inkscape:connector-curvature="0"
         d="m 31,39 c -1.961,0 -3.771,0.637 -5.252,1.706 C 24.27,39.637 22.46,39 20.5,39 c -4.963,0 -9,4.038 -9,9.001 0,4.963 4.037,9.001 9,9.001 1.96,0 3.77,-0.637 5.248,-1.706 1.48,1.069 3.291,1.706 5.252,1.706 4.963,0 9,-4.038 9,-9.001 C 40,43.038 35.963,39 31,39 z m 0,15.002 c -3.309,0 -6,-2.692 -6,-6.001 C 25,44.692 27.691,42 31,42 c 3.309,0 6,2.692 6,6.001 0,3.309 -2.691,6.001 -6,6.001 z"
         style="fill:#4d4d4d;fill-opacity:1"
         id="path11" />
    </g>
  </g>
</svg>
