<?xml version="1.0" encoding="UTF-8" standalone="no"?>
<!-- Created with Inkscape (http://www.inkscape.org/) -->

<svg
   xmlns:dc="http://purl.org/dc/elements/1.1/"
   xmlns:cc="http://creativecommons.org/ns#"
   xmlns:rdf="http://www.w3.org/1999/02/22-rdf-syntax-ns#"
   xmlns:svg="http://www.w3.org/2000/svg"
   xmlns="http://www.w3.org/2000/svg"
   xmlns:sodipodi="http://sodipodi.sourceforge.net/DTD/sodipodi-0.dtd"
   xmlns:inkscape="http://www.inkscape.org/namespaces/inkscape"
   width="22"
   height="22"
   id="svg2"
   version="1.1"
   inkscape:version="0.48.5 r10040"
   viewBox="0 0 22 22"
   sodipodi:docname="view-stock-account.svg">
  <defs
     id="defs4" />
  <sodipodi:namedview
     id="base"
     pagecolor="#ffffff"
     bordercolor="#666666"
     borderopacity="1.0"
     inkscape:pageopacity="0.0"
     inkscape:pageshadow="2"
     inkscape:zoom="22.4"
     inkscape:cx="1.649536"
     inkscape:cy="14.868521"
     inkscape:document-units="px"
     inkscape:current-layer="layer1"
     showgrid="true"
     inkscape:showpageshadow="false"
     borderlayer="true"
     inkscape:window-width="1920"
     inkscape:window-height="1031"
     inkscape:window-x="-4"
     inkscape:window-y="32"
     inkscape:window-maximized="1"
     units="px">
    <sodipodi:guide
       position="2,20.000017"
       orientation="18,0"
       id="guide4085" />
    <sodipodi:guide
       position="2,2.0000174"
       orientation="0,18"
       id="guide4087" />
    <sodipodi:guide
       position="20,2.0000174"
       orientation="-18,0"
       id="guide4089" />
    <sodipodi:guide
       position="20,20.000017"
       orientation="0,-18"
       id="guide4091" />
    <sodipodi:guide
       position="3,19.000017"
       orientation="16,0"
       id="guide4093" />
    <sodipodi:guide
       position="3,3.0000174"
       orientation="0,16"
       id="guide4095" />
    <sodipodi:guide
       position="19,3.0000174"
       orientation="-16,0"
       id="guide4097" />
    <sodipodi:guide
       position="19,19.000017"
       orientation="0,-16"
       id="guide4099" />
    <inkscape:grid
       type="xygrid"
       id="grid4101" />
  </sodipodi:namedview>
  <metadata
     id="metadata7">
    <rdf:RDF>
      <cc:Work
         rdf:about="">
        <dc:format>image/svg+xml</dc:format>
        <dc:type
           rdf:resource="http://purl.org/dc/dcmitype/StillImage" />
        <dc:title />
      </cc:Work>
    </rdf:RDF>
  </metadata>
  <g
     inkscape:label="Capa 1"
     inkscape:groupmode="layer"
     id="layer1"
     transform="translate(0,-1030.3622)">
    <path
       id="path5"
       style="fill:#4d4d4d;fill-opacity:1"
       d="M 17.153846,1035.7852 H 4.8461539 C 3.8281026,1035.7852 3,1036.6135 3,1037.6313 v 7.3847 c 0,1.0178 0.8281026,1.8462 1.8461539,1.8462 H 17.153846 c 1.018052,0 1.846154,-0.8284 1.846154,-1.8462 v -7.3847 c 0,-1.0178 -0.828102,-1.8461 -1.846154,-1.8461 z m 0.615385,9.2308 c 0,0.3393 -0.276102,0.6154 -0.615385,0.6154 H 4.8461539 c -0.3392821,0 -0.6153846,-0.2761 -0.6153846,-0.6154 v -7.3847 c 0,-0.3393 0.2761025,-0.6154 0.6153846,-0.6154 H 17.153846 c 0.339283,0 0.615385,0.2761 0.615385,0.6154 v 7.3847 z"
       inkscape:connector-curvature="0" />
    <path
       id="path7"
       style="fill:#4d4d4d;fill-opacity:1"
       d="M 15.923077,1038.8621 H 6.0769232 c -0.3398975,0 -0.6153847,0.2755 -0.6153847,0.6154 0,0.3399 0.2754872,0.6154 0.6153847,0.6154 h 9.8461538 c 0.339898,0 0.615385,-0.2755 0.615385,-0.6154 0,-0.3399 -0.275487,-0.6154 -0.615385,-0.6154 z"
       inkscape:connector-curvature="0" />
    <path
       id="path9"
       style="fill:#4d4d4d;fill-opacity:1"
       d="m 15.923077,1042.5544 h -3.076923 c -0.339897,0 -0.615385,0.2755 -0.615385,0.6154 0,0.3399 0.275488,0.6154 0.615385,0.6154 h 3.076923 c 0.339898,0 0.615385,-0.2755 0.615385,-0.6154 0,-0.3399 -0.275487,-0.6154 -0.615385,-0.6154 z"
       inkscape:connector-curvature="0" />
    <path
       inkscape:connector-curvature="0"
       style="fill:#4d4d4d;fill-opacity:1"
       d="m 6.5835358,1041.0591 c -0.016698,0 -0.031219,0.016 -0.035178,0.022 l -0.1468417,0.5995 c -0.1228078,0.03 -0.2385935,0.082 -0.3456894,0.1455 l -0.5215941,-0.3434 c -0.0026,0 -0.005,0 -0.00766,0 -9.951e-4,0 -0.0021,0 -0.003,0 -0.01319,-0.01 -0.027909,0 -0.038239,0.012 l -0.2799174,0.281 c -0.011897,0.018 -0.014829,0.025 -0.0062,0.047 l 0.1911996,0.3151 0.0015,0 0.1391931,0.2295 c -0.058388,0.098 -0.1058114,0.2034 -0.1391931,0.3149 l -0.6041923,0.1257 c -0.016819,0.01 -0.029062,0.021 -0.029062,0.035 l 0,0.3971 c 0,0.022 0.012782,0.027 0.029062,0.033 l 0.5858368,0.1415 c 0.031329,0.1296 0.079724,0.2532 0.1437821,0.3661 l -0.3395716,0.5175 c -0.00946,0.016 -0.00763,0.03 0.0046,0.049 l 0.2814474,0.281 c 0.011861,0.018 0.030039,0.019 0.044359,0.01 l 0.5323008,-0.3228 c 0.1044038,0.061 0.2174369,0.1085 0.3365127,0.1407 l 0.123897,0.5966 c 0.0034,0.022 0.017969,0.024 0.035182,0.024 l 0.3976963,0 c 0.016699,0 0.031218,-0.017 0.03518,-0.022 l 0.1468415,-0.5997 c 0.1228079,-0.03 0.2385935,-0.083 0.3456901,-0.1453 l 0.5215936,0.3425 c 0.0036,0 0.00693,0.01 0.010701,0.01 0.01298,0.01 0.02814,0 0.038239,-0.012 l 0.2799164,-0.2817 c 0.011899,-0.017 0.014829,-0.025 0.0062,-0.047 l -0.1912003,-0.3152 -0.0015,0 -0.1391937,-0.2296 c 0.058388,-0.098 0.1058121,-0.2032 0.1391937,-0.3147 l 0.6041928,-0.1258 c 0.016818,-0.01 0.02906,-0.022 0.02906,-0.035 l 0,-0.398 c 0,-0.021 -0.012782,-0.027 -0.02906,-0.033 l -0.5858375,-0.1428 C 8.1124536,1042.5985 8.0640586,1042.4748 8,1042.3622 l 0.3395715,-0.5172 c 0.00946,-0.018 0.00763,-0.031 -0.0046,-0.049 l -0.2814465,-0.2815 c -0.011859,-0.018 -0.030039,-0.019 -0.044359,-0.01 l -0.5323007,0.3222 c -0.1044039,-0.061 -0.2174371,-0.1088 -0.336512,-0.141 l -0.1239035,-0.5961 c -0.0034,-0.021 -0.017969,-0.024 -0.03518,-0.024 l -0.3976957,0 0,0 z m 0.1881403,0.8506 c 0.6291388,0 1.1395527,0.5104 1.1395527,1.1396 0,0.2023 -0.052539,0.3937 -0.1453122,0.5581 -0.0024,-0.01 -0.0022,0 -0.0046,-0.01 -0.023559,0.049 -0.050128,0.092 -0.079541,0.1331 -0.0018,0 -0.0028,0.01 -0.0046,0.012 -0.0027,0.01 -0.0064,0.01 -0.00918,0.016 -0.1133311,0.1439 -0.2607918,0.2588 -0.4298175,0.3349 l 0,0.022 c -0.1491839,0.069 -0.3161223,0.1116 -0.492531,0.1116 -0.6291395,0 -1.1395529,-0.5101 -1.1395529,-1.1394 0,-0.2028 0.052139,-0.3931 0.1453123,-0.5582 0.0024,0.01 0.0022,0 0.0046,0.01 0.023559,-0.049 0.048579,-0.091 0.079538,-0.1315 0.1172957,-0.1557 0.2594472,-0.2875 0.4435821,-0.3764 0.1490879,-0.069 0.3159688,-0.1134 0.4925314,-0.1134 l 4.9e-6,0 z"
       id="path11644"
       sodipodi:nodetypes="cccccssccccccccccccccccccccccccccsccccccccccccccccccccccccsccsscccssccsscc" />
  </g>
</svg>
