<?xml version="1.0" encoding="UTF-8" standalone="no"?>
<!-- Created with Inkscape (http://www.inkscape.org/) -->

<svg
   xmlns:dc="http://purl.org/dc/elements/1.1/"
   xmlns:cc="http://creativecommons.org/ns#"
   xmlns:rdf="http://www.w3.org/1999/02/22-rdf-syntax-ns#"
   xmlns:svg="http://www.w3.org/2000/svg"
   xmlns="http://www.w3.org/2000/svg"
   xmlns:sodipodi="http://sodipodi.sourceforge.net/DTD/sodipodi-0.dtd"
   xmlns:inkscape="http://www.inkscape.org/namespaces/inkscape"
   width="22"
   height="22"
   id="svg2"
   version="1.1"
   inkscape:version="0.91 r13725"
   viewBox="0 0 22 22"
   sodipodi:docname="webarchiver.svg">
  <defs
     id="defs4" />
  <sodipodi:namedview
     id="base"
     pagecolor="#ffffff"
     bordercolor="#666666"
     borderopacity="1.0"
     inkscape:pageopacity="0.0"
     inkscape:pageshadow="2"
     inkscape:zoom="16.148551"
     inkscape:cx="14.164281"
     inkscape:cy="-1.9603229"
     inkscape:document-units="px"
     inkscape:current-layer="layer1"
     showgrid="true"
     inkscape:showpageshadow="false"
     borderlayer="true"
     inkscape:window-width="1920"
     inkscape:window-height="992"
     inkscape:window-x="-4"
     inkscape:window-y="26"
     inkscape:window-maximized="1"
     units="px"
     showguides="true">
    <sodipodi:guide
       position="2,20.000017"
       orientation="18,0"
       id="guide4085" />
    <sodipodi:guide
       position="2,2.0000174"
       orientation="0,18"
       id="guide4087" />
    <sodipodi:guide
       position="20,2.0000174"
       orientation="-18,0"
       id="guide4089" />
    <sodipodi:guide
       position="20,20.000017"
       orientation="0,-18"
       id="guide4091" />
    <sodipodi:guide
       position="3,19.000017"
       orientation="16,0"
       id="guide4093" />
    <sodipodi:guide
       position="19,3.0000174"
       orientation="-16,0"
       id="guide4097" />
    <sodipodi:guide
       position="19,19.000017"
       orientation="0,-16"
       id="guide4099" />
    <inkscape:grid
       type="xygrid"
       id="grid4101" />
    <sodipodi:guide
       position="15.292954,9.0000353"
       orientation="3.2929838,-3.2929838"
       id="guide4081" />
    <sodipodi:guide
       position="11.99997,5.7070514"
       orientation="0.70710678,0.70710678"
       id="guide4083" />
    <sodipodi:guide
       position="12.707077,4.9999447"
       orientation="-3.2929838,3.2929838"
       id="guide4086" />
    <sodipodi:guide
       position="16.00006,8.2929285"
       orientation="-0.70710678,-0.70710678"
       id="guide4088" />
    <sodipodi:guide
       position="15.707101,9.0000353"
       orientation="3.2929838,3.2929838"
       id="guide4090" />
    <sodipodi:guide
       position="19.000085,5.7070514"
       orientation="0.70710678,-0.70710678"
       id="guide4092" />
    <sodipodi:guide
       position="18.292978,4.9999447"
       orientation="-3.2929838,-3.2929838"
       id="guide4094" />
    <sodipodi:guide
       position="14.999995,8.2929285"
       orientation="-0.70710678,0.70710678"
       id="guide4096" />
  </sodipodi:namedview>
  <metadata
     id="metadata7">
    <rdf:RDF>
      <cc:Work
         rdf:about="">
        <dc:format>image/svg+xml</dc:format>
        <dc:type
           rdf:resource="http://purl.org/dc/dcmitype/StillImage" />
        <dc:title />
      </cc:Work>
    </rdf:RDF>
  </metadata>
  <g
     inkscape:label="Capa 1"
     inkscape:groupmode="layer"
     id="layer1"
     transform="translate(0,-1030.3622)">
    <path
       style="fill:#4d4d4d;fill-opacity:1;stroke:none"
       d="M 4 2.9980469 L 4 3 L 4 19 L 5 19 L 12 19 L 12 18 L 5 18 L 5 4 L 17 4 L 17 13 L 18 13 L 18 2.9980469 L 17 2.9980469 L 5 2.9980469 L 4 2.9980469 z M 15.5 12.792969 L 15.292969 13 L 12 16.292969 L 12.707031 17 L 15 14.707031 L 15 19 L 16 19 L 16 14.707031 L 18.292969 17 L 19 16.292969 L 15.707031 13 L 15.5 12.792969 z "
       transform="translate(0,1030.3622)"
       id="rect4139" />
    <path
       inkscape:connector-curvature="0"
       style="opacity:1;fill:#4d4d4d;fill-opacity:1;stroke:none;stroke-width:2.79999995;stroke-miterlimit:4;stroke-dasharray:none;stroke-opacity:0.55026455"
       d="m 10.999999,1036.8566 c -0.280333,0 -0.551667,0.036 -0.812622,0.098 -0.121624,0.029 -0.2400478,0.064 -0.3563236,0.105 -0.046972,0.017 -0.09412,0.032 -0.1401364,0.05 -8.313e-4,3e-4 -0.00171,0 -0.00258,0 -0.2676516,0.1078 -0.5170665,0.249 -0.7468262,0.4162 -0.014374,0.014 -0.02852,0.021 -0.042724,0.032 -0.1051703,0.078 -0.2061946,0.1627 -0.3016356,0.2528 -0.005,0 -0.010416,0.014 -0.01538,0.014 -0.2058818,0.1968 -0.3862784,0.4187 -0.5391844,0.6606 -0.00676,0.014 -0.013006,0.021 -0.019653,0.032 -0.071882,0.1162 -0.1376141,0.2371 -0.1956788,0.3624 -0.00171,0 -0.00342,0.014 -0.00512,0.014 -0.1231269,0.2679 -0.2132638,0.5532 -0.265747,0.8528 -0.034817,0.1964 -0.056388,0.4002 -0.056388,0.6094 0,1.4891 0.9222917,2.7516 2.2276608,3.2591 0.00105,4e-4 0.00153,0 0.00258,0 0.00276,0 0.00578,0 0.00854,0 0.1450111,0.056 0.2940442,0.1022 0.4477532,0.1386 0.0017,4e-4 0.0034,0 0.0051,0 0.259601,0.062 0.529612,0.097 0.80835,0.097 0.303141,0 0.595191,-0.042 0.875,-0.1148 l 0,-0.4537 c -0.277442,0.083 -0.570054,0.1302 -0.875,0.1302 -0.370853,0 -0.724298,-0.069 -1.0527344,-0.1888 0.00595,0 0.015303,-0.014 0.017088,-0.017 0.00393,-0.018 -0.0042,-0.025 -0.00512,-0.053 0.00657,-0.028 0.037629,-0.031 0.043579,-0.06 -0.012166,-0.021 -0.040631,-0.014 -0.05896,-0.018 -0.017807,-0.014 -0.025606,-0.034 -0.023069,-0.056 0.03045,-0.014 0.089258,0.031 0.1110844,-0.014 0.01089,-0.02 -0.01218,-0.069 0.0026,-0.09 0.01023,-0.014 0.0664,-0.014 0.08801,-0.018 0.03102,0 0.06711,-0.014 0.08459,-0.024 0.01908,-0.014 0.04691,-0.049 0.04358,-0.084 -0.0018,-0.017 -0.01341,-0.024 -0.02649,-0.038 -0.01098,-0.014 -0.01515,-0.029 -0.02307,-0.041 -0.01369,-0.021 -0.03498,-0.017 -0.04102,-0.046 0.04191,-0.014 0.105997,0.034 0.166626,0.017 0.02874,-0.014 0.06869,-0.07 0.08203,-0.097 0.0044,-0.014 0.004,-0.021 0.0085,-0.032 0.0054,-0.014 0.01624,-0.021 0.01795,-0.027 0.0044,-0.015 0.0015,-0.028 0.0051,-0.039 0.01063,-0.029 0.03799,-0.039 0.05554,-0.06 0.0133,-0.017 0.01987,-0.036 0.03247,-0.053 0.01374,-0.018 0.02598,-0.034 0.03504,-0.049 0.0086,-0.053 -0.02106,-0.091 -0.0085,-0.1372 0.014,-0.052 0.08591,-0.084 0.136719,-0.1078 0.0175,-0.014 0.03532,-0.021 0.04956,-0.027 0.03518,-0.014 0.07892,0 0.111083,-0.017 0.05473,-0.02 0.06103,-0.08 0.08801,-0.1288 0.01287,-0.024 0.02908,-0.048 0.03162,-0.064 0.0022,-0.015 -0.0054,-0.029 -0.0026,-0.048 0.0026,-0.017 0.01912,-0.034 0.02393,-0.052 0.0063,-0.025 0.0085,-0.063 0.0085,-0.091 0,-0.024 -0.01092,-0.043 -0.0119,-0.064 -0.0039,-0.076 0.02754,-0.084 0.05554,-0.126 0.014,-0.021 0.02006,-0.045 0.0299,-0.059 0.04704,-0.07 0.128101,-0.1036 0.122193,-0.2101 -0.0022,-0.035 -0.02367,-0.1148 -0.04956,-0.126 -0.01474,0 -0.04868,-2e-4 -0.07007,-0.014 -0.06904,-0.025 -0.109617,-0.112 -0.181153,-0.1176 -0.01523,0 -0.02983,0 -0.047,0 -0.02831,-4e-4 -0.07034,-0.02 -0.101684,-0.024 -0.01991,0 -0.04701,0 -0.05896,0 -0.01829,-0.014 -0.02025,-0.043 -0.03504,-0.053 -0.01186,-0.014 -0.03427,-0.014 -0.05212,-0.017 -0.02874,-0.014 -0.05225,-0.024 -0.08545,-0.027 -0.01023,-4e-4 -0.02232,0 -0.03418,0 -0.01838,0 -0.0334,-0.025 -0.05042,-0.035 -0.02117,-0.014 -0.04078,-0.02 -0.04956,-0.038 0.01921,-0.063 -0.03326,-0.081 -0.04614,-0.1176 -0.0061,-0.017 -0.003,-0.036 -0.0085,-0.052 -0.0076,-0.022 -0.02937,-0.035 -0.05298,-0.053 -0.04226,-0.032 -0.07973,-0.063 -0.140137,-0.07 -0.02656,0 -0.05252,0.014 -0.08459,0 -0.03399,0 -0.077103,-0.032 -0.1025405,-0.062 -0.024719,-0.028 -0.036531,-0.053 -0.058106,-0.067 -0.020432,-0.014 -0.047602,-0.014 -0.061523,-0.027 -0.00617,0 -0.00561,-0.015 -0.011956,-0.029 -0.010234,-0.021 -0.027344,-0.032 -0.014525,-0.059 -0.023319,-0.014 -0.024072,0.021 -0.04956,0.017 -0.02275,-0.032 -0.041593,-0.048 -0.09314,-0.038 -0.023537,0 -0.036537,0.034 -0.064087,0.035 -0.022575,4e-4 -0.040257,-0.025 -0.070068,-0.029 -0.022532,0 -0.048942,0 -0.064941,0 -0.024894,0 -0.032739,-0.025 -0.055543,-0.041 -0.016625,-0.014 -0.048726,-0.031 -0.058106,-0.029 -0.029357,0 -0.050104,0.063 -0.090577,0.041 -0.019732,-0.025 0.031864,-0.036 0.00854,-0.06 -0.017675,-0.018 -0.031989,0.014 -0.046143,0.017 -0.016144,0.014 -0.031636,0.022 -0.04956,0.029 -0.040119,0.015 -0.065207,0.014 -0.096557,0.024 -0.029094,0.015 -0.03052,0.041 -0.046997,0.07 -0.013524,0.025 -0.04391,0.06 -0.064087,0.062 -0.024457,0 -0.047883,-0.035 -0.070068,-0.045 -0.066894,-0.029 -0.099114,0.025 -0.154663,0.027 -0.051546,0 -0.1256371,-0.083 -0.1230471,-0.1316 0.00175,-0.029 0.016964,-0.074 0.020507,-0.1106 0.00262,-0.029 0.022809,-0.046 0.023071,-0.073 4.375e-4,-0.035 -0.046219,-0.063 -0.069214,-0.067 -0.054574,-0.014 -0.1305707,0.022 -0.1931151,0 -0.0119,-0.02 0.013818,-0.032 0.020507,-0.052 0.00393,-0.014 0.00196,-0.027 0.00598,-0.038 0.00692,-0.018 0.026329,-0.034 0.035034,-0.053 0.00657,-0.015 0.00788,-0.036 0.014527,-0.056 0.00757,-0.021 0.021409,-0.034 0.023071,-0.049 0.00218,-0.02 -0.00489,-0.042 -0.020507,-0.056 -0.048545,0 -0.080078,0 -0.1076665,0.017 -0.063206,0.029 -0.051371,0.1134 -0.1145014,0.1344 -0.021832,0.014 -0.052017,0.014 -0.07605,0.014 -0.020694,0 -0.045248,0.015 -0.06665,0.014 -0.025244,-5e-4 -0.069554,-0.025 -0.084594,-0.041 -0.00556,0 -0.01183,-0.024 -0.020507,-0.041 0.034372,-0.1661 0.084463,-0.3262 0.1444091,-0.4811 0.040785,-0.022 0.075893,-0.056 0.123901,-0.059 0.024762,0 0.061635,0.014 0.08545,0.014 0.022007,0 0.039074,0.02 0.058106,0.021 0.053983,0 0.067045,-0.038 0.1110839,-0.062 0.045486,0 0.075116,-0.014 0.1162108,0 0.028,0 0.048207,0.034 0.070068,0.036 0.018419,0 0.035224,-0.018 0.052978,-0.015 0.017282,0 0.046774,0.041 0.04956,0.062 0.00307,0.027 -0.019445,0.05 -0.011956,0.08 0.027519,0.028 0.077757,0.034 0.1170648,0.049 0.025594,-0.021 0.00393,-0.06 0,-0.091 -8.75e-4,-0.014 0.00175,-0.027 0,-0.038 -0.00263,-0.021 -0.011872,-0.041 -0.011956,-0.059 -2.668e-4,-0.083 0.067292,-0.1218 0.123047,-0.1547 0.02415,-0.014 0.043144,-0.039 0.064087,-0.049 0.029532,-0.015 0.051589,-0.018 0.07605,-0.032 0.044253,-0.025 0.082468,-0.045 0.1170648,-0.074 0.016057,-0.038 8.137e-4,-0.087 0.00256,-0.1246 0.016057,-0.014 0.029194,0 0.046143,0 0.026732,0 0.029322,-0.043 0.044434,-0.059 0.00875,-0.014 0.032685,-0.014 0.043579,-0.022 0.026644,-0.021 0.03487,-0.053 0.058106,-0.062 0.00832,0 0.027891,0 0.041016,0 0.017368,0 0.041876,-0.025 0.070068,-0.035 0.018287,0 0.060492,-0.014 0.067504,-0.014 0.00862,-0.014 3.04e-5,-0.034 0.00256,-0.046 0.014175,-0.066 0.113891,-0.08 0.1726076,-0.1022 0.041125,-0.015 0.082958,-0.043 0.1281739,-0.035 -0.00883,0.032 -0.050777,0.02 -0.04358,0.059 0.00997,0.053 0.080466,-0.015 0.099121,-0.024 0.03561,-0.015 0.09595,-0.024 0.1427,-0.041 0.04104,-0.015 0.114699,-0.038 0.07605,-0.084 -0.03224,0 -0.04794,0.038 -0.07605,0.049 -0.01943,0 -0.01508,-0.017 -0.03162,-0.018 -0.01566,0 -0.02487,0.015 -0.04102,0.014 -0.01606,0 -0.03852,-0.028 -0.04102,-0.048 -0.0064,-0.049 0.04132,-0.069 0.06152,-0.1036 -0.01334,-0.045 -0.07421,-0.014 -0.1110834,-0.027 0.0039,-0.027 0.03087,-0.045 0.06152,-0.049 0.02511,0 0.08159,0 0.09656,0.014 0.0087,0.014 7e-4,0.027 0.01452,0.038 0.01492,0.014 0.03275,0.014 0.05212,0.014 0.007,-0.034 -0.04307,-0.025 -0.0376,-0.048 0.03942,-0.025 0.103799,0 0.1521,-0.014 0.02778,0 0.05654,-0.024 0.08118,-0.039 0.02345,-0.014 0.0546,-0.036 0.07947,-0.014 0.0068,0.024 -0.02178,0.032 -0.03504,0.043 -0.04468,0.039 -0.09087,0.085 -0.125611,0.1316 0.02135,0.021 0.05964,0.014 0.0957,0.014 0.01409,0 0.03209,0 0.047,0.014 0.01741,0 0.03593,0 0.04956,0 0.02459,0 0.0313,0.032 0.05554,0.032 0.03994,-1e-4 0.04057,-0.043 0.01794,-0.07 0.0071,-0.028 0.01826,-0.042 0.0085,-0.062 -0.01798,-0.036 -0.08462,0 -0.08801,-0.048 -0.0022,-0.029 0.02445,-0.028 0.03503,-0.049 -0.0048,-0.056 0.04645,-0.06 0.04102,-0.1106 -0.0026,-0.021 -0.0202,-0.021 -0.03504,-0.041 -0.0077,-0.014 -0.01127,-0.031 -0.02051,-0.039 -0.03054,-0.025 -0.09194,-0.021 -0.0957,-0.07 -0.0017,-0.029 0.0068,-0.053 0.0026,-0.084 -0.0039,-0.029 -0.02381,-0.112 -0.04956,-0.1176 -0.03259,0 -0.06687,0.049 -0.105957,0.067 -0.02126,0.014 -0.05132,0.021 -0.07263,0.017 -0.01382,0 -0.04148,-0.022 -0.04358,-0.049 -0.0026,-0.031 0.02089,-0.032 0.02649,-0.064 -0.0048,-0.02 -0.02552,-0.014 -0.04443,-0.029 -0.02144,-0.017 -0.0381,-0.052 -0.06665,-0.056 -0.01422,0 -0.03284,0.014 -0.047,0.014 -0.02611,0 -0.04632,0 -0.06836,-0.014 0.070384,-0.025 0.1418124,-0.048 0.2144764,-0.067 0.01361,0.014 0.01845,0.042 0.03504,0.052 0.01107,0 0.03019,0 0.04358,0.014 0.04287,0.014 0.07871,0.036 0.125611,0.027 0.0161,-0.028 -0.03312,-0.036 -0.01453,-0.059 0.03141,0 0.05186,0.015 0.07605,0.025 0.03378,-0.024 0.0559,-0.027 0.05469,-0.067 -3e-4,-0.024 -0.01912,-0.035 -0.0316,-0.052 0.02603,0 0.05236,-0.014 0.07861,-0.014 0.0058,0 0.01061,0.017 0.01795,0.017 0.01662,0 0.06608,-0.022 0.07605,-0.027 0.0018,0 0.005,0 0.0077,0 0.110472,-0.014 0.222051,-0.02 0.335813,-0.02 0.523089,0 1.014217,0.1302 1.444091,0.3598 -0.0145,0 -0.02873,0.014 -0.04614,0.014 -0.02061,0.014 -0.05879,0.043 -0.06409,0.056 -0.0088,0.021 0.0022,0.043 0,0.076 0.01667,0.014 0.02706,0.039 0.05554,0.056 0.01078,0 0.0246,0 0.03417,0.014 0.01667,0.014 0.0299,0.031 0.02649,0.048 -0.0048,0.024 -0.03587,0.018 -0.05212,0.035 0.0027,0.034 -0.02394,0.039 -0.03247,0.062 0.0053,0.014 0.02674,0.014 0.02905,0.029 -0.0031,0.02 -0.03627,0.021 -0.02905,0.041 0.03128,0.024 0.06442,0 0.094,-0.014 0.06534,-0.014 0.131629,0.014 0.171754,-0.024 -0.0055,-0.031 0.03328,-0.042 0.0299,-0.07 -0.0027,-0.021 -0.03763,-0.024 -0.05298,-0.038 -0.0083,-0.014 -0.0105,-0.025 -0.02051,-0.041 -0.01162,-0.017 -0.03331,-0.029 -0.04614,-0.046 -0.01715,-0.022 -0.05309,-0.056 -0.05298,-0.074 2.66e-4,-0.02 0.0246,-0.025 0.02905,-0.052 -0.0053,-0.025 -0.05193,-0.014 -0.05554,-0.035 9.19e-4,-0.014 0.005,-0.014 0.0094,-0.02 0.134107,0.073 0.260233,0.1585 0.381103,0.2503 -0.0014,2e-4 -0.0039,-2e-4 -0.0052,0 -0.02927,0 -0.04,0.042 -0.06409,0.071 -0.01672,0.02 -0.04864,0.042 -0.07349,0.052 -0.01218,0 -0.02649,0 -0.0376,0.014 -0.01641,0.014 -0.02237,0.036 -0.04102,0.049 -0.01344,0.014 -0.06444,0.035 -0.07861,0.035 -0.01663,3e-4 -0.03168,-0.015 -0.04358,-0.014 -0.01754,0 -0.01607,0.039 -0.03588,0.048 -0.03872,0.014 -0.102719,-0.035 -0.116215,0.024 0.01658,0.034 0.05818,0.025 0.08717,0.043 0.01824,0.014 0.05673,0.063 0.06153,0.083 0.0043,0.017 -0.0018,0.081 -0.0085,0.099 -0.01807,0.046 -0.06089,0.031 -0.114507,0.029 -0.01466,-2e-4 -0.03002,0 -0.04358,0 -0.09043,0 -0.181306,-0.039 -0.222168,0.025 0.0031,0.049 0.01439,0.084 0.0034,0.126 -0.008,0.032 -0.03644,0.06 -0.03504,0.087 8.75e-4,0.014 0.01709,0.028 0.02051,0.048 0.0022,0.014 -0.0048,0.032 0,0.041 0.01488,0.029 0.05477,0 0.08117,0.014 0.02582,0 0.05582,0.041 0.05554,0.07 -2.68e-4,0.02 -0.0188,0.053 -0.03161,0.073 -0.02555,0.039 -0.06005,0.041 -0.09656,0.062 -0.03045,0.017 -0.04368,0.046 -0.06152,0.076 -0.01938,0.032 -0.03104,0.052 -0.02307,0.099 -0.02612,0.052 -0.06556,0.084 -0.119631,0.1092 -0.01606,0.014 -0.03833,0.014 -0.05298,0.021 -0.01162,0.014 -0.01845,0.031 -0.03503,0.049 -0.02043,0.022 -0.04133,0.032 -0.05212,0.049 -0.0083,0.014 -0.01134,0.041 -0.02051,0.059 -0.01246,0.024 -0.03917,0.036 -0.05554,0.062 -0.0076,0.014 -0.01218,0.035 -0.02051,0.049 -0.01851,0.034 -0.05037,0.059 -0.047,0.088 0.0031,0.029 0.03626,0.034 0.03846,0.059 0.0017,0.014 -0.01008,0.022 -0.0094,0.038 4.37e-4,0.022 0.0162,0.039 0.01795,0.056 0.0043,0.043 -0.01579,0.06 -0.02393,0.091 -0.0039,0.014 -0.0015,0.029 -0.0052,0.041 -0.0071,0.022 -0.03793,0.042 -0.03844,0.067 -4.39e-4,0.018 0.01893,0.032 0.02051,0.059 8.75e-4,0.018 -0.0091,0.036 -0.006,0.053 0.0062,0.032 0.06331,0.069 0.08802,0.092 0.03303,0.032 0.07633,0.059 0.09058,0.094 0.01204,0.029 0.01204,0.069 0.03504,0.091 0.01703,0.017 0.04481,0.027 0.06665,0.043 0.02038,0.015 0.0432,0.029 0.06495,0.046 0.03557,0.028 0.08861,0.084 0.145263,0.08 0.02953,0 0.06044,-0.027 0.094,-0.032 0.03457,0 0.07884,-0.014 0.113653,0 0.02673,0 0.05431,0.018 0.08203,0.017 0.02932,0 0.06329,-0.024 0.09656,-0.038 0.0576,-0.025 0.143149,-0.059 0.227294,-0.046 0.06409,0.014 0.06156,0.083 0.105953,0.1106 0.05155,0 0.09251,-0.018 0.133295,-0.014 0.03084,0.014 0.06797,0.055 0.07093,0.078 0.0031,0.025 -0.01422,0.064 -0.01795,0.08 -0.008,0.034 -0.0084,0.074 -0.01452,0.095 -0.0048,0.017 -0.01821,0.027 -0.01795,0.043 2.66e-4,0.015 0.01938,0.053 0.03504,0.074 0.01921,0.025 0.05019,0.043 0.07349,0.07 0.04274,0.049 0.061,0.1078 0.09058,0.1726 0.0076,0.017 0.01537,0.038 0.02222,0.059 l 1.174927,0 c 0.02346,-0.095 0.05019,-0.1892 0.06665,-0.2872 0.0059,-0.035 0.01134,-0.069 0.01624,-0.1036 0.02177,-0.1542 0.03675,-0.315 0.03675,-0.4796 0,-0.1316 -0.009,-0.2621 -0.02307,-0.3905 -0.01417,-0.1288 -0.0365,-0.2546 -0.06409,-0.3785 -0.02115,-0.095 -0.04397,-0.1893 -0.07263,-0.2812 -0.0052,-0.017 -0.01232,-0.032 -0.01795,-0.049 -0.01711,-0.052 -0.03609,-0.1022 -0.05554,-0.1537 -0.02452,-0.064 -0.0505,-0.1274 -0.07861,-0.1897 -10e-4,0 -0.0017,0 -0.0025,-0.014 -7.88e-4,0 -0.0018,0 -0.0025,0 -0.01078,-0.024 -0.02289,-0.046 -0.03419,-0.07 -0.04228,-0.087 -0.08756,-0.1732 -0.136712,-0.2563 -6.56e-4,0 -10e-4,0 -0.0017,0 -0.02535,-0.043 -0.05058,-0.085 -0.07773,-0.1274 -0.06825,-0.105 -0.140812,-0.206 -0.219605,-0.3026 -0.07861,-0.097 -0.162055,-0.1885 -0.250367,-0.2759 -0.04054,-0.041 -0.084,-0.077 -0.126463,-0.1148 -6.11e-4,0 -0.0011,0 -0.0017,0 -0.123705,-0.1106 -0.253497,-0.2144 -0.392214,-0.3068 -0.555174,-0.3721 -1.222301,-0.5884 -1.942262,-0.5884 z M 9.8994128,1037.5 c -0.00998,0.02 -0.019837,0.038 -0.040162,0.045 0.00538,0.028 -0.033312,0.046 -0.037599,0.069 -0.00262,0.015 0.00416,0.034 0.00512,0.048 0.00875,0.14 -0.1065997,0.2054 -0.2426758,0.2016 -0.026732,0.025 -0.019698,0.074 -0.03418,0.1092 -0.01225,0.029 -0.056023,0.06 -0.08545,0.057 -0.021744,0 -0.04609,-0.032 -0.046143,-0.053 -7e-5,-0.025 0.036138,-0.038 0.014527,-0.067 0.00307,-0.02 0.046336,-0.031 0.041016,-0.062 -0.00547,-0.032 -0.050475,-0.015 -0.090577,-0.021 -0.022577,0 -0.04894,-0.015 -0.072631,-0.027 0.1830462,-0.1204 0.3807785,-0.2202 0.5887451,-0.3 z m 2.3652332,0.329 c -0.0119,0 -0.0236,0 -0.03332,0.014 -0.02223,0.014 -0.02982,0.035 -0.047,0.041 -0.02372,0.014 -0.04008,0 -0.04358,0.024 -0.0027,0.018 0.01509,0.027 0.01452,0.043 -0.0087,0.021 -0.03331,0.027 -0.0376,0.053 0.02953,0.048 0.100843,0 0.137579,0 0.01653,0 0.03976,0 0.04871,-0.017 0.01022,-0.015 0.0014,-0.042 0.0094,-0.064 0.0085,-0.024 0.03195,-0.028 0.02905,-0.049 -0.0027,-0.022 -0.04197,-0.036 -0.07776,-0.034 z m -3.2111803,0.3401 c 0.026512,0 0.096653,0.084 0.038453,0.1078 -0.00552,0 -0.085327,0.014 -0.099121,0.014 -0.020169,0 -0.03256,-0.031 -0.052978,-0.035 -0.040337,-0.014 -0.094537,0.048 -0.122193,0 0.00704,-0.025 0.035829,-0.027 0.06665,-0.035 0.054731,-0.015 0.1218347,-0.062 0.1691894,-0.049 z m 0.1110839,0.1411 c 0.013692,0 0.030487,0.015 0.046997,0.017 0.015619,0 0.028016,-0.014 0.037597,0 0.024412,0 0.034975,0.043 0.011956,0.062 -0.019075,0 -0.026578,-0.014 -0.041016,0 -0.039682,0.014 -0.054949,0.085 -0.084594,0.083 -0.027957,0 -0.04292,-0.07 -0.014527,-0.091 8.75e-4,-0.018 -0.01288,-0.021 -0.011956,-0.039 0.00857,-0.014 0.032263,-0.021 0.055543,-0.02 z m -0.1315913,0.014 c 0.00809,3e-4 0.014926,0 0.017944,0 -0.00393,0.031 -0.028973,0.029 -0.052978,0.043 -0.041519,0.025 -0.065406,0.063 -0.078613,0.1176 -0.00393,0.015 -0.044329,0.056 -0.064087,0.052 -0.046345,-0.014 0.01253,-0.095 0.023071,-0.1078 0.011634,-0.014 0.027234,-0.027 0.041016,-0.043 0.013342,-0.017 0.022172,-0.038 0.035034,-0.048 0.014132,-0.014 0.05421,-0.021 0.078614,-0.021 z m 4.1588137,0.018 8.75e-4,0 c 0.02082,0 0.01921,0.024 0.03503,0.035 0.01162,0.014 0.02708,0 0.04017,0.014 0.01536,0.014 0.02369,0.035 0.04102,0.049 0.0245,0.021 0.06804,0.036 0.102537,0.052 0.0069,0 0.01506,0.014 0.02307,0.014 0.02212,0.029 0.04472,0.057 0.0658,0.087 -4.81e-4,0 -0.0014,0.014 -8.75e-4,0.014 0.0027,0.018 0.01476,0.035 0.02307,0.048 0.02258,0.031 0.05461,0.059 0.07946,0.097 -3.08e-4,0.036 0.01484,0.056 0.04017,0.067 0.04705,0.081 0.09017,0.163 0.129879,0.2478 -0.01302,0 -0.02642,0 -0.0393,0 -0.02874,-0.05 -0.173824,-0.055 -0.18628,0.021 -0.0056,0.032 0.01644,0.078 -0.03247,0.084 -0.03107,0 -0.06255,-0.032 -0.105099,-0.041 -0.01746,0 -0.04197,0 -0.05554,0 -0.03185,-0.014 -0.02815,-0.041 -0.05554,-0.06 -0.01593,-0.014 -0.05688,-0.027 -0.08203,-0.029 -0.01567,0 -0.03048,0 -0.047,0 -0.01964,0 -0.0475,-0.015 -0.06409,-0.025 -0.01583,-0.014 -0.04811,-0.025 -0.05212,-0.039 -0.0062,-0.021 0.03948,-0.046 0.04102,-0.064 8.75e-4,-0.014 -0.01709,-0.022 -0.02051,-0.043 -0.0022,-0.014 0.0053,-0.027 0.0025,-0.035 -0.0043,-0.015 -0.02944,-0.032 -0.05298,-0.032 -0.02082,-3e-4 -0.04029,0.018 -0.0581,0.018 -0.02568,4e-4 -0.06733,-0.014 -0.09912,-0.014 -0.01947,0 -0.03742,0.014 -0.05554,0.014 -0.0509,0 -0.0922,0 -0.131587,0 -0.0287,0 -0.0784,0.014 -0.105099,0.022 -0.01358,0 -0.02356,0.021 -0.04102,0.029 -0.0078,0 -0.01859,0 -0.02905,0.014 -0.01658,0.014 -0.03378,0.025 -0.04956,0.029 -0.02283,0 -0.05782,0 -0.09912,0 -0.02967,0 -0.07907,0 -0.07946,-0.035 -4.37e-4,-0.055 0.0925,-0.034 0.143554,-0.043 0.01925,0 0.02916,-0.021 0.05212,-0.035 0.01092,0 0.02471,-0.014 0.03503,-0.014 0.01772,-0.014 0.04442,-0.042 0.047,-0.056 0.0027,-0.014 -0.0076,-0.032 -0.006,-0.041 0.0022,-0.014 0.01659,-0.025 0.03247,-0.041 0.02463,-0.024 0.05095,-0.057 0.08117,-0.073 0.02065,-0.014 0.04948,-0.014 0.05895,-0.027 0.0022,-0.018 -0.0031,-0.029 -0.0025,-0.048 0.01274,-0.014 0.02099,-0.021 0.03161,-0.024 0.0315,0 0.06247,0.022 0.09912,0.021 0.01583,0 0.02999,-0.014 0.047,-0.024 0.01431,-0.014 0.02958,-0.017 0.04358,-0.024 0.01544,-0.014 0.0317,-0.025 0.05042,-0.027 0.04596,0 0.06371,0.048 0.08459,0.076 0.0175,0.024 0.06702,0.063 0.0957,0.078 0.01614,0.014 0.03777,0.014 0.05554,0.018 0.03793,0.017 0.113289,0.074 0.114507,0.1106 8.75e-4,0.018 -0.01742,0.032 -0.01452,0.049 0.0287,0 0.06,-0.027 0.06066,-0.056 2.68e-4,-0.018 -0.01798,-0.028 -0.01452,-0.048 0.01344,-0.029 0.05277,0 0.07007,-0.014 -0.0031,-0.032 -0.04816,-0.036 -0.07605,-0.053 -0.01505,-0.014 -0.02454,-0.028 -0.04017,-0.035 -0.02262,-0.014 -0.04734,-0.014 -0.06495,-0.021 -0.01653,-0.014 -0.02388,-0.041 -0.04017,-0.06 -0.02372,-0.028 -0.07576,-0.034 -0.06152,-0.097 0.007,-0.014 0.02316,-0.024 0.03417,-0.021 z m -3.8127444,0.088 c 0.014787,3e-4 0.028055,0 0.03418,0.014 -0.00949,0.039 -0.092654,0.029 -0.1230471,0.015 0.00175,-0.014 0.024505,-0.018 0.04358,-0.021 0.013524,0 0.030418,0 0.045288,0 z m 3.6170644,0.07 c -0.01894,0 -0.02883,0.048 0,0.052 0.01344,-0.014 0.02384,-0.02 0.02051,-0.043 -0.0074,-0.014 -0.01425,-0.014 -0.02051,-0.014 z m -3.8067617,0 c 0.00997,-3e-4 0.020393,4e-4 0.030761,0 -0.02695,0.022 -0.05637,0.035 -0.1025396,0.049 -0.022225,0 -0.060334,0.017 -0.064087,-0.014 -0.00482,-0.031 0.032687,-0.024 0.052978,-0.027 0.02555,0 0.052965,-0.018 0.082886,-0.018 z m 3.7990717,0.081 c -0.0094,0 -0.01989,0.014 -0.0299,0.02 4.38e-4,0.034 0.0039,0.053 -0.0025,0.083 0.01882,0.036 0.06047,0 0.07007,-0.021 0.01134,-0.06 -0.0095,-0.088 -0.0376,-0.081 z m 0.248657,0.1614 c -0.02566,0 -0.04992,3e-4 -0.06495,0.014 0.02139,0.035 0.06579,0.048 0.113653,0.056 0.01728,-0.014 0.01862,-0.042 0.02649,-0.064 -0.02072,3e-4 -0.04861,0 -0.07434,0 l -8.75e-4,0 z m -5.1824941,1.1861 c 0.071619,0 0.1028112,0.091 0.1606445,0.119 0.014482,0.014 0.033408,0.014 0.052124,0.014 0.015182,0 0.026491,0.014 0.041016,0.014 0.030887,0.014 0.069288,0.014 0.093994,0.021 0.03723,0.017 0.063682,0.087 0.095703,0.105 0.00175,0.018 -0.00312,0.043 0.00256,0.059 0.015137,0.021 0.036599,0.017 0.061524,0.029 0.029794,0.017 0.039261,0.057 0.067504,0.07 0.00962,0 0.034173,0 0.04956,0.014 0.038719,0.014 0.051389,0.057 0.084594,0.048 0.021787,0 0.019616,-0.029 0.023071,-0.049 0.014394,-0.015 0.030544,-0.041 0.052978,-0.041 0.036312,0 0.039727,0.036 0.052978,0.073 0.00739,0.02 0.026498,0.038 0.031617,0.059 0.00897,0.036 0.00487,0.1449 -0.00256,0.1666 -0.00918,0.027 -0.045302,0.038 -0.067504,0.067 -0.010416,0.014 -0.015109,0.034 -0.023071,0.043 -0.014219,0.018 -0.036344,0.022 -0.046997,0.039 -0.00608,0.014 -0.011312,0.029 -0.01709,0.041 -0.017587,0.038 -0.041233,0.063 -0.02649,0.1078 0.00603,0.018 0.034947,0.031 0.035034,0.052 5.7e-5,0.025 -0.053906,0.048 -0.058106,0.076 -0.00307,0.021 0.016552,0.059 0.023071,0.085 0.00482,0.021 0.043503,0.032 0.055543,0.046 0.020475,0.024 0.036808,0.056 0.055543,0.085 0.037012,0.057 0.066481,0.126 0.1025382,0.1812 0.018944,0.029 0.045401,0.055 0.058106,0.084 0.00643,0.015 0.00588,0.034 0.01197,0.048 0.020869,0.048 0.1130664,0.097 0.1606445,0.1204 0.022269,0.014 0.046214,0.015 0.06665,0.027 0.030932,0.017 0.092889,0.063 0.1085206,0.091 0.014,0.024 0.022228,0.084 0.029053,0.1218 0.00902,0.052 3.76e-4,0.091 0.00256,0.1462 0.00175,0.031 0.011564,0.06 0.01197,0.091 1.355e-4,0.014 -0.00559,0.02 -0.00598,0.029 -8.75e-4,0.036 0.00913,0.077 0.00598,0.1134 -0.00175,0.02 -0.00748,0.036 -0.00598,0.053 0.00175,0.018 0.010556,0.032 0.011956,0.049 8.75e-4,0.017 -0.00517,0.039 -0.00342,0.053 0.00393,0.036 0.031189,0.066 0.038453,0.099 0.00578,0.027 0.00944,0.083 0.00598,0.1148 -0.00218,0.017 -0.011942,0.034 -0.014526,0.052 -0.00175,0.014 0.00218,0.029 0,0.043 -0.00263,0.021 -0.015752,0.036 -0.014527,0.056 0.00263,0.039 0.045955,0.071 0.052124,0.1106 0.00218,0.014 -0.003,0.028 -0.00256,0.041 4.323e-4,0.014 0.00508,0.022 0.00854,0.034 -0.9221098,-0.5257 -1.5423595,-1.5162 -1.5423595,-2.6584 0,-0.1372 0.011802,-0.2703 0.029053,-0.4023 0.027694,0 0.057485,-0.029 0.088013,-0.029 z m 1.1885984,0.3307 c 0.028044,-0.014 0.03502,0.041 0.011956,0.045 -0.021832,0 -0.033138,-0.035 -0.011956,-0.045 z m 3.0693357,1.4153 0,0.4375 0,0.4375 0,0.4375 0,0.4375 0.437499,0 0.437501,0 0,0.4375 1.3125,0 0,-0.875 -1.3125,0 -0.437501,0 0,-0.4375 0.437501,0 1.3125,0 0,-0.875 -1.3125,0 0,0.4375 -0.437501,0 0,-0.4375 -0.437499,0 z"
       id="rect4148" />
  </g>
</svg>
