<?xml version="1.0" encoding="UTF-8" standalone="no"?>
<!-- Created with Inkscape (http://www.inkscape.org/) -->

<svg
   xmlns:dc="http://purl.org/dc/elements/1.1/"
   xmlns:cc="http://creativecommons.org/ns#"
   xmlns:rdf="http://www.w3.org/1999/02/22-rdf-syntax-ns#"
   xmlns:svg="http://www.w3.org/2000/svg"
   xmlns="http://www.w3.org/2000/svg"
   xmlns:sodipodi="http://sodipodi.sourceforge.net/DTD/sodipodi-0.dtd"
   xmlns:inkscape="http://www.inkscape.org/namespaces/inkscape"
   width="48"
   height="48"
   id="svg2"
   version="1.1"
   inkscape:version="0.91 r13725"
   sodipodi:docname="abiword.svg"
   inkscape:export-filename="/home/uri/workspace/NitruxforAndroid/res/drawable-xhdpi/downloads.png"
   inkscape:export-xdpi="180"
   inkscape:export-ydpi="180">
  <defs
     id="defs4">
    <clipPath
       id="clipPath-183935099">
      <g
         transform="translate(0,-1004.3622)"
         id="g17">
        <path
           style="fill:#1890d0"
           inkscape:connector-curvature="0"
           d="m -24,13 c 0,1.105 -0.672,2 -1.5,2 -0.828,0 -1.5,-0.895 -1.5,-2 0,-1.105 0.672,-2 1.5,-2 0.828,0 1.5,0.895 1.5,2 z"
           transform="matrix(15.333333,0,0,11.5,414.99999,878.8622)"
           id="path19" />
      </g>
    </clipPath>
    <clipPath
       id="clipPath-172451806">
      <g
         transform="translate(0,-1004.3622)"
         id="g12">
        <path
           style="fill:#1890d0"
           inkscape:connector-curvature="0"
           d="m -24,13 c 0,1.105 -0.672,2 -1.5,2 -0.828,0 -1.5,-0.895 -1.5,-2 0,-1.105 0.672,-2 1.5,-2 0.828,0 1.5,0.895 1.5,2 z"
           transform="matrix(15.333333,0,0,11.5,414.99999,878.8622)"
           id="path14" />
      </g>
    </clipPath>
    <linearGradient
       id="linearGradient3764"
       x1="1"
       x2="47"
       gradientUnits="userSpaceOnUse"
       gradientTransform="matrix(0,-1,1,0,-1.5e-6,47.999998)">
      <stop
         stop-color="#97b2d3"
         stop-opacity="1"
         id="stop7" />
      <stop
         offset="1"
         stop-color="#a5bcd9"
         stop-opacity="1"
         id="stop9" />
    </linearGradient>
  </defs>
  <sodipodi:namedview
     id="base"
     pagecolor="#ffffff"
     bordercolor="#666666"
     borderopacity="1.0"
     inkscape:pageopacity="0.0"
     inkscape:pageshadow="2"
     inkscape:zoom="4.47369"
     inkscape:cx="-29.200472"
     inkscape:cy="7.1088634"
     inkscape:document-units="px"
     inkscape:current-layer="layer1"
     showgrid="false"
     inkscape:window-width="1920"
     inkscape:window-height="992"
     inkscape:window-x="-4"
     inkscape:window-y="26"
     inkscape:window-maximized="1"
     showguides="true">
    <inkscape:grid
       type="xygrid"
       id="grid3850" />
    <sodipodi:guide
       position="4,44.000017"
       orientation="40,0"
       id="guide4110" />
    <sodipodi:guide
       position="4,4.0000174"
       orientation="0,40"
       id="guide4112" />
    <sodipodi:guide
       position="44,4.0000174"
       orientation="-40,0"
       id="guide4114" />
    <sodipodi:guide
       position="44,44.000017"
       orientation="0,-40"
       id="guide4116" />
    <sodipodi:guide
       position="8.999999,39.000017"
       orientation="30,0"
       id="guide4124" />
    <sodipodi:guide
       position="8.999999,9.0000174"
       orientation="0,30.000001"
       id="guide4126" />
    <sodipodi:guide
       position="39,9.0000174"
       orientation="-30,0"
       id="guide4128" />
    <sodipodi:guide
       position="39,39.000017"
       orientation="0,-30.000001"
       id="guide4130" />
    <sodipodi:guide
       position="14.999999,33.000017"
       orientation="18,0"
       id="guide4134" />
    <sodipodi:guide
       position="14.999999,15.000017"
       orientation="0,18.000001"
       id="guide4136" />
    <sodipodi:guide
       position="33,15.000017"
       orientation="-18,0"
       id="guide4138" />
    <sodipodi:guide
       position="33,33.000017"
       orientation="0,-18.000001"
       id="guide4140" />
  </sodipodi:namedview>
  <metadata
     id="metadata7">
    <rdf:RDF>
      <cc:Work
         rdf:about="">
        <dc:format>image/svg+xml</dc:format>
        <dc:type
           rdf:resource="http://purl.org/dc/dcmitype/StillImage" />
        <dc:title />
      </cc:Work>
    </rdf:RDF>
  </metadata>
  <g
     inkscape:label="Capa 1"
     inkscape:groupmode="layer"
     id="layer1"
     transform="translate(0,-1004.3622)">
    <rect
       style="opacity:1;fill:#1da2f6;fill-opacity:1;stroke:none"
       id="rect4130"
       width="40"
       height="40"
       x="4"
       y="1008.3622"
       ry="19.999989" />
    <path
       style="fill-opacity:0.23500001;fill-rule:evenodd"
       inkscape:connector-curvature="0"
       d="m 24.059911,1015.8114 c -3.9917,0.09 -12.568393,17.2131 -12.553775,23.1396 0.02759,0.4888 0.200535,0.8219 0.459541,1.0478 0.03216,0.035 0.06734,0.072 0.10278,0.1028 0.03198,0.035 0.06468,0.066 0.09995,0.097 0.03243,0.035 0.06688,0.072 0.102779,0.1028 0.03243,0.036 0.06405,0.069 0.09994,0.1 0.03243,0.035 0.06688,0.072 0.102779,0.1027 0.03216,0.035 0.06158,0.069 0.09711,0.1 0.03216,0.035 0.06734,0.069 0.10278,0.1 0.03216,0.035 0.06441,0.069 0.09994,0.1 0.03243,0.036 0.06405,0.069 0.09994,0.1 0.03243,0.035 0.06688,0.072 0.102781,0.1027 0.03243,0.035 0.06405,0.069 0.09994,0.1 0.03472,0.038 0.06988,0.075 0.108536,0.1085 0.03033,0.033 0.05811,0.065 0.09136,0.094 0.03216,0.035 0.06734,0.072 0.10278,0.1028 0.03198,0.035 0.06469,0.066 0.09994,0.097 0.03243,0.035 0.06688,0.072 0.10278,0.1027 0.03243,0.036 0.06405,0.069 0.09994,0.1 0.03472,0.038 0.0699,0.075 0.108536,0.1085 0.03033,0.033 0.05811,0.065 0.09136,0.094 0.03216,0.035 0.06733,0.072 0.102779,0.1028 0.03198,0.035 0.06469,0.066 0.09995,0.097 0.03243,0.036 0.06688,0.069 0.102779,0.1 0.03243,0.035 0.06405,0.072 0.09995,0.1028 0.03216,0.035 0.06734,0.069 0.10278,0.1 0.03216,0.035 0.06158,0.072 0.09711,0.1028 0.03216,0.035 0.06441,0.069 0.09995,0.1 0.03198,0.035 0.06752,0.069 0.102779,0.1 0.03243,0.035 0.06405,0.069 0.09995,0.1 0.03243,0.035 0.06688,0.072 0.102779,0.1028 0.03243,0.035 0.06405,0.069 0.09994,0.1 0.03317,0.036 0.06606,0.074 0.10278,0.1056 0.03152,0.034 0.06231,0.067 0.09711,0.097 0.03216,0.035 0.06734,0.069 0.102781,0.1 0.03243,0.035 0.06405,0.069 0.09994,0.1 0.03243,0.035 0.06688,0.069 0.102781,0.1 0.03243,0.035 0.06405,0.072 0.09994,0.1028 0.03472,0.038 0.0699,0.075 0.108536,0.1086 0.03033,0.033 0.05811,0.065 0.09136,0.094 0.03216,0.035 0.06441,0.069 0.09994,0.1 0.03198,0.035 0.06752,0.069 0.10278,0.1 0.03243,0.035 0.06405,0.069 0.09994,0.1 0.03243,0.035 0.06688,0.072 0.102781,0.1028 0.03472,0.038 0.06988,0.073 0.108535,0.1056 0.03033,0.033 0.05811,0.068 0.09136,0.097 0.03216,0.035 0.06441,0.069 0.09995,0.1 0.03198,0.035 0.06752,0.069 0.10278,0.1 0.03243,0.035 0.06405,0.069 0.09995,0.1 0.03243,0.035 0.06688,0.072 0.102779,0.1028 0.03243,0.035 0.06405,0.069 0.09995,0.1 0.03216,0.035 0.06441,0.069 0.09994,0.1 0.03216,0.035 0.06441,0.072 0.09994,0.1028 0.03198,0.035 0.06469,0.066 0.09994,0.097 0.03243,0.036 0.06688,0.072 0.10278,0.1028 0.03243,0.035 0.06405,0.069 0.09995,0.1 0.03243,0.035 0.06688,0.072 0.10278,0.1027 0.03472,0.038 0.06988,0.075 0.108536,0.1086 0.03033,0.033 0.05811,0.065 0.09136,0.094 0.03216,0.035 0.06441,0.069 0.09994,0.1 0.03198,0.035 0.06752,0.069 0.10278,0.1 0.03244,0.035 0.06405,0.069 0.09994,0.1 0.03243,0.035 0.06688,0.072 0.10278,0.1027 0.03472,0.038 0.06706,0.073 0.105612,0.1057 0.03033,0.033 0.06094,0.068 0.09419,0.097 0.03216,0.035 0.06441,0.069 0.09994,0.1 0.03198,0.035 0.06752,0.066 0.10278,0.097 0.03243,0.035 0.06405,0.072 0.09994,0.1027 0.03243,0.035 0.06688,0.069 0.10278,0.1 0.03216,0.035 0.06441,0.072 0.09994,0.1028 0.03216,0.035 0.06158,0.069 0.09711,0.1 0.03216,0.035 0.06734,0.072 0.10278,0.1028 0.03198,0.035 0.06469,0.066 0.09994,0.097 0.03243,0.035 0.06688,0.072 0.10278,0.1028 0.03243,0.035 0.06405,0.069 0.09994,0.1 0.03244,0.035 0.06687,0.072 0.10278,0.1028 0.03216,0.035 0.06158,0.069 0.09711,0.1 0.03216,0.035 0.06733,0.072 0.10278,0.1027 0.03216,0.035 0.06441,0.066 0.09994,0.097 0.03243,0.035 0.06688,0.069 0.10278,0.1 0.02503,0.027 0.05034,0.055 0.0771,0.08 1.320517,0.2741 2.68644,0.4226 4.088359,0.4226 9.148789,0 16.866881,-6.1458 19.245894,-14.5318 l -0.01425,-0.014 c -0.0048,0 -0.0067,-0.012 -0.01142,-0.017 -0.03344,-0.034 -0.06953,-0.064 -0.102779,-0.097 -0.0339,-0.035 -0.06615,-0.069 -0.09995,-0.1028 -0.03417,-0.035 -0.0688,-0.066 -0.102779,-0.1 -0.01188,-0.012 -0.02248,-0.028 -0.03426,-0.04 -5.48e-4,-9e-4 -0.0023,9e-4 -0.0028,0 -0.02074,-0.021 -0.0392,-0.042 -0.05994,-0.063 -0.01224,-0.013 -0.02777,-0.022 -0.04002,-0.034 -0.01526,-0.015 -0.02759,-0.031 -0.04285,-0.046 l -0.02001,-0.02 c -0.01224,-0.013 -0.02494,-0.022 -0.0371,-0.034 -0.0055,-0.01 -0.01169,-0.012 -0.01718,-0.017 -0.01115,-0.011 -0.02028,-0.023 -0.03143,-0.034 -0.0053,-0.01 -0.009,-0.012 -0.01425,-0.017 -0.03344,-0.034 -0.06953,-0.064 -0.10278,-0.097 -0.0339,-0.035 -0.06615,-0.069 -0.09994,-0.1028 -0.03417,-0.035 -0.0688,-0.066 -0.10278,-0.1 -0.01188,-0.013 -0.02248,-0.025 -0.03426,-0.037 -5.48e-4,-9e-4 -0.0023,9e-4 -0.0028,0 -0.02074,-0.021 -0.0392,-0.045 -0.05994,-0.066 -0.01224,-0.012 -0.02494,-0.022 -0.0371,-0.034 -0.01526,-0.015 -0.03042,-0.028 -0.04568,-0.043 -0.0069,-0.01 -0.01023,-0.016 -0.01718,-0.023 -0.01224,-0.013 -0.02777,-0.022 -0.04002,-0.034 -0.0055,-0.01 -0.0089,-0.012 -0.01425,-0.017 -0.01115,-0.011 -0.02028,-0.023 -0.03143,-0.034 -0.0053,-0.01 -0.01188,-0.012 -0.01718,-0.017 -0.01224,-0.013 -0.02494,-0.022 -0.03709,-0.034 -0.0066,-0.01 -0.01343,-0.011 -0.02001,-0.017 -0.0106,-0.011 -0.02083,-0.024 -0.03143,-0.034 -0.0048,0 -0.0067,-0.01 -0.01142,-0.014 -0.03362,-0.034 -0.06935,-0.064 -0.10278,-0.097 -0.03417,-0.035 -0.06588,-0.069 -0.09994,-0.1028 -0.01188,-0.012 -0.02531,-0.025 -0.0371,-0.037 -5.48e-4,-9e-4 -0.0023,9e-4 -0.0028,0 -0.02074,-0.021 -0.0392,-0.042 -0.05994,-0.063 -0.01224,-0.013 -0.02494,-0.025 -0.03709,-0.037 -0.01526,-0.015 -0.03043,-0.028 -0.04568,-0.043 -0.0069,-0.01 -0.01023,-0.016 -0.01718,-0.023 -0.01224,-0.013 -0.02778,-0.022 -0.04002,-0.034 -0.0055,-0.01 -0.0089,-0.012 -0.01425,-0.017 -0.01115,-0.011 -0.02028,-0.023 -0.03143,-0.034 -0.0053,-0.01 -0.01188,-0.01 -0.01718,-0.014 -0.01224,-0.013 -0.02494,-0.025 -0.0371,-0.037 -0.0066,-0.01 -0.01343,-0.011 -0.02001,-0.017 -0.0106,-0.011 -0.02083,-0.021 -0.03143,-0.031 -0.0048,0 -0.0067,-0.013 -0.01142,-0.017 -0.03362,-0.034 -0.06935,-0.064 -0.102779,-0.097 -0.0339,-0.035 -0.06615,-0.069 -0.09994,-0.1028 -0.01224,-0.013 -0.02202,-0.025 -0.03426,-0.037 -0.02238,-0.022 -0.04623,-0.042 -0.06852,-0.063 -0.01188,-0.013 -0.02248,-0.025 -0.03426,-0.037 -5.48e-4,0 -0.0023,9e-4 -0.0028,0 -0.02074,-0.021 -0.0392,-0.045 -0.05994,-0.066 -0.01224,-0.013 -0.02494,-0.022 -0.0371,-0.034 -0.01526,-0.015 -0.03042,-0.028 -0.04568,-0.043 -0.0069,-0.01 -0.01316,-0.016 -0.02001,-0.023 -0.01224,-0.013 -0.02494,-0.022 -0.03709,-0.034 -0.0066,-0.01 -0.0106,-0.014 -0.01718,-0.02 -0.0106,-0.011 -0.02366,-0.021 -0.03426,-0.031 -0.0048,0 -0.0067,-0.013 -0.01142,-0.017 -0.03344,-0.034 -0.0667,-0.064 -0.09994,-0.097 -0.0339,-0.035 -0.06898,-0.066 -0.10278,-0.1 -0.03417,-0.035 -0.06587,-0.069 -0.09994,-0.1028 -0.01188,-0.013 -0.02531,-0.025 -0.0371,-0.037 -5.48e-4,-9e-4 -0.0023,9e-4 -0.0028,0 -0.02074,-0.021 -0.0392,-0.042 -0.05994,-0.063 -0.01224,-0.013 -0.02494,-0.025 -0.03709,-0.037 -0.01526,-0.015 -0.03043,-0.028 -0.04568,-0.043 -0.0069,-0.01 -0.01023,-0.016 -0.01718,-0.023 -0.01224,-0.012 -0.02777,-0.022 -0.04002,-0.034 -0.0055,-0.01 -0.0089,-0.012 -0.01425,-0.017 -0.01115,-0.011 -0.02028,-0.023 -0.03143,-0.034 -0.0053,-0.01 -0.01188,-0.01 -0.01718,-0.014 -0.01224,-0.013 -0.02494,-0.025 -0.03709,-0.037 -0.0066,-0.01 -0.01343,-0.011 -0.02001,-0.017 -0.0106,-0.011 -0.02083,-0.021 -0.03143,-0.031 -0.0048,0 -0.0067,-0.012 -0.01142,-0.017 -0.03362,-0.034 -0.06935,-0.064 -0.102781,-0.097 -0.03417,-0.035 -0.06587,-0.069 -0.09994,-0.1028 -0.01188,-0.012 -0.02248,-0.025 -0.03426,-0.037 -5.48e-4,-9e-4 -0.0051,9e-4 -0.0058,0 -0.02074,-0.021 -0.0392,-0.042 -0.05994,-0.063 -0.01224,-0.012 -0.02494,-0.022 -0.03709,-0.034 -0.01526,-0.015 -0.02759,-0.031 -0.04285,-0.046 -0.0069,-0.01 -0.01316,-0.016 -0.02001,-0.023 -0.01224,-0.013 -0.02494,-0.022 -0.0371,-0.034 -0.0055,-0.01 -0.01169,-0.01 -0.01718,-0.014 -0.01115,-0.011 -0.02028,-0.026 -0.03143,-0.037 -0.0053,-0.01 -0.01188,-0.01 -0.01718,-0.014 -0.01224,-0.013 -0.02494,-0.022 -0.03709,-0.034 -0.0066,-0.01 -0.01343,-0.014 -0.02001,-0.02 -0.0106,-0.011 -0.02083,-0.021 -0.03143,-0.031 -0.0048,0 -0.0067,-0.013 -0.01142,-0.017 -0.03362,-0.034 -0.06935,-0.064 -0.102779,-0.097 -0.03417,-0.035 -0.06587,-0.069 -0.09995,-0.1028 -0.01188,-0.012 -0.02248,-0.025 -0.03426,-0.037 -5.48e-4,-9e-4 -0.0023,9e-4 -0.0028,0 -0.02074,-0.021 -0.0392,-0.042 -0.05994,-0.063 -0.01224,-0.013 -0.02778,-0.022 -0.04002,-0.034 -0.01526,-0.015 -0.02759,-0.031 -0.04285,-0.046 -0.0069,-0.01 -0.01316,-0.016 -0.02001,-0.023 -0.01224,-0.013 -0.02494,-0.022 -0.0371,-0.034 -0.0055,-0.01 -0.01169,-0.01 -0.01718,-0.014 -0.01115,-0.011 -0.02028,-0.023 -0.03143,-0.034 -0.0053,-0.01 -0.009,-0.012 -0.01425,-0.017 -0.01224,-0.013 -0.02777,-0.022 -0.04002,-0.034 -0.0066,-0.01 -0.0106,-0.014 -0.01718,-0.02 -0.0106,-0.011 -0.02083,-0.021 -0.03143,-0.031 -0.0048,0 -0.0096,-0.01 -0.01425,-0.014 -0.03344,-0.034 -0.0667,-0.067 -0.09994,-0.1 -0.0339,-0.035 -0.06898,-0.066 -0.102781,-0.1 -0.03417,-0.035 -0.06587,-0.069 -0.09994,-0.1026 -0.01188,-0.013 -0.02531,-0.025 -0.0371,-0.037 -5.48e-4,-10e-4 -0.0023,9e-4 -0.0028,0 -0.02074,-0.021 -0.0392,-0.042 -0.05994,-0.063 -0.01224,-0.012 -0.02494,-0.025 -0.0371,-0.037 -0.01526,-0.015 -0.03042,-0.028 -0.04568,-0.043 -0.0069,-0.01 -0.01023,-0.016 -0.01718,-0.023 -0.01224,-0.013 -0.02494,-0.022 -0.03709,-0.034 -0.0055,-0.01 -0.0117,-0.012 -0.01718,-0.017 -0.01115,-0.011 -0.02028,-0.023 -0.03143,-0.034 -0.0053,-0.01 -0.01188,-0.01 -0.01718,-0.014 -0.03344,-0.034 -0.0667,-0.067 -0.09995,-0.1 -0.0339,-0.035 -0.06898,-0.066 -0.102779,-0.1 -0.03417,-0.035 -0.06587,-0.069 -0.09994,-0.1027 -0.01188,-0.012 -0.02248,-0.025 -0.03426,-0.037 -5.48e-4,-9e-4 -0.0023,9e-4 -0.0028,0 -0.02074,-0.021 -0.0392,-0.042 -0.05994,-0.063 -0.01224,-0.013 -0.02778,-0.022 -0.04002,-0.034 -0.01526,-0.015 -0.02759,-0.031 -0.04285,-0.046 -0.0069,-0.01 -0.01316,-0.016 -0.02001,-0.023 -0.01224,-0.012 -0.02494,-0.022 -0.0371,-0.034 -0.0055,-0.01 -0.0117,-0.01 -0.01718,-0.014 -0.01115,-0.011 -0.02028,-0.026 -0.03143,-0.037 -0.0053,-0.01 -0.009,-0.01 -0.01425,-0.014 -0.01224,-0.013 -0.02777,-0.022 -0.04002,-0.034 -0.0066,-0.01 -0.0106,-0.014 -0.01718,-0.02 -0.0106,-0.011 -0.02083,-0.021 -0.03143,-0.031 -0.0048,0 -0.0096,-0.013 -0.01425,-0.017 -0.03362,-0.034 -0.06641,-0.064 -0.09994,-0.097 -0.03417,-0.035 -0.0688,-0.066 -0.10278,-0.1 -0.01188,-0.012 -0.02248,-0.028 -0.03426,-0.04 -5.48e-4,-9e-4 -0.0023,9e-4 -0.0028,0 -0.02074,-0.021 -0.0392,-0.042 -0.05994,-0.063 -0.01224,-0.013 -0.02777,-0.022 -0.04002,-0.034 -0.01526,-0.015 -0.02759,-0.031 -0.04285,-0.046 -0.0069,-0.01 -0.01316,-0.013 -0.02001,-0.02 -0.01224,-0.013 -0.02494,-0.025 -0.0371,-0.037 -0.0055,-0.01 -0.01169,-0.01 -0.01718,-0.014 -0.01115,-0.011 -0.02028,-0.023 -0.03143,-0.034 -0.0053,-0.01 -0.009,-0.012 -0.01425,-0.017 -0.01224,-0.013 -0.02777,-0.022 -0.04002,-0.034 -0.0066,-0.01 -0.0106,-0.014 -0.01718,-0.02 -0.0106,-0.011 -0.02083,-0.021 -0.03143,-0.031 -0.0048,0 -0.0096,-0.01 -0.01425,-0.014 -0.03362,-0.034 -0.06642,-0.066 -0.09994,-0.1 -0.0339,-0.035 -0.06897,-0.066 -0.10278,-0.1 -0.01224,-0.013 -0.02202,-0.025 -0.03426,-0.037 -0.02238,-0.022 -0.04331,-0.044 -0.06569,-0.066 -0.01188,-0.012 -0.02248,-0.025 -0.03426,-0.037 -5.48e-4,-9e-4 -0.0023,0 -0.0028,0 -0.02074,-0.021 -0.04212,-0.042 -0.06286,-0.063 -0.01224,-0.013 -0.02494,-0.022 -0.0371,-0.034 -0.01526,-0.015 -0.02759,-0.031 -0.04285,-0.046 -0.0069,-0.01 -0.01316,-0.016 -0.02001,-0.023 -0.01224,-0.012 -0.02494,-0.022 -0.03709,-0.034 -0.0066,-0.01 -0.01343,-0.011 -0.02001,-0.017 -0.0106,-0.011 -0.02083,-0.024 -0.03143,-0.034 -0.0048,0 -0.0067,-0.01 -0.01142,-0.014 -0.03344,-0.034 -0.06953,-0.064 -0.102779,-0.097 -0.0339,-0.035 -0.06615,-0.069 -0.09994,-0.1028 -0.03417,-0.035 -0.0688,-0.066 -0.102779,-0.1 -0.01188,-0.012 -0.02248,-0.028 -0.03426,-0.04 -5.48e-4,-10e-4 -0.0023,9e-4 -0.0028,0 -0.02074,-0.021 -0.0392,-0.042 -0.05994,-0.063 -0.01224,-0.012 -0.02777,-0.022 -0.04002,-0.034 -0.01526,-0.015 -0.02759,-0.031 -0.04285,-0.046 -0.0069,-0.01 -0.01316,-0.013 -0.02001,-0.02 -0.01224,-0.013 -0.02494,-0.025 -0.0371,-0.037 -0.0055,-0.01 -0.0117,-0.01 -0.01718,-0.014 -0.01115,-0.011 -0.02028,-0.023 -0.03143,-0.034 -0.0053,-0.01 -0.009,-0.012 -0.01425,-0.017 -0.01224,-0.013 -0.02778,-0.022 -0.04002,-0.034 -0.0066,-0.01 -0.0106,-0.014 -0.01718,-0.02 -0.0106,-0.011 -0.02083,-0.021 -0.03143,-0.031 -0.0048,0 -0.0096,-0.01 -0.01425,-0.014 -0.03362,-0.034 -0.06642,-0.066 -0.09995,-0.1 -0.03417,-0.035 -0.0688,-0.066 -0.102779,-0.1 -0.01188,-0.012 -0.02248,-0.028 -0.03426,-0.04 -5.48e-4,-9e-4 -0.0023,9e-4 -0.0028,0 -0.02074,-0.021 -0.0392,-0.042 -0.05994,-0.063 -0.01224,-0.013 -0.02494,-0.022 -0.0371,-0.034 -0.01526,-0.015 -0.03042,-0.028 -0.04568,-0.043 -0.0069,-0.01 -0.01316,-0.016 -0.02001,-0.023 -0.01224,-0.013 -0.02494,-0.022 -0.03709,-0.034 -0.0055,-0.01 -0.0089,-0.012 -0.01425,-0.017 -0.01115,-0.011 -0.02312,-0.023 -0.03426,-0.034 -0.0053,-0.01 -0.009,-0.012 -0.01425,-0.017 -0.01224,-0.013 -0.02494,-0.022 -0.03709,-0.034 -0.0066,-0.01 -0.01343,-0.014 -0.02001,-0.02 -0.0106,-0.011 -0.02083,-0.021 -0.03143,-0.031 -0.0048,0 -0.0096,-0.01 -0.01425,-0.014 -0.03362,-0.034 -0.06641,-0.066 -0.09995,-0.1 -0.03417,-0.035 -0.0688,-0.066 -0.102779,-0.1 -0.01188,-0.012 -0.02248,-0.025 -0.03426,-0.037 -5.48e-4,-9e-4 -0.0023,9e-4 -0.0028,0 -0.02074,-0.021 -0.0392,-0.045 -0.05994,-0.066 -0.01224,-0.012 -0.02494,-0.022 -0.03709,-0.034 -0.01526,-0.015 -0.03042,-0.028 -0.04568,-0.043 -0.0069,-0.01 -0.01023,-0.016 -0.01718,-0.023 -0.01224,-0.013 -0.02777,-0.022 -0.04002,-0.034 -0.0055,-0.01 -0.0089,-0.012 -0.01425,-0.017 -0.01115,-0.011 -0.02028,-0.023 -0.03143,-0.034 -0.0053,-0.01 -0.01188,-0.01 -0.01718,-0.014 -0.01224,-0.013 -0.02494,-0.025 -0.0371,-0.037 -0.0066,-0.01 -0.01343,-0.011 -0.02001,-0.017 -0.0106,-0.011 -0.02083,-0.021 -0.03143,-0.032 -0.0048,0 -0.0067,-0.013 -0.01142,-0.017 -0.03362,-0.034 -0.06935,-0.063 -0.102779,-0.097 -0.0339,-0.035 -0.06615,-0.069 -0.09994,-0.1028 -0.01224,-0.013 -0.02485,-0.025 -0.03709,-0.037 -0.02238,-0.022 -0.04331,-0.042 -0.06569,-0.063 -0.01188,-0.012 -0.02248,-0.028 -0.03426,-0.04 -5.49e-4,-9e-4 -0.0023,9e-4 -0.0028,0 -0.02074,-0.021 -0.0392,-0.042 -0.05994,-0.063 -0.01224,-0.013 -0.02494,-0.022 -0.03709,-0.034 -0.01526,-0.015 -0.03043,-0.031 -0.04568,-0.046 -0.0069,-0.01 -0.01316,-0.013 -0.02001,-0.02 -0.01224,-0.013 -0.02494,-0.022 -0.0371,-0.034 -0.0055,-0.01 -0.0089,-0.012 -0.01425,-0.017 -0.01115,-0.011 -0.02312,-0.023 -0.03426,-0.034 -0.0053,-0.01 -0.009,-0.012 -0.01425,-0.017 -0.03344,-0.034 -0.06953,-0.064 -0.10278,-0.097 -0.0339,-0.035 -0.06615,-0.069 -0.09994,-0.1028 -0.03417,-0.035 -0.0688,-0.066 -0.10278,-0.1 -0.01188,-0.012 -0.02248,-0.025 -0.03426,-0.037 -5.48e-4,-9e-4 -0.0023,9e-4 -0.0028,0 -0.02074,-0.021 -0.0392,-0.045 -0.05994,-0.066 -0.01224,-0.013 -0.02494,-0.022 -0.03709,-0.034 -0.01526,-0.015 -0.03043,-0.028 -0.04568,-0.043 -0.0069,-0.01 -0.01023,-0.016 -0.01718,-0.023 -0.01224,-0.013 -0.02777,-0.022 -0.04002,-0.034 -0.0055,-0.01 -0.0089,-0.012 -0.01425,-0.017 -0.01115,-0.011 -0.02028,-0.023 -0.03143,-0.034 -0.0053,-0.01 -0.01188,-0.012 -0.01718,-0.017 -0.01224,-0.013 -0.02494,-0.022 -0.0371,-0.034 -0.0066,-0.01 -0.01343,-0.011 -0.02001,-0.017 -0.0106,-0.011 -0.02083,-0.021 -0.03143,-0.031 -0.0048,0 -0.0067,-0.013 -0.01142,-0.017 -0.03362,-0.034 -0.06935,-0.063 -0.102781,-0.097 -0.03417,-0.035 -0.06587,-0.069 -0.09994,-0.1028 -0.01188,-0.012 -0.02531,-0.025 -0.0371,-0.037 -5.48e-4,-9e-4 -0.0023,0 -0.0028,0 -0.02074,-0.021 -0.0392,-0.042 -0.05994,-0.063 -0.01224,-0.013 -0.02494,-0.025 -0.0371,-0.037 -0.01526,-0.015 -0.03043,-0.028 -0.04568,-0.043 -0.0069,-0.01 -0.01023,-0.016 -0.01718,-0.023 -0.01224,-0.013 -0.02777,-0.022 -0.04002,-0.034 -0.0055,-0.01 -0.0089,-0.012 -0.01425,-0.017 -0.01115,-0.011 -0.02028,-0.023 -0.03143,-0.034 -0.0053,-0.01 -0.01188,-0.01 -0.01718,-0.014 -0.01224,-0.013 -0.02494,-0.025 -0.03709,-0.037 -0.0066,-0.01 -0.01343,-0.011 -0.02001,-0.017 -0.0106,-0.011 -0.02083,-0.021 -0.03143,-0.032 -0.0048,0 -0.0067,-0.013 -0.01142,-0.017 -0.03362,-0.034 -0.06934,-0.064 -0.10278,-0.097 -0.0339,-0.035 -0.06615,-0.069 -0.09994,-0.1027 -0.01224,-0.013 -0.02202,-0.025 -0.03426,-0.037 -0.02238,-0.022 -0.04623,-0.042 -0.06853,-0.063 -0.01188,-0.012 -0.02248,-0.025 -0.03426,-0.037 -5.48e-4,-9e-4 -0.0023,9e-4 -0.0028,0 -0.02074,-0.021 -0.0392,-0.045 -0.05994,-0.066 -0.01224,-0.013 -0.02494,-0.022 -0.0371,-0.034 -0.01526,-0.015 -0.03043,-0.028 -0.04568,-0.043 -0.0069,-0.01 -0.01023,-0.016 -0.01718,-0.023 -0.01224,-0.013 -0.02778,-0.022 -0.04002,-0.034 -0.0066,-0.01 -0.0106,-0.014 -0.01718,-0.02 -0.0106,-0.011 -0.02366,-0.021 -0.03426,-0.031 -0.0048,0 -0.0067,-0.013 -0.01142,-0.017 -0.03344,-0.034 -0.0667,-0.064 -0.09995,-0.097 -0.0339,-0.035 -0.06898,-0.066 -0.102779,-0.1 -0.03417,-0.035 -0.06587,-0.069 -0.09994,-0.1028 -0.01188,-0.012 -0.02531,-0.025 -0.03709,-0.037 -5.49e-4,-9e-4 -0.0023,9e-4 -0.0028,0 -0.02074,-0.021 -0.0392,-0.042 -0.05994,-0.063 -0.01224,-0.013 -0.02494,-0.025 -0.03709,-0.037 -0.01526,-0.015 -0.03043,-0.028 -0.04568,-0.043 -0.0069,-0.01 -0.01023,-0.016 -0.01718,-0.023 -0.01224,-0.013 -0.02777,-0.022 -0.04002,-0.034 -0.0055,-0.01 -0.0089,-0.012 -0.01425,-0.017 -0.01115,-0.011 -0.02028,-0.023 -0.03143,-0.034 -0.0053,-0.01 -0.01188,-0.01 -0.01718,-0.014 -0.01224,-0.013 -0.02494,-0.025 -0.0371,-0.037 -0.0066,-0.01 -0.01343,-0.011 -0.02001,-0.017 -0.0106,-0.011 -0.02083,-0.021 -0.03143,-0.032 -0.0048,0 -0.0067,-0.013 -0.01142,-0.017 -0.03362,-0.034 -0.06934,-0.063 -0.10278,-0.097 -0.03417,-0.035 -0.06587,-0.069 -0.09994,-0.1028 -0.01188,-0.012 -0.02248,-0.025 -0.03426,-0.037 -5.48e-4,-9e-4 -0.0051,10e-4 -0.0058,0 -0.02074,-0.021 -0.0392,-0.042 -0.05994,-0.063 -0.01224,-0.013 -0.02494,-0.022 -0.03709,-0.034 -0.01526,-0.015 -0.02759,-0.031 -0.04285,-0.046 -0.0069,-0.01 -0.01316,-0.016 -0.02001,-0.023 -0.01224,-0.013 -0.02494,-0.022 -0.0371,-0.034 -0.0055,-0.01 -0.01169,-0.01 -0.01718,-0.014 -0.01115,-0.011 -0.02028,-0.026 -0.03143,-0.037 -0.0053,-0.01 -0.01188,-0.01 -0.01718,-0.014 -0.01224,-0.013 -0.02494,-0.022 -0.0371,-0.034 -0.0066,-0.01 -0.01343,-0.014 -0.02001,-0.02 -0.0106,-0.011 -0.02083,-0.021 -0.03143,-0.031 -0.0048,0 -0.0067,-0.013 -0.01142,-0.017 -0.03362,-0.034 -0.06935,-0.064 -0.102781,-0.097 -0.03417,-0.035 -0.06586,-0.069 -0.09994,-0.1028 -0.01188,-0.012 -0.02248,-0.025 -0.03426,-0.037 -5.48e-4,-10e-4 -0.0023,9e-4 -0.0028,0 -0.02074,-0.021 -0.0392,-0.042 -0.05994,-0.063 -0.01224,-0.013 -0.02777,-0.022 -0.04002,-0.034 -0.01526,-0.015 -0.02759,-0.031 -0.04285,-0.046 -0.0069,-0.01 -0.01316,-0.013 -0.02001,-0.02 -0.01224,-0.013 -0.02494,-0.025 -0.0371,-0.037 -0.0055,-0.01 -0.01169,-0.01 -0.01718,-0.014 -0.01115,-0.011 -0.02028,-0.023 -0.03143,-0.034 -0.0053,-0.01 -0.009,-0.012 -0.01425,-0.017 -0.01224,-0.013 -0.02778,-0.022 -0.04002,-0.034 -0.0066,-0.01 -0.0106,-0.014 -0.01718,-0.02 -0.0106,-0.011 -0.02083,-0.021 -0.03143,-0.031 -0.0048,0 -0.0096,-0.01 -0.01425,-0.014 -0.03362,-0.034 -0.06642,-0.066 -0.09995,-0.1 -0.0339,-0.035 -0.06898,-0.066 -0.102779,-0.1 -0.01224,-0.013 -0.02202,-0.028 -0.03426,-0.04 -0.02238,-0.022 -0.04331,-0.042 -0.06569,-0.063 -0.01188,-0.012 -0.02248,-0.025 -0.03426,-0.037 -5.48e-4,-9e-4 -0.0051,9e-4 -0.0058,0 -0.02074,-0.021 -0.0392,-0.042 -0.05994,-0.063 -0.01224,-0.013 -0.02494,-0.022 -0.03709,-0.034 -0.01526,-0.015 -0.02759,-0.031 -0.04285,-0.046 -0.0069,-0.01 -0.01316,-0.016 -0.02001,-0.023 -0.01224,-0.012 -0.02494,-0.022 -0.03709,-0.034 -0.0055,-0.01 -0.0117,-0.01 -0.01718,-0.014 -0.01115,-0.011 -0.02028,-0.026 -0.03143,-0.037 -0.0053,-0.01 -0.01188,-0.01 -0.01718,-0.014 -0.03344,-0.034 -0.0667,-0.067 -0.09995,-0.1 -0.0339,-0.035 -0.06898,-0.066 -0.10278,-0.1 -0.03417,-0.035 -0.06587,-0.069 -0.09994,-0.1028 -0.01188,-0.012 -0.02248,-0.025 -0.03426,-0.037 -5.48e-4,-9e-4 -0.0023,9e-4 -0.0028,0 -0.02074,-0.021 -0.0392,-0.042 -0.05994,-0.063 -0.01224,-0.013 -0.02777,-0.022 -0.04002,-0.034 -0.01526,-0.015 -0.02759,-0.031 -0.04285,-0.046 -0.0069,-0.01 -0.01316,-0.016 -0.02001,-0.023 -0.01224,-0.013 -0.02494,-0.022 -0.0371,-0.034 -0.0055,-0.01 -0.0117,-0.01 -0.01718,-0.014 -0.01115,-0.011 -0.02028,-0.023 -0.03143,-0.034 -0.0053,-0.01 -0.009,-0.012 -0.01425,-0.017 -0.01224,-0.013 -0.02777,-0.022 -0.04002,-0.034 -0.0066,-0.01 -0.0106,-0.014 -0.01718,-0.02 -0.0106,-0.011 -0.02083,-0.021 -0.03143,-0.031 -0.0048,0 -0.0096,-0.013 -0.01425,-0.017 -0.03362,-0.034 -0.06642,-0.064 -0.09994,-0.097 -0.03417,-0.035 -0.0688,-0.066 -0.102781,-0.1 -0.01188,-0.013 -0.02248,-0.028 -0.03426,-0.04 -5.48e-4,-9e-4 -0.0023,10e-4 -0.0028,0 -0.02074,-0.021 -0.0392,-0.042 -0.05994,-0.063 -0.01224,-0.013 -0.02777,-0.022 -0.04002,-0.034 -0.01526,-0.015 -0.02759,-0.031 -0.04285,-0.046 -0.0069,-0.01 -0.01316,-0.013 -0.02001,-0.02 -0.01224,-0.013 -0.02494,-0.025 -0.0371,-0.037 -0.0055,-0.01 -0.01169,-0.01 -0.01718,-0.014 -0.01115,-0.011 -0.02028,-0.023 -0.03143,-0.034 -0.0053,-0.01 -0.009,-0.012 -0.01425,-0.017 -0.01224,-0.013 -0.02494,-0.022 -0.0371,-0.034 -0.0066,-0.01 -0.01343,-0.014 -0.02001,-0.02 -0.0106,-0.011 -0.02083,-0.021 -0.03143,-0.031 -0.0048,0 -0.0096,-0.01 -0.01425,-0.014 -0.03362,-0.034 -0.06641,-0.066 -0.09994,-0.1 -0.03417,-0.035 -0.0688,-0.066 -0.10278,-0.1 -0.01224,-0.013 -0.02202,-0.025 -0.03426,-0.037 -0.02238,-0.022 -0.04331,-0.044 -0.06569,-0.066 -0.01133,-0.012 -0.02293,-0.023 -0.03426,-0.034 -0.0011,0 -0.0017,0 -0.0028,0 -0.02074,-0.021 -0.0392,-0.042 -0.05994,-0.063 -0.01224,-0.012 -0.02778,-0.022 -0.04002,-0.034 -0.01526,-0.015 -0.02759,-0.031 -0.04285,-0.046 -0.0069,-0.01 -0.01316,-0.016 -0.02001,-0.023 -0.01224,-0.013 -0.02494,-0.022 -0.0371,-0.034 -0.0066,-0.01 -0.01343,-0.011 -0.02001,-0.017 -0.0106,-0.011 -0.02083,-0.024 -0.03143,-0.034 -0.0048,0 -0.0067,-0.01 -0.01142,-0.014 -0.03344,-0.034 -0.06953,-0.064 -0.102781,-0.097 -0.0339,-0.035 -0.06615,-0.069 -0.09994,-0.1028 -0.03417,-0.035 -0.0688,-0.066 -0.102781,-0.1 -0.01188,-0.012 -0.02248,-0.028 -0.03426,-0.04 -5.48e-4,-9e-4 -0.0023,9e-4 -0.0028,0 -0.02074,-0.021 -0.0392,-0.042 -0.05994,-0.063 -0.01224,-0.013 -0.02777,-0.022 -0.04002,-0.034 -0.01526,-0.015 -0.02759,-0.031 -0.04285,-0.046 l -0.02001,-0.02 c -1.040772,-1.065 -2.015401,-1.6783 -2.826494,-1.6591"
       id="path8" />
    <path
       inkscape:connector-curvature="0"
       style="fill:#ffffff;fill-rule:evenodd"
       id="path66"
       d="m 11.50705,1038.9529 c -0.0148,-5.9271 8.561344,-23.0529 12.552861,-23.1434 1.996216,-0.048 4.987342,3.7454 7.502482,8.6455 2.515689,4.9004 4.556305,10.9092 4.65205,15.3028 0,0 -9.657663,-18.865 -12.066827,-18.9207 -2.453106,-0.06 -9.11133,13.291 -8.319239,14.7774 0.773454,1.4525 15.125559,-3.2295 15.125559,-3.2295 -0.309345,0.4766 -9.679591,6.672 -16.707,8.1319 -1.060781,-0.048 -2.652181,0 -2.740343,-1.564" />
  </g>
</svg>
