<?xml version="1.0" encoding="UTF-8" standalone="no"?>
<!-- Created using Karbon, part of Calligra: http://www.calligra.org/karbon -->

<svg
   xmlns:dc="http://purl.org/dc/elements/1.1/"
   xmlns:cc="http://creativecommons.org/ns#"
   xmlns:rdf="http://www.w3.org/1999/02/22-rdf-syntax-ns#"
   xmlns:svg="http://www.w3.org/2000/svg"
   xmlns="http://www.w3.org/2000/svg"
   xmlns:sodipodi="http://sodipodi.sourceforge.net/DTD/sodipodi-0.dtd"
   xmlns:inkscape="http://www.inkscape.org/namespaces/inkscape"
   width="38.4pt"
   height="38.4pt"
   id="svg2"
   version="1.1"
   inkscape:version="0.48.5 r10040"
   sodipodi:docname="AirPortUtility.svg">
  <metadata
     id="metadata11">
    <rdf:RDF>
      <cc:Work
         rdf:about="">
        <dc:format>image/svg+xml</dc:format>
        <dc:type
           rdf:resource="http://purl.org/dc/dcmitype/StillImage" />
        <dc:title />
      </cc:Work>
    </rdf:RDF>
  </metadata>
  <sodipodi:namedview
     pagecolor="#ffffff"
     bordercolor="#666666"
     borderopacity="1"
     objecttolerance="10"
     gridtolerance="10"
     guidetolerance="10"
     inkscape:pageopacity="0"
     inkscape:pageshadow="2"
     inkscape:window-width="1920"
     inkscape:window-height="1025"
     id="namedview9"
     showgrid="false"
     inkscape:showpageshadow="false"
     borderlayer="true"
     inkscape:zoom="9.8333329"
     inkscape:cx="25.738906"
     inkscape:cy="25.147752"
     inkscape:window-x="-4"
     inkscape:window-y="39"
     inkscape:window-maximized="1"
     inkscape:current-layer="svg2">
    <sodipodi:guide
       position="9.5367432e-07,48.000001"
       orientation="47.999999,0"
       id="guide4069" />
    <sodipodi:guide
       position="9.5367432e-07,1.9073486e-06"
       orientation="0,47.999999"
       id="guide4071" />
    <sodipodi:guide
       position="48,1.9073486e-06"
       orientation="-47.999999,0"
       id="guide4073" />
    <sodipodi:guide
       position="48,48.000001"
       orientation="0,-47.999999"
       id="guide4075" />
    <sodipodi:guide
       position="4.000001,44.000001"
       orientation="39.999999,0"
       id="guide4077" />
    <sodipodi:guide
       position="4.000001,4.0000019"
       orientation="0,39.999999"
       id="guide4079" />
    <sodipodi:guide
       position="44,4.0000019"
       orientation="-39.999999,0"
       id="guide4081" />
    <sodipodi:guide
       position="44,44.000001"
       orientation="0,-39.999999"
       id="guide4083" />
    <sodipodi:guide
       position="7.0000181,44.000431"
       orientation="40.000002,0"
       id="guide4170" />
    <sodipodi:guide
       position="7.0000181,4.0004292"
       orientation="0,33.999986"
       id="guide4172" />
    <sodipodi:guide
       position="41.000004,4.0004292"
       orientation="-40.000002,0"
       id="guide4174" />
    <sodipodi:guide
       position="41.000004,44.000431"
       orientation="0,-33.999986"
       id="guide4176" />
    <sodipodi:guide
       position="7.0000181,44.000431"
       orientation="40.000002,0"
       id="guide4182" />
    <sodipodi:guide
       position="7.0000181,4.0004292"
       orientation="0,7"
       id="guide4184" />
    <sodipodi:guide
       position="14.000018,4.0004292"
       orientation="-40.000002,0"
       id="guide4186" />
    <sodipodi:guide
       position="14.000018,44.000431"
       orientation="0,-7"
       id="guide4188" />
    <sodipodi:guide
       position="18.500011,33.000215"
       orientation="17.999999,0"
       id="guide4196" />
    <sodipodi:guide
       position="18.500011,15.000216"
       orientation="0,18"
       id="guide4198" />
    <sodipodi:guide
       position="36.500011,15.000216"
       orientation="-17.999999,0"
       id="guide4200" />
    <sodipodi:guide
       position="36.500011,33.000215"
       orientation="0,-18"
       id="guide4202" />
  </sodipodi:namedview>
  <defs
     id="defs4">
    <clipPath
       id="clipPath-632356868">
      <g
         transform="translate(0,-1004.3622)"
         id="g17">
        <path
           style="fill:#1890d0"
           inkscape:connector-curvature="0"
           d="m -24,13 c 0,1.105 -0.672,2 -1.5,2 -0.828,0 -1.5,-0.895 -1.5,-2 0,-1.105 0.672,-2 1.5,-2 0.828,0 1.5,0.895 1.5,2 z"
           transform="matrix(15.333333,0,0,11.5,414.99999,878.8622)"
           id="path19" />
      </g>
    </clipPath>
    <clipPath
       id="clipPath-626700712">
      <g
         transform="translate(0,-1004.3622)"
         id="g12">
        <path
           style="fill:#1890d0"
           inkscape:connector-curvature="0"
           d="m -24,13 c 0,1.105 -0.672,2 -1.5,2 -0.828,0 -1.5,-0.895 -1.5,-2 0,-1.105 0.672,-2 1.5,-2 0.828,0 1.5,0.895 1.5,2 z"
           transform="matrix(15.333333,0,0,11.5,414.99999,878.8622)"
           id="path14" />
      </g>
    </clipPath>
    <linearGradient
       id="linearGradient3764"
       x1="1"
       x2="47"
       gradientUnits="userSpaceOnUse"
       gradientTransform="matrix(0,-1,1,0,-1.5e-6,47.999998)">
      <stop
         stop-color="#2290ee"
         stop-opacity="1"
         id="stop7" />
      <stop
         offset="1"
         stop-color="#359bef"
         stop-opacity="1"
         id="stop9" />
    </linearGradient>
  </defs>
  <g
     transform="matrix(0.85110005,0,0,0.85110638,3.1489,3.1468938)"
     id="g21">
    <path
       style="opacity:0.05"
       inkscape:connector-curvature="0"
       d="m 36.31,5 c 5.859,4.062 9.688,10.831 9.688,18.5 0,12.426 -10.07,22.5 -22.5,22.5 -7.669,0 -14.438,-3.828 -18.5,-9.688 1.037,1.822 2.306,3.499 3.781,4.969 4.085,3.712 9.514,5.969 15.469,5.969 12.703,0 23,-10.298 23,-23 0,-5.954 -2.256,-11.384 -5.969,-15.469 C 39.81,7.306 38.132,6.037 36.31,5 z m 4.969,3.781 c 3.854,4.113 6.219,9.637 6.219,15.719 0,12.703 -10.297,23 -23,23 -6.081,0 -11.606,-2.364 -15.719,-6.219 4.16,4.144 9.883,6.719 16.219,6.719 12.703,0 23,-10.298 23,-23 0,-6.335 -2.575,-12.06 -6.719,-16.219 z"
       id="path23" />
    <path
       style="opacity:0.1"
       inkscape:connector-curvature="0"
       d="m 41.28,8.781 c 3.712,4.085 5.969,9.514 5.969,15.469 0,12.703 -10.297,23 -23,23 -5.954,0 -11.384,-2.256 -15.469,-5.969 4.113,3.854 9.637,6.219 15.719,6.219 12.703,0 23,-10.298 23,-23 0,-6.081 -2.364,-11.606 -6.219,-15.719 z"
       id="path25" />
    <path
       style="opacity:0.2"
       inkscape:connector-curvature="0"
       d="M 31.25,2.375 C 39.865,5.529 46,13.792 46,23.505 c 0,12.426 -10.07,22.5 -22.5,22.5 -9.708,0 -17.971,-6.135 -21.12,-14.75 a 23,23 0 0 0 44.875,-7 23,23 0 0 0 -16,-21.875 z"
       id="path27" />
  </g>
  <g
     transform="matrix(0.85110005,0,0,0.85110638,3.1489,3.1468938)"
     id="g29">
    <path
       style="fill:url(#linearGradient3764);fill-opacity:1"
       inkscape:connector-curvature="0"
       d="M 24,1 C 36.703,1 47,11.297 47,24 47,36.703 36.703,47 24,47 11.297,47 1,36.703 1,24 1,11.297 11.297,1 24,1 z"
       id="path31" />
  </g>
  <g
     transform="matrix(0.85110005,0,0,0.85110638,3.1489,3.1468938)"
     id="g35">
    <g
       clip-path="url(#clipPath-626700712)"
       id="g37">
      <g
         transform="translate(1,1)"
         id="g39">
        <g
           style="opacity:0.1"
           id="g41">
          <!-- color: #359bef -->
          <g
             id="g43">
            <path
               style="fill:#000000;fill-opacity:1;fill-rule:nonzero;stroke:none"
               inkscape:connector-curvature="0"
               d="m 24,14 c -5.52,0 -10.668,1.883 -15,5.152 l 0.289,0.473 2.813,3.941 c 3.492,-2.484 7.57,-3.941 11.934,-3.941 4.355,0 8.406,1.461 11.898,3.941 l 2.773,-3.941 0.289,-0.473 C 34.66,15.882 29.516,14 24,14 m 0.035,7.445 c -3.996,0 -7.73,1.285 -10.949,3.508 l 2.664,3.766 c 2.469,-1.559 5.305,-2.465 8.285,-2.465 2.98,0 5.785,0.906 8.246,2.465 l 2.668,-3.766 C 31.742,22.734 28.031,21.445 24.035,21.445 m 0,6.621 c -2.621,0 -5.109,0.766 -7.301,2.078 l 2.738,3.852 c 1.406,-0.684 2.926,-1.082 4.527,-1.082 1.609,0 3.156,0.391 4.563,1.082 l 2.699,-3.852 c -2.176,-1.301 -4.617,-2.078 -7.223,-2.078 m -0.004,0"
               id="path45" />
          </g>
        </g>
      </g>
    </g>
  </g>
  <g
     transform="matrix(0.85110005,0,0,0.85110638,3.1489,3.1468938)"
     id="g47">
    <g
       clip-path="url(#clipPath-632356868)"
       id="g49">
      <!-- color: #359bef -->
      <g
         id="g51">
        <path
           style="fill:#f9f9f9;fill-opacity:1;fill-rule:nonzero;stroke:none"
           inkscape:connector-curvature="0"
           d="m 24,14 c -5.52,0 -10.668,1.883 -15,5.152 l 0.289,0.473 2.813,3.941 c 3.492,-2.484 7.57,-3.941 11.934,-3.941 4.355,0 8.406,1.461 11.898,3.941 l 2.773,-3.941 0.289,-0.473 C 34.66,15.882 29.516,14 24,14 m 0.035,7.445 c -3.996,0 -7.73,1.285 -10.949,3.508 l 2.664,3.766 c 2.469,-1.559 5.305,-2.465 8.285,-2.465 2.98,0 5.785,0.906 8.246,2.465 l 2.668,-3.766 C 31.742,22.734 28.031,21.445 24.035,21.445 m 0,6.621 c -2.621,0 -5.109,0.766 -7.301,2.078 l 2.738,3.852 c 1.406,-0.684 2.926,-1.082 4.527,-1.082 1.609,0 3.156,0.391 4.563,1.082 l 2.699,-3.852 c -2.176,-1.301 -4.617,-2.078 -7.223,-2.078 m -0.004,0"
           id="path53" />
      </g>
    </g>
  </g>
  <g
     transform="matrix(0.85110005,0,0,0.85110638,3.1489,3.1468938)"
     id="g55">
    <path
       style="opacity:0.1"
       inkscape:connector-curvature="0"
       d="m 40.03,7.531 c 3.712,4.084 5.969,9.514 5.969,15.469 0,12.703 -10.297,23 -23,23 C 17.045,46 11.615,43.744 7.53,40.031 11.708,44.322 17.54,47 23.999,47 c 12.703,0 23,-10.298 23,-23 0,-6.462 -2.677,-12.291 -6.969,-16.469 z"
       id="path57" />
  </g>
</svg>
