<?xml version="1.0" encoding="UTF-8" standalone="no"?>
<!-- Created with Inkscape (http://www.inkscape.org/) -->

<svg
   xmlns:dc="http://purl.org/dc/elements/1.1/"
   xmlns:cc="http://creativecommons.org/ns#"
   xmlns:rdf="http://www.w3.org/1999/02/22-rdf-syntax-ns#"
   xmlns:svg="http://www.w3.org/2000/svg"
   xmlns="http://www.w3.org/2000/svg"
   xmlns:sodipodi="http://sodipodi.sourceforge.net/DTD/sodipodi-0.dtd"
   xmlns:inkscape="http://www.inkscape.org/namespaces/inkscape"
   width="48"
   height="48"
   id="svg4230"
   version="1.1"
   inkscape:version="0.48.5 r10040"
   sodipodi:docname="amazon-mp3-store-source.svg">
  <defs
     id="defs4232" />
  <sodipodi:namedview
     id="base"
     pagecolor="#ffffff"
     bordercolor="#666666"
     borderopacity="1.0"
     inkscape:pageopacity="0.0"
     inkscape:pageshadow="2"
     inkscape:zoom="7.1252405"
     inkscape:cx="34.562861"
     inkscape:cy="28.250623"
     inkscape:document-units="px"
     inkscape:current-layer="layer1"
     showgrid="false"
     inkscape:showpageshadow="false"
     borderlayer="true"
     inkscape:window-width="1920"
     inkscape:window-height="1035"
     inkscape:window-x="-4"
     inkscape:window-y="29"
     inkscape:window-maximized="1">
    <sodipodi:guide
       position="0,48.000017"
       orientation="48,0"
       id="guide4065" />
    <sodipodi:guide
       position="0,1.7382813e-05"
       orientation="0,48"
       id="guide4067" />
    <sodipodi:guide
       position="48,1.7382813e-05"
       orientation="-48,0"
       id="guide4069" />
    <sodipodi:guide
       position="48,48.000017"
       orientation="0,-48"
       id="guide4071" />
    <sodipodi:guide
       position="3,45.000017"
       orientation="42,0"
       id="guide4073" />
    <sodipodi:guide
       position="3,3.0000174"
       orientation="0,42"
       id="guide4075" />
    <sodipodi:guide
       position="45,3.0000174"
       orientation="-42,0"
       id="guide4077" />
    <sodipodi:guide
       position="45,45.000017"
       orientation="0,-42"
       id="guide4079" />
  </sodipodi:namedview>
  <metadata
     id="metadata4235">
    <rdf:RDF>
      <cc:Work
         rdf:about="">
        <dc:format>image/svg+xml</dc:format>
        <dc:type
           rdf:resource="http://purl.org/dc/dcmitype/StillImage" />
        <dc:title />
      </cc:Work>
    </rdf:RDF>
  </metadata>
  <g
     inkscape:label="Capa 1"
     inkscape:groupmode="layer"
     id="layer1"
     transform="translate(0,-1004.3622)">
    <path
       style="fill:#000000"
       d=""
       id="path906"
       inkscape:connector-curvature="0" />
    <g
       id="svg_11"
       transform="matrix(0.08695652,0,0,0.08695652,-4.6086955,1007.3187)">
      <rect
         id="svg_6"
         height="195.04233"
         width="225.40039"
         y="193.95769"
         x="223.67999"
         style="fill:#ffffff;stroke:#aaaaaa;stroke-width:0" />
      <path
         id="svg_8"
         d="m 178.59599,215.074 c 0,0 156.27401,-108.026 156.35002,-109.797 0.075,-1.772 151.03299,106.49599 151.03299,106.49599 0,0 -307.38302,3.30101 -307.38302,3.30101 l 0,0 0,0 0,0 1e-5,0 z"
         inkscape:connector-curvature="0"
         style="fill:#ffffff;stroke:#aaaaaa;stroke-width:0" />
    </g>
    <ellipse
       id="svg_3"
       ry="230"
       rx="230"
       cy="242"
       cx="329"
       sodipodi:cx="329"
       sodipodi:cy="242"
       sodipodi:rx="230"
       sodipodi:ry="230"
       style="fill:#dcdcdc;fill-opacity:1;stroke:#aaaaaa;stroke-width:0;stroke-opacity:1"
       d="M 559,242 C 559,369.02549 456.02549,472 329,472 201.97451,472 99,369.02549 99,242 99,114.97451 201.97451,12 329,12 456.02549,12 559,114.97451 559,242 z"
       transform="matrix(0.08695652,0,0,0.08695652,-4.6086955,1007.3187)" />
    <path
       style="fill:#333333;fill-rule:evenodd;display:inline"
       id="path3673"
       inkscape:connector-curvature="0"
       d="m 25.129801,1027.1836 c 0,1.2115 0.02947,2.2209 -0.587564,3.2993 -0.499572,0.8768 -1.293776,1.4137 -2.175972,1.4137 -1.20408,0 -1.910859,-0.9099 -1.910859,-2.2551 0,-2.6478 2.402483,-3.1292 4.673827,-3.1292 v 0.6713 z m 3.167163,7.5804 c -0.207228,0.1865 -0.508653,0.1978 -0.741976,0.074 -1.043422,-0.8582 -1.230193,-1.2531 -1.801861,-2.0726 -1.72295,1.7379 -2.945197,2.2597 -5.179073,2.2597 -2.647157,0 -4.702774,-1.6154 -4.702774,-4.8468 0,-2.522 1.381197,-4.2373 3.348825,-5.0804 1.705918,-0.7397 4.088532,-0.874 5.909696,-1.0751 v -0.4061 c 0,-0.7375 0.05903,-1.6148 -0.380925,-2.2534 -0.382625,-0.5735 -1.117221,-0.8072 -1.763258,-0.8072 -1.198403,0 -2.2651,0.6055 -2.526236,1.8654 -0.05506,0.2797 -0.261155,0.5566 -0.54612,0.5712 l -3.045112,-0.3263 c -0.258883,-0.057 -0.54385,-0.2601 -0.470052,-0.6488 0.699968,-3.6571 4.035737,-4.7602 7.026914,-4.7602 1.528803,0 3.528221,0.4038 4.731733,1.5485 1.528798,1.4127 1.38063,3.2966 1.38063,5.3495 v 4.8434 c 0,1.4581 0.613678,2.0962 1.187048,2.8803 0.20098,0.2825 0.246386,0.6196 -0.01027,0.8274 -0.642057,0.533 -1.781986,1.5126 -2.409285,2.0647 l -0.0077,-0.01 z" />
    <g
       style="display:inline"
       id="g3717"
       transform="matrix(1.8107895,0,0,1.8107895,49.030325,982.76621)">
      <path
         style="fill:#ff9201;fill-rule:evenodd"
         id="path3719"
         inkscape:connector-curvature="0"
         d="m -8.0352193,30.04091 c -1.6612348,1.225818 -4.0701767,1.877903 -6.1447617,1.877903 -2.906561,0 -5.524657,-1.07423 -7.505698,-2.862748 -0.155426,-0.140714 -0.01663,-0.332918 0.169977,-0.223704 2.137746,1.244047 4.780787,1.992714 7.510655,1.992714 1.841766,0 3.865821,-0.382009 5.7285337,-1.172251 0.28095,-0.118808 0.5163275,0.185328 0.241294,0.388086 z" />
      <path
         style="fill:#ff9201;fill-rule:evenodd"
         id="path3721"
         inkscape:connector-curvature="0"
         d="m -7.3439576,29.251627 c -0.2121916,-0.271835 -1.4049099,-0.128882 -1.9399461,-0.06428 -0.1626216,0.01871 -0.1875665,-0.122326 -0.041415,-0.225783 0.9511045,-0.668076 2.5095215,-0.474753 2.6908517,-0.251368 0.1824496,0.226263 -0.047811,1.788518 -0.9392716,2.533507 -0.1370371,0.11513 -0.2675181,0.05453 -0.2069148,-0.09722 0.2003588,-0.501457 0.6496869,-1.622858 0.4366958,-1.894854 z" />
    </g>
  </g>
</svg>
