<?xml version="1.0" encoding="UTF-8" standalone="no"?>
<!-- Created with Inkscape (http://www.inkscape.org/) -->

<svg
   xmlns:dc="http://purl.org/dc/elements/1.1/"
   xmlns:cc="http://creativecommons.org/ns#"
   xmlns:rdf="http://www.w3.org/1999/02/22-rdf-syntax-ns#"
   xmlns:svg="http://www.w3.org/2000/svg"
   xmlns="http://www.w3.org/2000/svg"
   xmlns:sodipodi="http://sodipodi.sourceforge.net/DTD/sodipodi-0.dtd"
   xmlns:inkscape="http://www.inkscape.org/namespaces/inkscape"
   width="48"
   height="48"
   id="svg2"
   version="1.1"
   inkscape:version="0.48.5 r10040"
   sodipodi:docname="amule.svg"
   inkscape:export-filename="/home/uri/workspace/NitruxforAndroid/res/drawable-xhdpi/downloads.png"
   inkscape:export-xdpi="180"
   inkscape:export-ydpi="180">
  <defs
     id="defs4">
    <clipPath
       id="clipPath-054702263">
      <g
         transform="translate(0,-1004.3622)"
         id="g17">
        <path
           style="fill:#1890d0"
           inkscape:connector-curvature="0"
           d="m -24,13 c 0,1.105 -0.672,2 -1.5,2 -0.828,0 -1.5,-0.895 -1.5,-2 0,-1.105 0.672,-2 1.5,-2 0.828,0 1.5,0.895 1.5,2 z"
           transform="matrix(15.333333,0,0,11.5,414.99999,878.8622)"
           id="path19" />
      </g>
    </clipPath>
    <clipPath
       id="clipPath-042046698">
      <g
         transform="translate(0,-1004.3622)"
         id="g12">
        <path
           style="fill:#1890d0"
           inkscape:connector-curvature="0"
           d="m -24,13 c 0,1.105 -0.672,2 -1.5,2 -0.828,0 -1.5,-0.895 -1.5,-2 0,-1.105 0.672,-2 1.5,-2 0.828,0 1.5,0.895 1.5,2 z"
           transform="matrix(15.333333,0,0,11.5,414.99999,878.8622)"
           id="path14" />
      </g>
    </clipPath>
    <linearGradient
       id="linearGradient3764"
       x1="1"
       x2="47"
       gradientUnits="userSpaceOnUse"
       gradientTransform="matrix(0,-1,1,0,-1.5e-6,47.999998)">
      <stop
         stop-color="#ec9b28"
         stop-opacity="1"
         id="stop7" />
      <stop
         offset="1"
         stop-color="#eea53a"
         stop-opacity="1"
         id="stop9" />
    </linearGradient>
  </defs>
  <sodipodi:namedview
     id="base"
     pagecolor="#ffffff"
     bordercolor="#666666"
     borderopacity="1.0"
     inkscape:pageopacity="0.0"
     inkscape:pageshadow="2"
     inkscape:zoom="8.9473799"
     inkscape:cx="25.903983"
     inkscape:cy="28.302154"
     inkscape:document-units="px"
     inkscape:current-layer="layer1"
     showgrid="false"
     inkscape:window-width="1920"
     inkscape:window-height="1025"
     inkscape:window-x="-4"
     inkscape:window-y="39"
     inkscape:window-maximized="1"
     showguides="true">
    <inkscape:grid
       type="xygrid"
       id="grid3850" />
    <sodipodi:guide
       position="4,44.000017"
       orientation="40,0"
       id="guide4110" />
    <sodipodi:guide
       position="4,4.0000174"
       orientation="0,40"
       id="guide4112" />
    <sodipodi:guide
       position="44,4.0000174"
       orientation="-40,0"
       id="guide4114" />
    <sodipodi:guide
       position="44,44.000017"
       orientation="0,-40"
       id="guide4116" />
    <sodipodi:guide
       position="8.999999,39.000017"
       orientation="30,0"
       id="guide4124" />
    <sodipodi:guide
       position="8.999999,9.0000174"
       orientation="0,30.000001"
       id="guide4126" />
    <sodipodi:guide
       position="39,9.0000174"
       orientation="-30,0"
       id="guide4128" />
    <sodipodi:guide
       position="39,39.000017"
       orientation="0,-30.000001"
       id="guide4130" />
    <sodipodi:guide
       position="14.999999,33.000017"
       orientation="18,0"
       id="guide4134" />
    <sodipodi:guide
       position="14.999999,15.000017"
       orientation="0,18.000001"
       id="guide4136" />
    <sodipodi:guide
       position="33,15.000017"
       orientation="-18,0"
       id="guide4138" />
    <sodipodi:guide
       position="33,33.000017"
       orientation="0,-18.000001"
       id="guide4140" />
  </sodipodi:namedview>
  <metadata
     id="metadata7">
    <rdf:RDF>
      <cc:Work
         rdf:about="">
        <dc:format>image/svg+xml</dc:format>
        <dc:type
           rdf:resource="http://purl.org/dc/dcmitype/StillImage" />
        <dc:title />
      </cc:Work>
    </rdf:RDF>
  </metadata>
  <g
     inkscape:label="Capa 1"
     inkscape:groupmode="layer"
     id="layer1"
     transform="translate(0,-1004.3622)">
    <g
       transform="matrix(0.85110005,0,0,0.85110638,3.1489,1007.5091)"
       id="g21">
      <path
         style="opacity:0.05"
         inkscape:connector-curvature="0"
         d="m 36.31,5 c 5.859,4.062 9.688,10.831 9.688,18.5 0,12.426 -10.07,22.5 -22.5,22.5 -7.669,0 -14.438,-3.828 -18.5,-9.688 1.037,1.822 2.306,3.499 3.781,4.969 4.085,3.712 9.514,5.969 15.469,5.969 12.703,0 23,-10.298 23,-23 0,-5.954 -2.256,-11.384 -5.969,-15.469 C 39.81,7.306 38.132,6.037 36.31,5 z m 4.969,3.781 c 3.854,4.113 6.219,9.637 6.219,15.719 0,12.703 -10.297,23 -23,23 -6.081,0 -11.606,-2.364 -15.719,-6.219 4.16,4.144 9.883,6.719 16.219,6.719 12.703,0 23,-10.298 23,-23 0,-6.335 -2.575,-12.06 -6.719,-16.219 z"
         id="path23" />
      <path
         style="opacity:0.1"
         inkscape:connector-curvature="0"
         d="m 41.28,8.781 c 3.712,4.085 5.969,9.514 5.969,15.469 0,12.703 -10.297,23 -23,23 -5.954,0 -11.384,-2.256 -15.469,-5.969 4.113,3.854 9.637,6.219 15.719,6.219 12.703,0 23,-10.298 23,-23 0,-6.081 -2.364,-11.606 -6.219,-15.719 z"
         id="path25" />
      <path
         style="opacity:0.2"
         inkscape:connector-curvature="0"
         d="M 31.25,2.375 C 39.865,5.529 46,13.792 46,23.505 c 0,12.426 -10.07,22.5 -22.5,22.5 -9.708,0 -17.971,-6.135 -21.12,-14.75 a 23,23 0 0 0 44.875,-7 23,23 0 0 0 -16,-21.875 z"
         id="path27" />
    </g>
    <g
       transform="matrix(0.85110005,0,0,0.85110638,3.1489,1007.5091)"
       id="g29">
      <path
         style="fill:url(#linearGradient3764);fill-opacity:1"
         inkscape:connector-curvature="0"
         d="M 24,1 C 36.703,1 47,11.297 47,24 47,36.703 36.703,47 24,47 11.297,47 1,36.703 1,24 1,11.297 11.297,1 24,1 z"
         id="path31" />
    </g>
    <g
       transform="matrix(0.85110005,0,0,0.85110638,3.1489,1007.5091)"
       id="g35">
      <g
         clip-path="url(#clipPath-042046698)"
         id="g37">
        <g
           transform="translate(1,1)"
           id="g39">
          <g
             style="opacity:0.1"
             id="g41">
            <!-- color: #eea53a -->
            <g
               id="g43">
              <path
                 style="fill:#000000;fill-opacity:1;fill-rule:nonzero;stroke:none"
                 inkscape:connector-curvature="0"
                 d="m 23.992,9.539 c -1.926,0 -3.484,1.559 -3.484,3.484 0,1.621 1.137,2.961 2.637,3.352 l 0,1.789 c -3.449,0.418 -6.117,3.336 -6.117,6.898 0,0.961 0.199,1.867 0.551,2.699 l -1.172,0.684 c -1.09,-1.074 -2.777,-1.352 -4.168,-0.551 -1.664,0.957 -2.23,3.086 -1.27,4.75 0.961,1.664 3.086,2.23 4.754,1.27 1.426,-0.828 2.047,-2.492 1.594,-4 l 1.137,-0.652 c 1.273,1.676 3.266,2.766 5.531,2.766 2.422,0 4.543,-1.219 5.793,-3.09 l 1.465,0.848 c -0.535,1.547 0.059,3.285 1.531,4.133 1.664,0.961 3.785,0.395 4.75,-1.27 0.961,-1.664 0.398,-3.789 -1.27,-4.75 -1.348,-0.781 -2.977,-0.547 -4.066,0.457 l -1.66,-0.945 c 0.266,-0.73 0.422,-1.52 0.422,-2.34 0,-3.543 -2.652,-6.469 -6.082,-6.898 l 0,-1.789 c 1.5,-0.391 2.605,-1.73 2.605,-3.355 0,-1.922 -1.559,-3.477 -3.484,-3.477 m 0.98,11.316 c 0.477,0 0.875,0.043 1.207,0.164 0.332,0.117 0.602,0.273 0.813,0.457 0.219,0.191 0.395,0.418 0.488,0.652 0.098,0.227 0.133,0.457 0.133,0.684 0,0.391 -0.078,0.73 -0.258,1.039 -0.18,0.316 -0.461,0.598 -0.848,0.816 -0.387,0.219 -0.895,0.367 -1.496,0.488 -0.602,0.121 -1.305,0.195 -2.145,0.195 l -0.914,0 c -0.039,0.188 -0.078,0.344 -0.098,0.52 -0.012,0.18 0,0.371 0,0.523 0,0.566 0.145,1 0.422,1.301 0.285,0.301 0.738,0.422 1.367,0.422 0.363,0 0.688,-0.016 0.977,-0.066 0.293,-0.055 0.539,-0.098 0.75,-0.164 0.215,-0.063 0.387,-0.145 0.52,-0.188 0.137,-0.063 0.242,-0.066 0.293,-0.066 0.051,0 0.078,0.027 0.102,0.066 0.027,0.031 0.031,0.063 0.031,0.129 0,0.059 0.012,0.145 0,0.227 -0.012,0.078 -0.043,0.145 -0.063,0.227 -0.023,0.078 -0.059,0.156 -0.102,0.227 -0.035,0.074 -0.051,0.148 -0.098,0.195 -0.066,0.066 -0.18,0.129 -0.359,0.195 -0.168,0.063 -0.379,0.137 -0.617,0.195 -0.234,0.051 -0.496,0.094 -0.777,0.133 -0.285,0.035 -0.563,0.031 -0.848,0.031 -0.504,0 -0.953,-0.051 -1.336,-0.164 -0.379,-0.113 -0.688,-0.285 -0.941,-0.52 -0.25,-0.238 -0.461,-0.531 -0.586,-0.883 -0.125,-0.352 -0.164,-0.762 -0.164,-1.234 0,-0.367 0.031,-0.781 0.102,-1.203 0.074,-0.426 0.172,-0.824 0.324,-1.238 0.152,-0.414 0.344,-0.824 0.586,-1.203 0.246,-0.379 0.547,-0.719 0.879,-1.012 0.34,-0.289 0.73,-0.508 1.172,-0.684 0.445,-0.18 0.941,-0.262 1.496,-0.262 m -0.109,1.105 c -0.367,0 -0.695,0.063 -0.98,0.195 -0.281,0.125 -0.559,0.273 -0.777,0.488 -0.215,0.215 -0.395,0.492 -0.555,0.781 -0.152,0.281 -0.262,0.559 -0.355,0.879 l 0.855,0 c 0.594,0 1.098,-0.027 1.492,-0.102 0.398,-0.074 0.73,-0.168 0.977,-0.293 0.242,-0.137 0.391,-0.289 0.488,-0.457 0.102,-0.176 0.164,-0.332 0.164,-0.523 0,-0.289 -0.133,-0.535 -0.359,-0.715 -0.227,-0.18 -0.52,-0.258 -0.938,-0.258 m -0.012,0.004"
                 id="path45" />
            </g>
          </g>
        </g>
      </g>
    </g>
    <g
       transform="matrix(0.85110005,0,0,0.85110638,3.1489,1007.5091)"
       id="g47">
      <g
         clip-path="url(#clipPath-054702263)"
         id="g49">
        <!-- color: #eea53a -->
        <g
           id="g51">
          <path
             style="fill:#ffffff;fill-opacity:1;fill-rule:nonzero;stroke:none"
             inkscape:connector-curvature="0"
             d="m 23.992,9.539 c -1.926,0 -3.484,1.559 -3.484,3.484 0,1.621 1.137,2.961 2.637,3.352 l 0,1.789 c -3.449,0.418 -6.117,3.336 -6.117,6.898 0,0.961 0.199,1.867 0.551,2.699 l -1.172,0.684 c -1.09,-1.074 -2.777,-1.352 -4.168,-0.551 -1.664,0.957 -2.23,3.086 -1.27,4.75 0.961,1.664 3.086,2.23 4.754,1.27 1.426,-0.828 2.047,-2.492 1.594,-4 l 1.137,-0.652 c 1.273,1.676 3.266,2.766 5.531,2.766 2.422,0 4.543,-1.219 5.793,-3.09 l 1.465,0.848 c -0.535,1.547 0.059,3.285 1.531,4.133 1.664,0.961 3.785,0.395 4.75,-1.27 0.961,-1.664 0.398,-3.789 -1.27,-4.75 -1.348,-0.781 -2.977,-0.547 -4.066,0.457 l -1.66,-0.945 c 0.266,-0.73 0.422,-1.52 0.422,-2.34 0,-3.543 -2.652,-6.469 -6.082,-6.898 l 0,-1.789 c 1.5,-0.391 2.605,-1.73 2.605,-3.355 0,-1.922 -1.559,-3.477 -3.484,-3.477 m 0.98,11.316 c 0.477,0 0.875,0.043 1.207,0.164 0.332,0.117 0.602,0.273 0.813,0.457 0.219,0.191 0.395,0.418 0.488,0.652 0.098,0.227 0.133,0.457 0.133,0.684 0,0.391 -0.078,0.73 -0.258,1.039 -0.18,0.316 -0.461,0.598 -0.848,0.816 -0.387,0.219 -0.895,0.367 -1.496,0.488 -0.602,0.121 -1.305,0.195 -2.145,0.195 l -0.914,0 c -0.039,0.188 -0.078,0.344 -0.098,0.52 -0.012,0.18 0,0.371 0,0.523 0,0.566 0.145,1 0.422,1.301 0.285,0.301 0.738,0.422 1.367,0.422 0.363,0 0.688,-0.016 0.977,-0.066 0.293,-0.055 0.539,-0.098 0.75,-0.164 0.215,-0.063 0.387,-0.145 0.52,-0.188 0.137,-0.063 0.242,-0.066 0.293,-0.066 0.051,0 0.078,0.027 0.102,0.066 0.027,0.031 0.031,0.063 0.031,0.129 0,0.059 0.012,0.145 0,0.227 -0.012,0.078 -0.043,0.145 -0.063,0.227 -0.023,0.078 -0.059,0.156 -0.102,0.227 -0.035,0.074 -0.051,0.148 -0.098,0.195 -0.066,0.066 -0.18,0.129 -0.359,0.195 -0.168,0.063 -0.379,0.137 -0.617,0.195 -0.234,0.051 -0.496,0.094 -0.777,0.133 -0.285,0.035 -0.563,0.031 -0.848,0.031 -0.504,0 -0.953,-0.051 -1.336,-0.164 -0.379,-0.113 -0.688,-0.285 -0.941,-0.52 -0.25,-0.238 -0.461,-0.531 -0.586,-0.883 -0.125,-0.352 -0.164,-0.762 -0.164,-1.234 0,-0.367 0.031,-0.781 0.102,-1.203 0.074,-0.426 0.172,-0.824 0.324,-1.238 0.152,-0.414 0.344,-0.824 0.586,-1.203 0.246,-0.379 0.547,-0.719 0.879,-1.012 0.34,-0.289 0.73,-0.508 1.172,-0.684 0.445,-0.18 0.941,-0.262 1.496,-0.262 m -0.109,1.105 c -0.367,0 -0.695,0.063 -0.98,0.195 -0.281,0.125 -0.559,0.273 -0.777,0.488 -0.215,0.215 -0.395,0.492 -0.555,0.781 -0.152,0.281 -0.262,0.559 -0.355,0.879 l 0.855,0 c 0.594,0 1.098,-0.027 1.492,-0.102 0.398,-0.074 0.73,-0.168 0.977,-0.293 0.242,-0.137 0.391,-0.289 0.488,-0.457 0.102,-0.176 0.164,-0.332 0.164,-0.523 0,-0.289 -0.133,-0.535 -0.359,-0.715 -0.227,-0.18 -0.52,-0.258 -0.938,-0.258 m -0.012,0.004"
             id="path53" />
        </g>
      </g>
    </g>
    <g
       transform="matrix(0.85110005,0,0,0.85110638,3.1489,1007.5091)"
       id="g55">
      <path
         style="opacity:0.1"
         inkscape:connector-curvature="0"
         d="m 40.03,7.531 c 3.712,4.084 5.969,9.514 5.969,15.469 0,12.703 -10.297,23 -23,23 C 17.045,46 11.615,43.744 7.53,40.031 11.708,44.322 17.54,47 23.999,47 c 12.703,0 23,-10.298 23,-23 0,-6.462 -2.677,-12.291 -6.969,-16.469 z"
         id="path57" />
    </g>
  </g>
</svg>
