<?xml version="1.0" encoding="UTF-8" standalone="no"?>
<!-- Created with Inkscape (http://www.inkscape.org/) -->

<svg
   xmlns:dc="http://purl.org/dc/elements/1.1/"
   xmlns:cc="http://creativecommons.org/ns#"
   xmlns:rdf="http://www.w3.org/1999/02/22-rdf-syntax-ns#"
   xmlns:svg="http://www.w3.org/2000/svg"
   xmlns="http://www.w3.org/2000/svg"
   xmlns:sodipodi="http://sodipodi.sourceforge.net/DTD/sodipodi-0.dtd"
   xmlns:inkscape="http://www.inkscape.org/namespaces/inkscape"
   width="48"
   height="48"
   id="svg2"
   version="1.1"
   inkscape:version="0.48.5 r10040"
   sodipodi:docname="apacheconf.svg"
   inkscape:export-filename="/home/uri/workspace/NitruxforAndroid/res/drawable-xhdpi/downloads.png"
   inkscape:export-xdpi="180"
   inkscape:export-ydpi="180">
  <defs
     id="defs4" />
  <sodipodi:namedview
     id="base"
     pagecolor="#ffffff"
     bordercolor="#666666"
     borderopacity="1.0"
     inkscape:pageopacity="0.0"
     inkscape:pageshadow="2"
     inkscape:zoom="12.653506"
     inkscape:cx="-17.562024"
     inkscape:cy="29.880517"
     inkscape:document-units="px"
     inkscape:current-layer="layer1"
     showgrid="false"
     inkscape:window-width="1920"
     inkscape:window-height="1035"
     inkscape:window-x="-4"
     inkscape:window-y="29"
     inkscape:window-maximized="1"
     showguides="true">
    <inkscape:grid
       type="xygrid"
       id="grid3850" />
    <sodipodi:guide
       position="4,44.000017"
       orientation="40,0"
       id="guide4110" />
    <sodipodi:guide
       position="4,4.0000174"
       orientation="0,40"
       id="guide4112" />
    <sodipodi:guide
       position="44,4.0000174"
       orientation="-40,0"
       id="guide4114" />
    <sodipodi:guide
       position="44,44.000017"
       orientation="0,-40"
       id="guide4116" />
    <sodipodi:guide
       position="8.999999,39.000017"
       orientation="30,0"
       id="guide4124" />
    <sodipodi:guide
       position="8.999999,9.0000174"
       orientation="0,30.000001"
       id="guide4126" />
    <sodipodi:guide
       position="39,9.0000174"
       orientation="-30,0"
       id="guide4128" />
    <sodipodi:guide
       position="39,39.000017"
       orientation="0,-30.000001"
       id="guide4130" />
    <sodipodi:guide
       position="14.999999,33.000017"
       orientation="18,0"
       id="guide4134" />
    <sodipodi:guide
       position="14.999999,15.000017"
       orientation="0,18.000001"
       id="guide4136" />
    <sodipodi:guide
       position="33,15.000017"
       orientation="-18,0"
       id="guide4138" />
    <sodipodi:guide
       position="33,33.000017"
       orientation="0,-18.000001"
       id="guide4140" />
  </sodipodi:namedview>
  <metadata
     id="metadata7">
    <rdf:RDF>
      <cc:Work
         rdf:about="">
        <dc:format>image/svg+xml</dc:format>
        <dc:type
           rdf:resource="http://purl.org/dc/dcmitype/StillImage" />
        <dc:title />
      </cc:Work>
    </rdf:RDF>
  </metadata>
  <g
     inkscape:label="Capa 1"
     inkscape:groupmode="layer"
     id="layer1"
     transform="translate(0,-1004.3622)">
    <rect
       style="fill:#edaea7;fill-opacity:1;fill-rule:evenodd;stroke:#e74c3c;stroke-opacity:1"
       id="rect3262"
       width="40"
       height="40"
       x="4"
       y="1008.3622"
       ry="20" />
    <path
       inkscape:connector-curvature="0"
       style="fill:#000000;fill-opacity:0.92920353;fill-rule:nonzero;stroke:none;stroke-width:0.5;marker:none;visibility:visible;display:inline;overflow:visible"
       d="m 16.41665,1034.0775 c 0,0 4.258649,-5.0962 8.839641,-9.0109 4.092321,-3.4941 9.758909,-7.2789 9.758909,-7.2789 0,0 -4.347714,2.4896 -6.32249,3.9472 -2.031725,1.4997 -4.551994,3.1275 -6.882453,5.6988 -2.330459,2.5714 -5.016631,5.1542 -5.016631,5.1542 l -1.380765,1.6418 c 0,0 0.933845,-0.064 1.003789,-0.1522 z"
       id="path3251"
       sodipodi:nodetypes="cscssccc" />
    <g
       id="g3771">
      <path
         sodipodi:nodetypes="ccscscccsccscsc"
         id="path2383"
         d="m 38.359971,1020.0579 c 0.08865,-0.083 0.174356,-0.1673 0.256874,-0.2534 -0.04946,-0.2752 -0.127852,-0.621 -0.24707,-0.8962 -0.177191,-0.409 -1.001901,-1.0332 -1.403023,-1.3198 0.15004,0.1044 0.486152,0.3376 1.125925,0.7856 0.414659,0.2904 0.7167,0.6861 0.907323,0.9881 0.926111,-1.1819 1.277226,-2.6463 0.680353,-4.6657 -0.274511,-0.3447 -1.229707,-0.2841 -2.579831,0.089 -0.11799,0.2941 -0.260353,0.6462 -0.383222,0.9437 -0.261457,0.6331 -0.37509,0.8895 -0.37509,0.8895 0,0 0.210502,-1.0493 0.27773,-1.6912 -3.743058,1.1543 -9.949624,4.3492 -13.614131,7.9313 -7.9489,7.7703 -8.61173,10.3935 -7.498242,11.5958 5.328222,-2.0612 4.677139,1.1533 12.23464,-6.4145 3.394031,-3.3986 7.977239,-5.5024 10.617764,-7.9818 z"
         style="fill:#e74c3c;fill-opacity:1;fill-rule:nonzero;stroke:none;stroke-width:0.50000000000000000;marker:none;visibility:visible;display:inline;overflow:visible"
         inkscape:connector-curvature="0" />
      <path
         sodipodi:nodetypes="cscccsc"
         id="path2386"
         d="m 35.773649,1017.4253 c 0,0 -7.127404,3.6685 -14.354725,10.8239 -7.22732,7.1553 -9.545921,11.5062 -9.545921,11.5062 l -1.817051,1.8783 -0.080871,-0.076 c 0,0 4.3987237,-7.5097 9.5325097,-12.3468 11.089929,-10.4478 16.432568,-11.7619 16.266058,-11.7854 z"
         style="opacity:0.84549357;fill:#000000;fill-opacity:1;fill-rule:nonzero;stroke:none;stroke-width:0.5;marker:none;visibility:visible;display:inline;overflow:visible"
         inkscape:connector-curvature="0" />
    </g>
  </g>
</svg>
