<?xml version="1.0" encoding="UTF-8" standalone="no"?>
<!-- Created with Inkscape (http://www.inkscape.org/) -->

<svg
   xmlns:dc="http://purl.org/dc/elements/1.1/"
   xmlns:cc="http://creativecommons.org/ns#"
   xmlns:rdf="http://www.w3.org/1999/02/22-rdf-syntax-ns#"
   xmlns:svg="http://www.w3.org/2000/svg"
   xmlns="http://www.w3.org/2000/svg"
   xmlns:xlink="http://www.w3.org/1999/xlink"
   xmlns:sodipodi="http://sodipodi.sourceforge.net/DTD/sodipodi-0.dtd"
   xmlns:inkscape="http://www.inkscape.org/namespaces/inkscape"
   width="48px"
   height="48px"
   id="svg7412"
   sodipodi:version="0.32"
   inkscape:version="0.48.5 r10040"
   sodipodi:docname="aptik.svg"
   inkscape:output_extension="org.inkscape.output.svg.inkscape"
   version="1.1">
  <defs
     id="defs7414">
    <clipPath
       id="clipPath-895829878">
      <g
         transform="translate(0,-1004.3622)"
         id="g17">
        <path
           style="fill:#1890d0"
           inkscape:connector-curvature="0"
           d="m -24,13 c 0,1.105 -0.672,2 -1.5,2 -0.828,0 -1.5,-0.895 -1.5,-2 0,-1.105 0.672,-2 1.5,-2 0.828,0 1.5,0.895 1.5,2 z"
           transform="matrix(15.333333,0,0,11.5,414.99999,878.8622)"
           id="path19" />
      </g>
    </clipPath>
    <clipPath
       id="clipPath-886701251">
      <g
         transform="translate(0,-1004.3622)"
         id="g12">
        <path
           style="fill:#1890d0"
           inkscape:connector-curvature="0"
           d="m -24,13 c 0,1.105 -0.672,2 -1.5,2 -0.828,0 -1.5,-0.895 -1.5,-2 0,-1.105 0.672,-2 1.5,-2 0.828,0 1.5,0.895 1.5,2 z"
           transform="matrix(15.333333,0,0,11.5,414.99999,878.8622)"
           id="path14" />
      </g>
    </clipPath>
    <linearGradient
       id="linearGradient3764"
       x1="1"
       x2="47"
       gradientUnits="userSpaceOnUse"
       gradientTransform="matrix(0,-1,1,0,-1.5e-6,47.999998)">
      <stop
         stop-color="#008bb8"
         stop-opacity="1"
         id="stop7" />
      <stop
         offset="1"
         stop-color="#009acd"
         stop-opacity="1"
         id="stop9" />
    </linearGradient>
    <linearGradient
       inkscape:collect="always"
       xlink:href="#linearGradient3764"
       id="linearGradient3059"
       gradientUnits="userSpaceOnUse"
       gradientTransform="matrix(0,-1,1,0,-1.5e-6,47.999998)"
       x1="1"
       x2="47" />
  </defs>
  <sodipodi:namedview
     id="base"
     pagecolor="#ffffff"
     bordercolor="#666666"
     borderopacity="1.0"
     inkscape:pageopacity="0.0"
     inkscape:pageshadow="2"
     inkscape:zoom="4.9497475"
     inkscape:cx="32.05566"
     inkscape:cy="42.888893"
     inkscape:current-layer="layer1"
     showgrid="true"
     inkscape:grid-bbox="true"
     inkscape:document-units="px"
     inkscape:window-width="1920"
     inkscape:window-height="1025"
     inkscape:window-x="-4"
     inkscape:window-y="39"
     inkscape:window-maximized="1"
     inkscape:showpageshadow="false"
     borderlayer="true">
    <sodipodi:guide
       position="0,48"
       orientation="48,0"
       id="guide4108" />
    <sodipodi:guide
       position="0,0"
       orientation="0,48"
       id="guide4110" />
    <sodipodi:guide
       position="48,0"
       orientation="-48,0"
       id="guide4112" />
    <sodipodi:guide
       position="48,48"
       orientation="0,-48"
       id="guide4114" />
    <sodipodi:guide
       position="4,44"
       orientation="40,0"
       id="guide4116" />
    <sodipodi:guide
       position="4,4"
       orientation="0,40"
       id="guide4118" />
    <sodipodi:guide
       position="44,4"
       orientation="-40,0"
       id="guide4120" />
    <sodipodi:guide
       position="44,44"
       orientation="0,-40"
       id="guide4122" />
    <sodipodi:guide
       position="15,33"
       orientation="18,0"
       id="guide4125" />
    <sodipodi:guide
       position="15,15"
       orientation="0,18"
       id="guide4127" />
    <sodipodi:guide
       position="33,15"
       orientation="-18,0"
       id="guide4129" />
    <sodipodi:guide
       position="33,33"
       orientation="0,-18"
       id="guide4131" />
  </sodipodi:namedview>
  <metadata
     id="metadata7417">
    <rdf:RDF>
      <cc:Work
         rdf:about="">
        <dc:format>image/svg+xml</dc:format>
        <dc:type
           rdf:resource="http://purl.org/dc/dcmitype/StillImage" />
        <dc:title />
      </cc:Work>
    </rdf:RDF>
  </metadata>
  <g
     id="layer1"
     inkscape:label="Layer 1"
     inkscape:groupmode="layer">
    <g
       transform="matrix(0.85106383,0,0,0.85106383,3.1489362,3.1489362)"
       id="g21">
      <path
         style="opacity:0.05"
         inkscape:connector-curvature="0"
         d="m 36.31,5 c 5.859,4.062 9.688,10.831 9.688,18.5 0,12.426 -10.07,22.5 -22.5,22.5 -7.669,0 -14.438,-3.828 -18.5,-9.688 1.037,1.822 2.306,3.499 3.781,4.969 4.085,3.712 9.514,5.969 15.469,5.969 12.703,0 23,-10.298 23,-23 0,-5.954 -2.256,-11.384 -5.969,-15.469 C 39.81,7.306 38.132,6.037 36.31,5 z m 4.969,3.781 c 3.854,4.113 6.219,9.637 6.219,15.719 0,12.703 -10.297,23 -23,23 -6.081,0 -11.606,-2.364 -15.719,-6.219 4.16,4.144 9.883,6.719 16.219,6.719 12.703,0 23,-10.298 23,-23 0,-6.335 -2.575,-12.06 -6.719,-16.219 z"
         id="path23" />
      <path
         style="opacity:0.1"
         inkscape:connector-curvature="0"
         d="m 41.28,8.781 c 3.712,4.085 5.969,9.514 5.969,15.469 0,12.703 -10.297,23 -23,23 -5.954,0 -11.384,-2.256 -15.469,-5.969 4.113,3.854 9.637,6.219 15.719,6.219 12.703,0 23,-10.298 23,-23 0,-6.081 -2.364,-11.606 -6.219,-15.719 z"
         id="path25" />
      <path
         style="opacity:0.2"
         inkscape:connector-curvature="0"
         d="M 31.25,2.375 C 39.865,5.529 46,13.792 46,23.505 c 0,12.426 -10.07,22.5 -22.5,22.5 -9.708,0 -17.971,-6.135 -21.12,-14.75 a 23,23 0 0 0 44.875,-7 23,23 0 0 0 -16,-21.875 z"
         id="path27" />
    </g>
    <g
       transform="matrix(0.85106383,0,0,0.85106383,3.1489362,3.1489362)"
       id="g29">
      <path
         style="fill:url(#linearGradient3059);fill-opacity:1"
         inkscape:connector-curvature="0"
         d="M 24,1 C 36.703,1 47,11.297 47,24 47,36.703 36.703,47 24,47 11.297,47 1,36.703 1,24 1,11.297 11.297,1 24,1 z"
         id="path31" />
    </g>
    <g
       transform="matrix(0.85106383,0,0,0.85106383,3.1489362,3.1489362)"
       id="g35">
      <g
         clip-path="url(#clipPath-886701251)"
         id="g37">
        <g
           transform="translate(1,1)"
           id="g39">
          <g
             style="opacity:0.1"
             id="g41">
            <!-- color: #009acd -->
            <g
               id="g43">
              <path
                 style="fill:#000000;fill-opacity:1;fill-rule:nonzero;stroke:none"
                 inkscape:connector-curvature="0"
                 d="m 11.965,20 c -0.57,0.027 -0.961,0.156 -0.961,0.766 l 0,12.773 c 0,0.809 0.695,1.457 1.57,1.457 l 22.828,0 c 0.879,0 1.602,-0.648 1.602,-1.457 l 0,-12.773 C 37.004,19.961 36.281,20 35.402,20 l -22.828,0 c -0.219,0 -0.418,-0.008 -0.609,0 m 0,0"
                 id="path45" />
              <path
                 style="fill:#000000;fill-opacity:1;fill-rule:nonzero;stroke:none"
                 inkscape:connector-curvature="0"
                 d="M 15.05,13.402 11.8,18 l 11.199,0 0,-7 -5.512,0 c -0.809,0 -2.438,2.402 -2.438,2.402 M 24.99,11 l 0,7 11.184,0 -3.25,-4.598 c 0,0 -1.625,-2.402 -2.441,-2.402 m -5.492,0"
                 id="path47" />
            </g>
          </g>
        </g>
      </g>
    </g>
    <g
       transform="matrix(0.85106383,0,0,0.85106383,3.1489362,3.1489362)"
       id="g49">
      <g
         clip-path="url(#clipPath-895829878)"
         id="g51">
        <!-- color: #009acd -->
        <g
           id="g53">
          <path
             style="fill:#f9f9f9;fill-opacity:1;fill-rule:nonzero;stroke:none"
             inkscape:connector-curvature="0"
             d="m 11.965,20 c -0.57,0.027 -0.961,0.156 -0.961,0.766 l 0,12.773 c 0,0.809 0.695,1.457 1.57,1.457 l 22.828,0 c 0.879,0 1.602,-0.648 1.602,-1.457 l 0,-12.773 C 37.004,19.961 36.281,20 35.402,20 l -22.828,0 c -0.219,0 -0.418,-0.008 -0.609,0 m 0,0"
             id="path55" />
          <path
             style="fill:#f9f9f9;fill-opacity:1;fill-rule:nonzero;stroke:none"
             inkscape:connector-curvature="0"
             d="M 15.05,13.402 11.8,18 l 11.199,0 0,-7 -5.512,0 c -0.809,0 -2.438,2.402 -2.438,2.402 M 24.99,11 l 0,7 11.184,0 -3.25,-4.598 c 0,0 -1.625,-2.402 -2.441,-2.402 m -5.492,0"
             id="path57" />
        </g>
      </g>
    </g>
    <g
       transform="matrix(0.85106383,0,0,0.85106383,3.1489362,3.1489362)"
       id="g59">
      <path
         style="opacity:0.1"
         inkscape:connector-curvature="0"
         d="m 40.03,7.531 c 3.712,4.084 5.969,9.514 5.969,15.469 0,12.703 -10.297,23 -23,23 C 17.045,46 11.615,43.744 7.53,40.031 11.708,44.322 17.54,47 23.999,47 c 12.703,0 23,-10.298 23,-23 0,-6.462 -2.677,-12.291 -6.969,-16.469 z"
         id="path61" />
    </g>
  </g>
</svg>
