<?xml version="1.0" encoding="UTF-8" standalone="no"?>
<!-- Created using Karbon, part of Calligra: http://www.calligra.org/karbon -->

<svg
   xmlns:dc="http://purl.org/dc/elements/1.1/"
   xmlns:cc="http://creativecommons.org/ns#"
   xmlns:rdf="http://www.w3.org/1999/02/22-rdf-syntax-ns#"
   xmlns:svg="http://www.w3.org/2000/svg"
   xmlns="http://www.w3.org/2000/svg"
   xmlns:sodipodi="http://sodipodi.sourceforge.net/DTD/sodipodi-0.dtd"
   xmlns:inkscape="http://www.inkscape.org/namespaces/inkscape"
   width="38.4pt"
   height="38.4pt"
   id="svg2"
   version="1.1"
   inkscape:version="0.91 r13725"
   sodipodi:docname="audiobook.svg">
  <metadata
     id="metadata11">
    <rdf:RDF>
      <cc:Work
         rdf:about="">
        <dc:format>image/svg+xml</dc:format>
        <dc:type
           rdf:resource="http://purl.org/dc/dcmitype/StillImage" />
        <dc:title />
      </cc:Work>
    </rdf:RDF>
  </metadata>
  <sodipodi:namedview
     pagecolor="#ffffff"
     bordercolor="#666666"
     borderopacity="1"
     objecttolerance="10"
     gridtolerance="10"
     guidetolerance="10"
     inkscape:pageopacity="0"
     inkscape:pageshadow="2"
     inkscape:window-width="3840"
     inkscape:window-height="2088"
     id="namedview9"
     showgrid="false"
     inkscape:zoom="8"
     inkscape:cx="-13.504313"
     inkscape:cy="23.520285"
     inkscape:window-x="0"
     inkscape:window-y="48"
     inkscape:window-maximized="1"
     inkscape:current-layer="svg2"
     inkscape:showpageshadow="false"
     borderlayer="true"
     showguides="true"
     inkscape:guide-bbox="true">
    <sodipodi:guide
       position="9.5367432e-07,48.000001"
       orientation="47.999999,0"
       id="guide4062" />
    <sodipodi:guide
       position="9.5367432e-07,1.9073486e-06"
       orientation="0,47.999999"
       id="guide4064" />
    <sodipodi:guide
       position="48,1.9073486e-06"
       orientation="-47.999999,0"
       id="guide4066" />
    <sodipodi:guide
       position="48,48.000001"
       orientation="0,-47.999999"
       id="guide4068" />
    <sodipodi:guide
       position="16,33.000001"
       orientation="1,0"
       id="guide4080" />
    <sodipodi:guide
       position="32,15.000002"
       orientation="1,0"
       id="guide4084" />
    <sodipodi:guide
       position="4.000001,44.000001"
       orientation="39.999999,0"
       id="guide4088" />
    <sodipodi:guide
       position="4.000001,4.0000019"
       orientation="0,39.999999"
       id="guide4090" />
    <sodipodi:guide
       position="44,4.0000019"
       orientation="-39.999999,0"
       id="guide4092" />
    <sodipodi:guide
       position="44,44.000001"
       orientation="0,-39.999999"
       id="guide4094" />
    <sodipodi:guide
       orientation="0,1"
       position="16,14"
       id="guide3005" />
    <sodipodi:guide
       orientation="0,1"
       position="16,24"
       id="guide3009" />
  </sodipodi:namedview>
  <defs
     id="defs4">
    <clipPath
       id="clipPath16"
       clipPathUnits="userSpaceOnUse">
      <path
         id="path18"
         d="m 0,706.465 1490.926,0 L 1490.926,0 0,0 0,706.465 Z" />
    </clipPath>
    <clipPath
       id="clipPath24"
       clipPathUnits="userSpaceOnUse">
      <path
         id="path26"
         d="m 22.1953,686.117 1447.7347,0 0,-667.1902 -1447.7347,0 L 22.1953,686.117 Z" />
    </clipPath>
    <clipPath
       id="clipPath-608500842">
      <g
         transform="translate(0,-1004.3622)"
         id="g7">
        <path
           style="fill:#1890d0"
           inkscape:connector-curvature="0"
           d="m -24,13 c 0,1.105 -0.672,2 -1.5,2 -0.828,0 -1.5,-0.895 -1.5,-2 0,-1.105 0.672,-2 1.5,-2 0.828,0 1.5,0.895 1.5,2 z"
           transform="matrix(15.333333,0,0,11.5,414.99999,878.8622)"
           id="path9" />
      </g>
    </clipPath>
    <linearGradient
       id="linearGradient3157"
       gradientUnits="userSpaceOnUse"
       gradientTransform="matrix(0,-0.85106383,0.85106383,0,3.1489352,43.999998)"
       x1="1"
       x2="47">
      <stop
         stop-color="#434343"
         stop-opacity="1"
         id="stop18" />
      <stop
         offset="1"
         stop-color="#4d4d4d"
         stop-opacity="1"
         id="stop20" />
    </linearGradient>
    <clipPath
       id="clipPath-438417160">
      <g
         transform="translate(0,-1004.3622)"
         id="g17">
        <path
           style="fill:#1890d0"
           inkscape:connector-curvature="0"
           d="m -24,13 c 0,1.105 -0.672,2 -1.5,2 -0.828,0 -1.5,-0.895 -1.5,-2 0,-1.105 0.672,-2 1.5,-2 0.828,0 1.5,0.895 1.5,2 z"
           transform="matrix(15.333333,0,0,11.5,414.99999,878.8622)"
           id="path19" />
      </g>
    </clipPath>
    <clipPath
       id="clipPath-426297247">
      <g
         transform="translate(0,-1004.3622)"
         id="g12">
        <path
           style="fill:#1890d0"
           inkscape:connector-curvature="0"
           d="m -24,13 c 0,1.105 -0.672,2 -1.5,2 -0.828,0 -1.5,-0.895 -1.5,-2 0,-1.105 0.672,-2 1.5,-2 0.828,0 1.5,0.895 1.5,2 z"
           transform="matrix(15.333333,0,0,11.5,414.99999,878.8622)"
           id="path14" />
      </g>
    </clipPath>
    <linearGradient
       id="linearGradient3764"
       x1="1"
       x2="47"
       gradientUnits="userSpaceOnUse"
       gradientTransform="matrix(0,-1,1,0,-1.5e-6,47.999998)">
      <stop
         stop-color="#bd3c39"
         stop-opacity="1"
         id="stop7" />
      <stop
         offset="1"
         stop-color="#c64844"
         stop-opacity="1"
         id="stop9" />
    </linearGradient>
  </defs>
  <g
     transform="matrix(1.4183497,0,0,1.4183497,-10.373457,-10.341208)"
     id="g53"
     style="fill:#c1413e;fill-opacity:1">
    <g
       clip-path="url(#clipPath-438417160)"
       id="g55"
       style="fill:#c1413e;fill-opacity:1">
      <!-- color: #c64844 -->
      <g
         id="g57"
         style="fill:#c1413e;fill-opacity:1">
        <path
           style="fill:#c1413e;fill-opacity:1;fill-rule:nonzero;stroke:none"
           inkscape:connector-curvature="0"
           d="m 16,11 c -1.309,0 -1.617,1.188 -1.617,1.188 l 0,2.25 c 0,0.023 0,0.043 0,0.063 l 0,19.984 c 0,1.309 2.102,2.516 2.617,2.516 l 15.633,0 c 0.516,0 0.984,-0.344 0.984,-0.855 l 0,-22.14 c 0,-0.523 -0.469,-1 -0.984,-1 -3.508,-0.023 -14.633,0 -14.633,0 l -2,-1 c 4.914,-0.043 10.988,0 16,0 0.656,0 -0.77,-1 -1.426,-1 M 18,15.002 l 14,0 0,20 -14,0 m 0,-20"
           id="path59" />
        <path
           style="fill:#c1413e;fill-opacity:1;fill-rule:nonzero;stroke:none"
           inkscape:connector-curvature="0"
           d="m 20,24 0,4 1.375,0 3.625,4 0,-12 -3.625,4 M 20,24"
           id="path61" />
        <path
           style="fill:#c1413e;fill-opacity:1;fill-rule:nonzero;stroke:none"
           inkscape:connector-curvature="0"
           d="m 25.891,22.688 -0.215,0.641 c 0,0 1.82,0.594 1.82,2.422 0,1.824 -1.82,2.418 -1.82,2.418 l 0.215,0.645 c 0,0 2.289,-0.781 2.289,-3.063 0,-2.285 -2.289,-3.063 -2.289,-3.063 m 0,0"
           id="path63" />
        <path
           style="fill:#c1413e;fill-opacity:1;fill-rule:nonzero;stroke:none"
           inkscape:connector-curvature="0"
           d="m 26.309,20.5 -0.367,1.102 c 0,0 3.117,1.016 3.117,4.148 0,3.133 -3.117,4.148 -3.117,4.148 L 26.309,31 c 0,0 3.926,-1.336 3.926,-5.25 0,-3.918 -3.926,-5.25 -3.926,-5.25 m 0,0"
           id="path65" />
      </g>
    </g>
  </g>
</svg>
