<?xml version="1.0" encoding="UTF-8" standalone="no"?>
<!-- Created with Inkscape (http://www.inkscape.org/) -->

<svg
   xmlns:dc="http://purl.org/dc/elements/1.1/"
   xmlns:cc="http://creativecommons.org/ns#"
   xmlns:rdf="http://www.w3.org/1999/02/22-rdf-syntax-ns#"
   xmlns:svg="http://www.w3.org/2000/svg"
   xmlns="http://www.w3.org/2000/svg"
   xmlns:sodipodi="http://sodipodi.sourceforge.net/DTD/sodipodi-0.dtd"
   xmlns:inkscape="http://www.inkscape.org/namespaces/inkscape"
   width="48"
   height="48"
   id="svg2"
   version="1.1"
   inkscape:version="0.91 r13725"
   viewBox="0 0 47.999998 48.000001"
   sodipodi:docname="beryl.svg"
   inkscape:export-filename="/home/pacomaro/.icons/flattr/apps/22/banshee.png"
   inkscape:export-xdpi="41.25"
   inkscape:export-ydpi="41.25">
  <defs
     id="defs4">
    <clipPath
       id="clipPath-137054130">
      <g
         transform="translate(0,-1004.3622)"
         id="g17">
        <path
           style="fill:#1890d0"
           inkscape:connector-curvature="0"
           d="m -24,13 c 0,1.105 -0.672,2 -1.5,2 -0.828,0 -1.5,-0.895 -1.5,-2 0,-1.105 0.672,-2 1.5,-2 0.828,0 1.5,0.895 1.5,2 z"
           transform="matrix(15.333333,0,0,11.5,414.99999,878.8622)"
           id="path19" />
      </g>
    </clipPath>
    <linearGradient
       id="linear0"
       gradientUnits="userSpaceOnUse"
       x1="23.295"
       y1="36.865002"
       x2="23.667999"
       y2="3.6210001">
      <stop
         stop-color="#db3434"
         stop-opacity="1"
         id="stop22" />
      <stop
         offset="1"
         stop-color="#fb5b5b"
         stop-opacity="1"
         id="stop24" />
    </linearGradient>
    <clipPath
       id="clipPath-124071972">
      <g
         transform="translate(0,-1004.3622)"
         id="g12">
        <path
           style="fill:#1890d0"
           inkscape:connector-curvature="0"
           d="m -24,13 c 0,1.105 -0.672,2 -1.5,2 -0.828,0 -1.5,-0.895 -1.5,-2 0,-1.105 0.672,-2 1.5,-2 0.828,0 1.5,0.895 1.5,2 z"
           transform="matrix(15.333333,0,0,11.5,414.99999,878.8622)"
           id="path14" />
      </g>
    </clipPath>
    <linearGradient
       id="linearGradient3764"
       x1="1"
       x2="47"
       gradientUnits="userSpaceOnUse"
       gradientTransform="matrix(0,-1,1,0,-1.5e-6,47.999998)">
      <stop
         stop-color="#4467b8"
         stop-opacity="1"
         id="stop7" />
      <stop
         offset="1"
         stop-color="#5173bf"
         stop-opacity="1"
         id="stop9" />
    </linearGradient>
  </defs>
  <sodipodi:namedview
     id="base"
     pagecolor="#ffffff"
     bordercolor="#666666"
     borderopacity="1.0"
     inkscape:pageopacity="0.0"
     inkscape:pageshadow="2"
     inkscape:zoom="11.2"
     inkscape:cx="33.985659"
     inkscape:cy="-0.11662426"
     inkscape:document-units="px"
     inkscape:current-layer="layer1"
     showgrid="false"
     borderlayer="true"
     inkscape:showpageshadow="false"
     units="px"
     inkscape:window-width="3840"
     inkscape:window-height="2088"
     inkscape:window-x="0"
     inkscape:window-y="48"
     inkscape:window-maximized="1">
    <sodipodi:guide
       position="9.0000004,39.000018"
       orientation="29.999999,0"
       id="guide3266" />
    <sodipodi:guide
       position="9.0000004,9.0000182"
       orientation="0,30"
       id="guide3268" />
    <sodipodi:guide
       position="39.000001,9.0000182"
       orientation="-29.999999,0"
       id="guide3270" />
    <sodipodi:guide
       position="39.000001,39.000018"
       orientation="0,-30"
       id="guide3272" />
    <sodipodi:guide
       position="4.0000005,44.000017"
       orientation="39.999999,0"
       id="guide3276" />
    <sodipodi:guide
       position="4.0000005,4.0000183"
       orientation="0,40"
       id="guide3278" />
    <sodipodi:guide
       position="44.000001,4.0000183"
       orientation="-39.999999,0"
       id="guide3280" />
    <sodipodi:guide
       position="44.000001,44.000017"
       orientation="0,-40"
       id="guide3282" />
    <sodipodi:guide
       position="15,33.000018"
       orientation="18,0"
       id="guide4157" />
    <sodipodi:guide
       position="15,15.000018"
       orientation="0,18.000001"
       id="guide4159" />
    <sodipodi:guide
       position="33.000001,15.000018"
       orientation="-18,0"
       id="guide4161" />
    <sodipodi:guide
       position="33.000001,33.000018"
       orientation="0,-18.000001"
       id="guide4163" />
  </sodipodi:namedview>
  <metadata
     id="metadata7">
    <rdf:RDF>
      <cc:Work
         rdf:about="">
        <dc:format>image/svg+xml</dc:format>
        <dc:type
           rdf:resource="http://purl.org/dc/dcmitype/StillImage" />
        <dc:title />
      </cc:Work>
    </rdf:RDF>
  </metadata>
  <g
     inkscape:label="Capa 1"
     inkscape:groupmode="layer"
     id="layer1"
     transform="translate(0,-1004.3622)">
    <g
       transform="matrix(1.5397843,0,0,1.5397843,-12.12625,993.39917)"
       id="g74">
      <g
         clip-path="url(#clipPath-137054130)"
         id="g76">
        <!-- color: #5173bf -->
        <g
           id="g78">
          <path
             style="fill:url(#linear0);fill-rule:nonzero;stroke:none"
             inkscape:connector-curvature="0"
             d="m 11.676,33.578 7.848,-19.395 4.277,-2.742 4.086,2.23 6.699,7.977 0.703,7.277 -2.68,3.379 m -20.934,1.273"
             id="path80" />
          <path
             style="fill:#b12f0b;fill-opacity:1;fill-rule:nonzero;stroke:none"
             inkscape:connector-curvature="0"
             d="m 23.781,11.156 -0.121,0.066 -4.281,2.75 -0.063,0.031 -0.035,0.09 -7.844,19.41 -0.156,0.34 0.406,0 20.938,-1.281 0.094,-0.031 0.094,-0.063 2.656,-3.406 0.063,-0.063 0,-0.094 -0.688,-7.281 -0.031,-0.094 -0.031,-0.031 -6.719,-8 L 28,13.436 23.906,11.217 m -0.09,0.504 3.875,2.125 6.656,7.906 0.688,7.113 -2.563,3.191 -20.402,1.25 7.656,-18.941 4.09,-2.648 m 0,0.004"
             id="path82" />
          <path
             style="fill:#b12f0b;fill-opacity:1;fill-rule:nonzero;stroke:none"
             inkscape:connector-curvature="0"
             d="m 19.281,14.625 -0.063,7.629 -7.469,11.06 0.406,0.281 7.504,-11.09 0.063,-0.063 0,-0.094 0.063,-7.719 m -0.504,0"
             id="path84" />
          <path
             style="fill:#b12f0b;fill-opacity:1;fill-rule:nonzero;stroke:none"
             inkscape:connector-curvature="0"
             d="m 25.688,14 -0.344,4.75 -5.875,3.723 -0.25,0.121 0.188,0.223 5.281,6.781 -12.594,3.406 0.125,0.465 13,-3.469 0.344,-0.09 -0.223,-0.313 -5.375,-6.875 5.754,-3.594 0.09,-0.063 0.031,-0.156 0.344,-4.875 -0.5,-0.031 m 0.004,-0.004"
             id="path86" />
          <path
             style="fill:#b12f0b;fill-opacity:1;fill-rule:nonzero;stroke:none"
             inkscape:connector-curvature="0"
             d="m 27.969,13.594 -8.566,0.563 0.031,0.5 L 28,14.091 m -0.031,-0.496"
             id="path88" />
          <path
             style="fill:#b12f0b;fill-opacity:1;fill-rule:nonzero;stroke:none"
             inkscape:connector-curvature="0"
             d="m 25.75,18.844 -0.438,0.25 3.219,5.469 -3.344,5.188 0.406,0.25 3.469,-5.277 0.063,-0.125 -0.063,-0.125 -3.313,-5.625 m 0,-0.004"
             id="path90" />
          <path
             style="fill:#b12f0b;fill-opacity:1;fill-rule:nonzero;stroke:none"
             inkscape:connector-curvature="0"
             d="m 34.16,21.473 -1.996,10.734 0.5,0.094 1.996,-10.734 m -0.5,-0.094"
             id="path92" />
          <path
             style="fill:#b12f0b;fill-opacity:1;fill-rule:nonzero;stroke:none"
             inkscape:connector-curvature="0"
             d="m 29.06,24.406 -0.188,0.469 4.5,1.594 L 33.56,26 m -4.5,-1.594"
             id="path94" />
          <path
             style="fill:#b12f0b;fill-opacity:1;fill-rule:nonzero;stroke:none"
             inkscape:connector-curvature="0"
             d="m 25.355,29.566 -0.332,0.441 2.438,1.883 1.219,0.887 0.332,-0.445 -1.328,-0.887 -2.324,-1.879 m -0.004,0"
             id="path96" />
        </g>
      </g>
    </g>
  </g>
</svg>
