<?xml version="1.0" encoding="UTF-8" standalone="no"?>
<svg
   xmlns:dc="http://purl.org/dc/elements/1.1/"
   xmlns:cc="http://creativecommons.org/ns#"
   xmlns:rdf="http://www.w3.org/1999/02/22-rdf-syntax-ns#"
   xmlns:svg="http://www.w3.org/2000/svg"
   xmlns="http://www.w3.org/2000/svg"
   xmlns:sodipodi="http://sodipodi.sourceforge.net/DTD/sodipodi-0.dtd"
   xmlns:inkscape="http://www.inkscape.org/namespaces/inkscape"
   width="48"
   viewBox="0 0 13.546667 13.546667"
   height="48"
   id="svg2"
   version="1.1"
   inkscape:version="0.91 r13725"
   sodipodi:docname="bitdefender.svg">
  <metadata
     id="metadata28">
    <rdf:RDF>
      <cc:Work
         rdf:about="">
        <dc:format>image/svg+xml</dc:format>
        <dc:type
           rdf:resource="http://purl.org/dc/dcmitype/StillImage" />
      </cc:Work>
    </rdf:RDF>
  </metadata>
  <sodipodi:namedview
     pagecolor="#ffffff"
     bordercolor="#666666"
     borderopacity="1"
     objecttolerance="10"
     gridtolerance="10"
     guidetolerance="10"
     inkscape:pageopacity="0"
     inkscape:pageshadow="2"
     inkscape:window-width="3840"
     inkscape:window-height="2088"
     id="namedview26"
     showgrid="true"
     inkscape:zoom="16"
     inkscape:cx="-24.473343"
     inkscape:cy="47.660826"
     inkscape:window-x="0"
     inkscape:window-y="48"
     inkscape:window-maximized="1"
     inkscape:current-layer="svg2"
     inkscape:object-nodes="true">
    <inkscape:grid
       type="xygrid"
       id="grid3352" />
  </sodipodi:namedview>
  <defs
     id="defs4" />
  <path
     d="M 6.5512087,0.75261798 4.0412572,6.9849889 12.101383,7.9962792 c 0.0056,-0.018996 0.0064,-0.039713 0.01187,-0.058797 L 5.9266667,5.08 6.5747762,0.75261798 c -0.00785,6.65e-5 -0.015658,-1.7938e-4 -0.023566,0 z M 8.4601859,1.1759486 c -0.041114,0.0072 -0.079965,0.051794 -0.094271,0.047039 L 6.6454784,4.5861151 11.740503,7.3113072 c 0.132172,-0.00582 0.127777,-0.085131 0.07806,-0.1616886 L 8.3423474,3.9863957 8.554456,1.3405777 C 8.5446756,1.2018406 8.5012985,1.1687388 8.4601848,1.175949 Z M 4.3829878,1.2465036 C 2.4047045,2.1256658 1.0246022,4.0964911 1.0246022,6.3970291 c 0,3.1173225 2.5323798,5.6444109 5.6562284,5.6444109 2.320331,0 4.3125954,-1.391886 5.1848764,-3.3866462 l -8.8378573,0 z M 9.5089443,1.8227041 8.8844031,3.7394522 11.69383,6.4587396 c 0.08033,0.1173588 0.525708,0.1882513 0.619661,-0.1557834 0,-1.8430619 -0.858415,-3.3812071 -2.22714,-4.4096965 C 9.7673003,1.7285621 9.5610443,1.6896665 9.5089443,1.8227037 Z"
     id="path24"
     inkscape:connector-curvature="0"
     style="fill:#4d4d4d;fill-opacity:1" />
  <rect
     style="fill:none;stroke:none"
     id="rect1526"
     width="11.288889"
     height="11.288889"
     x="1.1288882"
     y="1.1288865"
     ry="0" />
</svg>
