<?xml version="1.0" encoding="UTF-8" standalone="no"?>
<!-- Created using Karbon, part of Calligra: http://www.calligra.org/karbon -->

<svg
   xmlns:dc="http://purl.org/dc/elements/1.1/"
   xmlns:cc="http://creativecommons.org/ns#"
   xmlns:rdf="http://www.w3.org/1999/02/22-rdf-syntax-ns#"
   xmlns:svg="http://www.w3.org/2000/svg"
   xmlns="http://www.w3.org/2000/svg"
   xmlns:sodipodi="http://sodipodi.sourceforge.net/DTD/sodipodi-0.dtd"
   xmlns:inkscape="http://www.inkscape.org/namespaces/inkscape"
   width="38.4pt"
   height="38.4pt"
   id="svg2"
   version="1.1"
   inkscape:version="0.48.5 r10040"
   sodipodi:docname="bum.svg">
  <metadata
     id="metadata11">
    <rdf:RDF>
      <cc:Work
         rdf:about="">
        <dc:format>image/svg+xml</dc:format>
        <dc:type
           rdf:resource="http://purl.org/dc/dcmitype/StillImage" />
        <dc:title />
      </cc:Work>
    </rdf:RDF>
  </metadata>
  <sodipodi:namedview
     pagecolor="#ffffff"
     bordercolor="#666666"
     borderopacity="1"
     objecttolerance="10"
     gridtolerance="10"
     guidetolerance="10"
     inkscape:pageopacity="0"
     inkscape:pageshadow="2"
     inkscape:window-width="1920"
     inkscape:window-height="1035"
     id="namedview9"
     showgrid="false"
     inkscape:showpageshadow="false"
     borderlayer="true"
     inkscape:zoom="6.9532164"
     inkscape:cx="3.3003812"
     inkscape:cy="24.178715"
     inkscape:window-x="-4"
     inkscape:window-y="29"
     inkscape:window-maximized="1"
     inkscape:current-layer="svg2">
    <sodipodi:guide
       position="9.5367432e-07,48.000001"
       orientation="47.999999,0"
       id="guide4067" />
    <sodipodi:guide
       position="9.5367432e-07,1.9073486e-06"
       orientation="0,47.999999"
       id="guide4069" />
    <sodipodi:guide
       position="48,1.9073486e-06"
       orientation="-47.999999,0"
       id="guide4071" />
    <sodipodi:guide
       position="48,48.000001"
       orientation="0,-47.999999"
       id="guide4073" />
    <sodipodi:guide
       position="4.000001,44.000001"
       orientation="39.999999,0"
       id="guide4133" />
    <sodipodi:guide
       position="4.000001,4.0000019"
       orientation="0,39.999999"
       id="guide4135" />
    <sodipodi:guide
       position="44,4.0000019"
       orientation="-39.999999,0"
       id="guide4137" />
    <sodipodi:guide
       position="44,44.000001"
       orientation="0,-39.999999"
       id="guide4139" />
  </sodipodi:namedview>
  <defs
     id="defs4" />
  <rect
     style="fill:#2e6f9a;fill-rule:evenodd;stroke:none;fill-opacity:1"
     y="4.000001"
     x="4.000001"
     ry="20"
     height="40"
     width="40"
     stroke-miterlimit="2.01260185242"
     id="shape01" />
  <g
     transform="matrix(0.53485334,0,0,-0.53485334,-3824.9384,4002.7863)"
     id="g1868"
     style="fill:#1abc9c;fill-opacity:1">
    <path
       d="m 7204.375,7459.5542 -16.25,0 3.625,12.188 9,0 3.625,-12.188 z"
       style="fill:#1abc9c;fill-opacity:1;fill-rule:nonzero;stroke:none"
       id="path88"
       inkscape:connector-curvature="0" />
    <path
       d="m 7188.125,7418.4917 16.25,0 -3.625,-12.188 -9,0 -3.625,12.188 z"
       style="fill:#1abc9c;fill-opacity:1;fill-rule:nonzero;stroke:none"
       id="path92"
       inkscape:connector-curvature="0" />
    <path
       d="m 7216.7813,7431.1807 0,16.25 12.188,-3.625 0,-9 -12.188,-3.625 z"
       style="fill:#1abc9c;fill-opacity:1;fill-rule:nonzero;stroke:none"
       id="path96"
       inkscape:connector-curvature="0" />
    <path
       d="m 7175.7188,7447.4307 0,-16.25 -12.188,3.625 0,9 12.188,3.625 z"
       style="fill:#1abc9c;fill-opacity:1;fill-rule:nonzero;stroke:none"
       id="path100"
       inkscape:connector-curvature="0" />
    <path
       d="m 7187.6025,7459.4111 -11.491,-11.491 -6.054,11.181 6.364,6.365 11.181,-6.055 z"
       style="fill:#1abc9c;fill-opacity:1;fill-rule:nonzero;stroke:none"
       id="path104"
       inkscape:connector-curvature="0" />
    <path
       d="m 7205.1475,7418.8848 11.49,11.491 6.055,-11.181 -6.363,-6.365 -11.182,6.055 z"
       style="fill:#1abc9c;fill-opacity:1;fill-rule:nonzero;stroke:none"
       id="path108"
       inkscape:connector-curvature="0" />
    <path
       d="m 7216.3877,7447.9204 -11.49,11.491 11.181,6.054 6.364,-6.364 -6.055,-11.181 z"
       style="fill:#1abc9c;fill-opacity:1;fill-rule:nonzero;stroke:none"
       id="path112"
       inkscape:connector-curvature="0" />
    <path
       d="m 7175.8618,7430.3755 11.491,-11.491 -11.181,-6.054 -6.364,6.364 6.054,11.181 z"
       style="fill:#1abc9c;fill-opacity:1;fill-rule:nonzero;stroke:none"
       id="path116"
       inkscape:connector-curvature="0" />
    <path
       d="m 7196.5156,7427.0972 c -6.75,0 -12.225,5.474 -12.225,12.224 0,6.751 5.475,12.225 12.225,12.225 6.751,0 12.223,-5.474 12.223,-12.225 0,-6.75 -5.472,-12.224 -12.223,-12.224 m -0.266,37.47 c -14.088,0 -25.512,-11.423 -25.512,-25.512 0,-14.088 11.424,-25.512 25.512,-25.512 14.087,0 25.512,11.424 25.512,25.512 0,14.089 -11.425,25.512 -25.512,25.512"
       style="fill:#1abc9c;fill-opacity:1;fill-rule:nonzero;stroke:none"
       id="path120"
       inkscape:connector-curvature="0" />
  </g>
</svg>
