<?xml version="1.0" encoding="UTF-8" standalone="no"?>
<!-- Created using Karbon, part of Calligra: http://www.calligra.org/karbon -->

<svg
   xmlns:dc="http://purl.org/dc/elements/1.1/"
   xmlns:cc="http://creativecommons.org/ns#"
   xmlns:rdf="http://www.w3.org/1999/02/22-rdf-syntax-ns#"
   xmlns:svg="http://www.w3.org/2000/svg"
   xmlns="http://www.w3.org/2000/svg"
   xmlns:sodipodi="http://sodipodi.sourceforge.net/DTD/sodipodi-0.dtd"
   xmlns:inkscape="http://www.inkscape.org/namespaces/inkscape"
   width="38.4pt"
   height="38.4pt"
   id="svg2"
   version="1.1"
   inkscape:version="0.48.5 r10040"
   sodipodi:docname="ccc_large.svg">
  <metadata
     id="metadata15">
    <rdf:RDF>
      <cc:Work
         rdf:about="">
        <dc:format>image/svg+xml</dc:format>
        <dc:type
           rdf:resource="http://purl.org/dc/dcmitype/StillImage" />
        <dc:title />
      </cc:Work>
    </rdf:RDF>
  </metadata>
  <sodipodi:namedview
     pagecolor="#ffffff"
     bordercolor="#666666"
     borderopacity="1"
     objecttolerance="10"
     gridtolerance="10"
     guidetolerance="10"
     inkscape:pageopacity="0"
     inkscape:pageshadow="2"
     inkscape:window-width="1920"
     inkscape:window-height="1035"
     id="namedview13"
     showgrid="false"
     borderlayer="true"
     inkscape:showpageshadow="false"
     inkscape:zoom="4.9166665"
     inkscape:cx="48.465855"
     inkscape:cy="-11.045258"
     inkscape:window-x="-4"
     inkscape:window-y="29"
     inkscape:window-maximized="1"
     inkscape:current-layer="svg2">
    <sodipodi:guide
       position="9.5367432e-07,48.000001"
       orientation="47.999999,0"
       id="guide4073" />
    <sodipodi:guide
       position="9.5367432e-07,1.9073486e-06"
       orientation="0,47.999999"
       id="guide4075" />
    <sodipodi:guide
       position="48,1.9073486e-06"
       orientation="-47.999999,0"
       id="guide4077" />
    <sodipodi:guide
       position="48,48.000001"
       orientation="0,-47.999999"
       id="guide4079" />
    <sodipodi:guide
       position="4.000001,44.000001"
       orientation="39.999999,0"
       id="guide4081" />
    <sodipodi:guide
       position="4.000001,4.0000019"
       orientation="0,39.999999"
       id="guide4083" />
    <sodipodi:guide
       position="44,4.0000019"
       orientation="-39.999999,0"
       id="guide4085" />
    <sodipodi:guide
       position="44,44.000001"
       orientation="0,-39.999999"
       id="guide4087" />
  </sodipodi:namedview>
  <defs
     id="defs4" />
  <rect
     style="fill:#b12323;fill-opacity:1;stroke:none"
     id="rect4089"
     width="40"
     height="40"
     x="4.000001"
     y="4.000001"
     ry="20" />
  <path
     style="color:#000000;fill:#ffffff;fill-opacity:1;fill-rule:nonzero;stroke:none;stroke-width:0.5;marker:none;visibility:visible;display:inline;overflow:visible;enable-background:accumulate"
     id="rect3868"
     inkscape:connector-curvature="0"
     d="m 16.029765,21.213272 c -0.21858,0.17142 -0.38548,0.40154 -0.47681,0.67603 -0.0328,0.0959 -0.0632,0.18909 -0.0753,0.28921 l -1.466928,12.19857 c -0.0964,0.79689 0.467479,1.51583 1.264378,1.61219 0.796889,0.0964 1.515837,-0.46748 1.612187,-1.26437 l 1.061978,-8.71616 3.199345,4.07948 c 0.495359,0.63162 1.402638,0.74132 2.034257,0.24597 0.631628,-0.49536 0.741328,-1.40264 0.245969,-2.03426 L 18.064,21.459242 c -0.0622,-0.0793 -0.13074,-0.14569 -0.208329,-0.21064 -0.067,-0.057 -0.13269,-0.11102 -0.20713,-0.15405 -0.16343,-0.0934 -0.35055,-0.16332 -0.549769,-0.18741 -0.19035,-0.023 -0.37976,-5.8e-4 -0.553809,0.0459 -0.0908,0.0248 -0.17644,0.0621 -0.26267,0.1053 -0.0909,0.0446 -0.173259,0.0927 -0.252529,0.15492 z m 2.850285,-2.23536 c -0.631629,0.49535 -0.741329,1.40263 -0.24598,2.03426 0.495359,0.63162 1.402638,0.74132 2.034257,0.24597 l 1.140118,-0.89414 4.470702,5.70057 c 0.495359,0.63163 1.402638,0.74133 2.034257,0.24597 0.631619,-0.49535 0.741329,-1.40263 0.245969,-2.03425 l -4.470702,-5.70058 1.140108,-0.89414 c 0.631629,-0.49536 0.741329,-1.40264 0.24597,-2.03426 -0.49535,-0.63163 -1.402628,-0.74133 -2.034247,-0.24597 l -2.280226,1.78828 -2.280226,1.78829 z m 7.410727,-5.81193 c -0.631619,0.49535 -0.741319,1.40263 -0.245969,2.03426 l 5.364851,6.84069 c 0.495359,0.63162 1.402637,0.74133 2.034256,0.24597 0.631619,-0.49535 0.741329,-1.40263 0.24597,-2.03426 l -5.364851,-6.84069 c -0.495349,-0.63162 -1.402628,-0.74133 -2.034257,-0.24597 z m 0.22354,0.28503 c 0.472249,-0.37037 1.155328,-0.28777 1.525687,0.18448 0.37037,0.47225 0.28777,1.15533 -0.184479,1.52569 -0.47225,0.37037 -1.155318,0.28777 -1.525688,-0.18448 -0.370359,-0.47225 -0.287769,-1.15532 0.18448,-1.52569 z m -8.294076,15.25112 c -0.472249,0.37036 -0.554839,1.05344 -0.18448,1.52569 0.37037,0.47225 1.053448,0.55485 1.525698,0.18448 0.472249,-0.37036 0.554839,-1.05344 0.184479,-1.52569 -0.370369,-0.47225 -1.053448,-0.55485 -1.525697,-0.18448 z" />
</svg>
