<?xml version="1.0" encoding="UTF-8" standalone="no"?>
<!-- Created with Inkscape (http://www.inkscape.org/) -->

<svg
   xmlns:dc="http://purl.org/dc/elements/1.1/"
   xmlns:cc="http://creativecommons.org/ns#"
   xmlns:rdf="http://www.w3.org/1999/02/22-rdf-syntax-ns#"
   xmlns:svg="http://www.w3.org/2000/svg"
   xmlns="http://www.w3.org/2000/svg"
   xmlns:xlink="http://www.w3.org/1999/xlink"
   xmlns:sodipodi="http://sodipodi.sourceforge.net/DTD/sodipodi-0.dtd"
   xmlns:inkscape="http://www.inkscape.org/namespaces/inkscape"
   width="48"
   height="48"
   id="svg2"
   version="1.1"
   inkscape:version="0.48.5 r10040"
   sodipodi:docname="cedega.svg">
  <defs
     id="defs4">
    <radialGradient
       inkscape:collect="always"
       xlink:href="#linearGradient9686"
       id="radialGradient3044"
       gradientUnits="userSpaceOnUse"
       gradientTransform="matrix(2.6715617,-0.97236813,1.1236326,3.0871578,18.434284,854.35482)"
       cx="44.814384"
       cy="20.096273"
       fx="44.814384"
       fy="20.096273"
       r="11.375441" />
    <linearGradient
       id="linearGradient9686">
      <stop
         style="stop-color:#ffffff;stop-opacity:0.74901962;"
         offset="0"
         id="stop9688" />
      <stop
         style="stop-color:#ffffff;stop-opacity:0;"
         offset="1"
         id="stop9690" />
    </linearGradient>
  </defs>
  <sodipodi:namedview
     id="base"
     pagecolor="#ffffff"
     bordercolor="#666666"
     borderopacity="1.0"
     inkscape:pageopacity="0.0"
     inkscape:pageshadow="2"
     inkscape:zoom="8.0624999"
     inkscape:cx="21.230717"
     inkscape:cy="32.04139"
     inkscape:document-units="px"
     inkscape:current-layer="layer1"
     showgrid="false"
     inkscape:window-width="1920"
     inkscape:window-height="1035"
     inkscape:window-x="-4"
     inkscape:window-y="29"
     inkscape:window-maximized="1"
     inkscape:object-paths="true">
    <sodipodi:guide
       position="4,44.000017"
       orientation="40,0"
       id="guide4081" />
    <sodipodi:guide
       position="4,4.0000174"
       orientation="0,40"
       id="guide4083" />
    <sodipodi:guide
       position="44,4.0000174"
       orientation="-40,0"
       id="guide4085" />
    <sodipodi:guide
       position="44,44.000017"
       orientation="0,-40"
       id="guide4087" />
    <sodipodi:guide
       position="9,39.000017"
       orientation="30,0"
       id="guide4093" />
    <sodipodi:guide
       position="9,9.0000174"
       orientation="0,30"
       id="guide4095" />
    <sodipodi:guide
       position="39,9.0000174"
       orientation="-30,0"
       id="guide4097" />
    <sodipodi:guide
       position="39,39.000017"
       orientation="0,-30"
       id="guide4099" />
    <sodipodi:guide
       position="15,33.000017"
       orientation="18,0"
       id="guide4103" />
    <sodipodi:guide
       position="15,15.000017"
       orientation="0,18"
       id="guide4105" />
    <sodipodi:guide
       position="33,15.000017"
       orientation="-18,0"
       id="guide4107" />
    <sodipodi:guide
       position="33,33.000017"
       orientation="0,-18"
       id="guide4109" />
  </sodipodi:namedview>
  <metadata
     id="metadata7">
    <rdf:RDF>
      <cc:Work
         rdf:about="">
        <dc:format>image/svg+xml</dc:format>
        <dc:type
           rdf:resource="http://purl.org/dc/dcmitype/StillImage" />
        <dc:title />
      </cc:Work>
    </rdf:RDF>
  </metadata>
  <g
     inkscape:label="Capa 1"
     inkscape:groupmode="layer"
     id="layer1"
     transform="translate(0,-1004.3622)">
    <g
       transform="matrix(0.16620594,0,0,0.16620594,1.7230882,874.69486)"
       id="g3015">
      <path
         sodipodi:type="arc"
         style="fill:#92cf44;fill-opacity:1;fill-rule:nonzero;stroke:none"
         id="path7763"
         sodipodi:cx="24.336786"
         sodipodi:cy="4.0272045"
         sodipodi:rx="6.7795334"
         sodipodi:ry="6.7795334"
         d="m 31.11632,4.0272045 c 0,3.7442329 -3.035301,6.7795335 -6.779534,6.7795335 -3.744233,0 -6.779533,-3.0353006 -6.779533,-6.7795335 0,-3.74423289 3.0353,-6.7795334 6.779533,-6.7795334 3.744233,0 6.779534,3.03530051 6.779534,6.7795334 z"
         transform="matrix(4.7847412,-1.7415019,1.7415019,4.7847412,-35.583771,861.8736)" />
      <path
         style="fill:url(#radialGradient3044);fill-opacity:1;fill-rule:nonzero;stroke:none"
         d="m 122.61713,861.31993 6.43623,17.68338 -19.48553,7.09215 c 0.40858,1.40355 0.89619,2.8127 1.40419,4.20841 1.32989,3.65382 2.93612,7.09946 4.79559,10.37217 18.28418,-6.22801 37.6871,-2.18909 51.8911,9.04754 l 38.1826,-13.89732 c -0.0229,-0.0293 -0.0181,-0.0833 -0.041,-0.1127 -0.17452,-0.22076 -0.33585,-0.4875 -0.51222,-0.70644 -0.0544,-0.0677 -0.14006,-0.11671 -0.19464,-0.18427 -0.36287,-0.44817 -0.72548,-0.81885 -1.09609,-1.25926 -0.0797,-0.0949 -0.15555,-0.2025 -0.23563,-0.29689 -0.0674,-0.0795 -0.16788,-0.21772 -0.2356,-0.29691 -0.0562,-0.0659 -0.13812,-0.11864 -0.19464,-0.18427 -0.11581,-0.13485 -0.16006,-0.27551 -0.27661,-0.40954 -0.10823,-0.12444 -0.28046,-0.24473 -0.38925,-0.36854 -0.37528,-0.42655 -0.71354,-0.84046 -1.0961,-1.25925 -0.0888,-0.0972 -0.25914,-0.15912 -0.34824,-0.25592 -0.0464,-0.0499 -0.0357,-0.17527 -0.0819,-0.22526 -0.0837,-0.0905 -0.15153,-0.20673 -0.23562,-0.2969 -0.12087,-0.1295 -0.26774,-0.23983 -0.38925,-0.36854 -0.12935,-0.13708 -0.25916,-0.23229 -0.38923,-0.36856 -0.0369,-0.0384 -0.11686,-0.0333 -0.15363,-0.0717 -0.19312,-0.20151 -0.31742,-0.50682 -0.51223,-0.70643 -0.16062,-0.16438 -0.38112,-0.27713 -0.54288,-0.44019 -0.1014,-0.10244 -0.13381,-0.19493 -0.23562,-0.2969 -0.0623,-0.0625 -0.13203,-0.12207 -0.19462,-0.18427 -0.0581,-0.0578 -0.13633,-0.12667 -0.19463,-0.18427 -0.12563,-0.12415 -0.26301,-0.24523 -0.38925,-0.36854 -0.13425,-0.13143 -0.25418,-0.23803 -0.38923,-0.36855 -0.0379,-0.0369 -0.11552,-0.0349 -0.15365,-0.0717 -0.0885,-0.0852 -0.14689,-0.21212 -0.2356,-0.29691 -0.0892,-0.0852 -0.146,-0.21204 -0.23562,-0.29691 -0.0418,-0.0397 -0.11166,-0.032 -0.15363,-0.0717 -0.12816,-0.12102 -0.26039,-0.24833 -0.38925,-0.36854 -0.11954,-0.1115 -0.2691,-0.2577 -0.38925,-0.36855 -0.25898,-0.23885 -0.47596,-0.38877 -0.73749,-0.62444 -0.39051,-0.35261 -0.77164,-0.76012 -1.16775,-1.10563 -0.34183,-0.29818 -0.73981,-0.58751 -1.08573,-0.88037 -0.0437,-0.0373 -0.10958,-0.0345 -0.15363,-0.0717 -0.13455,-0.11299 -0.25415,-0.25629 -0.38925,-0.36854 -0.14362,-0.11968 -0.24491,-0.24977 -0.38925,-0.36854 -0.0407,-0.0335 -0.11284,-0.0382 -0.15363,-0.0717 -0.10005,-0.0821 -0.13529,-0.21531 -0.23562,-0.29691 -0.0763,-0.062 -0.23076,-0.0816 -0.30725,-0.14332 -0.0633,-0.0511 -0.13113,-0.13336 -0.19463,-0.18427 -0.54756,-0.43928 -1.03073,-0.78165 -1.58763,-1.2079 -0.14808,-0.11374 -0.24058,-0.25583 -0.38924,-0.36854 -0.039,-0.0296 -0.11448,-0.0421 -0.15363,-0.0717 -0.0743,-0.0562 -0.11998,-0.12831 -0.19462,-0.18427 -0.12548,-0.0941 -0.22227,-0.16241 -0.34826,-0.2559 -0.043,-0.0318 -0.11061,-0.0399 -0.15362,-0.0717 -0.14095,-0.10408 -0.36036,-0.22427 -0.50187,-0.32755 -0.27214,-0.19883 -0.46331,-0.42866 -0.73751,-0.62444 -0.17111,-0.12192 -0.37096,-0.31945 -0.54288,-0.44019 -0.13128,-0.0922 -0.32914,-0.1234 -0.46088,-0.21491 -0.0941,-0.0654 -0.21289,-0.0782 -0.30725,-0.14332 -0.31231,-0.21503 -0.57632,-0.48497 -0.89112,-0.69609 -0.32699,-0.21965 -0.67413,-0.43974 -1.00376,-0.65509 -0.0644,-0.0421 -0.13009,-0.14244 -0.19463,-0.18427 -0.0449,-0.029 -0.10883,-0.0427 -0.15363,-0.0717 -0.17624,-0.11388 -0.3249,-0.21486 -0.50187,-0.32754 -0.11507,-0.0734 -0.23287,-0.18302 -0.34826,-0.25592 -0.0986,-0.0621 -0.20844,-0.0815 -0.30725,-0.14332 -0.0486,-0.0303 -0.10512,-0.0413 -0.15363,-0.0717 -0.14838,-0.0923 -0.35297,-0.23602 -0.50188,-0.32754 -0.19855,-0.12207 -0.30247,-0.20706 -0.50187,-0.32755 -0.0913,-0.0553 -0.2157,-0.0883 -0.30726,-0.14333 -0.10794,-0.0647 -0.24007,-0.19168 -0.34826,-0.2559 -0.0458,-0.0273 -0.10764,-0.0444 -0.15362,-0.0717 -0.17446,-0.10318 -0.32678,-0.22551 -0.50189,-0.32755 -0.15746,-0.0919 -0.30287,-0.12384 -0.46088,-0.21491 -0.0583,-0.0336 -0.0953,-0.0382 -0.15363,-0.0717 -0.072,-0.0413 -0.12251,-0.14317 -0.19461,-0.18427 -0.15186,-0.0864 -0.30858,-0.12935 -0.4609,-0.21491 -0.16533,-0.0931 -0.33601,-0.23552 -0.50187,-0.32755 -0.0512,-0.0281 -0.10274,-0.0436 -0.15363,-0.0717 -0.1063,-0.0587 -0.20067,-0.0849 -0.30725,-0.14332 -0.10214,-0.0559 -0.20492,-0.0879 -0.30726,-0.14333 -0.0468,-0.0254 -0.10675,-0.0462 -0.15364,-0.0717 -0.58919,-0.31772 -1.17607,-0.70844 -1.77189,-1.01329 -0.0271,-0.0134 -0.0856,0.0549 -0.1127,0.041 -0.18143,-0.0926 -0.31986,-0.23613 -0.50187,-0.32755 -0.28605,-0.14362 -0.63428,-0.28916 -0.92177,-0.42984 -0.36591,-0.17902 -0.70718,-0.32726 -1.07539,-0.50145 -0.0963,-0.0457 -0.21071,-0.098 -0.30726,-0.14333 -0.13172,-0.0617 -0.21622,-0.19482 -0.34825,-0.25591 -0.0275,-0.0134 -0.085,0.0538 -0.1127,0.041 -0.18491,-0.0853 -0.3164,-0.24342 -0.50187,-0.32754 -0.12415,-0.0563 -0.29554,-0.0465 -0.41989,-0.10229 -0.10616,-0.0476 -0.20086,-0.096 -0.30726,-0.14333 -0.0555,-0.0247 -0.0981,-0.0471 -0.15362,-0.0717 -0.15974,-0.0705 -0.30076,-0.1454 -0.4609,-0.21491 -0.17386,-0.0757 -0.39918,-0.0993 -0.57352,-0.17392 -0.29427,-0.12593 -0.51354,-0.34795 -0.80912,-0.47083 -0.0274,-0.0119 -0.0853,0.0523 -0.1127,0.041 -0.21506,-0.0892 -0.39876,-0.19901 -0.61451,-0.28656 -0.11254,-0.0458 -0.19457,-0.0978 -0.30725,-0.14333 -0.0908,-0.0364 -0.21638,-0.10704 -0.30727,-0.14332 -0.0772,-0.0308 -0.18907,-1.6e-4 -0.26625,-0.0306 -0.16246,-0.0641 -0.29808,-0.15169 -0.46089,-0.21492 -0.16985,-0.066 -0.29062,-0.14982 -0.46088,-0.21492 -0.0489,-0.0186 -0.10467,-0.0531 -0.15363,-0.0717 -0.25039,-0.0952 -0.47593,-0.15258 -0.72715,-0.24555 -0.0278,-0.0104 -0.0849,0.0513 -0.11269,0.041 -0.20977,-0.0775 -0.40415,-0.21065 -0.61451,-0.28655 -0.14288,-0.0517 -0.27673,-0.0513 -0.41989,-0.10229 -0.0824,-0.0293 -0.11225,-0.15519 -0.19462,-0.18427 -0.0877,-0.0309 -0.17851,7e-5 -0.26626,-0.0306 -0.16493,-0.0577 -0.25461,-0.0455 -0.41989,-0.10229 -0.17946,-0.0619 -0.39367,-0.11329 -0.57352,-0.17392 -0.0553,-0.0187 -0.0984,-0.0531 -0.15363,-0.0717 -0.11537,-0.0387 -0.19179,-0.10512 -0.30725,-0.14333 -0.0929,-0.0308 -0.21421,-0.11284 -0.30726,-0.14332 -0.0789,-0.0257 -0.18722,-0.004 -0.26626,-0.0306 -0.33257,-0.10794 -0.65956,-0.17197 -0.99341,-0.27619 -0.0556,-0.0172 -0.098,-0.0544 -0.15363,-0.0717 -0.10199,-0.0317 -0.20506,-0.11211 -0.30725,-0.14333 -0.13381,-0.0409 -0.2859,-0.062 -0.41989,-0.10229 -0.0284,-0.009 -0.0842,0.0494 -0.1127,0.041 -0.21781,-0.0653 -0.39616,-0.22284 -0.61451,-0.28656 -0.12369,-0.0361 -0.25502,0.0459 -0.3789,0.0104 -0.1121,-0.0323 -0.19501,-0.11151 -0.30725,-0.14333 -0.0514,-0.0149 -0.10214,-0.0571 -0.15363,-0.0717 -0.16846,-0.0474 -0.40477,-0.12741 -0.57351,-0.17392 -0.14511,-0.0398 -0.27464,-0.063 -0.4199,-0.10229 -0.0743,-0.0201 -0.1918,-0.0104 -0.26624,-0.0306 -0.10333,-0.0276 -0.20381,-0.11611 -0.30727,-0.14332 -0.13545,-0.0357 -0.28423,-0.0672 -0.41988,-0.10229 -0.0346,-0.009 -0.0779,0.05 -0.1127,0.041 -0.0847,-0.0219 -0.10972,-0.16272 -0.19463,-0.18427 -0.0902,-0.0229 -0.17587,-0.007 -0.26625,-0.0306 -0.034,-0.009 -0.0786,0.0495 -0.11269,0.041 -0.0807,-0.0202 -0.18546,-0.0104 -0.26627,-0.0306 -0.18189,-0.0449 -0.27871,-0.17114 -0.46088,-0.21491 -0.0349,-0.009 -0.0778,0.0495 -0.11269,0.041 -0.17046,-0.0407 -0.40281,-0.13411 -0.57352,-0.17392 -0.18165,-0.0424 -0.35057,-0.0201 -0.53253,-0.0613 -0.0479,-0.0104 -0.10571,-0.0608 -0.15363,-0.0717 -0.13351,-0.03 -0.28615,-0.0729 -0.41987,-0.10229 -0.13173,-0.0291 -0.17541,-0.11477 -0.30727,-0.14332 -0.0351,-0.007 -0.0775,0.0486 -0.11255,0.041 -0.34301,-0.0737 -0.76207,-0.16535 -1.10605,-0.2352 -0.10585,-0.0216 -0.16033,-0.009 -0.26626,-0.0306 -0.0563,-0.0119 -0.0972,-0.0605 -0.15363,-0.0717 -0.17224,-0.0339 -0.36006,-0.0283 -0.53251,-0.0613 -0.18353,-0.0351 -0.34872,-0.0274 -0.53253,-0.0613 -0.0483,-0.009 -0.10526,-0.0627 -0.15362,-0.0717 -0.14853,-0.0272 -0.2712,-0.0758 -0.4199,-0.10229 -0.0865,-0.0155 -0.17971,-0.0153 -0.26626,-0.0306 -0.0803,-0.0134 -0.18592,-0.0168 -0.26626,-0.0306 -0.20778,-0.036 -0.3244,-0.0266 -0.53252,-0.0613 -0.14904,-0.0248 -0.27066,-0.0782 -0.41989,-0.10229 -0.0868,-0.0134 -0.1794,-0.0168 -0.26626,-0.0306 -0.0925,-0.0149 -0.17376,-0.0162 -0.26626,-0.0306 -0.13902,-0.0217 -0.28071,-0.0812 -0.4199,-0.10229 -0.0324,-0.004 -0.0803,0.0459 -0.11254,0.041 -0.22275,-0.0335 -0.46308,-0.1011 -0.68616,-0.13291 -0.14982,-0.0213 -0.26992,-0.0818 -0.41989,-0.10229 -0.0873,-0.0119 -0.17899,-0.0189 -0.26626,-0.0306 -0.081,-0.0104 -0.18524,-0.0201 -0.26627,-0.0306 -0.17462,-0.0232 -0.35768,-0.0391 -0.53251,-0.0612 -0.15031,-0.0189 -0.26945,-0.0842 -0.41989,-0.10229 -0.0876,-0.0104 -0.17871,-0.0204 -0.26626,-0.0306 -0.0853,-0.0104 -0.18094,-0.0208 -0.26627,-0.0306 -0.30907,-0.0355 -0.60178,-0.0186 -0.91141,-0.051 -0.036,-0.003 -0.0767,0.0446 -0.1127,0.041 -0.0526,-0.006 -0.10095,-0.0663 -0.15363,-0.0717 -0.11403,-0.0119 -0.26476,0.0214 -0.37888,0.0104 -0.14065,-0.0134 -0.27923,-0.0892 -0.41989,-0.10229 -0.0422,-0.004 -0.0705,0.0447 -0.1127,0.041 -0.17587,-0.0161 -0.35648,-0.0462 -0.53251,-0.0613 -0.16335,-0.0134 -0.36902,-0.0483 -0.53253,-0.0613 -0.0882,-0.007 -0.17811,-0.0238 -0.26626,-0.0306 -0.0818,-0.006 -0.18447,-0.0245 -0.26627,-0.0306 -0.17634,-0.0134 -0.35599,-0.0492 -0.53251,-0.0612 -0.18635,-0.0134 -0.30502,0.063 -0.49154,0.0513 -0.0427,-0.003 -0.11091,-0.069 -0.15363,-0.0717 -0.15985,-0.0104 -0.33154,0.0602 -0.49152,0.0513 -0.0883,-0.004 -0.17783,-0.0259 -0.26626,-0.0306 -0.0821,-0.004 -0.18415,-0.0266 -0.26627,-0.0306 -0.17694,-0.009 -0.35545,-0.0534 -0.53251,-0.0613 -0.18699,-0.009 -0.30438,0.0586 -0.49152,0.0513 -0.0532,-0.003 -0.10051,-0.0696 -0.15364,-0.0717 -0.12341,-0.004 -0.25547,0.0149 -0.37889,0.0104 -0.12415,-0.004 -0.2547,0.0134 -0.3789,0.0104 -0.0494,-10e-4 -0.10422,-0.0703 -0.15363,-0.0717 -0.094,-0.003 -0.17227,-0.0282 -0.26625,-0.0306 -0.0659,-10e-4 -0.15939,0.0833 -0.22527,0.0819 -0.0532,-10e-4 -0.10036,-0.0706 -0.15363,-0.0717 -0.12355,-0.003 -0.25523,0.0119 -0.3789,0.0104 -0.13589,-0.001 -0.24292,0.0119 -0.37889,0.0104 -0.0427,-4e-4 -0.07,0.0413 -0.11269,0.041 -0.14719,-10e-4 -0.3853,-0.0605 -0.53252,-0.0613 -0.0372,5e-5 -0.0755,0.0409 -0.11269,0.041 -0.0889,-2.9e-4 -0.17727,-0.0305 -0.26627,-0.0306 -0.0867,1.2e-4 -0.17954,-0.0309 -0.26626,-0.0306 -0.0419,1.4e-4 -0.0708,0.0409 -0.1127,0.041 -0.12384,5.3e-4 -0.25493,0.009 -0.37888,0.0104 -0.12474,9.3e-4 -0.25419,0.009 -0.3789,0.0104 -0.0497,5.2e-4 -0.10408,-0.0724 -0.15363,-0.0717 -0.21246,0.003 -0.39157,0.088 -0.60416,0.0923 -0.16131,0.003 -0.33011,0.0471 -0.49152,0.0513 -0.0892,0.003 -0.17705,-0.0331 -0.26627,-0.0306 -0.0868,0.003 -0.1793,-0.0335 -0.26626,-0.0306 -0.17846,0.006 -0.31299,0.0448 -0.49152,0.0513 -0.174,0.006 -0.35849,-0.0687 -0.53253,-0.0613 -0.0687,0.003 -0.15651,0.0789 -0.22526,0.0819 -0.12429,0.006 -0.2545,0.004 -0.3789,0.0104 -0.13664,0.006 -0.24221,0.003 -0.37889,0.0104 -0.0372,10e-4 -0.0754,0.0388 -0.11269,0.041 -0.0893,0.004 -0.1769,-0.0357 -0.26627,-0.0306 -0.0871,0.004 -0.17914,-0.0358 -0.26625,-0.0306 -0.0345,10e-4 -0.0784,0.0387 -0.11269,0.041 -0.16182,0.0104 -0.32968,0.0406 -0.49153,0.0513 -0.0947,0.006 -0.17158,-0.0372 -0.26626,-0.0306 -0.0807,0.006 -0.14451,0.0763 -0.22527,0.0821 -0.17891,0.0134 -0.3126,0.0375 -0.49153,0.0513 -0.19931,0.0156 -0.40478,0.0754 -0.60416,0.0923 -0.0537,0.004 -0.0999,-0.0763 -0.15362,-0.0717 -0.12801,0.0104 -0.25091,-0.001 -0.37891,0.0104 -0.17112,0.0155 -0.32038,0.0348 -0.49152,0.0513 -0.17906,0.0171 -0.42506,0.0742 -0.60416,0.0923 -0.16209,0.0167 -0.32942,0.0338 -0.49152,0.0513 -0.0949,0.0104 -0.17144,-0.0412 -0.26627,-0.0306 -0.0809,0.009 -0.14436,0.073 -0.22525,0.0821 -0.14482,0.0164 -0.34684,0.0342 -0.49154,0.0513 z"
         id="path9694"
         inkscape:connector-curvature="0" />
      <path
         sodipodi:nodetypes="ccccccccccccccssssccc"
         style="fill:#0a51a1;fill-opacity:1;fill-rule:nonzero;stroke:none"
         d="m 122.61713,861.31993 6.43623,17.68338 -43.251094,15.74209 -6.10826,-16.78231 C 52.622722,897.423 38.014673,930.43115 42.034366,963.73806 l 17.345486,-6.31323 15.742093,43.25107 -16.331788,5.9443 c 19.445648,26.9798 52.295743,41.5976 85.508723,37.629 l -6.43623,-17.6834 43.25108,-15.7421 6.06728,16.6697 c 27.0143,-19.4191 41.57546,-52.26983 37.629,-85.50873 l -36.38048,13.2414 c -0.98086,21.53839 -14.66023,41.43367 -36.1548,49.25703 -28.51094,10.3771 -60.138156,-4.3709 -70.515288,-32.88182 -10.296056,-28.28819 4.132372,-59.64631 32.206048,-70.26931 0.22102,-0.0837 0.45304,-0.16489 0.67579,-0.24597 18.59893,-6.76945 38.53047,-2.82288 53.01743,8.63758 l 38.1826,-13.89732 C 186.16658,870.8298 154.54895,857.49829 122.61713,861.31993 z"
         id="path8810"
         inkscape:connector-curvature="0" />
      <path
         style="fill:#ffffff;fill-opacity:0.75688076;fill-rule:nonzero;stroke:none"
         d="m 101.98867,829.50403 0,-6.20924 0,6.20924 z"
         id="path2276"
         sodipodi:nodetypes="ccc"
         inkscape:connector-curvature="0" />
    </g>
  </g>
</svg>
