<?xml version="1.0" encoding="UTF-8" standalone="no"?>
<!-- Created using Karbon, part of Calligra: http://www.calligra.org/karbon -->

<svg
   xmlns:dc="http://purl.org/dc/elements/1.1/"
   xmlns:cc="http://creativecommons.org/ns#"
   xmlns:rdf="http://www.w3.org/1999/02/22-rdf-syntax-ns#"
   xmlns:svg="http://www.w3.org/2000/svg"
   xmlns="http://www.w3.org/2000/svg"
   xmlns:sodipodi="http://sodipodi.sourceforge.net/DTD/sodipodi-0.dtd"
   xmlns:inkscape="http://www.inkscape.org/namespaces/inkscape"
   width="38.4pt"
   height="38.4pt"
   id="svg2"
   version="1.1"
   inkscape:version="0.91 r13725"
   sodipodi:docname="conky-manager.svg">
  <metadata
     id="metadata16">
    <rdf:RDF>
      <cc:Work
         rdf:about="">
        <dc:format>image/svg+xml</dc:format>
        <dc:type
           rdf:resource="http://purl.org/dc/dcmitype/StillImage" />
        <dc:title />
      </cc:Work>
    </rdf:RDF>
  </metadata>
  <sodipodi:namedview
     pagecolor="#ffffff"
     bordercolor="#666666"
     borderopacity="1"
     objecttolerance="10"
     gridtolerance="10"
     guidetolerance="10"
     inkscape:pageopacity="0"
     inkscape:pageshadow="2"
     inkscape:window-width="3840"
     inkscape:window-height="2088"
     id="namedview14"
     showgrid="false"
     inkscape:showpageshadow="false"
     borderlayer="true"
     inkscape:zoom="19.666666"
     inkscape:cx="23.818108"
     inkscape:cy="38.374604"
     inkscape:window-x="0"
     inkscape:window-y="48"
     inkscape:window-maximized="1"
     inkscape:current-layer="svg2">
    <sodipodi:guide
       position="9.5367432e-07,48.000001"
       orientation="47.999999,0"
       id="guide4074" />
    <sodipodi:guide
       position="9.5367432e-07,1.9073486e-06"
       orientation="0,47.999999"
       id="guide4076" />
    <sodipodi:guide
       position="48,1.9073486e-06"
       orientation="-47.999999,0"
       id="guide4078" />
    <sodipodi:guide
       position="48,48.000001"
       orientation="0,-47.999999"
       id="guide4080" />
    <sodipodi:guide
       position="4.000001,44.000001"
       orientation="39.999999,0"
       id="guide4082" />
    <sodipodi:guide
       position="4.000001,4.0000019"
       orientation="0,39.999999"
       id="guide4084" />
    <sodipodi:guide
       position="44,4.0000019"
       orientation="-39.999999,0"
       id="guide4086" />
    <sodipodi:guide
       position="44,44.000001"
       orientation="0,-39.999999"
       id="guide4088" />
    <sodipodi:guide
       position="12,26.847458"
       orientation="31.999999,0"
       id="guide4094" />
    <sodipodi:guide
       position="50.135593,12"
       orientation="0,31.999999"
       id="guide4096" />
    <sodipodi:guide
       position="25.923254,36.026491"
       orientation="0,-17.999999"
       id="guide4110" />
    <sodipodi:guide
       position="36,26.288136"
       orientation="-9,0"
       id="guide4124" />
  </sodipodi:namedview>
  <defs
     id="defs4">
    <clipPath
       id="clipPath-756192215">
      <g
         transform="translate(0,-1004.3622)"
         id="g17">
        <path
           style="fill:#1890d0"
           inkscape:connector-curvature="0"
           d="m -24,13 c 0,1.105 -0.672,2 -1.5,2 -0.828,0 -1.5,-0.895 -1.5,-2 0,-1.105 0.672,-2 1.5,-2 0.828,0 1.5,0.895 1.5,2 z"
           transform="matrix(15.333333,0,0,11.5,414.99999,878.8622)"
           id="path19" />
      </g>
    </clipPath>
    <clipPath
       id="clipPath-750672504">
      <g
         transform="translate(0,-1004.3622)"
         id="g12">
        <path
           style="fill:#1890d0"
           inkscape:connector-curvature="0"
           d="m -24,13 c 0,1.105 -0.672,2 -1.5,2 -0.828,0 -1.5,-0.895 -1.5,-2 0,-1.105 0.672,-2 1.5,-2 0.828,0 1.5,0.895 1.5,2 z"
           transform="matrix(15.333333,0,0,11.5,414.99999,878.8622)"
           id="path14" />
      </g>
    </clipPath>
    <linearGradient
       id="linearGradient3764"
       x1="1"
       x2="47"
       gradientUnits="userSpaceOnUse"
       gradientTransform="matrix(0,-1,1,0,-1.5e-6,47.999998)">
      <stop
         stop-color="#e4e4e4"
         stop-opacity="1"
         id="stop7" />
      <stop
         offset="1"
         stop-color="#eee"
         stop-opacity="1"
         id="stop9" />
    </linearGradient>
  </defs>
  <g
     transform="matrix(1.213352,0,0,1.213352,-6.3337525,-5.0629283)"
     id="g53">
    <g
       clip-path="url(#clipPath-756192215)"
       id="g55">
      <!-- color: #eeeeee -->
      <g
         id="g57">
        <path
           style="fill:#0ac819;fill-opacity:1;fill-rule:nonzero;stroke:none"
           inkscape:connector-curvature="0"
           d="m 27.1,20 7.797,0 c 0.609,0 1.102,0.555 1.102,1.242 l 0,7.512 c 0,0.688 -0.492,1.242 -1.102,1.242 l -7.797,0 c -0.605,0 -1.105,-0.555 -1.105,-1.242 l 0,-7.512 C 25.995,20.554 26.491,20 27.1,20 m 0,0"
           id="path59" />
        <path
           style="fill:#e5b700;fill-opacity:1;fill-rule:nonzero;stroke:none"
           inkscape:connector-curvature="0"
           d="m 21.11,26 7.793,0 c 0.609,0 1.102,0.559 1.102,1.246 l 0,7.512 c 0,0.684 -0.492,1.242 -1.102,1.242 l -7.793,0 c -0.609,0 -1.102,-0.559 -1.102,-1.242 l 0,-7.512 C 20.008,26.558 20.5,26 21.11,26 m 0,0"
           id="path61" />
        <path
           style="fill:#288dd6;fill-opacity:1;fill-rule:nonzero;stroke:none"
           inkscape:connector-curvature="0"
           d="m 21.11,12 7.793,0 c 0.609,0 1.102,0.559 1.102,1.246 l 0,7.512 c 0,0.688 -0.492,1.242 -1.102,1.242 l -7.793,0 c -0.609,0 -1.102,-0.555 -1.102,-1.242 l 0,-7.512 C 20.008,12.558 20.5,12 21.11,12 m 0,0"
           id="path63" />
        <path
           style="fill:#ec1a3e;fill-opacity:1;fill-rule:nonzero;stroke:none"
           inkscape:connector-curvature="0"
           d="m 13.1,19 7.797,0 c 0.609,0 1.102,0.555 1.102,1.242 l 0,7.512 C 21.999,28.442 21.507,29 20.897,29 L 13.1,29 c -0.605,0 -1.105,-0.559 -1.105,-1.246 l 0,-7.512 C 11.995,19.554 12.491,19 13.1,19 m 0,0"
           id="path65" />
      </g>
    </g>
  </g>
</svg>
