<?xml version="1.0" encoding="UTF-8" standalone="no"?>
<!-- Created using Karbon, part of Calligra: http://www.calligra.org/karbon -->

<svg
   xmlns:dc="http://purl.org/dc/elements/1.1/"
   xmlns:cc="http://creativecommons.org/ns#"
   xmlns:rdf="http://www.w3.org/1999/02/22-rdf-syntax-ns#"
   xmlns:svg="http://www.w3.org/2000/svg"
   xmlns="http://www.w3.org/2000/svg"
   xmlns:sodipodi="http://sodipodi.sourceforge.net/DTD/sodipodi-0.dtd"
   xmlns:inkscape="http://www.inkscape.org/namespaces/inkscape"
   width="38.4pt"
   height="38.4pt"
   id="svg2"
   version="1.1"
   inkscape:version="0.48.5 r10040"
   sodipodi:docname="daemons.svg">
  <metadata
     id="metadata16">
    <rdf:RDF>
      <cc:Work
         rdf:about="">
        <dc:format>image/svg+xml</dc:format>
        <dc:type
           rdf:resource="http://purl.org/dc/dcmitype/StillImage" />
        <dc:title />
      </cc:Work>
    </rdf:RDF>
  </metadata>
  <sodipodi:namedview
     pagecolor="#ffffff"
     bordercolor="#666666"
     borderopacity="1"
     objecttolerance="10"
     gridtolerance="10"
     guidetolerance="10"
     inkscape:pageopacity="0"
     inkscape:pageshadow="2"
     inkscape:window-width="1920"
     inkscape:window-height="1025"
     id="namedview14"
     showgrid="false"
     inkscape:showpageshadow="false"
     borderlayer="true"
     inkscape:zoom="6.9532166"
     inkscape:cx="36.695743"
     inkscape:cy="16.17165"
     inkscape:window-x="-4"
     inkscape:window-y="39"
     inkscape:window-maximized="1"
     inkscape:current-layer="svg2">
    <sodipodi:guide
       position="9.5367432e-07,48.000001"
       orientation="47.999999,0"
       id="guide4074" />
    <sodipodi:guide
       position="9.5367432e-07,1.9073486e-06"
       orientation="0,47.999999"
       id="guide4076" />
    <sodipodi:guide
       position="48,1.9073486e-06"
       orientation="-47.999999,0"
       id="guide4078" />
    <sodipodi:guide
       position="48,48.000001"
       orientation="0,-47.999999"
       id="guide4080" />
    <sodipodi:guide
       position="4.000001,44.000001"
       orientation="39.999999,0"
       id="guide4082" />
    <sodipodi:guide
       position="4.000001,4.0000019"
       orientation="0,39.999999"
       id="guide4084" />
    <sodipodi:guide
       position="44,4.0000019"
       orientation="-39.999999,0"
       id="guide4086" />
    <sodipodi:guide
       position="44,44.000001"
       orientation="0,-39.999999"
       id="guide4088" />
    <sodipodi:guide
       position="12,26.847458"
       orientation="31.999999,0"
       id="guide4094" />
    <sodipodi:guide
       position="50.135593,12"
       orientation="0,31.999999"
       id="guide4096" />
    <sodipodi:guide
       position="25.923254,36.026491"
       orientation="0,-17.999999"
       id="guide4110" />
    <sodipodi:guide
       position="36,26.288136"
       orientation="-9,0"
       id="guide4124" />
  </sodipodi:namedview>
  <defs
     id="defs4" />
  <rect
     style="fill:#696969;fill-opacity:1;stroke:none"
     id="rect4090"
     width="40"
     height="40"
     x="4.000001"
     y="4.000001"
     ry="20" />
  <g
     transform="matrix(0.74999983,0,0,0.75000014,6.0000038,5.9999938)"
     id="g3037">
    <path
       d="m 30.432985,7.4078662 a 6.3841532,3.4070058 0 0 1 -12.768306,0 6.3841532,3.4070058 0 1 1 12.768306,0 z"
       id="imagebot_81"
       stroke-miterlimit="4"
       inkscape:connector-curvature="0"
       style="fill:#1c1c1c;fill-opacity:1;fill-rule:nonzero;stroke-width:8.28269958;stroke-linecap:round;stroke-miterlimit:4;stroke-dashoffset:0;marker-start:none;marker-mid:none;marker-end:none" />
    <rect
       height="11.973159"
       id="imagebot_78"
       ry="0"
       width="14.027612"
       x="17.033768"
       y="7.7280474"
       stroke-miterlimit="4"
       style="fill:#1c1c1c;fill-opacity:1;fill-rule:nonzero;stroke-width:7.5;stroke-linecap:round;stroke-linejoin:round;stroke-miterlimit:4;stroke-dashoffset:0" />
    <path
       d="m 31.07907,7.7139962 -14.025435,0 0.56673,0.4837279 12.891978,0 0.566727,-0.4837279 z"
       id="imagebot_77"
       inkscape:connector-curvature="0"
       style="fill:#1c1c1c;fill-opacity:1;fill-rule:evenodd;stroke-width:1px" />
    <path
       d="m 31.07907,19.715215 -14.060483,0 0.566728,-0.483729 12.927028,0 0.566727,0.483729 z"
       id="imagebot_76"
       inkscape:connector-curvature="0"
       style="fill:#1c1c1c;fill-opacity:1;fill-rule:evenodd;stroke-width:1px" />
    <path
       d="m 17.018582,7.68408 0,12.031134 0.56673,-0.483728 0,-11.0636795 -0.56673,-0.4837265 z"
       id="imagebot_75"
       inkscape:connector-curvature="0"
       style="fill:#1c1c1c;fill-opacity:1;fill-rule:evenodd;stroke-width:1px" />
    <path
       d="m 31.07907,7.7139962 0,12.0012178 -0.566732,-0.483728 0,-11.0337629 0.566732,-0.4837269 z"
       id="imagebot_74"
       inkscape:connector-curvature="0"
       style="fill:#1c1c1c;fill-opacity:1;fill-rule:evenodd;stroke-width:1px" />
    <path
       d="m 29.334134,13.699647 a 5.2865638,4.5123053 0 1 1 -10.573126,0 5.2865638,4.5123053 0 1 1 10.573126,0 z"
       id="imagebot_71"
       stroke-miterlimit="4"
       inkscape:connector-curvature="0"
       style="fill:#ff0000;fill-rule:nonzero;stroke-width:5.34439993;stroke-linecap:round;stroke-linejoin:round;stroke-miterlimit:4;stroke-dashoffset:0;marker-start:none;marker-mid:none;marker-end:none" />
    <path
       d="m 29.334134,13.699647 a 5.2865638,4.5123053 0 1 1 -10.573126,0 5.2865638,4.5123053 0 1 1 10.573126,0 z"
       id="imagebot_69"
       stroke-miterlimit="4"
       inkscape:connector-curvature="0"
       style="fill:none;stroke:none;stroke-width:1.27700627;marker-start:none;marker-mid:none;marker-end:none" />
    <rect
       height="11.973159"
       id="imagebot_66"
       ry="0"
       width="14.027612"
       x="17.033768"
       y="19.87044"
       stroke-miterlimit="4"
       style="fill:#1c1c1c;fill-opacity:1;fill-rule:nonzero;stroke-width:7.5;stroke-linecap:round;stroke-linejoin:round;stroke-miterlimit:4;stroke-dashoffset:0" />
    <path
       d="m 31.07907,19.856388 -14.025435,0 0.56673,0.483728 12.891978,0 0.566727,-0.483728 z"
       id="imagebot_65"
       inkscape:connector-curvature="0"
       style="fill:#1c1c1c;fill-opacity:1;fill-rule:evenodd;stroke:none" />
    <path
       d="m 31.07907,31.857607 -14.060483,0 0.566728,-0.48373 12.927028,0 0.566727,0.48373 z"
       id="imagebot_64"
       inkscape:connector-curvature="0"
       style="fill:#1c1c1c;fill-opacity:1;fill-rule:evenodd;stroke-width:1px" />
    <path
       d="m 17.018582,19.826471 0,12.031134 0.56673,-0.483728 0,-11.063679 -0.56673,-0.483727 z"
       id="imagebot_63"
       inkscape:connector-curvature="0"
       style="fill:#1c1c1c;fill-opacity:1;fill-rule:evenodd;stroke-width:1px" />
    <path
       d="m 31.07907,19.856388 0,12.001217 -0.566732,-0.483728 0,-11.033763 0.566732,-0.483726 z"
       id="imagebot_62"
       inkscape:connector-curvature="0"
       style="fill:#1c1c1c;fill-opacity:1;fill-rule:evenodd;stroke-width:1px" />
    <path
       d="m 29.334134,25.842039 a 5.2865638,4.5123053 0 1 1 -10.573126,0 5.2865638,4.5123053 0 1 1 10.573126,0 z"
       id="imagebot_59"
       stroke-miterlimit="4"
       inkscape:connector-curvature="0"
       style="fill:#ffd700;fill-rule:nonzero;stroke:none;stroke-width:5.34439993;marker-start:none;marker-mid:none;marker-end:none" />
    <path
       d="m 29.334134,25.842039 a 5.2865638,4.5123053 0 1 1 -10.573126,0 5.2865638,4.5123053 0 1 1 10.573126,0 z"
       id="imagebot_57"
       stroke-miterlimit="4"
       inkscape:connector-curvature="0"
       style="fill:none;stroke:none;stroke-width:1.27700627;marker-start:none;marker-mid:none;marker-end:none" />
    <rect
       height="11.973159"
       id="imagebot_54"
       ry="0"
       width="14.027612"
       x="17.033768"
       y="32.012833"
       stroke-miterlimit="4"
       style="fill:#1c1c1c;fill-opacity:1;fill-rule:nonzero;stroke-width:7.5;stroke-linecap:round;stroke-linejoin:round;stroke-miterlimit:4;stroke-dashoffset:0" />
    <path
       d="m 31.07907,31.998779 -14.025435,0 0.56673,0.483728 12.891978,0 0.566727,-0.483728 z"
       id="imagebot_53"
       inkscape:connector-curvature="0"
       style="fill:#1c1c1c;fill-opacity:1;fill-rule:evenodd;stroke-width:1px" />
    <path
       d="m 31.07907,44 -14.060483,0 0.566728,-0.483733 12.927028,0 L 31.07907,44 z"
       id="imagebot_52"
       inkscape:connector-curvature="0"
       style="fill:#1c1c1c;fill-opacity:1;fill-rule:evenodd;stroke-width:1px" />
    <path
       d="m 17.018582,31.968863 0,12.031134 0.56673,-0.48373 0,-11.063678 -0.56673,-0.483726 z"
       id="imagebot_51"
       inkscape:connector-curvature="0"
       style="fill:#1c1c1c;fill-opacity:1;fill-rule:evenodd;stroke-width:1px" />
    <path
       d="m 29.335391,37.984432 a 5.2865638,4.5123053 0 1 1 -10.573126,0 5.2865638,4.5123053 0 1 1 10.573126,0 z"
       id="imagebot_47"
       stroke-miterlimit="4"
       inkscape:connector-curvature="0"
       style="fill:#32cd32;fill-rule:nonzero;stroke-width:5.34439993;stroke-linecap:round;stroke-linejoin:round;stroke-miterlimit:4;stroke-dashoffset:0;marker-start:none;marker-mid:none;marker-end:none" />
    <path
       d="m 29.335391,37.984432 a 5.2865638,4.5123053 0 1 1 -10.573126,0 5.2865638,4.5123053 0 1 1 10.573126,0 z"
       id="imagebot_45"
       stroke-miterlimit="4"
       inkscape:connector-curvature="0"
       style="fill:none;stroke:none;stroke-width:1.27700627;marker-start:none;marker-mid:none;marker-end:none" />
    <path
       style="fill:#1c1c1c;fill-opacity:1;fill-rule:nonzero;stroke:none;stroke-width:1.27700543;marker-start:none;marker-mid:none;marker-end:none"
       inkscape:connector-curvature="0"
       stroke-miterlimit="4"
       id="imagebot_40"
       d="m 33.926382,42.420594 0.09914,-8.926982 9.963075,0 c -0.03794,2.047893 0.531559,2.723994 -3.157734,5.317185 -1.947926,1.369191 -2.945515,1.751206 -3.038209,3.609797 l -3.866268,0 z" />
    <path
       style="fill:#1c1c1c;fill-opacity:1;fill-rule:evenodd;stroke:none"
       inkscape:connector-curvature="0"
       id="imagebot_38"
       d="m 33.279451,31.99878 0,12.00122 0.566727,-0.483733 0,-11.033761 -0.566727,-0.483726 z" />
    <path
       style="fill:#1c1c1c;fill-opacity:1;fill-rule:nonzero;stroke:none;stroke-width:1.27700543;marker-start:none;marker-mid:none;marker-end:none"
       inkscape:connector-curvature="0"
       stroke-miterlimit="4"
       id="imagebot_34"
       d="m 33.926382,18.13581 0.09914,-8.9269813 9.963075,0 c -0.03794,2.0478943 0.531559,2.7239953 -3.157734,5.3171843 -1.947926,1.369193 -2.945515,1.751206 -3.038209,3.609797 l -3.866268,0 z" />
    <rect
       style="fill:#1c1c1c;fill-opacity:1;fill-rule:nonzero;stroke:none"
       stroke-miterlimit="4"
       y="7.714829"
       x="32.191517"
       width="1.0904853"
       ry="0"
       id="imagebot_33"
       height="11.996958" />
    <path
       style="fill:#1c1c1c;fill-opacity:1;fill-rule:evenodd;stroke:none"
       inkscape:connector-curvature="0"
       id="imagebot_32"
       d="m 33.279451,7.7139973 0,12.0012177 0.566727,-0.483729 0,-11.0337629 -0.566727,-0.4837258 z" />
    <path
       style="fill:#1c1c1c;fill-opacity:1;fill-rule:nonzero;stroke:none;stroke-width:1.27700543;marker-start:none;marker-mid:none;marker-end:none"
       inkscape:connector-curvature="0"
       stroke-miterlimit="4"
       id="imagebot_28"
       d="m 33.926382,30.278202 0.09914,-8.926982 9.963075,0 c -0.03794,2.047894 0.531559,2.723995 -3.157734,5.317184 -1.947926,1.369194 -2.945515,1.751206 -3.038209,3.609798 l -3.866268,0 z" />
    <rect
       style="fill:#1c1c1c;fill-opacity:1;fill-rule:nonzero;stroke:none"
       stroke-miterlimit="4"
       y="19.85722"
       x="32.191517"
       width="1.0904853"
       ry="0"
       id="imagebot_27"
       height="11.996958" />
    <path
       style="fill:#1c1c1c;fill-opacity:1;fill-rule:evenodd;stroke:none"
       inkscape:connector-curvature="0"
       id="imagebot_26"
       d="m 33.279451,19.856389 0,12.001218 0.566727,-0.48373 0,-11.033763 -0.566727,-0.483725 z" />
    <path
       style="fill:#1c1c1c;fill-opacity:1;fill-rule:nonzero;stroke:none;stroke-width:1.27700543;marker-start:none;marker-mid:none;marker-end:none"
       inkscape:connector-curvature="0"
       stroke-miterlimit="4"
       id="imagebot_22"
       d="m 14.073615,42.420594 -0.09914,-8.926982 -9.9630744,0 c 0.037948,2.047893 -0.5315601,2.723994 3.1577316,5.317185 1.9479276,1.369191 2.9455168,1.751206 3.0382098,3.609797 l 3.866269,0 z" />
    <rect
       transform="scale(-1,1)"
       style="fill:#1c1c1c;fill-opacity:1;fill-rule:nonzero;stroke-width:7.5;stroke-linecap:round;stroke-linejoin:round;stroke-miterlimit:4;stroke-dashoffset:0"
       stroke-miterlimit="4"
       y="31.999611"
       x="-15.808479"
       width="1.0904853"
       ry="0"
       id="imagebot_21"
       height="11.996958" />
    <path
       style="fill:#1c1c1c;fill-opacity:1;fill-rule:evenodd;stroke-width:1px"
       inkscape:connector-curvature="0"
       id="imagebot_20"
       d="m 14.720546,31.99878 0,12.00122 -0.566727,-0.483733 0,-11.033761 0.566727,-0.483726 z" />
    <path
       style="fill:#1c1c1c;fill-opacity:1;fill-rule:nonzero;stroke:none;stroke-width:1.27700543;marker-start:none;marker-mid:none;marker-end:none"
       inkscape:connector-curvature="0"
       stroke-miterlimit="4"
       id="imagebot_16"
       d="m 14.073615,18.13581 -0.09914,-8.9269813 -9.9630744,0 c 0.037948,2.0478943 -0.5315601,2.7239953 3.1577316,5.3171843 1.9479276,1.369193 2.9455168,1.751206 3.0382098,3.609797 l 3.866269,0 z" />
    <rect
       transform="scale(-1,1)"
       style="fill:#1c1c1c;fill-opacity:1;fill-rule:nonzero;stroke:none"
       stroke-miterlimit="4"
       y="7.714829"
       x="-15.808479"
       width="1.0904853"
       ry="0"
       id="imagebot_15"
       height="11.996958" />
    <path
       style="fill:#1c1c1c;fill-opacity:1;fill-rule:evenodd;stroke:none"
       inkscape:connector-curvature="0"
       id="imagebot_14"
       d="m 14.720546,7.7139973 0,12.0012177 -0.566727,-0.483729 0,-11.0337629 0.566727,-0.4837258 z" />
    <path
       style="fill:#1c1c1c;fill-opacity:1;fill-rule:nonzero;stroke:none;stroke-width:1.27700543;marker-start:none;marker-mid:none;marker-end:none"
       inkscape:connector-curvature="0"
       stroke-miterlimit="4"
       id="imagebot_10"
       d="m 14.073615,30.278202 -0.09914,-8.926982 -9.9630744,0 c 0.037948,2.047894 -0.5315601,2.723995 3.1577316,5.317184 1.9479276,1.369194 2.9455168,1.751206 3.0382098,3.609798 l 3.866269,0 z" />
    <rect
       transform="scale(-1,1)"
       style="fill:#1c1c1c;fill-opacity:1;fill-rule:nonzero;stroke-width:7.5;stroke-linecap:round;stroke-linejoin:round;stroke-miterlimit:4;stroke-dashoffset:0"
       stroke-miterlimit="4"
       y="19.85722"
       x="-15.808479"
       width="1.0904853"
       ry="0"
       id="imagebot_9"
       height="11.996958" />
    <path
       style="fill:#1c1c1c;fill-opacity:1;fill-rule:evenodd;stroke-width:1px"
       inkscape:connector-curvature="0"
       id="imagebot_8"
       d="m 14.720546,19.856389 0,12.001218 -0.566727,-0.48373 0,-11.033763 0.566727,-0.483725 z" />
    <rect
       style="fill:#1c1c1c;fill-opacity:1;fill-rule:nonzero;stroke:none"
       stroke-miterlimit="4"
       y="31.999464"
       x="32.191345"
       width="1.0904853"
       ry="0"
       id="imagebot_27-3"
       height="11.996958" />
  </g>
</svg>
