<?xml version="1.0" encoding="UTF-8" standalone="no"?>
<!-- Created with Inkscape (http://www.inkscape.org/) -->

<svg
   xmlns:dc="http://purl.org/dc/elements/1.1/"
   xmlns:cc="http://creativecommons.org/ns#"
   xmlns:rdf="http://www.w3.org/1999/02/22-rdf-syntax-ns#"
   xmlns:svg="http://www.w3.org/2000/svg"
   xmlns="http://www.w3.org/2000/svg"
   xmlns:sodipodi="http://sodipodi.sourceforge.net/DTD/sodipodi-0.dtd"
   xmlns:inkscape="http://www.inkscape.org/namespaces/inkscape"
   width="48"
   height="48"
   id="svg2"
   version="1.1"
   inkscape:version="0.48.5 r10040"
   sodipodi:docname="dassault-systemes.draftsight.svg">
  <defs
     id="defs4">
    <clipPath
       id="clipPath-727594578">
      <g
         transform="translate(0,-1004.3622)"
         id="g17">
        <path
           style="fill:#1890d0"
           inkscape:connector-curvature="0"
           d="m -24,13 c 0,1.105 -0.672,2 -1.5,2 -0.828,0 -1.5,-0.895 -1.5,-2 0,-1.105 0.672,-2 1.5,-2 0.828,0 1.5,0.895 1.5,2 z"
           transform="matrix(15.333333,0,0,11.5,414.99999,878.8622)"
           id="path19" />
      </g>
    </clipPath>
    <clipPath
       id="clipPath-719705410">
      <g
         transform="translate(0,-1004.3622)"
         id="g12">
        <path
           style="fill:#1890d0"
           inkscape:connector-curvature="0"
           d="m -24,13 c 0,1.105 -0.672,2 -1.5,2 -0.828,0 -1.5,-0.895 -1.5,-2 0,-1.105 0.672,-2 1.5,-2 0.828,0 1.5,0.895 1.5,2 z"
           transform="matrix(15.333333,0,0,11.5,414.99999,878.8622)"
           id="path14" />
      </g>
    </clipPath>
    <linearGradient
       id="linearGradient3764"
       x1="1"
       x2="47"
       gradientUnits="userSpaceOnUse"
       gradientTransform="matrix(0,-1,1,0,-1.5e-6,47.999998)">
      <stop
         stop-color="#685b9f"
         stop-opacity="1"
         id="stop7" />
      <stop
         offset="1"
         stop-color="#7366a8"
         stop-opacity="1"
         id="stop9" />
    </linearGradient>
  </defs>
  <sodipodi:namedview
     id="base"
     pagecolor="#ffffff"
     bordercolor="#666666"
     borderopacity="1.0"
     inkscape:pageopacity="0.0"
     inkscape:pageshadow="2"
     inkscape:zoom="2.9941555"
     inkscape:cx="34.405292"
     inkscape:cy="32.982533"
     inkscape:document-units="px"
     inkscape:current-layer="layer1"
     showgrid="false"
     inkscape:window-width="1920"
     inkscape:window-height="1025"
     inkscape:window-x="-4"
     inkscape:window-y="39"
     inkscape:window-maximized="1"
     inkscape:showpageshadow="false"
     showborder="true"
     borderlayer="true"
     showguides="true">
    <inkscape:grid
       type="xygrid"
       id="grid3850" />
    <sodipodi:guide
       position="0,48.000017"
       orientation="48,0"
       id="guide4064" />
    <sodipodi:guide
       position="0,1.7382813e-05"
       orientation="0,48"
       id="guide4066" />
    <sodipodi:guide
       position="48,1.7382813e-05"
       orientation="-48,0"
       id="guide4068" />
    <sodipodi:guide
       position="48,48.000017"
       orientation="0,-48"
       id="guide4070" />
    <sodipodi:guide
       position="4,44.000017"
       orientation="40,0"
       id="guide4072" />
    <sodipodi:guide
       position="4,4.0000174"
       orientation="0,40"
       id="guide4074" />
    <sodipodi:guide
       position="44,4.0000174"
       orientation="-40,0"
       id="guide4076" />
    <sodipodi:guide
       position="44,44.000017"
       orientation="0,-40"
       id="guide4078" />
    <sodipodi:guide
       position="15,33.000017"
       orientation="18,0"
       id="guide4082" />
    <sodipodi:guide
       position="15,15.000017"
       orientation="0,18"
       id="guide4084" />
    <sodipodi:guide
       position="33,15.000017"
       orientation="-18,0"
       id="guide4086" />
    <sodipodi:guide
       position="33,33.000017"
       orientation="0,-18"
       id="guide4088" />
  </sodipodi:namedview>
  <metadata
     id="metadata7">
    <rdf:RDF>
      <cc:Work
         rdf:about="">
        <dc:format>image/svg+xml</dc:format>
        <dc:type
           rdf:resource="http://purl.org/dc/dcmitype/StillImage" />
        <dc:title />
      </cc:Work>
    </rdf:RDF>
  </metadata>
  <g
     inkscape:label="Capa 1"
     inkscape:groupmode="layer"
     id="layer1"
     transform="translate(0,-1004.3622)">
    <g
       transform="matrix(0.85106383,0,0,0.85106383,3.1489362,1007.5111)"
       id="g21">
      <path
         style="opacity:0.05"
         inkscape:connector-curvature="0"
         d="m 36.31,5 c 5.859,4.062 9.688,10.831 9.688,18.5 0,12.426 -10.07,22.5 -22.5,22.5 -7.669,0 -14.438,-3.828 -18.5,-9.688 1.037,1.822 2.306,3.499 3.781,4.969 4.085,3.712 9.514,5.969 15.469,5.969 12.703,0 23,-10.298 23,-23 0,-5.954 -2.256,-11.384 -5.969,-15.469 C 39.81,7.306 38.132,6.037 36.31,5 z m 4.969,3.781 c 3.854,4.113 6.219,9.637 6.219,15.719 0,12.703 -10.297,23 -23,23 -6.081,0 -11.606,-2.364 -15.719,-6.219 4.16,4.144 9.883,6.719 16.219,6.719 12.703,0 23,-10.298 23,-23 0,-6.335 -2.575,-12.06 -6.719,-16.219 z"
         id="path23" />
      <path
         style="opacity:0.1"
         inkscape:connector-curvature="0"
         d="m 41.28,8.781 c 3.712,4.085 5.969,9.514 5.969,15.469 0,12.703 -10.297,23 -23,23 -5.954,0 -11.384,-2.256 -15.469,-5.969 4.113,3.854 9.637,6.219 15.719,6.219 12.703,0 23,-10.298 23,-23 0,-6.081 -2.364,-11.606 -6.219,-15.719 z"
         id="path25" />
      <path
         style="opacity:0.2"
         inkscape:connector-curvature="0"
         d="M 31.25,2.375 C 39.865,5.529 46,13.792 46,23.505 c 0,12.426 -10.07,22.5 -22.5,22.5 -9.708,0 -17.971,-6.135 -21.12,-14.75 a 23,23 0 0 0 44.875,-7 23,23 0 0 0 -16,-21.875 z"
         id="path27" />
    </g>
    <g
       transform="matrix(0.85106383,0,0,0.85106383,3.1489362,1007.5111)"
       id="g29">
      <path
         style="fill:url(#linearGradient3764);fill-opacity:1"
         inkscape:connector-curvature="0"
         d="M 24,1 C 36.703,1 47,11.297 47,24 47,36.703 36.703,47 24,47 11.297,47 1,36.703 1,24 1,11.297 11.297,1 24,1 z"
         id="path31" />
    </g>
    <g
       transform="matrix(0.85106383,0,0,0.85106383,3.1489362,1007.5111)"
       id="g35">
      <g
         clip-path="url(#clipPath-719705410)"
         id="g37">
        <g
           transform="translate(1,1)"
           id="g39">
          <g
             style="opacity:0.1"
             id="g41">
            <!-- color: #7366a8 -->
            <g
               id="g43">
              <path
                 style="fill:#000000;fill-opacity:1;fill-rule:nonzero;stroke:none"
                 inkscape:connector-curvature="0"
                 d="m 14,12 0,24 c 0.246,0 0.484,-0.004 0.734,-0.023 3.563,-0.297 6.57,-2.637 8.234,-5.977 l 0,-11.973 c -1.805,-3.633 -5.176,-6.03 -8.969,-6.03 m 2.07,3.25 c 3.277,0.414 5.941,3.789 6.184,8.125 0.27,4.762 -2.488,8.902 -6.184,9.375 l 0,-7.375 c -0.383,-0.254 -0.656,-0.699 -0.691,-1.25 -0.039,-0.629 0.25,-1.203 0.691,-1.5 m 0,-7.375"
                 id="path45" />
              <path
                 style="fill:#000000;fill-opacity:1;fill-rule:nonzero;stroke:none"
                 inkscape:connector-curvature="0"
                 d="m 23.656,12 0,24 12.34,0 m -8.57,-7.305 c 0.238,0 0.5,0.031 0.754,0.074 0.254,0.043 0.504,0.109 0.777,0.203 l 0,1.148 c -0.242,-0.133 -0.465,-0.23 -0.691,-0.301 -0.227,-0.066 -0.445,-0.098 -0.648,-0.098 -0.266,0 -0.473,0.035 -0.602,0.125 -0.129,0.09 -0.195,0.227 -0.195,0.426 0,0.145 0.047,0.27 0.133,0.348 0.086,0.078 0.246,0.141 0.473,0.203 l 0.473,0.121 c 0.488,0.125 0.828,0.305 1.035,0.551 0.203,0.246 0.32,0.598 0.32,1.051 0,0.594 -0.141,1.035 -0.43,1.324 -0.285,0.289 -0.727,0.426 -1.313,0.426 -0.277,0 -0.563,-0.012 -0.84,-0.074 -0.281,-0.066 -0.563,-0.176 -0.844,-0.301 l 0,-1.176 c 0.281,0.184 0.563,0.328 0.82,0.422 0.262,0.094 0.512,0.125 0.754,0.125 0.246,0 0.43,-0.047 0.563,-0.148 0.129,-0.102 0.191,-0.238 0.191,-0.426 0,-0.172 -0.039,-0.309 -0.129,-0.398 -0.09,-0.094 -0.273,-0.18 -0.539,-0.25 l -0.43,-0.125 C 26.62,31.828 26.312,31.648 26.109,31.394 25.91,31.144 25.808,30.8 25.808,30.367 c 0,-0.535 0.133,-0.934 0.414,-1.223 0.277,-0.289 0.676,-0.449 1.207,-0.449 m -0.004,0"
                 id="path47" />
            </g>
          </g>
        </g>
      </g>
    </g>
    <g
       transform="matrix(0.85106383,0,0,0.85106383,3.1489362,1007.5111)"
       id="g49">
      <g
         clip-path="url(#clipPath-727594578)"
         id="g51">
        <!-- color: #7366a8 -->
        <g
           id="g53">
          <path
             style="fill:#f9f9f9;fill-opacity:1;fill-rule:nonzero;stroke:none"
             inkscape:connector-curvature="0"
             d="m 14,12 0,24 c 0.246,0 0.484,-0.004 0.734,-0.023 3.563,-0.297 6.57,-2.637 8.234,-5.977 l 0,-11.973 c -1.805,-3.633 -5.176,-6.03 -8.969,-6.03 m 2.07,3.25 c 3.277,0.414 5.941,3.789 6.184,8.125 0.27,4.762 -2.488,8.902 -6.184,9.375 l 0,-7.375 c -0.383,-0.254 -0.656,-0.699 -0.691,-1.25 -0.039,-0.629 0.25,-1.203 0.691,-1.5 m 0,-7.375"
             id="path55" />
          <path
             style="fill:#f9f9f9;fill-opacity:1;fill-rule:nonzero;stroke:none"
             inkscape:connector-curvature="0"
             d="m 23.656,12 0,24 12.34,0 m -8.57,-7.305 c 0.238,0 0.5,0.031 0.754,0.074 0.254,0.043 0.504,0.109 0.777,0.203 l 0,1.148 c -0.242,-0.133 -0.465,-0.23 -0.691,-0.301 -0.227,-0.066 -0.445,-0.098 -0.648,-0.098 -0.266,0 -0.473,0.035 -0.602,0.125 -0.129,0.09 -0.195,0.227 -0.195,0.426 0,0.145 0.047,0.27 0.133,0.348 0.086,0.078 0.246,0.141 0.473,0.203 l 0.473,0.121 c 0.488,0.125 0.828,0.305 1.035,0.551 0.203,0.246 0.32,0.598 0.32,1.051 0,0.594 -0.141,1.035 -0.43,1.324 -0.285,0.289 -0.727,0.426 -1.313,0.426 -0.277,0 -0.563,-0.012 -0.84,-0.074 -0.281,-0.066 -0.563,-0.176 -0.844,-0.301 l 0,-1.176 c 0.281,0.184 0.563,0.328 0.82,0.422 0.262,0.094 0.512,0.125 0.754,0.125 0.246,0 0.43,-0.047 0.563,-0.148 0.129,-0.102 0.191,-0.238 0.191,-0.426 0,-0.172 -0.039,-0.309 -0.129,-0.398 -0.09,-0.094 -0.273,-0.18 -0.539,-0.25 l -0.43,-0.125 C 26.62,31.828 26.312,31.648 26.109,31.394 25.91,31.144 25.808,30.8 25.808,30.367 c 0,-0.535 0.133,-0.934 0.414,-1.223 0.277,-0.289 0.676,-0.449 1.207,-0.449 m -0.004,0"
             id="path57" />
        </g>
      </g>
    </g>
    <g
       transform="matrix(0.85106383,0,0,0.85106383,3.1489362,1007.5111)"
       id="g59">
      <path
         style="opacity:0.1"
         inkscape:connector-curvature="0"
         d="m 40.03,7.531 c 3.712,4.084 5.969,9.514 5.969,15.469 0,12.703 -10.297,23 -23,23 C 17.045,46 11.615,43.744 7.53,40.031 11.708,44.322 17.54,47 23.999,47 c 12.703,0 23,-10.298 23,-23 0,-6.462 -2.677,-12.291 -6.969,-16.469 z"
         id="path61" />
    </g>
  </g>
</svg>
