<?xml version="1.0" encoding="UTF-8" standalone="no"?>
<!-- Created using Karbon, part of Calligra: http://www.calligra.org/karbon -->

<svg
   xmlns:dc="http://purl.org/dc/elements/1.1/"
   xmlns:cc="http://creativecommons.org/ns#"
   xmlns:rdf="http://www.w3.org/1999/02/22-rdf-syntax-ns#"
   xmlns:svg="http://www.w3.org/2000/svg"
   xmlns="http://www.w3.org/2000/svg"
   xmlns:sodipodi="http://sodipodi.sourceforge.net/DTD/sodipodi-0.dtd"
   xmlns:inkscape="http://www.inkscape.org/namespaces/inkscape"
   width="38.4pt"
   height="38.4pt"
   id="svg2"
   version="1.1"
   inkscape:version="0.48.5 r10040"
   sodipodi:docname="discwrapper.svg">
  <metadata
     id="metadata13">
    <rdf:RDF>
      <cc:Work
         rdf:about="">
        <dc:format>image/svg+xml</dc:format>
        <dc:type
           rdf:resource="http://purl.org/dc/dcmitype/StillImage" />
      </cc:Work>
    </rdf:RDF>
  </metadata>
  <sodipodi:namedview
     pagecolor="#ffffff"
     bordercolor="#666666"
     borderopacity="1"
     objecttolerance="10"
     gridtolerance="10"
     guidetolerance="10"
     inkscape:pageopacity="0"
     inkscape:pageshadow="2"
     inkscape:window-width="1920"
     inkscape:window-height="1025"
     id="namedview11"
     showgrid="false"
     inkscape:zoom="4.9166667"
     inkscape:cx="104.87673"
     inkscape:cy="42.241976"
     inkscape:window-x="-4"
     inkscape:window-y="39"
     inkscape:window-maximized="1"
     inkscape:current-layer="svg2" />
  <defs
     id="defs4" />
  <path
     style="fill:#001826;fill-rule:evenodd;stroke:#003bc3;stroke-width:0;stroke-linecap:square;stroke-linejoin:miter;stroke-miterlimit:2"
     inkscape:connector-curvature="0"
     d="M 24,4 C 12.95035,4 4,12.95035 4,24 4,35.0497 12.95035,44 24,44 35.0497,44 44,35.0497 44,24 44,12.95035 35.0497,4 24,4 z m 0,16.7188 c 1.8183,0 3.2812,1.4629 3.2812,3.2812 0,1.8183 -1.4629,3.2812 -3.2812,3.2812 -1.8183,0 -3.2812,-1.4629 -3.2812,-3.2812 0,-1.8183 1.4629,-3.2812 3.2812,-3.2812 z"
     stroke-miterlimit="2.00000000000"
     id="shape011" />
  <path
     style="fill:#9acd32;fill-rule:evenodd;stroke:#003bc3;stroke-width:0;stroke-linecap:square;stroke-linejoin:miter;stroke-miterlimit:2"
     inkscape:connector-curvature="0"
     d="m 24,16.375 c -4.2054,0 -7.625,3.4196 -7.625,7.625 0,4.2053 3.4196,7.625 7.625,7.625 4.2053,0 7.625,-3.4197 7.625,-7.625 0,-4.2054 -3.4197,-7.625 -7.625,-7.625 z m 0,4.34375 c 1.81833,0 3.2812,1.46292 3.2812,3.28125 0,1.81833 -1.46287,3.2812 -3.2812,3.2812 -1.81833,0 -3.28125,-1.46287 -3.28125,-3.2812 0,-1.81833 1.46292,-3.28125 3.28125,-3.28125 z"
     stroke-miterlimit="2.00000000000"
     id="shape11" />
  <path
     style="fill:#34495e;fill-rule:evenodd;stroke:#003bc3;stroke-width:0;stroke-linecap:square;stroke-linejoin:bevel;stroke-dasharray:none"
     inkscape:connector-curvature="0"
     d="m 29.0068,31.40932 c 1.34004,-0.92992 1.72047,-1.523961 2.25005,-2.18482 l 7.89965,5.63583 c -1.19398,1.85011 -2.60462,3.4628 -4.54904,4.56827 z"
     id="shape0" />
  <path
     style="fill:#34495e;fill-rule:evenodd;stroke:#003bc3;stroke-width:0;stroke-linecap:square;stroke-linejoin:bevel;stroke-dasharray:none"
     inkscape:connector-curvature="0"
     d="m 18.9749,16.6113 c -1.36009,0.94889 -1.74622,1.555054 -2.28372,2.2294 L 8.6733,13.08986 C 9.88514,11.20199 11.31691,9.55639 13.29043,8.4284 z"
     id="shape1" />
  <text
     xml:space="preserve"
     style="font-size:29.58701706px;font-style:normal;font-variant:normal;font-weight:normal;font-stretch:normal;line-height:125%;letter-spacing:0px;word-spacing:0px;fill:#000000;fill-opacity:1;stroke:none;font-family:Titillium Web;-inkscape-font-specification:Titillium Web"
     x="9.3954592"
     y="30.736437"
     id="text2990"
     sodipodi:linespacing="125%"
     transform="scale(0.91588368,1.0918417)"><tspan
       sodipodi:role="line"
       id="tspan2992"
       x="9.3954592"
       y="30.736437"
       style="fill:#adff2f">D</tspan></text>
  <text
     xml:space="preserve"
     style="font-size:25.17926788px;font-style:normal;font-variant:normal;font-weight:normal;font-stretch:normal;line-height:125%;letter-spacing:0px;word-spacing:0px;fill:#000000;fill-opacity:1;stroke:none;font-family:Titillium Web;-inkscape-font-specification:Titillium Web"
     x="19.355415"
     y="35.642441"
     id="text2994"
     sodipodi:linespacing="125%"
     transform="scale(0.937123,1.0670958)"><tspan
       sodipodi:role="line"
       id="tspan2996"
       x="19.355415"
       y="35.642441"
       style="fill:#f5f5f5">W</tspan></text>
</svg>
