<?xml version="1.0" encoding="UTF-8" standalone="no"?>
<!-- Created using Karbon, part of Calligra: http://www.calligra.org/karbon -->

<svg
   xmlns:dc="http://purl.org/dc/elements/1.1/"
   xmlns:cc="http://creativecommons.org/ns#"
   xmlns:rdf="http://www.w3.org/1999/02/22-rdf-syntax-ns#"
   xmlns:svg="http://www.w3.org/2000/svg"
   xmlns="http://www.w3.org/2000/svg"
   xmlns:sodipodi="http://sodipodi.sourceforge.net/DTD/sodipodi-0.dtd"
   xmlns:inkscape="http://www.inkscape.org/namespaces/inkscape"
   width="38.4pt"
   height="38.4pt"
   id="svg2"
   version="1.1"
   inkscape:version="0.91 r13725"
   sodipodi:docname="ekiga.svg">
  <metadata
     id="metadata16">
    <rdf:RDF>
      <cc:Work
         rdf:about="">
        <dc:format>image/svg+xml</dc:format>
        <dc:type
           rdf:resource="http://purl.org/dc/dcmitype/StillImage" />
        <dc:title />
      </cc:Work>
    </rdf:RDF>
  </metadata>
  <sodipodi:namedview
     pagecolor="#ffffff"
     bordercolor="#666666"
     borderopacity="1"
     objecttolerance="10"
     gridtolerance="10"
     guidetolerance="10"
     inkscape:pageopacity="0"
     inkscape:pageshadow="2"
     inkscape:window-width="1920"
     inkscape:window-height="992"
     id="namedview14"
     showgrid="false"
     inkscape:showpageshadow="false"
     borderlayer="true"
     inkscape:zoom="3.4766083"
     inkscape:cx="-7.3680275"
     inkscape:cy="20.849705"
     inkscape:window-x="-4"
     inkscape:window-y="26"
     inkscape:window-maximized="1"
     inkscape:current-layer="svg2">
    <sodipodi:guide
       position="9.5367432e-07,48.000001"
       orientation="47.999999,0"
       id="guide4074" />
    <sodipodi:guide
       position="9.5367432e-07,1.9073486e-06"
       orientation="0,47.999999"
       id="guide4076" />
    <sodipodi:guide
       position="48,1.9073486e-06"
       orientation="-47.999999,0"
       id="guide4078" />
    <sodipodi:guide
       position="48,48.000001"
       orientation="0,-47.999999"
       id="guide4080" />
    <sodipodi:guide
       position="4.000001,44.000001"
       orientation="39.999999,0"
       id="guide4082" />
    <sodipodi:guide
       position="4.000001,4.0000019"
       orientation="0,39.999999"
       id="guide4084" />
    <sodipodi:guide
       position="44,4.0000019"
       orientation="-39.999999,0"
       id="guide4086" />
    <sodipodi:guide
       position="44,44.000001"
       orientation="0,-39.999999"
       id="guide4088" />
    <sodipodi:guide
       position="12,26.847458"
       orientation="31.999999,0"
       id="guide4094" />
    <sodipodi:guide
       position="50.135593,12"
       orientation="0,31.999999"
       id="guide4096" />
    <sodipodi:guide
       position="25.923254,36.026491"
       orientation="0,-17.999999"
       id="guide4110" />
    <sodipodi:guide
       position="36,26.288136"
       orientation="-9,0"
       id="guide4124" />
  </sodipodi:namedview>
  <defs
     id="defs4">
    <clipPath
       id="clipPath-177157309">
      <g
         transform="translate(0,-1004.3622)"
         id="g17">
        <path
           style="fill:#1890d0"
           inkscape:connector-curvature="0"
           d="m -24,13 c 0,1.105 -0.672,2 -1.5,2 -0.828,0 -1.5,-0.895 -1.5,-2 0,-1.105 0.672,-2 1.5,-2 0.828,0 1.5,0.895 1.5,2 z"
           transform="matrix(15.333333,0,0,11.5,414.99999,878.8622)"
           id="path19" />
      </g>
    </clipPath>
    <clipPath
       id="clipPath-166144292">
      <g
         transform="translate(0,-1004.3622)"
         id="g12">
        <path
           style="fill:#1890d0"
           inkscape:connector-curvature="0"
           d="m -24,13 c 0,1.105 -0.672,2 -1.5,2 -0.828,0 -1.5,-0.895 -1.5,-2 0,-1.105 0.672,-2 1.5,-2 0.828,0 1.5,0.895 1.5,2 z"
           transform="matrix(15.333333,0,0,11.5,414.99999,878.8622)"
           id="path14" />
      </g>
    </clipPath>
    <linearGradient
       id="linearGradient3764"
       x1="1"
       x2="47"
       gradientUnits="userSpaceOnUse"
       gradientTransform="matrix(0,-1,1,0,-1.5e-6,47.999998)">
      <stop
         stop-color="#ec6f1c"
         stop-opacity="1"
         id="stop7" />
      <stop
         offset="1"
         stop-color="#ed7a2e"
         stop-opacity="1"
         id="stop9" />
    </linearGradient>
  </defs>
  <g
     transform="matrix(0.8695652,0,0,0.86956522,3.1304357,3.1304366)"
     id="g29">
    <path
       style="fill:url(#linearGradient3764);fill-opacity:1"
       inkscape:connector-curvature="0"
       d="M 24,1 C 36.703,1 47,11.297 47,24 47,36.703 36.703,47 24,47 11.297,47 1,36.703 1,24 1,11.297 11.297,1 24,1 Z"
       id="path31" />
  </g>
  <g
     transform="matrix(0.8695652,0,0,0.86956522,3.1304357,3.1304366)"
     id="g35">
    <g
       clip-path="url(#clipPath-166144292)"
       id="g37">
      <g
         transform="translate(1,1)"
         id="g39">
        <g
           style="opacity:0.1"
           id="g41">
          <!-- color: #ed7a2e -->
          <g
             id="g43">
            <path
               style="fill:#000000;fill-opacity:1;fill-rule:nonzero;stroke:none"
               inkscape:connector-curvature="0"
               d="m 25,12 0,8 -1,0 c -0.555,0 -1,0.445 -1,1 l 0,6 c 0,0.551 0.445,1 1,1 l 1,0 0,8 -2,0 c -2.215,0 -4,-1.785 -4,-4 l 0,-16 c 0,-2.219 1.785,-4 4,-4 m 2,0"
               id="path45" />
            <path
               style="fill:#000000;fill-opacity:1;fill-rule:nonzero;stroke:none"
               inkscape:connector-curvature="0"
               d="m 29,12 c 0.555,0 1,0.445 1,1 l 0,6 c 0,0.551 -0.445,1 -1,1 l -3,0 0,-8 m 3,0"
               id="path47" />
            <path
               style="fill:#000000;fill-opacity:1;fill-rule:nonzero;stroke:none"
               inkscape:connector-curvature="0"
               d="m 29,28 c 0.555,0 1,0.445 1,0.996 l 0,6 c 0,0.555 -0.445,1 -1,1 l -2.996,0 0,-7.996 M 29,28"
               id="path49" />
            <path
               style="fill:#000000;stroke:#f9f9f9;stroke-width:0.28200001;stroke-linecap:round;stroke-linejoin:round;stroke-miterlimit:4;stroke-opacity:1"
               inkscape:connector-curvature="0"
               d="m 0.141,6.632 2.963,0 0.561,-1.411 0.282,2.822 0.564,-1.411 8.89,0"
               transform="scale(3.543307,3.543307)"
               stroke-miterlimit="4"
               id="path51" />
          </g>
        </g>
      </g>
    </g>
  </g>
  <g
     transform="matrix(0.8695652,0,0,0.86956522,3.1304357,3.1304366)"
     id="g53">
    <g
       clip-path="url(#clipPath-177157309)"
       id="g55">
      <!-- color: #ed7a2e -->
      <g
         id="g57">
        <path
           style="fill:#f9f9f9;fill-opacity:1;fill-rule:nonzero;stroke:none"
           inkscape:connector-curvature="0"
           d="m 25,12 0,8 -1,0 c -0.555,0 -1,0.445 -1,1 l 0,6 c 0,0.551 0.445,1 1,1 l 1,0 0,8 -2,0 c -2.215,0 -4,-1.785 -4,-4 l 0,-16 c 0,-2.219 1.785,-4 4,-4 m 2,0"
           id="path59" />
        <path
           style="fill:#f9f9f9;fill-opacity:1;fill-rule:nonzero;stroke:none"
           inkscape:connector-curvature="0"
           d="m 29,12 c 0.555,0 1,0.445 1,1 l 0,6 c 0,0.551 -0.445,1 -1,1 l -3,0 0,-8 m 3,0"
           id="path61" />
        <path
           style="fill:#f9f9f9;fill-opacity:1;fill-rule:nonzero;stroke:none"
           inkscape:connector-curvature="0"
           d="m 29,28 c 0.555,0 1,0.445 1,0.996 l 0,6 c 0,0.555 -0.445,1 -1,1 l -2.996,0 0,-7.996 M 29,28"
           id="path63" />
        <path
           style="fill:none;stroke:#f9f9f9;stroke-width:0.28200001;stroke-linecap:round;stroke-linejoin:round;stroke-miterlimit:4;stroke-opacity:1"
           inkscape:connector-curvature="0"
           d="m 0.141,6.632 2.963,0 0.561,-1.411 0.282,2.822 0.564,-1.411 8.89,0"
           transform="scale(3.543307,3.543307)"
           stroke-miterlimit="4"
           id="path65" />
      </g>
    </g>
  </g>
</svg>
