<?xml version="1.0" encoding="UTF-8" standalone="no"?>
<!-- Created with Inkscape (http://www.inkscape.org/) -->

<svg
   xmlns:dc="http://purl.org/dc/elements/1.1/"
   xmlns:cc="http://creativecommons.org/ns#"
   xmlns:rdf="http://www.w3.org/1999/02/22-rdf-syntax-ns#"
   xmlns:svg="http://www.w3.org/2000/svg"
   xmlns="http://www.w3.org/2000/svg"
   xmlns:sodipodi="http://sodipodi.sourceforge.net/DTD/sodipodi-0.dtd"
   xmlns:inkscape="http://www.inkscape.org/namespaces/inkscape"
   width="48"
   height="48"
   id="svg2"
   version="1.1"
   inkscape:version="0.48.5 r10040"
   viewBox="0 0 47.999998 48.000001"
   sodipodi:docname="evernote.svg"
   inkscape:export-filename="/home/pacomaro/.icons/flattr/apps/22/banshee.png"
   inkscape:export-xdpi="41.25"
   inkscape:export-ydpi="41.25">
  <defs
     id="defs4" />
  <sodipodi:namedview
     id="base"
     pagecolor="#ffffff"
     bordercolor="#666666"
     borderopacity="1.0"
     inkscape:pageopacity="0.0"
     inkscape:pageshadow="2"
     inkscape:zoom="15.839192"
     inkscape:cx="3.992136"
     inkscape:cy="16.247514"
     inkscape:document-units="px"
     inkscape:current-layer="layer1"
     showgrid="false"
     borderlayer="true"
     inkscape:showpageshadow="false"
     units="px"
     inkscape:window-width="1920"
     inkscape:window-height="1035"
     inkscape:window-x="-4"
     inkscape:window-y="29"
     inkscape:window-maximized="1">
    <sodipodi:guide
       position="9.0000004,39.000018"
       orientation="29.999999,0"
       id="guide3266" />
    <sodipodi:guide
       position="9.0000004,9.0000182"
       orientation="0,30"
       id="guide3268" />
    <sodipodi:guide
       position="39.000001,9.0000182"
       orientation="-29.999999,0"
       id="guide3270" />
    <sodipodi:guide
       position="39.000001,39.000018"
       orientation="0,-30"
       id="guide3272" />
    <sodipodi:guide
       position="4.0000005,44.000017"
       orientation="39.999999,0"
       id="guide3276" />
    <sodipodi:guide
       position="4.0000005,4.0000183"
       orientation="0,40"
       id="guide3278" />
    <sodipodi:guide
       position="44.000001,4.0000183"
       orientation="-39.999999,0"
       id="guide3280" />
    <sodipodi:guide
       position="44.000001,44.000017"
       orientation="0,-40"
       id="guide3282" />
    <sodipodi:guide
       position="15,33.000018"
       orientation="18,0"
       id="guide4157" />
    <sodipodi:guide
       position="15,15.000018"
       orientation="0,18.000001"
       id="guide4159" />
    <sodipodi:guide
       position="33.000001,15.000018"
       orientation="-18,0"
       id="guide4161" />
    <sodipodi:guide
       position="33.000001,33.000018"
       orientation="0,-18.000001"
       id="guide4163" />
  </sodipodi:namedview>
  <metadata
     id="metadata7">
    <rdf:RDF>
      <cc:Work
         rdf:about="">
        <dc:format>image/svg+xml</dc:format>
        <dc:type
           rdf:resource="http://purl.org/dc/dcmitype/StillImage" />
        <dc:title />
      </cc:Work>
    </rdf:RDF>
  </metadata>
  <g
     inkscape:label="Capa 1"
     inkscape:groupmode="layer"
     id="layer1"
     transform="translate(0,-1004.3622)">
    <rect
       style="opacity:1;fill:#9acd32;fill-opacity:1;fill-rule:evenodd;stroke:none"
       id="rect3262"
       width="40"
       height="40"
       x="3.999999"
       y="1008.3622"
       ry="20" />
    <path
       style="fill:#3a3a3a;fill-opacity:1"
       id="path4185"
       inkscape:connector-curvature="0"
       d="m 13.516757,1019.167 c 0,0 0,0 0.002,0 h 2.81489 c 0.16131,0 0.29103,-0.1313 0.29134,-0.2914 0,0 -0.0341,-2.4136 -0.0341,-3.0845 v -0.01 c 0,-0.5509 0.11564,-1.0314 0.31707,-1.4339 l 0.0963,-0.1808 c -0.0108,0 -0.0216,0.01 -0.0323,0.018 l -5.46939,5.4237 c -0.0107,0.01 -0.0174,0.02 -0.0205,0.032 0.11313,-0.056 0.26781,-0.1325 0.28968,-0.1421 0.47631,-0.215 1.05385,-0.3327 1.74523,-0.3327 z" />
    <path
       style="fill:#3a3a3a;fill-opacity:1"
       id="path4183"
       inkscape:connector-curvature="0"
       d="m 20.862617,1013.3622 c -0.66407,0.021 -1.19971,0.097 -1.45802,0.1691 -0.54735,0.1531 -1.15991,0.4673 -1.49709,0.9504 -0.22614,0.3227 -0.36337,0.7372 -0.36451,1.3148 0,0.3269 0.005,1.0863 0.0131,1.7705 0.008,0.6863 0.013,1.3106 0.013,1.3148 -3.8e-4,0.6111 -0.49281,1.1058 -1.10654,1.1066 l -2.81192,0 c -0.60053,0 -1.05542,0.1011 -1.40595,0.2603 -0.35104,0.1594 -0.6052,0.3707 -0.79411,0.6249 -0.37601,0.5048 -0.44417,1.1218 -0.44262,1.7574 0,0 0.005,0.5307 0.13019,1.5362 0.10407,0.778 0.9561,6.21 1.75744,7.8629 0.31072,0.6431 0.50915,0.9142 1.11956,1.1977 1.36007,0.5823 4.46723,1.2205 5.92326,1.406 1.45338,0.1859 2.37243,0.58 2.91605,-0.5598 0.002,0 0.10006,-0.2782 0.24735,-0.69 0.47197,-1.4302 0.54676,-2.7007 0.54676,-3.619 0,-0.093 0.13018,-0.098 0.13018,0 0,0.6483 -0.11878,2.9384 1.61425,3.5539 0.68415,0.2426 2.09887,0.4559 3.540933,0.6249 1.303919,0.1498 2.252137,0.6643 2.252137,4.0096 0,2.0353 -0.433943,2.3172 -2.668717,2.3172 -1.811553,0 -2.499483,0.046 -2.499483,-1.3929 0,-1.1632 1.15217,-1.0415 2.004794,-1.0415 0.380824,0 0.104145,-0.2848 0.104145,-1.0024 0,-0.7139 0.448303,-1.1221 0.02604,-1.1326 -2.948337,-0.081 -4.686527,0 -4.686527,3.6842 0,3.3474 1.28314,3.9705 5.467615,3.9705 3.280868,0 4.438378,-0.1057 5.793068,-4.309 0.268166,-0.8298 0.922484,-3.3638 1.314833,-7.6156 0.248105,-2.6883 -0.242607,-10.8009 -0.624871,-12.8489 -0.223606,-1.197 -0.931789,-1.7989 -1.575194,-2.0308 -0.694169,-0.2509 -2.097839,-0.5076 -3.866385,-0.7161 -1.422829,-0.1675 -3.103566,-0.1483 -4.113726,-0.1171 -0.12124,-0.8304 -0.70216,-1.586 -1.35389,-1.8485 -1.08528,-0.4369 -2.53829,-0.543 -3.64508,-0.5077 z m 9.112698,12.4583 c 0.06889,-0.01 0.145794,0 0.221308,0 1.337474,0.046 1.518364,1.3048 1.52312,2.161 -0.563941,-0.2515 -1.257412,-0.4159 -2.01781,-0.4427 -0.405328,-0.014 -0.795058,0.02 -1.158614,0.078 0.09592,-0.7747 0.398603,-1.7171 1.431996,-1.7965 z" />
  </g>
</svg>
