<?xml version="1.0" encoding="UTF-8" standalone="no"?>
<!-- Created with Inkscape (http://www.inkscape.org/) -->

<svg
   xmlns:dc="http://purl.org/dc/elements/1.1/"
   xmlns:cc="http://creativecommons.org/ns#"
   xmlns:rdf="http://www.w3.org/1999/02/22-rdf-syntax-ns#"
   xmlns:svg="http://www.w3.org/2000/svg"
   xmlns="http://www.w3.org/2000/svg"
   xmlns:sodipodi="http://sodipodi.sourceforge.net/DTD/sodipodi-0.dtd"
   xmlns:inkscape="http://www.inkscape.org/namespaces/inkscape"
   width="48"
   height="48"
   id="svg2"
   version="1.1"
   inkscape:version="0.48.5 r10040"
   sodipodi:docname="facebook.svg"
   inkscape:export-filename="/home/uri/workspace/NitruxforAndroid/res/drawable-xhdpi/facebook.png"
   inkscape:export-xdpi="180"
   inkscape:export-ydpi="180">
  <defs
     id="defs4">
    <clipPath
       id="clipPath-656603142">
      <g
         transform="translate(0,-1004.3622)"
         id="g17">
        <path
           style="fill:#1890d0"
           inkscape:connector-curvature="0"
           d="m -24,13 c 0,1.105 -0.672,2 -1.5,2 -0.828,0 -1.5,-0.895 -1.5,-2 0,-1.105 0.672,-2 1.5,-2 0.828,0 1.5,0.895 1.5,2 z"
           transform="matrix(15.333333,0,0,11.5,414.99999,878.8622)"
           id="path19" />
      </g>
    </clipPath>
    <clipPath
       id="clipPath-642319694">
      <g
         transform="translate(0,-1004.3622)"
         id="g12">
        <path
           style="fill:#1890d0"
           inkscape:connector-curvature="0"
           d="m -24,13 c 0,1.105 -0.672,2 -1.5,2 -0.828,0 -1.5,-0.895 -1.5,-2 0,-1.105 0.672,-2 1.5,-2 0.828,0 1.5,0.895 1.5,2 z"
           transform="matrix(15.333333,0,0,11.5,414.99999,878.8622)"
           id="path14" />
      </g>
    </clipPath>
    <linearGradient
       id="linearGradient3764"
       x1="1"
       x2="47"
       gradientUnits="userSpaceOnUse"
       gradientTransform="matrix(0,-1,1,0,-1.5e-6,47.999998)">
      <stop
         stop-color="#344e8e"
         stop-opacity="1"
         id="stop7" />
      <stop
         offset="1"
         stop-color="#3a569c"
         stop-opacity="1"
         id="stop9" />
    </linearGradient>
  </defs>
  <sodipodi:namedview
     id="base"
     pagecolor="#ffffff"
     bordercolor="#666666"
     borderopacity="1.0"
     inkscape:pageopacity="0.0"
     inkscape:pageshadow="2"
     inkscape:zoom="8.456844"
     inkscape:cx="25.441226"
     inkscape:cy="29.17575"
     inkscape:document-units="px"
     inkscape:current-layer="layer1"
     showgrid="false"
     inkscape:window-width="1920"
     inkscape:window-height="1025"
     inkscape:window-x="-4"
     inkscape:window-y="39"
     inkscape:window-maximized="1"
     borderlayer="true"
     inkscape:showpageshadow="false">
    <inkscape:grid
       type="xygrid"
       id="grid3850" />
    <sodipodi:guide
       position="4,44.000017"
       orientation="40,0"
       id="guide4082" />
    <sodipodi:guide
       position="4,4.0000174"
       orientation="0,40"
       id="guide4084" />
    <sodipodi:guide
       position="44,4.0000174"
       orientation="-40,0"
       id="guide4086" />
    <sodipodi:guide
       position="44,44.000017"
       orientation="0,-40"
       id="guide4088" />
    <sodipodi:guide
       position="9,39.000017"
       orientation="30,0"
       id="guide4092" />
    <sodipodi:guide
       position="9,9.0000174"
       orientation="0,30"
       id="guide4094" />
    <sodipodi:guide
       position="39,9.0000174"
       orientation="-30,0"
       id="guide4096" />
    <sodipodi:guide
       position="39,39.000017"
       orientation="0,-30"
       id="guide4098" />
    <sodipodi:guide
       position="15,33.000017"
       orientation="18,0"
       id="guide4100" />
    <sodipodi:guide
       position="15,15.000017"
       orientation="0,18"
       id="guide4102" />
    <sodipodi:guide
       position="33,15.000017"
       orientation="-18,0"
       id="guide4104" />
    <sodipodi:guide
       position="33,33.000017"
       orientation="0,-18"
       id="guide4106" />
  </sodipodi:namedview>
  <metadata
     id="metadata7">
    <rdf:RDF>
      <cc:Work
         rdf:about="">
        <dc:format>image/svg+xml</dc:format>
        <dc:type
           rdf:resource="http://purl.org/dc/dcmitype/StillImage" />
        <dc:title />
      </cc:Work>
    </rdf:RDF>
  </metadata>
  <g
     inkscape:label="Capa 1"
     inkscape:groupmode="layer"
     id="layer1"
     transform="translate(0,-1004.3622)">
    <g
       transform="matrix(0.85106383,0,0,0.85106383,3.1489362,1007.5111)"
       id="g21">
      <path
         style="opacity:0.05"
         inkscape:connector-curvature="0"
         d="m 36.31,5 c 5.859,4.062 9.688,10.831 9.688,18.5 0,12.426 -10.07,22.5 -22.5,22.5 -7.669,0 -14.438,-3.828 -18.5,-9.688 1.037,1.822 2.306,3.499 3.781,4.969 4.085,3.712 9.514,5.969 15.469,5.969 12.703,0 23,-10.298 23,-23 0,-5.954 -2.256,-11.384 -5.969,-15.469 C 39.81,7.306 38.132,6.037 36.31,5 z m 4.969,3.781 c 3.854,4.113 6.219,9.637 6.219,15.719 0,12.703 -10.297,23 -23,23 -6.081,0 -11.606,-2.364 -15.719,-6.219 4.16,4.144 9.883,6.719 16.219,6.719 12.703,0 23,-10.298 23,-23 0,-6.335 -2.575,-12.06 -6.719,-16.219 z"
         id="path23" />
      <path
         style="opacity:0.1"
         inkscape:connector-curvature="0"
         d="m 41.28,8.781 c 3.712,4.085 5.969,9.514 5.969,15.469 0,12.703 -10.297,23 -23,23 -5.954,0 -11.384,-2.256 -15.469,-5.969 4.113,3.854 9.637,6.219 15.719,6.219 12.703,0 23,-10.298 23,-23 0,-6.081 -2.364,-11.606 -6.219,-15.719 z"
         id="path25" />
      <path
         style="opacity:0.2"
         inkscape:connector-curvature="0"
         d="M 31.25,2.375 C 39.865,5.529 46,13.792 46,23.505 c 0,12.426 -10.07,22.5 -22.5,22.5 -9.708,0 -17.971,-6.135 -21.12,-14.75 a 23,23 0 0 0 44.875,-7 23,23 0 0 0 -16,-21.875 z"
         id="path27" />
    </g>
    <g
       transform="matrix(0.85106383,0,0,0.85106383,3.1489362,1007.5111)"
       id="g29">
      <path
         style="fill:url(#linearGradient3764);fill-opacity:1"
         inkscape:connector-curvature="0"
         d="M 24,1 C 36.703,1 47,11.297 47,24 47,36.703 36.703,47 24,47 11.297,47 1,36.703 1,24 1,11.297 11.297,1 24,1 z"
         id="path31" />
    </g>
    <g
       transform="matrix(0.85106383,0,0,0.85106383,3.1489362,1007.5111)"
       id="g35">
      <g
         clip-path="url(#clipPath-642319694)"
         id="g37">
        <g
           transform="translate(1,1)"
           id="g39">
          <g
             style="opacity:0.1"
             id="g41">
            <!-- color: #3a569c -->
            <g
               id="g43">
              <path
                 style="fill:#000000;fill-opacity:1;fill-rule:nonzero;stroke:none"
                 inkscape:connector-curvature="0"
                 d="m 17,19 3,0 0,-2 c 0,-1.559 0.223,-2.633 0.586,-3.402 0.379,-0.766 1.059,-1.387 2.047,-1.867 1,-0.484 2.262,-0.73 3.785,-0.73 1.559,0 3.195,0.402 4.582,1 l -1,3 c -0.871,-0.188 -1.453,-0.234 -2.258,-0.234 -0.793,0 -1.363,0.168 -1.715,0.508 C 25.687,15.599 25,16.06 25,17.005 l 0,2 5,0 0,3 -5,0 0,15 -4.961,0 -0.039,-15 -3,0"
                 id="path45" />
            </g>
          </g>
        </g>
      </g>
    </g>
    <g
       transform="matrix(0.85106383,0,0,0.85106383,3.1489362,1007.5111)"
       id="g47">
      <g
         clip-path="url(#clipPath-656603142)"
         id="g49">
        <!-- color: #3a569c -->
        <g
           id="g51">
          <path
             style="fill:#f9f9f9;fill-opacity:1;fill-rule:nonzero;stroke:none"
             inkscape:connector-curvature="0"
             d="m 17,19 3,0 0,-2 c 0,-1.559 0.223,-2.633 0.586,-3.402 0.379,-0.766 1.059,-1.387 2.047,-1.867 1,-0.484 2.262,-0.73 3.785,-0.73 1.559,0 3.195,0.402 4.582,1 l -1,3 c -0.871,-0.188 -1.453,-0.234 -2.258,-0.234 -0.793,0 -1.363,0.168 -1.715,0.508 C 25.687,15.599 25,16.06 25,17.005 l 0,2 5,0 0,3 -5,0 0,15 -4.961,0 -0.039,-15 -3,0"
             id="path53" />
        </g>
      </g>
    </g>
    <g
       transform="matrix(0.85106383,0,0,0.85106383,3.1489362,1007.5111)"
       id="g55">
      <path
         style="opacity:0.1"
         inkscape:connector-curvature="0"
         d="m 40.03,7.531 c 3.712,4.084 5.969,9.514 5.969,15.469 0,12.703 -10.297,23 -23,23 C 17.045,46 11.615,43.744 7.53,40.031 11.708,44.322 17.54,47 23.999,47 c 12.703,0 23,-10.298 23,-23 0,-6.462 -2.677,-12.291 -6.969,-16.469 z"
         id="path57" />
    </g>
  </g>
</svg>
