<?xml version="1.0" encoding="UTF-8" standalone="no"?>
<!-- Created with Inkscape (http://www.inkscape.org/) -->

<svg
   xmlns:dc="http://purl.org/dc/elements/1.1/"
   xmlns:cc="http://creativecommons.org/ns#"
   xmlns:rdf="http://www.w3.org/1999/02/22-rdf-syntax-ns#"
   xmlns:svg="http://www.w3.org/2000/svg"
   xmlns="http://www.w3.org/2000/svg"
   xmlns:sodipodi="http://sodipodi.sourceforge.net/DTD/sodipodi-0.dtd"
   xmlns:inkscape="http://www.inkscape.org/namespaces/inkscape"
   width="48"
   height="48"
   id="svg2"
   version="1.1"
   inkscape:version="0.48.5 r10040"
   sodipodi:docname="firefox.svg">
  <defs
     id="defs4">
    <clipPath
       id="clipPath16"
       clipPathUnits="userSpaceOnUse">
      <path
         id="path18"
         d="m 0,706.465 1490.926,0 L 1490.926,0 0,0 0,706.465 Z" />
    </clipPath>
    <clipPath
       id="clipPath24"
       clipPathUnits="userSpaceOnUse">
      <path
         id="path26"
         d="m 22.1953,686.117 1447.7347,0 0,-667.1902 -1447.7347,0 L 22.1953,686.117 Z" />
    </clipPath>
  </defs>
  <sodipodi:namedview
     id="base"
     pagecolor="#ffffff"
     bordercolor="#666666"
     borderopacity="1.0"
     inkscape:pageopacity="0.0"
     inkscape:pageshadow="2"
     inkscape:zoom="16"
     inkscape:cx="11.142479"
     inkscape:cy="29.351221"
     inkscape:document-units="px"
     inkscape:current-layer="layer1"
     showgrid="false"
     fit-margin-top="0"
     fit-margin-left="0"
     fit-margin-right="0"
     fit-margin-bottom="0"
     inkscape:window-width="1920"
     inkscape:window-height="1025"
     inkscape:window-x="-4"
     inkscape:window-y="39"
     inkscape:window-maximized="1"
     showguides="true">
    <sodipodi:guide
       position="8.9999928,39"
       orientation="30,0"
       id="guide3268" />
    <sodipodi:guide
       position="8.9999928,9"
       orientation="0,30"
       id="guide3270" />
    <sodipodi:guide
       position="38.999993,9"
       orientation="-30,0"
       id="guide3272" />
    <sodipodi:guide
       position="38.999993,39"
       orientation="0,-30"
       id="guide3274" />
    <sodipodi:guide
       position="3.9999928,44"
       orientation="40,0"
       id="guide3308" />
    <sodipodi:guide
       position="3.9999928,4"
       orientation="0,40"
       id="guide3310" />
    <sodipodi:guide
       position="43.999993,4"
       orientation="-40,0"
       id="guide3312" />
    <sodipodi:guide
       position="43.999993,44"
       orientation="0,-40"
       id="guide3314" />
  </sodipodi:namedview>
  <metadata
     id="metadata7">
    <rdf:RDF>
      <cc:Work
         rdf:about="">
        <dc:format>image/svg+xml</dc:format>
        <dc:type
           rdf:resource="http://purl.org/dc/dcmitype/StillImage" />
        <dc:title />
      </cc:Work>
    </rdf:RDF>
  </metadata>
  <g
     inkscape:label="Capa 1"
     inkscape:groupmode="layer"
     id="layer1"
     transform="translate(-180.23661,-689.8125)">
    <path
       inkscape:connector-curvature="0"
       style="fill:#2f7cbc;fill-opacity:1;fill-rule:evenodd;stroke:none"
       d="m 204.23661,693.8125 c -6.19751,0 -11.71595,2.79291 -15.37891,7.19141 0.21506,0.45499 0.57346,0.83654 1.21875,1.25781 1.90143,-0.72643 3.56522,-0.83607 4.95899,-0.32813 1.682,-1.61282 3.55782,-2.55004 5.64844,-2.80859 -1.12501,0.75637 -1.87308,1.46422 -2.27149,2.12109 l -0.0898,0.0898 c -0.39801,0.66707 -0.69805,1.42409 -0.86719,2.33008 l -0.0293,0.14844 0.38868,0.29883 1.2246,1.19531 c 0.47795,0.45795 0.85727,0.71844 1.16602,0.80664 l 0,-0.0293 c 0.74658,0.14893 1.49367,0.21773 2.24023,0.17773 0.3583,0.21878 0.4471,0.46873 0.23829,0.77735 -0.0103,0.01 -0.048,0.0136 -0.0586,0.0312 -0.01,0 -0.0207,0.0134 -0.0312,0.0293 -0.0697,0.38825 -0.26853,0.67794 -0.62696,0.86719 -0.80613,0.4578 -1.77279,1.16477 -2.83789,2.15039 l 0,0.0312 c 0.68663,1.16465 0.93534,2.29191 0.7461,3.37695 -1.13444,-0.32867 -2.1416,-0.51886 -3.01758,-0.59766 -0.77637,0.11966 -1.15591,0.63799 -1.19531,1.61328 l 0,0.0293 0.29882,0.44921 c 0.7964,0.98521 1.62412,1.77291 2.48047,2.35938 1.30402,0.83614 2.63941,0.87671 4.03321,0.0898 1.4631,-0.92585 2.86888,-1.02529 4.21289,-0.32813 0.6174,0.34823 1.11538,0.72809 1.43359,1.16602 0.21855,0.58703 -0.0309,0.95502 -0.6875,1.04492 -0.3189,-0.1505 -0.6361,-0.16111 -0.98437,-0.0312 l -2.68946,1.73438 c -1.63654,0.82798 -3.49003,1.18336 -5.52734,1.01562 1.30631,1.31701 2.77233,2.26559 4.39258,2.80859 1.10465,0.35898 2.28167,0.52121 3.52539,0.53711 3.1464,-0.11993 5.95595,-2.01353 8.42383,-5.70703 0.0905,0.8864 -0.0786,2.00348 -0.47657,3.37696 2.10011,-2.24952 2.86916,-5.69828 2.30078,-10.36719 0.40854,0.31857 0.87557,1.20574 1.37305,2.71875 0.72667,-2.26979 0.6287,-5.12148 -0.26758,-8.60547 0.72666,0.21877 1.30427,0.64767 1.73242,1.31445 0.31881,-3.17536 -2.45345,-5.93683 -8.30664,-8.24609 0.81641,-0.31815 1.7241,-0.36682 2.75,-0.17774 -0.33911,-0.7467 -1.04731,-1.3952 -2.15234,-1.88281 -0.71612,-0.32866 -1.61354,-0.56862 -2.6582,-0.77734 2.37888,0.0699 4.45099,0.34983 6.18359,0.86719 1.17684,0.35662 2.21937,0.88988 3.13281,1.54101 -3.59859,-3.50044 -8.50916,-5.66015 -13.94922,-5.66015 z m 13.94922,5.66016 c 0.24139,0.23481 0.47021,0.4818 0.69922,0.72851 -0.22946,-0.24695 -0.45762,-0.4935 -0.69922,-0.72851 z m 1.10742,1.17968 c 0.23172,0.26552 0.46024,0.53481 0.67774,0.8125 -0.21812,-0.27798 -0.44545,-0.54673 -0.67774,-0.8125 z m 0.91211,1.12696 c 0.49327,0.65595 0.95161,1.33886 1.36328,2.05468 -0.41153,-0.71555 -0.8692,-1.39891 -1.36328,-2.05468 z m 1.37891,2.08007 c 0.0876,0.23367 0.18337,0.46432 0.25195,0.70508 -0.001,-0.0981 -0.0138,-0.2161 -0.0195,-0.32226 -0.0715,-0.13157 -0.15806,-0.25307 -0.23242,-0.38282 z m 0.23242,0.38282 c 0.0243,0.0447 0.0444,0.0918 0.0684,0.13672 -0.024,-0.0449 -0.0441,-0.092 -0.0684,-0.13672 z m -0.18945,0.76953 c 0.0476,0.0987 0.0745,0.19805 0.11914,0.29883 0,0.0194 0.0187,0.038 0.0293,0.0586 0.004,-0.0163 -0.004,-0.0408 0,-0.0586 -0.0507,-0.0962 -0.0942,-0.20073 -0.14844,-0.29883 z m 0.9375,0.78515 c 0.0553,0.12689 0.11325,0.25261 0.16601,0.38086 -0.0528,-0.12843 -0.11062,-0.2538 -0.16601,-0.38086 z m -36.73438,0.15821 c -0.029,0.0682 -0.0537,0.13841 -0.082,0.20703 0.0283,-0.0686 0.053,-0.13887 0.082,-0.20703 z m -0.63281,1.7207 c -0.0269,0.0839 -0.0582,0.16557 -0.084,0.25 0.0258,-0.0843 0.0571,-0.1662 0.084,-0.25 z m 38.10351,0.0684 c 0.0349,0.11026 0.0646,0.2229 0.0977,0.33398 -0.033,-0.11122 -0.0628,-0.22359 -0.0977,-0.33398 z m 0.47071,1.79297 c 0.029,0.1339 0.0635,0.26549 0.0898,0.40039 -0.0263,-0.13494 -0.0609,-0.26645 -0.0898,-0.40039 z m -39.07813,0.0273 c -0.0383,0.17812 -0.0778,0.35528 -0.11133,0.53515 0.0335,-0.17957 0.0731,-0.35733 0.11133,-0.53515 z m 39.2168,0.64648 c 0.0483,0.26765 0.0913,0.53729 0.1289,0.8086 -0.0376,-0.27153 -0.0806,-0.54073 -0.1289,-0.8086 z m -39.38867,0.23048 c -0.041,0.24316 -0.0753,0.48825 -0.10743,0.73437 0.0322,-0.24617 0.0664,-0.49116 0.10743,-0.73437 z m 39.57812,1.05078 c 0.0297,0.2588 0.0525,0.51947 0.0723,0.78125 -0.0197,-0.26149 -0.0426,-0.52273 -0.0723,-0.78125 z m -39.73633,0.0781 c -0.028,0.25331 -0.0498,0.50949 -0.0684,0.76562 0.0186,-0.25642 0.0403,-0.51203 0.0684,-0.76562 z m 39.83594,1.04688 c 0.0231,0.39576 0.0371,0.79353 0.0371,1.19531 0,-0.40195 -0.014,-0.79937 -0.0371,-1.19531 z m -39.92969,0.0644 c -0.0207,0.37473 -0.0332,0.75078 -0.0332,1.13086 0,-0.37972 0.0125,-0.75649 0.0332,-1.13086 z"
       id="rect3304" />
    <path
       style="fill:#0d5887;fill-opacity:1;fill-rule:nonzero;stroke:none"
       d="m 208.34794,694.67773 c -0.11062,0.011 -0.20021,0.0615 -0.2832,0.0645 -0.0649,0.003 -0.19269,-0.0285 -0.23829,-0.0215 -0.1293,0.0192 -0.25561,0.14447 -0.39257,0.19727 -0.22937,0.088 -0.49523,0.056 -0.74219,0.10937 -0.23648,0.0512 -0.43571,0.31416 -0.65235,0.34766 -0.15844,0.0253 -0.4296,-0.0874 -0.5,0.0644 -0.0424,0.15727 0.12662,0.19891 0.0644,0.30664 -0.14023,0.24368 -0.48664,0.32899 -0.67578,0.56446 -0.0517,0.0643 -0.0562,0.17043 -0.10742,0.24023 -0.0737,0.10062 -0.20722,0.15284 -0.26172,0.24024 -0.0874,0.13922 -0.0528,0.25737 -0.17383,0.32617 -0.19133,0.10946 -0.48054,0.0374 -0.67578,0.10937 -0.11601,0.0434 -0.20016,0.1613 -0.30468,0.2168 -0.27665,0.14735 -0.66149,0.19446 -0.82813,0.48047 -0.0462,0.24641 0.0595,0.43116 0.0859,0.60937 0.018,0.12211 -0.0173,0.23102 0.0234,0.34766 0.0715,0.20398 0.35914,0.41406 0.63086,0.41406 0.41359,0 0.73671,-0.52083 1.06836,-0.45703 0.16225,0.0308 0.17836,0.28867 0.25976,0.43555 0.0754,0.13531 0.4201,0.36351 0.3711,0.58789 -0.0391,0.17994 -0.45187,0.24223 -0.6543,0.24023 -0.0176,-0.19687 0.0301,-0.52008 -0.12891,-0.63281 -0.32945,0.15679 -0.56299,0.11203 -0.65429,0.37109 -0.11554,0.32782 0.19904,0.56696 0.15234,0.8711 -0.0495,0.3195 -0.70992,0.20832 -1.00195,0.26172 -0.21836,0.0395 -0.29867,0.30586 -0.47852,0.52148 -0.12484,0.15016 -0.35953,0.31278 -0.54492,0.39258 -0.0907,0.0391 -0.2002,0.0335 -0.2832,0.0879 -0.12266,0.0809 -0.16555,0.27504 -0.30469,0.36914 -0.10015,0.0677 -0.48226,0.25972 -0.58789,0.26172 -0.12375,0.002 -0.23707,-0.11408 -0.32617,-0.0859 -0.13085,0.0412 -0.1143,0.29546 -0.26172,0.34766 -0.28875,0.10236 -0.77243,-0.25626 -0.87305,0.17382 0.12375,0.24912 0.4382,0.19063 0.6543,0.32813 0.13585,0.0858 0.42123,0.46359 0.45703,0.60937 0.0302,0.1232 -0.0138,0.60938 -0.0644,0.74024 -0.13476,0.34757 -0.44976,0.22579 -0.84961,0.2168 -0.10945,-0.003 -0.225,0.0285 -0.32617,0.0215 -0.10148,-0.007 -0.19068,-0.0169 -0.29102,-0.0293 l 0.39063,0.38086 c 0.47795,0.45795 0.85726,0.71844 1.16601,0.80664 l 0,-0.0293 c 0.19639,0.0392 0.39341,0.0564 0.58985,0.084 0.16491,-0.17002 0.34111,-0.36637 0.53906,-0.4707 0.15406,-0.0814 0.36465,-0.0746 0.43555,-0.19726 0.016,-0.13969 -0.0245,-0.22063 -0.0215,-0.34766 0.0946,-0.0864 0.16103,-0.15683 0.24023,-0.17383 0.23485,-0.0506 0.46688,0.16395 0.74024,0.15234 0.1182,-0.005 0.22258,-0.0916 0.3496,-0.17578 0.10672,-0.0709 0.22165,-0.12052 0.32618,-0.17382 0.11492,-0.0594 0.22946,-0.18632 0.36914,-0.19532 0.34266,-0.0215 0.47711,0.36008 0.63281,0.56641 0.13031,0.17156 0.50484,0.46742 0.71875,0.58789 0.12047,0.0676 0.28148,0.071 0.41406,0.13086 0.28273,0.12703 0.84061,0.54898 0.84961,0.82617 0.005,0.13859 -0.13087,0.24352 -0.10937,0.37109 0.21391,0.0352 0.45203,-0.19953 0.45703,-0.41406 0.003,-0.13422 -0.13528,-0.20625 -0.10938,-0.34765 0.10008,-0.21552 0.39414,1.2e-4 0.52344,-0.0879 -0.0248,-0.24359 -0.35852,-0.2661 -0.56641,-0.39258 -0.11219,-0.0682 -0.18812,-0.21187 -0.30468,-0.25977 -0.16883,-0.0693 -0.34899,-0.0506 -0.48047,-0.15234 -0.1232,-0.0952 -0.18312,-0.31429 -0.30469,-0.45899 -0.17656,-0.21062 -0.5632,-0.24155 -0.45703,-0.71679 0.0528,-0.0715 0.17972,-0.1845 0.26172,-0.1543 0.16175,0.0391 0.14235,0.17812 0.26172,0.26172 0.0869,0.0605 0.20738,0.0483 0.30468,0.10937 0.11437,0.072 0.17548,0.2622 0.30469,0.3711 0.18266,0.15344 0.50438,0.26804 0.76172,0.39062 0.24094,0.11445 0.62848,0.27258 0.67578,0.48047 0.0264,0.11719 -0.0369,0.24594 -0.0215,0.34766 0.0192,0.1293 0.11163,0.26185 0.17383,0.34765 0.16828,0.23211 0.4025,0.43914 0.58789,0.72071 -0.006,0.38281 0.1368,0.61605 0.56641,0.56445 0.15508,-0.0826 0.0737,-0.19688 0.19531,-0.32617 0.11437,-0.12149 0.36909,-0.10554 0.37109,-0.2832 0.003,-0.27336 -0.6523,-0.31617 -0.5664,-0.71875 0.0253,-0.1287 0.16883,-0.0654 0.2832,-0.0644 0.18594,-0.21444 0.57406,-0.48563 0.82812,-0.15235 0.10946,0.65609 0.31689,1.23461 0.78321,1.58985 0.33055,-0.11875 0.47383,0.18806 0.78516,0.13086 0.15125,-0.0275 0.22234,-0.21824 0.36913,-0.24024 0.26626,-0.0407 0.44649,0.2519 0.69727,0.2832 0.40813,0.0512 0.7093,-0.41632 1.11133,-0.17382 0.0198,0.33055 0.11952,0.5064 0.10742,0.74023 -0.009,0.18203 -0.15968,0.34648 -0.23828,0.58789 -0.11336,0.34703 -0.0405,0.6886 -0.37109,0.80469 -0.44929,0.15781 -0.71594,-0.17825 -1.13282,-0.15235 -0.21671,0.0138 -0.38171,0.22822 -0.60937,0.26172 -0.35859,0.0534 -0.73688,-0.25738 -1.1543,-0.30468 -0.0968,-0.0111 -0.2073,0.0192 -0.2832,0 -0.10063,-0.0259 -0.17874,-0.13973 -0.28321,-0.17383 -0.181,-0.0585 -0.3196,-0.0241 -0.47851,-0.0664 -0.21453,-0.37789 -1.30163,-0.40173 -1.39453,0.15429 -0.0413,0.24531 0.12641,0.58856 -0.23828,0.63086 -0.23156,0.027 -0.46782,-0.23588 -0.78516,-0.30468 -0.12977,-0.0286 -0.31288,-0.01 -0.41406,-0.0449 -0.23757,-0.082 -0.20953,-0.31289 -0.41406,-0.45703 -0.11883,-0.0835 -0.4218,-0.1965 -0.60938,-0.2168 -0.11656,-0.0127 -0.22445,0.0352 -0.34766,0.0215 -0.14632,-0.0159 -0.35671,-0.11991 -0.48046,-0.19531 -0.11821,-0.072 -0.36043,-0.17977 -0.39063,-0.28321 -0.0462,-0.16054 0.29309,-0.34398 0.30469,-0.48046 0.008,-0.10281 -0.12705,-0.16782 -0.15235,-0.32618 -0.0148,-0.0957 0.0397,-0.19792 0.0215,-0.26172 -0.0319,-0.11219 -0.21719,-0.23528 -0.39258,-0.23828 -0.15515,-0.002 -0.30297,0.12686 -0.43555,0.13086 -0.19141,0.006 -0.50319,-0.10658 -0.74023,-0.0879 -0.14523,0.0115 -0.27876,0.099 -0.41407,0.10938 -0.0144,0.001 -0.023,-9.4e-4 -0.0371,0 -0.10523,0.16014 -0.24814,0.29444 -0.4414,0.39648 -0.80613,0.4578 -1.77279,1.16477 -2.83789,2.15039 l 0,0.0312 c 0.68662,1.16465 0.93533,2.29191 0.74609,3.37696 -1.13444,-0.32867 -2.1416,-0.51886 -3.01758,-0.59766 -0.77637,0.11966 -1.15591,0.63799 -1.19531,1.61328 l 0,0.0293 0.29883,0.44922 c 0.7964,0.98521 1.62412,1.7729 2.48047,2.35937 1.30402,0.83615 2.6394,0.87672 4.0332,0.0898 1.4631,-0.92585 2.86888,-1.02528 4.21289,-0.32812 0.6174,0.34823 1.11538,0.72808 1.43359,1.16601 0.21855,0.58703 -0.0309,0.95503 -0.6875,1.04493 -0.3189,-0.1505 -0.6361,-0.16111 -0.98437,-0.0312 l -2.49414,1.60937 c 0.0898,0.1113 0.15767,0.23312 0.16797,0.31836 0.0226,0.18906 -0.10336,0.47132 -0.13086,0.58789 -0.06,0.25406 -0.0638,0.55766 -0.10938,0.71875 -0.0352,0.12485 -0.13286,0.20133 -0.13086,0.32617 0.002,0.11446 0.14461,0.39524 0.26172,0.54492 0.14305,0.18368 0.37109,0.3243 0.54492,0.52344 0.31898,0.36461 0.45329,0.80249 0.67383,1.2832 0.0188,0.0407 0.0443,0.0972 0.0684,0.14649 0.27997,0.0199 0.56246,0.0334 0.84961,0.0371 3.1464,-0.11993 5.95596,-2.01353 8.42383,-5.70703 0.0905,0.8864 -0.0786,2.00347 -0.47656,3.37695 1.45538,-1.55892 2.25687,-3.70802 2.43164,-6.42578 -0.035,-0.0307 -0.0635,-0.0689 -0.10156,-0.0957 -0.26728,-0.1875 -0.6314,-0.30851 -0.76172,-0.58789 -0.0891,-0.19086 -0.0892,-0.475 -0.2168,-0.67578 -0.1568,-0.24586 -0.53653,-0.39602 -0.61133,-0.65235 -0.0782,-0.26671 -0.007,-0.45203 -0.0644,-0.71875 -0.0858,-0.3982 -0.51734,-0.50422 -0.6543,-0.84961 -0.0374,-0.0952 -0.0303,-0.21398 -0.0644,-0.30468 -0.0913,-0.24531 -0.28102,-0.48 -0.41406,-0.69727 -0.14578,-0.23867 -0.28249,-0.47688 -0.37109,-0.76172 0.0886,-0.11499 0.27938,-0.12644 0.45703,-0.15234 0.34102,0.28437 0.65438,0.64062 0.87109,1.04492 0.0539,0.10007 0.0676,0.23217 0.13086,0.32617 0.0951,0.1425 0.26661,0.20789 0.34961,0.30469 0.11,0.12648 0.21882,0.29586 0.26172,0.45703 0.0255,0.0979 -0.006,0.19993 0.0215,0.32813 0.0995,0.47133 0.61148,0.66702 0.8711,1.04492 0.0769,0.11218 0.10732,0.25035 0.17382,0.34765 0.0444,0.0652 0.10023,0.11634 0.1543,0.16993 -0.0131,-0.78541 -0.0562,-1.59875 -0.16211,-2.46875 0.40854,0.31857 0.87557,1.20574 1.37305,2.71875 0.72667,-2.26979 0.6287,-5.12148 -0.26758,-8.60547 0.72666,0.21877 1.30427,0.64767 1.73242,1.31445 0.022,-0.21913 0.025,-0.43522 0.0176,-0.65039 -0.0628,-0.0349 -0.12567,-0.0712 -0.18945,-0.0996 -0.22664,-0.10125 -0.47504,-0.11031 -0.52344,-0.34961 -0.0226,-0.11164 0.0257,-0.41625 0.0664,-0.54492 0.0407,-0.13149 0.15834,-0.15891 0.15234,-0.28321 -0.008,-0.14898 -0.37211,-0.42008 -0.50195,-0.54492 -0.18368,-0.17656 -0.42824,-0.3114 -0.52344,-0.52148 -0.0346,-0.0765 -0.0254,-0.1913 -0.0644,-0.2832 -0.0764,-0.1782 -0.2694,-0.25789 -0.2832,-0.39258 -0.01,-0.0935 0.10731,-0.27946 0.19531,-0.34766 0.0286,-0.0221 0.0943,-0.0591 0.13672,-0.084 -1.36106,-1.50973 -3.61929,-2.89396 -6.78906,-4.14453 0.81641,-0.31815 1.7241,-0.36681 2.75,-0.17773 -0.33911,-0.7467 -1.04731,-1.39521 -2.15234,-1.88282 -0.71612,-0.32866 -1.61355,-0.56862 -2.65821,-0.77734 2.37888,0.0698 4.451,0.34983 6.1836,0.86719 1.17684,0.35662 2.21936,0.88988 3.13281,1.54101 0.33188,0.32283 0.65259,0.65681 0.96094,1.00196 -1.5197,-1.70288 -3.32085,-3.14724 -5.34377,-4.24608 -0.21807,0.0385 -0.41228,0.15832 -0.57618,0.25781 -0.0308,0.12101 -0.0109,0.29377 -0.13085,0.32617 -0.30689,0.0445 -0.56594,-0.23033 -0.78321,-0.0664 -0.0352,0.22383 0.28118,0.0966 0.23828,0.32813 -0.48618,0.0599 -1.01843,-0.31382 -1.02343,-0.80664 0.3575,-0.11324 0.81163,0.0879 1.15429,0.0879 0.19837,0 0.64688,-0.0834 0.66602,-0.34766 -0.48807,-0.2493 -0.98364,-0.48591 -1.49414,-0.69531 -0.0871,-0.025 -0.17565,-0.0581 -0.25977,-0.0684 -0.10015,-0.0127 -0.20594,0.01 -0.30664,0 -0.28266,-0.0286 -0.50531,-0.17501 -0.71875,-0.19531 -0.14414,-0.0138 -0.27174,0.0352 -0.36914,0 -0.19359,-0.0694 -0.17593,-0.24114 -0.32617,-0.30664 -0.28648,-0.12544 -0.6147,-0.0135 -0.95899,-0.0215 -0.20797,-0.004 -0.4064,-0.059 -0.5664,-0.043 z m 10.79883,5.79688 c 0.30834,0.34515 0.60482,0.70213 0.88867,1.06836 -0.2839,-0.36631 -0.58052,-0.72305 -0.88867,-1.06836 z m 0.88867,1.06836 c 0.56768,0.73245 1.08489,1.50513 1.54883,2.31445 -0.46369,-0.80912 -0.98088,-1.58164 -1.54883,-2.31445 z m 1.54883,2.31445 c 0.033,0.0881 0.0624,0.17763 0.0957,0.26563 0.0152,-0.0101 0.026,-0.0225 0.0469,-0.0293 -0.0447,-0.0806 -0.0968,-0.15646 -0.14258,-0.23633 z m -13.39258,-7.38086 c 0.18287,-0.009 0.36746,0.0275 0.46094,0.11719 0,0.49063 -0.97996,0.5657 -1.00196,0.95898 -0.005,0.0858 0.0681,0.23196 0.0879,0.3711 0.018,0.12539 -0.001,0.21415 0.0215,0.28125 0.0715,0.21226 0.36508,0.37828 0.58789,0.39258 0.52195,0.0341 1.30382,-0.50157 1.76367,-0.10938 -0.20133,0.44 -0.91937,0.0797 -1.4375,0.26172 -0.10336,0.0368 -0.16736,0.13693 -0.25976,0.17383 -0.12429,0.0495 -0.34906,-0.002 -0.34961,0.19726 0.10227,0.20404 0.26711,-0.0419 0.39258,-0.0449 0.14078,-0.003 0.34487,0.1532 0.32617,0.32813 -0.0429,0.40257 -0.39547,-0.0138 -0.63086,0 -0.34267,0.0203 -0.41561,0.50421 -0.34961,0.87109 -0.15562,0.0863 -0.33281,0.32786 -0.54297,0.34766 -0.13141,0.0127 -0.23696,-0.11266 -0.41406,-0.13086 -0.39211,-0.0401 -0.75883,0.31714 -1.13281,0.30664 -0.16227,-0.005 -0.32992,-0.19927 -0.58789,-0.19727 -0.13313,0.002 -0.23415,0.0962 -0.3711,0.10938 -0.17265,0.017 -0.44815,-0.0573 -0.43554,-0.19532 0.0193,-0.21504 0.31132,-0.0373 0.47851,-0.0664 0.21013,-0.0368 0.16367,-0.21128 0.30664,-0.23828 0.0957,-0.0187 0.18266,0.0799 0.32617,0.0645 0.15508,-0.0166 0.29305,-0.24308 0.43555,-0.30468 0.27883,-0.12093 0.50042,-0.0544 0.54492,-0.28321 0.0243,-0.12703 -0.0779,-0.3157 -0.0449,-0.45703 0.0737,-0.31242 0.65811,-0.26766 0.63282,-0.63281 -0.0148,-0.21672 -0.47174,-0.27227 -0.52344,-0.47852 -0.033,-0.13367 0.0439,-0.35464 0.0879,-0.43554 0.19742,-0.36406 0.82819,-0.39977 1.02343,-0.69727 0.0913,-0.13922 0.088,-0.27836 0.15235,-0.34766 0.0897,-0.0962 0.27025,-0.15289 0.45312,-0.1621 z m -8.31641,2.47071 c -0.11164,0.14542 -0.30977,0.0852 -0.5,0.15234 -0.15352,0.0538 -0.43891,0.31811 -0.47851,0.41211 -0.003,0.008 6.3e-4,0.0175 -0.002,0.0254 0.31811,-0.1065 0.63962,-0.2005 0.96875,-0.27148 -0.002,-0.006 -0.009,-0.007 -0.01,-0.0137 0.0142,-0.1232 0.12986,-0.1457 0.13085,-0.2832 -0.0253,-0.0185 -0.0594,-0.0285 -0.10937,-0.0215 z m 0.34766,0.50976 c -0.41555,0.30421 -0.77242,0.60107 -1.06445,0.88867 0.0457,0.0521 0.0831,0.10958 0.15039,0.14649 0.0803,0.044 0.19011,0.0262 0.26171,0.0664 0.12433,0.0698 0.22257,0.22335 0.19727,0.34765 -0.0368,0.17875 -0.2711,0.12922 -0.39258,0.26172 0.0209,0.25359 -0.17703,0.28765 -0.24023,0.45703 0.038,0.10726 0.20175,0.0901 0.21875,0.21875 -0.0242,0.13859 -0.27265,0.15844 -0.21875,0.30469 0.2332,0.18208 0.47671,-0.0383 0.69726,-0.0664 0.48727,-0.061 0.98594,0.061 1.28516,-0.17383 -0.0407,-0.23265 0.2421,-0.31359 0.2168,-0.52148 -0.0193,-0.15672 -0.27618,-0.17492 -0.39063,-0.2832 -0.061,-0.0578 -0.0775,-0.19195 -0.15234,-0.30469 -0.0858,-0.12921 -0.25391,-0.22367 -0.34961,-0.34961 -0.12812,-0.17 -0.39304,-0.41562 -0.39258,-0.54492 0.002,-0.14844 0.18575,-0.18906 0.21875,-0.39258 -0.006,-0.0277 -0.0277,-0.0386 -0.0449,-0.0547 z m -1.26367,1.09766 c -0.21825,0.23574 -0.41102,0.46742 -0.54688,0.6914 l -0.0898,0.0898 c -0.0469,0.0785 -0.0868,0.16301 -0.13086,0.24414 0.035,-0.0134 0.0855,-0.0321 0.11523,-0.041 0.12322,-0.0368 0.3045,-0.0314 0.3711,-0.13086 0.0759,-0.115 0.008,-0.31382 0.0644,-0.48046 0.0632,-0.18312 0.24015,-0.20579 0.21875,-0.36914 -1.8e-4,-0.001 -0.002,-0.002 -0.002,-0.004 z m 14.8125,3.0332 c 0.10762,-0.006 0.20867,10e-4 0.2832,0.0195 0.17266,0.36023 -0.26572,0.4282 -0.26172,0.63281 0.004,0.18703 0.58679,0.36353 0.74024,0.45704 0.26461,0.16117 0.53507,0.27874 0.76171,0.41406 0.29912,0.17828 0.56869,0.67648 -0.0215,0.7832 -0.2068,0.0374 -0.56265,0.047 -0.76171,0.043 -0.60227,-0.0132 -1.04922,-0.46415 -1.74219,-0.43555 -0.15844,0.007 -0.29969,0.045 -0.41406,0.0879 -0.18703,0.0698 -0.31516,0.22592 -0.47852,0.26172 -0.20242,0.044 -0.51633,-0.0534 -0.67578,0 -0.19859,0.066 -0.21946,0.5386 -0.60938,0.2168 -0.0215,-0.203 0.24732,-0.11603 0.26172,-0.2832 -0.0144,-0.16228 -0.21983,-0.24695 -0.24023,-0.43555 -0.0225,-0.21398 0.18692,-0.3029 0.26172,-0.54492 0.0235,-0.0781 -0.001,-0.1629 0.0215,-0.2168 0.038,-0.0891 0.14749,-0.14124 0.21679,-0.24023 0.13086,-0.1886 0.26711,-0.5598 0.52344,-0.58789 0.24421,-0.0264 0.38047,0.18082 0.58789,0.17382 0.14352,0.19687 0.2118,0.52461 0.47852,0.56641 0.22391,0.0352 0.48384,-0.16238 0.69726,-0.23828 -0.0517,-0.1985 -0.27668,-0.0934 -0.30468,-0.2832 -0.0367,-0.24627 0.3529,-0.37369 0.67578,-0.39063 z m 7.85547,1.42383 c 0.0476,0.0987 0.0745,0.19805 0.11914,0.29883 0,0.0194 0.0187,0.038 0.0293,0.0586 0.004,-0.0163 -0.004,-0.0408 0,-0.0586 -0.0507,-0.0962 -0.0942,-0.20073 -0.14844,-0.29883 z m -17.79297,0.25976 c -0.14123,0.0464 -0.20962,0.34487 0.006,0.38282 0.10004,-0.06 0.17714,-0.14196 0.15234,-0.32618 -0.0553,-0.0598 -0.11113,-0.0721 -0.1582,-0.0566 z m -0.0566,0.60743 c -0.0698,0.019 -0.1459,0.0684 -0.22071,0.14648 0.006,0.24312 0.0245,0.39813 -0.0234,0.60938 0.14031,0.26835 0.45184,0.028 0.52344,-0.15235 0.0841,-0.45334 -0.07,-0.66058 -0.2793,-0.60351 z m 1.85937,1.20117 c -0.19387,-0.007 -0.37664,0.008 -0.49023,0.0996 0.15953,0.26125 0.49265,0.34976 0.84961,0.41406 0.12862,-0.0963 0.13651,-0.31391 0.19531,-0.48047 -0.15648,0.003 -0.36082,-0.0258 -0.55469,-0.0332 z m 7.20313,1.10547 c -0.11383,0.0191 -0.21766,0.08 -0.22266,0.16992 0.0841,0.20841 0.4731,0.0889 0.5,-0.0859 -0.0402,-0.0795 -0.16352,-0.10309 -0.27734,-0.084 z m -26.12891,15.28906 c 0.22689,0.41212 0.4743,0.81119 0.73047,1.20312 -0.25449,-0.39359 -0.50357,-0.79097 -0.73047,-1.20312 z m 1.1875,1.87695 c 0.0881,0.12316 0.18071,0.24223 0.27148,0.36328 -0.09,-0.12147 -0.18422,-0.2397 -0.27148,-0.36328 z"
       id="path34"
       inkscape:connector-curvature="0"
       sodipodi:nodetypes="cccccccccccccccccsccccccccccccccccccccccccccccccccccccccccccccccccccccccccccccccccccccccccccccccccccccccccccccccccccccccccccccccccccccccccccccccccccccccccccccccccccccccccccccccccccccccscccccccccccccccccccccccccccccccccccccccccccccccccccccccccccccccccccccccccccccccccccccccccccccccccccccccccccccccccccccccccccccccccccccccccc" />
    <path
       style="fill:#e17927;fill-opacity:1;fill-rule:nonzero;stroke:none;display:inline"
       d="m 208.86942,697.06445 c 1.04466,0.20872 1.94209,0.44869 2.65821,0.77735 1.10503,0.48761 1.81323,1.13611 2.15234,1.88281 -1.0259,-0.18908 -1.93359,-0.14042 -2.75,0.17773 5.85319,2.30926 8.62545,5.07074 8.30664,8.2461 -0.42815,-0.66678 -1.00576,-1.09569 -1.73242,-1.31446 0.89628,3.48399 0.99425,6.33568 0.26758,8.60547 -0.49748,-1.51301 -0.96451,-2.40018 -1.37305,-2.71875 0.56838,4.66891 -0.20067,8.11767 -2.30078,10.36719 0.39796,-1.37348 0.56703,-2.49055 0.47656,-3.37695 -2.46787,3.6935 -5.27743,5.5871 -8.42383,5.70703 -1.24372,-0.0159 -2.42074,-0.17813 -3.52539,-0.53711 -1.62025,-0.543 -3.08627,-1.49158 -4.39258,-2.80859 2.03731,0.16774 3.89081,-0.18765 5.52735,-1.01563 l 2.68945,-1.73437 c 0.34827,-0.12986 0.66548,-0.11925 0.98438,0.0312 0.65658,-0.0899 0.90605,-0.4579 0.6875,-1.04493 -0.31821,-0.43793 -0.8162,-0.81778 -1.4336,-1.16601 -1.34401,-0.69716 -2.74979,-0.59773 -4.21289,0.32812 -1.3938,0.78687 -2.72918,0.74631 -4.0332,-0.0898 -0.85635,-0.58647 -1.68407,-1.37416 -2.48047,-2.35937 l -0.29883,-0.44922 0,-0.0293 c 0.0394,-0.97529 0.41894,-1.49362 1.19531,-1.61328 0.87598,0.0788 1.88314,0.26898 3.01758,0.59765 0.18924,-1.08503 -0.0595,-2.2123 -0.74609,-3.37695 l 0,-0.0312 c 1.0651,-0.98562 2.03176,-1.69259 2.83789,-2.15039 0.35843,-0.18925 0.55721,-0.47894 0.62695,-0.86719 0.0106,-0.0159 0.0213,-0.0293 0.0312,-0.0293 0.0106,-0.0177 0.0483,-0.0213 0.0586,-0.0312 0.20881,-0.30862 0.12002,-0.55856 -0.23828,-0.77734 -0.74656,0.04 -1.49365,-0.0288 -2.24023,-0.17773 l 0,0.0293 c -0.30875,-0.0882 -0.68807,-0.34869 -1.16602,-0.80664 l -1.22461,-1.19531 -0.38867,-0.29883 c 0,0 0.0185,-0.0938 0.0293,-0.14843 0.16914,-0.90599 0.46918,-1.66301 0.86719,-2.33007 l 0.0898,-0.0898 c 0.39841,-0.65687 1.14647,-1.36473 2.27148,-2.1211 -2.09062,0.25855 -3.96644,1.19578 -5.64844,2.8086 -1.39377,-0.50794 -3.05755,-0.39831 -4.95898,0.32812 l 1e-5,-10e-6 c -1.57377,-1.02741 -1.4915,-1.78922 -1.58978,-4.07016 -3.08889,3.08872 -1.80725,5.98063 -2.13991,6.6448 -1.35054,2.69641 -2.11015,5.74426 -2.11015,8.97614 0,11.08 8.92,20 20,20 11.08,0 20,-8.92 20,-20 0,-3.47164 -0.87646,-6.73071 -2.41992,-9.57031 0.006,0.10616 0.0183,0.22414 0.0195,0.32226 -0.0687,-0.24135 -0.16413,-0.47278 -0.25195,-0.70703 -0.92787,-1.61863 -2.07092,-3.09345 -3.39844,-4.38476 -0.91345,-0.65114 -1.95597,-1.1844 -3.13281,-1.54102 -1.7326,-0.51736 -3.80472,-0.79734 -6.1836,-0.86719 z m 12.75782,7.94727 c 0.0542,0.0981 0.0977,0.20262 0.14843,0.29883 -0.004,0.0178 0.004,0.0423 0,0.0586 -0.0106,-0.0206 -0.0293,-0.0392 -0.0293,-0.0586 -0.0446,-0.10078 -0.0716,-0.20014 -0.11913,-0.29883 z"
       id="path28"
       inkscape:connector-curvature="0"
       sodipodi:nodetypes="cccccccccccccccccccccccccccccccccccccccccccccssssccccccccccc" />
    <path
       style="fill:#dc9761;fill-opacity:1;fill-rule:nonzero;stroke:none;display:inline"
       d="m 200.55156,707.70337 c -0.68626,0.0329 -1.40598,0.2094 -2.09235,0.60569 -0.32486,0.18756 -0.62269,0.42303 -0.88099,0.66075 0.42215,0.48724 0.94825,0.89706 1.54174,1.1563 0.0151,0.007 0.0399,-0.007 0.0551,0 1.05167,-0.96925 2.01063,-1.6945 2.80817,-2.14742 0.0256,-0.0136 0.0312,-0.0404 0.0551,-0.0551 -0.44684,-0.18995 -0.94244,-0.24628 -1.48673,-0.22022 z"
       id="path4132"
       inkscape:connector-curvature="0" />
    <path
       style="fill:#22464b;fill-opacity:1;fill-rule:nonzero;stroke:none;display:inline"
       d="m 200.77182,706.2167 c 0.0236,0.58776 0.25365,1.11891 0.60568,1.54174 0.22803,0.0357 0.45367,0.0772 0.66074,0.16518 0.30919,-0.19074 0.48587,-0.4654 0.55062,-0.82593 0.0106,-0.0159 0.0451,0 0.0551,0 0.0106,-0.0177 0.0449,-0.0453 0.0551,-0.0551 0.2088,-0.30863 0.083,-0.5521 -0.27532,-0.77087 -0.55861,0.03 -1.10385,0.0213 -1.65191,-0.055 z"
       id="path4137"
       inkscape:connector-curvature="0" />
  </g>
</svg>
