<?xml version="1.0" encoding="UTF-8" standalone="no"?>
<!-- Created using Karbon, part of Calligra: http://www.calligra.org/karbon -->

<svg
   xmlns:dc="http://purl.org/dc/elements/1.1/"
   xmlns:cc="http://creativecommons.org/ns#"
   xmlns:rdf="http://www.w3.org/1999/02/22-rdf-syntax-ns#"
   xmlns:svg="http://www.w3.org/2000/svg"
   xmlns="http://www.w3.org/2000/svg"
   xmlns:sodipodi="http://sodipodi.sourceforge.net/DTD/sodipodi-0.dtd"
   xmlns:inkscape="http://www.inkscape.org/namespaces/inkscape"
   width="38.4pt"
   height="38.4pt"
   id="svg2"
   version="1.1"
   inkscape:version="0.48.5 r10040"
   sodipodi:docname="foxit.svg">
  <metadata
     id="metadata11">
    <rdf:RDF>
      <cc:Work
         rdf:about="">
        <dc:format>image/svg+xml</dc:format>
        <dc:type
           rdf:resource="http://purl.org/dc/dcmitype/StillImage" />
        <dc:title />
      </cc:Work>
    </rdf:RDF>
  </metadata>
  <sodipodi:namedview
     pagecolor="#ffffff"
     bordercolor="#666666"
     borderopacity="1"
     objecttolerance="10"
     gridtolerance="10"
     guidetolerance="10"
     inkscape:pageopacity="0"
     inkscape:pageshadow="2"
     inkscape:window-width="1920"
     inkscape:window-height="1035"
     id="namedview9"
     showgrid="false"
     inkscape:showpageshadow="false"
     borderlayer="true"
     inkscape:zoom="6.9532164"
     inkscape:cx="24.297858"
     inkscape:cy="24.178715"
     inkscape:window-x="-4"
     inkscape:window-y="29"
     inkscape:window-maximized="1"
     inkscape:current-layer="svg2">
    <sodipodi:guide
       position="9.5367432e-07,48.000001"
       orientation="47.999999,0"
       id="guide4067" />
    <sodipodi:guide
       position="9.5367432e-07,1.9073486e-06"
       orientation="0,47.999999"
       id="guide4069" />
    <sodipodi:guide
       position="48,1.9073486e-06"
       orientation="-47.999999,0"
       id="guide4071" />
    <sodipodi:guide
       position="48,48.000001"
       orientation="0,-47.999999"
       id="guide4073" />
    <sodipodi:guide
       position="4.000001,44.000001"
       orientation="39.999999,0"
       id="guide4133" />
    <sodipodi:guide
       position="4.000001,4.0000019"
       orientation="0,39.999999"
       id="guide4135" />
    <sodipodi:guide
       position="44,4.0000019"
       orientation="-39.999999,0"
       id="guide4137" />
    <sodipodi:guide
       position="44,44.000001"
       orientation="0,-39.999999"
       id="guide4139" />
  </sodipodi:namedview>
  <defs
     id="defs4">
    <inkscape:path-effect
       deactivate_knotholder="false"
       is_visible="true"
       effect="spiro"
       id="path-effect3709" />
    <inkscape:path-effect
       deactivate_knotholder="false"
       is_visible="true"
       effect="spiro"
       id="path-effect3695" />
  </defs>
  <rect
     style="fill:#696969;fill-rule:evenodd;stroke:none;fill-opacity:1"
     y="4.000001"
     x="4.000001"
     ry="20"
     height="40"
     width="40"
     stroke-miterlimit="2.01260185242"
     id="shape01" />
  <path
     style="fill:#4169e1;fill-opacity:1;stroke-width:1px"
     d="m 10.048672,24.873958 c 1.051173,-0.45802 2.084763,-0.956392 3.09773,-1.49365 2.315262,-1.227969 4.517365,-2.655937 6.75868,-4.01419 2.393755,-1.450633 4.834943,-2.823261 7.32191,-4.10755 0.762206,-0.393609 1.531344,-0.78048 2.237875,-1.266999 0.706531,-0.486519 1.353734,-1.080168 1.798565,-1.813661 0.166103,-0.273891 0.302522,-0.564623 0.459575,-0.843803 0.157053,-0.279179 0.337486,-0.549944 0.576116,-0.763632 0.238631,-0.213688 0.541536,-0.367554 0.861584,-0.380833 0.160024,-0.0066 0.322222,0.0223 0.467247,0.09027 0.145026,0.06797 0.272285,0.175525 0.357718,0.310998 0.0372,0.05898 0.06632,0.122652 0.0939,0.1867 0.433327,1.006232 0.50342,2.154978 0.252258,3.22137 -0.251163,1.066393 -0.815008,2.049346 -1.566448,2.8466 -1.135285,1.204501 -2.650417,1.965882 -4.13031,2.70724 -2.568501,1.2867 -5.144839,2.591758 -7.88513,3.45408 -1.889442,0.594575 -3.860885,0.980599 -5.63224,1.86706 -0.635162,0.317862 -1.252234,0.709566 -1.688562,1.269999 -0.218163,0.280216 -0.387869,0.600713 -0.476249,0.944669 -0.08838,0.343956 -0.09352,0.711742 0.0058,1.052702 0.09367,0.321578 0.27627,0.611819 0.368877,0.933705 0.0463,0.160942 0.0695,0.330868 0.04504,0.496543 -0.02446,0.165676 -0.09963,0.327122 -0.226182,0.436812 -0.116861,0.101293 -0.273034,0.15359 -0.427675,0.151897 -0.154641,-0.0017 -0.306951,-0.05578 -0.433428,-0.144773 -0.126477,-0.089 -0.227537,-0.211881 -0.298715,-0.349179 -0.07118,-0.137297 -0.113077,-0.288747 -0.131869,-0.442252 -0.03758,-0.307008 0.01599,-0.617642 0.08423,-0.919321 0.06824,-0.301679 0.151641,-0.601836 0.174879,-0.910262 0.04503,-0.597681 -0.14816,-1.210032 -0.528025,-1.673662 -0.379866,-0.46363 -0.942261,-0.773481 -1.537125,-0.846878 l -2e-5,0"
     id="path3693"
     inkscape:path-effect="#path-effect3695"
     inkscape:original-d="m 10.048672,24.873958 c 1.03257,-0.37342 -0.0939,0.28006 3.09773,-1.49365 3.1916,-1.77371 3.66095,-2.42718 6.75868,-4.01419 3.09774,-1.58701 5.72611,-2.98731 7.32191,-4.10755 1.5958,-1.12024 3.00386,-2.33383 4.03644,-3.08066 1.03257,-0.74682 2.25289,-1.12023 2.72224,-1.587 0.46936,-0.46677 0.84484,-2.6139 0.0939,0.1867 -0.75097,2.80061 0,4.57431 -1.31419,6.06797 -1.31419,1.49365 -0.28161,0.84017 -4.13031,2.70724 -3.84869,1.86707 -4.69353,2.42719 -7.88513,3.45408 -3.1916,1.02688 -3.47321,-0.37342 -5.63224,1.86706 -2.15902,2.24048 -2.34677,2.14712 -2.15902,3.26737 0.18774,1.12023 1.68967,2.89395 0.18774,1.86706 -1.50193,-1.02689 -0.46936,-1.77371 -1.03258,-2.61389 -0.56322,-0.84018 -2.2528903,-2.14712 -2.06515,-2.52054 z"
     inkscape:connector-curvature="0" />
  <path
     style="fill:#ffd700;fill-opacity:1;stroke-width:1px"
     d="m 9.0339917,35.707778 c 1.8330603,-0.309229 3.6360373,-0.796526 5.3753003,-1.4528 2.089208,-0.788318 4.079462,-1.816864 6.02906,-2.90558 2.253674,-1.258522 4.463979,-2.603144 6.53753,-4.14045 2.248215,-1.6668 4.328599,-3.55546 6.24697,-5.59324 1.422477,-1.511019 2.755739,-3.103219 4.14044,-4.64893 0.548851,-0.61267 1.105816,-1.218071 1.6707,-1.81599 -0.150749,1.602887 -0.344546,3.201725 -0.58111,4.79421 -0.185763,1.250504 -0.407156,2.524547 -1.01696,3.63198 -0.468207,0.850286 -1.149029,1.568152 -1.899181,2.184169 -0.750151,0.616016 -1.57244,1.137089 -2.386529,1.665731 -1.498411,0.973018 -2.977029,1.977417 -4.50363,2.90558 -1.546621,0.940335 -3.14243,1.802141 -4.79419,2.54238 -1.511194,0.677244 -3.067491,1.251944 -4.64891,1.74335 -1.022284,0.317662 -2.060273,0.601636 -3.12348,0.72639 -0.177387,0.02081 -0.355838,0.03726 -0.52991,0.07724 -0.174072,0.03998 -0.345194,0.104788 -0.48704,0.213319 -0.180659,0.138228 -0.304851,0.341859 -0.37168,0.559296 -0.06683,0.217436 -0.07921,0.448608 -0.06416,0.675584 0.01463,0.220704 0.0544,0.44505 0.0053,0.660725 -0.02454,0.107838 -0.07222,0.212099 -0.148323,0.292349 -0.0761,0.08025 -0.182257,0.134668 -0.292836,0.136516 -0.106059,0.0018 -0.20984,-0.04482 -0.287746,-0.116809 -0.07791,-0.07199 -0.131275,-0.167776 -0.163818,-0.268734 -0.06508,-0.201917 -0.04957,-0.419387 -0.05692,-0.631407 -0.0076,-0.218852 -0.04085,-0.438713 -0.121274,-0.642395 -0.08042,-0.203682 -0.210104,-0.391034 -0.387196,-0.519845 -0.204562,-0.148792 -0.462603,-0.212367 -0.715554,-0.21206 -0.252951,3.08e-4 -0.502377,0.06092 -0.742102,0.141642 -0.47945,0.161447 -0.94271,0.407044 -1.447914,0.433618 -0.4472647,0.02353 -0.901461,-0.136779 -1.2348703,-0.43584"
     id="path3707"
     inkscape:path-effect="#path-effect3709"
     inkscape:original-d="m 9.0339917,35.707778 c 2.6150103,-0.72639 3.7772403,-0.79903 5.3753003,-1.4528 1.59807,-0.65375 4.57627,-2.10653 6.02906,-2.90558 1.45278,-0.79903 5.44794,-3.26877 6.53753,-4.14045 1.08959,-0.87167 4.86683,-4.431 6.24697,-5.59324 1.38015,-1.16223 3.84988,-4.28573 4.14044,-4.64893 0.29056,-0.3632 1.6707,-1.81599 1.6707,-1.81599 0,0 -0.65375,4.43101 -0.58111,4.79421 0.0726,0.36319 -0.58112,3.26878 -1.01696,3.63198 -0.43583,0.3632 -2.17917,2.7603 -4.28571,3.8499 -2.10654,1.08959 -2.83293,1.88862 -4.50363,2.90558 -1.6707,1.01694 -3.7046,1.96127 -4.79419,2.54238 -1.08959,0.58111 -2.76029,1.23487 -4.64891,1.74335 -1.88862,0.50848 -2.46973,0.50848 -3.12348,0.72639 -0.65376,0.21792 -0.7264,-0.21791 -1.01695,0.29056 -0.29056,0.50848 -0.29056,0.50848 -0.43584,1.23488 -0.14528,0.72639 0.29056,1.38014 -0.43583,1.08959 -0.7264,-0.29056 -0.50848,-0.50848 -0.50848,-1.01695 0,-0.50849 0.50848,-1.16224 -0.50847,-1.16224 -1.01695,0 -2.46974,0.3632 -2.90557,0.3632 -0.4358403,0 -1.3801503,-0.21792 -1.2348703,-0.43584 z"
     inkscape:connector-curvature="0" />
</svg>
