<?xml version="1.0" encoding="UTF-8" standalone="no"?>
<!-- Created using Karbon, part of Calligra: http://www.calligra.org/karbon -->

<svg
   xmlns:dc="http://purl.org/dc/elements/1.1/"
   xmlns:cc="http://creativecommons.org/ns#"
   xmlns:rdf="http://www.w3.org/1999/02/22-rdf-syntax-ns#"
   xmlns:svg="http://www.w3.org/2000/svg"
   xmlns="http://www.w3.org/2000/svg"
   xmlns:sodipodi="http://sodipodi.sourceforge.net/DTD/sodipodi-0.dtd"
   xmlns:inkscape="http://www.inkscape.org/namespaces/inkscape"
   width="38.4pt"
   height="38.4pt"
   id="svg2"
   version="1.1"
   inkscape:version="0.48.5 r10040"
   sodipodi:docname="gbrainy.svg">
  <metadata
     id="metadata11">
    <rdf:RDF>
      <cc:Work
         rdf:about="">
        <dc:format>image/svg+xml</dc:format>
        <dc:type
           rdf:resource="http://purl.org/dc/dcmitype/StillImage" />
        <dc:title />
      </cc:Work>
    </rdf:RDF>
  </metadata>
  <sodipodi:namedview
     pagecolor="#ffffff"
     bordercolor="#666666"
     borderopacity="1"
     objecttolerance="10"
     gridtolerance="10"
     guidetolerance="10"
     inkscape:pageopacity="0"
     inkscape:pageshadow="2"
     inkscape:window-width="1920"
     inkscape:window-height="1035"
     id="namedview9"
     showgrid="false"
     inkscape:showpageshadow="false"
     borderlayer="true"
     inkscape:zoom="6.9532164"
     inkscape:cx="3.3003812"
     inkscape:cy="24.178715"
     inkscape:window-x="-4"
     inkscape:window-y="29"
     inkscape:window-maximized="1"
     inkscape:current-layer="svg2">
    <sodipodi:guide
       position="9.5367432e-07,48.000001"
       orientation="47.999999,0"
       id="guide4067" />
    <sodipodi:guide
       position="9.5367432e-07,1.9073486e-06"
       orientation="0,47.999999"
       id="guide4069" />
    <sodipodi:guide
       position="48,1.9073486e-06"
       orientation="-47.999999,0"
       id="guide4071" />
    <sodipodi:guide
       position="48,48.000001"
       orientation="0,-47.999999"
       id="guide4073" />
    <sodipodi:guide
       position="4.000001,44.000001"
       orientation="39.999999,0"
       id="guide4133" />
    <sodipodi:guide
       position="4.000001,4.0000019"
       orientation="0,39.999999"
       id="guide4135" />
    <sodipodi:guide
       position="44,4.0000019"
       orientation="-39.999999,0"
       id="guide4137" />
    <sodipodi:guide
       position="44,44.000001"
       orientation="0,-39.999999"
       id="guide4139" />
  </sodipodi:namedview>
  <defs
     id="defs4" />
  <rect
     style="fill:#2980b9;fill-rule:evenodd;stroke:none;fill-opacity:1"
     y="4.000001"
     x="4.000001"
     ry="20"
     height="40"
     width="40"
     stroke-miterlimit="2.01260185242"
     id="shape01" />
  <path
     style="fill:#f5f5f5"
     id="path3745"
     inkscape:connector-curvature="0"
     d="m 21.715239,11.31454 c -0.14848,0.009 -0.30152,0.0303 -0.44538,0.0575 a 0.10224542,0.10224504 0 0 1 -0.0144,0 c -0.0741,0.003 -0.12019,0.0272 -0.14367,0.0431 -0.0235,0.0159 -0.0143,0.0243 -0.0144,0.0287 -8e-5,0.004 -0.01,0.009 0.0144,0.0287 0.024,0.02 0.0728,0.0463 0.14367,0.0575 a 0.10224542,0.10224504 0 0 1 0.0144,0 0.10224542,0.10224504 0 0 1 0.0144,0 c 0.74037,0.32224 1.52713,0.59575 2.24128,1.02007 0.006,0.003 0.009,0.0111 0.0144,0.0144 0.45825,0.20709 0.83647,0.55308 1.12064,0.94822 0.3292,0.49572 0.35009,1.17243 0.14367,1.7097 a 0.10224542,0.10224504 0 0 1 -0.0144,0 c -0.35328,0.70881 -0.65409,1.48994 -1.20684,2.11197 -0.004,0.005 -0.01,0.009 -0.0144,0.0144 -0.34209,0.49043 -0.89373,0.70845 -1.30741,1.03444 -0.005,0.004 -0.009,0.0101 -0.0144,0.0144 -0.31663,0.26995 -0.68606,0.50552 -0.93387,0.79018 -0.13732,0.23807 -0.28798,0.43334 -0.28734,0.67526 a 0.10224542,0.10224504 0 0 1 0,0.0144 0.10224542,0.10224504 0 0 1 0,0.0144 c -0.1211,0.47088 -0.0434,0.96796 0.11494,1.43671 0.11078,0.47474 0.37262,0.90744 0.73272,1.23558 0.004,10e-4 0.01,-0.001 0.0144,0 0.23203,0.0647 0.52871,-0.011 0.80456,-0.0862 0.1184,-0.19363 0.25867,-0.35499 0.40228,-0.51722 0.20755,-0.24484 0.50475,-0.41408 0.80457,-0.51722 0.004,-0.002 0.0102,0.002 0.0144,0 l 0,-0.0144 c 0.76358,-0.36475 1.59482,-0.26426 2.34186,-0.431 0.21069,-0.0714 0.41702,-0.14982 0.56032,-0.28735 0.004,-0.005 0.0108,-0.01 0.0144,-0.0144 0.10151,-0.13014 0.16776,-0.31034 0.24424,-0.48849 0.0792,-0.18446 0.17402,-0.37445 0.33045,-0.53158 a 0.10224542,0.10224504 0 0 1 0.0575,-0.0287 0.10224542,0.10224504 0 0 1 0.0144,0 c 0.27984,-0.007 0.50543,0.12317 0.70399,0.27298 0.18404,0.13886 0.35018,0.29195 0.51722,0.40228 0.003,-0.0142 0.0124,-0.0114 0.0144,-0.0287 0.006,-0.0575 0.0103,-0.12033 0.0144,-0.18678 0.004,-0.0665 -0.002,-0.13086 0.0144,-0.18677 a 0.10224542,0.10224504 0 0 1 0.0144,-0.0144 c 0.12616,-0.24577 0.27907,-0.54899 0.54595,-0.73272 0.005,-0.004 0.009,-0.0101 0.0144,-0.0144 0.36219,-0.29891 0.87588,-0.35039 1.29304,-0.12931 l 0,-0.0144 c 0.22287,0.091 0.39816,0.25803 0.57469,0.38791 0.17653,0.12988 0.35126,0.22839 0.54595,0.24424 0.17564,0.0333 0.33644,-0.0154 0.48849,-0.10057 0.15204,-0.0852 0.29167,-0.20396 0.43101,-0.33044 0.12777,-0.10535 0.27563,-0.28264 0.44538,-0.41665 0.16657,-0.1315 0.39045,-0.22806 0.63216,-0.14367 0.004,10e-4 0.0101,-0.001 0.0144,0 0.5093,0.16446 0.82431,0.59585 1.16374,0.9195 0.005,0.004 0.01,0.01 0.0144,0.0144 0.36636,0.23718 0.71814,0.51268 1.12064,0.44539 a 0.10224542,0.10224504 0 0 1 0.0144,0 0.10224542,0.10224504 0 0 1 0.0144,0 c 0.54065,0.0579 1.07741,-0.27149 1.33615,-0.7471 0.10155,-0.18631 0.0749,-0.39439 -0.0575,-0.57468 a 0.10224542,0.10224504 0 0 1 -0.0144,-0.0287 0.10224542,0.10224504 0 0 1 0,-0.0144 c -0.0352,-0.2435 -0.24796,-0.44402 -0.35917,-0.73271 -0.004,-0.0105 -0.0106,-0.0179 -0.0144,-0.0287 -0.65708,-1.08088 -1.65817,-1.91535 -2.6292,-2.74412 -0.005,-0.004 -0.009,-0.01 -0.0144,-0.0144 -0.41833,-0.26346 -0.78894,-0.58214 -1.19248,-0.83329 -0.004,-0.002 -0.0107,0.002 -0.0144,0 -0.68454,-0.37638 -1.32486,-0.79482 -2.04014,-1.06317 a 0.10224542,0.10224504 0 0 1 -0.0287,-0.0144 c -0.48864,-0.28165 -1.01858,-0.49688 -1.55166,-0.70398 -0.004,-10e-4 -0.01,10e-4 -0.0144,0 -0.50134,-0.13395 -0.96121,-0.35842 -1.43671,-0.48849 -0.70769,-0.16953 -1.41285,-0.32113 -2.12635,-0.47412 -0.92488,-0.1763 -1.87675,-0.17626 -2.83033,-0.24424 -0.005,2e-5 -0.01,-1e-5 -0.0144,0 -0.45423,9.2e-4 -0.90969,-0.0404 -1.35052,-0.0144 z m -1.45108,0.40228 c -0.67552,0.0369 -1.35768,0.21564 -2.04014,0.37354 a 0.17424118,0.17424054 0 0 1 -0.0144,0 c -0.92302,0.16791 -1.80839,0.53513 -2.65793,0.9626 -1.15943,0.53515 -2.22985,1.25329 -3.14641,2.14071 -0.63666,0.5409 -1.15692,1.21787 -1.62349,1.92519 -0.50532,0.688 -0.8462099,1.49034 -1.1781099,2.29874 -0.004,0.01 -0.0103,0.0188 -0.0144,0.0287 l -0.14367,0.51722 c -0.19248,0.82236 -0.42742,1.61489 -0.44538,2.42804 7.8e-4,0.005 -7.9e-4,0.01 0,0.0144 -8e-5,0.005 7e-5,0.01 0,0.0144 0.13526,0.80384 0.39204,1.60408 0.86203,2.25564 0.3826699,0.59512 0.8424999,1.14171 1.4223499,1.52292 a 0.17424118,0.17424054 0 0 1 0.0144,0.0144 c 0.37615,0.31615 0.88339,0.44309 1.37925,0.70398 0.005,10e-4 0.01,-0.001 0.0144,0 0.01,0.005 0.019,0.009 0.0287,0.0144 0.86385,0.1837 1.75692,0.30574 2.58609,0.0862 a 0.17424118,0.17424054 0 0 1 0.0575,0 c -0.0114,-9.2e-4 0.0484,-0.007 0.11494,-0.0287 0.0665,-0.0214 0.15307,-0.0495 0.22987,-0.0718 0.0384,-0.0111 0.0722,-0.0239 0.11494,-0.0287 0.0232,-0.003 0.0565,0.0108 0.0862,0.0144 0.42906,-0.58138 0.83639,-1.20483 1.32178,-1.76715 a 0.17424118,0.17424054 0 0 1 0.0144,-0.0144 c 0.38035,-0.35625 0.78352,-0.71229 1.26431,-0.9626 a 0.17424118,0.17424054 0 0 1 0.0431,-0.0144 c 0.2751,-0.0677 0.48887,-0.24045 0.64653,-0.48847 a 0.17424118,0.17424054 0 0 1 0.0144,-0.0144 c 0.0904,-0.0962 0.13678,-0.23847 0.18677,-0.40228 0.05,-0.16381 0.1042,-0.35012 0.25861,-0.51722 a 0.17424118,0.17424054 0 0 1 0.0144,-0.0144 c 0.35401,-0.295 0.86049,-0.36461 1.29305,-0.22987 a 0.17424118,0.17424054 0 0 1 -0.0144,-0.0144 c -0.35058,-0.43775 -0.632,-0.95109 -0.73272,-1.52291 -0.12286,-0.6072 -0.0189,-1.24184 0.28734,-1.78153 a 0.17424118,0.17424054 0 0 1 0.0431,-0.0431 c 0.0937,-0.0885 0.17893,-0.22262 0.28735,-0.35918 0.0966,-0.12175 0.2209,-0.23804 0.38791,-0.31607 0.42609,-0.35127 0.93129,-0.57686 1.24995,-0.93387 a 0.17424118,0.17424054 0 0 1 0.0144,-0.0144 c 0.56805,-0.48954 0.96565,-1.14538 1.33615,-1.82462 0.002,-0.004 -0.002,-0.0102 0,-0.0144 0.14747,-0.36164 0.25119,-0.76685 0.31608,-1.16375 -2.2e-4,-0.005 2.2e-4,-0.01 0,-0.0144 -0.0184,-0.36142 -0.086,-0.71473 -0.31608,-0.94824 a 0.17424118,0.17424054 0 0 1 -0.0144,-0.0287 c -0.1907,-0.28129 -0.50748,-0.47881 -0.83329,-0.68962 -0.01,-0.004 -0.0188,-0.01 -0.0287,-0.0144 -0.60383,-0.26594 -1.15107,-0.59824 -1.73843,-0.80457 a 0.17424118,0.17424054 0 0 1 -0.0431,-0.0144 c -0.23769,-0.15619 -0.53475,-0.17672 -0.8764,-0.25861 -0.01,-0.002 -0.019,0.002 -0.0287,0 z m 13.28964,7.55711 c -0.26467,0.13877 -0.48363,0.35509 -0.71835,0.58905 l -0.0144,0 c -0.21052,0.23858 -0.49331,0.40409 -0.81893,0.43102 a 0.17652707,0.17652642 0 0 1 -0.0144,0 c -0.26062,-0.001 -0.49721,-0.10585 -0.68962,-0.18678 a 0.17652707,0.17652642 0 0 1 -0.0575,-0.0287 c -0.18217,-0.18007 -0.40952,-0.31849 -0.66089,-0.43102 a 0.17652707,0.17652642 0 0 1 -0.0431,-0.0287 c -0.13778,-0.11436 -0.31552,-0.14646 -0.51722,-0.12931 -0.16961,0.0199 -0.31992,0.0742 -0.38792,0.15804 a 0.17652707,0.17652642 0 0 1 -0.0575,0.0431 c -0.14107,0.0766 -0.22653,0.15889 -0.24424,0.28735 a 0.17652707,0.17652642 0 0 1 -0.0144,0.0431 c -0.071,0.14928 -0.0753,0.32938 -0.0718,0.51722 0.32921,0.27265 0.67036,0.52908 1.03444,0.76145 0.004,0.002 0.0105,-0.002 0.0144,0 0.006,0.004 0.009,0.0108 0.0144,0.0144 0.28179,0.11768 0.60281,0.20126 0.9195,0.34481 0.004,0.002 0.01,-0.002 0.0144,0 0.4841,0.15455 0.76972,0.54153 1.06317,0.81893 0.005,0.004 0.01,0.0101 0.0144,0.0144 0.20233,0.14813 0.39112,0.32622 0.51722,0.56033 a 0.17652707,0.17652642 0 0 1 0,0.0144 c 0.19283,0.40901 0.36722,0.82836 0.53158,1.24994 a 0.17652707,0.17652642 0 0 1 0.0144,0 c 0.17986,0.55781 0.1504,1.12947 0.14367,1.66659 a 0.17652707,0.17652642 0 0 1 0,0.0287 c -0.0524,0.40378 -0.17875,0.74958 -0.27298,1.10626 0.17212,-0.016 0.34709,-0.0348 0.51722,-0.0287 0.009,-5.1e-4 0.0193,5.2e-4 0.0287,0 0.74869,-0.0447 1.51979,-0.0938 2.28438,-0.0431 0.77393,0.069 1.58015,0.042 2.38495,0.14367 0.0115,-2.2e-4 0.0174,-7e-5 0.0287,0 0.10751,7.4e-4 0.20859,0.006 0.27297,0 0.0356,-0.003 0.0513,-0.0104 0.0575,-0.0144 0.006,-0.004 0.007,0.01 0.0144,-0.0144 a 0.17652707,0.17652642 0 0 1 0,-0.0144 c 0.12603,-0.41146 0.16658,-0.8614 0.15804,-1.3074 -0.001,-0.01 10e-4,-0.0191 0,-0.0287 -0.0637,-0.49789 -0.0599,-0.9955 -0.0575,-1.47982 2e-5,-0.005 -2e-5,-0.01 0,-0.0144 -0.0401,-0.61992 -0.11216,-1.2477 -0.22988,-1.85336 -0.15879,-0.78636 -0.27507,-1.56019 -0.51721,-2.29874 -0.006,-0.0106 -0.008,-0.0181 -0.0144,-0.0287 -0.0703,-0.12525 -0.10706,-0.2561 -0.15804,-0.34482 -0.0432,-0.0751 -0.0906,-0.0951 -0.14367,-0.11493 -0.0964,0.0663 -0.17597,0.19518 -0.33045,0.33044 l -0.0144,0 c -0.22799,0.22493 -0.47952,0.53703 -0.8764,0.64653 -0.0109,0.003 -0.0176,0.0117 -0.0287,0.0144 -0.24352,0.0949 -0.48291,0.0752 -0.68962,0.0718 a 0.17652707,0.17652642 0 0 1 -0.0287,0 c -0.3491,-0.0487 -0.64875,-0.24432 -0.89076,-0.44538 -0.37671,-0.34923 -0.68187,-0.73706 -1.07754,-0.94824 a 0.17652707,0.17652642 0 0 1 -0.0287,-0.0144 c -0.074,-0.058 -0.19505,-0.0602 -0.35918,-0.0575 z m -5.74687,1.20684 c -0.22702,0.30322 -0.47764,0.57417 -0.77583,0.80456 -0.39026,0.23996 -0.81011,0.45317 -1.27868,0.47411 -0.45034,0.0694 -0.92109,0.15166 -1.35051,0.28734 -0.34087,0.20043 -0.72852,0.30508 -1.02007,0.58906 -0.51215,0.41035 -1.16133,0.62002 -1.7959,0.73272 -0.45272,-0.11787 -0.94587,-0.16753 -1.40798,-0.0718 -0.25815,0.26727 -0.39835,0.61381 -0.54596,0.94822 -0.12678,0.2227 -0.35984,0.33622 -0.53158,0.51722 -0.35931,0.12048 -0.61947,0.41686 -0.97697,0.54595 -0.76771,0.5795 -1.23793,1.43934 -1.82463,2.18381 -0.29456,0.24813 -0.10859,0.64389 -0.0718,0.9626 0.0523,0.65916 0.52873,1.24606 0.97697,1.63785 0.76502,0.65368 1.76511,0.90882 2.7154,1.16374 0.57747,0.0832 1.15186,0.20029 1.73843,0.15804 0.69029,0.008 1.37298,0.0127 2.0545,-0.11494 0.60814,-0.0508 1.19661,-0.19183 1.78153,-0.35918 1.01267,-0.21963 1.98711,-0.58213 2.95964,-0.93387 0.65071,-0.23326 1.33654,-0.4055 1.91084,-0.80455 0.52295,-0.17606 0.92549,-0.57642 1.27868,-0.97697 0.11723,-0.26542 0.36394,-0.46661 0.40228,-0.76146 0.16776,-0.31271 0.1929,-0.68488 0.30171,-1.02006 0.0941,-0.57721 0.17695,-1.15987 0.0431,-1.73843 -0.0455,-0.60197 -0.35417,-1.13336 -0.70399,-1.60911 -0.39201,-0.70017 -1.2199,-0.95136 -1.89647,-1.29305 -0.25854,-0.14787 -0.58116,-0.15359 -0.79019,-0.40228 -0.35481,-0.3491 -0.75123,-0.67961 -1.19248,-0.91949 z m 8.01689,7.14046 c -0.10103,2.2e-4 -0.20241,0.005 -0.30171,0.0144 a 0.20276627,0.20276553 0 0 1 -0.0144,0 c -0.84145,0.007 -1.68801,0.11847 -2.54299,0.20114 -0.24826,0.40156 -0.54709,0.75821 -0.8764,1.07754 -0.005,0.006 -0.01,0.009 -0.0144,0.0144 -0.27334,0.32423 -0.63944,0.47004 -0.91949,0.64652 -0.0105,0.0107 -0.0181,0.0188 -0.0287,0.0287 -0.20077,0.18665 -0.43912,0.23448 -0.61779,0.30171 l 0,0.0144 c -0.41659,0.2167 -0.85347,0.33088 -1.23558,0.50285 a 0.20276627,0.20276553 0 0 1 -0.0287,0.0144 c -0.49127,0.13528 -0.98325,0.24873 -1.43672,0.43101 a 0.20276627,0.20276553 0 0 1 -0.0144,0 c -0.26304,0.0823 -0.4883,0.18594 -0.70399,0.31608 l 0,0.54595 0,0.0144 c 0.0763,0.25684 0.1374,0.50056 0.24424,0.68962 0.23287,0.44329 0.56005,0.84437 0.96261,1.135 l 0,-0.0144 c 0.51807,0.34506 1.04863,0.66724 1.62349,0.80456 a 0.20276627,0.20276553 0 0 1 0.0144,0 c 0.41962,0.12685 0.86768,0.19429 1.32179,0.24424 0.01,0.001 0.0192,-10e-4 0.0287,0 0.55594,0.006 1.1308,-0.0586 1.72406,-0.0431 0.64728,-0.13509 1.29064,-0.23772 1.82464,-0.54595 a 0.20276627,0.20276553 0 0 1 0.0144,-0.0144 c 0.45505,-0.1977 0.87441,-0.49549 1.23558,-0.84766 a 0.20276627,0.20276553 0 0 1 0.0144,-0.0144 c 0.21362,-0.17054 0.358,-0.45732 0.63215,-0.71836 0.005,-0.012 0.009,-0.0171 0.0144,-0.0287 0.1259,-0.27109 0.28389,-0.48234 0.31608,-0.67524 a 0.20276627,0.20276553 0 0 1 0.0144,-0.0575 c 0.12025,-0.24763 0.21947,-0.51977 0.2155,-0.76146 a 0.20276627,0.20276553 0 0 1 0,-0.0287 c 0.0343,-0.22079 0.0596,-0.42758 0.0431,-0.63215 a 0.20276627,0.20276553 0 0 1 0,-0.0287 c 0.0352,-0.40734 -0.0907,-0.83004 -0.2155,-1.2643 a 0.20276627,0.20276553 0 0 1 0.0431,-0.18677 c 0.0994,-0.1245 0.1564,-0.37353 0.41665,-0.56032 a 0.20276627,0.20276553 0 0 1 0,-0.0144 c 0.0939,-0.0638 0.13541,-0.19231 0.18677,-0.35918 -0.002,-0.006 0.007,-0.0103 -0.0144,-0.0287 -0.0289,-0.025 -0.0917,-0.044 -0.14367,-0.0718 -0.28165,-0.0263 -0.56126,-0.0611 -0.81893,-0.0431 a 0.20276627,0.20276553 0 0 1 -0.0287,0 c -0.32088,-0.0248 -0.63078,-0.0581 -0.93387,-0.0575 z m -9.53981,4.03717 -2.65793,0.54594 1.46545,2.8878 1.6235,1.19247 1.03443,2.71539 2.88781,-1.03444 c -0.24471,-0.48336 -0.47096,-0.97001 -0.7471,-1.43671 -0.24788,-0.39184 -0.40598,-0.82635 -0.58905,-1.24994 -0.04,-0.1584 -0.15603,-0.28125 -0.27298,-0.3879 -0.2172,-0.24737 -0.49258,-0.42239 -0.79019,-0.56032 -0.29799,-0.13259 -0.60209,-0.25282 -0.9195,-0.33045 l -1.03444,-2.34184 z" />
</svg>
