<?xml version="1.0" encoding="UTF-8" standalone="no"?>
<!-- Created using Karbon, part of Calligra: http://www.calligra.org/karbon -->

<svg
   xmlns:dc="http://purl.org/dc/elements/1.1/"
   xmlns:cc="http://creativecommons.org/ns#"
   xmlns:rdf="http://www.w3.org/1999/02/22-rdf-syntax-ns#"
   xmlns:svg="http://www.w3.org/2000/svg"
   xmlns="http://www.w3.org/2000/svg"
   xmlns:sodipodi="http://sodipodi.sourceforge.net/DTD/sodipodi-0.dtd"
   xmlns:inkscape="http://www.inkscape.org/namespaces/inkscape"
   width="38.4pt"
   height="38.4pt"
   id="svg2"
   version="1.1"
   inkscape:version="0.91 r13725"
   sodipodi:docname="secure-card.svg">
  <metadata
     id="metadata17">
    <rdf:RDF>
      <cc:Work
         rdf:about="">
        <dc:format>image/svg+xml</dc:format>
        <dc:type
           rdf:resource="http://purl.org/dc/dcmitype/StillImage" />
      </cc:Work>
    </rdf:RDF>
  </metadata>
  <sodipodi:namedview
     pagecolor="#ffffff"
     bordercolor="#666666"
     borderopacity="1"
     objecttolerance="10"
     gridtolerance="10"
     guidetolerance="10"
     inkscape:pageopacity="0"
     inkscape:pageshadow="2"
     inkscape:window-width="1920"
     inkscape:window-height="992"
     id="namedview15"
     showgrid="false"
     inkscape:zoom="9.8333333"
     inkscape:cx="2.0842687"
     inkscape:cy="21.47907"
     inkscape:window-x="-4"
     inkscape:window-y="26"
     inkscape:window-maximized="1"
     inkscape:current-layer="svg2" />
  <defs
     id="defs4" />
  <g
     transform="matrix(0.46034315,0,0,0.46034315,1.2379416,1.2379409)"
     id="layer1">
    <rect
       width="84"
       height="84"
       rx="6"
       ry="0"
       x="6"
       y="6"
       id="rect2419"
       style="fill:#cccccc;fill-opacity:1;fill-rule:nonzero;stroke:none" />
  </g>
  <rect
     style="opacity:0.9;fill:#ffffff;fill-opacity:1;fill-rule:evenodd;stroke:none"
     id="rect3080"
     width="19.083185"
     height="19.386093"
     x="4.4184699"
     y="4.8412495"
     rx="2.762059" />
  <path
     d="m 13.590334,6.2587045 c -2.298213,0 -4.159739,1.8429842 -4.159739,4.1108905 0.00557,0.259903 0.00718,0.550136 0.032776,0.873418 -0.3637079,0.204999 -0.4117678,1.00851 -0.087345,1.816709 0.1251028,0.311643 0.2970594,0.563523 0.4694717,0.768609 0.00575,0.0069 0.016066,0.01662 0.02182,0.02329 0.041155,0.213533 0.070327,0.376352 0.1200989,0.617216 0.1541872,0.489077 0.7927522,1.410177 1.3538232,2.201014 0.05595,0.610075 0.05799,1.215925 -0.05459,1.909874 -1.6149625,1.416635 -5.7490328,2.050389 -5.7428457,3.516964 l -0.076426,0.558984 16.2459149,0 -0.07643,-0.558988 c -0.0066,-1.255192 -4.158602,-2.05039 -5.75376,-3.516964 -0.06459,-0.56178 -0.07655,-1.111994 -0.04369,-1.665318 0.51012,-0.831978 1.183124,-1.904135 1.353823,-2.44557 0.06274,-0.2804 0.09321,-0.469609 0.141933,-0.71038 0.150638,-0.194674 0.292765,-0.42172 0.403965,-0.698735 0.30809,-0.767502 0.270332,-1.509289 -0.04369,-1.758482 0.02196,-0.333488 0.04544,-0.646626 0.05459,-0.931646 0,-2.267902 -1.861527,-4.1108862 -4.159744,-4.1108862 z"
     inkscape:connector-curvature="0"
     id="path3798-9"
     style="display:inline;fill:#1a1a1a;fill-opacity:1;stroke:none;enable-background:new" />
  <text
     transform="scale(0.95867459,1.0431068)"
     id="text25"
     xml:space="preserve"
     x="26.040493"
     y="12.762732"
     font-size="12px"
     font-weight="bold"
     line-height="125%"
     style="font-weight:bold;font-size:7.59060526px;line-height:125%;font-family:TheMixPlain;letter-spacing:0px;word-spacing:0px;fill:#1a1a1a;fill-opacity:1"
     sodipodi:linespacing="125%"><tspan
       style="font-size:2.76205873px;fill:#1a1a1a;fill-opacity:1"
       id="tspan27"
       x="26.040493"
       y="12.762732">GCR SMART</tspan></text>
  <path
     id="path29"
     d="m 24.999888,15.622259 3.162923,0"
     inkscape:connector-curvature="0"
     style="fill:#ffffff;fill-opacity:1;stroke:#f9f9f9;stroke-width:0.82200462px;stroke-opacity:1" />
  <path
     id="path31"
     d="m 28.953542,15.622259 0.79073,0"
     inkscape:connector-curvature="0"
     style="fill:#ffffff;fill-opacity:1;stroke:#f9f9f9;stroke-width:0.82200462px;stroke-opacity:1" />
  <path
     id="path33"
     d="m 30.535003,15.622259 3.953654,0"
     inkscape:connector-curvature="0"
     style="fill:#ffffff;fill-opacity:1;stroke:#f9f9f9;stroke-width:0.82200462px;stroke-opacity:1" />
  <path
     id="path35"
     d="m 35.279387,15.622259 1.581462,0"
     inkscape:connector-curvature="0"
     style="fill:#ffffff;fill-opacity:1;stroke:#f9f9f9;stroke-width:0.82200462px;stroke-opacity:1" />
  <path
     id="path37"
     d="m 37.925401,15.622259 0.859187,0"
     inkscape:connector-curvature="0"
     style="fill:#ffffff;fill-opacity:1;stroke:#f9f9f9;stroke-width:0.8220045px;stroke-opacity:1" />
  <path
     id="path39"
     d="m 39.693063,15.622259 1.696466,0"
     inkscape:connector-curvature="0"
     style="fill:#ffffff;fill-opacity:1;stroke:#f9f9f9;stroke-width:0.82200462px;stroke-opacity:1" />
  <path
     id="path41"
     d="m 24.999888,16.941895 0.790731,0"
     inkscape:connector-curvature="0"
     style="fill:#ffffff;fill-opacity:1;stroke:#f9f9f9;stroke-width:0.82200462px;stroke-opacity:1" />
  <path
     id="path43"
     d="m 26.58135,16.941895 3.162922,0"
     inkscape:connector-curvature="0"
     style="fill:#ffffff;fill-opacity:1;stroke:#f9f9f9;stroke-width:0.82200462px;stroke-opacity:1" />
  <path
     id="path45"
     d="m 30.535003,16.941895 2.372192,0"
     inkscape:connector-curvature="0"
     style="fill:#ffffff;fill-opacity:1;stroke:#f9f9f9;stroke-width:0.82200462px;stroke-opacity:1" />
  <path
     id="path47"
     d="m 33.697926,16.941895 1.581461,0"
     inkscape:connector-curvature="0"
     style="fill:#ffffff;fill-opacity:1;stroke:#f9f9f9;stroke-width:0.82200462px;stroke-opacity:1" />
  <path
     id="path49"
     d="m 36.207029,16.941895 2.577559,0"
     inkscape:connector-curvature="0"
     style="fill:#ffffff;fill-opacity:1;stroke:#f9f9f9;stroke-width:0.8220045px;stroke-opacity:1" />
  <path
     id="path51"
     d="m 39.693063,16.941895 1.696466,0"
     inkscape:connector-curvature="0"
     style="fill:#ffffff;fill-opacity:1;stroke:#f9f9f9;stroke-width:0.82200462px;stroke-opacity:1" />
  <path
     id="path53"
     d="m 24.999888,18.261531 2.372192,0"
     inkscape:connector-curvature="0"
     style="fill:#ffffff;fill-opacity:1;stroke:#f9f9f9;stroke-width:0.82200462px;stroke-opacity:1" />
  <path
     id="path55"
     d="m 28.162811,18.261531 1.581461,0"
     inkscape:connector-curvature="0"
     style="fill:#ffffff;fill-opacity:1;stroke:#f9f9f9;stroke-width:0.82200462px;stroke-opacity:1" />
  <path
     id="path57"
     d="m 30.535003,18.261531 5.535115,0"
     inkscape:connector-curvature="0"
     style="fill:#ffffff;fill-opacity:1;stroke:#f9f9f9;stroke-width:0.82200462px;stroke-opacity:1" />
  <path
     id="path59"
     d="m 37.066215,18.261531 0.859186,0"
     inkscape:connector-curvature="0"
     style="fill:#ffffff;fill-opacity:1;stroke:#f9f9f9;stroke-width:0.8220045px;stroke-opacity:1" />
  <path
     id="path61"
     d="m 38.844829,18.261531 2.5447,0"
     inkscape:connector-curvature="0"
     style="fill:#ffffff;fill-opacity:1;stroke:#f9f9f9;stroke-width:0.82200462px;stroke-opacity:1" />
  <path
     id="path63"
     d="m 24.999888,19.581167 3.162923,0"
     inkscape:connector-curvature="0"
     style="fill:#ffffff;fill-opacity:1;stroke:#f9f9f9;stroke-width:0.82200462px;stroke-opacity:1" />
  <path
     id="path65"
     d="m 28.953542,19.581167 1.581461,0"
     inkscape:connector-curvature="0"
     style="fill:#ffffff;fill-opacity:1;stroke:#f9f9f9;stroke-width:0.82200462px;stroke-opacity:1" />
  <path
     id="path67"
     d="m 31.325734,19.581167 0.79073,0"
     inkscape:connector-curvature="0"
     style="fill:#ffffff;fill-opacity:1;stroke:#f9f9f9;stroke-width:0.82200462px;stroke-opacity:1" />
  <path
     id="path69"
     d="m 32.907195,19.581167 0.790731,0"
     inkscape:connector-curvature="0"
     style="fill:#ffffff;fill-opacity:1;stroke:#f9f9f9;stroke-width:0.82200462px;stroke-opacity:1" />
  <path
     id="path71"
     d="m 34.488656,19.581167 3.436745,0"
     inkscape:connector-curvature="0"
     style="fill:#ffffff;fill-opacity:1;stroke:#f9f9f9;stroke-width:0.8220045px;stroke-opacity:1" />
  <path
     id="path73"
     d="m 38.844829,19.581167 2.5447,0"
     inkscape:connector-curvature="0"
     style="fill:#ffffff;fill-opacity:1;stroke:#f9f9f9;stroke-width:0.82200462px;stroke-opacity:1" />
  <path
     id="path75"
     d="m 24.999888,20.900802 2.372192,0"
     inkscape:connector-curvature="0"
     style="fill:#ffffff;fill-opacity:1;stroke:#f9f9f9;stroke-width:0.82200462px;stroke-opacity:1" />
  <path
     id="path77"
     d="m 28.162811,20.900802 0.790731,0"
     inkscape:connector-curvature="0"
     style="fill:#ffffff;fill-opacity:1;stroke:#f9f9f9;stroke-width:0.82200462px;stroke-opacity:1" />
  <path
     id="path79"
     d="m 29.744272,20.900802 1.581462,0"
     inkscape:connector-curvature="0"
     style="fill:#ffffff;fill-opacity:1;stroke:#f9f9f9;stroke-width:0.82200462px;stroke-opacity:1" />
  <path
     id="path81"
     d="m 32.116464,20.900802 4.744385,0"
     inkscape:connector-curvature="0"
     style="fill:#ffffff;fill-opacity:1;stroke:#f9f9f9;stroke-width:0.82200462px;stroke-opacity:1" />
  <path
     id="path83"
     d="m 37.925401,20.900802 1.718374,0"
     inkscape:connector-curvature="0"
     style="fill:#ffffff;fill-opacity:1;stroke:#f9f9f9;stroke-width:0.8220045px;stroke-opacity:1" />
  <path
     id="path85"
     d="m 40.541296,20.900802 0.848233,0"
     inkscape:connector-curvature="0"
     style="fill:#ffffff;fill-opacity:1;stroke:#f9f9f9;stroke-width:0.82200462px;stroke-opacity:1" />
  <path
     id="path87"
     d="m 24.999888,22.220438 1.581462,0"
     inkscape:connector-curvature="0"
     style="fill:#ffffff;fill-opacity:1;stroke:#f9f9f9;stroke-width:0.82200462px;stroke-opacity:1" />
  <path
     id="path89"
     d="m 27.37208,22.220438 4.744384,0"
     inkscape:connector-curvature="0"
     style="fill:#ffffff;fill-opacity:1;stroke:#f9f9f9;stroke-width:0.82200462px;stroke-opacity:1" />
  <path
     id="path91"
     d="m 32.907194,22.220438 4.241168,0 4.241167,0"
     inkscape:connector-curvature="0"
     style="fill:#ffffff;fill-opacity:1;stroke:#f9f9f9;stroke-width:0.82200462px;stroke-opacity:1" />
  <path
     id="path93"
     d="m 24.999888,23.540074 2.372192,0"
     inkscape:connector-curvature="0"
     style="fill:#ffffff;fill-opacity:1;stroke:#f9f9f9;stroke-width:0.82200462px;stroke-opacity:1" />
  <path
     id="path95"
     d="m 28.162811,23.540074 3.162923,0"
     inkscape:connector-curvature="0"
     style="fill:#ffffff;fill-opacity:1;stroke:#f9f9f9;stroke-width:0.82200462px;stroke-opacity:1" />
  <rect
     style="opacity:0.9;fill:#1a1a1a;fill-opacity:1;fill-rule:evenodd;stroke:none"
     id="rect3929"
     width="36.803288"
     height="1.6659925"
     x="4.9327664"
     y="26.81402"
     rx="0" />
  <g
     id="g3944"
     transform="matrix(0.46034315,0,0,0.46034315,0.78358288,5.327195)">
    <rect
       y="61.125778"
       x="10.528067"
       height="19.411123"
       width="2.6320167"
       id="rect3931"
       style="opacity:0.9;fill:#1a1a1a;fill-opacity:1;fill-rule:evenodd;stroke:none" />
    <rect
       style="opacity:0.9;fill:#1a1a1a;fill-opacity:1;fill-rule:evenodd;stroke:none"
       id="rect3933"
       width="2.6320167"
       height="19.411123"
       x="16.528067"
       y="61.125778" />
    <rect
       y="61.125778"
       x="22.528067"
       height="19.411123"
       width="2.6320167"
       id="rect3938"
       style="opacity:0.9;fill:#1a1a1a;fill-opacity:1;fill-rule:evenodd;stroke:none" />
    <rect
       style="opacity:0.9;fill:#1a1a1a;fill-opacity:1;fill-rule:evenodd;stroke:none"
       id="rect3940"
       width="2.6320167"
       height="19.411123"
       x="28.528067"
       y="61.125778" />
    <rect
       y="61.125778"
       x="34.528069"
       height="19.411123"
       width="2.6320167"
       id="rect3942"
       style="opacity:0.9;fill:#1a1a1a;fill-opacity:1;fill-rule:evenodd;stroke:none" />
  </g>
  <path
     id="path3112"
     d="m 36.186544,29.609147 c -2.069545,0 -3.74279,1.630371 -3.735641,3.655511 l 0.01294,3.668461 c 0,0 7.994256,0.03074 7.956419,-0.01295 l 0,-3.655512 c 0,-2.025153 -1.666096,-3.655511 -3.735641,-3.655511 z m 0.249043,1.949606 c 1.103756,0 1.992342,0.869525 1.992342,1.949606 0,0.0032 -9.21e-4,0.0063 -9.67e-4,0.0095 l 9.67e-4,0 0,3.402292 -3.971735,0.01295 -0.01295,-3.415239 9.67e-4,0 c -3.9e-5,-0.0032 -9.67e-4,-0.0063 -9.67e-4,-0.0095 0,-1.080082 0.888586,-1.949606 1.992342,-1.949606 z"
     style="fill:#1a1a1a;fill-opacity:1;fill-rule:evenodd;stroke:none"
     inkscape:connector-curvature="0"
     sodipodi:nodetypes="ssccsssssccccccss" />
  <path
     sodipodi:nodetypes="ssccsssssccccccss"
     inkscape:connector-curvature="0"
     style="fill:#1a1a1a;fill-opacity:1;fill-rule:evenodd;stroke:none"
     d="m 36.190492,29.667268 c -2.036746,0 -3.683472,1.604531 -3.676437,3.597576 l 0.01274,3.610321 c 0,0 7.867558,0.03025 7.830321,-0.01274 l 0,-3.597577 c 0,-1.993057 -1.639692,-3.597577 -3.676437,-3.597577 z m 0.245096,1.918708 c 1.086263,0 1.960766,0.855743 1.960766,1.918707 0,0.0032 -9.21e-4,0.0062 -9.67e-4,0.0094 l 9.67e-4,0.02082 0,3.34837 -3.908789,-0.0081 -0.01274,-3.361113 9.67e-4,0 c 0.0028,0.206359 -9.67e-4,-0.0062 -9.67e-4,-0.0094 0,-1.062964 0.874502,-1.918707 1.960767,-1.918708 z"
     id="path3766" />
  <path
     id="path3013"
     d="m 31.036085,36.757754 0,7.242246 10.741318,0 0,-7.242246 c -3.844988,-0.07423 -9.383932,0 -10.741318,0 z"
     style="fill:#1a1a1a;fill-opacity:1;fill-rule:evenodd;stroke:none"
     inkscape:connector-curvature="0"
     sodipodi:nodetypes="ccccc" />
</svg>
