<?xml version="1.0" encoding="UTF-8" standalone="no"?>
<!-- Created with Inkscape (http://www.inkscape.org/) -->

<svg
   xmlns:a="http://ns.adobe.com/AdobeSVGViewerExtensions/3.0/"
   xmlns:dc="http://purl.org/dc/elements/1.1/"
   xmlns:cc="http://creativecommons.org/ns#"
   xmlns:rdf="http://www.w3.org/1999/02/22-rdf-syntax-ns#"
   xmlns:svg="http://www.w3.org/2000/svg"
   xmlns="http://www.w3.org/2000/svg"
   xmlns:xlink="http://www.w3.org/1999/xlink"
   xmlns:sodipodi="http://sodipodi.sourceforge.net/DTD/sodipodi-0.dtd"
   xmlns:inkscape="http://www.inkscape.org/namespaces/inkscape"
   width="48"
   height="48"
   id="svg2"
   version="1.1"
   inkscape:version="0.48.5 r10040"
   sodipodi:docname="gcstar.svg"
   inkscape:export-filename="/home/uri/workspace/NitruxforAndroid/res/drawable-xhdpi/flash_settings.png"
   inkscape:export-xdpi="180"
   inkscape:export-ydpi="180">
  <defs
     id="defs4">
    <linearGradient
       inkscape:collect="always"
       xlink:href="#XMLID_87_"
       id="linearGradient8986"
       gradientUnits="userSpaceOnUse"
       gradientTransform="matrix(2.9488204,0.01356457,-0.01356457,2.9488204,-127.17524,-295.67976)"
       x1="82.511002"
       y1="213.66991"
       x2="91.114304"
       y2="222.5916" />
    <linearGradient
       x1="82.511002"
       y1="213.66991"
       x2="91.114304"
       y2="222.5916"
       id="XMLID_87_"
       gradientUnits="userSpaceOnUse"
       gradientTransform="matrix(1,0.0046,-0.0046,1,1.194,-1.0432)">
      <stop
         id="stop3157"
         style="stop-color:#ffffff;stop-opacity:1"
         offset="0" />
      <stop
         id="stop3159-1"
         style="stop-color:#ecf5fe;stop-opacity:1"
         offset="0.1178" />
      <stop
         id="stop3161-3"
         style="stop-color:#badafa;stop-opacity:1"
         offset="0.35749999" />
      <stop
         id="stop3163-5"
         style="stop-color:#6ab0f4;stop-opacity:1"
         offset="0.69389999" />
      <stop
         id="stop3165-0"
         style="stop-color:#1c86ee;stop-opacity:1"
         offset="1" />
      <a:midPointStop
         offset="0"
         style="stop-color:#FFFFFF" />
      <a:midPointStop
         offset="0.548"
         style="stop-color:#FFFFFF" />
      <a:midPointStop
         offset="1"
         style="stop-color:#1C86EE" />
    </linearGradient>
    <linearGradient
       inkscape:collect="always"
       xlink:href="#XMLID_87_"
       id="linearGradient3036"
       gradientUnits="userSpaceOnUse"
       gradientTransform="matrix(0.24882034,0.00114457,-0.00114457,0.24881999,-52.257871,976.42135)"
       x1="82.511002"
       y1="213.66991"
       x2="91.114304"
       y2="222.5916" />
    <linearGradient
       inkscape:collect="always"
       xlink:href="#XMLID_87_"
       id="linearGradient3058"
       gradientUnits="userSpaceOnUse"
       gradientTransform="matrix(0.24882034,0.00114457,-0.00114457,0.24881999,-52.257871,976.42135)"
       x1="82.511002"
       y1="213.66991"
       x2="91.114304"
       y2="222.5916" />
  </defs>
  <sodipodi:namedview
     id="base"
     pagecolor="#ffffff"
     bordercolor="#666666"
     borderopacity="1.0"
     inkscape:pageopacity="0.0"
     inkscape:pageshadow="2"
     inkscape:zoom="12.752362"
     inkscape:cx="17.113918"
     inkscape:cy="28.051241"
     inkscape:document-units="px"
     inkscape:current-layer="layer1"
     showgrid="false"
     inkscape:window-width="1920"
     inkscape:window-height="1035"
     inkscape:window-x="-4"
     inkscape:window-y="29"
     inkscape:window-maximized="1" />
  <metadata
     id="metadata7">
    <rdf:RDF>
      <cc:Work
         rdf:about="">
        <dc:format>image/svg+xml</dc:format>
        <dc:type
           rdf:resource="http://purl.org/dc/dcmitype/StillImage" />
        <dc:title />
      </cc:Work>
    </rdf:RDF>
  </metadata>
  <g
     inkscape:label="Capa 1"
     inkscape:groupmode="layer"
     id="layer1"
     transform="translate(0,-1004.3622)">
    <rect
       style="fill:#ff8c00;fill-opacity:1;stroke:none"
       id="rect4078"
       width="40"
       height="40"
       x="4"
       y="1008.3622"
       ry="20" />
    <g
       id="g3046"
       transform="translate(45.717021,4.7834276)">
      <path
         style="fill:#ffffff"
         id="path3108"
         inkscape:connector-curvature="0"
         d="m -18.36232,1027.0132 c 0.003,0.01 0.0047,0.013 0.0077,0.019 0.002,0 0.0052,0.01 0.0072,0.013 l -0.01493,-0.032 z" />
      <path
         style="fill:#ffffff"
         id="path3110"
         inkscape:connector-curvature="0"
         d="m -9.6394256,1010.7391 -0.0025,0 -0.0017,0 c -7.59e-4,-2e-4 -0.003,0 -0.0045,0 -0.07639,-0.1013 -0.158995,-0.2038 -0.258524,-0.32 -0.5013724,-0.5842 -1.0853544,-1.0493 -1.7335314,-1.3854 l 0.01667,0.01 -0.05151,-0.031 c -0.0012,-5e-4 -0.008,0 -0.01642,-0.01 -0.01568,-0.01 -0.0321,-0.019 -0.05623,-0.032 -0.04653,-0.024 -0.08933,-0.044 -0.123664,-0.061 -0.01518,-0.01 -0.02886,-0.013 -0.03931,-0.019 l -0.0032,0 c -0.0311,-0.015 -0.03434,-0.017 -0.03434,-0.017 l -0.02488,-0.012 c -0.02314,-0.012 -0.06121,-0.033 -0.109729,-0.054 l -0.01941,-0.01 c -0.02886,-0.011 -0.04852,-0.019 -0.04852,-0.019 l -0.0085,0 c -0.492166,-0.2115 -1.031858,-0.3503 -1.586976,-0.4048 -0.631505,-0.07 -1.306058,-0.033 -1.993549,0.1122 -0.01891,0 -0.09231,0.019 -0.09231,0.019 -0.02837,0.01 -0.06519,0.015 -0.09629,0.022 l -0.410305,-0.037 -0.06146,-0.01 c -0.256284,-0.041 -0.503861,-0.072 -0.73601,-0.092 -3.358826,-0.4111 -7.860981,0.4588 -10.0506,6.9553 -0.179649,0.5334 -0.62031,1.9853 -1.177667,3.8236 l -0.708641,2.3297 c -2.261528,0.154 -3.858457,0.6636 -4.750726,1.5188 -0.375221,0.3269 -0.60538,0.7917 -0.630511,1.2856 -0.007,0.1396 0.0085,0.2817 0.03707,0.4287 0.100772,0.9107 0.864402,1.633 1.793249,1.6865 0.560343,0.033 1.104513,-0.1771 1.493419,-0.5755 l 0.01966,-0.016 c -0.01692,0.018 -0.02787,0.026 -0.02812,0.026 0.06643,-0.049 0.31003,-0.1565 0.800703,-0.2638 -0.01891,0.061 -0.0841,0.2673 -0.0841,0.2673 l -0.287637,0.9096 -0.01393,-0.028 c 0.0012,0 -0.692468,2.069 -0.692468,2.069 l -0.0744,0.2222 -0.02239,0.067 c 0.0042,-0.012 -0.01219,0.035 -0.01219,0.035 l -0.148297,0.4257 0.0037,0.01 c -0.127894,0.3732 -0.176414,0.4971 -0.194328,0.5372 -0.129636,0.2796 -0.336157,0.5312 -0.598414,0.728 -0.261012,0.1899 -0.605877,0.3469 -1.043303,0.4725 l -0.140086,0.039 c -0.416525,0.1137 -1.04629,0.2846 -1.461571,0.8719 -0.482711,0.6855 -0.441407,1.6029 0.09878,2.2309 0.4852,0.5663 1.273462,0.8032 2.108255,0.6327 0.550888,-0.1119 1.12417,-0.2978 1.703424,-0.5538 9.95e-4,0 0.05524,-0.025 0.05524,-0.025 0.209507,-0.092 0.431455,-0.1916 0.652656,-0.3115 0.100523,0.094 0.205276,0.1826 0.314509,0.2675 -0.211498,0.2782 -0.342875,0.6061 -0.377958,0.9532 -0.05076,0.5049 0.09754,0.9968 0.416773,1.3862 0.315505,0.3844 0.760645,0.623 1.253558,0.6708 0.322719,0.033 0.652904,-0.021 0.95124,-0.1577 l -0.005,0.01 c 1.168461,-0.5208 2.160508,-1.2197 2.948273,-2.0796 0.380695,-0.4282 0.719091,-0.9003 1.015933,-1.4136 l -0.01194,-0.01 c 0.05449,-0.077 0.105002,-0.1543 0.148297,-0.2346 0.291368,-0.5387 0.535959,-1.1167 0.726804,-1.7169 l 0.08062,-0.2533 0.01393,-0.01 c 0.02936,-0.01 0.169944,-0.4511 0.169944,-0.4511 l 0.0057,-0.019 0.53347,-1.6773 0.0015,10e-4 c 9.96e-4,0 0.266736,-0.8412 0.266736,-0.8412 0.008,-0.025 0.01617,-0.048 0.02414,-0.073 0.04927,0.064 0.08958,0.1201 0.129885,0.1779 0.08933,0.1281 0.190595,0.2729 0.361286,0.4381 0.704659,0.6821 1.679538,0.8386 2.434707,0.3967 l -0.01045,0.01 c 0.0077,0 0.01269,-0.01 0.02015,-0.012 0.0032,0 0.007,0 0.01045,0 l 0.09505,-0.058 0.02339,-0.024 c 0.0027,0 0.007,0 0.009,-0.01 0.05101,-0.034 0.113462,-0.076 0.18338,-0.1381 0.630511,-0.5621 0.789756,-1.476 0.40085,-2.2782 -0.116448,-0.2556 -0.276191,-0.484 -0.477486,-0.6791 -0.01891,-0.019 -0.03633,-0.032 -0.05499,-0.048 -0.07713,-0.09 -0.157255,-0.1821 -0.244839,-0.2796 -0.11197,-0.1284 -0.250065,-0.2835 -0.408066,-0.4527 0.02065,0 0.04155,0.01 0.0622,0.01 0.158996,0.09 0.314757,0.1734 0.470271,0.2441 0.693213,0.3157 1.431463,0.4944 2.195341,0.5324 0.01145,5e-4 0.03434,0 0.03434,0 l 0.05126,0 c 0.02986,0 0.07216,0 0.109481,0 1.020662,0.025 2.014202,-0.1978 2.985347,-0.6626 0.05549,-0.026 0.105251,-0.054 0.141579,-0.075 0.01294,-0.01 0.02687,-0.015 0.03359,-0.019 0.130133,-0.065 0.273454,-0.1413 0.413042,-0.2217 2.037839,-1.1769 3.6840344,-3.3001 4.5150944,-5.8251 1.043055,-3.168 0.627276,-6.5358 -1.084608,-8.7888 l -0.02588,-0.034 z" />
      <path
         style="fill:#ffffff"
         id="path3112"
         inkscape:connector-curvature="0"
         d="m -33.838697,1023.0189 c 0.0047,0 0.01045,-0.01 0.01543,-0.013 0.01393,-0.012 0.02638,-0.025 0.04081,-0.038 l -0.05623,0.051 z" />
      <path
         d="m -28.367635,1034.3283 c 0.896251,0.2744 1.879838,0.1759 2.703931,-0.2688 0.406075,-0.2194 0.808666,-0.5115 1.030614,-0.9213 0.268974,-0.4977 0.489181,-1.0217 0.66012,-1.5604 -1.2023,0.2774 -2.48472,0.1705 -3.645716,-0.2341 -1.152784,-0.4021 -2.363793,-1.1369 -2.938319,-2.2551 -0.07987,0.2357 -0.380944,1.1618 -0.483955,1.384 -0.197066,0.4254 -0.501871,0.7902 -0.876844,1.0719 -0.400103,0.2911 -0.863655,0.4827 -1.337906,0.6185 -0.404085,0.1157 -0.851712,0.1959 -1.110983,0.5626 -0.238121,0.3384 -0.225431,0.801 0.04628,1.1165 0.307542,0.3588 0.798714,0.425 1.239375,0.3349 0.519039,-0.1053 1.034346,-0.2814 1.518799,-0.4949 0.424985,-0.1876 0.880575,-0.3807 1.215736,-0.7136 0.253051,0.3615 0.574277,0.6725 0.942532,0.9151 0.18338,0.1202 0.378455,0.2237 0.581991,0.3073 0.112715,0.046 0.461063,0.1389 0.454345,0.1374"
         inkscape:connector-curvature="0"
         id="path3135"
         style="fill:#1e90ff;fill-opacity:1" />
      <path
         d="m -9.1880646,1013.9116 c -0.426478,-1.8104 -1.5038704,-3.3705 -2.9806194,-4.1456 -0.780798,-0.4101 -1.67257,-0.6014 -2.639486,-0.4939 -0.08908,0.01 -0.178404,0.023 -0.268229,0.038 -0.06021,0.01 -0.12018,0.022 -0.180892,0.034 -0.02588,0.01 -0.05275,0.01 -0.08012,0.016 -0.07639,0.017 -0.154518,0.037 -0.232896,0.057 -0.0072,0 -0.01468,0 -0.02239,0.01 -0.0841,0.023 -0.169944,0.048 -0.255787,0.076 -0.467782,0.1493 -0.948752,0.3663 -1.439674,0.6624 -1.33517,0.8057 -2.382207,1.8684 -3.149319,3.0625 -0.03757,0.059 -0.07266,0.1191 -0.109481,0.1784 0.357803,-0.9789 0.837778,-1.6721 1.210511,-2.0675 0.660618,-0.6997 1.641468,-1.5093 2.794003,-1.9699 -0.240112,-0.038 -0.465294,-0.066 -0.670322,-0.084 -4.041091,-0.4937 -7.384739,1.212 -9.113542,6.3412 -0.264994,0.786 -1.136612,3.7037 -2.083374,6.802 -1.603149,0.073 -3.73753,0.3623 -4.750477,1.3317 -0.208263,0.1682 -0.347602,0.4165 -0.364522,0.7004 -0.0321,0.5444 0.395375,1.0119 0.953977,1.044 0.31003,0.018 0.594432,-0.101 0.792742,-0.3035 l 0.0017,0 c 0.329189,-0.3568 1.452365,-0.6079 2.736526,-0.7258 -0.03334,0.1072 -0.06643,0.2137 -0.09878,0.3202 -0.109979,0.3456 -0.219211,0.691 -0.327448,1.0369 -0.14979,0.4755 -0.298584,0.9512 -0.450365,1.426 -0.07539,0.2366 -0.152029,0.474 -0.228915,0.7106 -0.0209,0.6648 0.391643,1.3528 1.169456,1.941 1.195333,0.904 3.352854,1.589 5.268273,0.9587 0.211498,-0.6658 0.49366,-1.5541 0.806178,-2.5349 h 0.0012 c 0.173179,-0.5477 0.358053,-1.0175 0.550141,-1.4211 0.358551,0.3252 0.713617,0.6833 1.027379,1.0289 0.200053,0.2528 0.255788,0.3849 0.433446,0.5571 0.481467,0.4658 1.129396,0.5367 1.545174,0.1145 0.415282,-0.4215 0.36278,-1.1409 -0.117941,-1.6069 -0.02289,-0.022 -0.04678,-0.043 -0.07116,-0.062 -0.351832,-0.412 -0.946264,-1.0666 -1.649181,-1.6787 0.846487,-0.7358 1.707902,-0.6788 2.33692,-0.4619 0.008,0 0.01468,0.01 0.02215,0.014 1.517057,0.8886 3.239889,0.8147 4.800739,0.069 1.27819,-0.6106 2.389671,-1.6454 3.238396,-2.902 0.774827,-1.1475 1.3267104,-2.4742 1.6113614,-3.845 0.292613,-1.4143 0.302566,-2.8783 -0.01543,-4.2257 z m -1.8868054,7.5445 c -1.59867,2.2831 -4.373266,3.4999 -6.470821,1.9139 -3.110255,-2.3521 -2.635506,-8.4136 1.334174,-11.2509 2.961709,-2.1182 5.695498,-0.4344 6.4738084,2.415 0.595676,2.1805 0.02264,4.9794 -1.3371614,6.922 z"
         inkscape:connector-curvature="0"
         id="path3154"
         style="fill:#1e90ff" />
      <path
         d="m -28.367635,1034.3283 c -0.19408,0.1147 -0.398859,0.2266 -0.627276,0.3312 -0.03508,0.012 -0.06843,0.027 -0.101269,0.043 -0.132374,0.079 -0.252305,0.1687 -0.35034,0.2797 -0.109978,0.1413 -0.183878,0.3142 -0.203286,0.5061 -0.05374,0.5354 0.329687,1.0117 0.85644,1.0632 0.172432,0.017 0.338396,-0.013 0.485697,-0.08 l 0.003,0.01 c 1.194088,-0.5317 2.044058,-1.2043 2.648941,-1.8639 0.343123,-0.3866 0.640961,-0.8081 0.899236,-1.2545 -0.888287,0.9552 -2.278696,1.3767 -3.611129,0.9699 z"
         inkscape:connector-curvature="0"
         id="path3167"
         style="fill:url(#linearGradient3058)" />
      <path
         d="m -28.367635,1034.3283 c -0.19408,0.1147 -0.398859,0.2266 -0.627276,0.3312 -0.03508,0.012 -0.06843,0.027 -0.101269,0.043 -0.132374,0.079 -0.252305,0.1687 -0.35034,0.2797 -0.109978,0.1413 -0.183878,0.3142 -0.203286,0.5061 -0.05374,0.5354 0.329687,1.0117 0.85644,1.0632 0.172432,0.017 0.338396,-0.013 0.485697,-0.08 l 0.003,0.01 c 1.194088,-0.5317 2.044058,-1.2043 2.648941,-1.8639 0.343123,-0.3866 0.640961,-0.8081 0.899236,-1.2545 -0.888287,0.9552 -2.278696,1.3767 -3.611129,0.9699 z"
         inkscape:connector-curvature="0"
         id="path3180"
         style="fill:#1e90ff;fill-opacity:1" />
      <path
         d="m -15.481301,1023.5119 c 1.078637,0.088 2.140353,-0.3138 3.00774,-0.9338 0.638723,-0.4559 1.183141,-1.0195 1.604394,-1.6659 0.0032,0 0.005,-0.01 0.008,-0.012 0.08335,-0.1281 0.161484,-0.2595 0.235632,-0.3939 5.07e-4,0 0.0017,0 0.003,-0.01 0.148049,-0.272 0.275195,-0.5567 0.3797,-0.8523 0.4745014,-1.3381 0.6128444,-2.7626 0.3120214,-4.1577 -0.2672334,-1.2369 -0.9156594,-2.4318 -1.9505024,-3.1874 -0.49366,-0.3601 -1.027629,-0.581 -1.640474,-0.6198 -0.690227,-0.044 -1.376473,0.1284 -1.995788,0.4284 -0.07266,0.047 -0.145062,0.095 -0.21722,0.1471 -2.288649,1.6357 -3.413068,4.3426 -3.361065,6.793 0.08286,1.4275 0.60961,2.743 1.596929,3.6313 0.57801,0.4593 1.269731,0.7676 2.017684,0.8291 z"
         inkscape:connector-curvature="0"
         id="path4277"
         style="fill:#ff8c00" />
      <path
         d="m -14.01127,1017.588 c 0.149292,-0.9617 -0.129884,-1.743 -0.66236,-1.7042 -0.57577,0.042 -1.182643,1.0082 -1.304565,2.104 -0.115204,1.0436 0.270716,1.702 0.817126,1.5278 0.509584,-0.1632 1.007972,-1.006 1.149799,-1.9276 z"
         inkscape:connector-curvature="0"
         id="path4279"
         style="fill:#1c86ee" />
      <path
         d="m -11.58154,1017.3653 c -0.05698,-0.018 -0.148047,-0.03 -0.253796,0.024 -0.361038,0.1802 -0.66236,1.0911 -0.719091,1.2725 -0.07937,0.2553 -0.324959,1.1144 -0.117692,1.4317 0.05474,0.083 0.134612,0.1341 0.226426,0.1468 0.228169,0.031 0.393137,-0.1824 0.496895,-0.3446 0.06021,-0.094 0.122171,-0.2085 0.182634,-0.3394 0.08734,-0.1869 0.170691,-0.4034 0.239117,-0.6241 0.16447,-0.5245 0.376713,-1.4257 -0.05449,-1.5665 z"
         inkscape:connector-curvature="0"
         id="path4281"
         style="fill:#1c86ee" />
    </g>
  </g>
</svg>
