<?xml version="1.0" encoding="UTF-8" standalone="no"?>
<!-- Created with Inkscape (http://www.inkscape.org/) -->

<svg
   xmlns:a="http://ns.adobe.com/AdobeSVGViewerExtensions/3.0/"
   xmlns:dc="http://purl.org/dc/elements/1.1/"
   xmlns:cc="http://creativecommons.org/ns#"
   xmlns:rdf="http://www.w3.org/1999/02/22-rdf-syntax-ns#"
   xmlns:svg="http://www.w3.org/2000/svg"
   xmlns="http://www.w3.org/2000/svg"
   xmlns:xlink="http://www.w3.org/1999/xlink"
   xmlns:sodipodi="http://sodipodi.sourceforge.net/DTD/sodipodi-0.dtd"
   xmlns:inkscape="http://www.inkscape.org/namespaces/inkscape"
   width="48"
   height="48"
   id="svg2"
   version="1.1"
   inkscape:version="0.48.5 r10040"
   sodipodi:docname="gda-control-center.svg"
   inkscape:export-filename="/home/uri/workspace/NitruxforAndroid/res/drawable-xhdpi/flash_settings.png"
   inkscape:export-xdpi="180"
   inkscape:export-ydpi="180">
  <defs
     id="defs4">
    <linearGradient
       inkscape:collect="always"
       xlink:href="#XMLID_87_"
       id="linearGradient8986"
       gradientUnits="userSpaceOnUse"
       gradientTransform="matrix(2.9488204,0.01356457,-0.01356457,2.9488204,-127.17524,-295.67976)"
       x1="82.511002"
       y1="213.66991"
       x2="91.114304"
       y2="222.5916" />
    <linearGradient
       x1="82.511002"
       y1="213.66991"
       x2="91.114304"
       y2="222.5916"
       id="XMLID_87_"
       gradientUnits="userSpaceOnUse"
       gradientTransform="matrix(1,0.0046,-0.0046,1,1.194,-1.0432)">
      <stop
         id="stop3157"
         style="stop-color:#ffffff;stop-opacity:1"
         offset="0" />
      <stop
         id="stop3159-1"
         style="stop-color:#ecf5fe;stop-opacity:1"
         offset="0.1178" />
      <stop
         id="stop3161-3"
         style="stop-color:#badafa;stop-opacity:1"
         offset="0.35749999" />
      <stop
         id="stop3163-5"
         style="stop-color:#6ab0f4;stop-opacity:1"
         offset="0.69389999" />
      <stop
         id="stop3165-0"
         style="stop-color:#1c86ee;stop-opacity:1"
         offset="1" />
      <a:midPointStop
         offset="0"
         style="stop-color:#FFFFFF" />
      <a:midPointStop
         offset="0.548"
         style="stop-color:#FFFFFF" />
      <a:midPointStop
         offset="1"
         style="stop-color:#1C86EE" />
    </linearGradient>
    <linearGradient
       inkscape:collect="always"
       xlink:href="#XMLID_87_"
       id="linearGradient3036"
       gradientUnits="userSpaceOnUse"
       gradientTransform="matrix(0.24882034,0.00114457,-0.00114457,0.24881999,-52.257871,976.42135)"
       x1="82.511002"
       y1="213.66991"
       x2="91.114304"
       y2="222.5916" />
    <linearGradient
       inkscape:collect="always"
       xlink:href="#XMLID_87_"
       id="linearGradient3058"
       gradientUnits="userSpaceOnUse"
       gradientTransform="matrix(0.24882034,0.00114457,-0.00114457,0.24881999,-52.257871,976.42135)"
       x1="82.511002"
       y1="213.66991"
       x2="91.114304"
       y2="222.5916" />
  </defs>
  <sodipodi:namedview
     id="base"
     pagecolor="#ffffff"
     bordercolor="#666666"
     borderopacity="1.0"
     inkscape:pageopacity="0.0"
     inkscape:pageshadow="2"
     inkscape:zoom="12.752362"
     inkscape:cx="17.113918"
     inkscape:cy="28.051241"
     inkscape:document-units="px"
     inkscape:current-layer="layer1"
     showgrid="false"
     inkscape:window-width="1920"
     inkscape:window-height="1025"
     inkscape:window-x="-4"
     inkscape:window-y="39"
     inkscape:window-maximized="1" />
  <metadata
     id="metadata7">
    <rdf:RDF>
      <cc:Work
         rdf:about="">
        <dc:format>image/svg+xml</dc:format>
        <dc:type
           rdf:resource="http://purl.org/dc/dcmitype/StillImage" />
        <dc:title />
      </cc:Work>
    </rdf:RDF>
  </metadata>
  <g
     inkscape:label="Capa 1"
     inkscape:groupmode="layer"
     id="layer1"
     transform="translate(0,-1004.3622)">
    <path
       style="fill:#68af4c;fill-rule:evenodd"
       inkscape:connector-curvature="0"
       d="m 43.9969,1028.3604 c 0,11.0446 -8.953666,19.9984 -19.99845,19.9984 C 12.953666,1048.3588 4,1039.405 4,1028.3604 c 0,-11.0448 8.953666,-19.9986 19.99845,-19.9986 11.044784,0 19.99845,8.9538 19.99845,19.9986"
       id="path5504" />
    <path
       style="opacity:0.25"
       inkscape:connector-curvature="0"
       id="path6176"
       d="m 24.267936,1015.4386 c -5.682285,0 -10.288406,1.522 -10.288406,3.4 0,0.37 0.181988,0.7299 0.517973,1.0679 l 2.273715,2.274 c -0.352984,-0.12 -0.677969,-0.26 -0.970965,-0.4 l -1.796233,-1.796 c -0.183987,0.33 -0.291986,0.67 -0.291986,1.028 v 3.2129 c 0,0.62 0.298986,1.2189 0.839968,1.7589 l 2.699399,2.7 c -0.729969,-0.28 -1.368749,-0.5999 -1.894531,-0.9499 l -1.322751,-1.322 c 3e-4,10e-4 7e-4,10e-4 10e-4,0 l -10e-4,0 c -0.201986,0.34 -0.320985,0.71 -0.320985,1.079 v 3.2099 c 0,0.62 0.298986,1.2179 0.837968,1.7579 l 2.958895,2.959 c -0.841977,-0.3001 -1.570346,-0.6501 -2.158227,-1.0521 l -1.316551,-1.317 c 2e-4,0 6e-4,10e-4 9e-4,0 l -10e-4,0 c -0.201986,0.34 -0.320985,0.7 -0.320985,1.073 v 3.216 c 0,0.62 0.297986,1.2159 0.836968,1.7549 l 9.268851,9.2688 c 0.06,0 0.120998,0 0.180997,0 11.044784,0 19.99845,-8.9538 19.99845,-19.9985 0,-0.2099 -0.004,-0.4299 -0.01,-0.6399 l -9.946731,-9.9467 c -1.354749,-1.3551 -5.217201,-2.3331 -9.771233,-2.3331" />
    <path
       style="fill:#ffffff"
       inkscape:connector-curvature="0"
       id="path6178"
       d="m 24.267936,1015.4386 c -5.682285,0 -10.288406,1.522 -10.288406,3.4 0,1.8779 4.605221,3.4009 10.288406,3.4009 5.682195,0 10.288316,-1.522 10.288316,-3.4009 0,-1.877 -4.606121,-3.4 -10.288316,-3.4 m -10.264616,4.5459 c -0.183987,0.33 -0.291986,0.67 -0.291986,1.028 v 3.2129 c 0,2.481 4.730629,4.4979 10.556002,4.4979 5.830283,0 10.558812,-2.0179 10.558812,-4.4979 v -3.2129 c 0,-0.35 -0.107999,-0.7 -0.288996,-1.028 -0.201987,1.818 -4.717319,3.272 -10.269116,3.272 -5.552187,0 -10.060019,-1.454 -10.264616,-3.272 m 0.03,6.4228 c -0.201986,0.3401 -0.320985,0.7101 -0.320985,1.0781 v 3.2109 c 0,2.4828 4.730629,4.4918 10.556002,4.4918 5.830283,0 10.558812,-2.01 10.558812,-4.4918 v -3.2109 c 0,-0.37 -0.121999,-0.73 -0.320996,-1.0781 -1.133253,1.964 -5.2783,3.418 -10.237116,3.418 -4.955106,0 -9.102553,-1.456 -10.234517,-3.418 m 0,6.6368 c -0.201986,0.34 -0.320985,0.7 -0.320985,1.073 v 3.216 c 0,2.4809 4.730619,4.4878 10.556002,4.4878 5.830283,0 10.558812,-2.0079 10.558812,-4.4878 v -3.216 c 0,-0.37 -0.121999,-0.73 -0.320996,-1.073 -1.133353,1.96 -5.2784,3.4131 -10.237216,3.4131 -4.955006,0 -9.102554,-1.4531 -10.234417,-3.4131" />
  </g>
</svg>
