<?xml version="1.0" encoding="UTF-8" standalone="no"?>
<!-- Created using Karbon, part of Calligra: http://www.calligra.org/karbon -->

<svg
   xmlns:dc="http://purl.org/dc/elements/1.1/"
   xmlns:cc="http://creativecommons.org/ns#"
   xmlns:rdf="http://www.w3.org/1999/02/22-rdf-syntax-ns#"
   xmlns:svg="http://www.w3.org/2000/svg"
   xmlns="http://www.w3.org/2000/svg"
   xmlns:xlink="http://www.w3.org/1999/xlink"
   xmlns:sodipodi="http://sodipodi.sourceforge.net/DTD/sodipodi-0.dtd"
   xmlns:inkscape="http://www.inkscape.org/namespaces/inkscape"
   width="38.4pt"
   height="38.4pt"
   id="svg2"
   version="1.1"
   inkscape:version="0.48.5 r10040"
   sodipodi:docname="gnome-glchess.svg">
  <metadata
     id="metadata15">
    <rdf:RDF>
      <cc:Work
         rdf:about="">
        <dc:format>image/svg+xml</dc:format>
        <dc:type
           rdf:resource="http://purl.org/dc/dcmitype/StillImage" />
        <dc:title />
      </cc:Work>
    </rdf:RDF>
  </metadata>
  <sodipodi:namedview
     pagecolor="#ffffff"
     bordercolor="#666666"
     borderopacity="1"
     objecttolerance="10"
     gridtolerance="10"
     guidetolerance="10"
     inkscape:pageopacity="0"
     inkscape:pageshadow="2"
     inkscape:window-width="1920"
     inkscape:window-height="1035"
     id="namedview13"
     showgrid="false"
     borderlayer="true"
     inkscape:showpageshadow="false"
     inkscape:zoom="4.9166667"
     inkscape:cx="21.934585"
     inkscape:cy="8.2532297"
     inkscape:window-x="-4"
     inkscape:window-y="29"
     inkscape:window-maximized="1"
     inkscape:current-layer="svg2">
    <sodipodi:guide
       position="9.5367432e-07,48.000001"
       orientation="47.999999,0"
       id="guide4073" />
    <sodipodi:guide
       position="9.5367432e-07,1.9073486e-06"
       orientation="0,47.999999"
       id="guide4075" />
    <sodipodi:guide
       position="48,1.9073486e-06"
       orientation="-47.999999,0"
       id="guide4077" />
    <sodipodi:guide
       position="48,48.000001"
       orientation="0,-47.999999"
       id="guide4079" />
    <sodipodi:guide
       position="4.000001,44.000001"
       orientation="39.999999,0"
       id="guide4081" />
    <sodipodi:guide
       position="4.000001,4.0000019"
       orientation="0,39.999999"
       id="guide4083" />
    <sodipodi:guide
       position="44,4.0000019"
       orientation="-39.999999,0"
       id="guide4085" />
    <sodipodi:guide
       position="44,44.000001"
       orientation="0,-39.999999"
       id="guide4087" />
  </sodipodi:namedview>
  <defs
     id="defs4">
    <linearGradient
       gradientUnits="userSpaceOnUse"
       y2="39"
       x2="38"
       y1="39"
       x1="8"
       id="linearGradient3233"
       xlink:href="#linearGradient3235"
       inkscape:collect="always" />
    <linearGradient
       gradientUnits="userSpaceOnUse"
       y2="28"
       x2="39"
       y1="27"
       x1="3"
       id="linearGradient2846"
       xlink:href="#linearGradient2188"
       inkscape:collect="always" />
    <radialGradient
       r="14.5"
       fy="8.8798504"
       fx="13.819342"
       cy="8.8798504"
       cx="13.819342"
       gradientTransform="matrix(0.3567181,0.4597701,-0.5655855,0.7289769,16.26512,4.5064085)"
       gradientUnits="userSpaceOnUse"
       id="radialGradient19774"
       xlink:href="#linearGradient3570"
       inkscape:collect="always" />
    <linearGradient
       gradientUnits="userSpaceOnUse"
       y2="35.394569"
       x2="41.660713"
       y1="12.358853"
       x1="40.035717"
       id="linearGradient19742"
       xlink:href="#linearGradient19744"
       inkscape:collect="always" />
    <radialGradient
       r="3.0477226"
       fy="16.969122"
       fx="3.5"
       cy="16.969122"
       cx="3.5"
       gradientTransform="matrix(0.5290677,1.2697623,-1.3124555,0.7874732,23.91948,-1.0068978)"
       gradientUnits="userSpaceOnUse"
       id="radialGradient18128"
       xlink:href="#linearGradient14664"
       inkscape:collect="always" />
    <radialGradient
       r="3.0477226"
       fy="16.969122"
       fx="3.5"
       cy="16.969122"
       cx="3.5"
       gradientTransform="matrix(0.5290677,1.2697623,-1.3124555,0.7874732,23.91948,-1.0068978)"
       gradientUnits="userSpaceOnUse"
       id="radialGradient18126"
       xlink:href="#linearGradient14664"
       inkscape:collect="always" />
    <radialGradient
       r="3.0477226"
       fy="16.969122"
       fx="3.5"
       cy="16.969122"
       cx="3.5"
       gradientTransform="matrix(0.5290677,1.2697623,-1.3124555,0.7874732,23.91948,-1.0068978)"
       gradientUnits="userSpaceOnUse"
       id="radialGradient18124"
       xlink:href="#linearGradient14664"
       inkscape:collect="always" />
    <radialGradient
       gradientUnits="userSpaceOnUse"
       gradientTransform="matrix(0.5290677,1.2697623,-1.3124555,0.7874732,23.91948,-1.0068978)"
       r="3.0477226"
       fy="16.969122"
       fx="3.5"
       cy="16.969122"
       cx="3.5"
       id="radialGradient18099"
       xlink:href="#linearGradient14664"
       inkscape:collect="always" />
    <radialGradient
       r="15.5"
       fy="21.094482"
       fx="13.071457"
       cy="21.094482"
       cx="13.071457"
       gradientTransform="matrix(1.4285703,2.2586675,-1.8530096,1.6167349,33.346827,-44.63139)"
       gradientUnits="userSpaceOnUse"
       id="radialGradient17706"
       xlink:href="#linearGradient2790"
       inkscape:collect="always" />
    <linearGradient
       y2="31"
       x2="25"
       y1="26"
       x1="21"
       gradientTransform="matrix(0.5555553,0,0,1.1111107,10.222227,-0.6111033)"
       gradientUnits="userSpaceOnUse"
       id="linearGradient17174"
       xlink:href="#linearGradient11853"
       inkscape:collect="always" />
    <radialGradient
       r="3"
       fy="28.5"
       fx="22.999998"
       cy="28.5"
       cx="22.999998"
       gradientTransform="matrix(0.9999995,0,0,1.5555553,9.5596046e-6,-13.83333)"
       gradientUnits="userSpaceOnUse"
       id="radialGradient17172"
       xlink:href="#linearGradient8285"
       inkscape:collect="always" />
    <linearGradient
       gradientTransform="matrix(0.92,0,0,0.8888889,8.9090905e-7,1.6111111)"
       gradientUnits="userSpaceOnUse"
       y2="47.6875"
       x2="44.565216"
       y1="14"
       x1="12"
       id="linearGradient17109"
       xlink:href="#linearGradient3570"
       inkscape:collect="always" />
    <linearGradient
       y2="31"
       x2="25"
       y1="26"
       x1="21"
       gradientTransform="matrix(0.3333332,0,0,0.8333333,24.333334,4.1666658)"
       gradientUnits="userSpaceOnUse"
       id="linearGradient14261"
       xlink:href="#linearGradient11853"
       inkscape:collect="always" />
    <radialGradient
       r="3"
       fy="28.5"
       fx="22.999998"
       cy="28.5"
       cx="22.999998"
       gradientTransform="matrix(0.6,0,0,1.1666668,18.199999,-5.7500067)"
       gradientUnits="userSpaceOnUse"
       id="radialGradient14259"
       xlink:href="#linearGradient8285"
       inkscape:collect="always" />
    <linearGradient
       y2="31"
       x2="25"
       y1="26"
       x1="21"
       gradientTransform="matrix(0.3333332,0,0,0.8333333,6.3333338,4.0749898)"
       gradientUnits="userSpaceOnUse"
       id="linearGradient11867"
       xlink:href="#linearGradient11853"
       inkscape:collect="always" />
    <radialGradient
       r="3"
       fy="28.5"
       fx="22.999998"
       cy="28.5"
       cx="22.999998"
       gradientTransform="matrix(0.5999998,0,0,1.1666668,0.2000035,-5.8416827)"
       gradientUnits="userSpaceOnUse"
       id="radialGradient11865"
       xlink:href="#linearGradient8285"
       inkscape:collect="always" />
    <radialGradient
       r="14.5"
       fy="19.5"
       fx="23.5"
       cy="19.5"
       cx="23.5"
       gradientTransform="matrix(0.5517241,0,0,0.2413793,11.034483,35.793103)"
       gradientUnits="userSpaceOnUse"
       id="radialGradient7116"
       xlink:href="#linearGradient5539"
       inkscape:collect="always" />
    <radialGradient
       gradientUnits="userSpaceOnUse"
       gradientTransform="matrix(2.9166668,0,0,1.0833331,-46.500002,-0.2083278)"
       r="6"
       fy="38.5"
       fx="24"
       cy="38.5"
       cx="24"
       id="radialGradient7112"
       xlink:href="#linearGradient7106"
       inkscape:collect="always" />
    <radialGradient
       gradientUnits="userSpaceOnUse"
       gradientTransform="matrix(2.6249997,2.7443598,-0.4329059,2.1970053,-4.9758584,-64.937913)"
       r="7"
       fy="27.331398"
       fx="10.450585"
       cy="27.331398"
       cx="10.450585"
       id="radialGradient6717"
       xlink:href="#linearGradient6328"
       inkscape:collect="always" />
    <radialGradient
       gradientUnits="userSpaceOnUse"
       gradientTransform="matrix(0.7000001,0,0,-0.7272727,6.5500005,25.181818)"
       r="5.5"
       fy="16.749998"
       fx="21.624998"
       cy="16.749998"
       cx="21.624998"
       id="radialGradient5934"
       xlink:href="#linearGradient7499"
       inkscape:collect="always" />
    <radialGradient
       gradientUnits="userSpaceOnUse"
       gradientTransform="matrix(0.3103448,0,0,0.137931,16.206898,15.310346)"
       r="14.5"
       fy="19.5"
       fx="23.5"
       cy="19.5"
       cx="23.5"
       id="radialGradient5545"
       xlink:href="#linearGradient5539"
       inkscape:collect="always" />
    <linearGradient
       gradientTransform="matrix(2.2500001,0,0,1.2726172,-31.000001,-8.9499257)"
       gradientUnits="userSpaceOnUse"
       y2="54.179626"
       x2="42.230766"
       y1="37.6782"
       x1="21"
       id="linearGradient4751"
       xlink:href="#linearGradient12294"
       inkscape:collect="always" />
    <radialGradient
       gradientUnits="userSpaceOnUse"
       gradientTransform="matrix(1.0996737,-2.6392164,-1.8750005,-1.9999998,19.432184,98.396098)"
       r="3.5"
       fy="12.74359"
       fx="23.078409"
       cy="12.74359"
       cx="23.078409"
       id="radialGradient3185"
       xlink:href="#linearGradient2790"
       inkscape:collect="always" />
    <linearGradient
       id="linearGradient2188">
      <stop
         id="stop2190"
         offset="0"
         style="stop-color:#c4a000;stop-opacity:1" />
      <stop
         style="stop-color:#edd400;stop-opacity:1"
         offset="0.20552924"
         id="stop3626" />
      <stop
         style="stop-color:#fce94f;stop-opacity:1"
         offset="0.5"
         id="stop2848" />
      <stop
         id="stop2850"
         offset="0.75"
         style="stop-color:#edd400;stop-opacity:1" />
      <stop
         id="stop2192"
         offset="1"
         style="stop-color:#c4a000;stop-opacity:1" />
    </linearGradient>
    <linearGradient
       id="linearGradient2790">
      <stop
         id="stop2792"
         offset="0"
         style="stop-color:#ffffff;stop-opacity:1;" />
      <stop
         id="stop2794"
         offset="1"
         style="stop-color:#fce94f;stop-opacity:1;" />
    </linearGradient>
    <linearGradient
       id="linearGradient3570">
      <stop
         id="stop3572"
         offset="0"
         style="stop-color:#ffffff;stop-opacity:1;" />
      <stop
         id="stop3574"
         offset="1"
         style="stop-color:#fce94f;stop-opacity:1;" />
    </linearGradient>
    <linearGradient
       id="linearGradient5539"
       inkscape:collect="always">
      <stop
         id="stop5541"
         offset="0"
         style="stop-color:#000000;stop-opacity:1;" />
      <stop
         id="stop5543"
         offset="1"
         style="stop-color:#000000;stop-opacity:0;" />
    </linearGradient>
    <linearGradient
       id="linearGradient6328"
       inkscape:collect="always">
      <stop
         id="stop6330"
         offset="0"
         style="stop-color:#ffffff;stop-opacity:1;" />
      <stop
         id="stop6332"
         offset="1"
         style="stop-color:#ffffff;stop-opacity:0;" />
    </linearGradient>
    <linearGradient
       id="linearGradient7106"
       inkscape:collect="always">
      <stop
         id="stop7108"
         offset="0"
         style="stop-color:#000000;stop-opacity:1;" />
      <stop
         id="stop7110"
         offset="1"
         style="stop-color:#000000;stop-opacity:0;" />
    </linearGradient>
    <linearGradient
       inkscape:collect="always"
       id="linearGradient7499">
      <stop
         style="stop-color:#fff5ac;stop-opacity:1"
         offset="0"
         id="stop7501" />
      <stop
         style="stop-color:#edd400;stop-opacity:1"
         offset="1"
         id="stop7503" />
    </linearGradient>
    <linearGradient
       id="linearGradient8285">
      <stop
         id="stop8287"
         offset="0"
         style="stop-color:#ff6c6c;stop-opacity:1;" />
      <stop
         id="stop8289"
         offset="1"
         style="stop-color:#cc0000;stop-opacity:1;" />
    </linearGradient>
    <linearGradient
       id="linearGradient11853"
       inkscape:collect="always">
      <stop
         id="stop11855"
         offset="0"
         style="stop-color:#ffffff;stop-opacity:1;" />
      <stop
         id="stop11857"
         offset="1"
         style="stop-color:#ffffff;stop-opacity:0;" />
    </linearGradient>
    <linearGradient
       id="linearGradient12294">
      <stop
         style="stop-color:#fef8c4;stop-opacity:1"
         offset="0"
         id="stop12296" />
      <stop
         style="stop-color:#edd400;stop-opacity:1"
         offset="1"
         id="stop12298" />
    </linearGradient>
    <linearGradient
       id="linearGradient14664">
      <stop
         id="stop14666"
         offset="0"
         style="stop-color:#ffffff;stop-opacity:1;" />
      <stop
         id="stop14668"
         offset="1"
         style="stop-color:#eeeeec;stop-opacity:1" />
    </linearGradient>
    <linearGradient
       id="linearGradient19744">
      <stop
         style="stop-color:#ffffff;stop-opacity:1;"
         offset="0"
         id="stop19746" />
      <stop
         id="stop19748"
         offset="0.78597295"
         style="stop-color:#edd400;stop-opacity:1" />
      <stop
         style="stop-color:#ffffff;stop-opacity:1;"
         offset="1"
         id="stop19750" />
    </linearGradient>
    <linearGradient
       id="linearGradient3235">
      <stop
         style="stop-color:#fce94f;stop-opacity:1"
         offset="0"
         id="stop3237" />
      <stop
         id="stop3239"
         offset="0.5"
         style="stop-color:#fce94f;stop-opacity:1" />
      <stop
         style="stop-color:#edd400;stop-opacity:1"
         offset="0.75"
         id="stop3241" />
      <stop
         style="stop-color:#c4a000;stop-opacity:1"
         offset="1"
         id="stop3243" />
    </linearGradient>
    <linearGradient
       inkscape:collect="always"
       xlink:href="#linearGradient19744"
       id="linearGradient4099"
       gradientUnits="userSpaceOnUse"
       x1="40.035717"
       y1="12.358853"
       x2="41.660713"
       y2="35.394569"
       gradientTransform="translate(-96.5565,66.313679)" />
    <linearGradient
       inkscape:collect="always"
       xlink:href="#linearGradient11853"
       id="linearGradient4110"
       gradientUnits="userSpaceOnUse"
       gradientTransform="matrix(0.5555553,0,0,1.1111107,-86.334273,65.702576)"
       x1="21"
       y1="26"
       x2="25"
       y2="31" />
    <radialGradient
       inkscape:collect="always"
       xlink:href="#linearGradient8285"
       id="radialGradient4113"
       gradientUnits="userSpaceOnUse"
       gradientTransform="matrix(0.9999995,0,0,1.5555553,-96.55649,52.480349)"
       cx="22.999998"
       cy="28.5"
       fx="22.999998"
       fy="28.5"
       r="3" />
    <linearGradient
       inkscape:collect="always"
       xlink:href="#linearGradient11853"
       id="linearGradient4116"
       gradientUnits="userSpaceOnUse"
       gradientTransform="matrix(0.3333332,0,0,0.8333333,-72.223166,70.480345)"
       x1="21"
       y1="26"
       x2="25"
       y2="31" />
    <radialGradient
       inkscape:collect="always"
       xlink:href="#linearGradient8285"
       id="radialGradient4119"
       gradientUnits="userSpaceOnUse"
       gradientTransform="matrix(0.6,0,0,1.1666668,-78.356501,60.563672)"
       cx="22.999998"
       cy="28.5"
       fx="22.999998"
       fy="28.5"
       r="3" />
    <linearGradient
       inkscape:collect="always"
       xlink:href="#linearGradient11853"
       id="linearGradient4122"
       gradientUnits="userSpaceOnUse"
       gradientTransform="matrix(0.3333332,0,0,0.8333333,-90.223166,70.388669)"
       x1="21"
       y1="26"
       x2="25"
       y2="31" />
    <radialGradient
       inkscape:collect="always"
       xlink:href="#linearGradient8285"
       id="radialGradient4125"
       gradientUnits="userSpaceOnUse"
       gradientTransform="matrix(0.5999998,0,0,1.1666668,-96.356497,60.471996)"
       cx="22.999998"
       cy="28.5"
       fx="22.999998"
       fy="28.5"
       r="3" />
    <radialGradient
       inkscape:collect="always"
       xlink:href="#linearGradient2790"
       id="radialGradient4128"
       gradientUnits="userSpaceOnUse"
       gradientTransform="matrix(1.0996737,-2.6392164,-1.8750005,-1.9999998,-77.124316,164.70978)"
       cx="23.078409"
       cy="12.74359"
       fx="23.078409"
       fy="12.74359"
       r="3.5" />
    <radialGradient
       inkscape:collect="always"
       xlink:href="#linearGradient7499"
       id="radialGradient4131"
       gradientUnits="userSpaceOnUse"
       gradientTransform="matrix(0.7000001,0,0,-0.7272727,-90.0065,91.495497)"
       cx="21.624998"
       cy="16.749998"
       fx="21.624998"
       fy="16.749998"
       r="5.5" />
    <radialGradient
       inkscape:collect="always"
       xlink:href="#linearGradient2790"
       id="radialGradient4134"
       gradientUnits="userSpaceOnUse"
       gradientTransform="matrix(1.4285703,2.2586675,-1.8530096,1.6167349,-63.209673,21.682289)"
       cx="13.071457"
       cy="21.094482"
       fx="13.071457"
       fy="21.094482"
       r="15.5" />
    <radialGradient
       inkscape:collect="always"
       xlink:href="#linearGradient5539"
       id="radialGradient4137"
       gradientUnits="userSpaceOnUse"
       gradientTransform="matrix(0.3103448,0,0,0.137931,-80.349602,81.624025)"
       cx="23.5"
       cy="19.5"
       fx="23.5"
       fy="19.5"
       r="14.5" />
    <radialGradient
       inkscape:collect="always"
       xlink:href="#linearGradient6328"
       id="radialGradient4141"
       gradientUnits="userSpaceOnUse"
       gradientTransform="matrix(2.6249997,2.7443598,-0.4329059,2.1970053,-101.53236,1.3757663)"
       cx="10.450585"
       cy="27.331398"
       fx="10.450585"
       fy="27.331398"
       r="7" />
    <linearGradient
       inkscape:collect="always"
       xlink:href="#linearGradient3570"
       id="linearGradient4144"
       gradientUnits="userSpaceOnUse"
       gradientTransform="matrix(0.92,0,0,0.8888889,-96.556499,67.92479)"
       x1="12"
       y1="14"
       x2="44.565216"
       y2="47.6875" />
    <radialGradient
       inkscape:collect="always"
       xlink:href="#linearGradient3570"
       id="radialGradient4147"
       gradientUnits="userSpaceOnUse"
       gradientTransform="matrix(0.3567181,0.4597701,-0.5655855,0.7289769,-80.29138,70.820088)"
       cx="13.819342"
       cy="8.8798504"
       fx="13.819342"
       fy="8.8798504"
       r="14.5" />
    <linearGradient
       inkscape:collect="always"
       xlink:href="#linearGradient2188"
       id="linearGradient4151"
       gradientUnits="userSpaceOnUse"
       x1="3"
       y1="27"
       x2="39"
       y2="28"
       gradientTransform="translate(-96.5565,66.313679)" />
    <linearGradient
       inkscape:collect="always"
       xlink:href="#linearGradient12294"
       id="linearGradient4155"
       gradientUnits="userSpaceOnUse"
       gradientTransform="matrix(2.2500001,0,0,1.2726172,-127.5565,57.363753)"
       x1="21"
       y1="37.6782"
       x2="42.230766"
       y2="54.179626" />
    <radialGradient
       inkscape:collect="always"
       xlink:href="#linearGradient5539"
       id="radialGradient4158"
       gradientUnits="userSpaceOnUse"
       gradientTransform="matrix(0.5517241,0,0,0.2413793,-85.522017,102.10678)"
       cx="23.5"
       cy="19.5"
       fx="23.5"
       fy="19.5"
       r="14.5" />
    <linearGradient
       inkscape:collect="always"
       xlink:href="#linearGradient3235"
       id="linearGradient4161"
       gradientUnits="userSpaceOnUse"
       x1="8"
       y1="39"
       x2="38"
       y2="39"
       gradientTransform="translate(-96.5565,66.313679)" />
    <radialGradient
       inkscape:collect="always"
       xlink:href="#linearGradient7106"
       id="radialGradient4164"
       gradientUnits="userSpaceOnUse"
       gradientTransform="matrix(2.9166668,0,0,1.0833331,-143.0565,66.105351)"
       cx="24"
       cy="38.5"
       fx="24"
       fy="38.5"
       r="6" />
    <radialGradient
       inkscape:collect="always"
       xlink:href="#linearGradient14664"
       id="radialGradient4166"
       gradientUnits="userSpaceOnUse"
       gradientTransform="matrix(0.5290677,1.2697623,-1.3124555,0.7874732,23.91948,-1.0068978)"
       cx="3.5"
       cy="16.969122"
       fx="3.5"
       fy="16.969122"
       r="3.0477226" />
    <radialGradient
       inkscape:collect="always"
       xlink:href="#linearGradient14664"
       id="radialGradient4168"
       gradientUnits="userSpaceOnUse"
       gradientTransform="matrix(0.5290677,1.2697623,-1.3124555,0.7874732,23.91948,-1.0068978)"
       cx="3.5"
       cy="16.969122"
       fx="3.5"
       fy="16.969122"
       r="3.0477226" />
    <radialGradient
       inkscape:collect="always"
       xlink:href="#linearGradient14664"
       id="radialGradient4170"
       gradientUnits="userSpaceOnUse"
       gradientTransform="matrix(0.5290677,1.2697623,-1.3124555,0.7874732,23.91948,-1.0068978)"
       cx="3.5"
       cy="16.969122"
       fx="3.5"
       fy="16.969122"
       r="3.0477226" />
    <radialGradient
       inkscape:collect="always"
       xlink:href="#linearGradient14664"
       id="radialGradient4172"
       gradientUnits="userSpaceOnUse"
       gradientTransform="matrix(0.5290677,1.2697623,-1.3124555,0.7874732,23.91948,-1.0068978)"
       cx="3.5"
       cy="16.969122"
       fx="3.5"
       fy="16.969122"
       r="3.0477226" />
    <linearGradient
       inkscape:collect="always"
       xlink:href="#linearGradient3860"
       id="linearGradient3102"
       gradientUnits="userSpaceOnUse"
       gradientTransform="matrix(0,1,-1,0,96,0)"
       x1="88"
       y1="40"
       x2="8"
       y2="40" />
    <linearGradient
       id="linearGradient3860">
      <stop
         id="stop3862"
         style="stop-color:#c3a579;stop-opacity:1"
         offset="0" />
      <stop
         id="stop3864"
         style="stop-color:#d3bd9d;stop-opacity:1"
         offset="1" />
    </linearGradient>
    <linearGradient
       inkscape:collect="always"
       xlink:href="#linearGradient3187"
       id="linearGradient3099"
       gradientUnits="userSpaceOnUse"
       x1="48"
       y1="90"
       x2="48"
       y2="5.9877172" />
    <linearGradient
       id="linearGradient3187">
      <stop
         id="stop3189"
         style="stop-color:#693222;stop-opacity:1"
         offset="0" />
      <stop
         id="stop3191"
         style="stop-color:#b8755d;stop-opacity:1"
         offset="1" />
    </linearGradient>
    <linearGradient
       inkscape:collect="always"
       xlink:href="#linearGradient3860"
       id="linearGradient3150"
       gradientUnits="userSpaceOnUse"
       x1="36.113972"
       y1="50.50322"
       x2="29.663288"
       y2="14.112808" />
    <linearGradient
       id="linearGradient3246">
      <stop
         id="stop3248"
         style="stop-color:#c3a579;stop-opacity:1"
         offset="0" />
      <stop
         id="stop3250"
         style="stop-color:#d3bd9d;stop-opacity:1"
         offset="1" />
    </linearGradient>
    <linearGradient
       inkscape:collect="always"
       xlink:href="#linearGradient3187"
       id="linearGradient3147"
       gradientUnits="userSpaceOnUse"
       x1="29.96142"
       y1="83.46048"
       x2="21.524334"
       y2="41.247604" />
    <linearGradient
       id="linearGradient3253">
      <stop
         id="stop3255"
         style="stop-color:#693222;stop-opacity:1"
         offset="0" />
      <stop
         id="stop3257"
         style="stop-color:#b8755d;stop-opacity:1"
         offset="1" />
    </linearGradient>
    <linearGradient
       inkscape:collect="always"
       xlink:href="#linearGradient3860"
       id="linearGradient3144"
       gradientUnits="userSpaceOnUse"
       x1="75.043564"
       y1="83.969864"
       x2="64.415344"
       y2="34.66048" />
    <linearGradient
       id="linearGradient3260">
      <stop
         id="stop3262"
         style="stop-color:#c3a579;stop-opacity:1"
         offset="0" />
      <stop
         id="stop3264"
         style="stop-color:#d3bd9d;stop-opacity:1"
         offset="1" />
    </linearGradient>
    <linearGradient
       inkscape:collect="always"
       xlink:href="#linearGradient3187"
       id="linearGradient3141"
       gradientUnits="userSpaceOnUse"
       x1="74.805756"
       y1="47.724316"
       x2="65.708496"
       y2="14.245137" />
    <linearGradient
       id="linearGradient3267">
      <stop
         id="stop3269"
         style="stop-color:#693222;stop-opacity:1"
         offset="0" />
      <stop
         id="stop3271"
         style="stop-color:#b8755d;stop-opacity:1"
         offset="1" />
    </linearGradient>
  </defs>
  <g
     transform="matrix(0.47619048,0,0,0.47619048,1.1428571,1.1428568)"
     id="g3160">
    <path
       d="M 90,12 C 90,8.676 87.324,6 84,6 l -36,0 0,42 42,0 0,-36 z M 48,48 6,48 6,84 c 0,3.324 2.676,6 6,6 l 36,0 0,-42 z"
       inkscape:connector-curvature="0"
       id="path3856"
       style="fill:url(#linearGradient3102);fill-opacity:1;fill-rule:nonzero;stroke:none" />
    <path
       d="M 12,6 C 8.676,6 6,8.676 6,12 L 6,48 48,48 48,6 12,6 z m 36,42 0,42 36,0 c 3.324,0 6,-2.676 6,-6 l 0,-36 -42,0 z"
       inkscape:connector-curvature="0"
       id="rect2419"
       style="fill:url(#linearGradient3099);fill-opacity:1;fill-rule:nonzero;stroke:none" />
    <path
       d="M 34.59375,11.9375 C 33.594376,11.91397 32.553544,11.9767 31.5,12.40625 a 0.94060158,0.94060158 0 0 0 -0.46875,0.40625 c -0.05083,0.09239 -0.01758,0.05475 -0.0625,0.125 -0.238856,-0.271791 -0.353293,-0.511642 -1,-0.78125 a 0.94060158,0.94060158 0 0 0 -0.3125,-0.0625 c -1.76129,-0.116323 -3.699164,-0.26162 -5.59375,0.0625 A 0.94060158,0.94060158 0 0 0 23.625,12.375 c -0.298527,0.240436 -0.455401,0.425258 -0.625,0.59375 -0.101513,-0.117025 -0.14921,-0.172325 -0.3125,-0.375 A 0.94060158,0.94060158 0 0 0 22.25,12.28125 C 21.264967,11.957895 20.282135,11.946647 19.34375,11.96875 18.405363,11.990854 17.50386,12.057951 16.75,12 a 0.94060158,0.94060158 0 0 0 -0.1875,0 c -0.674631,0.09177 -1.278149,0.382943 -1.6875,0.8125 -0.409351,0.429557 -0.623955,0.964658 -0.75,1.46875 -0.25209,1.008185 -0.163399,2.040101 -0.125,2.78125 a 0.94060158,0.94060158 0 0 0 0,0.03125 c 0.0798,0.711048 4e-4,1.586386 -0.03125,2.53125 -0.03165,0.944864 -0.01083,2.017946 0.5,3.03125 a 0.94060158,0.94060158 0 0 0 0.28125,0.3125 c 0.921753,0.659665 1.870571,1.337462 2.5,2.0625 0.629429,0.725038 0.971204,1.42665 0.875,2.46875 -0.14396,1.324253 -0.199275,2.868163 -0.5,4.15625 -0.294032,1.25942 -0.754033,2.161218 -1.65625,2.625 -0.02054,0.01056 -0.04151,0.02116 -0.0625,0.03125 -1.637771,0.648982 -2.522818,2.084552 -2.8125,3.53125 -0.293833,1.467426 -0.08289,2.992289 0.21875,4.25 a 0.94060158,0.94060158 0 0 0 0.125,0.28125 c 1.365859,2.133986 3.61458,2.805248 5.78125,3 2.16667,0.194752 4.374884,0.03125 6.03125,0.34375 a 0.94060158,0.94060158 0 0 0 0.1875,0 c 4.219206,0.03886 8.564088,-0.14623 12.75,-1.125 a 0.94060158,0.94060158 0 0 0 0.1875,-0.0625 c 1.614859,-0.756944 2.388009,-2.296363 2.59375,-3.8125 0.205741,-1.516137 -0.07623,-3.061241 -0.53125,-4.3125 A 0.94060158,0.94060158 0 0 0 40.09375,35.9375 C 38.942221,35.158624 37.921193,34.376706 37.21875,33.46875 36.516307,32.560794 36.095932,31.538113 36.0625,30.125 a 0.94060158,0.94060158 0 0 0 -0.03125,-0.1875 c -0.313153,-1.227118 -0.277238,-2.647084 0.125,-3.8125 0.402238,-1.165416 1.101156,-2.082931 2.3125,-2.53125 a 0.94060158,0.94060158 0 0 0 0.25,-0.125 C 39.80865,22.669029 40.063432,21.397239 40.0625,20.375 40.061568,19.352761 39.912197,18.408896 40,17.8125 a 0.94060158,0.94060158 0 0 0 0,-0.15625 C 39.970045,16.96508 40.12559,15.851892 39.96875,14.75 39.89033,14.199054 39.72817,13.636013 39.34375,13.125 38.95933,12.613987 38.354236,12.228103 37.625,12.0625 a 0.94060158,0.94060158 0 0 0 -0.28125,-0.03125 c -0.814369,0.04525 -1.750626,-0.07022 -2.75,-0.09375 z M 69,50 c -0.92474,-0.0763 -1.758415,0.222124 -2.34375,0.625 -0.612969,0.421896 -1.040285,0.919369 -1.375,1.25 -0.334715,0.330631 -0.502025,0.407083 -0.46875,0.40625 0.03328,-8.33e-4 -0.164037,0.0092 -0.65625,-0.625 a 0.94060158,0.94060158 0 0 0 -0.28125,-0.25 c -1.047141,-0.613978 -2.16954,-0.687433 -3.09375,-0.375 -0.92421,0.312433 -1.649531,0.946891 -2.21875,1.625 -0.569219,0.678109 -0.979771,1.419952 -1.28125,2.0625 -0.101084,0.215443 -0.113798,0.355902 -0.1875,0.53125 -1.190962,-0.333369 -2.360509,-0.293428 -3.28125,0.21875 -1.190686,0.662339 -2.006734,1.796966 -2.40625,3.0625 -0.399516,1.265534 -0.407002,2.677709 0.1875,3.90625 0.506563,1.046815 1.58202,1.816042 2.9375,2.1875 1.229874,3.062614 1.91013,6.39529 2.78125,9.71875 a 0.94060158,0.94060158 0 0 0 0.4375,0.5625 c 0.474411,0.278554 0.615841,0.513139 0.65625,0.625 0.04041,0.111861 0.04655,0.169289 -0.0625,0.375 -0.21809,0.411423 -1.027732,1.071735 -1.9375,1.46875 a 0.94060158,0.94060158 0 0 0 -0.4375,0.375 c -0.749677,1.210157 -1.115743,2.758677 -1.03125,4.28125 0.08449,1.522573 0.6498,3.082583 1.9375,4.09375 a 0.94060158,0.94060158 0 0 0 0.25,0.125 c 3.853965,1.556936 8.056859,1.259346 11.8125,1.5 a 0.94060158,0.94060158 0 0 0 0.125,0 c 3.755638,-0.240645 7.958543,0.05688 11.8125,-1.5 a 0.94060158,0.94060158 0 0 0 0.25,-0.125 c 1.287729,-1.010733 1.852757,-2.571114 1.9375,-4.09375 0.08474,-1.522636 -0.280546,-3.070465 -1.03125,-4.28125 a 0.94060158,0.94060158 0 0 0 -0.4375,-0.375 c -0.909768,-0.397015 -1.71941,-1.057328 -1.9375,-1.46875 -0.109045,-0.205711 -0.102909,-0.263139 -0.0625,-0.375 0.04041,-0.111861 0.181839,-0.346446 0.65625,-0.625 a 0.94060158,0.94060158 0 0 0 0.4375,-0.5625 c 0.87112,-3.32346 1.551376,-6.656136 2.78125,-9.71875 1.35548,-0.371458 2.430937,-1.140685 2.9375,-2.1875 0.594502,-1.228541 0.587016,-2.640716 0.1875,-3.90625 -0.399516,-1.265534 -1.215564,-2.400161 -2.40625,-3.0625 -0.945643,-0.52603 -2.149988,-0.557085 -3.375,-0.1875 -0.125053,-0.402296 -0.286538,-0.938666 -0.53125,-1.53125 -0.259631,-0.628712 -0.615282,-1.301412 -1.1875,-1.84375 -0.492676,-0.466949 -1.203309,-0.758971 -2,-0.78125 -0.03543,-0.01093 -0.05862,0.0097 -0.09375,0 -0.09761,4.27e-4 -0.181425,-0.04166 -0.28125,-0.03125 l 0,0.03125 c -1.598906,-0.289548 -2.916315,0.547515 -3.59375,0.90625 -0.367701,0.194716 -0.466431,0.177279 -0.4375,0.1875 0.02893,0.01022 -0.189083,-0.107449 -0.5,-0.875 A 0.94060158,0.94060158 0 0 0 71.875,50.9375 c -0.798135,-0.585919 -1.764603,-0.883522 -2.75,-0.90625 L 69.125,50 c -0.02209,-0.0027 -0.04054,0.0022 -0.0625,0 -0.02101,-1.92e-4 -0.04147,-8.1e-5 -0.0625,0 z"
       id="path4063"
       style="opacity:0.05;fill:#3b1d13;fill-opacity:1;stroke:none"
       inkscape:connector-curvature="0" />
    <path
       d="m 17,14 0,2 0,4 c 8,4 2,15 2,15 -1,1 -3,1 -3,2.5 l 0,2 c 0,0.831 0.67502,1.402943 1.5,1.5 8.5,1 10.5,1 19,0 0.824852,-0.09704 1.5,-0.669 1.5,-1.5 l 0,-2 C 38,36 36,36 35,35 35,35 29,24 37,20 l 0,-4 0,-2 -4,0 0,2 -4,0 0,-2 -4,0 0,2 -4,0 0,-2 -4,0 z m 0,23 c 10.632919,1.935445 20,0 20,0 0,0 -2.857468,1.513755 -9.46875,1.53125 C 20.919968,38.548745 17,37 17,37 z"
       inkscape:connector-curvature="0"
       id="path3809"
       style="fill:url(#linearGradient3150);fill-opacity:1;stroke:none" />
    <path
       d="m 25,53 0,2 -2,0 0,3 2,0 0,2 c -1.108,0 -2,0.529514 -2,1.1875 l 0,0.625 c 0,0.264839 0.161311,0.490399 0.40625,0.6875 C 20.322702,63.092725 16.20146,64.350007 15,67 c -1.985282,4.378825 2.216846,6.433693 4,10 -1,1 -3,1 -3,2.5 l 0,2 c 0,0.831 0.67502,1.402943 1.5,1.5 8.5,1 10.5,1 19,0 0.824852,-0.09704 1.5,-0.669 1.5,-1.5 l 0,-2 C 38,78 36,78 35,77 36.783154,73.433693 40.985282,71.378825 39,67 37.79854,64.350007 33.677298,63.092725 30.59375,62.5 30.838689,62.302899 31,62.077339 31,61.8125 l 0,-0.625 C 31,60.529514 30.108,60 29,60 l 0,-2 2,0 0,-3 -2,0 0,-2 -4,0 z m -8,26 c 10.632919,1.935445 20,0 20,0 0,0 -2.857468,1.513755 -9.46875,1.53125 C 20.919968,80.548745 17,79 17,79 z"
       inkscape:connector-curvature="0"
       id="path3763"
       style="color:#000000;fill:url(#linearGradient3147);fill-opacity:1;fill-rule:nonzero;stroke:none;stroke-width:1;marker:none;visibility:visible;display:inline;overflow:visible;enable-background:accumulate" />
    <path
       d="m 69,52 c -1.104569,0 -2,0.895431 -2,2 0,0.966498 0.682384,1.782257 1.59375,1.96875 L 67,68 62.71875,56.875 C 63.47012,56.587226 64,55.85259 64,55 c 0,-1.104569 -0.895431,-2 -2,-2 -1.104569,0 -2,0.895431 -2,2 0,1.104569 0.895431,2 2,2 0.05279,0 0.104488,0.004 0.15625,0 L 63,69 C 63,69 60.71767,64.834175 57.28125,60.53125 57.720465,60.164377 58,59.617035 58,59 c 0,-1.104569 -0.895431,-2 -2,-2 -1.104569,0 -2,0.895431 -2,2 0,1.104569 0.895431,2 2,2 0.291093,0 0.563018,-0.07568 0.8125,-0.1875 C 59.470637,67.087508 60,72 60,72 c 3.003206,1.501603 1,5 1,5 -1,1 -3,1 -3,2.5 l 0,2 c 0,0.831 0.67502,1.402943 1.5,1.5 8.5,1 10.5,1 19,0 0.824852,-0.09704 1.5,-0.669 1.5,-1.5 l 0,-2 C 80,78 78,78 77,77 c 0,0 -2.003206,-3.498397 1,-5 0,0 0.529363,-4.912492 3.1875,-11.1875 C 81.436982,60.924316 81.708907,61 82,61 c 1.104569,0 2,-0.895431 2,-2 0,-1.104569 -0.895431,-2 -2,-2 -1.104569,0 -2,0.895431 -2,2 0,0.617035 0.279535,1.164377 0.71875,1.53125 C 77.28233,64.834175 75,69 75,69 l 0.84375,-12 c 0.05176,0.004 0.103458,0 0.15625,0 1.104569,0 2,-0.895431 2,-2 0,-1.104569 -0.895431,-2 -2,-2 -1.104569,0 -2,0.895431 -2,2 0,0.85259 0.52988,1.587226 1.28125,1.875 L 71,68 69.40625,55.96875 C 70.317616,55.782257 71,54.966498 71,54 71,52.895431 70.104569,52 69,52 z M 59,79 c 10.632919,1.935445 20,0 20,0 0,0 -2.857468,1.513755 -9.46875,1.53125 C 62.919968,80.548745 59,79 59,79 z"
       inkscape:connector-curvature="0"
       id="path3775"
       style="color:#000000;fill:url(#linearGradient3144);fill-opacity:1;fill-rule:nonzero;stroke:none;stroke-width:1;marker:none;visibility:visible;display:inline;overflow:visible;enable-background:accumulate" />
    <path
       d="m 69,14 c -2.761424,0 -5,2.238576 -5,5 0,1.13739 0.391592,2.1599 1.03125,3 L 64.1875,22 C 63.5227,22 63,22.446 63,23 c 0,0.554 0.5227,1 1.1875,1 L 65,24 c 4,8 -4,11 -4,11 -1,1 -3,1 -3,2.5 l 0,2 c 0,0.831 0.67502,1.402943 1.5,1.5 8.5,1 10.5,1 19,0 0.824852,-0.09704 1.5,-0.669 1.5,-1.5 l 0,-2 C 80,36 78,36 77,35 77,35 69,32 73,24 l 0.8125,0 C 74.4773,24 75,23.554 75,23 75,22.446 74.4773,22 73.8125,22 l -0.84375,0 C 73.608408,21.1599 74,20.13739 74,19 74,16.238576 71.761424,14 69,14 z M 59,37 c 10.632919,1.935445 20,0 20,0 0,0 -2.857468,1.513755 -9.46875,1.53125 C 62.919968,38.548745 59,37 59,37 z"
       inkscape:connector-curvature="0"
       id="path3813"
       style="color:#000000;fill:url(#linearGradient3141);fill-opacity:1;fill-rule:nonzero;stroke:none;stroke-width:1;marker:none;visibility:visible;display:inline;overflow:visible;enable-background:accumulate" />
    <path
       d="m 69,14 c -2.761424,0 -5,2.238576 -5,5 0,1.13739 0.391592,2.1599 1.03125,3 L 64.1875,22 C 63.5227,22 63,22.446 63,23 c 0,0.554 0.5227,1 1.1875,1 L 65,24 c 4,8 -4,11 -4,11 -1,1 -3,1 -3,2.5 l 0,2 c 0,0.831 0.67502,1.402943 1.5,1.5 8.5,1 10.5,1 19,0 0.824852,-0.09704 1.5,-0.669 1.5,-1.5 l 0,-2 C 80,36 78,36 77,35 77,35 69,32 73,24 l 0.8125,0 C 74.4773,24 75,23.554 75,23 75,22.446 74.4773,22 73.8125,22 l -0.84375,0 C 73.608408,21.1599 74,20.13739 74,19 74,16.238576 71.761424,14 69,14 z m 0,1 c 2.217776,0 4,1.782224 4,4 0,0.906501 -0.322545,1.690471 -0.84375,2.375 a 1.0060366,1.0060366 0 0 0 0.625,1.625 1.0060366,1.0060366 0 0 0 -0.6875,0.5625 c -2.142458,4.284917 -1.038863,7.616119 0.65625,9.59375 1.695113,1.977631 3.90625,2.78125 3.90625,2.78125 0.16867,0.12773 0.300222,0.186707 0.46875,0.28125 -1.953185,0.337006 -8.009398,1.152029 -16.21875,-0.03125 0.155703,-0.08919 0.282009,-0.13225 0.4375,-0.25 0,0 2.211137,-0.803619 3.90625,-2.78125 1.695113,-1.977631 2.798708,-5.308833 0.65625,-9.59375 A 1.0060366,1.0060366 0 0 0 65.1875,23 1.0060366,1.0060366 0 0 0 65.84375,21.375 C 65.322545,20.690471 65,19.906501 65,19 c 0,-2.217776 1.782224,-4 4,-4 z M 59,37 c 10.632919,1.935445 20,0 20,0 0,0 -2.857468,1.513755 -9.46875,1.53125 C 62.919968,38.548745 59,37 59,37 z m 0,1.03125 c 0.489705,0.181599 4.195207,1.516767 10.53125,1.5 C 72.913282,39.5223 75.378791,39.150495 77,38.75 c 1.315429,-0.324957 1.738736,-0.596368 2,-0.71875 L 79,39.5 c 0,0.28615 -0.192416,0.449109 -0.625,0.5 -8.481815,0.997861 -10.268185,0.997861 -18.75,0 C 59.192224,39.949085 59,39.786253 59,39.5 l 0,-1.46875 z"
       inkscape:connector-curvature="0"
       id="path4069"
       style="opacity:0.5;color:#000000;fill:#6e3728;fill-opacity:1;fill-rule:nonzero;stroke:none;stroke-width:1;marker:none;visibility:visible;display:inline;overflow:visible;enable-background:accumulate" />
    <path
       d="m 25,53 0,2 -2,0 0,3 2,0 0,2 c -1.108,0 -2,0.529514 -2,1.1875 l 0,0.625 c 0,0.264839 0.161311,0.490399 0.40625,0.6875 C 20.322702,63.092725 16.20146,64.350007 15,67 c -1.985282,4.378825 2.216846,6.433693 4,10 -1,1 -3,1 -3,2.5 l 0,2 c 0,0.831 0.67502,1.402943 1.5,1.5 8.5,1 10.5,1 19,0 0.824852,-0.09704 1.5,-0.669 1.5,-1.5 l 0,-2 C 38,78 36,78 35,77 36.783154,73.433693 40.985282,71.378825 39,67 37.79854,64.350007 33.677298,63.092725 30.59375,62.5 30.838689,62.302899 31,62.077339 31,61.8125 l 0,-0.625 C 31,60.529514 30.108,60 29,60 l 0,-2 2,0 0,-3 -2,0 0,-2 -4,0 z m 0.9375,0.9375 2.125,0 0,1.0625 A 0.93859574,0.93859574 0 0 0 29,55.9375 l 1.0625,0 0,1.125 -1.0625,0 A 0.93859574,0.93859574 0 0 0 28.0625,58 l 0,2 A 0.93859574,0.93859574 0 0 0 29,60.9375 c 0.404496,0 0.756983,0.111575 0.9375,0.21875 0.09026,0.05359 0.116315,0.08745 0.125,0.09375 l 0,0.5 C 30.05219,61.7595 30.03978,61.749241 30,61.78125 a 0.93859574,0.93859574 0 0 0 0.40625,1.625 c 1.497089,0.287773 3.262301,0.768157 4.71875,1.4375 1.456449,0.669343 2.574112,1.522966 3.03125,2.53125 0.867016,1.912328 0.407775,3.026143 -0.53125,4.40625 -0.939025,1.380107 -2.47754,2.830081 -3.46875,4.8125 a 0.93859574,0.93859574 0 0 0 0.1875,1.0625 c 0.348089,0.348089 0.670051,0.410377 1.03125,0.59375 -1.755422,0.311456 -8.181105,1.230021 -16.6875,-0.03125 0.342045,-0.178853 0.641055,-0.234805 0.96875,-0.5625 a 0.93859574,0.93859574 0 0 0 0.1875,-1.0625 C 18.85254,74.611331 17.314025,73.161357 16.375,71.78125 15.435975,70.401143 14.976734,69.287328 15.84375,67.375 c 0.457138,-1.008284 1.574801,-1.861907 3.03125,-2.53125 1.456449,-0.669343 3.221661,-1.149727 4.71875,-1.4375 A 0.93859574,0.93859574 0 0 0 24,61.78125 C 23.96022,61.74924 23.94781,61.75946 23.9375,61.75 l 0,-0.5 c 0.0087,-0.0063 0.03474,-0.04016 0.125,-0.09375 C 24.243017,61.049075 24.595504,60.9375 25,60.9375 A 0.93859574,0.93859574 0 0 0 25.9375,60 l 0,-2 A 0.93859574,0.93859574 0 0 0 25,57.0625 l -1.0625,0 0,-1.125 1.0625,0 A 0.93859574,0.93859574 0 0 0 25.9375,55 l 0,-1.0625 z M 17,79 c 10.632919,1.935445 20,0 20,0 0,0 -2.857468,1.513755 -9.46875,1.53125 C 20.919968,80.548745 17,79 17,79 z m -0.0625,0.96875 c 0.381022,0.143241 4.16652,1.517008 10.59375,1.5 3.376911,-0.0089 5.821683,-0.413337 7.4375,-0.8125 1.370069,-0.338455 1.875388,-0.583077 2.09375,-0.6875 l 0,1.53125 c 0,0.322675 -0.22862,0.508515 -0.6875,0.5625 -8.483034,0.998004 -10.266966,0.998004 -18.75,0 C 17.165932,82.00849 16.9375,81.822771 16.9375,81.5 l 0,-1.53125 z"
       inkscape:connector-curvature="0"
       id="path4076"
       style="opacity:0.5;color:#000000;fill:#6e3728;fill-opacity:1;fill-rule:nonzero;stroke:none;stroke-width:1;marker:none;visibility:visible;display:inline;overflow:visible;enable-background:accumulate" />
  </g>
</svg>
