<?xml version="1.0" encoding="UTF-8" standalone="no"?>
<!-- Created with Inkscape (http://www.inkscape.org/) -->

<svg
   xmlns:dc="http://purl.org/dc/elements/1.1/"
   xmlns:cc="http://creativecommons.org/ns#"
   xmlns:rdf="http://www.w3.org/1999/02/22-rdf-syntax-ns#"
   xmlns:svg="http://www.w3.org/2000/svg"
   xmlns="http://www.w3.org/2000/svg"
   xmlns:xlink="http://www.w3.org/1999/xlink"
   xmlns:sodipodi="http://sodipodi.sourceforge.net/DTD/sodipodi-0.dtd"
   xmlns:inkscape="http://www.inkscape.org/namespaces/inkscape"
   width="48"
   height="48"
   id="svg2"
   version="1.1"
   inkscape:version="0.48.5 r10040"
   sodipodi:docname="gnome-power-statistics.svg">
  <defs
     id="defs4">
    <linearGradient
       inkscape:collect="always"
       xlink:href="#linearGradient5419"
       id="linearGradient3611"
       gradientUnits="userSpaceOnUse"
       gradientTransform="matrix(4.4840155,0,0,2.8224778,11.300509,59.895216)"
       x1="37.330002"
       y1="24.135"
       x2="41.688999"
       y2="24.135" />
    <linearGradient
       x1="37.330002"
       y1="24.135"
       gradientTransform="translate(0,-2)"
       x2="41.688999"
       gradientUnits="userSpaceOnUse"
       y2="24.135"
       id="linearGradient5419">
      <stop
         offset="0"
         style="stop-color:#204a87"
         id="stop5415" />
      <stop
         offset="1"
         style="stop-color:#204a87;stop-opacity:0"
         id="stop5417" />
    </linearGradient>
    <linearGradient
       inkscape:collect="always"
       xlink:href="#linearGradient5427"
       id="linearGradient3608"
       gradientUnits="userSpaceOnUse"
       gradientTransform="matrix(4.6153356,0,0,2.8458827,10.062543,59.330339)"
       x1="37.330002"
       y1="33.945999"
       x2="40.627998"
       y2="33.945999" />
    <linearGradient
       x1="37.330002"
       y1="33.945999"
       gradientTransform="translate(0,-2)"
       x2="40.627998"
       gradientUnits="userSpaceOnUse"
       y2="33.945999"
       id="linearGradient5427">
      <stop
         offset="0"
         style="stop-color:#c00"
         id="stop5423" />
      <stop
         offset="1"
         style="stop-color:#c00;stop-opacity:0"
         id="stop5425" />
    </linearGradient>
  </defs>
  <sodipodi:namedview
     id="base"
     pagecolor="#ffffff"
     bordercolor="#666666"
     borderopacity="1.0"
     inkscape:pageopacity="0.0"
     inkscape:pageshadow="2"
     inkscape:zoom="9.1693518"
     inkscape:cx="24.971807"
     inkscape:cy="23.206097"
     inkscape:document-units="px"
     inkscape:current-layer="layer1"
     showgrid="false"
     fit-margin-top="0"
     fit-margin-left="0"
     fit-margin-right="0"
     fit-margin-bottom="0"
     inkscape:window-width="1920"
     inkscape:window-height="1035"
     inkscape:window-x="-4"
     inkscape:window-y="29"
     inkscape:window-maximized="1"
     inkscape:showpageshadow="false"
     borderlayer="true">
    <sodipodi:guide
       position="8.9999928,39"
       orientation="30,0"
       id="guide3274" />
    <sodipodi:guide
       position="8.9999928,9"
       orientation="0,30"
       id="guide3276" />
    <sodipodi:guide
       position="38.999993,9"
       orientation="-30,0"
       id="guide3278" />
    <sodipodi:guide
       position="38.999993,39"
       orientation="0,-30"
       id="guide3280" />
    <sodipodi:guide
       position="21.999993,4"
       orientation="4,0"
       id="guide3298" />
    <sodipodi:guide
       position="21.999993,0"
       orientation="0,4"
       id="guide3300" />
    <sodipodi:guide
       position="25.999993,0"
       orientation="-4,0"
       id="guide3302" />
    <sodipodi:guide
       position="25.999993,4"
       orientation="0,-4"
       id="guide3304" />
    <sodipodi:guide
       position="21.999993,48"
       orientation="4,0"
       id="guide3306" />
    <sodipodi:guide
       position="21.999993,44"
       orientation="0,4"
       id="guide3308" />
    <sodipodi:guide
       position="25.999993,44"
       orientation="-4,0"
       id="guide3310" />
    <sodipodi:guide
       position="25.999993,48"
       orientation="0,-4"
       id="guide3312" />
    <sodipodi:guide
       position="3.9999928,26"
       orientation="0,-4"
       id="guide3314" />
    <sodipodi:guide
       position="-7.2167969e-06,26"
       orientation="4,0"
       id="guide3316" />
    <sodipodi:guide
       position="-7.2167969e-06,22"
       orientation="0,4"
       id="guide3318" />
    <sodipodi:guide
       position="3.9999928,22"
       orientation="-4,0"
       id="guide3320" />
    <sodipodi:guide
       position="47.999993,26"
       orientation="0,-4"
       id="guide3322" />
    <sodipodi:guide
       position="43.999993,26"
       orientation="4,0"
       id="guide3324" />
    <sodipodi:guide
       position="43.999993,22"
       orientation="0,4"
       id="guide3326" />
    <sodipodi:guide
       position="47.999993,22"
       orientation="-4,0"
       id="guide3328" />
  </sodipodi:namedview>
  <metadata
     id="metadata7">
    <rdf:RDF>
      <cc:Work
         rdf:about="">
        <dc:format>image/svg+xml</dc:format>
        <dc:type
           rdf:resource="http://purl.org/dc/dcmitype/StillImage" />
        <dc:title />
      </cc:Work>
    </rdf:RDF>
  </metadata>
  <g
     inkscape:label="Capa 1"
     inkscape:groupmode="layer"
     id="layer1"
     transform="translate(-180.23661,-689.8125)">
    <g
       transform="matrix(1.3333336,0,0,1.333314,178.90327,-672.9835)"
       id="g3029">
      <g
         transform="matrix(0.13929277,0,0,0.12927272,0.7408,1022.9429)"
         id="g3616"
         style="display:inline">
        <path
           inkscape:connector-curvature="0"
           id="path5409"
           style="fill:none;stroke:url(#linearGradient3611);stroke-width:3.55753207px"
           d="m 41.421884,170.92585 32.502387,-33.11049 27.056549,15.22163 35.69725,-34.32416 36.47298,12.35681 22.84157,-45.964052" />
        <path
           inkscape:connector-curvature="0"
           id="path5411"
           style="fill:none;stroke:url(#linearGradient3608);stroke-width:3.62418318px"
           d="m 41.066059,171.28167 33.398875,-12.87477 27.327406,9.48817 36.68269,-26.44394 37.21345,8.69986 24.47511,-9.55647" />
        <path
           inkscape:connector-curvature="0"
           id="path5429"
           style="color:#000000;fill:#204a87"
           d="m 79.526917,137.82449 a 5.6026537,5.6919077 0 0 1 -11.205292,0 5.6026537,5.6919077 0 1 1 11.205292,0 z" />
        <path
           inkscape:connector-curvature="0"
           id="path5431"
           style="color:#000000;fill:#204a87"
           d="m 106.58347,153.04579 a 5.6026537,5.6919077 0 0 1 -11.205297,0 5.6026537,5.6919077 0 1 1 11.205297,0 z" />
        <path
           inkscape:connector-curvature="0"
           id="path5433"
           style="color:#000000;fill:#204a87"
           d="m 142.20675,118.79861 a 5.6026537,5.6919077 0 0 1 -11.20529,0 5.6026537,5.6919077 0 1 1 11.20529,0 z" />
        <path
           inkscape:connector-curvature="0"
           id="path5435"
           style="color:#000000;fill:#204a87"
           d="m 178.75369,131.07967 a 5.6026537,5.6919077 0 0 1 -11.20529,0 5.6026537,5.6919077 0 1 1 11.20529,0 z" />
        <path
           inkscape:connector-curvature="0"
           id="path5437"
           style="color:#000000;fill:#cc0000"
           d="m 78.776061,158.93897 a 5.6026537,5.6919077 0 0 1 -11.205293,0 5.6026537,5.6919077 0 1 1 11.205293,0 z" />
        <path
           inkscape:connector-curvature="0"
           id="path5439"
           style="color:#000000;fill:#cc0000"
           d="m 107.39499,167.90387 a 5.6026537,5.6919077 0 0 1 -11.205297,0 5.6026537,5.6919077 0 1 1 11.205297,0 z" />
        <path
           inkscape:connector-curvature="0"
           id="path5441"
           style="color:#000000;fill:#cc0000"
           d="m 144.07768,141.46057 a 5.6026537,5.6919077 0 0 1 -11.2053,0 5.6026537,5.6919077 0 1 1 11.2053,0 z" />
        <path
           inkscape:connector-curvature="0"
           id="path5443"
           style="color:#000000;fill:#cc0000"
           d="m 181.29112,150.16102 a 5.6026537,5.6919077 0 0 1 -11.20529,0 5.6026537,5.6919077 0 1 1 11.20529,0 z" />
      </g>
      <path
         d="M 6.14286,1031.2192 C 4.95452,1031.2192 4,1032.1738 4,1033.3621 l 0,12.8572 c 0,1.1884 0.95452,2.1429 2.14286,2.1429 l 23.571427,0 c 1.188332,0 2.142855,-0.9545 2.142855,-2.1429 l 0,-3.5714 1.428572,0 c 0.395714,0 0.714286,-0.3186 0.714286,-0.7143 l 0,-4.2858 c 0,-0.3957 -0.318572,-0.7143 -0.714286,-0.7143 l -1.428572,0 0,-3.5714 c 0,-1.1883 -0.954523,-2.1429 -2.142855,-2.1429 l -23.571427,0 z m 1.42857,2.1429 20.714284,0 c 0.791429,0 1.428573,0.6371 1.428573,1.4286 l 0,10.0001 c 0,0.7914 -0.637144,1.4285 -1.428573,1.4285 l -20.714284,0 c -0.79143,0 -1.42857,-0.6371 -1.42857,-1.4285 l 0,-10.0001 c 0,-0.7915 0.63714,-1.4286 1.42857,-1.4286 z"
         inkscape:connector-curvature="0"
         id="rect2975"
         style="fill:#204a87;fill-opacity:1;stroke:none;display:inline" />
    </g>
  </g>
</svg>
