<?xml version="1.0" encoding="UTF-8" standalone="no"?>
<!-- Created with Inkscape (http://www.inkscape.org/) -->

<svg
   xmlns:dc="http://purl.org/dc/elements/1.1/"
   xmlns:cc="http://creativecommons.org/ns#"
   xmlns:rdf="http://www.w3.org/1999/02/22-rdf-syntax-ns#"
   xmlns:svg="http://www.w3.org/2000/svg"
   xmlns="http://www.w3.org/2000/svg"
   xmlns:sodipodi="http://sodipodi.sourceforge.net/DTD/sodipodi-0.dtd"
   xmlns:inkscape="http://www.inkscape.org/namespaces/inkscape"
   width="48"
   height="48"
   id="svg4230"
   version="1.1"
   inkscape:version="0.48.5 r10040"
   sodipodi:docname="gnome-tetravex.svg">
  <defs
     id="defs4232" />
  <sodipodi:namedview
     id="base"
     pagecolor="#ffffff"
     bordercolor="#666666"
     borderopacity="1.0"
     inkscape:pageopacity="0.0"
     inkscape:pageshadow="2"
     inkscape:zoom="7.1252405"
     inkscape:cx="34.562861"
     inkscape:cy="28.250623"
     inkscape:document-units="px"
     inkscape:current-layer="layer1"
     showgrid="false"
     inkscape:showpageshadow="false"
     borderlayer="true"
     inkscape:window-width="1920"
     inkscape:window-height="1035"
     inkscape:window-x="-4"
     inkscape:window-y="29"
     inkscape:window-maximized="1">
    <sodipodi:guide
       position="0,48.000017"
       orientation="48,0"
       id="guide4065" />
    <sodipodi:guide
       position="0,1.7382813e-05"
       orientation="0,48"
       id="guide4067" />
    <sodipodi:guide
       position="48,1.7382813e-05"
       orientation="-48,0"
       id="guide4069" />
    <sodipodi:guide
       position="48,48.000017"
       orientation="0,-48"
       id="guide4071" />
    <sodipodi:guide
       position="3,45.000017"
       orientation="42,0"
       id="guide4073" />
    <sodipodi:guide
       position="3,3.0000174"
       orientation="0,42"
       id="guide4075" />
    <sodipodi:guide
       position="45,3.0000174"
       orientation="-42,0"
       id="guide4077" />
    <sodipodi:guide
       position="45,45.000017"
       orientation="0,-42"
       id="guide4079" />
  </sodipodi:namedview>
  <metadata
     id="metadata4235">
    <rdf:RDF>
      <cc:Work
         rdf:about="">
        <dc:format>image/svg+xml</dc:format>
        <dc:type
           rdf:resource="http://purl.org/dc/dcmitype/StillImage" />
        <dc:title />
      </cc:Work>
    </rdf:RDF>
  </metadata>
  <g
     inkscape:label="Capa 1"
     inkscape:groupmode="layer"
     id="layer1"
     transform="translate(0,-1004.3622)">
    <path
       style="fill:#000000"
       d=""
       id="path906"
       inkscape:connector-curvature="0" />
    <g
       transform="matrix(0.47619048,0,0,0.47619048,1.1428571,1005.5051)"
       id="g3113">
      <path
         d="M 12,6 C 11.39818,6 10.828551,6.1178465 10.28125,6.28125 L 48,44 85.71875,6.28125 C 85.171449,6.1178465 84.60182,6 84,6 L 12,6 z"
         inkscape:connector-curvature="0"
         id="path3831"
         style="fill:#1e90ff;fill-opacity:1;fill-rule:nonzero;stroke:none" />
      <path
         d="M 6.28125,10.28125 C 6.1178465,10.828551 6,11.39818 6,12 l 0,72 c 0,0.60182 0.1178465,1.171449 0.28125,1.71875 L 44,48 6.28125,10.28125 z"
         inkscape:connector-curvature="0"
         id="path3829"
         style="fill:#cd5c5c;fill-opacity:1;fill-rule:nonzero;stroke:none" />
      <path
         d="M 89.71875,10.28125 52,48 89.71875,85.71875 C 89.882154,85.171449 90,84.60182 90,84 l 0,-72 c 0,-0.60182 -0.117846,-1.171449 -0.28125,-1.71875 z"
         inkscape:connector-curvature="0"
         id="path3827"
         style="fill:#9acd32;fill-opacity:1;fill-rule:nonzero;stroke:none" />
      <path
         d="M 48,52 10.28125,89.71875 C 10.828551,89.882154 11.39818,90 12,90 l 72,0 c 0.60182,0 1.171449,-0.117846 1.71875,-0.28125 L 48,52 z"
         inkscape:connector-curvature="0"
         id="rect2419"
         style="fill:#9370db;fill-opacity:1;fill-rule:nonzero;stroke:none" />
      <path
         id="path3878"
         inkscape:connector-curvature="0"
         d="m 14.222656,56.378906 0,-2.285156 c 0.374999,-0.820309 0.83203,-1.55859 1.371094,-2.214844 0.53906,-0.664057 1.101559,-1.269525 1.6875,-1.816406 0.593746,-0.554681 1.179682,-1.066399 1.757812,-1.535156 0.585932,-0.476554 1.109369,-0.933585 1.570313,-1.371094 0.468742,-0.445303 0.847648,-0.890615 1.136719,-1.335938 0.289054,-0.445301 0.433585,-0.917957 0.433593,-1.417968 -8e-6,-0.734363 -0.183602,-1.277331 -0.550781,-1.628907 -0.367195,-0.351548 -0.906257,-0.527329 -1.617187,-0.527343 -0.703131,1.4e-5 -1.242193,0.19142 -1.617188,0.574218 -0.367192,0.375014 -0.605473,0.941419 -0.714844,1.699219 l -3.316406,-0.1875 c 0.07812,-0.648425 0.23828,-1.257799 0.480469,-1.828125 0.242186,-0.570298 0.585935,-1.070297 1.03125,-1.5 0.453122,-0.429671 1.015621,-0.765609 1.6875,-1.007812 0.679683,-0.249984 1.488276,-0.374983 2.425781,-0.375 0.890618,1.7e-5 1.679679,0.105485 2.367188,0.316406 0.68749,0.203141 1.265615,0.503922 1.734375,0.902344 0.468739,0.398452 0.824207,0.886733 1.066406,1.464843 0.242175,0.570327 0.363269,1.22267 0.363281,1.957032 -1.2e-5,0.773449 -0.152355,1.472667 -0.457031,2.097656 -0.304699,0.625009 -0.695323,1.203134 -1.171875,1.734375 -0.476573,0.523445 -1.007822,1.015632 -1.59375,1.476562 -0.578133,0.460944 -1.140633,0.910163 -1.6875,1.347657 -0.546882,0.437505 -1.046881,0.878911 -1.5,1.324218 -0.445318,0.445317 -0.777349,0.921879 -0.996094,1.429688 l 7.664063,0 0,2.707031 -11.554688,0"
         style="font-size:24px;font-style:normal;font-variant:normal;font-weight:bold;font-stretch:normal;text-align:center;line-height:125%;writing-mode:lr-tb;text-anchor:middle;fill:#ffffff;fill-opacity:1;stroke:none;font-family:Liberation Sans;-inkscape-font-specification:Abandoned Bitplane Bold" />
      <path
         id="path3872"
         inkscape:connector-curvature="0"
         d="m 81.970703,50.882812 c -1.3e-5,0.82813 -0.132825,1.593754 -0.398437,2.296875 -0.257825,0.695316 -0.644543,1.300784 -1.160157,1.816407 -0.515635,0.507813 -1.15626,0.90625 -1.921875,1.195312 -0.757821,0.28125 -1.636726,0.421875 -2.636718,0.421875 -0.921881,0 -1.726568,-0.109375 -2.414063,-0.328125 -0.687503,-0.226562 -1.269534,-0.535155 -1.746094,-0.925781 -0.468752,-0.398436 -0.839845,-0.863279 -1.113281,-1.394531 -0.265626,-0.531247 -0.449219,-1.101559 -0.550781,-1.710938 l 3.292969,-0.269531 c 0.0625,0.257817 0.148433,0.507816 0.257812,0.75 0.117183,0.242191 0.277339,0.457034 0.480469,0.644531 0.20312,0.187503 0.45312,0.339847 0.75,0.457031 0.296869,0.109378 0.656244,0.164065 1.078125,0.164063 0.820305,2e-6 1.472648,-0.261716 1.957031,-0.785156 0.492179,-0.523434 0.738272,-1.27734 0.738281,-2.261719 -9e-6,-0.437494 -0.06251,-0.832025 -0.1875,-1.183594 -0.117196,-0.351555 -0.289071,-0.652336 -0.515625,-0.902344 -0.218758,-0.249992 -0.492195,-0.441398 -0.820312,-0.574218 -0.32032,-0.132805 -0.687507,-0.199211 -1.101563,-0.199219 -0.546881,8e-6 -0.996099,0.105477 -1.347656,0.316406 -0.351567,0.203133 -0.648442,0.453133 -0.890625,0.75 l -3.210937,0 0.574218,-9.292969 9.925782,0 0,2.449219 -6.9375,0 -0.269532,4.171875 c 0.328121,-0.289052 0.742183,-0.535146 1.242188,-0.738281 0.499994,-0.210927 1.082024,-0.316395 1.746094,-0.316406 0.812491,1.1e-5 1.539053,0.132823 2.179687,0.398437 0.640615,0.265636 1.183583,0.636729 1.628906,1.113281 0.445301,0.476572 0.785145,1.05079 1.019532,1.722657 0.234362,0.664069 0.351549,1.40235 0.351562,2.214843"
         style="font-size:24px;font-style:normal;font-variant:normal;font-weight:bold;font-stretch:normal;text-align:center;line-height:125%;writing-mode:lr-tb;text-anchor:middle;fill:#ffffff;fill-opacity:1;stroke:none;font-family:Liberation Sans;-inkscape-font-specification:Abandoned Bitplane Bold" />
      <path
         id="path3875"
         inkscape:connector-curvature="0"
         d="m 53.871094,24.976562 c -1.3e-5,0.82813 -0.1172,1.589848 -0.351563,2.285157 -0.234387,0.687502 -0.585949,1.281252 -1.054687,1.78125 -0.460948,0.492188 -1.039073,0.878906 -1.734375,1.160156 -0.695321,0.273437 -1.500008,0.410156 -2.414063,0.410156 -1.945317,0 -3.441409,-0.679687 -4.488281,-2.039062 -1.039064,-1.367185 -1.558595,-3.39062 -1.558594,-6.070313 -10e-7,-2.945301 0.527343,-5.160143 1.582031,-6.644531 1.062497,-1.492171 2.57812,-2.238264 4.546875,-2.238281 0.656243,1.7e-5 1.253898,0.07033 1.792969,0.210937 0.539053,0.132829 1.019522,0.351579 1.441406,0.65625 0.421865,0.304703 0.781239,0.699234 1.078125,1.183594 0.296864,0.476577 0.535145,1.058607 0.714844,1.746094 l -3.105469,0.433593 c -0.156258,-0.578111 -0.410164,-0.992173 -0.761718,-1.242187 -0.351571,-0.257798 -0.761726,-0.386705 -1.230469,-0.386719 -0.882819,1.4e-5 -1.57813,0.44142 -2.085938,1.324219 -0.500004,0.882824 -0.750004,2.222667 -0.75,4.019531 0.351559,-0.585928 0.839839,-1.035146 1.464844,-1.347656 0.624994,-0.31249 1.332025,-0.468739 2.121094,-0.46875 0.726554,1.1e-5 1.382803,0.121104 1.96875,0.363281 0.59374,0.234385 1.097645,0.578135 1.511719,1.03125 0.421863,0.445322 0.746082,0.992196 0.972656,1.640625 0.22655,0.648445 0.339831,1.378913 0.339844,2.191406 m -3.304688,0.09375 c -9e-6,-0.445306 -0.05079,-0.843743 -0.152344,-1.195312 -0.101571,-0.359368 -0.257821,-0.664055 -0.46875,-0.914063 -0.203133,-0.249992 -0.457039,-0.441398 -0.761718,-0.574218 -0.304695,-0.140617 -0.656257,-0.21093 -1.054688,-0.210938 -0.289069,8e-6 -0.578131,0.04688 -0.867187,0.140625 -0.289068,0.09376 -0.546881,0.246102 -0.773438,0.457031 -0.226567,0.203133 -0.410161,0.464851 -0.550781,0.785157 -0.140629,0.320319 -0.210942,0.707037 -0.210938,1.160156 -4e-6,0.468755 0.05859,0.906255 0.175782,1.3125 0.117183,0.406254 0.281245,0.761722 0.492187,1.066406 0.218745,0.296878 0.480464,0.531253 0.785156,0.703125 0.304682,0.164065 0.648432,0.246096 1.03125,0.246094 0.74218,2e-6 1.320305,-0.261716 1.734375,-0.785156 0.414054,-0.531247 0.621085,-1.261715 0.621094,-2.191407"
         style="font-size:24px;font-style:normal;font-variant:normal;font-weight:bold;font-stretch:normal;text-align:center;line-height:125%;writing-mode:lr-tb;text-anchor:middle;fill:#ffffff;fill-opacity:1;stroke:none;font-family:Liberation Sans;-inkscape-font-specification:Abandoned Bitplane Bold" />
      <path
         id="path3869"
         inkscape:connector-curvature="0"
         d="m 53.683594,68.363281 c -0.742199,1.171888 -1.445324,2.308606 -2.109375,3.410156 -0.65626,1.101572 -1.230478,2.210946 -1.722657,3.328125 -0.492195,1.109382 -0.88282,2.253912 -1.171875,3.433594 -0.281257,1.171878 -0.421881,2.414064 -0.421875,3.726563 l -3.433593,0 c -4e-6,-1.304686 0.15234,-2.542966 0.457031,-3.714844 0.312496,-1.179683 0.73437,-2.328119 1.265625,-3.445313 0.531244,-1.117179 1.148431,-2.21874 1.851562,-3.304687 0.703118,-1.093738 1.445305,-2.207019 2.226563,-3.339844 l -8.203125,0 0,-2.707031 11.261719,0 0,2.613281"
         style="font-size:24px;font-style:normal;font-variant:normal;font-weight:bold;font-stretch:normal;text-align:center;line-height:125%;writing-mode:lr-tb;text-anchor:middle;fill:#ffffff;fill-opacity:1;stroke:none;font-family:Liberation Sans;-inkscape-font-specification:Abandoned Bitplane Bold" />
    </g>
  </g>
</svg>
