<?xml version="1.0" encoding="UTF-8" standalone="no"?>
<!-- Created with Inkscape (http://www.inkscape.org/) -->

<svg
   xmlns:dc="http://purl.org/dc/elements/1.1/"
   xmlns:cc="http://creativecommons.org/ns#"
   xmlns:rdf="http://www.w3.org/1999/02/22-rdf-syntax-ns#"
   xmlns:svg="http://www.w3.org/2000/svg"
   xmlns="http://www.w3.org/2000/svg"
   xmlns:sodipodi="http://sodipodi.sourceforge.net/DTD/sodipodi-0.dtd"
   xmlns:inkscape="http://www.inkscape.org/namespaces/inkscape"
   width="48"
   height="48"
   id="svg2"
   version="1.1"
   inkscape:version="0.48.5 r10040"
   sodipodi:docname="google-drive.svg"
   inkscape:export-filename="/home/uri/workspace/NitruxforAndroid/res/drawable-xhdpi/google_search.png"
   inkscape:export-xdpi="180"
   inkscape:export-ydpi="180">
  <defs
     id="defs4" />
  <sodipodi:namedview
     id="base"
     pagecolor="#ffffff"
     bordercolor="#666666"
     borderopacity="1.0"
     inkscape:pageopacity="0.0"
     inkscape:pageshadow="2"
     inkscape:zoom="8.0625001"
     inkscape:cx="15.680007"
     inkscape:cy="24.182887"
     inkscape:document-units="px"
     inkscape:current-layer="layer1"
     showgrid="false"
     inkscape:window-width="1920"
     inkscape:window-height="1025"
     inkscape:window-x="-4"
     inkscape:window-y="39"
     inkscape:window-maximized="1"
     showguides="true">
    <sodipodi:guide
       position="4,44.000017"
       orientation="40,0"
       id="guide4081" />
    <sodipodi:guide
       position="4,4.0000174"
       orientation="0,40"
       id="guide4083" />
    <sodipodi:guide
       position="44,4.0000174"
       orientation="-40,0"
       id="guide4085" />
    <sodipodi:guide
       position="44,44.000017"
       orientation="0,-40"
       id="guide4087" />
    <sodipodi:guide
       position="9,39.000017"
       orientation="30,0"
       id="guide4091" />
    <sodipodi:guide
       position="9,9.0000174"
       orientation="0,30"
       id="guide4093" />
    <sodipodi:guide
       position="39,9.0000174"
       orientation="-30,0"
       id="guide4095" />
    <sodipodi:guide
       position="39,39.000017"
       orientation="0,-30"
       id="guide4097" />
    <sodipodi:guide
       position="15,33.000017"
       orientation="18,0"
       id="guide4101" />
    <sodipodi:guide
       position="15,15.000017"
       orientation="0,18"
       id="guide4103" />
    <sodipodi:guide
       position="33,15.000017"
       orientation="-18,0"
       id="guide4105" />
    <sodipodi:guide
       position="33,33.000017"
       orientation="0,-18"
       id="guide4107" />
  </sodipodi:namedview>
  <metadata
     id="metadata7">
    <rdf:RDF>
      <cc:Work
         rdf:about="">
        <dc:format>image/svg+xml</dc:format>
        <dc:type
           rdf:resource="http://purl.org/dc/dcmitype/StillImage" />
        <dc:title />
      </cc:Work>
    </rdf:RDF>
  </metadata>
  <g
     inkscape:label="Capa 1"
     inkscape:groupmode="layer"
     id="layer1"
     transform="translate(0,-1004.3622)">
    <path
       style="fill:#2269b1;fill-rule:evenodd"
       inkscape:connector-curvature="0"
       id="path6"
       d="m 44,1028.3629 c 0,11.0452 -8.95416,19.9993 -19.99954,19.9993 -11.04539,0 -19.99955,-8.9541 -19.99955,-19.9993 0,-11.0452 8.95416,-19.9993 19.99955,-19.9993 11.04538,0 19.99954,8.9541 19.99954,19.9993" />
    <path
       style="fill:#68af4c;fill-rule:evenodd"
       inkscape:connector-curvature="0"
       id="path8"
       d="M 23.99954,1008.3654 C 12.95416,1008.3654 4,1017.3195 4,1028.3647 c 0,5.2184 1.99977,9.9691 5.27319,13.5293 l 3.70006,-6.0143 v -10e-4 l 0.0228,-0.037 0.0253,0 c 4.65934,-7.444 9.32599,-14.8432 13.92961,-22.3336 l 2.70936,-4.3313 c -1.79503,-0.5288 -3.69513,-0.8136 -5.66147,-0.8136" />
    <path
       style="fill:#dec650;fill-rule:evenodd"
       inkscape:connector-curvature="0"
       id="path10"
       d="m 23.99954,1008.3654 c -1.78279,0 -3.51122,0.2362 -5.15634,0.6738 l 5.45016,8.7531 0.0143,0.023 -0.003,0 11.15593,18.0881 h 7.06575 c 0.9485,-2.3273 1.47364,-4.8713 1.47364,-7.5399 0,-11.0452 -8.95416,-19.9992 -19.99955,-19.9992" />
    <path
       style="opacity:0.25"
       inkscape:connector-curvature="0"
       d="m 24.29463,1017.7937 -5.66055,9.0426 -5.66073,9.0427 13.35221,12.348 c 7.70071,-0.8916 14.06756,-6.1566 16.55254,-13.247 l -18.58347,-17.1863"
       id="path22" />
    <path
       style="fill:#ffffff"
       inkscape:connector-curvature="0"
       d="m 35.56842,1035.9037 -11.29754,-0.013 -11.29753,-0.012 5.66064,-9.0427 5.66064,-9.0427 5.63726,9.0555 z"
       id="path24" />
  </g>
</svg>
