<?xml version="1.0" encoding="UTF-8" standalone="no"?>
<!-- Created with Inkscape (http://www.inkscape.org/) -->

<svg
   xmlns:dc="http://purl.org/dc/elements/1.1/"
   xmlns:cc="http://creativecommons.org/ns#"
   xmlns:rdf="http://www.w3.org/1999/02/22-rdf-syntax-ns#"
   xmlns:svg="http://www.w3.org/2000/svg"
   xmlns="http://www.w3.org/2000/svg"
   xmlns:sodipodi="http://sodipodi.sourceforge.net/DTD/sodipodi-0.dtd"
   xmlns:inkscape="http://www.inkscape.org/namespaces/inkscape"
   width="48"
   height="48"
   id="svg2"
   version="1.1"
   inkscape:version="0.48.5 r10040"
   sodipodi:docname="google-drawings.svg"
   inkscape:export-filename="/home/uri/workspace/NitruxforAndroid/res/drawable-xhdpi/google_search.png"
   inkscape:export-xdpi="180"
   inkscape:export-ydpi="180">
  <defs
     id="defs4" />
  <sodipodi:namedview
     id="base"
     pagecolor="#ffffff"
     bordercolor="#666666"
     borderopacity="1.0"
     inkscape:pageopacity="0.0"
     inkscape:pageshadow="2"
     inkscape:zoom="8.0625001"
     inkscape:cx="15.680007"
     inkscape:cy="24.182887"
     inkscape:document-units="px"
     inkscape:current-layer="layer1"
     showgrid="false"
     inkscape:window-width="1920"
     inkscape:window-height="1025"
     inkscape:window-x="-4"
     inkscape:window-y="39"
     inkscape:window-maximized="1"
     showguides="true">
    <sodipodi:guide
       position="4,44.000017"
       orientation="40,0"
       id="guide4081" />
    <sodipodi:guide
       position="4,4.0000174"
       orientation="0,40"
       id="guide4083" />
    <sodipodi:guide
       position="44,4.0000174"
       orientation="-40,0"
       id="guide4085" />
    <sodipodi:guide
       position="44,44.000017"
       orientation="0,-40"
       id="guide4087" />
    <sodipodi:guide
       position="9,39.000017"
       orientation="30,0"
       id="guide4091" />
    <sodipodi:guide
       position="9,9.0000174"
       orientation="0,30"
       id="guide4093" />
    <sodipodi:guide
       position="39,9.0000174"
       orientation="-30,0"
       id="guide4095" />
    <sodipodi:guide
       position="39,39.000017"
       orientation="0,-30"
       id="guide4097" />
    <sodipodi:guide
       position="15,33.000017"
       orientation="18,0"
       id="guide4101" />
    <sodipodi:guide
       position="15,15.000017"
       orientation="0,18"
       id="guide4103" />
    <sodipodi:guide
       position="33,15.000017"
       orientation="-18,0"
       id="guide4105" />
    <sodipodi:guide
       position="33,33.000017"
       orientation="0,-18"
       id="guide4107" />
  </sodipodi:namedview>
  <metadata
     id="metadata7">
    <rdf:RDF>
      <cc:Work
         rdf:about="">
        <dc:format>image/svg+xml</dc:format>
        <dc:type
           rdf:resource="http://purl.org/dc/dcmitype/StillImage" />
        <dc:title />
      </cc:Work>
    </rdf:RDF>
  </metadata>
  <g
     inkscape:label="Capa 1"
     inkscape:groupmode="layer"
     id="layer1"
     transform="translate(0,-1004.3622)">
    <path
       style="fill:#ee604f;fill-rule:evenodd"
       inkscape:connector-curvature="0"
       id="path148"
       d="m 44,1028.3622 c 0,11.0456 -8.95436,20 -20,20 -11.04564,0 -20,-8.9544 -20,-20 0,-11.0456 8.95436,-20 20,-20 11.04564,0 20,8.9544 20,20" />
    <path
       style="opacity:0.25"
       inkscape:connector-curvature="0"
       d="m 20.57393,1017.0132 c -4.3881,0 -7.92106,3.5329 -7.92106,7.9211 0,2.1945 0.88338,4.1745 2.31511,5.606 l 5.0788,5.0788 v 4.6302 l 7.75113,7.7511 c 8.000546,-1.5378 14.304507,-7.8425 15.841211,-15.843 l -7.750217,-7.7503 H 31.25869 l -5.0788,-5.0788 c -1.43173,-1.4317 -3.41236,-2.3151 -5.60596,-2.3151"
       id="path206" />
    <path
       style="fill:#ffffff"
       inkscape:connector-curvature="0"
       d="m 20.57393,1017.0132 c -4.3881,0 -7.92106,3.5329 -7.92106,7.9211 0,4.3881 3.53287,7.9211 7.92106,7.9211 4.38811,0 7.92107,-3.5329 7.92107,-7.9211 0,-4.3881 -3.53287,-7.9211 -7.92107,-7.9211 m 9.40387,7.3938 c 0.01,0.1757 0.0265,0.3492 0.0265,0.5275 0,5.2241 -4.20538,9.4303 -9.43036,9.4303 -0.17815,0 -0.35183,-0.017 -0.52752,-0.026 v 5.9111 h 15.842129 v -15.8422 H 29.97744"
       id="path208" />
  </g>
</svg>
