<?xml version="1.0" encoding="UTF-8" standalone="no"?>
<!-- Created with Inkscape (http://www.inkscape.org/) -->

<svg
   xmlns:dc="http://purl.org/dc/elements/1.1/"
   xmlns:cc="http://creativecommons.org/ns#"
   xmlns:rdf="http://www.w3.org/1999/02/22-rdf-syntax-ns#"
   xmlns:svg="http://www.w3.org/2000/svg"
   xmlns="http://www.w3.org/2000/svg"
   xmlns:sodipodi="http://sodipodi.sourceforge.net/DTD/sodipodi-0.dtd"
   xmlns:inkscape="http://www.inkscape.org/namespaces/inkscape"
   width="48"
   height="48"
   id="svg2"
   version="1.1"
   inkscape:version="0.48.5 r10040"
   sodipodi:docname="google-finance.svg"
   inkscape:export-filename="/home/uri/workspace/NitruxforAndroid/res/drawable-xhdpi/google_search.png"
   inkscape:export-xdpi="180"
   inkscape:export-ydpi="180">
  <defs
     id="defs4" />
  <sodipodi:namedview
     id="base"
     pagecolor="#ffffff"
     bordercolor="#666666"
     borderopacity="1.0"
     inkscape:pageopacity="0.0"
     inkscape:pageshadow="2"
     inkscape:zoom="8.0625001"
     inkscape:cx="15.680007"
     inkscape:cy="24.182887"
     inkscape:document-units="px"
     inkscape:current-layer="layer1"
     showgrid="false"
     inkscape:window-width="1920"
     inkscape:window-height="1025"
     inkscape:window-x="-4"
     inkscape:window-y="39"
     inkscape:window-maximized="1"
     showguides="true">
    <sodipodi:guide
       position="4,44.000017"
       orientation="40,0"
       id="guide4081" />
    <sodipodi:guide
       position="4,4.0000174"
       orientation="0,40"
       id="guide4083" />
    <sodipodi:guide
       position="44,4.0000174"
       orientation="-40,0"
       id="guide4085" />
    <sodipodi:guide
       position="44,44.000017"
       orientation="0,-40"
       id="guide4087" />
    <sodipodi:guide
       position="9,39.000017"
       orientation="30,0"
       id="guide4091" />
    <sodipodi:guide
       position="9,9.0000174"
       orientation="0,30"
       id="guide4093" />
    <sodipodi:guide
       position="39,9.0000174"
       orientation="-30,0"
       id="guide4095" />
    <sodipodi:guide
       position="39,39.000017"
       orientation="0,-30"
       id="guide4097" />
    <sodipodi:guide
       position="15,33.000017"
       orientation="18,0"
       id="guide4101" />
    <sodipodi:guide
       position="15,15.000017"
       orientation="0,18"
       id="guide4103" />
    <sodipodi:guide
       position="33,15.000017"
       orientation="-18,0"
       id="guide4105" />
    <sodipodi:guide
       position="33,33.000017"
       orientation="0,-18"
       id="guide4107" />
  </sodipodi:namedview>
  <metadata
     id="metadata7">
    <rdf:RDF>
      <cc:Work
         rdf:about="">
        <dc:format>image/svg+xml</dc:format>
        <dc:type
           rdf:resource="http://purl.org/dc/dcmitype/StillImage" />
        <dc:title />
      </cc:Work>
    </rdf:RDF>
  </metadata>
  <g
     inkscape:label="Capa 1"
     inkscape:groupmode="layer"
     id="layer1"
     transform="translate(0,-1004.3622)">
    <path
       style="fill:#28a645;fill-rule:evenodd"
       inkscape:connector-curvature="0"
       d="m 43.998906,1028.3618 c 0,11.0453 -8.954116,19.9994 -19.999456,19.9994 C 12.95412,1048.3612 4,1039.4071 4,1028.3618 c 0,-11.0454 8.95412,-19.9995 19.99945,-19.9995 11.04534,0 19.999456,8.9541 19.999456,19.9995"
       id="path4" />
    <path
       style="fill:#005c2b"
       inkscape:connector-curvature="0"
       d="m 32.46937,1020.7862 -0.10278,0.071 -0.0629,0.046 c -4.81755,3.5585 -9.63566,7.1105 -14.46034,10.6716 -1.59915,-0.9792 -3.19492,-1.964 -4.80778,-2.9206 -2.82318,1.2701 -5.62864,2.5836 -8.43885,3.8828 H 4.43967 c 1.92037,9.0409 9.94628,15.8252 19.5591,15.8252 11.04534,0 19.999456,-8.9541 19.999456,-19.9995 0,-0.9611 -0.06879,-1.9071 -0.199894,-2.8321 h -0.179886 c 0.05344,-0.053 0.106433,-0.1068 0.159878,-0.1599 -0.0027,-0.018 -0.0058,-0.036 -0.0086,-0.054 -0.02129,-0.1396 -0.04431,-0.2782 -0.06852,-0.4169 -0.0046,-0.026 -0.0097,-0.051 -0.01425,-0.077 -0.02933,-0.1642 -0.06094,-0.3284 -0.09419,-0.4911 -0.02467,-0.1205 -0.05025,-0.24 -0.07711,-0.3597 -0.0095,-0.042 -0.01882,-0.084 -0.02859,-0.1257 -0.02558,-0.1106 -0.05253,-0.2211 -0.07994,-0.3311 -0.0021,-0.01 -0.0036,-0.017 -0.0058,-0.026 -0.0243,-0.096 -0.0486,-0.1924 -0.07428,-0.2883 -0.01242,-0.047 -0.02439,-0.093 -0.03709,-0.1399 -0.0069,-0.025 -0.0159,-0.049 -0.02284,-0.074 -0.02622,-0.094 -0.05235,-0.1892 -0.07994,-0.2827 -0.0093,-0.032 -0.01909,-0.063 -0.02859,-0.094 -0.01955,-0.065 -0.03983,-0.1295 -0.05993,-0.1942 -0.02613,-0.084 -0.05281,-0.1678 -0.07994,-0.2512 -0.02366,-0.073 -0.04687,-0.1446 -0.07135,-0.217 -0.02522,-0.074 -0.05107,-0.1486 -0.07711,-0.2227 -0.06048,0.065 -0.115296,0.1349 -0.162711,0.2084 -1.144731,1.2236 -2.281697,3.8095 -3.47896,4.9988 l -1.554935,-0.4205 c -1.777119,-1.5879 -3.420219,-4.1468 -5.204369,-5.7264"
       id="path6" />
    <path
       style="opacity:0.25"
       inkscape:connector-curvature="0"
       d="m 32.46937,1020.7862 -0.10278,0.071 -0.0629,0.046 c -4.81755,3.5585 -9.63566,7.1105 -14.46034,10.6716 -1.59915,-0.9792 -3.19492,-1.964 -4.80778,-2.9206 -2.87096,1.2918 -5.72365,2.6283 -8.58229,3.9485 0.1407,0.6514 0.31245,1.2909 0.51408,1.9169 0.006,0.018 0.0119,0.037 0.0178,0.055 0.0351,0.1077 0.0709,0.215 0.1078,0.3219 0.013,0.037 0.0264,0.075 0.0396,0.1121 0.0337,0.096 0.0674,0.1916 0.1026,0.2869 0.0465,0.1259 0.0941,0.2513 0.14307,0.376 l 11.31118,11.3111 c 2.26416,0.8895 4.72986,1.3787 7.30966,1.3787 11.04533,0 19.999451,-8.9542 19.999451,-19.9995 0,-2.3265 -0.3986,-4.5596 -1.128926,-6.6363 -0.06021,0.065 -0.11493,0.1345 -0.162162,0.2078 -1.347915,1.4409 -2.78326,2.8271 -4.185442,4.2309 -2.010821,-1.8021 -4.031681,-3.5895 -6.052551,-5.3788"
       id="path66" />
    <path
       style="fill:#ffffff"
       inkscape:connector-curvature="0"
       d="m 32.46937,1020.7862 -0.10278,0.071 -0.0629,0.046 c -4.81755,3.5585 -9.63566,7.1105 -14.46034,10.6716 -1.59915,-0.9792 -3.19492,-1.964 -4.80778,-2.9206 -2.87096,1.2918 -5.72365,2.6283 -8.58229,3.9485 0.22813,1.0566 0.5372,2.082 0.92502,3.0692 2.46332,-1.1867 4.96263,-2.2959 7.44303,-3.4489 1.73272,1.0572 3.46115,2.1257 5.21296,3.1491 4.73424,-3.5315 9.49588,-7.0009 14.23469,-10.5292 2.11771,1.9007 4.24272,3.786 6.375137,5.6698 1.689598,-1.7342 3.416836,-3.4342 5.133476,-5.1417 -0.188565,-1.2574 -0.496628,-2.4767 -0.907928,-3.6458 -0.06048,0.065 -0.115295,0.135 -0.162711,0.2084 -1.347914,1.4409 -2.783259,2.8271 -4.185441,4.2309 -2.010813,-1.8021 -4.031683,-3.5895 -6.052553,-5.3788"
       id="path68" />
  </g>
</svg>
