<?xml version="1.0" encoding="UTF-8" standalone="no"?>
<!-- Created with Inkscape (http://www.inkscape.org/) -->

<svg
   xmlns:dc="http://purl.org/dc/elements/1.1/"
   xmlns:cc="http://creativecommons.org/ns#"
   xmlns:rdf="http://www.w3.org/1999/02/22-rdf-syntax-ns#"
   xmlns:svg="http://www.w3.org/2000/svg"
   xmlns="http://www.w3.org/2000/svg"
   xmlns:sodipodi="http://sodipodi.sourceforge.net/DTD/sodipodi-0.dtd"
   xmlns:inkscape="http://www.inkscape.org/namespaces/inkscape"
   width="48"
   height="48"
   id="svg2"
   version="1.1"
   inkscape:version="0.48.5 r10040"
   sodipodi:docname="google-music.svg"
   inkscape:export-filename="/home/uri/workspace/NitruxforAndroid/res/drawable-xhdpi/google_search.png"
   inkscape:export-xdpi="180"
   inkscape:export-ydpi="180">
  <defs
     id="defs4" />
  <sodipodi:namedview
     id="base"
     pagecolor="#ffffff"
     bordercolor="#666666"
     borderopacity="1.0"
     inkscape:pageopacity="0.0"
     inkscape:pageshadow="2"
     inkscape:zoom="8.0625001"
     inkscape:cx="15.680007"
     inkscape:cy="23.595893"
     inkscape:document-units="px"
     inkscape:current-layer="layer1"
     showgrid="false"
     inkscape:window-width="1920"
     inkscape:window-height="1025"
     inkscape:window-x="-4"
     inkscape:window-y="39"
     inkscape:window-maximized="1"
     showguides="true">
    <sodipodi:guide
       position="4,44.000017"
       orientation="40,0"
       id="guide4081" />
    <sodipodi:guide
       position="4,4.0000174"
       orientation="0,40"
       id="guide4083" />
    <sodipodi:guide
       position="44,4.0000174"
       orientation="-40,0"
       id="guide4085" />
    <sodipodi:guide
       position="44,44.000017"
       orientation="0,-40"
       id="guide4087" />
    <sodipodi:guide
       position="9,39.000017"
       orientation="30,0"
       id="guide4091" />
    <sodipodi:guide
       position="9,9.0000174"
       orientation="0,30"
       id="guide4093" />
    <sodipodi:guide
       position="39,9.0000174"
       orientation="-30,0"
       id="guide4095" />
    <sodipodi:guide
       position="39,39.000017"
       orientation="0,-30"
       id="guide4097" />
    <sodipodi:guide
       position="15,33.000017"
       orientation="18,0"
       id="guide4101" />
    <sodipodi:guide
       position="15,15.000017"
       orientation="0,18"
       id="guide4103" />
    <sodipodi:guide
       position="33,15.000017"
       orientation="-18,0"
       id="guide4105" />
    <sodipodi:guide
       position="33,33.000017"
       orientation="0,-18"
       id="guide4107" />
  </sodipodi:namedview>
  <metadata
     id="metadata7">
    <rdf:RDF>
      <cc:Work
         rdf:about="">
        <dc:format>image/svg+xml</dc:format>
        <dc:type
           rdf:resource="http://purl.org/dc/dcmitype/StillImage" />
        <dc:title />
      </cc:Work>
    </rdf:RDF>
  </metadata>
  <g
     inkscape:label="Capa 1"
     inkscape:groupmode="layer"
     id="layer1"
     transform="translate(0,-1004.3622)">
    <path
       style="fill:#de7f17;fill-rule:evenodd"
       inkscape:connector-curvature="0"
       id="path714"
       d="m 43.999816,1028.3621 c 0,11.0461 -8.954736,19.9999 -19.999906,19.9999 C 12.95382,1048.362 4,1039.4073 4,1028.3621 c 0,-11.0461 8.95473,-19.9999 19.99991,-19.9999 11.04609,0 19.999906,8.9547 19.999906,19.9999" />
    <path
       style="opacity:0.25"
       inkscape:connector-curvature="0"
       d="m 24.25482,1014.9442 c -2.09611,0 -2.99094,0.1416 -4.61122,0.7281 -4.55832,1.65 -7.81906,5.4252 -8.87707,10.2813 -0.24011,1.1019 -0.24331,4.1657 -0.006,5.3449 0.0912,0.4523 0.24596,1.2334 0.34262,1.7359 0.0967,0.5026 0.29438,1.5304 0.43975,2.2842 0.14527,0.7538 0.36171,1.8741 0.47966,2.4897 l 0.21417,1.1192 2.10232,2.1023 c 0.0355,0.1913 0.0931,0.5057 0.10443,0.5641 0.0259,0.1343 0.14609,0.3506 0.26843,0.4825 l 0.22275,0.2399 5.77521,5.7752 c 1.07026,0.1771 2.16883,0.2707 3.28916,0.2707 10.85148,0 19.684696,-8.6432 19.99077,-19.4216 l -10.01,-10.01 c -1.43362,-1.4336 -3.18574,-2.5628 -5.11483,-3.2609 -1.61909,-0.5861 -2.51538,-0.7253 -4.61121,-0.7253"
       id="path930" />
    <g
       transform="matrix(0.0913655,0,0,0.0913655,0.87987,1005.2421)"
       style="fill:#ffffff"
       id="g932">
      <path
         inkscape:connector-curvature="0"
         d="m 255.85,106.2 c -22.942,0 -32.736,1.55 -50.47,7.969 -49.891,18.06 -85.58,59.38 -97.16,112.53 -2.628,12.06 -2.664,45.594 -0.063,58.5 0.998,4.95 2.692,13.5 3.75,19 1.058,5.5 3.222,16.75 4.813,25 1.59,8.25 3.959,20.512 5.25,27.25 l 2.344,12.25 h 9.187 c 7.911,0 9.287,0.246 9.719,1.75 0.276,0.962 1.464,6.925 2.625,13.25 1.161,6.325 2.341,12.687 2.625,14.156 0.284,1.469 1.599,3.868 2.937,5.312 l 2.438,2.625 26.344,-0.312 c 4.526,-0.051 7.437,-0.107 10.563,-0.156 l -24.22,-126.03 c -13.994,4.34 -32.02,11.687 -35.719,16.906 -0.725,1.77 -0.85,1.681 -0.906,-0.688 -0.035,-1.472 -0.894,-7.097 -1.937,-12.5 -1.044,-5.403 -2.213,-13.75 -2.594,-18.563 l -0.688,-8.75 h 0.531 c 0.337,-71.939 58.763,-130.16 130.78,-130.16 72.02,0 130.44,58.22 130.78,130.16 h 0.25 l -0.312,4.063 c -0.094,3.43 -0.309,6.829 -0.656,10.188 h -0.281 c -0.537,4.37 -1.32,9.38 -2.031,13.06 -1.044,5.403 -1.934,11.03 -1.969,12.5 -0.056,2.369 -0.15,2.458 -0.875,0.688 -3.231,-7.423 -23.771,-12.989 -35.844,-16.25 l -24.12,125.38 c 3.131,0.05 6.05,0.105 10.594,0.156 l 26.344,0.312 2.438,-2.625 c 1.338,-1.444 2.653,-3.843 2.938,-5.312 0.284,-1.469 1.464,-7.831 2.625,-14.156 1.161,-6.325 2.349,-12.288 2.625,-13.25 0.432,-1.504 1.804,-1.75 9.75,-1.75 h 9.219 l 4.844,-25.25 c 2.663,-13.887 5.432,-28.4 6.156,-32.25 0.724,-3.85 2.233,-11.725 3.344,-17.5 3.778,-19.65 4.323,-25.962 3.75,-43.5 -0.784,-23.994 -5.192,-41.593 -15.563,-62.22 -17.01,-33.838 -47.51,-60.747 -83.69,-73.844 -17.721,-6.415 -27.531,-7.938 -50.47,-7.938 m 65.09,299.13 c -12.874,-0.205 -15.776,-0.508 -18.19,-1.875 2.243,1.356 5.358,1.671 18.19,1.875 m -130.19,0 c 12.854,-0.204 15.974,-0.518 18.219,-1.875 -2.414,1.368 -5.321,1.67 -18.219,1.875 m 16.844,-236.81 c -1.354,0.785 -2.702,1.604 -4.03,2.469 1.329,-0.865 2.677,-1.684 4.03,-2.469 m -4.03,2.469 c -1.329,0.864 -2.631,1.773 -3.938,2.719 1.306,-0.946 2.608,-1.854 3.938,-2.719 m -5.906,4.156 c -1.296,0.986 -2.567,2.025 -3.844,3.094 1.27,-1.064 2.554,-2.112 3.844,-3.094 m -5.75,4.719 c -1.267,1.11 -2.53,2.274 -3.781,3.469 1.251,-1.194 2.514,-2.358 3.781,-3.469 m -5.656,5.281 c -2.089,2.076 -4.062,4.209 -5.938,6.375 1.876,-2.165 3.848,-4.299 5.938,-6.375 m 150.38,12.813 c 1.034,1.426 2.01,2.872 2.969,4.344 -0.954,-1.465 -1.94,-2.924 -2.969,-4.344 m 4.344,6.469 c 0.722,1.171 1.39,2.368 2.062,3.563 -0.673,-1.194 -1.34,-2.392 -2.062,-3.563 m 8.125,16.313 c 1.161,2.999 2.17,6.02 3,9.09 -0.83,-3.07 -1.839,-6.095 -3,-9.09 m 3,9.09 c 0.83,3.07 1.494,6.171 1.969,9.281 -0.475,-3.11 -1.139,-6.212 -1.969,-9.281 m 2.375,12.406 c 0.191,1.697 0.432,3.227 0.75,4.594 -0.319,-1.368 -0.559,-2.896 -0.75,-4.594 m 2.625,9.625 c 0.254,0.435 0.527,0.835 0.812,1.187 -0.286,-0.353 -0.558,-0.752 -0.812,-1.187 m 29.25,12.594 c -0.095,1.203 -0.227,2.611 -0.406,4.156 0.172,-1.523 0.313,-2.974 0.406,-4.156 m -207.56,11.656 c -0.884,0.163 -1.869,0.374 -2.937,0.625 1.057,-0.247 2.06,-0.463 2.937,-0.625 m 149.28,0.25 c -0.52,0 -1.038,0.042 -1.531,0.094 0.496,-0.052 1.01,-0.089 1.531,-0.094 m -1.531,0.094 c -0.987,0.102 -1.925,0.294 -2.844,0.594 0.923,-0.302 1.852,-0.491 2.844,-0.594 m -2.844,0.594 c -0.462,0.151 -0.921,0.327 -1.375,0.531 0.454,-0.204 0.913,-0.38 1.375,-0.531 m -1.375,0.531 c -0.409,0.184 -0.811,0.396 -1.219,0.625 0.402,-0.225 0.815,-0.443 1.219,-0.625 m 8.313,-1.094 c 0.438,0.047 0.882,0.117 1.344,0.187 -0.461,-0.072 -0.907,-0.139 -1.344,-0.187 m -155.62,0.469 c -1.176,0.288 -2.418,0.597 -3.75,0.969 1.339,-0.373 2.568,-0.681 3.75,-0.969 m -3.75,0.969 c -1.387,0.387 -2.834,0.785 -4.344,1.25 1.496,-0.46 2.968,-0.867 4.344,-1.25 m 149.59,0.406 c -0.417,0.244 -0.829,0.52 -1.25,0.813 0.424,-0.294 0.83,-0.568 1.25,-0.813 m -1.25,0.813 c -0.447,0.31 -0.886,0.664 -1.344,1.031 0.46,-0.369 0.894,-0.72 1.344,-1.031"
         id="path934" />
      <path
         inkscape:connector-curvature="0"
         d="m 256.01,125.55 c -72.02,0 -130.44,58.22 -130.78,130.16 h 12.13 c 6.96,0 13.505,-0.465 14.562,-1.031 2.792,-1.494 4.578,-5.648 5.344,-12.437 2.359,-20.917 12.287,-40.483 29,-57.09 19.905,-19.784 41.589,-28.719 69.59,-28.719 15.03,0 24.939,1.863 37.75,7.094 32.1,13.1 57.12,45.47 60.875,78.72 0.766,6.79 2.552,10.943 5.344,12.437 1.058,0.566 7.602,1.031 14.563,1.031 h 12.406 c -0.337,-71.939 -58.763,-130.16 -130.78,-130.16 m 130.72,134.22 -0.375,4.688 c -0.121,1.532 -0.312,3.459 -0.563,5.5 h 0.281 c 0.348,-3.358 0.563,-6.758 0.656,-10.188 z m -205.09,15.938 c -2.885,0.199 -8.553,1.565 -15.09,3.594 l 24.22,126.03 c 14.74,-0.234 16.431,-0.598 19.25,-2.531 4.26,-2.921 7.503,-7.729 8.375,-12.375 0.395,-2.107 -0.142,-7.584 -1.375,-13.844 -1.124,-5.706 -2.264,-11.725 -2.531,-13.375 -0.267,-1.65 -2.509,-13.575 -4.969,-26.5 -2.46,-12.925 -4.711,-24.85 -5,-26.5 -2.719,-15.5 -3.974,-21.245 -5.156,-23.531 -2.966,-5.736 -11.39,-10.949 -17.719,-10.969 m 146.44,0.656 c -4.177,0.039 -7.415,1.538 -11.281,5.03 -2.097,1.895 -4.279,4.874 -4.844,6.625 -0.565,1.751 -3.451,16.01 -6.438,31.688 -2.986,15.675 -5.728,29.85 -6.06,31.5 -0.334,1.65 -0.803,4.35 -1.063,6 -0.259,1.65 -1.658,8.822 -3.094,15.969 -1.643,8.182 -2.382,14.421 -2,16.813 0.778,4.863 4.02,9.786 8.438,12.812 2.817,1.932 4.505,2.297 19.219,2.531 l 24.13,-125.37 c -1.599,-0.432 -3.561,-0.967 -4.781,-1.313 -5.145,-1.486 -8.97,-2.312 -12.219,-2.281"
         id="path936" />
    </g>
    <path
       style="opacity:0.5;fill:#f07703"
       inkscape:connector-curvature="0"
       d="m 24.27035,1016.713 c -6.58014,0 -11.91772,5.3193 -11.94878,11.8921 h 1.10826 c 0.63591,0 1.23389,-0.042 1.33047,-0.094 0.25509,-0.1365 0.41827,-0.516 0.48825,-1.1363 0.21554,-1.9111 1.12261,-3.6987 2.6496,-5.216 1.81863,-1.8076 3.7998,-2.624 6.35813,-2.624 1.37322,0 2.27856,0.1703 3.44905,0.6482 2.93283,1.1969 5.21879,4.1544 5.56187,7.1923 0.07,0.6204 0.23317,0.9998 0.48826,1.1363 0.0967,0.052 0.69456,0.094 1.33056,0.094 h 1.13348 c -0.0308,-6.5727 -5.36892,-11.8921 -11.94878,-11.8921 m 11.94329,12.263 -0.0343,0.4284 c -0.011,0.1399 -0.0285,0.316 -0.0514,0.5025 h 0.0257 c 0.0318,-0.3068 0.0514,-0.6175 0.0599,-0.9309 z m -18.73815,1.4562 c -0.26359,0.018 -0.78145,0.143 -1.3787,0.3284 l 2.21287,11.5148 c 1.34673,-0.021 1.50123,-0.055 1.75879,-0.2313 0.38921,-0.2668 0.68551,-0.7061 0.76518,-1.1306 0.0361,-0.1925 -0.013,-0.6929 -0.12563,-1.2649 -0.10269,-0.5213 -0.20685,-1.0712 -0.23124,-1.222 -0.0244,-0.1507 -0.22924,-1.2403 -0.454,-2.4212 -0.22476,-1.1809 -0.43042,-2.2704 -0.45682,-2.4212 -0.24843,-1.4161 -0.36309,-1.941 -0.47109,-2.1499 -0.27099,-0.5241 -1.04065,-1.0003 -1.6189,-1.0022 m 13.37956,0.06 c -0.38163,0 -0.67747,0.1405 -1.03069,0.4595 -0.19159,0.1732 -0.39095,0.4454 -0.44257,0.6053 -0.0516,0.16 -0.31531,1.4628 -0.58822,2.8952 -0.27281,1.4322 -0.52334,2.7273 -0.55367,2.878 -0.0305,0.1508 -0.0734,0.3975 -0.0971,0.5482 -0.0237,0.1508 -0.15149,0.8061 -0.28269,1.459 -0.15011,0.7476 -0.21763,1.3176 -0.18273,1.5362 0.0711,0.4443 0.36729,0.8941 0.77094,1.1705 0.25738,0.1766 0.41161,0.2099 1.75596,0.2313 l 2.20465,-11.4545 c -0.1461,-0.039 -0.32536,-0.088 -0.43682,-0.12 -0.47008,-0.1357 -0.81955,-0.2112 -1.1164,-0.2084"
       id="path938" />
  </g>
</svg>
