<?xml version="1.0" encoding="UTF-8" standalone="no"?>
<!-- Created with Inkscape (http://www.inkscape.org/) -->

<svg
   xmlns:dc="http://purl.org/dc/elements/1.1/"
   xmlns:cc="http://creativecommons.org/ns#"
   xmlns:rdf="http://www.w3.org/1999/02/22-rdf-syntax-ns#"
   xmlns:svg="http://www.w3.org/2000/svg"
   xmlns="http://www.w3.org/2000/svg"
   xmlns:sodipodi="http://sodipodi.sourceforge.net/DTD/sodipodi-0.dtd"
   xmlns:inkscape="http://www.inkscape.org/namespaces/inkscape"
   width="48"
   height="48"
   id="svg2"
   version="1.1"
   inkscape:version="0.48.5 r10040"
   sodipodi:docname="google-keep.svg"
   inkscape:export-filename="/home/uri/workspace/NitruxforAndroid/res/drawable-xhdpi/google_search.png"
   inkscape:export-xdpi="180"
   inkscape:export-ydpi="180">
  <defs
     id="defs4" />
  <sodipodi:namedview
     id="base"
     pagecolor="#ffffff"
     bordercolor="#666666"
     borderopacity="1.0"
     inkscape:pageopacity="0.0"
     inkscape:pageshadow="2"
     inkscape:zoom="8.0625001"
     inkscape:cx="15.680007"
     inkscape:cy="23.595893"
     inkscape:document-units="px"
     inkscape:current-layer="layer1"
     showgrid="false"
     inkscape:window-width="1920"
     inkscape:window-height="1025"
     inkscape:window-x="-4"
     inkscape:window-y="39"
     inkscape:window-maximized="1"
     showguides="true">
    <sodipodi:guide
       position="4,44.000017"
       orientation="40,0"
       id="guide4081" />
    <sodipodi:guide
       position="4,4.0000174"
       orientation="0,40"
       id="guide4083" />
    <sodipodi:guide
       position="44,4.0000174"
       orientation="-40,0"
       id="guide4085" />
    <sodipodi:guide
       position="44,44.000017"
       orientation="0,-40"
       id="guide4087" />
    <sodipodi:guide
       position="9,39.000017"
       orientation="30,0"
       id="guide4091" />
    <sodipodi:guide
       position="9,9.0000174"
       orientation="0,30"
       id="guide4093" />
    <sodipodi:guide
       position="39,9.0000174"
       orientation="-30,0"
       id="guide4095" />
    <sodipodi:guide
       position="39,39.000017"
       orientation="0,-30"
       id="guide4097" />
    <sodipodi:guide
       position="15,33.000017"
       orientation="18,0"
       id="guide4101" />
    <sodipodi:guide
       position="15,15.000017"
       orientation="0,18"
       id="guide4103" />
    <sodipodi:guide
       position="33,15.000017"
       orientation="-18,0"
       id="guide4105" />
    <sodipodi:guide
       position="33,33.000017"
       orientation="0,-18"
       id="guide4107" />
  </sodipodi:namedview>
  <metadata
     id="metadata7">
    <rdf:RDF>
      <cc:Work
         rdf:about="">
        <dc:format>image/svg+xml</dc:format>
        <dc:type
           rdf:resource="http://purl.org/dc/dcmitype/StillImage" />
        <dc:title />
      </cc:Work>
    </rdf:RDF>
  </metadata>
  <g
     inkscape:label="Capa 1"
     inkscape:groupmode="layer"
     id="layer1"
     transform="translate(0,-1004.3622)">
    <path
       style="fill:#f6c640;fill-rule:evenodd"
       inkscape:connector-curvature="0"
       id="path148"
       d="m 44,1028.3622 c 0,11.0461 -8.95477,20 -20,20 -11.04614,0 -20,-8.9548 -20,-20 0,-11.0461 8.95477,-20 20,-20 11.04614,0 20,8.9548 20,20" />
    <path
       style="opacity:0.25"
       inkscape:connector-curvature="0"
       d="m 23.84742,1014.5541 c -3.78913,0.087 -7.32024,2.8226 -8.48515,6.423 -1.17817,3.3343 -0.14053,7.1969 2.328,9.6656 l 0.97917,0.9792 v 9.1667 l 1.92234,1.9223 h -7.3e-4 l 5.5386,5.5377 c 9.41343,-0.9967 16.877111,-8.5235 17.777979,-17.9652 L 30.91814,1017.2939 c -1.66679,-1.6668 -3.93057,-2.7355 -6.30882,-2.7217 -0.25427,-0.018 -0.50809,-0.024 -0.76071,-0.018"
       id="path206" />
    <path
       style="fill:#ffffff"
       inkscape:connector-curvature="0"
       d="m 28.10781,1030.9579 c 0.34153,-1.2761 2.04706,-1.8085 2.57652,-3.1137 1.87858,-2.9094 1.32234,-7.1111 -1.28186,-9.408 -2.19918,-2.2404 -5.88945,-2.6037 -8.62586,-1.1951 -2.88862,1.5578 -4.62165,5.0772 -3.83344,8.3052 0.39963,1.9491 1.69484,3.619 3.2974,4.7519 0.50982,0.3284 -0.17296,1.4387 0.69456,1.1814 h 7.17222 v -0.5215 m -0.0249,3.3001 c -0.0955,-0.3387 0.20083,-1.0842 -0.37313,-0.9261 h -7.18776 c -0.0233,0.6174 -0.0465,1.2349 -0.0698,1.8522 h 7.66561 c -0.0116,-0.3087 -0.0233,-0.6173 -0.0349,-0.9261 m 0.0249,3.794 c -0.10296,-0.3059 0.25144,-1.0693 -0.27053,-0.956 h -7.37506 v 1.912 h 7.6455 v -0.956 m -7.51667,2.7383 h -1.92143 v -9.2983 c -3.15742,-2.3534 -4.63088,-6.7675 -3.30744,-10.5135 1.24221,-3.841 5.17761,-6.6971 9.24623,-6.4047 4.77935,-0.028 9.09456,4.3152 9.037,9.0991 0.19013,2.8822 -1.24358,5.672 -3.39059,7.5313 -0.43426,0.2291 -0.36912,0.6696 -0.35541,1.0886 v 8.4971 h -1.92143 v 1.9223 h -7.38693 z"
       id="path208" />
  </g>
</svg>
