<?xml version="1.0" encoding="UTF-8" standalone="no"?>
<!-- Created with Inkscape (http://www.inkscape.org/) -->

<svg
   xmlns:dc="http://purl.org/dc/elements/1.1/"
   xmlns:cc="http://creativecommons.org/ns#"
   xmlns:rdf="http://www.w3.org/1999/02/22-rdf-syntax-ns#"
   xmlns:svg="http://www.w3.org/2000/svg"
   xmlns="http://www.w3.org/2000/svg"
   xmlns:sodipodi="http://sodipodi.sourceforge.net/DTD/sodipodi-0.dtd"
   xmlns:inkscape="http://www.inkscape.org/namespaces/inkscape"
   width="48"
   height="48"
   id="svg2"
   version="1.1"
   inkscape:version="0.48.5 r10040"
   sodipodi:docname="google-news.svg"
   inkscape:export-filename="/home/uri/workspace/NitruxforAndroid/res/drawable-xhdpi/google_search.png"
   inkscape:export-xdpi="180"
   inkscape:export-ydpi="180">
  <defs
     id="defs4" />
  <sodipodi:namedview
     id="base"
     pagecolor="#ffffff"
     bordercolor="#666666"
     borderopacity="1.0"
     inkscape:pageopacity="0.0"
     inkscape:pageshadow="2"
     inkscape:zoom="8.0625001"
     inkscape:cx="15.680007"
     inkscape:cy="23.595893"
     inkscape:document-units="px"
     inkscape:current-layer="layer1"
     showgrid="false"
     inkscape:window-width="1920"
     inkscape:window-height="1025"
     inkscape:window-x="-4"
     inkscape:window-y="39"
     inkscape:window-maximized="1"
     showguides="true">
    <sodipodi:guide
       position="4,44.000017"
       orientation="40,0"
       id="guide4081" />
    <sodipodi:guide
       position="4,4.0000174"
       orientation="0,40"
       id="guide4083" />
    <sodipodi:guide
       position="44,4.0000174"
       orientation="-40,0"
       id="guide4085" />
    <sodipodi:guide
       position="44,44.000017"
       orientation="0,-40"
       id="guide4087" />
    <sodipodi:guide
       position="9,39.000017"
       orientation="30,0"
       id="guide4091" />
    <sodipodi:guide
       position="9,9.0000174"
       orientation="0,30"
       id="guide4093" />
    <sodipodi:guide
       position="39,9.0000174"
       orientation="-30,0"
       id="guide4095" />
    <sodipodi:guide
       position="39,39.000017"
       orientation="0,-30"
       id="guide4097" />
    <sodipodi:guide
       position="15,33.000017"
       orientation="18,0"
       id="guide4101" />
    <sodipodi:guide
       position="15,15.000017"
       orientation="0,18"
       id="guide4103" />
    <sodipodi:guide
       position="33,15.000017"
       orientation="-18,0"
       id="guide4105" />
    <sodipodi:guide
       position="33,33.000017"
       orientation="0,-18"
       id="guide4107" />
  </sodipodi:namedview>
  <metadata
     id="metadata7">
    <rdf:RDF>
      <cc:Work
         rdf:about="">
        <dc:format>image/svg+xml</dc:format>
        <dc:type
           rdf:resource="http://purl.org/dc/dcmitype/StillImage" />
        <dc:title />
      </cc:Work>
    </rdf:RDF>
  </metadata>
  <g
     inkscape:label="Capa 1"
     inkscape:groupmode="layer"
     id="layer1"
     transform="translate(0,-1004.3622)">
    <path
       style="fill:#d23638;fill-rule:evenodd"
       inkscape:connector-curvature="0"
       id="path918"
       d="m 43.999452,1028.3623 c 0,11.0456 -8.954242,19.9999 -19.999722,19.9999 C 12.95424,1048.3622 4,1039.4079 4,1028.3623 c 0,-11.0457 8.95424,-20.0001 19.99973,-20.0001 11.04548,0 19.999722,8.9544 19.999722,20.0001" />
    <g
       transform="matrix(0.09136049,0,0,0.09136163,0.88187,1005.2432)"
       style="fill-rule:evenodd"
       id="g1024">
      <path
         style="opacity:0.25"
         inkscape:connector-curvature="0"
         d="M 103.02,143.59 V 325.9 l 24.688,24.688 h -17.625 v 17.813 l 99.17,99.17 c 14.15,2.873 28.795,4.385 43.793,4.385 120.9,0 218.91,-98.01 218.91,-218.91 0,-18.15 -2.223,-35.772 -6.385,-52.633 l -56.58,-56.58 h -130.75 v 17.844 l 23.5,23.5 h -13.563 l -41.594,-41.594 h -143.56"
         id="path1026" />
      <path
         style="fill:#ffffff"
         inkscape:connector-curvature="0"
         d="M 103.02,143.59 V 325.9 H 246.58 V 143.59 H 103.02 m 175.22,0.25 v 17.844 H 408.99 V 143.84 H 278.24 m -97.84,20.719 h 0.875 l 39.41,0.094 -11.688,6.844 h -10.313 c 0.111,0.339 6.01,4.824 9.438,11.719 1.845,3.71 2.938,8.1 2.938,12.719 0,2.136 0.136,4.44 -0.594,6.656 -1.211,3.679 -2.071,6.151 -3.25,7.844 -3.935,5.649 -5.612,4.706 -12.12,12.25 -3.57,4.135 -4.613,6.62 -4.688,8.656 -0.051,1.458 0.188,3.398 1.625,4.906 1.521,1.597 3.887,3.035 7.281,5.813 5.463,4.468 11.06,9.05 14.313,14.375 3.349,5.476 4.246,11.723 3.438,18.406 -1.605,13.297 -20.01,30.911 -49.75,30.06 -29.611,-0.846 -36.469,-17.563 -36.469,-17.563 0,0 -7.094,-12.788 6,-26.688 13.09,-13.897 40.75,-13.188 40.75,-13.188 0,0 1.104,-0.05 -0.406,-1.813 -6.328,-7.384 -3.188,-17.844 -3.188,-17.844 0,0 -7.903,0.952 -15.344,-1.125 -2.475,-0.689 -8.469,-4.188 -8.469,-4.188 0,0 -17.12,-9.289 -10.469,-32.656 4.298,-15.11 19.481,-22.356 30.469,-24.344 4.649,-0.844 8.557,-0.938 10.219,-0.938 m -8.469,6.406 c -3.609,-0.024 -6.125,1.063 -6.125,1.063 -3.978,2.495 -14.14,3.845 -9.969,29.09 4.096,24.786 26.375,21.375 26.375,21.375 0,0 19.446,-4.256 10.156,-32.12 -5.411,-16.242 -14.424,-19.361 -20.438,-19.406 m 106.31,14.219 v 17.844 h 130.75 v -17.844 h -130.75 m 0,41.38 v 17.813 h 130.75 v -17.813 h -130.75 m -94,26.5 c -3.849,0.26 -7.777,0.056 -10.719,0.313 -8.844,0.771 -13.534,2.261 -18.313,5.469 -2.245,1.508 -4.663,2.823 -6.844,5.781 -8.67,11.763 3.048,24.91 5.156,26 4.056,2.097 12.258,6.295 23.13,6.25 4.421,-0.018 11.437,-0.271 15.438,-2.375 13.552,-7.129 13.433,-13.628 11.563,-22.563 -1.669,-7.975 -19.406,-18.875 -19.406,-18.875 m 94,14.844 v 17.813 h 130.75 v -17.813 h -130.75 m 0,41.34 v 17.813 h 130.75 v -17.813 h -130.75 m -168.16,41.34 v 17.813 h 298.91 v -17.813 h -298.91"
         id="path1028" />
    </g>
  </g>
</svg>
