<?xml version="1.0" encoding="UTF-8" standalone="no"?>
<!-- Created with Inkscape (http://www.inkscape.org/) -->

<svg
   xmlns:dc="http://purl.org/dc/elements/1.1/"
   xmlns:cc="http://creativecommons.org/ns#"
   xmlns:rdf="http://www.w3.org/1999/02/22-rdf-syntax-ns#"
   xmlns:svg="http://www.w3.org/2000/svg"
   xmlns="http://www.w3.org/2000/svg"
   xmlns:sodipodi="http://sodipodi.sourceforge.net/DTD/sodipodi-0.dtd"
   xmlns:inkscape="http://www.inkscape.org/namespaces/inkscape"
   width="48"
   height="48"
   id="svg2"
   version="1.1"
   inkscape:version="0.91 r13725"
   sodipodi:docname="gummi.svg">
  <defs
     id="defs4">
    <clipPath
       id="clipPath-783135790">
      <g
         transform="translate(0,-1004.3622)"
         id="g17">
        <path
           style="fill:#1890d0"
           inkscape:connector-curvature="0"
           d="m -24,13 c 0,1.105 -0.672,2 -1.5,2 -0.828,0 -1.5,-0.895 -1.5,-2 0,-1.105 0.672,-2 1.5,-2 0.828,0 1.5,0.895 1.5,2 z"
           transform="matrix(15.333333,0,0,11.5,414.99999,878.8622)"
           id="path19" />
      </g>
    </clipPath>
    <linearGradient
       id="linear0"
       gradientUnits="userSpaceOnUse"
       y1="81.379997"
       x2="0"
       y2="21.384001"
       gradientTransform="matrix(0.620285,0,0,0.6,-6.156983,-7.199999)">
      <stop
         stop-color="#000"
         stop-opacity="1"
         id="stop22" />
      <stop
         offset="1"
         stop-color="#191919"
         stop-opacity="1"
         id="stop24" />
    </linearGradient>
    <clipPath
       id="clipPath-769074131">
      <g
         transform="translate(0,-1004.3622)"
         id="g12">
        <path
           style="fill:#1890d0"
           inkscape:connector-curvature="0"
           d="m -24,13 c 0,1.105 -0.672,2 -1.5,2 -0.828,0 -1.5,-0.895 -1.5,-2 0,-1.105 0.672,-2 1.5,-2 0.828,0 1.5,0.895 1.5,2 z"
           transform="matrix(15.333333,0,0,11.5,414.99999,878.8622)"
           id="path14" />
      </g>
    </clipPath>
    <linearGradient
       id="linearGradient3764"
       x1="1"
       x2="47"
       gradientUnits="userSpaceOnUse"
       gradientTransform="matrix(0,-1,1,0,-1.5e-6,47.999998)">
      <stop
         stop-color="#8fc361"
         stop-opacity="1"
         id="stop7" />
      <stop
         offset="1"
         stop-color="#99c86f"
         stop-opacity="1"
         id="stop9" />
    </linearGradient>
  </defs>
  <sodipodi:namedview
     id="base"
     pagecolor="#ffffff"
     bordercolor="#666666"
     borderopacity="1.0"
     inkscape:pageopacity="0.0"
     inkscape:pageshadow="2"
     inkscape:zoom="8.3691829"
     inkscape:cx="-20.447541"
     inkscape:cy="15.169334"
     inkscape:document-units="px"
     inkscape:current-layer="layer1"
     showgrid="false"
     fit-margin-top="0"
     fit-margin-left="0"
     fit-margin-right="0"
     fit-margin-bottom="0"
     inkscape:window-width="1920"
     inkscape:window-height="993"
     inkscape:window-x="-4"
     inkscape:window-y="32"
     inkscape:window-maximized="1"
     showguides="true">
    <sodipodi:guide
       position="8.9999928,39"
       orientation="30,0"
       id="guide3276" />
    <sodipodi:guide
       position="8.9999928,9"
       orientation="0,30"
       id="guide3278" />
    <sodipodi:guide
       position="38.999993,9"
       orientation="-30,0"
       id="guide3280" />
    <sodipodi:guide
       position="10,35"
       orientation="0,1"
       id="guide3282" />
    <sodipodi:guide
       position="8.9999928,39"
       orientation="11,0"
       id="guide3292" />
    <sodipodi:guide
       position="8.9999928,24"
       orientation="0,1"
       id="guide3294" />
    <sodipodi:guide
       position="21.999993,28"
       orientation="-11,0"
       id="guide3296" />
  </sodipodi:namedview>
  <metadata
     id="metadata7">
    <rdf:RDF>
      <cc:Work
         rdf:about="">
        <dc:format>image/svg+xml</dc:format>
        <dc:type
           rdf:resource="http://purl.org/dc/dcmitype/StillImage" />
        <dc:title />
      </cc:Work>
    </rdf:RDF>
  </metadata>
  <g
     inkscape:label="Capa 1"
     inkscape:groupmode="layer"
     id="layer1"
     transform="translate(-180.23661,-689.8125)">
    <g
       transform="matrix(0.85110005,0,0,0.85106383,183.38551,692.96144)"
       id="g32">
      <path
         style="opacity:0.05"
         inkscape:connector-curvature="0"
         d="m 36.31,5 c 5.859,4.062 9.688,10.831 9.688,18.5 0,12.426 -10.07,22.5 -22.5,22.5 -7.669,0 -14.438,-3.828 -18.5,-9.688 1.037,1.822 2.306,3.499 3.781,4.969 4.085,3.712 9.514,5.969 15.469,5.969 12.703,0 23,-10.298 23,-23 0,-5.954 -2.256,-11.384 -5.969,-15.469 C 39.81,7.306 38.132,6.037 36.31,5 Z m 4.969,3.781 c 3.854,4.113 6.219,9.637 6.219,15.719 0,12.703 -10.297,23 -23,23 -6.081,0 -11.606,-2.364 -15.719,-6.219 4.16,4.144 9.883,6.719 16.219,6.719 12.703,0 23,-10.298 23,-23 0,-6.335 -2.575,-12.06 -6.719,-16.219 z"
         id="path34" />
      <path
         style="opacity:0.1"
         inkscape:connector-curvature="0"
         d="m 41.28,8.781 c 3.712,4.085 5.969,9.514 5.969,15.469 0,12.703 -10.297,23 -23,23 -5.954,0 -11.384,-2.256 -15.469,-5.969 4.113,3.854 9.637,6.219 15.719,6.219 12.703,0 23,-10.298 23,-23 0,-6.081 -2.364,-11.606 -6.219,-15.719 z"
         id="path36" />
      <path
         style="opacity:0.2"
         inkscape:connector-curvature="0"
         d="M 31.25,2.375 C 39.865,5.529 46,13.792 46,23.505 c 0,12.426 -10.07,22.5 -22.5,22.5 -9.708,0 -17.971,-6.135 -21.12,-14.75 a 23,23 0 0 0 44.875,-7 23,23 0 0 0 -16,-21.875 z"
         id="path38" />
    </g>
    <g
       transform="matrix(0.85110005,0,0,0.85106383,183.38551,692.96144)"
       id="g40">
      <path
         style="fill:url(#linearGradient3764);fill-opacity:1"
         inkscape:connector-curvature="0"
         d="M 24,1 C 36.703,1 47,11.297 47,24 47,36.703 36.703,47 24,47 11.297,47 1,36.703 1,24 1,11.297 11.297,1 24,1 Z"
         id="path42" />
    </g>
    <g
       transform="matrix(0.85110005,0,0,0.85106383,183.38551,692.96144)"
       id="g46">
      <g
         clip-path="url(#clipPath-769074131)"
         id="g48">
        <g
           transform="translate(1,1)"
           id="g50">
          <g
             style="opacity:0.1"
             id="g52">
            <!-- color: #99c86f -->
            <g
               id="g54">
              <path
                 style="fill:#000000;fill-rule:nonzero;stroke:none"
                 inkscape:connector-curvature="0"
                 d="m 31.996,34.738 c -1.395,0.441 -1.203,0.508 -2.707,0.809 C 27.785,35.852 26.168,36 24.437,36 22.527,36 20.8,35.75 19.261,35.25 17.734,34.738 16.433,33.988 15.351,33 14.269,32 13.437,30.77 12.863,29.305 12.285,27.84 11.996,26.149 11.996,24.227 c 0,-4.094 1.059,-7.148 3.176,-9.172 C 17.297,13.02 20.41,12 24.512,12 c 1.563,0 3.047,0.094 4.453,0.281 1.418,0.184 2.766,0.441 4.04,0.766 L 32.997,18 l -1,0 -0.688,-2.824 c -0.828,-0.57 -1.828,-1.012 -2.992,-1.309 -1.156,-0.316 -2.375,-0.473 -3.66,-0.473 -1.406,0 -2.664,0.191 -3.77,0.578 -1.094,0.371 -2.02,0.98 -2.777,1.828 -0.758,0.852 -1.34,1.965 -1.75,3.352 -0.395,1.371 -0.594,3.051 -0.594,5.04 0,2.01 0.234,3.691 0.703,5.04 0.469,1.34 1.102,2.406 1.895,3.211 0.805,0.801 1.73,1.371 2.777,1.707 1.055,0.34 2.168,0.508 3.336,0.508 0.586,0 1.172,-0.035 1.746,-0.102 0.59,-0.082 1.137,-0.184 1.641,-0.297 0.52,-0.117 0.977,-0.246 1.371,-0.387 0.398,-0.141 0.535,-0.27 0.762,-0.398 l 0,-6.477 -3,-1 0,-1 9,0 0,1 -3,1 0,7.34"
                 id="path56" />
            </g>
          </g>
        </g>
      </g>
    </g>
    <g
       transform="matrix(0.85110005,0,0,0.85106383,183.38551,692.96144)"
       id="g58">
      <g
         clip-path="url(#clipPath-783135790)"
         id="g60">
        <!-- color: #99c86f -->
        <g
           id="g62">
          <path
             style="fill:url(#linear0);fill-rule:nonzero;stroke:none"
             inkscape:connector-curvature="0"
             d="m 31.996,34.738 c -1.395,0.441 -1.203,0.508 -2.707,0.809 C 27.785,35.852 26.168,36 24.437,36 22.527,36 20.8,35.75 19.261,35.25 17.734,34.738 16.433,33.988 15.351,33 14.269,32 13.437,30.77 12.863,29.305 12.285,27.84 11.996,26.149 11.996,24.227 c 0,-4.094 1.059,-7.148 3.176,-9.172 C 17.297,13.02 20.41,12 24.512,12 c 1.563,0 3.047,0.094 4.453,0.281 1.418,0.184 2.766,0.441 4.04,0.766 L 32.997,18 l -1,0 -0.688,-2.824 c -0.828,-0.57 -1.828,-1.012 -2.992,-1.309 -1.156,-0.316 -2.375,-0.473 -3.66,-0.473 -1.406,0 -2.664,0.191 -3.77,0.578 -1.094,0.371 -2.02,0.98 -2.777,1.828 -0.758,0.852 -1.34,1.965 -1.75,3.352 -0.395,1.371 -0.594,3.051 -0.594,5.04 0,2.01 0.234,3.691 0.703,5.04 0.469,1.34 1.102,2.406 1.895,3.211 0.805,0.801 1.73,1.371 2.777,1.707 1.055,0.34 2.168,0.508 3.336,0.508 0.586,0 1.172,-0.035 1.746,-0.102 0.59,-0.082 1.137,-0.184 1.641,-0.297 0.52,-0.117 0.977,-0.246 1.371,-0.387 0.398,-0.141 0.535,-0.27 0.762,-0.398 l 0,-6.477 -3,-1 0,-1 9,0 0,1 -3,1 0,7.34"
             id="path64" />
        </g>
      </g>
    </g>
    <g
       transform="matrix(0.85110005,0,0,0.85106383,183.38551,692.96144)"
       id="g66">
      <path
         style="opacity:0.1"
         inkscape:connector-curvature="0"
         d="m 40.03,7.531 c 3.712,4.084 5.969,9.514 5.969,15.469 0,12.703 -10.297,23 -23,23 C 17.045,46 11.615,43.744 7.53,40.031 11.708,44.322 17.54,47 23.999,47 c 12.703,0 23,-10.298 23,-23 0,-6.462 -2.677,-12.291 -6.969,-16.469 z"
         id="path68" />
    </g>
  </g>
</svg>
