<?xml version="1.0" encoding="UTF-8" standalone="no"?>
<!-- Created using Karbon, part of Calligra: http://www.calligra.org/karbon -->

<svg
   xmlns:dc="http://purl.org/dc/elements/1.1/"
   xmlns:cc="http://creativecommons.org/ns#"
   xmlns:rdf="http://www.w3.org/1999/02/22-rdf-syntax-ns#"
   xmlns:svg="http://www.w3.org/2000/svg"
   xmlns="http://www.w3.org/2000/svg"
   xmlns:sodipodi="http://sodipodi.sourceforge.net/DTD/sodipodi-0.dtd"
   xmlns:inkscape="http://www.inkscape.org/namespaces/inkscape"
   width="38.4pt"
   height="38.4pt"
   id="svg2"
   version="1.1"
   inkscape:version="0.48.5 r10040"
   sodipodi:docname="jabber.svg">
  <metadata
     id="metadata12">
    <rdf:RDF>
      <cc:Work
         rdf:about="">
        <dc:format>image/svg+xml</dc:format>
        <dc:type
           rdf:resource="http://purl.org/dc/dcmitype/StillImage" />
        <dc:title />
      </cc:Work>
    </rdf:RDF>
  </metadata>
  <sodipodi:namedview
     pagecolor="#ffffff"
     bordercolor="#666666"
     borderopacity="1"
     objecttolerance="10"
     gridtolerance="10"
     guidetolerance="10"
     inkscape:pageopacity="0"
     inkscape:pageshadow="2"
     inkscape:window-width="1920"
     inkscape:window-height="1025"
     id="namedview10"
     showgrid="false"
     inkscape:zoom="6.9532164"
     inkscape:cx="12.942197"
     inkscape:cy="24.000001"
     inkscape:window-x="-4"
     inkscape:window-y="39"
     inkscape:window-maximized="1"
     inkscape:current-layer="svg2"
     inkscape:showpageshadow="false"
     borderlayer="true">
    <sodipodi:guide
       position="9.5367432e-07,48.000001"
       orientation="47.999999,0"
       id="guide4062" />
    <sodipodi:guide
       position="9.5367432e-07,1.9073486e-06"
       orientation="0,47.999999"
       id="guide4064" />
    <sodipodi:guide
       position="48,1.9073486e-06"
       orientation="-47.999999,0"
       id="guide4066" />
    <sodipodi:guide
       position="48,48.000001"
       orientation="0,-47.999999"
       id="guide4068" />
    <sodipodi:guide
       position="4.000001,44.000001"
       orientation="39.999999,0"
       id="guide4070" />
    <sodipodi:guide
       position="4.000001,4.0000019"
       orientation="0,39.999999"
       id="guide4072" />
    <sodipodi:guide
       position="44,4.0000019"
       orientation="-39.999999,0"
       id="guide4074" />
    <sodipodi:guide
       position="44,44.000001"
       orientation="0,-39.999999"
       id="guide4076" />
    <sodipodi:guide
       position="15.000001,33.000001"
       orientation="17.999999,0"
       id="guide4080" />
    <sodipodi:guide
       position="15.000001,15.000002"
       orientation="0,17.999999"
       id="guide4082" />
    <sodipodi:guide
       position="33,15.000002"
       orientation="-17.999999,0"
       id="guide4084" />
    <sodipodi:guide
       position="33,33.000001"
       orientation="0,-17.999999"
       id="guide4086" />
  </sodipodi:namedview>
  <defs
     id="defs4" />
  <path
     style="fill:#d23638;fill-rule:evenodd"
     inkscape:connector-curvature="0"
     d="m 43.999086,23.99951 c 0,11.04589 -8.954566,19.99955 -19.999546,19.99955 C 12.95366,43.99906 4,35.04449 4,23.99951 4,12.95363 12.95457,3.99997 23.99954,3.99997 c 11.04589,0 19.999546,8.95457 19.999546,19.99954"
     id="path2030" />
  <path
     style="opacity:0.25"
     inkscape:connector-curvature="0"
     d="m 16.6146,8.61567 c -2.20735,0.0502 -4.64767,0.31329 -6.30684,1.75053 -0.7956,0.68898 -1.19869,2.78907 -0.43699,3.55067 l 5.19202,5.19203 c -0.2846,-0.0908 -0.57961,-0.13988 -0.86924,-0.14025 -0.87444,-0.001 -1.69744,0.43974 -2.02096,1.49042 -0.43901,1.42354 -0.84713,4.55248 0.1131,5.5129 l 6.46582,6.46582 c -0.72533,0.0904 -1.7551,0.56344 -2.25915,0.34425 -0.14691,-0.025 -0.28944,-0.0607 -0.42813,-0.10543 l -3.65191,-3.6519 c -0.16244,-0.14682 -0.36819,-0.24833 -0.57385,-0.22841 -0.0293,0.003 -0.0593,0.009 -0.0885,0.0172 -1.23351,0.77102 -0.44257,2.4322 0.39012,3.2648 l 5.45314,5.45314 c -1.06932,0.0536 -2.15098,-0.27848 -3.14958,-0.80016 L 11.54467,33.8323 c -0.11877,-0.11274 -0.2507,-0.20438 -0.40273,-0.26495 -1.34314,0.75722 -0.63078,2.27642 0.32818,3.23537 L 17.6317,42.9643 C 19.63202,43.63573 21.77322,44 23.99976,44 33.34445,44 41.19077,37.59083 43.387161,28.92954 L 26.23266,11.77503 C 25.25817,10.80055 24.1121,10.01582 22.76796,9.53552 20.80683,8.80808 18.69258,8.61823 16.61552,8.6164"
     id="path2032" />
  <path
     style="fill:#ffffff"
     inkscape:connector-curvature="0"
     d="m 16.6146,8.61567 c -2.20735,0.0502 -4.64767,0.31329 -6.30684,1.75053 -1.05251,0.91145 -1.41778,4.29218 0.69098,3.77698 1.36927,-0.3343 1.73564,-2.30145 3.29184,-2.60962 2.00051,-0.39597 4.05473,-0.4846 6.07022,-0.30836 3.11185,0.40721 6.13965,2.31023 7.32007,5.33383 0.96041,2.45951 1.51645,5.40965 0.0228,7.7915 -1.27334,2.03102 -3.36174,3.27658 -5.09637,4.83945 -1.84902,1.66593 -1.72952,4.43892 -1.70448,6.85229 0.058,5.6006 2.30876,4.80528 1.15347,-0.27126 -0.48697,-2.14001 0.34718,-4.58829 2.33261,-5.74167 2.57097,-1.49288 4.91281,-3.68105 5.8555,-6.60926 0.58382,-1.81329 0.27035,-3.71723 -0.35686,-5.47324 C 28.6311,14.42943 26.43782,10.84696 22.76682,9.53589 20.8057,8.80845 18.69145,8.61859 16.61438,8.61677 M 14.19324,18.9692 c -0.87444,-0.001 -1.69745,0.43974 -2.02097,1.49042 -0.52982,1.71792 -1.01414,5.91992 0.89656,5.79612 2.22525,-0.14435 -0.49721,-3.77881 0.79376,-5.43066 1.68886,-2.16039 1.47279,1.58361 2.43257,2.40104 0.81003,0.68989 3.52326,-2.97572 3.92005,-0.64814 0.37021,2.17172 -4.46221,4.90131 -2.23558,5.87835 1.60782,0.7057 2.27176,-2.64818 3.22606,-4.01434 1.042,-1.49133 1.0167,-5.20591 -1.5932,-4.74526 -1.16964,0.20649 -1.98397,1.26082 -2.68665,2.16131 0.32507,-1.66191 -1.27498,-2.88765 -2.73233,-2.88939 m -2.35545,9.8271 c -0.0293,0.003 -0.0593,0.009 -0.0885,0.0172 -1.36845,0.85534 -0.24522,2.80624 0.66239,3.50654 2.0354,1.65277 4.76645,2.41447 7.07796,1.1478 0.49062,-2.12147 -2.09616,-0.29327 -2.99793,-0.68523 -1.81448,-0.30908 -2.97599,-2.19364 -4.07994,-3.75688 -0.16244,-0.14682 -0.3682,-0.24832 -0.57386,-0.22841 m -0.69664,4.77102 c -1.81997,1.02611 0.1343,3.45145 1.36186,3.98575 2.38003,1.03598 4.98664,2.14486 7.25247,0.56244 0.85955,-0.8347 0.12955,-1.86565 -0.65097,-0.94507 -2.063,0.9309 -4.35623,-0.0455 -6.12412,-1.36763 -0.75585,-0.56517 -0.98033,-1.89315 -1.83824,-2.23558"
     id="path2034" />
</svg>
