<?xml version="1.0" encoding="UTF-8" standalone="no"?>
<!-- Created using Karbon, part of Calligra: http://www.calligra.org/karbon -->

<svg
   xmlns:dc="http://purl.org/dc/elements/1.1/"
   xmlns:cc="http://creativecommons.org/ns#"
   xmlns:rdf="http://www.w3.org/1999/02/22-rdf-syntax-ns#"
   xmlns:svg="http://www.w3.org/2000/svg"
   xmlns="http://www.w3.org/2000/svg"
   xmlns:sodipodi="http://sodipodi.sourceforge.net/DTD/sodipodi-0.dtd"
   xmlns:inkscape="http://www.inkscape.org/namespaces/inkscape"
   width="38.4pt"
   height="38.4pt"
   id="svg2"
   version="1.1"
   inkscape:version="0.48.5 r10040"
   sodipodi:docname="jovie.svg">
  <metadata
     id="metadata11">
    <rdf:RDF>
      <cc:Work
         rdf:about="">
        <dc:format>image/svg+xml</dc:format>
        <dc:type
           rdf:resource="http://purl.org/dc/dcmitype/StillImage" />
        <dc:title />
      </cc:Work>
    </rdf:RDF>
  </metadata>
  <sodipodi:namedview
     pagecolor="#ffffff"
     bordercolor="#666666"
     borderopacity="1"
     objecttolerance="10"
     gridtolerance="10"
     guidetolerance="10"
     inkscape:pageopacity="0"
     inkscape:pageshadow="2"
     inkscape:window-width="1920"
     inkscape:window-height="1025"
     id="namedview9"
     showgrid="false"
     inkscape:showpageshadow="false"
     borderlayer="true"
     inkscape:zoom="6.9532164"
     inkscape:cx="-14.803794"
     inkscape:cy="24.714859"
     inkscape:window-x="-4"
     inkscape:window-y="39"
     inkscape:window-maximized="1"
     inkscape:current-layer="svg2">
    <sodipodi:guide
       position="9.5367432e-07,48.000001"
       orientation="47.999999,0"
       id="guide4069" />
    <sodipodi:guide
       position="9.5367432e-07,1.9073486e-06"
       orientation="0,47.999999"
       id="guide4071" />
    <sodipodi:guide
       position="48,1.9073486e-06"
       orientation="-47.999999,0"
       id="guide4073" />
    <sodipodi:guide
       position="48,48.000001"
       orientation="0,-47.999999"
       id="guide4075" />
    <sodipodi:guide
       position="4.000001,44.000001"
       orientation="39.999999,0"
       id="guide4077" />
    <sodipodi:guide
       position="4.000001,4.0000019"
       orientation="0,39.999999"
       id="guide4079" />
    <sodipodi:guide
       position="44,4.0000019"
       orientation="-39.999999,0"
       id="guide4081" />
    <sodipodi:guide
       position="44,44.000001"
       orientation="0,-39.999999"
       id="guide4083" />
  </sodipodi:namedview>
  <defs
     id="defs4" />
  <path
     style="fill:#0078ad;fill-rule:evenodd"
     inkscape:connector-curvature="0"
     d="M 44,24 C 44,35.04614 35.04523,44 24,44 12.95386,44 4,35.04523 4,24 4,12.95386 12.95477,4 24,4 35.04614,4 44,12.95477 44,24"
     id="path6" />
  <path
     style="fill-opacity:0.23500001"
     inkscape:connector-curvature="0"
     d="m 33.01508,12.15806 c -0.0351,-4.5e-4 -0.0704,10e-4 -0.10562,0.003 -0.25674,0.0131 -0.51732,0.0858 -0.75953,0.22558 h -0.003 l -5.77615,3.3376 h -0.003 c -0.46139,0.26624 -0.74563,0.70945 -0.8137,1.17916 -0.0276,-0.0309 -0.058,-0.062 -0.0914,-0.0914 -0.0363,-0.046 -0.0795,-0.0934 -0.12846,-0.13705 -0.0412,-0.0534 -0.0932,-0.10772 -0.1513,-0.15706 -0.0372,-0.0466 -0.0784,-0.0941 -0.12846,-0.13705 -0.0371,-0.0472 -0.081,-0.0937 -0.13138,-0.13705 -0.0399,-0.0517 -0.087,-0.10479 -0.14281,-0.1513 -0.0371,-0.047 -0.0783,-0.0948 -0.12846,-0.13705 -0.0366,-0.0474 -0.0813,-0.0946 -0.13138,-0.13705 -0.0378,-0.0499 -0.0815,-0.0986 -0.13422,-0.1428 -0.0358,-0.0472 -0.0764,-0.0923 -0.12563,-0.13422 -0.0368,-0.0498 -0.0825,-0.099 -0.13421,-0.1428 -0.0351,-0.0474 -0.0798,-0.0925 -0.12846,-0.13422 -0.0375,-0.0519 -0.0832,-0.1037 -0.13705,-0.14847 -0.0377,-0.0518 -0.0826,-0.1016 -0.13705,-0.14564 -0.0367,-0.0498 -0.0789,-0.0978 -0.13139,-0.13988 -0.038,-0.0518 -0.0818,-0.10251 -0.13705,-0.14563 -0.0356,-0.048 -0.0777,-0.094 -0.12846,-0.13422 -0.035,-0.0481 -0.0754,-0.0969 -0.12562,-0.13705 -0.0349,-0.049 -0.0777,-0.0963 -0.12846,-0.13705 -0.0353,-0.0505 -0.0789,-0.0982 -0.13139,-0.13988 -0.0353,-0.0506 -0.0786,-0.0985 -0.13138,-0.13988 -0.0354,-0.051 -0.078,-0.10151 -0.13139,-0.14281 -0.0333,-0.0476 -0.0763,-0.0923 -0.12563,-0.13138 -0.0991,-0.14792 -0.26505,-0.27127 -0.54819,-0.27127 h -2.17561 c -0.025,-0.002 -0.0513,-0.003 -0.0799,-0.003 h -0.003 c -0.20037,0.004 -0.47666,0.0811 -0.74811,0.48826 h -0.003 l -3.72316,5.58794 h -0.003 c -0.009,0.006 -2.40978,1.4476 -2.40978,1.4476 h -0.003 c -0.95368,0.6053 -0.95934,1.24578 -0.95934,1.25345 v 4.73678 c -9.2e-4,0.0276 0.0236,0.39835 0.4254,0.73641 0.044,0.0491 0.0956,0.0968 0.15422,0.14563 0.0448,0.049 0.095,0.1 0.15423,0.14847 0.0424,0.0455 0.0881,0.0891 0.1428,0.13422 0.0424,0.0456 0.0884,0.0914 0.14281,0.13705 0.0439,0.0472 0.0923,0.0959 0.14847,0.1428 0.0439,0.047 0.0923,0.0963 0.14847,0.14281 0.0443,0.047 0.0923,0.0935 0.14847,0.13988 0.0344,0.0362 0.0726,0.0725 0.1142,0.10854 0.0464,0.0514 0.0994,0.10297 0.15989,0.15423 0.0412,0.0442 0.0884,0.0873 0.13988,0.13138 0.0415,0.0449 0.0853,0.0923 0.13705,0.13705 0.0408,0.0443 0.0892,0.0871 0.13988,0.13138 0.0456,0.0499 0.099,0.0987 0.15706,0.14847 0.0398,0.0426 0.0854,0.086 0.13422,0.12846 0.0446,0.0482 0.0954,0.0973 0.1513,0.14564 0.041,0.0438 0.0869,0.0875 0.13705,0.13139 0.0448,0.048 0.0957,0.0946 0.1513,0.1428 0.0433,0.046 0.0897,0.0939 0.14281,0.13988 0.0431,0.0456 0.0901,0.0914 0.1428,0.13705 0.0412,0.0433 0.0874,0.0851 0.13705,0.12846 0.0461,0.0488 0.0948,0.0994 0.1513,0.14847 0.0428,0.0447 0.0884,0.0894 0.13988,0.13422 0.0473,0.0494 0.0992,0.0989 0.15706,0.14847 0.0436,0.0446 0.0879,0.0894 0.13988,0.13421 0.0345,0.0354 0.0716,0.0729 0.11138,0.10855 0.0416,0.0439 0.0903,0.0867 0.13988,0.13138 0.0434,0.046 0.0907,0.0931 0.1428,0.13988 0.0455,0.0479 0.0965,0.0968 0.15131,0.14564 0.0418,0.0433 0.0877,0.0872 0.13705,0.13138 0.0394,0.0408 0.0824,0.081 0.12846,0.1228 0.0499,0.0523 0.10479,0.10617 0.16564,0.15989 0.0397,0.0404 0.0824,0.0816 0.12846,0.1228 0.0422,0.0434 0.0874,0.0897 0.13705,0.13421 0.0368,0.0377 0.0776,0.0755 0.11996,0.11421 l 0.003,0.003 c 0.009,0.008 0.0169,0.015 0.0257,0.0228 0.046,0.0468 0.0913,0.0947 0.14564,0.14281 0.0351,0.0353 0.0715,0.0723 0.11137,0.10854 0.003,0.003 0.005,0.005 0.009,0.009 0.01,0.009 0.0187,0.0171 0.0286,0.0257 0.029,0.0288 0.0593,0.059 0.0914,0.0885 0.0462,0.0477 0.096,0.0955 0.1513,0.14563 0.0438,0.0445 0.0884,0.0905 0.13988,0.13705 0.0365,0.0368 0.0752,0.0728 0.11704,0.11138 0.0538,0.0552 0.11073,0.11229 0.17707,0.17131 0.002,10e-4 10e-4,0.004 0.003,0.006 l 0.85089,1.28187 c 0.0973,0.16309 0.18922,0.26752 0.27985,0.33696 0.0455,0.0538 0.09,0.097 0.13422,0.13138 0.0485,0.0576 0.0954,0.10407 0.1428,0.13988 0.0452,0.0531 0.0896,0.0972 0.13422,0.13139 0.0463,0.0546 0.0912,0.0992 0.13705,0.13421 0.044,0.052 0.0873,0.0942 0.13138,0.12846 0.0468,0.056 0.0928,0.10096 0.13988,0.13705 0.042,0.0499 0.086,0.0914 0.12847,0.12563 0.046,0.0562 0.0928,0.10014 0.13988,0.13705 0.0449,0.0543 0.0909,0.098 0.13705,0.13422 0.047,0.057 0.0968,0.10278 0.14563,0.13988 0.0435,0.0518 0.0862,0.0963 0.13139,0.13138 0.0455,0.055 0.0923,0.0976 0.13988,0.13422 0.044,0.0532 0.0905,0.0954 0.13705,0.13138 0.0437,0.0531 0.0877,0.0981 0.13421,0.13422 0.0445,0.0545 0.0893,0.10023 0.13705,0.13705 0.0431,0.0526 0.0906,0.0952 0.13705,0.13138 0.0443,0.0546 0.0914,0.10005 0.13988,0.13705 0.0448,0.055 0.0908,0.1027 0.13988,0.13988 0.0444,0.0539 0.0909,0.10041 0.13988,0.13705 0.0447,0.054 0.0932,0.1005 0.14281,0.13705 0.0412,0.0493 0.0828,0.0939 0.12846,0.12846 0.0429,0.0529 0.0887,0.0977 0.13705,0.13422 0.0435,0.054 0.0904,0.0999 0.13988,0.13704 0.0419,0.0518 0.0863,0.0952 0.13422,0.13139 0.0426,0.0537 0.0878,0.0969 0.13705,0.13422 0.0409,0.0519 0.0867,0.0948 0.13421,0.13138 0.0426,0.0552 0.0896,0.0989 0.13988,0.13705 0.0426,0.0549 0.0893,0.099 0.13988,0.13705 0.0413,0.053 0.0878,0.0971 0.13705,0.13421 0.041,0.0534 0.0875,0.0968 0.13705,0.13422 0.0407,0.0534 0.0875,0.0968 0.13705,0.13422 0.0415,0.0551 0.0886,0.1016 0.13988,0.13988 0.0403,0.0529 0.0872,0.0969 0.13705,0.13421 0.0411,0.0548 0.0882,0.0989 0.13988,0.13705 0.0404,0.0537 0.086,0.0994 0.13705,0.13705 0.0398,0.0531 0.0891,0.0969 0.13988,0.13422 0.0414,0.0558 0.089,0.10416 0.14281,0.1428 0.0397,0.0524 0.0858,0.0973 0.13705,0.13422 0.0404,0.0541 0.0869,0.0993 0.13988,0.13705 0.0395,0.0529 0.0849,0.0971 0.13705,0.13422 0.0389,0.0531 0.085,0.0968 0.13705,0.13421 0.0392,0.0541 0.0865,0.10206 0.13988,0.13988 0.039,0.0533 0.0866,0.0997 0.13988,0.13705 0.039,0.0534 0.086,0.0997 0.13988,0.13705 0.0391,0.0537 0.0853,0.0996 0.13988,0.13705 0.0391,0.0538 0.0847,0.0996 0.13988,0.13705 0.0355,0.049 0.0788,0.0904 0.12846,0.12563 0.0378,0.0565 0.0863,0.1037 0.14281,0.1428 0.0375,0.0543 0.0872,0.0992 0.1428,0.13705 0.037,0.0534 0.082,0.0997 0.13705,0.13705 0.0358,0.0522 0.0805,0.0973 0.13422,0.13422 0.0362,0.0545 0.0868,0.099 0.1428,0.13705 0.0361,0.0543 0.0835,0.10205 0.13988,0.13988 0.0349,0.0522 0.0826,0.0946 0.13705,0.13138 0.0354,0.0554 0.0823,0.10151 0.13988,0.13988 0.0344,0.0531 0.0814,0.097 0.13705,0.13422 0.0329,0.0524 0.08,0.0943 0.13422,0.13138 0.0325,0.0545 0.0811,0.099 0.13705,0.13705 8.2e-4,4.6e-4 0.002,0.003 0.003,0.003 0.0335,0.0562 0.0837,0.10398 0.14281,0.14281 0.0333,0.0549 0.0813,0.099 0.13988,0.13705 0.0293,0.0483 0.0727,0.0877 0.12279,0.12279 0.008,0.009 0.0147,0.0143 0.0172,0.0143 0.0302,0.0507 0.0749,0.0923 0.12846,0.12846 0.005,0.004 0.01,0.009 0.0114,0.009 0.0283,0.0474 0.0704,0.0883 0.11996,0.12279 0.01,0.0101 0.0172,0.0172 0.02,0.0172 0.0271,0.0454 0.067,0.0837 0.11421,0.11704 9.1e-4,-1.8e-4 0.002,1.8e-4 0.003,0 9.07629,-1.89365 15.89493,-9.93696 15.89493,-19.57515 0,-0.51585 -0.0187,-1.02723 -0.0571,-1.53321 -0.038,-0.0415 -0.0778,-0.0805 -0.11997,-0.11704 -0.04,-0.0456 -0.0808,-0.0887 -0.12562,-0.12846 -0.0439,-0.0508 -0.0903,-0.0991 -0.13988,-0.14281 -0.0459,-0.0526 -0.0963,-0.10068 -0.14847,-0.14563 -0.0412,-0.0463 -0.0852,-0.0912 -0.13139,-0.13139 -0.0397,-0.045 -0.0813,-0.0863 -0.12563,-0.12563 -0.0439,-0.0508 -0.0903,-0.0991 -0.13988,-0.1428 -0.0436,-0.0501 -0.0906,-0.0969 -0.13988,-0.13988 -0.045,-0.0514 -0.0947,-0.0989 -0.14564,-0.14281 -0.0381,-0.0428 -0.0777,-0.0824 -0.11996,-0.11996 -0.0439,-0.0508 -0.0903,-0.0991 -0.13988,-0.14281 -0.0427,-0.0491 -0.0889,-0.0947 -0.13705,-0.13704 -0.0459,-0.0526 -0.0963,-0.10069 -0.14847,-0.14564 -0.0389,-0.0438 -0.0794,-0.0845 -0.1228,-0.1228 -0.0432,-0.0499 -0.0882,-0.0969 -0.13704,-0.13988 -0.0427,-0.0491 -0.0889,-0.0948 -0.13705,-0.13705 -0.0459,-0.0526 -0.0963,-0.10068 -0.14847,-0.14564 -0.0389,-0.0438 -0.0794,-0.0845 -0.1228,-0.12279 -0.0432,-0.0499 -0.0882,-0.0969 -0.13705,-0.13988 -0.0427,-0.0491 -0.0889,-0.0947 -0.13705,-0.13705 -0.0459,-0.0526 -0.0963,-0.10069 -0.14847,-0.14564 -0.0412,-0.0463 -0.0851,-0.0883 -0.13138,-0.12846 -0.04,-0.0456 -0.0809,-0.0887 -0.12563,-0.12846 -0.0439,-0.0508 -0.0903,-0.0991 -0.13988,-0.1428 -0.0459,-0.0526 -0.0963,-0.10069 -0.14847,-0.14564 -0.0396,-0.0445 -0.0814,-0.0868 -0.12563,-0.12563 -0.0411,-0.0472 -0.0851,-0.0903 -0.13138,-0.13138 -0.0439,-0.0508 -0.0903,-0.0991 -0.13988,-0.14281 -0.0436,-0.0501 -0.0906,-0.0969 -0.13988,-0.13988 -0.0434,-0.0495 -0.0909,-0.0944 -0.13989,-0.13705 -0.0396,-0.045 -0.0813,-0.0863 -0.12562,-0.12563 -0.0439,-0.0508 -0.0903,-0.0991 -0.13988,-0.1428 -0.0427,-0.0491 -0.0889,-0.0947 -0.13705,-0.13705 -0.0459,-0.0526 -0.0963,-0.10069 -0.14847,-0.14564 -0.0389,-0.0438 -0.0794,-0.0845 -0.1228,-0.12279 -0.0432,-0.0499 -0.0882,-0.0969 -0.13705,-0.13989 -0.0427,-0.0491 -0.0889,-0.0947 -0.13705,-0.13704 -0.0459,-0.0526 -0.0963,-0.10069 -0.14847,-0.14564 -0.0389,-0.0438 -0.0794,-0.0845 -0.12279,-0.1228 -0.0432,-0.0499 -0.0882,-0.0969 -0.13705,-0.13988 -0.0427,-0.0491 -0.0889,-0.0947 -0.13705,-0.13705 -0.0459,-0.0526 -0.0963,-0.10068 -0.14847,-0.14563 -0.0412,-0.0463 -0.0851,-0.0884 -0.13138,-0.12847 -0.0416,-0.0473 -0.0818,-0.0932 -0.12846,-0.13421 -0.0427,-0.0491 -0.0889,-0.0948 -0.13705,-0.13705 -0.0459,-0.0526 -0.0963,-0.10069 -0.14847,-0.14564 -0.0412,-0.0463 -0.0852,-0.0883 -0.13139,-0.12846 -0.04,-0.0456 -0.0809,-0.0887 -0.12562,-0.12846 -0.0439,-0.0508 -0.0903,-0.0991 -0.13989,-0.1428 -0.0436,-0.0501 -0.0906,-0.0969 -0.13988,-0.13988 -0.0434,-0.0495 -0.0909,-0.0944 -0.13988,-0.13705 -0.0396,-0.0451 -0.0813,-0.0863 -0.12563,-0.12563 -0.0438,-0.0508 -0.0903,-0.0991 -0.13988,-0.14281 -0.0427,-0.0491 -0.0889,-0.0947 -0.13705,-0.13705 -0.0459,-0.0526 -0.0963,-0.10068 -0.14847,-0.14563 -0.0381,-0.0428 -0.0777,-0.0824 -0.11996,-0.11997 -0.0439,-0.0508 -0.0903,-0.0991 -0.13988,-0.1428 -0.0427,-0.0491 -0.0889,-0.0948 -0.13705,-0.13705 -0.0459,-0.0526 -0.0963,-0.10069 -0.14847,-0.14564 -0.0389,-0.0438 -0.0794,-0.0845 -0.1228,-0.12279 -0.0432,-0.0499 -0.0882,-0.0969 -0.13704,-0.13988 -0.0427,-0.0491 -0.0889,-0.0947 -0.13705,-0.13705 -0.0459,-0.0526 -0.0963,-0.10069 -0.14847,-0.14564 -0.0412,-0.0463 -0.0852,-0.0883 -0.13139,-0.12846 -0.0416,-0.0473 -0.0818,-0.0932 -0.12846,-0.13422 -0.0427,-0.0491 -0.0889,-0.0947 -0.13705,-0.13705 -0.0459,-0.0526 -0.0963,-0.10068 -0.14847,-0.14563 -0.0412,-0.0463 -0.0851,-0.0884 -0.13138,-0.12846 -0.04,-0.0456 -0.0809,-0.0887 -0.12563,-0.12846 -0.0438,-0.0508 -0.0903,-0.0991 -0.13988,-0.14281 -0.0459,-0.0526 -0.0963,-0.10069 -0.14847,-0.14564 -0.0412,-0.0463 -0.0851,-0.0912 -0.13138,-0.13138 -0.28443,-0.32307 -0.69365,-0.50224 -1.12499,-0.50827"
     id="path8" />
  <path
     style="fill:#ffffff"
     inkscape:connector-curvature="0"
     d="m 32.90818,12.1608 c -0.25674,0.0131 -0.51732,0.0858 -0.75953,0.22559 l -5.77889,3.33769 c -0.77488,0.44741 -1.05875,1.39607 -0.63673,2.12709 0.42211,0.73092 1.38648,0.95842 2.16135,0.5111 l 5.7789,-3.33486 c 0.77487,-0.44742 1.05874,-1.39607 0.63672,-2.12709 -0.29017,-0.5026 -0.83709,-0.7683 -1.40191,-0.73952 m -13.15944,1.28735 c -0.20036,0.004 -0.47939,0.081 -0.75093,0.48826 l -3.726,5.58794 -2.41261,1.4476 c -0.95377,0.6053 -0.96217,1.24578 -0.96217,1.25345 v 4.73677 c -0.001,0.0361 0.0427,0.68123 0.95934,1.04788 l 2.41553,0.9651 3.73742,5.60804 c 0.29246,0.49009 0.55459,0.46825 0.78803,0.46825 h 2.06149 c 0.46213,0 0.83654,-0.54756 0.83654,-0.90224 V 14.19762 c 0,-0.11265 -0.0512,-0.74518 -0.691,-0.74518 h -2.17277 c -0.025,-0.002 -0.0542,-0.003 -0.0828,-0.003 m 8.60576,9.24806 c -0.89475,0 -1.61608,0.68049 -1.61608,1.52471 0,0.84413 0.72124,1.52472 1.61608,1.52472 h 6.67245 c 0.89475,0 1.61608,-0.68049 1.61608,-1.52472 0,-0.84412 -0.72124,-1.52471 -1.61608,-1.52471 h -6.67245 m -1.37323,7.25263 c -0.50863,0.0219 -0.98392,0.28259 -1.24769,0.73951 -0.42211,0.73093 -0.13824,1.67977 0.63673,2.12709 l 5.77889,3.33769 c 0.77487,0.44742 1.73961,0.21709 2.16135,-0.51393 0.42211,-0.73093 0.13824,-1.67976 -0.63673,-2.12709 l -5.77889,-3.33486 c -0.29064,-0.16775 -0.6085,-0.24157 -0.91366,-0.22841"
     id="path68" />
</svg>
