<?xml version="1.0" encoding="UTF-8" standalone="no"?>
<!-- Created using Karbon, part of Calligra: http://www.calligra.org/karbon -->

<svg
   xmlns:dc="http://purl.org/dc/elements/1.1/"
   xmlns:cc="http://creativecommons.org/ns#"
   xmlns:rdf="http://www.w3.org/1999/02/22-rdf-syntax-ns#"
   xmlns:svg="http://www.w3.org/2000/svg"
   xmlns="http://www.w3.org/2000/svg"
   xmlns:sodipodi="http://sodipodi.sourceforge.net/DTD/sodipodi-0.dtd"
   xmlns:inkscape="http://www.inkscape.org/namespaces/inkscape"
   width="38.4pt"
   height="38.4pt"
   id="svg2"
   version="1.1"
   inkscape:version="0.48.5 r10040"
   sodipodi:docname="kaudiocreator.svg">
  <metadata
     id="metadata16">
    <rdf:RDF>
      <cc:Work
         rdf:about="">
        <dc:format>image/svg+xml</dc:format>
        <dc:type
           rdf:resource="http://purl.org/dc/dcmitype/StillImage" />
        <dc:title />
      </cc:Work>
    </rdf:RDF>
  </metadata>
  <sodipodi:namedview
     pagecolor="#ffffff"
     bordercolor="#666666"
     borderopacity="1"
     objecttolerance="10"
     gridtolerance="10"
     guidetolerance="10"
     inkscape:pageopacity="0"
     inkscape:pageshadow="2"
     inkscape:window-width="1920"
     inkscape:window-height="1025"
     id="namedview14"
     showgrid="false"
     inkscape:showpageshadow="false"
     borderlayer="true"
     inkscape:zoom="4.9166667"
     inkscape:cx="27.419172"
     inkscape:cy="19.964869"
     inkscape:window-x="-4"
     inkscape:window-y="39"
     inkscape:window-maximized="1"
     inkscape:current-layer="svg2">
    <sodipodi:guide
       position="9.5367432e-07,48.000001"
       orientation="47.999999,0"
       id="guide4074" />
    <sodipodi:guide
       position="9.5367432e-07,1.9073486e-06"
       orientation="0,47.999999"
       id="guide4076" />
    <sodipodi:guide
       position="48,1.9073486e-06"
       orientation="-47.999999,0"
       id="guide4078" />
    <sodipodi:guide
       position="48,48.000001"
       orientation="0,-47.999999"
       id="guide4080" />
    <sodipodi:guide
       position="4.000001,44.000001"
       orientation="39.999999,0"
       id="guide4082" />
    <sodipodi:guide
       position="4.000001,4.0000019"
       orientation="0,39.999999"
       id="guide4084" />
    <sodipodi:guide
       position="44,4.0000019"
       orientation="-39.999999,0"
       id="guide4086" />
    <sodipodi:guide
       position="44,44.000001"
       orientation="0,-39.999999"
       id="guide4088" />
    <sodipodi:guide
       position="11.000001,37.000001"
       orientation="25.999999,0"
       id="guide4121" />
    <sodipodi:guide
       position="11.000001,11.000002"
       orientation="0,25.999999"
       id="guide4123" />
    <sodipodi:guide
       position="37,11.000002"
       orientation="-25.999999,0"
       id="guide4125" />
    <sodipodi:guide
       position="37,37.000001"
       orientation="0,-25.999999"
       id="guide4127" />
  </sodipodi:namedview>
  <defs
     id="defs4" />
  <path
     style="fill:#68af4c;fill-rule:evenodd"
     inkscape:connector-curvature="0"
     d="M 44,24 C 44,35.04614 35.045226,44 24,44 12.95386,44 4,35.04523 4,24 4,12.95386 12.954774,4 24,4 35.04614,4 44,12.95477 44,24"
     id="path162" />
  <path
     style="fill-opacity:0.23500001;fill-rule:evenodd"
     inkscape:connector-curvature="0"
     d="m 23.955231,10.53632 c -6.582002,0.0262 -12.603929,5.42622 -13.304706,11.98629 -0.670355,4.65601 1.37323,9.39242 4.888077,12.43399 3.016902,3.00512 6.022658,6.0201 9.030608,9.03426 C 35.159434,43.6942 43.69027,35.16583 43.98995,24.57561 40.388305,20.9587 36.790315,17.33668 33.129283,13.78346 c -2.447511,-2.08533 -5.643582,-3.2571 -8.859754,-3.24349 -0.104705,-0.002 -0.209593,-0.003 -0.314116,-0.003"
     id="path164" />
  <path
     style="fill:#ffffff"
     inkscape:connector-curvature="0"
     id="path380"
     d="m 24.269529,10.53906 c -7.583189,0 -13.730469,6.1471 -13.730469,13.73047 0,7.58319 6.147098,13.73047 13.730469,13.73047 0.0984,0 0.196163,-0.004 0.294107,-0.006 -0.01297,-0.10717 -0.02284,-0.2148 -0.02284,-0.32553 0,-1.11284 0.67958,-2.05601 1.587483,-2.66058 0.907903,-0.60502 2.078118,-0.93933 3.354865,-0.93933 0.625948,0 1.220283,0.088 1.773047,0.24267 v -12.3344 h 2.258474 v 0.003 c 0.0081,9e-5 1.800457,0.0209 3.588854,1.35624 0.299863,0.22393 0.599543,0.48624 0.89365,0.78803 -0.0783,-7.51576 -6.193057,-13.5852 -13.72773,-13.5852 m 4.731019,1.636 c 1.622293,0.63389 3.143627,1.60466 4.454088,2.91512 1.102787,1.10278 1.968845,2.35587 2.592508,3.69209 l -8.022841,4.63116 C 27.867429,22.7315 27.5217,22.0828 26.99059,21.55169 26.437826,20.99892 25.758612,20.65109 25.046232,20.50381 l 3.954317,-8.32891 m -4.730927,8.87985 c 1.774052,0 3.212426,1.43846 3.212426,3.21243 0,1.77405 -1.438465,3.21242 -3.212426,3.21242 -1.774053,0 -3.212426,-1.43846 -3.212426,-3.21242 0,-1.77406 1.438465,-3.21243 3.212426,-3.21243 m 0,0.71092 c -1.381453,0 -2.501143,1.11996 -2.501143,2.50114 0,1.38145 1.119964,2.50114 2.501143,2.50114 1.381453,0 2.501142,-1.11996 2.501142,-2.50114 0,-1.38145 -1.119964,-2.50114 -2.501142,-2.50114 m 0,0.73641 c 0.974966,0 1.76455,0.78958 1.76455,1.76455 0,0.97496 -0.789584,1.76455 -1.76455,1.76455 -0.974966,0 -1.764551,-0.78959 -1.764551,-1.76455 0,-0.97497 0.789585,-1.76455 1.764551,-1.76455 m -3.788854,2.61535 c 0.02942,0.12782 0.06597,0.25472 0.108543,0.37971 0.01416,0.0417 0.02723,0.0815 0.04285,0.1228 0.12508,0.33056 0.297579,0.64596 0.516766,0.93933 0.02732,0.0365 0.05409,0.0727 0.08278,0.10854 0.08671,0.10782 0.179808,0.21115 0.279853,0.3112 0.172773,0.17277 0.356236,0.32371 0.550937,0.45683 0.03892,0.0266 0.07739,0.0549 0.11704,0.0799 0.159159,0.10041 0.324623,0.18785 0.493924,0.26268 0.08433,0.0374 0.167839,0.069 0.254089,0.1 0.129374,0.0465 0.264139,0.0876 0.396893,0.11997 0.04422,0.0108 0.08689,0.0194 0.131385,0.0286 l -3.954318,8.32892 c -0.102056,-0.0399 -0.204203,-0.0773 -0.305527,-0.11996 -0.100594,-0.0422 -0.200092,-0.0865 -0.299772,-0.13139 -0.200366,-0.0903 -0.394609,-0.18456 -0.591046,-0.28551 -0.09712,-0.0498 -0.195158,-0.10462 -0.291275,-0.15706 -8.22e-4,-2.8e-4 -0.0022,2.7e-4 -0.0028,0 -0.09676,-0.0528 -0.189858,-0.10443 -0.285519,-0.15989 -0.191868,-0.11129 -0.380995,-0.22641 -0.568204,-0.34838 -0.09328,-0.0608 -0.185108,-0.12216 -0.276839,-0.18557 -0.369118,-0.2539 -0.726816,-0.52855 -1.07355,-0.82503 -0.08607,-0.0736 -0.172407,-0.14938 -0.257012,-0.22558 -4.57e-4,-4.6e-4 -0.0024,4.5e-4 -0.0028,0 -0.08506,-0.0766 -0.167748,-0.15487 -0.251257,-0.23417 -0.08351,-0.0792 -0.16656,-0.16072 -0.248423,-0.24267 -0.414162,-0.41416 -0.7926,-0.84916 -1.139242,-1.30197 -0.05765,-0.0754 -0.112654,-0.1492 -0.168479,-0.22558 -0.502604,-0.68707 -0.930927,-1.41261 -1.281864,-2.16427 l 8.022842,-4.63116 m 13.945181,2.68104 v 5.70763 c 1.100959,-1.20932 1.988396,-2.61507 2.603928,-4.15998 -0.02284,-0.0249 -0.0455,-0.0498 -0.06852,-0.0743 -0.783828,-0.8328 -1.583372,-1.38566 -2.535404,-1.47282" />
  <path
     style="fill:#ffffff"
     inkscape:connector-curvature="0"
     id="path462"
     d="m 33.513933,22.89173 h -1.343536 v 12.78575 c -0.71375,-0.42896 -1.650068,-0.6963 -2.687071,-0.6963 -2.224304,0 -4.029237,1.20164 -4.029237,2.68707 0,1.48543 1.805207,2.68707 4.029237,2.68707 2.224303,0 4.029237,-1.20164 4.029237,-2.68707 V 26.92179 c 3.358337,-0.54573 5.373047,3.35834 6.716309,5.37305 -0.839288,-9.40247 -6.716309,-9.40247 -6.716309,-9.40247" />
</svg>
