<?xml version="1.0" encoding="UTF-8" standalone="no"?>
<!-- Created with Inkscape (http://www.inkscape.org/) -->

<svg
   xmlns:sketch="http://www.bohemiancoding.com/sketch/ns"
   xmlns:dc="http://purl.org/dc/elements/1.1/"
   xmlns:cc="http://creativecommons.org/ns#"
   xmlns:rdf="http://www.w3.org/1999/02/22-rdf-syntax-ns#"
   xmlns:svg="http://www.w3.org/2000/svg"
   xmlns="http://www.w3.org/2000/svg"
   xmlns:xlink="http://www.w3.org/1999/xlink"
   xmlns:sodipodi="http://sodipodi.sourceforge.net/DTD/sodipodi-0.dtd"
   xmlns:inkscape="http://www.inkscape.org/namespaces/inkscape"
   version="1.0"
   width="96"
   height="96"
   id="svg2408"
   style="display:inline"
   inkscape:version="0.48.4 r9939"
   sodipodi:docname="kdepim-googledrive.svg">
  <sodipodi:namedview
     pagecolor="#ffffff"
     bordercolor="#666666"
     borderopacity="1"
     objecttolerance="10"
     gridtolerance="10"
     guidetolerance="10"
     inkscape:pageopacity="0"
     inkscape:pageshadow="2"
     inkscape:window-width="1680"
     inkscape:window-height="991"
     id="namedview290"
     showgrid="false"
     inkscape:zoom="10.955374"
     inkscape:cx="55.716947"
     inkscape:cy="27.557252"
     inkscape:window-x="0"
     inkscape:window-y="-3"
     inkscape:window-maximized="1"
     inkscape:current-layer="svg2408" />
  <defs
     id="defs2410">
    <linearGradient
       id="linearGradient3778">
      <stop
         id="stop3780"
         style="stop-color:#1e74af;stop-opacity:1"
         offset="0" />
      <stop
         id="stop3782"
         style="stop-color:#84c0ea;stop-opacity:1"
         offset="1" />
    </linearGradient>
    <linearGradient
       id="linearGradient4426">
      <stop
         id="stop4428"
         style="stop-color:#71461e;stop-opacity:1"
         offset="0" />
      <stop
         id="stop4430"
         style="stop-color:#71461e;stop-opacity:0"
         offset="1" />
    </linearGradient>
    <linearGradient
       id="linearGradient4414">
      <stop
         id="stop4416"
         style="stop-color:#dac3a2;stop-opacity:1"
         offset="0" />
      <stop
         id="stop4418"
         style="stop-color:#dac3a2;stop-opacity:0"
         offset="1" />
    </linearGradient>
    <linearGradient
       id="linearGradient4370">
      <stop
         id="stop4372"
         style="stop-color:#8a5b30;stop-opacity:1"
         offset="0" />
      <stop
         id="stop4374"
         style="stop-color:#8a5b30;stop-opacity:0"
         offset="1" />
    </linearGradient>
    <linearGradient
       id="linearGradient4295">
      <stop
         id="stop4297"
         style="stop-color:#b88f56;stop-opacity:1"
         offset="0" />
      <stop
         id="stop4299"
         style="stop-color:#d9bd98;stop-opacity:1"
         offset="1" />
    </linearGradient>
    <linearGradient
       id="linearGradient4289">
      <stop
         id="stop4291"
         style="stop-color:#996c3b;stop-opacity:1"
         offset="0" />
      <stop
         id="stop4293"
         style="stop-color:#c19e6d;stop-opacity:1"
         offset="1" />
    </linearGradient>
    <linearGradient
       id="linearGradient5092">
      <stop
         id="stop5094"
         style="stop-color:#be9f6a;stop-opacity:1"
         offset="0" />
      <stop
         id="stop5096"
         style="stop-color:#e5d2b2;stop-opacity:1"
         offset="1" />
    </linearGradient>
    <linearGradient
       id="linearGradient5010">
      <stop
         id="stop5012"
         style="stop-color:#000000;stop-opacity:1"
         offset="0" />
      <stop
         id="stop5014"
         style="stop-color:#000000;stop-opacity:0"
         offset="1" />
    </linearGradient>
    <linearGradient
       x1="45.447727"
       y1="92.539597"
       x2="45.447727"
       y2="7.0165396"
       id="ButtonShadow"
       gradientUnits="userSpaceOnUse"
       gradientTransform="scale(1.0058652,0.994169)">
      <stop
         id="stop3750"
         style="stop-color:#000000;stop-opacity:1"
         offset="0" />
      <stop
         id="stop3752"
         style="stop-color:#000000;stop-opacity:0.58823532"
         offset="1" />
    </linearGradient>
    <linearGradient
       id="linearGradient3737">
      <stop
         id="stop3739"
         style="stop-color:#ffffff;stop-opacity:1"
         offset="0" />
      <stop
         id="stop3741"
         style="stop-color:#ffffff;stop-opacity:0"
         offset="1" />
    </linearGradient>
    <linearGradient
       x1="54.187183"
       y1="90"
       x2="54.187183"
       y2="39.852562"
       id="linearGradient3706"
       xlink:href="#linearGradient4289"
       gradientUnits="userSpaceOnUse" />
    <filter
       color-interpolation-filters="sRGB"
       id="filter3174">
      <feGaussianBlur
         id="feGaussianBlur3176"
         stdDeviation="1.71" />
    </filter>
    <filter
       x="-0.31155673"
       y="-0.42628157"
       width="1.6231135"
       height="1.8525631"
       color-interpolation-filters="sRGB"
       id="filter4362">
      <feGaussianBlur
         id="feGaussianBlur4364"
         stdDeviation="6.2124381" />
    </filter>
    <linearGradient
       x1="47.079498"
       y1="32.782871"
       x2="6.5962563"
       y2="9.4098616"
       id="linearGradient5100"
       xlink:href="#linearGradient5092"
       gradientUnits="userSpaceOnUse" />
    <linearGradient
       x1="48"
       y1="42"
       x2="6.7812738"
       y2="18.202358"
       id="linearGradient2489"
       xlink:href="#linearGradient4295"
       gradientUnits="userSpaceOnUse" />
    <linearGradient
       x1="47.226776"
       y1="29.039698"
       x2="6.3304405"
       y2="18.081558"
       id="linearGradient3264"
       xlink:href="#linearGradient4295"
       gradientUnits="userSpaceOnUse"
       gradientTransform="matrix(-1,0,0,1,96,0)" />
    <linearGradient
       x1="23.142857"
       y1="42"
       x2="66.964287"
       y2="6"
       id="linearGradient3285"
       xlink:href="#linearGradient3737"
       gradientUnits="userSpaceOnUse" />
    <linearGradient
       x1="8"
       y1="38.127232"
       x2="8"
       y2="71.877235"
       id="linearGradient4376"
       xlink:href="#linearGradient4370"
       gradientUnits="userSpaceOnUse" />
    <linearGradient
       x1="10"
       y1="40.263424"
       x2="10"
       y2="89.666374"
       id="linearGradient4394"
       xlink:href="#linearGradient3737"
       gradientUnits="userSpaceOnUse" />
    <linearGradient
       x1="8"
       y1="38.127232"
       x2="8"
       y2="87.029526"
       id="linearGradient4400"
       xlink:href="#linearGradient4370"
       gradientUnits="userSpaceOnUse"
       gradientTransform="matrix(-1,0,0,1,96,0)" />
    <linearGradient
       x1="10"
       y1="40.263424"
       x2="10"
       y2="89.666374"
       id="linearGradient4402"
       xlink:href="#linearGradient3737"
       gradientUnits="userSpaceOnUse"
       gradientTransform="matrix(-1,0,0,1,96,0)" />
    <linearGradient
       x1="8.9651041"
       y1="44.040279"
       x2="8.9651041"
       y2="52.263294"
       id="linearGradient4420"
       xlink:href="#linearGradient4414"
       gradientUnits="userSpaceOnUse" />
    <linearGradient
       x1="8.9651041"
       y1="44.040279"
       x2="8.9651041"
       y2="52.263294"
       id="linearGradient4424"
       xlink:href="#linearGradient4414"
       gradientUnits="userSpaceOnUse"
       gradientTransform="matrix(-1,0,0,1,96.086934,0)" />
    <radialGradient
       cx="48"
       cy="73.14563"
       r="42"
       fx="48"
       fy="73.14563"
       id="radialGradient4432"
       xlink:href="#linearGradient4426"
       gradientUnits="userSpaceOnUse"
       gradientTransform="matrix(0.867765,0,0,0.09523809,6.3472804,36.190476)" />
    <linearGradient
       x1="65.262688"
       y1="64.205269"
       x2="65.262688"
       y2="50.068527"
       id="linearGradient3832"
       xlink:href="#linearGradient3737"
       gradientUnits="userSpaceOnUse"
       gradientTransform="matrix(0.625,0,0,0.625,28.5,31.25)" />
    <linearGradient
       id="linearGradient3737-4">
      <stop
         id="stop3739-1"
         style="stop-color:#ffffff;stop-opacity:1"
         offset="0" />
      <stop
         id="stop3741-8"
         style="stop-color:#ffffff;stop-opacity:0"
         offset="1" />
    </linearGradient>
    <radialGradient
       cx="48"
       cy="90.171875"
       r="42"
       fx="48"
       fy="90.171875"
       id="radialGradient2858"
       xlink:href="#linearGradient3737-4"
       gradientUnits="userSpaceOnUse"
       gradientTransform="matrix(1.1573129,0,0,0.99590774,-7.551021,0.1971319)" />
    <linearGradient
       x1="56"
       y1="72"
       x2="88"
       y2="72"
       id="linearGradient3773"
       xlink:href="#linearGradient3778"
       gradientUnits="userSpaceOnUse"
       gradientTransform="matrix(0.9375,0,0,0.9375,-140.5,3.5)" />
    <linearGradient
       x1="70"
       y1="54"
       x2="70"
       y2="75.095024"
       id="linearGradient3788"
       xlink:href="#linearGradient3737"
       gradientUnits="userSpaceOnUse"
       gradientTransform="translate(0,4)" />
    <filter
       color-interpolation-filters="sRGB"
       id="filter3806">
      <feGaussianBlur
         id="feGaussianBlur3808"
         stdDeviation="1.2" />
    </filter>
    <linearGradient
       x1="65.262688"
       y1="64.205269"
       x2="65.262688"
       y2="50.068527"
       id="linearGradient3812"
       xlink:href="#linearGradient5010"
       gradientUnits="userSpaceOnUse"
       gradientTransform="matrix(0.625,0,0,0.625,78.5,32.25)" />
    <clipPath
       id="clipPath3823">
      <path
         d="M 108.8125,58 C 107.25437,58 106,59.254375 106,60.8125 l 0,24.375 C 106,86.745625 107.25437,88 108.8125,88 l 24.375,0 C 134.74562,88 136,86.745625 136,85.1875 l 0,-24.375 C 136,59.254375 134.74562,58 133.1875,58 l -24.375,0 z m 7.1875,4.5 10,0 0,8.75 5,0 -10,13.75 -10,-13.75 5,0 0,-8.75 z"
         inkscape:connector-curvature="0"
         id="path3825"
         style="fill:#ffffff;fill-opacity:1;stroke:none" />
    </clipPath>
    <filter
       color-interpolation-filters="sRGB"
       id="filter3831">
      <feGaussianBlur
         id="feGaussianBlur3833"
         stdDeviation="0.6375" />
    </filter>
    <linearGradient
       x1="51.42857"
       y1="72.785713"
       x2="90.714287"
       y2="72.785713"
       id="linearGradient3844"
       xlink:href="#linearGradient3778"
       gradientUnits="userSpaceOnUse" />
    <clipPath
       id="clipPath3871">
      <path
         d="M 0,95.999997 0,156 l 96.000001,0 0,-60.000003 -96.000001,0 z M 68,116 c 9.941125,0 18,8.05888 18,18 0,9.94112 -8.058875,18 -18,18 -9.941125,0 -18,-8.05888 -18,-18 0,-9.94112 8.058875,-18 18,-18 z"
         inkscape:connector-curvature="0"
         id="path3873"
         style="fill:#ffffff;fill-opacity:1;stroke:none" />
    </clipPath>
    <filter
       color-interpolation-filters="sRGB"
       id="filter3866">
      <feGaussianBlur
         id="feGaussianBlur3868"
         stdDeviation="1.44" />
    </filter>
    <linearGradient
       x1="64.321426"
       y1="55.310268"
       x2="64.321426"
       y2="84.889679"
       id="linearGradient3857-6"
       xlink:href="#linearGradient3737-1"
       gradientUnits="userSpaceOnUse"
       gradientTransform="translate(-2,0)" />
    <linearGradient
       id="linearGradient3737-1">
      <stop
         id="stop3739-5"
         style="stop-color:#ffffff;stop-opacity:1"
         offset="0" />
      <stop
         id="stop3741-9"
         style="stop-color:#ffffff;stop-opacity:0"
         offset="1" />
    </linearGradient>
    <linearGradient
       id="linearGradient2312">
      <stop
         id="stop2314"
         style="stop-color:#e3ebf3;stop-opacity:1"
         offset="0" />
      <stop
         id="stop2316"
         style="stop-color:#cedceb;stop-opacity:0.39215687"
         offset="1" />
    </linearGradient>
    <radialGradient
       cx="22.109167"
       cy="19.780535"
       r="19.18985"
       fx="22.109167"
       fy="19.780535"
       id="radialGradient3146"
       xlink:href="#linearGradient2312"
       gradientUnits="userSpaceOnUse"
       gradientTransform="matrix(0.94406626,0,0,0.88116978,44.405871,53.026474)" />
    <radialGradient
       cx="59.893993"
       cy="61.92226"
       r="33.71384"
       fx="59.893993"
       fy="61.92226"
       id="radialGradient3348"
       xlink:href="#linearGradient3342"
       gradientUnits="userSpaceOnUse"
       gradientTransform="matrix(1,0,0,0.8375435,0,10.059672)" />
    <linearGradient
       id="linearGradient3342">
      <stop
         id="stop3344"
         style="stop-color:#000000;stop-opacity:0"
         offset="0" />
      <stop
         id="stop3350"
         style="stop-color:#000000;stop-opacity:0"
         offset="0.85000002" />
      <stop
         id="stop3346"
         style="stop-color:#000000;stop-opacity:1"
         offset="1" />
    </linearGradient>
    <linearGradient
       x1="26.180153"
       y1="61.92226"
       x2="93.607834"
       y2="61.92226"
       id="linearGradient3336"
       xlink:href="#linearGradient3330"
       gradientUnits="userSpaceOnUse" />
    <linearGradient
       id="linearGradient3330">
      <stop
         id="stop3332"
         style="stop-color:#ffffff;stop-opacity:0.203125"
         offset="0" />
      <stop
         id="stop3334"
         style="stop-color:#ffffff;stop-opacity:0.6796875"
         offset="1" />
    </linearGradient>
    <linearGradient
       x1="25.220379"
       y1="61.92226"
       x2="94.567612"
       y2="61.92226"
       id="linearGradient3368"
       xlink:href="#linearGradient3362"
       gradientUnits="userSpaceOnUse" />
    <linearGradient
       id="linearGradient3362">
      <stop
         id="stop3364"
         style="stop-color:#4d4d4d;stop-opacity:1"
         offset="0" />
      <stop
         id="stop3366"
         style="stop-color:#ffffff;stop-opacity:1"
         offset="1" />
    </linearGradient>
    <linearGradient
       x1="73.015572"
       y1="89.130737"
       x2="73.015572"
       y2="34.606899"
       id="linearGradient3178"
       xlink:href="#ButtonColor"
       gradientUnits="userSpaceOnUse"
       gradientTransform="matrix(1.8050811,0,0,2.1684415,-44.113515,-70.274799)" />
    <linearGradient
       x1="58.650177"
       y1="122"
       x2="58.650177"
       y2="5.4252338"
       id="ButtonColor"
       gradientUnits="userSpaceOnUse"
       gradientTransform="matrix(1.0172414,0,0,1.0172414,-1.1034483,-1.1034483)">
      <stop
         id="stop3189"
         style="stop-color:#b8abbd;stop-opacity:1"
         offset="0" />
      <stop
         id="stop3191"
         style="stop-color:#dddbde;stop-opacity:1"
         offset="1" />
    </linearGradient>
    <linearGradient
       x1="5"
       y1="64"
       x2="123"
       y2="64"
       id="linearGradient3239"
       xlink:href="#linearGradient3233"
       gradientUnits="userSpaceOnUse"
       gradientTransform="matrix(0.8660254,0.5,-0.5,0.8660254,40.574374,-23.072269)" />
    <linearGradient
       id="linearGradient3233">
      <stop
         id="stop3235"
         style="stop-color:#ffffff;stop-opacity:0"
         offset="0" />
      <stop
         id="stop3297"
         style="stop-color:#ffffff;stop-opacity:0"
         offset="0.15000001" />
      <stop
         id="stop3241"
         style="stop-color:#ffffff;stop-opacity:1"
         offset="0.5" />
      <stop
         id="stop3299"
         style="stop-color:#ffffff;stop-opacity:0"
         offset="0.85000002" />
      <stop
         id="stop3237"
         style="stop-color:#ffffff;stop-opacity:0"
         offset="1" />
    </linearGradient>
    <clipPath
       id="clipPath3271">
      <rect
         width="118"
         height="59"
         x="5"
         y="160.00336"
         id="rect3273"
         style="fill:#ffffff;fill-opacity:1;fill-rule:evenodd;stroke:none" />
    </clipPath>
    <linearGradient
       x1="5"
       y1="64"
       x2="123"
       y2="64"
       id="linearGradient3299"
       xlink:href="#linearGradient3236"
       gradientUnits="userSpaceOnUse"
       gradientTransform="matrix(-0.9850397,0.171492,-0.171492,-0.9850397,138.01803,271.06706)" />
    <linearGradient
       id="linearGradient3236">
      <stop
         id="stop3238"
         style="stop-color:#ffffff;stop-opacity:0"
         offset="0" />
      <stop
         id="stop3240"
         style="stop-color:#fffc2b;stop-opacity:0.234375"
         offset="0.34999999" />
      <stop
         id="stop3242"
         style="stop-color:#46d15d;stop-opacity:0.21875"
         offset="0.5" />
      <stop
         id="stop3244"
         style="stop-color:#46d1aa;stop-opacity:0"
         offset="0.64999998" />
      <stop
         id="stop3246"
         style="stop-color:#ffffff;stop-opacity:0"
         offset="1" />
    </linearGradient>
    <linearGradient
       x1="5"
       y1="64"
       x2="123"
       y2="64"
       id="linearGradient3301"
       xlink:href="#linearGradient3265"
       gradientUnits="userSpaceOnUse"
       gradientTransform="matrix(-0.8529965,0.5216416,-0.5216416,-0.8529964,151.97682,240.20671)" />
    <linearGradient
       id="linearGradient3265">
      <stop
         id="stop3267"
         style="stop-color:#ffffff;stop-opacity:0"
         offset="0" />
      <stop
         id="stop3252"
         style="stop-color:#afcff3;stop-opacity:0"
         offset="0.2" />
      <stop
         id="stop3269"
         style="stop-color:#60a0e7;stop-opacity:0.1484375"
         offset="0.34999999" />
      <stop
         id="stop3271"
         style="stop-color:#db8ef1;stop-opacity:0.2109375"
         offset="0.5" />
      <stop
         id="stop3273"
         style="stop-color:#ffffff;stop-opacity:0"
         offset="0.64999998" />
      <stop
         id="stop3275"
         style="stop-color:#ffffff;stop-opacity:0"
         offset="1" />
    </linearGradient>
    <linearGradient
       x1="5"
       y1="64"
       x2="123"
       y2="64"
       id="linearGradient3303"
       xlink:href="#linearGradient3247"
       gradientUnits="userSpaceOnUse"
       gradientTransform="matrix(-0.881451,-0.4719713,0.4719713,-0.881451,90.206697,305.61903)" />
    <linearGradient
       id="linearGradient3247">
      <stop
         id="stop3249"
         style="stop-color:#ffffff;stop-opacity:0"
         offset="0" />
      <stop
         id="stop3293"
         style="stop-color:#d5d5d5;stop-opacity:0"
         offset="0.30000001" />
      <stop
         id="stop3251"
         style="stop-color:#eb8888;stop-opacity:0.2578125"
         offset="0.5" />
      <stop
         id="stop3295"
         style="stop-color:#e28f25;stop-opacity:0"
         offset="0.69999999" />
      <stop
         id="stop3253"
         style="stop-color:#ffffff;stop-opacity:0"
         offset="1" />
    </linearGradient>
    <linearGradient
       x1="5"
       y1="64"
       x2="123"
       y2="64"
       id="linearGradient3305"
       xlink:href="#linearGradient3236"
       gradientUnits="userSpaceOnUse"
       gradientTransform="matrix(-0.9850397,0.171492,-0.171492,-0.9850397,138.01803,271.06706)" />
    <linearGradient
       x1="5"
       y1="64"
       x2="123"
       y2="64"
       id="linearGradient3307"
       xlink:href="#linearGradient3265"
       gradientUnits="userSpaceOnUse"
       gradientTransform="matrix(-0.8529965,0.5216416,-0.5216416,-0.8529964,151.97682,240.20671)" />
    <linearGradient
       x1="5"
       y1="64"
       x2="123"
       y2="64"
       id="linearGradient3309"
       xlink:href="#linearGradient3247"
       gradientUnits="userSpaceOnUse"
       gradientTransform="matrix(-0.881451,-0.4719713,0.4719713,-0.881451,90.206697,305.61903)" />
    <linearGradient
       x1="64.321426"
       y1="55.310268"
       x2="64.321426"
       y2="84.889679"
       id="linearGradient3857-6-8"
       xlink:href="#linearGradient3737-1-4"
       gradientUnits="userSpaceOnUse"
       gradientTransform="translate(-2,0)" />
    <linearGradient
       id="linearGradient3737-1-4">
      <stop
         id="stop3739-5-6"
         style="stop-color:#ffffff;stop-opacity:1"
         offset="0" />
      <stop
         id="stop3741-9-6"
         style="stop-color:#ffffff;stop-opacity:0"
         offset="1" />
    </linearGradient>
    <linearGradient
       x1="45.447727"
       y1="92.539597"
       x2="45.447727"
       y2="7.0165396"
       id="ButtonShadow-0"
       gradientUnits="userSpaceOnUse"
       gradientTransform="matrix(1.0058652,0,0,0.994169,100,0)">
      <stop
         id="stop3750-8"
         style="stop-color:#000000;stop-opacity:1"
         offset="0" />
      <stop
         id="stop3752-5"
         style="stop-color:#000000;stop-opacity:0.58823532"
         offset="1" />
    </linearGradient>
    <linearGradient
       x1="32.251034"
       y1="6.1317081"
       x2="32.251034"
       y2="90.238609"
       id="linearGradient3780"
       xlink:href="#ButtonShadow-0"
       gradientUnits="userSpaceOnUse"
       gradientTransform="matrix(1.0238095,0,0,1.0119048,-1.1428571,-98.071429)" />
    <linearGradient
       x1="32.251034"
       y1="6.1317081"
       x2="32.251034"
       y2="90.238609"
       id="linearGradient3772"
       xlink:href="#ButtonShadow-0"
       gradientUnits="userSpaceOnUse"
       gradientTransform="matrix(1.0238095,0,0,1.0119048,-1.1428571,-98.071429)" />
    <linearGradient
       x1="32.251034"
       y1="6.1317081"
       x2="32.251034"
       y2="90.238609"
       id="linearGradient3725"
       xlink:href="#ButtonShadow-0"
       gradientUnits="userSpaceOnUse"
       gradientTransform="matrix(1.0238095,0,0,1.0119048,-1.1428571,-98.071429)" />
    <linearGradient
       x1="32.251034"
       y1="6.1317081"
       x2="32.251034"
       y2="90.238609"
       id="linearGradient3721"
       xlink:href="#ButtonShadow-0"
       gradientUnits="userSpaceOnUse"
       gradientTransform="translate(0,-97)" />
    <linearGradient
       x1="32.251034"
       y1="6.1317081"
       x2="32.251034"
       y2="90.238609"
       id="linearGradient2918"
       xlink:href="#ButtonShadow-0"
       gradientUnits="userSpaceOnUse"
       gradientTransform="matrix(1.0238095,0,0,1.0119048,-1.1428571,-98.071429)" />
    <linearGradient
       x1="50.499405"
       y1="19.881863"
       x2="49.843582"
       y2="49.04427"
       id="linearGradient3277-4"
       xlink:href="#linearGradient4309-0"
       gradientUnits="userSpaceOnUse"
       gradientTransform="matrix(1.0200612,0,0,1.0200612,-5.2981966,5.7562054)" />
    <linearGradient
       x1="52.25"
       y1="47.247101"
       x2="52.25"
       y2="0.2393"
       id="linearGradient4309-0"
       gradientUnits="userSpaceOnUse">
      <stop
         id="stop4311-0"
         style="stop-color:#d8cab2;stop-opacity:1"
         offset="0" />
      <stop
         id="stop4321-6"
         style="stop-color:#d2b98c;stop-opacity:1"
         offset="0.45710954" />
      <stop
         id="stop4323-2"
         style="stop-color:#f9f7ef;stop-opacity:1"
         offset="0.48590001" />
      <stop
         id="stop4325-6"
         style="stop-color:#ffffff;stop-opacity:1"
         offset="0.49110001" />
      <stop
         id="stop4327-6"
         style="stop-color:#fbf9f4;stop-opacity:1"
         offset="0.49180001" />
      <stop
         id="stop4329-8"
         style="stop-color:#efe7d0;stop-opacity:1"
         offset="0.4946" />
      <stop
         id="stop4331-3"
         style="stop-color:#e4d6b0;stop-opacity:1"
         offset="0.49770001" />
      <stop
         id="stop4333-3"
         style="stop-color:#dac894;stop-opacity:1"
         offset="0.5011" />
      <stop
         id="stop4335-4"
         style="stop-color:#c7a572;stop-opacity:1"
         offset="0.50489998" />
      <stop
         id="stop4347-8"
         style="stop-color:#d7c198;stop-opacity:1"
         offset="1" />
    </linearGradient>
    <linearGradient
       x1="46.795631"
       y1="60.307007"
       x2="46.795631"
       y2="6.0179305"
       id="linearGradient3942"
       xlink:href="#linearGradient3928"
       gradientUnits="userSpaceOnUse"
       gradientTransform="matrix(1,0,0,1.0431783,0,-2.6272746)" />
    <linearGradient
       id="linearGradient3928">
      <stop
         id="stop3930"
         style="stop-color:#3a240f;stop-opacity:1"
         offset="0" />
      <stop
         id="stop3932"
         style="stop-color:#3a240f;stop-opacity:0"
         offset="1" />
    </linearGradient>
    <linearGradient
       x1="48.40115"
       y1="61.990967"
       x2="48.40115"
       y2="4.6666145"
       id="linearGradient3934"
       xlink:href="#linearGradient3928"
       gradientUnits="userSpaceOnUse" />
    <clipPath
       id="clipPath3871-0">
      <path
         d="M 0,95.999997 0,156 l 96.000001,0 0,-60.000003 -96.000001,0 z M 68,116 c 9.941125,0 18,8.05888 18,18 0,9.94112 -8.058875,18 -18,18 -9.941125,0 -18,-8.05888 -18,-18 0,-9.94112 8.058875,-18 18,-18 z"
         inkscape:connector-curvature="0"
         id="path3873-0"
         style="fill:#ffffff;fill-opacity:1;stroke:none" />
    </clipPath>
    <clipPath
       id="clipPath3999">
      <path
         d="m 18,14.8125 c -18.21479,0 -33,14.784477 -33,33 0,18.215529 14.78521,33 33,33 18.2148,0 33,-14.784471 33,-33 0,-0.27935 0.007,-0.566055 0,-0.84375 l -21.28125,0 c 0.0194,0.275437 0.0312,0.563419 0.0312,0.84375 0,6.483487 -5.26677,11.75 -11.75,11.75 -6.48323,0 -11.75,-5.266513 -11.75,-11.75 0,-6.483491 5.26677,-11.75 11.75,-11.75 0.0213,0 0.0413,-1.13e-4 0.0625,0 l 0,-21.25 c -0.0211,-4e-5 -0.0414,0 -0.0625,0 z"
         inkscape:connector-curvature="0"
         id="path4001"
         style="fill:#ff00ff;fill-opacity:1;fill-rule:evenodd;stroke:none;display:inline" />
    </clipPath>
    <clipPath
       id="clipPath4187">
      <path
         d="m 48,102 c -19.88225,0 -36,16.11775 -36,36 0,19.88225 16.11775,36 36,36 19.88225,0 36,-16.11775 36,-36 0,-19.88225 -16.11775,-36 -36,-36 z m 0,24 c 6.62742,0 12,5.37258 12,12 0,6.62742 -5.37258,12 -12,12 -6.62742,0 -12,-5.37258 -12,-12 0,-6.62742 5.37258,-12 12,-12 z"
         inkscape:connector-curvature="0"
         id="path4189"
         style="fill:#bbb1bf;fill-opacity:1;stroke:none" />
    </clipPath>
    <filter
       x="-0.18000001"
       y="-0.18000001"
       width="1.36"
       height="1.36"
       color-interpolation-filters="sRGB"
       id="filter4195">
      <feGaussianBlur
         id="feGaussianBlur4197"
         stdDeviation="5.2159999" />
    </filter>
  </defs>
  <metadata
     id="metadata2413">
    <rdf:RDF>
      <cc:Work
         rdf:about="">
        <dc:format>image/svg+xml</dc:format>
        <dc:type
           rdf:resource="http://purl.org/dc/dcmitype/StillImage" />
        <dc:title />
      </cc:Work>
    </rdf:RDF>
  </metadata>
  <g
     id="layer2"
     style="display:none">
    <path
       d="M 11,7 48,5 85,7 c 3.324,0 6,2.676 6,6 l 0,73 c 0,3.324 -2.676,6 -6,6 L 11,92 C 7.676,92 5,89.324 5,86 L 5,13 C 5,9.676 7.676,7 11,7 z"
       inkscape:connector-curvature="0"
       id="rect3745"
       style="opacity:0.9;fill:url(#ButtonShadow);fill-opacity:1;fill-rule:nonzero;stroke:none;filter:url(#filter3174)" />
  </g>
  <g
     id="layer1"
     style="display:inline">
    <path
       d="m 6,36 0,48 c 0,1.781762 0.7745675,3.371709 2,4.46875 L 8,36 6,36 z"
       inkscape:connector-curvature="0"
       id="rect5138"
       style="fill:url(#linearGradient4376);fill-opacity:1;fill-rule:nonzero;stroke:none" />
    <rect
       width="84"
       height="84"
       rx="6"
       ry="0"
       x="6"
       y="6"
       id="rect2419"
       style="fill:#dfca74;fill-opacity:1;fill-rule:nonzero;stroke:none" />
    <rect
       width="82.104904"
       height="29.446453"
       rx="5.8646359"
       ry="7.3616133"
       x="6.8614073"
       y="12.553547"
       id="rect2483"
       style="fill:#403f3c;fill-opacity:1;fill-rule:nonzero;stroke:none" />
    <path
       d="M 10.742526,6.081611 C 6.6133556,6.2022902 6.6029851,6.0966084 6.6029851,12.068022 l 0,23.945644 c 0,6.012344 0.1684841,5.851617 4.1395409,5.986411 L 36.71973,35.191462 36.593069,2.1862153 z"
       inkscape:connector-curvature="0"
       id="rect2481"
       style="fill:#2c62df;fill-opacity:1;fill-rule:nonzero;stroke:none"
       sodipodi:nodetypes="csscccc" />
    <path
       d="m 84.132048,6.081611 c 5.061453,0.1206792 5.178826,0.1356765 5.178826,5.986411 l 0,23.945644 c 0,6.147138 -0.444003,6.121205 -5.178826,5.986411 L 52.552442,35.82477 52.805766,2.8195237 z"
       inkscape:connector-curvature="0"
       id="path3262"
       style="fill:#199b4e;fill-opacity:1;fill-rule:nonzero;stroke:none"
       sodipodi:nodetypes="csscccc" />
  </g>
  <g
     id="layer3" />
  <g
     id="layer4"
     style="display:none">
    <rect
       width="30"
       height="30"
       rx="2.8125"
       ry="2.8125"
       x="-86"
       y="56"
       transform="matrix(0,-1,1,0,0,4)"
       id="rect3790"
       style="opacity:0.6;fill:#000000;fill-opacity:1;stroke:none;filter:url(#filter3806)" />
    <rect
       width="30"
       height="30"
       rx="2.8125"
       ry="2.8125"
       x="-88"
       y="56"
       transform="matrix(0,-1,1,0,0,0)"
       id="rect2993"
       style="fill:url(#linearGradient3773);fill-opacity:1;stroke:none" />
    <path
       d="M 58.8125,58 C 57.254375,58 56,59.254375 56,60.8125 l 0,24.375 c 0,0.873066 0.410816,1.641163 1.03125,2.15625 C 57.02841,87.289908 57,87.242129 57,87.1875 l 0,-24.375 C 57,61.254375 58.17075,60 59.625,60 l 22.75,0 C 83.82925,60 85,61.254375 85,62.8125 l 0,24.375 c 0,0.05463 -0.02841,0.102408 -0.03125,0.15625 C 85.589184,86.828663 86,86.060566 86,85.1875 l 0,-24.375 C 86,59.254375 84.745625,58 83.1875,58 l -24.375,0 z"
       inkscape:connector-curvature="0"
       id="rect3775"
       style="opacity:0.5;fill:url(#linearGradient3788);fill-opacity:1;stroke:none" />
    <path
       d="m 116,63.5 0,8.75 -5,0 10,13.75 10,-13.75 -5,0 0,-8.75 -10,0 z"
       inkscape:connector-curvature="0"
       transform="translate(-50,0)"
       clip-path="url(#clipPath3823)"
       id="path3810"
       style="opacity:0.6;fill:url(#linearGradient3812);fill-opacity:1;fill-rule:nonzero;stroke:none;display:inline;filter:url(#filter3831)" />
    <path
       d="m 66,62.5 0,8.75 -5,0 10,13.75 10,-13.75 -5,0 0,-8.75 -10,0 z"
       inkscape:connector-curvature="0"
       id="path4278"
       style="fill:url(#linearGradient3832);fill-opacity:1;fill-rule:nonzero;stroke:none;display:inline" />
  </g>
  <g
     id="layer6"
     style="display:none">
    <rect
       width="36"
       height="36"
       rx="18"
       ry="18"
       x="50"
       y="118"
       transform="translate(1.373291e-7,-60)"
       clip-path="url(#clipPath3871)"
       id="rect3859"
       style="opacity:0.6;fill:#000000;fill-opacity:1;stroke:none;display:inline;filter:url(#filter3866)" />
    <path
       d="m 90.714283,72.785713 a 19.642857,19.642857 0 1 1 -39.285713,0 19.642857,19.642857 0 1 1 39.285713,0 z"
       transform="matrix(0,-0.91636366,0.91636366,0,1.3018175,139.12727)"
       id="path3836"
       style="fill:url(#linearGradient3844);fill-opacity:1;stroke:none" />
    <path
       d="m 67.985086,56.378807 -2.057995,0.23861 -2.535211,0.70091 -0.477216,0.4623 1.580779,1.08865 0,0.62635 -0.626347,0.62635 0.820215,1.62551 0.551782,-0.29826 0.685998,-1.10356 c 1.060186,-0.3284 2.019644,-0.69624 3.027341,-1.16321 l 0.820215,-2.10274 -1.789561,-0.70091 z m -4.816901,0.25352 c -0.453342,0.12819 -0.903975,0.27064 -1.342171,0.43248 l -0.01491,0.0149 c -0.0087,0.003 -0.02114,-0.003 -0.02983,0 -0.604892,0.22522 -1.187288,0.48949 -1.759734,0.77548 l 0.89478,0.16404 0.342999,-0.31317 0.685998,-0.14913 c 0.470145,-0.22909 0.947717,-0.39014 1.446562,-0.55178 l -0.223695,-0.37283 z m -4.101077,1.77465 -0.134217,0.31317 0.05965,0.77548 -0.536868,0.4623 -0.342999,0.86496 0.685998,0 0.342999,-0.77548 c 0.295964,-0.2097 0.578427,-0.4245 0.879868,-0.62635 l 0.685998,0.23861 c 0.457306,0.31128 0.914313,0.6138 1.371996,0.92461 l 0.700912,-0.62635 -0.760563,-0.29826 -0.343,-0.70091 -1.312344,-0.16404 -0.05965,-0.38774 -0.626346,0.14913 -0.268434,0.55178 -0.343,-0.70091 z m 17.582435,0.62635 -1.312345,0.31317 -0.820215,0.53687 0,0.4623 -1.297432,0.86495 0.268435,1.23778 0.760563,-0.53686 0.477216,0.53686 0.551781,0.31318 0.342999,-0.92461 -0.208782,-0.55178 0.208782,-0.38774 0.745651,-0.70091 0.342999,0 -0.342999,0.77548 0,0.70091 c 0.315318,-0.086 0.646663,-0.10893 0.969345,-0.14913 l -0.89478,0.61143 -0.07457,0.40265 -1.028998,0.85004 -1.028997,-0.23861 0,-0.61143 -0.477217,0.29826 0.208783,0.55178 -0.760563,0 -0.402652,0.70091 -0.521955,0.58161 -0.924606,0.19387 0.551781,0.55178 0.134217,0.53687 -0.685998,0 -0.894781,0.47722 0,1.38691 0.417565,0 0.372825,0.43247 0.864954,-0.43247 0.342999,-0.85005 0.611433,-0.38773 0.134218,-0.31318 1.028997,-0.23861 0.551781,0.62635 0.611433,0.31317 -0.342999,0.70092 0.551782,-0.14913 0.283347,-0.70092 -0.685999,-0.79039 0.268434,0 0.685999,0.55179 0.134217,0.77547 0.626346,0.70091 0.134217,-1.01408 0.342999,-0.14913 c 0.339298,0.3529 0.609012,0.76604 0.89478,1.16321 l 1.028998,0.0746 0.611433,0.38774 -0.268434,0.38773 -0.626346,0.55179 -0.879867,0 -1.178128,-0.38774 -0.611433,0.0746 -0.447391,0.50704 -1.267605,-1.28251 -0.894781,-0.23861 -1.297431,0.16404 -1.178127,0.31317 c -0.654616,0.74355 -1.289274,1.47967 -1.908865,2.25187 l -0.760564,1.78956 0.343,0.38774 -0.611434,0.93952 0.685999,1.62551 c 0.583527,0.66135 1.162143,1.32161 1.744821,1.98343 l 0.850042,-0.73074 0.387738,0.43248 0.924606,-0.59652 0.313173,0.35791 0.924607,0 0.521955,0.59653 -0.328086,1.07373 0.656172,0.74565 -0.02983,1.28252 0.477216,0.92461 -0.342999,0.79038 c -0.03418,0.57263 -0.05965,1.12737 -0.05965,1.70009 0.281238,0.77589 0.55465,1.55987 0.820216,2.34134 l 0.193869,1.23778 0,0.62634 0.49213,0 0.74565,-0.4623 0.894781,0 1.34217,-1.52112 -0.178956,-0.50705 0.89478,-0.77547 -0.656172,-0.74566 0.790389,-0.65617 0.760564,-0.4623 0.342999,-0.38774 -0.208782,-0.86495 c 0,-0.72595 0,-1.45126 0,-2.1773 l 0.626346,-1.32726 0.74565,-0.85004 0.820216,-2.02817 0,-0.53686 c -0.406913,0.0513 -0.794985,0.0904 -1.193041,0.1193 l -0.02982,0.0298 -0.02982,-0.0298 c -0.240947,0.0164 -0.482983,0.0298 -0.730737,0.0298 -0.437008,-0.92004 -0.770779,-1.84113 -1.103563,-2.80364 l -0.581607,-0.65617 -0.29826,-1.13339 0.193869,-0.2237 0.79039,0.89478 0.924606,1.98343 0.551781,0.61144 -0.268434,0.70091 0.521955,0.59652 c 0.01963,-0.001 0.04004,0.001 0.05965,0 l 0.820216,-0.82022 1.133388,-0.77547 0.626345,-0.70091 0,-0.79039 c -0.137362,-0.25953 -0.279259,-0.51591 -0.417565,-0.77546 l -0.551781,0.62635 -0.417564,-0.46231 -0.611433,-0.47721 0,-0.99917 0.715824,0.8053 0.79039,-0.10439 c 0.3595,0.32698 0.713678,0.62688 1.028999,0.99917 l 0.507042,-0.5667 c -0.725536,-4.44474 -3.07624,-8.34317 -6.412595,-11.08036 l -0.134217,0.20879 -0.685998,0.77547 -0.879867,-0.9246 0.879867,0 0.372825,-0.41757 c -0.03078,-0.0237 -0.05854,-0.0511 -0.08948,-0.0746 l -1.506214,-0.28335 -0.89478,-0.31317 z m -18.760562,0.0597 c -0.242646,0.16567 -0.46691,0.34501 -0.700912,0.52195 l -0.104391,0.26844 c 0,0 -0.188073,0.0315 -0.328086,0.0596 -3.882634,3.12203 -6.456825,7.81685 -6.755592,13.10853 0.186423,0.32011 0.417564,0.686 0.417564,0.686 l 1.446562,0.85004 1.431648,0.40265 0.626347,0.77548 0.954432,0.70091 0.551782,-0.0895 0.417564,0.19387 0,0.1193 -0.551782,1.47639 -0.417564,0.62635 0.134217,0.31317 -0.342999,1.16321 1.23778,2.26678 1.237779,1.08865 0.551781,0.77548 -0.07456,1.64043 0.417565,0.9246 -0.417565,1.78956 c 0,0 -0.0098,0.0132 0.01491,0.11931 0.576819,0.40897 1.180569,0.79285 1.804474,1.13338 0.0098,0.005 0.02004,0.01 0.02982,0.0149 0.02683,0.0126 0.06416,0.0333 0.08948,0.0447 0.221179,0.1004 0.38346,0.15962 0.417564,0.13422 0.135945,-0.10348 0.253521,-0.19387 0.253521,-0.19387 l -0.134217,-0.38774 0.551782,-0.55178 0.208782,-0.53687 0.879867,-0.31317 0.685998,-1.715 -0.193869,-0.4623 0.477216,-0.70091 1.028998,-0.23861 0.551781,-1.25269 -0.134217,-1.55095 0.820216,-1.16322 0.134217,-1.16321 c -1.12665,-0.55976 -2.252094,-1.13869 -3.37034,-1.715 l -0.536868,-1.08865 -1.028998,-0.23861 -0.551781,-1.47638 -1.371996,0.14913 -1.163215,-0.85004 -1.23778,1.08864 0,0.16405 c -0.373849,-0.10811 -0.830336,-0.12302 -1.163214,-0.32809 l -0.283347,-0.77548 0,-0.85003 -0.820216,0.0746 c 0.06873,-0.545 0.139583,-1.08061 0.208783,-1.62552 l -0.49213,0 -0.477216,0.61144 -0.477216,0.2386 -0.685999,-0.38773 -0.07456,-0.86496 0.149129,-0.9246 1.028998,-0.77548 0.820215,0 0.134218,-0.47722 1.028997,0.23861 0.760563,0.93952 0.134217,-1.56586 1.297432,-1.08865 0.492129,-1.16322 0.954433,-0.38774 0.551781,-0.77547 1.237779,-0.23861 0.611434,-0.93952 c -0.617702,0 -1.231511,0 -1.849213,0 l 1.163214,-0.53687 0.820216,0 1.163214,-0.38774 0.14913,-0.47721 -0.417564,-0.38774 -0.477216,-0.14913 0.134217,-0.4623 -0.342999,-0.70091 -0.820216,0.29826 0.134217,-0.61144 -0.954432,-0.55178 -0.760563,1.32726 0.07456,0.4623 -0.760563,0.31317 -0.477217,1.01409 -0.208782,-0.93952 -1.297432,-0.53687 -0.208782,-0.70091 1.714996,-1.01408 0.74565,-0.70092 0.07456,-0.85004 -0.417564,-0.2386 -0.07456,-0.0149 z m 11.945318,0.95443 -0.536868,0.29826 -0.283348,-0.0746 -0.05965,0.47721 0.477217,0.29826 0.820215,-0.53687 -0.417564,-0.4623 z m -9.052195,0.14913 -0.551782,0.38774 0.685999,0.4623 0.551781,0 0,-0.53687 -0.685998,-0.31317 z m 10.841755,1.78956 0,0.4623 0.283348,0.31318 0,0.70091 -0.14913,0.93952 0.760563,-0.16405 0.551781,-0.53686 -0.477216,-0.46231 c -0.161341,-0.43051 -0.349846,-0.83987 -0.551781,-1.25274 l -0.417564,0 z m -0.268433,0.93952 -0.49213,0.14913 0.14913,0.85004 0.611433,-0.29826 -0.268433,-0.70091 z m -9.469759,1.40182 0.193868,1.08865 0.417565,-0.62634 -0.611433,-0.46231 z"
       inkscape:connector-curvature="0"
       id="path4144"
       style="fill:url(#radialGradient3146);fill-opacity:1;fill-rule:nonzero;stroke-miterlimit:4;display:inline" />
    <g
       id="g4106"
       style="display:inline">
      <path
         d="m 68,56 c -9.941125,0 -18,8.058875 -18,18 0,3.6617 1.09067,7.063961 2.96875,9.90625 C 51.722125,81.541769 51,78.858787 51,76 c 0,-9.388841 7.611159,-17 17,-17 9.388841,0 17,7.611159 17,17 0,2.858787 -0.722125,5.541769 -1.96875,7.90625 C 84.90933,81.063961 86,77.6617 86,74 86,64.058875 77.941125,56 68,56 z"
         inkscape:connector-curvature="0"
         id="path3846"
         style="opacity:0.3;fill:url(#linearGradient3857-6);fill-opacity:1;stroke:none" />
      <path
         d="m 68,56 c -9.94112,0 -18,8.05887 -18,18 0,0.168593 0.02664,0.33252 0.03125,0.5 C 50.298212,64.79197 58.227473,57 68,57 c 9.73052,0 17.63723,7.725255 17.96875,17.375 l 0,-1 C 85.63723,63.725255 77.73052,56 68,56 z"
         inkscape:connector-curvature="0"
         id="path4097"
         style="opacity:0.3;fill:#ffffff;fill-opacity:1;stroke:none;display:inline" />
    </g>
  </g>
  <g
     id="Page-1"
     sketch:type="MSPage"
     transform="matrix(0.03241531,0,0,0.03241531,29.2188,49.221543)"
     style="fill:none;stroke:none">
    <g
       id="g3186"
       style="fill:#000000;opacity:0.3"
       transform="matrix(1,0,0,1.0461472,0,-0.02525903)">
      <path
         d="M 789.50501,684 1181.885,684 788,1 393,1 789.50501,684 z m 0,0"
         id="path3188"
         sketch:type="MSShapeGroup"
         inkscape:connector-curvature="0"
         style="fill:#000000" />
      <path
         d="m 690.83143,1196.3472 392.37997,0 -393.88498,-682.99999 -395,0 396.50501,682.99999 z m 0,0"
         id="path3190"
         sketch:type="MSShapeGroup"
         transform="matrix(0.5,-0.8660254,0.8660254,0.5,-395.93495,1023.915)"
         inkscape:connector-curvature="0"
         style="fill:#000000" />
      <path
         d="m 297.41942,854.39457 392.37996,0 -393.88498,-683 -394.999995,0 396.505015,683 z m 0,0"
         id="path3192"
         sketch:type="MSShapeGroup"
         transform="matrix(0.5,0.8660254,-0.8660254,0.5,591.85817,0.66071435)"
         inkscape:connector-curvature="0"
         style="fill:#000000" />
    </g>
    <g
       id="g3181">
      <path
         d="M 797.99699,684 1198.7806,684 796.45974,1 393,1 797.99699,684 z m 0,0"
         id="path3941"
         sketch:type="MSShapeGroup"
         inkscape:connector-curvature="0"
         style="fill:#000000;opacity:0.3" />
      <path
         d="M 789.50501,684 1181.885,684 788,-10.26374 l -395,0 L 789.50501,684 z m 0,0"
         id="path3945"
         sketch:type="MSShapeGroup"
         inkscape:connector-curvature="0"
         style="fill:#000000;opacity:0.3" />
      <path
         style="fill:#ffcf63"
         inkscape:connector-curvature="0"
         sketch:type="MSShapeGroup"
         id="Rectangle-1"
         d="M 789.50501,684 1181.885,684 788,1 393,1 789.50501,684 z m 0,0" />
      <path
         style="fill:#2c62df"
         inkscape:connector-curvature="0"
         transform="matrix(0.5,-0.8660254,0.8660254,0.5,-395.93495,1023.915)"
         sketch:type="MSShapeGroup"
         id="Rectangle-1-copy"
         d="m 690.83143,1196.3472 392.37997,0 -393.88498,-682.99999 -395,0 396.50501,682.99999 z m 0,0" />
      <path
         d="M -16.255129,685.43077 185.54601,1025.2418 591.38332,342.62739 388.2347,0.54735731 -16.255129,685.43077 z m 0,0"
         id="path3943"
         sketch:type="MSShapeGroup"
         inkscape:connector-curvature="0"
         style="fill:#000000;opacity:0.3" />
      <path
         style="fill:#199b4e"
         inkscape:connector-curvature="0"
         transform="matrix(0.5,0.8660254,-0.8660254,0.5,591.85817,0.66071435)"
         sketch:type="MSShapeGroup"
         id="path13"
         d="m 297.41942,854.39457 392.37996,0 -393.88498,-683 -394.999995,0 396.505015,683 z m 0,0" />
    </g>
  </g>
</svg>
