<?xml version="1.0" encoding="UTF-8" standalone="no"?>
<!-- Created using Karbon, part of Calligra: http://www.calligra.org/karbon -->

<svg
   xmlns:dc="http://purl.org/dc/elements/1.1/"
   xmlns:cc="http://creativecommons.org/ns#"
   xmlns:rdf="http://www.w3.org/1999/02/22-rdf-syntax-ns#"
   xmlns:svg="http://www.w3.org/2000/svg"
   xmlns="http://www.w3.org/2000/svg"
   xmlns:xlink="http://www.w3.org/1999/xlink"
   xmlns:sodipodi="http://sodipodi.sourceforge.net/DTD/sodipodi-0.dtd"
   xmlns:inkscape="http://www.inkscape.org/namespaces/inkscape"
   width="38.4pt"
   height="38.4pt"
   id="svg2"
   version="1.1"
   inkscape:version="0.48.5 r10040"
   sodipodi:docname="kgeography.svg">
  <metadata
     id="metadata11">
    <rdf:RDF>
      <cc:Work
         rdf:about="">
        <dc:format>image/svg+xml</dc:format>
        <dc:type
           rdf:resource="http://purl.org/dc/dcmitype/StillImage" />
        <dc:title />
      </cc:Work>
    </rdf:RDF>
  </metadata>
  <sodipodi:namedview
     pagecolor="#ffffff"
     bordercolor="#666666"
     borderopacity="1"
     objecttolerance="10"
     gridtolerance="10"
     guidetolerance="10"
     inkscape:pageopacity="0"
     inkscape:pageshadow="2"
     inkscape:window-width="1920"
     inkscape:window-height="1025"
     id="namedview9"
     showgrid="false"
     inkscape:showpageshadow="false"
     borderlayer="true"
     inkscape:zoom="9.8333329"
     inkscape:cx="18.652793"
     inkscape:cy="17.676308"
     inkscape:window-x="-4"
     inkscape:window-y="39"
     inkscape:window-maximized="1"
     inkscape:current-layer="svg2"
     showguides="true"
     inkscape:guide-bbox="true">
    <sodipodi:guide
       position="9.5367432e-07,48.000001"
       orientation="47.999999,0"
       id="guide4067" />
    <sodipodi:guide
       position="9.5367432e-07,1.9073486e-06"
       orientation="0,47.999999"
       id="guide4069" />
    <sodipodi:guide
       position="48,1.9073486e-06"
       orientation="-47.999999,0"
       id="guide4071" />
    <sodipodi:guide
       position="48,48.000001"
       orientation="0,-47.999999"
       id="guide4073" />
    <sodipodi:guide
       position="4.000001,44.000001"
       orientation="39.999999,0"
       id="guide4133" />
    <sodipodi:guide
       position="4.000001,4.0000019"
       orientation="0,39.999999"
       id="guide4135" />
    <sodipodi:guide
       position="44,4.0000019"
       orientation="-39.999999,0"
       id="guide4137" />
    <sodipodi:guide
       position="44,44.000001"
       orientation="0,-39.999999"
       id="guide4139" />
  </sodipodi:namedview>
  <defs
     id="defs4">
    <radialGradient
       r="42"
       fy="41.752277"
       fx="48"
       cy="41.752277"
       cx="48"
       gradientTransform="matrix(0.81648426,3.1549542e-8,-2.0408153e-8,0.52813878,-15.191254,-0.43372061)"
       gradientUnits="userSpaceOnUse"
       id="radialGradient2977"
       xlink:href="#linearGradient4049"
       inkscape:collect="always" />
    <linearGradient
       id="linearGradient4049">
      <stop
         style="stop-color:#a7d8f1;stop-opacity:1;"
         offset="0"
         id="stop4051" />
      <stop
         style="stop-color:#3299cf;stop-opacity:1;"
         offset="1"
         id="stop4053" />
    </linearGradient>
    <linearGradient
       inkscape:collect="always"
       xlink:href="#linearGradient3700"
       id="linearGradient3706"
       x1="48"
       y1="90"
       x2="48"
       y2="5.9877172"
       gradientUnits="userSpaceOnUse"
       gradientTransform="translate(-4.5857965e-6,1.2419013)" />
    <linearGradient
       id="linearGradient3700">
      <stop
         style="stop-color:#126692;stop-opacity:1;"
         offset="0"
         id="stop3702" />
      <stop
         style="stop-color:#2e80ab;stop-opacity:1;"
         offset="1"
         id="stop3704" />
    </linearGradient>
    <linearGradient
       y2="5.9877172"
       x2="48"
       y1="90"
       x1="48"
       gradientTransform="matrix(0.47619049,0,0,0.4761848,1.142855,1.1433663)"
       gradientUnits="userSpaceOnUse"
       id="linearGradient3249"
       xlink:href="#linearGradient3700"
       inkscape:collect="always" />
  </defs>
  <g
     id="g3805"
     transform="translate(-0.08796998,-0.06561521)" />
  <path
     style="fill:#0279ad;fill-rule:evenodd"
     inkscape:connector-curvature="0"
     id="path4"
     d="m 43.37842,24.35503 c 0,10.84867 -8.79473,19.64246 -19.64255,19.64246 -10.84872,0 -19.64255,-8.79469 -19.64255,-19.64246 0,-10.84867 8.79473,-19.64246 19.64255,-19.64246 10.84872,0 19.64255,8.79469 19.64255,19.64246" />
  <path
     style="fill:#ffffff;fill-opacity:0.43700005"
     inkscape:connector-curvature="0"
     id="path6"
     d="M 24.06609,4.57142 C 13.38248,4.57142 4.64697,12.94975 4,23.52922 c 0.20307,0.4929 0.66618,0.82437 0.92936,1.31001 l 0.12689,1.1728 0.21266,-1.08756 2.34203,0.99424 1.61879,1.51585 1.38897,0.20575 c -0.49604,1.1362 -1.4997,2.96656 -1.31692,4.23539 0.10634,0.73768 0.84942,1.78989 1.27574,2.39029 0.59555,0.83864 1.72018,1.33459 2.01998,2.39029 l 0.048,1.73876 0.32582,1.30318 c -0.0538,0.45647 -0.41061,1.18797 -0.34296,1.71838 0.92004,0.64096 1.89606,1.20556 2.91848,1.68733 0.17893,-0.17023 0.15604,-0.53821 -0.007,-0.79907 l 0.79216,-1.10775 1.00483,-0.75105 0.70647,-2.4795 1.52268,-0.99801 c 0.62328,-0.94523 0.17148,-1.73147 0.40469,-2.70274 l 1.02538,-2.93219 C 19.8367,30.89411 18.1753,30.35473 17.35738,29.3788 l -0.21267,0.10974 -0.21607,-0.97737 -1.28265,-0.65164 -0.21266,0.21608 -0.32241,-1.51926 -1.71121,-0.14061 -1.28605,-0.70988 c -0.55375,-0.0799 -1.28687,0.83828 -1.49523,1.28264 L 9.86737,26.88217 10.08345,26.66268 9.44212,26.22712 9.54846,26.66268 C 9.08705,26.17839 9.00737,25.56749 9.1198,24.92394 L 8.37215,24.59812 8.26241,24.92394 C 8.12861,24.38644 8.18511,23.69226 8.58482,23.29528 7.9985,22.88925 7.60439,23.27128 7.19584,23.73085 L 6.33844,21.9921 C 6.10271,22.5252 6.18868,23.05696 6.23211,23.62074 H 6.01603 C 5.96873,23.01299 5.8223,22.34852 6.12577,21.77566 6.69289,20.70516 8.39611,20.25353 9.44204,20.47248 l -0.10975,0.21608 0.96364,0.87112 c 0.004,-1.66077 0.64931,-1.83629 1.55355,-3.04534 l 0.63082,-1.16599 c 0.70172,-0.78354 1.7917,-1.31781 2.73327,-1.6701 l 1.17972,-0.74416 c -0.3819,-0.6711 -1.38566,-0.47908 -2.03021,-0.43556 1.15908,-0.66958 2.73497,-0.30679 3.5292,-1.51926 -0.8661,-0.63989 -0.8661,-2.30936 -2.24602,-1.62864 l 0.21267,-0.65164 -1.1764,-0.54531 -0.8574,1.81763 -1.1764,1.4402 -0.10633,-0.75788 c -0.45225,-0.21339 -1.6973,-0.58855 -1.72198,-1.19685 -0.0264,-0.66115 1.98579,-1.65987 2.47269,-2.06107 L 13.07703,9.9377 13.90697,9.8588 c 0.17579,-0.11271 1.84356,-2.50094 2.05767,-1.00824 1.15997,0.44642 1.29251,0.95808 2.46236,0.21948 L 17.67934,8.74081 C 17.56134,7.66815 16.62695,7.65775 15.75197,7.65685 l 2.78127,-1.30319 c 0.30967,0.77116 1.2804,0.929 1.59474,1.63923 0.22325,0.50466 -0.43862,0.80849 -0.42184,1.29287 0.0207,0.59699 0.59224,1.32687 0.86081,1.84508 L 22.17541,9.3475 c 0.88809,-0.4807 2.31754,-0.53338 3.02481,-1.31001 0.81882,-0.89912 0.36827,-2.33 1.89337,-2.33574 -0.3094,-0.13217 -0.8076,-0.23249 -1.06998,0 L 25.7012,5.37594 h 0.42866 C 25.90615,5.06447 25.7563,4.89461 25.3822,4.83063 25.2948,4.72089 25.18219,4.64739 25.05638,4.594 24.72823,4.578 24.39738,4.57 24.06483,4.57 m 9.33851,3.19278 c -0.37607,0.31262 -1.01407,0.47028 -1.49522,0.5453 l -0.87454,1.22091 -1.01855,0.8608 c -0.16404,0.39563 0.0974,0.99424 0.17829,1.39238 l 1.06998,-0.54198 c 0.15389,0.53929 0.57088,0.67829 0.96364,0.97737 0.63442,-1.22181 0.0884,-2.39003 1.60497,-3.04194 l -0.96365,1.19685 0.32242,-0.21949 0.10633,0.65164 0.10633,-0.86762 c 0.28257,0.97979 -0.0131,2.32568 -1.06997,2.69556 l -1.06998,-0.0892 v -0.65163 c -0.60848,0.12894 -0.5856,0.43654 -0.42524,0.97736 -0.41296,-0.11917 -0.65936,-0.0993 -0.96365,0.21608 -0.3268,-0.34099 -0.59286,-0.60014 -0.64132,-1.08397 -0.20773,-0.21006 -0.30096,-0.3531 -0.32241,-0.65164 l -0.74765,-0.10974 0.31891,1.73874 c -0.28544,-0.54378 -0.58102,-0.67631 -1.1764,-0.5453 l 0.32241,1.30319 0.42865,-0.10634 -0.32241,-0.10974 0.42866,-0.76138 0.21266,1.19685 0.96365,-0.21948 c -0.2701,0.26166 -0.48537,0.32519 -0.8574,0.32582 L 28.59159,14.388 H 28.0566 l 0.74766,1.30318 c -1.75294,0.0147 -1.77321,0.92587 -1.71121,2.3903 0.34215,0.025 0.50861,0.0765 0.74766,0.32582 1.41562,-0.75726 1.74198,-2.16435 3.42241,-2.60674 0.2727,0.86098 1.11619,0.8094 0.8574,1.84849 0.82572,-0.17112 1.05688,-0.87839 0.53499,-1.52266 0.7035,0.42542 0.90451,1.29896 1.38889,1.95482 0.34107,-0.45468 0.21015,-0.97432 0.75106,-1.30319 v 0.32582 c 0.9063,0.81657 1.53174,1.0007 2.67494,1.41293 -0.39294,0.5663 -0.867,1.11986 -1.60496,1.07338 -0.90361,-0.0568 -2.0565,-0.95556 -2.67494,0.12006 l -1.72198,-1.38547 c -0.95485,-0.40882 -1.89337,-0.0222 -2.87774,-0.13379 l -0.42865,0.21608 0.21267,0.10974 c -1.96004,0.89526 -3.04725,3.2528 -3.25103,5.21256 l -0.37383,1.30319 c 0.20845,1.27277 1.27197,2.59075 2.16436,3.45686 0.62813,0.60973 1.07949,-0.58201 1.67702,0.0205 0.79073,-0.30392 1.984,-0.83442 2.70904,0.0137 0.47639,0.55734 -0.0213,1.01901 0.14402,1.61519 0.28598,1.03175 0.96876,2.24071 0.96714,3.36776 l -0.26749,2.71261 c 0.23438,1.65431 1.13817,3.04723 1.15226,4.78095 1.31172,-0.1372 2.78711,-0.80696 3.51484,-1.95483 l 0.31209,-0.96713 0.54199,-0.67219 -0.20576,-1.06656 c 0.30617,-0.74603 1.54538,-0.8276 1.73185,-1.64274 0.25394,-1.10971 -0.40936,-2.42367 -0.0137,-3.58032 0.61018,-1.78281 2.30928,-3.08842 2.35639,-5.10642 l -1.28265,0.10975 c 1.15469,-1.43841 3.60099,-2.16256 2.3528,-4.34485 l -0.53498,0.65164 h -0.21267 c -0.41313,-0.88001 -1.06917,-0.97181 -1.06998,-2.06475 1.00151,0.87507 2.03757,0.90271 2.99394,1.95482 0.0873,-0.048 0.16,-0.10866 0.21949,-0.18179 C 43.26889,16.52105 40.24713,11.63242 35.90961,8.4478 35.09394,8.3666 34.13012,8.25003 33.61873,7.7654 h -0.21608 v -0.003" />
  <path
     style="fill:#ffffff"
     inkscape:connector-curvature="0"
     id="path66"
     d="m 23.83278,13.52341 c -0.0463,0.0285 -0.31711,1.04879 -0.61413,2.32461 -0.30653,1.317 -0.59816,2.44701 -0.65056,2.50974 -0.0112,0.0136 -0.0353,0.0301 -0.0645,0.0476 -2.36841,0.53202 -4.2363,2.38097 -4.79533,4.73905 -9e-4,0.004 -0.002,0.007 -0.003,0.0112 -0.0998,0.24442 -0.17929,0.28534 -0.40658,0.34492 -0.18127,0.0475 -1.23949,0.29513 -2.35011,0.54962 -1.11045,0.25448 -2.0495,0.49012 -2.08629,0.5244 -0.0368,0.0343 0.95251,0.29827 2.19845,0.58604 1.24595,0.28785 2.34832,0.57195 2.44792,0.63351 0.0552,0.034 0.12222,0.13011 0.1879,0.2552 0.55006,2.39819 2.45222,4.27952 4.86263,4.798 0.30088,0.1984 0.3417,0.49604 0.5777,1.4918 0.18126,0.76354 0.43889,1.87308 0.57483,2.46487 0.18342,0.79826 0.26794,1.02977 0.3225,0.89732 0.0404,-0.0982 0.29594,-1.14858 0.56927,-2.33304 0.27332,-1.18448 0.53059,-2.22941 0.56926,-2.32183 0.0324,-0.0774 0.20531,-0.18037 0.49075,-0.30285 2.07822,-0.59529 3.72168,-2.21783 4.34398,-4.28473 0.0245,-0.0815 0.046,-0.16394 0.0673,-0.24677 -0.0214,0.0832 -0.0427,0.16502 -0.0673,0.24677 0.0874,-0.2701 0.20818,-0.50897 0.27763,-0.53562 0.0719,-0.0276 1.18681,-0.29486 2.47609,-0.59447 1.28929,-0.29962 2.35819,-0.55769 2.37515,-0.57483 0.0421,-0.0416 -0.30922,-0.1328 -2.63313,-0.67021 -1.08577,-0.25108 -2.05004,-0.48654 -2.14237,-0.5244 -0.064,-0.0262 -0.146,-0.1477 -0.24121,-0.34772 -6.2e-4,-0.001 -0.002,-0.002 -0.003,-0.003 -0.55957,-2.47473 -2.55703,-4.40227 -5.06991,-4.85632 -0.0223,-0.0257 -0.0387,-0.0531 -0.0505,-0.0813 -0.0444,-0.10642 -0.31111,-1.20296 -0.5917,-2.43713 -0.2806,-1.23383 -0.53651,-2.27311 -0.56927,-2.31062 -9.8e-4,-10e-4 -10e-4,-9e-4 -0.003,0 m 0.0729,4.72496 c 0.10983,0 0.21966,0.003 0.32806,0.008 -0.10858,-0.005 -0.21814,-0.008 -0.32806,-0.008 -0.0883,0 -0.17615,0.002 -0.26364,0.006 0.0876,-0.004 0.17516,-0.006 0.26364,-0.006 m -0.38415,0.014 c -0.0895,0.005 -0.17794,0.0107 -0.26642,0.0197 -0.0789,0.008 -0.15757,0.0171 -0.23555,0.0281 0.0782,-0.011 0.15641,-0.0198 0.23555,-0.0281 0.0884,-0.009 0.17695,-0.0142 0.26642,-0.0197 m 0.38415,1.69092 c 2.57704,0 4.66611,2.08906 4.66611,4.66609 0,2.57703 -2.08907,4.6661 -4.66611,4.6661 -2.57705,0 -4.66612,-2.08907 -4.66612,-4.6661 0,-2.57703 2.08907,-4.66609 4.66612,-4.66609 m -6.34054,4.04065 c -0.008,0.082 -0.0148,0.16386 -0.0197,0.24677 0.005,-0.0831 0.0114,-0.16457 0.0197,-0.24677 m 12.68017,0.008 c 0.008,0.0812 0.0147,0.16188 0.0196,0.24398 -0.005,-0.082 -0.0118,-0.16277 -0.0196,-0.24398 m -12.7026,0.31685 c -0.005,0.0994 -0.008,0.19947 -0.008,0.30006 0,0.0939 0.004,0.18745 0.008,0.28042 -0.004,-0.0926 -0.008,-0.18674 -0.008,-0.28042 0,-0.10041 0.004,-0.20073 0.008,-0.30006 m 12.72773,0.0309 c 0.004,0.089 0.006,0.17929 0.006,0.2692 0,-0.0906 -0.002,-0.17946 -0.006,-0.2692 m -12.72504,0.63657 c 0.005,0.0933 0.0132,0.18539 0.0224,0.27763 -0.01,-0.0926 -0.017,-0.18386 -0.0224,-0.27763 m 12.71965,0.008 c -0.005,0.092 -0.0132,0.18396 -0.0224,0.27486 -0.008,0.0757 -0.0178,0.15217 -0.0281,0.2271 0.0104,-0.0753 0.0203,-0.15101 0.0281,-0.2271 0.009,-0.0913 0.017,-0.18243 0.0224,-0.27486 m -0.0785,0.68699 c -0.01,0.0566 -0.0199,0.11217 -0.0309,0.16825 0.0109,-0.0557 0.0214,-0.11199 0.0309,-0.16825 m -6.93188,5.27457 c 0.10158,0.0103 0.2028,0.0197 0.30563,0.0252 -0.10274,-0.006 -0.20423,-0.0149 -0.30563,-0.0252 m 0.3225,0.0252 c 0.10858,0.005 0.21814,0.008 0.32807,0.008 0.10436,0 0.20818,-0.003 0.31128,-0.008 -0.10328,0.005 -0.20683,0.008 -0.31128,0.008 -0.10975,0 -0.21967,-0.003 -0.32807,-0.008" />
  <path
     style="fill-opacity:0.23500001"
     inkscape:connector-curvature="0"
     id="path68"
     d="m 34.60612,13.07834 -21.30889,23.0505 7.67486,7.67482 C 21.87481,43.93082 22.79601,44 23.73417,44 c 10.84871,0 19.64344,-8.79469 19.64344,-19.64336 0,-0.91177 -0.062,-1.8108 -0.18225,-2.68919 l -8.58924,-8.5892" />
  <g
     transform="matrix(0.08973298,0,0,0.08973257,1.02894,1.6482)"
     style="fill:#ffffff"
     id="g70">
    <path
       inkscape:connector-curvature="0"
       id="path72"
       d="m 237.27,238.95 c 37.435,-30.23 -0.097,-0.034 37.36,-30.13 99.78,-81.57 0.438,0.088 99.87,-81.85 -88.84,125.7 -61.965,88.4 -89.23,126.48 -7.272,10.175 -13.783,18.5 -14.468,18.5 -33.637,-32.76 -0.104,-0.121 -33.523,-33" />
    <path
       inkscape:connector-curvature="0"
       id="path74"
       d="m 271.95,271.25 c -37.03,30.721 0.097,0.033 -36.956,30.626 -98.69,82.88 -0.439,-0.082 -98.78,83.16 87.17,-126.86 60.792,-89.22 87.55,-127.65 7.137,-10.27 13.537,-18.68 14.223,-18.689 34.07,32.31 0.106,0.12 33.956,32.554" />
  </g>
</svg>
