<?xml version="1.0" encoding="UTF-8" standalone="no"?>
<!-- Created using Karbon, part of Calligra: http://www.calligra.org/karbon -->

<svg
   xmlns:dc="http://purl.org/dc/elements/1.1/"
   xmlns:cc="http://creativecommons.org/ns#"
   xmlns:rdf="http://www.w3.org/1999/02/22-rdf-syntax-ns#"
   xmlns:svg="http://www.w3.org/2000/svg"
   xmlns="http://www.w3.org/2000/svg"
   xmlns:xlink="http://www.w3.org/1999/xlink"
   xmlns:sodipodi="http://sodipodi.sourceforge.net/DTD/sodipodi-0.dtd"
   xmlns:inkscape="http://www.inkscape.org/namespaces/inkscape"
   width="38.4pt"
   height="38.4pt"
   id="svg2"
   version="1.1"
   inkscape:version="0.48.5 r10040"
   sodipodi:docname="kgpg.svg">
  <metadata
     id="metadata11">
    <rdf:RDF>
      <cc:Work
         rdf:about="">
        <dc:format>image/svg+xml</dc:format>
        <dc:type
           rdf:resource="http://purl.org/dc/dcmitype/StillImage" />
        <dc:title />
      </cc:Work>
    </rdf:RDF>
  </metadata>
  <sodipodi:namedview
     pagecolor="#ffffff"
     bordercolor="#666666"
     borderopacity="1"
     objecttolerance="10"
     gridtolerance="10"
     guidetolerance="10"
     inkscape:pageopacity="0"
     inkscape:pageshadow="2"
     inkscape:window-width="1920"
     inkscape:window-height="1025"
     id="namedview9"
     showgrid="false"
     inkscape:showpageshadow="false"
     borderlayer="true"
     inkscape:zoom="9.8333329"
     inkscape:cx="18.652793"
     inkscape:cy="17.676308"
     inkscape:window-x="-4"
     inkscape:window-y="39"
     inkscape:window-maximized="1"
     inkscape:current-layer="svg2"
     showguides="true"
     inkscape:guide-bbox="true">
    <sodipodi:guide
       position="9.5367432e-07,48.000001"
       orientation="47.999999,0"
       id="guide4067" />
    <sodipodi:guide
       position="9.5367432e-07,1.9073486e-06"
       orientation="0,47.999999"
       id="guide4069" />
    <sodipodi:guide
       position="48,1.9073486e-06"
       orientation="-47.999999,0"
       id="guide4071" />
    <sodipodi:guide
       position="48,48.000001"
       orientation="0,-47.999999"
       id="guide4073" />
    <sodipodi:guide
       position="4.000001,44.000001"
       orientation="39.999999,0"
       id="guide4133" />
    <sodipodi:guide
       position="4.000001,4.0000019"
       orientation="0,39.999999"
       id="guide4135" />
    <sodipodi:guide
       position="44,4.0000019"
       orientation="-39.999999,0"
       id="guide4137" />
    <sodipodi:guide
       position="44,44.000001"
       orientation="0,-39.999999"
       id="guide4139" />
  </sodipodi:namedview>
  <defs
     id="defs4">
    <radialGradient
       r="42"
       fy="41.752277"
       fx="48"
       cy="41.752277"
       cx="48"
       gradientTransform="matrix(0.81648426,3.1549542e-8,-2.0408153e-8,0.52813878,-15.191254,-0.43372061)"
       gradientUnits="userSpaceOnUse"
       id="radialGradient2977"
       xlink:href="#linearGradient4049"
       inkscape:collect="always" />
    <linearGradient
       id="linearGradient4049">
      <stop
         style="stop-color:#a7d8f1;stop-opacity:1;"
         offset="0"
         id="stop4051" />
      <stop
         style="stop-color:#3299cf;stop-opacity:1;"
         offset="1"
         id="stop4053" />
    </linearGradient>
    <linearGradient
       inkscape:collect="always"
       xlink:href="#linearGradient3700"
       id="linearGradient3706"
       x1="48"
       y1="90"
       x2="48"
       y2="5.9877172"
       gradientUnits="userSpaceOnUse"
       gradientTransform="translate(-4.5857965e-6,1.2419013)" />
    <linearGradient
       id="linearGradient3700">
      <stop
         style="stop-color:#126692;stop-opacity:1;"
         offset="0"
         id="stop3702" />
      <stop
         style="stop-color:#2e80ab;stop-opacity:1;"
         offset="1"
         id="stop3704" />
    </linearGradient>
    <linearGradient
       y2="5.9877172"
       x2="48"
       y1="90"
       x1="48"
       gradientTransform="matrix(0.47619049,0,0,0.4761848,1.142855,1.1433663)"
       gradientUnits="userSpaceOnUse"
       id="linearGradient3249"
       xlink:href="#linearGradient3700"
       inkscape:collect="always" />
  </defs>
  <g
     id="g3805"
     transform="translate(-0.08796998,-0.06561521)" />
  <path
     style="fill:#b93d48;fill-rule:evenodd"
     inkscape:connector-curvature="0"
     id="path4"
     d="m 43.99251,23.9976 c 0,11.04408 -8.9531,19.99626 -19.99626,19.99626 C 12.95218,43.99386 4,35.04076 4,23.9976 4,12.95353 12.9531,4.00135 23.99625,4.00135 c 11.04408,0 19.99626,8.9531 19.99626,19.99625" />
  <path
     style="fill-opacity:0.23500001"
     inkscape:connector-curvature="0"
     id="path6"
     d="m 33.45177,12.44929 c -0.30218,0 -0.60308,0.11501 -0.83356,0.34539 L 19.67226,25.74063 c -0.0149,-0.0146 -0.0307,-0.0285 -0.0457,-0.0428 -0.0118,-0.0121 -0.0223,-0.0251 -0.0342,-0.0371 -0.0177,-0.0177 -0.0363,-0.034 -0.0543,-0.0514 -0.0172,-0.0178 -0.0338,-0.0366 -0.0514,-0.0543 -0.0168,-0.0168 -0.0343,-0.0321 -0.0514,-0.0485 -0.0175,-0.0181 -0.0334,-0.0363 -0.0514,-0.0543 -0.0177,-0.0177 -0.0363,-0.034 -0.0543,-0.0514 -0.0172,-0.0178 -0.0338,-0.0366 -0.0514,-0.0543 -0.0168,-0.0168 -0.0343,-0.0321 -0.0514,-0.0485 -0.0174,-0.0181 -0.0334,-0.0364 -0.0514,-0.0543 -0.0176,-0.0176 -0.0364,-0.0342 -0.0543,-0.0514 -0.0174,-0.018 -0.0336,-0.0365 -0.0514,-0.0543 -1.61349,-1.61349 -4.22671,-1.61349 -5.84066,0 -1.31844,1.31853 -1.55841,3.30409 -0.7222,4.86707 -0.8363,1.56298 -0.59624,3.55155 0.7222,4.8698 0.012,0.012 0.025,0.0225 0.0371,0.0343 0.0226,0.0237 0.0453,0.0481 0.0685,0.0713 0.0173,0.0173 0.0339,0.0345 0.0514,0.0514 0.0169,0.0174 0.0342,0.0342 0.0514,0.0514 0.0177,0.0177 0.0363,0.0341 0.0543,0.0514 0.0173,0.018 0.0336,0.0365 0.0514,0.0543 0.0173,0.0173 0.0339,0.0345 0.0514,0.0514 0.0169,0.0174 0.0342,0.0342 0.0514,0.0514 0.0232,0.0232 0.0478,0.046 0.0713,0.0685 0.0118,0.0121 0.0223,0.0251 0.0343,0.0371 0.006,0.006 0.0136,0.0112 0.02,0.0172 0.006,0.006 0.0113,0.0115 0.0172,0.0172 0.0228,0.0239 0.045,0.0479 0.0685,0.0713 0.0173,0.0173 0.0339,0.0345 0.0514,0.0514 0.0169,0.0174 0.0342,0.0342 0.0514,0.0514 0.0232,0.0232 0.0478,0.046 0.0714,0.0685 0.005,0.006 0.0117,0.0112 0.0172,0.0172 0.006,0.006 0.0109,0.0137 0.0172,0.02 0.006,0.006 0.0136,0.0112 0.02,0.0172 0.0279,0.0295 0.0567,0.0596 0.0857,0.0885 0.0173,0.0173 0.0339,0.0345 0.0514,0.0514 0.0169,0.0174 0.0342,0.0342 0.0514,0.0514 0.0177,0.0177 0.0363,0.0341 0.0543,0.0514 0.0173,0.018 0.0336,0.0365 0.0514,0.0543 0.0173,0.0173 0.0339,0.0345 0.0514,0.0514 0.0169,0.0174 0.0342,0.0342 0.0514,0.0514 0.0232,0.0232 0.0478,0.046 0.0713,0.0685 0.005,0.006 0.0117,0.0112 0.0172,0.0172 0.006,0.006 0.0109,0.0137 0.0172,0.02 0.006,0.006 0.0136,0.0112 0.02,0.0172 0.0279,0.0295 0.0567,0.0596 0.0857,0.0885 0.0173,0.0173 0.0339,0.0345 0.0514,0.0514 0.0169,0.0174 0.0342,0.0342 0.0514,0.0514 0.0177,0.0177 0.0363,0.0341 0.0543,0.0514 0.0174,0.018 0.0336,0.0365 0.0514,0.0543 0.0115,0.0115 0.0227,0.0229 0.0343,0.0343 0.0226,0.0237 0.0452,0.0452 0.0685,0.0685 l 0.003,0.003 c 0.0233,0.0233 0.0449,0.046 0.0685,0.0685 0.0113,0.0116 0.0227,0.0228 0.0342,0.0343 0.006,0.006 0.0135,0.0111 0.02,0.0172 0.006,0.006 0.0113,0.0115 0.0172,0.0172 0.0228,0.0239 0.045,0.0479 0.0685,0.0713 0.0173,0.0173 0.0339,0.0345 0.0514,0.0514 0.0169,0.0174 0.0342,0.0342 0.0514,0.0514 0.0232,0.0232 0.0478,0.0459 0.0713,0.0685 0.005,0.006 0.0117,0.0112 0.0172,0.0172 0.006,0.006 0.0109,0.0137 0.0172,0.02 0.006,0.006 0.0136,0.0112 0.02,0.0172 0.0279,0.0295 0.0567,0.0596 0.0857,0.0885 0.0173,0.0173 0.0339,0.0345 0.0514,0.0514 0.0169,0.0174 0.0342,0.0342 0.0514,0.0514 0.0177,0.0177 0.0363,0.0341 0.0543,0.0514 0.0174,0.018 0.0336,0.0365 0.0514,0.0543 0.0173,0.0173 0.0339,0.0345 0.0514,0.0514 0.0169,0.0174 0.0342,0.0342 0.0514,0.0514 0.0232,0.0232 0.0478,0.0459 0.0713,0.0685 0.005,0.006 0.0117,0.0112 0.0172,0.0172 0.006,0.006 0.0109,0.0137 0.0172,0.02 0.006,0.006 0.0136,0.0112 0.02,0.0172 0.0279,0.0295 0.0567,0.0596 0.0857,0.0885 0.0173,0.0173 0.0339,0.0345 0.0514,0.0514 0.0169,0.0174 0.0342,0.0342 0.0514,0.0514 0.0177,0.0177 0.0363,0.0341 0.0543,0.0514 0.0174,0.018 0.0336,0.0365 0.0514,0.0543 0.012,0.012 0.025,0.0225 0.0371,0.0342 0.0226,0.0237 0.0453,0.0481 0.0685,0.0713 0.0173,0.0173 0.0339,0.0345 0.0514,0.0514 0.0169,0.0174 0.0342,0.0342 0.0514,0.0514 0.0177,0.0177 0.0363,0.0341 0.0543,0.0514 0.0174,0.018 0.0336,0.0365 0.0514,0.0543 0.0173,0.0173 0.0339,0.0345 0.0514,0.0514 0.0169,0.0174 0.0342,0.0342 0.0514,0.0514 0.0232,0.0232 0.0478,0.0459 0.0713,0.0685 0.005,0.006 0.0117,0.0112 0.0172,0.0172 0.006,0.006 0.0109,0.0137 0.0172,0.02 0.006,0.006 0.0136,0.0112 0.02,0.0172 0.0279,0.0295 0.0567,0.0596 0.0857,0.0885 0.0173,0.0173 0.0339,0.0345 0.0514,0.0514 0.0169,0.0174 0.0342,0.0342 0.0514,0.0514 0.0177,0.0177 0.0363,0.0341 0.0543,0.0514 0.0174,0.018 0.0336,0.0365 0.0514,0.0543 0.0173,0.0173 0.0339,0.0345 0.0514,0.0514 0.0169,0.0175 0.0342,0.0342 0.0514,0.0514 0.0232,0.0232 0.0478,0.046 0.0713,0.0685 0.005,0.006 0.0116,0.0111 0.0172,0.0172 0.006,0.006 0.0109,0.0137 0.0172,0.02 0.006,0.006 0.0136,0.0112 0.02,0.0172 0.0279,0.0295 0.0567,0.0596 0.0857,0.0885 0.0173,0.0173 0.0339,0.0345 0.0514,0.0514 0.0169,0.0174 0.0342,0.0342 0.0514,0.0514 0.0232,0.0232 0.0478,0.0459 0.0713,0.0685 0.005,0.006 0.0117,0.0112 0.0172,0.0172 0.006,0.006 0.0109,0.0137 0.0172,0.02 0.006,0.006 0.0136,0.0112 0.02,0.0172 0.0279,0.0295 0.0567,0.0596 0.0857,0.0885 0.0173,0.0173 0.0339,0.0345 0.0514,0.0514 0.0169,0.0174 0.0342,0.0342 0.0514,0.0514 0.0177,0.0177 0.0363,0.0341 0.0543,0.0514 0.0173,0.018 0.0336,0.0365 0.0514,0.0543 0.0173,0.0173 0.0339,0.0345 0.0514,0.0514 0.0169,0.0175 0.0342,0.0342 0.0514,0.0514 0.0232,0.0232 0.0478,0.046 0.0713,0.0685 0.005,0.006 0.0117,0.0112 0.0172,0.0172 0.006,0.006 0.0109,0.0137 0.0172,0.02 0.006,0.006 0.0136,0.0112 0.02,0.0172 0.0279,0.0295 0.0567,0.0596 0.0857,0.0885 0.0173,0.0173 0.0339,0.0345 0.0514,0.0514 0.0169,0.0174 0.0342,0.0342 0.0514,0.0514 0.0177,0.0177 0.0363,0.0341 0.0543,0.0514 0.0173,0.018 0.0336,0.0365 0.0514,0.0543 0.0173,0.0173 0.0339,0.0345 0.0514,0.0514 0.0169,0.0174 0.0342,0.0342 0.0514,0.0514 0.0232,0.0232 0.0478,0.0459 0.0713,0.0685 0.0118,0.0121 0.0223,0.0251 0.0342,0.0371 0.006,0.006 0.0136,0.0112 0.02,0.0172 0.006,0.006 0.0113,0.0115 0.0172,0.0172 0.0228,0.0239 0.045,0.0479 0.0685,0.0713 0.0173,0.0173 0.0339,0.0345 0.0514,0.0514 0.0169,0.0174 0.0342,0.0342 0.0514,0.0514 0.0232,0.0232 0.0478,0.046 0.0713,0.0685 0.005,0.006 0.0117,0.0112 0.0172,0.0172 0.006,0.006 0.0109,0.0137 0.0172,0.02 0.006,0.006 0.0136,0.0112 0.02,0.0172 0.0279,0.0295 0.0567,0.0596 0.0857,0.0885 0.0173,0.0173 0.0339,0.0345 0.0514,0.0514 0.0169,0.0174 0.0342,0.0342 0.0514,0.0514 0.0177,0.0177 0.0363,0.0341 0.0543,0.0514 0.0173,0.018 0.0336,0.0365 0.0514,0.0543 0.0173,0.0173 0.0339,0.0345 0.0514,0.0514 0.0169,0.0174 0.0342,0.0342 0.0514,0.0514 0.0232,0.0232 0.0478,0.0459 0.0713,0.0685 0.005,0.006 0.0117,0.0112 0.0172,0.0172 0.006,0.006 0.0109,0.0137 0.0172,0.02 0.006,0.006 0.0136,0.0112 0.02,0.0172 0.0279,0.0295 0.0567,0.0596 0.0857,0.0885 0.0173,0.0173 0.0339,0.0345 0.0514,0.0514 0.0169,0.0174 0.0342,0.0342 0.0514,0.0514 0.0177,0.0177 0.0363,0.0341 0.0543,0.0514 0.0174,0.018 0.0336,0.0365 0.0514,0.0543 0.0115,0.0115 0.0227,0.0229 0.0343,0.0342 0.0226,0.0237 0.0452,0.0452 0.0685,0.0685 0.0232,0.0232 0.0478,0.0459 0.0713,0.0685 0.0118,0.0121 0.0223,0.0251 0.0343,0.0371 0.006,0.006 0.0136,0.0112 0.02,0.0172 0.006,0.006 0.0113,0.0115 0.0172,0.0172 0.0228,0.0239 0.045,0.0479 0.0685,0.0713 0.0173,0.0173 0.0339,0.0345 0.0514,0.0514 0.0169,0.0174 0.0342,0.0342 0.0514,0.0514 0.0232,0.0232 0.0478,0.046 0.0713,0.0685 0.005,0.006 0.0117,0.0112 0.0172,0.0172 0.006,0.006 0.0109,0.0137 0.0172,0.02 0.006,0.006 0.0136,0.0112 0.02,0.0172 0.0279,0.0295 0.0567,0.0596 0.0857,0.0885 0.0173,0.0173 0.0339,0.0345 0.0514,0.0514 0.0169,0.0174 0.0342,0.0342 0.0514,0.0514 0.0177,0.0177 0.0363,0.0341 0.0543,0.0514 0.0174,0.018 0.0336,0.0365 0.0514,0.0543 0.0173,0.0173 0.0339,0.0345 0.0514,0.0514 0.0169,0.0174 0.0342,0.0342 0.0514,0.0514 0.0232,0.0232 0.0478,0.046 0.0713,0.0685 0.005,0.006 0.0117,0.0112 0.0172,0.0172 0.006,0.006 0.0109,0.0137 0.0172,0.02 0.006,0.006 0.0136,0.0112 0.02,0.0172 0.0279,0.0295 0.0567,0.0596 0.0857,0.0885 0.0173,0.0173 0.0339,0.0345 0.0514,0.0514 0.0169,0.0174 0.0342,0.0342 0.0514,0.0514 0.0177,0.0177 0.0363,0.0341 0.0543,0.0514 0.0174,0.018 0.0336,0.0365 0.0514,0.0543 0.012,0.012 0.025,0.0225 0.0371,0.0343 0.0226,0.0237 0.0453,0.0481 0.0685,0.0713 0.0233,0.0233 0.0448,0.046 0.0685,0.0685 0.0113,0.0116 0.0228,0.0227 0.0343,0.0342 0.006,0.006 0.0135,0.0112 0.02,0.0172 0.006,0.006 0.0113,0.0115 0.0172,0.0172 0.0228,0.0239 0.045,0.0479 0.0685,0.0713 0.0173,0.0173 0.0339,0.0345 0.0514,0.0514 0.0169,0.0174 0.0342,0.0342 0.0514,0.0514 0.0232,0.0232 0.0478,0.046 0.0713,0.0685 0.005,0.006 0.0117,0.0112 0.0172,0.0172 0.006,0.006 0.0109,0.0137 0.0172,0.02 0.006,0.006 0.0136,0.0112 0.02,0.0172 0.0279,0.0295 0.0567,0.0596 0.0857,0.0885 0.0173,0.0173 0.0339,0.0345 0.0514,0.0514 0.0169,0.0174 0.0342,0.0342 0.0514,0.0514 0.0177,0.0177 0.0363,0.0341 0.0543,0.0514 0.0173,0.018 0.0336,0.0365 0.0514,0.0543 0.0173,0.0173 0.0339,0.0345 0.0514,0.0514 0.0169,0.0174 0.0342,0.0342 0.0514,0.0514 0.0232,0.0232 0.0478,0.046 0.0713,0.0685 0.005,0.006 0.0117,0.0112 0.0172,0.0172 0.006,0.006 0.0109,0.0137 0.0172,0.02 0.006,0.006 0.0136,0.0112 0.02,0.0172 0.0119,0.0126 0.0249,0.0245 0.0371,0.0371 0.56663,0.0482 1.13939,0.0771 1.71854,0.0771 11.04407,0 19.99717,-8.9531 19.99717,-19.99717 0,-0.52452 -0.0203,-1.0443 -0.0599,-1.55841 l -0.0514,-0.0514 c -4.6e-4,-4.6e-4 -0.0858,-0.0857 -0.1056,-0.1056 -4.6e-4,-4.5e-4 -0.0858,-0.0857 -0.1056,-0.1056 -4.6e-4,-4.5e-4 -0.082,-0.0819 -0.0999,-0.0999 -10e-4,-9.2e-4 -0.002,-0.002 -0.003,-0.003 -4.6e-4,-4.6e-4 -0.0858,-0.0857 -0.1056,-0.1056 l -0.10277,-0.10277 -0.003,-0.003 -0.10276,-0.10277 c -5.5e-4,-5.5e-4 -0.0858,-0.0857 -0.1056,-0.1056 l -0.10277,-0.10277 -0.1056,-0.1056 -0.1056,-0.1056 c -5.5e-4,-5.4e-4 -0.0839,-0.0838 -0.10277,-0.10276 l -0.1056,-0.1056 c -5.4e-4,-5.5e-4 -0.0839,-0.0838 -0.10276,-0.10277 l -0.1056,-0.1056 c -4.6e-4,-4.6e-4 -0.0677,-0.0705 -0.0799,-0.0828 -0.008,-0.008 -0.0172,-0.0148 -0.0257,-0.0228 l -0.0999,-0.0999 c -10e-4,-9.2e-4 -0.002,-0.002 -0.003,-0.003 l -0.1056,-0.10559 -0.1056,-0.1056 c -5.5e-4,-5.5e-4 -0.0839,-0.0838 -0.10277,-0.10277 l -0.10559,-0.1056 c -5.5e-4,-5.5e-4 -0.0839,-0.0838 -0.10277,-0.10277 l -0.1056,-0.1056 -0.1056,-0.1056 c -5.5e-4,-5.4e-4 -0.0839,-0.0838 -0.10277,-0.10276 -5.5e-4,-5.5e-4 -0.0857,-0.0856 -0.1056,-0.1056 -5.5e-4,-5.5e-4 -0.0839,-0.0838 -0.10276,-0.10277 -5.5e-4,-5.5e-4 -0.0857,-0.0856 -0.1056,-0.1056 -6.4e-4,-6.4e-4 -0.0857,-0.0856 -0.1056,-0.1056 -5.5e-4,-5.5e-4 -0.0839,-0.0838 -0.10277,-0.10277 -6.4e-4,-6.4e-4 -0.0857,-0.0856 -0.1056,-0.1056 -6.4e-4,-6.3e-4 -0.0857,-0.0856 -0.1056,-0.10559 l -0.10277,-0.10277 c -6.4e-4,-6.4e-4 -0.0857,-0.0856 -0.1056,-0.1056 l -0.10276,-0.10277 c -6.4e-4,-6.4e-4 -0.0857,-0.0856 -0.1056,-0.1056 -6.4e-4,-6.4e-4 -0.0857,-0.0856 -0.1056,-0.1056 l -0.0999,-0.0999 c -10e-4,-9.2e-4 -0.002,-0.002 -0.003,-0.003 l -0.1056,-0.1056 -0.10277,-0.10277 -0.10559,-0.1056 -0.1056,-0.1056 -0.10277,-0.10277 -0.1056,-0.1056 -0.1056,-0.1056 -0.10277,-0.10276 -0.1056,-0.1056 -0.10276,-0.10277 -0.1056,-0.1056 -0.1056,-0.1056 -0.0999,-0.0999 c -10e-4,-9.2e-4 -0.002,-0.002 -0.003,-0.003 l -0.1056,-0.10559 -0.10277,-0.10277 -0.003,-0.003 -0.10277,-0.10277 -0.10559,-0.1056 -0.10277,-0.10277 -0.1056,-0.1056 -0.1056,-0.1056 -0.10277,-0.10276 -0.1056,-0.1056 c -7.3e-4,-7.3e-4 -0.0838,-0.0837 -0.10276,-0.10277 -7.4e-4,-7.3e-4 -0.0856,-0.0855 -0.1056,-0.1056 -5.5e-4,-5.5e-4 -0.0676,-0.0704 -0.0799,-0.0828 -0.008,-0.008 -0.0172,-0.0148 -0.0257,-0.0228 -7.3e-4,-7.3e-4 -0.0819,-0.0818 -0.0999,-0.0999 -0.001,-9.2e-4 -0.002,-0.002 -0.003,-0.003 -7.3e-4,-7.3e-4 -0.0856,-0.0855 -0.1056,-0.1056 -7.3e-4,-7.3e-4 -0.0856,-0.0855 -0.1056,-0.10559 -7.3e-4,-7.4e-4 -0.0838,-0.0837 -0.10277,-0.10277 -7.3e-4,-7.3e-4 -0.0856,-0.0855 -0.1056,-0.1056 L 36.7763,15.28489 c -7.3e-4,-7.3e-4 -0.0856,-0.0855 -0.1056,-0.1056 -7.3e-4,-7.3e-4 -0.0856,-0.0855 -0.1056,-0.1056 l -0.10277,-0.10276 c -7.3e-4,-7.4e-4 -0.0856,-0.0855 -0.1056,-0.1056 l -0.10277,-0.10277 c -8.2e-4,-8.2e-4 -0.0856,-0.0855 -0.10559,-0.1056 -8.3e-4,-8.2e-4 -0.0856,-0.0855 -0.1056,-0.1056 L 35.94,14.44859 c -8.2e-4,-8.2e-4 -0.0856,-0.0855 -0.1056,-0.1056 -8.2e-4,-8.2e-4 -0.0856,-0.0855 -0.1056,-0.1056 l -0.10277,-0.10276 c -8.2e-4,-8.3e-4 -0.0856,-0.0855 -0.1056,-0.1056 l -0.10276,-0.10277 -0.1056,-0.1056 c -0.008,-0.008 -1.01909,-1.02201 -1.01909,-1.02201 -0.23047,-0.23038 -0.5343,-0.34539 -0.83639,-0.34539" />
  <g
     transform="matrix(0.09134881,0,0,0.09134881,0.88044,0.88179)"
     style="fill:#ffffff"
     id="g66">
    <path
       inkscape:connector-curvature="0"
       id="path68"
       d="m 91.03,53.55 c -6.137,-6.137 -16.09,-6.137 -22.22,0 -0.788,0.788 -1.463,1.643 -2.046,2.54 L 17.284,6.61 c -1.753,-1.753 -4.597,-1.753 -6.35,0 l -3.88,3.881 c -1.754,1.753 -1.753,4.597 0,6.35 l 4.572,4.572 -7.872,7.872 c -1.709,1.709 -1.709,4.481 0,6.19 1.709,1.709 4.481,1.709 6.19,0 l 7.872,-7.872 1.74,1.74 -7.872,7.872 c -1.709,1.709 -1.709,4.481 0,6.19 1.709,1.709 4.481,1.709 6.19,0 l 7.872,-7.872 30.785,30.786 c -0.897,0.583 -1.752,1.258 -2.54,2.046 -6.137,6.137 -6.137,16.09 0,22.22 5.02,5.02 12.575,5.927 18.521,2.746 5.946,3.181 13.505,2.269 18.521,-2.746 5.02,-5.02 5.927,-12.575 2.746,-18.521 3.182,-5.946 2.27,-13.505 -2.745,-18.52 m -6.742,30.3 c -2.825,2.825 -7.406,2.825 -10.231,0 -0.617,-0.616 -1.074,-1.326 -1.421,-2.074 -3.03,2.815 -7.762,2.768 -10.712,-0.182 -3.02,-3.02 -3.02,-7.916 0,-10.936 1.927,-1.926 4.613,-2.611 7.093,-2.08 -0.531,-2.479 0.153,-5.166 2.08,-7.092 3.02,-3.02 7.916,-3.02 10.936,0 2.95,2.95 2.997,7.68 0.182,10.712 0.748,0.348 1.458,0.805 2.074,1.421 2.824,2.825 2.824,7.406 -0.001,10.231"
       transform="matrix(-2.8781,0,0,2.8781,397.15,111.4)" />
  </g>
</svg>
