<?xml version="1.0" encoding="UTF-8" standalone="no"?>
<svg
   xmlns:dc="http://purl.org/dc/elements/1.1/"
   xmlns:cc="http://creativecommons.org/ns#"
   xmlns:rdf="http://www.w3.org/1999/02/22-rdf-syntax-ns#"
   xmlns:svg="http://www.w3.org/2000/svg"
   xmlns="http://www.w3.org/2000/svg"
   xmlns:sodipodi="http://sodipodi.sourceforge.net/DTD/sodipodi-0.dtd"
   xmlns:inkscape="http://www.inkscape.org/namespaces/inkscape"
   viewBox="0 0 48 48"
   id="svg2"
   version="1.1"
   inkscape:version="0.48.5 r10040"
   width="100%"
   height="100%"
   sodipodi:docname="kig.svg">
  <metadata
     id="metadata81">
    <rdf:RDF>
      <cc:Work
         rdf:about="">
        <dc:format>image/svg+xml</dc:format>
        <dc:type
           rdf:resource="http://purl.org/dc/dcmitype/StillImage" />
      </cc:Work>
    </rdf:RDF>
  </metadata>
  <sodipodi:namedview
     pagecolor="#ffffff"
     bordercolor="#666666"
     borderopacity="1"
     objecttolerance="10"
     gridtolerance="10"
     guidetolerance="10"
     inkscape:pageopacity="0"
     inkscape:pageshadow="2"
     inkscape:window-width="1920"
     inkscape:window-height="1031"
     id="namedview79"
     showgrid="false"
     inkscape:zoom="13.906433"
     inkscape:cx="10.60007"
     inkscape:cy="32.164954"
     inkscape:window-x="-4"
     inkscape:window-y="32"
     inkscape:window-maximized="1"
     inkscape:current-layer="svg2" />
  <defs
     id="defs4">
    <linearGradient
       id="linearGradient3764"
       x1="1"
       x2="47"
       gradientUnits="userSpaceOnUse"
       gradientTransform="matrix(0,-1,1,0,-1.5e-6,47.999998)">
      <stop
         stop-color="#3d3d3d"
         stop-opacity="1"
         id="stop7" />
      <stop
         offset="1"
         stop-color="#474747"
         stop-opacity="1"
         id="stop9" />
    </linearGradient>
    <clipPath
       id="clipPath-329594117">
      <g
         transform="translate(0,-1004.3622)"
         id="g12">
        <path
           d="m -24 13 c 0 1.105 -0.672 2 -1.5 2 -0.828 0 -1.5 -0.895 -1.5 -2 0 -1.105 0.672 -2 1.5 -2 0.828 0 1.5 0.895 1.5 2 z"
           transform="matrix(15.333333,0,0,11.5,414.99999,878.8622)"
           fill="#1890d0"
           id="path14" />
      </g>
    </clipPath>
    <clipPath
       id="clipPath-338616851">
      <g
         transform="translate(0,-1004.3622)"
         id="g17">
        <path
           d="m -24 13 c 0 1.105 -0.672 2 -1.5 2 -0.828 0 -1.5 -0.895 -1.5 -2 0 -1.105 0.672 -2 1.5 -2 0.828 0 1.5 0.895 1.5 2 z"
           transform="matrix(15.333333,0,0,11.5,414.99999,878.8622)"
           fill="#1890d0"
           id="path19" />
      </g>
    </clipPath>
    <filter
       color-interpolation-filters="sRGB"
       inkscape:collect="always"
       id="filter3812"
       x="-0.11215383"
       width="1.2243077"
       y="-0.12902658"
       height="1.2580531">
      <feGaussianBlur
         inkscape:collect="always"
         stdDeviation="1.8150202"
         id="feGaussianBlur3814" />
    </filter>
  </defs>
  <g
     id="g33" />
  <g
     transform="matrix(0.5,0,0,0.5,0,1)"
     id="layer3"
     style="fill:#008080">
    <path
       inkscape:connector-curvature="0"
       d="m 12.0625,12.0625 0,53.875 71.875,0 0,-53.875 -71.875,0 z"
       transform="matrix(-1.0008688,0,0,-1.1558456,96.010447,88.220854)"
       id="path3215"
       style="fill:#008080;fill-opacity:1;fill-rule:nonzero;stroke:none" />
    <path
       d="m 12,12 0,62.28125 71.9375,0 L 83.9375,12 12,12 z m 3,3 66,0 0,56 -66,0 0,-56 z"
       inkscape:connector-curvature="0"
       id="path3726"
       style="opacity:0.69999999999999996;fill:#008080;fill-opacity:1;fill-rule:nonzero;stroke:none" />
  </g>
  <g
     transform="matrix(0.5,0,0,0.5,0,1)"
     id="layer1"
     style="display:inline;fill:#4d4d4d">
    <path
       d="M 11.3125,8 C 9.42859,8 8,9.4293755 8,11.3125 l 0,63.375 C 8,76.570624 9.42859,78 11.3125,78 l 73.375,0 C 86.57141,78 88,76.570624 88,74.6875 l 0,-63.375 C 88,9.4293754 86.57141,8 84.6875,8 L 11.3125,8 z M 14,14 l 68,0 0,58 -68,0 0,-58 z"
       inkscape:connector-curvature="0"
       id="path3174"
       style="fill:#4d4d4d;fill-opacity:1;fill-rule:nonzero;stroke:none" />
    <path
       d="m 33,74 c -1.662,0 -3,1.338 -3,3 l -3,0 0,1 c 1.656,0 3,1.344 3,3 l 0,2 c 0,1.662 1.338,3 3,3 l 30,0 c 1.662,0 3,-1.338 3,-3 l 0,-2 c 0,-1.656 1.344,-3 3,-3 l 0,-1 -3,0 c 0,-1.662 -1.338,-3 -3,-3 l -30,0 z"
       inkscape:connector-curvature="0"
       id="rect3535"
       style="fill:#4d4d4d;fill-opacity:1;fill-rule:nonzero;stroke:none" />
    <path
       d="m 14,72 68,0 0,1 -68,0 0,-1 z"
       inkscape:connector-curvature="0"
       id="rect3483"
       style="fill:#4d4d4d;fill-opacity:1;fill-rule:nonzero;stroke:none" />
    <rect
       width="5"
       height="2"
       rx="1"
       ry="1"
       x="55.323669"
       y="81.23436"
       id="rect3485"
       style="fill:#4d4d4d;fill-opacity:1;fill-rule:nonzero;stroke:none" />
  </g>
  <path
     transform="matrix(0.5848083,0,0,0.5848083,2.991617,14.996123)"
     inkscape:transform-center-y="-3.2420712"
     inkscape:transform-center-x="0.042030526"
     d="M 42.836074,-0.16554538 52.438252,16.714887 62.04043,33.595319 42.620457,33.470833 23.200485,33.346347 33.01828,16.5904 z"
     inkscape:randomized="0"
     inkscape:rounded="0"
     inkscape:flatsided="false"
     sodipodi:arg2="-0.51718861"
     sodipodi:arg1="-1.5643862"
     sodipodi:r2="11.212357"
     sodipodi:r1="22.424713"
     sodipodi:cy="22.258707"
     sodipodi:cx="42.692329"
     sodipodi:sides="3"
     id="path3810"
     style="fill:none;stroke:#00ffff;stroke-opacity:1;filter:url(#filter3812)"
     sodipodi:type="star" />
  <path
     sodipodi:type="star"
     style="fill:none;stroke:#00ffff;stroke-opacity:1"
     id="path3040"
     sodipodi:sides="3"
     sodipodi:cx="42.692329"
     sodipodi:cy="22.258707"
     sodipodi:r1="22.424713"
     sodipodi:r2="11.212357"
     sodipodi:arg1="-1.5643862"
     sodipodi:arg2="-0.51718861"
     inkscape:flatsided="false"
     inkscape:rounded="0"
     inkscape:randomized="0"
     d="M 42.836074,-0.16554538 52.438252,16.714887 62.04043,33.595319 42.620457,33.470833 23.200485,33.346347 33.01828,16.5904 z"
     inkscape:transform-center-x="0.042030526"
     inkscape:transform-center-y="-3.2420712"
     transform="matrix(0.5848083,0,0,0.5848083,2.991617,14.996123)" />
</svg>
