<?xml version="1.0" encoding="UTF-8" standalone="no"?>
<!-- Created with Inkscape (http://www.inkscape.org/) -->

<svg
   xmlns:dc="http://purl.org/dc/elements/1.1/"
   xmlns:cc="http://creativecommons.org/ns#"
   xmlns:rdf="http://www.w3.org/1999/02/22-rdf-syntax-ns#"
   xmlns:svg="http://www.w3.org/2000/svg"
   xmlns="http://www.w3.org/2000/svg"
   xmlns:sodipodi="http://sodipodi.sourceforge.net/DTD/sodipodi-0.dtd"
   xmlns:inkscape="http://www.inkscape.org/namespaces/inkscape"
   width="48"
   height="48"
   id="svg2"
   version="1.1"
   inkscape:version="0.48.5 r10040"
   viewBox="0 0 13.546667 13.546667"
   sodipodi:docname="kivio.svg">
  <defs
     id="defs4" />
  <sodipodi:namedview
     id="base"
     pagecolor="#ffffff"
     bordercolor="#666666"
     borderopacity="1.0"
     inkscape:pageopacity="0.0"
     inkscape:pageshadow="2"
     inkscape:zoom="8"
     inkscape:cx="5.6180013"
     inkscape:cy="30.59667"
     inkscape:document-units="px"
     inkscape:current-layer="layer1"
     showgrid="false"
     inkscape:showpageshadow="false"
     borderlayer="true"
     units="px"
     inkscape:window-width="1920"
     inkscape:window-height="1031"
     inkscape:window-x="-4"
     inkscape:window-y="32"
     inkscape:window-maximized="1">
    <sodipodi:guide
       position="8.9999996,39.000048"
       orientation="30.000028,0"
       id="guide3285" />
    <sodipodi:guide
       position="8.9999996,9.0000194"
       orientation="0,30.000001"
       id="guide3287" />
    <sodipodi:guide
       position="39.000001,9.0000194"
       orientation="-30.000028,0"
       id="guide3289" />
    <sodipodi:guide
       position="39.000001,39.000048"
       orientation="0,-30.000001"
       id="guide3291" />
  </sodipodi:namedview>
  <metadata
     id="metadata7">
    <rdf:RDF>
      <cc:Work
         rdf:about="">
        <dc:format>image/svg+xml</dc:format>
        <dc:type
           rdf:resource="http://purl.org/dc/dcmitype/StillImage" />
        <dc:title />
      </cc:Work>
    </rdf:RDF>
  </metadata>
  <g
     inkscape:label="Capa 1"
     inkscape:groupmode="layer"
     id="layer1"
     transform="translate(0,-283.45333)">
    <rect
       y="284.58218"
       x="1.1288891"
       height="11.28889"
       width="11.288889"
       id="rect3316"
       style="fill:#82b7e3;stroke:none;fill-opacity:1"
       ry="5.6444449" />
    <rect
       style="fill:none;stroke:#000000;stroke-width:0.10720868;stroke-linecap:round;stroke-linejoin:bevel;stroke-miterlimit:4;stroke-opacity:1;stroke-dasharray:none;stroke-dashoffset:2.25"
       id="rect4098"
       width="1.6961727"
       height="1.0051074"
       x="5.7510786"
       y="288.97858"
       rx="0" />
    <path
       inkscape:connector-curvature="0"
       id="path4108"
       d="m 5.9759351,289.50875 0,1.6189 0,0.23129 0,0.3469 0,0.23129 0,0.3469 0,0.23128 0,1.61895 2.8796252,0 0.2879624,0 1.4398093,0 0,-4.62551 -1.4398093,0 -0.2879624,0 -2.8796252,0 z m 0.5759252,0.46252 0.8638872,0 0,1.15638 -0.8638872,0 0,-1.15638 z m 1.1518496,0 0.4319438,0 0,1.15638 -0.4319438,0 0,-1.15638 z m 0.7199062,0 0.4319442,0 0,1.15638 -0.4319442,0 0,-1.15638 z m 0.7199066,0 0.8638873,0 0,1.15638 -0.8638873,0 0,-1.15638 z m -2.5916624,1.38767 0.8638872,0 0,0.3469 -0.8638872,0 0,-0.3469 z m 1.1518496,0 0.4319438,0 0,0.3469 -0.4319438,0 0,-0.3469 z m 0.7199062,0 0.4319442,0 0,0.3469 -0.4319442,0 0,-0.3469 z m 0.7199066,0 0.8638873,0 0,0.3469 -0.8638873,0 0,-0.3469 z m -2.5916624,0.57819 0.8638872,0 0,0.3469 -0.8638872,0 0,-0.3469 z m 1.1518496,0 0.4319438,0 0,0.3469 -0.4319438,0 0,-0.3469 z m 0.7199062,0 0.4319442,0 0,0.3469 -0.4319442,0 0,-0.3469 z m 0.7199066,0 0.8638873,0 0,0.3469 -0.8638873,0 0,-0.3469 z m -2.5916624,0.57818 0.8638872,0 0,1.15639 -0.8638872,0 0,-1.15639 z m 1.1518496,0 0.4319438,0 0,1.15639 -0.4319438,0 0,-1.15639 z m 0.7199062,0 0.4319442,0 0,1.15639 -0.4319442,0 0,-1.15639 z m 0.7199066,0 0.8638873,0 0,1.15639 -0.8638873,0 0,-1.15639 z"
       style="fill:#6ca1d5;fill-opacity:1;fill-rule:evenodd;stroke:none" />
    <path
       style="fill:#ffffff;fill-opacity:1;fill-rule:evenodd;stroke:none"
       d="m 6.101082,289.63437 0,1.53097 0,0.21873 0,0.32805 0,0.21872 0,0.32806 0,0.21872 0,1.53101 2.7231914,0 0.272319,0 1.3615936,0 0,-4.37426 -1.3615936,0 -0.272319,0 -2.7231914,0 z m 0.5446385,0.43742 0.8169573,0 0,1.09355 -0.8169573,0 0,-1.09355 z m 1.0892764,0 0.4084786,0 0,1.09355 -0.4084786,0 0,-1.09355 z m 0.6807979,0 0.408479,0 0,1.09355 -0.408479,0 0,-1.09355 z m 0.6807976,0 0.8169577,0 0,1.09355 -0.8169577,0 0,-1.09355 z m -2.4508719,1.31228 0.8169573,0 0,0.32805 -0.8169573,0 0,-0.32805 z m 1.0892764,0 0.4084786,0 0,0.32805 -0.4084786,0 0,-0.32805 z m 0.6807979,0 0.408479,0 0,0.32805 -0.408479,0 0,-0.32805 z m 0.6807976,0 0.8169577,0 0,0.32805 -0.8169577,0 0,-0.32805 z m -2.4508719,0.54677 0.8169573,0 0,0.32806 -0.8169573,0 0,-0.32806 z m 1.0892764,0 0.4084786,0 0,0.32806 -0.4084786,0 0,-0.32806 z m 0.6807979,0 0.408479,0 0,0.32806 -0.408479,0 0,-0.32806 z m 0.6807976,0 0.8169577,0 0,0.32806 -0.8169577,0 0,-0.32806 z m -2.4508719,0.54678 0.8169573,0 0,1.09357 -0.8169573,0 0,-1.09357 z m 1.0892764,0 0.4084786,0 0,1.09357 -0.4084786,0 0,-1.09357 z m 0.6807979,0 0.408479,0 0,1.09357 -0.408479,0 0,-1.09357 z m 0.6807976,0 0.8169577,0 0,1.09357 -0.8169577,0 0,-1.09357 z"
       id="folderGlyph"
       inkscape:connector-curvature="0" />
    <rect
       style="fill:none;stroke:#000000;stroke-width:0.10720868;stroke-opacity:1"
       id="rect4086"
       width="1.6068056"
       height="1.0344236"
       x="4.1047707"
       y="286.15189"
       rx="0" />
    <path
       style="fill:none;stroke:#000000;stroke-width:0.10720868px;stroke-linecap:butt;stroke-linejoin:miter;stroke-opacity:1"
       d="m 4.9490232,287.1865 0,0.735"
       id="path4090"
       inkscape:connector-curvature="0" />
    <path
       style="fill:none;stroke:#000000;stroke-width:0.10720868px;stroke-linecap:butt;stroke-linejoin:miter;stroke-opacity:1"
       d="m 3.4783876,289.01036 0,-1.06164 3.1319095,0.0272 0,1.00721"
       id="path4092"
       inkscape:connector-curvature="0"
       sodipodi:nodetypes="cccc" />
    <rect
       style="fill:none;stroke:#000000;stroke-width:0.10720868;stroke-linecap:round;stroke-linejoin:bevel;stroke-miterlimit:4;stroke-opacity:1;stroke-dasharray:none;stroke-dashoffset:2.25"
       id="rect4094"
       width="2.0731006"
       height="1.1307461"
       x="2.4843786"
       y="289.00998" />
    <path
       style="fill:none;stroke:#000000;stroke-width:0.10720868px;stroke-linecap:butt;stroke-linejoin:miter;stroke-opacity:1"
       d="m 3.4895166,290.17248 -0.03141,1.85316"
       id="path4100"
       inkscape:connector-curvature="0" />
    <path
       style="fill:none;stroke:#000000;stroke-width:0.10720868px;stroke-linecap:butt;stroke-linejoin:miter;stroke-opacity:1"
       d="m 2.170271,292.08846 3.1096508,-0.0314"
       id="path4102"
       inkscape:connector-curvature="0" />
    <path
       style="fill:none;stroke:#000000;stroke-width:0.10720868px;stroke-linecap:butt;stroke-linejoin:miter;stroke-opacity:1"
       d="m 5.2171005,292.02564 -0.031411,2.32433"
       id="path4104"
       inkscape:connector-curvature="0" />
  </g>
</svg>
