<?xml version="1.0" encoding="UTF-8" standalone="no"?>
<!-- Created with Inkscape (http://www.inkscape.org/) -->

<svg
   xmlns:dc="http://purl.org/dc/elements/1.1/"
   xmlns:cc="http://creativecommons.org/ns#"
   xmlns:rdf="http://www.w3.org/1999/02/22-rdf-syntax-ns#"
   xmlns:svg="http://www.w3.org/2000/svg"
   xmlns="http://www.w3.org/2000/svg"
   xmlns:xlink="http://www.w3.org/1999/xlink"
   xmlns:sodipodi="http://sodipodi.sourceforge.net/DTD/sodipodi-0.dtd"
   xmlns:inkscape="http://www.inkscape.org/namespaces/inkscape"
   width="48"
   height="48"
   id="svg2"
   version="1.1"
   inkscape:version="0.48.5 r10040"
   viewBox="0 0 13.546666 13.546668"
   sodipodi:docname="kjournal.svg">
  <defs
     id="defs4">
    <clipPath
       id="clipPath-600867032">
      <g
         transform="translate(0,-1004.3622)"
         id="g17">
        <path
           style="fill:#1890d0"
           inkscape:connector-curvature="0"
           d="m -24,13 c 0,1.105 -0.672,2 -1.5,2 -0.828,0 -1.5,-0.895 -1.5,-2 0,-1.105 0.672,-2 1.5,-2 0.828,0 1.5,0.895 1.5,2 z"
           transform="matrix(15.333333,0,0,11.5,414.99999,878.8622)"
           id="path19" />
      </g>
    </clipPath>
  </defs>
  <sodipodi:namedview
     id="base"
     pagecolor="#ffffff"
     bordercolor="#666666"
     borderopacity="1.0"
     inkscape:pageopacity="0"
     inkscape:pageshadow="2"
     inkscape:zoom="5.6568542"
     inkscape:cx="20.878182"
     inkscape:cy="16.868116"
     inkscape:document-units="px"
     inkscape:current-layer="layer1"
     showgrid="false"
     inkscape:showpageshadow="false"
     borderlayer="true"
     units="px"
     fit-margin-top="0"
     fit-margin-left="0"
     fit-margin-right="0"
     fit-margin-bottom="0"
     showguides="false"
     inkscape:window-width="1920"
     inkscape:window-height="1031"
     inkscape:window-x="-4"
     inkscape:window-y="32"
     inkscape:window-maximized="1">
    <sodipodi:guide
       position="-6.6748425e-06,47.999999"
       orientation="47.999977,0"
       id="guide4120" />
    <sodipodi:guide
       position="-6.6748425e-06,2.2810037e-05"
       orientation="0,48.000004"
       id="guide4122" />
    <sodipodi:guide
       position="47.999997,2.2810037e-05"
       orientation="-47.999977,0"
       id="guide4124" />
    <sodipodi:guide
       position="47.999997,47.999999"
       orientation="0,-48.000004"
       id="guide4126" />
    <sodipodi:guide
       position="3.9999733,44.000154"
       orientation="39.999962,0"
       id="guide4138" />
    <sodipodi:guide
       position="3.9999733,4.0001921"
       orientation="0,40.000003"
       id="guide4140" />
    <sodipodi:guide
       position="43.999976,4.0001921"
       orientation="-39.999962,0"
       id="guide4142" />
    <sodipodi:guide
       position="43.999976,44.000154"
       orientation="0,-40.000003"
       id="guide4144" />
    <sodipodi:guide
       position="6.9999922,47.999999"
       orientation="39.999962,0"
       id="guide4148" />
    <sodipodi:guide
       position="6.9999922,8.0000369"
       orientation="0,34.000006"
       id="guide4150" />
    <sodipodi:guide
       position="40.999998,8.0000369"
       orientation="-39.999962,0"
       id="guide4152" />
    <sodipodi:guide
       position="40.999998,47.999999"
       orientation="0,-34.000006"
       id="guide4154" />
    <sodipodi:guide
       position="14.999993,32.999986"
       orientation="17.999951,0"
       id="guide4158" />
    <sodipodi:guide
       position="14.999993,15.000036"
       orientation="0,17.999998"
       id="guide4160" />
    <sodipodi:guide
       position="32.999991,15.000036"
       orientation="-17.999951,0"
       id="guide4162" />
    <sodipodi:guide
       position="32.999991,32.999986"
       orientation="0,-17.999998"
       id="guide4164" />
    <sodipodi:guide
       position="1.9999969,44.000046"
       orientation="39.999962,0"
       id="guide3279" />
    <sodipodi:guide
       position="1.9999969,4.0000839"
       orientation="0,44.000003"
       id="guide3281" />
    <sodipodi:guide
       position="46,4.0000839"
       orientation="-39.999962,0"
       id="guide3283" />
    <sodipodi:guide
       position="46,44.000046"
       orientation="0,-44.000003"
       id="guide3285" />
    <inkscape:grid
       type="xygrid"
       id="grid3808" />
  </sodipodi:namedview>
  <metadata
     id="metadata7">
    <rdf:RDF>
      <cc:Work
         rdf:about="">
        <dc:format>image/svg+xml</dc:format>
        <dc:type
           rdf:resource="http://purl.org/dc/dcmitype/StillImage" />
        <dc:title />
      </cc:Work>
    </rdf:RDF>
  </metadata>
  <g
     inkscape:label="Capa 1"
     inkscape:groupmode="layer"
     id="layer1"
     transform="translate(38.119153,-397.84494)">
    <g
       id="g68"
       transform="matrix(0.47037042,0,0,0.47037042,-42.63471,393.32938)">
      <g
         clip-path="url(#clipPath-600867032)"
         id="g70">
        <!-- color: #eeeeee -->
        <g
           id="g72">
          <path
             d="m 14,12 22,0 0,24 -22,0 m 0,-24"
             id="path74"
             inkscape:connector-curvature="0"
             style="fill:#7f5aab;fill-opacity:1;fill-rule:nonzero;stroke:none" />
          <path
             d="m 33.813,23.441 c -0.191,-0.266 -0.398,-0.512 -0.605,-0.754 -1.121,-1.316 -2.41,-2.484 -3.82,-3.336 -0.902,-0.539 -1.863,-0.98 -2.863,-1.188 -0.508,-0.109 -1.012,-0.164 -1.527,-0.164 -0.508,0 -1.016,0.055 -1.52,0.164 -1,0.207 -1.961,0.648 -2.863,1.188 -1.41,0.852 -2.691,2.02 -3.816,3.336 -0.207,0.242 -0.414,0.488 -0.605,0.754 -0.25,0.352 -0.25,0.766 0,1.117 0.574,0.801 1.258,1.516 1.953,2.168 1.496,1.406 3.207,2.582 5.098,3.055 0.582,0.148 1.172,0.219 1.762,0.219 0.594,0 1.176,-0.07 1.762,-0.219 1.891,-0.473 3.602,-1.648 5.102,-3.055 0.695,-0.652 1.379,-1.363 1.953,-2.168 0.25,-0.352 0.25,-0.766 0,-1.117 m 0,0"
             id="path76"
             inkscape:connector-curvature="0"
             style="fill:#ececeb;fill-opacity:1;fill-rule:nonzero;stroke:none" />
          <path
             d="m 29.5,24 c 0,2.488 -2.02,4.5 -4.5,4.5 -2.484,0 -4.5,-2.01 -4.5,-4.5 0,-2.484 2.02,-4.496 4.5,-4.496 2.484,0 4.5,2.01 4.5,4.496 m 0,0"
             id="path78"
             inkscape:connector-curvature="0"
             style="fill:#4586f9;fill-opacity:1;fill-rule:nonzero;stroke:none" />
          <path
             d="m 27.5,24 c 0,1.383 -1.121,2.5 -2.5,2.5 -1.379,0 -2.5,-1.117 -2.5,-2.5 0,-1.379 1.121,-2.5 2.5,-2.5 1.379,0 2.5,1.121 2.5,2.5 m 0,0"
             id="SVGCleanerId_0"
             inkscape:connector-curvature="0"
             style="fill:#000000;fill-opacity:1;fill-rule:nonzero;stroke:none" />
          <path
             d="m 27,23 c 0,0.551 -0.449,1 -1,1 -0.551,0 -1,-0.449 -1,-1 0,-0.551 0.449,-1 1,-1 0.551,0 1,0.449 1,1 m 0,0"
             id="path81"
             inkscape:connector-curvature="0"
             style="fill:#ffffff;fill-opacity:1;fill-rule:nonzero;stroke:none" />
          <path
             d="m 28.492,18.859 -8.125,9.637 c 0.371,0.238 0.746,0.453 1.137,0.645 l 8.121,-9.637 C 29.266,19.25 28.844,19.039 28.492,18.859 m 0,0"
             id="path83"
             inkscape:connector-curvature="0"
             style="fill:#e54444;fill-opacity:1;fill-rule:nonzero;stroke:none" />
          <use
             xlink:href="#SVGCleanerId_1"
             id="use85"
             style="fill:#e54444"
             x="0"
             y="0"
             width="48"
             height="48" />
          <use
             xlink:href="#SVGCleanerId_1"
             id="use87"
             style="fill:#ffcc00"
             x="0"
             y="0"
             width="48"
             height="48" />
          <path
             d="m 12,19 4,0 0,2 -4,0 m 0,-2"
             id="path89"
             inkscape:connector-curvature="0"
             style="fill:#ffcc00;fill-opacity:1;fill-rule:nonzero;stroke:none" />
          <path
             d="m 12,27 4,0 0,2 -4,0 m 0,-2"
             id="path91"
             inkscape:connector-curvature="0"
             style="fill:#ffcc00;fill-opacity:1;fill-rule:nonzero;stroke:none" />
          <path
             d="m 12,32 4,0 0,2 -4,0 m 0,-2"
             id="path93"
             inkscape:connector-curvature="0"
             style="fill:#ffcc00;fill-opacity:1;fill-rule:nonzero;stroke:none" />
        </g>
      </g>
    </g>
  </g>
</svg>
