<?xml version="1.0" encoding="UTF-8" standalone="no"?>
<!-- Created using Karbon, part of Calligra: http://www.calligra.org/karbon -->

<svg
   xmlns:dc="http://purl.org/dc/elements/1.1/"
   xmlns:cc="http://creativecommons.org/ns#"
   xmlns:rdf="http://www.w3.org/1999/02/22-rdf-syntax-ns#"
   xmlns:svg="http://www.w3.org/2000/svg"
   xmlns="http://www.w3.org/2000/svg"
   xmlns:sodipodi="http://sodipodi.sourceforge.net/DTD/sodipodi-0.dtd"
   xmlns:inkscape="http://www.inkscape.org/namespaces/inkscape"
   width="38.4pt"
   height="38.4pt"
   id="svg2"
   version="1.1"
   inkscape:version="0.48.5 r10040"
   sodipodi:docname="kontact-import-wizard.svg">
  <metadata
     id="metadata13">
    <rdf:RDF>
      <cc:Work
         rdf:about="">
        <dc:format>image/svg+xml</dc:format>
        <dc:type
           rdf:resource="http://purl.org/dc/dcmitype/StillImage" />
        <dc:title />
      </cc:Work>
    </rdf:RDF>
  </metadata>
  <sodipodi:namedview
     pagecolor="#ffffff"
     bordercolor="#666666"
     borderopacity="1"
     objecttolerance="10"
     gridtolerance="10"
     guidetolerance="10"
     inkscape:pageopacity="0"
     inkscape:pageshadow="2"
     inkscape:window-width="1920"
     inkscape:window-height="1031"
     id="namedview11"
     showgrid="true"
     inkscape:zoom="13.906433"
     inkscape:cx="23.37913"
     inkscape:cy="27.077949"
     inkscape:window-x="-4"
     inkscape:window-y="32"
     inkscape:window-maximized="1"
     inkscape:current-layer="svg2"
     inkscape:showpageshadow="false"
     borderlayer="true">
    <sodipodi:guide
       position="9.5367432e-07,48.000001"
       orientation="47.999999,0"
       id="guide4062" />
    <sodipodi:guide
       position="9.5367432e-07,1.9073486e-06"
       orientation="0,47.999999"
       id="guide4064" />
    <sodipodi:guide
       position="48,1.9073486e-06"
       orientation="-47.999999,0"
       id="guide4066" />
    <sodipodi:guide
       position="48,48.000001"
       orientation="0,-47.999999"
       id="guide4068" />
    <sodipodi:guide
       position="4.000001,44.000001"
       orientation="39.999999,0"
       id="guide4070" />
    <sodipodi:guide
       position="4.000001,4.0000019"
       orientation="0,39.999999"
       id="guide4072" />
    <sodipodi:guide
       position="44,4.0000019"
       orientation="-39.999999,0"
       id="guide4074" />
    <sodipodi:guide
       position="44,44.000001"
       orientation="0,-39.999999"
       id="guide4076" />
    <sodipodi:guide
       position="15.000001,33.000001"
       orientation="17.999999,0"
       id="guide4080" />
    <sodipodi:guide
       position="15.000001,15.000002"
       orientation="0,17.999999"
       id="guide4082" />
    <sodipodi:guide
       position="33,15.000002"
       orientation="-17.999999,0"
       id="guide4084" />
    <sodipodi:guide
       position="33,33.000001"
       orientation="0,-17.999999"
       id="guide4086" />
    <inkscape:grid
       type="xygrid"
       id="grid4094" />
  </sodipodi:namedview>
  <defs
     id="defs4" />
  <rect
     style="fill:#2281c0;fill-opacity:1;stroke:none"
     id="rect4088"
     width="40"
     height="40"
     x="4.000001"
     y="4.000001"
     ry="20" />
  <path
     style="fill:#f2f2f2;fill-opacity:1;stroke:none"
     id="path3813"
     inkscape:connector-curvature="0"
     d="m 22.608532,18.80509 c -1.903231,0 -3.449694,1.435489 -3.449694,3.213188 0.0046,0.203725 0.0067,0.442095 0.02782,0.695495 -0.301201,0.160691 -0.338218,0.785306 -0.06955,1.41881 0.1036,0.244285 0.246698,0.451277 0.389482,0.612036 0.0048,0.0053 0.0091,0.0087 0.01391,0.01391 0.03408,0.167379 0.05615,0.298046 0.09737,0.486847 0.12769,0.383362 0.662071,1.104928 1.126715,1.724828 0.04634,0.478203 0.0515,0.944414 -0.04173,1.48836 -0.752887,0.62511 -2.150634,1.067377 -3.241044,1.53009 -0.392223,-0.180344 -0.747826,-0.377353 -1.001524,-0.598127 -0.04011,-0.330263 -0.03434,-0.662311 -0.01391,-0.987603 0.316837,-0.489112 0.728582,-1.114416 0.834604,-1.43272 0.03897,-0.16484 0.0532,-0.27575 0.08346,-0.417296 0.09356,-0.114445 0.181315,-0.254443 0.250381,-0.417298 0.191354,-0.451206 0.167209,-0.882836 -0.02782,-1.029332 0.01362,-0.196052 0.03603,-0.374927 0.04173,-0.542487 0,-1.333272 -1.159847,-2.420323 -2.58727,-2.420323 -1.427423,0 -2.587271,1.087055 -2.587271,2.420323 0.0035,0.152796 0.01195,0.324615 0.02782,0.514667 -0.2259,0.120515 -0.257141,0.582022 -0.05564,1.057152 0.0777,0.18321 0.185024,0.338459 0.292111,0.459027 0.0036,0.004 0.01032,0.01 0.01391,0.01391 0.02556,0.125532 0.03863,0.220057 0.06955,0.361657 0.09577,0.287519 0.48612,0.828697 0.834603,1.293622 0.03475,0.358652 0.0421,0.718739 -0.02782,1.126701 -1.003055,0.832823 -3.56482,1.196488 -3.560974,2.058666 L 9.7,33.702597 c 0,0.459276 0.689162,0.870376 1.780487,1.154521 l 0.153011,0.612036 a 0.3753151,0.37559943 0 0 0 0.236471,0.250379 c 0.04844,0.01874 0.07589,0.0588 0.208651,0.09737 0.699326,0.203182 1.765517,0.347748 2.962842,0.347748 1.128213,0 2.138558,-0.135415 2.837651,-0.319929 l 0.180831,0.737225 a 0.50042013,0.50079924 0 0 0 0.306021,0.333838 c 0.06459,0.02501 0.115102,0.07376 0.292111,0.125189 0.932435,0.270911 2.354023,0.459026 3.950456,0.459026 1.596434,0 3.031931,-0.188115 3.964366,-0.459027 0.177009,-0.05143 0.227525,-0.100191 0.292112,-0.125189 a 0.50042013,0.50079924 0 0 0 0.292111,-0.319928 l 0.208651,-0.737225 c 0.697287,0.181869 1.691514,0.306019 2.809831,0.306019 1.197325,0 2.277426,-0.144566 2.976752,-0.347748 0.132757,-0.03859 0.160211,-0.07862 0.208651,-0.09737 a 0.3753151,0.37559943 0 0 0 0.222561,-0.236469 l 0.194741,-0.639856 c 1.064661,-0.2837 1.738757,-0.687803 1.738757,-1.140611 l -0.347752,-2.253405 c -0.0041,-0.737906 -2.584129,-1.196487 -3.574884,-2.058666 -0.04012,-0.330263 -0.03434,-0.662311 -0.01391,-0.987603 0.316836,-0.489112 0.728582,-1.114416 0.834603,-1.43272 0.03897,-0.16484 0.0532,-0.27575 0.08346,-0.417296 0.09356,-0.114445 0.181315,-0.254443 0.250381,-0.417298 0.191355,-0.451206 0.167209,-0.882836 -0.02782,-1.029332 0.01363,-0.196052 0.03603,-0.374927 0.04173,-0.542487 0,-1.333272 -1.159847,-2.420323 -2.58727,-2.420323 -1.427423,0 -2.587271,1.087055 -2.587271,2.420323 0.0035,0.152796 0.01195,0.324615 0.02782,0.514667 -0.225901,0.120515 -0.257141,0.582022 -0.05564,1.057152 0.0777,0.18321 0.185024,0.338459 0.292112,0.459027 0.0036,0.004 0.01032,0.01 0.01391,0.01391 0.02556,0.125532 0.03864,0.220057 0.06955,0.361657 0.09577,0.287519 0.48612,0.828697 0.834603,1.293622 0.03475,0.358652 0.0421,0.718739 -0.02782,1.126701 -0.286369,0.237769 -0.695716,0.427001 -1.140624,0.612037 -1.073149,-0.452823 -2.390723,-0.925078 -3.101943,-1.544 -0.05348,-0.440354 -0.05505,-0.873809 -0.02782,-1.307531 0.422449,-0.652145 0.985353,-1.481251 1.126714,-1.905657 0.05195,-0.219789 0.07093,-0.367666 0.111281,-0.556396 0.124749,-0.152595 0.241753,-0.339254 0.333841,-0.556396 0.25514,-0.601602 0.232219,-1.18175 -0.02782,-1.37708 0.01817,-0.261405 0.03414,-0.513812 0.04173,-0.737225 0,-1.777695 -1.546463,-3.213188 -3.449694,-3.213188 z" />
  <path
     sodipodi:type="star"
     style="fill:#f2f2f2;fill-opacity:1;fill-rule:evenodd;stroke:none"
     id="path3048"
     sodipodi:sides="3"
     sodipodi:cx="80.920609"
     sodipodi:cy="28.644115"
     sodipodi:r1="10.056608"
     sodipodi:r2="5.0283041"
     sodipodi:arg1="-1.5707963"
     sodipodi:arg2="-0.52359878"
     inkscape:flatsided="true"
     inkscape:rounded="0"
     inkscape:randomized="0"
     d="m 80.920609,18.587507 8.709278,15.084913 -17.418557,-1e-6 z"
     inkscape:transform-center-y="-1.1190918"
     transform="matrix(0.4451218,0,0,0.44511689,-0.1962168,2.9353865)" />
</svg>
