<?xml version="1.0" encoding="UTF-8" standalone="no"?>
<!-- Created with Inkscape (http://www.inkscape.org/) -->

<svg
   xmlns:dc="http://purl.org/dc/elements/1.1/"
   xmlns:cc="http://creativecommons.org/ns#"
   xmlns:rdf="http://www.w3.org/1999/02/22-rdf-syntax-ns#"
   xmlns:svg="http://www.w3.org/2000/svg"
   xmlns="http://www.w3.org/2000/svg"
   xmlns:sodipodi="http://sodipodi.sourceforge.net/DTD/sodipodi-0.dtd"
   xmlns:inkscape="http://www.inkscape.org/namespaces/inkscape"
   width="48"
   height="48"
   id="svg2"
   version="1.1"
   inkscape:version="0.48.5 r10040"
   viewBox="0 0 13.546666 13.546668"
   sodipodi:docname="krcd.svg">
  <defs
     id="defs4" />
  <sodipodi:namedview
     id="base"
     pagecolor="#ffffff"
     bordercolor="#666666"
     borderopacity="1.0"
     inkscape:pageopacity="0"
     inkscape:pageshadow="2"
     inkscape:zoom="5.6568542"
     inkscape:cx="20.878182"
     inkscape:cy="16.868116"
     inkscape:document-units="px"
     inkscape:current-layer="layer1"
     showgrid="false"
     inkscape:showpageshadow="false"
     borderlayer="true"
     units="px"
     fit-margin-top="0"
     fit-margin-left="0"
     fit-margin-right="0"
     fit-margin-bottom="0"
     showguides="false"
     inkscape:window-width="1920"
     inkscape:window-height="1025"
     inkscape:window-x="-4"
     inkscape:window-y="39"
     inkscape:window-maximized="1">
    <sodipodi:guide
       position="-6.6748425e-06,47.999999"
       orientation="47.999977,0"
       id="guide4120" />
    <sodipodi:guide
       position="-6.6748425e-06,2.2810037e-05"
       orientation="0,48.000004"
       id="guide4122" />
    <sodipodi:guide
       position="47.999997,2.2810037e-05"
       orientation="-47.999977,0"
       id="guide4124" />
    <sodipodi:guide
       position="47.999997,47.999999"
       orientation="0,-48.000004"
       id="guide4126" />
    <sodipodi:guide
       position="3.9999733,44.000154"
       orientation="39.999962,0"
       id="guide4138" />
    <sodipodi:guide
       position="3.9999733,4.0001921"
       orientation="0,40.000003"
       id="guide4140" />
    <sodipodi:guide
       position="43.999976,4.0001921"
       orientation="-39.999962,0"
       id="guide4142" />
    <sodipodi:guide
       position="43.999976,44.000154"
       orientation="0,-40.000003"
       id="guide4144" />
    <sodipodi:guide
       position="6.9999922,47.999999"
       orientation="39.999962,0"
       id="guide4148" />
    <sodipodi:guide
       position="6.9999922,8.0000369"
       orientation="0,34.000006"
       id="guide4150" />
    <sodipodi:guide
       position="40.999998,8.0000369"
       orientation="-39.999962,0"
       id="guide4152" />
    <sodipodi:guide
       position="40.999998,47.999999"
       orientation="0,-34.000006"
       id="guide4154" />
    <sodipodi:guide
       position="14.999993,32.999986"
       orientation="17.999951,0"
       id="guide4158" />
    <sodipodi:guide
       position="14.999993,15.000036"
       orientation="0,17.999998"
       id="guide4160" />
    <sodipodi:guide
       position="32.999991,15.000036"
       orientation="-17.999951,0"
       id="guide4162" />
    <sodipodi:guide
       position="32.999991,32.999986"
       orientation="0,-17.999998"
       id="guide4164" />
    <sodipodi:guide
       position="1.9999969,44.000046"
       orientation="39.999962,0"
       id="guide3279" />
    <sodipodi:guide
       position="1.9999969,4.0000839"
       orientation="0,44.000003"
       id="guide3281" />
    <sodipodi:guide
       position="46,4.0000839"
       orientation="-39.999962,0"
       id="guide3283" />
    <sodipodi:guide
       position="46,44.000046"
       orientation="0,-44.000003"
       id="guide3285" />
    <inkscape:grid
       type="xygrid"
       id="grid3808" />
  </sodipodi:namedview>
  <metadata
     id="metadata7">
    <rdf:RDF>
      <cc:Work
         rdf:about="">
        <dc:format>image/svg+xml</dc:format>
        <dc:type
           rdf:resource="http://purl.org/dc/dcmitype/StillImage" />
        <dc:title />
      </cc:Work>
    </rdf:RDF>
  </metadata>
  <g
     inkscape:label="Capa 1"
     inkscape:groupmode="layer"
     id="layer1"
     transform="translate(38.119153,-397.84494)">
    <path
       style="fill:#d23638;fill-rule:evenodd"
       inkscape:connector-curvature="0"
       d="m -25.701375,404.61827 c 0,3.11733 -2.527121,5.64445 -5.644445,5.64445 -3.117324,0 -5.644445,-2.52712 -5.644445,-5.64445 0,-3.11732 2.527121,-5.64444 5.644445,-5.64444 3.117324,0 5.644445,2.52712 5.644445,5.64444"
       id="path4084" />
    <path
       style="opacity:0.25"
       inkscape:connector-curvature="0"
       id="path4238"
       d="m -31.272593,400.95561 c -1.412954,0 -2.649338,0.76788 -3.314058,1.90804 l 3.056473,3.05647 0.0031,1.69924 h -0.950797 c -0.22538,0 -0.406103,0.1823 -0.406103,0.40773 0,0.22538 0.180748,0.4061 0.406103,0.4061 l 1.791237,1.79124 c 2.704775,-0.31452 4.825793,-2.54079 4.976631,-5.29197 l -2.853293,-2.8533 c -0.693907,-0.6939 -1.652001,-1.12337 -2.709158,-1.12337" />
    <path
       style="fill:#ffffff"
       inkscape:connector-curvature="0"
       id="path4240"
       d="m -31.272593,400.95561 c -1.412954,0 -2.649338,0.76788 -3.314058,1.90804 l 0.377895,0.21757 c 0.58765,-1.0092 1.681911,-1.68552 2.936318,-1.68552 1.259126,0 2.355398,0.68205 2.940959,1.69774 l 0.37952,-0.21837 c -0.662992,-1.14688 -1.902883,-1.91938 -3.320505,-1.91938 m 0,1.01281 c -1.039108,0 -1.948263,0.56318 -2.437391,1.40112 l 0.252196,0.14583 c 0.437973,-0.75058 1.252138,-1.25456 2.185221,-1.25456 0.938291,0 1.755654,0.50919 2.191667,1.26679 l 0.251397,-0.14667 c -0.487813,-0.84397 -1.399572,-1.41249 -2.443064,-1.41249 z m 0,1.14902 c -0.614053,0 -1.151656,0.33223 -1.442323,0.82665 l 0.176468,0.10234 c 0.254388,-0.4338 0.725571,-0.72428 1.265752,-0.72428 0.544823,0 1.018635,0.29585 1.271425,0.73565 l 0.176468,-0.10154 c -0.288888,-0.50078 -0.829224,-0.83879 -1.448047,-0.83879 m 0,0.91044 c -0.286206,0 -0.517234,0.23124 -0.517234,0.51724 0,0.19176 0.103034,0.36008 0.257843,0.44962 l 0.0048,2.62433 h -0.950797 c -0.225381,0 -0.406103,0.1823 -0.406103,0.40773 0,0.22538 0.180748,0.4061 0.406103,0.4061 h 2.41006 c 0.225381,0 0.406103,-0.18075 0.406103,-0.4061 0,-0.22538 -0.180748,-0.40773 -0.406103,-0.40773 h -0.946774 l -0.004,-2.62123 c 0.157362,-0.0889 0.26349,-0.25836 0.26349,-0.45203 0,-0.2862 -0.231234,-0.51723 -0.517233,-0.51723 v -8.2e-4 z" />
  </g>
</svg>
