<?xml version="1.0" encoding="UTF-8" standalone="no"?>
<!-- Created with Inkscape (http://www.inkscape.org/) -->

<svg
   xmlns:dc="http://purl.org/dc/elements/1.1/"
   xmlns:cc="http://creativecommons.org/ns#"
   xmlns:rdf="http://www.w3.org/1999/02/22-rdf-syntax-ns#"
   xmlns:svg="http://www.w3.org/2000/svg"
   xmlns="http://www.w3.org/2000/svg"
   xmlns:sodipodi="http://sodipodi.sourceforge.net/DTD/sodipodi-0.dtd"
   xmlns:inkscape="http://www.inkscape.org/namespaces/inkscape"
   width="48"
   height="48"
   id="svg2"
   version="1.1"
   inkscape:version="0.48.5 r10040"
   viewBox="0 0 13.546666 13.546668"
   sodipodi:docname="kscd.svg">
  <defs
     id="defs4" />
  <sodipodi:namedview
     id="base"
     pagecolor="#ffffff"
     bordercolor="#666666"
     borderopacity="1.0"
     inkscape:pageopacity="0"
     inkscape:pageshadow="2"
     inkscape:zoom="5.6568542"
     inkscape:cx="20.878182"
     inkscape:cy="16.868116"
     inkscape:document-units="px"
     inkscape:current-layer="layer1"
     showgrid="false"
     inkscape:showpageshadow="false"
     borderlayer="true"
     units="px"
     fit-margin-top="0"
     fit-margin-left="0"
     fit-margin-right="0"
     fit-margin-bottom="0"
     showguides="false"
     inkscape:window-width="1920"
     inkscape:window-height="1025"
     inkscape:window-x="-4"
     inkscape:window-y="39"
     inkscape:window-maximized="1">
    <sodipodi:guide
       position="-6.6748425e-06,47.999999"
       orientation="47.999977,0"
       id="guide4120" />
    <sodipodi:guide
       position="-6.6748425e-06,2.2810037e-05"
       orientation="0,48.000004"
       id="guide4122" />
    <sodipodi:guide
       position="47.999997,2.2810037e-05"
       orientation="-47.999977,0"
       id="guide4124" />
    <sodipodi:guide
       position="47.999997,47.999999"
       orientation="0,-48.000004"
       id="guide4126" />
    <sodipodi:guide
       position="3.9999733,44.000154"
       orientation="39.999962,0"
       id="guide4138" />
    <sodipodi:guide
       position="3.9999733,4.0001921"
       orientation="0,40.000003"
       id="guide4140" />
    <sodipodi:guide
       position="43.999976,4.0001921"
       orientation="-39.999962,0"
       id="guide4142" />
    <sodipodi:guide
       position="43.999976,44.000154"
       orientation="0,-40.000003"
       id="guide4144" />
    <sodipodi:guide
       position="6.9999922,47.999999"
       orientation="39.999962,0"
       id="guide4148" />
    <sodipodi:guide
       position="6.9999922,8.0000369"
       orientation="0,34.000006"
       id="guide4150" />
    <sodipodi:guide
       position="40.999998,8.0000369"
       orientation="-39.999962,0"
       id="guide4152" />
    <sodipodi:guide
       position="40.999998,47.999999"
       orientation="0,-34.000006"
       id="guide4154" />
    <sodipodi:guide
       position="14.999993,32.999986"
       orientation="17.999951,0"
       id="guide4158" />
    <sodipodi:guide
       position="14.999993,15.000036"
       orientation="0,17.999998"
       id="guide4160" />
    <sodipodi:guide
       position="32.999991,15.000036"
       orientation="-17.999951,0"
       id="guide4162" />
    <sodipodi:guide
       position="32.999991,32.999986"
       orientation="0,-17.999998"
       id="guide4164" />
    <sodipodi:guide
       position="1.9999969,44.000046"
       orientation="39.999962,0"
       id="guide3279" />
    <sodipodi:guide
       position="1.9999969,4.0000839"
       orientation="0,44.000003"
       id="guide3281" />
    <sodipodi:guide
       position="46,4.0000839"
       orientation="-39.999962,0"
       id="guide3283" />
    <sodipodi:guide
       position="46,44.000046"
       orientation="0,-44.000003"
       id="guide3285" />
    <inkscape:grid
       type="xygrid"
       id="grid3808" />
  </sodipodi:namedview>
  <metadata
     id="metadata7">
    <rdf:RDF>
      <cc:Work
         rdf:about="">
        <dc:format>image/svg+xml</dc:format>
        <dc:type
           rdf:resource="http://purl.org/dc/dcmitype/StillImage" />
        <dc:title />
      </cc:Work>
    </rdf:RDF>
  </metadata>
  <g
     inkscape:label="Capa 1"
     inkscape:groupmode="layer"
     id="layer1"
     transform="translate(38.119153,-397.84494)">
    <path
       style="fill:#e65177;fill-rule:evenodd"
       inkscape:connector-curvature="0"
       d="m -25.701375,404.61827 c 0,3.11733 -2.527121,5.64445 -5.644445,5.64445 -3.117324,0 -5.644445,-2.52712 -5.644445,-5.64445 0,-3.11732 2.527121,-5.64444 5.644445,-5.64444 3.117324,0 5.644445,2.52712 5.644445,5.64444"
       id="path4270" />
    <g
       transform="matrix(0.02578432,0,0,0.02578432,-37.870284,398.09355)"
       style="fill-rule:evenodd"
       id="g4690">
      <path
         style="opacity:0.25"
         inkscape:connector-curvature="0"
         id="path4692"
         d="m 256,108 c -59.28,0 -107.31,48.04 -107.31,107.31 0,29.646 12.02,56.49 31.443,75.916 l 69.805,69.805 c -2.841,2.992 -4.701,6.914 -5.072,11.268 l -6.145,-6.145 h -33.25 c -4.301,0 -7.75,3.449 -7.75,7.75 0,2.158 0.868,4.111 2.277,5.52 l 89.49,89.49 c 95.47,-16 169.98,-93.8 181.03,-190.86 l -138.63,-138.63 c -19.419,-19.419 -46.25,-31.428 -75.885,-31.428 m -133.5,235.84 v 60.15 l 54.31,54.31 c 23.739,8.82 49.42,13.648 76.23,13.648 6.323,0 12.578,-0.285 18.766,-0.811 l -97.24,-97.24 -26.03,-15.03 -26.03,-15.03" />
      <path
         style="fill:#ffffff"
         inkscape:connector-curvature="0"
         id="path4694"
         d="m 256,108 c -59.28,0 -107.31,48.04 -107.31,107.31 0,59.28 48.04,107.34 107.31,107.34 59.28,0 107.31,-48.07 107.31,-107.34 C 363.31,156.03 315.27,108 256,108 m 37,12.781 c 12.681,4.955 24.538,12.538 34.781,22.781 8.62,8.62 15.406,18.433 20.281,28.875 l -62.719,36.19 c -1.226,-5.329 -3.911,-10.38 -8.06,-14.531 -4.321,-4.321 -9.65,-7.07 -15.219,-8.219 l 30.938,-65.09 m -37,69.44 c 13.867,0 25.09,11.23 25.09,25.09 0,13.867 -11.23,25.13 -25.09,25.13 -13.867,0 -25.09,-11.261 -25.09,-25.12 0,-13.867 11.23,-25.09 25.09,-25.09 z m 0,5.563 c -10.798,0 -19.563,8.735 -19.563,19.531 0,10.798 8.766,19.563 19.563,19.563 10.798,0 19.563,-8.766 19.563,-19.563 0,-10.798 -8.766,-19.531 -19.563,-19.531 m 0,5.75 c 7.621,0 13.813,6.16 13.813,13.781 0,7.621 -6.192,13.813 -13.813,13.813 -7.621,0 -13.813,-6.192 -13.813,-13.813 0,-7.621 6.192,-13.781 13.813,-13.781 m -29.625,20.438 c 0.23,0.999 0.512,1.992 0.844,2.969 0.111,0.326 0.222,0.646 0.344,0.969 0.978,2.584 2.318,5.05 4.03,7.344 0.214,0.286 0.432,0.564 0.656,0.844 0.678,0.843 1.405,1.655 2.188,2.438 1.351,1.351 2.79,2.522 4.313,3.563 0.304,0.208 0.628,0.429 0.938,0.625 1.244,0.785 2.52,1.478 3.844,2.063 0.659,0.292 1.326,0.539 2,0.781 1.01,0.364 2.025,0.685 3.063,0.938 0.346,0.084 0.683,0.147 1.031,0.219 l -30.906,65.09 c -0.798,-0.312 -1.583,-0.605 -2.375,-0.938 -0.786,-0.33 -1.565,-0.681 -2.344,-1.031 -1.566,-0.706 -3.09,-1.43 -4.625,-2.219 -0.759,-0.389 -1.53,-0.809 -2.281,-1.219 -0.756,-0.413 -1.502,-0.848 -2.25,-1.281 -1.5,-0.87 -2.974,-1.766 -4.438,-2.719 -0.729,-0.475 -1.439,-0.942 -2.156,-1.438 -2.885,-1.985 -5.696,-4.119 -8.406,-6.438 -0.673,-0.575 -1.339,-1.186 -2,-1.781 -0.665,-0.598 -1.347,-1.193 -2,-1.813 -0.653,-0.619 -1.298,-1.266 -1.938,-1.906 -3.237,-3.237 -6.197,-6.617 -8.906,-10.156 -0.451,-0.589 -0.876,-1.184 -1.313,-1.781 -3.929,-5.371 -7.256,-11.03 -10,-16.906 l 62.688,-36.22 m -103.87,121.88 v 60.15 l 26.03,-15.06 26.03,-15.03 -26.03,-15.03 -26.03,-15.03 m 141,11.344 c -10.334,0 -18.719,8.384 -18.719,18.719 0,10.334 8.384,18.719 18.719,18.719 10.334,0 18.719,-8.384 18.719,-18.719 0,-10.334 -8.384,-18.719 -18.719,-18.719 z m -58.03,10.969 c -4.301,0 -7.75,3.449 -7.75,7.75 0,4.301 3.449,7.781 7.75,7.781 h 32.75 c -1.507,-5.03 -1.2,-10.507 0.5,-15.531 h -33.25 m 82.88,0 c 1.499,5.03 1.622,10.511 0.156,15.531 h 93.25 c 4.301,0 7.75,-3.48 7.75,-7.781 0,-4.301 -3.449,-7.75 -7.75,-7.75 h -93.41" />
    </g>
  </g>
</svg>
