<?xml version="1.0" encoding="UTF-8" standalone="no"?>
<!-- Created with Inkscape (http://www.inkscape.org/) -->

<svg
   xmlns:dc="http://purl.org/dc/elements/1.1/"
   xmlns:cc="http://creativecommons.org/ns#"
   xmlns:rdf="http://www.w3.org/1999/02/22-rdf-syntax-ns#"
   xmlns:svg="http://www.w3.org/2000/svg"
   xmlns="http://www.w3.org/2000/svg"
   xmlns:sodipodi="http://sodipodi.sourceforge.net/DTD/sodipodi-0.dtd"
   xmlns:inkscape="http://www.inkscape.org/namespaces/inkscape"
   width="48"
   height="48"
   id="svg2"
   version="1.1"
   inkscape:version="0.48.5 r10040"
   viewBox="0 0 13.546666 13.546668"
   sodipodi:docname="ksudoku.svg">
  <defs
     id="defs4">
    <clipPath
       id="clipPath-844775587">
      <g
         transform="translate(0,-1004.3622)"
         id="g17">
        <path
           style="fill:#1890d0"
           inkscape:connector-curvature="0"
           d="m -24,13 c 0,1.105 -0.672,2 -1.5,2 -0.828,0 -1.5,-0.895 -1.5,-2 0,-1.105 0.672,-2 1.5,-2 0.828,0 1.5,0.895 1.5,2 z"
           transform="matrix(15.333333,0,0,11.5,414.99999,878.8622)"
           id="path19" />
      </g>
    </clipPath>
  </defs>
  <sodipodi:namedview
     id="base"
     pagecolor="#ffffff"
     bordercolor="#666666"
     borderopacity="1.0"
     inkscape:pageopacity="0"
     inkscape:pageshadow="2"
     inkscape:zoom="5.6568542"
     inkscape:cx="-4.9312157"
     inkscape:cy="16.868116"
     inkscape:document-units="px"
     inkscape:current-layer="layer1"
     showgrid="false"
     inkscape:showpageshadow="false"
     borderlayer="true"
     units="px"
     fit-margin-top="0"
     fit-margin-left="0"
     fit-margin-right="0"
     fit-margin-bottom="0"
     showguides="false"
     inkscape:window-width="1920"
     inkscape:window-height="1031"
     inkscape:window-x="-4"
     inkscape:window-y="32"
     inkscape:window-maximized="1">
    <sodipodi:guide
       position="-6.6748425e-06,47.999999"
       orientation="47.999977,0"
       id="guide4120" />
    <sodipodi:guide
       position="-6.6748425e-06,2.2810037e-05"
       orientation="0,48.000004"
       id="guide4122" />
    <sodipodi:guide
       position="47.999997,2.2810037e-05"
       orientation="-47.999977,0"
       id="guide4124" />
    <sodipodi:guide
       position="47.999997,47.999999"
       orientation="0,-48.000004"
       id="guide4126" />
    <sodipodi:guide
       position="3.9999733,44.000154"
       orientation="39.999962,0"
       id="guide4138" />
    <sodipodi:guide
       position="3.9999733,4.0001921"
       orientation="0,40.000003"
       id="guide4140" />
    <sodipodi:guide
       position="43.999976,4.0001921"
       orientation="-39.999962,0"
       id="guide4142" />
    <sodipodi:guide
       position="43.999976,44.000154"
       orientation="0,-40.000003"
       id="guide4144" />
    <sodipodi:guide
       position="6.9999922,47.999999"
       orientation="39.999962,0"
       id="guide4148" />
    <sodipodi:guide
       position="6.9999922,8.0000369"
       orientation="0,34.000006"
       id="guide4150" />
    <sodipodi:guide
       position="40.999998,8.0000369"
       orientation="-39.999962,0"
       id="guide4152" />
    <sodipodi:guide
       position="40.999998,47.999999"
       orientation="0,-34.000006"
       id="guide4154" />
    <sodipodi:guide
       position="14.999993,32.999986"
       orientation="17.999951,0"
       id="guide4158" />
    <sodipodi:guide
       position="14.999993,15.000036"
       orientation="0,17.999998"
       id="guide4160" />
    <sodipodi:guide
       position="32.999991,15.000036"
       orientation="-17.999951,0"
       id="guide4162" />
    <sodipodi:guide
       position="32.999991,32.999986"
       orientation="0,-17.999998"
       id="guide4164" />
    <sodipodi:guide
       position="1.9999969,44.000046"
       orientation="39.999962,0"
       id="guide3279" />
    <sodipodi:guide
       position="1.9999969,4.0000839"
       orientation="0,44.000003"
       id="guide3281" />
    <sodipodi:guide
       position="46,4.0000839"
       orientation="-39.999962,0"
       id="guide3283" />
    <sodipodi:guide
       position="46,44.000046"
       orientation="0,-44.000003"
       id="guide3285" />
    <inkscape:grid
       type="xygrid"
       id="grid3808" />
  </sodipodi:namedview>
  <metadata
     id="metadata7">
    <rdf:RDF>
      <cc:Work
         rdf:about="">
        <dc:format>image/svg+xml</dc:format>
        <dc:type
           rdf:resource="http://purl.org/dc/dcmitype/StillImage" />
        <dc:title />
      </cc:Work>
    </rdf:RDF>
  </metadata>
  <g
     inkscape:label="Capa 1"
     inkscape:groupmode="layer"
     id="layer1"
     transform="translate(38.119153,-397.84494)">
    <path
       style="fill:#d095ae;fill-rule:evenodd;fill-opacity:1"
       inkscape:connector-curvature="0"
       d="m -25.701485,404.61822 c 0,3.11729 -2.527096,5.64439 -5.64439,5.64439 -3.117294,0 -5.64439,-2.5271 -5.64439,-5.64439 0,-3.11729 2.527096,-5.64439 5.64439,-5.64439 3.117294,0 5.64439,2.5271 5.64439,5.64439"
       id="path4726" />
    <g
       id="g61"
       transform="matrix(0.24541066,0,0,0.24541065,-37.235675,398.72842)">
      <g
         clip-path="url(#clipPath-844775587)"
         id="g63">
        <!-- color: #ebebeb -->
        <g
           id="g65">
          <path
             d="m 16.586,15.652 15.848,0 0,15.758 -15.848,0 m 0,-15.758"
             id="path67"
             inkscape:connector-curvature="0"
             style="fill:#7fabdd;fill-opacity:1;fill-rule:nonzero;stroke:none" />
          <path
             d="m 48,30.996 -48,0 0,1 48,0 m 0,-1"
             id="path69"
             inkscape:connector-curvature="0"
             style="fill:#2d2d2d;fill-opacity:1;fill-rule:nonzero;stroke:none" />
          <path
             d="m 48,15 -48,0 0,1 48,0 m 0,-1"
             id="path71"
             inkscape:connector-curvature="0"
             style="fill:#2d2d2d;fill-opacity:1;fill-rule:nonzero;stroke:none" />
          <path
             d="m 32,0 0,48 1,0 0,-48 m -1,0"
             id="path73"
             inkscape:connector-curvature="0"
             style="fill:#2d2d2d;fill-opacity:1;fill-rule:nonzero;stroke:none" />
          <path
             d="m 28,13.01 -5.996,0 0,-0.867 2.402,-2.348 C 25.14,9.068 25.621,8.565 25.855,8.256 26.089,7.944 26.261,7.647 26.378,7.358 26.495,7.069 26.554,6.753 26.554,6.42 26.554,5.94 26.409,5.565 26.113,5.299 25.82,5.018 25.41,4.877 24.883,4.877 c -0.375,0 -0.738,0.059 -1.082,0.184 -0.336,0.121 -0.715,0.34 -1.125,0.66 L 22.125,5.03 c 0.84,-0.68 1.758,-1.02 2.746,-1.02 0.859,0 1.531,0.215 2.02,0.645 0.488,0.43 0.73,0.996 0.73,1.723 0,0.563 -0.164,1.113 -0.488,1.668 -0.324,0.555 -0.934,1.25 -1.824,2.09 l -1.996,1.898 0,0.051 4.691,0 0,0.938"
             id="path75"
             inkscape:connector-curvature="0"
             style="fill:#2d2d2d;fill-opacity:1;fill-rule:nonzero;stroke:none" />
          <path
             d="m 24.762,22.453 c 1.012,0 1.793,0.234 2.371,0.699 0.574,0.461 0.867,1.094 0.867,1.898 0,0.922 -0.316,1.645 -0.949,2.164 -0.629,0.523 -1.492,0.781 -2.598,0.781 -1.07,0 -1.895,-0.16 -2.457,-0.477 l 0,-0.973 c 0.305,0.18 0.684,0.316 1.133,0.43 0.453,0.102 0.898,0.152 1.336,0.152 0.766,0 1.359,-0.168 1.781,-0.512 0.426,-0.336 0.641,-0.813 0.641,-1.457 0,-1.23 -0.816,-1.852 -2.445,-1.852 -0.414,0 -0.969,0.059 -1.656,0.176 l -0.563,-0.332 0.359,-4.156 4.742,0 0,0.934 -3.816,0 -0.242,2.668 c 0.5,-0.094 1,-0.145 1.492,-0.145"
             id="path77"
             inkscape:connector-curvature="0"
             style="fill:#2d2d2d;fill-opacity:1;fill-rule:nonzero;stroke:none" />
          <path
             d="m 28,40.941 -1.398,0 0,2.055 -1.027,0 0,-2.055 -4.578,0 0,-0.887 4.473,-6.06 1.133,0 0,6.02 1.398,0 0,0.926 m -2.422,-0.926 0,-2.98 c 0,-0.586 0.023,-1.238 0.066,-1.977 l -0.051,0 c -0.207,0.391 -0.398,0.715 -0.578,0.973 l -2.941,3.98 3.508,0"
             id="path79"
             inkscape:connector-curvature="0"
             style="fill:#2d2d2d;fill-opacity:1;fill-rule:nonzero;stroke:none" />
          <path
             d="m 16,0 0,48 1,0 0,-48 m -1,0"
             id="path81"
             inkscape:connector-curvature="0"
             style="fill:#2d2d2d;fill-opacity:1;fill-rule:nonzero;stroke:none" />
        </g>
      </g>
    </g>
  </g>
</svg>
