<?xml version="1.0" encoding="UTF-8" standalone="no"?>
<!-- Created with Inkscape (http://www.inkscape.org/) -->

<svg
   xmlns:dc="http://purl.org/dc/elements/1.1/"
   xmlns:cc="http://creativecommons.org/ns#"
   xmlns:rdf="http://www.w3.org/1999/02/22-rdf-syntax-ns#"
   xmlns:svg="http://www.w3.org/2000/svg"
   xmlns="http://www.w3.org/2000/svg"
   xmlns:sodipodi="http://sodipodi.sourceforge.net/DTD/sodipodi-0.dtd"
   xmlns:inkscape="http://www.inkscape.org/namespaces/inkscape"
   width="48"
   height="48"
   id="svg2"
   version="1.1"
   inkscape:version="0.48.5 r10040"
   sodipodi:docname="libreoffice-template.svg">
  <defs
     id="defs4" />
  <sodipodi:namedview
     id="base"
     pagecolor="#ffffff"
     bordercolor="#666666"
     borderopacity="1.0"
     inkscape:pageopacity="0.0"
     inkscape:pageshadow="2"
     inkscape:zoom="9.5742188"
     inkscape:cx="7.9225273"
     inkscape:cy="28.10394"
     inkscape:document-units="px"
     inkscape:current-layer="layer1"
     showgrid="false"
     inkscape:window-width="1920"
     inkscape:window-height="1031"
     inkscape:window-x="-4"
     inkscape:window-y="32"
     inkscape:window-maximized="1">
    <inkscape:grid
       type="xygrid"
       id="grid3850" />
    <sodipodi:guide
       position="4,44.000017"
       orientation="40,0"
       id="guide4125" />
    <sodipodi:guide
       position="4,4.0000174"
       orientation="0,40"
       id="guide4127" />
    <sodipodi:guide
       position="44,4.0000174"
       orientation="-40,0"
       id="guide4129" />
    <sodipodi:guide
       position="44,44.000017"
       orientation="0,-40"
       id="guide4131" />
    <sodipodi:guide
       position="9,39.000017"
       orientation="30,0"
       id="guide4137" />
    <sodipodi:guide
       position="9,9.0000174"
       orientation="0,30"
       id="guide4139" />
    <sodipodi:guide
       position="39,9.0000174"
       orientation="-30,0"
       id="guide4141" />
    <sodipodi:guide
       position="39,39.000017"
       orientation="0,-30"
       id="guide4143" />
    <sodipodi:guide
       position="15,33.000017"
       orientation="18,0"
       id="guide4147" />
    <sodipodi:guide
       position="15,15.000017"
       orientation="0,18"
       id="guide4149" />
    <sodipodi:guide
       position="33,15.000017"
       orientation="-18,0"
       id="guide4151" />
    <sodipodi:guide
       position="33,33.000017"
       orientation="0,-18"
       id="guide4153" />
    <sodipodi:guide
       position="10.5,39.000017"
       orientation="30,0"
       id="guide4092" />
    <sodipodi:guide
       position="10.5,9.0000174"
       orientation="0,27"
       id="guide4094" />
    <sodipodi:guide
       position="37.5,9.0000174"
       orientation="-30,0"
       id="guide4096" />
    <sodipodi:guide
       position="37.5,39.000017"
       orientation="0,-27"
       id="guide4098" />
    <sodipodi:guide
       position="26.5,39.000017"
       orientation="11,0"
       id="guide4126" />
    <sodipodi:guide
       position="26.5,28.000017"
       orientation="0,11"
       id="guide4128" />
    <sodipodi:guide
       position="37.5,28.000017"
       orientation="-11,0"
       id="guide4130" />
    <sodipodi:guide
       position="37.5,39.000017"
       orientation="0,-11"
       id="guide4132" />
  </sodipodi:namedview>
  <metadata
     id="metadata7">
    <rdf:RDF>
      <cc:Work
         rdf:about="">
        <dc:format>image/svg+xml</dc:format>
        <dc:type
           rdf:resource="http://purl.org/dc/dcmitype/StillImage" />
        <dc:title />
      </cc:Work>
    </rdf:RDF>
  </metadata>
  <g
     inkscape:label="Capa 1"
     inkscape:groupmode="layer"
     id="layer1"
     transform="translate(0,-1004.3622)">
    <path
       style="fill:#484848;fill-rule:evenodd"
       inkscape:connector-curvature="0"
       id="path50"
       d="m 43.99479,1028.3648 c 0,11.0447 -8.95361,19.9974 -19.9974,19.9974 C 12.95269,1048.3622 4,1039.4086 4,1028.3648 c 0,-11.0447 8.95361,-19.9974 19.99739,-19.9974 11.0447,0 19.9974,8.9536 19.9974,19.9974" />
    <path
       inkscape:connector-curvature="0"
       id="path52"
       style="color:#000000;fill-opacity:0.23500001"
       d="m 23.94715,1015.905 c -1.70101,0 -3.08037,0.9549 -3.08037,2.1326 0.0495,0.4393 0.32732,0.9943 0.47395,1.1848 0.71073,0.9477 0.70872,1.5402 0.53104,1.8956 h -5.74388 c -1.05003,0 -1.8956,0.8455 -1.8956,1.8956 v 4.796 c 0.0289,0.014 0.0593,0.028 0.0914,0.04 v 0.051 c 0.0291,0.014 0.059,0.028 0.0914,0.04 v 0.051 c 0.028,0.014 0.0574,0.026 0.0885,0.037 v 0.054 c 0.028,0.014 0.0603,0.026 0.0914,0.037 v 0.054 c 0.0283,0.014 0.06,0.026 0.0914,0.037 v 0.052 c 0.0289,0.014 0.0593,0.028 0.0913,0.04 v 0.051 c 0.0289,0.014 0.0593,0.028 0.0914,0.04 v 0.052 c 0.0289,0.014 0.0593,0.028 0.0914,0.04 v 0.051 c 0.0291,0.014 0.059,0.028 0.0914,0.04 v 0.051 c 0.028,0.014 0.0574,0.026 0.0885,0.037 v 0.054 c 0.028,0.014 0.0603,0.026 0.0914,0.037 v 0.051 c 0.0283,0.014 0.06,0.028 0.0914,0.04 v 0.052 c 0.0289,0.014 0.0593,0.028 0.0914,0.04 v 0.051 c 0.0289,0.014 0.0593,0.028 0.0914,0.04 v 0.052 c 0.0291,0.014 0.059,0.028 0.0914,0.04 v 0.051 c 0.028,0.014 0.0574,0.026 0.0885,0.037 v 0.054 c 0.028,0.014 0.0603,0.026 0.0914,0.037 v 0.054 c 0.0283,0.014 0.06,0.025 0.0914,0.037 v 0.051 c 0.0289,0.014 0.0593,0.028 0.0913,0.04 v 0.052 c 0.0289,0.014 0.0593,0.028 0.0914,0.04 v 0.051 c 0.0292,0.014 0.059,0.028 0.0914,0.04 v 0.052 c 0.028,0.014 0.0574,0.025 0.0885,0.037 v 0.054 c 0.0281,0.014 0.0603,0.026 0.0914,0.037 v 0.054 c 0.0283,0.014 0.06,0.025 0.0914,0.037 v 0.051 c 0.0289,0.014 0.0593,0.028 0.0914,0.04 v 0.051 c 0.0289,0.014 0.0593,0.028 0.0914,0.04 v 0.051 c 0.0291,0.014 0.059,0.028 0.0914,0.04 v 0.051 c 0.0291,0.015 0.059,0.028 0.0914,0.04 v 0.052 c 0.0281,0.014 0.0574,0.026 0.0885,0.037 v 0.054 c 0.0283,0.014 0.06,0.025 0.0914,0.037 v 0.052 c 0.0281,0.014 0.0603,0.025 0.0914,0.037 v 0.054 c 0.0289,0.014 0.0593,0.028 0.0914,0.04 v 0.051 c 0.0289,0.014 0.0593,0.028 0.0913,0.04 v 0.051 c 0.0291,0.014 0.059,0.028 0.0914,0.04 v 0.051 c 0.028,0.014 0.0574,0.026 0.0885,0.037 v 0.054 c 0.028,0.014 0.0603,0.026 0.0914,0.037 v 0.051 c 0.0283,0.014 0.06,0.028 0.0914,0.04 v 0.052 c 0.0289,0.014 0.0593,0.028 0.0914,0.04 v 0.051 c 0.0289,0.014 0.0593,0.028 0.0914,0.04 v 0.052 c 0.0291,0.014 0.059,0.028 0.0914,0.04 v 0.051 c 0.028,0.014 0.0574,0.026 0.0885,0.037 v 0.054 c 0.028,0.014 0.0603,0.025 0.0913,0.037 v 0.054 c 0.0283,0.014 0.06,0.026 0.0914,0.037 v 0.051 c 0.0289,0.014 0.0593,0.028 0.0914,0.04 v 0.052 c 0.0289,0.014 0.0593,0.028 0.0914,0.04 v 0.051 c 0.0291,0.014 0.059,0.028 0.0913,0.04 v 0.052 c 0.0281,0.014 0.0574,0.025 0.0885,0.037 v 0.054 c 0.0281,0.014 0.0603,0.026 0.0914,0.037 v 0.054 c 0.0283,0.014 0.06,0.025 0.0913,0.037 v 0.026 c -0.37117,0.4525 -0.8495,0.7252 -1.37305,0.7252 -0.3614,-0.01 -0.91107,-0.3294 -1.18477,-0.4739 -0.94771,-0.7108 -1.54023,-0.7088 -1.8956,-0.5311 v 6.2176 c 0,0.5481 0.2325,1.0391 0.60239,1.3849 0.0296,0.032 0.0597,0.062 0.0914,0.091 0.0322,0.034 0.0652,0.068 0.0999,0.1 0.0231,0.024 0.047,0.048 0.0713,0.071 0.0322,0.035 0.0653,0.068 0.1,0.1 0.0294,0.031 0.0598,0.062 0.0914,0.091 0.0294,0.032 0.0598,0.062 0.0914,0.091 0.0308,0.033 0.0611,0.066 0.0942,0.097 0.031,0.033 0.0639,0.064 0.0971,0.094 0.0231,0.024 0.047,0.048 0.0714,0.071 0.0306,0.033 0.0613,0.066 0.0942,0.097 0.0307,0.033 0.0641,0.063 0.0971,0.094 0.0294,0.032 0.0598,0.062 0.0914,0.091 0.0294,0.032 0.0598,0.062 0.0914,0.091 0.0323,0.035 0.065,0.068 0.0999,0.1 0.0231,0.024 0.047,0.048 0.0713,0.071 0.0306,0.033 0.0613,0.066 0.0942,0.097 0.0307,0.033 0.0641,0.063 0.0971,0.094 0.0294,0.032 0.0598,0.062 0.0914,0.091 0.0294,0.032 0.0598,0.062 0.0914,0.091 0.0296,0.032 0.0597,0.062 0.0914,0.091 0.029,0.031 0.0575,0.062 0.0885,0.091 0.029,0.031 0.0604,0.06 0.0914,0.089 0.0296,0.032 0.0597,0.062 0.0914,0.091 0.0294,0.032 0.0598,0.062 0.0913,0.091 0.0294,0.032 0.0598,0.062 0.0914,0.091 0.0308,0.033 0.0611,0.066 0.0942,0.097 0.031,0.033 0.0639,0.064 0.0971,0.094 0.0231,0.024 0.047,0.048 0.0713,0.071 0.0322,0.035 0.0653,0.068 0.0999,0.1 0.0294,0.032 0.0598,0.062 0.0914,0.091 0.0294,0.032 0.0598,0.062 0.0914,0.091 0.0294,0.032 0.0598,0.062 0.0914,0.091 0.0323,0.035 0.065,0.068 0.0999,0.1 0.0231,0.024 0.047,0.048 0.0713,0.071 0.0306,0.033 0.0613,0.066 0.0942,0.097 0.0307,0.033 0.0641,0.063 0.0971,0.094 0.0294,0.032 0.0598,0.062 0.0914,0.091 0.0294,0.032 0.0598,0.062 0.0914,0.091 0.0323,0.035 0.0651,0.068 0.0999,0.1 0.0231,0.024 0.047,0.048 0.0713,0.071 0.032,0.035 0.0655,0.068 0.0999,0.1 0.0296,0.032 0.0597,0.062 0.0914,0.091 0.0294,0.032 0.0598,0.062 0.0914,0.091 0.0294,0.032 0.0598,0.062 0.0913,0.091 0.0296,0.032 0.0597,0.062 0.0914,0.091 0.0323,0.034 0.0652,0.068 0.0999,0.1 0.0231,0.024 0.047,0.048 0.0713,0.071 0.0322,0.035 0.0653,0.068 0.0999,0.1 0.0294,0.032 0.0598,0.062 0.0914,0.091 0.0294,0.032 0.0598,0.062 0.0914,0.091 0.0308,0.033 0.0611,0.066 0.0942,0.097 0.031,0.033 0.0639,0.063 0.0971,0.094 0.0231,0.024 0.047,0.048 0.0713,0.071 0.0306,0.033 0.0613,0.066 0.0942,0.097 0.0307,0.033 0.0641,0.063 0.0971,0.094 0.0294,0.032 0.0598,0.062 0.0914,0.091 0.0294,0.032 0.0598,0.062 0.0914,0.091 0.0323,0.035 0.065,0.068 0.0999,0.1 0.0231,0.024 0.047,0.048 0.0714,0.071 0.0306,0.033 0.0613,0.066 0.0942,0.097 0.0307,0.033 0.0641,0.063 0.0971,0.094 0.0294,0.032 0.0598,0.062 0.0914,0.091 0.0294,0.032 0.0598,0.062 0.0914,0.091 0.0296,0.032 0.0597,0.062 0.0914,0.091 0.029,0.031 0.0576,0.062 0.0885,0.091 0.029,0.031 0.0604,0.06 0.0914,0.088 0.0296,0.032 0.0597,0.062 0.0914,0.091 0.0294,0.032 0.0598,0.062 0.0914,0.091 0.0294,0.032 0.0598,0.062 0.0914,0.091 0.0308,0.033 0.0611,0.066 0.0942,0.097 0.031,0.033 0.0639,0.064 0.0971,0.094 0.0231,0.024 0.047,0.048 0.0714,0.071 0.0322,0.035 0.0653,0.068 0.0999,0.1 0.0294,0.032 0.0598,0.062 0.0914,0.091 0.0294,0.032 0.0598,0.062 0.0914,0.091 0.0294,0.032 0.0598,0.062 0.0914,0.091 0.0323,0.035 0.065,0.068 0.0999,0.1 0.0231,0.024 0.047,0.048 0.0713,0.071 0.0306,0.033 0.0613,0.066 0.0942,0.097 0.0307,0.033 0.0641,0.063 0.0971,0.094 0.0294,0.032 0.0598,0.062 0.0914,0.091 0.0294,0.032 0.0598,0.062 0.0914,0.091 0.0323,0.035 0.065,0.068 0.0999,0.1 0.0231,0.024 0.0469,0.048 0.0713,0.071 0.032,0.035 0.0655,0.068 0.1,0.1 0.0296,0.032 0.0596,0.062 0.0913,0.091 0.0294,0.032 0.0598,0.062 0.0914,0.091 0.0294,0.032 0.0598,0.062 0.0914,0.091 0.0296,0.032 0.0597,0.062 0.0914,0.091 0.0323,0.034 0.0652,0.068 0.0999,0.1 0.0231,0.024 0.047,0.048 0.0713,0.071 0.0322,0.035 0.0653,0.068 0.0999,0.1 0.0294,0.032 0.0598,0.062 0.0914,0.091 0.0294,0.032 0.0598,0.062 0.0914,0.091 0.0308,0.033 0.0611,0.066 0.0942,0.097 0.031,0.033 0.0639,0.064 0.0971,0.094 0.0204,0.022 0.0415,0.042 0.0629,0.063 0.12122,0 0.24081,0.01 0.36258,0.01 9.594,0 17.61031,-6.7585 19.54976,-15.7732 -0.018,-0.018 -0.0355,-0.037 -0.0543,-0.054 -0.0294,-0.032 -0.0598,-0.062 -0.0914,-0.091 -0.0294,-0.031 -0.0598,-0.062 -0.0913,-0.091 -0.0262,-0.028 -0.0521,-0.056 -0.0799,-0.083 -0.0303,-0.033 -0.0617,-0.064 -0.0942,-0.094 -0.0339,-0.037 -0.069,-0.072 -0.10561,-0.1056 -0.0264,-0.028 -0.0547,-0.054 -0.0828,-0.08 -0.0294,-0.032 -0.0598,-0.062 -0.0914,-0.091 -0.0294,-0.031 -0.0598,-0.062 -0.0914,-0.091 -0.0262,-0.028 -0.0521,-0.056 -0.0799,-0.083 -0.032,-0.035 -0.0655,-0.068 -0.0999,-0.1 -0.0322,-0.034 -0.0652,-0.068 -0.0999,-0.1 -0.0264,-0.028 -0.0547,-0.054 -0.0828,-0.08 -0.0294,-0.032 -0.0598,-0.062 -0.0913,-0.091 -0.0294,-0.031 -0.0598,-0.062 -0.0914,-0.091 -0.0262,-0.028 -0.0521,-0.056 -0.0799,-0.083 -0.032,-0.035 -0.0655,-0.068 -0.0999,-0.1 -0.0325,-0.035 -0.0649,-0.068 -0.0999,-0.1 -0.0264,-0.028 -0.0547,-0.054 -0.0828,-0.08 -0.0294,-0.032 -0.0598,-0.062 -0.0914,-0.091 -0.0294,-0.031 -0.0598,-0.062 -0.0914,-0.091 -0.0294,-0.032 -0.0598,-0.062 -0.0914,-0.091 -0.0262,-0.028 -0.0521,-0.056 -0.0799,-0.083 -0.0351,-0.038 -0.0704,-0.073 -0.10852,-0.1085 -0.0264,-0.028 -0.0547,-0.054 -0.0828,-0.08 -0.0294,-0.032 -0.0598,-0.062 -0.0914,-0.091 -0.0294,-0.031 -0.0598,-0.062 -0.0914,-0.091 -0.0294,-0.032 -0.0598,-0.062 -0.0913,-0.091 -0.0262,-0.028 -0.0521,-0.056 -0.0799,-0.083 -0.0303,-0.033 -0.0617,-0.063 -0.0942,-0.094 -0.0339,-0.037 -0.069,-0.072 -0.10561,-0.1056 -0.0264,-0.028 -0.0547,-0.054 -0.0828,-0.08 -0.0294,-0.031 -0.0598,-0.062 -0.0914,-0.091 -0.0294,-0.032 -0.0598,-0.062 -0.0914,-0.091 -0.0262,-0.028 -0.0521,-0.056 -0.0799,-0.083 -0.0338,-0.037 -0.0691,-0.072 -0.1056,-0.1056 -0.0307,-0.033 -0.0613,-0.064 -0.0942,-0.094 -0.0264,-0.028 -0.0547,-0.054 -0.0828,-0.08 -0.0294,-0.032 -0.0598,-0.062 -0.0913,-0.091 -0.0294,-0.032 -0.0598,-0.062 -0.0914,-0.091 -0.0294,-0.032 -0.0598,-0.062 -0.0914,-0.091 -0.0262,-0.028 -0.0521,-0.056 -0.0799,-0.083 -0.0351,-0.038 -0.0704,-0.073 -0.10853,-0.1085 -0.0264,-0.028 -0.0547,-0.054 -0.0828,-0.08 -0.0294,-0.032 -0.0598,-0.062 -0.0914,-0.091 -0.0294,-0.032 -0.0598,-0.062 -0.0914,-0.091 -0.0294,-0.032 -0.0598,-0.062 -0.0914,-0.091 -0.0262,-0.028 -0.0521,-0.056 -0.0799,-0.083 -0.0303,-0.033 -0.0617,-0.064 -0.0942,-0.094 -0.0339,-0.037 -0.069,-0.072 -0.10561,-0.1056 -0.0264,-0.028 -0.0547,-0.054 -0.0828,-0.08 -0.0294,-0.032 -0.0598,-0.062 -0.0914,-0.091 -0.0294,-0.032 -0.0598,-0.062 -0.0913,-0.091 -0.0262,-0.028 -0.0521,-0.056 -0.0799,-0.083 -0.032,-0.035 -0.0655,-0.068 -0.0999,-0.1 -0.0323,-0.034 -0.0652,-0.068 -0.0999,-0.1 -0.0264,-0.028 -0.0547,-0.054 -0.0828,-0.08 -0.0294,-0.032 -0.0598,-0.062 -0.0914,-0.091 -0.0294,-0.032 -0.0598,-0.062 -0.0914,-0.091 -0.0262,-0.028 -0.0521,-0.056 -0.0799,-0.083 -0.032,-0.035 -0.0655,-0.068 -0.0999,-0.1 -0.0325,-0.035 -0.0649,-0.068 -0.0999,-0.1 -0.0264,-0.028 -0.0547,-0.054 -0.0828,-0.08 -0.0294,-0.032 -0.0598,-0.062 -0.0913,-0.091 -0.0294,-0.032 -0.0598,-0.062 -0.0914,-0.091 -0.0294,-0.032 -0.0598,-0.062 -0.0913,-0.091 -0.0262,-0.028 -0.0521,-0.056 -0.0799,-0.083 -0.0351,-0.038 -0.0704,-0.073 -0.10853,-0.1086 -0.0264,-0.028 -0.0547,-0.054 -0.0828,-0.08 -0.0294,-0.032 -0.0598,-0.062 -0.0914,-0.091 -0.0294,-0.032 -0.0598,-0.062 -0.0914,-0.091 -0.0294,-0.032 -0.0598,-0.062 -0.0914,-0.091 -0.0262,-0.028 -0.0521,-0.056 -0.0799,-0.083 -0.0303,-0.033 -0.0617,-0.064 -0.0942,-0.094 -0.0339,-0.037 -0.069,-0.072 -0.10561,-0.1056 -0.0264,-0.028 -0.0547,-0.054 -0.0828,-0.08 -0.0294,-0.032 -0.0598,-0.062 -0.0914,-0.091 -0.0294,-0.032 -0.0598,-0.062 -0.0913,-0.091 -0.0262,-0.028 -0.0521,-0.056 -0.0799,-0.083 -0.0338,-0.037 -0.0691,-0.072 -0.1056,-0.1056 -0.0307,-0.033 -0.0613,-0.064 -0.0942,-0.094 -0.0264,-0.028 -0.0547,-0.054 -0.0828,-0.08 -0.0294,-0.032 -0.0598,-0.062 -0.0914,-0.091 -0.0294,-0.031 -0.0598,-0.062 -0.0914,-0.091 -0.0294,-0.031 -0.0598,-0.062 -0.0914,-0.091 -0.0262,-0.028 -0.0521,-0.056 -0.0799,-0.083 -0.0351,-0.038 -0.0704,-0.073 -0.10853,-0.1085 -0.0264,-0.028 -0.0547,-0.054 -0.0828,-0.08 -0.0294,-0.032 -0.0598,-0.062 -0.0913,-0.091 -0.0294,-0.031 -0.0598,-0.062 -0.0914,-0.091 -0.0294,-0.031 -0.0598,-0.062 -0.0913,-0.091 -0.0262,-0.028 -0.0521,-0.056 -0.0799,-0.083 -0.0323,-0.035 -0.0651,-0.067 -0.1,-0.1 -0.0322,-0.034 -0.0652,-0.068 -0.0999,-0.1 -0.0264,-0.028 -0.0547,-0.054 -0.0828,-0.08 -0.0294,-0.031 -0.0598,-0.062 -0.0914,-0.091 -0.0294,-0.031 -0.0598,-0.062 -0.0914,-0.091 -0.0262,-0.028 -0.0521,-0.056 -0.0799,-0.083 -0.032,-0.035 -0.0655,-0.068 -0.0999,-0.1 -0.0323,-0.034 -0.0652,-0.068 -0.0999,-0.1 -0.0264,-0.028 -0.0547,-0.054 -0.0828,-0.08 -0.0294,-0.031 -0.0598,-0.062 -0.0914,-0.091 -0.0294,-0.032 -0.0598,-0.062 -0.0913,-0.091 -0.0262,-0.028 -0.0521,-0.056 -0.0799,-0.083 -0.0338,-0.037 -0.0691,-0.072 -0.1056,-0.1056 -0.0307,-0.033 -0.0613,-0.064 -0.0942,-0.094 -0.0264,-0.028 -0.0547,-0.054 -0.0828,-0.08 -0.0294,-0.031 -0.0598,-0.062 -0.0914,-0.091 -0.0294,-0.032 -0.0598,-0.062 -0.0914,-0.091 -0.0294,-0.032 -0.0598,-0.062 -0.0914,-0.091 -0.0262,-0.028 -0.0521,-0.056 -0.0799,-0.083 -0.0351,-0.038 -0.0704,-0.073 -0.10853,-0.1085 -0.0264,-0.028 -0.0547,-0.054 -0.0828,-0.08 -0.0294,-0.031 -0.0598,-0.062 -0.0913,-0.091 -0.0294,-0.032 -0.0598,-0.062 -0.0914,-0.091 -0.0294,-0.032 -0.0598,-0.062 -0.0913,-0.091 -0.0262,-0.028 -0.0521,-0.056 -0.0799,-0.083 -0.0303,-0.033 -0.0617,-0.064 -0.0942,-0.094 -0.0339,-0.036 -0.069,-0.072 -0.10561,-0.1056 -0.0264,-0.028 -0.0547,-0.054 -0.0828,-0.08 -0.3455,-0.3698 -0.83626,-0.6024 -1.38493,-0.6024 h -0.5167 c -0.0277,-0.028 -0.0561,-0.056 -0.0857,-0.083 -0.0299,-0.031 -0.0592,-0.062 -0.0914,-0.091 -0.0299,-0.031 -0.0592,-0.062 -0.0914,-0.091 -0.0299,-0.031 -0.0593,-0.062 -0.0914,-0.091 -0.0299,-0.031 -0.0593,-0.062 -0.0914,-0.091 -9.1e-4,-10e-4 -0.002,0 -0.003,0 -10e-4,-10e-4 -0.002,0 -0.003,0 -0.002,0 -0.006,0 -0.009,-0.01 -0.0129,-0.015 -0.0266,-0.028 -0.04,-0.043 -0.0124,-0.012 -0.0243,-0.025 -0.0371,-0.037 -0.029,-0.03 -0.0574,-0.062 -0.0885,-0.091 -9.1e-4,-10e-4 -0.002,0 -0.003,0 -0.001,-9e-4 -0.002,0 -0.003,0 -0.0277,-0.028 -0.0561,-0.055 -0.0857,-0.083 -0.0299,-0.031 -0.0592,-0.061 -0.0913,-0.091 -0.0299,-0.031 -0.0593,-0.062 -0.0914,-0.091 -0.0299,-0.031 -0.0593,-0.062 -0.0914,-0.091 -9.1e-4,-10e-4 -0.002,0 -0.003,0 -0.001,-10e-4 -0.002,0 -0.003,0 -0.002,0 -0.006,0 -0.009,-0.01 -0.0129,-0.015 -0.0266,-0.028 -0.04,-0.043 -0.0124,-0.012 -0.0243,-0.025 -0.0371,-0.037 -0.029,-0.03 -0.0602,-0.062 -0.0914,-0.091 -0.0291,-0.03 -0.0574,-0.06 -0.0885,-0.088 -0.0299,-0.031 -0.0592,-0.062 -0.0914,-0.091 -0.0299,-0.031 -0.0593,-0.062 -0.0914,-0.091 -0.0299,-0.031 -0.0593,-0.062 -0.0914,-0.091 -9.1e-4,-0 -0.002,0 -0.003,0 -0.001,-0 -0.002,0 -0.003,0 -0.002,0 -0.006,0 -0.009,-0.01 -0.0129,-0.015 -0.0266,-0.028 -0.04,-0.043 -0.0124,-0.012 -0.0243,-0.025 -0.0371,-0.037 -0.0291,-0.03 -0.0602,-0.062 -0.0914,-0.091 -0.029,-0.03 -0.0574,-0.06 -0.0885,-0.089 -0.0299,-0.031 -0.0592,-0.062 -0.0913,-0.091 -0.0299,-0.031 -0.0592,-0.062 -0.0914,-0.091 -0.0299,-0.031 -0.0593,-0.062 -0.0913,-0.091 -0.0317,-0.033 -0.0628,-0.066 -0.0971,-0.097 -0.002,0 -0.006,0 -0.009,-0.01 -0.0129,-0.015 -0.0266,-0.028 -0.04,-0.043 -0.0124,-0.012 -0.0243,-0.025 -0.0371,-0.037 -0.029,-0.03 -0.0574,-0.06 -0.0885,-0.089 -0.0299,-0.031 -0.0592,-0.062 -0.0914,-0.091 -0.0299,-0.031 -0.0592,-0.061 -0.0914,-0.091 -0.0299,-0.031 -0.0593,-0.062 -0.0914,-0.091 -0.0299,-0.031 -0.0593,-0.062 -0.0914,-0.091 -9.1e-4,-10e-4 -0.002,0 -0.003,0 -10e-4,-9e-4 -0.002,0 -0.003,0 -0.002,0 -0.006,0 -0.009,-0.01 -0.0129,-0.015 -0.0266,-0.028 -0.04,-0.043 -0.0124,-0.012 -0.0243,-0.025 -0.0371,-0.037 -0.029,-0.03 -0.0602,-0.063 -0.0914,-0.091 -0.029,-0.03 -0.0574,-0.06 -0.0885,-0.089 -0.0299,-0.031 -0.0592,-0.061 -0.0913,-0.091 -0.0299,-0.031 -0.0593,-0.062 -0.0914,-0.091 -0.0299,-0.031 -0.0593,-0.062 -0.0913,-0.091 -9.1e-4,-0 -0.002,0 -0.003,0 -0.001,-9e-4 -0.002,0 -0.003,0 -0.002,0 -0.006,0 -0.009,-0.01 -0.0129,-0.015 -0.0266,-0.028 -0.04,-0.043 -0.0124,-0.012 -0.0243,-0.025 -0.0371,-0.037 -0.029,-0.03 -0.0602,-0.063 -0.0913,-0.091 -0.029,-0.03 -0.0574,-0.06 -0.0885,-0.089 -0.0299,-0.031 -0.0592,-0.061 -0.0914,-0.091 -0.0299,-0.031 -0.0592,-0.062 -0.0913,-0.091 -0.0299,-0.031 -0.0593,-0.062 -0.0914,-0.091 -9.2e-4,-0 -0.002,0 -0.003,0 -0.001,-9e-4 -0.002,0 -0.003,0 -0.002,0 -0.006,0 -0.009,-0.01 -0.0239,-0.027 -0.0514,-0.053 -0.0771,-0.08 -0.002,0 -0.004,0 -0.006,-0.01 -0.002,0 -0.006,0 -0.009,-0.01 -0.0129,-0.015 -0.0266,-0.028 -0.04,-0.043 -0.0124,-0.012 -0.0243,-0.025 -0.0371,-0.037 -0.029,-0.03 -0.0574,-0.06 -0.0885,-0.089 -0.0299,-0.031 -0.0592,-0.062 -0.0914,-0.091 -0.0299,-0.031 -0.0592,-0.062 -0.0914,-0.091 -0.55269,-0.5712 -1.49026,-0.9477 -2.55792,-0.9477 z" />
    <path
       inkscape:connector-curvature="0"
       id="path66"
       style="color:#000000;fill:#dadcde;fill-opacity:1"
       d="m 23.94532,1015.905 c -1.70101,0 -3.07991,0.9547 -3.07991,2.1323 0.0495,0.4393 0.32723,0.9941 0.47386,1.1846 0.71073,0.9477 0.71073,1.54 0.53305,1.8953 h -5.74526 c -1.05002,0 -1.89532,0.8453 -1.89532,1.8953 v 4.798 c 0.35537,0.1776 0.94771,0.1776 1.89532,-0.5331 0.19048,-0.1466 0.74527,-0.4243 1.18459,-0.4738 1.17764,0 2.13229,1.3785 2.13229,3.0799 0,1.701 -0.95465,3.0799 -2.13229,3.0799 -0.3614,-0.01 -0.91089,-0.3294 -1.18459,-0.4739 -0.9477,-0.7107 -1.53995,-0.7107 -1.89532,-0.533 v 6.2194 c 0,1.05 0.8453,1.8953 1.89532,1.8953 h 7.64085 c 0.17769,-0.3554 0.17769,-0.9477 -0.53305,-1.8953 -0.14662,-0.1905 -0.42434,-0.7453 -0.47385,-1.1846 0,-1.1777 1.37853,-2.1323 3.07991,-2.1323 1.70101,0 3.07991,0.9546 3.07991,2.1323 -0.006,0.3614 -0.32933,0.9109 -0.47386,1.1846 -0.71073,0.9477 -0.71073,1.5399 -0.53305,1.8953 H 31.29 c 1.05003,0 1.89532,-0.8453 1.89532,-1.8953 v -5.2714 c 0.35537,-0.1777 0.94771,-0.1777 1.89533,0.533 0.27369,0.1444 0.8231,0.4677 1.18458,0.4739 1.17765,0 2.1323,-1.3786 2.1323,-3.08 0,-1.701 -0.95465,-3.0799 -2.1323,-3.0799 -0.43932,0.05 -0.99411,0.3273 -1.18458,0.4739 -0.94771,0.7107 -1.53996,0.7107 -1.89533,0.533 v -5.7452 c 0,-1.05 -0.84529,-1.8953 -1.89532,-1.8953 h -5.2714 c -0.17768,-0.3554 -0.17768,-0.9477 0.53305,-1.8954 0.14443,-0.2737 0.46773,-0.8231 0.47386,-1.1845 0,-1.1777 -1.37854,-2.1323 -3.07991,-2.1323" />
  </g>
</svg>
