<?xml version="1.0" encoding="UTF-8" standalone="no"?>
<!-- Created using Karbon, part of Calligra: http://www.calligra.org/karbon -->

<svg
   xmlns:dc="http://purl.org/dc/elements/1.1/"
   xmlns:cc="http://creativecommons.org/ns#"
   xmlns:rdf="http://www.w3.org/1999/02/22-rdf-syntax-ns#"
   xmlns:svg="http://www.w3.org/2000/svg"
   xmlns="http://www.w3.org/2000/svg"
   xmlns:sodipodi="http://sodipodi.sourceforge.net/DTD/sodipodi-0.dtd"
   xmlns:inkscape="http://www.inkscape.org/namespaces/inkscape"
   width="38.4pt"
   height="38.4pt"
   id="svg2"
   version="1.1"
   inkscape:version="0.48.5 r10040"
   sodipodi:docname="mitter.svg">
  <metadata
     id="metadata20">
    <rdf:RDF>
      <cc:Work
         rdf:about="">
        <dc:format>image/svg+xml</dc:format>
        <dc:type
           rdf:resource="http://purl.org/dc/dcmitype/StillImage" />
      </cc:Work>
    </rdf:RDF>
  </metadata>
  <sodipodi:namedview
     pagecolor="#ffffff"
     bordercolor="#666666"
     borderopacity="1"
     objecttolerance="10"
     gridtolerance="10"
     guidetolerance="10"
     inkscape:pageopacity="0"
     inkscape:pageshadow="2"
     inkscape:window-width="1920"
     inkscape:window-height="1035"
     id="namedview18"
     showgrid="false"
     inkscape:zoom="4.9166667"
     inkscape:cx="24"
     inkscape:cy="24"
     inkscape:window-x="-4"
     inkscape:window-y="29"
     inkscape:window-maximized="1"
     inkscape:current-layer="svg2" />
  <defs
     id="defs4" />
  <g
     transform="matrix(0.11330905,0,0,0.11330925,-4.064932,-4.0077932)"
     id="g11903">
    <path
       d="m 247.68483,90.970444 c -97.48293,0 -176.508411,64.657216 -176.508411,144.415936 0,50.80467 32.091161,95.44002 80.565461,121.18236 -1.84332,13.41867 -10.23759,46.26561 -49.97732,57.49893 51.47041,5.59385 85.65258,-19.50313 103.79898,-38.44405 13.49758,2.7038 27.60525,4.1787 42.12129,4.1787 97.48294,0 176.50842,-64.65722 176.50842,-144.41594 0,-79.75872 -79.02548,-144.415936 -176.50842,-144.415936 z"
       inkscape:connector-curvature="0"
       id="path3620"
       style="opacity:0.6;fill:#008b8b;fill-opacity:1;stroke:none;display:inline" />
    <path
       d="m 204.89493,171.20152 c -35.44834,0 -64.1848,28.73654 -64.1848,64.18486 l 0,42.78991 c 0,11.85281 9.54207,21.39496 21.39489,21.39496 11.85282,0 21.39502,-9.54215 21.39502,-21.39496 l 0,-42.78991 c 0,-11.8161 9.57877,-21.39495 21.39489,-21.39495 11.81611,0 21.39502,9.57885 21.39502,21.39495 l 0,42.78991 c 0,11.85281 9.54206,21.39496 21.39488,21.39496 11.85283,0 21.39502,-9.54215 21.39502,-21.39496 l 0,-42.78991 c 0,-11.8161 9.57878,-21.39495 21.39489,-21.39495 11.81611,0 21.39502,9.57885 21.39502,21.39495 l 0,42.78991 c 0,11.85281 9.54207,21.39496 21.39489,21.39496 11.85282,0 21.39502,-9.54215 21.39502,-21.39496 l 0,-42.78991 c 0,-35.44832 -28.73659,-64.18486 -64.18493,-64.18486 -16.44703,0 -31.43234,6.20815 -42.78991,16.38051 -11.35756,-10.17236 -26.34287,-16.38051 -42.7899,-16.38051 z"
       inkscape:connector-curvature="0"
       id="path3729"
       style="color:#000000;fill:#ffffff;fill-opacity:1;fill-rule:nonzero;stroke:none;stroke-width:0.5;marker:none;visibility:visible;display:inline;overflow:visible;enable-background:accumulate" />
  </g>
</svg>
