<?xml version="1.0" encoding="UTF-8" standalone="no"?>
<!-- Created using Karbon, part of Calligra: http://www.calligra.org/karbon -->

<svg
   xmlns:dc="http://purl.org/dc/elements/1.1/"
   xmlns:cc="http://creativecommons.org/ns#"
   xmlns:rdf="http://www.w3.org/1999/02/22-rdf-syntax-ns#"
   xmlns:svg="http://www.w3.org/2000/svg"
   xmlns="http://www.w3.org/2000/svg"
   xmlns:sodipodi="http://sodipodi.sourceforge.net/DTD/sodipodi-0.dtd"
   xmlns:inkscape="http://www.inkscape.org/namespaces/inkscape"
   width="38.4pt"
   height="38.4pt"
   id="svg2"
   version="1.1"
   inkscape:version="0.48.5 r10040"
   sodipodi:docname="monodoc-browser.svg">
  <metadata
     id="metadata11">
    <rdf:RDF>
      <cc:Work
         rdf:about="">
        <dc:format>image/svg+xml</dc:format>
        <dc:type
           rdf:resource="http://purl.org/dc/dcmitype/StillImage" />
        <dc:title />
      </cc:Work>
    </rdf:RDF>
  </metadata>
  <sodipodi:namedview
     pagecolor="#ffffff"
     bordercolor="#666666"
     borderopacity="1"
     objecttolerance="10"
     gridtolerance="10"
     guidetolerance="10"
     inkscape:pageopacity="0"
     inkscape:pageshadow="2"
     inkscape:window-width="1920"
     inkscape:window-height="1035"
     id="namedview9"
     showgrid="false"
     inkscape:showpageshadow="false"
     borderlayer="true"
     inkscape:zoom="9.8333329"
     inkscape:cx="23.420743"
     inkscape:cy="20.550452"
     inkscape:window-x="-4"
     inkscape:window-y="29"
     inkscape:window-maximized="1"
     inkscape:current-layer="svg2">
    <sodipodi:guide
       position="9.5367432e-07,48.000001"
       orientation="47.999999,0"
       id="guide4067" />
    <sodipodi:guide
       position="9.5367432e-07,1.9073486e-06"
       orientation="0,47.999999"
       id="guide4069" />
    <sodipodi:guide
       position="48,1.9073486e-06"
       orientation="-47.999999,0"
       id="guide4071" />
    <sodipodi:guide
       position="48,48.000001"
       orientation="0,-47.999999"
       id="guide4073" />
    <sodipodi:guide
       position="4.000001,44.000001"
       orientation="39.999999,0"
       id="guide4133" />
    <sodipodi:guide
       position="4.000001,4.0000019"
       orientation="0,39.999999"
       id="guide4135" />
    <sodipodi:guide
       position="44,4.0000019"
       orientation="-39.999999,0"
       id="guide4137" />
    <sodipodi:guide
       position="44,44.000001"
       orientation="0,-39.999999"
       id="guide4139" />
  </sodipodi:namedview>
  <defs
     id="defs4" />
  <rect
     style="fill:#2980b9;fill-rule:evenodd;stroke:none;fill-opacity:1"
     y="4.000001"
     x="4.000001"
     ry="20"
     height="40"
     width="40"
     stroke-miterlimit="2.01260185242"
     id="shape01" />
  <path
     clip-path="none"
     style="fill:#f5f5f5;fill-opacity:1;stroke:none"
     d="m 25.748199,9.4916062 c -0.41357,9.33e-4 -0.776544,0.02529 -1.096509,0.05871 -1.106543,0.1155 -2.249971,0.376945 -2.604227,0.6070028 -0.09985,0.06487 0.611903,0.243983 1.840582,0.469934 1.103024,0.202841 1.902434,0.387632 1.781828,0.411189 -0.120596,0.02352 -1.839975,-0.15484 -3.837796,-0.411189 -3.50733,-0.450045 -3.652258,-0.475627 -3.89654,-0.254549 -0.50933,0.460946 -1.239356,1.734258 -1.39022,2.408415 -0.146067,0.652699 -0.129174,0.725994 0.195804,1.39022 0.553915,1.132163 1.572323,1.947449 3.916122,3.132905 1.108297,0.560551 1.990914,1.044084 1.95806,1.076928 -0.03285,0.03285 -0.971974,-0.318762 -2.09513,-0.783226 l -2.036377,-0.841961 -2.995835,0.841961 c -1.648101,0.461216 -3.135444,0.84197 -3.203073,0.84197 l -0.0476,19.051613 2.663279,0 c 0,-0.196579 6.577515,-8.194788 6.716143,-8.1648 0.07924,0.01717 3.01006,1.27262 6.52034,2.78045 5.995142,2.575182 6.3974,2.723544 6.559501,2.506311 0.245159,-0.328515 1.100224,-2.092648 1.546871,-3.211212 l 0.372028,-0.939877 -0.646157,-0.352445 c -0.904691,-0.494733 -2.223669,-1.599073 -3.05457,-2.545483 -0.758232,-0.863624 -2.134293,-2.958698 -2.134293,-3.250375 0,-0.09654 0.447898,0.345988 0.97903,0.979031 1.491888,1.778133 4.933792,4.566637 5.149701,4.17067 0.2562,-0.469887 0.419403,-1.858446 0.411189,-3.465769 -0.01,-1.962242 -0.284013,-3.491502 -0.959449,-5.600053 L 35.988874,19.223139 34.12872,18.635717 31.837786,17.911235 c -0.808455,-0.254147 -0.322038,-0.244711 0.861542,0.0196 1.415187,0.316018 2.869368,0.592873 3.75948,0.70491 0.78373,0.09864 0.95397,-0.06767 1.037774,-0.939867 0.106858,-1.112078 -0.60747,-4.188394 -1.331485,-5.717541 -0.28897,-0.610298 -0.420075,-0.733751 -0.998612,-0.998614 -1.685079,-0.771456 -6.523307,-1.4970028 -9.418267,-1.4881168 z"
     id="path3062"
     inkscape:connector-curvature="0"
     sodipodi:nodetypes="sssssssssscccccccssscccsssssccccssssss" />
</svg>
