<?xml version="1.0" encoding="UTF-8" standalone="no"?>
<!-- Created using Karbon, part of Calligra: http://www.calligra.org/karbon -->

<svg
   xmlns:dc="http://purl.org/dc/elements/1.1/"
   xmlns:cc="http://creativecommons.org/ns#"
   xmlns:rdf="http://www.w3.org/1999/02/22-rdf-syntax-ns#"
   xmlns:svg="http://www.w3.org/2000/svg"
   xmlns="http://www.w3.org/2000/svg"
   xmlns:sodipodi="http://sodipodi.sourceforge.net/DTD/sodipodi-0.dtd"
   xmlns:inkscape="http://www.inkscape.org/namespaces/inkscape"
   width="38.4pt"
   height="38.4pt"
   id="svg2"
   version="1.1"
   inkscape:version="0.48.5 r10040"
   sodipodi:docname="mrim.svg">
  <metadata
     id="metadata20">
    <rdf:RDF>
      <cc:Work
         rdf:about="">
        <dc:format>image/svg+xml</dc:format>
        <dc:type
           rdf:resource="http://purl.org/dc/dcmitype/StillImage" />
      </cc:Work>
    </rdf:RDF>
  </metadata>
  <sodipodi:namedview
     pagecolor="#ffffff"
     bordercolor="#666666"
     borderopacity="1"
     objecttolerance="10"
     gridtolerance="10"
     guidetolerance="10"
     inkscape:pageopacity="0"
     inkscape:pageshadow="2"
     inkscape:window-width="1920"
     inkscape:window-height="1035"
     id="namedview18"
     showgrid="false"
     inkscape:zoom="4.9166667"
     inkscape:cx="24"
     inkscape:cy="24"
     inkscape:window-x="-4"
     inkscape:window-y="29"
     inkscape:window-maximized="1"
     inkscape:current-layer="svg2" />
  <defs
     id="defs4" />
  <path
     style="fill:#27b94a;fill-opacity:1;stroke:none;display:inline"
     d="M 24.418975,4.0000003 C 14.583529,4.0000003 6.6,11.983738 6.6,21.832141 c 0,6.273273 3.247649,11.789549 8.138417,14.968152 -0.185987,1.656901 -1.031647,5.714666 -5.0411561,7.101759 5.1930641,0.69074 8.6402211,-2.417328 10.4710781,-4.756085 1.361832,0.333832 2.786044,0.518387 4.250636,0.518387 9.835456,0 17.806025,-7.983757 17.806025,-17.832213 0,-9.848403 -7.970569,-17.8321407 -17.806025,-17.8321407 z m 0.181438,5.442956 c 3.438316,0 6.551077,1.3932937 8.799328,3.6415977 2.248062,2.24793 3.641364,5.348488 3.641554,8.786487 0,0.533265 -0.0471,1.410939 -0.181427,2.397472 -0.165528,1.217274 -0.463644,2.592839 -0.997868,3.693456 -0.680551,1.401981 -1.721988,2.397514 -3.265728,2.397514 -0.128859,0 -0.270337,-0.0042 -0.440615,-0.02613 l -0.013,0 -0.0389,-0.01286 c -0.0422,-0.0062 -0.0889,-0.01617 -0.129599,-0.02613 -0.172557,-0.03193 -0.339115,-0.07373 -0.505413,-0.129593 -0.203718,-0.06842 -0.409905,-0.150454 -0.609082,-0.259188 -0.8324,-0.454224 -1.555611,-1.24311 -1.801338,-2.397473 -1.260764,1.040941 -2.870653,1.671538 -4.639411,1.671745 -2.020075,0 -3.852201,-0.819699 -5.170745,-2.138284 -1.318343,-1.318419 -2.138093,-3.138004 -2.138273,-5.157891 l 0,-0.01286 c 10e-5,-2.020011 0.81973,-3.839265 2.138273,-5.157849 1.318354,-1.318212 3.15093,-2.138135 5.170745,-2.138305 1.928216,1.68e-4 3.674344,0.742625 4.976357,1.956873 0.240787,-0.225184 0.564343,-0.362864 0.920108,-0.362864 0.743841,0 1.347763,0.603929 1.347763,1.34778 l 0,8.799467 c 0,1.446271 1.168886,1.908747 1.879087,0.233269 0.331065,-0.780178 0.539483,-1.75257 0.660921,-2.643763 0.110609,-0.813188 0.142559,-1.563839 0.142559,-2.034608 l 0.013,0 c -7e-5,-2.687308 -1.097136,-5.127328 -2.863993,-6.894413 -1.767248,-1.767287 -4.206697,-2.864032 -6.894323,-2.864032 -2.687136,1.68e-4 -5.127466,1.09694 -6.894333,2.864032 -1.767288,1.767085 -2.850974,4.206732 -2.851034,6.894413 1.7e-4,2.687348 1.084126,5.127328 2.851034,6.894412 1.767247,1.767126 4.206887,2.863845 6.894333,2.864052 l 0,-0.01286 c 0.919068,0 1.804777,-0.119931 2.630726,-0.349884 0.161918,-0.04504 0.321936,-0.08978 0.479494,-0.142573 0.136829,-0.04599 0.288837,-0.111306 0.466534,-0.181432 0.691582,-0.270221 1.479252,0.07299 1.749498,0.764625 0.270247,0.691556 -0.073,1.466467 -0.7646,1.736563 l 0,0.01286 c -0.174838,0.0688 -0.384825,0.132083 -0.609082,0.207351 -0.203538,0.06822 -0.401935,0.13681 -0.609083,0.194412 -1.072046,0.298585 -2.195992,0.45356 -3.343487,0.45356 -3.438127,0 -6.551238,-1.393315 -8.799339,-3.641577 -2.247942,-2.248471 -3.628364,-5.361427 -3.628594,-8.799467 1.2e-4,-3.438456 1.380382,-6.538144 3.628594,-8.786488 2.248021,-2.24792 5.361392,-3.6414017 8.799339,-3.6415967 z m -0.181438,7.8145307 c -1.268934,1.69e-4 -2.428389,0.523395 -3.265729,1.360718 -0.837529,0.837573 -1.360723,1.983476 -1.360723,3.252836 10e-5,1.268986 0.523384,2.42841 1.360723,3.265775 0.83753,0.837571 1.996605,1.347779 3.265729,1.347779 1.269134,0 2.415439,-0.510415 3.252779,-1.347779 1.766658,-1.766711 1.762168,-4.748747 0,-6.518611 -0.83753,-0.837531 -1.983455,-1.360511 -3.252779,-1.360718 z"
     id="path3620"
     inkscape:connector-curvature="0" />
</svg>
