<?xml version="1.0" encoding="UTF-8" standalone="no"?>
<!-- Created using Karbon, part of Calligra: http://www.calligra.org/karbon -->

<svg
   xmlns:dc="http://purl.org/dc/elements/1.1/"
   xmlns:cc="http://creativecommons.org/ns#"
   xmlns:rdf="http://www.w3.org/1999/02/22-rdf-syntax-ns#"
   xmlns:svg="http://www.w3.org/2000/svg"
   xmlns="http://www.w3.org/2000/svg"
   xmlns:xlink="http://www.w3.org/1999/xlink"
   xmlns:sodipodi="http://sodipodi.sourceforge.net/DTD/sodipodi-0.dtd"
   xmlns:inkscape="http://www.inkscape.org/namespaces/inkscape"
   width="38.4pt"
   height="38.4pt"
   id="svg2"
   version="1.1"
   inkscape:version="0.48.5 r10040"
   sodipodi:docname="phatch-inspector.svg">
  <metadata
     id="metadata20">
    <rdf:RDF>
      <cc:Work
         rdf:about="">
        <dc:format>image/svg+xml</dc:format>
        <dc:type
           rdf:resource="http://purl.org/dc/dcmitype/StillImage" />
      </cc:Work>
    </rdf:RDF>
  </metadata>
  <sodipodi:namedview
     pagecolor="#ffffff"
     bordercolor="#666666"
     borderopacity="1"
     objecttolerance="10"
     gridtolerance="10"
     guidetolerance="10"
     inkscape:pageopacity="0"
     inkscape:pageshadow="2"
     inkscape:window-width="1920"
     inkscape:window-height="1035"
     id="namedview18"
     showgrid="false"
     inkscape:zoom="4.9166667"
     inkscape:cx="24"
     inkscape:cy="24"
     inkscape:window-x="-4"
     inkscape:window-y="29"
     inkscape:window-maximized="1"
     inkscape:current-layer="svg2" />
  <defs
     id="defs4">
    <linearGradient
       inkscape:collect="always"
       xlink:href="#linearGradient4560-9"
       id="linearGradient12796"
       gradientUnits="userSpaceOnUse"
       gradientTransform="matrix(4.7389038,0,0,4.7389038,-396.28494,11.876611)"
       x1="144.87"
       y1="77.388885"
       x2="144.87"
       y2="28.849699" />
    <linearGradient
       id="linearGradient4560-9">
      <stop
         id="stop4562-0"
         style="stop-color:#444444;stop-opacity:1"
         offset="0" />
      <stop
         id="stop4564-8"
         style="stop-color:#888888;stop-opacity:1"
         offset="1" />
    </linearGradient>
  </defs>
  <path
     style="fill:#8fd400;fill-rule:evenodd;stroke:#000000;stroke-width:0;stroke-linecap:square;stroke-linejoin:miter;stroke-miterlimit:2.01260184999999980;fill-opacity:1"
     inkscape:connector-curvature="0"
     d="M 44.00463,23.64061 C 43.80353,12.63128 34.74203,3.854973 23.73193,4.0058259 12.72181,4.156679 3.9042116,13.17795 4.0047818,24.18861 4.105352,35.19931 13.08626,44.05801 24.09733,44.00771 c 11.011,-0.0502 19.9106,-8.9906 19.9106,-20.0018"
     stroke-miterlimit="2.01260191180"
     id="shape0" />
  <g
     transform="matrix(0.08329708,0,0,0.08329581,2.5356933,2.6766469)"
     id="g12821">
    <path
       d="M 240.81604,147.23931 C 124.30251,149.25035 79.275005,265.65049 77.605442,273.11412 c 7.839047,10.20379 74.688818,57.60377 162.543878,57.60377 12.52772,0 25.10904,-0.92307 37.46909,-2.4002 l 59.7372,59.73728 52.67007,-52.80347 -26.93507,-26.9351 c 36.23171,-12.79241 63.98615,-28.32649 74.67152,-38.66914 -13.1289,-19.65545 -88.55589,-124.27887 -196.94609,-122.40795 z"
       inkscape:connector-curvature="0"
       id="path3532"
       style="fill:url(#linearGradient12796);fill-opacity:1;stroke:none" />
    <path
       style="fill:#8fd400;fill-opacity:1;fill-rule:nonzero;stroke:none;stroke-width:1;marker:none;visibility:visible;display:inline;overflow:visible;enable-background:accumulate"
       id="path3540"
       inkscape:connector-curvature="0"
       d="m 294.43427,318.48863 44.9749,44.97492 27.15467,-27.15465 -44.97494,-44.97491 -27.15463,27.15464 z" />
    <path
       style="fill:#ffffff;fill-opacity:1;fill-rule:nonzero;stroke:none;stroke-width:1;marker:none;visibility:visible;display:inline;overflow:visible;enable-background:accumulate"
       id="path3558"
       inkscape:connector-curvature="0"
       d="m 187.98418,189.97546 c -24.89815,27.5602 -24.01231,70.27477 2.54579,96.83274 24.54979,24.54989 62.72503,26.96186 90.13835,7.54296 l 12.35162,12.35156 -5.18578,5.18581 6.60011,6.6001 27.15463,-27.15464 -6.60006,-6.60011 -5.18583,5.18581 -12.35158,-12.35164 c 19.41899,-27.41321 17.00694,-65.58848 -7.54296,-90.13836 -27.4147,-27.41481 -71.96376,-27.41474 -99.3785,0 -0.85666,0.85668 -1.74259,1.65675 -2.54579,2.54577 z m 18.00883,12.91727 c 18.86989,-18.8699 49.58244,-18.86983 68.45237,0 18.86984,18.87001 18.77564,49.48823 -0.0943,68.35814 -18.86984,18.86982 -49.48823,18.96412 -68.35807,0.0943 -18.86989,-18.86999 -18.86994,-49.58251 0,-68.45243 z" />
  </g>
</svg>
