<?xml version="1.0" encoding="UTF-8" standalone="no"?>
<!-- Created with Inkscape (http://www.inkscape.org/) -->

<svg
   xmlns:dc="http://purl.org/dc/elements/1.1/"
   xmlns:cc="http://creativecommons.org/ns#"
   xmlns:rdf="http://www.w3.org/1999/02/22-rdf-syntax-ns#"
   xmlns:svg="http://www.w3.org/2000/svg"
   xmlns="http://www.w3.org/2000/svg"
   xmlns:sodipodi="http://sodipodi.sourceforge.net/DTD/sodipodi-0.dtd"
   xmlns:inkscape="http://www.inkscape.org/namespaces/inkscape"
   width="48"
   height="48"
   id="svg2"
   version="1.1"
   inkscape:version="0.48.5 r10040"
   viewBox="0 0 13.546666 13.546668"
   sodipodi:docname="preferences-system-performance.svg">
  <defs
     id="defs4">
    <style
       id="style2464"
       type="text/css" />
    <style
       type="text/css"
       id="style2464-7" />
    <clipPath
       id="clipPath-923796646">
      <g
         transform="translate(0,-1004.3622)"
         id="g17">
        <path
           style="fill:#1890d0"
           inkscape:connector-curvature="0"
           d="m -24,13 c 0,1.105 -0.672,2 -1.5,2 -0.828,0 -1.5,-0.895 -1.5,-2 0,-1.105 0.672,-2 1.5,-2 0.828,0 1.5,0.895 1.5,2 z"
           transform="matrix(15.333333,0,0,11.5,414.99999,878.8622)"
           id="path19" />
      </g>
    </clipPath>
  </defs>
  <sodipodi:namedview
     id="base"
     pagecolor="#ffffff"
     bordercolor="#666666"
     borderopacity="1.0"
     inkscape:pageopacity="0"
     inkscape:pageshadow="2"
     inkscape:zoom="8.9002328"
     inkscape:cx="16.291945"
     inkscape:cy="29.828206"
     inkscape:document-units="px"
     inkscape:current-layer="layer1"
     showgrid="false"
     inkscape:showpageshadow="false"
     borderlayer="true"
     units="px"
     fit-margin-top="0"
     fit-margin-left="0"
     fit-margin-right="0"
     fit-margin-bottom="0"
     showguides="true"
     inkscape:window-width="1920"
     inkscape:window-height="1031"
     inkscape:window-x="-4"
     inkscape:window-y="32"
     inkscape:window-maximized="1">
    <sodipodi:guide
       position="-6.6748425e-06,47.999999"
       orientation="47.999977,0"
       id="guide4120" />
    <sodipodi:guide
       position="-6.6748425e-06,2.2810037e-05"
       orientation="0,48.000004"
       id="guide4122" />
    <sodipodi:guide
       position="47.999997,2.2810037e-05"
       orientation="-47.999977,0"
       id="guide4124" />
    <sodipodi:guide
       position="47.999997,47.999999"
       orientation="0,-48.000004"
       id="guide4126" />
    <sodipodi:guide
       position="3.9999733,44.000154"
       orientation="39.999962,0"
       id="guide4138" />
    <sodipodi:guide
       position="3.9999733,4.0001921"
       orientation="0,40.000003"
       id="guide4140" />
    <sodipodi:guide
       position="43.999976,4.0001921"
       orientation="-39.999962,0"
       id="guide4142" />
    <sodipodi:guide
       position="43.999976,44.000154"
       orientation="0,-40.000003"
       id="guide4144" />
    <sodipodi:guide
       position="6.9999922,47.999999"
       orientation="39.999962,0"
       id="guide4148" />
    <sodipodi:guide
       position="6.9999922,8.0000369"
       orientation="0,34.000006"
       id="guide4150" />
    <sodipodi:guide
       position="40.999998,8.0000369"
       orientation="-39.999962,0"
       id="guide4152" />
    <sodipodi:guide
       position="40.999998,47.999999"
       orientation="0,-34.000006"
       id="guide4154" />
    <sodipodi:guide
       position="14.999993,32.999986"
       orientation="17.999951,0"
       id="guide4158" />
    <sodipodi:guide
       position="14.999993,15.000036"
       orientation="0,17.999998"
       id="guide4160" />
    <sodipodi:guide
       position="32.999991,15.000036"
       orientation="-17.999951,0"
       id="guide4162" />
    <sodipodi:guide
       position="32.999991,32.999986"
       orientation="0,-17.999998"
       id="guide4164" />
    <sodipodi:guide
       position="1.9999969,44.000046"
       orientation="39.999962,0"
       id="guide3279" />
    <sodipodi:guide
       position="1.9999969,4.0000839"
       orientation="0,44.000003"
       id="guide3281" />
    <sodipodi:guide
       position="46,4.0000839"
       orientation="-39.999962,0"
       id="guide3283" />
    <sodipodi:guide
       position="46,44.000046"
       orientation="0,-44.000003"
       id="guide3285" />
  </sodipodi:namedview>
  <metadata
     id="metadata7">
    <rdf:RDF>
      <cc:Work
         rdf:about="">
        <dc:format>image/svg+xml</dc:format>
        <dc:type
           rdf:resource="http://purl.org/dc/dcmitype/StillImage" />
        <dc:title />
      </cc:Work>
    </rdf:RDF>
  </metadata>
  <g
     inkscape:label="Capa 1"
     inkscape:groupmode="layer"
     id="layer1"
     transform="translate(38.119153,-397.84494)">
    <rect
       style="fill:#2c3e50;fill-opacity:1;stroke:none"
       id="rect4125"
       width="11.288891"
       height="11.288909"
       x="-36.990273"
       y="398.97379"
       ry="5.6444454" />
    <path
       style="fill:#000000;fill-opacity:0;stroke:none"
       d="m -31.949074,402.54832 c -0.926452,0 -1.913672,1.43578 -1.93675,2.29221 0,1.28005 1.037692,2.31774 2.31775,2.31774 0.554199,-9e-4 1.089683,-0.20062 1.509366,-0.56257 0.0068,-0.005 0.01347,-0.0115 0.02009,-0.0174 0.233529,-0.19399 0.368766,-0.48173 0.369093,-0.78532 5.5e-5,-0.5646 -0.457592,-1.02236 -1.022201,-1.02245 -0.107034,4.3e-4 -0.213335,0.0177 -0.31502,0.0511 l -0.0015,-0.003 c -0.100463,0.0347 -0.20598,0.0527 -0.312291,0.0531 -0.533025,-3e-5 -0.965122,-0.43212 -0.96515,-0.96515 0.274215,-1.02338 0.613009,-0.70445 0.62235,-1.07305 0,-0.15782 -0.127935,-0.28575 -0.28575,-0.28575 z m 0.2349,3.2447 c -4e-6,0.0583 0.005,0.11645 0.01489,0.17388 -0.0099,-0.0574 -0.01489,-0.1156 -0.01489,-0.17388 z m 0.288975,0.71239 c 0.04757,0.049 0.09992,0.093 0.15627,0.13147 0.08452,0.0579 0.177247,0.10266 0.275084,0.13295 0.06093,0.0186 0.123457,0.0315 0.186779,0.0384 -0.06332,-0.007 -0.125854,-0.0198 -0.186779,-0.0384 -0.09784,-0.0303 -0.190567,-0.0752 -0.275084,-0.13295 -0.05635,-0.0385 -0.108699,-0.0825 -0.15627,-0.13147 z m 0.946795,0.28625 c -0.0075,0.002 -0.01503,0.004 -0.02257,0.005 0.0076,-0.002 0.01507,-0.004 0.02257,-0.005 z m -0.08954,0.0149 c -0.01319,0.002 -0.02642,0.004 -0.03969,0.005 0.01326,-9e-4 0.02649,-0.003 0.03969,-0.005 z"
       id="circle4229"
       inkscape:connector-curvature="0"
       sodipodi:nodetypes="ccccccccccccccccccccccccccccc" />
    <g
       id="g47"
       transform="matrix(0.28221519,0,0,0.2822114,-38.119126,397.70536)"
       style="fill:#87cefa;fill-opacity:1">
      <g
         clip-path="url(#clipPath-923796646)"
         id="g49"
         style="fill:#87cefa;fill-opacity:1">
        <!-- color: #21c7a6 -->
        <g
           id="g51"
           style="fill:#87cefa;fill-opacity:1">
          <path
             d="M 20,11 14.875,23 4,23 l 0,1.996 12.566,0 3.438,-8 2.559,6 6,14 5.129,-12 10.309,0 0,-2 -12,0 -3.438,8 -3.438,-8 -5.121,-12 M 20,11"
             id="path53"
             inkscape:connector-curvature="0"
             style="fill:#87cefa;fill-opacity:1;fill-rule:nonzero;stroke:none" />
        </g>
      </g>
    </g>
  </g>
</svg>
