<?xml version="1.0" encoding="UTF-8" standalone="no"?>
<!-- Created with Inkscape (http://www.inkscape.org/) -->

<svg
   xmlns:dc="http://purl.org/dc/elements/1.1/"
   xmlns:cc="http://creativecommons.org/ns#"
   xmlns:rdf="http://www.w3.org/1999/02/22-rdf-syntax-ns#"
   xmlns:svg="http://www.w3.org/2000/svg"
   xmlns="http://www.w3.org/2000/svg"
   xmlns:sodipodi="http://sodipodi.sourceforge.net/DTD/sodipodi-0.dtd"
   xmlns:inkscape="http://www.inkscape.org/namespaces/inkscape"
   width="48"
   height="48"
   id="svg2"
   version="1.1"
   inkscape:version="0.48.5 r10040"
   viewBox="0 0 13.546666 13.546668"
   sodipodi:docname="psi.svg">
  <defs
     id="defs4">
    <style
       id="style2464"
       type="text/css" />
    <style
       type="text/css"
       id="style2464-7" />
  </defs>
  <sodipodi:namedview
     id="base"
     pagecolor="#ffffff"
     bordercolor="#666666"
     borderopacity="1.0"
     inkscape:pageopacity="0"
     inkscape:pageshadow="2"
     inkscape:zoom="8.9002328"
     inkscape:cx="16.291945"
     inkscape:cy="29.828206"
     inkscape:document-units="px"
     inkscape:current-layer="layer1"
     showgrid="false"
     inkscape:showpageshadow="false"
     borderlayer="true"
     units="px"
     fit-margin-top="0"
     fit-margin-left="0"
     fit-margin-right="0"
     fit-margin-bottom="0"
     showguides="true"
     inkscape:window-width="1920"
     inkscape:window-height="1035"
     inkscape:window-x="-4"
     inkscape:window-y="29"
     inkscape:window-maximized="1">
    <sodipodi:guide
       position="-6.6748425e-06,47.999999"
       orientation="47.999977,0"
       id="guide4120" />
    <sodipodi:guide
       position="-6.6748425e-06,2.2810037e-05"
       orientation="0,48.000004"
       id="guide4122" />
    <sodipodi:guide
       position="47.999997,2.2810037e-05"
       orientation="-47.999977,0"
       id="guide4124" />
    <sodipodi:guide
       position="47.999997,47.999999"
       orientation="0,-48.000004"
       id="guide4126" />
    <sodipodi:guide
       position="3.9999733,44.000154"
       orientation="39.999962,0"
       id="guide4138" />
    <sodipodi:guide
       position="3.9999733,4.0001921"
       orientation="0,40.000003"
       id="guide4140" />
    <sodipodi:guide
       position="43.999976,4.0001921"
       orientation="-39.999962,0"
       id="guide4142" />
    <sodipodi:guide
       position="43.999976,44.000154"
       orientation="0,-40.000003"
       id="guide4144" />
    <sodipodi:guide
       position="6.9999922,47.999999"
       orientation="39.999962,0"
       id="guide4148" />
    <sodipodi:guide
       position="6.9999922,8.0000369"
       orientation="0,34.000006"
       id="guide4150" />
    <sodipodi:guide
       position="40.999998,8.0000369"
       orientation="-39.999962,0"
       id="guide4152" />
    <sodipodi:guide
       position="40.999998,47.999999"
       orientation="0,-34.000006"
       id="guide4154" />
    <sodipodi:guide
       position="14.999993,32.999986"
       orientation="17.999951,0"
       id="guide4158" />
    <sodipodi:guide
       position="14.999993,15.000036"
       orientation="0,17.999998"
       id="guide4160" />
    <sodipodi:guide
       position="32.999991,15.000036"
       orientation="-17.999951,0"
       id="guide4162" />
    <sodipodi:guide
       position="32.999991,32.999986"
       orientation="0,-17.999998"
       id="guide4164" />
    <sodipodi:guide
       position="1.9999969,44.000046"
       orientation="39.999962,0"
       id="guide3279" />
    <sodipodi:guide
       position="1.9999969,4.0000839"
       orientation="0,44.000003"
       id="guide3281" />
    <sodipodi:guide
       position="46,4.0000839"
       orientation="-39.999962,0"
       id="guide3283" />
    <sodipodi:guide
       position="46,44.000046"
       orientation="0,-44.000003"
       id="guide3285" />
  </sodipodi:namedview>
  <metadata
     id="metadata7">
    <rdf:RDF>
      <cc:Work
         rdf:about="">
        <dc:format>image/svg+xml</dc:format>
        <dc:type
           rdf:resource="http://purl.org/dc/dcmitype/StillImage" />
        <dc:title />
      </cc:Work>
    </rdf:RDF>
  </metadata>
  <g
     inkscape:label="Capa 1"
     inkscape:groupmode="layer"
     id="layer1"
     transform="translate(38.119153,-397.84494)">
    <rect
       style="fill:#2c3e50;fill-opacity:1;stroke:none"
       id="rect4125"
       width="11.288891"
       height="11.288909"
       x="-36.990273"
       y="398.97379"
       ry="5.6444454" />
    <path
       style="fill:#000000;fill-opacity:0;stroke:none"
       d="m -31.949074,402.54832 c -0.926452,0 -1.913672,1.43578 -1.93675,2.29221 0,1.28005 1.037692,2.31774 2.31775,2.31774 0.554199,-9e-4 1.089683,-0.20062 1.509366,-0.56257 0.0068,-0.005 0.01347,-0.0115 0.02009,-0.0174 0.233529,-0.19399 0.368766,-0.48173 0.369093,-0.78532 5.5e-5,-0.5646 -0.457592,-1.02236 -1.022201,-1.02245 -0.107034,4.3e-4 -0.213335,0.0177 -0.31502,0.0511 l -0.0015,-0.003 c -0.100463,0.0347 -0.20598,0.0527 -0.312291,0.0531 -0.533025,-3e-5 -0.965122,-0.43212 -0.96515,-0.96515 0.274215,-1.02338 0.613009,-0.70445 0.62235,-1.07305 0,-0.15782 -0.127935,-0.28575 -0.28575,-0.28575 z m 0.2349,3.2447 c -4e-6,0.0583 0.005,0.11645 0.01489,0.17388 -0.0099,-0.0574 -0.01489,-0.1156 -0.01489,-0.17388 z m 0.288975,0.71239 c 0.04757,0.049 0.09992,0.093 0.15627,0.13147 0.08452,0.0579 0.177247,0.10266 0.275084,0.13295 0.06093,0.0186 0.123457,0.0315 0.186779,0.0384 -0.06332,-0.007 -0.125854,-0.0198 -0.186779,-0.0384 -0.09784,-0.0303 -0.190567,-0.0752 -0.275084,-0.13295 -0.05635,-0.0385 -0.108699,-0.0825 -0.15627,-0.13147 z m 0.946795,0.28625 c -0.0075,0.002 -0.01503,0.004 -0.02257,0.005 0.0076,-0.002 0.01507,-0.004 0.02257,-0.005 z m -0.08954,0.0149 c -0.01319,0.002 -0.02642,0.004 -0.03969,0.005 0.01326,-9e-4 0.02649,-0.003 0.03969,-0.005 z"
       id="circle4229"
       inkscape:connector-curvature="0"
       sodipodi:nodetypes="ccccccccccccccccccccccccccccc" />
    <g
       id="g3019"
       style="fill:#87cefa"
       transform="translate(0.2822223,0)">
      <path
         inkscape:connector-curvature="0"
         id="path3018"
         d="m -32.228546,401.54808 -1.070547,4.83032 0.0011,0 -0.229006,1.03498 c -0.200034,-0.13579 -0.346578,-0.32145 -0.440225,-0.55696 -0.145707,-0.36641 -0.122388,-1.2153 0.07004,-2.54689 0.119722,-0.81325 0.174711,-1.37697 0.165639,-1.69199 -0.0091,-0.31503 -0.100736,-0.56827 -0.276808,-0.75819 -0.176074,-0.1899 -0.443199,-0.28347 -0.799296,-0.28348 -0.211858,10e-6 -0.448799,0.0309 -0.711475,0.0934 l -0.06003,0.25458 c 0.05064,-0.005 0.09617,-0.007 0.136737,-0.007 0.189316,10e-6 0.324292,0.11341 0.405763,0.34129 0.08146,0.2279 0.06759,0.77622 -0.04225,1.64309 -0.109549,0.88475 -0.147754,1.49911 -0.114503,1.84541 0.03325,0.34632 0.128695,0.68542 0.286813,1.01831 0.158114,0.33291 0.373571,0.59054 0.645885,0.77375 0.180701,0.12157 0.393681,0.22197 0.638104,0.30238 l -0.223449,1.01053 0.405763,0 0.735931,0 0.419103,0 0.222336,-1.00386 c 0.270293,-0.0753 0.520608,-0.16868 0.750383,-0.28126 0.346564,-0.1698 0.687361,-0.42303 1.021632,-0.7604 0.334258,-0.33737 0.599372,-0.68199 0.797073,-1.03276 0.197682,-0.35078 0.441805,-0.93982 0.731485,-1.76649 0.01609,-0.0469 0.03205,-0.0927 0.0478,-0.13785 l -1.237298,0 c -0.067,0.18893 -0.138777,0.39555 -0.215666,0.62032 -0.386002,1.13946 -0.7277,1.90799 -1.026079,2.30344 -0.207632,0.27518 -0.466725,0.48842 -0.777063,0.63923 l 0.233452,-1.05389 1.069435,-4.83032 -1.560795,0 z"
         style="font-size:2050.27807617px;font-style:normal;font-weight:normal;fill:#87cefa;fill-opacity:1;stroke:none;font-family:Times New Roman" />
      <path
         inkscape:connector-curvature="0"
         id="path3904"
         d="m -30.058269,400.38524 -0.165859,0.70427 c 1.124928,0.29421 1.955149,1.31042 1.955149,2.51803 l 0.72949,0 c 0,-1.55059 -1.070583,-2.8535 -2.51878,-3.2223 z m -0.23192,0.98654 -0.186941,0.7895 c 0.634387,0.18028 1.099156,0.75956 1.099156,1.44626 l 0.816636,0 c 0,-1.07031 -0.733303,-1.97125 -1.728851,-2.23576 z m -0.253002,1.07037 -0.274087,1.16539 1.148352,0 c 0,-0.54971 -0.368809,-1.01535 -0.874265,-1.16539 z"
         style="font-size:2050.27807617px;font-style:normal;font-weight:normal;fill:#87cefa;fill-opacity:1;stroke:none;font-family:Times New Roman" />
    </g>
  </g>
</svg>
