<?xml version="1.0" encoding="UTF-8" standalone="no"?>
<!-- Created with Inkscape (http://www.inkscape.org/) -->

<svg
   xmlns:dc="http://purl.org/dc/elements/1.1/"
   xmlns:cc="http://creativecommons.org/ns#"
   xmlns:rdf="http://www.w3.org/1999/02/22-rdf-syntax-ns#"
   xmlns:svg="http://www.w3.org/2000/svg"
   xmlns="http://www.w3.org/2000/svg"
   xmlns:sodipodi="http://sodipodi.sourceforge.net/DTD/sodipodi-0.dtd"
   xmlns:inkscape="http://www.inkscape.org/namespaces/inkscape"
   width="48"
   height="48"
   id="svg2"
   version="1.1"
   inkscape:version="0.48.5 r10040"
   sodipodi:docname="pyrenamer.svg"
   inkscape:export-filename="/home/uri/workspace/NitruxforAndroid/res/drawable-xhdpi/downloads.png"
   inkscape:export-xdpi="180"
   inkscape:export-ydpi="180">
  <defs
     id="defs4" />
  <sodipodi:namedview
     id="base"
     pagecolor="#ffffff"
     bordercolor="#666666"
     borderopacity="1.0"
     inkscape:pageopacity="0.0"
     inkscape:pageshadow="2"
     inkscape:zoom="6.9179216"
     inkscape:cx="30.490286"
     inkscape:cy="26.566865"
     inkscape:document-units="px"
     inkscape:current-layer="layer1"
     showgrid="false"
     inkscape:window-width="1920"
     inkscape:window-height="1025"
     inkscape:window-x="-4"
     inkscape:window-y="39"
     inkscape:window-maximized="1">
    <inkscape:grid
       type="xygrid"
       id="grid3850" />
  </sodipodi:namedview>
  <metadata
     id="metadata7">
    <rdf:RDF>
      <cc:Work
         rdf:about="">
        <dc:format>image/svg+xml</dc:format>
        <dc:type
           rdf:resource="http://purl.org/dc/dcmitype/StillImage" />
        <dc:title />
      </cc:Work>
    </rdf:RDF>
  </metadata>
  <g
     inkscape:label="Capa 1"
     inkscape:groupmode="layer"
     id="layer1"
     transform="translate(0,-1004.3622)">
    <path
       style="fill:#ff9e38;fill-rule:evenodd"
       inkscape:connector-curvature="0"
       id="path4"
       d="m 43.998723,1028.36 c 0,11.0457 -8.954488,19.9993 -19.999363,19.9993 C 12.95357,1048.3593 4,1039.4048 4,1028.36 c 0,-11.0458 8.95449,-19.9994 19.99936,-19.9994 11.045788,0 19.999363,8.9545 19.999363,19.9994" />
    <path
       inkscape:connector-curvature="0"
       id="path6"
       style="color:#000000;fill-opacity:0.23500001"
       d="m 29.582554,1018.0058 c -1.419232,0.01 -2.842303,0.032 -4.254134,0.01 0.21836,0.4954 0.15979,1.8041 0.0142,2.1214 0.71757,0.7176 1.562309,1.4228 2.292299,2.1414 -0.05564,-0.01 -0.115574,-0.014 -0.182726,-0.017 -1.331163,0.01 -2.228163,0.096 -3.217803,0 h -13.7611 v 12.7451 c 2.95651,2.8138 5.80247,5.7833 8.71421,8.6649 1.57153,1.5586 3.13283,3.1255 4.69697,4.6906 0.0383,0 0.0758,0 0.1142,0 11.045789,0 20.000277,-8.9545 20.000277,-20.0003 0,-0.048 -0.0026,-0.095 -0.0028,-0.1428 -3.385,-3.3868 -6.756751,-6.7828 -10.175098,-10.1011 -1.401965,-0.1041 -2.817726,-0.1176 -4.236503,-0.1113" />
    <path
       inkscape:connector-curvature="0"
       id="path66"
       style="color:#000000;fill:#ffffff"
       d="m 25.32869,1018.0131 v 2.1261 h 3.189211 v 16.9807 H 25.32842 v 2.1261 h 8.490363 v -2.126 h -3.182174 v -16.9807 h 3.182174 v -2.126 H 25.32842 m -14.85471,4.2447 v 12.7433 h 16.980726 v -2.1261 H 12.59333 v -8.4904 h 14.861106 v -2.1269 H 10.47371 m 21.225451,0 v 2.1261 h 4.244725 v 8.4904 h -4.244725 v 2.1261 h 6.364164 v -12.7433 h -6.364164 m -18.043281,4.2447 v 4.2523 h 9.55292 v -4.2511 h -9.55292" />
  </g>
</svg>
