<?xml version="1.0" encoding="UTF-8" standalone="no"?>
<!-- Created with Inkscape (http://www.inkscape.org/) -->

<svg
   xmlns:dc="http://purl.org/dc/elements/1.1/"
   xmlns:cc="http://creativecommons.org/ns#"
   xmlns:rdf="http://www.w3.org/1999/02/22-rdf-syntax-ns#"
   xmlns:svg="http://www.w3.org/2000/svg"
   xmlns="http://www.w3.org/2000/svg"
   xmlns:sodipodi="http://sodipodi.sourceforge.net/DTD/sodipodi-0.dtd"
   xmlns:inkscape="http://www.inkscape.org/namespaces/inkscape"
   width="48"
   height="48"
   id="svg5453"
   version="1.1"
   inkscape:version="0.48.5 r10040"
   sodipodi:docname="semn.svg">
  <defs
     id="defs5455" />
  <sodipodi:namedview
     id="base"
     pagecolor="#ffffff"
     bordercolor="#666666"
     borderopacity="1.0"
     inkscape:pageopacity="0"
     inkscape:pageshadow="2"
     inkscape:zoom="8.399168"
     inkscape:cx="23.737905"
     inkscape:cy="27.589116"
     inkscape:document-units="px"
     inkscape:current-layer="layer1"
     showgrid="false"
     fit-margin-top="0"
     fit-margin-left="0"
     fit-margin-right="0"
     fit-margin-bottom="0"
     inkscape:window-width="1920"
     inkscape:window-height="1031"
     inkscape:window-x="-4"
     inkscape:window-y="32"
     inkscape:window-maximized="1"
     inkscape:showpageshadow="false"
     borderlayer="true">
    <sodipodi:guide
       position="1.1650391e-05,47.999996"
       orientation="47.999969,0"
       id="guide4063" />
    <sodipodi:guide
       position="1.1650391e-05,2.6367188e-05"
       orientation="0,48"
       id="guide4065" />
    <sodipodi:guide
       position="48.000012,2.6367188e-05"
       orientation="-47.999969,0"
       id="guide4067" />
    <sodipodi:guide
       position="48.000012,47.999996"
       orientation="0,-48"
       id="guide4069" />
    <sodipodi:guide
       position="4.0000117,43.999996"
       orientation="39.999969,0"
       id="guide4071" />
    <sodipodi:guide
       position="4.0000117,4.0000264"
       orientation="0,40"
       id="guide4073" />
    <sodipodi:guide
       position="44.000012,4.0000264"
       orientation="-39.999969,0"
       id="guide4075" />
    <sodipodi:guide
       position="44.000012,43.999996"
       orientation="0,-40"
       id="guide4077" />
  </sodipodi:namedview>
  <metadata
     id="metadata5458">
    <rdf:RDF>
      <cc:Work
         rdf:about="">
        <dc:format>image/svg+xml</dc:format>
        <dc:type
           rdf:resource="http://purl.org/dc/dcmitype/StillImage" />
        <dc:title />
      </cc:Work>
    </rdf:RDF>
  </metadata>
  <g
     inkscape:label="Capa 1"
     inkscape:groupmode="layer"
     id="layer1"
     transform="translate(-384.57143,-499.798)">
    <rect
       style="fill:#daa520;fill-opacity:1;stroke:none"
       id="rect4259"
       width="40"
       height="39.999969"
       x="388.57144"
       y="503.798"
       ry="19.999985" />
    <path
       inkscape:connector-curvature="0"
       style="fill:#1e2022;fill-opacity:0.31372549;stroke:none"
       d="m 421.48158,527.93602 c -0.0121,0.0991 -0.0131,0.20112 -0.0293,0.29883 0.0163,-0.02 0.0378,-0.0353 0.0547,-0.0547 -0.003,-0.0829 -0.0176,-0.16252 -0.0254,-0.24414 z"
       id="path4728" />
    <g
       id="layer1-8"
       transform="matrix(0.62512565,0,0,0.66419337,393.06846,508.50961)"
       style="fill:#1a1a1a">
      <rect
         id="shape0"
         transform="matrix(0.994364,-0.10602,0.10602,0.994364,9.18775,32.6335)"
         stroke-miterlimit="2.01260191180"
         width="23.80175"
         height="3.0074415"
         x="0"
         y="0"
         style="fill:#1a1a1a;fill-rule:evenodd;stroke:#003bc3;stroke-width:0;stroke-linecap:square;stroke-linejoin:miter;stroke-miterlimit:2.01260185" />
      <rect
         id="shape1"
         transform="matrix(0.681042,0.732245,-0.732245,0.681042,17.743,13.204)"
         stroke-miterlimit="2.00000000000"
         width="23.80175"
         height="3.0074415"
         x="0"
         y="0"
         style="fill:#1a1a1a;fill-rule:evenodd;stroke:#003bc3;stroke-width:0;stroke-linecap:square;stroke-linejoin:miter;stroke-miterlimit:2" />
      <rect
         id="shape2"
         transform="matrix(-0.310303,0.950638,-0.950638,-0.310303,40.7058,12.2692)"
         stroke-miterlimit="2.00000000000"
         width="20.772942"
         height="3.0074415"
         x="0"
         y="0"
         style="fill:#1a1a1a;fill-rule:evenodd;stroke:#003bc3;stroke-width:0;stroke-linecap:square;stroke-linejoin:miter;stroke-miterlimit:2" />
      <path
         id="shape11"
         transform="translate(21.3059,20.7634)"
         d="M 21.8227,10.5976 C 21.6489,4.60351 16.6718,-0.12764 10.6766,0.00262671 4.68139,0.132892 -0.0856809,5.07577 0.00116807,11.0717 0.0880181,17.0677 4.99625,21.8705 10.9927,21.8269 16.9892,21.7835 21.8273,16.9103 21.8273,10.9136"
         inkscape:connector-curvature="0"
         style="fill:#1a1a1a;fill-rule:evenodd;stroke:#003bc3;stroke-width:0;stroke-linecap:square;stroke-linejoin:bevel" />
      <path
         id="path11"
         transform="translate(4.00394,28.0459)"
         d="M 11.6693,5.66686 C 11.5763,2.46164 8.91491,-0.0682529 5.70908,0.00140457 2.50329,0.0710727 -0.045816,2.71417 6.24596e-4,5.9204 0.047065,9.12663 2.67167,11.6948 5.87813,11.6716 9.0846,11.6484 11.6716,9.04245 11.6716,5.83589"
         inkscape:connector-curvature="0"
         style="fill:#1a1a1a;fill-rule:evenodd;stroke:#003bc3;stroke-width:0;stroke-linecap:square;stroke-linejoin:bevel" />
      <path
         id="shape3"
         transform="translate(33.413,7.4373)"
         d="M 10.5829,5.11387 C 10.4994,1.96382 7.97633,-0.0667798 5.09473,0.00167881 2.21316,0.0701488 -0.0411733,2.38751 5.70451e-4,5.53853 0.0423092,8.68957 2.57837,10.6056 5.4606,10.5827 8.3428,10.5599 10.5829,8.26522 10.5829,5.11387"
         inkscape:connector-curvature="0"
         style="fill:#1a1a1a;fill-rule:evenodd;stroke:#003bc3;stroke-width:0;stroke-linecap:square;stroke-linejoin:bevel" />
      <path
         id="shape4"
         transform="translate(7.18542,4.00394)"
         d="M 15.1467,7.40177 C 15.0262,3.21528 11.5715,-0.0891489 7.4104,0.00183458 3.24926,0.0928178 -0.05947,3.54511 8.1075e-4,7.73295 0.0610893,11.9207 3.44306,15.1801 7.60509,15.1498 11.767,15.1194 15.15,11.8108 15.15,7.62255"
         inkscape:connector-curvature="0"
         style="fill:#1a1a1a;fill-rule:evenodd;stroke:#003bc3;stroke-width:0;stroke-linecap:square;stroke-linejoin:bevel" />
    </g>
  </g>
</svg>
