<?xml version="1.0" encoding="UTF-8" standalone="no"?>
<!-- Created with Inkscape (http://www.inkscape.org/) -->

<svg
   xmlns:dc="http://purl.org/dc/elements/1.1/"
   xmlns:cc="http://creativecommons.org/ns#"
   xmlns:rdf="http://www.w3.org/1999/02/22-rdf-syntax-ns#"
   xmlns:svg="http://www.w3.org/2000/svg"
   xmlns="http://www.w3.org/2000/svg"
   xmlns:sodipodi="http://sodipodi.sourceforge.net/DTD/sodipodi-0.dtd"
   xmlns:inkscape="http://www.inkscape.org/namespaces/inkscape"
   version="1.1"
   width="256"
   height="256"
   id="svg2"
   inkscape:version="0.48.5 r10040"
   sodipodi:docname="sniper_rifle.svg">
  <sodipodi:namedview
     pagecolor="#ffffff"
     bordercolor="#666666"
     borderopacity="1"
     objecttolerance="10"
     gridtolerance="10"
     guidetolerance="10"
     inkscape:pageopacity="0"
     inkscape:pageshadow="2"
     inkscape:window-width="1920"
     inkscape:window-height="1025"
     id="namedview16"
     showgrid="false"
     inkscape:zoom="10.429825"
     inkscape:cx="88.261218"
     inkscape:cy="163.66612"
     inkscape:window-x="-4"
     inkscape:window-y="39"
     inkscape:window-maximized="1"
     inkscape:current-layer="svg2" />
  <metadata
     id="metadata8">
    <rdf:RDF>
      <cc:Work
         rdf:about="">
        <dc:format>image/svg+xml</dc:format>
        <dc:type
           rdf:resource="http://purl.org/dc/dcmitype/StillImage" />
        <dc:title />
      </cc:Work>
    </rdf:RDF>
  </metadata>
  <defs
     id="defs6">
    <linearGradient
       id="linearGradient3807">
      <stop
         id="stop3809"
         style="stop-color:#ffffff;stop-opacity:1"
         offset="0" />
    </linearGradient>
    <linearGradient
       id="linearGradient5213">
      <stop
         id="stop5215"
         style="stop-color:#ffffff;stop-opacity:1"
         offset="0" />
    </linearGradient>
  </defs>
  <path
     inkscape:connector-curvature="0"
     d="m 27.852271,254.17543 c -1.948733,-1.46664 -10.298645,-14.99435 -15.708923,-25.45006 -1.927549,-3.72512 -4.9602098,-9.06814 -6.7392457,-11.87339 -1.779036,-2.80525 -3.2346108,-5.63546 -3.2346108,-6.28934 0,-1.58355 7.5678545,-8.63417 16.2711865,-15.15912 3.877966,-2.90734 7.783051,-6.08379 8.677966,-7.05879 0.894915,-0.975 3.579661,-3.09305 5.966102,-4.70679 4.910707,-3.32067 14.978413,-11.3751 18.858936,-15.08764 4.868665,-4.6579 7.739534,-12.7742 8.061984,-22.79223 0.268406,-8.33902 0.584731,-9.51714 3.507347,-13.06277 1.766784,-2.14342 5.322499,-5.42571 7.90159,-7.294 l 4.689255,-3.39689 -2.662187,-3.45644 c -1.464203,-1.90104 -3.356087,-3.59515 -4.204188,-3.76469 -1.484211,-0.29667 -6.769498,4.39875 -13.169196,11.69946 -1.677697,1.91391 -3.196272,3.30672 -3.374611,3.09515 -0.178339,-0.21157 -2.636995,-3.55478 -5.463681,-7.42937 l -5.139427,-7.04468 4.175055,-1.86489 c 2.29628,-1.02568 6.371665,-2.82468 9.056411,-3.99779 2.684746,-1.17311 8.285382,-4.85194 12.445859,-8.17518 4.160476,-3.323236 8.146916,-6.042251 8.858757,-6.042251 0.711839,0 1.456965,-0.374472 1.655836,-0.83216 0.19887,-0.457688 3.046328,-2.730831 6.327683,-5.051429 3.281356,-2.320597 8.976684,-7.30696 12.656283,-11.080805 l 6.690178,-6.861539 3.33112,5.133305 c 1.83212,2.823318 4.069,6.086826 4.97084,7.252238 2.32949,3.010303 2.08816,3.578 -1.88571,4.435733 -4.51084,0.973636 -11.530845,4.464322 -14.566219,7.243023 l -2.362829,2.163029 2.201167,4.223036 c 1.210642,2.32266 2.551976,4.22303 2.980742,4.22303 0.428766,0 3.918469,-2.43632 7.754879,-5.41404 3.83643,-2.977714 7.5448,-5.418392 8.24085,-5.423725 0.69604,-0.0053 1.42824,-0.375798 1.62712,-0.823256 0.44185,-0.994162 13.67913,-11.118644 14.53711,-11.118644 0.75516,0 7.15287,-4.706705 12.86718,-9.466214 2.34468,-1.952904 4.83611,-3.550735 5.53652,-3.550735 0.7004,0 2.602,-1.231243 4.22576,-2.736095 1.62377,-1.504852 8.51723,-6.657936 15.31881,-11.451299 6.80159,-4.793362 12.64303,-9.162616 12.98099,-9.709453 0.33796,-0.546838 2.2363,-1.763853 4.21852,-2.70448 1.98224,-0.940627 4.52421,-2.54451 5.64885,-3.564185 2.40818,-2.183431 9.96565,-7.87704 12.51395,-9.427708 3.08189,-1.875365 19.62114,-13.73719 26.41219,-18.942639 3.57967,-2.7438648 7.85262,-5.6673522 9.49546,-6.4966387 2.73167,-1.3789219 3.2132,-1.2952661 5.6338,0.9787695 1.45575,1.3676099 3.47574,4.2333832 4.48886,6.3683852 l 1.84205,3.881822 -3.67924,3.116311 c -2.02357,1.713971 -5.14364,3.881094 -6.93347,4.81583 -1.78983,0.934735 -3.4983,2.016456 -3.79661,2.403824 -0.87792,1.140039 -14.06956,10.925183 -14.72856,10.925183 -0.74579,0 -7.17273,4.732128 -12.85652,9.466214 -2.34468,1.952905 -4.79035,3.550736 -5.43482,3.550736 -0.64447,0 -2.38711,1.120566 -3.87254,2.490147 -1.48543,1.369581 -5.87366,4.706664 -9.75163,7.415741 -15.53094,10.849635 -17.35842,12.250441 -17.4212,13.353773 -0.0359,0.630915 -0.0108,6.05846 0.0568,12.061212 0.11575,10.346586 -0.065,11.277254 -3.47502,17.898304 -3.20455,6.22197 -4.83857,7.89295 -14.97209,15.31074 -6.25622,4.57959 -13.78487,10.19315 -16.73031,12.47458 -2.94545,2.28143 -7.65504,5.61245 -10.46577,7.40228 -5.31122,3.38212 -15.15046,10.18778 -18.86368,13.04776 -1.80293,1.38864 -1.93185,1.98733 -0.81356,3.77799 0.73087,1.17033 1.32886,5.57107 1.32886,9.77943 l 0,7.65156 -6.50847,6.14242 c -6.163537,5.81687 -6.508477,6.41309 -6.508477,11.24978 0,4.37149 -0.480868,5.51198 -3.337465,7.91566 -1.835605,1.54455 -3.767571,2.80828 -4.293256,2.80828 -0.525686,0 -2.300482,-2.31864 -3.943993,-5.15254 -3.728522,-6.42908 -5.423065,-7.78641 -9.77515,-7.82991 -5.807345,-0.058 -8.701619,6.01944 -12.215237,25.64989 -2.342771,13.08897 -4.443451,15.96007 -25.494964,34.84506 -7.987865,7.1658 -7.531862,6.91321 -9.630037,5.33412 l 0,0 z m 74.121199,-87.52054 c 2.53693,-9.13186 -0.3436,-10.21289 -7.35634,-2.76075 -4.965939,5.27709 -5.198069,6.05907 -3.362065,11.32584 l 1.221167,3.50305 4.215977,-4.1168 c 2.318787,-2.26423 4.695351,-5.84234 5.281261,-7.95134 l 0,0 z M 84.674071,115.90508 c 3.628132,-2.83389 7.781864,-5.88474 9.230515,-6.77966 3.282375,-2.02771 3.27493,-2.33058 -0.157601,-6.40991 -2.764019,-3.284849 -2.834011,-3.302342 -6.237288,-1.55899 -1.893045,0.96973 -3.685968,2.07724 -3.984273,2.46114 -0.298305,0.3839 -3.107227,2.55554 -6.242049,4.82588 -3.401593,2.46354 -5.407361,4.63593 -4.974681,5.38793 1.55872,2.70908 4.879494,7.22616 5.312379,7.22616 0.251017,0 3.424866,-2.31865 7.052998,-5.15255 z"
     id="path2987"
     style="fill:#2c2c2c;fill-opacity:1;stroke:none;stroke-width:1.08474575999999989;stroke-miterlimit:4;stroke-opacity:0;stroke-dasharray:4.33898305000000040, 2.16949153000000017, 1.08474575999999989, 2.16949153000000017;stroke-dashoffset:0" />
  <path
     inkscape:connector-curvature="0"
     d="m 48.949602,131.93858 c 0,-0.78343 -0.112994,-1.08474 -0.406779,-1.08474 -0.223729,0 -0.40678,-0.18305 -0.40678,-0.40678 0,-0.22599 -0.241055,-0.40678 -0.542373,-0.40678 -0.451977,0 -0.542373,-0.18079 -0.542373,-1.08475 0,-0.90395 -0.0904,-1.08474 -0.542373,-1.08474 -0.301318,0 -0.542372,-0.1808 -0.542372,-0.40678 0,-0.22373 -0.183051,-0.40678 -0.40678,-0.40678 -0.225989,0 -0.40678,-0.24106 -0.40678,-0.54238 0,-0.36158 -0.180791,-0.54237 -0.542373,-0.54237 -0.439064,0 -0.542373,-0.18079 -0.542373,-0.94915 0,-0.76836 -0.103309,-0.94915 -0.542372,-0.94915 -0.361582,0 -0.542373,-0.1808 -0.542373,-0.54238 0,-0.30132 -0.180791,-0.54237 -0.40678,-0.54237 -0.2841,0 -0.40678,-0.28625 -0.40678,-0.94915 0,-0.76836 -0.103309,-0.94916 -0.542373,-0.94916 -0.361581,0 -0.542372,-0.18079 -0.542372,-0.54237 0,-0.36158 -0.180791,-0.54237 -0.542373,-0.54237 -0.361582,0 -0.542373,-0.18079 -0.542373,-0.54237 0,-0.30132 -0.180791,-0.54238 -0.40678,-0.54238 -0.2841,0 -0.406779,-0.28625 -0.406779,-0.94915 0,-0.76836 -0.10331,-0.94915 -0.542373,-0.94915 -0.301319,0 -0.542373,-0.18079 -0.542373,-0.40678 0,-0.2841 0.286252,-0.40678 0.949152,-0.40678 0.768362,0 0.949153,-0.10331 0.949153,-0.54237 0,-0.30132 0.180791,-0.54238 0.40678,-0.54238 0.2841,0 0.406779,0.28626 0.406779,0.94916 0,0.76836 0.103309,0.94915 0.542373,0.94915 0.361582,0 0.542373,0.18079 0.542373,0.54237 0,0.36158 0.180791,0.54237 0.542373,0.54237 0.361582,0 0.542373,0.18079 0.542373,0.54238 0,0.30131 0.180791,0.54237 0.406779,0.54237 0.2841,0 0.40678,0.28625 0.40678,0.94915 0,0.76836 0.103309,0.94915 0.542373,0.94915 0.361582,0 0.542373,0.1808 0.542373,0.54238 0,0.36158 0.180791,0.54237 0.542373,0.54237 0.439064,0 0.542373,0.18079 0.542373,0.94915 0,0.76836 0.103309,0.94916 0.542372,0.94916 0.361582,0 0.542373,0.18079 0.542373,0.54237 0,0.30132 0.180791,0.54237 0.40678,0.54237 0.223729,0 0.40678,0.18305 0.40678,0.40678 0,0.22599 0.241054,0.40678 0.542373,0.40678 0.451977,0 0.542372,0.18079 0.542372,1.08475 0,0.90395 0.0904,1.08474 0.542373,1.08474 0.361582,0 0.542373,0.18079 0.542373,0.54238 0,0.2983 0.173355,0.54237 0.385233,0.54237 0.211877,0 0.465641,0.3661 0.56392,0.81356 0.09828,0.44745 0.352042,0.81356 0.56392,0.81356 0.211878,0 0.385232,0.24406 0.385232,0.54237 0,0.43906 -0.180791,0.54237 -0.949152,0.54237 -0.768362,0 -0.949153,0.10331 -0.949153,0.54238 0,0.36158 -0.180791,0.54237 -0.542373,0.54237 -0.451977,0 -0.542373,-0.18079 -0.542373,-1.08475 z"
     id="path2989"
     style="fill:#2c2c2c;fill-opacity:1;stroke:#36428a;stroke-width:0.27118643999999997;stroke-miterlimit:4;stroke-opacity:0;stroke-dasharray:1.08474575999999989, 0.54237287999999995, 0.27118643999999997, 0.54237287999999995;stroke-dashoffset:0" />
  <path
     inkscape:connector-curvature="0"
     d="m 114.9835,85.023328 c -0.0983,-0.447458 -0.35204,-0.813559 -0.56392,-0.813559 -0.23012,0 -0.38523,-0.272974 -0.38523,-0.677966 0,-0.497175 -0.14463,-0.677966 -0.54237,-0.677966 -0.30132,0 -0.54238,-0.180791 -0.54238,-0.40678 0,-0.223729 -0.18305,-0.40678 -0.40678,-0.40678 -0.29378,0 -0.40678,-0.301318 -0.40678,-1.084746 0,-0.903954 -0.0904,-1.084745 -0.54237,-1.084745 -0.30132,0 -0.54237,-0.180791 -0.54237,-0.40678 0,-0.225989 -0.24106,-0.40678 -0.54238,-0.40678 -0.36158,0 -0.54237,-0.180791 -0.54237,-0.542373 0,-0.301318 -0.18079,-0.542372 -0.40678,-0.542372 -0.2841,0 -0.40678,-0.286253 -0.40678,-0.949153 0,-0.768361 -0.10331,-0.949152 -0.54237,-0.949152 -0.36158,0 -0.54237,-0.180792 -0.54237,-0.542373 0,-0.361582 -0.18079,-0.542373 -0.54238,-0.542373 -0.43906,0 -0.54237,-0.180791 -0.54237,-0.949153 0,-0.6629 -0.12268,-0.949152 -0.40678,-0.949152 -0.22599,0 -0.40678,-0.241055 -0.40678,-0.542373 0,-0.361582 -0.18079,-0.542373 -0.54237,-0.542373 -0.36158,0 -0.54237,-0.180791 -0.54237,-0.542373 0,-0.361582 -0.1808,-0.542373 -0.54238,-0.542373 -0.43906,0 -0.54237,-0.180791 -0.54237,-0.949152 0,-0.768362 0.10331,-0.949153 0.54237,-0.949153 0.30132,0 0.54238,-0.180791 0.54238,-0.40678 0,-0.223728 0.18305,-0.406779 0.40678,-0.406779 0.22372,0 0.40677,0.183051 0.40677,0.406779 0,0.225989 0.24106,0.40678 0.54238,0.40678 0.36158,0 0.54237,0.180791 0.54237,0.542373 0,0.301318 0.18079,0.542373 0.40678,0.542373 0.22599,0 0.40678,0.241054 0.40678,0.542373 0,0.361582 0.18079,0.542373 0.54237,0.542373 0.43907,0 0.54238,0.180791 0.54238,0.949152 0,0.768362 0.1033,0.949153 0.54237,0.949153 0.36158,0 0.54237,0.180791 0.54237,0.542373 0,0.298305 0.17752,0.542372 0.39449,0.542372 0.23614,0 0.46597,0.380997 0.57256,0.949153 0.10198,0.543613 0.33897,0.949153 0.55466,0.949153 0.20713,0 0.3766,0.244067 0.3766,0.542372 0,0.361582 0.18079,0.542373 0.54237,0.542373 0.30132,0 0.54237,0.180791 0.54237,0.40678 0,0.225989 0.24106,0.40678 0.54238,0.40678 0.45197,0 0.54237,0.180791 0.54237,1.084745 0,0.783428 0.11299,1.084746 0.40678,1.084746 0.22599,0 0.40678,0.241055 0.40678,0.542373 0,0.361582 0.18079,0.542373 0.54237,0.542373 0.42185,0 0.54237,0.180791 0.54237,0.813559 0,0.632769 0.12053,0.81356 0.54238,0.81356 0.45197,0 0.54237,0.180791 0.54237,1.084745 0,0.903955 -0.0904,1.084746 -0.54237,1.084746 -0.30132,0 -0.54238,0.180791 -0.54238,0.40678 0,0.747176 -0.76799,0.418036 -0.94915,-0.40678 z"
     id="path2991"
     style="fill:#2c2c2c;fill-opacity:1;stroke:#36428a;stroke-width:0.27118643999999997;stroke-miterlimit:4;stroke-opacity:0;stroke-dasharray:1.08474575999999989, 0.54237287999999995, 0.27118643999999997, 0.54237287999999995;stroke-dashoffset:0" />
</svg>
