<?xml version="1.0" encoding="UTF-8" standalone="no"?>
<!-- Created with Inkscape (http://www.inkscape.org/) -->

<svg
   xmlns:dc="http://purl.org/dc/elements/1.1/"
   xmlns:cc="http://creativecommons.org/ns#"
   xmlns:rdf="http://www.w3.org/1999/02/22-rdf-syntax-ns#"
   xmlns:svg="http://www.w3.org/2000/svg"
   xmlns="http://www.w3.org/2000/svg"
   xmlns:xlink="http://www.w3.org/1999/xlink"
   xmlns:sodipodi="http://sodipodi.sourceforge.net/DTD/sodipodi-0.dtd"
   xmlns:inkscape="http://www.inkscape.org/namespaces/inkscape"
   width="48"
   height="48"
   id="svg5453"
   version="1.1"
   inkscape:version="0.48.5 r10040"
   sodipodi:docname="system-diagnosis.svg"
   viewBox="0 0 48 48">
  <defs
     id="defs5455">
    <linearGradient
       inkscape:collect="always"
       xlink:href="#linearGradient6049"
       id="linearGradient3211"
       gradientUnits="userSpaceOnUse"
       gradientTransform="matrix(0.47420075,0,0,0.49306825,39.977125,-112.90117)"
       x1="269.2684"
       y1="110.53848"
       x2="289.96112"
       y2="110.53848" />
    <linearGradient
       id="linearGradient6049">
      <stop
         id="stop6051"
         offset="0"
         style="stop-color:#c6c7cc;stop-opacity:1;" />
      <stop
         style="stop-color:#4f4f57;stop-opacity:1;"
         offset="0.32248926"
         id="stop6059" />
      <stop
         style="stop-color:#191d20;stop-opacity:1;"
         offset="0.57248926"
         id="stop6057" />
      <stop
         id="stop6053"
         offset="1"
         style="stop-color:#aab1b9;stop-opacity:1;" />
    </linearGradient>
    <linearGradient
       inkscape:collect="always"
       xlink:href="#linearGradient4181"
       id="linearGradient7251"
       gradientUnits="userSpaceOnUse"
       gradientTransform="matrix(-0.30239018,0.49163046,-0.25323053,-0.15575607,461.6875,114.36203)"
       x1="310.96353"
       y1="296.04688"
       x2="339.58087"
       y2="296.04688" />
    <linearGradient
       id="linearGradient4181">
      <stop
         id="stop4183"
         offset="0"
         style="stop-color:#c7ced5;stop-opacity:1;" />
      <stop
         style="stop-color:#30484c;stop-opacity:1;"
         offset="0.30004832"
         id="stop4191" />
      <stop
         style="stop-color:#d6d6e2;stop-opacity:1;"
         offset="0.55838972"
         id="stop4189" />
      <stop
         id="stop4185"
         offset="1"
         style="stop-color:#92979a;stop-opacity:1;" />
    </linearGradient>
    <filter
       color-interpolation-filters="sRGB"
       id="filter3689"
       inkscape:collect="always">
      <feGaussianBlur
         id="feGaussianBlur3691"
         stdDeviation="0.64943709"
         inkscape:collect="always" />
    </filter>
    <filter
       color-interpolation-filters="sRGB"
       id="filter3730"
       inkscape:collect="always">
      <feGaussianBlur
         id="feGaussianBlur3732"
         stdDeviation="0.19896464"
         inkscape:collect="always" />
    </filter>
    <filter
       color-interpolation-filters="sRGB"
       id="filter3699"
       inkscape:collect="always">
      <feGaussianBlur
         id="feGaussianBlur3701"
         stdDeviation="0.65470181"
         inkscape:collect="always" />
    </filter>
    <linearGradient
       inkscape:collect="always"
       xlink:href="#linearGradient4181"
       id="linearGradient7399"
       gradientUnits="userSpaceOnUse"
       gradientTransform="translate(-40,0)"
       x1="310.96353"
       y1="296.04688"
       x2="339.58087"
       y2="296.04688" />
    <linearGradient
       id="linearGradient3507">
      <stop
         id="stop3509"
         offset="0"
         style="stop-color:#c7ced5;stop-opacity:1;" />
      <stop
         style="stop-color:#30484c;stop-opacity:1;"
         offset="0.30004832"
         id="stop3511" />
      <stop
         style="stop-color:#d6d6e2;stop-opacity:1;"
         offset="0.55838972"
         id="stop3513" />
      <stop
         id="stop3515"
         offset="1"
         style="stop-color:#92979a;stop-opacity:1;" />
    </linearGradient>
  </defs>
  <sodipodi:namedview
     id="base"
     pagecolor="#ffffff"
     bordercolor="#666666"
     borderopacity="1.0"
     inkscape:pageopacity="0"
     inkscape:pageshadow="2"
     inkscape:zoom="9.0113182"
     inkscape:cx="33.234809"
     inkscape:cy="33.45776"
     inkscape:document-units="px"
     inkscape:current-layer="layer1"
     showgrid="false"
     fit-margin-top="0"
     fit-margin-left="0"
     fit-margin-right="0"
     fit-margin-bottom="0"
     inkscape:window-width="1920"
     inkscape:window-height="1035"
     inkscape:window-x="-4"
     inkscape:window-y="29"
     inkscape:window-maximized="1"
     borderlayer="true"
     inkscape:showpageshadow="false">
    <sodipodi:guide
       position="4.0000117,43.999996"
       orientation="39.999969,0"
       id="guide4090" />
    <sodipodi:guide
       position="4.0000117,4.0000264"
       orientation="0,40"
       id="guide4092" />
    <sodipodi:guide
       position="44.000012,4.0000264"
       orientation="-39.999969,0"
       id="guide4094" />
    <sodipodi:guide
       position="44.000012,43.999996"
       orientation="0,-40"
       id="guide4096" />
    <sodipodi:guide
       position="9.0000117,38.999996"
       orientation="29.999969,0"
       id="guide4100" />
    <sodipodi:guide
       position="9.0000117,9.0000264"
       orientation="0,30"
       id="guide4102" />
    <sodipodi:guide
       position="39.000012,9.0000264"
       orientation="-29.999969,0"
       id="guide4104" />
    <sodipodi:guide
       position="39.000012,38.999996"
       orientation="0,-30"
       id="guide4106" />
    <sodipodi:guide
       position="15.000012,33.000026"
       orientation="18,0"
       id="guide4110" />
    <sodipodi:guide
       position="15.000012,15.000026"
       orientation="0,18"
       id="guide4112" />
    <sodipodi:guide
       position="33.000012,15.000026"
       orientation="-18,0"
       id="guide4114" />
    <sodipodi:guide
       position="33.000012,33.000026"
       orientation="0,-18"
       id="guide4116" />
  </sodipodi:namedview>
  <metadata
     id="metadata5458">
    <rdf:RDF>
      <cc:Work
         rdf:about="">
        <dc:format>image/svg+xml</dc:format>
        <dc:type
           rdf:resource="http://purl.org/dc/dcmitype/StillImage" />
        <dc:title />
      </cc:Work>
    </rdf:RDF>
  </metadata>
  <g
     inkscape:label="Capa 1"
     inkscape:groupmode="layer"
     id="layer1"
     transform="translate(-384.57143,-499.798)">
    <g
       transform="matrix(0.1680641,0,0,0.1680641,386.80016,523.79837)"
       id="g3228">
      <path
         inkscape:connector-curvature="0"
         style="fill:#17181a;fill-opacity:1;stroke:none"
         d="m 141.99545,-19.889457 c 0,6.290917 -10.39242,11.3907112 -23.21214,11.3907112 -12.81971,0 -23.212132,-5.0997942 -23.212137,-11.3907112 0,-6.290902 10.392437,-11.390701 23.212137,-11.390701 12.81972,0 23.21214,5.099799 23.21214,11.390701 z"
         id="path6175" />
      <rect
         y="-31.356546"
         x="95.617897"
         height="12.224142"
         width="46.377449"
         id="rect6177"
         style="fill:#17181a;fill-opacity:1;stroke:none" />
      <path
         inkscape:connector-curvature="0"
         style="fill:#dddfdc;fill-opacity:1;stroke:none"
         d="m 143.65515,-33.347382 c 0,4.798118 -11.24165,8.687757 -25.10894,8.687757 -13.86728,0 -25.108936,-3.889639 -25.108941,-8.687757 0,-4.798108 11.241661,-8.687751 25.108941,-8.687751 13.86729,0 25.10894,3.889643 25.10894,8.687751 z"
         id="path6222" />
      <rect
         y="-42.093391"
         x="93.487801"
         height="9.3234196"
         width="50.167229"
         id="rect6224"
         style="fill:#dddfdc;fill-opacity:1;stroke:none" />
      <path
         inkscape:connector-curvature="0"
         style="fill:#e3e5e4;fill-opacity:1;stroke:none"
         d="m 143.65515,-41.943795 c -1e-5,4.798108 -11.24165,8.687756 -25.10894,8.687756 -13.86728,0 -25.108936,-3.889648 -25.108941,-8.687756 5e-6,-4.798113 11.241661,-8.687752 25.108941,-8.687752 13.86729,0 25.10893,3.889639 25.10894,8.687752 z"
         id="path6226" />
      <path
         transform="matrix(0.51427403,0,0,0.51548786,29.904627,-160.63761)"
         d="m 183.31219,535.79047 c 0,3.68997 -3.9814,6.68129 -8.89271,6.68129 -4.91131,0 -8.89271,-2.99132 -8.89271,-6.68129 0,-3.68998 3.9814,-6.6813 8.89271,-6.6813 4.91131,0 8.89271,2.99132 8.89271,6.6813 z"
         sodipodi:ry="6.6812963"
         sodipodi:rx="8.8927116"
         sodipodi:cy="535.79047"
         sodipodi:cx="174.41948"
         id="path2830"
         style="fill:#1a1a1a;fill-opacity:1;stroke:none"
         sodipodi:type="arc" />
      <path
         sodipodi:type="arc"
         style="fill:#1a1a1a;fill-opacity:1;stroke:none"
         id="path2832"
         sodipodi:cx="174.41948"
         sodipodi:cy="535.79047"
         sodipodi:rx="8.8927116"
         sodipodi:ry="6.6812963"
         d="m 183.31219,535.79047 c 0,3.68997 -3.9814,6.68129 -8.89271,6.68129 -4.91131,0 -8.89271,-2.99132 -8.89271,-6.68129 0,-3.68998 3.9814,-6.6813 8.89271,-6.6813 4.91131,0 8.89271,2.99132 8.89271,6.6813 z"
         transform="matrix(0.29685409,-0.14586712,0.14552365,0.29755474,70.442389,-60.384785)" />
      <g
         transform="matrix(0.47420075,0,0,0.47531999,36.89482,-139.33968)"
         id="g3780">
        <path
           style="fill:#c1c2c4;fill-opacity:1;stroke:none"
           d="m 177.28962,535.69638 181.43014,-97.49047 0,-65.49553 -167.50293,83.56326 c 0,0 -10.41171,32.68593 -13.5508,49.68626 -1.79999,9.74816 -0.37641,29.73648 -0.37641,29.73648 z"
           id="path2828"
           sodipodi:nodetypes="ccccsc"
           inkscape:connector-curvature="0" />
        <path
           sodipodi:nodetypes="ccccsc"
           id="path2834"
           d="m 177.28962,535.69638 c -4.37257,2.98727 -97.59048,-24.1816 -114.617176,-72.45913 -0.110157,-30.24141 6.964095,-51.53638 14.491827,-71.1417 40.180699,48.07194 76.711509,51.12847 114.052559,64.17809 0,0 -10.41171,32.68593 -13.5508,49.68626 -1.79999,9.74816 -0.37641,29.73648 -0.37641,29.73648 z"
           style="fill:#e1e3e2;fill-opacity:1;stroke:none"
           inkscape:connector-curvature="0" />
      </g>
      <path
         inkscape:connector-curvature="0"
         sodipodi:nodetypes="ccccc"
         id="path2836"
         d="M 206.99952,37.820993 127.57089,77.539919 C 109.86374,71.337174 92.53609,69.879871 73.482372,47.030317 83.050737,40.720159 126.75224,23.769193 153.54806,12.864335 c 18.03491,8.144266 37.53982,15.109767 53.45146,24.956658 z"
         style="fill:#e7e9e8;fill-opacity:1;stroke:none" />
      <path
         style="fill:#e6e8e5;fill-opacity:1;stroke:none"
         d="m 146.30963,-50.999139 23.31251,-5.888483 c 0,0 6.16726,-0.184111 9.02841,0.787353 5.14282,1.746174 4.5235,4.589909 4.5235,4.589909 l -25.98235,8.353325 -10.88207,-7.842104 z"
         id="path5515"
         sodipodi:nodetypes="ccsccc"
         inkscape:connector-curvature="0" />
      <path
         inkscape:connector-curvature="0"
         sodipodi:nodetypes="ccsccc"
         id="path6013"
         d="m 167.66688,-65.000656 c -0.0146,3.838937 0.0421,7.678719 0,11.517223 0,0.932539 2.18802,1.687761 4.90501,1.687761 2.717,0 4.90502,-0.755222 4.90502,-1.687761 l 0,-11.517223 -9.81003,0 z"
         style="fill:url(#linearGradient3211);fill-opacity:1;stroke:none" />
      <g
         transform="matrix(0.50216887,0,0,0.50335413,16.088551,-140.06263)"
         id="g6078">
        <path
           inkscape:connector-curvature="0"
           id="path6017"
           d="m 322.73298,147.77019 c 0,3.13761 -4.74439,5.68115 -10.59691,5.68115 -5.85251,0 -10.59691,-2.54354 -10.59691,-5.68115 0,-3.13761 4.7444,-5.68114 10.59691,-5.68114 5.85252,0 10.59691,2.54353 10.59691,5.68114 z"
           style="fill:#35393c;fill-opacity:1;stroke:none" />
        <rect
           style="fill:#35393c;fill-opacity:1;stroke:none"
           id="rect6019"
           width="21.17244"
           height="5.2305202"
           x="301.56049"
           y="142.91727" />
        <path
           inkscape:connector-curvature="0"
           id="path6021"
           d="m 322.73298,142.72637 c 0,3.13761 -4.74439,5.68115 -10.59691,5.68115 -5.85251,0 -10.59691,-2.54354 -10.59691,-5.68115 0,-3.13761 4.7444,-5.68114 10.59691,-5.68114 5.85252,0 10.59691,2.54353 10.59691,5.68114 z"
           style="fill:#c9cdd0;fill-opacity:1;stroke:none" />
      </g>
      <path
         inkscape:connector-curvature="0"
         sodipodi:nodetypes="ccccc"
         id="path4491"
         d="m 166.25525,-8.7413822 15.57756,-5.5456868 1.34124,-37.223292 -15.91287,5.105165 -1.00593,37.6638138 z"
         style="fill:#989ba2;fill-opacity:1;stroke:none" />
      <g
         transform="matrix(0.47420075,0,0,0.47531999,36.89482,-139.33968)"
         id="g5484">
        <path
           sodipodi:type="arc"
           style="fill:#4c535d;fill-opacity:1;stroke:none"
           id="path4886"
           sodipodi:cx="285.3176"
           sodipodi:cy="224.81927"
           sodipodi:rx="7.2478447"
           sodipodi:ry="7.5130091"
           d="m 292.56544,224.81927 c 0,4.14933 -3.24497,7.51301 -7.24784,7.51301 -4.00288,0 -7.24785,-3.36368 -7.24785,-7.51301 0,-4.14932 3.24497,-7.513 7.24785,-7.513 4.00287,0 7.24784,3.36368 7.24784,7.513 z"
           transform="matrix(0.99809221,0,0,1.1158066,-0.51633494,-27.096219)" />
        <path
           inkscape:connector-curvature="0"
           style="fill:url(#linearGradient7251);fill-opacity:1;stroke:none"
           d="m 300.87549,226.33953 c -4.79662,-2.97114 -9.63978,-5.86903 -14.41831,-8.86837 -1.16744,-0.71806 -3.50816,0.96885 -5.24075,3.78571 -1.73257,2.81686 -2.18239,5.66683 -1.01495,6.38489 l 14.41832,8.86836 6.25569,-10.17059 z"
           id="path4874"
           sodipodi:nodetypes="ccsccc" />
        <g
           id="g5477"
           transform="matrix(-0.45562092,0.94620675,-1.0327449,-0.4066395,727.16266,-11.401621)">
          <path
             inkscape:connector-curvature="0"
             style="fill:#191d20;fill-opacity:1;stroke:none"
             d="m 389.78193,250.38342 c 0,7.26388 -11.66722,13.15242 -26.05949,13.15242 -14.39226,0 -26.0595,-5.88854 -26.0595,-13.15242 0,-7.26386 11.66724,-13.15239 26.0595,-13.15239 14.39227,0 26.05949,5.88853 26.05949,13.15239 z"
             id="path5217" />
          <rect
             y="241.27505"
             x="337.71539"
             height="9.9825153"
             width="52.066425"
             id="rect5219"
             style="fill:#191d20;fill-opacity:1;stroke:none" />
          <path
             inkscape:connector-curvature="0"
             style="fill:#3c3f46;fill-opacity:1;stroke:none"
             d="m 389.78193,241.5763 c 0,7.26387 -11.66722,13.15241 -26.05949,13.15241 -14.39226,0 -26.0595,-5.88854 -26.0595,-13.15241 0,-7.26386 11.66724,-13.1524 26.0595,-13.1524 14.39227,0 26.05949,5.88854 26.05949,13.1524 z"
             id="path5221" />
          <path
             inkscape:connector-curvature="0"
             id="path5482"
             d="m 381.96408,241.5763 c 0,5.08471 -8.16705,9.20669 -18.24164,9.20669 -10.07458,0 -18.24165,-4.12198 -18.24165,-9.20669 0,-5.0847 8.16707,-9.20668 18.24165,-9.20668 10.07459,0 18.24164,4.12198 18.24164,9.20668 z"
             style="fill:#a09fad;fill-opacity:1;stroke:none" />
        </g>
      </g>
      <path
         inkscape:connector-curvature="0"
         style="fill:#989ba2;fill-opacity:1;stroke:none"
         d="m 166.25525,-8.7413822 -6.21762,2.6047868 0.40873,-21.0016146 -18.43168,-11.600275 25.36505,-7.785541 -1.12448,37.7826438 z"
         id="path6090"
         sodipodi:nodetypes="cccccc" />
      <path
         inkscape:connector-curvature="0"
         sodipodi:nodetypes="cccccc"
         id="path6092"
         d="m 146.63958,-10.673967 13.39805,4.5373716 0.40873,-21.0016146 -18.43168,-11.600275 4.61474,7.176966 0.0101,20.887552 z"
         style="fill:#444b55;fill-opacity:1;stroke:none" />
      <path
         sodipodi:nodetypes="ccccc"
         id="path6094"
         d="m 119.29739,-31.512294 38.47689,-11.679543 0.16765,-10.083058 -17.18467,-9.410856 -21.45987,31.173457 z"
         style="fill:#aaabaf;fill-opacity:1;stroke:none"
         inkscape:connector-curvature="0" />
      <path
         style="fill:#e9e9e7;fill-opacity:1;stroke:none"
         d="m 119.29739,-31.512294 c -11.65437,-2.428628 -23.821033,-7.121054 -35.291437,-14.87251 3.183035,-9.83303 13.220883,-20.974526 19.448017,-26.720109 l 37.30329,10.419162 -21.45987,31.173457 z"
         id="path6096"
         sodipodi:nodetypes="ccccc"
         inkscape:connector-curvature="0" />
      <g
         id="g6142"
         transform="matrix(0.47420075,0,0,0.47531999,-33.816225,-118.2608)">
        <path
           inkscape:connector-curvature="0"
           id="path6144"
           d="m 322.46211,76.330134 c 9.35864,9.358643 2.79408,31.096556 -14.66237,48.553006 -17.45644,17.45644 -39.19436,24.02101 -48.55301,14.66237 -9.35862,-9.35862 -2.79405,-31.09656 14.66239,-48.552994 17.45645,-17.456451 39.19437,-24.021004 48.55299,-14.662382 z"
           style="fill:#97989d;fill-opacity:1;stroke:none" />
        <rect
           transform="matrix(0.70710678,-0.70710678,0.70710678,0.70710678,0,0)"
           style="fill:#97989d;fill-opacity:1;stroke:none"
           id="rect6146"
           width="89.309875"
           height="55.416214"
           x="84.731499"
           y="228.16522" />
        <path
           inkscape:connector-curvature="0"
           id="path6148"
           d="m 284.48175,38.349774 c 9.35863,9.358636 2.79408,31.096555 -14.66237,48.553006 -17.45644,17.45644 -39.19437,24.021 -48.55301,14.66237 -9.35862,-9.358625 -2.79405,-31.096555 14.66239,-48.552992 17.45645,-17.456451 39.19436,-24.021008 48.55299,-14.662384 z"
           style="fill:#e3e5e4;fill-opacity:1;stroke:none" />
      </g>
      <g
         id="g6150"
         transform="matrix(0.33531057,-0.33610199,0.33531057,0.33610199,9.8491253,-18.95155)">
        <path
           inkscape:connector-curvature="0"
           style="fill:#141519;fill-opacity:1;stroke:none"
           d="m 236.15859,13.180565 c -1e-5,7.686376 -11.6226,13.917414 -25.95982,13.917414 -14.3372,0 -25.95981,-6.231037 -25.95981,-13.917416 0,-7.6863582 11.62261,-13.91740299 25.95981,-13.91740053 14.33722,-4.1e-7 25.95982,6.23104323 25.95982,13.91740253 z"
           id="path6152" />
        <rect
           y="-57.577751"
           x="184.2912"
           height="71.683304"
           width="51.86726"
           id="rect6154"
           style="fill:#141519;fill-opacity:1;stroke:none" />
        <path
           inkscape:connector-curvature="0"
           style="fill:#4d4d4d;fill-opacity:1;stroke:none"
           d="m 236.15859,-58.013208 c -1e-5,7.68637 -11.6226,13.917414 -25.95982,13.917415 -14.3372,0 -25.95981,-6.231045 -25.95981,-13.917416 0,-7.686361 11.62261,-13.917401 25.95981,-13.9174 14.33722,-10e-7 25.95981,6.231037 25.95982,13.917401 z"
           id="path6156" />
      </g>
      <g
         transform="matrix(0.47420075,0,0,0.47531999,-11.054589,-108.7544)"
         id="g6109">
        <path
           inkscape:connector-curvature="0"
           style="fill:#97989d;fill-opacity:1;stroke:none"
           d="m 322.46211,76.330134 c 9.35864,9.358643 2.79408,31.096556 -14.66237,48.553006 -17.45644,17.45644 -39.19436,24.02101 -48.55301,14.66237 -9.35862,-9.35862 -2.79405,-31.09656 14.66239,-48.552994 17.45645,-17.456451 39.19437,-24.021004 48.55299,-14.662382 z"
           id="path5763" />
        <rect
           y="228.16522"
           x="84.731499"
           height="55.416214"
           width="89.309875"
           id="rect5765"
           style="fill:#97989d;fill-opacity:1;stroke:none"
           transform="matrix(0.70710678,-0.70710678,0.70710678,0.70710678,0,0)" />
        <path
           inkscape:connector-curvature="0"
           style="fill:#e3e5e4;fill-opacity:1;stroke:none"
           d="m 284.48175,38.349774 c 9.35863,9.358636 2.79408,31.096555 -14.66237,48.553006 -17.45644,17.45644 -39.19437,24.021 -48.55301,14.66237 -9.35862,-9.358625 -2.79405,-31.096555 14.66239,-48.552992 17.45645,-17.456451 39.19436,-24.021008 48.55299,-14.662384 z"
           id="path5767" />
      </g>
      <g
         transform="matrix(0.33531057,-0.33610199,0.33531057,0.33610199,32.610761,-9.4451502)"
         id="g6125">
        <path
           inkscape:connector-curvature="0"
           id="path6116"
           d="m 236.15859,13.180565 c -1e-5,7.686376 -11.6226,13.917414 -25.95982,13.917414 -14.3372,0 -25.95981,-6.231037 -25.95981,-13.917416 0,-7.6863582 11.62261,-13.91740299 25.95981,-13.91740053 14.33722,-4.1e-7 25.95982,6.23104323 25.95982,13.91740253 z"
           style="fill:#141519;fill-opacity:1;stroke:none" />
        <rect
           style="fill:#141519;fill-opacity:1;stroke:none"
           id="rect6118"
           width="51.86726"
           height="71.683304"
           x="184.2912"
           y="-57.577751" />
        <path
           inkscape:connector-curvature="0"
           id="path6120"
           d="m 236.15859,-58.013208 c -1e-5,7.68637 -11.6226,13.917414 -25.95982,13.917415 -14.3372,0 -25.95981,-6.231045 -25.95981,-13.917416 0,-7.686361 11.62261,-13.917401 25.95981,-13.9174 14.33722,-10e-7 25.95981,6.231037 25.95982,13.917401 z"
           style="fill:#4d4d4d;fill-opacity:1;stroke:none" />
      </g>
      <path
         sodipodi:nodetypes="cscccc"
         id="path6238"
         d="m 142.14364,-19.295306 c -1.06695,5.756183 -10.54061,10.5444848 -23.36033,10.5444848 -12.81971,0 -21.789529,-4.6397648 -23.212136,-10.6336068 l 5.167156,22.7782987 c 9.75786,9.5540363 28.06219,8.4043843 36.83225,0.3945632 l 4.57306,-23.0837399 z"
         style="fill:#1f2326;fill-opacity:1;stroke:none"
         inkscape:connector-curvature="0" />
      <path
         inkscape:connector-curvature="0"
         id="path3044"
         d="m 100.48182,40.046786 c -12.40742,7.07776 -12.113168,18.062379 0.65723,24.534835 12.7704,6.472459 33.1811,5.98179 45.58851,-1.095966 12.4074,-7.077754 12.1131,-18.062397 -0.6573,-24.534858 -12.77038,-6.472463 -33.18102,-5.981765 -45.58844,1.095989 z m 2.25891,2.214354 c 1.98465,0.186899 3.89729,0.621866 5.85455,0.90516 2.48499,0.886727 3.91689,-0.864792 6.16748,-1.341031 0.0303,-1.454702 -0.19833,-2.923547 -5e-5,-4.366493 1.77395,-0.376625 3.69993,-0.67252 5.56205,-0.867957 1.1023,0.88945 1.83479,1.933299 2.80028,2.884631 0.47382,1.46334 3.30099,0.952572 5.35949,1.33964 l 4.77723,-2.725151 c 0.76674,-0.78736 2.03806,-0.610977 3.08121,-0.140019 0.97257,0.408894 2.66463,0.544491 3.09401,1.166347 -1.86762,1.646829 -3.72454,3.294644 -5.59212,4.941477 -7.58327,-3.226384 -20.38147,-1.408058 -25.06622,3.875222 0.0236,-0.0054 -2.31624,-0.738284 -3.46544,-1.106452 -1.79269,-0.635612 -3.90794,-1.110109 -5.495674,-1.851821 0.802884,-0.931787 1.821834,-1.875325 2.923204,-2.713553 z m -5.992438,9.122784 c 3.546498,-0.176429 7.092458,-0.358374 10.643858,-0.537604 -1.60513,5.575457 7.99304,10.726194 17.59781,9.811356 l 0.006,-0.0027 c 0.0187,-0.09645 0.21415,1.842127 0.32463,2.764334 0.12613,1.076638 0.4682,2.048407 0.1696,3.004808 -1.87822,0.139996 -3.87039,0.1842 -5.74308,0.13807 -0.68062,-1.016912 -0.9189,-2.137545 -1.42758,-3.193336 0.18895,-1.631432 -3.29643,-1.331263 -5.15174,-2.10884 -2.32735,0.783844 -4.54442,1.697708 -6.93544,2.39943 -1.46317,-0.608247 -2.89022,-1.335725 -4.10973,-2.082956 0.87293,-0.998648 2.16317,-1.908487 3.19745,-2.869984 2.09947,-1.025333 -0.10602,-2.046663 -0.50346,-3.203566 -2.21789,-0.236902 -4.43883,-0.472164 -6.65672,-0.709065 -1.627837,0.07794 -1.974597,-0.606597 -1.740139,-1.348735 0.176877,-0.671578 -0.448456,-1.520364 0.329045,-2.060789 z m 41.141718,-4.95098 c 1.51289,-0.556171 3.02523,-1.115022 4.53801,-1.67649 1.60766,-0.518656 3.0879,-1.288028 4.7782,-1.649305 1.10523,0.801661 2.10984,1.70963 2.921,2.609016 -1.32323,0.851783 -2.98624,1.568819 -4.46404,2.358024 -2.70787,0.774728 -0.59443,2.240073 -0.96948,3.514676 2.35158,0.672124 4.86445,1.234304 7.11402,1.98075 -0.29747,1.004168 -0.79348,2.051133 -1.42284,3.013102 -2.01195,0.12474 -4.09021,-0.0026 -6.11924,0.02425 -2.63748,-0.439045 -3.25703,1.132257 -4.93216,1.931679 0.66422,1.1609 1.33349,2.32144 1.99776,3.482342 0.89096,0.719285 -0.0492,1.239889 -1.35128,1.524939 -1.16399,0.271009 -2.24605,1.015887 -3.47751,0.937732 -1.80521,-1.592177 -3.60652,-3.177346 -5.40673,-4.766976 9.38233,-2.277123 13.16574,-9.381148 6.79421,-13.283771 z"
         style="fill:#000000;fill-opacity:1;stroke:none" />
      <g
         transform="matrix(0.47420075,0,0,0.47531999,36.89482,-139.33968)"
         id="g5780">
        <g
           id="g3877">
          <g
             id="g3661">
            <path
               inkscape:connector-curvature="0"
               style="fill:#000000;stroke:none"
               d="m 338.25241,374.49833 -15.53248,8.88843 -9.20578,-5.31496 15.34297,-8.85826 9.39529,5.28479 z"
               id="path2847" />
            <g
               style="stroke-width:0.30000001;stroke-miterlimit:4;stroke-dasharray:none"
               id="g3632">
              <path
                 inkscape:connector-curvature="0"
                 style="fill:#333333;stroke:#000000;stroke-width:0.30000001;stroke-linecap:butt;stroke-linejoin:miter;stroke-miterlimit:4;stroke-opacity:1;stroke-dasharray:none"
                 d="m 335.21235,375.031 -12.02199,6.67375 -7.12518,-3.99066 11.8753,-6.6511 7.27187,3.96801 z"
                 id="path2849" />
              <path
                 inkscape:connector-curvature="0"
                 sodipodi:nodetypes="ccccccccc"
                 id="path3625"
                 d="m 319.99174,373.32999 -3.94219,4.37569 7.20261,3.94855 3.82903,-4.84161 -7.08945,-3.48263 z m 3.26042,8.32424 8.15599,-4.51401 -4.33116,-0.31505 -3.82483,4.82906 z"
                 style="fill:#333333;stroke:#000000;stroke-width:0.30000001;stroke-linecap:butt;stroke-linejoin:miter;stroke-miterlimit:4;stroke-opacity:1;stroke-dasharray:none" />
              <path
                 inkscape:connector-curvature="0"
                 style="fill:#333333;stroke:#000000;stroke-width:0.30000001;stroke-linecap:butt;stroke-linejoin:miter;stroke-miterlimit:4;stroke-opacity:1;stroke-dasharray:none"
                 d="m 323.2855,373.62942 -3.3021,-0.30749 7.09485,3.47482 4.30313,0.35689 -8.09588,-3.52422 z"
                 id="path3630"
                 sodipodi:nodetypes="ccccc" />
            </g>
          </g>
          <g
             id="g3673">
            <path
               inkscape:connector-curvature="0"
               id="path3646"
               d="m 251.31307,331.61705 -15.53248,8.88843 -9.20578,-5.31496 15.34297,-8.85826 9.39529,5.28479 z"
               style="fill:#000000;stroke:none" />
            <g
               id="g3648"
               transform="translate(-86.93934,-42.881282)"
               style="stroke-width:0.30000001;stroke-miterlimit:4;stroke-dasharray:none">
              <path
                 inkscape:connector-curvature="0"
                 id="path3650"
                 d="m 335.21235,375.031 -12.02199,6.67375 -7.12518,-3.99066 11.8753,-6.6511 7.27187,3.96801 z"
                 style="fill:#333333;stroke:#000000;stroke-width:0.30000001;stroke-linecap:butt;stroke-linejoin:miter;stroke-miterlimit:4;stroke-opacity:1;stroke-dasharray:none" />
              <path
                 inkscape:connector-curvature="0"
                 style="fill:#333333;stroke:#000000;stroke-width:0.30000001;stroke-linecap:butt;stroke-linejoin:miter;stroke-miterlimit:4;stroke-opacity:1;stroke-dasharray:none"
                 d="m 319.99174,373.32999 -3.94219,4.37569 7.20261,3.94855 3.82903,-4.84161 -7.08945,-3.48263 z m 3.26042,8.32424 8.15599,-4.51401 -4.33116,-0.31505 -3.82483,4.82906 z"
                 id="path3652"
                 sodipodi:nodetypes="ccccccccc" />
              <path
                 inkscape:connector-curvature="0"
                 sodipodi:nodetypes="ccccc"
                 id="path3654"
                 d="m 323.2855,373.62942 -3.3021,-0.30749 7.09485,3.47482 4.30313,0.35689 -8.09588,-3.52422 z"
                 style="fill:#333333;stroke:#000000;stroke-width:0.30000001;stroke-linecap:butt;stroke-linejoin:miter;stroke-miterlimit:4;stroke-opacity:1;stroke-dasharray:none" />
            </g>
          </g>
          <g
             id="g3847">
            <g
               id="g3819">
              <g
                 id="g3805">
                <g
                   id="g3693">
                  <path
                     inkscape:connector-curvature="0"
                     style="fill:#000000;fill-opacity:1;stroke:none;filter:url(#filter3689)"
                     d="m 132.13227,386.86773 78.26736,-39.93705 5.62981,5.77651 -80.91901,38.87638 c -2.81998,1.35486 -5.70173,-3.3261 -2.97816,-4.71584 z"
                     id="path3687"
                     sodipodi:nodetypes="cccss" />
                  <path
                     inkscape:connector-curvature="0"
                     sodipodi:nodetypes="cccss"
                     id="rect3682"
                     d="m 132.13227,384.86773 78.26736,-39.93705 5.62981,5.77651 -80.91901,38.87638 c -2.81998,1.35486 -5.70173,-3.3261 -2.97816,-4.71584 z"
                     style="fill:#aeb0af;fill-opacity:1;stroke:none" />
                </g>
                <g
                   id="g3734"
                   transform="matrix(1,0,0,0.74471453,-0.88388348,89.796657)">
                  <g
                     id="g3718"
                     transform="translate(-0.0441937,-3.6074553)"
                     style="fill:#000000;fill-opacity:1;filter:url(#filter3730)">
                    <rect
                       y="342.62976"
                       x="206.47528"
                       height="11.22532"
                       width="10.518"
                       id="rect3720"
                       style="fill:#000000;fill-opacity:1;stroke:none" />
                    <path
                       d="m 216.99339,342.9061 c 0,1.46446 -2.35458,2.65165 -5.25911,2.65165 -2.90452,0 -5.2591,-1.18719 -5.2591,-2.65165 0,-1.46447 2.35458,-2.65165 5.2591,-2.65165 2.90453,0 5.25911,1.18718 5.25911,2.65165 z"
                       sodipodi:ry="2.6516504"
                       sodipodi:rx="5.2591066"
                       sodipodi:cy="342.9061"
                       sodipodi:cx="211.73428"
                       id="path3722"
                       style="fill:#000000;fill-opacity:1;stroke:none"
                       sodipodi:type="arc" />
                    <path
                       transform="translate(0,10.707104)"
                       sodipodi:type="arc"
                       style="fill:#000000;fill-opacity:1;stroke:none"
                       id="path3724"
                       sodipodi:cx="211.73428"
                       sodipodi:cy="342.9061"
                       sodipodi:rx="5.2591066"
                       sodipodi:ry="2.6516504"
                       d="m 216.99339,342.9061 c 0,1.46446 -2.35458,2.65165 -5.25911,2.65165 -2.90452,0 -5.2591,-1.18719 -5.2591,-2.65165 0,-1.46447 2.35458,-2.65165 5.2591,-2.65165 2.90453,0 5.25911,1.18718 5.25911,2.65165 z" />
                  </g>
                  <g
                     style="fill:#676769;fill-opacity:1"
                     transform="translate(-0.71836859,-3.9280776)"
                     id="g3713">
                    <rect
                       style="fill:#676769;fill-opacity:1;stroke:none"
                       id="rect3709"
                       width="10.518"
                       height="11.22532"
                       x="206.47528"
                       y="342.62976" />
                    <path
                       sodipodi:type="arc"
                       style="fill:#676769;fill-opacity:1;stroke:none"
                       id="path3707"
                       sodipodi:cx="211.73428"
                       sodipodi:cy="342.9061"
                       sodipodi:rx="5.2591066"
                       sodipodi:ry="2.6516504"
                       d="m 216.99339,342.9061 c 0,1.46446 -2.35458,2.65165 -5.25911,2.65165 -2.90452,0 -5.2591,-1.18719 -5.2591,-2.65165 0,-1.46447 2.35458,-2.65165 5.2591,-2.65165 2.90453,0 5.25911,1.18718 5.25911,2.65165 z" />
                    <path
                       d="m 216.99339,342.9061 c 0,1.46446 -2.35458,2.65165 -5.25911,2.65165 -2.90452,0 -5.2591,-1.18719 -5.2591,-2.65165 0,-1.46447 2.35458,-2.65165 5.2591,-2.65165 2.90453,0 5.25911,1.18718 5.25911,2.65165 z"
                       sodipodi:ry="2.6516504"
                       sodipodi:rx="5.2591066"
                       sodipodi:cy="342.9061"
                       sodipodi:cx="211.73428"
                       id="path3711"
                       style="fill:#676769;fill-opacity:1;stroke:none"
                       sodipodi:type="arc"
                       transform="translate(0,10.707104)" />
                  </g>
                </g>
              </g>
              <g
                 id="g3791">
                <g
                   id="g3703">
                  <path
                     inkscape:connector-curvature="0"
                     sodipodi:nodetypes="cccss"
                     id="path3697"
                     d="m 201.42873,423.63728 76.14604,-42.05836 6.69048,6.83716 -79.85835,39.93704 c -2.79817,1.39936 -5.65468,-3.2375 -2.97817,-4.71584 z"
                     style="fill:#000000;fill-opacity:1;stroke:none;filter:url(#filter3699)" />
                  <path
                     inkscape:connector-curvature="0"
                     style="fill:#b4b5b9;fill-opacity:1;stroke:none"
                     d="m 201.42873,421.63728 76.14604,-42.05836 6.69048,6.83716 -79.85835,39.93704 c -2.79817,1.39936 -5.65468,-3.2375 -2.97817,-4.71584 z"
                     id="path3685"
                     sodipodi:nodetypes="cccss" />
                </g>
                <g
                   transform="matrix(1,0,0,0.74471453,67.882251,124.62167)"
                   id="g3762">
                  <g
                     style="fill:#000000;fill-opacity:1;filter:url(#filter3730)"
                     transform="translate(-0.0441937,-3.6074553)"
                     id="g3764">
                    <rect
                       style="fill:#000000;fill-opacity:1;stroke:none"
                       id="rect3766"
                       width="10.518"
                       height="11.22532"
                       x="206.47528"
                       y="342.62976" />
                    <path
                       sodipodi:type="arc"
                       style="fill:#000000;fill-opacity:1;stroke:none"
                       id="path3768"
                       sodipodi:cx="211.73428"
                       sodipodi:cy="342.9061"
                       sodipodi:rx="5.2591066"
                       sodipodi:ry="2.6516504"
                       d="m 216.99339,342.9061 c 0,1.46446 -2.35458,2.65165 -5.25911,2.65165 -2.90452,0 -5.2591,-1.18719 -5.2591,-2.65165 0,-1.46447 2.35458,-2.65165 5.2591,-2.65165 2.90453,0 5.25911,1.18718 5.25911,2.65165 z" />
                    <path
                       d="m 216.99339,342.9061 c 0,1.46446 -2.35458,2.65165 -5.25911,2.65165 -2.90452,0 -5.2591,-1.18719 -5.2591,-2.65165 0,-1.46447 2.35458,-2.65165 5.2591,-2.65165 2.90453,0 5.25911,1.18718 5.25911,2.65165 z"
                       sodipodi:ry="2.6516504"
                       sodipodi:rx="5.2591066"
                       sodipodi:cy="342.9061"
                       sodipodi:cx="211.73428"
                       id="path3770"
                       style="fill:#000000;fill-opacity:1;stroke:none"
                       sodipodi:type="arc"
                       transform="translate(0,10.707104)" />
                  </g>
                  <g
                     id="g3772"
                     transform="translate(-0.71836859,-3.9280776)"
                     style="fill:#676769;fill-opacity:1">
                    <rect
                       y="342.62976"
                       x="206.47528"
                       height="11.22532"
                       width="10.518"
                       id="rect3774"
                       style="fill:#676769;fill-opacity:1;stroke:none" />
                    <path
                       d="m 216.99339,342.9061 c 0,1.46446 -2.35458,2.65165 -5.25911,2.65165 -2.90452,0 -5.2591,-1.18719 -5.2591,-2.65165 0,-1.46447 2.35458,-2.65165 5.2591,-2.65165 2.90453,0 5.25911,1.18718 5.25911,2.65165 z"
                       sodipodi:ry="2.6516504"
                       sodipodi:rx="5.2591066"
                       sodipodi:cy="342.9061"
                       sodipodi:cx="211.73428"
                       id="path3776"
                       style="fill:#676769;fill-opacity:1;stroke:none"
                       sodipodi:type="arc" />
                    <path
                       transform="translate(0,10.707104)"
                       sodipodi:type="arc"
                       style="fill:#676769;fill-opacity:1;stroke:none"
                       id="path3778"
                       sodipodi:cx="211.73428"
                       sodipodi:cy="342.9061"
                       sodipodi:rx="5.2591066"
                       sodipodi:ry="2.6516504"
                       d="m 216.99339,342.9061 c 0,1.46446 -2.35458,2.65165 -5.25911,2.65165 -2.90452,0 -5.2591,-1.18719 -5.2591,-2.65165 0,-1.46447 2.35458,-2.65165 5.2591,-2.65165 2.90453,0 5.25911,1.18718 5.25911,2.65165 z" />
                  </g>
                </g>
              </g>
            </g>
          </g>
        </g>
        <g
           id="g5769">
          <g
             id="g4160">
            <path
               inkscape:connector-curvature="0"
               style="fill:#acacac;fill-opacity:1;stroke:none"
               d="m 306.03193,353.88342 c 0,7.26388 -11.66722,13.15242 -26.05949,13.15242 -14.39226,0 -26.0595,-5.88854 -26.0595,-13.15242 0,-7.26386 11.66724,-13.15239 26.0595,-13.15239 14.39227,0 26.05949,5.88853 26.05949,13.15239 z"
               id="path4143" />
            <rect
               y="337.15005"
               x="253.96539"
               height="17.607515"
               width="52.066425"
               id="rect4145"
               style="fill:#acacac;fill-opacity:1;stroke:none" />
            <path
               inkscape:connector-curvature="0"
               style="fill:#d1d0d7;fill-opacity:1;stroke:none"
               d="m 306.03193,337.5763 c 0,7.26387 -11.66722,13.15241 -26.05949,13.15241 -14.39226,0 -26.0595,-5.88854 -26.0595,-13.15241 0,-7.26386 11.66724,-13.1524 26.0595,-13.1524 14.39227,0 26.05949,5.88854 26.05949,13.1524 z"
               id="path4147" />
          </g>
          <g
             id="g3990">
            <path
               inkscape:connector-curvature="0"
               id="path3945"
               d="m 296.36732,335.35387 c 0,4.61018 -6.97107,8.34747 -15.57033,8.34747 -8.59925,0 -15.57033,-3.73729 -15.57033,-8.34747 0,-4.61017 6.97108,-8.34746 15.57033,-8.34746 8.59926,0 15.57033,3.73729 15.57033,8.34746 z"
               style="fill:#7b7984;fill-opacity:1;stroke:none" />
            <rect
               style="fill:#7b7984;fill-opacity:1;stroke:none"
               id="rect3988"
               width="31.109249"
               height="11.175"
               x="265.258"
               y="324.73367" />
            <path
               inkscape:connector-curvature="0"
               id="path3947"
               d="m 296.36732,325.00419 c 0,4.61018 -6.97107,8.34747 -15.57033,8.34747 -8.59925,0 -15.57033,-3.73729 -15.57033,-8.34747 0,-4.61017 6.97108,-8.34746 15.57033,-8.34746 8.59926,0 15.57033,3.73729 15.57033,8.34746 z"
               style="fill:#bebec0;fill-opacity:1;stroke:none" />
          </g>
          <path
             inkscape:connector-curvature="0"
             sodipodi:nodetypes="ccsccc"
             id="path3968"
             d="m 271.21875,263.40625 c -0.0308,18.97849 0.0888,37.96114 0,56.9375 0,4.61018 4.61412,8.34375 10.34375,8.34375 5.72963,0 10.34375,-3.73357 10.34375,-8.34375 l 0,-56.9375 -20.6875,0 z"
             style="fill:url(#linearGradient7399);fill-opacity:1;stroke:none" />
        </g>
      </g>
    </g>
  </g>
</svg>
