<?xml version="1.0" encoding="UTF-8" standalone="no"?>
<svg
   xmlns:dc="http://purl.org/dc/elements/1.1/"
   xmlns:cc="http://creativecommons.org/ns#"
   xmlns:rdf="http://www.w3.org/1999/02/22-rdf-syntax-ns#"
   xmlns:svg="http://www.w3.org/2000/svg"
   xmlns="http://www.w3.org/2000/svg"
   xmlns:sodipodi="http://sodipodi.sourceforge.net/DTD/sodipodi-0.dtd"
   xmlns:inkscape="http://www.inkscape.org/namespaces/inkscape"
   viewBox="0 0 48 48"
   id="svg2"
   version="1.1"
   inkscape:version="0.48.5 r10040"
   width="100%"
   height="100%"
   sodipodi:docname="tangerine.svg">
  <metadata
     id="metadata65">
    <rdf:RDF>
      <cc:Work
         rdf:about="">
        <dc:format>image/svg+xml</dc:format>
        <dc:type
           rdf:resource="http://purl.org/dc/dcmitype/StillImage" />
      </cc:Work>
    </rdf:RDF>
  </metadata>
  <sodipodi:namedview
     pagecolor="#ffffff"
     bordercolor="#666666"
     borderopacity="1"
     objecttolerance="10"
     gridtolerance="10"
     guidetolerance="10"
     inkscape:pageopacity="0"
     inkscape:pageshadow="2"
     inkscape:window-width="640"
     inkscape:window-height="480"
     id="namedview63"
     showgrid="false"
     inkscape:zoom="4.9166667"
     inkscape:cx="24"
     inkscape:cy="24"
     inkscape:window-x="0"
     inkscape:window-y="40"
     inkscape:window-maximized="0"
     inkscape:current-layer="svg2" />
  <defs
     id="defs4">
    <linearGradient
       id="linearGradient3764"
       x1="1"
       x2="47"
       gradientUnits="userSpaceOnUse"
       gradientTransform="matrix(0,-1,1,0,-1.5e-6,47.999998)">
      <stop
         stop-color="#df731b"
         stop-opacity="1"
         id="stop7" />
      <stop
         offset="1"
         stop-color="#e57e29"
         stop-opacity="1"
         id="stop9" />
    </linearGradient>
    <clipPath
       id="clipPath-398553476">
      <g
         transform="translate(0,-1004.3622)"
         id="g12">
        <path
           d="m -24 13 c 0 1.105 -0.672 2 -1.5 2 -0.828 0 -1.5 -0.895 -1.5 -2 0 -1.105 0.672 -2 1.5 -2 0.828 0 1.5 0.895 1.5 2 z"
           transform="matrix(15.333333,0,0,11.5,414.99999,878.8622)"
           fill="#1890d0"
           id="path14" />
      </g>
    </clipPath>
    <clipPath
       id="clipPath-413159570">
      <g
         transform="translate(0,-1004.3622)"
         id="g17">
        <path
           d="m -24 13 c 0 1.105 -0.672 2 -1.5 2 -0.828 0 -1.5 -0.895 -1.5 -2 0 -1.105 0.672 -2 1.5 -2 0.828 0 1.5 0.895 1.5 2 z"
           transform="matrix(15.333333,0,0,11.5,414.99999,878.8622)"
           fill="#1890d0"
           id="path19" />
      </g>
    </clipPath>
  </defs>
  <g
     id="g21"
     transform="matrix(0.85106383,0,0,0.85106383,3.1489362,3.1489362)">
    <path
       d="m 36.31,5 c 5.859,4.062 9.688,10.831 9.688,18.5 0,12.426 -10.07,22.5 -22.5,22.5 -7.669,0 -14.438,-3.828 -18.5,-9.688 1.037,1.822 2.306,3.499 3.781,4.969 4.085,3.712 9.514,5.969 15.469,5.969 12.703,0 23,-10.298 23,-23 0,-5.954 -2.256,-11.384 -5.969,-15.469 C 39.81,7.306 38.132,6.037 36.31,5 z m 4.969,3.781 c 3.854,4.113 6.219,9.637 6.219,15.719 0,12.703 -10.297,23 -23,23 -6.081,0 -11.606,-2.364 -15.719,-6.219 4.16,4.144 9.883,6.719 16.219,6.719 12.703,0 23,-10.298 23,-23 0,-6.335 -2.575,-12.06 -6.719,-16.219 z"
       id="path23"
       inkscape:connector-curvature="0"
       style="opacity:0.05" />
    <path
       d="m 41.28,8.781 c 3.712,4.085 5.969,9.514 5.969,15.469 0,12.703 -10.297,23 -23,23 -5.954,0 -11.384,-2.256 -15.469,-5.969 4.113,3.854 9.637,6.219 15.719,6.219 12.703,0 23,-10.298 23,-23 0,-6.081 -2.364,-11.606 -6.219,-15.719 z"
       id="path25"
       inkscape:connector-curvature="0"
       style="opacity:0.1" />
    <path
       d="M 31.25,2.375 C 39.865,5.529 46,13.792 46,23.505 c 0,12.426 -10.07,22.5 -22.5,22.5 -9.708,0 -17.971,-6.135 -21.12,-14.75 a 23,23 0 0 0 44.875,-7 23,23 0 0 0 -16,-21.875 z"
       id="path27"
       inkscape:connector-curvature="0"
       style="opacity:0.2" />
  </g>
  <g
     id="g29"
     transform="matrix(0.85106383,0,0,0.85106383,3.1489362,3.1489362)">
    <path
       d="M 24,1 C 36.703,1 47,11.297 47,24 47,36.703 36.703,47 24,47 11.297,47 1,36.703 1,24 1,11.297 11.297,1 24,1 z"
       id="path31"
       style="fill:url(#linearGradient3764);fill-opacity:1"
       inkscape:connector-curvature="0" />
  </g>
  <g
     id="g33" />
  <g
     id="g35"
     transform="matrix(0.85106383,0,0,0.85106383,3.1489362,3.1489362)">
    <g
       clip-path="url(#clipPath-398553476)"
       id="g37">
      <g
         transform="translate(1,1)"
         id="g39">
        <g
           id="g41"
           style="opacity:0.1">
          <!-- color: #e57e29 -->
          <g
             id="g43">
            <path
               d="m 17.402,7.625 c -4.723,0 -9.102,1.43 -12.75,3.844 -1.449,2.238 -2.484,4.746 -3.094,7.438 2.094,-2.492 3.926,-4.27 5.781,-5.5 3.625,9.879 3.812,9.918 1.125,-0.656 2.656,-1.465 5.406,-1.945 8.938,-1.969 0.313,-0.004 0.602,0.02 0.906,0.031 -0.043,5.508 -0.898,16.859 -3.969,21 -4.434,-11.41 -3.895,-9.379 -0.906,0.344 -0.211,0.105 -0.41,0.262 -0.625,0.438 l -1.375,-1.031 0.691,1.969 c -2.934,0.445 -5.84,-0.289 -8.75,0.781 0.387,0.773 0.785,1.5 1.25,2.219 2.758,-0.625 4.766,-2.961 7.527,-1.395 0.043,0.215 0.156,0.402 0.25,0.594 l -6.437,2.594 c 0.152,0.191 0.281,0.379 0.438,0.563 2.18,-1.027 4.402,-1.434 6.441,-2.531 0.203,0.18 0.469,0.309 0.75,0.406 l -3.906,5.281 c 0.223,0.176 0.461,0.363 0.688,0.531 1.406,-1.75 2.059,-3.746 3.875,-5.688 0.238,0.02 0.508,0.059 0.781,0.02 -0.348,2.84 -0.102,5.773 0.594,8.531 0.902,0.352 1.855,0.641 2.813,0.875 -0.711,-3.223 -2.641,-6.207 -2.469,-9.594 0.887,0.34 1.352,0.781 2.344,1.469 -0.445,-0.668 -0.992,-1.102 -1.375,-1.938 0.086,-0.141 0.168,-0.281 0.219,-0.438 4.555,1.734 8.816,2.223 13.438,5 l 2.531,1.875 c -1.035,1.508 -2.355,2.805 -4.03,3.75 2.719,-0.617 5.246,-1.707 7.5,-3.188 2.434,-3.645 3.875,-8.02 3.875,-12.688 0,-12.594 -10.281,-22.938 -23.06,-22.938 m 3.773,3.531 c 7.625,1.5 14.277,7.484 15.719,14.5 l -0.344,0.438 c -0.641,1.109 -6.66,3.03 -8.844,3.719 -4.168,0.891 -7.152,3.01 -11.156,3.156 -0.246,-0.324 -0.531,-0.617 -0.875,-0.813 2.438,-4.328 1.633,-15.895 5.5,-21 m 15.13,16.438 0.906,0.875 c 0,0.699 -0.074,1.387 -0.188,2.094 -0.598,3.742 -1.348,7.441 -2.906,10.469 L 30.81,39.937 c -3.773,-1.84 -9.438,-3.035 -13.469,-5.688 5.777,-3.316 12.633,-4.652 18.969,-6.656 m -14.715,16.16 c 0.457,1.328 1.582,2.215 2.406,3.25 0.375,0 0.754,-0.012 1.125,-0.031 -1.324,-1.07 -2.434,-2 -3.531,-3.219 m 0,0"
               id="path45"
               inkscape:connector-curvature="0"
               style="fill:#000000;fill-opacity:1;fill-rule:nonzero;stroke:none" />
            <path
               d="m 30.5,12 c -2.484,0 -4.5,2.02 -4.5,4.5 0,0.188 0.027,0.379 0.047,0.566 l -7.406,3.699 c -0.813,-0.785 -1.918,-1.262 -3.137,-1.262 -2.484,0 -4.5,2.02 -4.5,4.5 0,2.48 2.02,4.5 4.5,4.5 1.219,0 2.324,-0.48 3.137,-1.266 l 7.406,3.703 C 26.024,31.12 26,31.315 26,31.503 c 0,2.484 2.02,4.5 4.5,4.5 2.484,0 4.5,-2.02 4.5,-4.5 0,-2.484 -2.02,-4.5 -4.5,-4.5 -1.211,0 -2.309,0.484 -3.117,1.266 l -7.43,-3.703 C 19.976,24.386 20,24.191 20,24.003 20,23.815 19.973,23.624 19.953,23.437 l 7.43,-3.703 C 28.192,20.515 29.285,21 30.5,21 32.984,21 35,18.98 35,16.5 35,14.016 32.98,12 30.5,12 m 0,0"
               id="path47"
               inkscape:connector-curvature="0"
               style="fill:#000000;fill-opacity:1;fill-rule:nonzero;stroke:none" />
          </g>
        </g>
      </g>
    </g>
  </g>
  <g
     id="g49"
     transform="matrix(0.85106383,0,0,0.85106383,3.1489362,3.1489362)">
    <g
       clip-path="url(#clipPath-413159570)"
       id="g51">
      <!-- color: #e57e29 -->
      <g
         id="g53">
        <path
           d="m 17.402,7.625 c -4.723,0 -9.102,1.43 -12.75,3.844 -1.449,2.238 -2.484,4.746 -3.094,7.438 2.094,-2.492 3.926,-4.27 5.781,-5.5 3.625,9.879 3.812,9.918 1.125,-0.656 2.656,-1.465 5.406,-1.945 8.938,-1.969 0.313,-0.004 0.602,0.02 0.906,0.031 -0.043,5.508 -0.898,16.859 -3.969,21 -4.434,-11.41 -3.895,-9.379 -0.906,0.344 -0.211,0.105 -0.41,0.262 -0.625,0.438 l -1.375,-1.031 0.691,1.969 c -2.934,0.445 -5.84,-0.289 -8.75,0.781 0.387,0.773 0.785,1.5 1.25,2.219 2.758,-0.625 4.766,-2.961 7.527,-1.395 0.043,0.215 0.156,0.402 0.25,0.594 l -6.437,2.594 c 0.152,0.191 0.281,0.379 0.438,0.563 2.18,-1.027 4.402,-1.434 6.441,-2.531 0.203,0.18 0.469,0.309 0.75,0.406 l -3.906,5.281 c 0.223,0.176 0.461,0.363 0.688,0.531 1.406,-1.75 2.059,-3.746 3.875,-5.688 0.238,0.02 0.508,0.059 0.781,0.02 -0.348,2.84 -0.102,5.773 0.594,8.531 0.902,0.352 1.855,0.641 2.813,0.875 -0.711,-3.223 -2.641,-6.207 -2.469,-9.594 0.887,0.34 1.352,0.781 2.344,1.469 -0.445,-0.668 -0.992,-1.102 -1.375,-1.938 0.086,-0.141 0.168,-0.281 0.219,-0.438 4.555,1.734 8.816,2.223 13.438,5 l 2.531,1.875 c -1.035,1.508 -2.355,2.805 -4.03,3.75 2.719,-0.617 5.246,-1.707 7.5,-3.188 2.434,-3.645 3.875,-8.02 3.875,-12.688 0,-12.594 -10.281,-22.938 -23.06,-22.938 m 3.773,3.531 c 7.625,1.5 14.277,7.484 15.719,14.5 l -0.344,0.438 c -0.641,1.109 -6.66,3.03 -8.844,3.719 -4.168,0.891 -7.152,3.01 -11.156,3.156 -0.246,-0.324 -0.531,-0.617 -0.875,-0.813 2.438,-4.328 1.633,-15.895 5.5,-21 m 15.13,16.438 0.906,0.875 c 0,0.699 -0.074,1.387 -0.188,2.094 -0.598,3.742 -1.348,7.441 -2.906,10.469 L 30.81,39.937 c -3.773,-1.84 -9.438,-3.035 -13.469,-5.688 5.777,-3.316 12.633,-4.652 18.969,-6.656 m -14.715,16.16 c 0.457,1.328 1.582,2.215 2.406,3.25 0.375,0 0.754,-0.012 1.125,-0.031 -1.324,-1.07 -2.434,-2 -3.531,-3.219 m 0,0"
           id="path55"
           inkscape:connector-curvature="0"
           style="fill:#e48645;fill-opacity:1;fill-rule:nonzero;stroke:none" />
        <path
           d="m 30.5,12 c -2.484,0 -4.5,2.02 -4.5,4.5 0,0.188 0.027,0.379 0.047,0.566 l -7.406,3.699 c -0.813,-0.785 -1.918,-1.262 -3.137,-1.262 -2.484,0 -4.5,2.02 -4.5,4.5 0,2.48 2.02,4.5 4.5,4.5 1.219,0 2.324,-0.48 3.137,-1.266 l 7.406,3.703 C 26.024,31.12 26,31.315 26,31.503 c 0,2.484 2.02,4.5 4.5,4.5 2.484,0 4.5,-2.02 4.5,-4.5 0,-2.484 -2.02,-4.5 -4.5,-4.5 -1.211,0 -2.309,0.484 -3.117,1.266 l -7.43,-3.703 C 19.976,24.386 20,24.191 20,24.003 20,23.815 19.973,23.624 19.953,23.437 l 7.43,-3.703 C 28.192,20.515 29.285,21 30.5,21 32.984,21 35,18.98 35,16.5 35,14.016 32.98,12 30.5,12 m 0,0"
           id="path57"
           inkscape:connector-curvature="0"
           style="fill:#f9f9f9;fill-opacity:1;fill-rule:nonzero;stroke:none" />
      </g>
    </g>
  </g>
  <g
     id="g59"
     transform="matrix(0.85106383,0,0,0.85106383,3.1489362,3.1489362)">
    <path
       d="m 40.03,7.531 c 3.712,4.084 5.969,9.514 5.969,15.469 0,12.703 -10.297,23 -23,23 C 17.045,46 11.615,43.744 7.53,40.031 11.708,44.322 17.54,47 23.999,47 c 12.703,0 23,-10.298 23,-23 0,-6.462 -2.677,-12.291 -6.969,-16.469 z"
       id="path61"
       inkscape:connector-curvature="0"
       style="opacity:0.1" />
  </g>
</svg>
