<?xml version="1.0" encoding="UTF-8" standalone="no"?>
<!-- Created with Inkscape (http://www.inkscape.org/) -->

<svg
   xmlns:dc="http://purl.org/dc/elements/1.1/"
   xmlns:cc="http://creativecommons.org/ns#"
   xmlns:rdf="http://www.w3.org/1999/02/22-rdf-syntax-ns#"
   xmlns:svg="http://www.w3.org/2000/svg"
   xmlns="http://www.w3.org/2000/svg"
   xmlns:sodipodi="http://sodipodi.sourceforge.net/DTD/sodipodi-0.dtd"
   xmlns:inkscape="http://www.inkscape.org/namespaces/inkscape"
   width="48"
   height="48"
   id="svg2"
   version="1.1"
   inkscape:version="0.48.5 r10040"
   sodipodi:docname="transmission.svg">
  <defs
     id="defs4" />
  <sodipodi:namedview
     id="base"
     pagecolor="#ffffff"
     bordercolor="#666666"
     borderopacity="1.0"
     inkscape:pageopacity="0.0"
     inkscape:pageshadow="2"
     inkscape:zoom="11.571816"
     inkscape:cx="22.094904"
     inkscape:cy="24.615771"
     inkscape:document-units="px"
     inkscape:current-layer="layer1"
     showgrid="false"
     fit-margin-top="0"
     fit-margin-left="0"
     fit-margin-right="0"
     fit-margin-bottom="0"
     inkscape:window-width="1920"
     inkscape:window-height="1025"
     inkscape:window-x="-4"
     inkscape:window-y="39"
     inkscape:window-maximized="1">
    <sodipodi:guide
       position="8.9999928,39"
       orientation="30,0"
       id="guide3281" />
    <sodipodi:guide
       position="8.9999928,9"
       orientation="0,30"
       id="guide3283" />
    <sodipodi:guide
       position="38.999993,9"
       orientation="-30,0"
       id="guide3285" />
    <sodipodi:guide
       position="38.999993,39"
       orientation="0,-30"
       id="guide3287" />
    <sodipodi:guide
       position="7,44"
       orientation="40,0"
       id="guide3308" />
    <sodipodi:guide
       position="7,4"
       orientation="0,2"
       id="guide3310" />
    <sodipodi:guide
       position="9,4"
       orientation="0,30"
       id="guide3312" />
    <sodipodi:guide
       position="39,4"
       orientation="0,2"
       id="guide3314" />
    <sodipodi:guide
       position="41,4"
       orientation="-40,0"
       id="guide3316" />
    <sodipodi:guide
       position="41,44"
       orientation="0,-2"
       id="guide3318" />
    <sodipodi:guide
       position="39,44"
       orientation="0,-30"
       id="guide3320" />
    <sodipodi:guide
       position="9,44"
       orientation="0,-2"
       id="guide3322" />
    <sodipodi:guide
       position="7,44"
       orientation="0,0"
       id="guide3324" />
    <sodipodi:guide
       position="29.999993,15"
       orientation="11,0"
       id="guide3330" />
    <sodipodi:guide
       position="29.999993,4"
       orientation="0,11"
       id="guide3332" />
    <sodipodi:guide
       position="40.999993,4"
       orientation="-11,0"
       id="guide3334" />
    <sodipodi:guide
       position="40.999993,15"
       orientation="0,-11"
       id="guide3336" />
  </sodipodi:namedview>
  <metadata
     id="metadata7">
    <rdf:RDF>
      <cc:Work
         rdf:about="">
        <dc:format>image/svg+xml</dc:format>
        <dc:type
           rdf:resource="http://purl.org/dc/dcmitype/StillImage" />
        <dc:title />
      </cc:Work>
    </rdf:RDF>
  </metadata>
  <g
     inkscape:label="Capa 1"
     inkscape:groupmode="layer"
     id="layer1"
     transform="translate(-180.23661,-689.8125)">
    <path
       style="fill:#0078ad;fill-rule:evenodd"
       inkscape:connector-curvature="0"
       d="m 224.23661,713.8125 c 0,11.04614 -8.95477,20 -20,20 -11.04614,0 -20,-8.95477 -20,-20 0,-11.04614 8.95477,-20 20,-20 11.04614,0 20,8.95477 20,20"
       id="path12" />
    <path
       inkscape:connector-curvature="0"
       style="color:#000000;fill-opacity:0.23500001"
       d="m 200.99677,699.34379 c -0.0683,0 -0.12946,0.0151 -0.18848,0.04 -0.059,0.0249 -0.11247,0.0611 -0.15706,0.10562 -0.0446,0.0446 -0.0836,0.0952 -0.10854,0.15423 -0.0248,0.059 -0.0371,0.1259 -0.0371,0.19415 v 0.49392 h 0.0914 v 0.0885 h 0.0914 v 0.0914 h 0.0914 v 0.0914 h 0.0914 v 0.0914 h 0.0885 v 0.0914 h 0.0914 v 0.0914 h 0.0914 v 0.0885 h 0.0914 v 0.0914 h 0.0914 v 0.0914 h 0.0914 v 0.0914 h 0.0885 v 0.0914 h 0.0914 v 0.0914 h 0.0914 v 0.0914 h 0.0914 v 0.0485 h -1.27346 v 0.98502 h 0.0914 v 0.0914 h 0.0914 v 0.0914 h 0.0914 v 0.0914 h 0.0914 v 0.0914 h 0.0885 v 0.0914 h 0.0914 v 0.0885 h 0.0914 v 0.0914 h 0.0914 v 0.0915 h 0.0914 v 0.0914 h 0.0914 v 0.0914 h 0.0885 v 0.0914 h 0.0914 v 0.0914 h 0.0914 v 0.0885 h 0.0914 v 0.0543 h -1.27346 v 0.98502 h 0.0914 v 0.0915 h 0.0914 v 0.0914 h 0.0914 v 0.0914 h 0.0914 v 0.0914 h 0.0885 v 0.0885 h 0.0914 v 0.0915 h 0.0914 v 0.0914 h 0.0914 v 0.0915 h 0.0914 v 0.0914 h 0.0914 v 0.0915 h 0.0885 v 0.0885 h 0.0914 v 0.0914 h 0.0914 v 0.0915 h 0.0914 v 0.0543 h -1.27346 v 0.77094 c -7.3e-4,0.0121 -0.003,0.022 -0.003,0.0343 v 11.24074 c -1.44148,-0.16345 -2.73604,-0.38702 -4.11969,-0.58245 -0.0368,-0.005 -0.0715,-0.003 -0.10854,0 -0.20366,0.013 -0.39689,0.14472 -0.47967,0.3312 -0.0828,0.18648 -0.0526,0.41982 0.0743,0.57962 l 8.19735,10.21289 c 0.0444,0.0554 0.0883,0.10744 0.13988,0.14847 0.002,0.001 0.004,0.002 0.006,0.003 0.0279,0.0315 0.0544,0.0637 0.0857,0.0885 0.0286,0.0325 0.0593,0.0659 0.0914,0.0914 0.0299,0.034 0.0604,0.0652 0.0942,0.0914 0.0275,0.0311 0.0549,0.0641 0.0857,0.0885 0.0292,0.0332 0.0584,0.0656 0.0914,0.0914 0.0297,0.0338 0.0606,0.0654 0.0942,0.0914 0.0274,0.0311 0.0521,0.0612 0.0828,0.0857 0.0289,0.0332 0.0588,0.0655 0.0914,0.0914 0.0297,0.0341 0.0606,0.068 0.0942,0.0942 0.0285,0.0324 0.0564,0.0634 0.0885,0.0885 0.0287,0.0328 0.0588,0.0661 0.0914,0.0914 0.0295,0.0337 0.0578,0.0657 0.0914,0.0914 0.0273,0.0312 0.055,0.0613 0.0857,0.0857 0.0284,0.0327 0.0593,0.066 0.0914,0.0914 0.0292,0.0336 0.0583,0.0656 0.0914,0.0914 0.0288,0.0332 0.0587,0.0659 0.0914,0.0914 0.0287,0.033 0.0588,0.0633 0.0914,0.0885 0.03,0.0345 0.0599,0.0683 0.0942,0.0942 0.0264,0.0301 0.0531,0.0592 0.0828,0.0828 0.0285,0.0332 0.0562,0.0657 0.0885,0.0914 0.0294,0.0344 0.0607,0.0681 0.0942,0.0942 0.0297,0.0344 0.0602,0.0656 0.0942,0.0914 0.028,0.0322 0.0565,0.0639 0.0885,0.0885 0.0281,0.0324 0.0566,0.0637 0.0885,0.0885 0.0299,0.0347 0.0599,0.0683 0.0942,0.0942 0.0266,0.0306 0.0528,0.0619 0.0828,0.0857 0.0294,0.0344 0.0605,0.0654 0.0942,0.0914 0.0297,0.0345 0.06,0.0685 0.0942,0.0942 0.0261,0.0301 0.0534,0.0594 0.0828,0.0828 0.0305,0.0359 0.0618,0.0705 0.0971,0.0971 0.0271,0.0314 0.0548,0.0617 0.0857,0.0857 0.0286,0.0335 0.0558,0.066 0.0885,0.0914 0.029,0.0341 0.0609,0.0658 0.0942,0.0914 0.0268,0.0312 0.0553,0.0616 0.0857,0.0857 0.0306,0.0363 0.0617,0.0704 0.0971,0.0971 0.0268,0.0311 0.0551,0.0619 0.0857,0.0857 0.0297,0.035 0.0599,0.0684 0.0942,0.0942 0.0288,0.0337 0.0581,0.0664 0.0914,0.0914 0.0272,0.0318 0.0545,0.0617 0.0857,0.0857 0.029,0.0342 0.058,0.0689 0.0914,0.0942 0.0274,0.0322 0.0571,0.0613 0.0885,0.0857 0.0302,0.0358 0.0618,0.0712 0.0971,0.0971 0.0267,0.0311 0.0551,0.0594 0.0857,0.0828 0.0309,0.0366 0.0609,0.0709 0.0971,0.0971 0.0275,0.0322 0.054,0.0648 0.0857,0.0885 0.0258,0.0303 0.0534,0.0595 0.0828,0.0828 0.0317,0.0381 0.0654,0.073 0.10279,0.1 0.0265,0.031 0.0524,0.0626 0.0828,0.0857 0.0294,0.035 0.0598,0.069 0.0942,0.0942 0.0277,0.0327 0.0565,0.0617 0.0885,0.0857 0.0122,0.0146 0.0244,0.0291 0.0371,0.0429 8.39561,-1.94317 14.76656,-9.1704 15.418,-17.99086 -0.0167,-0.0167 -0.0349,-0.0314 -0.0543,-0.0457 -0.0121,-0.0153 -0.0234,-0.032 -0.0371,-0.0457 -0.0158,-0.0158 -0.0333,-0.0292 -0.0514,-0.0428 -0.0126,-0.0161 -0.0256,-0.0342 -0.04,-0.0485 -0.0164,-0.0164 -0.0324,-0.0316 -0.0514,-0.0457 -0.012,-0.015 -0.0236,-0.0293 -0.0371,-0.0429 v -0.003 c -0.0164,-0.0164 -0.0353,-0.0316 -0.0543,-0.0457 -0.012,-0.015 -0.0236,-0.0293 -0.0371,-0.0429 -0.0145,-0.0145 -0.032,-0.0273 -0.0485,-0.04 -0.0137,-0.018 -0.0269,-0.0355 -0.0428,-0.0514 -0.0158,-0.0158 -0.0333,-0.0292 -0.0514,-0.0428 -0.0131,-0.0168 -0.0249,-0.0335 -0.04,-0.0485 -0.0167,-0.0167 -0.0349,-0.0314 -0.0543,-0.0457 -0.0121,-0.0153 -0.0234,-0.032 -0.0371,-0.0457 -0.0158,-0.0158 -0.0333,-0.0292 -0.0514,-0.0429 -0.0126,-0.0161 -0.0256,-0.0342 -0.04,-0.0485 -0.0149,-0.0149 -0.0315,-0.027 -0.0485,-0.04 -0.0131,-0.017 -0.0248,-0.0362 -0.04,-0.0514 -0.0165,-0.0164 -0.0353,-0.0316 -0.0543,-0.0457 -0.012,-0.015 -0.0236,-0.0293 -0.0371,-0.0428 -0.0164,-0.0165 -0.0353,-0.0344 -0.0543,-0.0485 -0.012,-0.015 -0.0236,-0.0293 -0.0371,-0.0428 -0.0145,-0.0145 -0.032,-0.0273 -0.0485,-0.04 -0.0137,-0.018 -0.0269,-0.0354 -0.0428,-0.0514 -0.0167,-0.0167 -0.0349,-0.0314 -0.0543,-0.0457 -0.0121,-0.0153 -0.0234,-0.032 -0.0371,-0.0457 -0.0167,-0.0167 -0.0349,-0.0314 -0.0543,-0.0457 -0.0121,-0.0153 -0.0234,-0.032 -0.0371,-0.0457 -0.0149,-0.0149 -0.0315,-0.027 -0.0485,-0.04 -0.0132,-0.017 -0.0248,-0.0362 -0.04,-0.0514 h -0.003 c -0.0164,-0.0164 -0.0324,-0.0316 -0.0514,-0.0457 -0.012,-0.015 -0.0236,-0.0293 -0.0371,-0.0429 -0.0165,-0.0164 -0.0353,-0.0344 -0.0543,-0.0485 -0.012,-0.015 -0.0236,-0.0293 -0.0371,-0.0429 -0.0145,-0.0145 -0.032,-0.0273 -0.0485,-0.04 -0.0137,-0.018 -0.0269,-0.0355 -0.0429,-0.0514 -0.0167,-0.0167 -0.0349,-0.0314 -0.0543,-0.0457 -0.0121,-0.0153 -0.0234,-0.032 -0.0371,-0.0457 -0.0167,-0.0167 -0.0349,-0.0314 -0.0543,-0.0457 -0.0121,-0.0153 -0.0234,-0.032 -0.0371,-0.0457 -0.0158,-0.0158 -0.0333,-0.0292 -0.0514,-0.0429 -0.0126,-0.0161 -0.0256,-0.0342 -0.04,-0.0485 -0.0165,-0.0164 -0.0324,-0.0316 -0.0514,-0.0457 -0.012,-0.015 -0.0236,-0.0293 -0.0371,-0.0428 -0.0164,-0.0164 -0.0353,-0.0344 -0.0543,-0.0485 -0.012,-0.015 -0.0236,-0.0293 -0.0371,-0.0428 -0.0145,-0.0145 -0.032,-0.0273 -0.0485,-0.04 -0.0137,-0.018 -0.0269,-0.0354 -0.0429,-0.0514 -0.0158,-0.0158 -0.0333,-0.0292 -0.0514,-0.0429 -0.0131,-0.0168 -0.0249,-0.0335 -0.04,-0.0485 -0.0167,-0.0167 -0.0349,-0.0314 -0.0543,-0.0457 -0.0121,-0.0153 -0.0234,-0.032 -0.0371,-0.0457 -0.0158,-0.0158 -0.0333,-0.0292 -0.0514,-0.0428 -0.0126,-0.0161 -0.0256,-0.0342 -0.04,-0.0485 -0.0154,-0.0154 -0.0308,-0.0294 -0.0485,-0.0429 -0.0128,-0.0164 -0.0253,-0.0339 -0.04,-0.0485 -0.0164,-0.0164 -0.0353,-0.0316 -0.0543,-0.0457 -0.012,-0.015 -0.0236,-0.0293 -0.0371,-0.0429 -0.0156,-0.0156 -0.0334,-0.0322 -0.0514,-0.0457 -0.0127,-0.0162 -0.0255,-0.0312 -0.04,-0.0457 -0.0158,-0.0158 -0.0333,-0.0292 -0.0514,-0.0428 -0.0131,-0.0168 -0.0249,-0.0335 -0.04,-0.0485 -0.0167,-0.0167 -0.0349,-0.0314 -0.0543,-0.0457 -0.0121,-0.0153 -0.0234,-0.032 -0.0371,-0.0457 -0.0167,-0.0167 -0.0349,-0.0314 -0.0543,-0.0457 -0.0121,-0.0153 -0.0234,-0.032 -0.0371,-0.0457 -0.0149,-0.0149 -0.0315,-0.027 -0.0485,-0.04 -0.0131,-0.017 -0.0248,-0.0362 -0.04,-0.0514 -0.0164,-0.0164 -0.0353,-0.0316 -0.0543,-0.0457 -0.012,-0.015 -0.0236,-0.0293 -0.0371,-0.0428 -0.0164,-0.0164 -0.0353,-0.0344 -0.0543,-0.0485 -0.012,-0.015 -0.0236,-0.0293 -0.0371,-0.0428 -0.0145,-0.0145 -0.032,-0.0273 -0.0485,-0.04 -0.0137,-0.018 -0.0269,-0.0354 -0.0428,-0.0514 -0.0167,-0.0167 -0.0349,-0.0314 -0.0543,-0.0457 -0.0121,-0.0153 -0.0234,-0.032 -0.0371,-0.0457 -0.0167,-0.0167 -0.0349,-0.0314 -0.0543,-0.0457 -0.0121,-0.0153 -0.0234,-0.032 -0.0371,-0.0457 -0.0158,-0.0158 -0.0333,-0.0292 -0.0514,-0.0429 -0.0126,-0.0161 -0.0256,-0.0342 -0.04,-0.0485 -0.0164,-0.0164 -0.0324,-0.0316 -0.0514,-0.0457 -0.012,-0.015 -0.0236,-0.0293 -0.0371,-0.0429 -0.0164,-0.0164 -0.0353,-0.0344 -0.0543,-0.0485 -0.012,-0.015 -0.0236,-0.0293 -0.0371,-0.0429 -0.0145,-0.0145 -0.032,-0.0273 -0.0485,-0.04 -0.0137,-0.018 -0.0269,-0.0355 -0.0429,-0.0514 -0.0158,-0.0158 -0.0332,-0.0292 -0.0514,-0.0429 -0.0131,-0.0168 -0.0249,-0.0335 -0.04,-0.0485 -0.0167,-0.0167 -0.0349,-0.0314 -0.0543,-0.0457 -0.0121,-0.0153 -0.0234,-0.032 -0.0371,-0.0457 -0.0158,-0.0158 -0.0333,-0.0292 -0.0514,-0.0429 -0.0126,-0.0161 -0.0256,-0.0342 -0.04,-0.0485 -0.0164,-0.0164 -0.0324,-0.0316 -0.0514,-0.0457 -0.012,-0.015 -0.0236,-0.0293 -0.0371,-0.0428 -0.0164,-0.0164 -0.0353,-0.0344 -0.0543,-0.0485 -0.012,-0.015 -0.0236,-0.0293 -0.0371,-0.0429 -0.0145,-0.0145 -0.032,-0.0273 -0.0485,-0.04 -0.0137,-0.018 -0.0269,-0.0354 -0.0428,-0.0514 -0.0158,-0.0158 -0.0333,-0.0292 -0.0514,-0.0429 -0.0131,-0.0168 -0.0249,-0.0335 -0.04,-0.0485 -0.0167,-0.0167 -0.0349,-0.0314 -0.0543,-0.0457 -0.0121,-0.0153 -0.0234,-0.032 -0.0371,-0.0457 -0.0158,-0.0158 -0.0333,-0.0292 -0.0514,-0.0429 -0.0126,-0.0161 -0.0256,-0.0342 -0.04,-0.0485 -0.0149,-0.0149 -0.0315,-0.027 -0.0485,-0.04 -0.0132,-0.017 -0.0248,-0.0362 -0.04,-0.0514 -0.0164,-0.0165 -0.0353,-0.0316 -0.0543,-0.0457 -0.012,-0.015 -0.0236,-0.0293 -0.0371,-0.0429 -0.0156,-0.0156 -0.0334,-0.0322 -0.0514,-0.0457 -0.0127,-0.0162 -0.0255,-0.0312 -0.04,-0.0457 -0.0158,-0.0158 -0.0333,-0.0292 -0.0514,-0.0428 -0.0131,-0.0168 -0.0249,-0.0335 -0.04,-0.0485 -0.0167,-0.0167 -0.0349,-0.0314 -0.0543,-0.0457 -0.0121,-0.0153 -0.0234,-0.032 -0.0371,-0.0457 -0.0167,-0.0167 -0.0349,-0.0314 -0.0543,-0.0457 -0.0121,-0.0153 -0.0234,-0.032 -0.0371,-0.0457 -0.0149,-0.0149 -0.0315,-0.0271 -0.0485,-0.04 -0.0132,-0.017 -0.0248,-0.0362 -0.04,-0.0514 -0.0165,-0.0164 -0.0353,-0.0316 -0.0543,-0.0457 -0.012,-0.015 -0.0236,-0.0293 -0.0371,-0.0429 -0.0164,-0.0164 -0.0353,-0.0344 -0.0543,-0.0485 -0.012,-0.015 -0.0236,-0.0293 -0.0371,-0.0428 -0.0145,-0.0145 -0.032,-0.0273 -0.0485,-0.04 -0.0137,-0.018 -0.0269,-0.0354 -0.0428,-0.0514 -0.0167,-0.0167 -0.0349,-0.0314 -0.0543,-0.0457 -0.0121,-0.0153 -0.0234,-0.032 -0.0371,-0.0457 -0.0167,-0.0167 -0.0349,-0.0314 -0.0543,-0.0457 -0.0121,-0.0153 -0.0234,-0.032 -0.0371,-0.0457 -0.0158,-0.0158 -0.0333,-0.0292 -0.0514,-0.0429 -0.0126,-0.0161 -0.0256,-0.0342 -0.04,-0.0485 -0.0164,-0.0165 -0.0324,-0.0316 -0.0514,-0.0457 -0.012,-0.015 -0.0236,-0.0293 -0.0371,-0.0429 -0.0165,-0.0164 -0.0353,-0.0344 -0.0543,-0.0485 -0.012,-0.015 -0.0236,-0.0293 -0.0371,-0.0429 -0.0145,-0.0145 -0.032,-0.0273 -0.0485,-0.04 -0.0137,-0.018 -0.0269,-0.0355 -0.0429,-0.0514 -0.0158,-0.0158 -0.0333,-0.0292 -0.0514,-0.0428 -0.0131,-0.0168 -0.025,-0.0335 -0.04,-0.0485 -0.0167,-0.0167 -0.0349,-0.0314 -0.0543,-0.0457 -0.0121,-0.0153 -0.0234,-0.032 -0.0371,-0.0457 -0.0158,-0.0158 -0.0333,-0.0292 -0.0514,-0.0428 -0.0126,-0.0161 -0.0256,-0.0342 -0.04,-0.0485 -0.0154,-0.0154 -0.0308,-0.0294 -0.0485,-0.0428 -0.0128,-0.0164 -0.0253,-0.0339 -0.04,-0.0485 -0.0164,-0.0164 -0.0353,-0.0316 -0.0543,-0.0457 -0.012,-0.015 -0.0236,-0.0293 -0.0371,-0.0429 -0.0156,-0.0156 -0.0334,-0.0322 -0.0514,-0.0457 -0.0127,-0.0162 -0.0255,-0.0312 -0.04,-0.0457 -0.0158,-0.0158 -0.0333,-0.0292 -0.0514,-0.0429 -0.0131,-0.0168 -0.0249,-0.0335 -0.04,-0.0485 -0.0167,-0.0167 -0.0349,-0.0314 -0.0543,-0.0457 -0.0121,-0.0153 -0.0234,-0.032 -0.0371,-0.0457 -0.0167,-0.0167 -0.0349,-0.0314 -0.0543,-0.0457 -0.0121,-0.0153 -0.0234,-0.032 -0.0371,-0.0457 -0.0149,-0.0149 -0.0315,-0.0271 -0.0485,-0.04 -0.0132,-0.017 -0.0248,-0.0362 -0.04,-0.0514 -0.0164,-0.0164 -0.0353,-0.0316 -0.0543,-0.0457 -0.012,-0.015 -0.0236,-0.0293 -0.0371,-0.0428 -0.0164,-0.0165 -0.0353,-0.0344 -0.0543,-0.0485 -0.012,-0.015 -0.0236,-0.0293 -0.0371,-0.0429 -0.0145,-0.0145 -0.032,-0.0273 -0.0485,-0.04 -0.0137,-0.018 -0.0269,-0.0355 -0.0428,-0.0514 -0.0167,-0.0167 -0.0349,-0.0314 -0.0543,-0.0457 -0.0121,-0.0153 -0.0234,-0.032 -0.0371,-0.0457 -0.0167,-0.0167 -0.0349,-0.0314 -0.0543,-0.0457 -0.0121,-0.0153 -0.0234,-0.032 -0.0371,-0.0457 -0.0158,-0.0158 -0.0333,-0.0292 -0.0514,-0.0428 -0.0126,-0.0161 -0.0256,-0.0342 -0.04,-0.0485 -0.0164,-0.0164 -0.0324,-0.0316 -0.0514,-0.0457 -0.012,-0.015 -0.0236,-0.0293 -0.0371,-0.0429 -0.0164,-0.0164 -0.0353,-0.0344 -0.0543,-0.0485 -0.012,-0.015 -0.0236,-0.0293 -0.0371,-0.0429 -0.0145,-0.0145 -0.032,-0.0273 -0.0485,-0.04 -0.0137,-0.018 -0.0269,-0.0354 -0.0428,-0.0514 -0.0167,-0.0167 -0.0349,-0.0314 -0.0543,-0.0457 -0.0121,-0.0153 -0.0234,-0.032 -0.0371,-0.0457 -0.0167,-0.0167 -0.0349,-0.0314 -0.0543,-0.0457 -0.0121,-0.0153 -0.0234,-0.032 -0.0371,-0.0457 -0.0158,-0.0158 -0.0332,-0.0292 -0.0514,-0.0429 -0.0126,-0.0161 -0.0256,-0.0342 -0.04,-0.0485 -0.0165,-0.0164 -0.0324,-0.0316 -0.0514,-0.0457 -0.012,-0.015 -0.0236,-0.0293 -0.0371,-0.0428 -0.0164,-0.0165 -0.0353,-0.0344 -0.0543,-0.0485 -0.012,-0.015 -0.0236,-0.0293 -0.0371,-0.0429 -0.0145,-0.0145 -0.032,-0.0273 -0.0485,-0.04 -0.0137,-0.018 -0.0269,-0.0355 -0.0429,-0.0514 -0.0158,-0.0158 -0.0333,-0.0292 -0.0514,-0.0429 -0.0131,-0.0168 -0.0249,-0.0335 -0.04,-0.0485 -0.0167,-0.0167 -0.0349,-0.0314 -0.0543,-0.0457 -0.0121,-0.0153 -0.0234,-0.032 -0.0371,-0.0457 -0.0158,-0.0158 -0.0333,-0.0292 -0.0514,-0.0428 -0.0126,-0.0161 -0.0256,-0.0342 -0.04,-0.0485 -0.0149,-0.0149 -0.0315,-0.027 -0.0485,-0.04 -0.0132,-0.017 -0.0248,-0.0362 -0.04,-0.0514 -0.0164,-0.0164 -0.0353,-0.0316 -0.0543,-0.0457 -0.012,-0.015 -0.0236,-0.0293 -0.0371,-0.0429 -0.0156,-0.0156 -0.0334,-0.0322 -0.0514,-0.0457 -0.0127,-0.0162 -0.0255,-0.0311 -0.04,-0.0457 -0.0158,-0.0158 -0.0333,-0.0292 -0.0514,-0.0429 -0.0131,-0.0168 -0.0249,-0.0335 -0.04,-0.0485 -0.0167,-0.0167 -0.0349,-0.0314 -0.0543,-0.0457 -0.0121,-0.0153 -0.0234,-0.032 -0.0371,-0.0457 -0.0167,-0.0167 -0.0349,-0.0314 -0.0543,-0.0457 -0.0121,-0.0153 -0.0234,-0.032 -0.0371,-0.0457 -0.0149,-0.0149 -0.0315,-0.027 -0.0485,-0.04 -0.0132,-0.017 -0.0248,-0.0362 -0.04,-0.0514 -0.0164,-0.0164 -0.0353,-0.0316 -0.0543,-0.0457 -0.012,-0.015 -0.0236,-0.0293 -0.0371,-0.0428 -0.0164,-0.0164 -0.0353,-0.0344 -0.0543,-0.0485 -0.012,-0.015 -0.0236,-0.0293 -0.0371,-0.0428 -0.0145,-0.0145 -0.032,-0.0273 -0.0485,-0.04 -0.0137,-0.018 -0.0269,-0.0354 -0.0429,-0.0514 -0.0167,-0.0167 -0.0349,-0.0314 -0.0543,-0.0457 -0.0121,-0.0153 -0.0234,-0.032 -0.0371,-0.0457 -0.0167,-0.0167 -0.0349,-0.0314 -0.0543,-0.0457 -0.0121,-0.0153 -0.0234,-0.032 -0.0371,-0.0457 -0.0158,-0.0158 -0.0333,-0.0292 -0.0514,-0.0428 -0.0126,-0.0161 -0.0256,-0.0342 -0.04,-0.0485 -0.0164,-0.0164 -0.0324,-0.0316 -0.0514,-0.0457 -0.012,-0.015 -0.0236,-0.0293 -0.0371,-0.0429 -0.0164,-0.0164 -0.0353,-0.0344 -0.0543,-0.0485 -0.012,-0.015 -0.0236,-0.0293 -0.0371,-0.0429 -0.0145,-0.0145 -0.032,-0.0273 -0.0485,-0.04 -0.0137,-0.018 -0.0269,-0.0354 -0.0428,-0.0514 -0.0158,-0.0158 -0.0333,-0.0292 -0.0514,-0.0429 -0.0131,-0.0168 -0.0249,-0.0335 -0.04,-0.0485 -0.0167,-0.0167 -0.0349,-0.0314 -0.0543,-0.0457 -0.0121,-0.0153 -0.0234,-0.032 -0.0371,-0.0457 -0.0158,-0.0158 -0.0333,-0.0292 -0.0514,-0.0429 -0.0126,-0.0161 -0.0256,-0.0342 -0.04,-0.0485 -0.0164,-0.0164 -0.0324,-0.0316 -0.0514,-0.0457 -0.012,-0.015 -0.0236,-0.0293 -0.0371,-0.0428 v -0.003 c -0.0164,-0.0164 -0.0353,-0.0316 -0.0543,-0.0457 -0.012,-0.015 -0.0236,-0.0293 -0.0371,-0.0428 -0.0145,-0.0145 -0.032,-0.0273 -0.0485,-0.04 -0.0137,-0.018 -0.0269,-0.0354 -0.0429,-0.0514 -0.0158,-0.0158 -0.0333,-0.0292 -0.0514,-0.0429 -0.0131,-0.0168 -0.025,-0.0335 -0.04,-0.0485 -0.0167,-0.0167 -0.0349,-0.0314 -0.0543,-0.0457 -0.0121,-0.0153 -0.0234,-0.032 -0.0371,-0.0457 -0.0158,-0.0158 -0.0333,-0.0292 -0.0514,-0.0429 -0.0126,-0.0161 -0.0256,-0.0342 -0.04,-0.0485 -0.0149,-0.0149 -0.0315,-0.027 -0.0485,-0.04 -0.0132,-0.017 -0.0248,-0.0362 -0.04,-0.0514 -0.0164,-0.0164 -0.0353,-0.0316 -0.0543,-0.0457 -0.012,-0.015 -0.0236,-0.0293 -0.0371,-0.0429 -0.0164,-0.0164 -0.0353,-0.0344 -0.0543,-0.0485 -0.012,-0.015 -0.0236,-0.0293 -0.0371,-0.0429 -0.0145,-0.0145 -0.032,-0.0273 -0.0485,-0.04 -0.0137,-0.018 -0.0269,-0.0354 -0.0429,-0.0514 -0.0167,-0.0167 -0.0349,-0.0314 -0.0543,-0.0457 -0.0121,-0.0153 -0.0234,-0.032 -0.0371,-0.0457 -0.0167,-0.0167 -0.0349,-0.0314 -0.0543,-0.0457 -0.0121,-0.0153 -0.0234,-0.032 -0.0371,-0.0457 -0.0149,-0.0149 -0.0315,-0.0271 -0.0485,-0.04 -0.0132,-0.017 -0.0248,-0.0362 -0.04,-0.0514 h -0.003 c -0.0164,-0.0164 -0.0324,-0.0316 -0.0514,-0.0457 -0.012,-0.015 -0.0236,-0.0293 -0.0371,-0.0428 -0.0164,-0.0165 -0.0353,-0.0344 -0.0543,-0.0485 -0.012,-0.015 -0.0236,-0.0293 -0.0371,-0.0428 -0.0145,-0.0145 -0.032,-0.0273 -0.0485,-0.04 -0.0137,-0.018 -0.0269,-0.0354 -0.0428,-0.0514 -0.0167,-0.0167 -0.0349,-0.0314 -0.0543,-0.0457 -0.0121,-0.0153 -0.0234,-0.032 -0.0371,-0.0457 -0.0167,-0.0167 -0.0349,-0.0314 -0.0543,-0.0457 -0.0121,-0.0153 -0.0234,-0.032 -0.0371,-0.0457 -0.0158,-0.0158 -0.0332,-0.0292 -0.0514,-0.0428 -0.0126,-0.0161 -0.0256,-0.0342 -0.04,-0.0485 -0.0164,-0.0164 -0.0324,-0.0316 -0.0514,-0.0457 -0.012,-0.015 -0.0236,-0.0293 -0.0371,-0.0429 -0.0164,-0.0164 -0.0353,-0.0344 -0.0543,-0.0485 -0.012,-0.015 -0.0236,-0.0293 -0.0371,-0.0429 -0.0145,-0.0145 -0.032,-0.0273 -0.0485,-0.04 -0.0137,-0.018 -0.0269,-0.0355 -0.0429,-0.0514 -0.0158,-0.0158 -0.0332,-0.0292 -0.0514,-0.0428 -0.0131,-0.0168 -0.0249,-0.0335 -0.04,-0.0485 -0.0167,-0.0167 -0.0349,-0.0314 -0.0543,-0.0457 -0.0121,-0.0153 -0.0234,-0.032 -0.0371,-0.0457 -0.0158,-0.0158 -0.0332,-0.0292 -0.0514,-0.0429 -0.0126,-0.0161 -0.0256,-0.0342 -0.04,-0.0485 -0.0154,-0.0154 -0.0308,-0.0294 -0.0485,-0.0429 -0.0128,-0.0163 -0.0253,-0.0339 -0.04,-0.0485 -0.0164,-0.0164 -0.0353,-0.0316 -0.0543,-0.0457 -0.012,-0.015 -0.0236,-0.0293 -0.0371,-0.0428 -0.0156,-0.0156 -0.0334,-0.0322 -0.0514,-0.0457 -0.0127,-0.0162 -0.0255,-0.0312 -0.04,-0.0457 -0.0158,-0.0158 -0.0332,-0.0292 -0.0514,-0.0429 -0.0131,-0.0168 -0.025,-0.0335 -0.04,-0.0485 -0.0167,-0.0167 -0.0349,-0.0314 -0.0543,-0.0457 -0.0121,-0.0153 -0.0234,-0.032 -0.0371,-0.0457 -0.0167,-0.0167 -0.0349,-0.0314 -0.0543,-0.0457 -0.0121,-0.0153 -0.0234,-0.032 -0.0371,-0.0457 -0.0149,-0.0149 -0.0315,-0.0271 -0.0485,-0.04 -0.0132,-0.017 -0.0248,-0.0362 -0.04,-0.0514 -0.0164,-0.0164 -0.0353,-0.0316 -0.0543,-0.0457 -0.012,-0.015 -0.0236,-0.0293 -0.0371,-0.0429 -0.0164,-0.0164 -0.0353,-0.0344 -0.0543,-0.0485 -0.012,-0.015 -0.0236,-0.0293 -0.0371,-0.0429 -0.0145,-0.0145 -0.032,-0.0273 -0.0485,-0.04 -0.0137,-0.018 -0.0269,-0.0354 -0.0429,-0.0514 -0.0167,-0.0167 -0.0349,-0.0314 -0.0543,-0.0457 -0.0121,-0.0153 -0.0234,-0.032 -0.0371,-0.0457 -0.0167,-0.0167 -0.0349,-0.0314 -0.0543,-0.0457 -0.0121,-0.0152 -0.0234,-0.032 -0.0371,-0.0457 -0.0158,-0.0158 -0.0332,-0.0292 -0.0514,-0.0429 -0.0126,-0.0161 -0.0256,-0.0342 -0.04,-0.0485 -0.0164,-0.0164 -0.0324,-0.0316 -0.0514,-0.0457 -0.012,-0.015 -0.0236,-0.0293 -0.0371,-0.0428 -0.0164,-0.0164 -0.0353,-0.0344 -0.0543,-0.0485 -0.012,-0.015 -0.0236,-0.0293 -0.0371,-0.0428 -0.0145,-0.0145 -0.032,-0.0273 -0.0485,-0.04 -0.0137,-0.018 -0.0269,-0.0354 -0.0428,-0.0514 -0.0158,-0.0158 -0.0332,-0.0292 -0.0514,-0.0429 -0.0131,-0.0168 -0.0249,-0.0335 -0.04,-0.0485 -0.0167,-0.0167 -0.0349,-0.0314 -0.0543,-0.0457 -0.0121,-0.0153 -0.0234,-0.032 -0.0371,-0.0457 -0.0158,-0.0158 -0.0332,-0.0292 -0.0514,-0.0429 -0.0126,-0.0161 -0.0256,-0.0342 -0.04,-0.0485 -0.0164,-0.0165 -0.0324,-0.0316 -0.0514,-0.0457 -0.012,-0.015 -0.0236,-0.0293 -0.0371,-0.0429 -0.0165,-0.0164 -0.0353,-0.0344 -0.0543,-0.0485 -0.012,-0.015 -0.0236,-0.0293 -0.0371,-0.0429 -0.0145,-0.0145 -0.032,-0.0273 -0.0485,-0.04 -0.0137,-0.018 -0.0269,-0.0355 -0.0429,-0.0514 -0.0158,-0.0158 -0.0332,-0.0292 -0.0514,-0.0428 -0.0131,-0.0168 -0.025,-0.0335 -0.04,-0.0485 -0.0167,-0.0167 -0.0349,-0.0314 -0.0543,-0.0457 -0.0121,-0.0153 -0.0234,-0.032 -0.0371,-0.0457 -0.0158,-0.0158 -0.0332,-0.0292 -0.0514,-0.0429 -0.0126,-0.0161 -0.0256,-0.0342 -0.04,-0.0485 -0.0149,-0.0149 -0.0315,-0.0271 -0.0485,-0.04 -0.0132,-0.017 -0.0248,-0.0362 -0.04,-0.0514 -0.0164,-0.0164 -0.0353,-0.0316 -0.0543,-0.0457 -0.012,-0.015 -0.0236,-0.0293 -0.0371,-0.0429 -0.0165,-0.0164 -0.0353,-0.0344 -0.0543,-0.0485 -0.012,-0.015 -0.0236,-0.0293 -0.0371,-0.0428 -0.0158,-0.0158 -0.0332,-0.0292 -0.0514,-0.0429 -0.0131,-0.0168 -0.0249,-0.0335 -0.04,-0.0485 -0.0167,-0.0167 -0.0349,-0.0314 -0.0543,-0.0457 -0.0121,-0.0153 -0.0234,-0.032 -0.0371,-0.0457 -0.0167,-0.0167 -0.0349,-0.0314 -0.0543,-0.0457 -0.0121,-0.0153 -0.0234,-0.032 -0.0371,-0.0457 -0.0149,-0.0149 -0.0315,-0.027 -0.0485,-0.04 -0.0132,-0.017 -0.0248,-0.0362 -0.04,-0.0514 -0.0164,-0.0164 -0.0353,-0.0316 -0.0543,-0.0457 -0.012,-0.015 -0.0236,-0.0293 -0.0371,-0.0429 -0.0164,-0.0164 -0.0353,-0.0344 -0.0543,-0.0485 -0.012,-0.015 -0.0236,-0.0293 -0.0371,-0.0429 -0.0446,-0.0446 -0.10087,-0.0808 -0.15989,-0.10561 -0.059,-0.0249 -0.12015,-0.04 -0.18849,-0.04 h -7.01782"
       id="path14" />
    <path
       inkscape:connector-curvature="0"
       d="m 200.9986,699.34288 c -0.0683,0 -0.13001,0.0154 -0.18903,0.0403 -0.059,0.0249 -0.11174,0.0613 -0.15624,0.10589 -0.0446,0.0446 -0.0835,0.0973 -0.10836,0.15624 -0.0249,0.059 -0.0378,0.12325 -0.0378,0.19159 v 0.49402 h 7.99982 v -0.49402 c 0,-0.0683 -0.013,-0.13257 -0.0378,-0.19159 -0.0249,-0.059 -0.0613,-0.11174 -0.10589,-0.15624 -0.0446,-0.0446 -0.0998,-0.081 -0.1588,-0.10589 -0.059,-0.0248 -0.12078,-0.0403 -0.18903,-0.0403 h -7.0169 m -0.49146,2.22056 v 0.98547 h 8 v -0.98547 h -8 m 0,2.22055 v 0.98548 h 8 v -0.98548 h -8 m 0,2.22056 v 0.77122 c -7.3e-4,0.0122 -0.003,0.023 -0.003,0.0353 v 11.24166 c -1.44148,-0.16345 -2.73696,-0.38675 -4.1206,-0.58218 -0.0368,-0.005 -0.0714,-0.005 -0.10836,-0.003 -0.20366,0.013 -0.39608,0.14618 -0.47885,0.33266 -0.0828,0.18648 -0.0538,0.41992 0.0731,0.57972 l 8.19643,10.21288 c 0.1185,0.14774 0.24495,0.27885 0.47383,0.20923 0.1936,-0.0631 1.23974,-1.25436 1.68113,-1.80466 0.76802,-0.95733 1.79242,-2.23682 2.81791,-3.51357 2.05098,-2.55349 4.10333,-5.10397 4.10333,-5.10397 0.13934,-0.17296 0.16081,-0.43098 0.0529,-0.62504 -0.1079,-0.19415 -0.33659,-0.31192 -0.55705,-0.28478 -1.57725,0.18848 -2.81837,0.4031 -4.13066,0.56455 V 706.0035 h -8"
       style="color:#000000;fill:#ffffff"
       id="path74" />
  </g>
</svg>
