<?xml version="1.0" encoding="UTF-8" standalone="no"?>
<!-- Created using Karbon, part of Calligra: http://www.calligra.org/karbon -->

<svg
   xmlns:dc="http://purl.org/dc/elements/1.1/"
   xmlns:cc="http://creativecommons.org/ns#"
   xmlns:rdf="http://www.w3.org/1999/02/22-rdf-syntax-ns#"
   xmlns:svg="http://www.w3.org/2000/svg"
   xmlns="http://www.w3.org/2000/svg"
   xmlns:sodipodi="http://sodipodi.sourceforge.net/DTD/sodipodi-0.dtd"
   xmlns:inkscape="http://www.inkscape.org/namespaces/inkscape"
   width="38.4pt"
   height="38.4pt"
   id="svg2"
   version="1.1"
   inkscape:version="0.48.5 r10040"
   sodipodi:docname="vegastrike.svg">
  <metadata
     id="metadata11">
    <rdf:RDF>
      <cc:Work
         rdf:about="">
        <dc:format>image/svg+xml</dc:format>
        <dc:type
           rdf:resource="http://purl.org/dc/dcmitype/StillImage" />
        <dc:title />
      </cc:Work>
    </rdf:RDF>
  </metadata>
  <sodipodi:namedview
     pagecolor="#ffffff"
     bordercolor="#666666"
     borderopacity="1"
     objecttolerance="10"
     gridtolerance="10"
     guidetolerance="10"
     inkscape:pageopacity="0"
     inkscape:pageshadow="2"
     inkscape:window-width="1920"
     inkscape:window-height="1031"
     id="namedview9"
     showgrid="false"
     inkscape:showpageshadow="false"
     borderlayer="true"
     inkscape:zoom="13.906433"
     inkscape:cx="35.530374"
     inkscape:cy="11.200903"
     inkscape:window-x="-4"
     inkscape:window-y="32"
     inkscape:window-maximized="1"
     inkscape:current-layer="svg2">
    <sodipodi:guide
       position="9.5367432e-07,48.000001"
       orientation="47.999999,0"
       id="guide4069" />
    <sodipodi:guide
       position="9.5367432e-07,1.9073486e-06"
       orientation="0,47.999999"
       id="guide4071" />
    <sodipodi:guide
       position="48,1.9073486e-06"
       orientation="-47.999999,0"
       id="guide4073" />
    <sodipodi:guide
       position="48,48.000001"
       orientation="0,-47.999999"
       id="guide4075" />
    <sodipodi:guide
       position="4.000001,44.000001"
       orientation="39.999999,0"
       id="guide4077" />
    <sodipodi:guide
       position="4.000001,4.0000019"
       orientation="0,39.999999"
       id="guide4079" />
    <sodipodi:guide
       position="44,4.0000019"
       orientation="-39.999999,0"
       id="guide4081" />
    <sodipodi:guide
       position="44,44.000001"
       orientation="0,-39.999999"
       id="guide4083" />
  </sodipodi:namedview>
  <defs
     id="defs4" />
  <path
     id="path2768"
     d="m 4.4335748,43.980648 c -0.18297,-0.0694 -0.39138,-0.30145 -0.43042,-0.47919 -0.0213,-0.0971 0.0675,-0.68051 0.19866,-1.30404 0.44157,-2.09975 0.99502,-4.02609 1.57466,-5.48075 0.18204,-0.45684 0.37664,-0.96519 0.43244,-1.12965 0.33429,-0.98519 1.72335,-3.44606 2.85491,-5.05776 0.37498,-0.53408 0.84309,-1.25591 1.0402602,-1.60406 0.37039,-0.65403 1.93287,-2.76161 2.69705,-3.63796 0.58504,-0.67092 1.81762,-2.00507 2.62747,-2.84399 0.52658,-0.54546 0.64215,-0.69861 0.56484,-0.74846 -0.0535,-0.0345 -2.03329,-1.20637 -4.3996,-2.60422 -2.3663202,-1.39784 -4.2933502,-2.56902 -4.2822902,-2.60262 0.0111,-0.0336 0.30112,-0.24005 0.64458,-0.45879 0.4381,-0.27902 0.68489,-0.39541 0.82688,-0.38999 0.11132,0.004 2.8401402,0.3378 6.0640402,0.74121 3.22391,0.40341 5.96,0.73229 6.0802,0.73084 0.16359,-0.002 0.29794,-0.0757 0.53419,-0.2932 0.17361,-0.15982 0.31564,-0.31652 0.31564,-0.34824 0,-0.0317 -0.94329,-0.28103 -2.09621,-0.55403 l -2.09622,-0.49637 0.28545,-0.24554 c 0.15699,-0.13505 0.34525,-0.27692 0.41835,-0.31526 0.0731,-0.0383 1.40817,-0.19982 2.96683,-0.35881 l 2.83394,-0.28909 0.47182,-0.42244 c 0.39798,-0.35631 0.65574,-0.50852 1.6468,-0.97239 1.319,-0.61738 1.57427,-0.81177 1.67679,-1.27691 0.0371,-0.16826 0.3539,-1.48191 0.70403,-2.9192203 l 0.63659,-2.61329 0.50252,-0.90857 c 0.27638,-0.49971 0.51206,-0.91878 0.52374,-0.93127 0.0283,-0.0303 2.09375,0.30217 2.13528,0.3437 0.0178,0.0179 -0.0741,1.22379 -0.20431,2.67986 -0.13021,1.45608 -0.27765,3.1408003 -0.32763,3.7438403 l -0.0909,1.09643 0.25543,0.29097 c 0.14048,0.16004 0.33486,0.45335 0.43195,0.6518 0.13119,0.26813 0.38849,0.56038 1.00167,1.1377 0.45382,0.42729 0.85204,0.78649 0.88493,0.79822 0.0329,0.0117 0.079,-0.0553 0.10255,-0.14905 0.0235,-0.0937 0.0709,-0.15298 0.10535,-0.13171 0.0358,0.0221 0.038,0.0717 0.005,0.11583 -0.13791,0.18559 -0.42756,0.98684 -0.37364,1.03363 0.0325,0.0282 1.52427,0.71701 3.3151,1.53073 1.79084,0.81371 3.28234,1.50434 3.31445,1.53473 0.0659,0.0623 -0.15368,0.66145 -0.25789,0.70378 -0.0366,0.0149 -1.88911,-0.24037 -4.11663,-0.56723 l -4.05004,-0.59427 -0.31935,0.30978 c -0.17564,0.17039 -0.31003,0.33775 -0.29864,0.37191 0.019,0.0571 2.3482,0.6439 9.28319,2.33884 1.44363,0.35282 2.63204,0.64756 2.64092,0.65497 0.0194,0.0162 -0.29244,1.09975 -0.32541,1.13093 -0.0126,0.0119 -0.83035,0.0693 -1.81713,0.12746 -3.79956,0.22392 -12.23318,0.70523 -12.35975,0.70537 -0.0807,7e-5 -0.66311,0.49579 -1.48338,1.26257 -0.74276,0.69432 -1.37295,1.26241 -1.40043,1.26241 -0.0275,0 -0.44032,0.47097 -0.91742,1.04659 -0.47711,0.57563 -1.4748,1.6895 -2.21708,2.47527 -1.04841,1.10983 -1.53041,1.5648 -2.1597,2.0386 -0.67945,0.51156 -0.87814,0.70445 -1.23207,1.19611 -0.92903,1.29055 -2.57329,3.04762 -4.179,4.4657 -3.04027,2.68504 -5.8227402,4.34511 -9.7349502,5.80805 -1.0777,0.403 -1.27581,0.45854 -1.42868,0.40054 z m 2.39221,-4.37732 c 0,-0.0161 -0.0299,-0.0293 -0.0664,-0.0293 -0.0365,0 -0.0664,0.0317 -0.0664,0.0704 0,0.0387 0.0299,0.0519 0.0664,0.0293 0.0365,-0.0226 0.0664,-0.0543 0.0664,-0.0704 z m 0.16612,-0.2951 c -0.0226,-0.0365 -0.0543,-0.0664 -0.0704,-0.0664 -0.0161,0 -0.0293,0.0299 -0.0293,0.0664 0,0.0365 0.0317,0.0665 0.0704,0.0665 0.0387,0 0.0519,-0.0299 0.0293,-0.0665 z m 5.4869202,-7.27822 c 0.16184,-0.0559 0.36901,-0.16112 0.46038,-0.23388 0.12445,-0.0991 0.0803,-0.0888 -0.17593,0.041 -0.40535,0.20541 -0.90345,0.24029 -1.06889,0.0749 -0.0593,-0.0593 -0.12868,-0.23602 -0.15415,-0.39267 l -0.0463,-0.28483 -0.008,0.27651 c -0.007,0.23243 0.0243,0.30392 0.19613,0.44853 0.23575,0.19838 0.38766,0.2118 0.79708,0.0704 z m -1.76854,-0.4346 c -0.0625,-0.1011 -0.16233,-0.0702 -0.12102,0.0374 0.021,0.0546 0.0654,0.0824 0.0987,0.0619 0.0333,-0.0206 0.0434,-0.0653 0.0223,-0.0993 z m 3.29501,-0.95293 c 0.36573,-0.73107 0.19193,-1.2447 -0.41519,-1.22701 l -0.28543,0.008 0.28483,0.0463 c 0.34727,0.0565 0.47188,0.17182 0.5225,0.48371 0.0537,0.33102 -0.20923,0.88115 -0.65195,1.36397 l -0.35018,0.38191 0.34948,-0.33225 c 0.19259,-0.18309 0.43768,-0.50855 0.54594,-0.72495 z m 7.48326,0.0647 c -0.17869,-0.39031 -0.31038,-0.52305 -0.15255,-0.15377 0.18399,0.43051 0.26388,0.58145 0.29257,0.55276 0.0161,-0.0161 -0.0469,-0.19563 -0.14002,-0.39899 z m -2.43593,-0.3779 c 0,-0.0776 -0.1308,-0.32429 -0.29067,-0.54822 -0.29667,-0.41554 -1.24323,-1.36428 -1.49626,-1.4997 -0.27892,-0.14927 -0.13042,0.042 0.31519,0.40609 0.49935,0.40794 0.98121,0.99228 1.21488,1.47323 0.16163,0.3327 0.25686,0.3952 0.25686,0.1686 z m -5.83516,-0.83462 c -0.048,-0.0192 -0.10529,-0.0168 -0.12737,0.005 -0.0221,0.0221 0.0172,0.0378 0.0872,0.0349 0.0774,-0.003 0.0931,-0.0189 0.0401,-0.0401 z m -0.02,-1.74877 c 0.0407,0 0.074,-0.0448 0.074,-0.0997 0,-0.0548 -0.0413,-0.0997 -0.0917,-0.0997 -0.12205,0 -0.57356,0.51997 -0.5701,0.65655 0.002,0.0705 0.0909,0.0101 0.25822,-0.17478 0.14052,-0.15533 0.2888,-0.28242 0.32952,-0.28242 z m 3.694,-0.66678 c -0.1031,-0.14878 -0.30405,-0.36284 -0.44656,-0.47571 -0.26079,-0.20655 -0.9282,-0.51561 -1.11345,-0.51561 -0.0548,0 0.0797,0.0737 0.29903,0.16378 0.53635,0.22031 0.8841,0.47381 1.16046,0.84594 0.27946,0.37631 0.3634,0.36094 0.10052,-0.0184 z m -1.82581,-1.06092 c -0.0914,-0.0293 -0.25583,-0.0532 -0.36547,-0.0532 -0.19384,0 -0.19476,10e-4 -0.0332,0.0532 0.0914,0.0293 0.25583,0.0532 0.36548,0.0532 0.19383,0 0.19475,-10e-4 0.0332,-0.0532 z m 2.51814,-1.16511 c -0.056,-0.056 -0.21944,-0.11719 -0.3631,-0.13588 l -0.2612,-0.034 0.25414,0.0965 c 0.13977,0.0531 0.27184,0.11423 0.29348,0.13588 0.0216,0.0216 0.0707,0.0394 0.10897,0.0394 0.0383,0 0.0238,-0.0458 -0.0323,-0.1019 z m 6.21597,-0.95994 c 0.2155,-0.36473 0.89516,-1.32091 1.51036,-2.12484 0.61519,-0.80392 1.11853,-1.50428 1.11853,-1.55635 0,-0.0521 -0.13611,-0.27573 -0.30247,-0.49704 -1.03133,-1.37196 -2.92852,-1.94401 -4.5626,-1.37574 -0.56633,0.19695 -1.01625,0.48782 -1.54738,1.00035 -1.04294,1.00644 -1.98054,1.93148 -2.52511,2.49129 -0.54213,0.55732 -0.57301,0.60221 -0.33025,0.48014 0.58546,-0.2944 1.01823,-0.3779 1.92507,-0.37145 0.6059,0.004 0.98174,0.0404 1.25859,0.12089 0.39831,0.11579 1.10221,0.45016 1.46121,0.69411 0.38195,0.25954 1.08271,1.0115 1.30599,1.40141 0.12486,0.21803 0.24259,0.39731 0.26162,0.3984 0.019,0.001 0.21094,-0.29644 0.42644,-0.66117 z m 1.8679,-0.42883 c 0.12382,-0.18898 0.08,-0.30329 -0.22935,-0.59766 -0.27579,-0.26248 -0.3515,-0.15943 -0.0849,0.1156 0.21115,0.21785 0.27978,0.44438 0.13463,0.44438 -0.0422,0 -0.17876,-0.0778 -0.30339,-0.17284 -0.32481,-0.24775 -0.36897,-0.12418 -0.0517,0.14482 0.31729,0.26906 0.39527,0.27864 0.53479,0.0657 z m 0.26261,-0.43638 c -0.0226,-0.0365 -0.0543,-0.0664 -0.0704,-0.0664 -0.0161,0 -0.0293,0.0299 -0.0293,0.0664 0,0.0366 0.0317,0.0665 0.0704,0.0665 0.0387,0 0.0519,-0.0299 0.0293,-0.0665 z m 0.29903,-0.33225 c 0.0505,-0.0944 0.0505,-0.17138 0,-0.2658 -0.0789,-0.14736 -0.20888,-0.16804 -0.40307,-0.0641 -0.0992,0.0531 -0.12853,0.0471 -0.12853,-0.0261 0,-0.0522 0.0498,-0.11404 0.11078,-0.13742 0.085,-0.0326 0.0926,-0.0607 0.0325,-0.12081 -0.0601,-0.0601 -0.11267,-0.0439 -0.22615,0.0695 -0.23953,0.23953 -0.0328,0.44494 0.34037,0.33825 0.0503,-0.0144 0.10381,0.007 0.11901,0.0485 0.0152,0.041 -0.0364,0.0914 -0.11467,0.11182 -0.0786,0.0206 -0.1227,0.0689 -0.0985,0.10813 0.0724,0.11712 0.29219,0.0801 0.36824,-0.062 z m 0.19935,-0.33225 c 0,-0.0366 -0.0317,-0.0665 -0.0704,-0.0665 -0.0387,0 -0.0519,0.0299 -0.0293,0.0665 0.0226,0.0365 0.0543,0.0664 0.0704,0.0664 0.0161,0 0.0293,-0.0299 0.0293,-0.0664 z m 0.25336,-0.48177 c -0.0156,-0.11233 0.0164,-0.15479 0.12873,-0.17074 0.0822,-0.0117 0.14951,-0.0465 0.14951,-0.0774 0,-0.0592 -0.57329,-0.39976 -0.67287,-0.39976 -0.11107,0 -0.057,0.22039 0.12466,0.5079 0.20096,0.31812 0.30203,0.37052 0.26997,0.13999 z m -10.48669,-0.34175 c 0,-0.0144 -0.0464,-0.0439 -0.10313,-0.0657 -0.0591,-0.0227 -0.0858,-0.0115 -0.0625,0.0261 0.039,0.0632 0.16566,0.0934 0.16566,0.0396 z m 10.89783,-0.0933 c 0,-0.0929 -0.52723,-0.57161 -0.5759,-0.52294 -0.0257,0.0257 0.0695,0.1658 0.21161,0.31132 0.24963,0.25564 0.36429,0.32225 0.36429,0.21162 z m 0.0739,-0.29839 c -0.13159,-0.13159 -0.0787,-0.19781 0.12542,-0.15699 0.21852,0.0437 0.28657,-0.0793 0.0745,-0.13479 -0.0686,-0.0179 -0.15771,-0.10485 -0.19793,-0.19313 -0.0917,-0.20128 -0.30123,-0.20761 -0.4374,-0.0132 -0.0981,0.14014 -0.0895,0.16121 0.17827,0.43404 0.15478,0.15772 0.29258,0.25329 0.30622,0.21238 0.0136,-0.0409 -0.008,-0.10764 -0.0491,-0.1483 z m -0.30584,-0.31206 c -0.049,-0.0793 0.0132,-0.20044 0.10293,-0.20044 0.0809,0 0.0814,0.17986 6.7e-4,0.22974 -0.034,0.021 -0.0806,0.008 -0.10359,-0.0293 z m 0.80992,-0.31877 c -0.0689,-0.0761 -0.0935,-0.17825 -0.0681,-0.28282 0.0327,-0.13452 0.0239,-0.14888 -0.049,-0.0806 -0.14978,0.14013 -0.20762,0.0932 -0.16396,-0.1329 l 0.0417,-0.21597 -0.13609,0.15688 c -0.0748,0.0863 -0.13609,0.17998 -0.13609,0.20823 0,0.0798 0.53865,0.54707 0.5814,0.50432 0.0209,-0.0209 -0.0105,-0.0916 -0.0698,-0.15713 z m 0.54016,-0.5334 c 0.0449,-0.31677 -0.34565,-0.6503 -0.55653,-0.47528 -0.15266,0.12669 -0.11426,0.37243 0.0824,0.52709 0.2258,0.17761 0.44505,0.15365 0.47418,-0.0518 z m -0.37331,-0.0504 c -0.0808,-0.0566 -0.14681,-0.14599 -0.14681,-0.19873 0,-0.14694 0.25149,-0.11392 0.33607,0.0441 0.10317,0.19278 -0.007,0.28251 -0.18926,0.15461 z m 0.58414,-0.22427 c 0,-0.0344 -0.0299,-0.081 -0.0664,-0.1036 -0.14574,-0.0901 -0.0606,-0.18157 0.1329,-0.14287 0.22166,0.0443 0.28506,-0.0797 0.0695,-0.13609 -0.0714,-0.0187 -0.17674,-0.10558 -0.23411,-0.19313 -0.13489,-0.20587 -0.2837,-0.2025 -0.37989,0.009 -0.0684,0.1502 -0.053,0.19201 0.14736,0.39871 0.22416,0.23126 0.33064,0.28549 0.33064,0.16838 z m -0.36189,-0.39683 c -0.0691,-0.11185 0.0287,-0.23272 0.11688,-0.14448 0.052,0.052 0.052,0.0925 0,0.14448 -0.052,0.052 -0.0847,0.052 -0.11688,0 z m 0.81376,-0.0855 c 0.18972,-0.18973 -0.0217,-0.47483 -0.30716,-0.41417 -0.16156,0.0343 -0.16732,0.0291 -0.0627,-0.0563 0.0634,-0.0518 0.0958,-0.11363 0.072,-0.13743 -0.0844,-0.0844 -0.21679,-0.0414 -0.28919,0.0939 -0.10701,0.19996 0.0326,0.3465 0.27866,0.29246 0.11641,-0.0256 0.18877,-0.014 0.18877,0.0303 0,0.0394 -0.0449,0.0717 -0.0997,0.0717 -0.12069,0 -0.13231,0.10865 -0.0166,0.15534 0.12994,0.0524 0.15091,0.0493 0.2359,-0.0357 z m -8.5252,-0.38582 c 0.17765,-0.19631 0.0826,-0.22718 -0.10029,-0.0326 -0.0857,0.0912 -0.12534,0.16587 -0.0881,0.16587 0.0373,0 0.12202,-0.06 0.18837,-0.13331 z m 8.87378,-0.0717 c 0.0864,-0.16145 0.0307,-0.25399 -0.0839,-0.13939 -0.13851,0.13851 -0.19682,0.0847 -0.14871,-0.13733 0.0457,-0.21068 0.0436,-0.21311 -0.0832,-0.0995 -0.14508,0.12996 -0.26012,0.0798 -0.14238,-0.0621 0.10256,-0.12358 0.0177,-0.19334 -0.10811,-0.0889 -0.14671,0.12176 -0.12699,0.20106 0.1111,0.44671 0.24656,0.25438 0.35212,0.27306 0.45516,0.0805 z m -8.24287,-0.52591 c 0.12792,-0.07 0.20919,-0.12858 0.1806,-0.13011 -0.0821,-0.004 -0.51285,0.18577 -0.51285,0.2264 0,0.0623 0.0905,0.0361 0.33225,-0.0963 z m 8.47207,-2.25883 c 0.16465,-0.20076 0.29936,-0.3992 0.29936,-0.44099 0,-0.10096 -0.61737,-0.75559 -0.71259,-0.75559 -0.0799,0 -0.68287,0.67615 -0.68287,0.76575 0,0.0754 0.6869,0.81483 0.74724,0.8044 0.0272,-0.005 0.18421,-0.17282 0.34886,-0.37357 z m -4.17932,-1.33635 c 0.24902,-0.25502 0.22349,-0.33174 -0.0609,-0.18305 -0.17221,0.09 -0.71853,0.57413 -0.80112,0.70987 -0.10438,0.17157 0.60106,-0.25955 0.86204,-0.52682 z m 2.90499,-1.7918 c 0.0577,-0.21777 0.0631,-0.22112 0.11878,-0.0743 0.0737,0.19442 0.16863,0.13872 0.22857,-0.13417 0.0412,-0.18768 0.0557,-0.1988 0.12873,-0.0989 0.11877,0.16244 0.15281,0.14224 0.23026,-0.13665 0.0933,-0.33603 0.0881,-0.76932 -0.0105,-0.86792 -0.063,-0.063 -0.0522,-0.1087 0.0498,-0.21045 0.19658,-0.19606 0.30234,-0.088 0.22795,0.23281 -0.0337,0.14526 -0.0586,0.36878 -0.0554,0.49669 0.004,0.16697 0.0312,0.10136 0.0958,-0.23257 0.17887,-0.92567 0.18971,-1.05059 0.0882,-1.01708 -0.0513,0.017 -0.12556,0.0949 -0.16496,0.17321 -0.0513,0.1019 -0.092,0.122 -0.14336,0.0707 -0.10115,-0.10114 -0.22375,0.15004 -0.27779,0.56913 -0.0421,0.32677 -0.0462,0.33203 -0.13373,0.17401 -0.0651,-0.11757 -0.0691,-0.17 -0.0143,-0.18828 0.0418,-0.0139 0.076,-0.1162 0.076,-0.22727 0,-0.16796 -0.016,-0.18862 -0.0954,-0.12277 -0.0525,0.0435 -0.11063,0.15934 -0.12925,0.25732 -0.12204,0.64231 -0.11076,0.6164 -0.22056,0.5066 -0.0925,-0.0925 -0.0913,-0.11087 0.0124,-0.18669 0.12267,-0.0897 0.1174,-0.31343 -0.008,-0.3553 -0.13248,-0.0441 -0.27319,0.88768 -0.23126,1.53147 0.0127,0.19441 0.16228,0.0899 0.2284,-0.15957 z m -0.14106,-0.22806 c -10e-4,-0.10964 0.0124,-0.16254 0.0306,-0.11755 0.0182,0.045 0.0193,0.13469 0.002,0.19935 -0.0168,0.0647 -0.0317,0.0278 -0.0331,-0.0818 z m 0.39624,-0.29903 c 0,-0.0914 0.0151,-0.12874 0.0335,-0.0831 0.0184,0.0457 0.0184,0.12044 0,0.16613 -0.0184,0.0457 -0.0335,0.008 -0.0335,-0.0831 z m 0.33225,-0.19935 c 0,-0.0914 0.0151,-0.12874 0.0335,-0.0831 0.0184,0.0457 0.0184,0.12044 0,0.16613 -0.0184,0.0457 -0.0335,0.008 -0.0335,-0.0831 z m 0.84011,-1.09642 c -0.003,-0.44207 -0.006,-0.45031 -0.0566,-0.16613 -0.0293,0.16446 -0.0517,0.50834 -0.0498,0.76418 0.003,0.44206 0.006,0.45031 0.0566,0.16612 0.0293,-0.16446 0.0517,-0.50834 0.0498,-0.76417 z"
     style="fill:#4d4d4d"
     inkscape:connector-curvature="0" />
</svg>
