<?xml version="1.0" encoding="UTF-8" standalone="no"?>
<!-- Created using Karbon, part of Calligra: http://www.calligra.org/karbon -->

<svg
   xmlns:dc="http://purl.org/dc/elements/1.1/"
   xmlns:cc="http://creativecommons.org/ns#"
   xmlns:rdf="http://www.w3.org/1999/02/22-rdf-syntax-ns#"
   xmlns:svg="http://www.w3.org/2000/svg"
   xmlns="http://www.w3.org/2000/svg"
   xmlns:xlink="http://www.w3.org/1999/xlink"
   xmlns:sodipodi="http://sodipodi.sourceforge.net/DTD/sodipodi-0.dtd"
   xmlns:inkscape="http://www.inkscape.org/namespaces/inkscape"
   width="38.4pt"
   height="38.4pt"
   id="svg2"
   version="1.1"
   inkscape:version="0.48.5 r10040"
   sodipodi:docname="vidalia.svg">
  <metadata
     id="metadata11">
    <rdf:RDF>
      <cc:Work
         rdf:about="">
        <dc:format>image/svg+xml</dc:format>
        <dc:type
           rdf:resource="http://purl.org/dc/dcmitype/StillImage" />
        <dc:title />
      </cc:Work>
    </rdf:RDF>
  </metadata>
  <sodipodi:namedview
     pagecolor="#ffffff"
     bordercolor="#666666"
     borderopacity="1"
     objecttolerance="10"
     gridtolerance="10"
     guidetolerance="10"
     inkscape:pageopacity="0"
     inkscape:pageshadow="2"
     inkscape:window-width="1920"
     inkscape:window-height="1035"
     id="namedview9"
     showgrid="false"
     inkscape:showpageshadow="false"
     borderlayer="true"
     inkscape:zoom="6.9532164"
     inkscape:cx="27.19116"
     inkscape:cy="24.714859"
     inkscape:window-x="-4"
     inkscape:window-y="29"
     inkscape:window-maximized="1"
     inkscape:current-layer="svg2">
    <sodipodi:guide
       position="9.5367432e-07,48.000001"
       orientation="47.999999,0"
       id="guide4069" />
    <sodipodi:guide
       position="9.5367432e-07,1.9073486e-06"
       orientation="0,47.999999"
       id="guide4071" />
    <sodipodi:guide
       position="48,1.9073486e-06"
       orientation="-47.999999,0"
       id="guide4073" />
    <sodipodi:guide
       position="48,48.000001"
       orientation="0,-47.999999"
       id="guide4075" />
    <sodipodi:guide
       position="4.000001,44.000001"
       orientation="39.999999,0"
       id="guide4077" />
    <sodipodi:guide
       position="4.000001,4.0000019"
       orientation="0,39.999999"
       id="guide4079" />
    <sodipodi:guide
       position="44,4.0000019"
       orientation="-39.999999,0"
       id="guide4081" />
    <sodipodi:guide
       position="44,44.000001"
       orientation="0,-39.999999"
       id="guide4083" />
  </sodipodi:namedview>
  <defs
     id="defs4">
    <linearGradient
       inkscape:collect="always"
       xlink:href="#linearGradient307"
       id="linearGradient3872"
       gradientUnits="userSpaceOnUse"
       gradientTransform="matrix(0.87084816,0,0,3.6213815,-155.87742,-125.22706)"
       x1="968.96985"
       y1="72.066681"
       x2="1021.3847"
       y2="149.19896" />
    <linearGradient
       id="linearGradient307">
      <stop
         id="stop308"
         offset="0.0000000"
         style="stop-color:#23e081;stop-opacity:1.0000000;" />
      <stop
         id="stop309"
         offset="1.0000000"
         style="stop-color:#366912;stop-opacity:1.0000000;" />
    </linearGradient>
  </defs>
  <g
     transform="matrix(0.04743231,0,0,0.04743231,2.4999061,2.4873917)"
     id="g3874">
    <path
       d="m 660.75151,417.75859 c 1.94048,-10.0307 8.52289,-17.789 16.56928,-25.74502 8.59111,-8.4946 8.74939,-18.22133 11.83519,-30.42591 3.33125,-13.17535 1.02426,-22.1447 2.36705,-32.76637 1.61374,-12.76494 0,-26.90747 0,-39.78775 0,-12.31733 2.36704,-24.21658 2.36704,-37.44729 0,-10.63512 2.36703,-19.893 2.36703,-32.76636 0,-11.56881 3.18427,-25.18796 4.73409,-37.44729 1.56703,-12.39552 6.77755,-21.67443 11.83521,-30.42593 4.46059,-7.71837 2.7714,5.48057 7.10112,14.04273 4.64111,9.17799 3.44685,-20.24386 4.73407,-30.42592 1.60534,-12.69847 3.09033,-19.76411 4.73408,-32.76636 1.4135,-11.181077 4.82464,-23.762687 7.10113,-32.766388 2.9452,-11.648496 4.00659,-19.926055 7.10112,-28.085457 7.55203,-19.91259 14.84326,-1.309563 21.30336,2.340455 4.76845,2.694232 1.29017,19.567291 2.36704,28.08547 1.52201,12.039297 0,25.277065 0,37.44728 0,10.85946 3.29142,23.69527 4.73409,35.10684 1.51713,12.00078 1.15891,23.21004 2.36703,32.76637 1.51235,11.96299 -1.03269,24.55186 -2.36703,35.10683 -1.44399,11.42199 -3.24923,21.02092 -4.73409,32.76637 -1.54435,12.21604 -3.18966,22.89028 -4.73409,35.10683 -1.64831,13.03844 -0.89496,24.34743 -2.36703,37.44728 -1.61665,14.38632 -2.89551,27.58482 -4.73409,42.12821 -1.66413,13.16362 -3.09558,24.4865 -4.73407,37.44728 -1.30745,10.34206 -5.89908,20.91753 -7.10112,30.42592 -1.52373,12.05286 -4.30688,24.05535 -7.10112,35.10683 -3.17131,12.54271 -6.39224,22.94133 -9.46816,35.10684 -3.17664,12.56382 -15.8405,10.95613 -21.30337,14.04271 -8.80354,4.9741 -19.51312,-23.36508 -21.30336,-28.08545 -5.76997,-15.21376 -8.94003,-30.59367 -14.20225,-44.46865 -2.72854,-7.19438 -6.3121,-14.04273 -9.46815,-21.0641 z"
       id="path305"
       sodipodi:nodetypes="cccccccccccccccccccccccccccccccc"
       style="fill:url(#linearGradient3872);fill-opacity:1;fill-rule:evenodd;stroke:none"
       inkscape:connector-curvature="0" />
    <path
       d="m 719.2955,165.47567 c 1.05735,2.73971 3.69374,10.43106 5.24684,14.52615 1.23525,3.257 3.85067,7.73209 5.24684,11.41341 1.56686,4.13136 2.27638,9.00324 3.14811,12.45099 1.21692,4.81304 2.11793,9.41419 3.1481,13.48857 1.14399,4.52453 0,10.87235 0,15.56372 0,3.01462 1.56518,10.30558 2.09874,14.52615 0.63629,5.03317 0,11.1322 0,14.52616 0,5.69115 -0.81543,10.48815 -2.09874,15.56374 -1.08717,4.29982 -1.63804,9.84439 -2.09873,13.48857 -0.68465,5.41569 -0.3995,10.42306 -1.04937,15.56372 -0.73258,5.79484 -0.34454,11.02607 -1.04937,16.60132 -0.74973,5.93042 -0.63759,9.78479 -2.09874,15.56374 -1.44632,5.7203 -0.31384,11.82077 -1.04937,17.6389 -0.67255,5.32005 -1.04936,9.95915 -1.04936,15.56372 0,5.99471 -1.41831,11.21906 -2.09874,16.60132 -0.68392,5.40986 -2.07647,10.28776 -3.1481,14.52615 -1.19669,4.73298 -1.42608,8.16768 -2.09874,13.48858 -0.47711,3.774 -1.04937,7.23699 -1.04937,13.48857 0,6.70579 -0.25135,7.17619 -1.04937,13.48855 -1.17029,9.25726 -0.14162,-0.0934 -3.1481,-2.07516 -3.60586,-2.3769 -5.84347,-4.74024 -8.39495,-7.26308 -4.97788,-4.92197 -0.29428,-2.03683 -1.04937,-7.26306 -0.33132,-2.29321 4.58007,-9.65528 5.24684,-11.41341 1.12788,-2.97388 2.22774,-8.2949 4.19748,-13.48857 1.74952,-4.61295 1.44464,-8.31456 2.09873,-13.48857 0.76464,-6.0484 0.87458,-9.68448 2.09874,-14.52616 1.1669,-4.61514 1.47883,-8.58496 2.09874,-13.48855 0.60164,-4.75904 1.60086,-9.55022 2.09873,-13.48857 0.69717,-5.51462 1.04937,-8.63227 1.04937,-14.52616 0,-5.26937 1.48417,-9.66473 2.09874,-14.52615 0.65875,-5.21078 1.04937,-8.62721 1.04937,-14.52616 0,-5.25408 1.04936,-8.5948 1.04936,-14.52614 0,-3.5024 1.04937,-9.52279 1.04937,-14.52615 0,-3.97212 1.04937,-8.6821 1.04937,-14.52616 0,-5.18791 0,-10.37582 0,-15.56373 0,-5.41619 0.66308,-6.16839 0,-11.41341 -0.73115,-5.78359 -1.35813,-8.66784 -2.09874,-14.52614 -0.48951,-3.87224 -1.72517,-10.53362 -2.09873,-13.48857 -0.70574,-5.58255 -2.12051,-9.42435 -3.14811,-13.48857 -1.39492,-5.51704 -1.3856,-8.8852 -2.09873,-14.52616 -0.73319,-5.79971 -0.042,-3.27845 -2.09874,-11.4134 z"
       id="path312"
       style="fill:#2d4f38;fill-opacity:1;fill-rule:evenodd;stroke:none"
       inkscape:connector-curvature="0" />
    <path
       d="m 660.91889,383.22895 c -7.7044,-7.08313 -16.72723,-12.88772 -24.06761,-17.25272 -1.25055,-4.00907 -13.96829,-8.04917 -23.11727,-14.00719 -10.98073,-7.15091 -24.80529,-11.64555 -37.86871,-16.11183 -12.73037,-4.35241 -24.32277,-6.11926 -37.86871,-9.20675 -14.43407,-3.28992 -23.50269,-4.60338 -37.86871,-4.60338 -18.9088,0 -36.57145,-2.16182 -55.54078,0 -17.65773,2.01233 -34.8711,4.77542 -52.08953,8.88 -13.08833,4.56047 -21.80079,6.92714 -31.22164,11.8352 -10.80275,5.628 -23.6701,13.11282 -35.34412,20.7152 -11.21241,7.30177 -20.06178,12.71831 -30.29499,20.71521 -10.90966,8.52554 -21.15504,16.98562 -30.29497,25.31858 -9.54238,8.69988 -22.04582,25.42525 -30.95425,38.19359 -13.38198,14.02272 -16.06802,28.46201 -22.68456,38.55864 -5.07199,10.01647 -9.56473,21.2196 -14.06831,32.16884 -5.0391,12.25121 -4.65138,11.416 -9.8096,29.36689 -3.25015,10.76177 -7.15626,26.11567 -10.84362,41.24381 -3.33653,13.68875 -4.28739,27.94747 -7.57374,41.43041 -2.63678,10.81794 -3.55621,23.6361 -5.04918,34.52533 -1.61804,11.8016 -2.52457,22.09262 -2.52457,34.52535 0,9.11211 -2.52457,20.2915 -2.52457,32.22365 0,12.35041 -5.64472,23.69759 -10.09833,34.52535 -2.46896,6.00261 -1.8483,14.13944 0,27.62026 1.09587,7.99297 13.53781,15.43825 17.67208,20.7152 6.93994,8.85814 9.51877,11.73463 15.14747,20.7152 5.88192,9.38455 18.68287,9.26464 25.24581,11.50847 11.57783,3.95834 20.61482,0.4801 32.81956,-2.30171 4.51375,-1.02881 20.71971,4.72261 30.29497,6.90507 13.82373,3.15082 22.08431,6.18449 35.34412,9.20677 12.35916,2.81698 24.78991,3.11285 37.86874,4.60336 11.37269,1.29609 27.11049,3.66506 35.34412,4.6034 14.99709,1.70911 23.29004,2.94192 37.86871,4.60338 14.69515,1.67472 30.60446,0 45.44246,0 12.07721,0 26.19143,-5.57429 37.86872,-6.90507 14.22707,-1.6214 24.70724,-7.00866 37.86871,-11.50846 11.83045,-4.04475 25.09559,-10.67121 34.21472,-15.42206 12.16349,-5.28375 17.89654,-10.00017 30.378,-15.64702 9.35007,-6.7776 18.74252,-12.43021 28.81677,-18.9908 9.49796,-7.4304 17.13831,-13.9008 25.2458,-21.2925 8.36158,-7.62333 14.63889,-15.64811 22.72124,-23.01689 9.90932,-9.03443 16.70494,-22.62468 22.72123,-32.22363 9.15153,-14.60122 16.53437,-26.38873 22.72124,-41.43043 4.58735,-11.1529 5.53418,-23.42884 10.09832,-34.52533 5.51424,-13.40639 7.34843,-26.30527 12.62292,-39.12872 4.80204,-11.67489 5.04914,-23.15853 5.04914,-36.82703 0,-13.15705 -3.36756,-26.86363 -5.04914,-39.12873 -1.77397,-12.9387 -4.27839,-24.80936 -7.57375,-36.82703 -3.30095,-12.03809 -8.36455,-25.60546 -11.22269,-36.02864 -5.61406,-11.90285 -9.91899,-19.95778 -16.54771,-28.41865 -5.96887,-7.61864 -13.1101,-15.0758 -20.97884,-23.30936 -6.3796,-7.78559 -10.63528,-11.58119 -16.85031,-17.46101 -2.12892,-3.39668 -9.50006,-9.28434 -13.44464,-13.13222 z"
       id="path117"
       sodipodi:nodetypes="cccccccccccccccccccccccccccccccccccccccccccccccccccc"
       style="fill:#da743d;fill-opacity:1;fill-rule:evenodd;stroke:none"
       inkscape:connector-curvature="0" />
    <g
       transform="matrix(1.7859156,0,0,1.7658574,-155.87742,-125.05914)"
       id="g299"
       style="fill:#8b4513;fill-opacity:1;stroke:none">
      <path
         d="m 397.09375,269.9375 c -1.69413,-0.097 -8.18428,0.38458 -9.91364,0.60074 -6.42332,0.80292 -8.5692,1.36195 -15.11761,2.18051 -7.0392,0.8799 -11.78379,1.32518 -19.25,4.125 -5.57935,2.09225 -11.09897,3.83788 -18.53125,6.625 -5.55451,2.08294 -10.25698,3.9786 -15.82278,6.06579 -8.05323,3.01995 -11.2599,4.8622 -17.65625,8.51727 -4.08124,2.33214 -10.22425,5.13724 -15.42352,9.59375 -4.13033,3.54028 -9.92728,6.2361 -14.47245,10.78125 -5.49622,5.49622 -10.87475,10.92439 -15.78495,16.65296 -3.22933,3.76756 -6.0133,4.74462 -9.51028,10.86432 -2.76396,4.83693 -6.43947,11.41311 -9.75699,17.21875 -3.8751,6.78143 -7.1696,17.03079 -10.57278,23.83716 -3.28374,6.56747 -5.29795,11.47156 -8.0625,18.84375 -2.68169,7.15115 -2.92661,12.20016 -5.3125,18.5625 -2.52533,6.73423 -4.1085,13.16433 -6.625,19.875 -2.04217,5.44577 -2.53204,8.65942 -4.09375,14.90625 -0.97814,3.91257 -2.26082,11.258 -3.875,15.5625 -1.6162,4.30986 -3.11389,10.69151 -5.09375,14.15625 -0.92353,1.61617 -2.96478,5.46886 -4.9375,9 -0.98636,1.76557 -5.12119,8.54289 -4.42009,9.84382 0.7011,1.30093 6.92285,-3.29565 5.43037,-5.39275 0.82095,-1.33977 4.18637,-5.45507 5.1912,-7.25369 2.00966,-3.59725 1.2667,-4.70913 2.05181,-6.08307 2.79136,-4.88487 6.57418,-17.70591 7.8787,-21.18461 2.00628,-5.35011 1.36539,-7.71527 2.19079,-11.01686 1.60807,-6.4323 2.47317,-11.62185 4.35074,-16.6287 2.66416,-7.10444 4.73171,-11.65461 7.10074,-17.97204 2.68748,-7.16656 3.85336,-10.7903 6.23273,-17.13529 2.73358,-7.28958 4.17465,-9.00883 7.36801,-15.39556 3.07399,-6.14801 7.74757,-12.58169 11.84375,-19.75 3.46081,-6.05639 8.60191,-13.17546 11.18421,-17.69449 2.9972,-5.24509 6.7236,-8.63067 10.28125,-12.78125 4.91502,-5.73419 7.25373,-9.04197 12.61801,-14.40625 4.3128,-4.31278 10.3678,-8.26457 14.60443,-11.89597 4.02511,-3.45008 8.30853,-6.22306 13.05881,-8.9375 6.77417,-3.87096 14.63934,-9.64657 22.04563,-12.42392 6.38514,-2.39444 8.82365,-4.31361 13.41284,-6.03455 7.28441,-2.73167 13.26716,-5.41232 19.03823,-7.57647 6.91236,-2.59213 8.37949,-1.97143 15.49631,-2.86103 6.64654,-0.83083 14.02902,-1.86603 20.35074,-2.65625 2.48659,-0.31082 7.91471,-0.0382 10.87869,0.375 2.96398,0.41322 6.23823,0.49302 8.81949,0.49302 5.88636,10e-6 15.43404,3.68604 16.22737,2.89679 0.79333,-0.78925 -1.91437,-3.45672 -3.01601,-3.65338 -1.04576,-0.26144 -4.0247,-0.48602 -6.03125,-0.48602 -2.13075,0 -6.05114,-0.95147 -11.9375,-0.95148 -1.58928,0 -3.45766,-1.42246 -6.57977,-1.85773 -1.56106,-0.21763 -4.1636,0.54851 -5.85773,0.45148 z"
         id="path199"
         sodipodi:nodetypes="ccccccccccccccccccccccccccccccccccccccccccccccccc"
         style="fill:#8b4513;fill-rule:evenodd;stroke:none"
         inkscape:connector-curvature="0" />
      <path
         d="m 430.86472,295.33306 c -9.39427,0 -15.87054,2.15966 -23.89926,3.16324 -8.13468,1.37364 -14.50112,3.26589 -20.0662,5.48972 -6.61482,1.6537 -10.09476,2.79922 -17.58676,6.54523 -4.02091,2.01046 -11.94251,4.13306 -17.75,8.28125 -8.47902,3.60978 -15.92968,7.3354 -22.77796,13.42352 -7.29572,4.16897 -14.15023,10.07746 -20.24301,16.17023 -5.66663,5.66663 -11.88673,12.64003 -16.85773,17.61102 -4.78601,4.78601 -8.06352,10.19609 -13.09704,17.24301 -3.31888,4.64643 -7.61445,10.5616 -11.68051,17.67722 -2.28913,4.00598 -7.27295,9.0508 -9.5625,15.15625 -2.3094,6.1584 -5.80561,14.72589 -9.08347,20.46216 -3.26268,5.70969 -7.78533,10.41014 -10.875,18.64927 -2.21015,5.89374 -2.82419,7.31291 -6.26028,13.32607 -3.70212,6.4787 -4.38195,9.53475 -7.75,14.25 -3.0987,4.33819 -20.00067,29.45418 -20.9375,30.625 -0.41506,0.51872 -3.89457,3.53918 -3.57794,5.46213 0.31663,1.92295 1.97288,3.33792 3.92169,3.35037 2.1384,-2e-5 10.94018,-15.24028 11.60034,-16.39556 2.31954,-4.05919 6.64527,-11.40921 10.29153,-16.51398 3.9975,-5.59648 4.81511,-8.58351 8.15625,-14.43051 3.66601,-6.41553 9.74043,-17.43008 12.02466,-23.52138 2.55751,-6.82004 7.07559,-11.41692 10.81949,-17.96875 3.5003,-6.12554 4.39677,-4.76614 6.79153,-11.15214 1.29931,-3.46481 8.28983,-11.92466 11.3787,-17.33018 3.42201,-5.98853 7.31549,-11.49121 11.24301,-16.98972 4.75032,-6.65044 10.12772,-12.69022 14.63199,-17.19449 5.89132,-5.89131 11.2037,-11.95699 15.90625,-16.65954 5.34937,-5.34936 12.58795,-10.45951 19.03125,-15.36472 3.71218,-4.56791 10.44681,-7.0766 17.28085,-11.95806 3.80724,-2.71944 12.72136,-7.30702 18.11471,-10.0037 6.63191,-3.31596 10.19747,-4.63716 17.35773,-6.42722 6.03218,-2.81634 12.36484,-6.41915 18.65296,-7.20517 8.99719,-4.39535 25.68359,-6.69268 24.98359,-5.08423 0.72723,-1.24599 1.26117,-2.70674 -0.18137,-2.68634 z"
         id="path200"
         sodipodi:nodetypes="ccccccccccccccccccccccccccccccccccc"
         style="fill:#8b4513;fill-rule:evenodd;stroke:none"
         inkscape:connector-curvature="0" />
      <path
         d="m 465.0625,338.9375 c -0.0733,0.008 -0.14624,0.0181 -0.21875,0.0313 -4.66874,0.58359 -9.94666,0.82375 -15.25,2.8125 -6.71982,2.51993 -35.35998,11.83072 -42.875,16.125 -7.00984,4.00562 -35.5039,19.70283 -42.60444,23.76028 -6.80675,3.88958 -27.30119,22.82847 -32.08306,26.92722 -7.89418,6.76645 -27.24202,27.77195 -32.125,33.46875 -5.66863,6.61342 -21.93323,30.34647 -26.86351,35.27674 -4.78616,4.78616 -17.59406,19.13532 -22.80631,25.21627 -3.73549,4.35806 -17.2607,14.84511 -19.70847,17.19778 -2.44777,2.35267 -11.06319,7.80161 -10.85609,9.44983 0.20711,1.64823 18.32128,-8.79002 19.70313,-10.17187 4.34659,-4.34657 7.49993,-8.27727 11.58676,-13.04523 4.38357,-5.19346 7.03076,-6.52377 11.58306,-13.93051 5.18213,-5.18213 13.09848,-11.20893 17.48314,-17.34745 3.11408,-4.35975 15.7968,-17.78246 21.11061,-23.98192 4.84271,-5.64981 12.71662,-14.5361 18.21217,-20.03165 6.04158,-6.04159 26.0604,-22.5045 29.75329,-25.66983 6.08379,-5.21469 15.48568,-11.92049 22.26069,-17.69489 7.50354,-4.28774 13.36253,-8.62155 18.72903,-12.45477 6.91964,-4.94261 8.64397,-5.27122 15.81909,-9.3713 6.93054,-3.96029 12.57044,-9.49541 20.4375,-11.46217 7.55659,-1.88916 12.40449,-4.75891 18.67681,-7.11102 4.18723,-1.57021 19.41319,-5.65475 24.37251,-6.27466 1.65685,-0.1467 -2.68031,-1.86505 -4.33716,-1.71835 l 0,0 z"
         id="path202"
         sodipodi:nodetypes="cccccccccccccccccccccccccc"
         style="fill:#8b4513;fill-rule:evenodd;stroke:none"
         inkscape:connector-curvature="0" />
      <path
         d="m 483.5625,381.75 c -4.61312,5.38197 -9.45962,12.59159 -14.07648,17.20847 -5.6737,5.6737 -5.86979,5.86981 -12.10033,12.10033 -5.22194,5.22195 -12.38465,15.00296 -18.51069,19.3787 -9.36649,9.6807 -20.13263,18.96292 -33.51727,26.41653 -9.93294,5.73571 -12.96001,9.52066 -24.67433,16.48643 -5.74142,3.28082 -19.15414,12.55481 -26.1834,15.19079 -6.54736,2.45526 -13.27534,4.63767 -20.0625,8.03125 -4.59501,2.29751 -30.73167,14.82907 -36.9375,17.15625 -4.89667,1.83625 -37.24489,13.3479 -40.29153,15.54852 -3.04664,2.20062 -22.88381,10.94301 -23.96338,11.34785 -1.03553,0.38833 14.16716,-3.94924 18.05713,-3.38609 2.325,-0.87188 16.38823,-9.30156 18.09046,-10.27426 2.92681,-1.67246 12.63145,-4.99473 16.83346,-6.04523 5.6795,-1.41987 26.40525,-10.70337 30.21136,-12.87829 5.30954,-3.03403 40.60501,-15.3999 47.56498,-18.00988 6.51591,-2.44347 22.66681,-11.27612 27.71997,-14.16364 6.34641,-3.62654 25.94961,-17.3372 34.51028,-25.5588 6.21997,-4.44286 21.74845,-24.68635 26.35363,-29.29154 6.23054,-6.23052 22.01607,-24.85742 29.75699,-26.67311 0.0716,-5.37688 1.55468,-12.99179 1.21915,-12.58428 z"
         id="path203"
         sodipodi:nodetypes="ccccccccccccccccccccc"
         style="fill:#8b4513;fill-rule:evenodd;stroke:none"
         inkscape:connector-curvature="0" />
    </g>
    <path
       d="m 142.34582,733.19966 c 2.98993,2.40437 5.92483,10.23626 7.42904,15.85383 1.31509,4.91129 -0.52106,9.8371 -1.06128,13.87212 -0.66461,4.96394 -3.13705,9.73376 -4.24518,13.87209 -1.15879,4.32761 -0.29351,4.84907 1.0613,9.90865 1.05237,3.9302 4.55657,6.39024 6.36776,10.89951 1.75316,4.36488 1.11119,10.095 2.12257,13.87212 1.55511,5.80757 5.62219,5.80801 11.67423,7.9269 4.95719,1.73559 6.0315,3.59767 9.55163,5.94518 1.47413,0.98309 3.84806,10.90169 4.24518,11.8904 0.54886,1.36651 8.89557,7.31438 9.55162,7.92691 2.64283,2.46743 6.89202,3.59038 12.73551,4.95432 2.90042,0.677 8.31544,5.3681 11.67423,6.93604 3.6684,1.7125 12.25776,-3.05304 14.85808,-3.96343 5.92628,-2.07488 10.45888,-1.22061 16.98069,-1.98175 5.85067,-0.6828 12.48712,0.3426 18.04197,0.99088 5.63177,0.65724 10.42111,3.15313 12.73551,3.96346 3.37801,1.18269 -1.67509,-6.56637 -2.12258,-9.90865 -0.27314,-2.04009 -16.13301,1.78387 -16.98067,1.98172 -5.45428,1.27308 -10.34383,2.32191 -15.91939,2.97259 -7.25907,0.84717 -5.02546,0.89979 -12.73553,0 -4.67141,-0.54517 7.28929,-7.71079 9.55165,-8.91777 6.03224,-3.21826 8.22795,-3.71849 13.79681,-8.91778 6.97819,-6.51514 4.21967,-1.79128 5.30646,-9.90865 0.44097,-3.29371 -7.08511,-1.40258 -10.61293,-0.99087 -4.37745,0.51088 -7.02535,7.00291 -8.49034,8.91777 -3.73117,4.877 -7.06138,3.42513 -11.67423,3.96347 -1.61887,0.18893 -4.67191,-9.31968 -5.30644,-10.89949 -0.74743,-1.86084 9.66129,-4.4845 11.6742,-4.95434 9.13985,-2.13332 -0.8095,-6.04623 -1.0613,-7.9269 -0.58669,-4.38219 -7.0624,4.07872 -8.49033,5.94518 -3.45701,4.51865 -9.22931,4.63137 -14.8581,5.94518 -9.05905,2.11446 -5.8661,0.69231 -12.73551,-2.97259 -7.09598,-3.78577 -1.44434,-6.06826 -2.12258,-8.91777 -0.0359,-0.15063 9.59096,-7.96365 10.61293,-8.91779 4.06844,-3.79847 -9.3902,2.63067 -11.67423,3.96345 -6.52366,3.80671 -8.36801,-1.05085 -12.7355,-3.96345 -2.12478,-1.41698 3.2297,-9.99424 4.24515,-11.89039 3.02082,-5.64069 5.26811,-10.5891 8.49035,-15.85383 2.65722,-4.34152 9.36881,-7.38033 11.67423,-8.91777 2.65402,-1.76994 -4.59725,-4.43439 -7.42905,-5.94519 -2.90385,-1.54924 -5.75842,8.62387 -6.36776,10.89951 -1.58477,5.9184 -5.6573,11.22501 -8.49034,15.85383 -3.21171,5.2475 -7.21029,7.18563 -10.61293,9.90864 -5.13394,4.10849 -5.23967,-10.40057 -5.30646,-10.89949 -0.69472,-5.18898 2.3575,-9.79509 3.18388,-12.88124 1.15882,-4.32773 3.78514,-8.19065 5.30646,-13.87212 2.71515,-10.13991 -6.37846,1.25605 -7.42906,2.97259 -2.51687,4.11228 -2.54302,10.07641 -3.18388,14.86297 -0.99956,7.46582 -4.87644,5.43268 -9.55163,7.92692 -3.5338,1.88532 0.61238,-13.74527 1.0613,-14.86296 1.82764,-4.5503 1.0613,-10.64704 1.0613,-15.85384 0,-5.85713 -2.60594,-10.78174 -4.24517,-14.86297 -3.4517,-8.59367 -8.64851,-5.46337 -9.55164,-5.9452 z"
       id="path152"
       style="fill:#342f2c;fill-opacity:0.62541809;fill-rule:evenodd;stroke:none"
       inkscape:connector-curvature="0" />
    <path
       d="m 137.03937,726.91376 c 2.98993,2.54633 5.92483,10.84067 7.42903,16.78997 1.3151,5.20128 -0.52105,10.41794 -1.06128,14.69123 -0.66461,5.25706 -3.13705,10.30851 -4.24517,14.69121 -1.15879,4.58313 -0.29352,5.13539 1.0613,10.49373 1.05236,4.16226 4.55656,6.76756 6.36775,11.54311 1.75316,4.6226 1.1112,10.69107 2.12258,14.69122 1.5551,6.1505 5.62219,6.15096 11.67423,8.39498 4.95718,1.83806 6.03149,3.8101 9.55163,6.29623 1.47413,1.04113 3.84806,11.54539 4.24517,12.59249 0.54886,1.44721 8.89558,7.74629 9.55164,8.39498 2.64281,2.61313 6.892,3.8024 12.7355,5.24685 2.90042,0.71698 8.31544,5.68509 11.67423,7.34562 3.66839,1.8136 12.25775,-3.23332 14.85808,-4.19748 5.92627,-2.1974 10.45887,-1.29268 16.98068,-2.09876 5.85068,-0.72312 12.48713,0.36281 18.04199,1.04938 5.63175,0.69606 10.4211,3.33932 12.7355,4.19749 3.378,1.25253 -1.6751,-6.9541 -2.12258,-10.49373 -0.27313,-2.16054 -16.13301,1.88921 -16.98068,2.09874 -5.45428,1.34825 -10.34383,2.45901 -15.91939,3.14812 -7.25907,0.8972 -5.02545,0.95293 -12.73552,0 -4.67142,-0.57736 7.28928,-8.1661 9.55165,-9.44435 6.03223,-3.40828 8.22794,-3.93806 13.7968,-9.44436 6.9782,-6.89984 4.21967,-1.89706 5.30646,-10.49373 0.44098,-3.4882 -7.08511,-1.4854 -10.61293,-1.04937 -4.37744,0.54104 -7.02534,7.4164 -8.49033,9.44435 -3.73117,5.16497 -7.06139,3.62737 -11.67422,4.19749 -1.61889,0.20009 -4.67193,-9.86999 -5.30646,-11.54309 -0.74743,-1.97071 9.6613,-4.74929 11.6742,-5.24687 9.13986,-2.25929 -0.8095,-6.40325 -1.0613,-8.39498 -0.58669,-4.64093 -7.0624,4.31957 -8.49032,6.29624 -3.45702,4.78547 -9.22931,4.90484 -14.85811,6.29623 -9.05904,2.23932 -5.86608,0.73319 -12.73551,-3.14811 -7.09597,-4.00931 -1.44434,-6.42658 -2.12258,-9.44436 -0.0359,-0.15963 9.59096,-8.43387 10.61293,-9.44437 4.06845,-4.02274 -9.39019,2.78601 -11.67423,4.1975 -6.52366,4.03149 -8.36801,-1.1129 -12.7355,-4.1975 -2.12478,-1.50064 3.2297,-10.58437 4.24516,-12.59247 3.02082,-5.97377 5.26811,-11.21438 8.49034,-16.78996 2.65722,-4.59789 9.36882,-7.81613 11.67423,-9.44436 2.65402,-1.87444 -4.59724,-4.69622 -7.42905,-6.29623 -2.90384,-1.64071 -5.75841,9.13308 -6.36776,11.54309 -1.58475,6.26788 -5.65729,11.88782 -8.49034,16.78997 -3.2117,5.55734 -7.21027,7.60992 -10.61293,10.49373 -5.13394,4.35109 -5.23966,-11.01471 -5.30645,-11.54309 -0.69473,-5.49537 2.35749,-10.37346 3.18387,-13.64185 1.15883,-4.58327 3.78514,-8.67428 5.30646,-14.69123 2.71516,-10.73866 -6.37845,1.33022 -7.42905,3.14812 -2.51688,4.35508 -2.54302,10.67139 -3.18388,15.74059 -0.99956,7.90666 -4.87644,5.75346 -9.55163,8.39499 -3.53381,1.99663 0.61237,-14.5569 1.0613,-15.74059 1.82763,-4.81897 1.06129,-11.27572 1.06129,-16.78997 0,-6.20298 -2.60593,-11.41837 -4.24517,-15.7406 -3.45169,-9.10111 -8.64851,-5.78596 -9.55163,-6.29624 z"
       id="path143"
       style="fill:#6a340c;fill-opacity:1;fill-rule:evenodd;stroke:none"
       inkscape:connector-curvature="0" />
  </g>
</svg>
