<?xml version="1.0" encoding="UTF-8" standalone="no"?>
<!-- Created with Inkscape (http://www.inkscape.org/) -->

<svg
   xmlns:dc="http://purl.org/dc/elements/1.1/"
   xmlns:cc="http://creativecommons.org/ns#"
   xmlns:rdf="http://www.w3.org/1999/02/22-rdf-syntax-ns#"
   xmlns:svg="http://www.w3.org/2000/svg"
   xmlns="http://www.w3.org/2000/svg"
   xmlns:xlink="http://www.w3.org/1999/xlink"
   xmlns:sodipodi="http://sodipodi.sourceforge.net/DTD/sodipodi-0.dtd"
   xmlns:inkscape="http://www.inkscape.org/namespaces/inkscape"
   width="48"
   height="48"
   id="svg2"
   version="1.1"
   inkscape:version="0.48.5 r10040"
   sodipodi:docname="vim.svg"
   inkscape:export-filename="/home/uri/workspace/NitruxforAndroid/res/drawable-xhdpi/downloads.png"
   inkscape:export-xdpi="180"
   inkscape:export-ydpi="180">
  <defs
     id="defs4">
    <clipPath
       id="clipPath-162844874">
      <g
         transform="translate(0,-1004.3622)"
         id="g17">
        <path
           style="fill:#1890d0"
           inkscape:connector-curvature="0"
           d="m -24,13 c 0,1.105 -0.672,2 -1.5,2 -0.828,0 -1.5,-0.895 -1.5,-2 0,-1.105 0.672,-2 1.5,-2 0.828,0 1.5,0.895 1.5,2 z"
           transform="matrix(15.333333,0,0,11.5,414.99999,878.8622)"
           id="path19" />
      </g>
    </clipPath>
    <clipPath
       id="clipPath-156981671">
      <g
         transform="translate(0,-1004.3622)"
         id="g12">
        <path
           style="fill:#1890d0"
           inkscape:connector-curvature="0"
           d="m -24,13 c 0,1.105 -0.672,2 -1.5,2 -0.828,0 -1.5,-0.895 -1.5,-2 0,-1.105 0.672,-2 1.5,-2 0.828,0 1.5,0.895 1.5,2 z"
           transform="matrix(15.333333,0,0,11.5,414.99999,878.8622)"
           id="path14" />
      </g>
    </clipPath>
    <linearGradient
       id="linearGradient3764"
       x1="1"
       x2="47"
       gradientUnits="userSpaceOnUse"
       gradientTransform="matrix(0,-1,1,0,-1.5e-6,47.999998)">
      <stop
         stop-color="#239523"
         stop-opacity="1"
         id="stop7" />
      <stop
         offset="1"
         stop-color="#27a427"
         stop-opacity="1"
         id="stop9" />
    </linearGradient>
  </defs>
  <sodipodi:namedview
     id="base"
     pagecolor="#ffffff"
     bordercolor="#666666"
     borderopacity="1.0"
     inkscape:pageopacity="0.0"
     inkscape:pageshadow="2"
     inkscape:zoom="4.47369"
     inkscape:cx="14.188341"
     inkscape:cy="3.1756012"
     inkscape:document-units="px"
     inkscape:current-layer="layer1"
     showgrid="false"
     inkscape:window-width="1920"
     inkscape:window-height="1025"
     inkscape:window-x="-4"
     inkscape:window-y="39"
     inkscape:window-maximized="1"
     showguides="true"
     inkscape:object-paths="true"
     inkscape:snap-intersection-paths="true"
     inkscape:snap-smooth-nodes="true">
    <inkscape:grid
       type="xygrid"
       id="grid3850" />
    <sodipodi:guide
       position="4,44.000017"
       orientation="40,0"
       id="guide4110" />
    <sodipodi:guide
       position="4,4.0000174"
       orientation="0,40"
       id="guide4112" />
    <sodipodi:guide
       position="44,4.0000174"
       orientation="-40,0"
       id="guide4114" />
    <sodipodi:guide
       position="44,44.000017"
       orientation="0,-40"
       id="guide4116" />
    <sodipodi:guide
       position="8.999999,39.000017"
       orientation="30,0"
       id="guide4124" />
    <sodipodi:guide
       position="8.999999,9.0000174"
       orientation="0,30.000001"
       id="guide4126" />
    <sodipodi:guide
       position="39,9.0000174"
       orientation="-30,0"
       id="guide4128" />
    <sodipodi:guide
       position="39,39.000017"
       orientation="0,-30.000001"
       id="guide4130" />
    <sodipodi:guide
       position="14.999999,33.000017"
       orientation="18,0"
       id="guide4134" />
    <sodipodi:guide
       position="14.999999,15.000017"
       orientation="0,18.000001"
       id="guide4136" />
    <sodipodi:guide
       position="33,15.000017"
       orientation="-18,0"
       id="guide4138" />
    <sodipodi:guide
       position="33,33.000017"
       orientation="0,-18.000001"
       id="guide4140" />
  </sodipodi:namedview>
  <metadata
     id="metadata7">
    <rdf:RDF>
      <cc:Work
         rdf:about="">
        <dc:format>image/svg+xml</dc:format>
        <dc:type
           rdf:resource="http://purl.org/dc/dcmitype/StillImage" />
        <dc:title />
      </cc:Work>
    </rdf:RDF>
  </metadata>
  <g
     inkscape:label="Capa 1"
     inkscape:groupmode="layer"
     id="layer1"
     transform="translate(0,-1004.3622)">
    <g
       transform="matrix(0.85110005,0,0,0.85110638,3.1489,1007.5091)"
       id="g21">
      <path
         style="opacity:0.05"
         inkscape:connector-curvature="0"
         d="m 36.31,5 c 5.859,4.062 9.688,10.831 9.688,18.5 0,12.426 -10.07,22.5 -22.5,22.5 -7.669,0 -14.438,-3.828 -18.5,-9.688 1.037,1.822 2.306,3.499 3.781,4.969 4.085,3.712 9.514,5.969 15.469,5.969 12.703,0 23,-10.298 23,-23 0,-5.954 -2.256,-11.384 -5.969,-15.469 C 39.81,7.306 38.132,6.037 36.31,5 z m 4.969,3.781 c 3.854,4.113 6.219,9.637 6.219,15.719 0,12.703 -10.297,23 -23,23 -6.081,0 -11.606,-2.364 -15.719,-6.219 4.16,4.144 9.883,6.719 16.219,6.719 12.703,0 23,-10.298 23,-23 0,-6.335 -2.575,-12.06 -6.719,-16.219 z"
         id="path23" />
      <path
         style="opacity:0.1"
         inkscape:connector-curvature="0"
         d="m 41.28,8.781 c 3.712,4.085 5.969,9.514 5.969,15.469 0,12.703 -10.297,23 -23,23 -5.954,0 -11.384,-2.256 -15.469,-5.969 4.113,3.854 9.637,6.219 15.719,6.219 12.703,0 23,-10.298 23,-23 0,-6.081 -2.364,-11.606 -6.219,-15.719 z"
         id="path25" />
      <path
         style="opacity:0.2"
         inkscape:connector-curvature="0"
         d="M 31.25,2.375 C 39.865,5.529 46,13.792 46,23.505 c 0,12.426 -10.07,22.5 -22.5,22.5 -9.708,0 -17.971,-6.135 -21.12,-14.75 a 23,23 0 0 0 44.875,-7 23,23 0 0 0 -16,-21.875 z"
         id="path27" />
    </g>
    <g
       transform="matrix(0.85110005,0,0,0.85110638,3.1489,1007.5091)"
       id="g29">
      <path
         style="fill:url(#linearGradient3764);fill-opacity:1"
         inkscape:connector-curvature="0"
         d="M 24,1 C 36.703,1 47,11.297 47,24 47,36.703 36.703,47 24,47 11.297,47 1,36.703 1,24 1,11.297 11.297,1 24,1 z"
         id="path31" />
    </g>
    <g
       transform="matrix(0.85110005,0,0,0.85110638,3.1489,1007.5091)"
       id="g35">
      <g
         clip-path="url(#clipPath-156981671)"
         id="g37">
        <g
           transform="translate(1,1)"
           id="g39">
          <g
             style="opacity:0.1"
             id="g41">
            <!-- color: #27a427 -->
            <g
               id="g43">
              <use
                 height="1052.3622"
                 width="744.09448"
                 y="0"
                 x="0"
                 xlink:href="#SVGCleanerId_0"
                 id="use45" />
              <path
                 style="fill:#000000;fill-opacity:1;fill-rule:nonzero;stroke:none"
                 inkscape:connector-curvature="0"
                 d="m 27.305,14.07 -0.336,0.305 0,1.121 0.293,0.27 1.563,0 0,1.082 -10.328,9.48 0,-10.547 1.715,0 0.352,-0.32 0,-1.133 -0.324,-0.23 -9.04,0 -0.293,0.27 0,1.16 0.297,0.27 1.574,0 0,19.426 0.293,0.27 1.785,0 21.652,-20.223 0,-0.891 -0.336,-0.305 -8.867,0 m -0.004,-0.004"
                 id="path47" />
              <path
                 style="fill:#000000;fill-opacity:1;fill-rule:nonzero;stroke:none"
                 inkscape:connector-curvature="0"
                 d="m 25,26.23 c -0.016,0.004 -0.031,0.008 -0.043,0.02 l -0.418,0.324 c -0.012,0.012 -0.023,0.023 -0.027,0.039 l -0.418,1.063 c -0.016,0.031 -0.004,0.066 0.02,0.09 l 0.32,0.289 c 0.02,0.02 0.043,0.027 0.07,0.027 l 1.293,0 c 0.027,0 0.051,-0.008 0.07,-0.027 l 0.336,-0.305 c 0.012,-0.012 0.02,-0.023 0.027,-0.039 l 0.359,-1.117 c 0.008,-0.031 0,-0.066 -0.027,-0.086 l -0.277,-0.254 c -0.02,-0.016 -0.043,-0.023 -0.07,-0.023 l -1.195,0 c -0.004,0 -0.012,0 -0.02,0 m -2.367,2.992 c -0.039,0.008 -0.066,0.031 -0.074,0.066 l -0.16,0.574 c -0.008,0.023 0,0.055 0.016,0.074 0.02,0.02 0.047,0.035 0.078,0.035 l 0.762,0 -1.887,4.875 c -0.012,0.027 -0.008,0.059 0.012,0.078 0.016,0.023 0.047,0.039 0.078,0.039 l 2.746,0 c 0.043,0 0.082,-0.023 0.094,-0.059 l 0.18,-0.527 c 0.008,-0.027 0.004,-0.055 -0.016,-0.078 -0.016,-0.02 -0.047,-0.035 -0.078,-0.035 l -0.621,0 1.867,-4.926 c 0.012,-0.027 0.008,-0.059 -0.012,-0.082 -0.02,-0.023 -0.047,-0.035 -0.078,-0.035 l -2.887,0 c -0.008,0 -0.016,0 -0.02,0 m 8.742,0.02 c -0.023,0.004 -0.043,0.012 -0.055,0.027 l -0.574,0.586 -0.906,0 -0.609,-0.57 c -0.016,-0.016 -0.043,-0.027 -0.066,-0.027 l -2.172,0 c -0.039,0 -0.078,0.023 -0.09,0.059 l -0.199,0.539 c -0.012,0.027 -0.008,0.055 0.012,0.078 0.02,0.023 0.047,0.039 0.078,0.039 l 0.582,0 -1.809,4.824 c -0.012,0.023 -0.004,0.055 0.012,0.078 0.02,0.023 0.047,0.035 0.078,0.035 l 2.313,0 c 0.039,0 0.078,-0.023 0.09,-0.059 l 0.18,-0.469 c 0.008,-0.027 0.004,-0.055 -0.016,-0.078 -0.016,-0.023 -0.047,-0.039 -0.078,-0.039 l -0.402,0 1.152,-3.285 2.086,0 -1.316,3.816 c -0.008,0.027 0,0.059 0.023,0.078 0.02,0.023 0.047,0.035 0.078,0.035 l 2.227,0 c 0.039,0 0.074,-0.02 0.09,-0.051 l 0.199,-0.434 c 0.012,-0.027 0.008,-0.066 -0.008,-0.082 -0.02,-0.023 -0.051,-0.039 -0.082,-0.039 l -0.402,0 1.176,-3.34 1.98,0 -1.332,3.832 c -0.012,0.02 -0.004,0.059 0.012,0.07 0.023,0.023 0.055,0.035 0.082,0.035 l 2.445,0 c 0.043,0 0.078,-0.02 0.094,-0.055 l 0.199,-0.469 c 0.012,-0.027 0.004,-0.059 -0.012,-0.082 -0.023,-0.023 -0.047,-0.039 -0.082,-0.039 l -0.484,0 1.48,-4.336 c 0.012,-0.027 0.004,-0.059 -0.023,-0.082 l -0.457,-0.555 c -0.02,-0.023 -0.047,-0.035 -0.078,-0.035 l -1.754,0 c -0.02,0 -0.051,0.012 -0.063,0.027 l -0.559,0.547 -0.969,0 -0.563,-0.566 C 32.86,29.239 32.84,29.228 32.813,29.232 l -1.414,0 c -0.004,-0.004 -0.012,-0.004 -0.023,0 m 0.008,0"
                 id="path49" />
              <path
                 style="fill:#000000;fill-opacity:1;fill-rule:nonzero;stroke:none"
                 inkscape:connector-curvature="0"
                 d="m 25.02,26.316 -0.418,0.324 -0.418,1.063 0.32,0.289 1.293,0 0.34,-0.305 0.359,-1.117 -0.281,-0.254 m -3.563,2.992 -0.16,0.578 0.895,0 -1.93,4.992 2.746,0 0.18,-0.523 -0.754,0 1.91,-5.05 m 5.855,0.02 -0.602,0.613 -0.992,0 -0.637,-0.598 -2.172,0 -0.199,0.543 0.719,0 -1.855,4.938 2.313,0 0.176,-0.469 -0.535,0 1.215,-3.461 2.289,0 -1.355,3.93 2.23,0 0.199,-0.434 -0.535,0 1.234,-3.512 2.188,0 -1.375,3.945 2.449,0 0.199,-0.469 -0.617,0 1.516,-4.453 -0.457,-0.559 -1.754,0 -0.578,0.578 -1.055,0 -0.598,-0.594 -1.414,0 m 0.004,0"
                 id="path51" />
            </g>
          </g>
        </g>
      </g>
    </g>
    <g
       transform="matrix(0.85110005,0,0,0.85110638,3.1489,1007.5091)"
       id="g53">
      <g
         clip-path="url(#clipPath-162844874)"
         id="g55">
        <!-- color: #27a427 -->
        <g
           id="g57">
          <path
             style="fill:#000000;fill-opacity:0.50199998;fill-rule:nonzero;stroke:none"
             inkscape:connector-curvature="0"
             d="m 23.375,35.953 c -2.738,-0.676 -9.06,-6.695 -10.961,-10.434 -0.613,-1.211 -0.613,-1.895 0,-3.102 0.844,-1.668 2.57,-3.801 4.895,-6.05 2.996,-2.898 5.27,-4.391 6.695,-4.391 1.473,0 3.949,1.668 7.121,4.781 2.598,2.563 4.344,4.918 4.809,6.492 0.215,0.734 0.168,1.195 -0.223,2.082 -1.324,3.01 -7.125,8.844 -10.207,10.285 -0.836,0.391 -1.488,0.492 -2.113,0.34 m -0.016,-0.004"
             id="SVGCleanerId_0" />
          <path
             style="fill:#ffffff;fill-opacity:1;fill-rule:nonzero;stroke:none"
             inkscape:connector-curvature="0"
             d="m 27.305,14.07 -0.336,0.305 0,1.121 0.293,0.27 1.563,0 0,1.082 -10.328,9.48 0,-10.547 1.715,0 0.352,-0.32 0,-1.133 -0.324,-0.23 -9.04,0 -0.293,0.27 0,1.16 0.297,0.27 1.574,0 0,19.426 0.293,0.27 1.785,0 21.652,-20.223 0,-0.891 -0.336,-0.305 -8.867,0 m -0.004,-0.004"
             id="path60" />
          <path
             style="fill:#ffffff;fill-opacity:1;fill-rule:nonzero;stroke:none"
             inkscape:connector-curvature="0"
             d="m 25,26.23 c -0.016,0.004 -0.031,0.008 -0.043,0.02 l -0.418,0.324 c -0.012,0.012 -0.023,0.023 -0.027,0.039 l -0.418,1.063 c -0.016,0.031 -0.004,0.066 0.02,0.09 l 0.32,0.289 c 0.02,0.02 0.043,0.027 0.07,0.027 l 1.293,0 c 0.027,0 0.051,-0.008 0.07,-0.027 l 0.336,-0.305 c 0.012,-0.012 0.02,-0.023 0.027,-0.039 l 0.359,-1.117 c 0.008,-0.031 0,-0.066 -0.027,-0.086 l -0.277,-0.254 c -0.02,-0.016 -0.043,-0.023 -0.07,-0.023 l -1.195,0 c -0.004,0 -0.012,0 -0.02,0 m -2.367,2.992 c -0.039,0.008 -0.066,0.031 -0.074,0.066 l -0.16,0.574 c -0.008,0.023 0,0.055 0.016,0.074 0.02,0.02 0.047,0.035 0.078,0.035 l 0.762,0 -1.887,4.875 c -0.012,0.027 -0.008,0.059 0.012,0.078 0.016,0.023 0.047,0.039 0.078,0.039 l 2.746,0 c 0.043,0 0.082,-0.023 0.094,-0.059 l 0.18,-0.527 c 0.008,-0.027 0.004,-0.055 -0.016,-0.078 -0.016,-0.02 -0.047,-0.035 -0.078,-0.035 l -0.621,0 1.867,-4.926 c 0.012,-0.027 0.008,-0.059 -0.012,-0.082 -0.02,-0.023 -0.047,-0.035 -0.078,-0.035 l -2.887,0 c -0.008,0 -0.016,0 -0.02,0 m 8.742,0.02 c -0.023,0.004 -0.043,0.012 -0.055,0.027 l -0.574,0.586 -0.906,0 -0.609,-0.57 c -0.016,-0.016 -0.043,-0.027 -0.066,-0.027 l -2.172,0 c -0.039,0 -0.078,0.023 -0.09,0.059 l -0.199,0.539 c -0.012,0.027 -0.008,0.055 0.012,0.078 0.02,0.023 0.047,0.039 0.078,0.039 l 0.582,0 -1.809,4.824 c -0.012,0.023 -0.004,0.055 0.012,0.078 0.02,0.023 0.047,0.035 0.078,0.035 l 2.313,0 c 0.039,0 0.078,-0.023 0.09,-0.059 l 0.18,-0.469 c 0.008,-0.027 0.004,-0.055 -0.016,-0.078 -0.016,-0.023 -0.047,-0.039 -0.078,-0.039 l -0.402,0 1.152,-3.285 2.086,0 -1.316,3.816 c -0.008,0.027 0,0.059 0.023,0.078 0.02,0.023 0.047,0.035 0.078,0.035 l 2.227,0 c 0.039,0 0.074,-0.02 0.09,-0.051 l 0.199,-0.434 c 0.012,-0.027 0.008,-0.066 -0.008,-0.082 -0.02,-0.023 -0.051,-0.039 -0.082,-0.039 l -0.402,0 1.176,-3.34 1.98,0 -1.332,3.832 c -0.012,0.02 -0.004,0.059 0.012,0.07 0.023,0.023 0.055,0.035 0.082,0.035 l 2.445,0 c 0.043,0 0.078,-0.02 0.094,-0.055 l 0.199,-0.469 c 0.012,-0.027 0.004,-0.059 -0.012,-0.082 -0.023,-0.023 -0.047,-0.039 -0.082,-0.039 l -0.484,0 1.48,-4.336 c 0.012,-0.027 0.004,-0.059 -0.023,-0.082 l -0.457,-0.555 c -0.02,-0.023 -0.047,-0.035 -0.078,-0.035 l -1.754,0 c -0.02,0 -0.051,0.012 -0.063,0.027 l -0.559,0.547 -0.969,0 -0.563,-0.566 C 32.86,29.239 32.84,29.228 32.813,29.232 l -1.414,0 c -0.004,-0.004 -0.012,-0.004 -0.023,0 m 0.008,0"
             id="path62" />
          <path
             style="fill:#ffffff;fill-opacity:1;fill-rule:nonzero;stroke:none"
             inkscape:connector-curvature="0"
             d="m 25.02,26.316 -0.418,0.324 -0.418,1.063 0.32,0.289 1.293,0 0.34,-0.305 0.359,-1.117 -0.281,-0.254 m -3.563,2.992 -0.16,0.578 0.895,0 -1.93,4.992 2.746,0 0.18,-0.523 -0.754,0 1.91,-5.05 m 5.855,0.02 -0.602,0.613 -0.992,0 -0.637,-0.598 -2.172,0 -0.199,0.543 0.719,0 -1.855,4.938 2.313,0 0.176,-0.469 -0.535,0 1.215,-3.461 2.289,0 -1.355,3.93 2.23,0 0.199,-0.434 -0.535,0 1.234,-3.512 2.188,0 -1.375,3.945 2.449,0 0.199,-0.469 -0.617,0 1.516,-4.453 -0.457,-0.559 -1.754,0 -0.578,0.578 -1.055,0 -0.598,-0.594 -1.414,0 m 0.004,0"
             id="path64" />
        </g>
      </g>
    </g>
    <g
       transform="matrix(0.85110005,0,0,0.85110638,3.1489,1007.5091)"
       id="g66">
      <path
         style="opacity:0.1"
         inkscape:connector-curvature="0"
         d="m 40.03,7.531 c 3.712,4.084 5.969,9.514 5.969,15.469 0,12.703 -10.297,23 -23,23 C 17.045,46 11.615,43.744 7.53,40.031 11.708,44.322 17.54,47 23.999,47 c 12.703,0 23,-10.298 23,-23 0,-6.462 -2.677,-12.291 -6.969,-16.469 z"
         id="path68" />
    </g>
  </g>
</svg>
