<?xml version="1.0" encoding="UTF-8" standalone="no"?>
<!-- Created with Inkscape (http://www.inkscape.org/) -->

<svg
   xmlns:dc="http://purl.org/dc/elements/1.1/"
   xmlns:cc="http://creativecommons.org/ns#"
   xmlns:rdf="http://www.w3.org/1999/02/22-rdf-syntax-ns#"
   xmlns:svg="http://www.w3.org/2000/svg"
   xmlns="http://www.w3.org/2000/svg"
   xmlns:sodipodi="http://sodipodi.sourceforge.net/DTD/sodipodi-0.dtd"
   xmlns:inkscape="http://www.inkscape.org/namespaces/inkscape"
   width="48"
   height="48"
   id="svg2"
   version="1.1"
   inkscape:version="0.91 r13725"
   sodipodi:docname="warzone2100.svg">
  <defs
     id="defs4">
    <clipPath
       id="clipPath-849059674">
      <g
         transform="translate(0,-1004.3622)"
         id="g17">
        <path
           style="fill:#1890d0"
           inkscape:connector-curvature="0"
           d="m -24,13 c 0,1.105 -0.672,2 -1.5,2 -0.828,0 -1.5,-0.895 -1.5,-2 0,-1.105 0.672,-2 1.5,-2 0.828,0 1.5,0.895 1.5,2 z"
           transform="matrix(15.333333,0,0,11.5,414.99999,878.8622)"
           id="path19" />
      </g>
    </clipPath>
    <clipPath
       id="clipPath-840401912">
      <g
         transform="translate(0,-1004.3622)"
         id="g12">
        <path
           style="fill:#1890d0"
           inkscape:connector-curvature="0"
           d="m -24,13 c 0,1.105 -0.672,2 -1.5,2 -0.828,0 -1.5,-0.895 -1.5,-2 0,-1.105 0.672,-2 1.5,-2 0.828,0 1.5,0.895 1.5,2 z"
           transform="matrix(15.333333,0,0,11.5,414.99999,878.8622)"
           id="path14" />
      </g>
    </clipPath>
    <linearGradient
       id="linearGradient3764"
       x1="1"
       x2="47"
       gradientUnits="userSpaceOnUse"
       gradientTransform="matrix(0,-1,1,0,-1.5e-6,47.999998)">
      <stop
         stop-color="#0077b4"
         stop-opacity="1"
         id="stop7" />
      <stop
         offset="1"
         stop-color="#0084c8"
         stop-opacity="1"
         id="stop9" />
    </linearGradient>
  </defs>
  <sodipodi:namedview
     id="base"
     pagecolor="#ffffff"
     bordercolor="#666666"
     borderopacity="1.0"
     inkscape:pageopacity="0.0"
     inkscape:pageshadow="2"
     inkscape:zoom="12.154468"
     inkscape:cx="-3.246519"
     inkscape:cy="28.060106"
     inkscape:document-units="px"
     inkscape:current-layer="layer1"
     showgrid="false"
     fit-margin-top="0"
     fit-margin-left="0"
     fit-margin-right="0"
     fit-margin-bottom="0"
     inkscape:window-width="1920"
     inkscape:window-height="992"
     inkscape:window-x="-4"
     inkscape:window-y="26"
     inkscape:window-maximized="1"
     showguides="true">
    <sodipodi:guide
       position="8.9999928,39"
       orientation="30,0"
       id="guide3292" />
    <sodipodi:guide
       position="8.9999928,9"
       orientation="0,30"
       id="guide3294" />
    <sodipodi:guide
       position="38.999993,9"
       orientation="-30,0"
       id="guide3296" />
    <sodipodi:guide
       position="38.999993,39"
       orientation="0,-30"
       id="guide3298" />
    <sodipodi:guide
       position="1.9999928,43.999573"
       orientation="40,0"
       id="guide3304" />
    <sodipodi:guide
       position="1.9999928,3.9995728"
       orientation="0,43.999985"
       id="guide3306" />
    <sodipodi:guide
       position="45.999978,3.9995728"
       orientation="-40,0"
       id="guide3308" />
    <sodipodi:guide
       position="45.999978,43.999573"
       orientation="0,-43.999985"
       id="guide3310" />
    <sodipodi:guide
       position="4.000008,43.999573"
       orientation="40,0"
       id="guide3351" />
    <sodipodi:guide
       position="44.000008,3.9995728"
       orientation="-40,0"
       id="guide3355" />
    <sodipodi:guide
       position="44.000008,43.999573"
       orientation="0,-40"
       id="guide3357" />
  </sodipodi:namedview>
  <metadata
     id="metadata7">
    <rdf:RDF>
      <cc:Work
         rdf:about="">
        <dc:format>image/svg+xml</dc:format>
        <dc:type
           rdf:resource="http://purl.org/dc/dcmitype/StillImage" />
        <dc:title />
      </cc:Work>
    </rdf:RDF>
  </metadata>
  <g
     inkscape:label="Capa 1"
     inkscape:groupmode="layer"
     id="layer1"
     transform="translate(-180.23661,-689.8125)">
    <g
       transform="matrix(0.85106383,0,0,0.85106383,183.81108,693.38697)"
       id="g29"
       style="fill:#b4c9d6;fill-opacity:1;stroke:#00436e;stroke-opacity:1">
      <path
         style="fill:#b4c9d6;fill-opacity:1;stroke:#00436e;stroke-opacity:1"
         inkscape:connector-curvature="0"
         d="M 24,1 C 36.703,1 47,11.297 47,24 47,36.703 36.703,47 24,47 11.297,47 1,36.703 1,24 1,11.297 11.297,1 24,1 Z"
         id="path31" />
    </g>
    <g
       transform="matrix(1.0938411,0,0,1.0938434,177.97312,687.79926)"
       id="g55">
      <g
         clip-path="url(#clipPath-849059674)"
         id="g57">
        <!-- color: #0084c8 -->
        <g
           id="g59">
          <path
             style="fill:#00436e;fill-opacity:1;fill-rule:nonzero;stroke:none"
             inkscape:connector-curvature="0"
             d="m 12.04,16.297 c 0.367,0.168 0.754,0.605 0.754,0.605 l 6.871,1.32 c 0,0 0.121,-0.203 0.25,-0.379 l 0.23,-0.32 4.281,0 0.066,-0.293 0.066,-0.289 4.379,0 0.07,0.324 0.066,0.332 1.406,0.016 1.406,0.023 0.02,1.605 0.02,1.609 -1.949,0 0.074,0.313 0.078,0.313 6.01,0 0.582,2.68 0.754,0.043 c 1.031,0.133 1.648,0.492 2.234,1.313 0.066,0.094 0.301,0.734 0.301,1.203 -0.039,0.684 -0.242,1.238 -0.605,1.805 -0.188,0.297 -0.438,0.629 -0.867,0.91 -0.211,0.145 -0.523,0.398 -0.719,0.574 -0.57,0.523 -1.227,0.953 -1.84,1.41 -0.352,0.262 -0.805,0.434 -1.293,0.539 -0.168,0.035 -4.926,0.063 -10.582,0.055 C 14.685,31.996 13.79,31.981 13.404,31.863 12.767,31.668 12.103,31.285 11.888,31.074 10.99,30.336 9.654,29.261 9.134,28.929 8.611,28.601 8.462,28.238 8.279,27.909 8.197,27.768 8.111,27.483 8.08,27.284 8.01,26.823 7.982,26.436 8.053,26.003 8.116,25.569 8.448,24.874 8.698,24.675 9.261,24.226 10.022,24.046 11.44,24.046 l 0.852,-0.004 -0.113,-0.57 2.813,-1.895 4.113,-0.211 -0.953,-1.195 0.707,-0.953 -6.152,-1.57 c 0,0 -0.488,0.168 -0.883,0.133 -0.391,-0.035 -1.355,-0.371 -1.355,-0.371 l 0.211,-1.402 c 0,0 0.93,0.145 1.375,0.289 m 24.563,13.645 c -0.324,0 -0.453,0.027 -0.453,0.102 0,0.059 -0.082,0.266 -0.18,0.465 -0.105,0.199 -0.176,0.363 -0.172,0.359 0.004,0 0.098,-0.074 0.199,-0.152 0.102,-0.086 0.215,-0.152 0.242,-0.152 0.066,-0.004 0.813,-0.547 0.813,-0.594 0,-0.016 -0.203,-0.031 -0.453,-0.031 m -24.672,0.004 c -0.035,0 -0.074,0 -0.121,0 -0.199,0 -0.363,0.012 -0.363,0.027 0,0.016 0.195,0.184 0.438,0.375 0.234,0.191 0.52,0.395 0.621,0.449 l 0.188,0.102 -0.164,-0.168 c -0.094,-0.09 -0.211,-0.305 -0.262,-0.473 -0.078,-0.27 -0.09,-0.305 -0.336,-0.313 m 16.14,0.852 c -0.016,0 -0.027,0.031 -0.051,0.078 -0.027,0.066 -0.184,0.25 -0.348,0.41 l -0.309,0.289 0.75,-0.004 0.746,-0.004 -0.188,-0.156 c -0.398,-0.32 -0.504,-0.43 -0.559,-0.539 -0.02,-0.051 -0.031,-0.074 -0.051,-0.074 m -3.852,0.004 c -0.016,0 -0.027,0.023 -0.047,0.074 -0.066,0.141 -0.313,0.387 -0.563,0.563 -0.184,0.125 -0.168,0.129 0.563,0.133 l 0.754,0.004 -0.309,-0.289 c -0.168,-0.16 -0.328,-0.344 -0.352,-0.41 -0.023,-0.047 -0.035,-0.066 -0.051,-0.066 m 7.781,0.004 c -0.012,0 -0.027,0.02 -0.047,0.063 -0.043,0.105 -0.145,0.195 -0.555,0.543 l -0.188,0.156 0.746,0.004 0.754,0.004 -0.305,-0.289 c -0.168,-0.156 -0.328,-0.344 -0.352,-0.406 -0.023,-0.043 -0.035,-0.07 -0.055,-0.074 m -15.566,0.004 c -0.016,-0.004 -0.027,0.016 -0.043,0.055 -0.098,0.203 -0.426,0.559 -0.527,0.559 -0.055,0 -0.121,0.035 -0.148,0.078 -0.027,0.051 0.23,0.074 0.734,0.074 0.637,-0.004 0.75,-0.02 0.629,-0.094 -0.203,-0.129 -0.535,-0.457 -0.594,-0.598 -0.016,-0.047 -0.035,-0.066 -0.051,-0.07 m 3.813,0.055 c -0.012,0 -0.02,0.008 -0.023,0.02 -0.02,0.059 -0.168,0.238 -0.328,0.398 l -0.297,0.289 1.457,0 -0.398,-0.395 c -0.219,-0.215 -0.355,-0.32 -0.41,-0.316 m 0,0"
             id="path61" />
          <path
             style="fill:#ffffff;fill-opacity:1;fill-rule:nonzero;stroke:none"
             inkscape:connector-curvature="0"
             d="m 18,26 c 0,1 -0.258,0.938 -1,1 l -2,0 0,1 3,0 0,2 L 13.004,29.996 13,27 c 0,-1 0.492,-1 1,-1 l 1.301,0 c 0.379,0 0.57,-0.027 0.57,-0.207 l 0,-0.48 C 15.871,25.149 15.68,25 15.301,25 L 13,25 13.02,24 c 1.309,0 2.73,0 3.977,0.004 1,0 1,0.75 1,1 l 0,1"
             id="path63" />
          <path
             style="fill:#ffffff;fill-opacity:1;fill-rule:nonzero;stroke:none"
             inkscape:connector-curvature="0"
             d="m 23,30 -2,0 0,-5 -2,0 0,-1 3.996,0 0,6"
             id="path65" />
          <path
             style="fill:#ffffff;fill-opacity:1;fill-rule:nonzero;stroke:none"
             inkscape:connector-curvature="0"
             d="m 28.973,29.22 c 0.027,0.777 -0.57,0.777 -0.926,0.766 l -3,0 C 24.086,29.986 24,29.728 24,29.216 l 0,-4.438 c 0,-0.781 0.707,-0.781 1.047,-0.781 L 28,24.009 c 1,0 1,0.48 0.973,0.793 l 0,4.43 m -1.977,-0.516 0,-3.398 c 0,-0.184 -0.109,-0.313 -0.496,-0.313 -0.379,0 -0.5,0.133 -0.5,0.313 l 0,3.398 c 0,0.148 0.121,0.281 0.5,0.281 0.387,0 0.496,-0.133 0.496,-0.281"
             id="path67" />
          <path
             style="fill:#ffffff;fill-opacity:1;fill-rule:nonzero;stroke:none"
             inkscape:connector-curvature="0"
             d="m 35,29.01 c 0,0.215 0,1 -1,1 l -3,0 c -1,0 -1,-0.617 -1,-1 l 0,-4.23 c 0,-0.773 0.613,-0.773 1,-0.773 l 3,0 c 0.188,0 1,0 1,0.895 m -2,0.422 c 0,-0.188 -0.109,-0.313 -0.496,-0.313 -0.379,0 -0.5,0.188 -0.5,0.371 l 0,3.313 c 0,0.16 0.121,0.316 0.5,0.316 0.387,0 0.496,-0.109 0.496,-0.273"
             id="path69" />
        </g>
      </g>
    </g>
  </g>
</svg>
