<?xml version="1.0" encoding="UTF-8" standalone="no"?>
<!-- Created with Inkscape (http://www.inkscape.org/) -->

<svg
   xmlns:dc="http://purl.org/dc/elements/1.1/"
   xmlns:cc="http://creativecommons.org/ns#"
   xmlns:rdf="http://www.w3.org/1999/02/22-rdf-syntax-ns#"
   xmlns:svg="http://www.w3.org/2000/svg"
   xmlns="http://www.w3.org/2000/svg"
   xmlns:sodipodi="http://sodipodi.sourceforge.net/DTD/sodipodi-0.dtd"
   xmlns:inkscape="http://www.inkscape.org/namespaces/inkscape"
   width="48"
   height="48"
   id="svg2"
   version="1.1"
   inkscape:version="0.91 r13725"
   viewBox="0 0 13.546666 13.546668"
   sodipodi:docname="whatsapp-desktop.svg">
  <defs
     id="defs4">
    <style
       id="style2464"
       type="text/css" />
    <style
       type="text/css"
       id="style2464-7" />
  </defs>
  <sodipodi:namedview
     id="base"
     pagecolor="#ffffff"
     bordercolor="#666666"
     borderopacity="1.0"
     inkscape:pageopacity="0"
     inkscape:pageshadow="2"
     inkscape:zoom="4.4501164"
     inkscape:cx="12.318365"
     inkscape:cy="8.2684615"
     inkscape:document-units="px"
     inkscape:current-layer="layer1"
     showgrid="false"
     inkscape:showpageshadow="false"
     borderlayer="true"
     units="px"
     fit-margin-top="0"
     fit-margin-left="0"
     fit-margin-right="0"
     fit-margin-bottom="0"
     showguides="true"
     inkscape:window-width="1920"
     inkscape:window-height="993"
     inkscape:window-x="-4"
     inkscape:window-y="32"
     inkscape:window-maximized="1">
    <sodipodi:guide
       position="-6.6748425e-06,47.999999"
       orientation="47.999977,0"
       id="guide4120" />
    <sodipodi:guide
       position="-6.6748425e-06,2.2810037e-05"
       orientation="0,48.000004"
       id="guide4122" />
    <sodipodi:guide
       position="47.999997,2.2810037e-05"
       orientation="-47.999977,0"
       id="guide4124" />
    <sodipodi:guide
       position="47.999997,47.999999"
       orientation="0,-48.000004"
       id="guide4126" />
    <sodipodi:guide
       position="3.9999733,44.000154"
       orientation="39.999962,0"
       id="guide4138" />
    <sodipodi:guide
       position="3.9999733,4.0001921"
       orientation="0,40.000003"
       id="guide4140" />
    <sodipodi:guide
       position="43.999976,4.0001921"
       orientation="-39.999962,0"
       id="guide4142" />
    <sodipodi:guide
       position="43.999976,44.000154"
       orientation="0,-40.000003"
       id="guide4144" />
    <sodipodi:guide
       position="6.9999922,47.999999"
       orientation="39.999962,0"
       id="guide4148" />
    <sodipodi:guide
       position="6.9999922,8.0000369"
       orientation="0,34.000006"
       id="guide4150" />
    <sodipodi:guide
       position="40.999998,8.0000369"
       orientation="-39.999962,0"
       id="guide4152" />
    <sodipodi:guide
       position="40.999998,47.999999"
       orientation="0,-34.000006"
       id="guide4154" />
    <sodipodi:guide
       position="14.999993,32.999986"
       orientation="17.999951,0"
       id="guide4158" />
    <sodipodi:guide
       position="14.999993,15.000036"
       orientation="0,17.999998"
       id="guide4160" />
    <sodipodi:guide
       position="32.999991,15.000036"
       orientation="-17.999951,0"
       id="guide4162" />
    <sodipodi:guide
       position="32.999991,32.999986"
       orientation="0,-17.999998"
       id="guide4164" />
    <sodipodi:guide
       position="1.9999969,44.000046"
       orientation="39.999962,0"
       id="guide3279" />
    <sodipodi:guide
       position="1.9999969,4.0000839"
       orientation="0,44.000003"
       id="guide3281" />
    <sodipodi:guide
       position="46,4.0000839"
       orientation="-39.999962,0"
       id="guide3283" />
    <sodipodi:guide
       position="46,44.000046"
       orientation="0,-44.000003"
       id="guide3285" />
  </sodipodi:namedview>
  <metadata
     id="metadata7">
    <rdf:RDF>
      <cc:Work
         rdf:about="">
        <dc:format>image/svg+xml</dc:format>
        <dc:type
           rdf:resource="http://purl.org/dc/dcmitype/StillImage" />
        <dc:title />
      </cc:Work>
    </rdf:RDF>
  </metadata>
  <g
     inkscape:label="Capa 1"
     inkscape:groupmode="layer"
     id="layer1"
     transform="translate(38.119153,-397.84494)">
    <path
       style="fill:#000000;fill-opacity:0;stroke:none"
       d="m -31.949074,402.54832 c -0.926452,0 -1.913672,1.43578 -1.93675,2.29221 0,1.28005 1.037692,2.31774 2.31775,2.31774 0.554199,-9e-4 1.089683,-0.20062 1.509366,-0.56257 0.0068,-0.005 0.01347,-0.0115 0.02009,-0.0174 0.233529,-0.19399 0.368766,-0.48173 0.369093,-0.78532 5.5e-5,-0.5646 -0.457592,-1.02236 -1.022201,-1.02245 -0.107034,4.3e-4 -0.213335,0.0177 -0.31502,0.0511 l -0.0015,-0.003 c -0.100463,0.0347 -0.20598,0.0527 -0.312291,0.0531 -0.533025,-3e-5 -0.965122,-0.43212 -0.96515,-0.96515 0.274215,-1.02338 0.613009,-0.70445 0.62235,-1.07305 0,-0.15782 -0.127935,-0.28575 -0.28575,-0.28575 z m 0.2349,3.2447 c -4e-6,0.0583 0.005,0.11645 0.01489,0.17388 -0.0099,-0.0574 -0.01489,-0.1156 -0.01489,-0.17388 z m 0.288975,0.71239 c 0.04757,0.049 0.09992,0.093 0.15627,0.13147 0.08452,0.0579 0.177247,0.10266 0.275084,0.13295 0.06093,0.0186 0.123457,0.0315 0.186779,0.0384 -0.06332,-0.007 -0.125854,-0.0198 -0.186779,-0.0384 -0.09784,-0.0303 -0.190567,-0.0752 -0.275084,-0.13295 -0.05635,-0.0385 -0.108699,-0.0825 -0.15627,-0.13147 z m 0.946795,0.28625 c -0.0075,0.002 -0.01503,0.004 -0.02257,0.005 0.0076,-0.002 0.01507,-0.004 0.02257,-0.005 z m -0.08954,0.0149 c -0.01319,0.002 -0.02642,0.004 -0.03969,0.005 0.01326,-9e-4 0.02649,-0.003 0.03969,-0.005 z"
       id="circle4229"
       inkscape:connector-curvature="0"
       sodipodi:nodetypes="ccccccccccccccccccccccccccccc" />
    <path
       style="clip-rule:evenodd;fill:#ffffff;fill-rule:evenodd;stroke:#009f01;stroke-width:0.05753359;stroke-opacity:1"
       inkscape:connector-curvature="0"
       id="path7"
       d="m -36.947828,410.22294 c 0.303835,-0.98095 0.655998,-1.91357 0.977956,-2.87634 -2.134208,-3.73266 0.506986,-7.93474 4.084367,-8.2838 3.377625,-0.32961 6.146947,2.09647 6.155346,5.40747 0.0088,3.49361 -3.379523,6.42725 -7.190835,5.23487 -0.287496,-0.0899 -0.643226,-0.38301 -0.977956,-0.40268 -0.467806,-0.0276 -1.080884,0.30832 -1.553235,0.46021 -0.517744,0.16656 -0.967945,0.33346 -1.495643,0.46027 z m 3.163945,-1.95591 c 3.077759,1.86788 6.763131,-0.2272 7.075768,-3.27902 0.282951,-2.7627 -1.923002,-5.22088 -4.889779,-5.00479 -3.387003,0.24665 -5.421506,4.28965 -3.336546,7.24832 -0.184568,0.50577 -0.357283,1.0234 -0.517745,1.55323 0.565095,-0.16363 1.086004,-0.37138 1.668302,-0.51774 z" />
    <path
       style="clip-rule:evenodd;fill:#009f01;fill-rule:evenodd;stroke:none;stroke-width:0.05753359"
       inkscape:connector-curvature="0"
       id="path9"
       d="m -35.452127,408.78477 c 0.160461,-0.52983 0.333177,-1.04746 0.517745,-1.55323 -2.085018,-2.95867 -0.05046,-7.00167 3.336545,-7.24832 2.966777,-0.21609 5.17273,2.24209 4.88978,5.00479 -0.312638,3.05176 -3.998009,5.14684 -7.075769,3.27902 -0.582355,0.14636 -1.103264,0.35411 -1.668301,0.51774 z m 1.553234,-4.88972 c 0.493523,1.38805 2.538727,3.26808 4.026834,3.33654 0.705362,0.0325 1.539311,-0.33346 1.495643,-1.3231 -0.424713,-0.30395 -0.914324,-0.543 -1.43811,-0.74782 -0.250731,0.2478 -0.447784,0.54933 -0.747879,0.74782 -0.902414,-0.40152 -1.594658,-1.01316 -2.013388,-1.89837 0.824514,-0.44969 0.323742,-1.45135 0,-2.12852 -1.279144,-0.38541 -1.615946,1.18985 -1.3231,2.01345 z" />
    <path
       style="clip-rule:evenodd;fill:#ffffff;fill-rule:evenodd;stroke:none;stroke-width:0.05753359"
       inkscape:connector-curvature="0"
       id="path11"
       d="m -32.575793,401.8816 c 0.323742,0.67717 0.824514,1.67878 0,2.12852 0.41873,0.88521 1.111031,1.49685 2.013388,1.89837 0.300095,-0.19849 0.497148,-0.50002 0.747879,-0.74782 0.523786,0.20488 1.013397,0.44387 1.43811,0.74782 0.04367,0.98964 -0.790281,1.35561 -1.495643,1.3231 -1.488107,-0.0685 -3.533368,-1.94849 -4.026834,-3.33654 -0.292846,-0.8236 0.04396,-2.39886 1.3231,-2.01345 z" />
  </g>
</svg>
