<?xml version="1.0" encoding="UTF-8" standalone="no"?>
<!-- Created using Karbon, part of Calligra: http://www.calligra.org/karbon -->

<svg
   xmlns:dc="http://purl.org/dc/elements/1.1/"
   xmlns:cc="http://creativecommons.org/ns#"
   xmlns:rdf="http://www.w3.org/1999/02/22-rdf-syntax-ns#"
   xmlns:svg="http://www.w3.org/2000/svg"
   xmlns="http://www.w3.org/2000/svg"
   xmlns:sodipodi="http://sodipodi.sourceforge.net/DTD/sodipodi-0.dtd"
   xmlns:inkscape="http://www.inkscape.org/namespaces/inkscape"
   width="38.4pt"
   height="38.4pt"
   id="svg2"
   version="1.1"
   inkscape:version="0.48.5 r10040"
   sodipodi:docname="xbmc.svg">
  <metadata
     id="metadata11">
    <rdf:RDF>
      <cc:Work
         rdf:about="">
        <dc:format>image/svg+xml</dc:format>
        <dc:type
           rdf:resource="http://purl.org/dc/dcmitype/StillImage" />
        <dc:title />
      </cc:Work>
    </rdf:RDF>
  </metadata>
  <sodipodi:namedview
     pagecolor="#ffffff"
     bordercolor="#666666"
     borderopacity="1"
     objecttolerance="10"
     gridtolerance="10"
     guidetolerance="10"
     inkscape:pageopacity="0"
     inkscape:pageshadow="2"
     inkscape:window-width="1920"
     inkscape:window-height="1033"
     id="namedview9"
     showgrid="false"
     inkscape:showpageshadow="false"
     borderlayer="true"
     inkscape:zoom="6.9532164"
     inkscape:cx="1.4307429"
     inkscape:cy="41.436915"
     inkscape:window-x="-4"
     inkscape:window-y="30"
     inkscape:window-maximized="1"
     inkscape:current-layer="svg2">
    <sodipodi:guide
       position="9.5367432e-07,48.000001"
       orientation="47.999999,0"
       id="guide4067" />
    <sodipodi:guide
       position="9.5367432e-07,1.9073486e-06"
       orientation="0,47.999999"
       id="guide4069" />
    <sodipodi:guide
       position="48,1.9073486e-06"
       orientation="-47.999999,0"
       id="guide4071" />
    <sodipodi:guide
       position="48,48.000001"
       orientation="0,-47.999999"
       id="guide4073" />
    <sodipodi:guide
       position="4.000001,44.000001"
       orientation="39.999999,0"
       id="guide4133" />
    <sodipodi:guide
       position="4.000001,4.0000019"
       orientation="0,39.999999"
       id="guide4135" />
    <sodipodi:guide
       position="44,4.0000019"
       orientation="-39.999999,0"
       id="guide4137" />
    <sodipodi:guide
       position="44,44.000001"
       orientation="0,-39.999999"
       id="guide4139" />
  </sodipodi:namedview>
  <defs
     id="defs4" />
  <rect
     style="fill:#254a8c;fill-rule:evenodd;stroke:none;fill-opacity:1"
     y="4.000001"
     x="4.000001"
     ry="20"
     height="40"
     width="40"
     stroke-miterlimit="2.01260185242"
     id="shape01" />
  <path
     style="fill:#6495ed;fill-opacity:1"
     id="path3672"
     inkscape:connector-curvature="0"
     d="m 33.38356,17.70416 c -0.30956,-0.002 -0.62678,0.0365 -0.93158,0.11292 -0.72933,0.18294 -1.40691,0.55626 -1.97043,1.08967 -0.10225,0.0968 -0.19087,0.17503 -0.19761,0.17503 -0.007,0 -0.0637,-0.0707 -0.12985,-0.15809 -0.16052,-0.21196 -0.44517,-0.49025 -0.66058,-0.64364 -0.34597,-0.24637 -0.83426,-0.45101 -1.26469,-0.53072 -0.25819,-0.0478 -0.95405,-0.049 -1.20259,-0.006 -0.90061,0.15699 -1.67197,0.56258 -2.36,1.24776 -0.39217,0.39055 -0.65064,0.76363 -0.88641,1.27598 -0.0984,0.22615 -0.1001,0.22908 -0.12421,0.58718 -0.034,0.50421 -0.0909,0.79841 -0.24278,1.21952 -0.0379,0.10494 -0.0807,0.30311 -0.12986,0.62107 -0.0427,0.29397 -0.11155,0.77208 -0.22019,1.51311 -0.0556,0.37957 -0.0769,0.57804 -0.0621,0.58718 0.0382,0.0236 0.21644,0.005 0.38392,-0.0395 0.12895,-0.0346 0.24952,-0.088 0.36699,-0.15244 0.0409,-0.0225 0.0794,-0.0477 0.11856,-0.0734 0.017,-0.0111 0.0342,-0.0222 0.0508,-0.0339 0.0385,-0.0271 0.0766,-0.0546 0.11291,-0.0847 0.25193,-0.20863 0.44905,-0.48377 0.55331,-0.79043 0.0146,-0.0488 0.0303,-0.10588 0.0452,-0.17502 0.007,-0.0349 0.0179,-0.0898 0.0282,-0.1468 0.0181,-0.0998 0.032,-0.18328 0.0565,-0.33311 0.034,-0.20877 0.0703,-0.43553 0.10727,-0.68881 0.0909,-0.62259 0.18453,-1.20949 0.2089,-1.30421 0.0244,-0.0947 0.0985,-0.278 0.16374,-0.41216 0.33166,-0.68205 0.95932,-1.20961 1.6599,-1.39455 0.15118,-0.0399 0.24219,-0.0501 0.55331,-0.0508 0.43194,-9.5e-4 0.59181,0.0336 0.8977,0.19196 0.35323,0.18283 0.69992,0.60103 0.82995,0.99933 0.14104,0.43204 0.13899,0.56071 -0.0621,1.93656 -0.174,1.19048 -0.19071,1.41501 -0.12986,1.64863 0.0959,0.36825 0.40447,0.70528 0.76785,0.84124 0.12447,0.0466 0.41008,0.09 0.44603,0.0677 0.0117,-0.007 0.1369,-0.82376 0.2823,-1.81799 0.25717,-1.75858 0.3042,-2.02747 0.39521,-2.25839 0.25815,-0.65493 0.86543,-1.25062 1.51876,-1.49052 0.28114,-0.10324 0.38862,-0.11777 0.77349,-0.11857 0.43584,-9e-4 0.54913,0.0205 0.86383,0.17503 0.33221,0.16315 0.62694,0.47682 0.80173,0.84689 0.12988,0.27499 0.15317,0.40071 0.15244,0.79607 -6e-4,0.32192 -0.0113,0.43568 -0.15809,1.41149 -0.18181,1.20893 -0.18868,1.36836 -0.0847,1.64862 0.13802,0.37198 0.46655,0.67904 0.8356,0.7735 0.13936,0.0357 0.33425,0.0497 0.3557,0.0282 0.007,-0.007 0.0592,-0.34282 0.11856,-0.75091 0.12007,-0.82498 0.12436,-0.84125 0.15244,-0.84125 0.0109,0 0.0468,0.0524 0.0847,0.11857 0.17746,0.31017 0.55581,0.72383 0.86383,0.94287 0.33639,0.23922 0.76626,0.41402 1.20823,0.49684 0.21953,0.0411 0.35152,0.047 1.44536,0.0565 0.66077,0.006 1.22398,0.002 1.2534,-0.006 0.0517,-0.013 0.0513,-0.0185 0.0508,-0.20325 -3.4e-4,-0.10526 -0.0102,-0.23403 -0.0226,-0.28795 -0.0677,-0.29357 -0.31284,-0.61239 -0.58718,-0.75655 -0.23135,-0.12157 -0.37686,-0.14071 -0.94852,-0.14115 -0.52376,-4.3e-4 -0.75176,-0.0269 -1.01062,-0.11292 -0.4065,-0.13514 -0.81467,-0.51465 -1.01062,-0.94288 -0.28877,-0.63105 -0.18684,-1.44743 0.26536,-2.12852 0.13515,-0.20357 0.4947,-0.56294 0.71138,-0.71139 0.2146,-0.14702 0.48302,-0.27591 0.73398,-0.35005 0.18668,-0.0551 0.23117,-0.057 0.86383,-0.0734 0.72304,-0.0187 0.80877,-0.0352 1.07272,-0.15808 0.29031,-0.13514 0.61046,-0.41805 0.76785,-0.68316 0.086,-0.14481 0.16992,-0.36545 0.18067,-0.47427 l 0.006,-0.079 -1.14048,-0.006 c -1.18588,-0.007 -1.3978,0.007 -1.78411,0.0903 -1.0134,0.21761 -2.02637,0.92471 -2.6536,1.85753 -0.15333,0.22803 -0.16158,0.23081 -0.24277,0 -0.2322,-0.6601 -0.80743,-1.30202 -1.45665,-1.62605 -0.41887,-0.20905 -0.91814,-0.31925 -1.43407,-0.32182 z" />
  <path
     style="fill:#9acd32;fill-opacity:1"
     id="path3670"
     inkscape:connector-curvature="0"
     d="m 17.27569,15.92569 c -0.0978,0 -0.11479,0.008 -0.12421,0.0508 -0.006,0.0271 -0.063,0.42876 -0.12986,0.89206 -0.0668,0.46329 -0.12864,0.84566 -0.1355,0.85254 -0.007,0.007 -0.48638,0.021 -1.06708,0.0282 -1.03286,0.0128 -1.06235,0.0115 -1.32115,0.0678 -0.83687,0.18189 -1.55965,0.589 -2.25838,1.27034 l -0.24842,0.23713 -0.0395,-0.0621 c -0.2592,-0.41854 -0.45385,-0.65292 -0.72268,-0.87513 -0.40127,-0.33167 -0.84486,-0.52621 -1.4002,-0.60977 -0.17441,-0.0262 -0.46153,-0.0338 -1.40584,-0.0339 -1.06204,-9e-5 -1.18503,0.003 -1.19694,0.0339 -0.0248,0.0647 -0.0141,0.41421 0.0169,0.53073 0.0908,0.34119 0.34651,0.61789 0.68881,0.75091 0.11505,0.0447 0.17358,0.053 0.74526,0.0678 0.68283,0.0177 0.83182,0.0396 1.10096,0.15244 0.44155,0.1851 0.81587,0.63146 0.94287,1.12919 0.084,0.32926 0.0511,0.80858 -0.079,1.1913 -0.27197,0.79963 -1.0095,1.48716 -1.82929,1.70508 -0.19089,0.0507 -0.26663,0.058 -0.86947,0.0734 -0.69543,0.0178 -0.77243,0.0283 -1.02756,0.14115 -0.27088,0.11979 -0.57539,0.37448 -0.75656,0.63234 -0.11629,0.16553 -0.23932,0.42841 -0.24842,0.54201 l -0.006,0.0734 1.07837,0.0113 c 1.12013,0.007 1.40853,-0.007 1.78977,-0.0847 0.79919,-0.16239 1.57972,-0.60227 2.26402,-1.27599 0.11983,-0.11797 0.21727,-0.21454 0.22019,-0.21454 0.003,0 0.0548,0.0772 0.11292,0.17502 0.35081,0.5911 0.88222,1.02409 1.5244,1.23646 0.43576,0.14411 0.5076,0.14853 1.87446,0.15809 l 1.23081,0.0113 0.0226,-0.0565 c 0.0325,-0.0855 0.0261,-0.35889 -0.0113,-0.50249 -0.0976,-0.37477 -0.36888,-0.66876 -0.72832,-0.78478 -0.12936,-0.0418 -0.22224,-0.0476 -0.79608,-0.0621 -0.7296,-0.0184 -0.82521,-0.0336 -1.14048,-0.19761 -0.5183,-0.26965 -0.87433,-0.87165 -0.87512,-1.47924 -3.5e-4,-0.31783 0.10976,-0.77882 0.25406,-1.06709 0.25837,-0.51612 0.77786,-1.02352 1.30986,-1.27598 0.37494,-0.17792 0.70826,-0.23145 1.43972,-0.23148 0.35004,-2e-5 0.46042,-0.0113 0.59282,-0.0452 0.19978,-0.0512 0.36551,-0.12123 0.51943,-0.22584 0.0645,-0.0438 0.12504,-0.079 0.12985,-0.079 0.023,0 -0.006,0.20999 -0.15808,1.24775 -0.21149,1.44511 -0.20969,1.44572 -0.2089,1.8067 0.002,0.82329 0.2858,1.50376 0.88641,2.10595 0.33965,0.34055 0.67428,0.55688 1.11225,0.71139 0.17323,0.0611 0.54771,0.13728 0.74527,0.15808 0.17055,0.018 0.63292,0.0155 0.80737,-0.006 0.79564,-0.0962 1.48335,-0.38845 2.1511,-0.92029 0.50052,-0.39865 0.89554,-0.87047 1.18565,-1.41714 0.0525,-0.099 0.0984,-0.17824 0.10162,-0.17503 -0.11085,0.62838 -0.005,0.16224 0.0734,-0.21454 0.15193,-0.42112 0.20883,-0.71532 0.24278,-1.21953 l 0.0113,-0.33876 -0.0395,-0.26535 c -0.0843,-0.56651 -0.30126,-1.03939 -0.68315,-1.49053 -0.33985,-0.40148 -0.78084,-0.70809 -1.27034,-0.88078 -0.48265,-0.17027 -0.82249,-0.19659 -2.28661,-0.19761 l -0.98239,-0.006 0.0169,-0.11292 c 0.0785,-0.61402 -0.008,-0.93276 -0.33876,-1.26469 -0.24004,-0.24119 -0.52279,-0.37263 -0.80737,-0.37263 l 2e-5,-10e-6 z m 0.93723,3.17302 1.21388,0.0113 c 1.36727,0.009 1.35889,0.008 1.71636,0.18067 0.6696,0.32275 1.0658,1.07108 0.97675,1.84058 -0.0672,0.58032 -0.29704,1.06785 -0.68316,1.46794 -0.40487,0.41954 -0.8066,0.65566 -1.28163,0.75657 -0.2342,0.0498 -0.68882,0.0563 -0.91464,0.0113 -0.67225,-0.13391 -1.2276,-0.72007 -1.35503,-1.42279 -0.0512,-0.28258 -0.0334,-0.53084 0.12986,-1.65991 0.086,-0.59499 0.1692,-1.10705 0.18067,-1.13483 l 0.0169,-0.0508 z" />
  <path
     style="fill:#ff8c00;fill-opacity:1"
     id="path3666"
     inkscape:connector-curvature="0"
     d="m 41.555088,26.943978 c -7.477834,0.12566 -15.143193,0.12554 -22.639756,0.13392 -5.900256,0.004 -9.882371,0.003 -11.3198736,0 l 0,0.29762 c 4.3649926,-0.0168 13.8906346,0.0277 17.1061526,0.0893 5.436445,0.14571 11.531935,0.22276 16.752405,1.10119 0.0025,0.003 -0.0059,0.009 -0.01265,0.0149 0.0292,-0.0158 0.07726,-0.0219 0.101072,-0.0149 0.0025,7.8e-4 0.0093,-9e-5 0.01265,0 l 0,-1.62202 z" />
</svg>
