<?xml version="1.0" encoding="UTF-8" standalone="no"?>
<!-- Created using Karbon, part of Calligra: http://www.calligra.org/karbon -->

<svg
   xmlns:dc="http://purl.org/dc/elements/1.1/"
   xmlns:cc="http://creativecommons.org/ns#"
   xmlns:rdf="http://www.w3.org/1999/02/22-rdf-syntax-ns#"
   xmlns:svg="http://www.w3.org/2000/svg"
   xmlns="http://www.w3.org/2000/svg"
   xmlns:xlink="http://www.w3.org/1999/xlink"
   xmlns:sodipodi="http://sodipodi.sourceforge.net/DTD/sodipodi-0.dtd"
   xmlns:inkscape="http://www.inkscape.org/namespaces/inkscape"
   width="38.4pt"
   height="38.4pt"
   id="svg2"
   version="1.1"
   inkscape:version="0.48.5 r10040"
   sodipodi:docname="xfce-mount.svg">
  <metadata
     id="metadata67">
    <rdf:RDF>
      <cc:Work
         rdf:about="">
        <dc:format>image/svg+xml</dc:format>
        <dc:type
           rdf:resource="http://purl.org/dc/dcmitype/StillImage" />
      </cc:Work>
    </rdf:RDF>
  </metadata>
  <sodipodi:namedview
     pagecolor="#ffffff"
     bordercolor="#666666"
     borderopacity="1"
     objecttolerance="10"
     gridtolerance="10"
     guidetolerance="10"
     inkscape:pageopacity="0"
     inkscape:pageshadow="2"
     inkscape:window-width="1920"
     inkscape:window-height="1035"
     id="namedview65"
     showgrid="false"
     inkscape:zoom="4.9166667"
     inkscape:cx="24"
     inkscape:cy="24"
     inkscape:window-x="-4"
     inkscape:window-y="29"
     inkscape:window-maximized="1"
     inkscape:current-layer="svg2" />
  <defs
     id="defs4">
    <linearGradient
       id="gradient0"
       gradientUnits="userSpaceOnUse"
       x1="3"
       y1="46.593752"
       x2="3"
       y2="43.062502"
       spreadMethod="pad">
      <stop
         stop-color="#ffffff"
         offset="0.00000000000"
         stop-opacity="1.00000000000"
         id="stop7" />
      <stop
         stop-color="#ffffff"
         offset="1.00000000000"
         stop-opacity="0.00000000000"
         id="stop9" />
    </linearGradient>
    <linearGradient
       id="gradient1"
       gradientUnits="userSpaceOnUse"
       x1="3"
       y1="46.593752"
       x2="3"
       y2="43.062502"
       spreadMethod="pad">
      <stop
         stop-color="#ffffff"
         offset="0.00000000000"
         stop-opacity="1.00000000000"
         id="stop12" />
      <stop
         stop-color="#ffffff"
         offset="1.00000000000"
         stop-opacity="0.00000000000"
         id="stop14" />
    </linearGradient>
    <linearGradient
       id="gradient2"
       gradientUnits="userSpaceOnUse"
       x1="3"
       y1="46.593752"
       x2="3"
       y2="43.062502"
       spreadMethod="pad">
      <stop
         stop-color="#ffffff"
         offset="0.00000000000"
         stop-opacity="1.00000000000"
         id="stop17" />
      <stop
         stop-color="#ffffff"
         offset="1.00000000000"
         stop-opacity="0.00000000000"
         id="stop19" />
    </linearGradient>
    <linearGradient
       id="gradient3"
       gradientUnits="userSpaceOnUse"
       x1="3"
       y1="46.593752"
       x2="3"
       y2="43.062502"
       spreadMethod="pad">
      <stop
         stop-color="#ffffff"
         offset="0.00000000000"
         stop-opacity="1.00000000000"
         id="stop22" />
      <stop
         stop-color="#ffffff"
         offset="1.00000000000"
         stop-opacity="0.00000000000"
         id="stop24" />
    </linearGradient>
    <linearGradient
       id="gradient4"
       gradientTransform="scale(1.3651457,0.73252254)"
       gradientUnits="userSpaceOnUse"
       x1="-25.421078"
       y1="1378.3175"
       x2="-25.421078"
       y2="1375.6628"
       spreadMethod="pad">
      <stop
         stop-color="#ffd70c"
         offset="0.00000000000"
         stop-opacity="1.00000000000"
         id="stop27" />
      <stop
         stop-color="#fff054"
         offset="1.00000000000"
         stop-opacity="1.00000000000"
         id="stop29" />
    </linearGradient>
    <linearGradient
       id="gradient5"
       gradientTransform="scale(1.3651737,0.73250753)"
       gradientUnits="userSpaceOnUse"
       x1="-25.420557"
       y1="1378.3457"
       x2="-25.420557"
       y2="1375.691"
       spreadMethod="pad">
      <stop
         stop-color="#ffd70c"
         offset="0.00000000000"
         stop-opacity="1.00000000000"
         id="stop32" />
      <stop
         stop-color="#fff054"
         offset="1.00000000000"
         stop-opacity="1.00000000000"
         id="stop34" />
    </linearGradient>
    <linearGradient
       id="gradient6"
       gradientTransform="scale(1.3651723,0.73250824)"
       gradientUnits="userSpaceOnUse"
       x1="-25.420583"
       y1="1378.3444"
       x2="-25.420583"
       y2="1375.6897"
       spreadMethod="pad">
      <stop
         stop-color="#ffd70c"
         offset="0.00000000000"
         stop-opacity="1.00000000000"
         id="stop37" />
      <stop
         stop-color="#fff054"
         offset="1.00000000000"
         stop-opacity="1.00000000000"
         id="stop39" />
    </linearGradient>
    <linearGradient
       inkscape:collect="always"
       xlink:href="#gradient6"
       id="linearGradient3054"
       gradientUnits="userSpaceOnUse"
       gradientTransform="matrix(1.3651723,0,0,0.73250824,28.4893,1.56246)"
       spreadMethod="pad"
       x1="-25.420583"
       y1="1378.3444"
       x2="-25.420583"
       y2="1375.6897" />
    <linearGradient
       inkscape:collect="always"
       xlink:href="#gradient5"
       id="linearGradient3057"
       gradientUnits="userSpaceOnUse"
       gradientTransform="matrix(1.3651737,0,0,0.73250753,21.4893,1.56246)"
       spreadMethod="pad"
       x1="-25.420557"
       y1="1378.3457"
       x2="-25.420557"
       y2="1375.691" />
    <linearGradient
       inkscape:collect="always"
       xlink:href="#gradient4"
       id="linearGradient3060"
       gradientUnits="userSpaceOnUse"
       gradientTransform="matrix(1.3651457,0,0,0.73252254,14.4893,1.56246)"
       spreadMethod="pad"
       x1="-25.421078"
       y1="1378.3175"
       x2="-25.421078"
       y2="1375.6628" />
    <linearGradient
       inkscape:collect="always"
       xlink:href="#gradient3"
       id="linearGradient3069"
       gradientUnits="userSpaceOnUse"
       spreadMethod="pad"
       x1="3"
       y1="46.593752"
       x2="3"
       y2="43.062502"
       gradientTransform="matrix(1.04425,0,0,1.04425,42.3125,2.31243)" />
    <linearGradient
       inkscape:collect="always"
       xlink:href="#gradient2"
       id="linearGradient3073"
       gradientUnits="userSpaceOnUse"
       spreadMethod="pad"
       x1="3"
       y1="46.593752"
       x2="3"
       y2="43.062502"
       gradientTransform="matrix(1.04425,0,0,1.04425,2,2.31243)" />
    <linearGradient
       inkscape:collect="always"
       xlink:href="#gradient1"
       id="linearGradient3077"
       gradientUnits="userSpaceOnUse"
       spreadMethod="pad"
       x1="3"
       y1="46.593752"
       x2="3"
       y2="43.062502"
       gradientTransform="matrix(1.04425,0,0,1.04425,42.3125,42.3126)" />
    <linearGradient
       inkscape:collect="always"
       xlink:href="#gradient0"
       id="linearGradient3081"
       gradientUnits="userSpaceOnUse"
       spreadMethod="pad"
       x1="3"
       y1="46.593752"
       x2="3"
       y2="43.062502"
       gradientTransform="matrix(1.04425,0,0,1.04425,2,42.3126)" />
  </defs>
  <rect
     style="fill:#bebebe"
     y="-48"
     x="0"
     ry="1.9445424"
     rx="1.9445424"
     height="47.999969"
     width="47.999969"
     transform="scale(1,-1)"
     id="rect2991-1-7" />
  <path
     style="fill:#ffffff"
     inkscape:connector-curvature="0"
     d="m 10.75002,9.00001 c -1.07728,0 -1.93752,0.86008 -1.93752,1.9374 l 0,37.0626 30.375,0 0,-37.0626 c 0,-1.07732 -0.8602,-1.9374 -1.9375,-1.9374 z"
     id="rect2991" />
  <path
     style="fill:#000000"
     inkscape:connector-curvature="0"
     d="m 11.5313,2e-5 0,3.62488 c 0,1.24652 1.00348,2.25 2.25,2.25 l 20.4375,0 c 1.2465,0 2.25,-1.00348 2.25,-2.25 l 0,-3.62488 z"
     id="path2334" />
  <path
     style="fill:#ffffff"
     inkscape:connector-curvature="0"
     d="m 10.75002,8.99609 c -0.99836,0 -1.79176,0.75212 -1.90628,1.71872 0.1808,-0.88772 0.96364,-1.5624 1.90628,-1.5624 l 26.50002,0 c 0.9426,0 1.7255,0.67468 1.9062,1.5624 -0.1144,-0.9666 -0.9079,-1.71872 -1.9062,-1.71872 z"
     id="rect1524" />
  <path
     style="fill:#000000"
     inkscape:connector-curvature="0"
     d="m 3e-5,45 0,1.0626 C 3e-5,47.13988 0.86023,48 1.93751,48 l 44.12492,0 c 1.0773,0 1.9376,-0.86012 1.9376,-1.9374 l 0,-1.0626 c 0,1.07728 -0.8603,1.9374 -1.9376,1.9374 l -44.12492,0 C 0.86023,46.9374 3e-5,46.07728 3e-5,45 z"
     id="rect846-1" />
  <path
     inkscape:connector-curvature="0"
     style="fill:url(#linearGradient3081)"
     d="m 5.6875078,44.156349 c 0,1.018279 -0.8254796,1.843759 -1.8437487,1.843759 C 2.8254765,46.000108 2,45.174628 2,44.156349 2,43.138076 2.8254765,42.3126 3.8437591,42.3126 c 1.0182691,0 1.8437487,0.825476 1.8437487,1.843749 z"
     id="path1538" />
  <path
     style="fill:#000000;fill-opacity:0.68104063"
     inkscape:connector-curvature="0"
     d="m 5.3906593,44.15643 c 0,-0.854318 -0.6925618,-1.546879 -1.5468703,-1.546879 -0.8543198,0 -1.546879,0.692561 -1.546879,1.546879 0,0.854311 0.6925592,1.54687 1.546879,1.54687 0.8543085,0 1.5468703,-0.692559 1.5468703,-1.54687 z"
     id="path1548" />
  <path
     inkscape:connector-curvature="0"
     style="fill:url(#linearGradient3077)"
     d="m 46.000008,44.156349 c 0,1.018279 -0.82548,1.843759 -1.843749,1.843759 -1.018283,0 -1.843759,-0.82548 -1.843759,-1.843759 0,-1.018273 0.825476,-1.843749 1.843759,-1.843749 1.018269,0 1.843749,0.825476 1.843749,1.843749 z"
     id="path1584" />
  <path
     style="fill:#000000;fill-opacity:0.68104063"
     inkscape:connector-curvature="0"
     d="m 45.703149,44.15643 c 0,-0.854318 -0.692561,-1.546879 -1.54687,-1.546879 -0.85432,0 -1.546879,0.692561 -1.546879,1.546879 0,0.854311 0.692559,1.54687 1.546879,1.54687 0.854309,0 1.54687,-0.692559 1.54687,-1.54687 z"
     id="path1586" />
  <path
     inkscape:connector-curvature="0"
     style="fill:url(#linearGradient3073)"
     d="m 5.6875078,4.1561787 c 0,1.0182795 -0.8254796,1.8437591 -1.8437487,1.8437591 C 2.8254765,5.9999378 2,5.1744582 2,4.1561787 2,3.1379065 2.8254765,2.31243 3.8437591,2.31243 c 1.0182691,0 1.8437487,0.8254765 1.8437487,1.8437487 z"
     id="path1601" />
  <path
     style="fill:#000000;fill-opacity:0.68104063"
     inkscape:connector-curvature="0"
     d="m 5.3906593,4.1562097 c 0,-0.8543172 -0.6925618,-1.546879 -1.5468703,-1.546879 -0.8543198,0 -1.546879,0.6925618 -1.546879,1.546879 0,0.8543111 0.6925592,1.5468703 1.546879,1.5468703 0.8543085,0 1.5468703,-0.6925592 1.5468703,-1.5468703 z"
     id="path1603" />
  <path
     inkscape:connector-curvature="0"
     style="fill:url(#linearGradient3069)"
     d="m 46.000008,4.1561787 c 0,1.0182795 -0.82548,1.8437591 -1.843749,1.8437591 -1.018283,0 -1.843759,-0.8254796 -1.843759,-1.8437591 0,-1.0182722 0.825476,-1.8437487 1.843759,-1.8437487 1.018269,0 1.843749,0.8254765 1.843749,1.8437487 z"
     id="path1613" />
  <path
     style="fill:#000000;fill-opacity:0.68104063"
     inkscape:connector-curvature="0"
     d="m 45.703149,4.1562097 c 0,-0.8543172 -0.692561,-1.546879 -1.54687,-1.546879 -0.85432,0 -1.546879,0.6925618 -1.546879,1.546879 0,0.8543111 0.692559,1.5468703 1.546879,1.5468703 0.854309,0 1.54687,-0.6925592 1.54687,-1.5468703 z"
     id="path1615" />
  <path
     style="fill:#ffffff"
     inkscape:connector-curvature="0"
     d="m 11.5625,4.0899 c 0.1084,1.1442 1.04532,2.03132 2.21876,2.03132 l 20.43754,0 c 1.1734,0 2.1104,-0.88712 2.2187,-2.03132 -0.2092,1.0272 -1.1281,1.78112 -2.2187,1.78112 l -20.43754,0 c -1.09068,0 -2.00964,-0.75392 -2.21876,-1.78112 z"
     id="path2329" />
  <path
     inkscape:connector-curvature="0"
     style="fill:url(#linearGradient3060)"
     d="m 14.6141,1.56246 c -0.0916,0 -0.1248,0.1584 -0.1248,0.25 l 0,2.375 c 0,0.0916 0.032,0.1248 0.1248,0.1248 l 3.5,0 0.3748,0 0.875,0 c 0.0916,0 0.24999,-0.032 0.24999,-0.1248 l 0,-2.375 c 0,-0.0916 -0.15839,-0.25 -0.24999,-0.25 l -0.875,0 -0.3748,0 z"
     id="rect2460" />
  <path
     inkscape:connector-curvature="0"
     style="fill:url(#linearGradient3057)"
     d="m 21.6141,1.56246 c -0.0916,0 -0.1248,0.1584 -0.1248,0.25 l 0,2.375 c 0,0.0916 0.032,0.1248 0.1248,0.1248 l 3.5,0 0.75,0 0.5,0 c 0.0916,0 0.25,-0.032 0.25,-0.1248 l 0,-2.375 c 0,-0.0916 -0.1584,-0.25 -0.25,-0.25 l -0.5,0 -0.75,0 z"
     id="rect2478" />
  <path
     inkscape:connector-curvature="0"
     style="fill:url(#linearGradient3054)"
     d="m 28.6141,1.56246 c -0.0916,0 -0.1248,0.1584 -0.1248,0.25 l 0,2.375 c 0,0.0916 0.032,0.1248 0.1248,0.1248 l 3.49999,0 0.5,0 0.75,0 c 0.0916,0 0.25,-0.032 0.25,-0.1248 l 0,-2.375 c 0,-0.0916 -0.1584,-0.25 -0.25,-0.25 l -0.75,0 -0.5,0 z"
     id="rect2490" />
  <path
     style="fill:#3c3c3c;fill-opacity:1;stroke:none"
     d="m 23.574355,15.519632 -17.6578145,13.261809 35.3156295,0 -17.657815,-13.261809 z"
     id="path3153"
     inkscape:connector-curvature="0" />
  <path
     style="fill:#3c3c3c;fill-opacity:1;stroke:none"
     d="m 4.9165405,31.281441 -1.39112,5.075997 39.9999995,0 -1.29325,-5.075997 -37.3156295,0 z"
     id="path3157"
     inkscape:connector-curvature="0" />
</svg>
