<?xml version="1.0" encoding="UTF-8" standalone="no"?>
<!-- Created with Inkscape (http://www.inkscape.org/) -->

<svg
   xmlns:dc="http://purl.org/dc/elements/1.1/"
   xmlns:cc="http://creativecommons.org/ns#"
   xmlns:rdf="http://www.w3.org/1999/02/22-rdf-syntax-ns#"
   xmlns:svg="http://www.w3.org/2000/svg"
   xmlns="http://www.w3.org/2000/svg"
   xmlns:sodipodi="http://sodipodi.sourceforge.net/DTD/sodipodi-0.dtd"
   xmlns:inkscape="http://www.inkscape.org/namespaces/inkscape"
   width="16"
   height="16"
   id="svg2"
   version="1.1"
   inkscape:version="0.48.5 r10040"
   viewBox="0 0 16 16"
   sodipodi:docname="application-vnd.kde.okular-archive.svg">
  <defs
     id="defs4">
    <filter
       inkscape:collect="always"
       id="filter4837"
       x="-0.18714078"
       width="1.3742816"
       y="-0.29900974"
       height="1.5980195"
       color-interpolation-filters="sRGB">
      <feGaussianBlur
         inkscape:collect="always"
         stdDeviation="1.7501982"
         id="feGaussianBlur4839" />
    </filter>
    <filter
       inkscape:collect="always"
       id="filter4841"
       x="-0.1967949"
       width="1.3935899"
       y="-0.30751243"
       height="1.6150249"
       color-interpolation-filters="sRGB">
      <feGaussianBlur
         inkscape:collect="always"
         stdDeviation="1.9077161"
         id="feGaussianBlur4843" />
    </filter>
  </defs>
  <sodipodi:namedview
     id="base"
     pagecolor="#ffffff"
     bordercolor="#666666"
     borderopacity="1.0"
     inkscape:pageopacity="0.0"
     inkscape:pageshadow="2"
     inkscape:zoom="22.4"
     inkscape:cx="9.5824243"
     inkscape:cy="2.7884415"
     inkscape:document-units="px"
     inkscape:current-layer="layer1"
     showgrid="true"
     inkscape:showpageshadow="false"
     borderlayer="true"
     inkscape:window-width="1920"
     inkscape:window-height="1033"
     inkscape:window-x="-4"
     inkscape:window-y="30"
     inkscape:window-maximized="1"
     units="px"
     inkscape:snap-bbox="true"
     inkscape:snap-global="true">
    <inkscape:grid
       type="xygrid"
       id="grid4101" />
    <sodipodi:guide
       position="2,14.000017"
       orientation="12,0"
       id="guide4071" />
    <sodipodi:guide
       position="2,2.0000174"
       orientation="0,12"
       id="guide4073" />
    <sodipodi:guide
       position="14,4"
       orientation="-12,0"
       id="guide4075" />
    <sodipodi:guide
       position="14,14.000017"
       orientation="0,-12"
       id="guide4077" />
  </sodipodi:namedview>
  <metadata
     id="metadata7">
    <rdf:RDF>
      <cc:Work
         rdf:about="">
        <dc:format>image/svg+xml</dc:format>
        <dc:type
           rdf:resource="http://purl.org/dc/dcmitype/StillImage" />
        <dc:title />
      </cc:Work>
    </rdf:RDF>
  </metadata>
  <g
     inkscape:label="Capa 1"
     inkscape:groupmode="layer"
     id="layer1"
     transform="translate(0,-1036.3622)">
    <g
       id="g3048"
       transform="matrix(0.36923078,0,0,0.36919882,9.2753829,659.63068)">
      <path
         style="fill:#637180;fill-opacity:1;stroke:none"
         d="m -18.238278,1044.8274 5.424711,-1.4105 0.117674,0.5877 -5.640214,1.4781 z"
         id="path4781"
         inkscape:connector-curvature="0"
         sodipodi:nodetypes="ccccc" />
      <path
         sodipodi:nodetypes="ssssss"
         inkscape:connector-curvature="0"
         id="path4785"
         d="m -12.67174,1044.1391 c 16.3872431,-3.5179 17.0141153,-3.1147 23.796392,-1.2966 0.761219,0.204 1.244884,0.5462 1.614742,-0.4527 0.230319,-0.622 -0.239387,-0.5344 -1.498222,-0.9317 -7.7305915,-2.4403 -14.1879979,-0.5164 -24.058579,1.8371 -0.277982,0.066 -0.178215,0.9135 0.145667,0.8439 z"
         style="fill:#637180;fill-opacity:1;stroke:none" />
      <path
         style="fill:#637180;fill-opacity:1;stroke:none"
         d="m 10.226756,1037.0932 -5.6953628,1.6221 0.1647446,0.6112 5.7395752,-1.5613 z"
         id="path4779"
         inkscape:connector-curvature="0"
         sodipodi:nodetypes="ccccc" />
      <path
         style="fill:#637180;fill-opacity:1;stroke:none"
         d="m 4.9307065,1039.3857 c -15.9225535,5.2304 -16.2597305,5.8947 -21.1943255,10.8852 -0.553845,0.5601 -0.798271,1.0995 -1.622546,0.4239 -0.513291,-0.4207 -0.06357,-0.582 0.822028,-1.56 5.438509,-6.0059 11.9846043,-7.603 21.693859,-10.551 0.2734407,-0.083 0.6156881,0.6986 0.3009845,0.8019 z"
         id="path4783"
         inkscape:connector-curvature="0"
         sodipodi:nodetypes="ssssss" />
      <path
         inkscape:connector-curvature="0"
         style="fill:#637180;fill-opacity:1;stroke:none"
         d="m 6.5494664,1035.6231 c -0.9614515,0.024 -2.0427549,0.1663 -3.1903989,0.4696 -3.29775654,0.8715 -4.6364254,2.0403 -5.2305761,3.5055 -2.2218706,-0.2957 -3.1228883,0.1904 -4.4497658,1.2747 -1.54493,-0.7686 -2.5456639,-1.6197 -7.2623606,-0.2851 -3.315168,0.9381 -4.992268,2.591 -4.802388,4.2267 l -1.318139,0.2348 0.243475,0.8806 1.292952,-0.2348 c 0.669807,2.0141 3.336972,3.7335 8.521725,1.6772 4.6143193,-1.8299 4.4189517,-4.4978 3.6101913,-6.1304 0,0 1.7053764,-1.6376 4.0635621,-1.1237 0.5198558,3.0348 2.42967144,4.654 7.9424126,3.0945 3.6880795,-1.0433 4.962433,-2.7059 4.743621,-5.3421 l 1.217391,-0.2935 -0.184708,-0.9309 -1.200597,0.2684 c -0.348568,-0.8024 -1.8811992,-1.3443 -3.9963966,-1.2915 z m 0.4113931,0.4696 c 1.6140881,0.02 3.0752795,0.3958 3.2491735,1.4928 0.293485,1.8514 0.08714,3.9849 -4.3993931,5.275 -3.6990401,1.0637 -6.19079674,0.7607 -7.0944429,-1.7192 -0.8214802,-2.2544 1.37143489,-3.7293 4.7436225,-4.6293 0.8982025,-0.2397 2.2456402,-0.4349 3.50104,-0.4193 z m -16.7663856,4.1932 c 2.4770463,0.01 3.6703772,1.1881 3.8116852,2.0127 0.2364171,1.3796 0.060235,3.3646 -4.6512661,5.0318 -4.007229,1.418 -6.339693,0.066 -7.018878,-1.6018 -0.735745,-1.8062 0.292638,-3.7192 4.945116,-5.0066 1.121815,-0.3105 2.087656,-0.4395 2.9133429,-0.4361 z"
         id="path4787" />
    </g>
  </g>
</svg>
