<?xml version="1.0" encoding="UTF-8" standalone="no"?>
<!-- Created with Inkscape (http://www.inkscape.org/) -->

<svg
   xmlns:dc="http://purl.org/dc/elements/1.1/"
   xmlns:cc="http://creativecommons.org/ns#"
   xmlns:rdf="http://www.w3.org/1999/02/22-rdf-syntax-ns#"
   xmlns:svg="http://www.w3.org/2000/svg"
   xmlns="http://www.w3.org/2000/svg"
   xmlns:sodipodi="http://sodipodi.sourceforge.net/DTD/sodipodi-0.dtd"
   xmlns:inkscape="http://www.inkscape.org/namespaces/inkscape"
   width="16"
   height="16"
   id="svg2"
   version="1.1"
   inkscape:version="0.48.5 r10040"
   viewBox="0 0 16 16"
   sodipodi:docname="application-x-apk.svg">
  <defs
     id="defs4" />
  <sodipodi:namedview
     id="base"
     pagecolor="#ffffff"
     bordercolor="#666666"
     borderopacity="1.0"
     inkscape:pageopacity="0.0"
     inkscape:pageshadow="2"
     inkscape:zoom="31.625"
     inkscape:cx="-2.624506"
     inkscape:cy="8"
     inkscape:document-units="px"
     inkscape:current-layer="layer1"
     showgrid="true"
     inkscape:showpageshadow="false"
     borderlayer="true"
     inkscape:window-width="1920"
     inkscape:window-height="1033"
     inkscape:window-x="-4"
     inkscape:window-y="30"
     inkscape:window-maximized="1"
     units="px"
     inkscape:snap-bbox="true"
     inkscape:snap-global="true">
    <inkscape:grid
       type="xygrid"
       id="grid4101" />
    <sodipodi:guide
       position="2,14.000017"
       orientation="12,0"
       id="guide4071" />
    <sodipodi:guide
       position="2,2.0000174"
       orientation="0,12"
       id="guide4073" />
    <sodipodi:guide
       position="14,2.0000174"
       orientation="-12,0"
       id="guide4075" />
    <sodipodi:guide
       position="14,14.000017"
       orientation="0,-12"
       id="guide4077" />
  </sodipodi:namedview>
  <metadata
     id="metadata7">
    <rdf:RDF>
      <cc:Work
         rdf:about="">
        <dc:format>image/svg+xml</dc:format>
        <dc:type
           rdf:resource="http://purl.org/dc/dcmitype/StillImage" />
        <dc:title />
      </cc:Work>
    </rdf:RDF>
  </metadata>
  <g
     inkscape:label="Capa 1"
     inkscape:groupmode="layer"
     id="layer1"
     transform="translate(0,-1036.3622)">
    <path
       style="fill:#04896a;fill-opacity:1;stroke:none"
       d="m 6.0396388,1038.3643 c -0.011719,-4e-4 -0.021687,0 -0.033449,0 -0.031394,0 -0.062547,0.014 -0.091996,0.032 -0.1178057,0.069 -0.1593915,0.224 -0.094089,0.3478 l 0.3888987,0.7374 c -0.9037708,0.5066 -1.5274455,1.3838 -1.6183214,2.3954 l 6.8538289,0 c -0.0905,-1.0122 -0.71748,-1.8889 -1.6225057,-2.3954 l 0.3888997,-0.7374 c 0.06531,-0.1238 0.02165,-0.2791 -0.09618,-0.3478 -0.02947,-0.017 -0.0585,-0.028 -0.0899,-0.032 -0.094221,-0.011 -0.1893821,0.038 -0.2383574,0.1313 l -0.4098076,0.7768 c -0.4175861,-0.1629 -0.8772214,-0.254 -1.36115,-0.254 -0.4837798,0 -0.9439705,0.091 -1.36115,0.254 l -0.4098076,-0.7768 c -0.042849,-0.081 -0.1227858,-0.1297 -0.2049037,-0.1334 z m 0.6607133,2.0164 c 0.209604,0 0.3784444,0.1702 0.3784444,0.379 0,0.2089 -0.1688404,0.377 -0.3784444,0.377 -0.2096041,0 -0.3805387,-0.1681 -0.3805387,-0.377 0,-0.2088 0.1709346,-0.379 0.3805387,-0.379 z m 2.630296,0 c 0.2096041,0 0.3805387,0.1702 0.3805387,0.379 0,0.2089 -0.1709346,0.377 -0.3805387,0.377 -0.2096041,0 -0.3784445,-0.1681 -0.3784445,-0.377 0,-0.2088 0.1688404,-0.379 0.3784445,-0.379 z m -5.8690332,1.8142 c -0.5046143,0 -0.9116149,0.4055 -0.9116149,0.9082 l 0,3.0244 c 0,0.5027 0.4070006,0.9083 0.9116149,0.9083 0.5046099,0 0.9095204,-0.4056 0.9095204,-0.9083 l 0,-3.0244 c 0,-0.5027 -0.4049105,-0.9082 -0.9095204,-0.9082 z m 1.1123341,0 0,5.0845 c 0,0.4514 0.3712124,0.8145 0.8321597,0.8145 l 0.079456,0 0,1.3372 c 0,0.5162 0.4050548,0.9311 0.9095204,0.9311 0.5044701,0 0.9116148,-0.4149 0.9116148,-0.9311 l 0,-1.3372 1.315148,0 0,1.3372 c 0,0.5162 0.4071449,0.9311 0.9116149,0.9311 0.5044692,0 0.9116152,-0.4149 0.9116152,-0.9311 l 0,-1.3372 0.179814,0 c 0.460948,0 0.83216,-0.3631 0.83216,-0.8145 l 0,-5.0845 -6.8831021,0 z m 7.995436,0 c -0.50461,0 -0.911614,0.4055 -0.911614,0.9082 l 0,3.0244 c 0,0.5027 0.407004,0.9083 0.911614,0.9083 0.504615,0 0.911615,-0.4056 0.911615,-0.9083 l 0,-3.0244 c 0,-0.5027 -0.407,-0.9082 -0.911615,-0.9082 z"
       id="path3879"
       inkscape:connector-curvature="0" />
  </g>
</svg>
