<?xml version="1.0" encoding="UTF-8" standalone="no"?>
<!-- Created with Inkscape (http://www.inkscape.org/) -->

<svg
   xmlns:dc="http://purl.org/dc/elements/1.1/"
   xmlns:cc="http://creativecommons.org/ns#"
   xmlns:rdf="http://www.w3.org/1999/02/22-rdf-syntax-ns#"
   xmlns:svg="http://www.w3.org/2000/svg"
   xmlns="http://www.w3.org/2000/svg"
   xmlns:sodipodi="http://sodipodi.sourceforge.net/DTD/sodipodi-0.dtd"
   xmlns:inkscape="http://www.inkscape.org/namespaces/inkscape"
   width="16"
   height="16"
   id="svg2"
   version="1.1"
   inkscape:version="0.48.5 r10040"
   viewBox="0 0 16 16"
   sodipodi:docname="application-x-csproj.svg">
  <defs
     id="defs4" />
  <sodipodi:namedview
     id="base"
     pagecolor="#ffffff"
     bordercolor="#666666"
     borderopacity="1.0"
     inkscape:pageopacity="0.0"
     inkscape:pageshadow="2"
     inkscape:zoom="31.678384"
     inkscape:cx="6.987378"
     inkscape:cy="8.7210813"
     inkscape:document-units="px"
     inkscape:current-layer="layer1"
     showgrid="true"
     inkscape:showpageshadow="false"
     borderlayer="true"
     inkscape:window-width="1920"
     inkscape:window-height="1033"
     inkscape:window-x="-4"
     inkscape:window-y="30"
     inkscape:window-maximized="1"
     units="px"
     inkscape:snap-bbox="true">
    <inkscape:grid
       type="xygrid"
       id="grid4101" />
    <sodipodi:guide
       position="2,14.000017"
       orientation="12,0"
       id="guide4071" />
    <sodipodi:guide
       position="2,2.0000174"
       orientation="0,12"
       id="guide4073" />
    <sodipodi:guide
       position="14,2.0000174"
       orientation="-12,0"
       id="guide4075" />
    <sodipodi:guide
       position="14,14.000017"
       orientation="0,-12"
       id="guide4077" />
  </sodipodi:namedview>
  <metadata
     id="metadata7">
    <rdf:RDF>
      <cc:Work
         rdf:about="">
        <dc:format>image/svg+xml</dc:format>
        <dc:type
           rdf:resource="http://purl.org/dc/dcmitype/StillImage" />
        <dc:title />
      </cc:Work>
    </rdf:RDF>
  </metadata>
  <g
     inkscape:label="Capa 1"
     inkscape:groupmode="layer"
     id="layer1"
     transform="translate(0,-1036.3622)">
    <g
       id="g14465"
       transform="matrix(0.08024657,0,0,0.08024726,-2.3515413,1031.5463)"
       style="fill:#6c7a89;fill-opacity:1">
      <path
         inkscape:connector-curvature="0"
         style="fill:#6c7a89;fill-opacity:1;fill-rule:evenodd;stroke:none"
         d="m 101.65625,106.5625 c -15.416799,0.002 -34.767425,13.57568 -41.40625,30.3125 -6.638826,16.73682 -3.919086,29.89102 0,43.9375 3.919085,14.04647 8.896239,23.82442 13.5,34.96875 l 21.21875,-8.84375 c -4.869662,-9.97534 -11.248801,-19.93745 -13.5,-24.875 -6.3024,-13.82521 -8.619942,-20.02502 -8.09375,-30.5625 0.508779,-10.18769 4.05586,-16.46273 10.25,-22.46875 6.194275,-6.00548 14.611681,-8.97852 24.84375,-7.5625 14.12875,1.9574 21.98863,9.60211 25.90625,16.90625 2.84893,-0.57128 5.93739,-0.86356 9.28125,-0.84375 0.99651,0.006 2.00796,0.0435 3,0.15625 -4.9022,-15.27362 -23.7893,-31.12745 -45,-31.125 z m 6.5625,27.46875 c -8.76827,0.24449 -19.741543,5.10533 -19.6875,17.875 0.05772,13.64038 8.727523,23.6598 18.9375,27.28125 -0.007,-0.0934 -0.025,-0.18782 -0.0313,-0.28125 -0.21081,-3.17867 -0.15649,-6.64512 0.28125,-10.1875 -5.85102,-2.80489 -9.175729,-8.26001 -9.71875,-15.8125 -0.574784,-7.99826 7.1592,-15.95415 19.6875,-11.875 2.01654,0.65618 2.15422,-2.94447 -0.125,-4.78125 -1.83365,-1.47768 -5.35817,-2.32988 -9.34375,-2.21875 z m 35.375,11.5 c -2.32693,-0.0138 -4.43585,0.12667 -6.375,0.40625 0.13558,0.63887 0.24004,1.26502 0.3125,1.84375 1.62272,-0.25684 3.33858,-0.33634 5.15625,-0.25 1.83666,0.0874 3.57697,0.32389 5.25,0.6875 0.0163,-0.72832 0.0142,-1.44688 0,-2.15625 -1.45048,-0.33169 -2.90682,-0.5229 -4.34375,-0.53125 z m -2.5625,9.9375 c -1.65254,0.0161 -3.11577,0.22483 -4.40625,0.59375 -1.4737,4.94898 -4.65651,10.43546 -10.53125,13.125 -0.35854,1.66818 -0.49611,3.1265 -0.4375,4.03125 0.0984,1.52063 0.56217,3.65919 1.5,6.03125 12.46564,-3.55571 18.02585,-13.21457 19.96875,-23.0625 -1.41701,-0.37594 -3.00309,-0.6014 -4.8125,-0.6875 -0.43843,-0.0208 -0.86812,-0.0353 -1.28125,-0.0313 z m -25.4375,15.25 c -0.26947,2.63428 -0.31666,5.23741 -0.15625,7.65625 0.0495,0.74641 0.15941,1.529 0.3125,2.3125 1.16381,0.005 2.25751,-0.0551 3.34375,-0.125 -0.81333,-2.45814 -1.27442,-4.77602 -1.40625,-6.8125 -0.0579,-0.89438 -0.0395,-1.88798 0.0313,-2.90625 -0.2998,-0.003 -0.59825,-0.0166 -0.90625,-0.0313 -0.41996,-0.02 -0.81221,-0.058 -1.21875,-0.0937 z"
         id="path14456" />
      <path
         id="path3607"
         d="m 99.65625,104.5625 c -15.416799,0.002 -34.767425,13.57568 -41.40625,30.3125 -6.638826,16.73682 -3.919086,29.89102 0,43.9375 3.919085,14.04647 8.896239,23.82442 13.5,34.96875 l 21.21875,-8.84375 c -4.869662,-9.97534 -11.248801,-19.93745 -13.5,-24.875 -6.3024,-13.82521 -8.619942,-20.02502 -8.09375,-30.5625 0.508779,-10.18769 4.05586,-16.46273 10.25,-22.46875 6.194275,-6.00548 14.611681,-8.97852 24.84375,-7.5625 14.12875,1.9574 21.98863,9.60211 25.90625,16.90625 2.84893,-0.57128 5.93739,-0.86356 9.28125,-0.84375 0.99651,0.006 2.00796,0.0435 3,0.15625 -4.9022,-15.27362 -23.7893,-31.12745 -45,-31.125 z m 6.5625,27.46875 c -8.76827,0.24449 -19.741543,5.10533 -19.6875,17.875 0.05772,13.64038 8.727523,23.6598 18.9375,27.28125 -0.007,-0.0934 -0.025,-0.18782 -0.0313,-0.28125 -0.21081,-3.17867 -0.15649,-6.64512 0.28125,-10.1875 -5.85102,-2.80489 -9.175729,-8.26001 -9.71875,-15.8125 -0.574784,-7.99826 7.1592,-15.95415 19.6875,-11.875 2.01654,0.65618 2.15422,-2.94447 -0.125,-4.78125 -1.83365,-1.47768 -5.35817,-2.32988 -9.34375,-2.21875 z m 35.375,11.5 c -2.32693,-0.0138 -4.43585,0.12667 -6.375,0.40625 0.13558,0.63887 0.24004,1.26502 0.3125,1.84375 1.62272,-0.25684 3.33858,-0.33634 5.15625,-0.25 1.83666,0.0874 3.57697,0.32389 5.25,0.6875 0.0163,-0.72832 0.0142,-1.44688 0,-2.15625 -1.45048,-0.33169 -2.90682,-0.5229 -4.34375,-0.53125 z m -2.5625,9.9375 c -1.65254,0.0161 -3.11577,0.22483 -4.40625,0.59375 -1.4737,4.94898 -4.65651,10.43546 -10.53125,13.125 -0.35854,1.66818 -0.49611,3.1265 -0.4375,4.03125 0.0984,1.52063 0.56217,3.65919 1.5,6.03125 12.46564,-3.55571 18.02585,-13.21457 19.96875,-23.0625 -1.41701,-0.37594 -3.00309,-0.6014 -4.8125,-0.6875 -0.43843,-0.0208 -0.86812,-0.0353 -1.28125,-0.0313 z m -25.4375,15.25 c -0.26947,2.63428 -0.31666,5.23741 -0.15625,7.65625 0.0495,0.74641 0.15941,1.529 0.3125,2.3125 1.16381,0.005 2.25751,-0.0551 3.34375,-0.125 -0.81333,-2.45814 -1.27442,-4.77602 -1.40625,-6.8125 -0.0579,-0.89438 -0.0395,-1.88798 0.0313,-2.90625 -0.2998,-0.003 -0.59825,-0.0166 -0.90625,-0.0313 -0.41996,-0.02 -0.81221,-0.058 -1.21875,-0.0937 z"
         style="fill:#6c7a89;fill-opacity:1;fill-rule:evenodd;stroke:none"
         inkscape:connector-curvature="0" />
      <path
         inkscape:connector-curvature="0"
         d="m 185.54045,106.57274 -21.20759,8.83647 c 4.86954,9.97646 11.25605,19.92913 13.50721,24.86834 6.30239,13.82525 8.60526,20.01089 8.07906,30.54893 -0.50873,10.18599 -4.0308,16.33706 -10.22507,22.34364 -6.19418,6.00549 -14.63638,9.11698 -24.8684,7.70035 -21.67013,-2.99991 -28.64318,-19.40322 -29.1604,-27.39305 -0.42561,-6.57041 4.18031,-22.75575 20.82886,-21.96493 11.54144,0.54917 18.02886,6.94686 18.8091,17.79917 0.57477,7.99773 -7.1645,16.07203 -19.69276,11.99235 -2.01665,-0.65562 -2.15294,2.96017 0.12625,4.79694 5.86766,4.72912 29.23897,2.92034 29.1604,-15.65318 -0.0728,-17.2121 -13.96779,-28.83067 -27.26688,-28.90786 -27.85268,-0.16502 -33.19582,21.9474 -32.19005,37.11316 1.11442,16.80149 22.17968,37.11768 46.2022,37.11316 15.84689,-7.3e-4 35.62012,-15.70643 42.03642,-31.93751 6.4163,-16.2311 4.39014,-25.944 0,-40.01658 -3.38213,-14.56529 -9.28204,-25.48303 -14.13837,-37.2394 z"
         id="path14463"
         style="fill:#6c7a89;fill-opacity:1;fill-rule:evenodd;stroke:none" />
      <path
         style="fill:#6c7a89;fill-opacity:1;fill-rule:evenodd;stroke:none"
         id="path3611"
         d="m 183.54045,104.57274 -21.20759,8.83647 c 4.86954,9.97646 11.25605,19.92913 13.50721,24.86834 6.30239,13.82525 8.60526,20.01089 8.07906,30.54893 -0.50873,10.18599 -4.0308,16.33706 -10.22507,22.34364 -6.19418,6.00549 -14.63638,9.11698 -24.8684,7.70035 -21.67013,-2.99991 -28.64318,-19.40322 -29.1604,-27.39305 -0.42561,-6.57041 4.18031,-22.75575 20.82886,-21.96493 11.54144,0.54917 18.02886,6.94686 18.8091,17.79917 0.57477,7.99773 -7.1645,16.07203 -19.69276,11.99235 -2.01665,-0.65562 -2.15294,2.96017 0.12625,4.79694 5.86766,4.72912 29.23897,2.92034 29.1604,-15.65318 -0.0728,-17.2121 -13.96779,-28.83067 -27.26688,-28.90786 -27.85268,-0.16502 -33.19582,21.9474 -32.19005,37.11316 1.11442,16.80149 22.17968,37.11768 46.2022,37.11316 15.84689,-7.3e-4 35.62012,-15.70643 42.03642,-31.93751 6.4163,-16.2311 4.39014,-25.944 0,-40.01658 -3.38213,-14.56529 -9.28204,-25.48303 -14.13837,-37.2394 z"
         inkscape:connector-curvature="0" />
      <path
         id="path14458"
         d="m 183.53125,104.5625 -21.1875,8.84375 c 4.86954,9.97646 11.24884,19.93579 13.5,24.875 6.30239,13.82525 8.5887,19.99321 8.0625,30.53125 -0.50873,10.18599 -4.02448,16.33717 -10.21875,22.34375 -6.19418,6.00549 -14.64298,9.13538 -24.875,7.71875 -8.68082,-1.20173 -15.00634,-4.55525 -19.5,-8.65625 4.54972,4.98669 11.44068,9.26369 21.5,10.65625 10.23202,1.41663 18.68082,-1.71326 24.875,-7.71875 6.19427,-6.00658 9.71002,-12.15776 10.21875,-22.34375 0.5262,-10.53804 -1.76011,-16.706 -8.0625,-30.53125 -2.25116,-4.93921 -8.63046,-14.89854 -13.5,-24.875 l 20.21875,-8.4375 c -0.34258,-0.80178 -0.69738,-1.598 -1.03125,-2.40625 z M 141.625,139.53125 c -27.85268,-0.16502 -33.19327,21.95924 -32.1875,37.125 0.50142,7.55958 5.06245,15.81344 12.09375,22.625 -5.8987,-6.38764 -9.64102,-13.79939 -10.09375,-20.625 -1.00577,-15.16576 4.33482,-37.29002 32.1875,-37.125 6.23395,0.0362 12.6142,2.62953 17.625,7.125 -5.24784,-5.73335 -12.5127,-9.08372 -19.625,-9.125 z m 13.53125,16.34375 c 2.4103,2.91215 3.81951,6.75384 4.15625,11.4375 0.57477,7.99773 -7.15924,16.07968 -19.6875,12 -2.01665,-0.65562 -2.15419,2.94448 0.125,4.78125 0.24234,0.19532 0.51332,0.3902 0.8125,0.5625 -0.94957,-1.80816 -0.50234,-3.85249 1.0625,-3.34375 12.52826,4.07968 20.26227,-4.00227 19.6875,-12 -0.42067,-5.85112 -2.51987,-10.39469 -6.15625,-13.4375 z"
         style="opacity:0.7;fill:#6c7a89;fill-opacity:1;fill-rule:evenodd;stroke:none"
         inkscape:connector-curvature="0" />
    </g>
  </g>
</svg>
