<?xml version="1.0" encoding="UTF-8" standalone="no"?>
<!-- Created with Inkscape (http://www.inkscape.org/) -->

<svg
   xmlns:dc="http://purl.org/dc/elements/1.1/"
   xmlns:cc="http://creativecommons.org/ns#"
   xmlns:rdf="http://www.w3.org/1999/02/22-rdf-syntax-ns#"
   xmlns:svg="http://www.w3.org/2000/svg"
   xmlns="http://www.w3.org/2000/svg"
   xmlns:sodipodi="http://sodipodi.sourceforge.net/DTD/sodipodi-0.dtd"
   xmlns:inkscape="http://www.inkscape.org/namespaces/inkscape"
   width="16"
   height="16"
   id="svg2"
   version="1.1"
   inkscape:version="0.48.5 r10040"
   viewBox="0 0 16 16"
   sodipodi:docname="exec.svg">
  <defs
     id="defs4" />
  <sodipodi:namedview
     id="base"
     pagecolor="#ffffff"
     bordercolor="#666666"
     borderopacity="1.0"
     inkscape:pageopacity="0.0"
     inkscape:pageshadow="2"
     inkscape:zoom="31.625"
     inkscape:cx="2.687747"
     inkscape:cy="8"
     inkscape:document-units="px"
     inkscape:current-layer="layer1"
     showgrid="true"
     inkscape:showpageshadow="false"
     borderlayer="true"
     inkscape:window-width="1920"
     inkscape:window-height="1033"
     inkscape:window-x="-4"
     inkscape:window-y="30"
     inkscape:window-maximized="1"
     units="px"
     inkscape:snap-bbox="true"
     showguides="true">
    <inkscape:grid
       type="xygrid"
       id="grid4101" />
    <sodipodi:guide
       position="2,14.000017"
       orientation="12,0"
       id="guide4071" />
    <sodipodi:guide
       position="2,2.0000174"
       orientation="0,12"
       id="guide4073" />
    <sodipodi:guide
       position="14,2.0000174"
       orientation="-12,0"
       id="guide4075" />
    <sodipodi:guide
       position="14,14.000017"
       orientation="0,-12"
       id="guide4077" />
    <sodipodi:guide
       position="13,4.0078"
       orientation="0.01,0"
       id="guide4163" />
    <sodipodi:guide
       position="13,3.9978"
       orientation="0,-1.40625"
       id="guide4165" />
    <sodipodi:guide
       position="11,4.0078"
       orientation="0.01,0"
       id="guide4187" />
    <sodipodi:guide
       position="11,3.9978"
       orientation="0,-1.4082031"
       id="guide4189" />
  </sodipodi:namedview>
  <metadata
     id="metadata7">
    <rdf:RDF>
      <cc:Work
         rdf:about="">
        <dc:format>image/svg+xml</dc:format>
        <dc:type
           rdf:resource="http://purl.org/dc/dcmitype/StillImage" />
        <dc:title />
      </cc:Work>
    </rdf:RDF>
  </metadata>
  <g
     inkscape:label="Capa 1"
     inkscape:groupmode="layer"
     id="layer1"
     transform="translate(0,-1036.3622)">
    <path
       inkscape:connector-curvature="0"
       style="text-decoration:none;color:#000000;fill:#04896a;fill-opacity:1;fill-rule:nonzero;stroke:none;visibility:visible;display:inline;overflow:visible;enable-background:accumulate"
       d="m 7.333333,1038.3622 -1.122396,1.6823 -1.98177,-0.3958 -0.942708,0.9427 0.395833,1.9818 L 2,1043.6955 l 0,1.3334 1.682292,1.1223 -0.395833,1.9818 0.942708,0.9427 1.98177,-0.3958 1.122396,1.6823 1.333334,0 1.122396,-1.6823 1.98177,0.3958 0.942708,-0.9427 -0.395833,-1.9818 1.682292,-1.1223 0,-1.3334 -1.682292,-1.1223 0.395833,-1.9818 -0.942708,-0.9427 -1.98177,0.3958 -1.122396,-1.6823 -1.333334,0 z m 0.666667,2 c 1.080034,0 2.055161,0.4262 2.773437,1.1172 l 0.109376,0.1094 C 11.573829,1042.307 12,1043.2821 12,1044.3622 c 0,1.0801 -0.426171,2.0552 -1.117187,2.7734 l -0.109376,0.1094 c -0.718276,0.691 -1.693403,1.1172 -2.773437,1.1172 -1.080034,0 -2.055161,-0.4262 -2.773437,-1.1172 l -0.109376,-0.1094 C 4.426171,1046.4174 4,1045.4423 4,1044.3622 c 0,-1.0801 0.426171,-2.0552 1.117187,-2.7734 l 0.109376,-0.1094 c 0.718276,-0.691 1.693403,-1.1172 2.773437,-1.1172 z m 0,1.3333 c -1.477333,0 -2.666667,1.1894 -2.666667,2.6667 0,1.4773 1.189334,2.6667 2.666667,2.6667 1.477333,0 2.666667,-1.1894 2.666667,-2.6667 0,-1.4773 -1.189334,-2.6667 -2.666667,-2.6667 z m 0,0.6667 c 1.108,0 2,0.892 2,2 0,1.108 -0.892,2 -2,2 -1.108,0 -2,-0.892 -2,-2 0,-1.108 0.892,-2 2,-2 z"
       id="rect4232" />
  </g>
</svg>
