<?xml version="1.0" encoding="UTF-8" standalone="no"?>
<!-- Created with Inkscape (http://www.inkscape.org/) -->

<svg
   xmlns:dc="http://purl.org/dc/elements/1.1/"
   xmlns:cc="http://creativecommons.org/ns#"
   xmlns:rdf="http://www.w3.org/1999/02/22-rdf-syntax-ns#"
   xmlns:svg="http://www.w3.org/2000/svg"
   xmlns="http://www.w3.org/2000/svg"
   xmlns:sodipodi="http://sodipodi.sourceforge.net/DTD/sodipodi-0.dtd"
   xmlns:inkscape="http://www.inkscape.org/namespaces/inkscape"
   width="16"
   height="16"
   id="svg2"
   version="1.1"
   inkscape:version="0.48.5 r10040"
   viewBox="0 0 16 16"
   sodipodi:docname="inode-chardevice.svg">
  <defs
     id="defs4" />
  <sodipodi:namedview
     id="base"
     pagecolor="#ffffff"
     bordercolor="#666666"
     borderopacity="1.0"
     inkscape:pageopacity="0.0"
     inkscape:pageshadow="2"
     inkscape:zoom="22.4"
     inkscape:cx="0.40554456"
     inkscape:cy="9.4933295"
     inkscape:document-units="px"
     inkscape:current-layer="layer1"
     showgrid="true"
     inkscape:showpageshadow="false"
     borderlayer="true"
     inkscape:window-width="1920"
     inkscape:window-height="1033"
     inkscape:window-x="-4"
     inkscape:window-y="30"
     inkscape:window-maximized="1"
     units="px"
     inkscape:snap-bbox="true"
     inkscape:snap-global="true"
     showguides="true">
    <inkscape:grid
       type="xygrid"
       id="grid4101" />
    <sodipodi:guide
       position="2,14.000017"
       orientation="12,0"
       id="guide4071" />
    <sodipodi:guide
       position="2,2.0000174"
       orientation="0,12"
       id="guide4073" />
    <sodipodi:guide
       position="14,2.0000174"
       orientation="-12,0"
       id="guide4075" />
    <sodipodi:guide
       position="14,14.000017"
       orientation="0,-12"
       id="guide4077" />
  </sodipodi:namedview>
  <metadata
     id="metadata7">
    <rdf:RDF>
      <cc:Work
         rdf:about="">
        <dc:format>image/svg+xml</dc:format>
        <dc:type
           rdf:resource="http://purl.org/dc/dcmitype/StillImage" />
        <dc:title />
      </cc:Work>
    </rdf:RDF>
  </metadata>
  <g
     inkscape:label="Capa 1"
     inkscape:groupmode="layer"
     id="layer1"
     transform="translate(0,-1036.3622)">
    <g
       transform="matrix(0.88888889,0,0,0.91428052,-13.962243,1019.8481)"
       id="g3052"
       style="fill:#647281;fill-opacity:1">
      <rect
         height="0.75"
         width="0.75007451"
         transform="matrix(0,-1,1,0,0,0)"
         id="rect3345"
         x="-32.25"
         y="30.707523"
         style="fill:#647281;fill-opacity:1;fill-rule:evenodd;stroke:none" />
      <rect
         height="2.25"
         width="0.75007451"
         transform="matrix(0,-1,1,0,0,0)"
         id="rect36461"
         x="-22.125074"
         y="29.207523"
         style="fill:#647281;fill-opacity:1;fill-rule:evenodd;stroke:none" />
      <rect
         height="2.25"
         width="0.75007451"
         transform="matrix(0,-1,1,0,0,0)"
         id="rect36462"
         x="-21"
         y="29.207523"
         style="fill:#647281;fill-opacity:1;fill-rule:evenodd;stroke:none" />
      <rect
         height="0.75"
         width="0.75007451"
         transform="matrix(0,-1,1,0,0,0)"
         id="rect33451"
         x="-33.375"
         y="30.707523"
         style="fill:#647281;fill-opacity:1;fill-rule:evenodd;stroke:none" />
      <rect
         height="4.125"
         width="0.75007451"
         transform="matrix(0,-1,1,0,0,0)"
         id="rect334514"
         x="-22.125074"
         y="23.582523"
         style="fill:#647281;fill-opacity:1;fill-rule:evenodd;stroke:none" />
      <rect
         height="0.1875"
         width="5.25"
         transform="matrix(0,-1,1,0,0,0)"
         id="rect334522"
         x="-32.624924"
         y="18.238773"
         style="fill:#647281;fill-opacity:1;fill-rule:evenodd;stroke:none" />
      <rect
         height="0.75"
         width="2.625"
         transform="matrix(0,-1,1,0,0,0)"
         id="rect334523"
         x="-31.312424"
         y="17.957523"
         style="fill:#647281;fill-opacity:1;fill-rule:evenodd;stroke:none" />
      <rect
         height="0.1875"
         width="4.125"
         id="rect334524"
         x="23.582523"
         y="29.718678"
         style="fill:#647281;fill-opacity:1;fill-rule:evenodd;stroke:none" />
      <rect
         height="1.125"
         width="2.625"
         id="rect334525"
         x="24.332523"
         y="29.249928"
         style="fill:#647281;fill-opacity:1;fill-rule:evenodd;stroke:none" />
      <rect
         style="fill:#647281;fill-opacity:1;fill-rule:evenodd;stroke:none"
         y="29.207523"
         x="-25.500002"
         id="rect4278"
         transform="matrix(0,-1,1,0,0,0)"
         width="0.75007457"
         height="2.25" />
      <rect
         style="fill:#647281;fill-opacity:1;fill-rule:evenodd;stroke:none"
         y="29.207523"
         x="-24.374928"
         id="rect4280"
         transform="matrix(0,-1,1,0,0,0)"
         width="0.75007457"
         height="2.25" />
      <rect
         height="2.25"
         width="0.75007457"
         transform="matrix(0,-1,1,0,0,0)"
         id="rect4282"
         x="-27.750002"
         y="29.207523"
         style="fill:#647281;fill-opacity:1;fill-rule:evenodd;stroke:none" />
      <rect
         height="2.25"
         width="0.75007457"
         transform="matrix(0,-1,1,0,0,0)"
         id="rect4284"
         x="-26.624928"
         y="29.207523"
         style="fill:#647281;fill-opacity:1;fill-rule:evenodd;stroke:none" />
      <rect
         style="fill:#647281;fill-opacity:1;fill-rule:evenodd;stroke:none"
         y="29.207523"
         x="-29.999996"
         id="rect4286"
         transform="matrix(0,-1,1,0,0,0)"
         width="0.75007457"
         height="2.25" />
      <rect
         style="fill:#647281;fill-opacity:1;fill-rule:evenodd;stroke:none"
         y="29.207523"
         x="-28.874928"
         id="rect4288"
         transform="matrix(0,-1,1,0,0,0)"
         width="0.75007457"
         height="2.25" />
      <rect
         height="2.25"
         width="0.75007457"
         transform="matrix(0,-1,1,0,0,0)"
         id="rect4290"
         x="-31.125002"
         y="29.207523"
         style="fill:#647281;fill-opacity:1;fill-rule:evenodd;stroke:none" />
      <rect
         style="fill:#647281;fill-opacity:1;fill-rule:evenodd;stroke:none"
         y="23.582523"
         x="-23.250149"
         id="rect4340"
         transform="matrix(0,-1,1,0,0,0)"
         width="0.75007451"
         height="4.125" />
      <rect
         height="4.125"
         width="0.75007451"
         transform="matrix(0,-1,1,0,0,0)"
         id="rect4344"
         x="-24.375223"
         y="23.582523"
         style="fill:#647281;fill-opacity:1;fill-rule:evenodd;stroke:none" />
      <rect
         style="fill:#647281;fill-opacity:1;fill-rule:evenodd;stroke:none"
         y="23.582523"
         x="-25.500298"
         id="rect4354"
         transform="matrix(0,-1,1,0,0,0)"
         width="0.75007451"
         height="4.125" />
      <rect
         height="5.25"
         width="2.625"
         stroke-miterlimit="2.00000000000"
         id="shape1"
         x="24.332523"
         y="21"
         style="fill:#647281;fill-opacity:1;fill-rule:evenodd;stroke:none" />
      <rect
         style="fill:#647281;fill-opacity:1;fill-rule:evenodd;stroke:none"
         y="17.957523"
         x="-22.125074"
         id="rect4372"
         transform="matrix(0,-1,1,0,0,0)"
         width="0.75007451"
         height="4.125" />
      <rect
         height="4.125"
         width="0.75007451"
         transform="matrix(0,-1,1,0,0,0)"
         id="rect4374"
         x="-23.250149"
         y="17.957523"
         style="fill:#647281;fill-opacity:1;fill-rule:evenodd;stroke:none" />
      <rect
         style="fill:#647281;fill-opacity:1;fill-rule:evenodd;stroke:none"
         y="17.957523"
         x="-24.375223"
         id="rect4376"
         transform="matrix(0,-1,1,0,0,0)"
         width="0.75007451"
         height="4.125" />
      <rect
         height="4.125"
         width="0.75007451"
         transform="matrix(0,-1,1,0,0,0)"
         id="rect4378"
         x="-25.500298"
         y="17.957523"
         style="fill:#647281;fill-opacity:1;fill-rule:evenodd;stroke:none" />
      <rect
         style="fill:#647281;fill-opacity:1;fill-rule:evenodd;stroke:none"
         y="21"
         x="18.707525"
         id="rect4380"
         stroke-miterlimit="2.00000000000"
         width="2.625"
         height="5.25" />
      <rect
         height="1.125"
         width="0.375"
         id="rect4384"
         x="25.457523"
         y="29.249928"
         style="fill:#647281;fill-opacity:1;fill-rule:evenodd;stroke:none" />
      <rect
         style="fill:#647281;fill-opacity:1;fill-rule:evenodd;stroke:none"
         y="29.249928"
         x="24.707523"
         id="rect4386"
         width="0.375"
         height="1.125" />
      <rect
         height="1.125"
         width="0.375"
         id="rect4388"
         x="26.207523"
         y="29.249928"
         style="fill:#647281;fill-opacity:1;fill-rule:evenodd;stroke:none" />
      <rect
         style="fill:#647281;fill-opacity:1;fill-rule:evenodd;stroke:none"
         y="31.968678"
         x="23.582523"
         id="rect4400"
         width="4.125"
         height="0.1875" />
      <rect
         style="fill:#647281;fill-opacity:1;fill-rule:evenodd;stroke:none"
         y="31.499928"
         x="24.332523"
         id="rect4392"
         width="2.625"
         height="1.125" />
      <rect
         style="fill:#647281;fill-opacity:1;fill-rule:evenodd;stroke:none"
         y="31.499928"
         x="25.457523"
         id="rect4394"
         width="0.375"
         height="1.125" />
      <rect
         height="1.125"
         width="0.375"
         id="rect4396"
         x="24.707523"
         y="31.499928"
         style="fill:#647281;fill-opacity:1;fill-rule:evenodd;stroke:none" />
      <rect
         style="fill:#647281;fill-opacity:1;fill-rule:evenodd;stroke:none"
         y="31.499928"
         x="26.207523"
         id="rect4398"
         width="0.375"
         height="1.125" />
      <rect
         style="fill:#647281;fill-opacity:1;fill-rule:evenodd;stroke:none"
         y="19.926275"
         x="-32.624924"
         id="rect4402"
         transform="matrix(0,-1,1,0,0,0)"
         width="5.25"
         height="0.1875" />
      <rect
         style="fill:#647281;fill-opacity:1;fill-rule:evenodd;stroke:none"
         y="19.645025"
         x="-31.312424"
         id="rect4404"
         transform="matrix(0,-1,1,0,0,0)"
         width="2.625"
         height="0.75" />
      <rect
         height="0.1875"
         width="5.25"
         transform="matrix(0,-1,1,0,0,0)"
         id="rect4406"
         x="-32.624924"
         y="21.613773"
         style="fill:#647281;fill-opacity:1;fill-rule:evenodd;stroke:none" />
      <rect
         height="0.75"
         width="2.625"
         transform="matrix(0,-1,1,0,0,0)"
         id="rect4408"
         x="-31.312424"
         y="21.332523"
         style="fill:#647281;fill-opacity:1;fill-rule:evenodd;stroke:none" />
    </g>
  </g>
</svg>
