<?xml version="1.0" encoding="UTF-8" standalone="no"?>
<!-- Created with Inkscape (http://www.inkscape.org/) -->

<svg
   xmlns:dc="http://purl.org/dc/elements/1.1/"
   xmlns:cc="http://creativecommons.org/ns#"
   xmlns:rdf="http://www.w3.org/1999/02/22-rdf-syntax-ns#"
   xmlns:svg="http://www.w3.org/2000/svg"
   xmlns="http://www.w3.org/2000/svg"
   xmlns:xlink="http://www.w3.org/1999/xlink"
   xmlns:sodipodi="http://sodipodi.sourceforge.net/DTD/sodipodi-0.dtd"
   xmlns:inkscape="http://www.inkscape.org/namespaces/inkscape"
   width="48"
   height="48"
   id="svg2"
   version="1.1"
   inkscape:version="0.48.5 r10040"
   sodipodi:docname="keepassx.svg">
  <defs
     id="defs4">
    <linearGradient
       id="linearGradient4062-2">
      <stop
         id="stop4064-1"
         style="stop-color:#206520;stop-opacity:1"
         offset="0" />
      <stop
         id="stop4066-6"
         style="stop-color:#5a9d35;stop-opacity:1"
         offset="1" />
    </linearGradient>
    <linearGradient
       id="linearGradient3714-58">
      <stop
         id="stop3716-9"
         style="stop-color:#d7d7d7;stop-opacity:1"
         offset="0" />
      <stop
         id="stop3718-57"
         style="stop-color:#c8c8c8;stop-opacity:1"
         offset="1" />
    </linearGradient>
    <linearGradient
       id="linearGradient3790-2">
      <stop
         id="stop3792-7"
         style="stop-color:#969696;stop-opacity:1"
         offset="0" />
      <stop
         id="stop3794-4"
         style="stop-color:#ffffff;stop-opacity:0.79069769"
         offset="1" />
    </linearGradient>
    <linearGradient
       id="linearGradient3813">
      <stop
         id="stop3815-41"
         style="stop-color:#666666;stop-opacity:1"
         offset="0" />
      <stop
         id="stop3817-0"
         style="stop-color:#666666;stop-opacity:0"
         offset="1" />
    </linearGradient>
    <linearGradient
       x1="48"
       y1="72"
       x2="48"
       y2="24"
       id="linearGradient3149-3"
       xlink:href="#linearGradient3714-58"
       gradientUnits="userSpaceOnUse"
       gradientTransform="translate(4,-4)" />
    <linearGradient
       id="linearGradient10286">
      <stop
         id="stop10288"
         style="stop-color:#d7d7d7;stop-opacity:1"
         offset="0" />
      <stop
         id="stop10290"
         style="stop-color:#c8c8c8;stop-opacity:1"
         offset="1" />
    </linearGradient>
    <radialGradient
       cx="57"
       cy="37"
       r="15"
       fx="57"
       fy="37"
       id="radialGradient3827"
       xlink:href="#linearGradient3737-24"
       gradientUnits="userSpaceOnUse"
       gradientTransform="matrix(1.2,7.0502532e-8,-6.070424e-8,1.0332266,-7.399999,-5.2293852)" />
    <linearGradient
       id="linearGradient3737-24">
      <stop
         id="stop3739-60"
         style="stop-color:#ffffff;stop-opacity:1"
         offset="0" />
      <stop
         id="stop3741-48"
         style="stop-color:#ffffff;stop-opacity:0"
         offset="1" />
    </linearGradient>
    <linearGradient
       x1="62.823048"
       y1="53.023079"
       x2="62.823048"
       y2="22.999353"
       id="linearGradient3742-9"
       xlink:href="#linearGradient3749"
       gradientUnits="userSpaceOnUse"
       gradientTransform="matrix(1,0,0,-1,4,66)" />
    <linearGradient
       id="linearGradient3749">
      <stop
         id="stop3751-6"
         style="stop-color:#000000;stop-opacity:0.5271318"
         offset="0" />
      <stop
         id="stop3757-75"
         style="stop-color:#7f7f7f;stop-opacity:0"
         offset="0.5" />
      <stop
         id="stop3753-9"
         style="stop-color:#ffffff;stop-opacity:1"
         offset="1" />
    </linearGradient>
    <linearGradient
       x1="59"
       y1="32"
       x2="69.1875"
       y2="32"
       id="linearGradient3755-1"
       xlink:href="#linearGradient3749"
       gradientUnits="userSpaceOnUse"
       gradientTransform="matrix(0.25881905,0.96592583,-0.96592583,0.25881905,82.414693,-42.192018)" />
    <linearGradient
       id="linearGradient10302">
      <stop
         id="stop10304"
         style="stop-color:#000000;stop-opacity:0.5271318"
         offset="0" />
      <stop
         id="stop10306"
         style="stop-color:#7f7f7f;stop-opacity:0"
         offset="0.5" />
      <stop
         id="stop10308"
         style="stop-color:#ffffff;stop-opacity:1"
         offset="1" />
    </linearGradient>
    <linearGradient
       inkscape:collect="always"
       xlink:href="#linearGradient3714-58"
       id="linearGradient3128"
       gradientUnits="userSpaceOnUse"
       gradientTransform="matrix(0.48308601,0,0,0.48308601,-56.900554,999.29538)"
       x1="48"
       y1="72"
       x2="48"
       y2="24" />
    <linearGradient
       inkscape:collect="always"
       xlink:href="#linearGradient3714-58"
       id="linearGradient3147"
       gradientUnits="userSpaceOnUse"
       gradientTransform="matrix(0.48308601,0,0,0.48308601,-56.900554,999.29538)"
       x1="48"
       y1="72"
       x2="48"
       y2="24" />
    <linearGradient
       inkscape:collect="always"
       xlink:href="#linearGradient3714-58"
       id="linearGradient3934"
       gradientUnits="userSpaceOnUse"
       gradientTransform="matrix(0.48308601,0,0,0.48308601,-56.900554,999.29538)"
       x1="48"
       y1="72"
       x2="48"
       y2="24" />
    <linearGradient
       inkscape:collect="always"
       xlink:href="#linearGradient3714-58"
       id="linearGradient3936"
       gradientUnits="userSpaceOnUse"
       gradientTransform="matrix(0.48308601,0,0,0.48308601,-56.900554,999.29538)"
       x1="48"
       y1="72"
       x2="48"
       y2="24" />
  </defs>
  <sodipodi:namedview
     id="base"
     pagecolor="#ffffff"
     bordercolor="#666666"
     borderopacity="1.0"
     inkscape:pageopacity="0.0"
     inkscape:pageshadow="2"
     inkscape:zoom="8.0625004"
     inkscape:cx="-45.607406"
     inkscape:cy="34.006043"
     inkscape:document-units="px"
     inkscape:current-layer="layer1"
     showgrid="false"
     inkscape:window-width="1920"
     inkscape:window-height="988"
     inkscape:window-x="-3"
     inkscape:window-y="26"
     inkscape:window-maximized="1"
     showguides="true">
    <sodipodi:guide
       position="4,44.000017"
       orientation="40,0"
       id="guide4083" />
    <sodipodi:guide
       position="4,4.0000174"
       orientation="0,40"
       id="guide4085" />
    <sodipodi:guide
       position="44,4.0000174"
       orientation="-40,0"
       id="guide4087" />
    <sodipodi:guide
       position="44,44.000017"
       orientation="0,-40"
       id="guide4089" />
    <sodipodi:guide
       position="9,39.000017"
       orientation="30,0"
       id="guide4115" />
    <sodipodi:guide
       position="9,9.0000174"
       orientation="0,30"
       id="guide4117" />
    <sodipodi:guide
       position="39,9.0000174"
       orientation="-30,0"
       id="guide4119" />
    <sodipodi:guide
       position="39,39.000017"
       orientation="0,-30"
       id="guide4121" />
    <sodipodi:guide
       position="14,34.000017"
       orientation="20,0"
       id="guide4125" />
    <sodipodi:guide
       position="14,14.000017"
       orientation="0,20"
       id="guide4127" />
    <sodipodi:guide
       position="34,14.000017"
       orientation="-20,0"
       id="guide4129" />
    <sodipodi:guide
       position="34,34.000017"
       orientation="0,-20"
       id="guide4131" />
  </sodipodi:namedview>
  <metadata
     id="metadata7">
    <rdf:RDF>
      <cc:Work
         rdf:about="">
        <dc:format>image/svg+xml</dc:format>
        <dc:type
           rdf:resource="http://purl.org/dc/dcmitype/StillImage" />
        <dc:title />
      </cc:Work>
    </rdf:RDF>
  </metadata>
  <g
     inkscape:label="Capa 1"
     inkscape:groupmode="layer"
     id="layer1"
     transform="translate(0,-1004.3622)">
    <path
       style="fill:#4d4d4d;fill-opacity:1"
       inkscape:connector-curvature="0"
       d="m 35.430364,1009.3791 c -0.351749,0 -0.697062,0.019 -1.037742,0.061 -0.05816,0.014 -0.115229,0.022 -0.17298,0.03 -0.03039,0 -0.06133,0 -0.09158,0.014 -0.08113,0.014 -0.163822,0.026 -0.244207,0.041 -0.113028,0.021 -0.224228,0.047 -0.335785,0.072 -0.222839,0.049 -0.44532,0.1059 -0.661256,0.173 -0.134204,0.041 -0.265562,0.084 -0.396823,0.132 -0.04758,0.018 -0.09529,0.033 -0.142454,0.051 -0.28264,0.1086 -0.556864,0.2391 -0.824062,0.3765 -0.01375,0.014 -0.02723,0.014 -0.0407,0.021 -0.06036,0.032 -0.123616,0.059 -0.183141,0.092 -0.09268,0.051 -0.184036,0.1087 -0.274733,0.1628 -0.103403,0.062 -0.204634,0.1265 -0.305136,0.1934 -0.02035,0.014 -0.04084,0.028 -0.06105,0.041 -0.120316,0.081 -0.240055,0.1573 -0.356136,0.2442 -0.011,0.014 -0.01911,0.022 -0.03053,0.03 -0.130904,0.099 -0.261781,0.1991 -0.386648,0.3052 -0.02406,0.021 -0.0473,0.04 -0.07123,0.061 -0.06353,0.055 -0.121279,0.1155 -0.183142,0.1731 -0.0341,0.032 -0.0682,0.059 -0.101753,0.092 -0.05225,0.05 -0.101615,0.1018 -0.152643,0.1527 -0.09336,0.094 -0.185781,0.1871 -0.274719,0.2847 -0.0028,0 -0.0069,0 -0.0096,0.014 -0.0792,0.087 -0.158542,0.1741 -0.234018,0.2645 -0.100378,0.1197 -0.201265,0.241 -0.295084,0.3664 -0.0041,0 -0.0055,0.015 -0.0096,0.021 -1.060843,1.4263 -1.688948,3.1941 -1.688948,5.1074 0,0.6214 0.06628,1.2279 0.193317,1.811 5.09e-4,0 -4.95e-4,0 0,0.014 0.03548,0.1619 0.07755,0.3201 0.122104,0.4783 0.05418,0.1945 0.125678,0.3815 0.193317,0.5699 0.011,0.03 0.01925,0.061 0.03053,0.092 0.0286,0.077 0.0506,0.1577 0.0814,0.234 0.0027,0 0.0069,0 0.0096,0 0.175978,0.4319 0.389906,0.8476 0.630593,1.2413 -0.23465,0.044 -0.475585,0.059 -0.722308,0.041 -0.01705,0 -0.03383,-0.014 -0.05088,-0.014 -0.108078,-0.014 -0.216568,-0.018 -0.325595,-0.041 -1.527532,-0.3233 -2.500813,-1.8086 -2.177225,-3.3373 0.173984,-0.8216 0.687383,-1.4765 1.363339,-1.8617 0.109728,-1.2049 0.482872,-2.3711 1.047918,-3.4388 -0.36154,-0.1293 -0.732993,-0.2438 -1.119145,-0.3256 -0.573076,-0.121 -1.145271,-0.1793 -1.709285,-0.1832 -3.947574,-0.026 -7.503565,2.7219 -8.352391,6.7354 -0.205623,0.9716 -0.235145,1.917 -0.111928,2.8488 l -11.0280529,7.1728 c -0.439284,0.2857 -1.3996393,3.8906 -0.6815935,4.9955 0.7184033,1.1027 4.4029187,1.6907 4.8428357,1.4042 l 0.722308,-0.4683 2.3603657,0.4988 c 0.468682,0.099 0.938753,-0.1732 1.037743,-0.6411 l 0.498451,-2.3604 2.32984,0.4885 c 0.468807,0.099 0.938754,-0.1834 1.037743,-0.6512 l 0.498452,-2.3502 2.329854,0.4885 c 0.468682,0.099 0.938739,-0.1834 1.037729,-0.6512 l 0.244207,-1.1597 c 0.452223,0.1819 0.941132,0.3331 1.434565,0.4376 4.586707,0.9706 9.091007,-1.9563 10.062033,-6.5423 0.683876,-3.2315 -0.575716,-6.4206 -2.980922,-8.3627 -0.318706,0.6631 -0.533763,1.3786 -0.630607,2.106 0.987224,0.6079 1.53581,1.7914 1.281936,2.9912 -0.08195,0.3873 -0.244963,0.7351 -0.457751,1.0379 -0.05459,0.056 -0.0913,0.11 -0.122103,0.1627 -0.0027,0 -0.0082,0 -0.0096,0.014 -0.09254,0.1114 -0.197484,0.2097 -0.305259,0.3053 -0.246077,-0.3868 -0.46277,-0.7981 -0.630593,-1.2311 -0.218453,-0.5648 -0.360412,-1.1665 -0.427363,-1.7905 -0.0055,-0.051 -0.01609,-0.1018 -0.02035,-0.1526 -0.0028,-0.041 -0.0069,-0.081 -0.0096,-0.1224 -0.011,-0.1597 -0.02035,-0.3159 -0.02035,-0.4784 0,-1.7565 0.64719,-3.3614 1.709284,-4.5985 0.114404,-0.1334 0.232148,-0.262 0.356136,-0.3867 0.01375,-0.014 0.02709,-0.027 0.0407,-0.041 0.124303,-0.1237 0.25375,-0.2425 0.386661,-0.3561 0.0275,-0.023 0.05349,-0.048 0.0814,-0.072 0.239161,-0.1981 0.488772,-0.3736 0.752821,-0.5393 0.07741,-0.048 0.154651,-0.096 0.234032,-0.1424 0.0069,0 0.01389,0 0.02035,-0.014 0.07783,-0.044 0.154252,-0.091 0.234018,-0.132 0.03933,-0.021 0.08236,-0.041 0.122104,-0.061 0.116053,-0.058 0.23641,-0.1114 0.356121,-0.1628 0.0096,0 0.02063,0 0.03053,-0.014 0.01691,-0.014 0.03396,-0.014 0.05088,-0.021 0.298961,-0.1237 0.607864,-0.233 0.925814,-0.3154 0.04304,-0.014 0.08883,-0.021 0.132279,-0.03 0.297847,-0.072 0.604467,-0.121 0.915639,-0.1526 0.10189,-0.014 0.201993,-0.025 0.305121,-0.03 0.138934,-0.014 0.276246,-0.014 0.417187,-0.014 3.901703,0 7.061009,3.1682 7.061009,7.0713 0,0.1292 -0.0027,0.2596 -0.0096,0.3866 -0.0028,0.051 -0.0069,0.1018 -0.0096,0.1526 -0.0014,0.021 -0.0083,0.04 -0.0096,0.061 -0.01238,0.1556 -0.02805,0.3054 -0.05088,0.4578 -0.0041,0.023 -0.0069,0.047 -0.0096,0.071 -0.0069,0.044 -0.02255,0.088 -0.03053,0.132 -0.0363,0.1999 -0.06916,0.4065 -0.122103,0.6003 -0.0069,0.023 -0.01375,0.048 -0.02035,0.072 -0.02681,0.093 -0.06105,0.1826 -0.09158,0.2747 -0.03836,0.1169 -0.07783,0.2317 -0.122103,0.346 -0.088,0.2262 -0.185039,0.4473 -0.295084,0.6614 -0.04345,0.085 -0.08539,0.1711 -0.132279,0.2542 -0.366915,0.6478 -0.83887,1.2293 -1.383056,1.7297 v 0.014 c -0.559242,0.5133 -1.199158,0.9391 -1.903124,1.2514 0.111516,0.501 0.187556,1.0138 0.213681,1.526 0.599078,-0.2302 1.163724,-0.5327 1.688934,-0.8855 0.0027,0 0.0083,0 0.0096,0 0.284399,-0.1912 0.555103,-0.3976 0.813872,-0.6206 0.06229,-0.054 0.122379,-0.1072 0.183155,-0.1628 0.06628,-0.06 0.128842,-0.121 0.193331,-0.1831 0.02558,-0.025 0.04579,-0.056 0.07123,-0.081 0.09763,-0.098 0.192066,-0.1933 0.284894,-0.2951 0.107529,-0.1182 0.214424,-0.2325 0.315435,-0.356 0.0083,-0.014 0.01237,-0.021 0.02035,-0.03 0.05033,-0.062 0.09378,-0.1293 0.142441,-0.1933 0.05514,-0.073 0.120041,-0.1397 0.17298,-0.2137 0.01705,-0.023 0.0341,-0.047 0.05088,-0.072 0.08181,-0.1169 0.158157,-0.2351 0.234032,-0.3563 0.0041,0 0.0055,-0.014 0.0096,-0.021 0.08787,-0.1408 0.174603,-0.2811 0.254382,-0.4274 0.011,-0.019 0.0198,-0.041 0.03053,-0.06 0.152121,-0.2843 0.287287,-0.5826 0.406998,-0.8855 0.03493,-0.088 0.06972,-0.1749 0.101753,-0.2646 0.02695,-0.076 0.05638,-0.1471 0.0814,-0.2238 0.0041,-0.014 0.0055,-0.028 0.0096,-0.041 0.04895,-0.153 0.09185,-0.3114 0.132279,-0.468 0.01389,-0.054 0.02791,-0.1087 0.0407,-0.1628 0.0069,-0.028 0.01416,-0.054 0.02035,-0.081 0.03121,-0.1376 0.05693,-0.2777 0.0814,-0.4173 0.02296,-0.132 0.04414,-0.263 0.06105,-0.3968 0.01719,-0.1347 0.02984,-0.2699 0.0407,-0.4069 0.0027,-0.044 0.0069,-0.089 0.0096,-0.132 0.011,-0.1823 0.02035,-0.3642 0.02035,-0.5496 0,-4.7297 -3.83665,-8.5659 -8.565935,-8.5659 m -1.363338,10.6828 c 0.05679,0.3292 0.0924,0.6601 0.111928,0.997 0.665781,6.2525 -5.816129,11.7428 -11.863403,10.2355 -0.107391,0.1675 -0.241691,0.3218 -0.386524,0.4681 0.01238,0.018 0.02736,0.033 0.0407,0.051 l -5.961856,11.7305 c -0.237539,0.4669 0.73863,4.0612 1.912666,4.6592 1.173528,0.5956 4.655418,-0.7322 4.893726,-1.2006 l 0.396823,-0.7731 2.289138,-0.7426 c 0.455496,-0.1486 0.72796,-0.6345 0.579992,-1.0888 l -0.752958,-2.2893 2.258613,-0.7323 c 0.455372,-0.1485 0.728084,-0.6345 0.579868,-1.0886 l -0.742659,-2.2892 2.258613,-0.7325 c 0.455619,-0.1484 0.717908,-0.624 0.569817,-1.0784 l -0.366311,-1.1294 c 0.482749,-0.069 0.985601,-0.1795 1.465091,-0.3358 4.457687,-1.4529 6.895454,-6.2466 5.44304,-10.7029 -0.52697,-1.6169 -1.496373,-2.9618 -2.726662,-3.9576 m -17.498675,4.9548 c 0.24924,0.5889 0.563409,1.1404 0.93599,1.6583 l -9.3397377,6.1146 c -0.439023,0.2859 -1.047038,0.1543 -1.332799,-0.2848 -0.286545,-0.4405 -0.154403,-1.0458 0.284881,-1.3328 l 9.4515417,-6.1553 m 7.040919,8.4038 c 0.510264,0.3854 1.056705,0.7048 1.638072,0.9665 l -5.036056,9.9604 c -0.237415,0.467 -0.825052,0.6649 -1.292098,0.4274 -0.468435,-0.2383 -0.664144,-0.8239 -0.427362,-1.2921 l 5.117568,-10.0622"
       id="path496" />
  </g>
</svg>
