<?xml version="1.0" encoding="UTF-8" standalone="no"?>
<!-- Created with Inkscape (http://www.inkscape.org/) -->

<svg
   xmlns:dc="http://purl.org/dc/elements/1.1/"
   xmlns:cc="http://creativecommons.org/ns#"
   xmlns:rdf="http://www.w3.org/1999/02/22-rdf-syntax-ns#"
   xmlns:svg="http://www.w3.org/2000/svg"
   xmlns="http://www.w3.org/2000/svg"
   xmlns:sodipodi="http://sodipodi.sourceforge.net/DTD/sodipodi-0.dtd"
   xmlns:inkscape="http://www.inkscape.org/namespaces/inkscape"
   width="22"
   height="22"
   id="svg2"
   version="1.1"
   inkscape:version="0.91 r13725"
   viewBox="0 0 22 22"
   sodipodi:docname="urtsb.svg">
  <defs
     id="defs4" />
  <sodipodi:namedview
     id="base"
     pagecolor="#ffffff"
     bordercolor="#666666"
     borderopacity="1.0"
     inkscape:pageopacity="0.0"
     inkscape:pageshadow="2"
     inkscape:zoom="9.8427539"
     inkscape:cx="-15.872919"
     inkscape:cy="10.847716"
     inkscape:document-units="px"
     inkscape:current-layer="layer1"
     showgrid="true"
     units="px"
     inkscape:showpageshadow="false"
     inkscape:window-width="1920"
     inkscape:window-height="1005"
     inkscape:window-x="-4"
     inkscape:window-y="33"
     inkscape:window-maximized="1"
     showguides="true">
    <inkscape:grid
       type="xygrid"
       id="grid4101" />
    <sodipodi:guide
       position="2,20.000017"
       orientation="18,0"
       id="guide4107" />
    <sodipodi:guide
       position="2,2.0000174"
       orientation="0,18"
       id="guide4109" />
    <sodipodi:guide
       position="20,2.0000174"
       orientation="-18,0"
       id="guide4111" />
    <sodipodi:guide
       position="20,20.000017"
       orientation="0,-18"
       id="guide4113" />
    <sodipodi:guide
       position="3,19.000017"
       orientation="16,0"
       id="guide4115" />
    <sodipodi:guide
       position="3,3.0000174"
       orientation="0,16"
       id="guide4117" />
    <sodipodi:guide
       position="19,3.0000174"
       orientation="-16,0"
       id="guide4119" />
    <sodipodi:guide
       position="19,19.000017"
       orientation="0,-16"
       id="guide4121" />
    <sodipodi:guide
       position="10,6.0000174"
       orientation="-7,0"
       id="guide4162" />
    <sodipodi:guide
       position="11,12.000017"
       orientation="5,0"
       id="guide4280" />
    <sodipodi:guide
       position="11,7.0000174"
       orientation="0,5"
       id="guide4282" />
    <sodipodi:guide
       position="16,7.0000174"
       orientation="-5,0"
       id="guide4284" />
    <sodipodi:guide
       position="11,12"
       orientation="0,-5"
       id="guide4286" />
    <sodipodi:guide
       position="5,13.000017"
       orientation="6,0"
       id="guide4294" />
    <sodipodi:guide
       position="5,7.0000174"
       orientation="0,6"
       id="guide4296" />
    <sodipodi:guide
       position="11,7.0000174"
       orientation="-6,0"
       id="guide4298" />
  </sodipodi:namedview>
  <metadata
     id="metadata7">
    <rdf:RDF>
      <cc:Work
         rdf:about="">
        <dc:format>image/svg+xml</dc:format>
        <dc:type
           rdf:resource="http://purl.org/dc/dcmitype/StillImage" />
        <dc:title />
      </cc:Work>
    </rdf:RDF>
  </metadata>
  <g
     inkscape:label="Capa 1"
     inkscape:groupmode="layer"
     id="layer1"
     transform="translate(0,-1030.3622)">
    <path
       style="opacity:1;fill:#4d4d4d;fill-opacity:1;stroke:#4d4d4d;stroke-width:0;stroke-miterlimit:4;stroke-dasharray:none;stroke-opacity:1"
       d="m 10.999952,1033.3632 c -0.640757,0 -1.2609434,0.084 -1.8574096,0.2247 -0.2779942,0.067 -0.5486763,0.1465 -0.8144475,0.2401 -0.1073625,0.037 -0.2151316,0.073 -0.3203104,0.1147 -0.00191,7e-4 -0.00395,0 -0.00585,0 -0.6117703,0.2463 -1.1818584,0.5692 -1.7070198,0.9512 -0.032849,0.024 -0.065189,0.048 -0.09766,0.072 -0.2403863,0.1805 -0.4712988,0.3721 -0.6894483,0.5781 -0.011413,0.013 -0.023809,0.02 -0.03516,0.031 -0.4705838,0.4497 -0.8829159,0.9567 -1.2324135,1.5098 -0.015471,0.024 -0.029709,0.049 -0.04492,0.073 -0.1643008,0.2664 -0.3145428,0.542 -0.4472618,0.8281 -0.00389,0.013 -0.0078,0.017 -0.01172,0.025 -0.281432,0.6122 -0.4874565,1.2644 -0.6074178,1.9492 C 3.0493052,1040.4191 3,1040.8851 3,1041.363 c 0,3.4035 2.1080814,6.2892 5.0917618,7.4491 0.00236,9e-4 0.00352,0 0.00585,0 0.00631,0 0.013227,0 0.019531,0.013 0.331452,0.128 0.6720975,0.2334 1.0234304,0.3164 0.00401,10e-4 0.00771,0 0.01172,0 0.5933683,0.1394 1.2105328,0.2207 1.8476428,0.2207 0.692893,0 1.360426,-0.097 1.999986,-0.2617 l 0,-1.0371 c -0.634147,0.1884 -1.30297,0.2988 -1.999986,0.2988 -0.847658,0 -1.655525,-0.158 -2.4062333,-0.4316 0.013605,-0.013 0.034981,-0.019 0.039063,-0.039 0.009,-0.04 -0.00961,-0.057 -0.01172,-0.1213 0.015,-0.065 0.086008,-0.072 0.099608,-0.1387 -0.0278,-0.048 -0.092865,-0.016 -0.1347647,-0.041 -0.0407,-0.024 -0.058533,-0.076 -0.052733,-0.1267 0.0696,-0.029 0.2040149,0.071 0.2539046,-0.027 0.0249,-0.045 -0.027841,-0.1584 0.00585,-0.2051 0.0234,-0.031 0.1517808,-0.033 0.2011705,-0.041 0.0709,-0.013 0.1533883,-0.027 0.1933581,-0.053 0.0436,-0.029 0.1072291,-0.1106 0.099608,-0.1933 -0.004,-0.039 -0.030647,-0.053 -0.060547,-0.088 -0.0251,-0.029 -0.034633,-0.067 -0.052733,-0.095 -0.0313,-0.047 -0.079949,-0.039 -0.093749,-0.1052 0.0958,-0.019 0.2422777,0.077 0.3808568,0.039 0.0657,-0.019 0.1570089,-0.1591 0.1874987,-0.2207 0.01,-0.019 0.00923,-0.049 0.019531,-0.072 0.012293,-0.027 0.037116,-0.047 0.041016,-0.061 0.01,-0.036 0.00352,-0.065 0.01172,-0.088 0.0243,-0.068 0.086832,-0.089 0.1269518,-0.1387 0.0304,-0.039 0.045419,-0.083 0.074218,-0.1213 0.0314,-0.041 0.059377,-0.077 0.080077,-0.1134 0.0197,-0.1213 -0.048131,-0.2077 -0.019531,-0.3144 0.032001,-0.12 0.1963595,-0.192 0.3124985,-0.2461 0.04,-0.019 0.08072,-0.049 0.11328,-0.061 0.0804,-0.028 0.180394,-0.013 0.253904,-0.039 0.1251,-0.045 0.139491,-0.1809 0.201171,-0.2949 0.0294,-0.053 0.06647,-0.108 0.07227,-0.1464 0.005,-0.035 -0.01236,-0.067 -0.0059,-0.108 0.006,-0.04 0.04369,-0.075 0.05469,-0.1187 0.0145,-0.059 0.01953,-0.1425 0.01953,-0.2069 0,-0.053 -0.02494,-0.099 -0.02734,-0.1466 -0.009,-0.1732 0.06294,-0.1929 0.126953,-0.287 0.0319,-0.047 0.04586,-0.1014 0.06836,-0.1348 0.107519,-0.1606 0.292815,-0.238 0.279295,-0.4806 -0.005,-0.08 -0.0541,-0.2614 -0.11328,-0.287 -0.0337,-0.015 -0.111267,-2e-4 -0.160156,-0.02 -0.157799,-0.059 -0.250551,-0.2552 -0.414059,-0.2676 -0.0348,0 -0.06818,0.013 -0.107421,0.013 -0.0647,0 -0.160781,-0.044 -0.232421,-0.053 -0.0455,-0.013 -0.107443,0.013 -0.134765,0 -0.0418,-0.02 -0.04628,-0.097 -0.08008,-0.1214 -0.0271,-0.019 -0.07834,-0.023 -0.11914,-0.039 -0.0657,-0.025 -0.1194226,-0.055 -0.1953122,-0.061 -0.0234,-9e-4 -0.051025,0.013 -0.078124,0.013 -0.042,-0.013 -0.076353,-0.057 -0.1152331,-0.08 -0.0484,-0.029 -0.09322,-0.044 -0.1132812,-0.085 0.0439,-0.1437 -0.076008,-0.1845 -0.1054678,-0.2674 -0.0139,-0.039 -0.00683,-0.084 -0.019531,-0.1187 -0.0173,-0.049 -0.067124,-0.08 -0.1210931,-0.1213 -0.0966,-0.073 -0.1822312,-0.1432 -0.3203103,-0.1602 -0.0607,-0.013 -0.1200384,0.019 -0.1933582,0.015 -0.0777,-0.013 -0.1762338,-0.073 -0.2343733,-0.1407 -0.0565,-0.065 -0.083501,-0.1213 -0.1328117,-0.1521 -0.0467,-0.031 -0.1088038,-0.031 -0.1406241,-0.061 -0.0141,-0.015 -0.01284,-0.035 -0.027344,-0.067 -0.0234,-0.048 -0.062503,-0.075 -0.033203,-0.1334 -0.0533,-0.027 -0.05502,0.049 -0.1132798,0.039 -0.052,-0.075 -0.09507,-0.1093 -0.2128885,-0.088 -0.0538,0.013 -0.083509,0.077 -0.1464841,0.08 -0.0516,0 -0.09202,-0.057 -0.1601549,-0.067 -0.0515,-0.013 -0.1118678,0.015 -0.1484369,0.013 -0.0569,-0.013 -0.074829,-0.059 -0.1269518,-0.095 -0.038,-0.025 -0.1113718,-0.069 -0.1328104,-0.068 -0.0671,0 -0.1145211,0.1428 -0.2070296,0.095 -0.0451,-0.057 0.072829,-0.085 0.019529,-0.1387 -0.0404,-0.041 -0.07312,0.017 -0.1054678,0.039 -0.0369,0.025 -0.072309,0.051 -0.1132798,0.065 -0.0917,0.033 -0.149043,0.019 -0.2207025,0.055 -0.0665,0.033 -0.06976,0.092 -0.1074198,0.1601 -0.0309,0.056 -0.1003638,0.1372 -0.146484,0.1405 -0.0559,0 -0.1094451,-0.08 -0.1601549,-0.1013 -0.1528989,-0.067 -0.2265445,0.059 -0.3535135,0.06 -0.1178185,0 -0.287168,-0.19 -0.281248,-0.3007 0.004,-0.067 0.03878,-0.1704 0.046869,-0.254 0.006,-0.065 0.052129,-0.1053 0.052729,-0.1659 10e-4,-0.081 -0.1056424,-0.1448 -0.1582019,-0.1544 -0.1247385,-0.023 -0.298444,0.051 -0.4414029,-0.013 -0.0272,-0.045 0.03158,-0.075 0.046869,-0.1186 0.009,-0.025 0.00451,-0.06 0.013669,-0.088 0.0158,-0.043 0.06018,-0.076 0.08008,-0.1214 0.015,-0.033 0.018,-0.084 0.0332,-0.1266 0.0173,-0.049 0.048929,-0.077 0.052729,-0.1107 0.005,-0.045 -0.011173,-0.097 -0.046869,-0.1267 -0.1109598,0.013 -0.1830327,0.013 -0.2460923,0.039 -0.1444691,0.065 -0.1174185,0.2605 -0.2617162,0.3068 -0.0499,0.016 -0.1188984,0.017 -0.1738278,0.027 -0.0473,0.013 -0.1034225,0.033 -0.152342,0.033 -0.0577,0 -0.1589789,-0.057 -0.1933587,-0.095 -0.012707,-0.015 -0.027029,-0.055 -0.046869,-0.095 0.07856,-0.3796 0.1930567,-0.7456 0.3300758,-1.0996 0.09322,-0.051 0.1734698,-0.128 0.283202,-0.1348 0.0566,0 0.140881,0.016 0.1953106,0.027 0.0503,0.013 0.089309,0.044 0.1328118,0.047 0.1233878,0.013 0.153245,-0.087 0.2539043,-0.1407 0.1039691,0.015 0.1716938,-0.019 0.2656232,-0.013 0.064,0.013 0.1101852,0.079 0.1601549,0.083 0.0421,0 0.080509,-0.043 0.1210931,-0.035 0.0395,0.013 0.1069105,0.092 0.1132798,0.1405 0.007,0.06 -0.04444,0.116 -0.02734,0.1818 0.0629,0.064 0.1777267,0.076 0.2675761,0.1133 0.0585,-0.048 0.009,-0.1373 0,-0.2072 -0.002,-0.031 0.004,-0.06 0,-0.088 -0.006,-0.048 -0.02714,-0.092 -0.02734,-0.1333 -6.1e-4,-0.19 0.1538089,-0.2784 0.281248,-0.3535 0.0552,-0.033 0.098609,-0.089 0.146483,-0.1133 0.0675,-0.033 0.1179185,-0.043 0.1738278,-0.073 0.1011492,-0.057 0.1884967,-0.104 0.2675762,-0.168 0.0367,-0.087 0.00191,-0.2 0.00591,-0.285 0.0367,-0.023 0.066729,0.013 0.1054678,0.013 0.0611,-0.013 0.06702,-0.1 0.1015625,-0.1347 0.02,-0.02 0.074709,-0.033 0.099609,-0.053 0.0609,-0.048 0.0797,-0.12 0.1328104,-0.1405 0.019,-0.013 0.063749,0 0.093749,-0.013 0.0397,-0.013 0.09572,-0.059 0.160156,-0.08 0.0418,-0.013 0.138266,-0.017 0.1542959,-0.033 0.0197,-0.02 6.9e-5,-0.075 0.00591,-0.1053 0.0324,-0.1507 0.260319,-0.1838 0.394528,-0.2344 0.094,-0.036 0.1896174,-0.1 0.2929667,-0.08 -0.0202,0.072 -0.1160585,0.045 -0.099608,0.1333 0.0228,0.1213 0.1839212,-0.035 0.2265609,-0.053 0.0814,-0.033 0.2193103,-0.055 0.3261696,-0.093 0.0938,-0.035 0.2621663,-0.087 0.1738269,-0.1933 -0.0737,0 -0.1095878,0.087 -0.1738269,0.1133 -0.0444,0.013 -0.034465,-0.037 -0.072265,-0.041 -0.0358,0 -0.056849,0.033 -0.093749,0.027 -0.0367,-0.013 -0.088049,-0.064 -0.093749,-0.108 -0.0147,-0.1107 0.094435,-0.1552 0.140624,-0.2383 -0.0305,-0.1013 -0.1696151,-0.021 -0.2539046,-0.06 0.009,-0.06 0.070545,-0.1013 0.140624,-0.1133 0.0574,-0.013 0.1864817,0 0.2207017,0.025 0.02,0.017 0.0016,0.06 0.033203,0.088 0.0341,0.031 0.074851,0.027 0.1191398,0.019 0.0161,-0.076 -0.098436,-0.057 -0.085936,-0.108 0.0901,-0.059 0.2372546,-0.013 0.3476538,-0.025 0.0635,-0.013 0.1292358,-0.056 0.1855457,-0.088 0.0536,-0.031 0.1248091,-0.083 0.1816394,-0.033 0.0156,0.055 -0.049777,0.072 -0.080077,0.1 -0.1021292,0.091 -0.2076979,0.1952 -0.2871075,0.3008 0.0488,0.048 0.1363195,0.024 0.2187485,0.033 0.0322,0 0.073361,0.016 0.1074212,0.021 0.0398,0.013 0.08212,0 0.1132798,0.013 0.0562,0.013 0.071541,0.073 0.1269529,0.073 0.0913,-10e-5 0.09272,-0.097 0.04101,-0.1601 0.0163,-0.063 0.04173,-0.096 0.01953,-0.1407 -0.0411,-0.083 -0.19341,0 -0.20117,-0.108 -0.005,-0.067 0.055877,-0.063 0.080077,-0.1133 -0.011,-0.1279 0.10616,-0.1386 0.093749,-0.2538 -0.006,-0.048 -0.04618,-0.047 -0.08008,-0.092 -0.017497,-0.023 -0.025773,-0.071 -0.046873,-0.088 -0.0698,-0.059 -0.2101586,-0.048 -0.2187486,-0.1601 -0.004,-0.065 0.015659,-0.1213 0.00587,-0.1933 -0.009,-0.067 -0.054421,-0.2548 -0.1132811,-0.2676 -0.0745,-0.016 -0.1528465,0.112 -0.2421858,0.1542 -0.0486,0.023 -0.1173051,0.048 -0.1660145,0.039 -0.0316,-0.013 -0.094808,-0.052 -0.099608,-0.1133 -0.006,-0.071 0.047747,-0.072 0.060546,-0.1466 -0.011,-0.044 -0.058332,-0.033 -0.1015624,-0.067 -0.049,-0.037 -0.087084,-0.1174 -0.1523427,-0.1267 -0.0325,0 -0.075061,0.025 -0.1074211,0.027 -0.059672,0 -0.1058745,-0.013 -0.1562489,-0.027 0.1608782,-0.057 0.3241407,-0.108 0.4902309,-0.1524 0.0311,0.033 0.042177,0.097 0.080077,0.1187 0.0253,0.015 0.069008,0.013 0.099608,0.019 0.098,0.031 0.1798981,0.083 0.2871073,0.061 0.0368,-0.065 -0.075703,-0.083 -0.033203,-0.1334 0.0718,0.013 0.1185278,0.036 0.1738269,0.059 0.0772,-0.056 0.1277598,-0.063 0.1249998,-0.1524 -6.848e-4,-0.055 -0.043693,-0.081 -0.072229,-0.1187 0.0595,-0.013 0.1196771,-0.019 0.1796862,-0.027 0.01323,0.013 0.02425,0.037 0.04102,0.039 0.038,0.013 0.151047,-0.051 0.173827,-0.061 0.0042,0 0.01145,-0.013 0.01758,-0.013 0.252507,-0.027 0.507542,-0.043 0.767566,-0.043 1.195624,0 2.318197,0.2981 3.300758,0.8223 -0.03315,0.013 -0.06567,0.017 -0.105466,0.031 -0.04711,0.017 -0.134354,0.097 -0.146483,0.1267 -0.02009,0.048 0.0051,0.099 0,0.1719 0.03811,0.017 0.06184,0.091 0.126947,0.1266 0.0246,0.015 0.05621,0.013 0.07813,0.02 0.03811,0.021 0.06835,0.069 0.06055,0.108 -0.01093,0.055 -0.08197,0.04 -0.119146,0.08 0.006,0.079 -0.05472,0.089 -0.07421,0.1407 0.01227,0.033 0.06111,0.027 0.06641,0.067 -0.0071,0.043 -0.08291,0.049 -0.06641,0.095 0.07149,0.056 0.147242,-0.013 0.214842,-0.02 0.149349,-0.019 0.300855,0.019 0.392575,-0.053 -0.01253,-0.071 0.07607,-0.096 0.06836,-0.1599 -0.006,-0.048 -0.08601,-0.055 -0.121093,-0.088 -0.0188,-0.019 -0.02399,-0.059 -0.04687,-0.095 -0.0264,-0.04 -0.07613,-0.067 -0.105466,-0.1053 -0.0392,-0.052 -0.121333,-0.128 -0.121093,-0.168 6.09e-4,-0.045 0.05621,-0.057 0.06641,-0.1187 -0.01227,-0.057 -0.118706,-0.019 -0.126946,-0.08 0.0021,-0.019 0.0116,-0.033 0.02148,-0.045 0.306535,0.1675 0.594814,0.3623 0.871089,0.5721 -0.0031,6e-4 -0.0088,-5e-4 -0.01173,0 -0.06691,0.013 -0.09141,0.096 -0.146483,0.1622 -0.0382,0.045 -0.111174,0.095 -0.167968,0.1185 -0.02771,0.013 -0.06055,0.013 -0.08595,0.027 -0.03749,0.025 -0.05115,0.084 -0.09375,0.1133 -0.03071,0.021 -0.147307,0.08 -0.179686,0.08 -0.038,6e-4 -0.07241,-0.036 -0.09961,-0.027 -0.04011,0.013 -0.03673,0.091 -0.08203,0.108 -0.08851,0.031 -0.234781,-0.079 -0.265625,0.053 0.03791,0.076 0.132986,0.057 0.199218,0.1 0.04169,0.027 0.129653,0.1428 0.140624,0.1875 0.01,0.039 -0.0041,0.1865 -0.01953,0.2266 -0.04129,0.1067 -0.139168,0.071 -0.261717,0.068 -0.03349,-6e-4 -0.06861,0.013 -0.09961,0.013 -0.206689,-0.015 -0.41441,-0.089 -0.50781,0.059 0.0071,0.1134 0.03291,0.1907 0.0079,0.2891 -0.01829,0.072 -0.08328,0.1365 -0.08008,0.1993 0.002,0.032 0.03908,0.064 0.04687,0.108 0.0051,0.023 -0.01093,0.073 0,0.093 0.034,0.067 0.125174,0.013 0.185545,0.02 0.059,0.013 0.127574,0.095 0.126947,0.1601 -6.11e-4,0.045 -0.04297,0.1213 -0.07227,0.166 -0.0584,0.089 -0.137251,0.093 -0.220701,0.1407 -0.0696,0.039 -0.09984,0.1053 -0.140623,0.1738 -0.04429,0.073 -0.07093,0.1187 -0.05273,0.2266 -0.05969,0.1186 -0.149846,0.1917 -0.273435,0.248 -0.03669,0.017 -0.08761,0.023 -0.121093,0.047 -0.0266,0.019 -0.04219,0.071 -0.08008,0.1134 -0.04671,0.052 -0.09445,0.073 -0.119133,0.1133 -0.019,0.031 -0.02608,0.092 -0.04687,0.1333 -0.0286,0.056 -0.08953,0.084 -0.126946,0.1407 -0.0172,0.027 -0.02787,0.079 -0.04688,0.1133 -0.04229,0.077 -0.115146,0.1336 -0.107426,0.2012 0.0071,0.065 0.08289,0.076 0.08789,0.1334 0.004,0.032 -0.02288,0.051 -0.02148,0.085 10e-4,0.051 0.03701,0.088 0.04101,0.1267 0.01,0.099 -0.03609,0.1393 -0.05469,0.2072 -0.0091,0.032 -0.0035,0.068 -0.01173,0.095 -0.01631,0.051 -0.08669,0.096 -0.08789,0.1543 -10e-4,0.043 0.04327,0.073 0.04687,0.1333 0.002,0.04 -0.02087,0.084 -0.01367,0.1213 0.0142,0.073 0.144711,0.1564 0.201171,0.213 0.07551,0.075 0.174479,0.1333 0.20703,0.2129 0.02749,0.067 0.02757,0.1579 0.08008,0.2088 0.03891,0.037 0.102439,0.06 0.152343,0.1 0.0466,0.036 0.09876,0.067 0.148436,0.1054 0.08129,0.064 0.202541,0.1914 0.332029,0.1816 0.06751,-0.013 0.138153,-0.061 0.214842,-0.073 0.079,-0.015 0.180176,-0.021 0.259765,-0.015 0.06109,0.013 0.12412,0.043 0.187498,0.039 0.067,0 0.144672,-0.053 0.220701,-0.085 0.131667,-0.057 0.327199,-0.1336 0.519528,-0.1053 0.146499,0.021 0.140707,0.1877 0.242187,0.252 0.117826,0.013 0.211465,-0.043 0.304684,-0.019 0.07051,0.017 0.155359,0.124 0.162109,0.1797 0.0071,0.057 -0.03252,0.1459 -0.04103,0.1816 -0.0184,0.079 -0.0192,0.1694 -0.0332,0.2188 -0.01093,0.039 -0.04161,0.061 -0.04101,0.1 6.1e-4,0.035 0.04428,0.1214 0.08008,0.1679 0.04389,0.056 0.11472,0.099 0.167968,0.1601 0.09771,0.112 0.13942,0.2472 0.20703,0.3946 0.01716,0.037 0.03513,0.088 0.05077,0.1348 l 2.685528,0 c 0.05361,-0.2178 0.114733,-0.4326 0.152342,-0.6563 0.01344,-0.079 0.026,-0.1581 0.03711,-0.2381 0.04976,-0.362 0.08401,-0.7295 0.08401,-1.1056 0,-0.3021 -0.02041,-0.5991 -0.05273,-0.8924 -0.03237,-0.2938 -0.08341,-0.5822 -0.146485,-0.8652 -0.04836,-0.2171 -0.100507,-0.4327 -0.166013,-0.6427 -0.01187,-0.039 -0.02807,-0.075 -0.04103,-0.1107 -0.03912,-0.1186 -0.08249,-0.2352 -0.126946,-0.3516 -0.05603,-0.1468 -0.11544,-0.2912 -0.179688,-0.4336 -0.0023,0 -0.0037,-0.013 -0.0059,-0.016 -0.0017,0 -0.004,-0.013 -0.0059,-0.013 -0.02463,-0.053 -0.05233,-0.1067 -0.07813,-0.1603 -0.09663,-0.2 -0.200133,-0.3957 -0.312499,-0.5858 -0.0015,0 -0.0024,-0.013 -0.0039,-0.013 -0.05793,-0.097 -0.115613,-0.1958 -0.177652,-0.291 -0.15601,-0.2395 -0.321854,-0.4708 -0.50195,-0.6914 -0.179687,-0.2202 -0.370411,-0.4312 -0.572262,-0.6308 -0.09265,-0.092 -0.192005,-0.1765 -0.28906,-0.2636 -0.0013,0 -0.0025,0 -0.0039,0 -0.282756,-0.2532 -0.57942,-0.49 -0.896485,-0.7012 -1.26903,-0.8504 -2.793885,-1.3448 -4.439493,-1.3448 z m -2.5156082,1.4708 c -0.022823,0.043 -0.045344,0.087 -0.091796,0.1014 0.012307,0.065 -0.076136,0.1066 -0.085936,0.1581 -0.006,0.035 0.00952,0.076 0.01172,0.108 0.02,0.3192 -0.2436558,0.4695 -0.5546843,0.4608 -0.0611,0.057 -0.04502,0.168 -0.078129,0.2481 -0.028,0.067 -0.1280504,0.1385 -0.1953107,0.1333 -0.0497,0 -0.1053478,-0.075 -0.1054678,-0.1213 -1.6e-4,-0.057 0.0826,-0.087 0.0332,-0.1522 0.007,-0.044 0.1059091,-0.071 0.093749,-0.1408 -0.012493,-0.073 -0.1153704,-0.035 -0.2070305,-0.047 -0.0516,-0.013 -0.1118625,-0.037 -0.166014,-0.061 0.4183882,-0.2763 0.8703453,-0.5034 1.3456939,-0.6856 z m 5.4062142,0.752 c -0.0272,0 -0.05397,0.013 -0.07617,0.023 -0.0508,0.031 -0.06816,0.079 -0.107427,0.095 -0.0542,0.021 -0.09161,0 -0.09961,0.053 -0.006,0.041 0.03449,0.061 0.0332,0.1 -0.01971,0.049 -0.07613,0.061 -0.08593,0.1213 0.06749,0.1106 0.230502,0.013 0.314451,-0.013 0.0378,-0.013 0.09087,-0.013 0.111333,-0.039 0.02331,-0.035 0.0031,-0.097 0.02148,-0.1484 0.0194,-0.056 0.07301,-0.063 0.06641,-0.1133 -0.006,-0.051 -0.09592,-0.084 -0.177733,-0.076 z m -7.3397949,0.7771 c 0.0606,0.016 0.2209194,0.1915 0.087889,0.248 -0.0126,0.013 -0.1950307,0.025 -0.2265605,0.02 -0.0461,-0.013 -0.07442,-0.072 -0.1210931,-0.08 -0.0922,-0.016 -0.2160854,0.1107 -0.279295,0.013 0.0161,-0.059 0.081889,-0.061 0.152343,-0.08 0.1250984,-0.033 0.278476,-0.1416 0.3867153,-0.1134 z m 0.2539041,0.3223 c 0.0313,0 0.06968,0.036 0.1074212,0.039 0.0357,0 0.06404,-0.019 0.08594,-0.013 0.0558,0.015 0.07994,0.099 0.02734,0.1406 -0.0436,0 -0.060749,-0.02 -0.093749,-0.015 -0.0907,0.016 -0.1255984,0.1935 -0.1933578,0.1876 -0.0639,-0.013 -0.0981,-0.1608 -0.0332,-0.2071 0.002,-0.04 -0.02944,-0.048 -0.02734,-0.088 0.0196,-0.025 0.07374,-0.049 0.1269517,-0.045 z m -0.3007788,0.019 c 0.0185,5e-4 0.03412,0.013 0.04102,0.013 -0.009,0.071 -0.06622,0.067 -0.1210931,0.1 -0.0949,0.057 -0.149496,0.1452 -0.1796858,0.2676 -0.009,0.036 -0.1013238,0.128 -0.146484,0.1187 -0.1059278,-0.021 0.028629,-0.2164 0.052729,-0.2462 0.0266,-0.033 0.062249,-0.061 0.093749,-0.1 0.0305,-0.037 0.05068,-0.087 0.08008,-0.108 0.0323,-0.023 0.1239065,-0.049 0.1796857,-0.047 z m 9.5057956,0.041 0.002,0 c 0.04757,0.013 0.04392,0.055 0.08008,0.08 0.0266,0.019 0.06189,0.013 0.0918,0.033 0.03509,0.021 0.05415,0.08 0.09375,0.1134 0.056,0.047 0.155503,0.083 0.234372,0.1186 0.01568,0.013 0.03443,0.019 0.05273,0.027 0.05055,0.065 0.102186,0.1307 0.150389,0.1992 -0.0011,0.013 -0.0032,0.019 -0.002,0.027 0.006,0.04 0.03373,0.081 0.05273,0.108 0.0516,0.071 0.124813,0.1344 0.18164,0.2208 -7.04e-4,0.083 0.03393,0.1293 0.0918,0.1524 0.10756,0.1837 0.206095,0.3722 0.296873,0.5664 -0.02969,0 -0.06037,0 -0.08984,-0.013 -0.06569,-0.116 -0.39731,-0.124 -0.425779,0.047 -0.01267,0.075 0.03757,0.1803 -0.07423,0.1933 -0.071,0.013 -0.142964,-0.073 -0.240233,-0.095 -0.03991,-0.013 -0.09593,0 -0.12696,-0.013 -0.0728,-0.025 -0.06433,-0.095 -0.126946,-0.1386 -0.0364,-0.025 -0.13,-0.063 -0.187499,-0.068 -0.0358,0 -0.06965,0.013 -0.107426,0.013 -0.04491,-0.013 -0.10856,-0.035 -0.146484,-0.059 -0.0362,-0.021 -0.109933,-0.056 -0.119133,-0.088 -0.0142,-0.049 0.09025,-0.104 0.09375,-0.1464 0.002,-0.031 -0.03908,-0.051 -0.04687,-0.1 -0.0051,-0.029 0.01213,-0.06 0.0059,-0.08 -0.01,-0.033 -0.06729,-0.073 -0.121094,-0.075 -0.0476,-6e-4 -0.09209,0.04 -0.132813,0.041 -0.05869,9e-4 -0.153899,-0.033 -0.226559,-0.027 -0.04449,0 -0.08553,0.031 -0.126947,0.033 -0.116346,0.013 -0.210763,-0.013 -0.300779,0 -0.0656,0 -0.179214,0.025 -0.240233,0.053 -0.031,0.015 -0.05385,0.048 -0.09375,0.068 -0.018,0.013 -0.04251,0.013 -0.06641,0.02 -0.03791,0.017 -0.07721,0.057 -0.113279,0.067 -0.0522,0.013 -0.13216,-0.013 -0.226563,-0.013 -0.0678,0 -0.180718,0 -0.181639,-0.08 -9.99e-4,-0.124 0.211442,-0.077 0.328124,-0.1 0.044,-0.013 0.06667,-0.049 0.119134,-0.08 0.02509,-0.015 0.05648,-0.017 0.08008,-0.033 0.04051,-0.028 0.101534,-0.095 0.107427,-0.1267 0.006,-0.031 -0.01717,-0.072 -0.01367,-0.095 0.0051,-0.028 0.03792,-0.057 0.07421,-0.095 0.05631,-0.055 0.116454,-0.1293 0.185547,-0.166 0.0472,-0.025 0.113093,-0.023 0.134765,-0.061 0.0051,-0.043 -0.0069,-0.069 -0.0059,-0.108 0.02911,-0.027 0.04797,-0.048 0.07227,-0.053 0.072,-0.016 0.142771,0.051 0.226561,0.047 0.0362,0 0.06856,-0.027 0.107426,-0.053 0.03269,-0.021 0.06761,-0.037 0.09961,-0.055 0.03531,-0.019 0.07245,-0.057 0.11524,-0.061 0.105066,-0.013 0.145628,0.1106 0.193358,0.1738 0.04,0.053 0.153189,0.1427 0.218748,0.1798 0.03691,0.021 0.08633,0.023 0.12696,0.041 0.08669,0.039 0.258956,0.1689 0.261716,0.2539 0.002,0.043 -0.0398,0.073 -0.0332,0.1133 0.0656,0.013 0.137142,-0.061 0.138671,-0.1267 6.11e-4,-0.041 -0.04109,-0.064 -0.0332,-0.108 0.03069,-0.067 0.1206,0 0.160154,-0.025 -0.0071,-0.075 -0.110066,-0.083 -0.173826,-0.1213 -0.0344,-0.021 -0.05611,-0.065 -0.0918,-0.08 -0.05171,-0.021 -0.108173,-0.016 -0.148437,-0.047 -0.0378,-0.029 -0.0546,-0.095 -0.0918,-0.1387 -0.0542,-0.064 -0.173163,-0.075 -0.140623,-0.2208 0.01591,-0.021 0.05293,-0.053 0.07812,-0.047 z m -8.714785,0.2012 c 0.0338,7e-4 0.064129,0 0.078129,0.019 -0.0217,0.088 -0.2117786,0.067 -0.2812482,0.035 0.004,-0.033 0.056009,-0.043 0.099609,-0.047 0.0309,0 0.069529,-0.013 0.1035158,-0.013 z m 8.267522,0.1601 c -0.04329,0.013 -0.06591,0.108 0,0.1187 0.03069,-0.019 0.05448,-0.043 0.04687,-0.1 -0.01689,-0.019 -0.03257,-0.024 -0.04687,-0.02 z m -8.7011131,0 c 0.0228,-5e-4 0.046609,8e-4 0.070309,0.013 -0.0616,0.052 -0.1288437,0.08 -0.2343734,0.1133 -0.0508,0.016 -0.1379031,0.037 -0.1464829,-0.019 -0.011,-0.069 0.074709,-0.055 0.1210918,-0.061 0.0584,-0.013 0.1210624,-0.041 0.1894527,-0.043 z m 8.6835351,0.1855 c -0.02151,0.013 -0.04545,0.021 -0.06836,0.045 10e-4,0.075 0.0091,0.1227 -0.0059,0.1875 0.043,0.083 0.138214,0.013 0.160154,-0.047 0.0258,-0.139 -0.02184,-0.2032 -0.08595,-0.1856 z m 0.568355,0.3692 c -0.05867,0 -0.114107,7e-4 -0.148436,0.029 0.04891,0.08 0.150354,0.1067 0.259763,0.1267 0.03951,-0.031 0.04255,-0.095 0.06055,-0.1465 -0.04736,5e-4 -0.111093,-0.013 -0.169921,-0.013 z m -11.8456223,2.7109 c 0.1636989,-0.013 0.2349964,0.2079 0.3671854,0.2735 0.0331,0.017 0.07636,0.019 0.1191398,0.027 0.0347,0.013 0.060549,0.023 0.093749,0.033 0.0706,0.024 0.1583729,0.021 0.2148425,0.047 0.0851,0.037 0.145559,0.1974 0.2187485,0.2402 0.004,0.043 -0.00709,0.1013 0.00591,0.1333 0.0346,0.047 0.08366,0.039 0.140624,0.068 0.0681,0.037 0.08974,0.1307 0.154296,0.1601 0.022,0.013 0.078109,0.013 0.1132798,0.02 0.0885,0.027 0.1174584,0.1294 0.1933578,0.108 0.0498,-0.015 0.04484,-0.067 0.052729,-0.1133 0.0329,-0.036 0.069809,-0.093 0.1210931,-0.095 0.083,0 0.0908,0.085 0.1210931,0.1659 0.0169,0.045 0.060569,0.085 0.072269,0.1334 0.0205,0.083 0.011147,0.3312 -0.00589,0.3808 -0.021,0.061 -0.1035465,0.087 -0.1542959,0.1542 -0.0238,0.031 -0.034529,0.077 -0.052729,0.1 -0.0325,0.04 -0.083069,0.051 -0.1074211,0.088 -0.0139,0.021 -0.02586,0.067 -0.03906,0.095 -0.0402,0.085 -0.094249,0.1441 -0.060549,0.2461 0.0138,0.043 0.07988,0.071 0.08008,0.1187 1.3e-4,0.057 -0.1232118,0.1107 -0.1328118,0.1737 -0.007,0.047 0.037829,0.1338 0.052729,0.1955 0.011,0.047 0.099429,0.075 0.1269517,0.1053 0.0468,0.053 0.084129,0.128 0.1269518,0.1935 0.0846,0.1293 0.151954,0.2881 0.2343734,0.4141 0.0433,0.065 0.1037718,0.1254 0.1328117,0.1932 0.0147,0.035 0.01344,0.076 0.02734,0.108 0.0477,0.108 0.2584362,0.22 0.3671854,0.2735 0.0509,0.025 0.1056331,0.033 0.1523429,0.061 0.0707,0.039 0.2123156,0.145 0.2480454,0.2071 0.032,0.056 0.050809,0.1905 0.066409,0.2792 0.0206,0.1173 8.591e-4,0.2071 0.00591,0.334 0.004,0.069 0.02644,0.1383 0.02734,0.2071 3.1e-4,0.024 -0.012773,0.044 -0.013669,0.068 -0.002,0.083 0.020869,0.176 0.013669,0.2598 -0.004,0.045 -0.017069,0.083 -0.013669,0.1214 0.004,0.041 0.02414,0.075 0.02734,0.1106 0.002,0.039 -0.011813,0.091 -0.0078,0.1214 0.009,0.084 0.071289,0.1494 0.087889,0.2265 0.0132,0.061 0.021569,0.1883 0.013669,0.2617 -0.005,0.039 -0.0273,0.077 -0.0332,0.1186 -0.004,0.033 0.005,0.068 0,0.1 -0.006,0.047 -0.036,0.083 -0.0332,0.1267 0.006,0.091 0.1050398,0.1638 0.1191384,0.2538 0.005,0.031 -0.00689,0.065 -0.00589,0.095 9.88e-4,0.027 0.011613,0.051 0.019529,0.076 -2.1076726,-1.2016 -3.5253769,-3.4656 -3.5253769,-6.0762 0,-0.3128 0.02698,-0.6179 0.066409,-0.9197 0.0633,3e-4 0.1313917,-0.065 0.2011706,-0.068 z m 2.7167784,0.7559 c 0.0641,-0.029 0.08004,0.093 0.02734,0.1013 -0.0499,0.013 -0.07574,-0.079 -0.02734,-0.1013 z"
       id="rect4148"
       inkscape:connector-curvature="0"
       sodipodi:nodetypes="sssccccccccccsscccccsccsccccccccccccccccccccccccccccccsccccccccccccccccccccccccccccccccccccccccccccccccccccccccccccccccccccccccccccccccccccccccccccccccccccccccccccccccccccccccccccccccccccccccccccccscccccccccccccccccccccccccccccccccccccccccccccccccccccccccccccccscccccccccccccccccccccccsssccscccsccsssccsscccccccccccccccccccccccccccsccccccccccccccccccccccccccccccccccccccccccccccccccccccccccccccccccccccccccccccccccccccccccccccccccccccccccccccccccccccccccccccccccccccccccccccccccccccccccccccccsccccc" />
    <g
       id="g4173"
       transform="matrix(0.50000018,0,0,0.50000018,5.6004483,519.62854)"
       style="fill:#4d4d4d">
      <rect
         transform="matrix(-0.97933416,-0.20224888,0.18211775,-0.98327673,0,0)"
         width="3.2599709"
         height="5.9525952"
         rx="0.33733869"
         ry="0.38534206"
         x="-210.65996"
         y="-1028.6901"
         id="rect5907"
         style="fill:#4d4d4d;fill-opacity:1;stroke:none" />
      <path
         inkscape:connector-curvature="0"
         d="m 15.694135,1053.8924 a 1.6023655,0.22226504 11.691563 0 1 3.138489,0.6481 1.6023655,0.22226504 11.691563 0 1 -3.138489,-0.6481 z"
         id="path5917"
         style="fill:#4d4d4d;fill-opacity:1;stroke:none" />
      <rect
         transform="matrix(-0.60925414,-0.79297502,0.73484864,-0.67823114,0,0)"
         width="3.3499811"
         height="5.8150945"
         rx="0.34665287"
         ry="0.37644088"
         x="-794.06415"
         y="-627.50543"
         id="rect5781"
         style="fill:#4d4d4d;fill-opacity:1;stroke:none" />
      <path
         inkscape:connector-curvature="0"
         d="m 20.264792,1052.9231 a 1.6467463,0.21628195 52.555414 1 1 2.006397,2.6115 1.6467463,0.21628195 52.555414 0 1 -2.006397,-2.6115 z"
         id="path5791"
         style="fill:#4d4d4d;fill-opacity:1;stroke:none" />
      <rect
         transform="matrix(-0.96517366,0.26161001,-0.25747839,-0.96628406,0,0)"
         width="3.2624431"
         height="5.946888"
         rx="0.33759448"
         ry="0.38497248"
         x="256.90121"
         y="-1022.8013"
         id="rect5941"
         style="fill:#4d4d4d;fill-opacity:1;stroke:none" />
      <path
         inkscape:connector-curvature="0"
         d="m 12.414578,1056.8153 a 0.22209885,1.603584 74.829588 1 1 3.095454,-0.8391 0.22209885,1.603584 74.829588 0 1 -3.095454,0.8391 z"
         id="path5951"
         style="fill:#4d4d4d;fill-opacity:1;stroke:none" />
    </g>
  </g>
</svg>
