<?xml version="1.0" encoding="UTF-8" standalone="no"?>
<!-- Created with Inkscape (http://www.inkscape.org/) -->

<svg
   xmlns:dc="http://purl.org/dc/elements/1.1/"
   xmlns:cc="http://creativecommons.org/ns#"
   xmlns:rdf="http://www.w3.org/1999/02/22-rdf-syntax-ns#"
   xmlns:svg="http://www.w3.org/2000/svg"
   xmlns="http://www.w3.org/2000/svg"
   xmlns:sodipodi="http://sodipodi.sourceforge.net/DTD/sodipodi-0.dtd"
   xmlns:inkscape="http://www.inkscape.org/namespaces/inkscape"
   width="16"
   height="16"
   id="svg2"
   version="1.1"
   inkscape:version="0.48.5 r10040"
   viewBox="0 0 16 16"
   sodipodi:docname="folder-justice.svg">
  <defs
     id="defs4" />
  <sodipodi:namedview
     id="base"
     pagecolor="#ffffff"
     bordercolor="#666666"
     borderopacity="1.0"
     inkscape:pageopacity="0.0"
     inkscape:pageshadow="2"
     inkscape:zoom="31.678384"
     inkscape:cx="11.22342"
     inkscape:cy="12.198061"
     inkscape:document-units="px"
     inkscape:current-layer="layer1"
     showgrid="true"
     inkscape:showpageshadow="false"
     borderlayer="true"
     inkscape:window-width="1920"
     inkscape:window-height="1035"
     inkscape:window-x="-4"
     inkscape:window-y="29"
     inkscape:window-maximized="1"
     units="px">
    <inkscape:grid
       type="xygrid"
       id="grid4101" />
    <sodipodi:guide
       position="2,14.000017"
       orientation="12,0"
       id="guide4071" />
    <sodipodi:guide
       position="2,2.0000174"
       orientation="0,12"
       id="guide4073" />
    <sodipodi:guide
       position="14,2.0000174"
       orientation="-12,0"
       id="guide4075" />
    <sodipodi:guide
       position="14,14.000017"
       orientation="0,-12"
       id="guide4077" />
  </sodipodi:namedview>
  <metadata
     id="metadata7">
    <rdf:RDF>
      <cc:Work
         rdf:about="">
        <dc:format>image/svg+xml</dc:format>
        <dc:type
           rdf:resource="http://purl.org/dc/dcmitype/StillImage" />
        <dc:title />
      </cc:Work>
    </rdf:RDF>
  </metadata>
  <g
     inkscape:label="Capa 1"
     inkscape:groupmode="layer"
     id="layer1"
     transform="translate(0,-1036.3622)">
    <g
       id="g6556"
       transform="matrix(0.01881481,0,0,0.01881523,1.7419262,1038.7614)"
       style="fill:#4d4d4d;fill-opacity:1">
      <title
         id="title6558">Layer 1</title>
      <g
         id="layer1-9"
         style="fill:#4d4d4d;fill-opacity:1">
        <g
           id="g2588"
           style="fill:#4d4d4d;fill-opacity:1">
          <path
             id="path26"
             d="m 538.5589,268.47403 c 0,0 0,0 -0.23169,0 l -2.78137,-5.215 -0.11591,0 -83.78885,-152.16423 -237.92309,0 -0.81128,1.62246 -85.64302,155.75677 0.23181,0 -0.11592,0 c -0.11589,0 -0.11589,0 -0.11589,0 0,0 0,0.11591 0.11589,0.23181 l -0.11589,0.11591 0.3477,0 c 5.3309,5.9104 83.44113,88.19259 172.32907,0 l 0.34769,0 -0.11588,-0.23181 c 0.11588,0 0.11588,0 0.11588,-0.11591 l -0.11588,0 0,0 0,0 -1.73831,-3.36081 -1.04306,-1.85419 -0.11591,0 -80.54385,-146.48562 0.11591,-0.23172 110.5595,0 c 0,0.69535 -0.81124,11.47317 -14.60226,182.991 -0.92706,23.75762 -11.00955,31.52224 -18.89014,33.95593 l -87.84494,0 c -7.41705,0 -13.32739,5.56268 -13.32739,12.40024 0,6.83752 5.91034,12.28436 13.32739,12.28436 l 256.00196,0 c 7.30111,0 13.32748,-5.44684 13.32748,-12.28436 0,-6.83756 -6.02637,-12.40024 -13.32748,-12.40024 l -90.04679,0 c -7.99649,-2.31778 -18.19488,-10.1983 -19.12194,-33.95593 -13.67511,-171.51783 -14.48633,-182.29565 -14.60224,-182.991 l 110.21185,0 -80.77563,146.71734 0,0 -2.78137,5.215 0.11584,0 0,0 -0.23172,0 c 0.11588,0.11591 0.11588,0.11591 0.11588,0.11591 l -0.11588,0.23181 0.34763,0 c 89.35156,88.19259 167.69345,5.9104 173.02444,0 l 0.34766,0 -0.11591,-0.11591 c 0.11591,-0.1159 0.11591,-0.23181 0.11591,-0.23181 z m -247.19428,-5.215 -155.17733,0 77.5307,-141.03869 77.64663,141.03869 z m 82.39807,0 77.76246,-141.2705 77.87841,141.2705 -155.64087,0"
             inkscape:connector-curvature="0"
             style="fill:#4d4d4d;fill-opacity:1;fill-rule:nonzero" />
          <path
             id="path28"
             d="m 416.75803,548.81305 c 0,0 -67.91181,-78.80551 -147.52851,-56.78635 -36.62134,14.94986 -58.177,25.49588 -69.9978,27.81375 -11.70502,2.086 -39.28691,4.28791 -56.09102,-7.06933 30.82683,28.16138 59.4518,29.89978 80.54384,25.95941 21.09206,-4.05615 42.1842,-21.20795 47.63098,-25.61169 5.56274,-4.28797 25.61182,-28.16144 64.55103,-12.7479 28.16134,13.2114 63.97149,52.0347 69.9978,58.98813 10.89368,-10.54602 10.89368,-10.54602 10.89368,-10.54602"
             inkscape:connector-curvature="0"
             style="fill:#4d4d4d;fill-opacity:1;fill-rule:nonzero" />
          <path
             id="path30"
             d="m 268.7659,490.52023 c -0.11578,0 -31.52216,13.21146 -31.52216,13.21146 -18.42657,7.88058 -30.59509,12.97973 -38.35977,14.48627 -3.59259,0.69531 -35.81009,6.14221 -54.81611,-6.8375 l -1.9702,2.43369 c 0,0.11584 0.11589,0.23175 0.11589,0.23175 25.14827,22.83044 52.6143,31.63818 81.81874,26.19122 14.0227,-2.66547 30.24737,-11.24133 48.09451,-25.7276 0.23169,-0.11591 2.31775,-1.97021 2.31775,-1.97021 7.30109,-6.60572 26.65485,-24.22101 60.84247,-10.6619 27.23431,12.74789 62.11737,49.94882 69.30258,58.52469 l 1.15884,1.27478 13.21152,-12.74793 -1.043,-1.15887 C 417.22165,546.9588 348.49857,468.50097 268.7659,490.52023 z m -69.18658,30.82682 c 7.99649,-1.5066 20.28091,-6.72174 38.8233,-14.71805 l 31.40631,-13.09574 c 74.16992,-20.51254 138.60501,48.44226 144.74716,55.16388 -1.62237,1.6225 -6.9534,6.72168 -8.69174,8.34418 -8.92361,-10.19843 -42.41589,-45.54498 -69.4184,-58.0611 -36.04187,-14.37048 -56.43859,4.172 -64.20327,11.24137 l -1.85428,1.73831 c -17.61533,14.13861 -33.37647,22.59863 -47.05146,25.14825 -24.9165,4.75147 -48.55816,-1.97021 -70.57736,-18.77429 19.58554,6.83759 43.57486,3.59259 46.81973,3.01319"
             inkscape:connector-curvature="0"
             style="fill:#4d4d4d;fill-opacity:1;fill-rule:nonzero" />
          <path
             id="path32"
             d="m 254.04785,488.43411 c 0,0 -43.80658,9.38715 -60.26306,14.13858 -16.45636,4.86753 -72.08384,5.79459 -104.53315,-43.57477 25.72771,21.09205 57.24987,21.09205 69.88191,20.62858 12.74795,-0.34775 45.54498,4.51974 61.65373,7.5328 -0.34761,-3.01306 -16.57228,-6.60571 -21.43976,-9.15533 -4.86739,-2.54956 -18.54239,-6.60571 -35.11476,-42.76355 -5.56273,-11.00961 -6.4899,-17.1518 -10.31421,-20.51254 6.95338,1.04293 20.51259,15.64511 24.68463,20.04895 4.17204,4.40383 29.43616,33.49234 43.80659,40.90936 14.37043,7.53287 21.43978,11.12555 31.63808,12.74792"
             inkscape:connector-curvature="0"
             style="fill:#4d4d4d;fill-opacity:1;fill-rule:nonzero" />
          <path
             id="path34"
             d="m 152.87549,416.00263 c 2.08603,1.73828 3.24496,4.51968 4.98327,8.80764 l 4.98331,11.12552 c 15.41339,33.72406 28.27725,39.86627 34.41943,42.8794 l 1.27488,0.57947 8.92352,3.24502 c 0.92715,0.34757 2.20193,0.81113 3.36081,1.15888 -16.57228,-2.6655 -40.79343,-6.02625 -51.68717,-5.67865 -28.16134,0.81128 -51.33942,-6.02628 -68.838847,-20.39673 l -2.433754,2.20193 c 31.290451,47.3992 86.106591,50.18054 106.387491,44.15418 16.10875,-4.75144 59.68351,-13.90677 60.14714,-14.02271 l -0.11591,-3.12896 c -10.08249,-1.73841 -17.15182,-5.33103 -31.17453,-12.63212 -12.16852,-6.37405 -32.79706,-29.08847 -40.5617,-37.66436 l -2.78138,-3.01313 -1.04297,-1.04309 c -8.6918,-9.15536 -18.42657,-18.54242 -24.56881,-19.35364 l -1.27478,2.78135 z m 55.51156,63.62387 -8.34408,-3.01322 -1.39081,-0.69531 c -5.44679,-2.54956 -17.96295,-8.69183 -32.91281,-41.37286 0,-0.11591 -4.98331,-11.00962 -4.98331,-11.00962 -0.92715,-2.43368 -2.08601,-3.59259 -3.12909,-5.33096 6.374,3.70843 15.0658,12.63208 18.77431,16.5723 l 1.04295,1.04309 2.66556,3.01315 c 7.88059,8.57581 28.85672,31.75397 41.60468,38.35968 10.89373,5.67859 17.73123,9.15536 25.03237,11.24136 -13.09567,2.89728 -41.02534,8.92362 -53.42556,12.63211 -18.42658,5.44684 -66.17351,3.01307 -96.88441,-35.34655 16.92,10.89361 37.89613,16.34045 62.81261,15.52929 12.16851,-0.34771 43.80657,4.17206 61.19021,7.41697 l 2.08601,0.46346 -0.2318,-2.20178 c 0,-0.46362 -0.92715,-0.81125 -1.27478,-1.27487 l 0,0 c 0,0 -0.1159,-0.11578 -0.1159,-0.11578 -1.50659,-1.85431 -4.98331,-3.47684 -12.51615,-5.91046"
             inkscape:connector-curvature="0"
             style="fill:#4d4d4d;fill-opacity:1;fill-rule:nonzero" />
          <path
             id="path36"
             d="m 173.15628,470.81876 c 0,0 -22.0191,-6.02628 -38.35968,-8.34409 -16.45646,-2.20196 -73.822226,-16.68823 -96.189059,-84.02057 22.598637,26.30713 27.697742,27.9296 40.909313,34.53534 13.3274,6.6058 53.425436,29.43619 67.332356,41.95239 4.05616,2.31775 4.05616,2.31775 4.05616,2.31775 0,0 1.39068,-1.73831 -4.75148,-6.95343 -5.91045,-5.33093 -26.19125,-23.7575 -29.32034,-65.01449 -2.54955,-18.19477 -6.60579,-34.76715 -7.88055,-36.96912 9.15533,5.21515 19.93317,26.30716 22.1351,32.21759 2.20194,6.02628 17.03589,47.63104 19.00602,52.61429 1.85421,4.8674 13.90683,31.29034 23.06216,37.66434"
             inkscape:connector-curvature="0"
             style="fill:#4d4d4d;fill-opacity:1;fill-rule:nonzero" />
          <path
             id="path38"
             d="m 107.56231,349.01791 c 1.04306,1.85428 5.0992,17.96308 7.64876,36.50553 1.50659,19.35367 7.88055,46.58798 29.89977,65.94165 0.11587,0 0.11587,0 0.11587,0.11593 -15.29748,-12.63217 -51.687121,-33.37649 -65.014514,-39.98227 l -2.086014,-1.15887 C 66.653007,404.76123 60.858467,401.97989 39.88232,377.41107 l -2.781372,1.50662 c 24.336948,73.35868 90.046802,84.25229 97.463872,85.17948 16.10875,2.086 37.89612,8.34408 38.12793,8.34408 l 1.39068,-2.7814 c -8.46,-6.02631 -20.28079,-31.1745 -22.59863,-37.08493 l -18.8901,-52.49829 c -2.08603,-5.44693 -12.97978,-27.46613 -22.83047,-33.14481 l -2.20192,2.08609 z m 44.61783,109.1688 c 0.34772,-0.34766 0.46354,-0.81125 0.46354,-1.39069 0,-1.50659 -1.04297,-3.94022 -5.44683,-7.64874 -21.09205,-18.77429 -27.35012,-45.08136 -28.7408,-63.97156 -1.73839,-12.51617 -4.28795,-24.68469 -6.25806,-31.75394 7.64874,7.64871 15.5293,22.71451 17.38351,27.69779 l 19.00604,52.61435 c 1.27476,3.36074 10.77781,24.22106 19.70134,34.18753 -7.41695,-1.85416 -21.67147,-5.44678 -33.37636,-6.95337 -6.7217,-0.92707 -64.782814,-11.2414 -90.85815,-74.05393 15.761127,17.49936 22.250912,21.32382 32.56522,26.42304 l 2.20192,1.04297 c 13.790916,6.95343 53.30955,29.43609 66.98464,41.72055 0.23181,0.23184 4.40387,2.54965 4.40387,2.54965 l 1.15888,0.69531 0.81125,-1.15896"
             inkscape:connector-curvature="0"
             style="fill:#4d4d4d;fill-opacity:1;fill-rule:nonzero" />
          <path
             id="path40"
             d="m 111.85026,415.88672 c 0,0 -27.581926,-16.10873 -42.763613,-27.92963 -15.181599,-11.9367 -57.829297,-42.99533 -53.425457,-98.15918 6.605789,17.84714 17.38353,34.07178 29.088531,43.92249 11.704887,9.96658 32.912838,41.25702 38.012035,48.55804 4.983292,7.30118 8.459991,9.27124 8.459991,9.27124 0,0 1.622505,-3.59259 -4.056137,-9.85071 -4.172043,-6.72155 -11.704994,-22.48272 -7.648758,-56.90216 5.099197,-31.98574 6.953415,-39.63452 6.02626,-44.61779 4.403854,11.24142 10.198395,35.46249 12.40033,73.35867 1.274765,21.43973 3.708418,38.01199 6.489878,45.31317 2.89718,7.18515 7.41694,17.03586 7.41694,17.03586"
             inkscape:connector-curvature="0"
             style="fill:#4d4d4d;fill-opacity:1;fill-rule:nonzero" />
          <path
             id="path42"
             d="m 84.036522,280.52667 c 0.115906,0.69532 0.115906,1.50656 0.115906,2.43372 0,3.59259 -0.927048,9.27124 -2.897255,21.32385 l -3.244911,20.28082 c -0.811234,6.83747 -1.274765,13.09555 -1.274765,19.00599 0,16.2247 3.013077,29.32031 9.039436,38.93923 1.970116,2.086 2.897255,3.70847 3.476707,5.09916 -1.390701,-1.39069 -3.129089,-3.245 -5.215118,-6.25803 0,0 -1.738289,-2.43371 -1.738289,-2.43371 C 75.34481,368.71939 56.570499,341.71689 45.792679,332.56156 34.319599,322.82666 23.65766,306.7179 17.05189,289.21845 l -3.013189,0.46359 c -4.287951,54.00494 35.346581,84.83176 52.266582,98.15921 l 1.738411,1.27478 c 15.065765,11.82083 42.647706,28.0455 42.879426,28.16138 l 2.31782,-1.97016 -7.30113,-17.03589 c -2.78136,-7.41705 -5.21501,-24.10522 -6.48979,-44.84958 -2.665543,-45.89267 -10.19838,-68.14364 -12.400307,-73.82229 l -3.013191,0.92718 z m 0.347717,24.2211 c 1.27478,-7.30111 1.970123,-11.93671 2.433647,-15.64523 3.129082,10.89377 7.532951,31.29046 9.503067,64.55105 1.27478,20.97611 3.708517,38.012 6.721687,45.77665 0,0 3.24489,7.53296 5.33092,12.63202 -8.22818,-4.98328 -26.886584,-16.45636 -38.359759,-25.37995 l -1.738304,-1.39065 C 52.630268,373.00729 16.93597,345.19354 16.93597,297.6785 c 0,-0.5795 0,-1.15888 0,-1.73844 6.837509,15.76111 16.108749,30.01566 26.770691,39.05506 10.546021,8.80777 29.088512,35.69433 36.041912,45.77685 l 1.622498,2.4336 c 5.215096,7.41708 8.923622,9.61898 9.039429,9.7348 l 1.622498,0.92715 0.57943,-1.7384 c 0.347725,-0.46353 1.854301,-4.75146 -4.287956,-11.58899 -7.648743,-12.28445 -10.082382,-31.05862 -7.185211,-55.51156 0,0 3.24498,-20.2808 3.24498,-20.2808"
             inkscape:connector-curvature="0"
             style="fill:#4d4d4d;fill-opacity:1;fill-rule:nonzero" />
          <path
             id="path44"
             d="m 65.957657,339.0513 c 0,0 -9.503048,-14.83402 -18.078968,-24.56873 -8.575798,-9.50299 -46.472019,-52.3825 -26.886568,-124.69818 0,16.8042 2.317829,26.30716 4.056229,32.3335 1.97011,5.91037 20.744329,46.24023 22.598642,57.134 1.85421,10.89374 4.983276,31.40631 9.387138,33.72406 1.622398,-1.04297 -0.231812,-4.63556 -0.811241,-7.99637 -0.695351,-3.24496 -6.142258,-31.29043 10.314198,-61.76965 14.94989,-26.77066 17.731247,-29.32031 19.933182,-38.59155 0.695343,17.49951 -4.983292,52.15075 -9.503052,66.75293 -4.403763,14.48636 -16.340569,48.21042 -11.00956,67.67999"
             inkscape:connector-curvature="0"
             style="fill:#4d4d4d;fill-opacity:1;fill-rule:nonzero" />
          <path
             id="path46"
             d="m 46.71983,315.64151 c 8.344101,9.38705 17.847149,24.10516 17.847149,24.22104 l 2.89727,-1.27475 c -4.635666,-16.91998 4.519669,-45.89264 9.387154,-61.53784 l 1.622391,-5.21512 c 4.287964,-13.90683 10.314316,-49.02161 9.61898,-67.33228 l -3.129097,-0.34771 c -1.622498,6.37396 -3.360794,9.61886 -9.503059,20.16497 l -10.314194,18.1948 c -9.734783,17.96295 -11.936722,35.23068 -11.936722,47.28329 0,7.06928 0.81126,11.93671 1.27478,14.48633 -2.08601,-7.06933 -3.940224,-17.38357 -4.98328,-22.94635 l -0.347641,-2.31781 C 47.878689,271.37131 39.07108,250.8587 32.5812,235.90881 L 26.67076,221.6543 c -1.738319,-5.56275 -4.056149,-15.06571 -4.056149,-31.86991 l -3.128981,-0.46353 c -12.86386,47.3992 -3.129089,92.24884 27.2342,126.32065 z m 2.317841,-2.20194 C 27.94562,289.91382 17.16779,260.94119 17.16779,229.53485 c 0,-8.80762 1.158861,-17.73126 2.78137,-26.77069 0.811241,9.38715 2.31782,15.64523 3.5926,19.81726 0,0 6.142162,14.60217 6.142162,14.60217 6.026348,13.90692 15.181698,35.11487 16.340557,42.30011 0,0 0.347733,2.43366 0.347733,2.43366 2.897179,16.34054 5.562729,30.13156 9.96648,32.44928 l 0.811256,0.34775 0.811253,-0.46366 c 0.927139,-0.57947 1.274757,-1.62234 1.274757,-2.66546 0,-1.27475 -0.347618,-2.66547 -0.81115,-4.05616 l -0.695328,-2.78134 c -0.463631,-2.08603 -1.390789,-7.41699 -1.390789,-15.06573 0,-11.58902 2.201939,-28.27732 11.705002,-45.66086 l 10.198395,-18.07895 c 2.897171,-5.09918 4.867371,-8.45999 6.258072,-11.47317 -0.92717,18.77432 -5.562729,44.84964 -9.039543,56.43872 l -1.622398,5.21502 c -4.287941,13.55924 -10.89373,34.30359 -10.89373,51.33948 0,1.85425 0.463608,3.47675 0.695328,5.21506 -3.592598,-5.21506 -9.155334,-13.09561 -14.602146,-19.23776"
             inkscape:connector-curvature="0"
             style="fill:#4d4d4d;fill-opacity:1;fill-rule:nonzero" />
          <path
             id="path48"
             d="m 50.080631,251.09051 c 0,0 -5.678642,-23.06225 -12.632042,-41.48883 -6.953411,-18.54242 -20.2808,-61.53784 14.254539,-106.38738 -7.30114,17.84705 -4.40387,29.43612 -4.40387,31.40624 0,1.97013 4.287952,41.60465 4.40387,51.45545 0.115891,12.63205 -2.201927,34.41943 -2.201927,34.41943 0,0 0.81123,2.66544 2.549629,0 1.042969,-1.6225 3.360809,-29.78387 20.280796,-46.58795 15.645233,-15.64523 28.393174,-27.46604 31.869894,-33.9559 0,11.47308 -6.605787,28.39315 -12.052618,37.54849 -5.331017,9.27127 -27.466026,39.63455 -32.565212,49.83285 -4.983292,10.3143 -9.503059,22.48282 -9.503059,23.7576"
             inkscape:connector-curvature="0"
             style="fill:#4d4d4d;fill-opacity:1;fill-rule:nonzero" />
          <path
             id="path50"
             d="m 35.94199,210.18121 c 6.837601,18.07886 12.516232,41.14102 12.63205,41.37284 l 3.129089,-0.34763 c 0.115891,-1.27487 4.287941,-12.74795 9.38715,-23.06226 2.89727,-6.02627 11.820793,-19.12191 19.817261,-30.7109 l 12.63205,-19.12195 c 5.910431,-10.08249 12.1685,-27.00247 12.1685,-38.35974 l -2.89726,-0.81125 c -2.78136,5.21503 -11.820801,14.13864 -23.409882,25.49591 l -8.22818,8.11227 c -14.02282,13.90693 -18.310776,35.69431 -19.933178,43.80658 0,0 -0.34771,1.85431 -0.463631,2.66556 0.579533,-2.89728 2.433743,-33.14465 2.433743,-33.14465 l -3.24498,-40.67761 -1.158871,-12.28443 c -0.231812,-1.39065 -0.463531,-3.59259 -0.463531,-6.48977 0,-5.33099 0.927071,-13.09567 4.75148,-22.83044 l -2.665459,-1.6225 C 25.975401,134.04114 21.10803,170.31485 35.94199,210.18121 z m 3.013191,-1.15896 c -5.446831,-14.60218 -8.228203,-28.74082 -8.228203,-42.30002 0,-19.00601 5.678642,-36.85315 16.340561,-53.65725 -1.27486,5.33093 -1.854298,10.0824 -1.854298,13.5592 0,3.01309 0.231808,5.33093 0.347717,6.83749 0.23172,1.15888 1.158871,12.28442 1.158871,12.28442 l 3.360802,40.3299 c 0,0 -2.201942,34.18759 -2.201942,34.18759 0.231823,1.04306 0.811253,2.78137 2.433743,2.89728 1.158878,0.23181 2.201939,-0.46353 3.013187,-1.85422 0,0 1.042973,-4.17203 1.042973,-4.17203 1.62249,-7.88058 5.678627,-28.85681 19.00602,-42.06827 0,0 8.344177,-8.2282 8.344177,-8.2282 9.50296,-9.38715 15.992844,-16.10883 20.164881,-21.55567 -1.50659,10.89374 -6.837488,24.22113 -11.125452,31.52228 l -12.516129,18.89011 c -7.996475,11.58908 -17.035912,24.80056 -20.04908,30.94271 -3.013187,6.14228 -6.026348,13.55921 -7.880577,18.7743 -2.20192,-7.88056 -6.373962,-23.29398 -11.35725,-36.38962"
             inkscape:connector-curvature="0"
             style="fill:#4d4d4d;fill-opacity:1;fill-rule:nonzero" />
          <path
             id="path52"
             d="m 60.047218,172.51678 c 0,0 2.549644,-6.37399 0.231804,-32.10168 C 57.845279,114.68739 56.802318,79.572609 96.668663,55.93092 86.70208,72.61921 85.079582,75.516487 82.066399,89.191513 79.053231,102.75068 75.692437,124.53806 70.245613,136.82248 c -2.20192,6.02637 -3.592606,10.77783 -2.549644,11.35727 0.927155,0.57943 1.390678,-0.46353 2.086113,-2.54953 0.927055,-2.08606 9.039429,-20.51263 25.495819,-32.21761 16.456449,-11.7049 31.290429,-23.409887 36.853159,-34.998854 -2.43364,21.439644 -10.54603,29.088514 -18.6583,39.866244 -8.80771,11.70498 -40.445783,36.15783 -45.776791,44.15429 -5.446815,7.88056 -7.64875,10.08249 -7.64875,10.08249"
             inkscape:connector-curvature="0"
             style="fill:#4d4d4d;fill-opacity:1;fill-rule:nonzero" />
          <path
             id="path54"
             d="m 58.656528,140.53101 c 2.317844,24.68466 -0.115898,31.29043 -0.115898,31.29043 l 2.549648,1.85422 7.880554,-10.43012 c 2.433655,-3.59262 11.009544,-11.12545 19.933075,-19.12191 10.430222,-9.15537 21.208053,-18.65841 25.843633,-24.91647 0,0 3.24488,-4.17206 3.24488,-4.17206 6.9535,-8.92352 13.55921,-17.383603 15.76112,-36.389623 l -3.01315,-0.927055 c -5.56275,11.473091 -20.74433,23.293948 -36.389552,34.419438 -11.936707,8.45996 -19.46965,20.28075 -23.293991,27.35009 0.23172,-0.81116 0.347641,-1.04297 0.695351,-2.08603 4.17205,-9.27124 6.953423,-23.87341 9.618874,-36.62133 l 2.20192,-11.241398 C 86.586168,76.327743 87.976862,73.662178 98.059351,56.742161 L 95.857409,54.54023 C 52.977904,80.036141 56.686423,119.43897 58.656531,140.53101 z m 4.172054,18.65838 c 0,-4.75155 -0.23172,-10.89374 -1.042976,-18.8902 -0.463608,-4.9833 -0.927139,-11.00955 -0.927139,-17.61531 0,-18.77423 5.562721,-42.068211 30.131561,-60.14716 -6.142258,10.430122 -7.99646,14.94989 -10.430206,26.307129 l -2.43364,11.241391 c -2.433746,12.63202 -5.331009,27.00248 -9.387154,36.1578 -2.201942,5.91046 -3.013176,9.15534 -3.013176,11.00955 0,1.27488 0.463631,1.85431 1.158966,2.31784 l 0.57943,0.34772 1.390678,-0.1159 c 1.27478,-0.46363 1.85421,-1.85431 2.43364,-3.70853 0.811256,-1.85422 9.039536,-20.04907 24.916473,-31.40633 13.095671,-9.27124 25.495911,-19.121922 32.912941,-28.856686 -2.66554,12.63205 -7.76467,19.701346 -13.6751,27.350186 l -3.24489,4.05615 c -4.51977,6.02624 -15.529327,15.87691 -25.380104,24.56875 -9.502968,8.45999 -17.847054,15.7611 -20.512604,19.70135 0,0 -1.85421,2.54965 -3.70842,4.98331 0.115814,-1.97013 0.23172,-4.17206 0.23172,-7.30106"
             inkscape:connector-curvature="0"
             style="fill:#4d4d4d;fill-opacity:1;fill-rule:nonzero" />
          <path
             id="path56"
             d="m 89.831062,104.25727 c 0,0 5.215118,-27.234191 15.645218,-43.343051 10.43013,-16.108757 32.10169,-30.363279 54.93204,-37.432619 -7.99638,6.72171 -12.86375,12.747961 -15.64514,17.615358 -2.78134,4.75156 -20.04907,31.753971 -27.92963,40.329868 -8.11237,8.575897 -21.092042,16.340576 -27.002488,22.830444"
             inkscape:connector-curvature="0"
             style="fill:#4d4d4d;fill-opacity:1;fill-rule:nonzero" />
          <path
             id="path58"
             d="M 104.08561,59.98716 C 93.655479,76.21183 88.556297,102.86658 88.32447,103.90965 l 2.781372,1.39068 11.589078,-9.850676 15.18169,-12.979767 c 8.22819,-8.807709 25.6117,-35.926025 28.27727,-40.561676 3.24489,-5.67865 8.3441,-11.473181 15.29751,-17.267632 l -1.50658,-2.665569 c -24.10523,7.417061 -45.42909,22.019199 -55.8592,38.01215 z m 2.78137,1.738312 c 8.80771,-13.675022 26.42306,-26.075352 46.58794,-33.840002 -4.05615,4.17206 -7.64877,8.344091 -10.08241,12.40024 -2.66556,4.519753 -19.81727,31.406338 -27.81374,40.098148 0,0 -19.585451,16.572289 -23.178064,19.585449 1.970131,-8.344086 6.837502,-26.422951 14.486274,-38.243835"
             inkscape:connector-curvature="0"
             style="fill:#4d4d4d;fill-opacity:1;fill-rule:nonzero" />
          <path
             id="path60"
             d="m 254.51147,550.89905 c 0,0 65.94159,-80.5438 146.02189,-60.49475 37.08499,14.0227 58.75647,23.98932 70.69317,25.8435 11.82086,1.97016 39.2869,3.47675 55.85929,-8.45996 -30.13163,28.9726 -58.75651,31.52222 -79.84864,28.04553 -21.20791,-3.4768 -42.64758,-20.04907 -48.21042,-24.33703 -5.56271,-4.28797 -26.42297,-27.46601 -64.78271,-11.1254 -28.04544,13.90677 -62.81262,53.54129 -68.60712,60.72653 -11.12546,-10.19842 -11.12546,-10.19842 -11.12546,-10.19842"
             inkscape:connector-curvature="0"
             style="fill:#4d4d4d;fill-opacity:1;fill-rule:nonzero" />
          <path
             id="path62"
             d="m 253.2366,549.85608 -0.92706,1.15887 13.5592,12.40033 1.04297,-1.39068 c 7.06931,-8.69177 41.14112,-46.81976 68.02765,-60.26306 33.72412,-14.37043 53.54138,2.78137 60.95844,9.2713 l 2.086,1.73828 c 18.4266,14.0227 34.76715,22.36682 49.02166,24.68463 29.20435,4.63568 56.5546,-4.86737 81.00742,-28.27722 0.1159,-0.11591 0.1159,-0.11591 0.1159,-0.23181 l -1.97009,-2.43366 c -18.77435,13.4433 -51.10776,8.80762 -54.70041,8.22815 -7.76462,-1.27478 -19.8172,-6.02622 -38.12787,-13.32739 L 401.11279,488.8977 C 320.80078,468.73273 253.93195,549.04486 253.2366,549.85608 z m 146.94916,-57.94519 31.98578,12.51611 c 18.54239,7.30115 30.71091,12.16852 38.82324,13.4433 3.01319,0.46356 25.84351,3.59265 44.84958,-2.89728 -21.09207,16.45648 -43.92252,23.1781 -68.37537,19.23786 -13.55917,-2.20191 -29.55203,-10.19843 -47.28323,-23.87342 -0.23187,-0.11587 -2.20196,-1.7384 -2.20196,-1.7384 -7.88056,-6.83752 -28.74091,-24.91641 -64.43506,-9.61884 -26.539,13.09552 -59.33594,49.25336 -68.02771,59.79938 -1.73841,-1.50659 -7.18525,-6.60577 -8.80771,-7.99646 5.91043,-6.95337 68.60724,-77.53064 143.47244,-58.87225"
             inkscape:connector-curvature="0"
             style="fill:#4d4d4d;fill-opacity:1;fill-rule:nonzero" />
          <path
             id="path64"
             d="m 415.71506,486.46399 c 0,0 44.03839,8.11237 60.49475,12.51623 16.57242,4.40375 72.3157,3.94019 103.60611,-46.24035 -25.2641,21.78741 -56.90222,22.59863 -69.5343,22.48272 -12.63202,-0.11587 -45.42911,5.56275 -61.30603,9.03946 0.23184,-3.12899 16.34057,-7.0693 21.20797,-9.73477 4.7515,-2.66546 18.31067,-7.06933 33.9559,-43.69067 5.44684,-11.12546 6.14216,-17.38361 9.96662,-20.74445 -6.95343,1.27478 -20.16501,16.22467 -24.22116,20.62854 -4.17203,4.63556 -28.74085,34.30359 -42.87946,42.06824 -14.13858,7.9964 -21.20791,11.58902 -31.2904,13.67505"
             inkscape:connector-curvature="0"
             style="fill:#4d4d4d;fill-opacity:1;fill-rule:nonzero" />
          <path
             id="path66"
             d="m 489.88492,428.40283 -1.15888,1.27481 -3.12909,3.47678 c -7.53283,8.69174 -27.466,31.75397 -39.2868,38.24383 -14.37042,8.11231 -21.20795,11.47309 -30.94281,13.44333 l 0,3.129 c 0.34772,0.11594 44.1543,8.22815 60.49481,12.51611 20.39673,5.56281 75.21298,1.39072 105.22855,-46.93554 l -2.31775,-1.97013 c -17.2677,14.83396 -40.32996,22.25089 -68.37543,22.01911 -11.00955,-0.11579 -34.99887,3.82446 -51.68713,7.0693 1.15887,-0.46356 2.43368,-0.92703 3.47665,-1.27478 l 8.69187,-3.47668 1.39065,-0.69538 c 5.56278,-2.78134 18.65842,-9.50293 33.3765,-43.69064 l 4.75146,-11.24136 c 1.6225,-4.28797 2.78137,-7.18525 4.63568,-8.92365 l -1.27484,-2.78134 c -6.02634,1.04306 -15.41345,10.54599 -23.87344,19.81723 z m -42.06818,45.89267 c 12.2843,-6.95346 31.86975,-29.43615 40.21393,-39.05508 l 3.01312,-3.36081 1.27484,-1.39072 c 3.59259,-3.94025 11.93671,-12.86386 18.07889,-16.80411 -0.92712,1.73838 -2.086,3.01319 -3.01318,5.44681 l -4.63559,11.00968 c -14.25452,33.26052 -26.65479,39.51858 -31.98575,42.29998 l -1.39072,0.69535 c 0,0 -8.22821,3.2449 -8.22821,3.2449 -7.53289,2.66553 -10.89367,4.40384 -12.40027,6.25818 0,0 -0.1159,0.11575 -0.1159,0.11575 l 0,0 c -0.34766,0.46363 -1.15891,0.92722 -1.27478,1.39081 l -0.11594,2.20187 2.08603,-0.57946 c 14.83399,-3.24491 47.9787,-9.03943 60.95841,-8.92353 24.9165,0.11588 45.77679,-5.79458 62.46502,-17.26773 -29.89978,39.28693 -77.53073,42.87952 -96.07318,37.89624 -12.40036,-3.3609 -40.5617,-8.80771 -53.77319,-11.24139 7.0693,-2.31781 13.79092,-5.79456 24.91647,-11.93674 z m 57.82932,-42.76355 0,0"
             inkscape:connector-curvature="0"
             style="fill:#4d4d4d;fill-opacity:1;fill-rule:nonzero" />
          <path
             id="path68"
             d="m 496.25888,466.7626 c 0,0 21.67148,-6.72158 38.01205,-9.27121 16.45649,-2.66543 73.47461,-18.65832 94.10303,-86.57025 -21.90326,26.8866 -26.88653,28.625 -39.98212,35.69437 -13.0957,6.83749 -52.73022,30.59509 -66.40521,43.45889 -4.05627,2.43366 -4.05627,2.43366 -4.05627,2.43366 0,0 -1.15888,-1.6225 4.63568,-6.9534 5.91046,-5.44678 25.72772,-24.45285 27.92956,-65.82575 2.08613,-18.19476 5.79456,-34.76715 7.06934,-37.20083 -9.03943,5.56274 -19.3537,27.00241 -21.4397,32.91287 -2.086,6.02634 -15.99292,47.97861 -17.73126,52.96188 -1.85431,4.98337 -13.21158,31.63819 -22.1351,38.35977"
             inkscape:connector-curvature="0"
             style="fill:#4d4d4d;fill-opacity:1;fill-rule:nonzero" />
          <path
             id="path70"
             d="m 534.61865,374.97742 -17.7312,52.96194 c -2.31787,6.14212 -13.44333,31.40631 -21.67154,37.54849 l 1.39072,2.78132 c 0.23166,0 21.90326,-6.72168 38.01202,-9.27124 7.30115,-1.15888 72.77918,-13.67508 95.37781,-87.61313 l -2.78137,-1.5066 c -20.62848,25.2641 -25.95941,28.04545 -37.54846,34.18772 l -2.08606,1.043 c -12.97974,6.95334 -48.3263,28.27728 -63.73975,41.37289 21.43976,-20.04907 27.23432,-47.28326 28.27728,-66.63702 2.086,-18.65839 5.67865,-34.65125 6.83759,-36.50556 l -2.31781,-2.20184 c -9.7348,6.02624 -20.04907,28.3931 -22.01923,33.84003 z m -14.71808,54.00488 c 0,0 17.73127,-52.96191 17.73127,-52.96191 1.73828,-5.09925 9.27124,-20.2808 16.68817,-28.16138 -1.73829,7.06937 -3.94019,19.00604 -5.44678,31.63806 -1.50659,27.46613 -10.66199,49.25348 -27.35022,64.89877 -4.05615,3.70835 -5.21503,6.14212 -5.21503,7.64872 0,0.5794 0.11591,1.15887 0.4635,1.50659 l 0.81128,1.043 5.21509,-3.12906 c 13.55914,-12.63202 52.6142,-36.15784 66.28931,-43.45893 l 1.97015,-1.04296 c 10.31427,-5.44696 16.68823,-9.38715 32.10169,-27.46613 -24.45295,63.50806 -82.28229,75.21298 -89.11975,76.37177 -11.58912,1.85434 -25.72773,5.67865 -33.14469,7.88061 8.69174,-10.0824 17.49942,-30.59503 19.00601,-34.76715"
             inkscape:connector-curvature="0"
             style="fill:#4d4d4d;fill-opacity:1;fill-rule:nonzero" />
          <path
             id="path72"
             d="m 556.17426,410.32398 c 0,0 27.11834,-16.91999 42.06823,-29.20441 14.83399,-12.16852 56.78638,-44.27011 51.10773,-99.31812 -6.25806,17.96305 -16.57239,34.41953 -28.04553,44.61783 -11.47309,10.19837 -31.86988,42.06821 -36.73731,49.4852 -4.98327,7.41702 -8.34405,9.50305 -8.34405,9.50305 0,0 -1.73835,-3.59265 3.8244,-10.08249 3.94025,-6.60565 11.24139,-22.71454 6.25806,-56.90219 -5.7945,-31.98578 -7.76465,-39.51867 -7.06928,-44.38604 -4.05615,11.24133 -9.27124,35.46246 -10.54602,73.4746 -0.69537,21.55555 -2.89728,38.12793 -5.56274,45.42896 -2.66553,7.41705 -6.95349,17.38361 -6.95349,17.38361"
             inkscape:connector-curvature="0"
             style="fill:#4d4d4d;fill-opacity:1;fill-rule:nonzero" />
          <path
             id="path74"
             d="m 567.06799,347.51141 c -0.69537,20.74427 -2.78137,37.54841 -5.44683,44.84949 l -6.83759,17.3837 2.31781,1.97009 c 0.23181,-0.23184 27.35022,-17.15182 42.1842,-29.32034 l 1.73829,-1.39069 c 16.57238,-13.67502 55.51159,-45.42904 49.94885,-99.43396 l -3.12909,-0.34771 c -6.14215,17.84719 -16.22467,33.95587 -27.58191,44.03839 -10.54602,9.38717 -28.625,36.85318 -35.46252,47.28329 l -1.6225,2.54969 c -2.086,3.01303 -3.70838,4.86737 -4.98328,6.25805 0.46363,-1.27478 1.2749,-2.89731 3.01319,-4.9833 5.56274,-9.27121 8.34411,-21.67154 8.34411,-36.73728 0,-6.72171 -0.46356,-13.90695 -1.62243,-21.43979 0,-0.1159 -3.82441,-20.62848 -3.82441,-20.62848 -2.31781,-12.28442 -3.36078,-17.84717 -3.36078,-21.32385 0,-0.69537 0,-1.39069 0.11591,-1.97009 l -3.01318,-0.81128 c -2.20197,5.79455 -9.15534,28.27728 -10.77784,74.05407 z m -2.43365,46.00849 c 2.78137,-7.64884 4.98321,-24.80051 5.67853,-45.89267 1.15899,-33.26059 5.09918,-53.65732 7.99646,-64.66684 0.46362,3.59259 1.27478,8.22815 2.66546,15.18161 l 3.8244,20.51263 c 1.04309,7.53287 1.6225,14.6022 1.6225,21.09204 0,14.37039 -2.66553,26.1912 -7.76465,34.76712 -3.47668,4.05622 -4.28796,7.30109 -4.28796,9.27127 0,1.27475 0.34766,2.086 0.46356,2.20191 l 0.69532,1.7384 1.50659,-0.92715 c 0.23181,-0.11591 3.82446,-2.43378 8.80774,-9.96662 l 1.73828,-2.54956 c 6.72168,-10.31427 24.56878,-37.54849 34.88305,-46.58792 10.31421,-9.27127 19.23786,-23.75757 25.61182,-39.63458 0.11578,1.27484 0.23175,2.66549 0.23175,3.94027 0,46.12439 -34.18762,74.16989 -49.36932,86.57019 l -1.73835,1.39072 c -11.24145,9.27124 -29.55212,21.20792 -37.66436,26.42297 1.97009,-4.9833 5.09918,-12.8638 5.09918,-12.8638"
             inkscape:connector-curvature="0"
             style="fill:#4d4d4d;fill-opacity:1;fill-rule:nonzero" />
          <path
             id="path76"
             d="m 600.21265,332.21381 c 0,0 9.15533,-15.0658 17.49951,-24.91651 8.34405,-9.73474 45.31317,-53.65723 23.98932,-125.39346 0.34759,16.8042 -1.6225,26.42306 -3.3609,32.4494 -1.73835,5.91034 -19.46955,46.70386 -21.09205,57.5975 -1.73834,11.00965 -4.40387,31.52228 -8.80761,33.95588 -1.50659,-0.92704 0.34759,-4.63556 0.81115,-7.88056 0.57953,-3.36075 5.331,-31.63806 -11.8208,-61.53781 -15.52929,-26.30704 -18.42657,-28.97259 -20.74444,-38.12796 -0.3476,17.49945 6.25818,52.03488 10.89374,66.40521 4.86743,14.48639 17.61535,47.86289 12.63208,67.44831"
             inkscape:connector-curvature="0"
             style="fill:#4d4d4d;fill-opacity:1;fill-rule:nonzero" />
          <path
             id="path78"
             d="m 640.07898,181.90384 c 0,1.39068 0,2.89728 0,4.28796 0,11.00965 -1.04309,20.04907 -3.24487,27.69782 l -5.79456,14.94989 c -6.02637,14.94989 -14.25458,35.46249 -15.41351,42.87951 l -0.46357,3.129 c -0.81121,5.67865 -2.31781,15.29761 -4.17199,22.01917 0.34771,-2.31781 0.92712,-6.25806 0.92712,-12.05261 0,-12.05259 -2.31781,-30.24738 -13.21155,-49.13758 0,0 -10.77777,-17.96295 -10.77777,-17.96295 -6.25818,-10.3143 -8.11236,-13.5592 -9.73486,-19.70135 l -3.24487,0.34759 c -0.23182,18.07898 6.60577,53.07785 11.12542,66.98474 l 1.85431,5.33094 c 5.21503,15.41339 15.06574,44.15429 10.77777,61.19018 l 2.89728,1.15888 c 0.11591,-0.11591 9.15534,-15.06577 17.38361,-24.68464 29.55206,-34.76715 38.12793,-79.84851 24.22113,-126.90008 l -3.12909,0.46353 z M 609.25207,307.2973 c 4.40387,-2.43365 6.72168,-15.99286 9.03949,-31.98566 l 0.46357,-3.01318 c 1.15887,-7.18524 9.61883,-28.27728 15.1817,-42.29999 l 5.91034,-15.1817 c 1.15893,-4.05615 2.31781,-11.12546 2.89728,-20.62851 2.31781,10.3143 3.70849,20.5126 3.70849,30.47919 0,30.13147 -10.08252,58.29294 -29.89972,81.58688 -5.21502,6.14215 -10.54608,14.0228 -14.02276,19.35364 0.1159,-1.27469 0.46356,-2.31766 0.46356,-3.59247 0,-17.15185 -7.30109,-38.59161 -12.05261,-52.38251 l -1.85425,-5.33099 c -3.7085,-11.58908 -8.80768,-37.31671 -10.19836,-55.9751 1.50659,2.89725 3.36084,6.14215 6.37396,11.00965 l 10.77783,17.96295 c 10.43011,18.31067 12.63202,35.81021 12.63202,47.39917 0,6.48987 -0.69531,11.24139 -0.92706,12.97983 -0.11591,0 -0.81122,3.01318 -0.81122,3.01318 -0.23181,1.39063 -0.69538,2.66538 -0.69538,3.82425 0,1.15903 0.34766,2.20196 1.39069,2.78137 l 0.81128,0.46366 0.81115,-0.46366"
             inkscape:connector-curvature="0"
             style="fill:#4d4d4d;fill-opacity:1;fill-rule:nonzero" />
          <path
             id="path80"
             d="m 614.00366,244.02118 c 0,0 5.21497,-23.29395 11.7049,-41.95236 6.48986,-18.65839 18.77429,-61.88553 -16.68824,-105.923823 7.64875,17.615323 5.09925,29.320223 5.21503,31.290343 0,1.97021 -3.47668,41.72054 -3.24487,51.57131 0.1159,12.63205 3.01318,34.30353 3.01318,34.30353 0,0 -0.81128,2.66547 -2.54968,0.11591 -1.15887,-1.73841 -4.05615,-29.78385 -21.32385,-46.12442 -16.10877,-15.18158 -29.08844,-26.65476 -32.68103,-33.14466 0.23175,11.58908 7.30102,28.16138 12.86377,37.31671 5.5628,9.03943 28.39319,38.93918 33.72418,49.0217 5.21503,10.08249 9.96661,22.1351 9.96661,23.52576"
             inkscape:connector-curvature="0"
             style="fill:#4d4d4d;fill-opacity:1;fill-rule:nonzero" />
          <path
             id="path82"
             d="m 607.51373,96.84034 c 4.63562,10.31421 5.44684,18.54239 5.44684,23.87341 0,2.31781 -0.11591,4.05612 -0.23169,5.21509 l -0.92718,11.58898 -2.43372,41.48883 c 0,0 1.85431,21.09204 2.66553,30.24738 -1.97022,-8.92362 -6.60578,-29.66794 -20.86029,-42.9953 0,-0.11594 -8.80774,-8.46012 -8.80774,-8.46012 -11.58899,-10.89364 -20.74433,-19.46954 -23.5257,-24.45285 l -3.01318,0.81125 c 0.23181,11.35727 6.95343,28.04547 13.09558,38.12796 l 13.21161,19.00602 c 8.22815,11.24136 17.38348,24.10522 20.39666,29.89978 5.44684,10.3142 9.73481,21.67147 9.85071,22.94632 l 3.24488,0.23172 c 0,-0.23172 5.21508,-23.40986 11.58905,-41.83646 14.02276,-39.86624 8.34411,-76.02407 -17.03589,-107.430412 l -2.66547,1.738403 z m 5.67865,119.25121 c 1.6225,-0.23181 2.20197,-1.97012 2.31781,-2.31784 0,0 0,0 0,0 0,-1.27478 -3.01312,-34.76706 -3.01312,-34.76706 l 2.54956,-41.14111 0.69531,-10.4302 c 0.11591,-1.73831 0.34772,-3.94025 0.34772,-6.60568 0,-3.82443 -0.81122,-9.15534 -2.31781,-14.94989 11.58905,17.15179 17.7312,35.69421 17.7312,55.62737 0,12.86386 -2.43371,26.19126 -7.30108,39.98224 -4.63562,13.32739 -8.57593,28.85672 -10.43012,36.73728 -1.97015,-5.09922 -5.09924,-12.40033 -8.34412,-18.54248 -3.24499,-6.02628 -12.51611,-18.89014 -20.62854,-30.24738 l -13.09558,-18.89023 c -5.09918,-8.22818 -10.31427,-20.86023 -12.05255,-31.17444 4.28784,5.21503 10.89362,11.7049 20.51258,20.86023 l 8.92352,8.22818 c 13.5592,12.86386 17.96307,33.02884 19.81726,41.60477 l 1.15887,4.17203 c 0.92719,1.39068 1.97022,1.97012 3.12909,1.85422"
             inkscape:connector-curvature="0"
             style="fill:#4d4d4d;fill-opacity:1;fill-rule:nonzero" />
          <path
             id="path84"
             d="m 602.29864,165.56338 c 0,0 -2.66546,-6.25817 -0.92706,-31.98577 1.73834,-25.84362 1.97016,-60.958401 -38.35974,-83.672939 10.31421,16.572266 11.93671,19.469536 15.29749,33.028748 3.36078,13.443298 7.30114,35.114871 12.97979,47.283291 2.31781,6.02633 3.94019,10.66192 2.89728,11.24145 -1.04309,0.69534 -1.50659,-0.46362 -2.31787,-2.43375 -0.81122,-2.08602 -9.50305,-20.28078 -26.07532,-31.52214 -16.80413,-11.357273 -31.86987,-22.714542 -37.66443,-34.071811 2.78138,21.323853 11.12549,28.740781 19.46967,39.286801 9.03943,11.47318 41.2569,35.11486 46.81964,42.87951 5.67865,7.88049 7.88055,9.96662 7.88055,9.96662"
             inkscape:connector-curvature="0"
             style="fill:#4d4d4d;fill-opacity:1;fill-rule:nonzero" />
          <path
             id="path86"
             d="m 561.62116,50.831829 c 10.43011,16.688168 11.9367,19.353634 15.18158,32.449314 l 2.43377,10.661919 c 2.89728,12.863858 6.14215,27.466038 10.54602,36.968988 0.23182,0.57953 0.69532,1.73837 1.04303,2.66556 -3.70849,-6.72171 -11.47314,-18.89022 -24.22113,-27.46603 C 550.72742,95.449655 535.19812,83.860574 529.51947,72.735124 l -3.01318,0.927055 c 2.54962,18.890205 9.27124,27.118411 16.57239,35.926111 l 3.24487,4.05613 c 4.86737,6.25808 15.99292,15.52932 26.53894,24.56874 9.15533,7.64875 17.73126,14.83399 20.28082,18.42658 l 8.11237,10.08249 2.54956,-1.85419 c -0.11591,0 -2.54956,-6.4899 -0.81122,-31.17456 1.39063,-21.32384 4.05621,-60.842551 -39.17096,-85.1795 l -2.2019,2.317848 z m 33.37646,91.901111 c 0.69531,-0.34772 1.04297,-1.04306 1.04297,-2.08603 0,-1.85431 -1.04297,-5.09921 -3.24493,-11.00964 -4.28791,-9.15533 -7.64875,-24.33694 -10.43018,-36.389551 L 579.81592,82.469887 C 577.03455,71.112618 575.06445,66.708748 568.8064,56.27863 c 25.49585,17.61536 31.52215,40.56171 31.52215,62.92853 0,4.86737 -0.23181,9.61886 -0.46356,14.25451 -0.46362,6.4899 -0.57941,11.7049 -0.57941,15.87695 0,4.63568 0.11579,7.76465 0.46351,10.3143 -1.9701,-2.43374 -3.94031,-4.8674 -3.94031,-4.8674 -2.78137,-3.8244 -11.12549,-10.8937 -20.86023,-19.00601 -10.08252,-8.45998 -21.43976,-18.07894 -26.19129,-23.9894 l -3.24487,-4.17203 c -6.02637,-7.41696 -11.24145,-14.254462 -14.25452,-26.77069 7.06934,8.923637 18.54242,17.847137 33.60816,27.92966 17.15179,11.70489 25.49591,30.7109 25.61181,30.8268 0.69538,1.85431 1.15888,3.12909 2.43378,3.47672 l 0.69531,0.34771 1.39069,-0.69534"
             inkscape:connector-curvature="0"
             style="fill:#4d4d4d;fill-opacity:1;fill-rule:nonzero" />
          <path
             id="path88"
             d="m 570.89239,98.11512 c 0,0 -5.79455,-27.002502 -16.68829,-42.879551 C 543.54218,39.35865 521.52301,25.68354 498.57669,19.193661 c 8.11231,6.48988 13.09561,12.400339 15.99289,17.151798 2.89728,4.751499 20.86035,31.290443 28.97259,39.63456 8.22828,8.459991 21.43976,15.761108 27.35022,22.135101"
             inkscape:connector-curvature="0"
             style="fill:#4d4d4d;fill-opacity:1;fill-rule:nonzero" />
          <path
             id="path90"
             d="m 497.53369,20.468439 c 8.80768,6.837601 13.32739,12.86384 15.6452,16.688272 2.78138,4.63559 20.86036,31.406345 29.32032,39.982182 0,0 15.52936,12.632133 15.52936,12.632133 l 11.8208,9.387032 2.66546,-1.390656 c -0.23175,-1.158875 -6.0263,-27.466034 -16.92004,-43.458893 -10.77783,-15.761108 -32.44928,-29.78385 -56.55454,-36.62145 l -1.50656,2.78137 0,10e-6 z m 62.34906,66.752943 -15.18158,-12.400246 c -8.11237,-8.228264 -26.07544,-34.998955 -28.74091,-39.286915 -2.43365,-3.940222 -6.14215,-7.996462 -10.43014,-12.168512 20.39676,7.3011 38.24387,19.237841 47.3992,32.797022 7.88055,11.589077 13.21149,29.436146 15.29755,37.780331 -3.47675,-2.897285 -8.34412,-6.72168 -8.34412,-6.72168"
             inkscape:connector-curvature="0"
             style="fill:#4d4d4d;fill-opacity:1;fill-rule:nonzero" />
        </g>
      </g>
    </g>
  </g>
</svg>
