<?xml version="1.0" encoding="UTF-8" standalone="no"?>
<!-- Created with Inkscape (http://www.inkscape.org/) -->

<svg
   xmlns:dc="http://purl.org/dc/elements/1.1/"
   xmlns:cc="http://creativecommons.org/ns#"
   xmlns:rdf="http://www.w3.org/1999/02/22-rdf-syntax-ns#"
   xmlns:svg="http://www.w3.org/2000/svg"
   xmlns="http://www.w3.org/2000/svg"
   xmlns:sodipodi="http://sodipodi.sourceforge.net/DTD/sodipodi-0.dtd"
   xmlns:inkscape="http://www.inkscape.org/namespaces/inkscape"
   width="256"
   height="256"
   id="svg7252"
   version="1.1"
   inkscape:version="0.91 r13725"
   sodipodi:docname="mail-folder-all.svg">
  <defs
     id="defs7254" />
  <sodipodi:namedview
     id="base"
     pagecolor="#ffffff"
     bordercolor="#666666"
     borderopacity="1.0"
     inkscape:pageopacity="0.0"
     inkscape:pageshadow="2"
     inkscape:zoom="2.0976562"
     inkscape:cx="64.834263"
     inkscape:cy="128"
     inkscape:document-units="px"
     inkscape:current-layer="layer1"
     showgrid="false"
     inkscape:window-width="1920"
     inkscape:window-height="1005"
     inkscape:window-x="-4"
     inkscape:window-y="33"
     inkscape:window-maximized="1" />
  <metadata
     id="metadata7257">
    <rdf:RDF>
      <cc:Work
         rdf:about="">
        <dc:format>image/svg+xml</dc:format>
        <dc:type
           rdf:resource="http://purl.org/dc/dcmitype/StillImage" />
        <dc:title />
      </cc:Work>
    </rdf:RDF>
  </metadata>
  <g
     inkscape:label="Layer 1"
     inkscape:groupmode="layer"
     id="layer1"
     transform="translate(0,-796.36218)">
    <path
       style="fill:#008080;fill-opacity:1;fill-rule:nonzero;stroke:none"
       d="M 50.84375 58 C 43.720893 58 38 62.46 38 68 L 38 73.3125 A 3.0003 3.0003 0 0 1 39.84375 73.9375 L 128 142.5 L 216.15625 73.9375 A 3.0003 3.0003 0 0 1 218 73.3125 L 218 68 C 218 62.46 212.27911 58 205.15625 58 L 50.84375 58 z M 38 81.78125 L 38 188 C 38 193.54 43.720893 198 50.84375 198 L 205.15625 198 C 212.27911 198 218 193.54 218 188 L 218 81.78125 L 129.84375 150.34375 A 3.0003 3.0003 0 0 1 126.15625 150.34375 L 38 81.78125 z "
       transform="translate(0,796.36218)"
       id="rect2419" />
  </g>
</svg>
