<?xml version="1.0" encoding="UTF-8" standalone="no"?>
<!-- Created with Inkscape (http://www.inkscape.org/) -->

<svg
   xmlns:dc="http://purl.org/dc/elements/1.1/"
   xmlns:cc="http://creativecommons.org/ns#"
   xmlns:rdf="http://www.w3.org/1999/02/22-rdf-syntax-ns#"
   xmlns:svg="http://www.w3.org/2000/svg"
   xmlns="http://www.w3.org/2000/svg"
   xmlns:xlink="http://www.w3.org/1999/xlink"
   xmlns:sodipodi="http://sodipodi.sourceforge.net/DTD/sodipodi-0.dtd"
   xmlns:inkscape="http://www.inkscape.org/namespaces/inkscape"
   height="22"
   id="svg4538"
   inkscape:export-filename="/home/oleg/.kde/share/icons/K-Hi-Lights/places/128/network-server.png"
   inkscape:export-xdpi="45"
   inkscape:export-ydpi="45"
   inkscape:output_extension="org.inkscape.output.svg.inkscape"
   inkscape:version="0.48.5 r10040"
   sodipodi:docname="network-server.svg"
   sodipodi:version="0.32"
   version="1.0"
   width="22">
  <metadata
     id="metadata3">
    <rdf:RDF>
      <cc:Work
         rdf:about="">
        <dc:title />
        <dc:description />
        <dc:subject>
          <rdf:Bag>
            <rdf:li>unsorted</rdf:li>
          </rdf:Bag>
        </dc:subject>
        <dc:publisher>
          <cc:Agent
             rdf:about="http://www.openclipart.org/">
            <dc:title>Open Clip Art Library, Source: Oxygen Icons, Source: Oxygen Icons, Source: Oxygen Icons, Source: Oxygen Icons</dc:title>
          </cc:Agent>
        </dc:publisher>
        <dc:creator>
          <cc:Agent>
            <dc:title />
          </cc:Agent>
        </dc:creator>
        <dc:rights>
          <cc:Agent>
            <dc:title />
          </cc:Agent>
        </dc:rights>
        <dc:date />
        <dc:format>image/svg+xml</dc:format>
        <dc:type
           rdf:resource="http://purl.org/dc/dcmitype/StillImage" />
        <cc:license
           rdf:resource="http://creativecommons.org/licenses/by-sa/3.0/ or http://creativecommons.org/licenses/LGPL/2.1/" />
        <dc:language>en</dc:language>
      </cc:Work>
    </rdf:RDF>
  </metadata>
  <defs
     id="defs4540">
    <linearGradient
       id="linearGradient3722">
      <stop
         id="stop3724"
         offset="0"
         style="stop-color:#ececec;stop-opacity:1;" />
      <stop
         id="stop3726"
         offset="1"
         style="stop-color:#404040;stop-opacity:1;" />
    </linearGradient>
    <linearGradient
       inkscape:collect="always"
       xlink:href="#linearGradient3722"
       id="linearGradient7299"
       gradientUnits="userSpaceOnUse"
       gradientTransform="matrix(0.84219733,0,0,0.84219733,-23.701035,-47.053806)"
       x1="88.188385"
       y1="74.379738"
       x2="47.238132"
       y2="118.57565" />
    <linearGradient
       inkscape:collect="always"
       xlink:href="#linearGradient3722"
       id="linearGradient3445"
       gradientUnits="userSpaceOnUse"
       gradientTransform="matrix(0.84219733,0,0,0.84219733,-23.701035,-47.053806)"
       x1="88.188385"
       y1="74.379738"
       x2="47.238132"
       y2="118.57565" />
    <linearGradient
       inkscape:collect="always"
       xlink:href="#linearGradient3722"
       id="linearGradient3677"
       gradientUnits="userSpaceOnUse"
       gradientTransform="matrix(1.5229179,0,0,1.5229179,-0.7608926,-155.58328)"
       x1="88.188385"
       y1="74.379738"
       x2="47.238132"
       y2="118.57565" />
  </defs>
  <sodipodi:namedview
     bordercolor="#666666"
     borderopacity="1.0"
     id="base"
     inkscape:current-layer="layer1"
     inkscape:cx="4.3377358"
     inkscape:cy="11"
     inkscape:document-units="px"
     inkscape:grid-bbox="true"
     inkscape:pageopacity="0.0"
     inkscape:pageshadow="2"
     inkscape:window-height="1022"
     inkscape:window-width="1920"
     inkscape:window-x="-4"
     inkscape:window-y="42"
     inkscape:zoom="24.090909"
     pagecolor="#ffffff"
     showgrid="true"
     fit-margin-top="0"
     fit-margin-left="0"
     fit-margin-right="0"
     fit-margin-bottom="0"
     inkscape:window-maximized="1"
     inkscape:snap-bbox="true"
     inkscape:bbox-paths="true"
     inkscape:bbox-nodes="true"
     inkscape:snap-bbox-edge-midpoints="true"
     inkscape:snap-bbox-midpoints="true"
     inkscape:object-paths="true"
     inkscape:snap-intersection-paths="true"
     inkscape:object-nodes="true"
     inkscape:snap-smooth-nodes="true"
     inkscape:snap-midpoints="true"
     inkscape:snap-object-midpoints="true"
     inkscape:snap-center="true"
     inkscape:snap-page="true">
    <inkscape:grid
       id="GridFromPre046Settings"
       type="xygrid"
       originx="0px"
       originy="0px"
       spacingx="4px"
       spacingy="4px"
       color="#0000ff"
       empcolor="#0000ff"
       opacity="0.2"
       empopacity="0.4"
       empspacing="2"
       visible="true"
       enabled="false"
       snapvisiblegridlinesonly="true" />
  </sodipodi:namedview>
  <g
     id="layer1"
     inkscape:groupmode="layer"
     inkscape:label="Layer 1"
     transform="translate(18.6875,-77.625)">
    <path
       style="fill:#4682b4;fill-opacity:1;stroke:none"
       d="m -12.277467,79.625 c -0.249239,0 -0.450004,0.127216 -0.450004,0.284065 l 0,12.57199 c 0,0.156849 0.200765,0.284065 0.450004,0.284065 l 3.8756606,0 c -0.1037559,0 -0.1856267,0.0024 -0.1856267,0.0056 l 0,1.788766 c 0,0.0033 0.081871,0.0055 0.1856267,0.0055 l -2.2106456,0 c -0.174397,0 -0.315003,0.141436 -0.315003,0.317815 l 0,0.306566 -4.019099,0 c -0.06747,0 -0.120946,0.06471 -0.120946,0.143431 l 0,1.524389 c 0,0.07874 0.05348,0.143431 0.120946,0.143431 l 4.019099,0 0,0.306566 c 0,0.176385 0.140612,0.317815 0.315003,0.317815 l 5.850054,0 c 0.1743976,0 0.3150029,-0.141436 0.3150029,-0.317815 l 0,-0.306566 4.01909929,0 c 0.0674706,0 0.12094611,-0.06471 0.12094611,-0.143431 l 0,-1.524389 c 0,-0.07874 -0.0534755,-0.143431 -0.12094611,-0.143431 l -4.01909929,0 0,-0.306566 c 0,-0.176385 -0.1406113,-0.317815 -0.3150029,-0.317815 l -2.2134578,0 c 0.1037559,0 0.1884392,-0.0024 0.1884392,-0.0055 l 0,-1.788766 c 0,-0.0033 -0.084676,-0.0056 -0.1884392,-0.0056 l 3.878473,0 c 0.2492393,0 0.4500042,-0.127216 0.4500042,-0.284065 l 0,-12.57199 c 0,-0.156849 -0.2007649,-0.284065 -0.4500042,-0.284065 l -9.1800842,0 z m 1.310637,1.440013 6.5588102,0 c 0.1780276,0 0.320628,0.09972 0.320628,0.22219 l 0,9.815715 c 0,0.122476 -0.1426064,0.222189 -0.320628,0.222189 l -6.5588102,0 c -0.178028,0 -0.320628,-0.09972 -0.320628,-0.222189 l 0,-9.815715 c 0,-0.122476 0.142606,-0.22219 0.320628,-0.22219 z"
       id="rect2175"
       inkscape:connector-curvature="0" />
    <path
       style="fill:#000000;fill-opacity:0.39215687;stroke:none"
       d="M 6.40625 2 C 6.157011 2 5.96875 2.124401 5.96875 2.28125 L 5.96875 14.84375 C 5.96875 15.000599 6.157011 15.125 6.40625 15.125 L 6.65625 15.125 L 6.65625 2.96875 C 6.65625 2.811901 6.875761 2.6875 7.125 2.6875 L 16.03125 2.6875 L 16.03125 2.28125 C 16.03125 2.124401 15.842989 2 15.59375 2 L 6.40625 2 z M 14.59375 4.125 L 14.59375 13.46875 C 14.59375 13.591226 14.459272 13.6875 14.28125 13.6875 L 8.09375 13.6875 L 8.09375 14.1875 C 8.09375 14.309969 8.228222 14.40625 8.40625 14.40625 L 14.96875 14.40625 C 15.146772 14.40625 15.3125 14.309976 15.3125 14.1875 L 15.3125 4.375 C 15.3125 4.25253 15.146778 4.125 14.96875 4.125 L 14.59375 4.125 z M 10.09375 15.84375 L 10.09375 16.9375 L 8.0625 16.9375 C 7.888103 16.9375 7.75 17.073621 7.75 17.25 L 7.75 17.5625 L 3.75 17.5625 C 3.68253 17.5625 3.625 17.640029 3.625 17.71875 L 3.625 19.21875 C 3.625 19.29749 3.682534 19.375 3.75 19.375 L 4.3125 19.375 L 4.3125 18.40625 C 4.3125 18.327529 4.37003 18.25 4.4375 18.25 L 8.46875 18.25 L 8.46875 17.96875 C 8.46875 17.792371 8.606853 17.625 8.78125 17.625 L 10.8125 17.625 L 10.8125 15.84375 L 10.09375 15.84375 z M 12.59375 16.9375 L 12.59375 17.625 L 14.625 17.625 C 14.799392 17.625 14.9375 17.792365 14.9375 17.96875 L 14.9375 18.25 L 18.375 18.25 L 18.375 17.71875 C 18.375 17.64001 18.317471 17.5625 18.25 17.5625 L 14.25 17.5625 L 14.25 17.25 C 14.25 17.073615 14.111892 16.9375 13.9375 16.9375 L 12.59375 16.9375 z "
       id="path3759"
       transform="translate(-18.6875,77.625)" />
  </g>
</svg>
