<?xml version="1.0" encoding="UTF-8" standalone="no"?>
<!-- Created with Inkscape (http://www.inkscape.org/) -->

<svg
   xmlns:dc="http://purl.org/dc/elements/1.1/"
   xmlns:cc="http://creativecommons.org/ns#"
   xmlns:rdf="http://www.w3.org/1999/02/22-rdf-syntax-ns#"
   xmlns:svg="http://www.w3.org/2000/svg"
   xmlns="http://www.w3.org/2000/svg"
   xmlns:sodipodi="http://sodipodi.sourceforge.net/DTD/sodipodi-0.dtd"
   xmlns:inkscape="http://www.inkscape.org/namespaces/inkscape"
   width="51.200001"
   height="51.200001"
   id="svg2"
   version="1.1"
   inkscape:version="0.92.1 r"
   viewBox="0 0 13.546666 13.546668"
   sodipodi:docname="applications-accessories.svg">
  <defs
     id="defs4">
    <inkscape:perspective
       sodipodi:type="inkscape:persp3d"
       inkscape:vp_x="0 : 24 : 1"
       inkscape:vp_y="0 : 999.99999 : 0"
       inkscape:vp_z="47.999999 : 24 : 1"
       inkscape:persp3d-origin="24 : 16 : 1"
       id="perspective3173" />
  </defs>
  <sodipodi:namedview
     id="base"
     pagecolor="#ffffff"
     bordercolor="#666666"
     borderopacity="1.0"
     inkscape:pageopacity="0"
     inkscape:pageshadow="2"
     inkscape:zoom="5.6568543"
     inkscape:cx="-42.111493"
     inkscape:cy="31.092727"
     inkscape:document-units="px"
     inkscape:current-layer="layer1-3"
     showgrid="false"
     inkscape:showpageshadow="false"
     borderlayer="true"
     units="px"
     fit-margin-top="0"
     fit-margin-left="0"
     fit-margin-right="0"
     fit-margin-bottom="0"
     showguides="true"
     inkscape:window-width="3840"
     inkscape:window-height="2082"
     inkscape:window-x="0"
     inkscape:window-y="49"
     inkscape:window-maximized="1">
    <sodipodi:guide
       position="-6.6748424e-06,47.999998"
       orientation="47.999977,0"
       id="guide4120"
       inkscape:locked="false" />
    <sodipodi:guide
       position="-6.6748424e-06,2.2810037e-05"
       orientation="0,48.000004"
       id="guide4122"
       inkscape:locked="false" />
    <sodipodi:guide
       position="47.999996,2.2810037e-05"
       orientation="-47.999977,0"
       id="guide4124"
       inkscape:locked="false" />
    <sodipodi:guide
       position="47.999996,47.999998"
       orientation="0,-48.000004"
       id="guide4126"
       inkscape:locked="false" />
    <sodipodi:guide
       position="3.9999732,44.000153"
       orientation="39.999962,0"
       id="guide4138"
       inkscape:locked="false" />
    <sodipodi:guide
       position="3.9999732,4.000192"
       orientation="0,40.000003"
       id="guide4140"
       inkscape:locked="false" />
    <sodipodi:guide
       position="43.999975,4.000192"
       orientation="-39.999962,0"
       id="guide4142"
       inkscape:locked="false" />
    <sodipodi:guide
       position="43.999975,44.000153"
       orientation="0,-40.000003"
       id="guide4144"
       inkscape:locked="false" />
    <sodipodi:guide
       position="40.999997,47.999998"
       orientation="0,-34.000006"
       id="guide4154"
       inkscape:locked="false" />
    <sodipodi:guide
       position="1.9999969,4.0000838"
       orientation="0,44.000003"
       id="guide3281"
       inkscape:locked="false" />
    <sodipodi:guide
       position="45.999999,44.000045"
       orientation="0,-44.000003"
       id="guide3285"
       inkscape:locked="false" />
  </sodipodi:namedview>
  <metadata
     id="metadata7">
    <rdf:RDF>
      <cc:Work
         rdf:about="">
        <dc:format>image/svg+xml</dc:format>
        <dc:type
           rdf:resource="http://purl.org/dc/dcmitype/StillImage" />
        <dc:title />
      </cc:Work>
    </rdf:RDF>
  </metadata>
  <g
     inkscape:label="Capa 1"
     inkscape:groupmode="layer"
     id="layer1"
     transform="translate(38.119153,-397.84494)">
    <g
       id="g3120"
       transform="matrix(0.28222225,0,0,0.28222225,-38.076192,397.93651)">
      <g
         transform="matrix(0.99297771,0,0,0.99765924,-361.33887,-433.51974)"
         id="layer1-3"
         inkscape:label="Capa 1">
        <text
           id="text3160"
           y="716.64789"
           x="-288.57144"
           style="font-style:normal;font-variant:normal;font-weight:normal;font-stretch:normal;line-height:0%;font-family:'DejaVu Sans';-inkscape-font-specification:'DejaVu Sans';letter-spacing:0px;word-spacing:0px;fill:#000000;fill-opacity:1;stroke:none"
           xml:space="preserve"><tspan
             y="716.64789"
             x="-288.57144"
             id="tspan3162"
             sodipodi:role="line"
             style="font-size:40px;line-height:1.25"> </tspan></text>
        <path
           style="fill:none;stroke:#27ae60;stroke-width:0.07305183;stroke-miterlimit:4;stroke-dasharray:none;stroke-opacity:1"
           d="M 398.77387,471.55841 V 470.4735"
           id="path4303-5"
           inkscape:connector-curvature="0" />
        <path
           style="fill:none;stroke:#27ae60;stroke-width:0.07305183;stroke-miterlimit:4;stroke-dasharray:none;stroke-opacity:1"
           d="M 400.19088,471.55841 V 470.4735"
           id="path4303-8"
           inkscape:connector-curvature="0" />
        <path
           style="fill:none;stroke:#27ae60;stroke-width:0.07305183;stroke-miterlimit:4;stroke-dasharray:none;stroke-opacity:1"
           d="M 401.60791,471.55841 V 470.4735"
           id="path4303-84"
           inkscape:connector-curvature="0" />
        <path
           style="fill:none;stroke:#27ae60;stroke-width:0.07305183;stroke-miterlimit:4;stroke-dasharray:none;stroke-opacity:1"
           d="M 403.02492,471.55841 V 470.4735"
           id="path4303-2-4-9-9-8"
           inkscape:connector-curvature="0" />
        <path
           style="fill:none;stroke:#27ae60;stroke-width:0.07305183;stroke-miterlimit:4;stroke-dasharray:none;stroke-opacity:1"
           d="M 386.02074,471.55841 V 470.4735"
           id="path4303-2"
           inkscape:connector-curvature="0" />
        <path
           style="fill:none;stroke:#27ae60;stroke-width:0.07305183;stroke-miterlimit:4;stroke-dasharray:none;stroke-opacity:1"
           d="M 384.60372,471.55841 V 470.4735"
           id="path4303-2-4"
           inkscape:connector-curvature="0" />
        <path
           style="fill:none;stroke:#27ae60;stroke-width:0.07305183;stroke-miterlimit:4;stroke-dasharray:none;stroke-opacity:1"
           d="M 383.1867,471.55841 V 470.4735"
           id="path4303-2-4-9"
           inkscape:connector-curvature="0" />
        <path
           style="fill:#30a461;fill-opacity:1;stroke:none"
           d="m 367.76935,448.03372 v 23.57689 h 40.28287 z m 6.11103,10.83996 10.90706,6.3824 -10.90706,0.0837 z"
           id="path3035"
           inkscape:connector-curvature="0" />
        <path
           style="fill:none;stroke:#27ae60;stroke-width:0.07305183;stroke-miterlimit:4;stroke-dasharray:none;stroke-opacity:1"
           d="M 381.76969,471.55841 V 470.4735"
           id="path4303-2-4-9-9"
           inkscape:connector-curvature="0" />
        <path
           style="fill:none;stroke:#27ae60;stroke-width:0.07305183;stroke-miterlimit:4;stroke-dasharray:none;stroke-opacity:1"
           d="M 395.93984,471.55841 V 470.4735"
           id="path4303"
           inkscape:connector-curvature="0" />
        <path
           style="fill:none;stroke:#27ae60;stroke-width:0.07305183;stroke-miterlimit:4;stroke-dasharray:none;stroke-opacity:1"
           d="M 394.52283,471.55841 V 470.4735"
           id="path4303-4"
           inkscape:connector-curvature="0" />
        <path
           style="fill:none;stroke:#27ae60;stroke-width:0.07305183;stroke-miterlimit:4;stroke-dasharray:none;stroke-opacity:1"
           d="M 397.35686,471.55841 V 470.4735"
           id="path4303-3"
           inkscape:connector-curvature="0" />
        <path
           style="fill:none;stroke:#27ae60;stroke-width:0.07305183;stroke-miterlimit:4;stroke-dasharray:none;stroke-opacity:1"
           d="M 393.10581,471.55841 V 470.4735"
           id="path4303-33"
           inkscape:connector-curvature="0" />
        <path
           style="fill:none;stroke:#27ae60;stroke-width:0.07305183;stroke-miterlimit:4;stroke-dasharray:none;stroke-opacity:1"
           d="M 391.68879,471.55841 V 470.4735"
           id="path4303-337"
           inkscape:connector-curvature="0" />
        <path
           style="fill:none;stroke:#27ae60;stroke-width:0.07305183;stroke-miterlimit:4;stroke-dasharray:none;stroke-opacity:1"
           d="M 390.27178,471.55841 V 470.4735"
           id="path4303-80"
           inkscape:connector-curvature="0" />
        <path
           style="fill:none;stroke:#27ae60;stroke-width:0.07305183;stroke-miterlimit:4;stroke-dasharray:none;stroke-opacity:1"
           d="M 388.85477,471.55841 V 470.4735"
           id="path4303-1"
           inkscape:connector-curvature="0" />
        <path
           style="fill:none;stroke:#27ae60;stroke-width:0.07305183;stroke-miterlimit:4;stroke-dasharray:none;stroke-opacity:1"
           d="M 380.35267,471.55841 V 470.4735"
           id="path4303-2-4-9-9-5"
           inkscape:connector-curvature="0" />
        <path
           style="fill:none;stroke:#27ae60;stroke-width:0.07305183;stroke-miterlimit:4;stroke-dasharray:none;stroke-opacity:1"
           d="M 378.93566,471.55841 V 470.4735"
           id="path4303-2-4-9-9-0"
           inkscape:connector-curvature="0" />
        <path
           style="fill:none;stroke:#27ae60;stroke-width:0.07305183;stroke-miterlimit:4;stroke-dasharray:none;stroke-opacity:1"
           d="M 377.51864,471.55841 V 470.4735"
           id="path4303-2-4-9-9-09"
           inkscape:connector-curvature="0" />
        <path
           style="fill:none;stroke:#27ae60;stroke-width:0.07305183;stroke-miterlimit:4;stroke-dasharray:none;stroke-opacity:1"
           d="M 376.10163,471.55841 V 470.4735"
           id="path4303-2-4-9-9-2"
           inkscape:connector-curvature="0" />
        <path
           style="fill:none;stroke:#27ae60;stroke-width:0.07305183;stroke-miterlimit:4;stroke-dasharray:none;stroke-opacity:1"
           d="M 374.68462,471.55841 V 470.4735"
           id="path4303-2-4-9-9-9"
           inkscape:connector-curvature="0" />
        <path
           style="fill:none;stroke:#27ae60;stroke-width:0.07305183;stroke-miterlimit:4;stroke-dasharray:none;stroke-opacity:1"
           d="M 373.2676,471.55841 V 470.4735"
           id="path4303-2-4-9-9-52"
           inkscape:connector-curvature="0" />
        <path
           style="fill:none;stroke:#27ae60;stroke-width:0.07305183;stroke-miterlimit:4;stroke-dasharray:none;stroke-opacity:1"
           d="M 371.85058,471.55841 V 470.4735"
           id="path4303-2-4-9-9-6"
           inkscape:connector-curvature="0" />
        <path
           style="fill:none;stroke:#27ae60;stroke-width:0.07305183;stroke-miterlimit:4;stroke-dasharray:none;stroke-opacity:1"
           d="M 370.43357,471.55841 V 470.4735"
           id="path4303-2-4-9-9-4"
           inkscape:connector-curvature="0" />
        <path
           style="fill:none;stroke:#27ae60;stroke-width:0.07305183;stroke-miterlimit:4;stroke-dasharray:none;stroke-opacity:1"
           d="M 369.01656,471.55841 V 470.4735"
           id="path4303-2-4-9-9-44"
           inkscape:connector-curvature="0" />
        <path
           style="fill:none;stroke:#27ae60;stroke-width:0.07305183;stroke-miterlimit:4;stroke-dasharray:none;stroke-opacity:1"
           d="M 404.44193,471.55841 V 470.4735"
           id="path4303-2-4-9-9-97"
           inkscape:connector-curvature="0" />
        <path
           style="fill:none;stroke:#27ae60;stroke-width:0.07305183;stroke-miterlimit:4;stroke-dasharray:none;stroke-opacity:1"
           d="M 387.43774,471.55841 V 470.4735"
           id="path4303-1-6"
           inkscape:connector-curvature="0" />
        <g
           transform="matrix(0.2367027,0,0,0.23559194,357.77579,428.11177)"
           style="stroke:#385470;stroke-opacity:1"
           id="g4">
          <path
             inkscape:connector-curvature="0"
             style="fill:none;stroke:#385470;stroke-width:1.27499998;stroke-opacity:1"
             d="m 29.722412,1027.7433 c -3.602051,0.1956 -6.46875,3.397 -6.46875,7.3059 0,4.0349 3.054199,7.3059 6.81958,7.3059 3.765381,0 6.81958,-3.271 6.81958,-7.3059 0,-4.0349 -3.054199,-7.3059 -6.81958,-7.3059 -0.11792,0 -0.234375,-0.01 -0.35083,0 z"
             transform="matrix(5.33333,0,0,5.33333,0,-5356.5984)"
             id="path6" />
          <g
             style="fill:#6890b8;stroke:#385470;stroke-width:0.82999998;stroke-opacity:1"
             id="g8">
            <path
               inkscape:connector-curvature="0"
               d="m 175.19901,1002.2498 h 2.85157 c 0.16285,0 0.29335,0.4982 0.29335,1.1179 v 3.4027 c 0,0.6176 -0.1305,1.1158 -0.29335,1.1158 h -2.85157 c -0.16177,0 -0.29227,-0.4982 -0.29227,-1.1158 v -3.4027 c 0,-0.6197 0.1305,-1.1179 0.29227,-1.1179 z"
               transform="matrix(3.62192,0,0,1.83445,-479.32635,-1723.346)"
               id="path10"
               style="stroke:#385470;stroke-opacity:1" />
            <path
               inkscape:connector-curvature="0"
               d="m 175.19901,1049.3772 h 2.85157 c 0.16285,0 0.29335,0.4983 0.29335,1.1158 v 3.4028 c 0,0.6196 -0.1305,1.1179 -0.29335,1.1179 h -2.85157 c -0.16177,0 -0.29227,-0.4983 -0.29227,-1.1179 v -3.4028 c 0,-0.6175 0.1305,-1.1158 0.29227,-1.1158 z"
               transform="matrix(3.62192,0,0,1.83445,-479.32635,-1723.346)"
               id="path12"
               style="stroke:#385470;stroke-opacity:1" />
            <path
               inkscape:connector-curvature="0"
               d="m 180.87547,24.250078 c 0,1.518943 -1.23209,2.749767 -2.75103,2.749767 -1.51768,0 -2.74977,-1.230824 -2.74977,-2.749767 0,-1.518943 1.23209,-2.749767 2.74977,-2.749767 1.51894,0 2.75103,1.230824 2.75103,2.749767 z"
               transform="matrix(3.09117,0,0,3.09117,-390.22243,88.69121)"
               id="path14"
               style="stroke:#385470;stroke-opacity:1" />
            <path
               inkscape:connector-curvature="0"
               d="m 46.371906,1027.0892 v 2.5537 c 0,0.1456 -0.446331,0.2626 -0.999476,0.2626 H 42.3225 c -0.553146,0 -0.999477,-0.117 -0.999477,-0.2626 v -2.5537 c 0,-0.1457 0.446331,-0.2626 0.999477,-0.2626 h 3.04993 c 0.553145,0 0.999476,0.1169 0.999476,0.2626 z"
               transform="matrix(2.04795,0,0,4.20965,111.23984,-4165.3965)"
               id="path16"
               style="stroke:#385470;stroke-opacity:1" />
            <path
               inkscape:connector-curvature="0"
               d="m 6.67704,1027.0892 v 2.5537 c 0,0.1456 -0.446331,0.2626 -0.999476,0.2626 h -3.04993 c -0.553146,0 -0.999477,-0.117 -0.999477,-0.2626 v -2.5537 c 0,-0.1457 0.446331,-0.2626 0.999477,-0.2626 h 3.04993 c 0.553145,0 0.999476,0.1169 0.999476,0.2626 z"
               transform="matrix(2.04795,0,0,4.20965,111.23984,-4165.3965)"
               id="path18"
               style="stroke:#385470;stroke-opacity:1" />
            <path
               inkscape:connector-curvature="0"
               d="m 175.19945,1002.2515 h 2.85144 c 0.16244,0 0.29208,0.4983 0.29284,1.1172 v 3.4028 c -7.6e-4,0.6188 -0.13117,1.1172 -0.29284,1.1172 h -2.85144 c -0.16244,0 -0.29285,-0.4969 -0.29285,-1.1142 l -7.6e-4,-3.4043 c 7.6e-4,-0.6189 0.13117,-1.1172 0.29361,-1.1157 z"
               transform="matrix(2.56107,2.56107,-1.29717,1.29717,1042.3496,-1623.0062)"
               id="path20"
               style="stroke:#385470;stroke-opacity:1" />
            <path
               inkscape:connector-curvature="0"
               d="m 175.19945,1049.3762 h 2.85144 c 0.16244,0 0.29284,0.4969 0.29284,1.1142 v 3.4058 c 0,0.6174 -0.1304,1.1157 -0.29284,1.1142 h -2.85144 c -0.16244,0 -0.29361,-0.4983 -0.29285,-1.1172 v -3.4028 c -7.6e-4,-0.6188 0.13041,-1.1157 0.29285,-1.1172 z"
               transform="matrix(2.56107,2.56107,-1.29717,1.29717,1042.3496,-1623.0062)"
               id="path22"
               style="stroke:#385470;stroke-opacity:1" />
            <path
               inkscape:connector-curvature="0"
               d="m 175.19873,1002.2505 h 2.85221 c 0.16167,0 0.29284,0.4969 0.29284,1.1172 v 3.4029 c 0,0.6173 -0.13041,1.1157 -0.29284,1.1172 h -2.85145 c -0.16244,0 -0.29284,-0.4969 -0.29361,-1.1157 l 7.7e-4,-3.4044 c 0,-0.6173 0.1304,-1.1157 0.29208,-1.1157 z"
               transform="matrix(-2.56107,2.56107,-1.29717,-1.29717,1947.0461,1045.608)"
               id="path24"
               style="stroke:#385470;stroke-opacity:1" />
            <path
               inkscape:connector-curvature="0"
               d="m 175.19949,1049.3767 h 2.85068 c 0.1632,0 0.29361,0.4984 0.29361,1.1157 l -7.6e-4,3.4044 c 7.6e-4,0.6188 -0.13041,1.1157 -0.29208,1.1157 h -2.85221 c -0.16168,0 -0.29285,-0.4969 -0.29208,-1.1157 l -7.7e-4,-3.4044 c 0,-0.6173 0.13117,-1.1142 0.29361,-1.1157 z"
               transform="matrix(-2.56107,2.56107,-1.29717,-1.29717,1947.0461,1045.608)"
               id="path26"
               style="stroke:#385470;stroke-opacity:1" />
          </g>
          <path
             inkscape:connector-curvature="0"
             style="fill:none;stroke:#385470;stroke-width:1.27499998;stroke-opacity:1"
             d="m 21.685547,1015.1288 c -3.215332,-1.6355 -7.300781,-0.3018 -9.259277,3.0813 -2.022217,3.4922 -1.018067,7.853 2.240478,9.7397 3.258545,1.8868 7.541016,0.5867 9.5625,-2.9055 2.022217,-3.4914 1.018066,-7.853 -2.240478,-9.7397 -0.101807,-0.059 -0.199952,-0.1223 -0.303223,-0.1758 z"
             transform="matrix(5.33333,0,0,5.33333,0,-5356.5984)"
             id="path28" />
          <g
             style="fill:#6890b8;stroke:#385470;stroke-width:0.82999998;stroke-opacity:1"
             id="g30">
            <path
               inkscape:connector-curvature="0"
               d="m 175.19905,1002.2502 2.85153,4e-4 c 0.16241,0 0.2928,0.4969 0.29273,1.1171 l -1.6e-4,3.4032 c 3.1e-4,0.6172 -0.13014,1.1157 -0.29201,1.1162 l -2.85153,-3e-4 c -0.1624,0 -0.29334,-0.4988 -0.29366,-1.1161 l 1.6e-4,-3.4032 c 8e-5,-0.6201 0.13107,-1.1168 0.29294,-1.1173 z"
               transform="matrix(3.1344,1.81488,-0.91925,1.58752,489.69355,-1861.4872)"
               id="path32"
               style="stroke:#385470;stroke-opacity:1" />
            <path
               inkscape:connector-curvature="0"
               d="m 175.19956,1049.3775 h 2.85099 c 0.1624,0 0.29334,0.4988 0.29272,1.1171 l -1.6e-4,3.4032 c 8.6e-4,0.6191 -0.13013,1.1158 -0.292,1.1163 l -2.85153,-4e-4 c -0.1628,0 -0.2928,-0.4969 -0.29366,-1.116 l 1.6e-4,-3.4032 c 6.2e-4,-0.6183 0.13107,-1.1169 0.29348,-1.1155 z"
               transform="matrix(3.1344,1.81488,-0.91925,1.58752,489.69355,-1861.4872)"
               id="path34"
               style="stroke:#385470;stroke-opacity:1" />
            <path
               inkscape:connector-curvature="0"
               d="m 180.87566,24.249925 c -8.9e-4,1.519174 -1.23168,2.750217 -2.75022,2.75042 -1.51917,-8.9e-4 -2.75022,-1.231675 -2.75042,-2.750215 -2e-4,-1.51854 1.23168,-2.750217 2.75022,-2.75042 1.51854,-2.04e-4 2.75021,1.231675 2.75042,2.750215 z"
               transform="matrix(2.67506,1.54893,-1.54893,2.67506,-341.16676,-248.72443)"
               id="path36"
               style="stroke:#385470;stroke-opacity:1" />
            <path
               inkscape:connector-curvature="0"
               d="m 46.372451,1027.0891 -0.0013,2.5544 c 2.76e-4,0.1447 -0.446451,0.262 -0.999359,0.2622 l -3.048468,-10e-5 c -0.555514,-10e-5 -1.000964,-0.1169 -0.99959,-0.2621 l -0.0013,-2.5548 c 0.0014,-0.1451 0.446451,-0.2619 0.999359,-0.2622 l 3.050118,-3e-4 c 0.553864,6e-4 0.999314,0.1174 1.000546,0.2629 z"
               transform="matrix(1.77227,1.02619,-2.10939,3.64304,2224.4452,-3678.9072)"
               id="path38"
               style="stroke:#385470;stroke-opacity:1" />
            <path
               inkscape:connector-curvature="0"
               d="m 6.676869,1027.0893 3.66e-4,2.554 c -4.19e-4,0.1459 -0.445495,0.2627 -0.999359,0.2622 l -3.050118,3e-4 c -0.552909,2e-4 -0.999314,-0.1174 -0.99959,-0.2621 l 0.00128,-2.5545 c -0.00123,-0.1454 0.445495,-0.2627 0.999359,-0.2622 l 3.048467,2e-4 c 0.554559,-7e-4 1.000009,0.1161 0.99959,0.2621 z"
               transform="matrix(1.77227,1.02619,-2.10939,3.64304,2224.4452,-3678.9072)"
               id="path40"
               style="stroke:#385470;stroke-opacity:1" />
            <path
               inkscape:connector-curvature="0"
               d="m 175.19939,1002.2501 2.85178,3e-4 c 0.16194,-7e-4 0.29222,0.4976 0.2923,1.1169 l 3.6e-4,3.4028 c 8e-5,0.6193 -0.13072,1.1168 -0.29266,1.1175 l -2.85178,-3e-4 c -0.16298,2e-4 -0.29326,-0.4981 -0.29334,-1.1174 l 6.8e-4,-3.4023 c -8e-5,-0.6193 0.13072,-1.1168 0.29266,-1.1175 z"
               transform="matrix(0.93301,3.49968,-1.77253,0.47259,1756.2692,-1012.1629)"
               id="path42"
               style="stroke:#385470;stroke-opacity:1" />
            <path
               inkscape:connector-curvature="0"
               d="m 175.19878,1049.3773 2.85177,3e-4 c 0.16194,-7e-4 0.29326,0.4982 0.29258,1.1149 l 8e-5,3.4048 c 3.6e-4,0.6173 -0.13044,1.1148 -0.29238,1.1155 l -2.85178,-3e-4 c -0.16194,7e-4 -0.29222,-0.4976 -0.29258,-1.1149 l -8e-5,-3.4048 c -3.6e-4,-0.6173 0.13072,-1.1169 0.29239,-1.1155 z"
               transform="matrix(0.93301,3.49968,-1.77253,0.47259,1756.2692,-1012.1629)"
               id="path44"
               style="stroke:#385470;stroke-opacity:1" />
            <path
               inkscape:connector-curvature="0"
               d="m 175.19904,1002.251 2.85178,3e-4 c 0.16194,-7e-4 0.29222,0.4976 0.29258,1.1148 l 8e-5,3.4049 c 3.6e-4,0.6173 -0.13045,1.1148 -0.29239,1.1155 l -2.85177,-4e-4 c -0.16194,7e-4 -0.29326,-0.4981 -0.29258,-1.1148 l -8e-5,-3.4049 c -3.6e-4,-0.6172 0.13044,-1.1147 0.29238,-1.1154 z"
               transform="matrix(-3.49968,0.93301,-0.47259,-1.77253,1201.9864,1750.5797)"
               id="path46"
               style="stroke:#385470;stroke-opacity:1" />
            <path
               inkscape:connector-curvature="0"
               d="m 175.19974,1049.3767 2.85074,-2e-4 c 0.16298,-2e-4 0.29326,0.4981 0.29334,1.1174 l 3.6e-4,3.4028 c -9.6e-4,0.6188 -0.13072,1.1168 -0.2937,1.117 l -2.85178,-3e-4 c -0.16167,0 -0.29222,-0.4976 -0.2923,-1.1169 l -3.6e-4,-3.4028 c -8e-5,-0.6193 0.13072,-1.1169 0.2937,-1.117 z"
               transform="matrix(-3.49968,0.93301,-0.47259,-1.77253,1201.9864,1750.5797)"
               id="path48"
               style="stroke:#385470;stroke-opacity:1" />
          </g>
        </g>
      </g>
    </g>
  </g>
</svg>
