<?xml version="1.0" encoding="UTF-8" standalone="no"?>
<!-- Created with Inkscape (http://www.inkscape.org/) -->

<svg
   xmlns:dc="http://purl.org/dc/elements/1.1/"
   xmlns:cc="http://creativecommons.org/ns#"
   xmlns:rdf="http://www.w3.org/1999/02/22-rdf-syntax-ns#"
   xmlns:svg="http://www.w3.org/2000/svg"
   xmlns="http://www.w3.org/2000/svg"
   xmlns:sodipodi="http://sodipodi.sourceforge.net/DTD/sodipodi-0.dtd"
   xmlns:inkscape="http://www.inkscape.org/namespaces/inkscape"
   width="16"
   height="16"
   id="svg2"
   version="1.1"
   inkscape:version="0.48.5 r10040"
   viewBox="0 0 16 16"
   sodipodi:docname="application-x-icq.svg">
  <defs
     id="defs4" />
  <sodipodi:namedview
     id="base"
     pagecolor="#ffffff"
     bordercolor="#666666"
     borderopacity="1.0"
     inkscape:pageopacity="0.0"
     inkscape:pageshadow="2"
     inkscape:zoom="22.4"
     inkscape:cx="1.1938715"
     inkscape:cy="17.337861"
     inkscape:document-units="px"
     inkscape:current-layer="layer1"
     showgrid="true"
     inkscape:showpageshadow="false"
     borderlayer="true"
     inkscape:window-width="1920"
     inkscape:window-height="1033"
     inkscape:window-x="-4"
     inkscape:window-y="30"
     inkscape:window-maximized="1"
     units="px"
     inkscape:snap-bbox="true"
     inkscape:snap-global="true">
    <inkscape:grid
       type="xygrid"
       id="grid4101" />
    <sodipodi:guide
       position="2,14.000017"
       orientation="12,0"
       id="guide4071" />
    <sodipodi:guide
       position="2,2.0000174"
       orientation="0,12"
       id="guide4073" />
    <sodipodi:guide
       position="14,2.0000174"
       orientation="-12,0"
       id="guide4075" />
    <sodipodi:guide
       position="14,14.000017"
       orientation="0,-12"
       id="guide4077" />
  </sodipodi:namedview>
  <metadata
     id="metadata7">
    <rdf:RDF>
      <cc:Work
         rdf:about="">
        <dc:format>image/svg+xml</dc:format>
        <dc:type
           rdf:resource="http://purl.org/dc/dcmitype/StillImage" />
        <dc:title />
      </cc:Work>
    </rdf:RDF>
  </metadata>
  <g
     inkscape:label="Capa 1"
     inkscape:groupmode="layer"
     id="layer1"
     transform="translate(0,-1036.3622)">
    <rect
       style="fill:#6c7a89;fill-opacity:1;stroke:none"
       id="rect4035"
       width="0"
       height="10.999983"
       x="-17"
       y="1039.3622" />
    <g
       id="g7976"
       transform="matrix(0.07971241,0,0,0.07971076,22.93784,1036.9645)"
       style="fill:#62707f;fill-opacity:1">
      <path
         inkscape:connector-curvature="0"
         id="path7894"
         d="m -149.53098,26.481142 c 1.20506,2.40766 1.9281,5.29981 1.9281,8.43297 l -0.72304,5.29982 c -0.96405,2.65113 -2.16911,5.06126 -3.61519,7.22791 l -21.68619,26.5089 c -2.16911,-1.68709 -4.57923,-2.89215 -6.98936,-4.09721 l -2.40766,-27.22702 -0.24101,-9.63804 0.24101,-2.40766 c 1.20506,-4.81779 4.57677,-8.43297 8.915,-10.8431 4.33576,-2.40766 9.156,-2.89215 13.73278,-1.20506 5.06126,1.2026 8.67645,3.85374 10.84556,7.94849 l 0,0 z"
         style="fill:#62707f;fill-opacity:1" />
      <path
         inkscape:connector-curvature="0"
         id="path7892"
         d="m -224.23006,31.301392 c 0.24101,-4.33823 1.9281,-7.22791 4.81779,-8.915 1.44607,-1.20506 3.61518,-1.20506 5.54082,-0.24101 4.33823,1.20506 7.95095,4.33822 10.8431,10.36107 1.20506,2.41012 2.41012,4.81779 2.89215,7.70994 l 4.81779,28.43454 -3.61519,1.20506 -21.44518,-23.37328 -1.20506,-2.40767 c -1.92318,-4.34068 -3.12825,-8.43543 -2.64622,-12.77365 l 0,0 z"
         style="fill:#62707f;fill-opacity:1" />
      <path
         inkscape:connector-curvature="0"
         id="path7890"
         d="m -237.24227,59.492462 6.50733,2.65113 21.20418,15.42234 c -1.9281,2.40766 -3.13071,4.81779 -3.85374,7.22791 l -34.69841,4.33822 -2.41012,-0.48202 c -4.33822,-0.72304 -7.22791,-2.65114 -9.15601,-6.26386 -1.9281,-3.61519 -1.9281,-7.22792 -0.48203,-10.8431 1.68709,-4.57924 4.81779,-8.19442 9.39703,-10.12006 4.33576,-2.41259 8.67153,-3.13562 13.49177,-1.93056 l 0,0 z"
         style="fill:#62707f;fill-opacity:1" />
      <path
         inkscape:connector-curvature="0"
         id="path7888"
         d="m -139.17237,59.733472 c 4.33822,-1.9281 8.43298,-2.41012 12.7712,-1.9281 4.09721,0.48203 6.98936,2.40767 8.43297,5.29981 l 0.96405,3.13071 -0.48202,2.41012 c -1.68709,4.33822 -5.30228,7.70994 -11.32513,10.36107 -2.40766,1.20506 -5.0588,1.68709 -7.95095,2.16665 l -29.63714,3.61519 -0.48202,-1.68709 -0.48203,-0.72057 0.96405,-1.20507 24.33733,-20.24012 2.88969,-1.2026 0,0 z"
         style="fill:#62707f;fill-opacity:1" />
      <path
         inkscape:connector-curvature="0"
         id="path7886"
         d="m -195.07494,117.56415 c 0.48202,8.19442 1.20506,16.8684 2.41012,26.26543 l 0,9.64049 -0.24101,2.41013 c -1.68709,4.3333 -4.57924,7.94849 -8.915,9.87658 -4.33576,2.41013 -8.915,2.89215 -13.25322,1.68709 -4.81779,-1.20014 -8.43297,-4.09229 -10.36107,-7.94849 -1.20506,-2.41012 -2.16911,-5.30227 -2.16911,-8.19442 l 1.20506,-5.53837 c 0.48202,-2.41012 1.68708,-4.8227 3.61518,-6.74834 l 20.24013,-24.09878 c 2.41012,1.2026 4.81778,2.40766 7.46892,2.64868 l 0,0 z"
         style="fill:#62707f;fill-opacity:1" />
      <path
         inkscape:connector-curvature="0"
         id="path7884"
         d="m -176.51945,114.43099 10.12006,10.36107 6.26386,7.70994 1.20506,2.41012 c 2.16912,4.09721 3.37418,7.95341 2.89215,12.53264 -0.48202,4.33823 -1.9281,7.46893 -4.81779,8.67399 -1.68708,1.20506 -3.61518,1.20506 -5.54082,0.96159 -4.57924,-1.20014 -8.19442,-4.81779 -10.8431,-10.60209 l -2.89214,-7.94849 -3.61519,-20.96561 4.09721,-1.44608 3.1307,-1.68708 0,0 z"
         style="fill:#62707f;fill-opacity:1" />
      <path
         inkscape:connector-curvature="0"
         id="path7085"
         d="m -165.67635,99.490682 27.22948,-2.40767 9.63803,-0.24101 2.41013,0.24101 c 3.61518,1.20506 6.98936,3.374168 8.915,6.986898 2.40766,2.65114 3.61272,6.26386 3.61272,10.36108 l -0.72058,4.81778 c -1.20506,4.82271 -4.09721,8.43544 -8.19442,10.36108 -4.33822,2.41012 -8.67398,2.89215 -13.49423,1.20506 -2.89215,-0.72058 -4.81779,-1.92564 -6.50733,-3.85128 l -25.30139,-20.96562 1.68709,-3.61273 0.7255,-2.894598 0,0 z"
         style="fill:#62707f;fill-opacity:1" />
      <path
         id="path7087"
         style="fill:#62707f;fill-opacity:1"
         d="m -214.35101,98.767642 1.68708,4.820248 0.72304,1.68708 c -3.61518,3.13071 -6.26632,6.02285 -9.15601,8.67399 l -7.23037,6.02531 -1.9281,1.20506 c -4.57924,2.16665 -8.43297,2.89215 -12.53018,2.40767 -3.61519,-0.24102 -6.50734,-1.44608 -7.7124,-3.61273 l -0.72304,-2.65114 0.48203,-2.16665 c 1.20506,-3.61764 4.33822,-7.22791 9.88151,-9.88151 2.88969,-1.20506 5.29981,-2.41012 7.22791,-2.89215 l 19.27853,-3.615178 0,0 z"
         inkscape:connector-curvature="0" />
      <path
         id="path7089"
         style="fill:#62707f;fill-opacity:1"
         d="m -200.61577,82.624732 c 2.88969,-2.65114 6.74589,-4.33577 11.32512,-4.33577 4.33823,0 8.43298,1.68709 11.08412,4.33577 3.37417,3.37417 4.82024,6.98936 4.82024,11.32512 0,4.33576 -1.44607,8.432968 -4.82024,11.325118 -3.13317,3.13071 -6.74589,4.81779 -11.08412,4.81779 -4.57923,0 -8.43543,-1.68708 -11.32512,-4.81779 -3.13316,-2.89215 -4.81778,-6.989358 -4.81778,-11.325118 0,-4.33576 1.68462,-7.95095 4.81778,-11.32512 l 0,0 z"
         inkscape:connector-curvature="0" />
    </g>
  </g>
</svg>
