<?xml version="1.0" encoding="UTF-8" standalone="no"?>
<!-- Created with Inkscape (http://www.inkscape.org/) -->

<svg
   xmlns:dc="http://purl.org/dc/elements/1.1/"
   xmlns:cc="http://creativecommons.org/ns#"
   xmlns:rdf="http://www.w3.org/1999/02/22-rdf-syntax-ns#"
   xmlns:svg="http://www.w3.org/2000/svg"
   xmlns="http://www.w3.org/2000/svg"
   xmlns:sodipodi="http://sodipodi.sourceforge.net/DTD/sodipodi-0.dtd"
   xmlns:inkscape="http://www.inkscape.org/namespaces/inkscape"
   width="16"
   height="16"
   id="svg2"
   version="1.1"
   inkscape:version="0.48.5 r10040"
   viewBox="0 0 16 16"
   sodipodi:docname="application-extension.svg">
  <defs
     id="defs4" />
  <sodipodi:namedview
     id="base"
     pagecolor="#ffffff"
     bordercolor="#666666"
     borderopacity="1.0"
     inkscape:pageopacity="0.0"
     inkscape:pageshadow="2"
     inkscape:zoom="11.2"
     inkscape:cx="-1.1574942"
     inkscape:cy="-14.473164"
     inkscape:document-units="px"
     inkscape:current-layer="layer1"
     showgrid="true"
     inkscape:showpageshadow="false"
     borderlayer="true"
     inkscape:window-width="1920"
     inkscape:window-height="1033"
     inkscape:window-x="-4"
     inkscape:window-y="30"
     inkscape:window-maximized="1"
     units="px"
     inkscape:snap-bbox="true"
     inkscape:snap-global="true">
    <inkscape:grid
       type="xygrid"
       id="grid4101" />
    <sodipodi:guide
       position="2,14.000017"
       orientation="12,0"
       id="guide4071" />
    <sodipodi:guide
       position="2,2.0000174"
       orientation="0,12"
       id="guide4073" />
    <sodipodi:guide
       position="14,2.0000174"
       orientation="-12,0"
       id="guide4075" />
    <sodipodi:guide
       position="14,14.000017"
       orientation="0,-12"
       id="guide4077" />
  </sodipodi:namedview>
  <metadata
     id="metadata7">
    <rdf:RDF>
      <cc:Work
         rdf:about="">
        <dc:format>image/svg+xml</dc:format>
        <dc:type
           rdf:resource="http://purl.org/dc/dcmitype/StillImage" />
        <dc:title />
      </cc:Work>
    </rdf:RDF>
  </metadata>
  <g
     inkscape:label="Capa 1"
     inkscape:groupmode="layer"
     id="layer1"
     transform="translate(0,-1036.3622)">
    <path
       d="m 6.578945,1038.3622 c -0.784417,0 -1.421055,0.6366 -1.421055,1.421 0,0.4903 0.253557,0.919 0.631582,1.1744 l 0,0.2467 -3.15789,0 C 2.281691,1041.2043 2,1041.486 2,1041.8359 l 0,3.0691 c 0.260436,-0.3268 0.655212,-0.5428 1.10526,-0.5428 0.784433,0 1.421047,0.6366 1.421047,1.421 0,0.7845 -0.636614,1.4211 -1.421047,1.4211 -0.450048,0 -0.844824,-0.216 -1.10526,-0.5428 l 0,3.0691 c 0,0.3499 0.281691,0.6316 0.631582,0.6316 l 3.069072,0 c -0.326794,-0.2604 -0.542764,-0.6552 -0.542764,-1.1052 0,-0.7845 0.636638,-1.4211 1.421055,-1.4211 0.784417,0 1.421055,0.6366 1.421055,1.4211 0,0.45 -0.215951,0.8448 -0.542764,1.1052 l 3.069071,0 c 0.349913,0 0.631583,-0.2817 0.631583,-0.6316 l 0,-3.1579 0.246709,0 c 0.255461,0.378 0.684094,0.6316 1.174346,0.6316 0.784416,0 1.421055,-0.6366 1.421055,-1.4211 0,-0.7844 -0.636639,-1.421 -1.421055,-1.421 -0.490252,0 -0.918885,0.2535 -1.174346,0.6316 l -0.246709,0 0,-3.1579 c 0,-0.3499 -0.28167,-0.6316 -0.631583,-0.6316 l -3.157889,0 0,-0.2467 C 7.746443,1040.7022 8,1040.2735 8,1039.7832 c 0,-0.7844 -0.636638,-1.421 -1.421055,-1.421 z"
       id="rect3558"
       style="fill:#7fcc74;fill-opacity:1;stroke:none"
       inkscape:connector-curvature="0" />
  </g>
</svg>
