<?xml version="1.0" encoding="UTF-8" standalone="no"?>
<!-- Created with Inkscape (http://www.inkscape.org/) -->

<svg
   xmlns:dc="http://purl.org/dc/elements/1.1/"
   xmlns:cc="http://creativecommons.org/ns#"
   xmlns:rdf="http://www.w3.org/1999/02/22-rdf-syntax-ns#"
   xmlns:svg="http://www.w3.org/2000/svg"
   xmlns="http://www.w3.org/2000/svg"
   xmlns:sodipodi="http://sodipodi.sourceforge.net/DTD/sodipodi-0.dtd"
   xmlns:inkscape="http://www.inkscape.org/namespaces/inkscape"
   width="16"
   height="16"
   id="svg2"
   version="1.1"
   inkscape:version="0.48.5 r10040"
   viewBox="0 0 16 16"
   sodipodi:docname="inode-blockdevice.svg">
  <defs
     id="defs4" />
  <sodipodi:namedview
     id="base"
     pagecolor="#ffffff"
     bordercolor="#666666"
     borderopacity="1.0"
     inkscape:pageopacity="0.0"
     inkscape:pageshadow="2"
     inkscape:zoom="22.4"
     inkscape:cx="0.40554456"
     inkscape:cy="9.4933295"
     inkscape:document-units="px"
     inkscape:current-layer="layer1"
     showgrid="true"
     inkscape:showpageshadow="false"
     borderlayer="true"
     inkscape:window-width="1920"
     inkscape:window-height="1033"
     inkscape:window-x="-4"
     inkscape:window-y="30"
     inkscape:window-maximized="1"
     units="px"
     inkscape:snap-bbox="true"
     inkscape:snap-global="true"
     showguides="true">
    <inkscape:grid
       type="xygrid"
       id="grid4101" />
    <sodipodi:guide
       position="2,14.000017"
       orientation="12,0"
       id="guide4071" />
    <sodipodi:guide
       position="2,2.0000174"
       orientation="0,12"
       id="guide4073" />
    <sodipodi:guide
       position="14,2.0000174"
       orientation="-12,0"
       id="guide4075" />
    <sodipodi:guide
       position="14,14.000017"
       orientation="0,-12"
       id="guide4077" />
  </sodipodi:namedview>
  <metadata
     id="metadata7">
    <rdf:RDF>
      <cc:Work
         rdf:about="">
        <dc:format>image/svg+xml</dc:format>
        <dc:type
           rdf:resource="http://purl.org/dc/dcmitype/StillImage" />
        <dc:title />
      </cc:Work>
    </rdf:RDF>
  </metadata>
  <g
     inkscape:label="Capa 1"
     inkscape:groupmode="layer"
     id="layer1"
     transform="translate(0,-1036.3622)">
    <path
       inkscape:connector-curvature="0"
       style="color:#000000;fill:#667482;fill-opacity:1;fill-rule:nonzero;stroke:none;visibility:visible;display:inline;overflow:visible;enable-background:accumulate"
       d="m 3,1038.3622 0,12 10,0 0,-12 -10,0 z m 1,1 8,0 0,10 -0.999999,0 0,-1 -1.000001,0 0,1 -1.9999999,0 0,-1 -3.0000001,0 0,1 -1,0 0,-10 z m 1,1 0,3 c 0,1.662 1.3380004,3 3.0000001,3 0.3529171,0 0.6860105,-0.071 1,-0.1816 l 0,1.1816 0.9999999,0 1.000001,-1 -0.876954,-0.877 c 0.54225,-0.5422 0.876954,-1.292 0.876954,-2.123 0,-1.662 -1.3380007,-3 -3.0000009,-3 l -2.0000001,0 -1,0 z m 3.0000001,1 c 1.1080004,0 1.9999999,0.892 1.9999999,2 0,0.554 -0.2224839,1.0545 -0.5839839,1.416 l -0.416016,-0.416 0,0.7246 c -0.2950008,0.1711 -0.6330699,0.2754 -1,0.2754 -1.1080004,0 -2.0000001,-0.892 -2.0000001,-2 0,-1.108 0.8919997,-2 2.0000001,-2 z m 0,1 c -0.5539999,0 -1,0.446 -1,1 0,0.554 0.4460001,1 1,1 0.5539999,0 1,-0.446 1,-1 0,-0.554 -0.4460001,-1 -1,-1 z"
       id="rect4155" />
  </g>
</svg>
