<?xml version="1.0" encoding="UTF-8" standalone="no"?>
<!-- Created with Inkscape (http://www.inkscape.org/) -->

<svg
   xmlns:dc="http://purl.org/dc/elements/1.1/"
   xmlns:cc="http://creativecommons.org/ns#"
   xmlns:rdf="http://www.w3.org/1999/02/22-rdf-syntax-ns#"
   xmlns:svg="http://www.w3.org/2000/svg"
   xmlns="http://www.w3.org/2000/svg"
   xmlns:sodipodi="http://sodipodi.sourceforge.net/DTD/sodipodi-0.dtd"
   xmlns:inkscape="http://www.inkscape.org/namespaces/inkscape"
   width="48"
   height="48"
   id="svg3381"
   version="1.1"
   inkscape:version="0.91 r13725"
   sodipodi:docname="contact_freeforchat_overlay.svg">
  <defs
     id="defs3383" />
  <sodipodi:namedview
     id="base"
     pagecolor="#ffffff"
     bordercolor="#666666"
     borderopacity="1.0"
     inkscape:pageopacity="0.0"
     inkscape:pageshadow="2"
     inkscape:zoom="8.2094237"
     inkscape:cx="-50.947362"
     inkscape:cy="29.007092"
     inkscape:document-units="px"
     inkscape:current-layer="layer1"
     showgrid="false"
     fit-margin-top="0"
     fit-margin-left="0"
     fit-margin-right="0"
     fit-margin-bottom="0"
     inkscape:window-width="1920"
     inkscape:window-height="992"
     inkscape:window-x="-4"
     inkscape:window-y="26"
     inkscape:window-maximized="1">
    <sodipodi:guide
       position="9.0000117,39.000009"
       orientation="30.000031,0"
       id="guide3264" />
    <sodipodi:guide
       position="9.0000117,8.9999785"
       orientation="0,30"
       id="guide3266" />
    <sodipodi:guide
       position="39.000012,34.58801"
       orientation="-30.000031,0"
       id="guide3268" />
    <sodipodi:guide
       position="39.000012,39.000009"
       orientation="0,-30"
       id="guide3270" />
    <sodipodi:guide
       position="9.0000117,19.999979"
       orientation="11,0"
       id="guide3276" />
    <sodipodi:guide
       position="24.000012,39.000009"
       orientation="15.000031,0"
       id="guide3311" />
    <sodipodi:guide
       position="24.000012,23.999979"
       orientation="0,15"
       id="guide3313" />
    <sodipodi:guide
       position="39.000012,39.000009"
       orientation="0,-15"
       id="guide3317" />
  </sodipodi:namedview>
  <metadata
     id="metadata3386">
    <rdf:RDF>
      <cc:Work
         rdf:about="">
        <dc:format>image/svg+xml</dc:format>
        <dc:type
           rdf:resource="http://purl.org/dc/dcmitype/StillImage" />
        <dc:title />
      </cc:Work>
    </rdf:RDF>
  </metadata>
  <g
     inkscape:label="Capa 1"
     inkscape:groupmode="layer"
     id="layer1"
     transform="translate(-364.57143,-499.79075)">
    <path
       sodipodi:type="arc"
       style="fill:#d40000;fill-opacity:1;fill-rule:evenodd;stroke:none"
       id="path2991"
       sodipodi:cx="25.068472"
       sodipodi:cy="23.914175"
       sodipodi:rx="16.06846"
       sodipodi:ry="14.914184"
       d="M 41.136932,23.914175 A 16.06846,14.914184 0 0 1 25.068472,38.828359 16.06846,14.914184 0 0 1 9.0000114,23.914175 16.06846,14.914184 0 0 1 25.068472,8.9999914 16.06846,14.914184 0 0 1 41.136932,23.914175 Z"
       transform="matrix(0.93674154,0,0,1,365.14076,499.79075)" />
    <path
       transform="matrix(0.93674154,0,0,1,365.14076,499.79075)"
       d="M 41.136932,23.914175 A 16.06846,14.914184 0 0 1 25.068472,38.828359 16.06846,14.914184 0 0 1 9.0000114,23.914175 16.06846,14.914184 0 0 1 25.068472,8.9999914 16.06846,14.914184 0 0 1 41.136932,23.914175 Z"
       sodipodi:ry="14.914184"
       sodipodi:rx="16.06846"
       sodipodi:cy="23.914175"
       sodipodi:cx="25.068472"
       id="path3013"
       style="fill:#43be80;fill-opacity:1;fill-rule:evenodd;stroke:none"
       sodipodi:type="arc" />
    <path
       sodipodi:type="arc"
       style="fill:#f2f2f2;fill-opacity:1;fill-rule:evenodd;stroke:none"
       id="path4085"
       sodipodi:cx="18.210779"
       sodipodi:cy="21.078135"
       sodipodi:rx="2.9843752"
       sodipodi:ry="2.9218862"
       d="m 21.195154,21.078135 a 2.9843752,2.9218862 0 0 1 -2.984375,2.921886 2.9843752,2.9218862 0 0 1 -2.984375,-2.921886 2.9843752,2.9218862 0 0 1 2.984375,-2.921887 2.9843752,2.9218862 0 0 1 2.984375,2.921887 z"
       transform="translate(364.57143,499.79075)" />
    <path
       transform="translate(376.50893,499.91256)"
       d="m 21.195154,21.078135 a 2.9843752,2.9218862 0 0 1 -2.984375,2.921886 2.9843752,2.9218862 0 0 1 -2.984375,-2.921886 2.9843752,2.9218862 0 0 1 2.984375,-2.921887 2.9843752,2.9218862 0 0 1 2.984375,2.921887 z"
       sodipodi:ry="2.9218862"
       sodipodi:rx="2.9843752"
       sodipodi:cy="21.078135"
       sodipodi:cx="18.210779"
       id="path4087"
       style="fill:#f2f2f2;fill-opacity:1;fill-rule:evenodd;stroke:none"
       sodipodi:type="arc" />
    <path
       style="fill:#f2f2f2;fill-opacity:1;fill-rule:evenodd;stroke:none"
       d="m 380.28699,528.98845 c 1.68922,2.93221 4.81181,4.90625 8.40625,4.90625 3.581,0 6.6813,-1.96094 8.375,-4.875 -2.39401,1.30576 -5.2684,2.0625 -8.375,2.0625 -3.12309,0 -6.00479,-0.77527 -8.40625,-2.09375 z"
       id="path4089"
       inkscape:connector-curvature="0" />
  </g>
</svg>
