<?xml version="1.0" encoding="UTF-8" standalone="no"?>
<!-- Created with Inkscape (http://www.inkscape.org/) -->

<svg
   xmlns:dc="http://purl.org/dc/elements/1.1/"
   xmlns:cc="http://creativecommons.org/ns#"
   xmlns:rdf="http://www.w3.org/1999/02/22-rdf-syntax-ns#"
   xmlns:svg="http://www.w3.org/2000/svg"
   xmlns="http://www.w3.org/2000/svg"
   xmlns:sodipodi="http://sodipodi.sourceforge.net/DTD/sodipodi-0.dtd"
   xmlns:inkscape="http://www.inkscape.org/namespaces/inkscape"
   width="22"
   height="22"
   id="svg3780"
   version="1.1"
   inkscape:version="0.48.5 r10040"
   sodipodi:docname="continue-data-project.svg">
  <defs
     id="defs3782" />
  <sodipodi:namedview
     id="base"
     pagecolor="#ffffff"
     bordercolor="#666666"
     borderopacity="1.0"
     inkscape:pageopacity="0.0"
     inkscape:pageshadow="2"
     inkscape:zoom="19.732846"
     inkscape:cx="-9.1322725"
     inkscape:cy="6.3332006"
     inkscape:document-units="px"
     inkscape:current-layer="layer1"
     showgrid="true"
     inkscape:window-width="1920"
     inkscape:window-height="1031"
     inkscape:window-x="-4"
     inkscape:window-y="32"
     inkscape:window-maximized="1"
     inkscape:showpageshadow="false"
     showguides="true">
    <inkscape:grid
       type="xygrid"
       id="grid3307" />
    <sodipodi:guide
       position="2,20.000017"
       orientation="18,0"
       id="guide3313" />
    <sodipodi:guide
       position="2,2.0000174"
       orientation="0,18"
       id="guide3315" />
    <sodipodi:guide
       position="20,2.0000174"
       orientation="-18,0"
       id="guide3317" />
    <sodipodi:guide
       position="20,20.000017"
       orientation="0,-18"
       id="guide3319" />
    <sodipodi:guide
       position="3,19.000017"
       orientation="16,0"
       id="guide3321" />
    <sodipodi:guide
       position="3,3.0000174"
       orientation="0,16"
       id="guide3323" />
    <sodipodi:guide
       position="19,3.0000174"
       orientation="-16,0"
       id="guide3325" />
    <sodipodi:guide
       position="19,19.000017"
       orientation="0,-16"
       id="guide3327" />
  </sodipodi:namedview>
  <metadata
     id="metadata3785">
    <rdf:RDF>
      <cc:Work
         rdf:about="">
        <dc:format>image/svg+xml</dc:format>
        <dc:type
           rdf:resource="http://purl.org/dc/dcmitype/StillImage" />
        <dc:title />
      </cc:Work>
    </rdf:RDF>
  </metadata>
  <g
     inkscape:label="Capa 1"
     inkscape:groupmode="layer"
     id="layer1"
     transform="translate(0,-1030.3622)">
    <path
       sodipodi:type="arc"
       style="fill:none;stroke:#4d4d4d;stroke-width:1.00485932999999994;stroke-opacity:1"
       id="path2991"
       sodipodi:cx="25.068472"
       sodipodi:cy="23.914175"
       sodipodi:rx="16.06846"
       sodipodi:ry="14.914184"
       d="m 41.136932,23.914175 a 16.06846,14.914184 0 1 1 -32.1369206,0 16.06846,14.914184 0 1 1 32.1369206,0 z"
       transform="matrix(0.40157254,0,0,0.42868843,-0.40569441,1031.5085)" />
    <path
       inkscape:connector-curvature="0"
       style="fill:#4d4d4d;fill-opacity:1;fill-rule:evenodd;stroke:none"
       d="m 9.6656308,1040.0606 c -0.9480338,0 -1.7230948,0.7568 -1.7230948,1.6962 0,0.9393 0.775061,1.7096 1.7230948,1.7096 0.9480342,0 1.7096332,-0.7703 1.7096332,-1.7096 0,-0.9394 -0.761599,-1.6962 -1.7096332,-1.6962 z m 0,0.4981 c 0.6721382,0 1.2115512,0.5321 1.2115512,1.1981 0,0.666 -0.539413,1.2115 -1.2115512,1.2115 -0.6721379,0 -1.2250127,-0.5455 -1.2250127,-1.2115 0,-0.666 0.5528748,-1.1981 1.2250127,-1.1981 z"
       id="path2992" />
    <path
       style="fill:#4d4d4d;fill-opacity:1;fill-rule:evenodd;stroke:none"
       d="m 11.834981,1043.7178 c -0.960298,0.7871 -1.122118,2.1003 -0.50556,3.2402 -0.07452,-0.8281 0.207879,-1.6255 0.876112,-2.1731 1.252306,-1.0265 3.347969,-0.7791 4.680929,0.5496 0.09903,0.099 0.192418,0.1952 0.277444,0.2998 -0.147419,-0.5011 -0.437412,-0.9941 -0.865321,-1.4207 -1.262016,-1.2579 -3.261293,-1.4812 -4.463604,-0.4958 z"
       id="path2996"
       inkscape:connector-curvature="0" />
    <path
       sodipodi:type="star"
       style="fill:#4d4d4d;fill-opacity:1;fill-rule:evenodd;stroke:none"
       id="path3769"
       sodipodi:sides="3"
       sodipodi:cx="-6.0104079"
       sodipodi:cy="27.493902"
       sodipodi:r1="5.4270735"
       sodipodi:r2="2.7135367"
       sodipodi:arg1="2.6123459"
       sodipodi:arg2="3.6595434"
       inkscape:flatsided="false"
       inkscape:rounded="0"
       inkscape:randomized="0"
       d="m -10.694991,30.233941 2.3269658,-4.083513 2.3269654,-4.083513 2.3729431,4.056968 2.3729432,4.056967 -4.6999084,0.02655 z"
       transform="matrix(0.43077323,-6.2986598e-4,6.2986867e-4,0.43077139,19.538916,1033.2825)"
       inkscape:transform-center-x="-0.019291053"
       inkscape:transform-center-y="-1.3400265" />
  </g>
</svg>
