<?xml version="1.0" encoding="UTF-8" standalone="no"?>
<!-- Created with Inkscape (http://www.inkscape.org/) -->

<svg
   xmlns:dc="http://purl.org/dc/elements/1.1/"
   xmlns:cc="http://creativecommons.org/ns#"
   xmlns:rdf="http://www.w3.org/1999/02/22-rdf-syntax-ns#"
   xmlns:svg="http://www.w3.org/2000/svg"
   xmlns="http://www.w3.org/2000/svg"
   xmlns:sodipodi="http://sodipodi.sourceforge.net/DTD/sodipodi-0.dtd"
   xmlns:inkscape="http://www.inkscape.org/namespaces/inkscape"
   width="256"
   height="256"
   id="svg3792"
   version="1.1"
   inkscape:version="0.48.5 r10040"
   sodipodi:docname="eog-plugin.svg"
   inkscape:export-filename="/home/oleg/.kde/share/icons/K-High-Delight/actions/128/eog-plugin.png"
   inkscape:export-xdpi="45"
   inkscape:export-ydpi="45">
  <defs
     id="defs3794" />
  <sodipodi:namedview
     id="base"
     pagecolor="#ffffff"
     bordercolor="#666666"
     borderopacity="1.0"
     inkscape:pageopacity="0.0"
     inkscape:pageshadow="2"
     inkscape:zoom="2.0859375"
     inkscape:cx="47.220977"
     inkscape:cy="128"
     inkscape:document-units="px"
     inkscape:current-layer="layer1"
     showgrid="false"
     inkscape:window-width="1920"
     inkscape:window-height="1031"
     inkscape:window-x="-4"
     inkscape:window-y="32"
     inkscape:window-maximized="1" />
  <metadata
     id="metadata3797">
    <rdf:RDF>
      <cc:Work
         rdf:about="">
        <dc:format>image/svg+xml</dc:format>
        <dc:type
           rdf:resource="http://purl.org/dc/dcmitype/StillImage" />
        <dc:title />
      </cc:Work>
    </rdf:RDF>
  </metadata>
  <g
     inkscape:label="Layer 1"
     inkscape:groupmode="layer"
     id="layer1"
     transform="translate(0,-796.36218)">
    <path
       inkscape:connector-curvature="0"
       id="path2848"
       style="color:#000000;fill:#1be46c;fill-opacity:1;fill-rule:nonzero;stroke:none;stroke-width:5.50000000000000000;marker-start:none;marker-mid:none;marker-end:none"
       d="m 148.64706,834.36216 c -6.00142,0 -20.64706,4.56738 -20.64706,16.15385 0,6.096 4.7213,13.458 4.58823,25.38461 H 91.29412 v 55.38461 C 79.107765,931.47446 69.952401,917.24986 63.764707,917.43908 52.178495,917.79908 50,930.316 50,936.31139 c 0,17.99076 6.761224,22.62 18.352942,22.66615 8.437764,0 8.130352,-4.80461 22.941178,-4.61539 v 60.00005 h 45.88235 c 0,-14.99074 -13.7647,-18.00004 -13.7647,-30.00004 0,-8.9954 4.76258,-11.53846 13.7647,-11.53846 14.63189,0 27.52942,1.84615 27.52942,13.84616 0,7.3754 -4.58825,15.69694 -4.58825,27.69234 H 206 V 940.516 c -18.34835,0 -20.64707,9.23077 -29.82353,9.23077 -11.58988,0 -20.64706,-7.39384 -20.64706,-25.38461 0,-9.23077 6.76306,-16.15384 18.35293,-16.15384 11.99825,0 10.76402,9.23076 32.11766,9.23076 v -41.53846 h -50.47059 c -0.21564,-14.70969 13.8473,-20.98892 13.76471,-30 -0.19729,-11.58461 -11.64493,-11.53846 -20.64706,-11.53846 z"
       stroke-miterlimit="4" />
  </g>
</svg>
