<?xml version="1.0" encoding="UTF-8" standalone="no"?>
<!-- Created with Inkscape (http://www.inkscape.org/) -->

<svg
   xmlns:dc="http://purl.org/dc/elements/1.1/"
   xmlns:cc="http://creativecommons.org/ns#"
   xmlns:rdf="http://www.w3.org/1999/02/22-rdf-syntax-ns#"
   xmlns:svg="http://www.w3.org/2000/svg"
   xmlns="http://www.w3.org/2000/svg"
   xmlns:xlink="http://www.w3.org/1999/xlink"
   xmlns:sodipodi="http://sodipodi.sourceforge.net/DTD/sodipodi-0.dtd"
   xmlns:inkscape="http://www.inkscape.org/namespaces/inkscape"
   width="256"
   height="256"
   id="svg2"
   version="1.1"
   inkscape:version="0.48.5 r10040"
   sodipodi:docname="jamendo.svg">
  <defs
     id="defs4">
    <linearGradient
       id="linearGradient5076">
      <stop
         style="stop-color:#c1c1c1;stop-opacity:1;"
         offset="0"
         id="stop5078" />
      <stop
         style="stop-color:#f1f1f1;stop-opacity:1;"
         offset="1"
         id="stop5080" />
    </linearGradient>
    <linearGradient
       inkscape:collect="always"
       xlink:href="#linearGradient5076"
       id="linearGradient4526"
       gradientUnits="userSpaceOnUse"
       x1="733.35999"
       y1="212.828"
       x2="811.84802"
       y2="212.828" />
    <linearGradient
       inkscape:collect="always"
       xlink:href="#linearGradient5076"
       id="linearGradient4528"
       gradientUnits="userSpaceOnUse"
       x1="733.35999"
       y1="212.828"
       x2="811.84802"
       y2="212.828" />
    <linearGradient
       inkscape:collect="always"
       xlink:href="#linearGradient5076"
       id="linearGradient4530"
       gradientUnits="userSpaceOnUse"
       x1="733.35999"
       y1="212.828"
       x2="811.84802"
       y2="212.828" />
    <linearGradient
       inkscape:collect="always"
       xlink:href="#linearGradient5076"
       id="linearGradient4534"
       gradientUnits="userSpaceOnUse"
       x1="764.164"
       y1="212.82231"
       x2="786.4989"
       y2="212.82231" />
    <linearGradient
       inkscape:collect="always"
       xlink:href="#linearGradient5076"
       id="linearGradient4536"
       gradientUnits="userSpaceOnUse"
       x1="764.164"
       y1="212.82231"
       x2="786.4989"
       y2="212.82231" />
    <linearGradient
       inkscape:collect="always"
       xlink:href="#linearGradient5076"
       id="linearGradient4538"
       gradientUnits="userSpaceOnUse"
       x1="764.164"
       y1="212.82231"
       x2="786.4989"
       y2="212.82231" />
    <linearGradient
       inkscape:collect="always"
       xlink:href="#linearGradient5076"
       id="linearGradient4540"
       gradientUnits="userSpaceOnUse"
       x1="764.164"
       y1="212.82231"
       x2="786.4989"
       y2="212.82231" />
    <linearGradient
       inkscape:collect="always"
       xlink:href="#linearGradient5076"
       id="linearGradient4542"
       gradientUnits="userSpaceOnUse"
       x1="764.164"
       y1="212.82231"
       x2="786.4989"
       y2="212.82231" />
    <linearGradient
       inkscape:collect="always"
       xlink:href="#linearGradient5076"
       id="linearGradient3826"
       gradientUnits="userSpaceOnUse"
       x1="764.164"
       y1="212.82231"
       x2="786.4989"
       y2="212.82231" />
    <linearGradient
       inkscape:collect="always"
       xlink:href="#linearGradient5076"
       id="linearGradient3828"
       gradientUnits="userSpaceOnUse"
       x1="764.164"
       y1="212.82231"
       x2="786.4989"
       y2="212.82231" />
    <linearGradient
       inkscape:collect="always"
       xlink:href="#linearGradient5076"
       id="linearGradient3830"
       gradientUnits="userSpaceOnUse"
       x1="764.164"
       y1="212.82231"
       x2="786.4989"
       y2="212.82231" />
    <linearGradient
       inkscape:collect="always"
       xlink:href="#linearGradient5076"
       id="linearGradient3832"
       gradientUnits="userSpaceOnUse"
       x1="764.164"
       y1="212.82231"
       x2="786.4989"
       y2="212.82231" />
    <linearGradient
       inkscape:collect="always"
       xlink:href="#linearGradient5076"
       id="linearGradient3840"
       gradientUnits="userSpaceOnUse"
       x1="764.164"
       y1="212.82231"
       x2="786.4989"
       y2="212.82231" />
    <linearGradient
       inkscape:collect="always"
       xlink:href="#linearGradient5076"
       id="linearGradient3842"
       gradientUnits="userSpaceOnUse"
       x1="764.164"
       y1="212.82231"
       x2="786.4989"
       y2="212.82231" />
    <linearGradient
       inkscape:collect="always"
       xlink:href="#linearGradient5076"
       id="linearGradient3844"
       gradientUnits="userSpaceOnUse"
       x1="764.164"
       y1="212.82231"
       x2="786.4989"
       y2="212.82231" />
    <linearGradient
       inkscape:collect="always"
       xlink:href="#linearGradient5076"
       id="linearGradient3851"
       gradientUnits="userSpaceOnUse"
       x1="764.164"
       y1="212.82231"
       x2="786.4989"
       y2="212.82231" />
    <linearGradient
       inkscape:collect="always"
       xlink:href="#linearGradient5076"
       id="linearGradient3853"
       gradientUnits="userSpaceOnUse"
       x1="764.164"
       y1="212.82231"
       x2="786.4989"
       y2="212.82231" />
    <linearGradient
       inkscape:collect="always"
       xlink:href="#linearGradient5076"
       id="linearGradient3859"
       gradientUnits="userSpaceOnUse"
       x1="764.164"
       y1="212.82231"
       x2="786.4989"
       y2="212.82231" />
  </defs>
  <sodipodi:namedview
     id="base"
     pagecolor="#ffffff"
     bordercolor="#666666"
     borderopacity="1.0"
     inkscape:pageopacity="0.0"
     inkscape:pageshadow="2"
     inkscape:zoom="2.1210938"
     inkscape:cx="50.917129"
     inkscape:cy="128"
     inkscape:document-units="px"
     inkscape:current-layer="layer1"
     showgrid="false"
     inkscape:window-width="1920"
     inkscape:window-height="1031"
     inkscape:window-x="-4"
     inkscape:window-y="32"
     inkscape:window-maximized="1" />
  <metadata
     id="metadata7">
    <rdf:RDF>
      <cc:Work
         rdf:about="">
        <dc:format>image/svg+xml</dc:format>
        <dc:type
           rdf:resource="http://purl.org/dc/dcmitype/StillImage" />
        <dc:title />
      </cc:Work>
    </rdf:RDF>
  </metadata>
  <g
     inkscape:label="Layer 1"
     inkscape:groupmode="layer"
     id="layer1"
     transform="translate(0,-796.36218)">
    <path
       id="path3958"
       style="fill:#4d4d4d;fill-opacity:1;stroke:none"
       d="m 103.47032,897.01525 0.0756,51.92228 c -0.55041,13.31844 10.45078,8.34392 10.45078,8.34392 l 0,0 37.00309,-26.12488 c 8.26292,-5.90855 0.0756,-11.02144 0.0756,-11.02144 l 0,0 -33.39797,-29.44811 c -2.61214,-1.58439 -4.75869,-2.20709 -6.51539,-2.20709 l 0,0 c -6.50163,0 -7.6919,8.53532 -7.6919,8.53532 M 62.570893,865.31369 C 46.191834,880.61777 38,900.34978 38,924.51899 l 0,0 c 0,24.18533 8.088614,43.86892 24.256702,59.06 l 0,0 c 16.170367,15.19099 37.980078,22.78321 65.424518,22.78321 l 0,0 c 27.43988,0 49.35048,-7.59222 65.73872,-22.78321 l 0,0 C 209.7967,968.38791 218,948.70432 218,924.51899 l 0,0 c 0,-24.16921 -8.08864,-43.90122 -24.26128,-59.2053 l 0,0 c -16.16809,-15.29948 -37.9778,-22.95151 -65.41534,-22.95151 l 0,0 c -27.45364,0 -49.375708,7.65203 -65.752487,22.95151 M 84.59157,964.00148 C 74.168321,953.94407 68.960141,940.78244 68.960141,924.51899 l 0,0 c 0,-16.47104 5.16004,-29.7318 15.480069,-39.79384 l 0,0 c 10.315473,-10.05283 24.83464,-15.08729 43.5575,-15.08729 l 0,0 c 18.93614,0 33.56308,4.97912 43.88313,14.93047 l 0,0 c 10.32006,9.94903 15.48008,23.26975 15.48008,39.95066 l 0,0 c 0,16.26345 -5.2701,29.42508 -15.80116,39.48249 l 0,0 c -10.5356,10.05283 -25.05477,15.07578 -43.56205,15.07578 l 0,0 c -18.50728,0 -32.98517,-5.02295 -43.40614,-15.07578"
       inkscape:connector-curvature="0" />
  </g>
</svg>
