<?xml version="1.0" encoding="UTF-8" standalone="no"?>
<!-- Created with Inkscape (http://www.inkscape.org/) -->

<svg
   xmlns:dc="http://purl.org/dc/elements/1.1/"
   xmlns:cc="http://creativecommons.org/ns#"
   xmlns:rdf="http://www.w3.org/1999/02/22-rdf-syntax-ns#"
   xmlns:svg="http://www.w3.org/2000/svg"
   xmlns="http://www.w3.org/2000/svg"
   xmlns:sodipodi="http://sodipodi.sourceforge.net/DTD/sodipodi-0.dtd"
   xmlns:inkscape="http://www.inkscape.org/namespaces/inkscape"
   width="256"
   height="256"
   id="svg5282"
   version="1.1"
   inkscape:version="0.48.5 r10040"
   sodipodi:docname="kt-upnp.svg">
  <defs
     id="defs5284" />
  <sodipodi:namedview
     id="base"
     pagecolor="#ffffff"
     bordercolor="#666666"
     borderopacity="1.0"
     inkscape:pageopacity="0.0"
     inkscape:pageshadow="2"
     inkscape:zoom="2.1210938"
     inkscape:cx="119.74954"
     inkscape:cy="128"
     inkscape:document-units="px"
     inkscape:current-layer="layer1"
     showgrid="false"
     inkscape:window-width="1920"
     inkscape:window-height="1035"
     inkscape:window-x="-4"
     inkscape:window-y="29"
     inkscape:window-maximized="1" />
  <metadata
     id="metadata5287">
    <rdf:RDF>
      <cc:Work
         rdf:about="">
        <dc:format>image/svg+xml</dc:format>
        <dc:type
           rdf:resource="http://purl.org/dc/dcmitype/StillImage" />
        <dc:title />
      </cc:Work>
    </rdf:RDF>
  </metadata>
  <g
     inkscape:label="Layer 1"
     inkscape:groupmode="layer"
     id="layer1"
     transform="translate(0,-796.3622)">
    <path
       style="font-size:medium;font-style:normal;font-variant:normal;font-weight:normal;font-stretch:normal;text-indent:0;text-align:start;text-decoration:none;line-height:normal;letter-spacing:normal;word-spacing:normal;text-transform:none;direction:ltr;block-progression:tb;writing-mode:lr-tb;text-anchor:start;baseline-shift:baseline;color:#000000;fill:#585858;fill-opacity:1;fill-rule:nonzero;stroke:none;stroke-width:6;marker:none;visibility:visible;display:inline;overflow:visible;enable-background:new;font-family:Sans;-inkscape-font-specification:Sans"
       d="m 102.71775,856.8622 c -3.598858,0 -6.441524,2.98298 -6.441524,6.47795 l 0,28.02479 12.883064,0 0,-21.72583 95.95768,0 0,59.99755 -42.48993,0 0,24.83084 12.15727,0 c 1.0698,0 2.02977,-0.15 2.99394,-0.54 0.4821,-0.2 0.9994,-0.43 1.5121,-0.93 0.5125,-0.49 1.0887,-1.38 1.0887,-2.5 0,-0.87 -0.4223,-1.82 -0.9375,-2.382 -0.5153,-0.57 -1.05225,-0.85 -1.54233,-1.065 -0.76,-0.32 -1.5127,-0.34 -2.29839,-0.42 l 0,0 c 0,0 -0.8823,-0.2799 -1.69354,-0.6899 -0.32,-0.16 -0.5372,-0.3 -0.6956,-0.42 l 0,-3.07203 38.37703,0 c 3.561,0 6.41128,-2.96898 6.41128,-6.44996 l 0,-72.62346 c 0,-3.47297 -2.8047,-6.47895 -6.41128,-6.47895 l -108.871,0 z M 44.411286,894.25792 C 40.823736,894.25792 38,897.2549 38,900.73787 l 0,72.59343 c 0,3.491 2.824936,6.48 6.411286,6.48 l 38.377027,0 0,3.074 c -0.1593,0.15 -0.34665,0.25 -0.66525,0.42 -0.81345,0.42 -1.723785,0.69 -1.723785,0.69 -0.8007,0 -1.56108,0.15 -2.32863,0.48 -0.4929,0.21 -1.04535,0.53 -1.542345,1.0949 -0.49695,0.57 -0.877051,1.485 -0.877051,2.322 0,1.095 0.572401,2.002 1.088701,2.5 0.5163,0.49 1.00005,0.73 1.48185,0.93 0.9636,0.39 1.941,0.54 2.99394,0.54 l 35.262117,0 c 1.053,0 2.03078,-0.15 2.99395,-0.51 0.4817,-0.2 0.9609,-0.43 1.48185,-0.93 0.521,-0.5 1.119,-1.425 1.119,-2.532 0,-0.87 -0.4033,-1.789 -0.9072,-2.349 -0.504,-0.5499 -1.0509,-0.8499 -1.54235,-1.0649 -0.7653,-0.33 -1.52782,-0.4 -2.32862,-0.48 0,0 -0.8883,-0.28 -1.69355,-0.69 -0.31545,-0.16 -0.5082,-0.3 -0.66525,-0.42 l 0,-3.075 38.37703,0 c 3.59406,0 6.41128,-2.991 6.41128,-6.478 l 0,-72.59543 c 0,-3.47997 -2.81601,-6.47795 -6.41128,-6.47795 l -108.901239,0 z m 6.471782,12.74691 95.957672,0 0,60.02857 -95.957672,0 0,-60.02857 z"
       id="path3759"
       inkscape:connector-curvature="0" />
  </g>
</svg>
