<?xml version="1.0" encoding="UTF-8" standalone="no"?>
<!-- Generator: Adobe Illustrator 14.0.0, SVG Export Plug-In . SVG Version: 6.00 Build 43363)  -->

<svg
   xmlns:dc="http://purl.org/dc/elements/1.1/"
   xmlns:cc="http://creativecommons.org/ns#"
   xmlns:rdf="http://www.w3.org/1999/02/22-rdf-syntax-ns#"
   xmlns:svg="http://www.w3.org/2000/svg"
   xmlns="http://www.w3.org/2000/svg"
   xmlns:sodipodi="http://sodipodi.sourceforge.net/DTD/sodipodi-0.dtd"
   xmlns:inkscape="http://www.inkscape.org/namespaces/inkscape"
   version="1.1"
   id="Layer_1"
   x="0px"
   y="0px"
   width="256"
   height="256"
   viewBox="0 0 256 256"
   enable-background="new 0 0 330 63"
   xml:space="preserve"
   inkscape:version="0.48.5 r10040"
   sodipodi:docname="magnatune.svg"><metadata
     id="metadata71"><rdf:RDF><cc:Work
         rdf:about=""><dc:format>image/svg+xml</dc:format><dc:type
           rdf:resource="http://purl.org/dc/dcmitype/StillImage" /><dc:title /></cc:Work></rdf:RDF></metadata><defs
     id="defs69" /><sodipodi:namedview
     pagecolor="#ffffff"
     bordercolor="#666666"
     borderopacity="1"
     objecttolerance="10"
     gridtolerance="10"
     guidetolerance="10"
     inkscape:pageopacity="0"
     inkscape:pageshadow="2"
     inkscape:window-width="1920"
     inkscape:window-height="1035"
     id="namedview67"
     showgrid="false"
     inkscape:zoom="2.1210938"
     inkscape:cx="119.74954"
     inkscape:cy="128"
     inkscape:window-x="-4"
     inkscape:window-y="29"
     inkscape:window-maximized="1"
     inkscape:current-layer="Layer_1" /><path
     id="path65"
     style="fill:#585858;fill-opacity:1"
     d="m 172.78188,165.01462 c 0,5.82435 -4.71479,10.5393 -10.53895,10.5393 l 0,0 c -5.80683,0 -10.5274,-4.71495 -10.5274,-10.5393 v -44.79198 c 0,-5.80123 4.72057,-10.52773 10.5274,-10.52773 l 0,0 c 5.82416,0 10.53895,4.7265 10.53895,10.52773 v 44.79198 z m -69.35832,0 c 0,5.82435 -4.726352,10.5393 -10.55051,10.5393 l 0,0 c -5.806826,0 -10.527398,-4.71495 -10.527398,-10.5393 v -44.79198 c 0,-5.80123 4.720572,-10.52773 10.527398,-10.52773 l 0,0 c 5.824158,0 10.55051,4.7265 10.55051,10.52773 v 44.79198 z m 34.67915,0 c 0,5.82435 -4.72058,10.5393 -10.54473,10.5393 l 0,0 c -5.80683,0 -10.52739,-4.71495 -10.52739,-10.5393 V 80.723396 c 0,-5.824345 4.71478,-10.539292 10.52739,-10.539292 l 0,0 c 5.82415,0 10.54473,4.714947 10.54473,10.539292 V 165.01462 z M 38,127.98843 C 38,177.6225 78.376211,218 127.99711,218 177.62379,218 218,177.6225 218,127.98843 218,78.377479 177.6238,37.999973 127.99711,37.999973 78.376211,37.999973 38,78.377479 38,127.98843 z m 18.206274,0 c 0,-39.59169 32.20621,-71.787377 71.790836,-71.787377 39.58462,0 71.80818,32.195687 71.80818,71.787377 0,39.60902 -32.22355,71.81048 -71.80817,71.81048 -39.584636,0 -71.790846,-32.20146 -71.790846,-71.81048 z"
     inkscape:connector-curvature="0" /></svg>