<?xml version="1.0" encoding="UTF-8" standalone="no"?>
<!-- Created with Inkscape (http://www.inkscape.org/) -->

<svg
   xmlns:dc="http://purl.org/dc/elements/1.1/"
   xmlns:cc="http://creativecommons.org/ns#"
   xmlns:rdf="http://www.w3.org/1999/02/22-rdf-syntax-ns#"
   xmlns:svg="http://www.w3.org/2000/svg"
   xmlns="http://www.w3.org/2000/svg"
   xmlns:sodipodi="http://sodipodi.sourceforge.net/DTD/sodipodi-0.dtd"
   xmlns:inkscape="http://www.inkscape.org/namespaces/inkscape"
   width="256"
   height="256"
   id="svg5168"
   version="1.1"
   inkscape:version="0.48.5 r10040"
   sodipodi:docname="package-new.svg">
  <defs
     id="defs5170" />
  <sodipodi:namedview
     id="base"
     pagecolor="#ffffff"
     bordercolor="#666666"
     borderopacity="1.0"
     inkscape:pageopacity="0.0"
     inkscape:pageshadow="2"
     inkscape:zoom="2.1210938"
     inkscape:cx="50.917129"
     inkscape:cy="128.23573"
     inkscape:document-units="px"
     inkscape:current-layer="layer1"
     showgrid="false"
     inkscape:window-width="1920"
     inkscape:window-height="1031"
     inkscape:window-x="-4"
     inkscape:window-y="32"
     inkscape:window-maximized="1" />
  <metadata
     id="metadata5173">
    <rdf:RDF>
      <cc:Work
         rdf:about="">
        <dc:format>image/svg+xml</dc:format>
        <dc:type
           rdf:resource="http://purl.org/dc/dcmitype/StillImage" />
        <dc:title />
      </cc:Work>
    </rdf:RDF>
  </metadata>
  <g
     inkscape:label="Layer 1"
     inkscape:groupmode="layer"
     id="layer1"
     transform="translate(0,-796.36218)">
    <path
       style="fill:#3daee9;fill-opacity:1;stroke:none"
       d="M 128 38 C 78.294373 38 38 78.294374 38 128 C 38 177.70564 78.294373 218 128 218 C 177.70563 218 218 177.70564 218 128 C 218 78.294374 177.70563 38 128 38 z M 128 79 L 144.40625 110.375 L 179 116.4375 L 154.5 141.875 L 159.5 177 L 128 161.34375 L 96.46875 176.96875 L 101.46875 141.875 L 77 116.40625 L 111.625 110.375 L 128 79 z "
       transform="translate(0,796.36218)"
       id="path5684" />
    <path
       style="fill:#f9f9f9;fill-opacity:1;stroke:#64b2e1;stroke-width:0.04714549000000000;stroke-miterlimit:4;stroke-opacity:1;stroke-dasharray:none"
       d="m 96.948141,175.06271 c 0.135339,-0.86202 1.261169,-8.71882 2.501846,-17.45956 l 2.255773,-15.89224 -9.388421,-9.72311 C 82.065742,121.37076 77.769256,116.71339 78.039566,116.51079 c 0.09614,-0.0721 7.38806,-1.36485 16.204266,-2.87286 8.816208,-1.50801 16.453778,-2.90775 16.972378,-3.11053 0.62696,-0.24516 3.54948,-5.43206 8.72191,-15.479707 4.27845,-8.311054 7.88508,-15.114494 8.01473,-15.118756 0.12965,-0.0043 3.83747,6.872968 8.23958,15.282733 4.40212,8.40976 8.32699,15.3718 8.72192,15.4712 0.39494,0.0994 7.98393,1.43752 16.86444,2.9736 8.88051,1.53609 16.14681,2.97614 16.14733,3.20011 4.7e-4,0.22398 -5.32242,5.89089 -11.82877,12.59314 l -11.82972,12.18592 2.4031,17.10852 c 1.3217,9.40968 2.40198,17.26825 2.40062,17.46349 -0.001,0.19524 -7.00358,-3.14682 -15.56048,-7.4268 l -15.55802,-7.78178 -15.62539,7.81548 -15.625388,7.81548 0.246069,-1.56732 0,0 z"
       id="path3751"
       inkscape:connector-curvature="0"
       transform="translate(0,796.36218)" />
  </g>
</svg>
