<?xml version="1.0" encoding="UTF-8" standalone="no"?>
<!-- Created with Inkscape (http://www.inkscape.org/) -->

<svg
   xmlns:dc="http://purl.org/dc/elements/1.1/"
   xmlns:cc="http://creativecommons.org/ns#"
   xmlns:rdf="http://www.w3.org/1999/02/22-rdf-syntax-ns#"
   xmlns:svg="http://www.w3.org/2000/svg"
   xmlns="http://www.w3.org/2000/svg"
   xmlns:sodipodi="http://sodipodi.sourceforge.net/DTD/sodipodi-0.dtd"
   xmlns:inkscape="http://www.inkscape.org/namespaces/inkscape"
   width="22"
   height="22"
   id="svg3760"
   version="1.1"
   inkscape:version="0.91 r13725"
   sodipodi:docname="practice-setup.svg">
  <defs
     id="defs3762" />
  <sodipodi:namedview
     id="base"
     pagecolor="#ffffff"
     bordercolor="#666666"
     borderopacity="1.0"
     inkscape:pageopacity="0.0"
     inkscape:pageshadow="2"
     inkscape:zoom="22.627417"
     inkscape:cx="8.286876"
     inkscape:cy="13.39757"
     inkscape:document-units="px"
     inkscape:current-layer="layer1"
     showgrid="true"
     fit-margin-top="0"
     fit-margin-left="0"
     fit-margin-right="0"
     fit-margin-bottom="0"
     inkscape:window-width="1920"
     inkscape:window-height="992"
     inkscape:window-x="-4"
     inkscape:window-y="26"
     inkscape:window-maximized="1"
     inkscape:showpageshadow="false"
     showguides="true">
    <inkscape:grid
       type="xygrid"
       id="grid4106"
       originx="-0.99998557px"
       originy="-1.0000252px" />
    <sodipodi:guide
       position="2.00001,19.99997"
       orientation="0,18"
       id="guide4229" />
    <sodipodi:guide
       position="20.00001,19.99997"
       orientation="18,0"
       id="guide4231" />
    <sodipodi:guide
       position="20.00001,1.99997"
       orientation="0,-18"
       id="guide4233" />
    <sodipodi:guide
       position="2.00001,1.99997"
       orientation="-18,0"
       id="guide4235" />
    <sodipodi:guide
       position="19.00001,2.99997"
       orientation="0,-16"
       id="guide4241" />
    <sodipodi:guide
       position="2.9999956,18.999992"
       orientation="6,0"
       id="guide4155" />
    <sodipodi:guide
       position="18.999996,12.999992"
       orientation="-6,0"
       id="guide4167" />
    <sodipodi:guide
       position="18.999996,18.999992"
       orientation="0,-6"
       id="guide4169" />
  </sodipodi:namedview>
  <metadata
     id="metadata3765">
    <rdf:RDF>
      <cc:Work
         rdf:about="">
        <dc:format>image/svg+xml</dc:format>
        <dc:type
           rdf:resource="http://purl.org/dc/dcmitype/StillImage" />
        <dc:title />
      </cc:Work>
    </rdf:RDF>
  </metadata>
  <g
     inkscape:label="Capa 1"
     inkscape:groupmode="layer"
     id="layer1"
     transform="translate(-551.28571,-607.64788)">
    <rect
       width="14.80332"
       height="8.9724627"
       x="555.23187"
       y="613.33942"
       style="fill:#f2f2f2;fill-opacity:1;fill-rule:evenodd;stroke:#4d4d4d;stroke-width:0.50102574;stroke-miterlimit:4;stroke-dasharray:none;stroke-dashoffset:0;stroke-opacity:1"
       id="rect22748" />
    <rect
       width="15.28905"
       height="9.2329216"
       x="554.28571"
       y="615.41498"
       style="fill:#1abc9c;fill-opacity:1;fill-rule:evenodd;stroke:none;stroke-width:0.68054122;stroke-miterlimit:4;stroke-dasharray:none;stroke-dashoffset:0;stroke-opacity:1"
       id="rect7510" />
    <g
       id="g9018"
       transform="matrix(0.14492761,0,0,0.14492365,553.96234,617.11972)">
      <path
         d="m 71.348391,12.675803 c 1.642378,-0.242034 4.928825,-3.2447981 5.92082,-7.0868487 0.04425,-0.1708787 0.145481,0.8092806 -0.02811,1.7379256 -1.004006,3.5440931 -3.380441,5.8882801 -5.113983,6.6345311 l -0.778747,-1.285608 z"
         style="fill:#4d4d4d"
         id="rect25493"
         inkscape:connector-curvature="0" />
      <path
         d="M 77.269211,5.5889543 71.942619,7.8548359 68.444831,5.2120563 c -0.394691,0.5428455 -0.178243,8.4943257 1.720101,8.3881337 3.474651,-0.194658 5.928906,-3.6467331 7.104279,-8.0112357 z"
         style="fill:#4d4d4d"
         id="path3285"
         inkscape:connector-curvature="0" />
      <path
         d="m 67.10243,-3.8514899 c -3.544223,0.2846389 -6.336475,2.6002789 -6.687736,5.4674572 -0.0024,0.012865 -1.710894,8.2339886 -3.375953,10.3802377 -1.306691,1.684823 -25.746566,22.188197 -26.936185,23.982858 -2.512609,3.790143 1.584028,9.534827 6.347788,6.528688 3.140934,-1.98199 22.589458,-24.494511 25.146612,-26.01568 1.728206,-1.028175 10.529408,-2.531204 10.529408,-2.531204 L 67.84032,3.7751204 68.136958,0.49926891 73.826752,-1.4471278 c -2.598473,-2.7290387 -6.69661,-2.406799 -6.724322,-2.4043621 z M 34.071812,35.553724 c 1.43242,-0.01251 2.750642,1.458595 2.739816,3.134731 -0.009,1.386287 -1.437313,2.769418 -2.87016,2.781851 -1.432921,0.01283 -2.82208,-1.511513 -2.841964,-3.032754 -0.01869,-1.461771 1.161469,-2.867119 2.972308,-2.883828 z"
         style="fill:#4d4d4d"
         id="path2388"
         inkscape:connector-curvature="0" />
    </g>
  </g>
</svg>
