<?xml version="1.0" encoding="UTF-8" standalone="no"?>
<!-- Created with Inkscape (http://www.inkscape.org/) -->

<svg
   xmlns:dc="http://purl.org/dc/elements/1.1/"
   xmlns:cc="http://creativecommons.org/ns#"
   xmlns:rdf="http://www.w3.org/1999/02/22-rdf-syntax-ns#"
   xmlns:svg="http://www.w3.org/2000/svg"
   xmlns="http://www.w3.org/2000/svg"
   xmlns:sodipodi="http://sodipodi.sourceforge.net/DTD/sodipodi-0.dtd"
   xmlns:inkscape="http://www.inkscape.org/namespaces/inkscape"
   width="256"
   height="256"
   id="svg5282"
   version="1.1"
   inkscape:version="0.48.5 r10040"
   sodipodi:docname="slideshow-play.svg"
   inkscape:export-filename="/home/oleg/.kde/share/icons/K-High-Delight/actions/128/slideshow-play.png"
   inkscape:export-xdpi="45"
   inkscape:export-ydpi="45">
  <defs
     id="defs5284" />
  <sodipodi:namedview
     id="base"
     pagecolor="#ffffff"
     bordercolor="#666666"
     borderopacity="1.0"
     inkscape:pageopacity="0.0"
     inkscape:pageshadow="2"
     inkscape:zoom="2.0859375"
     inkscape:cx="119.61049"
     inkscape:cy="128"
     inkscape:document-units="px"
     inkscape:current-layer="layer1"
     showgrid="false"
     inkscape:window-width="1920"
     inkscape:window-height="1035"
     inkscape:window-x="-4"
     inkscape:window-y="29"
     inkscape:window-maximized="1"
     inkscape:snap-bbox="true"
     inkscape:bbox-paths="true"
     inkscape:bbox-nodes="true"
     inkscape:snap-bbox-edge-midpoints="true"
     inkscape:snap-bbox-midpoints="true"
     inkscape:object-paths="true"
     inkscape:snap-intersection-paths="true"
     inkscape:object-nodes="true"
     inkscape:snap-smooth-nodes="true"
     inkscape:snap-midpoints="true"
     inkscape:snap-object-midpoints="true"
     inkscape:snap-center="true"
     inkscape:snap-page="true" />
  <metadata
     id="metadata5287">
    <rdf:RDF>
      <cc:Work
         rdf:about="">
        <dc:format>image/svg+xml</dc:format>
        <dc:type
           rdf:resource="http://purl.org/dc/dcmitype/StillImage" />
        <dc:title />
      </cc:Work>
    </rdf:RDF>
  </metadata>
  <g
     inkscape:label="Layer 1"
     inkscape:groupmode="layer"
     id="layer1"
     transform="translate(0,-796.36218)">
    <path
       style="fill:#585858;fill-opacity:1;stroke:none;display:inline;enable-background:new"
       d="M 43.4375 56 C 40.405934 56 38 58.57876 38 61.625 L 38 175.46875 C 38 178.51483 40.418631 181.09375 43.4375 181.09375 L 107.5625 181.09375 L 107.5625 191.4375 C 107.4808 194.52487 100.59375 196.5625 100.59375 196.5625 C 97.816373 196.71388 96.46875 197.36337 96.46875 198.3125 C 96.46875 199.26177 98.304986 200 100.59375 200 L 155.34375 200 C 157.6325 200 159.53125 199.26177 159.53125 198.3125 C 159.53125 197.36337 158.1211 196.71403 155.34375 196.5625 C 155.34375 196.5625 148.51921 194.52487 148.4375 191.4375 L 148.4375 181.09375 L 212.5625 181.09375 C 215.58137 181.09375 218 178.50274 218 175.46875 L 218 61.625 C 218 58.59093 215.59407 56 212.5625 56 L 43.4375 56 z M 50.78125 66.90625 L 205.28125 66.90625 C 206.28396 66.90625 207 67.70145 207 68.71875 L 207 168.375 C 207 169.39228 206.29786 170.125 205.28125 170.125 L 50.78125 170.125 C 49.764631 170.125 49 169.37837 49 168.375 L 49 68.71875 C 49 67.71536 49.778524 66.90625 50.78125 66.90625 z M 99.84375 78 A 4.13208 4.5488364 0 0 0 96 82.5625 L 96 153.4375 A 4.13208 4.5488364 0 0 0 102.21875 157.375 L 157.90625 121.9375 A 4.13208 4.5488364 0 0 0 160 117.78125 A 4.13208 4.5488364 0 0 0 157.90625 114.0625 L 102.21875 78.625 A 4.13208 4.5488364 0 0 0 99.84375 78 z "
       transform="translate(0,796.36218)"
       id="path2986" />
  </g>
</svg>
