<?xml version="1.0" encoding="UTF-8" standalone="no"?>
<!-- Created with Inkscape (http://www.inkscape.org/) -->

<svg
   xmlns:dc="http://purl.org/dc/elements/1.1/"
   xmlns:cc="http://creativecommons.org/ns#"
   xmlns:rdf="http://www.w3.org/1999/02/22-rdf-syntax-ns#"
   xmlns:svg="http://www.w3.org/2000/svg"
   xmlns="http://www.w3.org/2000/svg"
   xmlns:sodipodi="http://sodipodi.sourceforge.net/DTD/sodipodi-0.dtd"
   xmlns:inkscape="http://www.inkscape.org/namespaces/inkscape"
   width="22"
   height="22"
   id="svg3049"
   version="1.1"
   inkscape:version="0.91 r13725"
   sodipodi:docname="sql-field-pk.svg"
   inkscape:export-filename="/home/uri/.kde/share/icons/NITRUX-KDE/16x16/actions/view-right-new.png"
   inkscape:export-xdpi="30"
   inkscape:export-ydpi="30">
  <defs
     id="defs3051" />
  <sodipodi:namedview
     id="base"
     pagecolor="#ffffff"
     bordercolor="#666666"
     borderopacity="1.0"
     inkscape:pageopacity="0.0"
     inkscape:pageshadow="2"
     inkscape:zoom="24.833349"
     inkscape:cx="8.2869899"
     inkscape:cy="12.325998"
     inkscape:document-units="px"
     inkscape:current-layer="layer1"
     showgrid="true"
     fit-margin-top="0"
     fit-margin-left="0"
     fit-margin-right="0"
     fit-margin-bottom="0"
     inkscape:window-width="1920"
     inkscape:window-height="992"
     inkscape:window-x="-4"
     inkscape:window-y="26"
     inkscape:window-maximized="1"
     inkscape:showpageshadow="false"
     borderlayer="true">
    <sodipodi:guide
       position="2.0000044,20.00003"
       orientation="18,0"
       id="guide4067" />
    <sodipodi:guide
       position="2.0000044,2.0000296"
       orientation="0,18"
       id="guide4069" />
    <sodipodi:guide
       position="20.000004,2.0000296"
       orientation="-18,0"
       id="guide4071" />
    <sodipodi:guide
       position="20.000004,20.00003"
       orientation="0,-18"
       id="guide4073" />
    <sodipodi:guide
       position="3.0000044,19.00003"
       orientation="16,0"
       id="guide4077" />
    <sodipodi:guide
       position="3.0000044,3.0000296"
       orientation="0,16"
       id="guide4079" />
    <sodipodi:guide
       position="19.000004,3.0000296"
       orientation="-16,0"
       id="guide4081" />
    <sodipodi:guide
       position="19.000004,19.00003"
       orientation="0,-16"
       id="guide4083" />
    <inkscape:grid
       type="xygrid"
       id="grid4085" />
  </sodipodi:namedview>
  <metadata
     id="metadata3054">
    <rdf:RDF>
      <cc:Work
         rdf:about="">
        <dc:format>image/svg+xml</dc:format>
        <dc:type
           rdf:resource="http://purl.org/dc/dcmitype/StillImage" />
        <dc:title />
      </cc:Work>
    </rdf:RDF>
  </metadata>
  <g
     inkscape:label="Capa 1"
     inkscape:groupmode="layer"
     id="layer1"
     transform="translate(-421.71429,-525.79074)">
    <path
       style="fill:#545454;fill-opacity:1"
       inkscape:connector-curvature="0"
       d="m 436.14292,531.099 c -0.10546,0 -0.20911,0.007 -0.3113,0.0181 -0.0175,0.004 -0.0345,0.007 -0.0519,0.009 -0.009,0 -0.0184,0 -0.0275,0.004 -0.0244,0.004 -0.0491,0.008 -0.0733,0.012 -0.0339,0.007 -0.0673,0.014 -0.10066,0.0215 -0.0668,0.0148 -0.13359,0.0319 -0.19836,0.0519 -0.0403,0.012 -0.0797,0.0251 -0.11906,0.0396 -0.0143,0.005 -0.0285,0.009 -0.0428,0.0153 -0.0848,0.0325 -0.16706,0.0717 -0.24721,0.11292 -0.004,0.004 -0.008,0.004 -0.012,0.005 -0.0181,0.009 -0.0371,0.0177 -0.0549,0.0276 -0.0279,0.0153 -0.0552,0.0327 -0.0824,0.0488 -0.0311,0.0185 -0.0615,0.038 -0.0916,0.058 -0.005,0.004 -0.012,0.008 -0.0183,0.012 -0.0361,0.0243 -0.072,0.0472 -0.10679,0.0733 -0.003,0.004 -0.007,0.007 -0.009,0.009 -0.0393,0.0297 -0.0785,0.0597 -0.11599,0.0916 -0.008,0.007 -0.0141,0.012 -0.0213,0.0181 -0.0191,0.0165 -0.0364,0.0347 -0.0549,0.0519 -0.0107,0.009 -0.0205,0.0177 -0.0305,0.0277 -0.0157,0.0148 -0.0304,0.0305 -0.0459,0.0459 -0.028,0.028 -0.0557,0.0561 -0.0824,0.0855 -7.5e-4,0 -0.003,0 -0.003,0.004 -0.0237,0.026 -0.0476,0.0521 -0.0701,0.0793 -0.0301,0.0359 -0.0604,0.0723 -0.0885,0.10986 -0.001,0 -0.001,0.004 -0.003,0.007 -0.31823,0.42789 -0.50666,0.95818 -0.50666,1.53217 0,0.18641 0.0199,0.36836 0.058,0.54325 1.6e-4,0 -1.5e-4,0 0,0.004 0.0107,0.0485 0.0232,0.096 0.0365,0.14346 0.0163,0.0584 0.0377,0.11439 0.058,0.17094 0.003,0.009 0.005,0.0181 0.009,0.0277 0.008,0.0231 0.0152,0.0473 0.0244,0.0701 7.4e-4,0 0.003,0 0.003,0 0.0528,0.12959 0.11693,0.25425 0.18917,0.37235 -0.0704,0.0133 -0.14268,0.0177 -0.21669,0.012 -0.005,-4.1e-4 -0.0107,-0.004 -0.0153,-0.004 -0.0324,-0.004 -0.0649,-0.005 -0.0977,-0.012 -0.45822,-0.0969 -0.7502,-0.54254 -0.65313,-1.00112 0.0523,-0.24646 0.2062,-0.44293 0.40899,-0.55846 0.0329,-0.36147 0.14486,-0.71131 0.31435,-1.03161 -0.10852,-0.0388 -0.21988,-0.0731 -0.33573,-0.0977 -0.17191,-0.0363 -0.34356,-0.0537 -0.51275,-0.0549 -1.18422,-0.008 -2.25096,0.81652 -2.5056,2.02047 -0.0617,0.29146 -0.0705,0.5751 -0.0336,0.8546 l -3.30824,2.15171 c -0.13173,0.0857 -0.41987,1.16711 -0.20447,1.49858 0.21551,0.33078 1.32081,0.50716 1.45279,0.42121 l 0.21667,-0.14046 0.70808,0.1496 c 0.14059,0.0297 0.28161,-0.052 0.31131,-0.19229 l 0.14953,-0.7081 0.69891,0.14657 c 0.14064,0.0297 0.28161,-0.0551 0.31131,-0.19535 l 0.14953,-0.70504 0.69892,0.14656 c 0.1406,0.0297 0.28161,-0.0551 0.3113,-0.19536 l 0.0733,-0.34789 c 0.13566,0.0547 0.28233,0.0999 0.43035,0.13133 1.37595,0.29117 2.72717,-0.58686 3.01846,-1.96256 0.20515,-0.9694 -0.17271,-1.92605 -0.89423,-2.50865 -0.0956,0.19891 -0.16013,0.41357 -0.18918,0.63177 0.29616,0.18236 0.46072,0.53739 0.38457,0.89729 -0.0245,0.11613 -0.0735,0.22053 -0.13733,0.31135 -0.0164,0.0169 -0.0273,0.0329 -0.0365,0.0488 -7.5e-4,0 -0.003,0 -0.003,0.004 -0.0277,0.0335 -0.0592,0.0629 -0.0916,0.0916 -0.0739,-0.11599 -0.13882,-0.23941 -0.18916,-0.36931 -0.0656,-0.16945 -0.10813,-0.34992 -0.12826,-0.53711 -10e-4,-0.0153 -0.004,-0.0305 -0.007,-0.0459 -7.6e-4,-0.012 -0.003,-0.0243 -0.003,-0.0367 -0.003,-0.048 -0.007,-0.0948 -0.007,-0.14351 0,-0.52692 0.19415,-1.00837 0.51276,-1.37949 0.0344,-0.04 0.0697,-0.0785 0.10679,-0.116 0.004,-0.004 0.008,-0.008 0.012,-0.012 0.0373,-0.0371 0.0761,-0.0728 0.11599,-0.10679 0.008,-0.007 0.016,-0.0144 0.0244,-0.0215 0.0717,-0.0595 0.14663,-0.11212 0.22584,-0.16177 0.0232,-0.0144 0.0464,-0.0289 0.0703,-0.0428 0.003,0 0.004,0 0.007,-0.004 0.0233,-0.0133 0.0463,-0.0272 0.0701,-0.0396 0.012,-0.007 0.0248,-0.012 0.0365,-0.0181 0.0348,-0.0173 0.0709,-0.0335 0.1068,-0.0488 0.003,0 0.005,0 0.009,-0.004 0.005,-0.004 0.0107,-0.004 0.0153,-0.007 0.0897,-0.0371 0.18235,-0.0699 0.27773,-0.0947 0.0133,-0.004 0.0267,-0.007 0.0397,-0.009 0.0893,-0.0215 0.18133,-0.0363 0.27468,-0.0459 0.0305,-0.004 0.0607,-0.008 0.0915,-0.009 0.0417,-0.004 0.0828,-0.004 0.1252,-0.004 1.17044,0 2.11819,0.95038 2.11819,2.12123 0,0.0388 -7.5e-4,0.0779 -0.003,0.116 -7.5e-4,0.0153 -0.003,0.0305 -0.003,0.0459 -4.1e-4,0.007 -0.003,0.012 -0.003,0.0181 -0.004,0.0467 -0.008,0.0916 -0.0153,0.13733 -10e-4,0.007 -0.003,0.014 -0.003,0.0215 -0.003,0.0133 -0.007,0.0264 -0.009,0.0396 -0.0107,0.06 -0.0208,0.12199 -0.0365,0.18007 -0.003,0.007 -0.004,0.0144 -0.007,0.0215 -0.008,0.028 -0.0183,0.0548 -0.0275,0.0824 -0.012,0.0351 -0.0233,0.0695 -0.0365,0.10373 -0.0264,0.0679 -0.0555,0.13418 -0.0885,0.1984 -0.0133,0.0256 -0.0256,0.0513 -0.0397,0.0763 -0.11013,0.19433 -0.25165,0.36877 -0.4149,0.51888 l 0,0.004 c -0.16776,0.15398 -0.35972,0.28173 -0.5709,0.37541 0.0335,0.15031 0.0563,0.30413 0.0641,0.45777 0.17971,-0.0691 0.3491,-0.15979 0.50667,-0.26564 7.4e-4,0 0.003,0 0.003,0 0.0853,-0.0573 0.16651,-0.11919 0.24415,-0.18615 0.0187,-0.016 0.0367,-0.0321 0.0549,-0.0488 0.0199,-0.0181 0.0387,-0.0363 0.058,-0.0549 0.008,-0.008 0.0137,-0.0169 0.0213,-0.0243 0.0293,-0.0293 0.0576,-0.058 0.0855,-0.0885 0.0323,-0.0355 0.0644,-0.0697 0.0947,-0.10679 0.003,-0.004 0.004,-0.005 0.007,-0.009 0.0151,-0.0185 0.0281,-0.0388 0.0428,-0.058 0.0165,-0.0219 0.036,-0.0419 0.0519,-0.0641 0.005,-0.007 0.0107,-0.014 0.0153,-0.0215 0.0245,-0.0351 0.0475,-0.0705 0.0701,-0.10692 0.001,0 0.001,-0.004 0.003,-0.007 0.0263,-0.0423 0.0524,-0.0843 0.0763,-0.12826 0.003,-0.007 0.005,-0.012 0.009,-0.0181 0.0457,-0.0853 0.0861,-0.17478 0.12213,-0.26565 0.0107,-0.0264 0.0209,-0.0525 0.0305,-0.0793 0.008,-0.0227 0.0169,-0.0441 0.0244,-0.0671 10e-4,-0.004 10e-4,-0.008 0.003,-0.012 0.0147,-0.0459 0.0275,-0.0935 0.0397,-0.14041 0.004,-0.016 0.008,-0.0327 0.012,-0.0488 0.003,-0.008 0.004,-0.016 0.007,-0.0244 0.009,-0.0412 0.0171,-0.0833 0.0244,-0.12519 0.007,-0.0396 0.0133,-0.0789 0.0183,-0.11906 0.005,-0.0404 0.009,-0.0809 0.012,-0.12199 7.4e-4,-0.0133 0.003,-0.0268 0.003,-0.0396 0.003,-0.0547 0.007,-0.10933 0.007,-0.16487 0,-1.41884 -1.15094,-2.56962 -2.56966,-2.56962 m -0.40897,3.20461 c 0.0171,0.0988 0.0277,0.19803 0.0336,0.29909 0.19973,1.87564 -1.74475,3.52265 -3.55885,3.07047 -0.0323,0.0503 -0.0725,0.0965 -0.116,0.14041 0.004,0.005 0.008,0.009 0.012,0.0153 l -1.78847,3.51892 c -0.0712,0.14008 0.22157,1.2183 0.57377,1.39769 0.35205,0.17864 1.39656,-0.21966 1.46805,-0.3602 l 0.11906,-0.23189 0.68671,-0.2228 c 0.13664,-0.0445 0.21839,-0.19031 0.17399,-0.32661 l -0.22587,-0.68671 0.67754,-0.21969 c 0.1366,-0.0445 0.21843,-0.19033 0.17396,-0.32657 l -0.22279,-0.68672 0.67755,-0.21974 c 0.13667,-0.0444 0.21536,-0.18719 0.17094,-0.32351 l -0.10986,-0.33879 c 0.14482,-0.0207 0.29568,-0.0539 0.43951,-0.10079 1.33724,-0.43584 2.06854,-1.87386 1.63284,-3.21066 -0.15808,-0.48505 -0.44889,-0.88851 -0.81797,-1.18723 m -5.24933,1.48637 c 0.0748,0.17667 0.16901,0.34212 0.28078,0.49747 l -2.80179,1.83426 c -0.13173,0.0857 -0.31409,0.0463 -0.39982,-0.0855 -0.086,-0.13212 -0.0464,-0.31374 0.0855,-0.39983 l 2.83531,-1.84647 m 2.11218,2.52097 c 0.15307,0.11559 0.317,0.21145 0.4914,0.28994 l -1.51074,2.98793 c -0.0712,0.14009 -0.24751,0.19944 -0.38762,0.12826 -0.14053,-0.0715 -0.19923,-0.24712 -0.12826,-0.38758 l 1.53521,-3.0185"
       id="path496" />
  </g>
</svg>
