<?xml version="1.0" encoding="UTF-8" standalone="no"?>
<!-- Created with Inkscape (http://www.inkscape.org/) -->

<svg
   xmlns:dc="http://purl.org/dc/elements/1.1/"
   xmlns:cc="http://creativecommons.org/ns#"
   xmlns:rdf="http://www.w3.org/1999/02/22-rdf-syntax-ns#"
   xmlns:svg="http://www.w3.org/2000/svg"
   xmlns="http://www.w3.org/2000/svg"
   xmlns:sodipodi="http://sodipodi.sourceforge.net/DTD/sodipodi-0.dtd"
   xmlns:inkscape="http://www.inkscape.org/namespaces/inkscape"
   width="22"
   height="22"
   id="svg3049"
   version="1.1"
   inkscape:version="0.48.5 r10040"
   sodipodi:docname="view-certificate-import.svg"
   inkscape:export-filename="/home/uri/.kde/share/icons/NITRUX-KDE/16x16/actions/view-right-new.png"
   inkscape:export-xdpi="30"
   inkscape:export-ydpi="30">
  <defs
     id="defs3051" />
  <sodipodi:namedview
     id="base"
     pagecolor="#ffffff"
     bordercolor="#666666"
     borderopacity="1.0"
     inkscape:pageopacity="0.0"
     inkscape:pageshadow="2"
     inkscape:zoom="17.598537"
     inkscape:cx="-21.798316"
     inkscape:cy="11.062393"
     inkscape:document-units="px"
     inkscape:current-layer="layer1"
     showgrid="true"
     fit-margin-top="0"
     fit-margin-left="0"
     fit-margin-right="0"
     fit-margin-bottom="0"
     inkscape:window-width="1920"
     inkscape:window-height="1031"
     inkscape:window-x="-4"
     inkscape:window-y="32"
     inkscape:window-maximized="1"
     inkscape:showpageshadow="false"
     borderlayer="true">
    <sodipodi:guide
       position="2.0000044,20.00003"
       orientation="18,0"
       id="guide4067" />
    <sodipodi:guide
       position="2.0000044,2.0000296"
       orientation="0,18"
       id="guide4069" />
    <sodipodi:guide
       position="20.000004,2.0000296"
       orientation="-18,0"
       id="guide4071" />
    <sodipodi:guide
       position="20.000004,20.00003"
       orientation="0,-18"
       id="guide4073" />
    <sodipodi:guide
       position="3.0000044,19.00003"
       orientation="16,0"
       id="guide4077" />
    <sodipodi:guide
       position="3.0000044,3.0000296"
       orientation="0,16"
       id="guide4079" />
    <sodipodi:guide
       position="19.000004,3.0000296"
       orientation="-16,0"
       id="guide4081" />
    <sodipodi:guide
       position="19.000004,19.00003"
       orientation="0,-16"
       id="guide4083" />
    <inkscape:grid
       type="xygrid"
       id="grid4085" />
  </sodipodi:namedview>
  <metadata
     id="metadata3054">
    <rdf:RDF>
      <cc:Work
         rdf:about="">
        <dc:format>image/svg+xml</dc:format>
        <dc:type
           rdf:resource="http://purl.org/dc/dcmitype/StillImage" />
        <dc:title />
      </cc:Work>
    </rdf:RDF>
  </metadata>
  <g
     inkscape:label="Capa 1"
     inkscape:groupmode="layer"
     id="layer1"
     transform="translate(-421.71429,-525.79074)">
    <path
       inkscape:connector-curvature="0"
       style="fill:#4d4d4d;fill-opacity:1"
       d="m 430.21793,529.17868 c -0.50513,0 -0.93705,0.27819 -1.13471,0.68815 -0.388,-0.26356 -0.92242,-0.30747 -1.36165,-0.0733 -0.43926,0.23427 -0.67352,0.68083 -0.62959,1.12006 -0.46853,-0.0365 -0.95902,0.17561 -1.20792,0.57835 -0.25623,0.40996 -0.20499,0.90776 0.0806,1.26648 -0.43925,0.18292 -0.74672,0.57833 -0.74672,1.05419 0,0.46852 0.30747,0.87116 0.74672,1.04685 -0.28552,0.35873 -0.33676,0.86385 -0.0806,1.26649 0.2489,0.40996 0.73939,0.62226 1.20792,0.58565 -0.0439,0.43193 0.19033,0.88582 0.62959,1.12008 0.19033,0.10252 0.40996,0.14637 0.62225,0.14637 l 0,4.94149 1.87411,-1.73501 1.87411,1.73501 0,-4.94149 c 0.21229,0 0.43192,-0.0439 0.62225,-0.14637 0.43924,-0.23426 0.6735,-0.68815 0.62959,-1.12008 0.46853,0.0365 0.95902,-0.1756 1.20792,-0.58565 0.25623,-0.40264 0.20497,-0.90776 -0.0806,-1.26649 0.43924,-0.1756 0.74672,-0.57833 0.74672,-1.04685 0,-0.47586 -0.30748,-0.87118 -0.74672,-1.05419 0.2855,-0.35872 0.33676,-0.85652 0.0806,-1.26648 -0.2489,-0.40265 -0.73939,-0.61495 -1.20792,-0.57835 0.0439,-0.43923 -0.19035,-0.88579 -0.62959,-1.12006 -0.43925,-0.23426 -0.97365,-0.19035 -1.36165,0.0733 -0.19766,-0.40996 -0.62958,-0.68815 -1.13471,-0.68815 z m 0,1.72037 c 1.72768,0 3.12595,1.29577 3.12595,2.89169 0,1.60324 -1.39827,2.89899 -3.12595,2.89899 -1.7277,0 -3.12595,-1.29575 -3.12595,-2.89899 0,-1.59592 1.39825,-2.89169 3.12595,-2.89169 z m 0,0.57833 c -1.38361,0 -2.49636,1.03955 -2.49636,2.31336 0,1.28112 1.11275,2.32066 2.49636,2.32066 1.38361,0 2.49636,-1.03954 2.49636,-2.32066 0,-1.27381 -1.11275,-2.31336 -2.49636,-2.31336 z"
       id="path10" />
    <path
       style="fill:#4d4d4d;fill-opacity:1;stroke:none"
       d="m 440.71429,535.79074 0,7 -5,-4 z"
       id="path2995"
       inkscape:connector-curvature="0" />
  </g>
</svg>
