<?xml version="1.0" encoding="UTF-8" standalone="no"?>
<!-- Created with Inkscape (http://www.inkscape.org/) -->

<svg
   xmlns:dc="http://purl.org/dc/elements/1.1/"
   xmlns:cc="http://creativecommons.org/ns#"
   xmlns:rdf="http://www.w3.org/1999/02/22-rdf-syntax-ns#"
   xmlns:svg="http://www.w3.org/2000/svg"
   xmlns="http://www.w3.org/2000/svg"
   xmlns:sodipodi="http://sodipodi.sourceforge.net/DTD/sodipodi-0.dtd"
   xmlns:inkscape="http://www.inkscape.org/namespaces/inkscape"
   width="22"
   height="22"
   id="svg2"
   version="1.1"
   inkscape:version="0.48.5 r10040"
   viewBox="0 0 22 22"
   sodipodi:docname="view-currency-list.svg">
  <defs
     id="defs4" />
  <sodipodi:namedview
     id="base"
     pagecolor="#ffffff"
     bordercolor="#666666"
     borderopacity="1.0"
     inkscape:pageopacity="0.0"
     inkscape:pageshadow="2"
     inkscape:zoom="11.2"
     inkscape:cx="23.801597"
     inkscape:cy="15.470398"
     inkscape:document-units="px"
     inkscape:current-layer="layer1"
     showgrid="true"
     inkscape:showpageshadow="false"
     borderlayer="true"
     inkscape:window-width="1920"
     inkscape:window-height="1031"
     inkscape:window-x="-4"
     inkscape:window-y="32"
     inkscape:window-maximized="1"
     units="px">
    <sodipodi:guide
       position="2,20.000017"
       orientation="18,0"
       id="guide4085" />
    <sodipodi:guide
       position="2,2.0000174"
       orientation="0,18"
       id="guide4087" />
    <sodipodi:guide
       position="20,2.0000174"
       orientation="-18,0"
       id="guide4089" />
    <sodipodi:guide
       position="20,20.000017"
       orientation="0,-18"
       id="guide4091" />
    <sodipodi:guide
       position="3,19.000017"
       orientation="16,0"
       id="guide4093" />
    <sodipodi:guide
       position="3,3.0000174"
       orientation="0,16"
       id="guide4095" />
    <sodipodi:guide
       position="19,3.0000174"
       orientation="-16,0"
       id="guide4097" />
    <sodipodi:guide
       position="19,19.000017"
       orientation="0,-16"
       id="guide4099" />
    <inkscape:grid
       type="xygrid"
       id="grid4101" />
  </sodipodi:namedview>
  <metadata
     id="metadata7">
    <rdf:RDF>
      <cc:Work
         rdf:about="">
        <dc:format>image/svg+xml</dc:format>
        <dc:type
           rdf:resource="http://purl.org/dc/dcmitype/StillImage" />
        <dc:title />
      </cc:Work>
    </rdf:RDF>
  </metadata>
  <g
     inkscape:label="Capa 1"
     inkscape:groupmode="layer"
     id="layer1"
     transform="translate(0,-1030.3622)">
    <path
       inkscape:connector-curvature="0"
       style="fill:#4d4d4d;fill-opacity:1"
       d="m 7.7626215,1044.3548 0,1.0074 -1.1243141,0 0,-0.9889 c -0.6557774,-0.073 -1.171344,-0.2959 -1.5458228,-0.6655 C 4.7175669,1043.332 4.5202184,1042.8393 4.5,1042.2292 l 1.8170116,0.011 c 0.00661,0.2219 0.09362,0.3973 0.2610802,0.5269 0.1674605,0.1293 0.3749177,0.1939 0.6223727,0.1939 0.2140502,0 0.4017292,-0.05 0.562157,-0.1477 0.1872394,-0.1048 0.2812985,-0.2497 0.2812985,-0.4347 0,-0.2707 -0.3015168,-0.5081 -0.9036711,-0.7116 -0.8966387,-0.3019 -1.4557192,-0.5235 -1.6763626,-0.6654 -0.6025939,-0.3697 -0.9036707,-0.8962 -0.9036707,-1.5801 0,-0.5608 0.1973479,-1.032 0.5924846,-1.414 0.3815108,-0.3635 0.8764203,-0.5824 1.4856072,-0.6562 l 0,-0.9889 1.1243141,0 0,0.9889 c 1.3049615,0.2153 1.9642545,0.9273 1.9778805,2.1348 l -1.7770159,0 c 0,-0.2343 -0.07384,-0.4251 -0.2210829,-0.5732 -0.1472422,-0.1538 -0.3476673,-0.2307 -0.6021543,-0.2307 -0.2008647,0 -0.3749177,0.052 -0.5221599,0.157 -0.167021,0.1107 -0.250971,0.2588 -0.250971,0.4434 0,0.2343 0.3045935,0.4593 0.9137805,0.6747 0.8900455,0.3019 1.4587965,0.5331 1.7066905,0.6931 0.608747,0.3745 0.91334,0.8922 0.91334,1.5516 0,0.5855 -0.200864,1.072 -0.602154,1.4601 -0.381511,0.3635 -0.893562,0.5946 -1.5361535,0.6931"
       id="path6" />
    <text
       xml:space="preserve"
       style="font-size:12.33717728px;font-style:normal;font-weight:normal;line-height:125%;letter-spacing:0px;word-spacing:0px;fill:#4d4d4d;fill-opacity:0.96862745;stroke:none;font-family:Sans"
       x="10.964024"
       y="1045.2332"
       id="text2995"
       sodipodi:linespacing="125%"
       transform="scale(0.99998607,1.0000139)"><tspan
         sodipodi:role="line"
         id="tspan2997"
         x="10.964024"
         y="1045.2332"
         style="font-weight:bold;-inkscape-font-specification:Sans Bold">€</tspan></text>
  </g>
</svg>
