<?xml version="1.0" encoding="UTF-8" standalone="no"?>
<!-- Created with Inkscape (http://www.inkscape.org/) -->

<svg
   xmlns:dc="http://purl.org/dc/elements/1.1/"
   xmlns:cc="http://creativecommons.org/ns#"
   xmlns:rdf="http://www.w3.org/1999/02/22-rdf-syntax-ns#"
   xmlns:svg="http://www.w3.org/2000/svg"
   xmlns="http://www.w3.org/2000/svg"
   xmlns:sodipodi="http://sodipodi.sourceforge.net/DTD/sodipodi-0.dtd"
   xmlns:inkscape="http://www.inkscape.org/namespaces/inkscape"
   width="22"
   height="22"
   id="svg3049"
   version="1.1"
   inkscape:version="0.48.5 r10040"
   sodipodi:docname="view-loan.svg"
   inkscape:export-filename="/home/uri/.kde/share/icons/NITRUX-KDE/16x16/actions/view-right-new.png"
   inkscape:export-xdpi="30"
   inkscape:export-ydpi="30">
  <defs
     id="defs3051" />
  <sodipodi:namedview
     id="base"
     pagecolor="#ffffff"
     bordercolor="#666666"
     borderopacity="1.0"
     inkscape:pageopacity="0.0"
     inkscape:pageshadow="2"
     inkscape:zoom="24.888089"
     inkscape:cx="3.5261761"
     inkscape:cy="10.760794"
     inkscape:document-units="px"
     inkscape:current-layer="layer1"
     showgrid="true"
     fit-margin-top="0"
     fit-margin-left="0"
     fit-margin-right="0"
     fit-margin-bottom="0"
     inkscape:window-width="1920"
     inkscape:window-height="1031"
     inkscape:window-x="-4"
     inkscape:window-y="32"
     inkscape:window-maximized="1"
     inkscape:showpageshadow="false"
     borderlayer="true">
    <sodipodi:guide
       position="2.0000044,20.00003"
       orientation="18,0"
       id="guide4067" />
    <sodipodi:guide
       position="2.0000044,2.0000296"
       orientation="0,18"
       id="guide4069" />
    <sodipodi:guide
       position="20.000004,2.0000296"
       orientation="-18,0"
       id="guide4071" />
    <sodipodi:guide
       position="20.000004,20.00003"
       orientation="0,-18"
       id="guide4073" />
    <sodipodi:guide
       position="3.0000044,19.00003"
       orientation="16,0"
       id="guide4077" />
    <sodipodi:guide
       position="3.0000044,3.0000296"
       orientation="0,16"
       id="guide4079" />
    <sodipodi:guide
       position="19.000004,3.0000296"
       orientation="-16,0"
       id="guide4081" />
    <sodipodi:guide
       position="19.000004,19.00003"
       orientation="0,-16"
       id="guide4083" />
    <inkscape:grid
       type="xygrid"
       id="grid4085" />
  </sodipodi:namedview>
  <metadata
     id="metadata3054">
    <rdf:RDF>
      <cc:Work
         rdf:about="">
        <dc:format>image/svg+xml</dc:format>
        <dc:type
           rdf:resource="http://purl.org/dc/dcmitype/StillImage" />
        <dc:title />
      </cc:Work>
    </rdf:RDF>
  </metadata>
  <g
     inkscape:label="Capa 1"
     inkscape:groupmode="layer"
     id="layer1"
     transform="translate(-421.71429,-525.79074)">
    <path
       style="fill:#4d4d4d;fill-opacity:1;stroke:none"
       d="M 3 3 L 3 19 L 19 19 L 19 3 L 3 3 z M 4 7 L 18 7 L 18 18 L 4 18 L 4 7 z "
       transform="translate(421.71429,525.79074)"
       id="rect4089" />
    <path
       inkscape:connector-curvature="0"
       style="fill:#4d4d4d;fill-opacity:1;stroke:none"
       d="m 426.71429,533.79074 0,9 0.3,0 11.4,0 0.3,0 0,-9 -0.3,0 -11.4,0 -0.3,0 z m 0.3,0.3 11.4,0 0,8.4 -11.4,0 0,-8.4 z m 5.7,1.5 c -1.4958,0 -2.7,1.2042 -2.7,2.7 0,1.4958 1.2042,2.7 2.7,2.7 1.4958,0 2.7,-1.2042 2.7,-2.7 0,-1.4958 -1.2042,-2.7 -2.7,-2.7 z m 0,0.3 c 1.3296,0 2.4,1.0704 2.4,2.4 0,1.3296 -1.0704,2.4 -2.4,2.4 -1.3296,0 -2.4,-1.0704 -2.4,-2.4 0,-1.3296 1.0704,-2.4 2.4,-2.4 z m -0.10548,1.05 0,0.3627 c -0.46448,0.0277 -0.69728,0.21508 -0.69728,0.5625 0,0.39022 0.21422,0.58535 0.6422,0.58535 l 0.283,0 c 0.22028,0 0.33046,0.0881 0.33046,0.26425 0,0.18881 -0.15748,0.28302 -0.47342,0.28302 -0.2379,0 -0.47378,-0.0374 -0.70666,-0.11316 l 0,0.30235 c 0.20519,0.0552 0.41274,0.0863 0.6217,0.0925 l 0,0.36034 0.32988,0 0,-0.37383 c 0.38516,-0.0516 0.57832,-0.23542 0.57832,-0.55137 0,-0.39021 -0.22713,-0.58534 -0.68028,-0.58534 l -0.283,0 c -0.2077,0 -0.31172,-0.0881 -0.31172,-0.26425 0,-0.18881 0.16532,-0.28301 0.4951,-0.28301 0.23666,0 0.47144,0.0374 0.70432,0.11304 l 0,-0.30235 c -0.16616,-0.0452 -0.33407,-0.074 -0.50274,-0.0868 l 0,-0.3662 -0.32988,0 z"
       id="rect4102" />
    <path
       style="fill:none;stroke:#da4453;stroke-width:0.29999999999999999;stroke-linecap:butt;stroke-linejoin:miter;stroke-opacity:1;stroke-miterlimit:4;stroke-dasharray:none"
       d="m 7,10 0,2"
       id="path2993"
       inkscape:connector-curvature="0"
       transform="translate(421.71429,525.79074)" />
    <path
       style="fill:none;stroke:#da4453;stroke-width:0.30000001;stroke-linecap:butt;stroke-linejoin:miter;stroke-miterlimit:4;stroke-opacity:1;stroke-dasharray:none"
       d="m 427.71429,536.79074 2,0"
       id="path2993-8"
       inkscape:connector-curvature="0" />
    <path
       style="fill:none;stroke:#da4453;stroke-width:0.30000001;stroke-linecap:butt;stroke-linejoin:miter;stroke-miterlimit:4;stroke-opacity:1;stroke-dasharray:none"
       d="m 435.71429,539.79074 2,0"
       id="path2993-8-0"
       inkscape:connector-curvature="0" />
  </g>
</svg>
