<?xml version="1.0" encoding="UTF-8" standalone="no"?>
<!-- Created with Inkscape (http://www.inkscape.org/) -->

<svg
   xmlns:dc="http://purl.org/dc/elements/1.1/"
   xmlns:cc="http://creativecommons.org/ns#"
   xmlns:rdf="http://www.w3.org/1999/02/22-rdf-syntax-ns#"
   xmlns:svg="http://www.w3.org/2000/svg"
   xmlns="http://www.w3.org/2000/svg"
   xmlns:sodipodi="http://sodipodi.sourceforge.net/DTD/sodipodi-0.dtd"
   xmlns:inkscape="http://www.inkscape.org/namespaces/inkscape"
   width="22"
   height="22"
   id="svg2"
   version="1.1"
   inkscape:version="0.48.5 r10040"
   viewBox="0 0 22 22"
   sodipodi:docname="view-time-schedule-baselined-add.svg">
  <defs
     id="defs4" />
  <sodipodi:namedview
     id="base"
     pagecolor="#ffffff"
     bordercolor="#666666"
     borderopacity="1.0"
     inkscape:pageopacity="0.0"
     inkscape:pageshadow="2"
     inkscape:zoom="22.4"
     inkscape:cx="-0.49293636"
     inkscape:cy="4.3770531"
     inkscape:document-units="px"
     inkscape:current-layer="layer1"
     showgrid="true"
     inkscape:showpageshadow="false"
     borderlayer="true"
     inkscape:window-width="1920"
     inkscape:window-height="1031"
     inkscape:window-x="-4"
     inkscape:window-y="32"
     inkscape:window-maximized="1"
     units="px">
    <sodipodi:guide
       position="2,20.000017"
       orientation="18,0"
       id="guide4085" />
    <sodipodi:guide
       position="2,2.0000174"
       orientation="0,18"
       id="guide4087" />
    <sodipodi:guide
       position="20,2.0000174"
       orientation="-18,0"
       id="guide4089" />
    <sodipodi:guide
       position="20,20.000017"
       orientation="0,-18"
       id="guide4091" />
    <sodipodi:guide
       position="3,19.000017"
       orientation="16,0"
       id="guide4093" />
    <sodipodi:guide
       position="3,3.0000174"
       orientation="0,16"
       id="guide4095" />
    <sodipodi:guide
       position="19,3.0000174"
       orientation="-16,0"
       id="guide4097" />
    <sodipodi:guide
       position="19,19.000017"
       orientation="0,-16"
       id="guide4099" />
    <inkscape:grid
       type="xygrid"
       id="grid4101" />
  </sodipodi:namedview>
  <metadata
     id="metadata7">
    <rdf:RDF>
      <cc:Work
         rdf:about="">
        <dc:format>image/svg+xml</dc:format>
        <dc:type
           rdf:resource="http://purl.org/dc/dcmitype/StillImage" />
        <dc:title></dc:title>
      </cc:Work>
    </rdf:RDF>
  </metadata>
  <g
     inkscape:label="Capa 1"
     inkscape:groupmode="layer"
     id="layer1"
     transform="translate(0,-1030.3622)">
    <rect
       style="fill:#4d4d4d;fill-opacity:1;stroke:none"
       id="rect4237"
       width="16"
       height="1.9999131"
       x="2.9999986"
       y="1033.8002"
       rx="1.1428572"
       ry="0.49997827" />
    <rect
       y="1035.3622"
       x="3.9999988"
       height="11.937536"
       width="14.000001"
       id="rect5019"
       style="fill:none;stroke:#4d4d4d;stroke-width:1.09261405;stroke-miterlimit:4;stroke-opacity:1;stroke-dasharray:none" />
    <path
       inkscape:connector-curvature="0"
       style="fill:#4d4d4d;fill-opacity:1;stroke:none"
       d="m 6.2343738,1037.3624 c -0.68554,0 -1.234375,0.5488 -1.234375,1.2343 l 0,0.7656 8.0000002,0 0,-0.7656 c 0,-0.6855 -0.548835,-1.2343 -1.234375,-1.2343 l -5.5312502,0 z"
       id="rect3890"
       sodipodi:nodetypes="ccccccc" />
    <path
       inkscape:connector-curvature="0"
       sodipodi:nodetypes="ccccccc"
       id="path4613"
       d="m 13.234374,1040.3623 c -0.68554,0 -1.234375,0.5487 -1.234375,1.2343 l 0,0.7656 5,0 0,-0.7656 c 0,-0.6856 -0.548835,-1.2343 -1.234376,-1.2343 l -2.531249,0 z"
       style="fill:#4d4d4d;fill-opacity:1;stroke:none" />
    <path
       inkscape:connector-curvature="0"
       style="fill:#4d4d4d;fill-opacity:1;stroke:none"
       d="m 9.999999,1039.3623 0,2.3957 0,0.6042 0.59719,0 1.40281,0 0,-0.6042 -1.40281,0 0,-2.3957 -0.59719,0 z"
       id="rect4651"
       sodipodi:nodetypes="ccccccccc" />
    <path
       inkscape:connector-curvature="0"
       style="fill:#4d4d4d;fill-opacity:1;stroke:none"
       d="m 6.2343738,1043.3623 c -0.68554,0 -1.234375,0.5488 -1.234375,1.2344 l 0,0.7655 7.0000002,0 0,-0.7655 c 0,-0.6856 -0.548836,-1.2344 -1.234376,-1.2344 l -4.5312492,0 z"
       id="path4724"
       sodipodi:nodetypes="ccccccc" />
    <path
       inkscape:connector-curvature="0"
       style="fill:#2eec71;fill-opacity:1;fill-rule:evenodd;stroke:none"
       d="m 4.977273,1041.9575 c -0.944319,0 -1.704546,0.7602 -1.704546,1.7046 l 0,1.7045 -0.681818,0 0,3.4091 5,0 0,-3.4091 -0.681818,0 0,-1.7045 c 0,-0.9444 -0.760227,-1.7046 -1.704546,-1.7046 l -0.227272,0 z m 0.113636,0.9091 c 0.503636,0 0.909091,0.4055 0.909091,0.9091 0,0 -4.32e-4,0 -4.55e-4,0 l 4.55e-4,0 0,1.5865 -1.818182,0 0,-1.5865 4.55e-4,0 c -1.8e-5,0 -4.55e-4,0 -4.55e-4,0 0,-0.5036 0.405455,-0.9091 0.909091,-0.9091 z"
       id="rect3272" />
  </g>
</svg>
