<?xml version="1.0" encoding="UTF-8" standalone="no"?>
<!-- Created with Inkscape (http://www.inkscape.org/) -->

<svg
   xmlns:dc="http://purl.org/dc/elements/1.1/"
   xmlns:cc="http://creativecommons.org/ns#"
   xmlns:rdf="http://www.w3.org/1999/02/22-rdf-syntax-ns#"
   xmlns:svg="http://www.w3.org/2000/svg"
   xmlns="http://www.w3.org/2000/svg"
   xmlns:sodipodi="http://sodipodi.sourceforge.net/DTD/sodipodi-0.dtd"
   xmlns:inkscape="http://www.inkscape.org/namespaces/inkscape"
   id="svg2"
   sodipodi:version="0.32"
   inkscape:version="0.48.5 r10040"
   width="256"
   height="256"
   version="1.0"
   sodipodi:docname="view-media-artist.svg"
   inkscape:output_extension="org.inkscape.output.svg.inkscape">
  <metadata
     id="metadata7">
    <rdf:RDF>
      <cc:Work
         rdf:about="">
        <dc:format>image/svg+xml</dc:format>
        <dc:type
           rdf:resource="http://purl.org/dc/dcmitype/StillImage" />
        <dc:title />
      </cc:Work>
    </rdf:RDF>
  </metadata>
  <defs
     id="defs5" />
  <sodipodi:namedview
     inkscape:window-height="1031"
     inkscape:window-width="1920"
     inkscape:pageshadow="2"
     inkscape:pageopacity="0.0"
     guidetolerance="10.0"
     gridtolerance="10.0"
     objecttolerance="10.0"
     borderopacity="1.0"
     bordercolor="#666666"
     pagecolor="#ffffff"
     id="base"
     inkscape:zoom="2.1210938"
     inkscape:cx="50.917129"
     inkscape:cy="128"
     inkscape:window-x="-4"
     inkscape:window-y="32"
     inkscape:current-layer="svg2"
     showgrid="false"
     inkscape:window-maximized="1"
     inkscape:snap-bbox="true"
     inkscape:bbox-paths="true"
     inkscape:bbox-nodes="true"
     inkscape:snap-bbox-edge-midpoints="true"
     inkscape:snap-bbox-midpoints="true"
     inkscape:object-paths="true"
     inkscape:snap-intersection-paths="true"
     inkscape:object-nodes="true"
     inkscape:snap-smooth-nodes="true"
     inkscape:snap-midpoints="true"
     inkscape:snap-object-midpoints="true"
     inkscape:snap-center="true"
     fit-margin-top="0"
     fit-margin-left="0"
     fit-margin-right="0"
     fit-margin-bottom="0"
     inkscape:snap-global="true"
     showguides="true"
     inkscape:guide-bbox="true" />
  <path
     style="fill:#4d4d4d;fill-opacity:1;fill-rule:evenodd;stroke:none"
     d="m 127.98786,36.000199 c -19.4157,0 -35.175215,15.548182 -35.17523,34.704859 0,5.33459 -0.50757,10.63029 1.67501,15.14738 l 1.820664,1.3182 c 3.977246,-6.93179 1.417149,-13.11448 3.082987,-19.12598 1.546089,-3.81369 4.015879,-7.111788 7.743899,-8.388587 6.64546,-2.275997 16.70497,6.362397 20.85267,6.471197 4.48374,0.117 14.00983,-3.2479 20.8284,-1.2703 3.76671,1.0926 6.87851,4.58579 7.74389,8.38859 1.62027,7.11999 2.45364,5.39979 3.08301,13.06228 l 1.84494,-0.911 c 2.12471,-4.46789 1.675,-9.43309 1.675,-14.69198 0,-19.156777 -15.75951,-34.704859 -35.17524,-34.704859 z M 109.19861,60.83047 c -0.55776,0.02 -1.08161,0.102 -1.55363,0.264 -3.12343,1.069798 -5.32256,3.887098 -6.77288,7.429988 -0.71413,2.6584 -0.53799,5.5537 -0.6069,8.77199 -0.07,3.2559 -0.465282,6.85909 -2.621761,10.61759 a 1.5537891,1.5340675 0 0 1 -2.257628,0.479 l -0.776793,-0.575 c -0.237434,-2.8252 -4.593482,-2.3579 -4.272497,0.839 3.232276,14.963282 6.056003,17.301682 8.933391,17.639982 4.210898,10.74389 10.482428,20.31827 14.128358,24.47067 4.66981,5.31849 10.64907,4.35679 14.44393,4.24229 0.1946,0 0.47082,-0.006 0.67981,0 3.79489,0.114 9.77413,1.0762 14.44395,-4.24229 3.75186,-4.273 10.26889,-14.28338 14.46819,-25.40537 2.80806,-0.427 5.58219,-3.0012 8.73921,-17.616082 0.32093,-3.1967 -4.03503,-3.6641 -4.2725,-0.839 l -1.55369,0.767 a 1.5537891,1.5340675 0 0 1 -2.25762,-1.2463 c -0.30938,-3.76669 -0.63042,-5.02459 -1.09241,-6.35129 -0.46189,-1.3268 -1.13759,-2.8536 -1.96632,-6.49519 -0.73618,-3.2349 -3.52339,-6.3309 -6.65149,-7.23819 -2.99349,-0.868 -6.88919,-0.59 -10.60842,-0.02 -3.71922,0.56599 -7.14381,1.41209 -9.8073,1.34219 -1.56663,-0.04 -3.04547,-0.716 -4.73373,-1.53389 -1.68826,-0.818 -3.52299,-1.8319 -5.41345,-2.7563 -3.072,-1.501999 -6.20077,-2.630698 -8.61781,-2.540498 z m 41.34123,62.00373 c -2.35998,3.82139 -4.64983,6.93659 -6.40875,8.93979 -5.1606,5.87739 -12.07834,4.87759 -15.65772,4.76949 -0.12776,-0.004 -0.36809,-6e-4 -0.58255,0 -0.0183,1e-4 -0.0304,0 -0.0487,0 -3.5909,0.114 -10.49222,1.0859 -15.63344,-4.76949 -1.35387,-1.5418 -3.01559,-3.7528 -4.78229,-6.42329 1.46126,9.69278 1.67483,19.37037 -3.01016,22.76907 0.99948,10.67789 22.32789,16.77218 24.34834,20.42028 1.50796,-3.5328 23.34887,-9.74239 24.34837,-20.42028 -5.09195,-3.694 -4.37281,-14.80418 -2.57313,-25.28557 z m -47.60432,25.86077 c -10.782138,4.14209 -24.757459,8.36899 -36.000603,13.92508 -4.362772,2.156 -9.336467,8.72189 -10.632679,12.19939 C 52.34893,185.42533 48,200.36871 48,200.36871 l 2.306179,2.66039 c 24.188086,13.59509 57.009271,12.96639 77.681681,12.96639 20.67244,0 53.51788,0.629 77.70596,-12.96639 L 208,200.36871 c 0,0 -4.34891,-14.94338 -8.30222,-25.54927 -1.29622,-3.4775 -6.26991,-10.04339 -10.63269,-12.19939 -11.23804,-5.55359 -23.81506,-9.78479 -34.47124,-13.92508 -0.41535,2.9786 -2.16173,5.53539 -4.41814,7.71749 -2.36542,2.2876 -5.31246,4.22429 -8.25369,5.91999 -2.94123,1.6957 -5.87849,3.1413 -8.10804,4.3621 -1.11476,0.61 -2.04413,1.1671 -2.69457,1.6298 -0.6504,0.46299 -0.96292,0.90999 -0.92246,0.81499 a 1.5537891,1.5340675 0 0 1 -2.79168,0.144 c -0.0193,-0.04 -0.42143,-0.503 -1.11674,-0.98299 -0.69512,-0.479 -1.66247,-1.0394 -2.79168,-1.6538 -2.25837,-1.2293 -5.17283,-2.6727 -8.0837,-4.3624 -2.91088,-1.6898 -5.8311,-3.61519 -8.15658,-5.89599 -2.21617,-2.1736 -3.90922,-4.72939 -4.32105,-7.69359 z"
     id="path4066"
     inkscape:connector-curvature="0" />
</svg>
