<?xml version="1.0" encoding="UTF-8" standalone="no"?>
<svg
   xmlns:dc="http://purl.org/dc/elements/1.1/"
   xmlns:cc="http://creativecommons.org/ns#"
   xmlns:rdf="http://www.w3.org/1999/02/22-rdf-syntax-ns#"
   xmlns:svg="http://www.w3.org/2000/svg"
   xmlns="http://www.w3.org/2000/svg"
   xmlns:xlink="http://www.w3.org/1999/xlink"
   xmlns:sodipodi="http://sodipodi.sourceforge.net/DTD/sodipodi-0.dtd"
   xmlns:inkscape="http://www.inkscape.org/namespaces/inkscape"
   viewBox="0 0 64 64"
   id="svg2"
   version="1.1"
   inkscape:version="0.48.5 r10040"
   sodipodi:docname="application-x-apk.svg"
   width="64"
   height="64">
  <metadata
     id="metadata84">
    <rdf:RDF>
      <cc:Work
         rdf:about="">
        <dc:format>image/svg+xml</dc:format>
        <dc:type
           rdf:resource="http://purl.org/dc/dcmitype/StillImage" />
        <dc:title />
      </cc:Work>
    </rdf:RDF>
  </metadata>
  <sodipodi:namedview
     pagecolor="#ffffff"
     bordercolor="#666666"
     borderopacity="1"
     objecttolerance="10"
     gridtolerance="10"
     guidetolerance="10"
     inkscape:pageopacity="0"
     inkscape:pageshadow="2"
     inkscape:window-width="1920"
     inkscape:window-height="1033"
     id="namedview82"
     showgrid="true"
     inkscape:showpageshadow="false"
     inkscape:zoom="12.06501"
     inkscape:cx="40.075489"
     inkscape:cy="35.282061"
     inkscape:window-x="-4"
     inkscape:window-y="30"
     inkscape:window-maximized="1"
     inkscape:current-layer="svg2"
     showguides="true"
     inkscape:guide-bbox="true">
    <inkscape:grid
       type="xygrid"
       id="grid3413" />
    <sodipodi:guide
       position="0,64"
       orientation="64,0"
       id="guide3482" />
    <sodipodi:guide
       position="0,0"
       orientation="0,64"
       id="guide3484" />
    <sodipodi:guide
       position="64,0"
       orientation="-64,0"
       id="guide3486" />
    <sodipodi:guide
       position="64,64"
       orientation="0,-64"
       id="guide3488" />
    <sodipodi:guide
       position="10,61"
       orientation="58,0"
       id="guide3492" />
    <sodipodi:guide
       position="10,3"
       orientation="0,44"
       id="guide3494" />
    <sodipodi:guide
       position="54,3"
       orientation="-58,0"
       id="guide3496" />
    <sodipodi:guide
       position="54,61"
       orientation="0,-44"
       id="guide3498" />
    <sodipodi:guide
       position="54,47"
       orientation="-14,0"
       id="guide4310" />
    <sodipodi:guide
       position="54,61"
       orientation="0,-14"
       id="guide4312" />
    <sodipodi:guide
       position="21,43"
       orientation="22,0"
       id="guide4250" />
    <sodipodi:guide
       position="21,21"
       orientation="0,22"
       id="guide4252" />
    <sodipodi:guide
       position="43,21"
       orientation="-22,0"
       id="guide4254" />
    <sodipodi:guide
       position="43,43"
       orientation="0,-22"
       id="guide4256" />
  </sodipodi:namedview>
  <defs
     id="defs4">
    <linearGradient
       inkscape:collect="always"
       id="linearGradient4351">
      <stop
         style="stop-color:#04896a;stop-opacity:1"
         offset="0"
         id="stop4353" />
      <stop
         style="stop-color:#04896a;stop-opacity:1"
         offset="1"
         id="stop4355" />
    </linearGradient>
    <linearGradient
       inkscape:collect="always"
       id="linearGradient4300">
      <stop
         style="stop-color:#26c281;stop-opacity:1"
         offset="0"
         id="stop4302" />
      <stop
         style="stop-color:#3fc380;stop-opacity:1"
         offset="1"
         id="stop4304" />
    </linearGradient>
    <linearGradient
       inkscape:collect="always"
       xlink:href="#linearGradient4300"
       id="linearGradient4306"
       x1="32"
       y1="61"
       x2="32"
       y2="3"
       gradientUnits="userSpaceOnUse" />
    <linearGradient
       gradientTransform="matrix(1,0,0,-1,-14,78)"
       inkscape:collect="always"
       xlink:href="#linearGradient4410"
       id="linearGradient4427"
       x1="54"
       y1="31"
       x2="40"
       y2="17"
       gradientUnits="userSpaceOnUse" />
    <linearGradient
       inkscape:collect="always"
       id="linearGradient4410">
      <stop
         style="stop-color:#383e51;stop-opacity:1"
         offset="0"
         id="stop4412" />
      <stop
         style="stop-color:#655c6f;stop-opacity:0"
         offset="1"
         id="stop4414" />
    </linearGradient>
    <linearGradient
       inkscape:collect="always"
       xlink:href="#linearGradient4351"
       id="linearGradient4357"
       x1="47"
       y1="61"
       x2="47"
       y2="47"
       gradientUnits="userSpaceOnUse" />
  </defs>
  <path
     style="fill:url(#linearGradient4306);fill-opacity:1;stroke:none"
     d="M 10 3 L 10 61 L 40 61 L 54 47 L 54 17 L 54 3 L 40 3 L 10 3 z "
     id="rect3500" />
  <rect
     style="opacity:1;fill:#2e3132;fill-opacity:0.29411765;stroke:none"
     id="rect4169"
     width="30"
     height="1"
     x="10"
     y="60" />
  <rect
     style="opacity:1;fill:#ffffff;fill-opacity:0.40983605;stroke:none"
     id="rect4236"
     width="44"
     height="1"
     x="10"
     y="3" />
  <path
     style="fill:url(#linearGradient4357);fill-opacity:1;fill-rule:evenodd;stroke:none;stroke-width:1px;stroke-linecap:butt;stroke-linejoin:miter;stroke-opacity:1"
     d="M 54,47 40,61 40,47 Z"
     id="path4314"
     inkscape:connector-curvature="0" />
  <path
     inkscape:connector-curvature="0"
     id="path4320"
     d="M 26,61 40,47 40,61 Z"
     style="opacity:0.2;fill:url(#linearGradient4427);fill-opacity:1;fill-rule:evenodd;stroke:none;stroke-width:1px;stroke-linecap:butt;stroke-linejoin:miter;stroke-opacity:1" />
  <path
     style="fill:#04896a;fill-opacity:1;stroke:none"
     d="m 27.62337,17.52178 c -0.0268,-0.001 -0.0496,0.002 -0.0765,0.005 -0.0718,0.008 -0.14305,0.0322 -0.2104,0.0715 -0.26943,0.15699 -0.36454,0.51229 -0.21519,0.79553 l 0.88944,1.68634 c -2.06699,1.15868 -3.49338,3.16459 -3.70122,5.47823 l 15.67521,0 c -0.20699,-2.31494 -1.64093,-4.31994 -3.71079,-5.47823 l 0.88944,-1.68634 c 0.14935,-0.28324 0.0495,-0.63854 -0.21997,-0.79553 -0.0674,-0.0393 -0.13379,-0.0633 -0.20562,-0.0715 -0.21549,-0.0244 -0.43313,0.0877 -0.54514,0.3001 l -0.93726,1.77686 c -0.95505,-0.37284 -2.00627,-0.58117 -3.11305,-0.58117 -1.10644,0 -2.15893,0.2082 -3.11305,0.58117 l -0.93726,-1.77686 c -0.098,-0.18586 -0.28082,-0.29641 -0.46863,-0.30486 z m 1.5111,4.61124 C 29.61385,22.13302 30,22.52247 30,23 c 0,0.47755 -0.38615,0.86224 -0.86553,0.86224 -0.47938,0 -0.87032,-0.38469 -0.87032,-0.86224 0,-0.47753 0.39094,-0.86698 0.87032,-0.86698 z m 6.01568,0 c 0.47938,0 0.87032,0.38945 0.87032,0.86698 0,0.47755 -0.39094,0.86224 -0.87032,0.86224 -0.47938,0 -0.86553,-0.38469 -0.86553,-0.86224 0,-0.47753 0.38615,-0.86698 0.86553,-0.86698 z m -13.42291,4.14917 c -1.15409,0 -2.08493,0.92728 -2.08493,2.07696 l 0,6.91687 c 0,1.14968 0.93084,2.07696 2.08493,2.07696 1.15408,0 2.08014,-0.92728 2.08014,-2.07696 l 0,-6.91687 c 0,-1.14968 -0.92606,-2.07696 -2.08014,-2.07696 z m 2.54399,0 0,11.62815 c 0,1.03244 0.84899,1.86259 1.90321,1.86259 l 0.18172,0 0,3.05829 c 0,1.18033 0.92639,2.12936 2.08014,2.12936 1.15376,0 2.08493,-0.94903 2.08493,-2.12936 l 0,-3.05829 3.00784,0 0,3.05829 c 0,1.18033 0.93117,2.12936 2.08493,2.12936 1.15376,0 2.08493,-0.94903 2.08493,-2.12936 l 0,-3.05829 0.41125,0 c 1.05422,0 1.90321,-0.83015 1.90321,-1.86259 l 0,-11.62815 -15.74216,0 z m 18.28615,0 c -1.15408,0 -2.08493,0.92728 -2.08493,2.07696 l 0,6.91687 c 0,1.14968 0.93085,2.07696 2.08493,2.07696 1.15409,0 2.08493,-0.92728 2.08493,-2.07696 l 0,-6.91687 c 0,-1.14968 -0.93084,-2.07696 -2.08493,-2.07696 z"
     id="path3879"
     inkscape:connector-curvature="0" />
</svg>
