<?xml version="1.0" encoding="UTF-8" standalone="no"?>
<svg
   xmlns:dc="http://purl.org/dc/elements/1.1/"
   xmlns:cc="http://creativecommons.org/ns#"
   xmlns:rdf="http://www.w3.org/1999/02/22-rdf-syntax-ns#"
   xmlns:svg="http://www.w3.org/2000/svg"
   xmlns="http://www.w3.org/2000/svg"
   xmlns:xlink="http://www.w3.org/1999/xlink"
   xmlns:sodipodi="http://sodipodi.sourceforge.net/DTD/sodipodi-0.dtd"
   xmlns:inkscape="http://www.inkscape.org/namespaces/inkscape"
   viewBox="0 0 64 64"
   id="svg2"
   version="1.1"
   inkscape:version="0.48.5 r10040"
   sodipodi:docname="application-vnd.kde.okular-archive.svg"
   width="64"
   height="64">
  <metadata
     id="metadata84">
    <rdf:RDF>
      <cc:Work
         rdf:about="">
        <dc:format>image/svg+xml</dc:format>
        <dc:type
           rdf:resource="http://purl.org/dc/dcmitype/StillImage" />
        <dc:title />
      </cc:Work>
    </rdf:RDF>
  </metadata>
  <sodipodi:namedview
     pagecolor="#ffffff"
     bordercolor="#666666"
     borderopacity="1"
     objecttolerance="10"
     gridtolerance="10"
     guidetolerance="10"
     inkscape:pageopacity="0"
     inkscape:pageshadow="2"
     inkscape:window-width="1920"
     inkscape:window-height="1033"
     id="namedview82"
     showgrid="true"
     inkscape:showpageshadow="false"
     inkscape:zoom="5.6568543"
     inkscape:cx="26.879219"
     inkscape:cy="36.850949"
     inkscape:window-x="-4"
     inkscape:window-y="30"
     inkscape:window-maximized="1"
     inkscape:current-layer="svg2"
     showguides="true">
    <inkscape:grid
       type="xygrid"
       id="grid3413" />
    <sodipodi:guide
       position="0,64"
       orientation="64,0"
       id="guide3482" />
    <sodipodi:guide
       position="0,0"
       orientation="0,64"
       id="guide3484" />
    <sodipodi:guide
       position="64,0"
       orientation="-64,0"
       id="guide3486" />
    <sodipodi:guide
       position="64,64"
       orientation="0,-64"
       id="guide3488" />
    <sodipodi:guide
       position="10,61"
       orientation="58,0"
       id="guide3492" />
    <sodipodi:guide
       position="10,3"
       orientation="0,44"
       id="guide3494" />
    <sodipodi:guide
       position="54,3"
       orientation="-58,0"
       id="guide3496" />
    <sodipodi:guide
       position="54,61"
       orientation="0,-44"
       id="guide3498" />
    <sodipodi:guide
       position="54,47"
       orientation="-14,0"
       id="guide4310" />
    <sodipodi:guide
       position="54,61"
       orientation="0,-14"
       id="guide4312" />
    <sodipodi:guide
       position="21,43"
       orientation="22,0"
       id="guide4250" />
    <sodipodi:guide
       position="21,21"
       orientation="0,22"
       id="guide4252" />
    <sodipodi:guide
       position="43,21"
       orientation="-22,0"
       id="guide4254" />
    <sodipodi:guide
       position="43,43"
       orientation="0,-22"
       id="guide4256" />
  </sodipodi:namedview>
  <defs
     id="defs4">
    <linearGradient
       inkscape:collect="always"
       id="linearGradient4351">
      <stop
         style="stop-color:#566472;stop-opacity:1"
         offset="0"
         id="stop4353" />
      <stop
         style="stop-color:#6c7a89;stop-opacity:1"
         offset="1"
         id="stop4355" />
    </linearGradient>
    <linearGradient
       inkscape:collect="always"
       id="linearGradient4300">
      <stop
         style="stop-color:#bdc3c7;stop-opacity:1"
         offset="0"
         id="stop4302" />
      <stop
         style="stop-color:#dadfe1;stop-opacity:1"
         offset="1"
         id="stop4304" />
    </linearGradient>
    <linearGradient
       inkscape:collect="always"
       xlink:href="#linearGradient4300"
       id="linearGradient4306"
       x1="32"
       y1="61"
       x2="32"
       y2="3"
       gradientUnits="userSpaceOnUse" />
    <linearGradient
       gradientTransform="matrix(1,0,0,-1,-14,78)"
       inkscape:collect="always"
       xlink:href="#linearGradient4410"
       id="linearGradient4427"
       x1="54"
       y1="31"
       x2="40"
       y2="17"
       gradientUnits="userSpaceOnUse" />
    <linearGradient
       inkscape:collect="always"
       id="linearGradient4410">
      <stop
         style="stop-color:#383e51;stop-opacity:1"
         offset="0"
         id="stop4412" />
      <stop
         style="stop-color:#655c6f;stop-opacity:0"
         offset="1"
         id="stop4414" />
    </linearGradient>
    <linearGradient
       inkscape:collect="always"
       xlink:href="#linearGradient4351"
       id="linearGradient4357"
       x1="47"
       y1="61"
       x2="47"
       y2="47"
       gradientUnits="userSpaceOnUse" />
    <linearGradient
       id="linearGradient4065">
      <stop
         id="stop4067"
         offset="0"
         style="stop-color:#c5c5c5;stop-opacity:1;" />
      <stop
         id="stop4069"
         offset="1"
         style="stop-color:#ffffff;stop-opacity:0;" />
    </linearGradient>
    <filter
       inkscape:collect="always"
       id="filter4837"
       x="-0.18714078"
       width="1.3742816"
       y="-0.29900974"
       height="1.5980195"
       color-interpolation-filters="sRGB">
      <feGaussianBlur
         inkscape:collect="always"
         stdDeviation="1.7501982"
         id="feGaussianBlur4839" />
    </filter>
    <radialGradient
       inkscape:collect="always"
       xlink:href="#linearGradient4065"
       id="radialGradient5375"
       gradientUnits="userSpaceOnUse"
       gradientTransform="matrix(-1.0992151,0.74121666,-0.44329946,-0.65888165,170.52048,346.19907)"
       cx="34.148842"
       cy="222.95248"
       fx="34.148842"
       fy="222.95248"
       r="20.41934" />
    <linearGradient
       id="linearGradient3041">
      <stop
         id="stop3043"
         offset="0"
         style="stop-color:#c5c5c5;stop-opacity:1;" />
      <stop
         id="stop3045"
         offset="1"
         style="stop-color:#ffffff;stop-opacity:0;" />
    </linearGradient>
    <filter
       inkscape:collect="always"
       id="filter4841"
       x="-0.1967949"
       width="1.3935899"
       y="-0.30751243"
       height="1.6150249"
       color-interpolation-filters="sRGB">
      <feGaussianBlur
         inkscape:collect="always"
         stdDeviation="1.9077161"
         id="feGaussianBlur4843" />
    </filter>
  </defs>
  <path
     style="fill:url(#linearGradient4306);fill-opacity:1;stroke:none"
     d="M 10 3 L 10 61 L 40 61 L 54 47 L 54 17 L 54 3 L 40 3 L 10 3 z "
     id="rect3500" />
  <rect
     style="opacity:1;fill:#2e3132;fill-opacity:0.29411765;stroke:none"
     id="rect4169"
     width="30"
     height="1"
     x="10"
     y="60" />
  <rect
     style="opacity:1;fill:#ffffff;fill-opacity:0.40983605;stroke:none"
     id="rect4236"
     width="44"
     height="1"
     x="10"
     y="3" />
  <path
     style="fill:url(#linearGradient4357);fill-opacity:1;fill-rule:evenodd;stroke:none;stroke-width:1px;stroke-linecap:butt;stroke-linejoin:miter;stroke-opacity:1"
     d="M 54,47 40,61 40,47 Z"
     id="path4314"
     inkscape:connector-curvature="0" />
  <path
     inkscape:connector-curvature="0"
     id="path4320"
     d="M 26,61 40,47 40,61 Z"
     style="opacity:0.2;fill:url(#linearGradient4427);fill-opacity:1;fill-rule:evenodd;stroke:none;stroke-width:1px;stroke-linecap:butt;stroke-linejoin:miter;stroke-opacity:1" />
  <g
     id="g3048"
     transform="matrix(0.67692309,0,0,0.67686451,34.338202,-673.39112)">
    <path
       style="fill:#637180;fill-opacity:1;stroke:none"
       d="m -18.238278,1044.8274 5.424711,-1.4105 0.117674,0.5877 -5.640214,1.4781 z"
       id="path4781"
       inkscape:connector-curvature="0"
       sodipodi:nodetypes="ccccc" />
    <path
       sodipodi:nodetypes="ssssss"
       inkscape:connector-curvature="0"
       id="path4785"
       d="m -12.67174,1044.1391 c 16.3872431,-3.5179 17.0141153,-3.1147 23.796392,-1.2966 0.761219,0.204 1.244884,0.5462 1.614742,-0.4527 0.230319,-0.622 -0.239387,-0.5344 -1.498222,-0.9317 -7.7305915,-2.4403 -14.1879979,-0.5164 -24.058579,1.8371 -0.277982,0.066 -0.178215,0.9135 0.145667,0.8439 z"
       style="fill:#637180;fill-opacity:1;stroke:none" />
    <path
       style="fill:#637180;fill-opacity:1;stroke:none"
       d="m 10.226756,1037.0932 -5.6953628,1.6221 0.1647446,0.6112 5.7395752,-1.5613 z"
       id="path4779"
       inkscape:connector-curvature="0"
       sodipodi:nodetypes="ccccc" />
    <path
       style="fill:#637180;fill-opacity:1;stroke:none"
       d="m 4.9307065,1039.3857 c -15.9225535,5.2304 -16.2597305,5.8947 -21.1943255,10.8852 -0.553845,0.5601 -0.798271,1.0995 -1.622546,0.4239 -0.513291,-0.4207 -0.06357,-0.582 0.822028,-1.56 5.438509,-6.0059 11.9846043,-7.603 21.693859,-10.551 0.2734407,-0.083 0.6156881,0.6986 0.3009845,0.8019 z"
       id="path4783"
       inkscape:connector-curvature="0"
       sodipodi:nodetypes="ssssss" />
    <path
       inkscape:connector-curvature="0"
       style="fill:#637180;fill-opacity:1;stroke:none"
       d="m 6.5494664,1035.6231 c -0.9614515,0.024 -2.0427549,0.1663 -3.1903989,0.4696 -3.29775654,0.8715 -4.6364254,2.0403 -5.2305761,3.5055 -2.2218706,-0.2957 -3.1228883,0.1904 -4.4497658,1.2747 -1.54493,-0.7686 -2.5456639,-1.6197 -7.2623606,-0.2851 -3.315168,0.9381 -4.992268,2.591 -4.802388,4.2267 l -1.318139,0.2348 0.243475,0.8806 1.292952,-0.2348 c 0.669807,2.0141 3.336972,3.7335 8.521725,1.6772 4.6143193,-1.8299 4.4189517,-4.4978 3.6101913,-6.1304 0,0 1.7053764,-1.6376 4.0635621,-1.1237 0.5198558,3.0348 2.42967144,4.654 7.9424126,3.0945 3.6880795,-1.0433 4.962433,-2.7059 4.743621,-5.3421 l 1.217391,-0.2935 -0.184708,-0.9309 -1.200597,0.2684 c -0.348568,-0.8024 -1.8811992,-1.3443 -3.9963966,-1.2915 z m 0.4113931,0.4696 c 1.6140881,0.02 3.0752795,0.3958 3.2491735,1.4928 0.293485,1.8514 0.08714,3.9849 -4.3993931,5.275 -3.6990401,1.0637 -6.19079674,0.7607 -7.0944429,-1.7192 -0.8214802,-2.2544 1.37143489,-3.7293 4.7436225,-4.6293 0.8982025,-0.2397 2.2456402,-0.4349 3.50104,-0.4193 z m -16.7663856,4.1932 c 2.4770463,0.01 3.6703772,1.1881 3.8116852,2.0127 0.2364171,1.3796 0.060235,3.3646 -4.6512661,5.0318 -4.007229,1.418 -6.339693,0.066 -7.018878,-1.6018 -0.735745,-1.8062 0.292638,-3.7192 4.945116,-5.0066 1.121815,-0.3105 2.087656,-0.4395 2.9133429,-0.4361 z"
       id="path4787" />
  </g>
</svg>
