<?xml version="1.0" encoding="UTF-8" standalone="no"?>
<svg
   xmlns:dc="http://purl.org/dc/elements/1.1/"
   xmlns:cc="http://creativecommons.org/ns#"
   xmlns:rdf="http://www.w3.org/1999/02/22-rdf-syntax-ns#"
   xmlns:svg="http://www.w3.org/2000/svg"
   xmlns="http://www.w3.org/2000/svg"
   xmlns:xlink="http://www.w3.org/1999/xlink"
   xmlns:sodipodi="http://sodipodi.sourceforge.net/DTD/sodipodi-0.dtd"
   xmlns:inkscape="http://www.inkscape.org/namespaces/inkscape"
   viewBox="0 0 64 64"
   id="svg2"
   version="1.1"
   inkscape:version="0.48.5 r10040"
   sodipodi:docname="opera-widget.svg"
   width="64"
   height="64">
  <metadata
     id="metadata84">
    <rdf:RDF>
      <cc:Work
         rdf:about="">
        <dc:format>image/svg+xml</dc:format>
        <dc:type
           rdf:resource="http://purl.org/dc/dcmitype/StillImage" />
        <dc:title />
      </cc:Work>
    </rdf:RDF>
  </metadata>
  <sodipodi:namedview
     pagecolor="#ffffff"
     bordercolor="#666666"
     borderopacity="1"
     objecttolerance="10"
     gridtolerance="10"
     guidetolerance="10"
     inkscape:pageopacity="0"
     inkscape:pageshadow="2"
     inkscape:window-width="1920"
     inkscape:window-height="1035"
     id="namedview82"
     showgrid="false"
     inkscape:showpageshadow="false"
     inkscape:zoom="2.8284273"
     inkscape:cx="28.736081"
     inkscape:cy="22.648375"
     inkscape:window-x="-4"
     inkscape:window-y="29"
     inkscape:window-maximized="1"
     inkscape:current-layer="svg2"
     showguides="false"
     inkscape:snap-global="false">
    <inkscape:grid
       type="xygrid"
       id="grid3413" />
    <sodipodi:guide
       position="0,64"
       orientation="64,0"
       id="guide3482" />
    <sodipodi:guide
       position="0,0"
       orientation="0,64"
       id="guide3484" />
    <sodipodi:guide
       position="64,0"
       orientation="-64,0"
       id="guide3486" />
    <sodipodi:guide
       position="64,64"
       orientation="0,-64"
       id="guide3488" />
    <sodipodi:guide
       position="10,61"
       orientation="58,0"
       id="guide3492" />
    <sodipodi:guide
       position="10,3"
       orientation="0,44"
       id="guide3494" />
    <sodipodi:guide
       position="54,3"
       orientation="-58,0"
       id="guide3496" />
    <sodipodi:guide
       position="54,61"
       orientation="0,-44"
       id="guide3498" />
    <sodipodi:guide
       position="54,47"
       orientation="-14,0"
       id="guide4310" />
    <sodipodi:guide
       position="54,61"
       orientation="0,-14"
       id="guide4312" />
    <sodipodi:guide
       position="21,43"
       orientation="22,0"
       id="guide4250" />
    <sodipodi:guide
       position="21,21"
       orientation="0,22"
       id="guide4252" />
    <sodipodi:guide
       position="43,21"
       orientation="-22,0"
       id="guide4254" />
    <sodipodi:guide
       position="43,43"
       orientation="0,-22"
       id="guide4256" />
  </sodipodi:namedview>
  <defs
     id="defs4">
    <linearGradient
       id="linearGradient4351">
      <stop
         style="stop-color:#c8e3fe;stop-opacity:1"
         offset="0"
         id="stop4353" />
      <stop
         style="stop-color:#e4f1fe;stop-opacity:1"
         offset="1"
         id="stop4355" />
    </linearGradient>
    <linearGradient
       inkscape:collect="always"
       id="linearGradient4300">
      <stop
         style="stop-color:#22a7f0;stop-opacity:1"
         offset="0"
         id="stop4302" />
      <stop
         style="stop-color:#19b5fe;stop-opacity:1"
         offset="1"
         id="stop4304" />
    </linearGradient>
    <linearGradient
       inkscape:collect="always"
       xlink:href="#linearGradient4300"
       id="linearGradient4306"
       x1="32"
       y1="61"
       x2="32"
       y2="3"
       gradientUnits="userSpaceOnUse" />
    <linearGradient
       gradientTransform="matrix(1,0,0,-1,-14,78)"
       inkscape:collect="always"
       xlink:href="#linearGradient4410"
       id="linearGradient4427"
       x1="54"
       y1="31"
       x2="40"
       y2="17"
       gradientUnits="userSpaceOnUse" />
    <linearGradient
       inkscape:collect="always"
       id="linearGradient4410">
      <stop
         style="stop-color:#383e51;stop-opacity:1"
         offset="0"
         id="stop4412" />
      <stop
         style="stop-color:#655c6f;stop-opacity:0"
         offset="1"
         id="stop4414" />
    </linearGradient>
    <linearGradient
       inkscape:collect="always"
       xlink:href="#linearGradient4351"
       id="linearGradient4357"
       x1="47"
       y1="61"
       x2="47"
       y2="47"
       gradientUnits="userSpaceOnUse" />
    <linearGradient
       inkscape:collect="always"
       xlink:href="#linearGradient3971"
       id="linearGradient3012"
       gradientUnits="userSpaceOnUse"
       gradientTransform="matrix(0,3.9666538,3.9666667,0,-470.12803,-119.21434)"
       x1="18.000002"
       y1="47.999897"
       x2="78.000175"
       y2="47.999897" />
    <linearGradient
       x1="628"
       y1="667"
       x2="628"
       y2="779"
       id="linearGradient3971"
       gradientUnits="userSpaceOnUse"
       gradientTransform="translate(-564,-664)">
      <stop
         id="stop3973"
         style="stop-color:#4a91d6;stop-opacity:1"
         offset="0" />
      <stop
         id="stop3977"
         style="stop-color:#225c95;stop-opacity:1"
         offset="1" />
    </linearGradient>
  </defs>
  <path
     style="fill:url(#linearGradient4306);fill-opacity:1;stroke:none"
     d="M 10 3 L 10 61 L 40 61 L 54 47 L 54 17 L 54 3 L 40 3 L 10 3 z "
     id="rect3500" />
  <rect
     style="opacity:1;fill:#2e3132;fill-opacity:0.29411765;stroke:none"
     id="rect4169"
     width="30"
     height="1"
     x="10"
     y="60" />
  <rect
     style="opacity:1;fill:#ffffff;fill-opacity:0.40983605;stroke:none"
     id="rect4236"
     width="44"
     height="1"
     x="10"
     y="3" />
  <path
     style="fill:url(#linearGradient4357);fill-opacity:1;fill-rule:evenodd;stroke:none;stroke-width:1px;stroke-linecap:butt;stroke-linejoin:miter;stroke-opacity:1"
     d="M 54,47 40,61 40,47 Z"
     id="path4314"
     inkscape:connector-curvature="0" />
  <path
     inkscape:connector-curvature="0"
     id="path4320"
     d="M 26,61 40,47 40,61 Z"
     style="opacity:0.2;fill:url(#linearGradient4427);fill-opacity:1;fill-rule:evenodd;stroke:none;stroke-width:1px;stroke-linecap:butt;stroke-linejoin:miter;stroke-opacity:1" />
  <path
     style="opacity:1;fill:none;fill-opacity:1;stroke:none"
     d="m -7,21 -12,4 0,13.544922 L -15,37 -15,26 -7,24.285156 -7,40.333984 -19,39 l 12,4 6,-2 0,-18 -6,-2 z"
     id="rect4323"
     inkscape:connector-curvature="0" />
  <rect
     style="opacity:1;fill:#22a7f0;fill-opacity:1;stroke:none;stroke-opacity:1"
     id="rect4168"
     width="22"
     height="22"
     x="64"
     y="20.999992" />
  <path
     style="fill:#daecfe;fill-opacity:1;fill-rule:nonzero;stroke:none;stroke-width:1;marker:none;visibility:visible;display:block;overflow:visible;enable-background:accumulate"
     id="rect3267"
     inkscape:connector-curvature="0"
     d="m 21.360685,27.369443 c 0,-0.393549 0.32647,-0.712208 0.72675,-0.712208 l 1.40988,0 c 0.18749,-0.703691 0.47069,-1.37607 0.82849,-1.991271 l -1.00291,-1.002907 c -0.14152,-0.141519 -0.21647,-0.311042 -0.21802,-0.494185 -0.002,-0.183136 0.0643,-0.369579 0.20348,-0.508715 l 1.96221,-1.962207 c 0.27829,-0.278275 0.71987,-0.268499 1.00291,0.0145 l 1.00291,1.002907 c 0.6152,-0.357796 1.28758,-0.640994 1.99128,-0.828487 l 0,-1.409878 c 0,-0.400273 0.31866,-0.726742 0.71221,-0.726742 l 2.76162,0 c 0.39355,0 0.71221,0.326469 0.71221,0.726742 l 0,1.409878 c 0.7037,0.187493 1.37608,0.470691 1.99128,0.828487 l 1.00291,-1.002907 c 0.28304,-0.283035 0.72462,-0.292812 1.0029,-0.0145 l 1.96221,1.962207 c 0.27829,0.278277 0.26851,0.719865 -0.0145,1.0029 l -1.00291,1.002907 c 0.3578,0.615201 0.641,1.28758 0.82849,1.991271 l 1.40989,0 c 0.40027,0 0.72674,0.318659 0.72674,0.712208 l 0,2.76162 c 0,0.393546 -0.32647,0.712205 -0.72674,0.712205 l -1.40989,0 c -0.18749,0.70369 -0.47069,1.376068 -0.82849,1.991269 l 1.00291,1.002907 c 0.28304,0.283036 0.29282,0.724624 0.0145,1.002903 l -1.9622,1.962201 c -0.27829,0.278278 -0.71987,0.268503 -1.00291,-0.0145 l -1.00291,-1.002901 c -0.6152,0.357796 -1.28758,0.640992 -1.99128,0.828484 l 0,1.409883 c 0,0.400269 -0.31866,0.726741 -0.71221,0.726741 l -2.76162,0 c -0.39355,0 -0.71221,-0.326472 -0.71221,-0.726741 l 0,-1.409883 c -0.7037,-0.187489 -1.37608,-0.470688 -1.99128,-0.82848 l -1.00291,1.002901 c -0.28304,0.283036 -0.72462,0.292815 -1.00291,0.0145 l -1.9622,-1.962201 c -0.27829,-0.278283 -0.26851,-0.719871 0.0145,-1.002907 l 1.00291,-1.002903 c -0.3578,-0.615205 -0.641,-1.287583 -0.82849,-1.99127 l -1.40989,0 c -0.40027,0 -0.72674,-0.318662 -0.72674,-0.712208 l 0,-2.761618 z m 6.97674,1.380808 c 0,1.668834 1.35442,3.023247 3.02326,3.023247 1.66884,0 3.02325,-1.354413 3.02325,-3.023247 0,-1.668831 -1.35441,-3.023247 -3.02325,-3.023247 -1.66884,0 -3.02326,1.354416 -3.02326,3.023247 z" />
</svg>
